<svg xmlns="http://www.w3.org/2000/svg" viewBox="0 0 479.03 315.37"><defs><style>.cls-1{fill:#7f7f7f;}</style></defs><title>altalanos_szertar_1</title><g id="Réteg_2" data-name="Réteg 2"><g id="Réteg_1" data-name="Réteg 1"><path class="cls-1" d="M443.13,103.43c3.75-.13,7.25-.38,7.75-1s1.75-2.88-3-2.25-9.63.87-11.5,1.25-2.25,1.12-7.25,1.75-13.63,1.25-15.5,1.25-9.88-.25-12.38.37-6.87,2.13-8.62,2.38-9,.62-12.13,1.25-14.87.12-18.62.62-4,0-3.13-1.37,4.5-5.5,2.25-12.25-7.62-12.13-8.87-12.63-.88-.87-3.5-1-7-1.5-9.75,0-5.38,4.5-6.63,10.63-2.87,5-3.12,8-2,6.37-.63,7.75-5.62-.13-7-.25a45.42,45.42,0,0,1-6.75-1.25c-2.12-.63-5.75-2.88-9.12-3.25s-8.38-.63-9.63-1.5-6.62-1.38-7.25-3.38-7.25-1-7.25-.25v4.13s-3.62.25-3,1.62,5.75,1.13,5.75,1.13l4.63-.75a19.36,19.36,0,0,0,5.87,3.12A99.23,99.23,0,0,0,306,110.3a78.72,78.72,0,0,1,8,6c2.5,2.38,13.13,8.63,13.13,8.63l9,6.37-6.13,18s-3.87,6-6.25,8.13-4.75,3.3-4.75,4.71,2.5,1.66,3.5,1.66-5.25,6.88-6.75,7.25-18.87,25.38-18.87,25.38-9,13.12-10.63,14.25a20.07,20.07,0,0,1-7.82,3.12c-2.93.38-9.93.38-11.18.63s-4,.25-5.25,1.62a5.29,5.29,0,0,1-3.37,1.75,1,1,0,0,0-.88,1.38c.38.87,29.88,14.25,29.88,14.25l.75-2.25-2.84-1.64s5-4.61,6.46-6.36c1.83-2.24,3-7.52,4.56-9.94,4-6.17,10.27-8.9,13.09-11.23,4.59-3.79,4.94-6.06,4.94-6.06l4-5.83,6.81-5.63s8.69-3.56,8.19-1.81-1.32,6.56-2.57,8.5c0,1.12-1.68,3.75-2.06,5s-3.12,7.5-4.62,9.12-2.13,6.13-2.25,11.5a115.19,115.19,0,0,1-1.25,15c-.5,2.13-7.13,12.63-8.38,13.88s-2.5,5.37-3.5,6.62a23.87,23.87,0,0,1-4.5,4.25,2.84,2.84,0,0,0-1.5,2.63c0,.75-.09,5.46.25,5.62,1.36.65,12.63-2.62,14.5-3.12s1.13-2.5,1.13-2.5,2.75.12,3-1.13-1.38-8.25-1.38-8.25l3.38-6.62s8.62-13.13,9.62-15.5,0-10.75,0-12.25,3.5-8.13,5.5-9.75,7.5-13,7.5-13,8.25-6.75,10-10.13,2.5-1.37,2.5-1.37,7.13.37,9.88-2.25,2-9.75,2-9.75l-3.25-1.25s-2.38,1.75-3.63,0-7.87-13.5-7.87-13.5V146.3a61.56,61.56,0,0,0,4.5-11A118.83,118.83,0,0,1,365,122.93l4-2.63s18.5-3.25,21.13-5,7.75-1.12,7.75-1.12,8-.25,12.62-1.63,14.25-5,14.25-5h5.88a23,23,0,0,0,6.62.75,21.51,21.51,0,0,1,6.5.75s2-.87.88-1.5a5.47,5.47,0,0,0-3.38-.87c-1.75,0-3.75-.25-2.37-1.5S439.38,103.55,443.13,103.43ZM283.67,227.72c-.59,1.67-2.92.75-2.92.75l-6.5-3.58s1-.5,1.92-.84a14.73,14.73,0,0,1,4.66,0C282.33,224.22,284.25,226.05,283.67,227.72Zm22.72,35.82a5,5,0,0,1-1.14-.15c-.67-.17,0-3,0-3s3.38,1.45,3.67,2.33C309,263,306.39,263.54,306.39,263.54Z" transform="translate(0 -1.19)"/><path class="cls-1" d="M82.88,200.3l58.87,48.5H155v-3.25l-5.75-.62L126.5,228.05a54.67,54.67,0,0,1-6.75-19.5,80,80,0,0,1,.63-22.5,10.86,10.86,0,0,1,1.25-3.62l13.37,18a60.75,60.75,0,0,0,4.75,9c2.13,2.87,8.38,10.75,10.5,12.37s1.63,14.25,1.63,14.25l59.37,34.63s5.25,2.75,7.63,1.75a31.83,31.83,0,0,0,6-4.13s.87-1.62-1.63-2.62-41.37-20-41.37-20-3.63-10.5-7.25-12.75-6-3.63-6-3.63-2.38-6.75-3.88-12.37-2.75-12.13-4.37-14.5S139,173.05,139,173.05l-10.25-17.5s-2.87-6.12-2.25-6.75,8.63-9,8.63-9,1.37-3.25,4.75-1.25,9.75,6.13,9.75,6.13l17.12-3.13,10.42-5.5.41,1.5V182.3l3,36.17,1.5-.08-1.5-37.17-.5-47.33,6.59-5.5.5-4.17s-1.67-2.25-3.09-2.75-1.91-3.17-7.25,1.5-5.58,5.08-7.66,5-5.25-2.5-7.84-2.67-6.75,0-9.41-1-4.59-1.92-5.5-4-2.5-9.79-4.92-12-4.58-4.5-3.58-5.25,2.08-2.75,6-1.83,7.5-9,7.5-9-1.5-1.42-1.09-2.34.67-.66,1.42-1.16-1.42-9.09-2.92-10-3.08-5.59-13.33-5.84-13.42,14.34-13.42,14.34-6.33,5.25-11.41,5.83-7.75-.25-9.17.67-6.25,8.83-8.5,10.58-6.33,2.33-6.25,10.08-2.25,20.34-2.25,20.34L8.75,161.89l-1.08-2.25s-1.42-.92-2.17.16,0,4,0,4L0,165.05l.67,2.84L6,166.39s1.25,2,2.42,1.83,1.33-3.75,1.33-3.75l75.67-27.42L87,141.89l-.25,5.66h0l-3.58,9s-2.92,6.5,7.16,13-2.5,20.17-2.5,20.17Z" transform="translate(0 -1.19)"/><path class="cls-1" d="M275,123,234.56,68.4l5.11-6.9L237.59,60,233,66.23h0L228.31,60l-2.09,1.54,5.12,6.9L190.93,123h-6.79v3.08h97.62V123Zm-60.55-.58L233.58,96.3l19.17,26.09Z" transform="translate(0 -1.19)"/><path d="M81.87,51.73c-2.57,9.08-4.07,13.72-5.53,22.5-.61,3.9.46,4.59,2.55,4.83,1,.12,1.83.21,2,1.35.3,1.59-1.48,2.11-2.61,2.47L71.82,85c-1.13.37-3.23,1-3.66-.65-.36-1.36.67-1.62,1.8-2.66s2.3-2.81,3-7.37c1.69-9.76,4.48-19.42,7.1-29l.19-.05C81,47.85,81.28,49.14,81.87,51.73ZM88,68.13l-8.6,2.65c.26-1.49.4-2.24.71-3.74l7.28-2.22c-2.33-9.95-2.72-15.24-5.83-25.14.28-1.4.42-2.09.66-3.48,5.84-1.61,8.71-2.4,14.33-3.92C99.79,44,101,56.18,103.75,68.05c.35,1.55.45,2.64,2,2.88.79.12,1.41.35,1.47,1.39.08,1.56-1.88,2.08-2.92,2.4-5.47,1.64-8.2,2.49-13.73,4.23-1.1.35-2.76.76-3-.73a1.92,1.92,0,0,1,.86-2c1.37-1.32,1.54-1.79.88-3.93C88.79,70.67,88.52,69.83,88,68.13Zm8.78-48c-2.08,4.25-3.22,6.42-5.64,10.84l-7.44,2a83.15,83.15,0,0,0,1.92-9.92C90.18,21.88,92.41,21.28,96.8,20.14Z" transform="translate(0 -1.19)"/><path d="M126.44,68.48c-5.78,1.5-8.66,2.31-14.44,4-.22.07-2,.48-2.12-1.2a2.2,2.2,0,0,1,1.17-1.92c1.93-1.2,1.86-1.53,1.9-3.72.31-10.59,1.65-21.17,2.59-31.72.16-2.24.24-2.62-1.8-2.74a1.14,1.14,0,0,1-1.24-1.28c.06-1.74,2-2.37,2.27-2.43,6.77-1.75,10-2.58,16.33-4.09.22-.05,2-.37,1.92,1.36a2.39,2.39,0,0,1-1.32,1.91c-2,1.13-2,1.48-2.15,3.71C128.28,43,126.48,55.69,126.44,68.48Zm2.5-4c4.48-1.78,7.16-6.48,8.76-12.31A2.63,2.63,0,0,1,139.92,50c1.26-.29,1.27.82,1.19,2-.4,5.29-.56,7.92-.6,13.09-4.66,1-7,1.61-11.6,2.79C128.9,66.5,128.91,65.82,128.94,64.46Z" transform="translate(0 -1.19)"/><path d="M144,20.38c3-.65,4.42-.95,7.25-1.51-.06,1.37-.1,2.06-.17,3.44-2.69,2.71-3.72,6.82-4.46,10.09-.26,1.35-.66,3-2.13,3.29a1.21,1.21,0,0,1-1.58-1.36C143.44,28.72,143.71,25.92,144,20.38Zm9.44-1.95c4.72-.91,7-1.31,11.24-2,.14,12.46,0,24.92.17,37.38,0,2.16,0,2.51,2,2.86a1.42,1.42,0,0,1,1.3,1.39c.07,1.69-1.81,2.08-2,2.12-6.45,1-9.63,1.52-15.94,2.78-.22,0-2.06.3-2-1.4a2.13,2.13,0,0,1,1.25-1.82c2-1,1.9-1.37,2-3.55C151.81,43.62,152.91,31,153.45,18.43ZM173.58,29a1.7,1.7,0,0,1-1.4,1.87c-1.31.16-1.62-1.33-1.81-2.59-.56-3.05-1.33-6.84-3.66-8.68,0-1.36,0-2-.08-3.4,2.45-.35,3.64-.5,5.92-.75C173,20.85,173.18,23.56,173.58,29Z" transform="translate(0 -1.19)"/><path d="M189.36,28.7c-2.19,8.15-3.2,12.23-5,20.38-.74,3.63.21,4.53,2.31,5.22,1,.32,1.84.59,1.9,1.75.09,1.63-1.8,1.74-3,1.85-2.72.26-4.1.39-6.79.68-1.16.12-3.26.31-3.39-1.37-.11-1.4.88-1.45,2.06-2.23s2.57-2.27,3.39-6.5C183,38,184.25,32.77,187.07,22.3l.21,0C188.13,24.85,188.55,26.13,189.36,28.7Zm7.37,17c-3.6.26-5.41.41-9.06.72.28-1.37.42-2.06.71-3.44,3.09-.26,4.63-.38,7.68-.61-2.71-10.1-4.18-15.13-7.48-25.18.31-1.28.47-1.92.79-3.21,6.29-.49,9.33-.7,15.27-1,3.2,12,6,24.16,8.61,36.34.31,1.62.33,2.72,2,3.35.81.32,1.45.7,1.4,1.75-.06,1.57-2.18,1.6-3.31,1.65-5.87.26-8.81.43-14.7.85-1.18.08-2.89.09-2.92-1.42,0-.93.33-1.25,1.1-1.72,1.55-1,1.79-1.4,1.22-3.64C197.51,48.31,197.25,47.43,196.73,45.67Z" transform="translate(0 -1.19)"/><path d="M237.16,55.44c-6.23,0-9.35.06-15.58.24-.23,0-2.18,0-2.1-1.74a1.79,1.79,0,0,1,1.38-1.61c2.11-.71,2.07-1,2.19-3.21q.8-15.3,1.6-30.58c.11-2.16.2-2.52-2-3.09a1.5,1.5,0,0,1-1.31-1.53c.08-1.69,2.17-1.87,2.43-1.88,7.13-.21,10.6-.26,17.45-.25.24,0,2.23.12,2.11,1.81a1.76,1.76,0,0,1-1.43,1.57c-2.16.64-2.13,1-2.27,3.15Q238.42,36.88,237.16,55.44Zm2.89-3.39c4.83-.62,7.84-4.65,9.48-10a2,2,0,0,1,2.36-1.59c1.37,0,1.4,1.15,1.32,2.26l-1,12.94c-5-.12-7.47-.16-12.45-.17C239.91,54.08,240,53.41,240.05,52.05Z" transform="translate(0 -1.19)"/><path d="M269.05,27.35C266.2,35.19,264.78,39.12,262,47c-1.22,3.52-.47,4.54,1.47,5.5.91.45,1.71.84,1.62,2-.12,1.63-2,1.48-3.18,1.43-2.71-.11-4.07-.16-6.78-.24-1.18,0-3.3-.15-3.17-1.84.1-1.4,1.12-1.31,2.44-1.92s3-1.9,4.42-6c3.6-10.13,5.41-15.18,9.05-25.26H268C268.43,23.35,268.64,24.69,269.05,27.35Zm5,17.88c-3.46-.21-5.18-.31-8.63-.48l1.08-3.33c2.89.14,4.34.22,7.23.4-1.58-10.43-2.38-15.64-4-26.07.41-1.24.61-1.86,1-3.09,5.28.3,7.92.48,13.3.91q3,18.7,5.79,37.45c.2,1.65.16,2.76,1.75,3.61.79.43,1.4.9,1.3,1.94-.16,1.56-2.27,1.3-3.38,1.2-5.87-.53-8.8-.76-14.66-1.15-1.18-.07-2.88-.29-2.76-1.8.08-.94.45-1.2,1.25-1.56,1.6-.78,1.87-1.17,1.53-3.47C274.52,48,274.35,47.06,274,45.23ZM286.3,1.94c-2.84,3.41-4.24,5.13-7,8.58-2.73-.2-4.08-.29-6.79-.45,1.51-3.56,2.26-5.33,3.78-8.88C280.25,1.45,282.25,1.6,286.3,1.94Z" transform="translate(0 -1.19)"/><path d="M303.5,26.42h.12c1.13,2.47,1.69,3.71,2.82,6.2-.75,7-1.11,10.49-1.92,17.48.14,7.34,4.25,5.59,3.91,8.07-.25,1.79-2.69,1.35-3.35,1.27-2.72-.35-4.07-.51-6.76-.8-.65-.07-3.08-.21-2.9-2,.26-2.49,3.82.17,5.59-7C302,40.38,302.51,35.73,303.5,26.42ZM333.28,49.7a134,134,0,0,1-1.86,13.94c-3.65-.69-5.47-1-9.09-1.63-5.71-13.36-11.84-26.51-18-39.66-.81-1.73-1-2.64-3-3.5-1-.45-1.82-.77-1.69-2,.17-1.74,2.07-1.55,3.39-1.46,6.4.7,9.51,1.11,15.63,2C323.32,28.26,328.31,39,333.28,49.7Zm-2-19.47c.66-8.28-4.26-7-4-9.62.18-1.61,2.12-1.38,2.7-1.27,3.15.58,4.71.89,7.82,1.54.57.12,2.43.63,2.28,2.25-.25,2.66-4.83-.52-5.44,7.76-.41,5.63-.55,8.45-1,14.07l-.12,0-2.91-6.49C330.91,35.16,331,33.52,331.29,30.23Z" transform="translate(0 -1.19)"/><path d="M360.84,28.87c-2.69.28-3,2-3,3.42-.07,10,.14,20.06-.88,30-.16,1.44-.16,3.21,2.57,4.88-.22,1.32-.34,2-.62,3.31-11.63-3.65-17.09-15.35-16.65-26.69.39-10.14,7.27-20.52,18.8-18.24C360.94,26.86,360.9,27.53,360.84,28.87Zm1.42,38.94c3-.27,3.52-1.92,3.66-3.35.92-9.92.4-20,.23-30a5.26,5.26,0,0,0-2.79-5c.05-1.34.09-2,.18-3.34,11.22,4.37,17.23,16.19,18.24,27.51,1,11.71-8.75,19.71-20.14,17.41C361.92,69.8,362,69.13,362.26,67.81Z" transform="translate(0 -1.19)"/><path d="M399.13,40.24c-2.19,0-4.06,1-3.92,3.41.18,2.83,1.88,5,9.17,9.91,10.82,7.24,14,13.46,14.09,18.7.19,8.84-9.14,12-17.88,9.56.34-1.3.49-2,.72-3.26,3,0,5.7-.48,6-3.56.39-3.54-4.13-6.4-7-8.48-7.59-5.32-14.74-10.64-15.41-19.74-.65-8.81,5.7-12.32,14.23-9.87C399.11,38.24,399.1,38.91,399.13,40.24ZM385.82,63.45c0-1.21.2-2.76,1.87-2.28A3.43,3.43,0,0,1,390,63.72c.9,4.85,3.65,11.45,8.69,14-.23,1.31-.37,2-.71,3.27-5.1-1.65-5.82-4-8-4.57-1.92-.55-2.14,1.37-3.64.94-1.86-.53-1.43-2.62-1.38-2.9A53,53,0,0,0,385.82,63.45Zm29.5-9.09c.13,1.32.06,2.68-1.67,2.12a3.8,3.8,0,0,1-2.38-2.94c-1.09-4.47-5-10-9.53-12.46,0-1.33,0-2,0-3.32,3.67,1.24,7.61,4.71,8.26,4.92,1.55.5,1.46-1.59,3-1.07a2.7,2.7,0,0,1,1.7,3A80.84,80.84,0,0,0,415.32,54.36Z" transform="translate(0 -1.19)"/><path d="M49,130.15c-3.66,1.25-6.83,3.95-6.83,7.9,0,4.72,2.6,7.61,14.06,12,17,6.54,20.89,15.6,20.89,24.46,0,14.92-12.42,24.65-26.67,24.94V193.9c4.62-1.44,8.57-3.56,8.76-8.86.19-6.07-6.93-8.57-11.56-10.59-12.13-5.1-23.4-10.59-23.4-25.71,0-14.64,10.6-23.69,24.75-24.17ZM24.29,176.47c0-2,.39-4.72,3.09-4.72a3.72,3.72,0,0,1,3.56,3.18c1.35,7.7,6.74,17.24,15.21,19v5.59c-8.37-.2-10.2-3.57-13.67-3.57-3.08,0-2.79,3.18-5.2,3.18-3,0-3-3.56-3-4Zm50.27-31.1c0,2.21-.38,4.62-3.18,4.62-2.31,0-3.17-1.83-3.46-3.76-1.06-7.12-7-14.44-14.54-16.08v-5.58c6.06.09,12.52,3.75,13.57,3.75,2.51,0,2.32-3.46,4.82-3.46,3,0,2.79,3.27,2.79,4Z" transform="translate(0 -1.19)"/><path d="M135.52,132.08l-29.18,66H83.23v-5.2L112.6,126h22.92ZM85.06,126h23.21l-2.41,5.59C98,133.14,92.57,137.86,90.65,145c-.48,1.64-1,2.89-2.89,2.89a2.47,2.47,0,0,1-2.7-2.79Zm50.46,72H110.68l2.5-5.58c10-2.12,13.29-5.11,16.76-14,.48-1.63,1-2.89,2.79-2.89a2.48,2.48,0,0,1,2.7,2.8Z" transform="translate(0 -1.19)"/><path d="M144.77,126h25.42v72H144.77c-.39,0-3.56-.19-3.56-3a2.66,2.66,0,0,1,2.11-2.6c3.37-1.06,3.28-1.64,3.28-5.2V136.8c0-3.57.09-4.14-3.28-5.2a2.68,2.68,0,0,1-2.11-2.6C141.21,126.2,144.38,126,144.77,126Zm29.75,0H196v19.55c0,.48-.1,2.31-3,2.31-1.63,0-2.11-1-2.6-2.41-2.5-7.8-7.41-12.52-15.89-13.86Zm0,32.16c4-1,5.88-4.81,6.75-8.47.48-1.64,1-3.18,3.08-3.18,3,0,2.5,3.47,2.5,4.24v20.8c0,.77.48,4.24-2.5,4.24-2,0-2.6-1.54-3.08-3.18-.87-3.66-2.7-7.42-6.75-8.48Zm0,34.29c7.8-1,13.77-6.26,16.38-14,.67-1.44,1.25-3,3-3,3.08,0,2.79,2.89,2.79,3.27V198H174.52Z" transform="translate(0 -1.19)"/><path d="M211.22,136.8c0-3.57.09-4.14-3.28-5.2a2.68,2.68,0,0,1-2.12-2.6c0-2.8,3.18-3,3.57-3h25.42v61.25c0,3.56-.1,4.14,3.27,5.2a2.66,2.66,0,0,1,2.12,2.6c0,2.79-3.18,3-3.56,3H209.39c-.39,0-3.57-.19-3.57-3a2.67,2.67,0,0,1,2.12-2.6c3.37-1.06,3.28-1.64,3.28-5.2ZM239.14,126h.48c6.26,0,12.81-.19,18.59,2.6,6.45,3.18,9.73,8.48,9.82,15.79.2,11.08-7.12,15.89-16.95,18.2v.2c8.58,1.25,16.76,3.75,16.95,14v8.47c0,.87-.29,2.8,1,2.8,1.54,0,1.83-2.8,4.14-2.8a3.18,3.18,0,0,1,2.79,2.8c0,2.79-3.18,6.35-5.3,8-3.27,2.7-6.74,3.47-10.88,3.47s-7.9-1.06-10.88-4.05c-3.37-3.47-3.85-7.7-3.85-12.23v-6.55c0-4.43-.1-9.82-5.88-10.4v-5.68c5.2-.48,5.88-3.66,5.88-8.38V140.55c0-4.81-1.06-7.12-5.88-8.86Z" transform="translate(0 -1.19)"/><path d="M276.9,126h13.86v5.59c-5,3.56-6.35,9.91-7.22,15-.29,2.12-.77,4.62-3.46,4.62a2.91,2.91,0,0,1-3.18-2.79Zm18.2,0h23.59v61.25c0,3.56-.1,4.14,3.27,5.2a2.66,2.66,0,0,1,2.12,2.6c0,2.79-3.17,3-3.56,3H293.27c-.39,0-3.57-.19-3.57-3a2.67,2.67,0,0,1,2.12-2.6c3.37-1.06,3.28-1.64,3.28-5.2Zm41.79,22.44a2.91,2.91,0,0,1-3.18,2.79c-2.69,0-3.17-2.5-3.46-4.62-.87-5.11-2.22-11.46-7.23-15V126h13.87Z" transform="translate(0 -1.19)"/><path d="M361,150.37l-9.05,32.94c-1.55,5.87-.2,7.51,3.08,8.95,1.54.68,2.89,1.26,2.89,3.18,0,2.7-3.09,2.6-5,2.6H341.8c-1.92,0-5.39-.09-5.39-2.89,0-2.31,1.64-2.21,3.76-3.27s4.62-3.28,6.45-10.11l11.55-42.28h.29Zm10.3,29H357.21l1.35-5.59h11.75l-9.73-42.56,1.25-5.2h21.29l14.44,60.86c.58,2.7.67,4.53,3.37,5.68,1.35.58,2.41,1.25,2.41,3,0,2.6-3.47,2.5-5.3,2.5h-24c-1.92,0-4.71-.19-4.71-2.69,0-1.55.57-2,1.82-2.7,2.51-1.45,2.89-2.12,2-5.88Zm13.87-72.8-9.92,15H364.34l4.91-15Z" transform="translate(0 -1.19)"/><path d="M414.32,136.8c0-3.57.1-4.14-3.28-5.2a2.68,2.68,0,0,1-2.11-2.6c0-2.8,3.17-3,3.56-3h25.42v61.25c0,3.56-.09,4.14,3.28,5.2a2.66,2.66,0,0,1,2.11,2.6c0,2.79-3.17,3-3.56,3H412.49c-.39,0-3.56-.19-3.56-3a2.66,2.66,0,0,1,2.11-2.6c3.38-1.06,3.28-1.64,3.28-5.2ZM442.25,126h.48c6.26,0,12.8-.19,18.58,2.6,6.45,3.18,9.73,8.48,9.82,15.79.2,11.08-7.12,15.89-16.94,18.2v.2c8.57,1.25,16.75,3.75,16.94,14v8.47c0,.87-.28,2.8,1,2.8,1.54,0,1.83-2.8,4.14-2.8A3.18,3.18,0,0,1,479,188c0,2.79-3.18,6.35-5.29,8-3.28,2.7-6.75,3.47-10.89,3.47S455,198.43,452,195.44c-3.37-3.47-3.85-7.7-3.85-12.23v-6.55c0-4.43-.1-9.82-5.87-10.4v-5.68c5.2-.48,5.87-3.66,5.87-8.38V140.55c0-4.81-1.06-7.12-5.87-8.86Z" transform="translate(0 -1.19)"/><path d="M67.53,239.79c-2.51-.17-5.06.58-6,2.84-1.07,2.71-.17,5.09,6,10.44,9.23,7.95,10,14,8.21,19.21-3,8.72-13.27,11.46-22.77,7.85l1.24-3.22c3.36.38,6.42.15,7.67-2.86,1.44-3.46-2.64-6.71-5.16-9.08C50.15,258.89,44.4,252.63,48,244c3.54-8.32,12.06-10.63,20.73-7.46Zm-26.18,20c.49-1.15,1.39-2.57,3.1-1.82A2.54,2.54,0,0,1,46,260.77c-1,4.77.3,11.74,5.48,15L50.18,279c-5.49-2.36-5.9-4.82-8.17-5.79-2-.87-2.58,1-4.16.34-2-.86-1.1-2.89-1-3.16Zm38.71-5.16c-.45,1.29-1.18,2.61-2.94,2-1.46-.54-1.62-1.81-1.4-3a13.2,13.2,0,0,0-5.55-12.77l1.23-3.23c3.65,1.51,6.81,5.11,7.46,5.36,1.54.57,2.14-1.49,3.66-.93,1.83.66,1,2.53.89,3Z" transform="translate(0 -1.19)"/><path d="M95.88,295.13C83,292.05,78.31,278.62,82,267.07s14.61-19.69,26.83-16.43l-1,3.32c-3-.3-4.71,1.73-5.43,4.12l-8.1,27c-.71,2.4-.39,5.07,2.52,6.69Zm15.62-43.69c2.19.71,6.19,4.27,7.75,4.7a1.6,1.6,0,0,0,1.92-.65,1.73,1.73,0,0,1,1.93-.77,2,2,0,0,1,1.39,2.59l-3.4,13.39a1.92,1.92,0,0,1-2.52,1.55,2.49,2.49,0,0,1-1.75-2.7c.18-4.95-1.09-11.7-6.27-14.79Zm3.66,34.82a2,2,0,0,1,1.42,2.47c-1.25,4.66-11,9.52-17.77,7.28l1-3.32c5.27.5,10.27-1.28,12.8-5.16C113.2,286.66,113.81,285.9,115.16,286.26Z" transform="translate(0 -1.19)"/><path d="M141.23,298.92c-.44,2.16-.58,2.5,1.6,3.62a1.76,1.76,0,0,1,1.14,1.87c-.33,1.7-2.54,1.37-2.81,1.32-7.49-1.56-11.22-2.4-18.66-4.23-.27-.07-2.41-.72-2-2.4a1.7,1.7,0,0,1,1.81-1.21c2.44-.07,2.45-.44,3-2.59l7.11-30.4c.51-2.14.65-2.47-1.33-3.64a1.69,1.69,0,0,1-1-1.89c.41-1.68,2.43-1.3,2.67-1.25,6.83,1.68,10.26,2.46,17.13,3.89.24.05,2.22.57,1.89,2.27a1.65,1.65,0,0,1-1.65,1.31c-2.27.2-2.28.56-2.72,2.72Zm11.29-12.26c-2.25-.43-3.37-.65-5.61-1.11l.67-3.39c2.22.45,3.34.67,5.56,1.1,1-5.32,1.48-8,2.46-13.3.4-2.17.53-2.51-1.49-3.57a1.68,1.68,0,0,1-1.05-1.85c.33-1.7,2.36-1.42,2.6-1.37,6.88,1.34,10.34,1.94,17.25,3,.25,0,2.25.47,2,2.18a1.66,1.66,0,0,1-1.59,1.38c-2.25.32-2.25.67-2.58,2.86L166,303.49c-.33,2.19-.45,2.53,1.77,3.54a1.73,1.73,0,0,1,1.22,1.82c-.25,1.71-2.47,1.49-2.73,1.44-7.54-1.18-11.3-1.84-18.81-3.3-.26-.05-2.42-.6-2.1-2.3a1.7,1.7,0,0,1,1.75-1.29c2.43-.19,2.43-.56,2.83-2.73C151,295.07,151.48,292.26,152.52,286.66Z" transform="translate(0 -1.19)"/><path d="M198.77,272.11c-3,.72-3.43,2.46-3.59,3.95L192,306.78c-.15,1.49-.08,3.3,3,4.63l-.34,3.44c-12.54-2-19.34-13.57-17.68-25.51,1.57-11.27,10-21,22.17-20.67C199,270.05,198.91,270.74,198.77,272.11Zm-7.58-5.87a6.44,6.44,0,1,1,7.24-5.67A6.4,6.4,0,0,1,191.19,266.24ZM198,311.7c3.22-.71,3.63-2.48,3.76-4Q203,292.34,204.34,277c.13-1.48,0-3.28-2.79-4.56l.32-3.45c12,2,18.44,13.22,17.88,24.6-.6,12-9.42,22.11-22.11,21.61C197.77,313.77,197.83,313.08,198,311.7ZM210,268.09a6.44,6.44,0,1,1,7-6A6.47,6.47,0,0,1,210,268.09Z" transform="translate(0 -1.19)"/><path d="M229,282.86h.13c1.33,2.44,2,3.65,3.36,6.08-.2,7.2-.31,10.8-.51,18,.84,7.48,5.19,5.25,5.14,7.82,0,1.85-2.79,1.67-3.53,1.65-3.06-.08-4.59-.13-7.65-.26-.74,0-3.5,0-3.42-1.88.12-2.56,4.31,0,5.63-7.46Zm33.4,19.07c.17,5.77.25,8.65.42,14.42-4,.13-6,.17-10,.21-8.14-12.44-15.87-25-23.28-37.92-.94-1.71-1.22-2.61-3.24-3.35-1-.41-1.83-.68-1.78-2,.09-1.79,1.93-1.71,3.23-1.71,6.33.25,9.5.33,15.84.37Q252.48,287.25,262.36,301.93Zm-4.22-19.28c-.19-8.53-5.24-6.18-5.27-8.92,0-1.67,2-1.82,2.63-1.83,3.35-.06,5-.1,8.38-.22.62,0,2.66,0,2.72,1.69.11,2.74-5.05.65-4.81,9.18.17,5.8.26,8.69.43,14.49h-.13c-1.52-2.36-2.28-3.55-3.76-5.93C258.25,287.73,258.22,286,258.14,282.65Z" transform="translate(0 -1.19)"/><path d="M294,307.76c.19,2.2.15,2.57,2.54,3a1.71,1.71,0,0,1,1.62,1.46c.16,1.72-2,2-2.3,2.08-7.58.71-11.38,1-19,1.44-.27,0-2.49,0-2.57-1.71a1.71,1.71,0,0,1,1.38-1.69c2.3-.78,2.21-1.14,2.08-3.35q-.9-15.6-1.79-31.2c-.13-2.2-.09-2.56-2.3-3.09a1.66,1.66,0,0,1-1.44-1.54c-.09-1.72,1.94-2,2.18-2,7-.4,10.46-.66,17.41-1.32.25,0,2.29-.1,2.45,1.62a1.67,1.67,0,0,1-1.21,1.74c-2.1.86-2,1.21-1.82,3.41Q292.63,292.2,294,307.76Zm7.3-15.05c-2.26.24-3.39.36-5.66.58-.13-1.38-.19-2.06-.32-3.44,2.25-.22,3.37-.34,5.62-.58-.56-5.39-.84-8.08-1.41-13.47-.23-2.19-.21-2.55-2.44-3a1.67,1.67,0,0,1-1.51-1.47c-.17-1.72,1.84-2.05,2.09-2.07,6.95-.74,10.42-1.18,17.35-2.17.24,0,2.28-.21,2.52,1.5a1.68,1.68,0,0,1-1.13,1.79c-2.06,1-2,1.3-1.66,3.49q2.1,15.48,4.21,31c.29,2.19.27,2.56,2.68,2.87a1.7,1.7,0,0,1,1.69,1.38c.24,1.71-1.94,2.15-2.21,2.19-7.55,1.08-11.33,1.55-18.9,2.36-.27,0-2.49.14-2.66-1.58a1.72,1.72,0,0,1,1.31-1.75c2.26-.9,2.15-1.25,1.92-3.45C302.2,301.21,301.9,298.38,301.3,292.71Z" transform="translate(0 -1.19)"/><path d="M325.23,265.54c6.44-1.07,9.66-1.66,16.08-3l8.46,43.77c-7,1.41-10.49,2.05-17.52,3.22-.27,0-2.48.28-2.74-1.43a1.73,1.73,0,0,1,1.2-1.83c2.22-1,2.09-1.37,1.74-3.55q-2.51-15.42-5-30.83c-.35-2.18-.35-2.54-2.6-2.83a1.66,1.66,0,0,1-1.6-1.38C323,266,325,265.58,325.23,265.54ZM344,262c5.41-1.12,8.12-1.72,13.51-3,1.07,4.72,1.61,7.08,2.69,11.79.07.29.26,1.42-1.61,1.85-1.05.25-1.49-.26-2-1.07-2.65-4.34-6.37-6.47-11.91-6.18C344.45,264.07,344.31,263.39,344,262Zm3.89,19.53c2.52-1.2,3.25-3.74,3.35-6.07.1-1.06.28-2.08,1.58-2.37,1.93-.42,2.07,1.74,2.17,2.21,1.09,5,1.63,7.55,2.72,12.58.1.47.88,2.49-1.12,2.94-1.35.29-1.93-.56-2.46-1.48-1-2.09-2.72-4.1-5.52-4.19C348.36,283.73,348.22,283,347.93,281.56Zm4.15,20.8a13.2,13.2,0,0,0,9.28-10.87c.26-1,.44-2,1.59-2.27a1.72,1.72,0,0,1,2.32,1.54c1.06,4.64,1.6,7,2.66,11.61-6.05,1.45-9.09,2.12-15.18,3.38Z" transform="translate(0 -1.19)"/><path d="M368.69,263.14c-.53-2.14-.56-2.5-2.84-2.59a1.67,1.67,0,0,1-1.71-1.23c-.41-1.68,1.55-2.3,1.8-2.36,6.35-1.63,9.53-2.51,15.84-4.36l10.29,36.46c.6,2.12.63,2.49,3.08,2.44a1.71,1.71,0,0,1,1.87,1.12c.48,1.66-1.64,2.41-1.9,2.49-7.37,2.18-11.08,3.21-18.51,5.11-.26.07-2.45.51-2.86-1.17a1.74,1.74,0,0,1,1.06-1.93c2.13-1.22,2-1.55,1.44-3.69Zm15.78-11.34.3-.09c3.88-1.16,7.9-2.56,12-2.08a10.27,10.27,0,0,1,9.12,7.24c2.25,6.45-1.47,10.91-7.4,14.29l0,.11c5.76-1,11.52-1.35,13.63,4.6.65,2,1,3,1.64,5,.17.51.35,1.71,1.18,1.42,1-.35.66-2.05,2.18-2.59a2.08,2.08,0,0,1,2.4,1c.56,1.63-.84,4.46-1.94,5.91a12.18,12.18,0,0,1-6.63,4.51,10.81,10.81,0,0,1-8.05,0c-2.88-1.31-3.95-3.76-4.75-6.44L397,280.72c-.78-2.62-1.79-5.78-5.65-5-.39-1.35-.59-2-1-3.37,3.28-1.3,3.15-3.33,2.32-6.13l-2.05-6.9c-.85-2.86-1.92-4-5.23-4.14C385.06,253.83,384.86,253.15,384.47,251.8Z" transform="translate(0 -1.19)"/><path d="M442,234.57c-.72,15.22-1.82,30.35-3.28,45.51-6.12,2.42-9.19,3.58-15.36,5.79l-1.05-3c1.85-15.27,3.32-30.52,4.41-45.87,5.55-2.25,8.31-3.41,13.81-5.84Zm-32.05,8.81c5.68-2,8.51-3.13,14.14-5.37-.09,1.53-.14,2.29-.24,3.81-4.49,2.79-6.83,6.76-6.56,11.36,0,1.06,0,1.91-1.21,2.35a1.55,1.55,0,0,1-2.26-1Zm48,28.69c-6.5,2.86-9.76,4.24-16.33,6.87l.4-3.88c6.09-3.88,7.52-6.53,7.64-12.55-.08-1.06-.07-1.91,1.1-2.42,1.72-.75,2.25.51,2.39.84Z" transform="translate(0 -1.19)"/></g></g></svg>