<svg id="Réteg_3" data-name="Réteg 3" xmlns="http://www.w3.org/2000/svg" xmlns:xlink="http://www.w3.org/1999/xlink" viewBox="0 0 1200 497.84"><defs><style>.cls-1{fill:#ef3f2d;}.cls-2,.cls-4{opacity:0.5;}.cls-2{fill:url(#radial-gradient);}.cls-3{fill:#b11f29;}.cls-5{fill:#ef3f2c;}.cls-6{fill:#003a4a;}</style><radialGradient id="radial-gradient" cx="321.08" cy="156.87" r="187.13" gradientUnits="userSpaceOnUse"><stop offset="0.53" stop-color="#b11f29" stop-opacity="0"/><stop offset="1" stop-color="#b11f29"/></radialGradient></defs><title>bazis</title><path class="cls-1" d="M317.57,283.17c-5.43-10.3-13-16.27-31.48-21.7-14.51-4.27-85.75-33.11-114.52-54.82s-9.09-32.88,25.51-46.67c38.81-15.47,57.59-15.07,85.75-25.51,23.42-8.69,24.84-38.24,3.26-44-23.88-6.33-35.32,23.33-51.31,33.1s-60.39,23.88-93.6,23.88c-39.35,0-54.82,14.11-54.82,39.62,0,25,26.86,34.49,41.79,36.7,23,3.41,109.09,36.84,109.09,69.68,0,7.21-6.43,12.76-16.29,17-5.79,2.13-12.08,4.12-18.72,5.84-1.48.39-3,.73-4.53,1.09-34.19,7.18-78.2,7.39-78.78,7.39-6.74-.21-13.13-.63-19-1.25-2.37-.21-4.65-.49-6.83-.78s-4.25-.56-6.2-.88-3.79-.61-5.49-.93-3.28-.63-4.7-.94c-5.69-1.19-9-2.26-9-2.26a51.89,51.89,0,1,0,21,86s2.47-2.5,7-6.18c1.12-.93,2.37-1.95,3.74-3s2.84-2.21,4.43-3.37,3.29-2.42,5.1-3.64,3.69-2.57,5.69-3.85a282.8,282.8,0,0,1,27.69-16c5.14-2.62,10.5-5.13,16-7.55,2-.87,4-1.7,6-2.54,12.43-4.85,48.81-16.34,85.43-13.69,37.44,2.72,45.86,2.45,60.78-12.48S323,293.47,317.57,283.17Z"/><path class="cls-1" d="M145.84,43.51l-19.72,29.1q5.59.28,11.54.76L149.73,45.9C148.39,45.1,147.08,44.3,145.84,43.51Z"/><path class="cls-1" d="M134.17,35.41,109.36,72c3.79.08,7.78.21,11.94.38l16.27-34.45C136.34,37.05,135.22,36.22,134.17,35.41Z"/><path class="cls-1" d="M125.71,28.23c-.87-.88-1.77-1.82-2.69-2.79L92.2,71.68l12.33.21,21.4-43.45Z"/><path class="cls-1" d="M158.35,50.79l-16.79,22.9q5.56.51,11.35,1.22L162.54,53Q160.38,51.88,158.35,50.79Z"/><path class="cls-1" d="M82.51-.65,49.16,51.13a39.34,39.34,0,0,0,7.91,10.54L88.91-.44A35.69,35.69,0,0,0,82.51-.65Z"/><path class="cls-1" d="M113.05,14.75l-37.33,56a127.69,127.69,0,0,0,12.93.84L116.13,18Q114.63,16.36,113.05,14.75Z"/><path class="cls-1" d="M47.15,21.71a35.13,35.13,0,0,0-.3,23.94L68.07,2.37C59.31,5.67,51,11.81,47.15,21.71Z"/><path class="cls-1" d="M99.37,3.38,59.92,64.09a33.64,33.64,0,0,0,12.38,6L104.64,7.05A50,50,0,0,0,99.37,3.38Z"/><path class="cls-1" d="M184.89,62.87,173.65,78.21q4.8.95,9.68,2.09l6.81-15.49C188.36,64.17,186.6,63.53,184.89,62.87Z"/><path class="cls-1" d="M171.66,57.37,158.28,75.63c3.34.47,6.73,1,10.14,1.61l7.85-17.85Q173.91,58.39,171.66,57.37Z"/><path class="cls-1" d="M225.33,74.45C222,77.2,217.69,82,214.44,90c3.62,1.42,7.23,2.94,10.82,4.59.59-4.91,2.37-13.28,5.66-19C229,75.2,227.18,74.82,225.33,74.45Z"/><path class="cls-1" d="M212.9,71.67A42.86,42.86,0,0,0,201.64,85.4q4.67,1.5,9.35,3.23a57.75,57.75,0,0,1,4.72-16.27C214.77,72.13,213.83,71.91,212.9,71.67Z"/><path class="cls-1" d="M199.13,67.82,189,81.7c2.91.76,5.82,1.6,8.74,2.48,1-4.84,2.85-10.89,5.78-15.08C202,68.68,200.54,68.26,199.13,67.82Z"/><path class="cls-1" d="M242.69,77.32c-4.21,2.21-10.84,7.31-14.83,18.45,1.43.68,2.85,1.37,4.28,2.09l2.86-3c4.87-5.22,10.6-11.34,17.44-16.37C249.14,78.11,245.88,77.75,242.69,77.32Z"/><path class="cls-2" d="M163.52,199.54c-15.94-17.21,3-27.37,33.56-39.56C220,150.83,236,147.23,251,143.66l-8.65-26.2a41.85,41.85,0,0,1-7.55,6.15c-14.42,8.82-52,21.16-83.56,23.49C133.93,166.3,145.09,183.6,163.52,199.54Z"/><path class="cls-3" d="M180.3,212.66h0l-.06,0Z"/><path class="cls-3" d="M189.56,246.69c25.11,13,47.68,30,47.68,46.8,0,5.39-3.6,9.86-9.54,13.56,2.71,6.36,3.38,20-5.16,37.27a169.62,169.62,0,0,1,27.19-.36c15.15,1.1,25.54,1.71,33.54,1.06,6.93-4.48,7.32-13.55-.71-30.63C269.45,286.5,208.49,255,189.56,246.69Z"/><g class="cls-4"><path class="cls-3" d="M103.53,367.1c-29.11,0-48.65-10.38-70.63-10.38C14.43,356.72,6,367.21.8,376.24a51.88,51.88,0,0,0,88,27.53s2.47-2.5,7-6.18c1.12-.93,2.37-1.95,3.74-3s2.84-2.21,4.43-3.37,3.29-2.42,5.1-3.64,3.69-2.57,5.69-3.85a282.8,282.8,0,0,1,27.69-16c5.14-2.62,10.5-5.13,16-7.55l.8-.34C145.53,363.84,123.63,367.1,103.53,367.1Z"/></g><polygon class="cls-5" points="495.24 497.84 495.24 455.53 482.9 455.53 475.24 484.64 474.45 484.64 466.71 455.53 454.4 455.53 454.4 497.84 461.67 497.84 461.67 464.3 462.48 464.2 470.93 497.84 478.68 497.84 487.16 464.2 487.96 464.3 487.96 497.84 495.24 497.84"/><path class="cls-5" d="M517.7,484.6H538c0-6-1.21-10.52-3.76-13.43s-6.19-4.47-10.69-4.47a13,13,0,0,0-10,4.27c-2.62,2.84-4,6.84-4,11.89a17.58,17.58,0,0,0,3,10.53c2.51,3.42,6.46,5.15,11.73,5.15a14.41,14.41,0,0,0,8.34-2.29,13,13,0,0,0,4.7-6.25l-7.4-1.24a6.64,6.64,0,0,1-2,3.27,5.49,5.49,0,0,1-3.52,1.15,6.66,6.66,0,0,1-5.06-2.17,8.8,8.8,0,0,1-2.11-6Zm1.58-10.28a6.17,6.17,0,0,1,4.78-2.11,6.09,6.09,0,0,1,4.59,2,8.4,8.4,0,0,1,2,5.73l-.4.41H517.85l-.41-.4A8.07,8.07,0,0,1,519.28,474.32Z"/><polygon class="cls-5" points="523.97 454.79 520.28 462.77 524.7 462.77 532.04 454.79 523.97 454.79"/><path class="cls-5" d="M549.36,467.41v30.43h7.45v-9.25c0-5.4.23-8.86.71-10.58a6.77,6.77,0,0,1,2-3.66c1.68-1.33,4.16-1.49,6.87.1l2.27-6.41a10,10,0,0,0-4.94-1.34,6.18,6.18,0,0,0-3.36.94,13.11,13.11,0,0,0-3.42,4l-.75-.22v-4Z"/><path class="cls-5" d="M606.54,497.84v-19a26,26,0,0,0-.44-5.47,8.74,8.74,0,0,0-1.55-3.32,8,8,0,0,0-3.26-2.38,12,12,0,0,0-4.84-1,12.17,12.17,0,0,0-10,5.14l-.73-.25v-4.18h-6.86v30.43h7.45V484.09a26.86,26.86,0,0,1,.66-7.3,6.34,6.34,0,0,1,2.49-3.33,7,7,0,0,1,4.08-1.25,5.37,5.37,0,0,1,3.1.9,5,5,0,0,1,1.88,2.51c.37,1,.55,3.23.55,6.68v15.54Z"/><rect class="cls-5" x="638.17" y="454.79" width="6.31" height="6.28"/><rect class="cls-5" x="625.52" y="454.79" width="6.28" height="6.28"/><path class="cls-5" d="M646.62,471.19a15.25,15.25,0,0,0-11.33-4.49,16.65,16.65,0,0,0-8.11,2,13.51,13.51,0,0,0-5.59,5.71,16.65,16.65,0,0,0-2,7.78,18.72,18.72,0,0,0,2,8.94,13,13,0,0,0,5.75,5.52,17.84,17.84,0,0,0,8,1.9A15.15,15.15,0,0,0,646.58,494,15.75,15.75,0,0,0,651,482.53,15.55,15.55,0,0,0,646.62,471.19ZM641.06,490a7.62,7.62,0,0,1-11.48,0c-1.54-1.71-2.31-4.2-2.31-7.39s.77-5.67,2.31-7.39a7.63,7.63,0,0,1,11.47,0c1.53,1.72,2.3,4.19,2.3,7.34S642.58,488.3,641.06,490Z"/><polygon class="cls-5" points="663.81 453.9 663.81 497.84 671.26 497.84 671.26 488.24 671.38 487.96 675.23 483.93 675.88 484.01 683.62 497.84 691.59 497.84 680.49 478.62 680.55 478.14 690.59 467.41 681.53 467.41 671.97 478.27 671.26 478 671.26 453.9 663.81 453.9"/><rect class="cls-5" x="720.04" y="454.79" width="6.31" height="6.28"/><path class="cls-5" d="M728.49,471.19a15.23,15.23,0,0,0-11.33-4.49,16.68,16.68,0,0,0-8.11,2,13.43,13.43,0,0,0-5.58,5.71,16.49,16.49,0,0,0-2,7.78,18.69,18.69,0,0,0,2,8.94,13,13,0,0,0,5.75,5.52,17.84,17.84,0,0,0,8,1.9A15.15,15.15,0,0,0,728.45,494a15.75,15.75,0,0,0,4.46-11.47A15.56,15.56,0,0,0,728.49,471.19ZM722.93,490a7.62,7.62,0,0,1-11.48,0c-1.53-1.71-2.31-4.2-2.31-7.39s.78-5.67,2.31-7.39a7.64,7.64,0,0,1,11.48,0c1.52,1.72,2.29,4.19,2.29,7.34S724.45,488.3,722.93,490Z"/><rect class="cls-5" x="707.39" y="454.79" width="6.27" height="6.28"/><path class="cls-5" d="M754.91,492a2.19,2.19,0,0,1-.9-1.27,26.75,26.75,0,0,1-.17-4.56V473.59l.41-.4h5.24v-5.78h-5.24l-.41-.41v-9l-7.48-.06V467l-.41.41h-3.39v5.78H746l.41.4v13.62a38.74,38.74,0,0,0,.26,5.75,7.21,7.21,0,0,0,1.09,3.06,5.43,5.43,0,0,0,2.46,1.8,9.92,9.92,0,0,0,3.87.72,16.08,16.08,0,0,0,6.09-1.09l-.61-5.59C757.14,492.67,755.88,492.71,754.91,492Z"/><path class="cls-5" d="M812.2,494.69c.06.16.16.5.31,1,.26.92.49,1.63.68,2.15h7.26a17.43,17.43,0,0,1-1.25-3.71,33.92,33.92,0,0,1-.4-6.15l.08-9.65c0-3.5-.35-5.93-1-7.2A7.81,7.81,0,0,0,814.2,468c-1.74-.84-4.45-1.27-8.06-1.27-3.95,0-7,.71-8.94,2.11a11.12,11.12,0,0,0-4.07,6.05l6.72,1.21a6.12,6.12,0,0,1,2-2.91,6.29,6.29,0,0,1,3.67-1c2.3,0,3.84.37,4.71,1.12a4.64,4.64,0,0,1,1.32,3.7v.83l-.25.37a45.34,45.34,0,0,1-8.11,2.06,27.19,27.19,0,0,0-6.47,1.89,7.88,7.88,0,0,0-3.38,3,8.55,8.55,0,0,0-1.21,4.51,8.37,8.37,0,0,0,2.66,6.33,10.3,10.3,0,0,0,7.32,2.5,12.49,12.49,0,0,0,5-1,14.58,14.58,0,0,0,4.41-3ZM809.12,492a7.6,7.6,0,0,1-4.51,1.55,4.93,4.93,0,0,1-3.58-1.38,4.47,4.47,0,0,1-1.41-3.29,3.86,3.86,0,0,1,1.79-3.25,15.31,15.31,0,0,1,4.65-1.5,51.33,51.33,0,0,0,5-1.26l.54.39v1.65a16.44,16.44,0,0,1-.34,4.15A5.64,5.64,0,0,1,809.12,492Z"/><path class="cls-5" d="M900.67,497.84V478.27a17.61,17.61,0,0,0-.82-6.31,8.21,8.21,0,0,0-3.4-3.91,10.94,10.94,0,0,0-5.61-1.35,10.65,10.65,0,0,0-4.9,1.19,14.06,14.06,0,0,0-4.32,3.64l-.67-.06a9.05,9.05,0,0,0-3.46-3.58,10.09,10.09,0,0,0-5-1.19c-3.62,0-6.79,1.63-9.42,4.83l-.72-.26v-3.86h-6.81v30.43H863V483.06a22.22,22.22,0,0,1,.68-6.57,6.08,6.08,0,0,1,2.35-3.18,6.42,6.42,0,0,1,3.67-1.1,4.74,4.74,0,0,1,2.75.73,4.2,4.2,0,0,1,1.52,2.17,23.75,23.75,0,0,1,.46,6v16.72h7.45v-14.6a22.35,22.35,0,0,1,.7-6.58,6.33,6.33,0,0,1,2.36-3.32,6,6,0,0,1,3.49-1.13,4.34,4.34,0,0,1,3.88,2c.61,1,.92,3,.92,6.23v17.45Z"/><path class="cls-5" d="M921.15,484.6h20.31c0-6-1.21-10.52-3.76-13.43s-6.19-4.47-10.69-4.47A13,13,0,0,0,917,471c-2.62,2.84-3.95,6.84-3.95,11.89a17.58,17.58,0,0,0,3,10.53c2.51,3.42,6.46,5.15,11.73,5.15a14.41,14.41,0,0,0,8.34-2.29,13,13,0,0,0,4.7-6.25l-7.4-1.24a6.71,6.71,0,0,1-2,3.27,5.49,5.49,0,0,1-3.52,1.15,6.66,6.66,0,0,1-5.06-2.17,8.8,8.8,0,0,1-2.11-6Zm1.58-10.28a6.16,6.16,0,0,1,4.78-2.11,6.09,6.09,0,0,1,4.59,2,8.4,8.4,0,0,1,2,5.73l-.4.41H921.3l-.41-.4A8.07,8.07,0,0,1,922.73,474.32Z"/><polygon class="cls-5" points="927.41 454.79 923.73 462.77 928.15 462.77 935.49 454.79 927.41 454.79"/><path class="cls-5" d="M954.44,467.41v30.43h7.45v-9.25c0-5.4.23-8.86.7-10.58a7,7,0,0,1,2-3.66c1.68-1.33,4.16-1.49,6.86.1l2.28-6.41a10,10,0,0,0-4.94-1.34,6.18,6.18,0,0,0-3.36.94,13.11,13.11,0,0,0-3.42,4l-.75-.22v-4Z"/><path class="cls-5" d="M1011.62,497.84v-19a25.26,25.26,0,0,0-.45-5.47,8.87,8.87,0,0,0-1.54-3.32,8,8,0,0,0-3.27-2.38,11.92,11.92,0,0,0-4.84-1,12.17,12.17,0,0,0-10,5.14l-.73-.25v-4.18H984v30.43h7.45V484.09a27,27,0,0,1,.65-7.3,6.42,6.42,0,0,1,2.5-3.33,7,7,0,0,1,4.08-1.25,5.37,5.37,0,0,1,3.1.9,5,5,0,0,1,1.87,2.51,24.55,24.55,0,0,1,.56,6.68v15.54Z"/><rect class="cls-5" x="1043.25" y="454.79" width="6.31" height="6.28"/><rect class="cls-5" x="1030.6" y="454.79" width="6.27" height="6.28"/><path class="cls-5" d="M1051.7,471.19a15.26,15.26,0,0,0-11.33-4.49,16.63,16.63,0,0,0-8.11,2,13.51,13.51,0,0,0-5.59,5.71,16.59,16.59,0,0,0-2,7.78,18.57,18.57,0,0,0,2,8.94,13,13,0,0,0,5.75,5.52,17.81,17.81,0,0,0,8,1.9,15.13,15.13,0,0,0,11.22-4.54,15.75,15.75,0,0,0,4.46-11.47A15.55,15.55,0,0,0,1051.7,471.19ZM1046.13,490a7.62,7.62,0,0,1-11.48,0c-1.53-1.71-2.31-4.2-2.31-7.39s.78-5.67,2.31-7.39a7.64,7.64,0,0,1,11.48,0c1.52,1.72,2.3,4.19,2.3,7.34S1047.65,488.3,1046.13,490Z"/><polygon class="cls-5" points="1067.26 452.27 1067.26 497.84 1074.71 497.84 1074.71 488.24 1074.83 487.96 1078.68 483.93 1079.33 484.01 1087.07 497.84 1096.61 497.84 1083.96 478.64 1084 478.14 1094.04 467.41 1084.98 467.41 1075.42 478.27 1074.71 478 1074.71 452.27 1067.26 452.27"/><path class="cls-5" d="M1117.4,492a2.22,2.22,0,0,1-.89-1.27,24.57,24.57,0,0,1-.18-4.56V473.59l.41-.4H1122v-5.78h-5.24l-.41-.41v-9l-7.48-.06V467l-.4.41h-3.39v5.78h3.39l.4.4v13.62a40.23,40.23,0,0,0,.26,5.75,7.35,7.35,0,0,0,1.09,3.06,5.49,5.49,0,0,0,2.46,1.8,10,10,0,0,0,3.88.72,16.15,16.15,0,0,0,6.09-1.09l-.62-5.59C1119.64,492.67,1118.37,492.71,1117.4,492Z"/><polygon class="cls-5" points="1143.94 453.04 1140.23 461 1144.59 461 1151.44 453.04 1143.94 453.04"/><path class="cls-5" d="M1159.42,471.19a15.26,15.26,0,0,0-11.33-4.49,16.69,16.69,0,0,0-8.12,2,13.49,13.49,0,0,0-5.58,5.71,16.49,16.49,0,0,0-2,7.78,18.69,18.69,0,0,0,2,8.94,13,13,0,0,0,5.75,5.52,17.85,17.85,0,0,0,8,1.9,15.13,15.13,0,0,0,11.22-4.54,15.75,15.75,0,0,0,4.46-11.47A15.59,15.59,0,0,0,1159.42,471.19ZM1153.85,490a7.62,7.62,0,0,1-11.48,0c-1.53-1.71-2.31-4.2-2.31-7.39s.78-5.67,2.31-7.39a7.64,7.64,0,0,1,11.48,0c1.52,1.72,2.29,4.19,2.29,7.34S1155.37,488.3,1153.85,490Z"/><polygon class="cls-5" points="1155.06 453.04 1151.3 461 1155.76 461 1162.35 453.04 1155.06 453.04"/><rect class="cls-5" x="1176.9" y="453.9" width="7.45" height="43.94"/><path class="cls-6" d="M474.16,69.65,462.53,66q-3.11-1-3.1-3.77a2.52,2.52,0,0,1,.4-1.39q2.21-4.08,8-4.08h.37a9.47,9.47,0,0,1,3.46.89,7.48,7.48,0,0,0,5.17,2.54h.34l1.13-.11q3.92-1.47,3.92-4.32a4.38,4.38,0,0,0-1.16-2.86,18.26,18.26,0,0,0-13.23-5.31,22.71,22.71,0,0,0-11,2.75q-8.14,4.84-8.14,12.39L449,65c1,3.27,2.66,5.57,4.86,6.92a21.28,21.28,0,0,0,5.85,3c6.71,1.76,10.8,3.16,12.24,4.19,1.54,1.19,2.3,2.3,2.3,3.33v.62a5.61,5.61,0,0,1-.64,2.49,7.6,7.6,0,0,1-6.95,4.33h-.86a17.57,17.57,0,0,1-8-2c-2-1.92-3.83-2.88-5.63-2.88H452a7.2,7.2,0,0,0-2.27.49c-1.84,1.11-2.76,2.27-2.76,3.51v.74a4,4,0,0,0,1.29,2.75Q455.37,99,466.41,99A20.26,20.26,0,0,0,477.13,96q7.77-5.24,7.77-13.65,0-3.93-3.95-8.38A22.45,22.45,0,0,0,474.16,69.65Z"/><path class="cls-6" d="M556.88,57.25h.32a16.45,16.45,0,0,1,7.91,1.93,8.11,8.11,0,0,0,3.83,1.48l.92-.1c2.46-.74,3.68-2.19,3.68-4.36a4.69,4.69,0,0,0-1.29-2.93,25.37,25.37,0,0,0-15-4.73,28.1,28.1,0,0,0-9,1.47q-3.88,1.2-9.14,5.46-7.71,8-7.7,16.76V74a21.1,21.1,0,0,0,1.68,7.84q1.08,3.7,6,8.82a26.49,26.49,0,0,0,26.12,5.76q8.32-2.61,8.33-6.36l-.21-1.26A4.42,4.42,0,0,0,569,85.6a5.37,5.37,0,0,0-1.87.38,18.46,18.46,0,0,1-9.69,3A17.05,17.05,0,0,1,545,84a15.2,15.2,0,0,1-.87-20.87A16.74,16.74,0,0,1,556.88,57.25Z"/><path class="cls-6" d="M659.14,48.91l-1.21.1c-2.38.75-3.57,2.12-3.57,4.09V69.53H631.65V54.48l-.1-2q-1.15-3.55-4.47-3.55l-1,.1q-3.57,1.11-3.57,4V93.26a3.89,3.89,0,0,0,.39,1.58A4.56,4.56,0,0,0,627,97.35a4.38,4.38,0,0,0,2.89-1q1.78-.87,1.78-4.84V76.63H654l.37.35v16l.21,1.33a4.47,4.47,0,0,0,4.34,3.08l1.63-.29a4.54,4.54,0,0,0,3-4.69V53.89a7.31,7.31,0,0,0-.29-2.17C662.2,49.84,660.84,48.91,659.14,48.91Z"/><path class="cls-6" d="M939.19,48.91,938,49c-2.39.75-3.58,2.12-3.58,4.09V69.53h-22.7V54.48l-.11-2q-1.15-3.55-4.47-3.55l-1,.1q-3.57,1.11-3.57,4V93.26a3.89,3.89,0,0,0,.39,1.58A4.56,4.56,0,0,0,907,97.35a4.36,4.36,0,0,0,2.89-1q1.79-.87,1.79-4.84V76.63H934l.37.35v16l.21,1.33A4.47,4.47,0,0,0,939,97.35l1.63-.29q3-1.14,3-4.69V53.89a7.31,7.31,0,0,0-.29-2.17C942.25,49.84,940.89,48.91,939.19,48.91Z"/><path class="cls-6" d="M737,48.61A24.46,24.46,0,0,0,712.48,73v.2A24.76,24.76,0,0,0,717.42,88q8.12,9.69,19.47,9.69a24.69,24.69,0,0,0,15.83-5.74q8.79-7.87,8.79-18.78a24.44,24.44,0,0,0-5.34-15.23Q748.33,48.62,737,48.61Zm12.69,34Q744.46,89,737.19,89a16.1,16.1,0,0,1-9.13-2.75q-6.9-5.23-6.89-12.68v-.8a15.28,15.28,0,0,1,2.34-7.91q5.12-7.51,13.38-7.52h.2a15.9,15.9,0,0,1,8.22,2.35q7.52,5.26,7.51,13.38A16.1,16.1,0,0,1,749.68,82.57Z"/><path class="cls-6" d="M742.89,45.31a5,5,0,0,0,2.45.65,5,5,0,0,0,2.41-.64,4.49,4.49,0,0,0,1.8-1.79,4.83,4.83,0,0,0,0-4.84,4.61,4.61,0,0,0-1.8-1.81,4.8,4.8,0,0,0-4.86,0,4.5,4.5,0,0,0-1.8,1.82,5,5,0,0,0,0,4.78A4.42,4.42,0,0,0,742.89,45.31Z"/><path class="cls-6" d="M725.52,45.29A4.86,4.86,0,0,0,728,46a4.92,4.92,0,0,0,2.4-.65,4.54,4.54,0,0,0,1.81-1.8,4.81,4.81,0,0,0,0-4.83,4.54,4.54,0,0,0-1.81-1.8,4.92,4.92,0,0,0-2.4-.65,4.86,4.86,0,0,0-2.45.67,4.48,4.48,0,0,0-1.79,1.82,5.06,5.06,0,0,0-.62,2.38,5,5,0,0,0,.62,2.38A4.46,4.46,0,0,0,725.52,45.29Z"/><path class="cls-6" d="M848.09,49.77a5.93,5.93,0,0,0-1.67.26q-2.73,1.09-2.73,4.54v27L823.55,53.36c-1.35-2.4-2.89-3.59-4.63-3.59h-2.13a4.21,4.21,0,0,0-4.58,4.52V92l.09,1.18q1.1,3.34,4.08,3.34l.85-.1q3.38-1,3.38-4.23v-28h.48q.42.83,20.26,28.57,2,3.69,4.71,3.69h1.45a4.47,4.47,0,0,0,3.31-1.17,4,4,0,0,0,1.28-2.87V54l-.2-1.28Q850.7,49.77,848.09,49.77Z"/><path class="cls-6" d="M1022.81,59.12l1.63-.1q3.68-1.16,3.68-4.27l-.21-.93q-1.22-3.28-4.26-3.28H998.93l-1.42.19q-3.28,1.19-3.29,3.9V93l.21,1.35c.75,2,2.42,3,5,3h23.18l1.31-.09q3.89-1,3.89-4v-.17l-.21-1.34a4.54,4.54,0,0,0-4.47-3h-19.75V76.83h15.76a8.19,8.19,0,0,0,2.1-.17q2.89-1,2.89-3.41l-.1-.86a3.81,3.81,0,0,0-3.94-2.86h-16.71V59.12Z"/><path class="cls-6" d="M1196,88.59h-22.1l22.25-29.72q3.16-4,3.34-5.24a3.6,3.6,0,0,0-.12-1.93,3.83,3.83,0,0,0-3.93-2.51H1168.6l-1.56.19c-2.24.88-3.48,2.13-3.7,3.76l-.08,1.32q.71,3.21,4.54,3.21h18.73l-11,14.8-10.64,14.34c-2.42,2.87-3.7,4.82-3.84,5.82l-.09.66c.21,2.52,1.69,3.78,4.46,3.78h28.7l1.64-.1c2.49-.78,3.87-2.09,4.13-4l.12-.85Q1199.37,88.59,1196,88.59Z"/><path class="cls-6" d="M1107.7,78.87c5.11-2.18,7.43-6.6,7.43-13,0-5.07-1.27-9-3.81-11.73a17.87,17.87,0,0,0-12.64-5h-15.13a7,7,0,0,0-2,.27c-2,.69-3,2.34-3,5V91.91l.11,1.72c.77,2.34,2.25,3.52,4.44,3.52l1.63-.29c2-.89,3-2.17,3-3.87V80.65h10.08l10.6,13.56q1.92,2.94,4.41,2.94h.21a3.62,3.62,0,0,0,1.26-.17c2.21-.82,3.31-2.2,3.31-4.16l-.39-1.59C1116.77,90.53,1113.6,86.39,1107.7,78.87ZM1087,71.78V57.63h11.63a14.52,14.52,0,0,1,3.61.52c3,1,4.51,3.25,4.51,6.63l-.34,2.7q-2,4.3-7.44,4.3Z"/><path class="cls-6" d="M567.09,229.81a40.21,40.21,0,0,0,14.11-30.62v-2.44a46.4,46.4,0,0,0-46.4-46.41H462.14a14,14,0,0,0-14,14V307.67a12.82,12.82,0,0,0,12.82,12.82h87.31a47.22,47.22,0,0,0,47.22-47.22v-7.93A36.44,36.44,0,0,0,567.09,229.81Zm-87.24-48.94h52.3a16.9,16.9,0,0,1,16.9,16.89v5.09A14.25,14.25,0,0,1,534.8,217.1H479.85Zm81.41,90a20.35,20.35,0,0,1-20.36,20.35h-61V247.63h61A20.35,20.35,0,0,1,561.26,268Z"/><rect class="cls-6" x="997.21" y="150.34" width="33.38" height="170.15" rx="16.52"/><path class="cls-6" d="M784.19,299.56l-67.32-135-2.32-4.67a17,17,0,0,0-30.5,0l-2.32,4.67-67.32,135a15.57,15.57,0,0,0,7,20.88l.28.14a15.57,15.57,0,0,0,20.88-7l11.17-22.41h91.16l11.17,22.41a15.57,15.57,0,0,0,20.88,7l.28-.14A15.57,15.57,0,0,0,784.19,299.56ZM670,258.62l29.34-58.85,29.34,58.85Z"/><path class="cls-6" d="M771.83,180.7l-.25.12a13.73,13.73,0,0,1-18.35-6.32l-13.84-28.35a13.36,13.36,0,0,1,6.14-17.85l2.05-1a13.35,13.35,0,0,1,18.07,6.62l12.72,28.92A13.72,13.72,0,0,1,771.83,180.7Z"/><path class="cls-6" d="M865.49,290l86-111.59a15.87,15.87,0,0,0,3.3-9.69v-3.14a15.2,15.2,0,0,0-15.19-15.2H839.41a15.21,15.21,0,0,0-15.2,15.2V166a15.2,15.2,0,0,0,15.2,15.19h71.23l0,.05L823.39,295.74a15.86,15.86,0,0,0-3.25,9.62v.21a15.2,15.2,0,0,0,15.2,15.19H943.89a15.19,15.19,0,0,0,15.19-15.19v-.41A15.2,15.2,0,0,0,943.89,290Z"/><path class="cls-6" d="M1167.64,186.19l-.82-.61c-.65-.46-.91-.66-1.87-1.31a56.31,56.31,0,0,0-8-4.31,53.4,53.4,0,0,0-13.56-3.8,50.09,50.09,0,0,0-18.07.75,59.94,59.94,0,0,0-10.08,3.23c.29-.17-2.32,1.05-1.9,1l-.17.11-.32.23a4.81,4.81,0,0,0-.67.52,10.51,10.51,0,0,0-2.32,2.66,16.14,16.14,0,0,0-1.71,3.51c-.28.61-.42,1.38-.65,2.06s-.37,1.47-.46,2.32c-.06.4-.11.81-.2,1.21l-.14,1.28c-.14.84-.12,1.78-.22,2.68s0,1.9-.09,2.85v.37c0,.13,0-.84,0-.37v.36l0,1c.06.2,0-.07,0,.23a11.76,11.76,0,0,0,3,6.05,30.48,30.48,0,0,0,8.8,6.81A59.45,59.45,0,0,0,1131,220a71.29,71.29,0,0,0,7.14,1.63c.61.12,1.22.23,1.84.33l2,.32c1.22.16,3.15.48,4.62.75a119.13,119.13,0,0,1,18.67,5,62.25,62.25,0,0,1,18.53,10.16A43.78,43.78,0,0,1,1192,247a42.14,42.14,0,0,1,3.21,5.56c.43,1,.9,2,1.26,3l.55,1.54.07.19.12.42.07.24.14.48a49.05,49.05,0,0,1,1.34,22.45,44,44,0,0,1-9.8,20.61,51.17,51.17,0,0,1-16.11,12.32,80.68,80.68,0,0,1-16.07,5.88l-3.81.88-3.53.69-4.09.62-3.76.39a88,88,0,0,1-26.91-2.08,94.7,94.7,0,0,1-19.42-6.82,89.65,89.65,0,0,1-11.66-6.54,47.7,47.7,0,0,1-4.43-3.19,14.47,14.47,0,1,1,18.84-22,15.09,15.09,0,0,0,1.94,1.58,60.22,60.22,0,0,0,7.77,4.82,63.53,63.53,0,0,0,13.43,5.08,55.38,55.38,0,0,0,18.17,1.47l2.5-.27,2.28-.33,2.89-.57,2.68-.69a42.81,42.81,0,0,0,9.81-4,22.07,22.07,0,0,0,6.67-5.86,14.2,14.2,0,0,0,2.64-7,17.7,17.7,0,0,0,.06-4.26,21.19,21.19,0,0,0-.3-2.31l-.24-1.13c-.09-.31-.07-.39-.31-1.19l-.29-.95c-.05-.24-.19-.47-.25-.72a11.11,11.11,0,0,0-.78-1.47,16,16,0,0,0-2.59-3.34,36,36,0,0,0-9.59-6.75,55.79,55.79,0,0,0-13.11-4.57c-1.25-.27-2.06-.43-3.58-.69l-2.12-.34c-.75-.12-1.5-.24-2.26-.38-3-.52-6-1.2-9.07-1.9a103,103,0,0,1-18.26-6,59.26,59.26,0,0,1-17.58-11.79,40.77,40.77,0,0,1-7.18-9.57,36.49,36.49,0,0,1-4.08-12.08c-.18-1-.3-2.55-.38-3.64l0-1,0-1,0-.6c.08-1.63.07-3.2.25-4.84a43.41,43.41,0,0,1,.65-4.89l.45-2.45c.2-.82.43-1.64.65-2.45a46.61,46.61,0,0,1,9.71-18.36,41.58,41.58,0,0,1,7.85-7c.7-.51,1.45-1,2.18-1.42.39-.23.7-.45,1.14-.69l1.33-.71,1.34-.68.8-.34.77-.34.64-.27.23-.09.46-.18a87.05,87.05,0,0,1,14.69-4.39,80.89,80.89,0,0,1,27.08-.78,84,84,0,0,1,32,11.58c1.24.74,2.62,1.67,3.07,2l.85.57a13.29,13.29,0,0,1-14.91,22Z"/></svg>