<svg id="forgos" xmlns="http://www.w3.org/2000/svg" viewBox="0 0 595.28 215.48"><title>parkett</title><g id="Layer_22" data-name="Layer 22"><path d="M8.26,125.61l.44,0c.8-.06,1.43-.1,8.72-8.1,5.64-6.17,9.68-10.38,12-12.53,10.27-9.61,18.15-17,23.44-22.07C64,72.37,65.39,69.05,65.25,67.19c-.29-4-2.81-4.41-3.88-4.41H61c-.86.06-2,.51-7,5.41a90.33,90.33,0,0,1-8.93,8.13c-2,1.49-4,3-5.95,4.43-2.51,1.73-3.8,2.06-4.35,2.1a6.27,6.27,0,0,1-2.9-.5c-1.09-.48-1.06-.86-1-1.07.13-1.59,1.28-4.61,6.11-10A74.11,74.11,0,0,1,49.9,60.09c7.55-5.2,14.25-8.05,19.92-8.47a13.49,13.49,0,0,1,2.19,0c3.55.21,5.4,1.09,5.52,2.61.36,5-2.57,11.13-8.72,18.25-1.48,1.72-5.15,5-10.9,9.86-8.28,6.9-8.25,7.32-8.18,8.32.21,2.88,2.14,3.1,2.72,3.1h.22c1-.08,2.84-.8,9.28-5.55A88.66,88.66,0,0,0,73.57,78.18C83,68,87.26,59.72,86.76,52.88c-.26-3.47-2.83-6.1-7.65-7.82a19.46,19.46,0,0,0-7.48-1.5c-7.14.53-15.55,3.81-25,9.75A80.74,80.74,0,0,0,29.58,67.55c-5.49,6-8,10.69-7.78,14.17.3,4,2.44,8.67,10.76,9.19-4.34,4.46-7.75,7.91-10.16,10.29L10.8,112.69c-6.25,6.27-6.7,7.75-6.62,8.82C4.37,124.08,5.89,125.61,8.26,125.61Z"/><path d="M59.38,114.14a6.93,6.93,0,0,0,2.82,5.2A8.61,8.61,0,0,0,67.62,121l1,0c5.92-.44,12.13-3.11,18.48-8l1.1,1.75.14.19a6.19,6.19,0,0,0,5.36,2.17,43.77,43.77,0,0,0,17.3-5.32c3.76-2,6.41-3.52,8.28-4.72-2,2.89-2.25,4.21-2.19,5.1.16,2.12,1.56,3.87,4.22,5.21a11.18,11.18,0,0,0,4.58,1.25h.4a39,39,0,0,0,9.39-1.74c1.36-.45,4-1.55,8.14-3.36,1.38-.63,2.79-1.32,4.19-2,.58,1.95,1.73,2.43,2.7,2.43h.2a14.75,14.75,0,0,0,6.15-2.22l.11-.07c1.71-1.19,3.46-2.38,5.19-3.56l5.82-3.66a16.39,16.39,0,0,0,2.07,5.62,8.23,8.23,0,0,0,7.25,4.31l.7,0c4.9-.36,11.2-2.37,19.28-6.14l3.91-1.87a8.89,8.89,0,0,0,2.93,2.25,15.48,15.48,0,0,0,7,1.45c.6,0,1.22,0,1.87-.07,4.15-.31,9.25-1.92,15.15-4.79-1.38,1.77-1.49,2.45-1.45,3.08.28,3.74,2.88,4,3.67,4h.34c.88-.07,1.33-.1,14.85-14.66,6.61-7.08,9-9.67,9.9-10.62l13.94-1a49,49,0,0,0,5.78-.66,6.5,6.5,0,0,0,1.68-.63c.53,0,1-.08,1.38-.08h.19c.44,0,1.44,0,4.88-.27-4.1,4.39-6.3,6.78-6.69,7.23-2.38,2.53-4.73,5.11-7,7.63-4,4.27-4.23,5.3-4.16,6.2.27,3.74,2.88,4,3.67,4h.34c.88-.06,1.32-.1,14.85-14.65,6.62-7.09,9-9.68,9.89-10.63l13.95-1a51.66,51.66,0,0,0,5.78-.66c3.43-.83,3.65-3,3.58-4-.19-2.6-3.76-2.6-4.93-2.6a34.82,34.82,0,0,0-3.58.22,26.19,26.19,0,0,1-3.33.14l-2.23,0c-1.21,0-2.28,0-3.24,0,3-3.6,5.57-6.7,7.73-9.27,8-10.37,7.94-10.77,7.88-11.58-.18-2.4-1.63-3.79-3.88-3.62-1.34.09-3.21,1.1-11.1,12.14-4.61,5.61-8.23,9.79-10.76,12.42l-11.06.81c-3.94.29-6.26.5-7.19.65a8.28,8.28,0,0,0-3.27,1.32l-1.67,0h0l-2.22,0c-1.21,0-2.29,0-3.24,0,3-3.59,5.55-6.69,7.73-9.27,8-10.37,7.93-10.77,7.87-11.57-.17-2.41-1.61-3.8-3.88-3.63-1.34.1-3.2,1.1-11.13,12.18-4.6,5.6-8.2,9.76-10.73,12.38L240.41,80c-3.93.29-6.26.49-7.18.64a7.59,7.59,0,0,0-3.64,1.62,5.68,5.68,0,0,0,.15-1.67c-.18-2.42-1.85-3.87-4.48-3.87l-.62,0c-.81.06-2.07.42-7,4.07A91.4,91.4,0,0,0,208,89.16c-4.12,4.15-6.6,7.74-7.49,10.89L195,102.34c-7.91,3.32-13.34,5.1-16.19,5.31a2.73,2.73,0,0,1-1.57-1.07,4.73,4.73,0,0,1-1.28-2.92,5.69,5.69,0,0,1,.18-1.91,9.74,9.74,0,0,0,.29-2c4.16-3.72,9.8-8.27,16.77-13.55.17-.13,1.41-1,9.16-6.42,4.94-3.3,5.79-4.55,5.7-5.83s-1-2.74-3.5-2.56c-.9.07-2.46.5-6.61,3.33q-3.9,2.79-7.91,5.59c-8.77,6.24-15,10.79-19,13.84,4.21-4.94,4.58-6.39,4.51-7.38a3.67,3.67,0,0,0-1.26-2.41,3.56,3.56,0,0,0-2.46-1h-.25c-1,.07-1.85.13-16.77,17.09l-.29.31c-.6.09-1.69.47-5.18,2.41-3.16,1.68-5.55,2.84-7.1,3.47-7.22,2.88-12.3,4.44-15.12,4.65a3.72,3.72,0,0,1-.69,0c0-2.73,2.51-5.51,7.51-8.23,2.53-1.25,5.08-2.48,7.61-3.65l.1-.05c1.06-.58,4.28-2.34,4.08-5.07-.23-3.07-2-4.83-4.91-4.83a5.62,5.62,0,0,0-.57,0c-1.74.13-3.73,1.1-6.09,3s-3.58,2.24-3.94,2.27H130a1.06,1.06,0,0,1-.1-.35c-.19-1.21-.36-2.4-.51-3.58l-.1-.39c-.43-1.07-1.7-2.9-5.24-2.64-1.41.1-3.46,1.07-8,7.43-4.73,6.55-5.06,7.93-5,8.87,0,.12,0,.23,0,.34l-3.08,1.74a28.66,28.66,0,0,1-12,3.74,3.41,3.41,0,0,1-.18-1s0-.93,2.72-3.38c3.39-3,4-4,3.88-5-.28-3.71-2.18-4.27-3.29-4.27h-.24a8.9,8.9,0,0,0-3.58,1A10.1,10.1,0,0,0,87.55,95c-8.45.62-15.48,2.94-20.91,6.9C61.5,105.74,59.06,109.85,59.38,114.14Zm8.88-.65c-.13-1.78,2.24-4.06,6.68-6.44s8-3.56,11-3.78l.31,0c-.83,2.26-3.44,4.58-7.77,6.91s-7.58,3.46-9.72,3.46l-.48,0h0S68.26,113.53,68.26,113.49ZM123.05,101l0,0,.75.26-.41.53A2.73,2.73,0,0,0,123.05,101Zm105.4-16.1v.18c.07.89.62,3,4.36,3,.3,0,.63,0,1,0s1.45-.14,3.16-.33a22.44,22.44,0,0,1,2.65-.21h.2c.44,0,1.44,0,4.87-.27-4.1,4.4-6.3,6.78-6.69,7.23-.6.64-1.19,1.29-1.78,1.93a3.42,3.42,0,0,0-2.66-.82c-.43,0-.7,0-8.58,3.85-4.86,2.35-8.7,3.64-11.41,3.84-.61,0-1.17.06-1.69.06h0c-2.35,0-3.15-.47-3.16-.7a.38.38,0,0,1,0-.1c1.58-1,1.75-1.52,1.73-2.1l.21-.17a94.64,94.64,0,0,0,10.55-7.76A32.67,32.67,0,0,0,228.45,84.88Z"/><path d="M595.27,13A6.71,6.71,0,0,0,593.2,8.6a5.55,5.55,0,0,0-4.4-1.78c-2.61.19-6.76,2.35-13.1,6.83-1.59,1.2-6.84,5.23-16.05,12.32a218.28,218.28,0,0,0-18,15.87c-4.08,3.94-8.24,8-12.4,12.09-.19.18-1.37,1.24-7.23,6.23a53.89,53.89,0,0,0-6.93,7c-4,5-6.19,7.76-6.68,8.41l-.18.28-.32.16c-2.74,1.32-4.62,2.19-5.6,2.57-5.7,2.19-8,2.73-8.85,2.79-.3,0-.59,0-.86,0-2,0-2.25-.54-2.3-.88a6.49,6.49,0,0,1,1.83-1.71,48.64,48.64,0,0,0,4.83-3.92,8.67,8.67,0,0,0,2.74-6.82c-.24-3.22-2.43-3.47-3.1-3.47h-.26c-1,.07-2.4.8-6.11,4.21-3.83,3.58-6.39,5.86-7.62,6.8-6.09,4.79-12.34,7.45-18.56,7.9a7.64,7.64,0,0,1-.8,0,3.94,3.94,0,0,1-1.24-.15c.25-.58,1.33-2.33,6-6.92,7.16-7.07,7.11-7.83,7-8.71-.22-3-1.94-3.34-2.67-3.34a2.69,2.69,0,0,0-.81.12c-1.35.4-3.93,1.7-10.73,8.47-.67.69-1.27,1.31-1.84,1.92a2.57,2.57,0,0,0-1.16-.28h-.23c-.71,0-1.94.37-5.6,2.36-3.23,1.75-5.49,2.91-6.71,3.44-10.81,4.54-14.84,5.62-16.31,5.73h-.26c-.64,0-.65-.1-.68-.54-.07-.93.69-3.89,9.18-11.37a117.81,117.81,0,0,1,12-7.58c3.71-2,7.45-4.13,11.1-6.24,4.28-2.47,6.34-5.23,6.12-8.21a3.24,3.24,0,0,0-3.5-3.14h-.44c-5,.37-12.5,4.59-22.82,12.89a142,142,0,0,0-12.23,11.76c-1.94,2-3.48,3.72-4.74,5.18a3.79,3.79,0,0,0-1-.14h-.39c-.65,0-2,.33-6.9,2.07-4.34,1.57-7.56,2.64-9.57,3.18-10.59,2.91-14.19,3.62-15.35,3.71h-.19c-1.25,0-3.58-.87-7.56-5a53.25,53.25,0,0,1-6.37-8.1c4.15-2.4,9.2-5.57,15.05-9.46,7.77-5.11,15.11-10.4,21.81-15.71,24-18.89,23.89-20.12,23.8-21.43l-.06-.33A3.56,3.56,0,0,0,432.45,25h-.31c-.69.05-1.41.11-9.63,7-6.83,5.62-11.71,9.5-14.51,11.54-10.71,7.86-18.89,13.6-24.46,17.17q5.06-6.44,8.09-9.8c.52-.65,2.46-3,8.71-10.42,4.35-5,5.18-6.93,5.08-8.23a4.43,4.43,0,0,0-1.15-3.05,4,4,0,0,0-3.25-.84l-.7.06-.43.54c-5.11,6.34-9.74,11.86-13.78,16.39-11,12.36-20.93,22.84-29.58,31.16-1.65,1.56-5.91,5.16-12.66,10.69-7.15,5.88-7.66,7.32-7.57,8.48a6.47,6.47,0,0,0,2.35,4.53,6.27,6.27,0,0,0,4.06,1.71h.36c.81-.06,1.81-.14,16.4-12.36,2-1.75,4-3.51,6-5.26S368.57,82,368.91,82a8.5,8.5,0,0,1,2,2c2.19,2.6,3.66,4.25,4.53,5.06,6,5.31,10.17,7.66,13.13,7.44,3.16-.23,9.43-2,19.16-5.37,4.29-1.48,7.51-2.71,9.94-3.74v.15a7.09,7.09,0,0,0,2.37,5,6.66,6.66,0,0,0,4.57,1.74l.58,0a49.77,49.77,0,0,0,10-2.18,66.54,66.54,0,0,0,13.24-5.39L453,84.16v0a6.92,6.92,0,0,0,2.89,5.21,8.23,8.23,0,0,0,5.06,1.7l.68,0A47.72,47.72,0,0,0,474,88.9a46.81,46.81,0,0,0,8.16-4.13,14.39,14.39,0,0,0,3.19,2.07,15.77,15.77,0,0,0,7.84,1.1c2.8-.2,6.75-1.44,12.06-3.78,0,.1,0,.19,0,.28a5.21,5.21,0,0,0,2.13,3.49,7.29,7.29,0,0,0,4.85,1.9l.53,0c3.16-.23,6.78-1.53,10.82-3.9q4.32-2.82,8.72-5.63c4.14,1.9,7.47,2.73,10.12,2.54a60.12,60.12,0,0,0,12.6-3c8.33-2.75,9-3.45,8.88-4.93-.23-3.15-2.07-3.49-2.85-3.49h-.22c-.64,0-2,.31-7,2a40.61,40.61,0,0,1-9.77,2.08,11,11,0,0,1-2.61-.09c3.92-3.54,5.73-6.61,5.53-9.35a3.38,3.38,0,0,0-3.87-3.42c-2.16.15-5,2-8.91,5.72a40.44,40.44,0,0,0-4.69,5c-3,2.11-5.93,4.22-8.8,6.3-3.72,2.51-5.64,3.2-6.63,3.37.16-.66,1.19-3.12,7.53-11.06a63,63,0,0,1,6.48-6.78c2.14-1.77,3.74-3.1,4.78-4,.54-.45,3.79-2.46,19.61-10.89,8.72-4.67,15.28-8.71,19.51-12a135.21,135.21,0,0,0,16.83-15.34C594.67,16.52,595.37,14.35,595.27,13Zm-8.78,2.11A62.08,62.08,0,0,1,581.17,21,127.64,127.64,0,0,1,567.6,33.1a88.56,88.56,0,0,1-12.05,7.69c-.65.35-1.46.77-2.42,1.26,5.18-5,8.9-8.44,11.08-10.26C577.53,20.71,583.67,16.57,586.49,15.07Z"/><path d="M297.65,132.25l.11.11A.29.29,0,0,0,297.65,132.25Z"/><path d="M75.23,173a1.92,1.92,0,0,0,.78-.29A1.61,1.61,0,0,0,75.23,173Z"/><path d="M334.73,128.8l-.28.07C334.45,129.11,334.56,129,334.73,128.8Z"/><path d="M43.24,181c.65,0,1.41.53,2-.24.47.19-.25,1,.66.84.56-.91-1-1.55-2.52-1.4a.5.5,0,0,1-.12-.08A.73.73,0,0,1,43.24,181Z"/><path d="M9.09,187.59a2.66,2.66,0,0,1,.26-.31C9.18,187.35,9.07,187.44,9.09,187.59Z"/><path d="M172.22,139.75a.72.72,0,0,0-.12.21l1.06-.3Z"/><path d="M4.78,192.06l.32-.44A1.32,1.32,0,0,0,4.78,192.06Z"/><path d="M42.36,181.73a2.68,2.68,0,0,0,.88-.7C42.9,181,42.59,181.17,42.36,181.73Z"/><path d="M266.91,124.88h.14a7.17,7.17,0,0,0,.69-.3A1.49,1.49,0,0,0,266.91,124.88Z"/><path d="M43.22,180.15a3.1,3.1,0,0,0-.18-.26C43,180,43.09,180.06,43.22,180.15Z"/><path d="M18.79,187.28a1.51,1.51,0,0,0,0,.37Z"/><path d="M541.28,117c-4.41,0-10.19.17-14.2-.56-17-.48-34.08-3.61-51.53-2.92.91.43-.08,1-1,1.2l-.22-.35-1.37.78c-1.31.07-.74-1,.36-1.07-6.93-.09-13.15.17-19.88-.15-.46,1.2-3.52,0-3.76,1.27-.31-.23,0-.29.18-.54-4.7.62-5,.67-9.28-.86-18.24-1-35.82.07-53.78.31-18.17.79-36,2.68-54.52,4.35-2.71,2.1-6.67,1.49-9.92,3.37l.17-.6c-2.8,1-3.61.08-7.3-.31,0,.67-1.38.3-.77,1.37-1.18,1-2.4-1.38-4.17-.72-.1-.37.1.66-.32.35-4.57,1.75.85-.7-5.2-1.26-8.27,1.08-16.65,3.09-24.68,3.27.49-.1.81.76,0,.87-1-1.72-2.64.78-4.12.21.07-.39.72-.57,1.08-.77-3.67-.36-6.56,1-10,.64-3.17,1.19-7.19.07-9.26,1.28.42-.79-1.52-.35-2.27-.61-2.09,2.44-6.44.06-9.21,1.86l.05-.38c-8.81,1.24-18.47,2.32-27.52,4.61-5.13,1-11.24.15-16.76,2-1,.46-.09.79-.9,1.12-1.43.19-.09-.66-.69-.81-2.64,1.33-6.5.92-10,1.54-.35.41-1.31.68-.89,1.12-4.13-.69-9.07,2.26-13.24,2,1.74,1.58-2.14,1.45-3.44,2.15-.8.06-1-.4-.82-.79a30.52,30.52,0,0,1-8.1,1.3c-1.58.53-1.82,1.62-3.82,1.72-1.47-1-4.08.77-6.09.68.71,1-1.56,2.36-3.57,2.25l.29-1.65c-5.89,2.19-15,2.13-21.81,5.46l-.71-.8c-7.17,2.49-14.66,2.82-21.4,6.06a32.77,32.77,0,0,0-7,.66C97.44,157,96.5,157.1,95,158.72a2.6,2.6,0,0,1-2.14-.52c-3.29.46-6.68,0-8.94,2l-.29-.74c-2.39,1.36-5.86,3.22-9,3.11-.64.88-3.45,1.88-1.92,2.42-1.09.46-1.06-1.09-2,0l.8-1.38a100.29,100.29,0,0,0-17.85,6c-2.19-.73-5.87,1.88-9.56,2.39-1.8,1.39-5.69,1.58-6.65,3.67l-.36-.7c-2.73.92-6.36,2.27-10,3.24-2.12.63-1.69,1.72-3.13,2.75l-.39-.69c-1.58,1.18-1.57,2.49-1.91,3.49-1.56.07-1.49.64-3,.72A7.83,7.83,0,0,0,21,181c-2.29.59-3.65,3.29-5.43,2.83-1.84.56-3.07,1.44-2.92,2.38-.21-.2-1.27,0-.6-.73a7.58,7.58,0,0,0-2.69,1.84,5.66,5.66,0,0,0,.9-.31c-.3,1-1.61,1.59-.81,2.52.53-.59.49-.77,1.38-1.09,0,.92-2.12,2.14-3,1.8-1-.42.88-2-.36-1.92L5.1,191.62c.6-.59,1.64-.61,1.66.15l1.17-1.19.31.8c2.21-1.49,4.27-1.42,6.44-3.21l-1.3-.36c1.43-.71,2.42-2.47,4.17-2.17-.53.59.12.77.33,1.2.27-.29.5-.79,1-.83l-.06,1.27c.3-1.75,3.74-2,4.24-2.53l-.11.33c2.43-.34-.71-.59.77-1.23,1.35-.31,1.09,1.27,2.48,1.35,2.16-1,5.64-3.48,8.56-3.35a40.08,40.08,0,0,0,5.56-3.58c1.83-.61.41,1.49,2,.23,0,.55.41,1,.73,1.39.06-.62,3.43-1,1.55-1.81a60.16,60.16,0,0,0,8.49-2.59c-.91.37-.88,1.34.05,1.55a9.94,9.94,0,0,1,5.58-2.95c-.31-.91-1.08-.67-1.1-1.65a3.34,3.34,0,0,1,1.38-.95c.62.86.94,2.36,3.08,1.8-.14,1.65-3.67.84-2.27,2.05-.59,1.48-4.35,2.71-5.44,2.24-1.47,1.85,1.52-.3,1.55,1.06,1.66-.61,2.24-1.51,4.81-2.5-.15-.65-1.07-.49,0-1.36,2-2,3.22.13,3.82,0-.29.24-.76.42-1.06.66,1.68,0,2-1,3.65-1.4.93,1.6-2.58.93-2.88,2.15l1.53.9c2.57-.53.29-1.6,3-1.87l-.14.71,1.51-.85a1.43,1.43,0,0,0-2.12-1c.46-1.92,1.22-.6,3.37-1.53.46-1.14-.93.33-1.22-.59-.46-.8,1.07-1.24,2.17-1.68,1.85-.47,1.21.78,2.12,1.23-.31.24-1.69.73-1.69.15-2,1.56,1.51,1.72.12,2.79,1.86.12,1.52-1,2.31-1.53-.51,0,0-1-.43-1.27,2.37-3.35,2.42,1.39,5.19.2-1-1.5,3.31-3.29.74-4.57a4.12,4.12,0,0,1,2.2-1.06c-.51,1.32,1.51.57.39,2l1.07-.24-1.28,1.72c1.37.49,3.5.79,4.26,1.18,1.41-.86-.74-1,1-1.67-.48.73.73,1,1.51.76-1.68-.06-.4-1.59.54-2.1,1.56-.4,3,.38,2.88.7L92,169.89c1-1.1.61.3,1.7-.31.19-.69.7-1.82.91-2.71.94-.5,1.83.17,2.15-.05l-1.43,1c2-.72.83,1.63,2.87.72l.36-1c.45,0,.75.39.42.81.19-.7,1.43-.84,1.91-1.18l.27.55c.8-.58,1.65-2.13,3-1.21-1.16-1.23-1.09.22-2.76-.07-1.18-.83,1.3-1.31,1.62-1.54.22,1.51,2.34-.35,3.43-.56.74.4,1.35.53,1.8.77l.22-1.08c.8,1.85,2.07-.9,3.42-.55-.5.72-.25,1.47.67,1.57-1.46-1.2,1.53-2.19,1-3.09,2.31,0-.14,1.93.72,2.81.87-1.34,2.6.23,3-1.36-1.69-.12.06-1,.26-1.66,2-.29-.2.7,1.32.93.8-.37,1.68-1.7.3-1.85,1.23.07,2.28-1.57,3.77-1,.72.79-2.38.91-1.49,1.4,2.81-.47,1-2.51,3.5-3.33-1.21-.27-.46-2.07.69-2.86,3-.17-1.15.79.18,1.73l1.11-.4c1.91,1.27-2.88,3.26-1.11,4.24l1.14-.78c-.19.5-.42,1.39.17,1.72.1-1.16,2.86-.84,3-1.14.08-1-1,.46-.9-.3,1.28-.51,1.56-2.17,3.72-2-1,.87.67,1.19.31,1.8,1.07.19.1-1.16,1.62-.92l0,.58c5.34-.87,12-2.24,16.09-5.41,1,.77,2.75.52,5.54.64-1.23-.08-.24-.94.4-1.2l1.49.83c1.68.31,3.51-1.12,4.82-2a1.42,1.42,0,0,1,.56.7c1.52.43,1.31-.89,1.8-1.23l1.05.58,0-.78c1.29-.69,3.15-.86,3.22.39.49-.33,1-.67.22-.89,1.51.45,5.27-.28,7.66-1.16-1.23-.08-1.2-.47-1.45-1.21.11-1.36.61.13,1.45-.81.12.47,1.34.74.2,1.33,3.62,1,8-1.2,12.17-1.66.8-.36.51-.53.85-1,2.86.84,5.84-1.06,8.77-1-.73-.43-.1-2.1,1.48-2.4,1.54-1.36.94,1.37,2.6,1.74a5.6,5.6,0,0,1,2.75-1l0,.19a4.26,4.26,0,0,1,3.5-1l-.16.11c.94-.06,2.11.43,3.06.18.28-1.07,2.73-.86,3.16-1.85.13.1,0,.2.26.37l-.06-.86,2,.19c-.37.39-.41.78-.91,1.09,2.14.28.57-.89,1.58-1.51,1.34-.82,1.39,0,2.14.28-.53.52-1.09,0-1.42.17-.71.8.91.15,1,.62.31,0,.29-1.06,1.37-1s3-.62,2.9.35c.71-.61,1.64-.65,2.16-1.15-.76-.06-2.16-.1-2.41-.66.66-.22,2-.67,2.23-.29l-.51.31c.51-.31,2.52-.32,1.37-1l1.57,1c.42-.79,1.84-1,3-1.28.19.94-.59,2.13,1.6,2l1.71-1.23c1-.23,1.24-.06,1.17.53,3.4,0,3-3.13,5.78-2.67-1,1.28,0,1.25,1.21,1.41a.69.69,0,0,1,.56-.68c-.41-.47-.59.87-1.59.23-.38-.66,1-.6,1.53-.9,2.65,2.14,7.84-.39,11.78.28-.43-1.33,1.65-.61,2.36-1.21-.06,1.44,2.1-.53,3.24.2L261,135c2.41.52,3.52-2.58,5.15-1.09,1.36.26-.32,1.07-.84,1.37,2,1.28,4.65-1.82,6.28-.28.1-.57-.55-1.44,1-2.11,1.33.47,3.91.94,3.7,1.22,1-.38,1.24-.86,2.42-.48-.06.37-.54.48-.89.67,1.85.18,3.22-.59,4.75-1.27,1.08,1,4.19.08,6.31.45,1-1.44,3.4.18,3.39-1.55,0,.19.25.38.39.47.72-.57,1.24-1.73,2.21-1.9l-.21,1.15c-.09,1.33,2.44.21,3.06.6-.63-.7,1.22,0,1.22-.83L300,131c1.82-.46.17-.58,2.43-.93,1.28-.18.55,1.26.1,1.15,1.13.49,2.2.07,3.29-.28-.4,0-.55,0-.19-.31a.41.41,0,0,0,.31.27,6.73,6.73,0,0,1,1.24-.28.13.13,0,0,1,0,.06,11.78,11.78,0,0,1-1.18.24,4.15,4.15,0,0,0,1.18,0c0,.08.18.06.36,0a1.89,1.89,0,0,1,1,.15l-.23.91c.8,0,2.9-1.22,2.8-1.59,3.17.47,8.26-.62,10.33-1.24-.4.22-.42.51,0,.18,1.06-.24,2.22-1.07,2.36-.52,1-.42,1,.55,2.63.52,0,.14.12-.44,0-.67,2.77.93,6-1.29,9.26-.72-.26.08-.6.61-.84.91a27.61,27.61,0,0,0,7-2.35c-.22.41-.12.78-.7,1,1.73-.14,3.73-.51,4.49-1.37-1.2-.33,0,.48-.85.49-1.29-.69.89-1.66,2.05-1.5l0,.19c1.74-.11,1.79-.59,3.52-.7,1.07.45-.89.3-.44.82.48,1.39,4,.69,4.38.83.39-.33,1-.59.88-1,1.34-.44.67.79,1.61.67l3.59-2.77c-.13.39,1.27,1.13.16,1.66,2.82-.32,4.34-2,6.06-3,.85.19,3.58-.51,4.52-.62.48.71-.8,0-1,.59l1.46.8c-1.88.2.29,1.3-.7,1.89,1.49-.55,5.1-.12,7.37,0-1.63-1.56,3-.87,2.86-2.3,2.64-.35,1.36,1.11,2.37,1.4,2.74-.66,5.37-.35,7.88-.59a.3.3,0,0,1-.1.29c2.29-.51,6-.24,8.31-1.55-.1.29.12.57-.47.8,2.48.47.41-1.84,3.29-1l-.64.72c1.76-.72,3.46.57,5.46-.55.08.38-.37.52-.65.73,1.85-.35,3.95-.23,5.5-1.22.26.46,0,.86-.71,1.2,1.84.52,2-1.3,3.65-.87.49.06,1.4.64,1.09.68.83-.65,3.38-.67,4.29-.94.24.47.91.61,2,1.08,9.21-.06,18.63.18,27.78-1.09,1.53,1.45-2.14.87-1.17,1.87-.06-1.24,1.55-.33,4.33-.71l.11.18c1.19-.25,1.85.55,3.13.19l0-.33c1.37-.78,3,1.64,3.73.07l1,.89c1.35-1.39,2.12.47,3.77-.68l-.19.25c2.21.64,4.64-1.47,5.48-.34,1.89-.18,4.08-.43,4.46-1.52.4.42.13,1.09-.16,1.45,7.08-.38,15,.14,21.35-1.19.31.24-.09.42-.29.66,4-1.18,8,1.6,11-.73l1.08-1c.91.44.81,1.16,1.52,1.54.79-.64,3.6,0,4.09-.93.4.43-.2.54-.2.84,1.81.28,4-1.13,5.66-.73l-.56.43c8.92,2.07,20.44,4.14,27.94,2.25,2-.28.81,1.39,1.71,1.32,7.73-1.49,16.66,2.18,23.8-.31,5.49-.38,7.46-3.52,7.46-3.52C565.81,121.58,554.21,119.33,541.28,117ZM309.6,130l-.82.21A1.8,1.8,0,0,1,309.6,130Z"/><path d="M305.81,130.9l.17,0-.05,0Z"/><path d="M1.91,190.53c.13.57,1.14.79,1.55,1.24C4.13,190.47,2.63,190.87,1.91,190.53Z"/><path d="M41.37,180.58c-.13.32,0,.58-.42.78.48.18.74-.46,1.19-.67C42,180.64,41.36,180.38,41.37,180.58Z"/><path d="M51.15,177.72l-3.1,2.14C49.23,179.37,51.17,178.29,51.15,177.72Z"/><path d="M60.89,177.18c-.14.32-.45.57-.29.84C61.66,177.71,61.81,177.42,60.89,177.18Z"/><path d="M62.64,175.87l.22.1C62.83,175.88,62.75,175.87,62.64,175.87Z"/><path d="M61.18,175.77c0,.79,1,.13,1.46.1A1.94,1.94,0,0,0,61.18,175.77Z"/><path d="M81.51,172c-.18.89,1.39-.68,2-.37C82.91,171.17,82,171.87,81.51,172Z"/><path d="M91.42,168.8c-.31.23-.46.16-.77.2l.44.62C91.54,169.46,92,168.92,91.42,168.8Z"/><polygon points="262.34 136.12 263.35 135.71 262.43 135.55 262.34 136.12"/><path d="M340.12,128.67c1.24-.16,0,.67.93.55C340.87,129.15,341.13,128.25,340.12,128.67Z"/><polygon points="381.23 123.86 381.55 123.84 381.3 122.71 381.23 123.86"/></g></svg>