<?xml version="1.0" encoding="utf-8"?>
<!-- Generator: Adobe Illustrator 21.0.0, SVG Export Plug-In . SVG Version: 6.00 Build 0)  -->
<svg version="1.1" xmlns="http://www.w3.org/2000/svg" xmlns:xlink="http://www.w3.org/1999/xlink" x="0px" y="0px"
	 viewBox="0 0 1200 900" style="enable-background:new 0 0 1200 900;" xml:space="preserve">
<style type="text/css">
	.st0{display:none;}
	.st1{fill:#085CAA;}
	.st2{fill:#FFFFFF;}
</style>
<g id="Réteg_1" class="st0">
	
		<image style="display:inline;overflow:visible;" width="1366" height="768" xlink:href="E3E2D42A.jpg"  transform="matrix(1 0 0 1 235.5714 171.7143)">
	</image>
</g>
<g id="Réteg_2">
	<g>
		<g>
			<circle class="st1" cx="307.8" cy="423.9" r="112.6"/>
			<path class="st1" d="M199.9,468.8c-5.1-12.2-19.1-18-31.4-12.9c-12.3,5.1-18,19.1-12.9,31.4c3.8,9.2,12.7,14.8,22.2,14.8
				c3.1,0,6.2-0.6,9.2-1.9C199.2,495.1,205,481,199.9,468.8z"/>
			<path class="st1" d="M167,448.2c13.3,0,24-10.8,23.9-24c0-13.3-10.8-24-24-23.9c-13.3,0-23.9,10.8-23.9,24
				C143,437.5,153.7,448.2,167,448.2L167,448.2z"/>
			<path class="st1" d="M225.3,506.7c-9.4-9.4-24.6-9.3-33.9,0c-9.4,9.4-9.3,24.5,0,33.9c4.7,4.7,10.8,7,17,7c6.1,0,12.3-2.4,17-7
				C234.7,531.2,234.7,516,225.3,506.7z"/>
			<path class="st1" d="M263.2,532c-12.3-5.1-26.2,0.7-31.3,13c-5.1,12.3,0.7,26.2,13,31.3c3,1.3,6.1,1.8,9.2,1.8
				c9.4,0,18.4-5.6,22.2-14.8C281.3,551,275.4,537,263.2,532z"/>
			<path class="st1" d="M307.9,540.7c-13.3,0-24,10.8-23.9,24c0,13.3,10.7,24,24,23.9c13.3,0,24-10.7,24-24
				C331.9,551.5,321.1,540.7,307.9,540.7z"/>
		</g>
		<g>
			<circle class="st1" cx="626.1" cy="423.9" r="112.6"/>
			<path class="st1" d="M518.2,468.8c-5.1-12.2-19.1-18-31.4-12.9c-12.3,5.1-18,19.1-12.9,31.4c3.8,9.2,12.7,14.8,22.2,14.8
				c3.1,0,6.2-0.6,9.2-1.9C517.5,495.1,523.3,481,518.2,468.8z"/>
			<path class="st1" d="M485.3,448.2c13.3,0,24-10.8,23.9-24c0-13.3-10.8-24-24-23.9c-13.3,0-23.9,10.8-23.9,24
				C461.3,437.5,472.1,448.2,485.3,448.2L485.3,448.2z"/>
			<path class="st1" d="M543.6,506.7c-9.4-9.4-24.6-9.3-33.9,0c-9.4,9.4-9.3,24.5,0,33.9c4.7,4.7,10.8,7,17,7c6.1,0,12.3-2.4,17-7
				C553,531.2,553,516,543.6,506.7z"/>
			<path class="st1" d="M581.5,532c-12.3-5.1-26.2,0.7-31.3,13c-5.1,12.3,0.7,26.2,13,31.3c3,1.3,6.1,1.8,9.2,1.8
				c9.4,0,18.4-5.6,22.2-14.8C599.6,551,593.7,537,581.5,532z"/>
			<path class="st1" d="M626.2,540.7c-13.3,0-24,10.8-23.9,24c0,13.3,10.7,24,24,23.9c13.3,0,24-10.7,24-24
				C650.2,551.5,639.4,540.7,626.2,540.7z"/>
		</g>
		<g>
			<circle class="st1" cx="944.4" cy="423.9" r="112.6"/>
			<path class="st1" d="M836.5,468.8c-5.1-12.2-19.1-18-31.4-12.9c-12.3,5.1-18,19.1-12.9,31.4c3.8,9.2,12.7,14.8,22.2,14.8
				c3.1,0,6.2-0.6,9.2-1.9C835.8,495.1,841.6,481,836.5,468.8z"/>
			<path class="st1" d="M803.6,448.2c13.3,0,24-10.8,23.9-24c0-13.3-10.8-24-24-23.9c-13.3,0-23.9,10.8-23.9,24
				C779.6,437.5,790.4,448.2,803.6,448.2L803.6,448.2z"/>
			<path class="st1" d="M861.9,506.7c-9.4-9.4-24.6-9.3-33.9,0c-9.4,9.4-9.3,24.5,0,33.9c4.7,4.7,10.8,7,17,7c6.1,0,12.3-2.4,17-7
				C871.3,531.2,871.3,516,861.9,506.7z"/>
			<path class="st1" d="M899.8,532c-12.3-5.1-26.2,0.7-31.3,13c-5.1,12.3,0.7,26.2,13,31.3c3,1.3,6.1,1.8,9.2,1.8
				c9.4,0,18.4-5.6,22.2-14.8C917.9,551,912.1,537,899.8,532z"/>
			<path class="st1" d="M944.5,540.7c-13.3,0-24,10.8-23.9,24c0,13.3,10.7,24,24,23.9c13.3,0,24-10.7,24-24
				C968.5,551.5,957.8,540.7,944.5,540.7z"/>
		</g>
		<g>
			<path class="st2" d="M268.2,477.1V372.5h59.9c5.5,0,10.2,1.5,14,4.4c4,2.9,5.9,6.4,5.9,10.5v22.4c0,4.2-2,7.7-5.9,10.6
				c-0.3,0.2-0.6,0.4-0.9,0.6c0.3,0.2,0.6,0.5,0.9,0.7c4,2.9,5.9,6.4,5.9,10.5v29.9c0,4.2-2,7.7-5.9,10.6c-3.9,2.9-8.5,4.3-14,4.3
				H268.2z M328.2,409.2v-13.6c0-4.5-3.6-8.2-8.2-8.2h-31.8v29.9H320C324.5,417.4,328.2,413.7,328.2,409.2z M328.2,454v-13.6
				c0-4.5-3.6-8.2-8.2-8.2h-31.8v29.9H320C324.5,462.2,328.2,458.5,328.2,454z"/>
			<path class="st2" d="M606.9,477.1c-5.5,0-10-1.4-13.8-4.3c-3.7-2.9-5.6-6.4-5.6-10.6v-10.6l19.4-4.4v14.9h38.8v-29.9h-38.8
				c-5.5,0-10-1.4-13.8-4.3c-3.7-2.9-5.6-6.4-5.6-10.6v-29.9c0-4.1,1.9-7.6,5.6-10.5c3.7-3,8.3-4.4,13.8-4.4h38.8
				c5.4,0,9.9,1.5,13.6,4.4c3.8,2.9,5.8,6.4,5.8,10.5v10.6l-19.4,4.4v-14.9h-38.8v29.9h38.8c5.4,0,9.9,1.5,13.6,4.4
				c3.8,2.9,5.8,6.4,5.8,10.5v29.9c0,4.2-1.9,7.7-5.8,10.6c-3.7,2.9-8.3,4.3-13.6,4.3H606.9z"/>
			<path class="st2" d="M926.2,477.1c-5.5,0-10-1.4-13.8-4.3c-3.7-2.9-5.6-6.4-5.6-10.6v-10.6l19.4-4.4v14.9H965v-29.9h-38.8
				c-5.5,0-10-1.4-13.8-4.3c-3.7-2.9-5.6-6.4-5.6-10.6v-29.9c0-4.1,1.9-7.6,5.6-10.5c3.7-3,8.3-4.4,13.8-4.4H965
				c5.4,0,9.9,1.5,13.6,4.4c3.8,2.9,5.8,6.4,5.8,10.5v10.6l-19.4,4.4v-14.9h-38.8v29.9H965c5.4,0,9.9,1.5,13.6,4.4
				c3.8,2.9,5.8,6.4,5.8,10.5v29.9c0,4.2-1.9,7.7-5.8,10.6c-3.7,2.9-8.3,4.3-13.6,4.3H926.2z"/>
		</g>
	</g>
</g>
</svg>
