<svg id="Réteg_1" data-name="Réteg 1" xmlns="http://www.w3.org/2000/svg" viewBox="0 0 157.25 168.5"><defs><style>.cls-1{fill:none;stroke:#231f20;stroke-miterlimit:10;}</style></defs><title>Rajztábla 1</title><path class="cls-1" d="M64.79,110.41c3.68-2.62-16.71-12.5-18.12-28.61C45.16,64.55,59,51,77.73,51c21.76,0,30.86,12.5,31.94,24,2,21.88-17.39,28.49-14.66,33.42.37.66,2.07,0,2.47.82.54,1.11-1.9,2.71-1.37,4.38.32,1,1.39,1,1.51,1.92.15,1.19-1.48,1.73-1.37,3,.09,1,1.17,1.11,1.23,2,.09,1.42-2.29,2-2.19,3.43.06.89,1.08.94,1.37,1.92.42,1.44-1.38,2.79-2.74,4.79-2.07,3-1.15,4.7-2.33,6.85-3.22,5.84-17.51,7-21.5,1.91-1.34-1.7-1.36-3.91-4-5.75-1.64-1.15-3.74-.6-4.05-2.94s1.72-1.48,1.72-2.4-4.54-.48-3.22-3.9c.47-1.2,2.27-.59,2.13-1.83s-3.39-.85-3.15-4c.14-1.83,2.41-1.63,2.19-2.82-.17-.91-2.86-1.87-1.61-4.31C61.1,109.55,64.05,110.94,64.79,110.41Z"/><path class="cls-1" d="M70.69,112.88C69.25,84.26,49.87,85.22,56,89.47c7.19,5,5.17-10.92,5.2-9.86s3.63,5.82,3.63,5.82a66.29,66.29,0,0,0,2-6.37c.12-1-.68,9.81,2.2,9.31,2.24-.38.47-7.91,5.47-8.21,1.87-.12-4-1.37-5.1.78-1.74,3.29-.23,7.76,3.92,6.89,1.73-.37,2.55-4.27-.94-3.81-.16,0,5.65-.34,5.65-.34,0,5.38,1.4,4.23,1.4,4.23,2-1.28-.11-8.76-.68-9.6-.21-.31,3.59,5.51,3.59,5.51s2.68-6.36,2.6-6c-.11.64-.92,9.11.88,9.28,1,.09,5.12.25,5.12-1.78,0-3.54-1-11.62-3.66-7.12-1.07,1.82,9.22.73,8.66-.22-2.94-5-4.72,6.72-3.59,8.3s13.28-1.6,10.36-3.88C97,78,88.73,97.82,89.41,111.13"/><line class="cls-1" x1="75.01" y1="83.67" x2="74.85" y2="88.28"/><path class="cls-1" d="M63.79,110.56A33.48,33.48,0,0,0,95,108.37"/><path class="cls-1" d="M61.71,116.14c9,4.07,24.06,2.7,34.4-2.57"/><path class="cls-1" d="M62.7,122.63c10.81,2.17,23,.08,33.55-4.13"/><path class="cls-1" d="M63.79,128.36c11.06.48,20.39.7,31.5-4.38"/><path class="cls-1" d="M65.58,133.35c11.46.69,24.14-.5,29-3.57"/><path class="cls-1" d="M49.69,78.56A26.45,26.45,0,0,1,57.86,61.3c9.63-8.86,21.74-7.11,22.91-6.89"/><path class="cls-1" d="M86.52,139.69c.7-.8,2.56-1.15,3.29-2.36s.91-3.85,1.3-4.83"/><line class="cls-1" x1="108.89" y1="104.53" x2="120.05" y2="114.46"/><line class="cls-1" x1="117.69" y1="88.53" x2="132.2" y2="92.07"/><line class="cls-1" x1="117.64" y1="66.07" x2="132.25" y2="62.95"/><line class="cls-1" x1="106.56" y1="50.29" x2="117.69" y2="40.16"/><line class="cls-1" x1="47" y1="103.79" x2="35.84" y2="113.72"/><line class="cls-1" x1="38.2" y1="88.53" x2="23.69" y2="92.07"/><line class="cls-1" x1="38.25" y1="66.07" x2="23.64" y2="62.95"/><line class="cls-1" x1="49.64" y1="52.36" x2="39.64" y2="41.26"/><line class="cls-1" x1="67.79" y1="43.47" x2="64.16" y2="28.98"/><line class="cls-1" x1="86.78" y1="43.54" x2="89.81" y2="28.91"/></svg>