<svg xmlns="http://www.w3.org/2000/svg" viewBox="0 0 728.72 151.27"><defs><style>.cls-1{font-size:77.02px;}.cls-1,.cls-2{fill:#333132;font-family:AkzidenzGroteskBQ-Medium, Akzidenz-Grotesk BQ;}.cls-2{font-size:38.59px;letter-spacing:0.44em;}.cls-3{fill:#63bc47;}</style></defs><title>Eszköz 1</title><g id="Réteg_2" data-name="Réteg 2"><g id="Layer_1" data-name="Layer 1"><text class="cls-1" transform="translate(186.16 76.25)">Simonyi Károly</text><text class="cls-2" transform="translate(188.28 129.07)">SZAKKOLLÉGIUM</text><path class="cls-3" d="M75.64,8.1A67.53,67.53,0,1,1,8.1,75.64,67.53,67.53,0,0,1,75.64,8.1m0-8.1a75.64,75.64,0,1,0,75.64,75.64A75.72,75.72,0,0,0,75.64,0Z"/><path class="cls-3" d="M141.28,57.76H66.45a3.9,3.9,0,0,1,0-7.79h74.83a3.9,3.9,0,1,1,0,7.79ZM53.73,45.32a8.54,8.54,0,1,0,8.54,8.54,8.54,8.54,0,0,0-8.54-8.54m0-8.1A16.64,16.64,0,1,1,37.09,53.86,16.66,16.66,0,0,1,53.73,37.22Z"/><path class="cls-3" d="M82.8,102.8H12.38a3.45,3.45,0,0,1,0-6.89H82.8a3.45,3.45,0,0,1,0,6.89Z"/><path class="cls-3" d="M95.43,90.48A8.54,8.54,0,1,1,86.89,99a8.54,8.54,0,0,1,8.54-8.54m0-8.1A16.64,16.64,0,1,0,112.07,99,16.66,16.66,0,0,0,95.43,82.38Z"/></g></g></svg>