<?xml version="1.0" encoding="UTF-8" standalone="no"?>
<!DOCTYPE svg PUBLIC "-//W3C//DTD SVG 1.1//EN" "http://www.w3.org/Graphics/SVG/1.1/DTD/svg11.dtd">
<svg width="100%" height="100%" viewBox="0 0 246 251" version="1.1" xmlns="http://www.w3.org/2000/svg" xmlns:xlink="http://www.w3.org/1999/xlink" xml:space="preserve" xmlns:serif="http://www.serif.com/" style="fill-rule:evenodd;clip-rule:evenodd;stroke-linejoin:round;stroke-miterlimit:2;">
    <g id="Szakest">
        <g transform="matrix(1,0,0,1,175.356,171.774)">
            <path d="M0,-92.508L-0.009,-92.519C0.151,-92.329 0.312,-92.138 0.473,-91.948C0.759,-91.652 1.045,-91.356 1.331,-91.061C1.518,-90.899 1.704,-90.737 1.89,-90.574L1.875,-90.588C3.149,-89.467 4.424,-88.345 5.697,-87.224L5.685,-87.237C6.083,-86.883 6.48,-86.529 6.879,-86.175L7.134,-85.946C7.189,-85.9 7.244,-85.855 7.299,-85.81C7.391,-85.734 7.482,-85.658 7.575,-85.583C8.306,-84.942 9.036,-84.3 9.767,-83.658L9.754,-83.671C9.925,-83.513 10.096,-83.356 10.267,-83.199L11.354,-82.245L12.174,-81.536L12.166,-81.544C12.333,-81.392 12.5,-81.239 12.666,-81.088C12.964,-80.838 13.261,-80.589 13.559,-80.339C13.814,-80.103 14.071,-79.867 14.328,-79.631C14.586,-79.403 14.845,-79.175 15.103,-78.948C15.789,-78.342 16.476,-77.736 17.162,-77.13C17.401,-76.93 17.642,-76.731 17.881,-76.532C18.6,-75.888 19.318,-75.244 20.038,-74.6L20.025,-74.611C20.337,-74.329 20.649,-74.047 20.961,-73.765C21.006,-73.713 21.062,-73.675 21.127,-73.65C21.315,-73.483 21.504,-73.317 21.693,-73.151L21.68,-73.164C21.853,-73.008 22.025,-72.851 22.198,-72.695L22.257,-72.635C22.872,-72.096 23.487,-71.557 24.103,-71.018C24.184,-70.95 24.265,-70.881 24.345,-70.813C24.735,-70.468 25.126,-70.124 25.517,-69.779C25.585,-69.718 25.652,-69.657 25.72,-69.596C25.898,-69.439 26.078,-69.282 26.257,-69.125C26.424,-68.975 26.592,-68.825 26.759,-68.675L27.395,-68.114L27.383,-68.127C27.725,-67.825 28.065,-67.524 28.406,-67.221C28.955,-66.745 29.504,-66.269 30.052,-65.793C30.304,-65.566 30.555,-65.339 30.806,-65.112L31.09,-64.867L31.746,-64.309C31.896,-64.17 32.047,-64.031 32.197,-63.893C32.367,-63.741 32.538,-63.59 32.708,-63.438C33.547,-62.708 34.385,-61.979 35.224,-61.249C35.411,-61.079 35.6,-60.908 35.787,-60.737C36.486,-60.126 37.185,-59.514 37.884,-58.903C38.152,-58.66 38.421,-58.418 38.69,-58.175C38.99,-57.917 39.29,-57.659 39.591,-57.401L39.576,-57.412C39.831,-57.179 40.086,-56.947 40.342,-56.715L40.515,-56.54C40.845,-56.26 41.175,-55.98 41.506,-55.699C41.571,-55.644 41.637,-55.588 41.703,-55.533C42.046,-55.22 42.389,-54.908 42.732,-54.596C42.891,-54.465 43.05,-54.334 43.208,-54.202C43.352,-54.086 43.495,-53.968 43.639,-53.851C43.724,-53.775 43.808,-53.698 43.892,-53.621C44.142,-53.389 44.392,-53.157 44.641,-52.925C44.925,-52.681 45.209,-52.437 45.493,-52.193C45.972,-51.763 46.45,-51.333 46.929,-50.903C46.947,-50.924 46.965,-50.945 46.982,-50.966C46.963,-50.946 46.943,-50.927 46.924,-50.908C47.355,-50.54 47.786,-50.171 48.217,-49.803L48.289,-49.758C48.741,-49.35 49.192,-48.942 49.645,-48.533C49.707,-48.483 49.77,-48.432 49.833,-48.381C50.629,-47.64 51.425,-46.899 52.346,-46.041C52.624,-46.602 52.824,-47.009 53.025,-47.415C53.363,-48.058 53.7,-48.701 54.037,-49.344C53.69,-49.903 53.343,-50.462 52.996,-51.021C52.94,-51.106 52.886,-51.191 52.831,-51.276L52.084,-52.335C51.834,-52.69 51.584,-53.045 51.333,-53.399C51.047,-53.813 50.76,-54.226 50.473,-54.64C50.2,-55.021 49.928,-55.402 49.655,-55.783L48.721,-57.114C48.698,-57.181 48.663,-57.239 48.615,-57.287C48.287,-57.759 47.959,-58.232 47.632,-58.705C47.031,-59.56 46.431,-60.415 45.829,-61.27C45.616,-61.565 45.402,-61.86 45.189,-62.155L45.136,-62.225C44.893,-62.573 44.648,-62.922 44.405,-63.271C44.147,-63.638 43.89,-64.005 43.632,-64.372C43.014,-65.25 42.396,-66.128 41.777,-67.006C41.287,-67.718 40.797,-68.431 40.307,-69.144C39.938,-69.671 39.57,-70.197 39.203,-70.724C39.13,-70.862 39.07,-71.01 38.981,-71.136C33.367,-79.139 27.749,-87.14 22.133,-95.143C21.618,-95.876 21.117,-96.618 20.447,-97.592C28.468,-96.376 36.181,-95.205 43.958,-94.025C44.073,-95.168 44.1,-96.168 44.291,-97.136C44.514,-98.263 44.266,-99.195 43.664,-100.165C41.633,-103.44 39.674,-106.759 37.689,-110.063C28.708,-125.016 19.752,-139.985 10.722,-154.908C9.226,-157.381 7.421,-159.668 5.718,-162.01C5.501,-162.308 5.015,-162.618 4.683,-162.59C1.872,-162.344 0.769,-159.62 1.388,-157.45C4.953,-144.955 8.491,-132.453 12.036,-119.952C12.169,-119.484 12.267,-119.005 12.408,-118.414C12.023,-118.453 11.832,-118.465 11.644,-118.492C6.094,-119.281 0.534,-120.002 -5.001,-120.884C-9.546,-121.609 -14.095,-122.375 -18.578,-123.399C-23.164,-124.447 -27.751,-125.33 -32.461,-125.454C-32.819,-125.463 -33.297,-125.41 -33.526,-125.187C-34.805,-123.945 -34.809,-123.389 -33.688,-122.017C-33.286,-121.525 -32.861,-121.049 -32.487,-120.536C-31.049,-118.563 -29.401,-116.901 -27.178,-115.718C-26.007,-115.094 -25.219,-113.75 -24.26,-112.733C-26.18,-111.01 -26.177,-110.916 -28.291,-110.858C-29.701,-110.819 -31.177,-110.897 -32.522,-111.277C-35.08,-111.996 -37.484,-112.983 -38.922,-115.562C-41.652,-120.46 -45.084,-124.703 -50.448,-126.989C-51.352,-127.374 -52.13,-128.043 -53.003,-128.513C-53.871,-128.981 -54.748,-129.493 -55.685,-129.76C-59.003,-130.706 -62.357,-131.525 -65.677,-132.468C-66.303,-132.646 -66.965,-133.062 -67.377,-133.562C-68.968,-135.493 -70.451,-137.513 -72.006,-139.474C-72.291,-139.831 -72.683,-140.213 -73.099,-140.338C-75.085,-140.932 -76.265,-142.308 -77.078,-144.123C-77.368,-144.774 -77.746,-145.391 -78.142,-145.985C-78.352,-146.299 -78.644,-146.612 -78.973,-146.784C-81.825,-148.275 -84.686,-149.749 -87.564,-151.186C-87.96,-151.383 -88.482,-151.454 -88.927,-151.407C-91.653,-151.118 -94.37,-150.733 -97.1,-150.486C-97.794,-150.423 -98.539,-150.691 -99.233,-150.899C-100.015,-151.133 -100.778,-151.751 -101.528,-151.718C-104.551,-151.583 -107.453,-152.069 -110.337,-152.902C-110.977,-153.086 -111.751,-153.046 -112.408,-152.884C-114.49,-152.371 -116.548,-151.759 -118.611,-151.172C-122.793,-149.98 -126.83,-148.802 -130.113,-145.448C-133.063,-142.435 -135.831,-139.539 -136.743,-135.303C-137.126,-133.526 -137.702,-131.751 -137.786,-129.957C-137.918,-127.103 -137.682,-124.234 -137.67,-121.371C-137.667,-120.644 -137.877,-119.902 -138.072,-119.19C-138.671,-117.011 -139.466,-114.866 -139.18,-112.546C-138.308,-105.469 -139.611,-98.442 -139.584,-91.358C-139.767,-91.37 -139.895,-91.346 -139.991,-91.391C-143.194,-92.856 -146.216,-94.571 -148.458,-97.399C-148.663,-97.658 -149.052,-98.013 -149.279,-97.965C-149.896,-97.834 -150.783,-97.663 -151,-97.228C-151.397,-96.427 -151.996,-95.511 -151.156,-94.479C-150.181,-93.281 -149.355,-91.959 -148.498,-90.669C-146.639,-87.872 -145.253,-84.771 -142.605,-82.501C-139.494,-79.835 -136.52,-77.033 -132.441,-75.848C-131.539,-75.586 -130.743,-74.976 -129.853,-74.647C-128.639,-74.197 -127.402,-73.761 -126.137,-73.508C-124.661,-73.211 -123.138,-73.152 -121.645,-72.927C-118.46,-72.446 -117.91,-70.268 -119.213,-67.774C-119.926,-66.409 -120.622,-65.033 -121.388,-63.699C-121.591,-63.345 -121.982,-63.008 -122.363,-62.865C-123.354,-62.493 -124.332,-62.57 -125.365,-62.957C-126.73,-63.468 -128.155,-63.969 -129.59,-64.117C-132.55,-64.422 -135.534,-64.5 -138.509,-64.647C-139.14,-64.678 -139.848,-64.777 -140.399,-64.55C-143.511,-63.27 -146.964,-62.714 -149.68,-60.598C-153.701,-57.466 -156.994,-53.673 -159.304,-49.089C-159.414,-48.871 -159.465,-48.51 -159.359,-48.316C-157.425,-44.774 -156.272,-40.815 -153.621,-37.652C-151.401,-35.002 -149.228,-32.313 -147.063,-29.618C-146.729,-29.202 -146.427,-28.684 -146.326,-28.171C-145.766,-25.347 -145.557,-22.516 -146.154,-19.652C-146.41,-18.424 -146.706,-17.096 -146.496,-15.899C-145.878,-12.379 -144.993,-8.906 -144.271,-5.404C-144.121,-4.677 -143.786,-4.385 -143.101,-4.363C-141.687,-4.316 -140.519,-3.704 -139.465,-2.801C-137.992,-1.538 -136.395,-0.568 -134.339,-0.696C-134.076,-0.713 -133.77,-0.628 -133.539,-0.494C-131.849,0.485 -130.014,0.588 -128.123,0.54C-127.699,0.529 -127.138,0.819 -126.856,1.153C-125.702,2.517 -124.757,4.078 -123.501,5.332C-121.745,7.087 -119.879,8.752 -117.239,9.173C-113.589,9.754 -109.955,10.436 -106.313,11.072C-104.501,11.388 -103.515,12.618 -103.552,14.387C-103.637,18.441 -103.687,22.497 -103.731,26.552C-103.736,26.98 -103.688,27.44 -103.535,27.835C-102.166,31.348 -101.819,34.998 -102.092,38.72C-102.151,39.529 -102.318,40.374 -102.641,41.113C-105.155,46.866 -107.722,52.596 -110.26,58.34C-110.398,58.653 -110.602,59.118 -110.474,59.338C-109.815,60.468 -109.184,61.665 -108.277,62.576C-107.881,62.973 -106.854,62.764 -106.112,62.793C-105.397,62.82 -104.676,62.746 -103.966,62.809C-103.143,62.884 -102.556,62.601 -101.985,62.004C-93.146,52.744 -84.009,43.794 -74.318,35.421C-73.41,34.636 -73.472,33.57 -73.713,32.626C-74.033,31.378 -74.69,31.319 -75.516,32.314C-75.719,32.559 -75.938,32.794 -76.107,33.06C-77.652,35.495 -79.844,36.612 -82.72,36.263C-83.631,36.153 -83.994,36.594 -84.259,37.365C-84.526,38.143 -84.798,38.962 -85.265,39.624C-87.402,42.661 -90.041,45.221 -92.879,47.613C-95.877,50.138 -99.311,52.154 -101.827,55.255C-102.392,55.95 -103.174,56.471 -103.855,57.071C-103.975,56.957 -104.095,56.843 -104.215,56.728C-103.145,55.393 -102.212,53.906 -100.964,52.765C-99.755,51.66 -98.981,50.447 -98.333,48.951C-96.645,45.054 -94.717,41.261 -92.896,37.421C-92.149,35.843 -91.271,35.295 -89.519,35.395C-88.076,35.477 -86.634,35.578 -85.051,35.679C-84.98,35.491 -84.849,35.14 -84.697,34.736C-85.411,34.377 -86.025,34.004 -86.685,33.752C-87.968,33.263 -88.736,32.312 -89.287,31.117C-90.069,29.423 -89.653,28.193 -87.974,27.421C-86.351,26.674 -84.707,25.97 -83.075,25.242C-80.609,24.142 -78.109,23.113 -75.691,21.918C-72.833,20.505 -69.378,23.199 -69.227,25.916C-69.193,26.512 -69.139,27.108 -69.152,27.703C-69.173,28.64 -68.877,29.206 -67.819,29.25C-66.949,29.285 -66.073,29.412 -65.221,29.598C-63.237,30.033 -62.634,31.821 -63.774,33.449C-64.493,34.473 -65.08,35.61 -65.583,36.759C-66.333,38.469 -67.132,40.189 -67.581,41.987C-67.997,43.65 -68.081,45.42 -68.099,47.145C-68.105,47.734 -67.549,48.403 -67.104,48.905C-66.396,49.702 -65.422,50.288 -64.816,51.143C-63.3,53.281 -61.476,55.028 -59.297,56.489C-58.061,57.318 -57.104,58.555 -55.902,59.45C-55.181,59.988 -54.247,60.457 -53.381,60.512C-52.723,60.553 -51.611,60.041 -51.417,59.512C-50.836,57.932 -50.536,56.235 -50.258,54.562C-49.83,51.986 -50.275,49.516 -51.313,47.118C-52.137,45.215 -52.548,43.239 -51.44,41.282C-49.646,38.11 -46.504,36.276 -43.965,33.844C-43.809,33.694 -43.531,33.627 -43.302,33.605C-40.829,33.37 -40.088,31.268 -39.018,29.566C-38.813,29.24 -38.881,28.345 -39.095,28.232C-39.619,27.959 -40.435,27.72 -40.896,27.946C-42.441,28.705 -43.915,29.627 -45.355,30.576C-46.908,31.599 -48.401,31.069 -49.729,30.322C-51.017,29.597 -51.461,28.192 -51.414,26.723C-51.394,26.113 -51.151,25.675 -50.356,25.553C-49.354,25.399 -48.37,25.026 -47.42,24.644C-46.836,24.409 -46.146,23.938 -46.53,23.224C-46.778,22.763 -47.483,22.3 -48.003,22.277C-50.74,22.154 -53.483,22.132 -56.223,22.152C-59.154,22.174 -62.09,22.418 -65.014,22.306C-67.058,22.229 -68.793,21.16 -70.106,19.555C-70.65,18.891 -70.585,18.184 -69.734,17.817C-68.944,17.477 -68.113,17.14 -67.271,17.035C-65.181,16.774 -63.074,16.646 -60.974,16.466C-60.955,16.359 -60.937,16.253 -60.917,16.146C-62.167,15.853 -63.416,15.56 -64.665,15.268C-66.004,14.956 -67.405,14.796 -68.667,14.29C-70.014,13.751 -70.219,12.906 -69.77,11.499C-69.481,10.593 -69.129,9.694 -68.956,8.764C-68.192,4.676 -67.363,0.587 -68.014,-3.614C-68.062,-3.921 -67.985,-4.248 -67.953,-4.565C-67.749,-6.579 -67.203,-6.801 -65.44,-5.814C-63.805,-4.899 -62.925,-3.331 -61.745,-2.007C-60.195,-0.269 -58.532,1.383 -56.784,2.918C-56.398,3.257 -55.185,3.231 -54.818,2.884C-54.158,2.259 -55.064,1.874 -55.488,1.444C-57.602,-0.702 -59.718,-2.849 -61.787,-5.038C-62.323,-5.605 -62.673,-6.342 -63.147,-6.972C-63.547,-7.503 -63.907,-8.221 -64.455,-8.451C-65.805,-9.02 -66.315,-10.153 -66.711,-11.349C-68.495,-16.739 -70.247,-22.142 -71.936,-27.564C-72.087,-28.052 -71.888,-28.98 -71.528,-29.221C-70.989,-29.582 -70.033,-29.808 -69.49,-29.565C-68.628,-29.18 -67.844,-28.454 -67.234,-27.704C-65.659,-25.769 -64.212,-23.728 -62.675,-21.759C-62.375,-21.375 -61.929,-20.918 -61.497,-20.854C-58.817,-20.45 -56.261,-20.504 -54.458,-23.057C-53.846,-23.921 -53.115,-24.749 -52.288,-25.404C-50.416,-26.887 -48.952,-25.822 -48.261,-24.148C-48.096,-23.748 -47.958,-23.301 -47.958,-22.877C-47.964,-19.27 -47.882,-15.655 -48.087,-12.058C-48.182,-10.384 -48.821,-8.735 -49.271,-7.089C-49.81,-5.118 -49.125,-4.145 -47.123,-4.139C-46.686,-4.138 -46.248,-4.13 -45.811,-4.143C-44.403,-4.182 -43.159,-3.867 -42.144,-2.778C-41.789,-2.397 -41.218,-2.167 -40.702,-1.997C-39.853,-1.718 -38.418,-3.055 -38.548,-3.932C-38.778,-5.484 -39.077,-7.032 -39.189,-8.594C-39.279,-9.855 -39.149,-11.133 -39.094,-12.403C-39.018,-14.126 -39.327,-15.704 -40.607,-16.988C-41.036,-17.419 -41.365,-17.949 -41.771,-18.475C-40.227,-18.836 -39.114,-18.491 -38.131,-17.38C-37.056,-16.167 -36.781,-14.72 -36.544,-13.233C-36.266,-11.488 -34.946,-10.189 -33.714,-10.497C-31.548,-11.038 -29.487,-13.917 -30.054,-16.056C-30.379,-17.284 -31.23,-18.444 -32.066,-19.449C-32.968,-20.533 -34.226,-21.316 -35.154,-22.381C-36.748,-24.209 -37.642,-26.413 -38.171,-28.775C-38.365,-29.639 -37.977,-30.089 -37.214,-30.229C-36.398,-30.379 -35.561,-30.409 -34.732,-30.498C-33.349,-30.648 -32.838,-31.164 -32.896,-32.543C-33.008,-35.181 -34.457,-38.861 -37.714,-39.633C-39.07,-39.954 -39.863,-41.112 -40.182,-42.553C-40.711,-44.951 -39.854,-47.034 -38.75,-49.033C-38.118,-50.176 -37.087,-50.393 -36.242,-49.443C-34.245,-47.196 -32.183,-44.948 -30.576,-42.428C-28.146,-38.615 -25.997,-34.613 -23.894,-30.605C-22.85,-28.615 -22.074,-26.465 -22.049,-24.135C-22.029,-22.306 -21.889,-20.477 -21.915,-18.65C-21.947,-16.39 -21.941,-14.11 -22.255,-11.881C-22.435,-10.602 -23.31,-9.437 -23.703,-8.167C-24.713,-4.915 -26.656,-2.316 -29.12,-0.049C-30.182,0.927 -31.246,1.898 -32.295,2.86C-31.228,4.168 -30.66,4.268 -29.396,3.598C-26.932,2.292 -25.187,0.249 -23.676,-2.02C-22.973,-3.077 -22.422,-4.243 -21.651,-5.245C-21.296,-5.708 -20.582,-5.895 -20.03,-6.206C-19.753,-5.679 -19.198,-5.127 -19.242,-4.629C-19.541,-1.234 -20.734,1.743 -23.648,3.793C-24.687,4.524 -25.784,5.193 -26.729,6.033C-27.354,6.587 -27.896,7.334 -28.219,8.102C-28.662,9.155 -28.187,9.671 -27.05,9.598C-26.53,9.565 -26.013,9.505 -25.175,9.427C-25.893,10.351 -26.443,11.012 -26.939,11.713C-27.524,12.538 -28.027,13.423 -28.628,14.235C-29.207,15.017 -29.757,15.887 -30.516,16.457C-31.902,17.499 -33.483,18.282 -34.886,19.305C-35.602,19.828 -36.143,20.611 -36.683,21.336C-36.837,21.544 -36.748,21.966 -36.709,22.281C-36.627,22.939 -36.306,23.634 -36.435,24.238C-36.748,25.711 -36.508,26.365 -34.987,26.518C-33.459,26.672 -31.899,26.598 -30.359,26.513C-29.827,26.484 -29.228,26.227 -28.805,25.891C-27.006,24.46 -25.33,22.869 -23.484,21.505C-19.035,18.213 -15.813,13.867 -13.908,8.835C-10.459,-0.279 -7.837,-9.65 -7.246,-19.485C-6.799,-26.929 -7.849,-34.139 -10.19,-41.182C-11.018,-43.668 -11.911,-46.136 -12.884,-48.569C-13.477,-50.05 -13.022,-51.188 -12.073,-52.258C-9.963,-54.636 -7.94,-57.104 -5.693,-59.347C-2.169,-62.864 0.615,-66.758 1.623,-71.735C1.686,-72.044 1.854,-72.333 1.904,-72.643C2.047,-73.527 2.57,-73.826 3.433,-73.966C6.483,-74.464 9.521,-75.055 12.816,-75.657C11.965,-76.433 11.73,-77.523 10.408,-77.388C6.923,-77.032 3.443,-76.93 -0.023,-77.673C-1.156,-77.916 -1.855,-76.687 -1.628,-75.558C-1.312,-73.992 -1.209,-72.367 -1.187,-70.765C-1.178,-70.056 -1.494,-69.103 -2.411,-69.134C-3.064,-69.156 -3.765,-69.601 -4.32,-70.02C-4.652,-70.271 -4.783,-70.824 -4.938,-71.264C-5.803,-73.71 -6.812,-76.053 -8.798,-77.857C-9.795,-78.764 -10.692,-79.782 -11.619,-80.765C-13.396,-82.652 -13.405,-84.761 -11.675,-86.595C-11.461,-86.822 -11.276,-87.095 -11.144,-87.378C-10.747,-88.218 -11.184,-89.013 -12.051,-88.802C-13.033,-88.565 -13.98,-88.039 -14.845,-87.485C-16.896,-86.168 -18.887,-84.755 -20.915,-83.4C-21.096,-83.28 -21.376,-83.317 -21.607,-83.264C-23.028,-82.942 -24.494,-82.741 -25.859,-82.258C-27.721,-81.598 -28.769,-81.775 -30.059,-83.273C-30.354,-83.616 -30.729,-84.025 -31.134,-84.117C-33.175,-84.584 -34.128,-86.11 -34.843,-87.834C-35.738,-89.991 -34.683,-91.356 -32.336,-91.371C-30.845,-91.38 -29.331,-91.505 -27.873,-91.803C-26.171,-92.152 -24.514,-92.729 -22.847,-93.239C-21.396,-93.684 -20.026,-94.212 -19.13,-95.613C-17.872,-97.582 -16.487,-99.471 -15.159,-101.395C-14.011,-103.059 -12.079,-103.114 -10.59,-101.673C-9.069,-100.201 -9.094,-98.356 -9.001,-96.488C-8.968,-95.799 -8.834,-95.104 -8.658,-94.435C-8.45,-93.641 -7.993,-92.887 -7.917,-92.09C-7.731,-90.154 -7.662,-88.203 -7.623,-86.257C-7.56,-83.111 -5.105,-81.306 -2.167,-82.297C0.794,-83.295 1.381,-85.531 -0.635,-87.878C-1.874,-89.322 -3.025,-90.844 -4.175,-92.362C-4.767,-93.144 -4.937,-94.004 -4.252,-94.857C-3.942,-94.973 -3.632,-95.09 -3.321,-95.207C-2.858,-94.947 -2.395,-94.688 -1.932,-94.429C-1.521,-94.034 -1.111,-93.639 -0.701,-93.245C-0.626,-93.165 -0.551,-93.086 -0.477,-93.007C-0.317,-92.841 -0.159,-92.674 0,-92.508M-175.355,-171.522L71.125,-171.522L71.125,79.014L-175.355,79.014L-175.355,-171.522Z" style="fill:rgb(253,253,253);fill-rule:nonzero;"/>
        </g>
        <g transform="matrix(1,0,0,1,226.364,124.861)">
            <path d="M0,-5.82L-0.096,-5.82L-0.096,-5.468L0,-5.468L0,-5.82ZM-31.624,-30.431C-31.669,-30.372 -31.712,-30.315 -31.756,-30.257C-31.694,-30.238 -31.633,-30.211 -31.57,-30.205C-31.552,-30.203 -31.502,-30.274 -31.51,-30.289C-31.536,-30.341 -31.582,-30.382 -31.624,-30.431M1.596,-1.405C1.661,-1.376 1.742,-1.31 1.789,-1.329C1.837,-1.348 1.888,-1.464 1.869,-1.512C1.852,-1.559 1.733,-1.611 1.687,-1.592C1.639,-1.573 1.624,-1.471 1.596,-1.405M-102.063,82.424C-102.61,81.918 -103.034,81.388 -103.146,81.447C-103.64,81.709 -104.044,82.14 -104.481,82.51C-104.125,82.855 -103.787,83.446 -103.408,83.473C-103.057,83.498 -102.663,82.922 -102.063,82.424M-93.745,-70.166C-94.01,-70.805 -94.156,-71.534 -94.56,-72.07C-96.024,-74.014 -97.992,-75.236 -100.395,-75.674C-102.08,-75.981 -103.417,-75.202 -104.148,-73.603C-105.033,-71.667 -104.834,-70.475 -103.301,-69.278C-102.176,-68.4 -100.995,-67.589 -99.8,-66.808C-98.454,-65.93 -96.944,-65.899 -95.598,-66.623C-94.317,-67.311 -93.906,-68.654 -93.745,-70.166M-183.402,-49.13C-183.414,-49.066 -183.426,-49.003 -183.438,-48.939C-183.874,-48.915 -184.379,-49.025 -184.73,-48.841C-185.429,-48.471 -186.293,-48.067 -186.61,-47.436C-186.852,-46.955 -186.428,-46.074 -186.166,-45.425C-185.932,-44.847 -185.433,-44.377 -185.19,-43.8C-184.05,-41.088 -180.878,-40.221 -178.4,-40.55C-176.685,-40.778 -175.002,-41.258 -173.305,-41.626C-172.406,-41.821 -171.584,-42.188 -171.396,-43.176C-171.194,-44.239 -171.811,-44.996 -172.633,-45.565C-172.985,-45.808 -173.406,-45.965 -173.814,-46.112C-176.087,-46.933 -178.355,-47.771 -180.649,-48.533C-181.535,-48.828 -182.482,-48.937 -183.402,-49.13M-181.31,25.44C-181.546,25.83 -181.783,26.193 -181.99,26.572C-182.446,27.403 -182.215,28.464 -181.337,28.597C-179.765,28.834 -178.145,28.835 -176.547,28.804C-175.696,28.786 -174.851,28.492 -174.002,28.326C-173.268,28.184 -172.492,28.154 -171.806,27.887C-170.262,27.289 -168.755,26.593 -167.249,25.902C-166.503,25.559 -165.899,25.142 -166.13,24.093C-166.347,23.111 -167.08,22.956 -167.798,22.937C-168.648,22.914 -169.533,23.316 -170.351,23.191C-172.993,22.787 -175.649,23.583 -178.342,22.712C-179.822,22.233 -181.287,21.907 -182.48,20.896C-184.157,19.476 -185.966,19.583 -187.846,20.312C-188.781,20.675 -188.964,21.314 -188.435,22.188C-187.596,23.573 -186.528,24.425 -184.769,24.295C-183.529,24.203 -182.209,24.191 -181.31,25.44M-162.186,-24.425C-161.708,-23.322 -161.352,-22.144 -160.728,-21.132C-158.94,-18.232 -156.854,-15.501 -155.244,-12.51C-153.647,-9.545 -151.062,-7.558 -148.891,-5.16C-148.661,-4.906 -148.308,-4.68 -147.98,-4.621C-147.476,-4.53 -146.784,-4.396 -146.465,-4.65C-146.132,-4.915 -145.969,-5.648 -146.051,-6.121C-146.176,-6.844 -146.55,-7.531 -146.865,-8.213C-147.512,-9.615 -148.166,-11.014 -148.859,-12.394C-149.926,-14.516 -151.029,-16.621 -152.116,-18.733C-152.875,-20.208 -153.629,-21.685 -154.396,-23.155C-155.109,-24.521 -155.735,-25.95 -156.604,-27.21C-156.993,-27.772 -157.856,-28.235 -158.553,-28.314C-160.52,-28.538 -161.883,-26.915 -162.186,-24.425M-73.398,-22.403C-73.222,-21.773 -73.12,-21.11 -72.851,-20.524C-72.453,-19.665 -71.814,-18.906 -71.493,-18.027C-70.662,-15.752 -69.378,-13.785 -67.815,-11.961C-67.208,-11.253 -66.499,-10.977 -65.731,-11.431C-65.006,-11.859 -64.31,-12.426 -63.783,-13.08C-62.842,-14.248 -62.053,-15.537 -61.175,-16.758C-60.373,-17.874 -59.902,-19.131 -60.315,-20.44C-60.813,-22.016 -61.457,-23.572 -62.247,-25.023C-62.98,-26.368 -63.569,-27.673 -63.692,-29.24C-63.939,-32.415 -67.463,-34.284 -70.221,-32.706C-70.836,-32.354 -71.397,-31.606 -71.615,-30.923C-72.055,-29.545 -72.241,-28.086 -72.531,-26.661C-72.816,-25.265 -73.101,-23.869 -73.398,-22.403M-63.96,16.47L-64.097,16.47C-64.097,13.292 -64.092,10.114 -64.104,6.936C-64.106,6.594 -64.169,6.234 -64.288,5.912C-64.9,4.25 -65.535,2.597 -66.172,0.945C-66.599,-0.164 -66.963,-1.307 -67.513,-2.352C-67.721,-2.747 -68.362,-3.133 -68.816,-3.145C-72.865,-3.247 -76.917,-3.282 -80.968,-3.297C-82.58,-3.303 -83.111,-2.435 -82.251,-1.073C-81.581,-0.011 -80.754,0.983 -79.856,1.864C-76.884,4.78 -74.968,8.434 -73.165,12.052C-70.96,16.481 -69.343,21.202 -67.459,25.792C-67.296,26.189 -67.117,26.652 -66.802,26.895C-66.249,27.32 -65.564,27.905 -64.971,27.867C-63.989,27.807 -63.966,26.808 -63.964,26.004C-63.954,22.826 -63.96,19.648 -63.96,16.47M-168.302,15.827L-168.551,15.567C-168.581,15.54 -168.625,15.52 -168.638,15.488C-168.724,15.266 -168.796,15.038 -168.887,14.819C-170.114,11.863 -171.075,8.732 -174.263,7.126C-174.691,6.91 -174.914,6.321 -175.312,6.003C-176.543,5.022 -177.725,3.925 -179.092,3.178C-180.732,2.282 -182.208,3.055 -182.609,4.885C-182.792,5.718 -182.898,6.7 -182.634,7.478C-181.166,11.806 -178.843,15.353 -173.878,16.214C-173.17,16.336 -172.472,16.512 -171.622,16.695C-172.013,17.117 -172.266,17.367 -172.49,17.639C-173.69,19.095 -173.403,20.112 -171.519,20.479C-169.696,20.834 -167.828,20.989 -165.971,21.133C-164.291,21.263 -162.657,20.982 -161.125,20.216C-160.128,19.717 -159.231,19.983 -158.274,20.675C-160.344,23.204 -162.371,25.695 -164.414,28.172C-165.318,29.269 -166.369,30.103 -167.868,30.311C-168.22,30.36 -168.72,30.98 -168.733,31.352C-168.746,31.706 -168.246,32.351 -167.912,32.393C-167.035,32.501 -166.038,32.574 -165.247,32.261C-163.039,31.388 -160.854,30.415 -158.772,29.276C-157.662,28.667 -156.64,27.751 -155.835,26.765C-154.534,25.167 -153.996,23.199 -154.357,21.165C-154.518,20.263 -155.249,19.462 -155.807,18.461C-155.77,18.42 -155.503,18.14 -155.245,17.851C-154.395,16.898 -153.664,15.873 -154.416,14.557C-155.353,12.914 -156.354,11.306 -157.375,9.713C-157.663,9.263 -158.051,8.795 -158.509,8.552C-159.694,7.924 -161.029,8.579 -161.861,9.905C-162.371,10.717 -163.075,11.413 -163.734,12.122C-164.165,12.585 -164.65,13.004 -165.146,13.398C-166.186,14.223 -167.249,15.02 -168.302,15.827M-196.312,1.462C-195.465,1.39 -193.935,1.403 -192.467,1.109C-188.46,0.307 -184.471,-0.589 -180.493,-1.52C-178.216,-2.052 -176.069,-2.97 -174.752,-5.023C-173.837,-6.448 -173.043,-7.991 -172.485,-9.584C-172.264,-10.216 -172.571,-11.471 -173.078,-11.844C-175.456,-13.599 -178.073,-14.904 -181.14,-14.995C-182.88,-15.046 -184.617,-15.183 -186.355,-15.25C-187.583,-15.297 -188.902,-15.588 -190.025,-15.253C-193.327,-14.269 -196.429,-12.868 -199.237,-10.737C-201.783,-8.805 -203.597,-6.528 -204.468,-3.468C-204.854,-2.116 -203.971,-0.211 -202.764,0.52C-200.933,1.629 -198.938,1.362 -196.312,1.462M-136.159,39.175C-135.832,37.801 -136.309,36.798 -137.372,36.244C-138.357,35.731 -138.184,35.078 -137.987,34.276C-137.743,33.278 -137.542,32.266 -137.374,31.252C-137.188,30.137 -137.899,29.292 -138.714,28.949C-139.387,28.664 -140.415,28.851 -141.147,29.159C-142.424,29.695 -143.023,30.908 -143.715,32.09C-144.523,33.473 -145.731,34.624 -146.78,35.865C-148.664,38.09 -150.843,40.103 -151.844,42.957C-152.167,43.876 -152.727,44.8 -152.73,45.724C-152.736,47.311 -152.784,49.094 -152.111,50.446C-150.756,53.172 -148.096,53.794 -145.219,53.613C-143.517,53.504 -141.809,53.464 -140.112,53.308C-138.902,53.197 -137.639,53.123 -136.519,52.71C-134.74,52.054 -133.04,51.168 -131.345,50.304C-129.704,49.466 -128.882,48.121 -128.704,46.223C-128.615,45.28 -128.13,44.136 -127.433,43.549C-126.56,42.816 -126.368,42.042 -126.382,41.081C-126.391,40.489 -126.472,39.892 -126.583,39.308C-126.726,38.567 -126.524,38.084 -125.764,37.909C-124.681,39.002 -124.241,40.309 -124.161,41.79C-124.078,43.337 -123.892,44.878 -123.797,46.425C-123.748,47.224 -123.521,47.884 -122.628,47.899C-121.596,47.916 -121.447,47.113 -121.469,46.319C-121.591,41.991 -121.729,37.662 -121.882,33.335C-121.902,32.784 -121.98,32.221 -122.134,31.694C-123.515,26.942 -124.829,22.167 -126.356,17.463C-127.052,15.322 -128.252,13.449 -130.886,13.107C-131.511,13.026 -132.118,12.453 -132.637,11.997C-133.448,11.285 -135.605,10.902 -136.435,11.416C-137.975,12.372 -138.725,13.977 -138.362,15.793C-138.201,16.598 -137.857,17.37 -137.561,18.145C-136.839,20.03 -136.079,21.901 -135.372,23.79C-134.982,24.83 -134.718,25.919 -134.307,26.95C-133.402,29.22 -131.924,30.94 -129.551,31.812C-129.065,31.991 -128.364,32.456 -128.349,32.814C-128.331,33.242 -128.868,33.796 -129.297,34.12C-130.053,34.693 -130.935,35.095 -131.708,35.647C-131.974,35.835 -132.289,36.336 -132.209,36.566C-131.657,38.153 -131.143,39.779 -130.344,41.244C-129.731,42.367 -129.65,42.854 -130.735,43.52C-131.037,43.704 -131.359,43.903 -131.577,44.172C-132.317,45.089 -133.305,45.135 -134.535,45.104C-134.157,44.534 -133.776,44.117 -133.583,43.627C-133.371,43.087 -133.323,42.48 -133.217,41.9C-132.825,39.737 -133.835,38.737 -136.159,39.175M-171.704,-54.799C-171.65,-54.7 -171.598,-54.602 -171.544,-54.503C-172.114,-54.638 -172.736,-54.67 -173.243,-54.928C-174.676,-55.66 -176.143,-55.649 -177.659,-55.353C-177.967,-55.293 -178.327,-55.178 -178.595,-55.276C-180.339,-55.904 -181.965,-55.056 -183.64,-54.901C-184.496,-54.821 -184.808,-53.742 -184.192,-53.141C-183.865,-52.821 -183.437,-52.57 -183.011,-52.393C-179.404,-50.891 -175.437,-50.173 -172.359,-47.528C-171.851,-47.092 -171.534,-46.44 -171.052,-45.965C-170.622,-45.541 -170.042,-44.879 -169.605,-44.935C-168.79,-45.038 -167.796,-45.387 -167.29,-45.985C-165.683,-47.881 -164.119,-49.846 -162.815,-51.955C-161.194,-54.578 -160.171,-57.442 -160.552,-60.647C-160.734,-62.183 -160.772,-63.736 -160.869,-65.281C-161.051,-68.194 -159.901,-70.547 -157.747,-72.419C-157.486,-72.645 -156.854,-72.56 -156.445,-72.442C-156.273,-72.393 -156.144,-71.878 -156.154,-71.581C-156.183,-70.788 -156.324,-70 -156.373,-69.207C-156.487,-67.336 -155.342,-66.184 -153.526,-66.438C-152.842,-66.534 -152.172,-66.862 -151.542,-67.176C-148.606,-68.639 -145.393,-68.506 -142.314,-68.399C-140.124,-68.322 -137.984,-67.167 -135.792,-66.61C-133.609,-66.055 -131.406,-65.377 -129.181,-65.234C-125.703,-65.01 -122.197,-65.161 -118.705,-65.224C-117.894,-65.238 -117.019,-65.388 -116.293,-65.729C-113.975,-66.82 -111.633,-66.821 -109.205,-66.249C-108.695,-66.129 -108.005,-66.136 -107.59,-66.394C-106.839,-66.861 -107.102,-67.63 -107.412,-68.31C-108.173,-69.977 -107.678,-71.48 -106.814,-72.941C-106.638,-73.239 -106.396,-73.553 -106.366,-73.877C-106.048,-77.285 -107.924,-80.279 -111.33,-81.216C-114.985,-82.221 -118.651,-83.302 -122.569,-82.827C-125.445,-82.478 -128.328,-82.519 -131.198,-83.304C-132.896,-83.769 -134.729,-83.727 -136.489,-83.99C-137.538,-84.147 -138.626,-84.313 -139.581,-84.737C-140.336,-85.073 -141.222,-85.562 -141.268,-86.755C-140.536,-86.955 -139.845,-87.114 -139.175,-87.337C-138.314,-87.624 -137.419,-87.869 -136.63,-88.299C-135.472,-88.93 -135.359,-90.042 -136.395,-90.436C-138.193,-91.121 -139.633,-92.903 -141.811,-92.136C-142.462,-94.035 -142.011,-94.695 -140.243,-94.991C-136.76,-95.574 -133.74,-94.553 -131.013,-92.464C-130.015,-91.7 -129.053,-91.499 -127.781,-92.527C-128.178,-92.935 -128.479,-93.479 -128.93,-93.672C-131.475,-94.758 -134.243,-95.345 -136.478,-97.117C-136.592,-97.208 -136.781,-97.202 -136.934,-97.244C-139.677,-97.994 -142.429,-97.783 -145.195,-97.382C-145.73,-97.304 -146.395,-97.342 -146.846,-97.598C-148.605,-98.596 -150.323,-99.673 -152.015,-100.782C-152.733,-101.254 -153.096,-101.06 -153.709,-100.519C-155.113,-99.279 -156.523,-97.881 -158.536,-97.76C-159.751,-97.688 -160.987,-98.024 -162.212,-98.008C-165.024,-97.972 -167.519,-97.808 -168.402,-94.459C-168.67,-93.442 -169.619,-92.535 -170.424,-91.751C-171.114,-91.078 -172.072,-90.997 -172.956,-91.568C-173.76,-92.086 -174.175,-92.817 -173.971,-93.785C-173.784,-94.676 -173.48,-95.546 -173.325,-96.441C-173.227,-97.007 -173.307,-97.604 -173.307,-98.27C-175.697,-97.786 -177.826,-97.228 -179.104,-95.432C-180.795,-93.055 -182.238,-90.496 -183.684,-87.956C-184.032,-87.346 -184.057,-86.507 -184.083,-85.768C-184.163,-83.543 -184.06,-81.308 -184.228,-79.092C-184.51,-75.383 -183.92,-71.925 -181.841,-68.782C-181.513,-68.287 -181.3,-67.714 -180.958,-67.229C-180.48,-66.55 -179.988,-65.86 -179.389,-65.296C-179.094,-65.018 -178.457,-64.806 -178.133,-64.942C-177.806,-65.08 -177.466,-65.698 -177.495,-66.079C-177.572,-67.1 -177.845,-68.107 -178.038,-69.119C-178.102,-69.456 -178.308,-69.857 -178.195,-70.121C-177.545,-71.645 -176.896,-73.181 -176.072,-74.612C-175.83,-75.031 -174.877,-75.444 -174.499,-75.282C-174.017,-75.075 -173.608,-74.315 -173.495,-73.73C-173.339,-72.929 -173.447,-72.066 -173.518,-71.236C-173.875,-66.994 -172.811,-63.216 -169.961,-59.989C-169.68,-59.672 -169.349,-59.242 -169.35,-58.864C-169.351,-58.166 -169.402,-57.353 -169.758,-56.796C-170.249,-56.029 -171.041,-55.455 -171.704,-54.799M-91.063,-44.109C-91.16,-44.407 -91.345,-44.814 -91.423,-45.239C-91.835,-47.474 -93.098,-48.346 -95.231,-47.808C-95.91,-47.637 -96.217,-47.942 -96.537,-48.503C-97.128,-49.538 -99.247,-49.628 -99.369,-48.634C-99.626,-46.531 -99.559,-44.386 -99.563,-42.258C-99.565,-41.487 -99.241,-40.696 -99.337,-39.949C-99.493,-38.723 -99.455,-37.625 -98.793,-36.517C-98.522,-36.065 -98.541,-35.336 -98.655,-34.779C-99,-33.092 -99.572,-31.445 -99.836,-29.749C-100.076,-28.202 -100.029,-26.611 -100.109,-25.039C-101.324,-24.911 -102.053,-25.219 -102.784,-26.019C-103.897,-27.237 -105.228,-28.257 -106.483,-29.341C-107.083,-29.858 -107.812,-30.252 -108.319,-30.841C-109.175,-31.836 -110.189,-32.205 -111.47,-32.192C-112.602,-32.18 -113.67,-32.094 -114.154,-30.914C-114.641,-29.727 -114.167,-28.56 -113.02,-27.575C-112.483,-27.114 -111.911,-26.651 -111.516,-26.077C-110.3,-24.311 -109.231,-22.442 -107.975,-20.707C-106.709,-18.961 -106.17,-17.003 -105.979,-14.929C-105.778,-12.758 -106.809,-11.406 -108.793,-11.088C-108.363,-12.124 -107.91,-13.127 -107.539,-14.16C-107.402,-14.542 -107.339,-15.029 -107.449,-15.407C-108.001,-17.306 -108.898,-19.017 -110.441,-20.319C-111.47,-21.188 -112.569,-21.982 -113.533,-22.917C-115.14,-24.478 -117.308,-24.344 -118.317,-22.346C-119.063,-20.871 -120.114,-20.36 -121.654,-20.136C-123.634,-19.849 -125.342,-18.958 -126.309,-17.022C-126.879,-15.881 -126.608,-13.851 -125.526,-13.268C-124.072,-12.485 -122.529,-11.823 -120.959,-11.31C-118.661,-10.558 -116.306,-9.984 -113.975,-9.334C-114.638,-8.927 -115.292,-8.602 -115.933,-8.626C-120.44,-8.795 -124.936,-9.081 -128.751,-11.935C-129.785,-12.708 -130.805,-13.504 -131.774,-14.355C-132.418,-14.921 -132.863,-15.759 -133.569,-16.198C-134.936,-17.048 -135.975,-18.073 -136.491,-19.626C-136.595,-19.937 -136.971,-20.359 -137.242,-20.375C-138.073,-20.424 -138.914,-20.3 -140.166,-20.216C-139.195,-17.594 -138.782,-14.988 -137.391,-13.106C-135.695,-10.811 -133.144,-9.158 -131.031,-7.156C-130.107,-6.281 -128.758,-5.296 -128.639,-4.243C-128.328,-1.488 -127.167,0.5 -124.91,1.967C-124.613,2.159 -124.352,2.415 -124.098,2.666C-122.193,4.552 -119.668,5.254 -117.216,5.627C-114.375,6.06 -111.434,5.801 -108.539,5.907C-107.339,5.95 -106.146,6.159 -104.854,6.304C-105.048,6.81 -105.075,7.212 -105.255,7.3C-106.659,7.988 -108.059,9.071 -109.522,9.177C-114.611,9.546 -119.501,8.269 -123.692,5.48C-127.328,3.061 -130.686,0.117 -133.78,-2.981C-137.453,-6.657 -140.131,-11.119 -140.656,-16.418C-141.194,-21.846 -143.518,-26.588 -145.669,-31.429C-145.742,-31.594 -145.678,-31.821 -145.678,-32.019C-145.555,-32.103 -145.432,-32.187 -145.31,-32.272C-145.276,-32.112 -145.299,-31.892 -145.202,-31.8C-142.744,-29.47 -139.783,-29.177 -136.868,-30.847C-135.497,-31.632 -134.068,-32.359 -132.588,-32.903C-130.809,-33.557 -128.907,-33.882 -127.443,-35.245C-127.173,-35.497 -126.734,-35.599 -126.354,-35.696C-122.968,-36.561 -119.569,-37.375 -116.191,-38.271C-112.354,-39.289 -108.515,-40.208 -104.499,-40.197C-103.784,-40.195 -102.885,-40.606 -102.387,-41.128C-101.098,-42.479 -101.341,-45.999 -102.594,-47.488C-103.197,-48.205 -103.805,-48.99 -104.134,-49.85C-104.593,-51.053 -105.417,-51.623 -106.583,-51.798C-107.403,-51.921 -108.24,-51.928 -109.07,-51.983C-109.98,-52.043 -111.067,-51.798 -111.765,-52.212C-113.562,-53.278 -115.242,-54.568 -116.867,-55.892C-118.92,-57.565 -120.814,-59.435 -122.891,-61.077C-124.307,-62.197 -126.905,-61.112 -127.264,-59.355C-127.446,-58.463 -127.562,-57.545 -127.583,-56.635C-127.633,-54.519 -128.423,-53.078 -130.414,-51.984C-132.455,-50.861 -134.255,-49.25 -136.138,-47.856C-138.398,-46.181 -140.708,-44.584 -143.086,-43.116C-145.555,-41.591 -146.968,-39.586 -147.235,-36.709C-147.275,-36.282 -147.638,-35.886 -147.907,-35.367C-148.354,-35.772 -148.603,-36.022 -148.877,-36.24C-150.27,-37.345 -151.94,-37.177 -152.662,-35.922C-153.565,-34.348 -154.52,-32.802 -155.466,-31.253C-155.984,-30.404 -156.319,-29.576 -155.689,-28.614C-154.778,-27.224 -154.03,-25.708 -152.994,-24.421C-151.866,-23.02 -150.794,-21.667 -150.311,-19.874C-149.941,-18.503 -149.394,-17.161 -148.771,-15.881C-146.012,-10.204 -142.965,-4.686 -139.376,0.516C-138.86,1.264 -138.292,1.988 -137.665,2.644C-133.759,6.731 -129.33,10.06 -124.173,12.483C-119.823,14.528 -115.506,16.554 -110.552,15.684C-108.076,15.249 -105.459,14.798 -103.293,13.634C-100.716,12.25 -98.528,10.124 -96.22,8.26C-94.495,6.867 -94.04,5.095 -94.971,3.102C-95.596,1.763 -95.38,0.552 -94.575,-0.464C-93.158,-2.252 -92.358,-4.186 -92.387,-6.474C-92.394,-7.066 -92.217,-7.658 -92.213,-8.252C-92.189,-11.497 -92.033,-14.747 -93.456,-17.83C-93.774,-18.521 -93.927,-19.654 -93.573,-20.221C-92.553,-21.856 -91.42,-23.518 -89.984,-24.774C-88.275,-26.268 -87.519,-27.946 -87.439,-30.144C-87.279,-34.581 -87.685,-39.048 -86.747,-43.451C-86.515,-44.544 -87.627,-45.615 -88.708,-45.335C-89.486,-45.133 -90.175,-44.587 -91.063,-44.109M-20.926,-20.801C-20.959,-20.82 -20.992,-20.838 -21.025,-20.856C-20.992,-20.838 -20.959,-20.82 -20.926,-20.801C-20.894,-20.783 -20.86,-20.765 -20.827,-20.747C-20.86,-20.765 -20.894,-20.783 -20.926,-20.801M1.822,-4.363C1.877,-4.278 1.932,-4.194 1.987,-4.109C1.402,-3.12 1.664,-2.698 3.028,-2.431C2.691,-1.788 2.354,-1.145 2.017,-0.502C0.254,-0.537 0.248,-0.543 0.525,-1.915C-0.071,-1.758 -0.624,-1.613 -1.176,-1.468C-1.239,-1.519 -1.302,-1.57 -1.364,-1.621C-1.463,-2.42 -1.643,-3.13 -2.72,-2.845L-2.792,-2.89C-2.774,-3.784 -3.289,-4.054 -4.085,-3.995C-4.065,-4.014 -4.046,-4.033 -4.026,-4.053C-4.044,-4.032 -4.062,-4.011 -4.079,-3.99C-3.634,-5.45 -4.61,-5.325 -5.516,-5.28C-5.8,-5.524 -6.084,-5.768 -6.368,-6.012C-6.617,-6.244 -6.867,-6.476 -7.117,-6.708C-7.201,-6.785 -7.285,-6.862 -7.37,-6.939C-7.326,-7.152 -7.282,-7.365 -7.238,-7.578L-7.801,-7.29C-7.959,-7.421 -8.118,-7.552 -8.276,-7.683C-8.164,-8.496 -8.578,-8.732 -9.306,-8.62C-9.372,-8.675 -9.438,-8.731 -9.503,-8.786C-9.526,-9.091 -9.55,-9.395 -9.573,-9.699C-9.88,-9.675 -10.188,-9.652 -10.494,-9.628L-10.667,-9.802C-10.923,-10.034 -11.178,-10.267 -11.433,-10.499L-11.418,-10.488C-11.564,-10.902 -11.712,-11.316 -11.858,-11.729C-12.116,-12.033 -12.374,-12.338 -12.633,-12.642L-13.125,-11.99C-13.824,-12.602 -14.522,-13.213 -15.222,-13.825C-15.409,-13.995 -15.598,-14.166 -15.785,-14.337C-16.624,-15.066 -17.462,-15.796 -18.301,-16.525C-18.471,-16.677 -18.642,-16.829 -18.812,-16.981C-18.962,-17.119 -19.112,-17.258 -19.263,-17.396L-19.919,-17.954L-20.203,-18.199C-20.454,-18.426 -20.705,-18.653 -20.957,-18.88C-21.505,-19.357 -22.054,-19.833 -22.603,-20.309C-22.943,-20.611 -23.284,-20.913 -23.626,-21.215C-23.626,-21.215 -23.614,-21.201 -23.614,-21.202C-23.826,-21.388 -24.038,-21.575 -24.25,-21.762C-24.417,-21.912 -24.585,-22.062 -24.752,-22.212C-24.931,-22.369 -25.11,-22.527 -25.289,-22.684C-25.356,-22.745 -25.424,-22.806 -25.492,-22.867C-25.477,-23.673 -25.887,-23.994 -26.664,-23.9C-26.744,-23.968 -26.825,-24.037 -26.906,-24.106C-27.306,-24.891 -27.374,-26.055 -28.752,-25.722L-28.811,-25.782C-28.711,-25.927 -28.612,-26.072 -28.49,-26.252L-29.329,-26.252L-29.315,-26.238C-29.505,-26.404 -29.693,-26.57 -29.882,-26.737C-29.947,-26.762 -30.003,-26.8 -30.048,-26.853C-29.953,-27.585 -30.363,-27.758 -30.983,-27.698L-30.971,-27.688C-31.187,-28.319 -31.404,-28.949 -31.595,-29.504C-32.161,-29.547 -32.645,-29.583 -33.128,-29.619C-33.367,-29.819 -33.607,-30.018 -33.847,-30.217C-33.82,-31.631 -35.062,-31.608 -35.906,-32.035C-36.164,-32.263 -36.423,-32.49 -36.681,-32.718C-36.938,-32.954 -37.194,-33.191 -37.45,-33.426C-37.748,-33.676 -38.045,-33.925 -38.343,-34.175C-38.509,-34.327 -38.676,-34.479 -38.843,-34.631L-38.835,-34.624C-38.759,-35.265 -39.1,-35.424 -39.655,-35.333L-40.742,-36.286C-40.913,-36.444 -41.084,-36.601 -41.255,-36.758L-41.242,-36.746C-41.301,-37.9 -42.218,-38.705 -43.434,-38.67C-43.526,-38.746 -43.618,-38.821 -43.71,-38.897C-43.632,-39.008 -43.554,-39.119 -43.475,-39.23C-43.608,-39.164 -43.741,-39.098 -43.875,-39.033L-44.13,-39.263C-44.17,-40.02 -44.563,-40.38 -45.324,-40.325L-45.312,-40.312C-45.157,-41.116 -45.347,-41.559 -46.254,-41.87C-46.95,-42.109 -47.464,-42.881 -48.06,-43.416C-47.999,-43.468 -47.938,-43.522 -47.877,-43.574L-49.134,-43.675L-49.119,-43.662C-49.305,-43.824 -49.491,-43.986 -49.678,-44.148C-49.964,-44.444 -50.25,-44.739 -50.536,-45.035C-50.696,-45.226 -50.857,-45.416 -51.018,-45.607L-51.009,-45.595C-51.168,-45.761 -51.326,-45.928 -51.485,-46.094C-51.56,-46.173 -51.635,-46.253 -51.71,-46.332C-51.537,-46.772 -51.364,-47.212 -51.191,-47.653C-49.218,-46.238 -47.243,-44.824 -45.27,-43.41C-45.244,-43.071 -45.219,-42.732 -45.176,-42.141C-44.843,-42.497 -44.676,-42.676 -44.508,-42.855C-43.483,-42.118 -42.458,-41.382 -41.434,-40.645C-41.198,-40.475 -40.964,-40.304 -40.729,-40.134C-40.407,-39.828 -40.085,-39.521 -39.763,-39.215C-39.591,-39.05 -39.419,-38.886 -39.248,-38.722C-38.146,-37.697 -37.043,-36.672 -35.939,-35.647C-35.77,-35.486 -35.599,-35.324 -35.428,-35.163L-35.44,-35.175C-35.251,-35.014 -35.061,-34.853 -34.871,-34.692C-34.425,-34.308 -33.979,-33.923 -33.533,-33.539C-33.706,-33.379 -33.878,-33.219 -34.203,-32.918C-33.637,-32.944 -33.239,-32.962 -32.841,-32.98C-32.394,-32.601 -31.946,-32.223 -31.5,-31.844C-31.702,-31.677 -31.905,-31.509 -32.107,-31.341C-32.063,-31.263 -32.019,-31.185 -31.974,-31.106C-31.607,-31.175 -31.24,-31.245 -30.874,-31.314C-30.813,-31.265 -30.752,-31.216 -30.691,-31.167C-30.461,-30.972 -30.23,-30.778 -30,-30.584C-29.52,-30.119 -29.039,-29.655 -28.56,-29.19C-28.302,-28.947 -28.044,-28.705 -27.787,-28.463C-27.615,-28.239 -27.444,-28.016 -27.272,-27.792C-27.506,-27.653 -27.739,-27.516 -27.973,-27.378C-27.896,-27.296 -27.821,-27.213 -27.745,-27.13C-27.583,-27.344 -27.422,-27.558 -27.261,-27.772C-27.13,-27.713 -26.999,-27.654 -26.868,-27.595L-26.868,-26.527C-26.609,-26.713 -26.417,-26.852 -26.224,-26.99C-24.84,-25.687 -23.456,-24.382 -22.071,-23.078C-21.986,-22.666 -21.901,-22.254 -21.816,-21.842C-21.714,-21.861 -21.612,-21.879 -21.51,-21.898C-21.452,-22.068 -21.395,-22.237 -21.337,-22.406C-20.4,-21.58 -19.465,-20.754 -18.529,-19.927C-18.291,-19.743 -18.053,-19.558 -17.815,-19.373C-17.419,-19.054 -17.021,-18.736 -16.625,-18.417C-17.03,-18.293 -17.436,-18.17 -17.84,-18.046L-17.729,-17.724L-16.375,-18.222C-14.39,-17.004 -12.403,-15.786 -10.417,-14.569C-10.304,-14.399 -10.189,-14.23 -9.953,-13.879L-9.953,-15.314C-9.952,-15.393 -9.952,-15.472 -9.951,-15.551L-10.81,-16.213C-10.851,-16.286 -10.892,-16.36 -10.933,-16.433C-11.167,-16.695 -11.4,-16.958 -11.634,-17.22L-11.682,-17.281L-11.682,-18.576C-12.07,-18.504 -12.336,-18.454 -12.602,-18.405C-12.923,-18.775 -13.244,-19.144 -13.566,-19.513C-13.724,-19.699 -13.882,-19.886 -14.04,-20.072C-14.417,-20.473 -14.817,-20.856 -15.169,-21.278C-23.217,-30.942 -30.286,-41.317 -37.251,-51.763C-37.76,-52.527 -38.041,-53.483 -38.239,-54.391C-38.321,-54.767 -38,-55.534 -37.702,-55.632C-36.876,-55.901 -35.922,-56.134 -35.098,-55.974C-33.751,-55.712 -32.493,-55.014 -31.151,-54.698C-26.434,-53.588 -21.701,-52.539 -16.965,-51.512C-14.933,-51.071 -12.876,-50.741 -10.83,-50.361C-10.722,-50.463 -10.614,-50.565 -10.506,-50.667C-10.965,-51.771 -11.289,-52.958 -11.905,-53.966C-16.133,-60.883 -20.472,-67.732 -24.68,-74.66C-30.409,-84.091 -36.987,-93.014 -41.706,-103.055C-42.046,-103.777 -42.68,-104.361 -43.177,-105.008C-43.339,-104.518 -43.309,-104.134 -43.21,-103.769C-42.334,-100.516 -41.47,-97.26 -40.555,-94.018C-39.939,-91.84 -39.431,-89.607 -38.552,-87.535C-36.907,-83.663 -35.899,-79.637 -35.079,-75.54C-34.861,-74.455 -34.579,-73.381 -34.288,-72.312C-33.859,-70.742 -33.319,-69.197 -32.969,-67.611C-32.613,-66.004 -33.222,-65.484 -34.758,-65.812C-39.492,-66.823 -44.233,-67.801 -48.971,-68.802C-53.128,-69.68 -57.313,-70.453 -61.423,-71.512C-63.139,-71.954 -64.711,-71.78 -66.345,-71.494C-67.005,-71.379 -67.425,-70.987 -67.273,-70.242C-67.046,-69.122 -66.852,-67.991 -66.545,-66.892C-65.161,-61.936 -62.452,-57.83 -58.575,-54.456C-57.321,-53.365 -56.2,-52.123 -55.018,-50.95C-54.739,-50.705 -54.46,-50.46 -54.182,-50.216C-53.974,-49.966 -53.765,-49.716 -53.557,-49.467C-53.647,-49.278 -53.738,-49.089 -53.88,-48.794C-53.354,-48.868 -53.023,-48.915 -52.693,-48.962C-52.356,-48.666 -52.02,-48.37 -51.682,-48.074C-51.745,-47.086 -52.408,-47.449 -52.94,-47.516C-53.403,-47.776 -53.867,-48.035 -54.33,-48.294L-54.33,-48.963L-54.57,-49.072C-54.801,-48.696 -55.031,-48.32 -55.261,-47.944C-55.945,-47.091 -55.775,-46.232 -55.184,-45.45C-54.034,-43.931 -52.883,-42.409 -51.644,-40.966C-49.628,-38.618 -50.215,-36.382 -53.176,-35.384C-56.114,-34.393 -58.568,-36.198 -58.632,-39.344C-58.671,-41.291 -58.74,-43.241 -58.926,-45.177C-59.002,-45.974 -59.459,-46.728 -59.667,-47.522C-59.843,-48.191 -59.977,-48.886 -60.01,-49.575C-60.103,-51.443 -60.078,-53.289 -61.599,-54.76C-63.088,-56.201 -65.02,-56.147 -66.168,-54.483C-67.496,-52.558 -68.881,-50.67 -70.139,-48.701C-71.035,-47.299 -72.404,-46.771 -73.855,-46.327C-75.522,-45.816 -77.18,-45.239 -78.882,-44.89C-80.34,-44.592 -81.854,-44.467 -83.345,-44.458C-85.691,-44.444 -86.747,-43.079 -85.852,-40.921C-85.137,-39.197 -84.184,-37.672 -82.143,-37.204C-81.738,-37.112 -81.363,-36.703 -81.067,-36.361C-79.777,-34.862 -78.729,-34.685 -76.868,-35.345C-75.503,-35.828 -74.037,-36.029 -72.616,-36.352C-72.385,-36.404 -72.104,-36.367 -71.924,-36.487C-69.896,-37.842 -67.905,-39.256 -65.854,-40.572C-64.989,-41.126 -64.042,-41.652 -63.06,-41.89C-62.192,-42.1 -61.756,-41.305 -62.152,-40.465C-62.285,-40.182 -62.47,-39.909 -62.684,-39.682C-64.414,-37.849 -64.405,-35.739 -62.628,-33.853C-61.701,-32.869 -60.804,-31.851 -59.807,-30.945C-57.821,-29.141 -56.812,-26.798 -55.947,-24.351C-55.792,-23.911 -55.661,-23.358 -55.329,-23.108C-54.773,-22.688 -54.073,-22.243 -53.42,-22.221C-52.503,-22.19 -52.187,-23.144 -52.196,-23.853C-52.218,-25.454 -52.32,-27.079 -52.637,-28.645C-52.864,-29.774 -52.165,-31.003 -51.032,-30.76C-47.565,-30.018 -44.086,-30.12 -40.601,-30.475C-39.278,-30.61 -39.044,-29.52 -38.192,-28.744C-41.488,-28.142 -44.525,-27.551 -47.576,-27.054C-48.438,-26.914 -48.962,-26.614 -49.104,-25.73C-49.154,-25.421 -49.323,-25.132 -49.386,-24.822C-50.394,-19.845 -53.178,-15.952 -56.702,-12.434C-58.949,-10.192 -60.972,-7.723 -63.082,-5.345C-64.031,-4.276 -64.485,-3.137 -63.893,-1.656C-62.92,0.776 -62.026,3.244 -61.199,5.731C-58.857,12.774 -57.808,19.984 -58.255,27.428C-58.846,37.263 -61.468,46.634 -64.917,55.747C-66.822,60.78 -70.044,65.125 -74.493,68.417C-76.339,69.782 -78.015,71.372 -79.813,72.804C-80.236,73.14 -80.836,73.397 -81.368,73.426C-82.908,73.511 -84.468,73.584 -85.996,73.431C-87.517,73.278 -87.757,72.623 -87.443,71.151C-87.314,70.546 -87.636,69.852 -87.718,69.194C-87.757,68.878 -87.846,68.456 -87.691,68.248C-87.151,67.524 -86.61,66.741 -85.895,66.218C-84.492,65.195 -82.911,64.411 -81.524,63.369C-80.766,62.799 -80.216,61.93 -79.637,61.148C-79.036,60.335 -78.533,59.45 -77.948,58.625C-77.452,57.925 -76.901,57.264 -76.184,56.339C-77.021,56.417 -77.539,56.478 -78.059,56.511C-79.196,56.583 -79.671,56.068 -79.228,55.015C-78.904,54.246 -78.362,53.499 -77.738,52.946C-76.793,52.106 -75.696,51.437 -74.657,50.705C-71.743,48.656 -70.55,45.679 -70.251,42.284C-70.207,41.785 -70.762,41.234 -71.039,40.706C-71.591,41.018 -72.305,41.204 -72.66,41.667C-73.431,42.669 -73.981,43.835 -74.685,44.893C-76.196,47.161 -77.94,49.204 -80.405,50.511C-81.669,51.181 -82.236,51.08 -83.304,49.773C-82.255,48.811 -81.19,47.839 -80.129,46.864C-77.665,44.597 -75.722,41.997 -74.712,38.745C-74.318,37.476 -73.443,36.311 -73.264,35.032C-72.95,32.803 -72.956,30.523 -72.924,28.263C-72.897,26.436 -73.038,24.607 -73.058,22.778C-73.083,20.448 -73.858,18.297 -74.902,16.308C-77.006,12.299 -79.154,8.297 -81.585,4.485C-83.191,1.964 -85.254,-0.283 -87.251,-2.53C-88.096,-3.481 -89.127,-3.264 -89.759,-2.12C-90.863,-0.122 -91.72,1.961 -91.19,4.36C-90.872,5.801 -90.079,6.958 -88.723,7.28C-85.466,8.052 -84.017,11.732 -83.905,14.369C-83.847,15.748 -84.357,16.265 -85.741,16.414C-86.569,16.503 -87.407,16.534 -88.223,16.684C-88.985,16.824 -89.374,17.274 -89.18,18.138C-88.65,20.499 -87.757,22.703 -86.163,24.532C-85.234,25.597 -83.977,26.379 -83.075,27.463C-82.239,28.469 -81.388,29.628 -81.063,30.857C-80.496,32.995 -82.557,35.874 -84.723,36.415C-85.955,36.724 -87.274,35.424 -87.553,33.68C-87.79,32.193 -88.064,30.745 -89.14,29.533C-90.123,28.421 -91.235,28.076 -92.78,28.438C-92.374,28.963 -92.045,29.493 -91.616,29.924C-90.336,31.208 -90.026,32.786 -90.103,34.51C-90.158,35.78 -90.288,37.058 -90.198,38.319C-90.086,39.88 -89.787,41.429 -89.557,42.981C-89.427,43.858 -90.861,45.195 -91.711,44.915C-92.227,44.745 -92.798,44.516 -93.152,44.135C-94.168,43.045 -95.412,42.731 -96.819,42.77C-97.257,42.783 -97.694,42.775 -98.132,42.774C-100.134,42.768 -100.818,41.794 -100.28,39.824C-99.83,38.178 -99.19,36.529 -99.096,34.855C-98.891,31.257 -98.973,27.643 -98.967,24.035C-98.967,23.612 -99.104,23.164 -99.27,22.765C-99.961,21.09 -101.425,20.026 -103.296,21.509C-104.124,22.163 -104.855,22.992 -105.466,23.856C-107.27,26.409 -109.826,26.462 -112.505,26.059C-112.938,25.994 -113.384,25.537 -113.684,25.154C-115.221,23.185 -116.667,21.144 -118.243,19.208C-118.853,18.458 -119.637,17.733 -120.499,17.348C-121.042,17.105 -121.998,17.33 -122.537,17.692C-122.897,17.933 -123.096,18.861 -122.944,19.349C-121.255,24.771 -119.503,30.173 -117.72,35.564C-117.324,36.76 -116.814,37.893 -115.463,38.461C-114.916,38.692 -114.556,39.409 -114.156,39.941C-113.682,40.571 -113.332,41.308 -112.796,41.874C-110.727,44.064 -108.611,46.21 -106.497,48.357C-106.073,48.786 -105.167,49.171 -105.827,49.796C-106.194,50.144 -107.407,50.169 -107.792,49.83C-109.541,48.295 -111.204,46.644 -112.753,44.906C-113.934,43.581 -114.813,42.014 -116.449,41.099C-118.212,40.112 -118.758,40.333 -118.962,42.348C-118.994,42.664 -119.07,42.992 -119.023,43.298C-118.372,47.499 -119.201,51.588 -119.964,55.677C-120.138,56.607 -120.49,57.505 -120.779,58.411C-121.228,59.819 -121.022,60.663 -119.676,61.202C-118.414,61.708 -117.013,61.868 -115.674,62.181C-114.424,62.473 -113.176,62.766 -111.926,63.059C-111.945,63.165 -111.964,63.272 -111.982,63.378C-114.083,63.559 -116.189,63.687 -118.28,63.948C-119.122,64.053 -119.953,64.39 -120.743,64.73C-121.594,65.097 -121.659,65.804 -121.115,66.468C-119.802,68.073 -118.067,69.142 -116.023,69.219C-113.099,69.33 -110.163,69.086 -107.232,69.065C-104.492,69.044 -101.749,69.067 -99.012,69.19C-98.492,69.212 -97.787,69.676 -97.539,70.137C-97.154,70.851 -97.845,71.322 -98.429,71.557C-99.379,71.939 -100.362,72.312 -101.365,72.465C-102.16,72.587 -102.402,73.026 -102.422,73.636C-102.47,75.105 -102.025,76.51 -100.738,77.235C-99.41,77.982 -97.917,78.512 -96.364,77.489C-94.924,76.539 -93.45,75.617 -91.905,74.859C-91.443,74.632 -90.628,74.871 -90.104,75.145C-89.89,75.257 -89.821,76.153 -90.026,76.479C-91.097,78.181 -91.838,80.283 -94.311,80.518C-94.54,80.539 -94.817,80.607 -94.974,80.756C-97.513,83.189 -100.654,85.023 -102.449,88.195C-103.557,90.152 -103.146,92.127 -102.321,94.031C-101.284,96.429 -100.839,98.899 -101.267,101.475C-101.545,103.148 -101.845,104.845 -102.426,106.424C-102.62,106.953 -103.732,107.465 -104.39,107.424C-105.256,107.369 -106.189,106.901 -106.911,106.363C-108.112,105.468 -109.069,104.231 -110.306,103.402C-112.484,101.941 -114.309,100.194 -115.825,98.056C-116.431,97.2 -117.405,96.615 -118.112,95.818C-118.558,95.316 -119.114,94.647 -119.108,94.058C-119.09,92.332 -119.006,90.563 -118.59,88.9C-118.141,87.102 -117.341,85.381 -116.592,83.671C-116.088,82.523 -115.501,81.386 -114.783,80.362C-113.643,78.734 -114.246,76.946 -116.23,76.511C-117.082,76.325 -117.958,76.198 -118.828,76.162C-119.886,76.118 -120.182,75.553 -120.161,74.616C-120.147,74.021 -120.202,73.424 -120.235,72.828C-120.387,70.112 -123.842,67.417 -126.7,68.83C-129.118,70.026 -131.618,71.055 -134.083,72.155C-135.716,72.882 -137.359,73.586 -138.983,74.333C-140.662,75.106 -141.078,76.335 -140.296,78.03C-139.745,79.225 -138.977,80.176 -137.694,80.664C-137.034,80.916 -136.42,81.289 -135.706,81.649C-135.857,82.053 -135.989,82.404 -136.06,82.592C-137.643,82.491 -139.084,82.39 -140.527,82.308C-142.28,82.207 -143.158,82.755 -143.905,84.333C-145.726,88.173 -147.654,91.966 -149.342,95.864C-149.99,97.36 -150.764,98.573 -151.973,99.678C-153.221,100.819 -154.153,102.306 -155.224,103.641C-155.104,103.755 -154.984,103.869 -154.864,103.984C-154.183,103.383 -153.401,102.863 -152.836,102.167C-150.319,99.067 -146.886,97.051 -143.888,94.526C-141.049,92.133 -138.411,89.574 -136.273,86.536C-135.807,85.874 -135.535,85.056 -135.268,84.278C-135.002,83.506 -134.64,83.066 -133.729,83.176C-130.853,83.525 -128.661,82.408 -127.116,79.973C-126.947,79.706 -126.728,79.472 -126.525,79.227C-125.699,78.232 -125.042,78.29 -124.722,79.538C-124.48,80.483 -124.418,81.548 -125.327,82.333C-135.018,90.706 -144.155,99.657 -152.994,108.916C-153.564,109.514 -154.151,109.796 -154.975,109.722C-155.685,109.659 -156.406,109.733 -157.121,109.705C-157.863,109.677 -158.89,109.886 -159.286,109.489C-160.192,108.577 -160.824,107.38 -161.483,106.25C-161.611,106.031 -161.407,105.566 -161.269,105.252C-158.73,99.509 -156.164,93.779 -153.65,88.026C-153.327,87.286 -153.16,86.442 -153.101,85.632C-152.828,81.91 -153.175,78.261 -154.543,74.747C-154.697,74.353 -154.745,73.893 -154.74,73.464C-154.695,69.409 -154.646,65.354 -154.561,61.299C-154.524,59.531 -155.51,58.301 -157.322,57.985C-160.964,57.349 -164.598,56.666 -168.248,56.085C-170.888,55.664 -172.754,53.999 -174.51,52.244C-175.766,50.991 -176.711,49.43 -177.865,48.066C-178.147,47.732 -178.708,47.442 -179.132,47.452C-181.023,47.5 -182.857,47.398 -184.547,46.418C-184.778,46.284 -185.084,46.2 -185.348,46.216C-187.403,46.345 -189.001,45.374 -190.474,44.112C-191.528,43.208 -192.696,42.597 -194.11,42.55C-194.794,42.528 -195.129,42.236 -195.279,41.509C-196.001,38.006 -196.887,34.534 -197.504,31.014C-197.714,29.817 -197.419,28.489 -197.163,27.261C-196.565,24.397 -196.775,21.566 -197.334,18.742C-197.436,18.229 -197.738,17.71 -198.072,17.294C-200.237,14.6 -202.41,11.91 -204.63,9.261C-207.281,6.098 -208.434,2.139 -210.368,-1.404C-210.474,-1.597 -210.422,-1.959 -210.313,-2.176C-208.003,-6.76 -204.71,-10.553 -200.689,-13.686C-197.973,-15.801 -194.52,-16.358 -191.408,-17.637C-190.856,-17.864 -190.149,-17.766 -189.518,-17.735C-186.543,-17.588 -183.559,-17.509 -180.599,-17.204C-179.164,-17.056 -177.739,-16.556 -176.374,-16.044C-175.341,-15.657 -174.363,-15.58 -173.372,-15.952C-172.991,-16.095 -172.6,-16.432 -172.397,-16.786C-171.631,-18.121 -170.935,-19.496 -170.222,-20.861C-168.918,-23.355 -169.469,-25.533 -172.653,-26.014C-174.146,-26.239 -175.669,-26.298 -177.146,-26.595C-178.411,-26.849 -179.647,-27.285 -180.862,-27.734C-181.751,-28.064 -182.547,-28.674 -183.45,-28.936C-187.529,-30.121 -190.502,-32.922 -193.614,-35.589C-196.262,-37.858 -197.647,-40.96 -199.506,-43.757C-200.364,-45.047 -201.19,-46.369 -202.165,-47.567C-203.004,-48.598 -202.406,-49.515 -202.008,-50.316C-201.792,-50.751 -200.905,-50.921 -200.288,-51.052C-200.061,-51.101 -199.671,-50.745 -199.466,-50.487C-197.225,-47.659 -194.203,-45.943 -191,-44.478C-190.903,-44.434 -190.775,-44.458 -190.593,-44.445C-190.62,-51.529 -189.316,-58.556 -190.188,-65.633C-190.475,-67.953 -189.68,-70.099 -189.081,-72.278C-188.886,-72.989 -188.676,-73.731 -188.679,-74.459C-188.69,-77.321 -188.927,-80.191 -188.794,-83.044C-188.711,-84.839 -188.135,-86.613 -187.752,-88.39C-186.839,-92.627 -184.072,-95.522 -181.122,-98.536C-177.838,-101.89 -173.802,-103.068 -169.62,-104.259C-167.557,-104.847 -165.499,-105.459 -163.417,-105.971C-162.76,-106.133 -161.985,-106.174 -161.346,-105.989C-158.461,-105.156 -155.56,-104.67 -152.537,-104.805C-151.787,-104.839 -151.023,-104.221 -150.242,-103.987C-149.548,-103.778 -148.803,-103.51 -148.108,-103.573C-145.379,-103.82 -142.662,-104.205 -139.936,-104.495C-139.491,-104.542 -138.969,-104.471 -138.573,-104.273C-135.694,-102.837 -132.833,-101.362 -129.982,-99.871C-129.653,-99.699 -129.361,-99.386 -129.151,-99.072C-128.754,-98.479 -128.377,-97.861 -128.086,-97.211C-127.274,-95.396 -126.094,-94.019 -124.107,-93.425C-123.691,-93.3 -123.299,-92.919 -123.015,-92.561C-121.459,-90.6 -119.977,-88.581 -118.386,-86.649C-117.974,-86.15 -117.312,-85.734 -116.686,-85.556C-113.366,-84.612 -110.012,-83.793 -106.693,-82.847C-105.757,-82.58 -104.88,-82.069 -104.012,-81.601C-103.139,-81.131 -102.36,-80.462 -101.457,-80.076C-96.093,-77.79 -92.661,-73.548 -89.931,-68.65C-88.493,-66.07 -86.089,-65.084 -83.531,-64.364C-82.186,-63.985 -80.71,-63.906 -79.3,-63.945C-77.186,-64.003 -77.188,-64.098 -75.269,-65.82C-76.228,-66.838 -77.016,-68.182 -78.187,-68.805C-80.41,-69.988 -82.058,-71.651 -83.496,-73.623C-83.87,-74.136 -84.295,-74.612 -84.697,-75.105C-85.817,-76.476 -85.813,-77.032 -84.535,-78.275C-84.306,-78.497 -83.828,-78.55 -83.47,-78.541C-78.76,-78.418 -74.173,-77.534 -69.587,-76.487C-65.104,-75.462 -60.555,-74.696 -56.01,-73.971C-50.475,-73.089 -44.915,-72.369 -39.365,-71.579C-39.177,-71.552 -38.985,-71.54 -38.601,-71.501C-38.742,-72.092 -38.84,-72.571 -38.973,-73.04C-42.518,-85.541 -46.056,-98.043 -49.621,-110.537C-50.24,-112.708 -49.137,-115.432 -46.326,-115.677C-45.994,-115.706 -45.508,-115.396 -45.291,-115.098C-43.588,-112.756 -41.783,-110.468 -40.287,-107.996C-31.257,-93.072 -22.301,-78.103 -13.319,-63.15C-11.335,-59.846 -9.376,-56.527 -7.345,-53.252C-6.743,-52.283 -6.495,-51.351 -6.718,-50.223C-6.909,-49.256 -6.936,-48.255 -7.051,-47.112C-14.828,-48.293 -22.541,-49.463 -30.562,-50.68C-29.892,-49.705 -29.391,-48.963 -28.876,-48.231C-23.26,-40.228 -17.642,-32.227 -12.027,-24.224C-11.938,-24.097 -11.879,-23.95 -11.807,-23.812C-11.753,-23.261 -11.7,-22.71 -11.645,-22.136C-11.302,-22.171 -11.002,-22.201 -10.702,-22.231C-10.212,-21.519 -9.722,-20.806 -9.231,-20.093C-9.289,-19.597 -9.347,-19.101 -9.416,-18.502C-8.745,-18.158 -8.061,-17.809 -7.377,-17.459C-7.119,-17.092 -6.861,-16.725 -6.604,-16.358C-6.643,-15.812 -7.059,-15.002 -5.873,-15.313L-5.819,-15.242C-6.277,-14.462 -5.886,-14.296 -5.18,-14.357C-4.578,-13.502 -3.978,-12.647 -3.377,-11.792C-3.579,-11.543 -3.782,-11.294 -3.925,-11.118C-3.479,-10.71 -3.149,-10.408 -2.809,-10.095C-2.713,-10.159 -2.554,-10.267 -2.394,-10.374C-2.346,-10.326 -2.311,-10.269 -2.288,-10.202C-2.327,-9.512 -2.51,-8.72 -1.354,-8.87C-1.081,-8.489 -0.809,-8.108 -0.536,-7.727C-0.997,-6.821 -0.842,-6.596 0.324,-6.487C0.575,-6.132 0.825,-5.777 1.075,-5.422C0.979,-5.298 0.884,-5.174 0.788,-5.05C0.755,-5.068 0.722,-5.086 0.688,-5.104C0.722,-5.086 0.754,-5.068 0.787,-5.049C1.132,-4.82 1.477,-4.591 1.822,-4.363" style="fill:rgb(5,5,5);fill-rule:nonzero;"/>
        </g>
        <g transform="matrix(1,0,0,1,177.23,84.5497)">
            <path d="M0,-3.364L1.257,-3.263C1.196,-3.21 1.135,-3.157 1.074,-3.104C1.67,-2.569 2.184,-1.797 2.88,-1.558C3.787,-1.247 3.977,-0.805 3.822,0C2.549,-1.121 1.274,-2.243 0,-3.364" style="fill:rgb(15,15,15);fill-rule:nonzero;"/>
        </g>
        <g transform="matrix(-0.289658,0.95713,0.95713,0.289658,228.153,123.086)">
            <path d="M1.152,-2.748C0.854,-2.262 0.555,-1.776 0.232,-1.25C1.625,-1.117 1.629,-1.11 1.152,0.587C1.599,0.512 2.047,0.438 2.664,0.335C2.11,-0.795 1.631,-1.772 1.152,-2.748" style="fill:rgb(6,6,6);fill-rule:nonzero;"/>
        </g>
        <g transform="matrix(1,0,0,1,218.987,104.768)">
            <path d="M0,2.634C-0.684,2.284 -1.368,1.935 -2.039,1.592C-1.97,0.992 -1.912,0.496 -1.854,0C-1.236,0.878 -0.618,1.756 0,2.634" style="fill:rgb(6,6,6);fill-rule:nonzero;"/>
        </g>
        <g transform="matrix(1,0,0,1,182.931,88.08)">
            <path d="M0,-1.889C1.216,-1.924 2.133,-1.119 2.191,0.035C1.461,-0.606 0.73,-1.248 0,-1.889" style="fill:rgb(15,15,15);fill-rule:nonzero;"/>
        </g>
        <g transform="matrix(1,0,0,1,193.236,97.1738)">
            <path d="M0,-1.932C0.483,-1.896 0.967,-1.859 1.533,-1.816C1.724,-1.262 1.94,-0.631 2.157,0C1.437,-0.644 0.719,-1.288 0,-1.932" style="fill:rgb(15,15,15);fill-rule:nonzero;"/>
        </g>
        <g transform="matrix(1,0,0,1,229.393,120.753)">
            <path d="M0,1.677C-1.364,1.41 -1.626,0.989 -1.041,0C-0.694,0.559 -0.347,1.118 0,1.677" style="fill:rgb(6,6,6);fill-rule:nonzero;"/>
        </g>
        <g transform="matrix(0.437081,-0.899422,-0.899422,-0.437081,224.052,113.478)">
            <path d="M-0.943,-0.368C-1.109,-0.271 -1.276,-0.175 -1.375,-0.117C-1.243,0.327 -1.116,0.756 -0.943,1.334C-0.724,1.283 -0.411,1.209 -0.097,1.136C-0.38,0.635 -0.661,0.134 -0.943,-0.368" style="fill:rgb(6,6,6);fill-rule:nonzero;"/>
        </g>
        <g transform="matrix(1,0,0,1,197.612,100.423)">
            <path d="M0,-1.284C1.378,-1.617 1.446,-0.453 1.846,0.333C1.23,-0.206 0.615,-0.745 0,-1.284" style="fill:rgb(15,15,15);fill-rule:nonzero;"/>
        </g>
        <g transform="matrix(1,0,0,1,190.458,94.6438)">
            <path d="M0,-1.818C0.845,-1.391 2.086,-1.413 2.06,0C1.373,-0.606 0.687,-1.212 0,-1.818" style="fill:rgb(15,15,15);fill-rule:nonzero;"/>
        </g>
        <g transform="matrix(0.602348,-0.798234,-0.798234,-0.602348,213.461,113.392)">
            <path d="M0.282,0.491L1.099,0.491C1.012,0.101 0.924,-0.289 0.837,-0.678C0.621,-0.648 0.404,-0.62 0.187,-0.592C0.219,-0.23 0.25,0.129 0.282,0.491" style="fill:rgb(6,6,6);fill-rule:nonzero;"/>
        </g>
        <g transform="matrix(0.0775247,0.99699,0.99699,-0.0775247,174.543,76.7618)">
            <path d="M0.495,-1.161C0.603,-0.635 1.017,-0.003 0.036,0.138C0.189,0.289 0.341,0.441 0.495,0.594C0.92,0.387 1.345,0.18 1.77,-0.026C1.346,-0.404 0.92,-0.782 0.495,-1.161" style="fill:rgb(15,15,15);fill-rule:nonzero;"/>
        </g>
        <g transform="matrix(1,0,0,1,220.849,120.702)">
            <path d="M0,-1.121C0.905,-1.166 1.882,-1.29 1.437,0.169C0.957,-0.261 0.479,-0.691 0,-1.121" style="fill:rgb(6,6,6);fill-rule:nonzero;"/>
        </g>
        <g transform="matrix(1,0,0,1,215.662,101.144)">
            <path d="M0,1.486C-0.3,1.516 -0.6,1.546 -0.942,1.581C-0.998,1.007 -1.051,0.456 -1.104,-0.095L0,1.486Z" style="fill:rgb(15,15,15);fill-rule:nonzero;"/>
        </g>
        <g transform="matrix(1,0,0,1,226.689,117.134)">
            <path d="M0,1.241C-1.166,1.131 -1.321,0.906 -0.86,0C-0.573,0.414 -0.286,0.827 0,1.241" style="fill:rgb(6,6,6);fill-rule:nonzero;"/>
        </g>
        <g transform="matrix(1,0,0,1,215.87,116.002)">
            <path d="M0,-0.769C0.307,-0.793 0.614,-0.817 0.921,-0.841C0.944,-0.537 0.968,-0.232 0.991,0.072C0.66,-0.208 0.33,-0.489 0,-0.769" style="fill:rgb(15,15,15);fill-rule:nonzero;"/>
        </g>
        <g transform="matrix(1,0,0,1,223.644,122.956)">
            <path d="M0,-0.94C1.077,-1.224 1.257,-0.515 1.355,0.284C0.903,-0.124 0.452,-0.532 0,-0.94" style="fill:rgb(6,6,6);fill-rule:nonzero;"/>
        </g>
        <g transform="matrix(1,0,0,1,222.279,121.912)">
            <path d="M0,-1.046C0.796,-1.105 1.311,-0.835 1.293,0.059C0.862,-0.309 0.432,-0.678 0,-1.046" style="fill:rgb(6,6,6);fill-rule:nonzero;"/>
        </g>
        <g transform="matrix(1,0,0,1,225.011,114.809)">
            <path d="M0,1.182C-1.156,1.332 -0.974,0.54 -0.935,-0.15L0,1.182Z" style="fill:rgb(6,6,6);fill-rule:nonzero;"/>
        </g>
        <g transform="matrix(1,0,0,1,181.04,85.5433)">
            <path d="M0,-1.007C0.762,-1.062 1.154,-0.702 1.194,0.055C0.796,-0.299 0.398,-0.653 0,-1.007" style="fill:rgb(15,15,15);fill-rule:nonzero;"/>
        </g>
        <g transform="matrix(1,0,0,1,214.046,113.906)">
            <path d="M0,-0.307C0.153,-0.463 0.307,-0.619 0.46,-0.774C0.606,-0.36 0.754,0.053 0.9,0.467C0.6,0.209 0.3,-0.049 0,-0.307" style="fill:rgb(15,15,15);fill-rule:nonzero;"/>
        </g>
        <g transform="matrix(1,0,0,1,199.7,101.9)">
            <path d="M0,-0.939C0.777,-1.033 1.187,-0.711 1.172,0.094C0.781,-0.25 0.391,-0.595 0,-0.939" style="fill:rgb(15,15,15);fill-rule:nonzero;"/>
        </g>
        <g transform="matrix(0.738266,0.67451,0.67451,-0.738266,170.845,76.4555)">
            <path d="M0.502,-0.166C0.418,0.266 0.335,0.699 0.251,1.132L0.502,1.214L0.954,0.72C0.803,0.424 0.652,0.129 0.502,-0.166" style="fill:rgb(15,15,15);fill-rule:nonzero;"/>
        </g>
        <g transform="matrix(-0.553398,0.832917,0.832917,0.553398,228.086,119.625)">
            <path d="M0.671,-0.675C0.515,-0.664 0.359,-0.653 0.202,-0.642L0.671,0.567C0.673,0.152 0.672,-0.261 0.673,-0.675L0.671,-0.675Z" style="fill:rgb(6,6,6);fill-rule:nonzero;"/>
        </g>
        <g transform="matrix(1,0,0,1,220.491,108.814)">
            <path d="M0,0.734C-1.186,1.045 -0.77,0.235 -0.73,-0.311C-0.487,0.037 -0.243,0.386 0,0.734" style="fill:rgb(6,6,6);fill-rule:nonzero;"/>
        </g>
        <g transform="matrix(1,0,0,1,217.059,117.067)">
            <path d="M0,-0.826C0.728,-0.937 1.142,-0.702 1.029,0.111C0.686,-0.201 0.343,-0.514 0,-0.826" style="fill:rgb(15,15,15);fill-rule:nonzero;"/>
        </g>
        <g transform="matrix(1,0,0,1,202.738,104.553)">
            <path d="M0,-0.906C0.342,-0.604 0.683,-0.302 1.023,0C0.683,-0.302 0.342,-0.604 0,-0.906" style="fill:rgb(15,15,15);fill-rule:nonzero;"/>
        </g>
        <g transform="matrix(1,0,0,1,195.381,97.9482)">
            <path d="M0,-0.785C0.62,-0.845 1.03,-0.672 0.936,0.06C0.624,-0.222 0.312,-0.503 0,-0.785" style="fill:rgb(15,15,15);fill-rule:nonzero;"/>
        </g>
        <g transform="matrix(1,0,0,1,221.185,109.681)">
            <path d="M0,0.823C-0.706,0.885 -1.098,0.718 -0.64,-0.062C-0.427,0.233 -0.213,0.528 0,0.823" style="fill:rgb(6,6,6);fill-rule:nonzero;"/>
        </g>
        <g transform="matrix(1,0,0,1,218.563,117.633)">
            <path d="M0,-0.062L0.562,-0.351C0.519,-0.138 0.475,0.076 0.431,0.289C0.287,0.172 0.144,0.055 0,-0.062" style="fill:rgb(6,6,6);fill-rule:nonzero;"/>
        </g>
        <g transform="matrix(1,0,0,1,214.932,115.059)">
            <path d="M0,-0.697C0.255,-0.465 0.51,-0.232 0.766,0C0.51,-0.232 0.255,-0.465 0,-0.697" style="fill:rgb(15,15,15);fill-rule:nonzero;"/>
        </g>
        <g transform="matrix(1,0,0,1,186.709,90.1454)">
            <path d="M0,-0.617C0.556,-0.708 0.896,-0.549 0.82,0.091C0.547,-0.144 0.273,-0.381 0,-0.617" style="fill:rgb(15,15,15);fill-rule:nonzero;"/>
        </g>
        <g transform="matrix(1,0,0,1,219.247,118.849)">
            <path d="M0,-0.696C0.25,-0.464 0.5,-0.232 0.749,0C0.5,-0.232 0.25,-0.464 0,-0.696" style="fill:rgb(15,15,15);fill-rule:nonzero;"/>
        </g>
        <g transform="matrix(1,0,0,1,205.407,106.662)">
            <path d="M0,-0.681C0.252,-0.454 0.503,-0.227 0.754,0C0.503,-0.227 0.252,-0.454 0,-0.681" style="fill:rgb(15,15,15);fill-rule:nonzero;"/>
        </g>
        <g transform="matrix(1,0,0,1,188.914,92.1427)">
            <path d="M0,-0.708C0.256,-0.472 0.513,-0.236 0.77,0C0.513,-0.236 0.256,-0.472 0,-0.708" style="fill:rgb(15,15,15);fill-rule:nonzero;"/>
        </g>
        <g transform="matrix(1,0,0,1,197.035,99.0795)">
            <path d="M0,-0.47L0.839,-0.47C0.717,-0.291 0.618,-0.146 0.519,0C0.346,-0.157 0.173,-0.314 0,-0.47" style="fill:rgb(15,15,15);fill-rule:nonzero;"/>
        </g>
        <g transform="matrix(1,0,0,1,202.114,103.66)">
            <path d="M0,-0.561C0.212,-0.374 0.424,-0.187 0.636,0C0.424,-0.187 0.212,-0.374 0,-0.561" style="fill:rgb(15,15,15);fill-rule:nonzero;"/>
        </g>
        <g transform="matrix(1,0,0,1,206.445,107.465)">
            <path d="M0,-0.558L0.656,0L0,-0.558Z" style="fill:rgb(15,15,15);fill-rule:nonzero;"/>
        </g>
        <g transform="matrix(1,0,0,1,196.482,98.6232)">
            <path d="M0,-0.499C0.188,-0.332 0.377,-0.166 0.566,0C0.377,-0.166 0.188,-0.332 0,-0.499" style="fill:rgb(15,15,15);fill-rule:nonzero;"/>
        </g>
        <g transform="matrix(1,0,0,1,207.553,108.337)">
            <path d="M0,-0.456C0.17,-0.304 0.341,-0.152 0.511,0C0.341,-0.152 0.17,-0.304 0,-0.456" style="fill:rgb(15,15,15);fill-rule:nonzero;"/>
        </g>
        <g transform="matrix(1,0,0,1,210.579,111.037)">
            <path d="M0,-0.512C0.187,-0.342 0.376,-0.171 0.563,0C0.376,-0.171 0.187,-0.342 0,-0.512" style="fill:rgb(15,15,15);fill-rule:nonzero;"/>
        </g>
        <g transform="matrix(1,0,0,1,175.347,79.8255)">
            <path d="M0,-0.571C0.16,-0.381 0.321,-0.19 0.481,0C0.321,-0.19 0.16,-0.381 0,-0.571" style="fill:rgb(15,15,15);fill-rule:nonzero;"/>
        </g>
        <g transform="matrix(1,0,0,1,174.879,79.2662)">
            <path d="M0,-0.499C0.159,-0.333 0.317,-0.166 0.477,0C0.317,-0.166 0.159,-0.333 0,-0.499" style="fill:rgb(15,15,15);fill-rule:nonzero;"/>
        </g>
        <g transform="matrix(1,0,0,1,201.075,102.649)">
            <path d="M0,-0.472C0.179,-0.315 0.358,-0.158 0.537,0C0.358,-0.158 0.179,-0.315 0,-0.472" style="fill:rgb(15,15,15);fill-rule:nonzero;"/>
        </g>
        <g transform="matrix(1,0,0,1,176.686,81.199)">
            <path d="M0,-0.486C0.187,-0.324 0.373,-0.162 0.559,0C0.373,-0.162 0.187,-0.324 0,-0.486" style="fill:rgb(15,15,15);fill-rule:nonzero;"/>
        </g>
        <g transform="matrix(1,0,0,1,187.522,90.6861)">
            <path d="M0,-0.456C0.167,-0.304 0.334,-0.152 0.5,0C0.334,-0.152 0.167,-0.304 0,-0.456" style="fill:rgb(15,15,15);fill-rule:nonzero;"/>
        </g>
        <g transform="matrix(1,0,0,1,185.109,88.5747)">
            <path d="M0,-0.472C0.171,-0.314 0.342,-0.157 0.513,0C0.342,-0.157 0.171,-0.314 0,-0.472" style="fill:rgb(15,15,15);fill-rule:nonzero;"/>
        </g>
        <g transform="matrix(1,0,0,1,182.489,85.7673)">
            <path d="M0,0.061C0.134,-0.004 0.267,-0.07 0.4,-0.136C0.321,-0.025 0.243,0.086 0.165,0.197C0.11,0.151 0.056,0.106 0,0.061" style="fill:rgb(15,15,15);fill-rule:nonzero;"/>
        </g>
        <g transform="matrix(1,0,0,1,135.302,123.328)">
            <path d="M0,-42.575C0.888,-43.053 1.576,-43.599 2.354,-43.802C3.436,-44.082 4.548,-43.01 4.315,-41.917C3.378,-37.514 3.783,-33.048 3.623,-28.61C3.544,-26.413 2.787,-24.734 1.078,-23.24C-0.357,-21.985 -1.49,-20.323 -2.511,-18.687C-2.864,-18.121 -2.712,-16.987 -2.394,-16.296C-0.971,-13.214 -1.127,-9.964 -1.15,-6.718C-1.154,-6.125 -1.331,-5.532 -1.324,-4.94C-1.296,-2.653 -2.096,-0.718 -3.513,1.07C-4.317,2.085 -4.533,3.297 -3.908,4.635C-2.978,6.629 -3.433,8.401 -5.157,9.794C-7.466,11.658 -9.653,13.784 -12.23,15.168C-14.397,16.332 -17.014,16.783 -19.489,17.217C-24.443,18.088 -28.76,16.061 -33.111,14.016C-38.268,11.593 -42.696,8.264 -46.602,4.177C-47.229,3.522 -47.798,2.798 -48.313,2.05C-51.903,-3.153 -54.949,-8.671 -57.708,-14.347C-58.331,-15.628 -58.879,-16.97 -59.249,-18.341C-59.732,-20.133 -60.803,-21.486 -61.932,-22.888C-62.968,-24.174 -63.715,-25.69 -64.627,-27.081C-65.257,-28.042 -64.921,-28.871 -64.404,-29.719C-63.458,-31.269 -62.503,-32.814 -61.599,-34.388C-60.878,-35.644 -59.208,-35.811 -57.815,-34.706C-57.541,-34.489 -57.292,-34.238 -56.845,-33.833C-56.575,-34.352 -56.212,-34.749 -56.173,-35.176C-55.905,-38.052 -54.493,-40.058 -52.023,-41.583C-49.646,-43.051 -47.335,-44.647 -45.075,-46.322C-43.193,-47.716 -41.393,-49.327 -39.351,-50.45C-37.36,-51.545 -36.571,-52.985 -36.521,-55.101C-36.499,-56.011 -36.384,-56.929 -36.201,-57.822C-35.842,-59.578 -33.245,-60.663 -31.828,-59.543C-29.752,-57.902 -27.858,-56.032 -25.805,-54.359C-24.179,-53.034 -22.5,-51.744 -20.702,-50.679C-20.004,-50.264 -18.917,-50.509 -18.008,-50.45C-17.178,-50.395 -16.341,-50.387 -15.521,-50.264C-14.355,-50.09 -13.531,-49.519 -13.071,-48.317C-12.743,-47.456 -12.135,-46.672 -11.532,-45.955C-10.278,-44.465 -10.035,-40.946 -11.324,-39.594C-11.822,-39.072 -12.722,-38.662 -13.437,-38.664C-17.452,-38.674 -21.291,-37.756 -25.129,-36.738C-28.506,-35.841 -31.906,-35.027 -35.292,-34.162C-35.672,-34.066 -36.111,-33.963 -36.381,-33.712C-37.844,-32.349 -39.747,-32.024 -41.526,-31.369C-43.005,-30.825 -44.434,-30.098 -45.805,-29.313C-48.721,-27.644 -51.682,-27.936 -54.14,-30.266C-54.237,-30.359 -54.214,-30.578 -54.247,-30.738C-54.37,-30.654 -54.493,-30.57 -54.616,-30.485C-54.616,-30.287 -54.68,-30.061 -54.606,-29.896C-52.456,-25.054 -50.131,-20.313 -49.593,-14.885C-49.068,-9.585 -46.39,-5.124 -42.718,-1.447C-39.624,1.651 -36.266,4.594 -32.63,7.013C-28.439,9.802 -23.548,11.08 -18.46,10.711C-16.997,10.604 -15.597,9.521 -14.193,8.834C-14.013,8.746 -13.985,8.343 -13.791,7.838C-15.083,7.692 -16.277,7.483 -17.476,7.44C-20.372,7.335 -23.313,7.593 -26.153,7.161C-28.606,6.788 -31.13,6.086 -33.036,4.2C-33.289,3.949 -33.55,3.693 -33.847,3.5C-36.105,2.034 -37.266,0.045 -37.577,-2.709C-37.695,-3.762 -39.045,-4.748 -39.968,-5.622C-42.082,-7.625 -44.633,-9.277 -46.329,-11.573C-47.72,-13.455 -48.132,-16.06 -49.104,-18.682C-47.851,-18.767 -47.01,-18.89 -46.18,-18.841C-45.908,-18.825 -45.532,-18.403 -45.429,-18.092C-44.912,-16.54 -43.873,-15.514 -42.506,-14.664C-41.8,-14.225 -41.355,-13.387 -40.712,-12.822C-39.743,-11.971 -38.722,-11.175 -37.688,-10.402C-33.874,-7.548 -29.377,-7.261 -24.87,-7.093C-24.229,-7.069 -23.576,-7.393 -22.912,-7.8C-25.243,-8.45 -27.599,-9.024 -29.896,-9.776C-31.467,-10.29 -33.01,-10.951 -34.464,-11.734C-35.546,-12.317 -35.816,-14.347 -35.246,-15.489C-34.279,-17.425 -32.571,-18.316 -30.592,-18.603C-29.052,-18.826 -28,-19.338 -27.254,-20.813C-26.245,-22.811 -24.078,-22.944 -22.47,-21.384C-21.507,-20.449 -20.407,-19.654 -19.378,-18.785C-17.836,-17.483 -16.938,-15.773 -16.387,-13.874C-16.277,-13.495 -16.339,-13.008 -16.476,-12.627C-16.847,-11.594 -17.301,-10.591 -17.731,-9.554C-15.747,-9.872 -14.715,-11.224 -14.916,-13.395C-15.108,-15.469 -15.647,-17.428 -16.912,-19.174C-18.168,-20.908 -19.237,-22.778 -20.453,-24.543C-20.848,-25.117 -21.42,-25.581 -21.957,-26.041C-23.105,-27.026 -23.579,-28.193 -23.092,-29.38C-22.607,-30.56 -21.54,-30.646 -20.408,-30.658C-19.126,-30.671 -18.113,-30.302 -17.257,-29.307C-16.75,-28.718 -16.02,-28.325 -15.421,-27.807C-14.166,-26.723 -12.834,-25.703 -11.721,-24.486C-10.99,-23.685 -10.262,-23.378 -9.047,-23.505C-8.967,-25.077 -9.014,-26.669 -8.773,-28.216C-8.51,-29.912 -7.937,-31.558 -7.593,-33.245C-7.479,-33.802 -7.46,-34.532 -7.73,-34.983C-8.393,-36.092 -8.431,-37.189 -8.274,-38.415C-8.179,-39.162 -8.503,-39.953 -8.501,-40.724C-8.496,-42.852 -8.563,-44.998 -8.307,-47.101C-8.185,-48.094 -6.065,-48.005 -5.475,-46.97C-5.154,-46.408 -4.848,-46.103 -4.169,-46.274C-2.035,-46.812 -0.772,-45.94 -0.36,-43.705C-0.282,-43.28 -0.098,-42.874 0,-42.575" style="fill:rgb(250,250,250);fill-rule:nonzero;"/>
        </g>
        <g transform="matrix(1,0,0,1,75.5127,61.4267)">
            <path d="M0,-19.264C-0.439,-18.852 -0.843,-18.549 -1.152,-18.169C-2.212,-16.868 -3.598,-16.071 -5.222,-15.949C-6.418,-15.859 -7.641,-16.201 -8.856,-16.268C-9.253,-16.291 -9.664,-16.055 -10.069,-15.937C-9.821,-15.572 -9.599,-15.184 -9.312,-14.852C-9.202,-14.724 -8.949,-14.679 -8.756,-14.668C-7.175,-14.574 -5.579,-14.331 -4.013,-14.453C-1.849,-14.621 0.213,-17.142 0,-19.264M3.132,-21.559C2.948,-22.275 2.967,-22.792 2.72,-23.069C1.033,-24.952 -0.593,-26.915 -2.464,-28.601C-4.632,-30.556 -7.346,-30.887 -10.156,-30.354C-10.483,-30.292 -10.948,-29.951 -10.996,-29.678C-11.056,-29.334 -10.857,-28.815 -10.589,-28.565C-9.432,-27.484 -8.222,-26.457 -7.004,-25.441C-6.065,-24.658 -5.983,-23.953 -6.926,-23.268C-7.488,-22.861 -8.172,-22.615 -8.817,-22.332C-9.716,-21.938 -10.649,-21.621 -11.53,-21.193C-12.375,-20.782 -12.49,-20.143 -11.908,-19.394C-6.584,-21.364 -8.053,-21.631 -1.94,-21.191C-0.354,-21.077 1.266,-21.41 3.132,-21.559M-20.852,8.635C-20.189,7.979 -19.397,7.405 -18.907,6.638C-18.551,6.081 -18.5,5.269 -18.498,4.57C-18.498,4.193 -18.829,3.763 -19.109,3.445C-21.959,0.218 -23.024,-3.56 -22.666,-7.801C-22.596,-8.631 -22.488,-9.495 -22.643,-10.295C-22.757,-10.88 -23.166,-11.641 -23.647,-11.847C-24.026,-12.01 -24.978,-11.597 -25.22,-11.177C-26.045,-9.746 -26.694,-8.21 -27.343,-6.686C-27.456,-6.423 -27.25,-6.021 -27.186,-5.685C-26.993,-4.672 -26.72,-3.666 -26.643,-2.645C-26.614,-2.264 -26.954,-1.645 -27.282,-1.508C-27.605,-1.372 -28.243,-1.584 -28.537,-1.861C-29.137,-2.426 -29.629,-3.116 -30.107,-3.795C-30.448,-4.279 -30.662,-4.852 -30.99,-5.348C-33.069,-8.491 -33.659,-11.949 -33.376,-15.658C-33.208,-17.873 -33.311,-20.109 -33.232,-22.333C-33.206,-23.073 -33.18,-23.911 -32.833,-24.522C-31.387,-27.061 -29.944,-29.621 -28.253,-31.997C-26.975,-33.794 -24.846,-34.351 -22.455,-34.836C-22.455,-34.169 -22.375,-33.573 -22.473,-33.007C-22.629,-32.111 -22.932,-31.242 -23.12,-30.351C-23.324,-29.383 -22.909,-28.652 -22.104,-28.133C-21.221,-27.563 -20.262,-27.644 -19.572,-28.316C-18.767,-29.101 -17.819,-30.008 -17.55,-31.025C-16.667,-34.373 -14.172,-34.538 -11.361,-34.574C-10.136,-34.589 -8.9,-34.254 -7.684,-34.326C-5.671,-34.446 -4.261,-35.845 -2.858,-37.084C-2.244,-37.626 -1.882,-37.819 -1.164,-37.348C0.528,-36.238 2.246,-35.161 4.005,-34.164C4.457,-33.908 5.121,-33.869 5.656,-33.948C8.422,-34.349 11.175,-34.559 13.917,-33.809C14.071,-33.767 14.26,-33.773 14.374,-33.683C16.609,-31.911 19.377,-31.324 21.922,-30.237C22.373,-30.045 22.674,-29.501 23.071,-29.092C21.798,-28.065 20.836,-28.265 19.839,-29.03C17.111,-31.118 14.092,-32.14 10.609,-31.556C8.84,-31.26 8.389,-30.6 9.041,-28.702C11.219,-29.468 12.658,-27.687 14.457,-27.002C15.492,-26.607 15.379,-25.496 14.222,-24.865C13.433,-24.434 12.538,-24.189 11.676,-23.903C11.006,-23.68 10.315,-23.521 9.584,-23.32C9.629,-22.127 10.515,-21.639 11.271,-21.303C12.225,-20.878 13.313,-20.712 14.362,-20.556C16.123,-20.292 17.955,-20.335 19.654,-19.87C22.524,-19.084 25.406,-19.043 28.282,-19.392C32.201,-19.868 35.866,-18.787 39.522,-17.782C42.927,-16.845 44.804,-13.85 44.485,-10.442C44.455,-10.118 44.213,-9.805 44.037,-9.506C43.173,-8.046 42.679,-6.543 43.439,-4.875C43.75,-4.195 44.012,-3.427 43.261,-2.959C42.847,-2.702 42.156,-2.695 41.647,-2.815C39.219,-3.387 36.876,-3.386 34.559,-2.295C33.833,-1.953 32.958,-1.804 32.146,-1.789C28.654,-1.727 25.149,-1.576 21.67,-1.799C19.445,-1.942 17.243,-2.62 15.06,-3.175C12.868,-3.733 10.728,-4.888 8.537,-4.964C5.459,-5.071 2.245,-5.205 -0.69,-3.742C-1.321,-3.428 -1.991,-3.099 -2.674,-3.004C-4.49,-2.749 -5.635,-3.902 -5.521,-5.772C-5.473,-6.565 -5.331,-7.353 -5.303,-8.146C-5.292,-8.444 -5.422,-8.958 -5.593,-9.008C-6.002,-9.125 -6.635,-9.211 -6.895,-8.984C-9.05,-7.113 -10.199,-4.76 -10.017,-1.847C-9.92,-0.301 -9.882,1.252 -9.7,2.787C-9.32,5.993 -10.342,8.857 -11.964,11.479C-13.268,13.589 -14.832,15.554 -16.438,17.449C-16.944,18.047 -17.938,18.396 -18.754,18.5C-19.19,18.555 -19.77,17.894 -20.201,17.469C-20.683,16.994 -21,16.342 -21.508,15.906C-24.585,13.261 -28.552,12.543 -32.16,11.042C-32.585,10.864 -33.014,10.613 -33.34,10.294C-33.957,9.692 -33.644,8.613 -32.789,8.534C-31.113,8.378 -29.488,7.53 -27.744,8.159C-27.475,8.256 -27.116,8.142 -26.807,8.081C-25.292,7.786 -23.824,7.774 -22.391,8.506C-21.885,8.765 -21.262,8.796 -20.693,8.931C-20.746,8.833 -20.799,8.734 -20.852,8.635" style="fill:rgb(251,251,251);fill-rule:nonzero;"/>
        </g>
        <g transform="matrix(1,0,0,1,175.173,52.9376)">
            <path d="M0,24.271C-0.164,24.13 -0.327,23.99 -0.49,23.849C-0.828,23.553 -1.165,23.258 -1.502,22.962C-1.79,22.793 -2.077,22.625 -2.365,22.456C-2.573,22.207 -2.782,21.958 -2.99,21.708C-3.269,21.463 -3.548,21.218 -3.826,20.974C-5.009,19.801 -6.13,18.559 -7.384,17.468C-11.261,14.093 -13.97,9.987 -15.354,5.031C-15.66,3.933 -15.854,2.801 -16.082,1.681C-16.233,0.937 -15.813,0.545 -15.153,0.429C-13.52,0.143 -11.947,-0.03 -10.231,0.412C-6.121,1.47 -1.937,2.243 2.221,3.122C6.958,4.122 11.699,5.101 16.434,6.112C17.97,6.44 18.578,5.92 18.223,4.313C17.872,2.726 17.332,1.182 16.903,-0.389C16.612,-1.458 16.33,-2.531 16.112,-3.617C15.292,-7.713 14.284,-11.739 12.64,-15.611C11.761,-17.683 11.252,-19.917 10.637,-22.094C9.722,-25.336 8.857,-28.593 7.981,-31.846C7.883,-32.211 7.853,-32.595 8.015,-33.084C8.512,-32.437 9.146,-31.854 9.485,-31.131C14.204,-21.091 20.782,-12.168 26.512,-2.736C30.72,4.192 35.059,11.041 39.286,17.958C39.902,18.965 40.227,20.153 40.686,21.257C40.577,21.359 40.47,21.461 40.361,21.563C38.315,21.182 36.259,20.852 34.227,20.411C29.49,19.384 24.758,18.336 20.04,17.225C18.698,16.909 17.44,16.211 16.094,15.95C15.27,15.789 14.315,16.022 13.489,16.292C13.191,16.389 12.87,17.157 12.952,17.533C13.15,18.44 13.432,19.397 13.94,20.16C20.905,30.607 27.975,40.982 36.022,50.646C36.374,51.068 36.774,51.45 37.151,51.851C37.31,52.038 37.468,52.224 37.625,52.41C37.947,52.78 38.269,53.149 38.59,53.519C38.896,53.893 39.203,54.268 39.51,54.643L39.558,54.703C39.791,54.965 40.024,55.228 40.259,55.49C40.3,55.564 40.341,55.637 40.382,55.71C40.513,56.259 40.644,56.807 40.774,57.355C38.788,56.137 36.802,54.919 34.816,53.702C34.732,53.637 34.649,53.572 34.566,53.506C34.17,53.188 33.772,52.869 33.376,52.55C33.139,52.366 32.9,52.181 32.662,51.996C31.727,51.169 30.791,50.343 29.854,49.517C29.61,49.293 29.365,49.069 29.12,48.845C27.735,47.541 26.352,46.237 24.968,44.933C24.753,44.731 24.538,44.53 24.323,44.328C24.192,44.269 24.062,44.21 23.931,44.151L23.918,44.131C23.747,43.908 23.576,43.684 23.404,43.461C23.147,43.219 22.89,42.976 22.632,42.733C22.152,42.269 21.672,41.804 21.191,41.339C20.961,41.145 20.73,40.951 20.5,40.757C20.439,40.708 20.378,40.659 20.317,40.61C20.108,40.433 19.9,40.256 19.691,40.079C19.245,39.701 18.798,39.322 18.351,38.944C18.12,38.757 17.889,38.571 17.658,38.385C17.212,38 16.767,37.616 16.32,37.231C16.131,37.07 15.94,36.909 15.751,36.748L15.764,36.761C15.593,36.6 15.422,36.438 15.252,36.277C14.148,35.252 13.046,34.227 11.943,33.201C11.772,33.037 11.601,32.873 11.429,32.709C11.106,32.402 10.784,32.096 10.463,31.79C10.228,31.619 9.993,31.449 9.758,31.278C8.733,30.542 7.708,29.805 6.684,29.069C6.43,28.883 6.176,28.698 5.922,28.513C3.948,27.099 1.974,25.685 0,24.271" style="fill:rgb(250,250,250);fill-rule:nonzero;"/>
        </g>
        <g transform="matrix(1,0,0,1,90.2051,150.382)">
            <path d="M0,13.654C2.324,13.216 3.334,14.216 2.942,16.379C2.836,16.959 2.789,17.566 2.576,18.106C2.383,18.596 2.002,19.012 1.624,19.583C2.854,19.614 3.842,19.568 4.583,18.651C4.8,18.382 5.123,18.183 5.424,17.999C6.509,17.333 6.428,16.846 5.815,15.723C5.016,14.258 4.502,12.632 3.95,11.045C3.871,10.815 4.186,10.314 4.451,10.126C5.224,9.574 6.106,9.172 6.862,8.599C7.292,8.275 7.828,7.721 7.811,7.293C7.795,6.935 7.094,6.469 6.608,6.291C4.235,5.419 2.757,3.699 1.853,1.428C1.441,0.398 1.177,-0.691 0.788,-1.731C0.08,-3.62 -0.68,-5.492 -1.401,-7.376C-1.698,-8.151 -2.042,-8.923 -2.203,-9.728C-2.565,-11.544 -1.816,-13.149 -0.275,-14.105C0.554,-14.619 2.711,-14.236 3.522,-13.524C4.042,-13.068 4.648,-12.495 5.273,-12.414C7.907,-12.073 9.107,-10.2 9.803,-8.058C11.33,-3.354 12.644,1.421 14.025,6.173C14.179,6.7 14.257,7.263 14.277,7.814C14.43,12.141 14.568,16.469 14.69,20.798C14.712,21.591 14.563,22.395 13.531,22.378C12.638,22.363 12.412,21.703 12.362,20.904C12.268,19.357 12.082,17.816 11.998,16.269C11.918,14.788 11.479,13.481 10.395,12.387C9.635,12.563 9.434,13.046 9.576,13.787C9.687,14.371 9.769,14.967 9.777,15.56C9.792,16.521 9.6,17.295 8.727,18.028C8.029,18.615 7.544,19.758 7.456,20.702C7.277,22.6 6.456,23.945 4.814,24.783C3.12,25.647 1.419,26.533 -0.359,27.189C-1.479,27.602 -2.743,27.675 -3.953,27.787C-5.65,27.943 -7.358,27.983 -9.06,28.092C-11.937,28.273 -14.597,27.651 -15.952,24.925C-16.625,23.573 -16.577,21.79 -16.571,20.203C-16.567,19.279 -16.008,18.355 -15.685,17.436C-14.684,14.582 -12.505,12.569 -10.621,10.343C-9.572,9.103 -8.364,7.952 -7.556,6.569C-6.864,5.386 -6.265,4.174 -4.988,3.637C-4.256,3.33 -3.228,3.143 -2.555,3.427C-1.74,3.771 -1.029,4.616 -1.214,5.731C-1.383,6.745 -1.583,7.757 -1.828,8.755C-2.024,9.557 -2.198,10.21 -1.212,10.723C-0.15,11.277 0.328,12.28 0,13.654" style="fill:rgb(249,249,249);fill-rule:nonzero;"/>
        </g>
        <g transform="matrix(1,0,0,1,30.0522,109.44)">
            <path d="M0,16.883C-2.626,16.783 -4.621,17.05 -6.452,15.941C-7.659,15.21 -8.542,13.305 -8.156,11.953C-7.285,8.894 -5.471,6.616 -2.925,4.685C-0.117,2.553 2.985,1.152 6.287,0.168C7.41,-0.167 8.729,0.124 9.957,0.172C11.695,0.238 13.432,0.375 15.172,0.426C18.239,0.517 20.856,1.822 23.234,3.577C23.741,3.95 24.048,5.206 23.827,5.838C23.269,7.43 22.475,8.973 21.56,10.398C20.243,12.451 18.096,13.369 15.819,13.902C11.841,14.833 7.852,15.728 3.845,16.53C2.377,16.824 0.847,16.811 0,16.883" style="fill:rgb(251,251,251);fill-rule:nonzero;"/>
        </g>
        <g transform="matrix(1,0,0,1,58.062,143.889)">
            <path d="M0,-3.2C1.053,-4.008 2.117,-4.804 3.156,-5.63C3.652,-6.023 4.138,-6.442 4.568,-6.905C5.227,-7.614 5.932,-8.31 6.441,-9.123C7.273,-10.448 8.608,-11.103 9.793,-10.475C10.251,-10.232 10.64,-9.764 10.928,-9.314C11.949,-7.721 12.949,-6.113 13.887,-4.471C14.638,-3.154 13.908,-2.13 13.057,-1.177C12.799,-0.887 12.532,-0.607 12.495,-0.566C13.053,0.435 13.784,1.236 13.945,2.138C14.307,4.171 13.769,6.14 12.467,7.738C11.662,8.724 10.64,9.64 9.53,10.248C7.449,11.388 5.264,12.361 3.055,13.234C2.264,13.546 1.267,13.474 0.391,13.365C0.057,13.323 -0.443,12.679 -0.431,12.324C-0.417,11.952 0.083,11.332 0.434,11.283C1.934,11.075 2.984,10.241 3.888,9.145C5.931,6.667 7.958,4.177 10.028,1.648C9.071,0.955 8.174,0.69 7.177,1.189C5.646,1.954 4.011,2.236 2.331,2.106C0.475,1.961 -1.394,1.807 -3.217,1.451C-5.101,1.084 -5.388,0.068 -4.187,-1.388C-3.963,-1.661 -3.71,-1.91 -3.32,-2.333C-4.169,-2.515 -4.868,-2.691 -5.576,-2.813C-10.541,-3.675 -12.863,-7.221 -14.332,-11.55C-14.596,-12.327 -14.49,-13.309 -14.307,-14.142C-13.906,-15.972 -12.43,-16.746 -10.79,-15.849C-9.422,-15.102 -8.241,-14.006 -7.009,-13.024C-6.612,-12.707 -6.389,-12.117 -5.96,-11.901C-2.773,-10.296 -1.812,-7.165 -0.584,-4.209C-0.494,-3.989 -0.422,-3.762 -0.335,-3.54C-0.323,-3.508 -0.279,-3.487 -0.249,-3.461L0,-3.2Z" style="fill:rgb(247,247,247);fill-rule:nonzero;"/>
        </g>
        <g transform="matrix(1,0,0,1,162.404,132.993)">
            <path d="M0,8.338C0,11.516 0.006,14.694 -0.004,17.872C-0.006,18.676 -0.029,19.675 -1.011,19.735C-1.604,19.773 -2.289,19.188 -2.842,18.763C-3.157,18.52 -3.336,18.057 -3.499,17.66C-5.383,13.07 -7,8.349 -9.205,3.92C-11.008,0.302 -12.924,-3.352 -15.896,-6.268C-16.794,-7.149 -17.621,-8.143 -18.291,-9.205C-19.151,-10.567 -18.62,-11.435 -17.008,-11.429C-12.957,-11.414 -8.905,-11.379 -4.856,-11.277C-4.402,-11.266 -3.761,-10.879 -3.553,-10.484C-3.003,-9.439 -2.639,-8.296 -2.212,-7.187C-1.575,-5.535 -0.94,-3.882 -0.328,-2.22C-0.209,-1.898 -0.146,-1.538 -0.145,-1.196C-0.132,1.982 -0.137,5.16 -0.137,8.338L0,8.338Z" style="fill:rgb(249,249,249);fill-rule:nonzero;"/>
        </g>
        <g transform="matrix(1,0,0,1,152.966,102.004)">
            <path d="M0,0.454C0.298,-1.012 0.582,-2.407 0.867,-3.803C1.157,-5.229 1.344,-6.688 1.783,-8.066C2.001,-8.749 2.563,-9.497 3.178,-9.849C5.936,-11.426 9.459,-9.557 9.706,-6.382C9.829,-4.815 10.418,-3.511 11.151,-2.166C11.941,-0.715 12.585,0.841 13.083,2.418C13.496,3.726 13.025,4.984 12.224,6.1C11.346,7.321 10.557,8.609 9.615,9.778C9.089,10.431 8.393,10.998 7.667,11.427C6.899,11.88 6.19,11.605 5.583,10.896C4.021,9.073 2.736,7.105 1.905,4.831C1.584,3.951 0.945,3.192 0.548,2.333C0.278,1.748 0.177,1.084 0,0.454" style="fill:rgb(249,249,249);fill-rule:nonzero;"/>
        </g>
        <g transform="matrix(1,0,0,1,64.1782,116.353)">
            <path d="M0,-15.917C0.303,-18.407 1.666,-20.029 3.633,-19.805C4.33,-19.726 5.193,-19.264 5.582,-18.701C6.451,-17.442 7.077,-16.013 7.79,-14.646C8.557,-13.176 9.311,-11.699 10.07,-10.225C11.157,-8.113 12.26,-6.008 13.327,-3.886C14.02,-2.506 14.674,-1.106 15.321,0.296C15.636,0.977 16.01,1.665 16.135,2.388C16.217,2.86 16.054,3.593 15.721,3.858C15.402,4.112 14.71,3.978 14.206,3.888C13.878,3.829 13.525,3.602 13.295,3.349C11.125,0.95 8.539,-1.036 6.942,-4.002C5.333,-6.992 3.246,-9.723 1.458,-12.623C0.834,-13.636 0.479,-14.814 0,-15.917" style="fill:rgb(247,247,247);fill-rule:nonzero;"/>
        </g>
        <g transform="matrix(1,0,0,1,45.0542,147.733)">
            <path d="M0,2.568C-0.899,1.319 -2.219,1.332 -3.459,1.423C-5.218,1.553 -6.286,0.701 -7.125,-0.684C-7.654,-1.558 -7.471,-2.197 -6.536,-2.56C-4.656,-3.288 -2.847,-3.396 -1.17,-1.976C0.023,-0.965 1.488,-0.639 2.968,-0.16C5.661,0.712 8.317,-0.084 10.959,0.319C11.777,0.444 12.662,0.043 13.512,0.065C14.23,0.085 14.963,0.239 15.18,1.221C15.411,2.27 14.807,2.687 14.061,3.03C12.555,3.721 11.048,4.418 9.504,5.015C8.818,5.282 8.042,5.312 7.308,5.455C6.459,5.62 5.614,5.915 4.763,5.932C3.166,5.964 1.545,5.963 -0.027,5.725C-0.905,5.592 -1.136,4.531 -0.68,3.7C-0.473,3.321 -0.236,2.959 0,2.568" style="fill:rgb(245,245,245);fill-rule:nonzero;"/>
        </g>
        <g transform="matrix(1,0,0,1,42.9624,84.6401)">
            <path d="M0,-8.909C0.919,-8.716 1.867,-8.607 2.753,-8.312C5.046,-7.55 7.314,-6.712 9.588,-5.891C9.996,-5.744 10.417,-5.587 10.769,-5.344C11.591,-4.775 12.208,-4.018 12.006,-2.955C11.817,-1.967 10.996,-1.6 10.097,-1.405C8.4,-1.037 6.717,-0.557 5.002,-0.329C2.524,0 -0.648,-0.867 -1.789,-3.579C-2.031,-4.156 -2.53,-4.626 -2.764,-5.204C-3.026,-5.853 -3.45,-6.734 -3.208,-7.215C-2.891,-7.846 -2.027,-8.25 -1.328,-8.619C-0.978,-8.804 -0.472,-8.694 -0.037,-8.718C-0.024,-8.782 -0.012,-8.845 0,-8.909" style="fill:rgb(247,247,247);fill-rule:nonzero;"/>
        </g>
        <g transform="matrix(1,0,0,1,132.619,53.1474)">
            <path d="M0,1.548C-0.161,3.059 -0.572,4.402 -1.853,5.091C-3.199,5.815 -4.709,5.783 -6.055,4.905C-7.25,4.125 -8.431,3.314 -9.556,2.436C-11.089,1.239 -11.288,0.047 -10.403,-1.889C-9.671,-3.488 -8.335,-4.267 -6.649,-3.96C-4.247,-3.522 -2.279,-2.301 -0.814,-0.356C-0.411,0.18 -0.265,0.908 0,1.548" style="fill:rgb(247,247,247);fill-rule:nonzero;"/>
        </g>
        <g transform="matrix(-0.0355588,-0.999368,-0.999368,0.0355588,123.03,206.097)">
            <path d="M-1.232,-1.227C-1.709,-0.611 -2.27,-0.196 -2.233,0.154C-2.192,0.532 -1.59,0.849 -1.232,1.191C-0.878,0.741 -0.462,0.322 -0.217,-0.18C-0.163,-0.294 -0.707,-0.699 -1.232,-1.227" style="fill:rgb(224,224,224);fill-rule:nonzero;"/>
        </g>
        <g transform="matrix(1,0,0,1,215.947,109.339)">
            <path d="M0,0.954C-0.131,0.406 -0.262,-0.142 -0.393,-0.69C-0.106,-0.47 0.18,-0.249 0.466,-0.028C0.466,0.051 0.466,0.129 0.464,0.208L0.464,1.644C0.228,1.293 0.113,1.123 0,0.954" style="fill:rgb(15,15,15);fill-rule:nonzero;"/>
        </g>
        <g transform="matrix(1,0,0,1,214.683,106.285)">
            <path d="M0,1.295C-0.307,0.92 -0.613,0.545 -0.92,0.171C-0.654,0.122 -0.389,0.072 0,0L0,1.295Z" style="fill:rgb(6,6,6);fill-rule:nonzero;"/>
        </g>
        <g transform="matrix(1,0,0,1,181.095,82.7198)">
            <path d="M0,-1.269C0.254,-1.084 0.508,-0.899 0.762,-0.713C0.594,-0.535 0.427,-0.356 0.094,0C0.051,-0.591 0.025,-0.93 0,-1.269" style="fill:rgb(15,15,15);fill-rule:nonzero;"/>
        </g>
        <g transform="matrix(-0.902974,0.429696,0.429696,0.902974,205.257,102.801)">
            <path d="M0.433,-1.334C0.308,-1.026 0.183,-0.719 0.059,-0.412C0.183,-0.283 0.308,-0.155 0.433,-0.026C0.534,-0.054 0.633,-0.081 0.734,-0.108C0.633,-0.517 0.533,-0.925 0.433,-1.334" style="fill:rgb(15,15,15);fill-rule:nonzero;"/>
        </g>
        <g transform="matrix(1,0,0,1,172.808,76.0667)">
            <path d="M0,-0.673C0.288,-0.504 0.575,-0.336 0.863,-0.167C0.533,-0.121 0.203,-0.074 -0.323,0C-0.182,-0.295 -0.091,-0.484 0,-0.673" style="fill:rgb(15,15,15);fill-rule:nonzero;"/>
        </g>
        <g transform="matrix(-0.841733,-0.539894,-0.539894,0.841733,194.682,93.7018)">
            <path d="M0.217,-0.675C-0.054,-0.639 -0.325,-0.603 -0.597,-0.566C-0.326,-0.311 -0.054,-0.055 0.217,0.203C0.298,0.16 0.376,0.118 0.456,0.076C0.376,-0.174 0.296,-0.425 0.217,-0.675" style="fill:rgb(15,15,15);fill-rule:nonzero;"/>
        </g>
        <g transform="matrix(-0.531653,-0.846962,-0.846962,0.531653,208.707,106.566)">
            <path d="M-0.446,-0.939C-0.545,-0.975 -0.644,-1.011 -0.744,-1.047L-0.446,0.364L-0.114,0.287C-0.224,-0.121 -0.335,-0.53 -0.446,-0.939" style="fill:rgb(15,15,15);fill-rule:nonzero;"/>
        </g>
        <g transform="matrix(1,0,0,1,192.831,91.9434)">
            <path d="M0,-0.621C0.23,-0.435 0.462,-0.248 0.692,-0.062C0.294,-0.044 -0.104,-0.026 -0.67,0C-0.345,-0.302 -0.173,-0.461 0,-0.621" style="fill:rgb(15,15,15);fill-rule:nonzero;"/>
        </g>
        <g transform="matrix(-0.484182,-0.874968,-0.874968,0.484182,198.303,97.2383)">
            <path d="M-0.257,-0.772C-0.366,-0.528 -0.475,-0.283 -0.584,-0.038C-0.475,-0.01 -0.366,0.015 -0.257,0.041C-0.249,-0.229 -0.242,-0.5 -0.233,-0.772C-0.232,-0.771 -0.257,-0.772 -0.257,-0.772" style="fill:rgb(15,15,15);fill-rule:nonzero;"/>
        </g>
        <g transform="matrix(1,0,0,1,199.496,98.3348)">
            <path d="M0,-1.069L0.645,-0.464C0.451,-0.325 0.259,-0.186 0,0L0,-1.069Z" style="fill:rgb(15,15,15);fill-rule:nonzero;"/>
        </g>
        <g transform="matrix(1,0,0,1,171.347,74.6453)">
            <path d="M0,-0.734C0.278,-0.489 0.558,-0.244 0.836,0C0.558,-0.244 0.278,-0.489 0,-0.734" style="fill:rgb(15,15,15);fill-rule:nonzero;"/>
        </g>
        <g transform="matrix(1,0,0,1,197.805,96.399)">
            <path d="M0,-0.728C0.258,-0.485 0.516,-0.243 0.772,0C0.516,-0.243 0.258,-0.485 0,-0.728" style="fill:rgb(15,15,15);fill-rule:nonzero;"/>
        </g>
        <g transform="matrix(1,0,0,1,215.431,107.641)">
            <path d="M0,0.787C-0.233,0.525 -0.467,0.262 -0.7,0C-0.467,0.262 -0.233,0.525 0,0.787" style="fill:rgb(15,15,15);fill-rule:nonzero;"/>
        </g>
        <g transform="matrix(1,0,0,1,184.931,84.7269)">
            <path d="M0,-0.511C0.235,-0.341 0.47,-0.17 0.705,0C0.47,-0.17 0.235,-0.341 0,-0.511" style="fill:rgb(15,15,15);fill-rule:nonzero;"/>
        </g>
        <g transform="matrix(1,0,0,1,207.835,105.488)">
            <path d="M0,-0.554C0.238,-0.369 0.477,-0.184 0.714,0C0.477,-0.184 0.238,-0.369 0,-0.554" style="fill:rgb(15,15,15);fill-rule:nonzero;"/>
        </g>
        <g transform="matrix(1,0,0,1,195.673,94.2775)">
            <path d="M0,-0.583C0.23,-0.389 0.461,-0.195 0.691,0C0.461,-0.195 0.23,-0.389 0,-0.583" style="fill:rgb(15,15,15);fill-rule:nonzero;"/>
        </g>
        <g transform="matrix(1,0,0,1,190.924,90.1687)">
            <path d="M0,-0.483C0.189,-0.322 0.38,-0.161 0.569,0C0.38,-0.161 0.189,-0.322 0,-0.483" style="fill:rgb(15,15,15);fill-rule:nonzero;"/>
        </g>
        <g transform="matrix(1,0,0,1,212.798,104.789)">
            <path d="M0,0.559C-0.157,0.373 -0.315,0.186 -0.474,0C-0.315,0.186 -0.157,0.373 0,0.559" style="fill:rgb(15,15,15);fill-rule:nonzero;"/>
        </g>
        <g transform="matrix(1,0,0,1,190.425,89.6985)">
            <path d="M0,-0.484C0.17,-0.323 0.341,-0.161 0.512,0C0.341,-0.161 0.17,-0.323 0,-0.484" style="fill:rgb(15,15,15);fill-rule:nonzero;"/>
        </g>
        <g transform="matrix(0.364914,0.931041,0.931041,-0.364914,228.001,123.285)">
            <path d="M0.144,-0.101C0.093,-0.051 0.004,0.001 0.003,0.052C0.003,0.103 0.094,0.194 0.144,0.193C0.196,0.193 0.285,0.103 0.286,0.051C0.286,0.001 0.195,-0.051 0.144,-0.101" style="fill:rgb(6,6,6);fill-rule:nonzero;"/>
        </g>
        <g transform="matrix(1,0,0,1,186.602,86.1396)">
            <path d="M0,-0.493C0.172,-0.329 0.344,-0.165 0.515,0C0.344,-0.165 0.172,-0.329 0,-0.493" style="fill:rgb(15,15,15);fill-rule:nonzero;"/>
        </g>
        <g transform="matrix(-0.972621,0.232396,0.232396,0.972621,194.757,94.6563)">
            <path d="M-0.036,-0.224C-0.066,-0.166 -0.101,-0.116 -0.114,-0.059C-0.119,-0.043 -0.053,0.015 -0.036,0.009C0.024,-0.012 0.077,-0.052 0.132,-0.085C0.076,-0.131 0.021,-0.177 -0.036,-0.224" style="fill:rgb(15,15,15);fill-rule:nonzero;"/>
        </g>
        <g transform="matrix(0,1,1,0,226.492,119.265)">
            <path d="M-0.224,-0.128L0.128,-0.128L0.128,-0.224L-0.224,-0.224L-0.224,-0.128" style="fill:rgb(6,6,6);fill-rule:nonzero;"/>
        </g>
        <g transform="matrix(1,0,0,1,216.411,109.31)">
            <path d="M0,0.237C0.002,0.158 0.002,0.079 0.002,0C0.001,0.079 0.001,0.158 0,0.237" style="fill:rgb(6,6,6);fill-rule:nonzero;"/>
        </g>
        <g transform="matrix(1,0,0,1,205.439,104.114)">
            <path d="M0,-0.054C0.032,-0.036 0.065,-0.018 0.099,0C0.065,-0.018 0.032,-0.036 0,-0.054Z" style="fill:rgb(15,15,15);fill-rule:nonzero;"/>
        </g>
        <g transform="matrix(1,0,0,1,205.439,104.005)">
            <path d="M0,0.055C-0.033,0.037 -0.066,0.019 -0.1,0C-0.066,0.019 -0.033,0.037 0,0.055Z" style="fill:rgb(15,15,15);fill-rule:nonzero;"/>
        </g>
        <g transform="matrix(1,0,0,1,227.151,119.757)">
            <path d="M0,0.055C-0.033,0.036 -0.065,0.018 -0.099,0C-0.065,0.018 -0.032,0.036 0.001,0.054L0,0.055Z" style="fill:rgb(6,6,6);fill-rule:nonzero;"/>
        </g>
        <g transform="matrix(1,0,0,1,78.6445,32.7048)">
            <path d="M0,7.163C-1.866,7.312 -3.485,7.645 -5.072,7.531C-11.185,7.091 -9.716,7.358 -15.04,9.328C-15.622,8.579 -15.507,7.94 -14.662,7.529C-13.781,7.101 -12.848,6.784 -11.949,6.39C-11.304,6.107 -10.62,5.861 -10.058,5.454C-9.115,4.769 -9.197,4.064 -10.136,3.281C-11.354,2.265 -12.563,1.238 -13.721,0.157C-13.989,-0.093 -14.188,-0.612 -14.128,-0.956C-14.08,-1.229 -13.615,-1.57 -13.288,-1.632C-10.478,-2.165 -7.764,-1.834 -5.596,0.121C-3.725,1.807 -2.099,3.769 -0.412,5.653C-0.165,5.93 -0.184,6.447 0,7.163" style="fill:rgb(11,11,11);fill-rule:nonzero;"/>
        </g>
        <g transform="matrix(1,0,0,1,75.5127,47.0957)">
            <path d="M0,-4.933C0.213,-2.811 -1.849,-0.29 -4.013,-0.122C-5.579,0 -7.175,-0.243 -8.756,-0.337C-8.949,-0.348 -9.202,-0.393 -9.312,-0.521C-9.599,-0.853 -9.821,-1.241 -10.069,-1.606C-9.664,-1.724 -9.253,-1.96 -8.856,-1.937C-7.641,-1.87 -6.418,-1.528 -5.222,-1.618C-3.598,-1.74 -2.212,-2.537 -1.152,-3.838C-0.843,-4.218 -0.439,-4.521 0,-4.933" style="fill:rgb(26,26,26);fill-rule:nonzero;"/>
        </g>
    </g>
</svg>
