<?xml version="1.0" encoding="utf-8"?>
<svg viewBox="77.281 66.68 322 339.855" xmlns="http://www.w3.org/2000/svg">
  <g transform="matrix(0.1, 0, 0, -0.1, 70.281273, 412.534485)" fill="#000000" stroke="none">
    <path d="M1495 3445 c-200 -44 -357 -184 -421 -375 -29 -84 -25 -244 7 -330 40 -106 132 -231 158 -215 7 4 -6 28 -35 62 -177 218 -162 500 36 686 73 70 118 97 210 129 188 64 415 10 558 -134 189 -189 201 -469 29 -680 -26 -32 -47 -62 -47 -68 0 -21 20 -8 65 43 103 116 151 279 127 433 -48 310 -369 519 -687 449z"/>
    <path d="M1537 3230 c-95 -24 -175 -88 -216 -173 -41 -83 -48 -141 -27 -220 19 -70 82 -165 98 -149 6 6 -2 27 -25 60 -106 155 -51 350 122 431 116 54 265 27 356 -65 93 -95 110 -246 39 -350 -13 -19 -24 -41 -24 -49 0 -56 74 54 91 135 32 148 -49 296 -196 361 -53 23 -162 33 -218 19z"/>
    <path d="M1552 3079 c-122 -60 -133 -235 -21 -307 l36 -24 -134 -535 c-89 -357 -131 -539 -124 -546 25 -25 40 7 81 172 l42 171 176 -2 176 -3 28 -155 c15 -85 30 -161 33 -167 6 -17 34 -16 41 1 3 7 -20 150 -51 317 -31 167 -60 331 -65 364 -17 112 -42 250 -50 280 -5 17 -11 48 -14 70 -5 37 -3 42 27 60 39 24 77 96 77 145 0 41 -29 108 -56 132 -29 25 -89 48 -126 48 -18 0 -52 -10 -76 -21z m111 -406 c8 -38 18 -90 22 -118 3 -27 8 -58 11 -67 5 -16 -3 -18 -71 -18 -70 0 -76 2 -70 19 3 10 12 47 20 82 12 58 30 125 40 157 3 6 11 12 18 12 9 0 20 -24 30 -67z m63 -343 c7 -47 19 -121 28 -165 9 -44 16 -86 16 -92 0 -10 -39 -13 -160 -13 -88 0 -160 3 -160 8 0 4 19 85 42 180 l43 173 90 -3 89 -3 12 -85z" style="fill: rgb(248, 151, 25);"/>
    <path d="M2768 2640 c-65 -33 -118 -65 -118 -71 0 -18 404 -741 418 -746 15 -6 222 124 222 140 -1 24 -378 732 -391 734 -8 1 -67 -25 -131 -57z m287 -326 c94 -179 170 -331 170 -336 0 -9 -136 -100 -142 -94 -7 7 -373 670 -371 671 6 5 163 84 168 85 3 0 82 -147 175 -326z" style="fill: rgb(248, 151, 25);"/>
    <path d="M271 2321 c-111 -193 -201 -354 -201 -360 0 -14 218 -144 233 -138 10 4 106 164 167 279 8 15 66 115 128 221 61 107 112 199 112 205 0 11 -210 142 -228 142 -6 0 -101 -157 -211 -349z m307 239 c39 -23 72 -44 72 -45 0 -16 -364 -629 -372 -627 -23 6 -148 84 -145 91 35 68 362 629 366 627 3 -2 39 -22 79 -46z" style="fill: rgb(248, 151, 25);"/>
    <path d="M641 2266 c-6 -7 -23 -35 -37 -61 -14 -27 -42 -73 -61 -103 -28 -41 -34 -58 -26 -71 57 -93 921 -1580 926 -1594 6 -15 23 -17 155 -17 l148 0 543 831 c299 458 546 840 548 850 3 11 0 19 -6 19 -6 0 -11 5 -11 10 0 6 -9 20 -20 32 -11 12 -30 43 -42 69 l-23 49 -464 0 c-418 0 -463 -2 -457 -16 3 -9 6 -20 6 -25 0 -5 179 -9 438 -9 l437 0 43 -66 43 -65 -25 -42 c-14 -23 -252 -388 -529 -812 l-504 -770 -119 -2 -119 -3 -450 771 c-247 424 -454 779 -458 788 -6 13 6 42 45 107 l54 89 364 3 c371 2 379 3 380 40 0 19 -763 18 -779 -2z"/>
    <path d="M1220 205 l0 -145 385 0 385 0 0 145 0 145 -385 0 -385 0 0 -145z m720 0 l0 -95 -335 0 -335 0 0 95 0 95 335 0 335 0 0 -95z" style="fill: rgb(248, 151, 25);"/>
  </g>
</svg>