<?xml version="1.0" encoding="UTF-8" standalone="no"?>
<svg
   xmlns:dc="http://purl.org/dc/elements/1.1/"
   xmlns:cc="http://creativecommons.org/ns#"
   xmlns:rdf="http://www.w3.org/1999/02/22-rdf-syntax-ns#"
   xmlns:svg="http://www.w3.org/2000/svg"
   xmlns="http://www.w3.org/2000/svg"
   xmlns:sodipodi="http://sodipodi.sourceforge.net/DTD/sodipodi-0.dtd"
   xmlns:inkscape="http://www.inkscape.org/namespaces/inkscape"
   sodipodi:docname="indact.svg"
   inkscape:version="1.0 (4035a4fb49, 2020-05-01)"
   id="svg8"
   version="1.1"
   viewBox="0 0 638.6181 158.1225"
   height="158.1225mm"
   width="638.6181mm">
  <defs
     id="defs2">
    <inkscape:path-effect
       split_items="false"
       oposite_fuse="false"
       fuse_paths="false"
       discard_orig_path="false"
       mode="free"
       lpeversion="1"
       is_visible="true"
       id="path-effect913"
       center_point="-1073.4938,20.06432"
       end_point="-1075.5349,20.06432"
       start_point="-1071.4527,20.06432"
       effect="mirror_symmetry" />
    <inkscape:path-effect
       effect="mirror_symmetry"
       start_point="-1186.6914,152.47028"
       end_point="-1186.6914,155.38069"
       center_point="-1186.6914,153.92548"
       id="path-effect4343"
       is_visible="true"
       lpeversion="1"
       mode="free"
       discard_orig_path="false"
       fuse_paths="true"
       oposite_fuse="false"
       split_items="false" />
    <inkscape:path-effect
       effect="mirror_symmetry"
       start_point="-1186.6739,141.62236"
       end_point="-1186.6739,151.14736"
       center_point="-1186.6739,146.38486"
       id="path-effect4341"
       is_visible="true"
       lpeversion="1"
       mode="free"
       discard_orig_path="false"
       fuse_paths="true"
       oposite_fuse="false"
       split_items="false" />
    <inkscape:path-effect
       effect="mirror_symmetry"
       start_point="-1186.6916,133.15567"
       end_point="-1186.6916,140.27359"
       center_point="-1186.6916,136.71463"
       id="path-effect4339"
       is_visible="true"
       lpeversion="1"
       mode="free"
       discard_orig_path="false"
       fuse_paths="true"
       oposite_fuse="false"
       split_items="false" />
    <inkscape:path-effect
       effect="mirror_symmetry"
       start_point="-1186.6916,126.54111"
       end_point="-1186.6916,131.83278"
       center_point="-1186.6916,129.18695"
       id="path-effect4337"
       is_visible="true"
       lpeversion="1"
       mode="free"
       discard_orig_path="false"
       fuse_paths="true"
       oposite_fuse="false"
       split_items="false" />
    <inkscape:path-effect
       lpeversion="1"
       is_visible="true"
       id="path-effect4294"
       effect="spiro" />
    <inkscape:path-effect
       lpeversion="1"
       is_visible="true"
       id="path-effect4280"
       effect="spiro" />
    <inkscape:path-effect
       split_items="false"
       oposite_fuse="false"
       fuse_paths="true"
       discard_orig_path="false"
       mode="Y"
       lpeversion="1"
       is_visible="true"
       id="path-effect4242"
       center_point="-1094.2827,19.39841"
       end_point="-1088.7918,19.39841"
       start_point="-1099.7737,19.39841"
       effect="mirror_symmetry" />
    <inkscape:path-effect
       lpeversion="1"
       is_visible="true"
       id="path-effect4240"
       effect="spiro" />
    <inkscape:path-effect
       split_items="false"
       oposite_fuse="false"
       fuse_paths="false"
       discard_orig_path="false"
       mode="Y"
       lpeversion="1"
       is_visible="true"
       id="path-effect4222"
       center_point="-1074.4323,20.06432"
       end_point="-1067.1945,20.06432"
       start_point="-1081.6701,20.06432"
       effect="mirror_symmetry" />
    <inkscape:path-effect
       lpeversion="1"
       is_visible="true"
       id="path-effect4220"
       effect="spiro" />
    <inkscape:path-effect
       effect="mirror_symmetry"
       start_point="408.19327,981.11492"
       end_point="411.03831,988.34097"
       center_point="409.61579,984.72794"
       id="path-effect4216"
       is_visible="true"
       lpeversion="1"
       mode="free"
       discard_orig_path="false"
       fuse_paths="false"
       oposite_fuse="false"
       split_items="false" />
    <inkscape:path-effect
       effect="mirror_symmetry"
       start_point="409.19111,983.64932"
       end_point="411.17081,988.67749"
       center_point="410.18096,986.16341"
       id="path-effect4214"
       is_visible="true"
       lpeversion="1"
       mode="free"
       discard_orig_path="false"
       fuse_paths="false"
       oposite_fuse="false"
       split_items="false" />
    <inkscape:path-effect
       lpeversion="1"
       is_visible="true"
       id="path-effect4193"
       effect="spiro" />
    <inkscape:path-effect
       effect="spiro"
       id="path-effect4189"
       is_visible="true"
       lpeversion="1" />
    <inkscape:path-effect
       lpeversion="1"
       is_visible="true"
       id="path-effect4185"
       effect="spiro" />
    <inkscape:path-effect
       effect="spiro"
       id="path-effect4181"
       is_visible="true"
       lpeversion="1" />
    <inkscape:path-effect
       effect="spiro"
       id="path-effect4179"
       is_visible="true"
       lpeversion="1" />
    <inkscape:path-effect
       lpeversion="1"
       is_visible="true"
       id="path-effect4173"
       effect="spiro" />
    <inkscape:path-effect
       split_items="false"
       oposite_fuse="false"
       fuse_paths="false"
       discard_orig_path="false"
       mode="X"
       lpeversion="1"
       is_visible="true"
       id="path-effect4169"
       center_point="-1323.6162,73.543086"
       end_point="-1323.6162,114.47206"
       start_point="-1323.6162,32.614111"
       effect="mirror_symmetry" />
    <inkscape:path-effect
       lpeversion="1"
       is_visible="true"
       id="path-effect4167"
       effect="spiro" />
    <inkscape:path-effect
       effect="mirror_symmetry"
       start_point="-1323.6162,32.614111"
       end_point="-1323.6162,114.47206"
       center_point="-1323.6162,73.543086"
       id="path-effect4163"
       is_visible="true"
       lpeversion="1"
       mode="X"
       discard_orig_path="false"
       fuse_paths="false"
       oposite_fuse="false"
       split_items="false" />
    <inkscape:path-effect
       effect="spiro"
       id="path-effect4155"
       is_visible="true"
       lpeversion="1" />
    <inkscape:path-effect
       effect="spiro"
       id="path-effect4147"
       is_visible="true"
       lpeversion="1" />
    <inkscape:path-effect
       effect="mirror_symmetry"
       start_point="-1081.6701,20.06432"
       end_point="-1067.1945,20.06432"
       center_point="-1074.4323,20.06432"
       id="path-effect4127"
       is_visible="true"
       lpeversion="1"
       mode="Y"
       discard_orig_path="false"
       fuse_paths="false"
       oposite_fuse="false"
       split_items="false" />
    <inkscape:path-effect
       effect="spiro"
       id="path-effect4123"
       is_visible="true"
       lpeversion="1" />
    <inkscape:path-effect
       effect="mirror_symmetry"
       start_point="-1099.7737,19.39841"
       end_point="-1088.7918,19.39841"
       center_point="-1094.2827,19.39841"
       id="path-effect4115"
       is_visible="true"
       lpeversion="1"
       mode="Y"
       discard_orig_path="false"
       fuse_paths="true"
       oposite_fuse="false"
       split_items="false" />
    <inkscape:path-effect
       effect="mirror_symmetry"
       start_point="-1116.711,19.39841"
       end_point="-1101.1006,19.39841"
       center_point="-1108.9058,19.39841"
       id="path-effect4109"
       is_visible="true"
       lpeversion="1"
       mode="Y"
       discard_orig_path="false"
       fuse_paths="true"
       oposite_fuse="false"
       split_items="false" />
    <inkscape:path-effect
       effect="mirror_symmetry"
       start_point="-1116.711,4.2834787"
       end_point="-1101.1006,4.2834787"
       center_point="-1109.4744,4.2834787"
       id="path-effect4107"
       is_visible="true"
       lpeversion="1"
       mode="Y"
       discard_orig_path="false"
       fuse_paths="true"
       oposite_fuse="false"
       split_items="false" />
    <inkscape:path-effect
       effect="spiro"
       id="path-effect4105"
       is_visible="true"
       lpeversion="1" />
    <inkscape:path-effect
       effect="mirror_symmetry"
       start_point="-1164.9975,-99.191444"
       end_point="-1164.9975,-3.4753736"
       center_point="-1164.9083,-51.416091"
       id="path-effect4095"
       is_visible="true"
       lpeversion="1"
       mode="X"
       discard_orig_path="false"
       fuse_paths="false"
       oposite_fuse="false"
       split_items="false" />
    <inkscape:path-effect
       effect="mirror_symmetry"
       start_point="-1164.8815,-99.191444"
       end_point="-1164.8815,-3.4753736"
       center_point="-1164.8815,-51.333409"
       id="path-effect4093"
       is_visible="true"
       lpeversion="1"
       mode="free"
       discard_orig_path="false"
       fuse_paths="false"
       oposite_fuse="false"
       split_items="false" />
    <inkscape:path-effect
       effect="spiro"
       id="path-effect4091"
       is_visible="true"
       lpeversion="1" />
    <inkscape:path-effect
       effect="mirror_symmetry"
       start_point="-1171.2613,-3.4753736"
       end_point="-1164.8815,-3.4753737"
       center_point="-1165.4296,-51.314095"
       id="path-effect4089"
       is_visible="true"
       lpeversion="1"
       mode="free"
       discard_orig_path="false"
       fuse_paths="true"
       oposite_fuse="false"
       split_items="false" />
    <inkscape:path-effect
       effect="spiro"
       id="path-effect4081"
       is_visible="true"
       lpeversion="1" />
    <inkscape:path-effect
       effect="spiro"
       id="path-effect4077"
       is_visible="true"
       lpeversion="1" />
  </defs>
  <sodipodi:namedview
     inkscape:document-rotation="0"
     fit-margin-bottom="0"
     fit-margin-right="0"
     fit-margin-left="0"
     fit-margin-top="0"
     inkscape:window-maximized="1"
     inkscape:window-y="0"
     inkscape:window-x="0"
     inkscape:window-height="713"
     inkscape:window-width="1366"
     showgrid="false"
     inkscape:current-layer="layer1"
     inkscape:document-units="mm"
     inkscape:cy="407.51384"
     inkscape:cx="111.91368"
     inkscape:zoom="0.35355339"
     inkscape:pageshadow="2"
     inkscape:pageopacity="0.0"
     borderopacity="1.0"
     bordercolor="#666666"
     pagecolor="#ffffff"
     id="base"
     showguides="true"
     inkscape:guide-bbox="true"
     inkscape:snap-bbox="true"
     inkscape:snap-bbox-midpoints="true"
     inkscape:snap-smooth-nodes="true"
     inkscape:snap-global="true"
     inkscape:object-paths="true">
    <sodipodi:guide
       position="166.27163,207.94792"
       orientation="0,-1"
       id="guide4097" />
    <sodipodi:guide
       position="65.383063,136.47119"
       orientation="0,-1"
       id="guide4101" />
    <sodipodi:guide
       position="184.17439,127.62565"
       orientation="1,0"
       id="guide4113" />
    <sodipodi:guide
       position="-39.668099,82.992426"
       orientation="1,0"
       id="guide4157" />
    <sodipodi:guide
       position="-22.734199,42.063453"
       orientation="1,0"
       id="guide4161" />
    <sodipodi:guide
       position="97.256522,34.19763"
       orientation="1,0"
       id="guide4322" />
    <sodipodi:guide
       id="guide909"
       orientation="-0.64352017,0.76542916"
       position="209.3482,122.93007" />
  </sodipodi:namedview>
  <metadata
     id="metadata5">
    <rdf:RDF>
      <cc:Work
         rdf:about="">
        <dc:format>image/svg+xml</dc:format>
        <dc:type
           rdf:resource="http://purl.org/dc/dcmitype/StillImage" />
        <dc:title />
      </cc:Work>
    </rdf:RDF>
  </metadata>
  <g
     transform="translate(1283.9481,1.5869832)"
     id="layer1"
     inkscape:groupmode="layer"
     inkscape:label="1. réteg">
    <path
       id="rect4199"
       style="fill:#363636;fill-opacity:1;stroke:none;stroke-width:5.66931;stroke-miterlimit:4;stroke-dasharray:none"
       d="m 760.29883,38.871094 -22.88281,8.630859 0.42187,11.917969 3.07617,1.771484 24.72461,-9.324218 c -1.44324,-1.143231 -2.67921,-2.554501 -3.61133,-4.212891 -1.47741,-2.627785 -2.09041,-5.619001 -1.75781,-8.615235 0.006,-0.05738 0.0211,-0.111303 0.0293,-0.167968 z m -19.92188,63.910156 -2.53906,1.46289 -0.45117,12.76758 23.22266,8.97851 c -0.16245,-0.43618 -0.28526,-0.88758 -0.3379,-1.36523 -0.33146,-2.99624 0.2804,-5.98745 1.75782,-8.61523 0.79602,-1.41625 1.80768,-2.65885 2.98437,-3.70508 z"
       transform="matrix(0.26458333,0,0,0.26458333,-1283.9481,-1.5869832)"
       sodipodi:nodetypes="cccccccccccccccc" />
    <path
       id="rect4203"
       style="fill:#363636;fill-opacity:1;stroke:none;stroke-width:5.66931;stroke-miterlimit:4;stroke-dasharray:none"
       d="m 758.8457,9.421875 -36.4375,13.742187 0.99805,0.601563 8.53125,10.814453 30.42773,-11.474609 -0.0195,-4.572266 c -1.58589,-1.871576 -2.84522,-3.984958 -3.28515,-6.458984 -0.15722,-0.884309 -0.22544,-1.772456 -0.21485,-2.652344 z m -27.62304,120.568355 -7.81641,9.90821 -2.48242,1.49804 38.08398,14.72266 c -0.22029,-1.48523 -0.21532,-3.00862 0.0547,-4.52734 0.43994,-2.47468 1.69851,-4.59494 3.28516,-6.4668 l 0.0117,-3.0957 z"
       transform="matrix(0.26458333,0,0,0.26458333,-1283.9481,-1.5869832)"
       sodipodi:nodetypes="ccccccscccccsccc" />
    <g
       style="fill:#363636;fill-opacity:1"
       id="g5071">
      <path
         inkscape:connector-curvature="0"
         id="path5023"
         style="font-style:normal;font-variant:normal;font-weight:normal;font-stretch:normal;font-size:147.542px;line-height:125%;font-family:'Bebas Neue';-inkscape-font-specification:'Bebas Neue';letter-spacing:0.829924px;word-spacing:0px;fill:#363636;fill-opacity:1;stroke:none;stroke-width:0.768448"
         d="m -1077.5365,155.35518 h 16.2296 V 52.075752 h -16.2296 z" />
      <path
         inkscape:connector-curvature="0"
         id="path5025"
         style="font-style:normal;font-variant:normal;font-weight:normal;font-stretch:normal;font-size:147.542px;line-height:125%;font-family:'Bebas Neue';-inkscape-font-specification:'Bebas Neue';letter-spacing:0.829924px;word-spacing:0px;fill:#363636;fill-opacity:1;stroke:none;stroke-width:0.768448"
         d="m -994.32396,155.35518 h 16.67222 V 52.075752 h -14.45912 v 61.820118 h -0.2951 l -16.37714,-61.820118 h -20.3608 V 155.35518 h 14.6066 V 80.551366 h 0.2951 z" />
      <path
         inkscape:connector-curvature="0"
         id="path5027"
         style="font-style:normal;font-variant:normal;font-weight:normal;font-stretch:normal;font-size:147.542px;line-height:125%;font-family:'Bebas Neue';-inkscape-font-specification:'Bebas Neue';letter-spacing:0.829924px;word-spacing:0px;fill:#363636;fill-opacity:1;stroke:none;stroke-width:0.768448"
         d="m -945.27969,155.35518 h 25.67232 c 16.22962,0 24.19689,-9.00007 24.19689,-25.52477 V 77.600525 c 0,-16.524708 -7.96727,-25.524773 -24.19689,-25.524773 h -25.67232 z m 25.37723,-88.525224 c 5.16398,0 8.26236,2.655757 8.26236,10.032859 v 53.705305 c 0,7.3771 -3.09838,10.03286 -8.26236,10.03286 h -9.1476 V 66.829956 Z" />
      <path
         inkscape:connector-curvature="0"
         id="path5029"
         style="font-style:normal;font-variant:normal;font-weight:normal;font-stretch:normal;font-size:147.542px;line-height:125%;font-family:'Bebas Neue';-inkscape-font-specification:'Bebas Neue';letter-spacing:0.829924px;word-spacing:0px;fill:#363636;fill-opacity:1;stroke:none;stroke-width:0.768448"
         d="m -822.85269,52.075752 h -23.75427 l -16.52471,103.279428 h 14.90175 l 2.8033,-18.73784 h 19.91817 l 2.8033,18.73784 h 16.37717 z m -12.83616,18.295213 h 0.29509 l 7.67218,52.229885 h -15.63945 z" />
      <path
         inkscape:connector-curvature="0"
         id="path5031"
         style="font-style:normal;font-variant:normal;font-weight:normal;font-stretch:normal;font-size:147.542px;line-height:125%;font-family:'Bebas Neue';-inkscape-font-specification:'Bebas Neue';letter-spacing:0.829924px;word-spacing:0px;fill:#363636;fill-opacity:1;stroke:none;stroke-width:0.768448"
         d="m -742.0619,116.84671 v 14.7542 c 0,7.3771 -3.24592,10.03286 -8.40989,10.03286 -5.16398,0 -8.4099,-2.65576 -8.4099,-10.03286 V 75.83002 c 0,-7.377102 3.24592,-10.1804 8.4099,-10.1804 5.16397,0 8.40989,2.803298 8.40989,10.1804 v 11.065653 h 15.34437 V 76.862815 c 0,-16.524709 -8.26235,-25.967399 -24.19689,-25.967399 -15.93454,0 -24.19689,9.44269 -24.19689,25.967399 v 53.705305 c 0,16.5247 8.26235,25.9674 24.19689,25.9674 15.93454,0 24.19689,-9.4427 24.19689,-25.9674 v -13.72141 z" />
      <path
         inkscape:connector-curvature="0"
         id="path5033"
         style="font-style:normal;font-variant:normal;font-weight:normal;font-stretch:normal;font-size:147.542px;line-height:125%;font-family:'Bebas Neue';-inkscape-font-specification:'Bebas Neue';letter-spacing:0.829924px;word-spacing:0px;fill:#363636;fill-opacity:1;stroke:none;stroke-width:0.768448"
         d="m -695.49425,66.829956 h 16.96734 v 88.525224 h 16.22962 V 66.829956 h 16.96733 V 52.075752 h -50.16429 z" />
    </g>
    <path
       style="fill:#f89719;stroke:none;stroke-width:0.264583px;stroke-linecap:butt;stroke-linejoin:miter;stroke-opacity:1;fill-opacity:1"
       d="m -1206.6679,125.21819 v -20.90208 l 13.5047,-0.014 7.7391,-11.299311 c 1.9874,-2.901661 3.8711,-5.9077 5.0954,-9.204753 1.0312,-2.77708 1.6418,-5.69953 2.7344,-8.453041 2.8074,-7.075143 8.9362,-12.774184 16.2296,-14.952533 7.2934,-2.17835 15.5959,-0.74917 21.6743,3.83251 6.1885,4.664687 9.8618,12.451936 9.6277,20.198062 -0.2341,7.746127 -4.3329,15.259162 -10.6607,19.733046 -3.5136,2.48416 -7.5822,4.03507 -11.4847,5.84808 -1.1488,0.53369 -2.2862,1.10291 -3.3316,1.81812 -1.0455,0.71522 -1.9757,1.58372 -2.8745,2.47625 l -8.3011,8.24284 v 2.67683 z"
       id="path4075"
       inkscape:path-effect="#path-effect4077"
       inkscape:original-d="m -1206.6679,125.21819 v -20.90208 l 13.5047,-0.014 7.7391,-11.299311 c 2.8799,-4.102895 6.6528,-10.771823 5.0954,-9.204753 -3.1708,3.190459 -1.3221,-4.383727 2.7344,-8.453041 8.4557,-8.482295 27.5275,-19.55399 37.9039,-11.120023 9.7599,7.932787 5.1881,29.430787 -1.033,39.931108 -3.5661,6.01909 -4.8049,2.38873 -11.4847,5.84808 -3.7751,1.95871 -6.2061,4.29437 -6.2061,4.29437 l -8.3011,8.24284 v 2.67683 z"
       sodipodi:nodetypes="ccccssssccccc" />
    <path
       style="fill:#f89719;stroke:none;stroke-width:0.4;stroke-linecap:butt;stroke-linejoin:miter;stroke-opacity:1;stroke-miterlimit:4;stroke-dasharray:none;fill-opacity:1"
       d="m -1253.71,32.614108 -3.2174,3e-6 -4.7723,-3.436039 v -18.26342 l 4.7723,-3.436039 29.4634,8.15e-5 12.3393,3.4638715 v 18.243521 l -11.9103,3.295731 c 0.4754,2.361434 0.3192,4.847017 -0.4482,7.130333 -0.7674,2.283315 -2.144,4.358747 -3.9491,5.953739 -2.7186,2.402146 -6.4161,3.667306 -10.0351,3.415279 -3.619,-0.252028 -7.1117,-2.022801 -9.4395,-4.805293 -2.6361,-3.15094 -3.7034,-7.553445 -2.8031,-11.561768 z"
       id="path4079"
       sodipodi:nodetypes="cccccccccssc"
       inkscape:path-effect="#path-effect4081"
       inkscape:original-d="m -1253.71,32.614108 -3.2174,3e-6 -4.7723,-3.436039 v -18.26342 l 4.7723,-3.436039 29.4634,8.15e-5 12.3393,3.4638715 v 18.243521 l -11.9103,3.295731 c 0,0 -1.4283,10.680075 -4.3973,13.084072 -5.4934,4.447939 -13.8626,2.907402 -19.4746,-1.390014 -3.1485,-2.410981 -2.8031,-11.561768 -2.8031,-11.561768 z" />
    <path
       style="fill:#f89719;stroke:none;stroke-width:0.5;stroke-linecap:butt;stroke-linejoin:miter;stroke-miterlimit:4;stroke-dasharray:none;stroke-opacity:1;fill-opacity:1"
       d="m -1164.9083,-3.4753736 -8.911,-7.523e-4 -0.1935,-1.3856544 0.7938,-0.6946 -0.6615,-0.2754 V -16.37118 h 0.7938 v -0.5287 h 1.0583 v -31.2213 h -0.7565 l -0.17,-4.7636 0.5291,-0.262999 -0.6614,-0.309001 v -2.3373 h 2.6846 c 0.012,-0.259894 -0.048,-0.522693 -0.171,-0.7519 -0.1865,-0.347359 -0.5066,-0.604182 -0.8439,-0.808389 -0.3372,-0.204207 -0.6995,-0.365694 -1.0303,-0.58028 -0.792,-0.513838 -1.3716,-1.320028 -1.6985,-2.205733 -0.3269,-0.885705 -0.4123,-1.84796 -0.3456,-2.78971 0.1334,-1.883499 0.8531,-3.667403 1.3513,-5.488702 0.8257,-3.018384 1.034,-6.295835 -0.024,-9.240859 -0.7404,-2.061032 -2.0618,-3.867343 -2.8792,-5.89907 -1.0017,-2.489955 -1.2076,-5.293176 -0.5804,-7.90276 0.6273,-2.609585 2.0846,-5.013043 4.1085,-6.775761 v -0.9457 l 7.6074,-0.0085 m 0,95.7160704 8.911,-7.523e-4 0.1935,-1.3856544 -0.7938,-0.6946 0.6615,-0.2754 V -16.37118 h -0.7938 v -0.5287 h -1.0583 v -31.2213 h 0.7565 l 0.17,-4.7636 -0.5291,-0.262999 0.6614,-0.309001 v -2.3373 h -2.6846 c -0.012,-0.259894 0.048,-0.522693 0.171,-0.7519 0.1865,-0.347359 0.5066,-0.604182 0.8439,-0.808389 0.3372,-0.204207 0.6995,-0.365694 1.0303,-0.58028 0.792,-0.513838 1.3716,-1.320028 1.6985,-2.205733 0.3269,-0.885705 0.4123,-1.84796 0.3456,-2.78971 -0.1334,-1.883499 -0.8531,-3.667403 -1.3513,-5.488702 -0.8257,-3.018384 -1.034,-6.295835 0.024,-9.240859 0.7404,-2.061032 2.0618,-3.867343 2.8792,-5.89907 1.0017,-2.489955 1.2076,-5.293176 0.5804,-7.90276 -0.6273,-2.609585 -2.0846,-5.013043 -4.1085,-6.775761 v -0.9457 l -7.6074,-0.0085"
       id="path4085"
       sodipodi:nodetypes="cccccccccccccccccssssccc"
       inkscape:path-effect="#path-effect4091;#path-effect4095"
       inkscape:original-d="m -1164.9083,-3.4753736 -8.911,-7.523e-4 -0.1935,-1.3856544 0.7938,-0.6946 -0.6615,-0.2754 V -16.37118 h 0.7938 v -0.5287 h 1.0583 v -31.2213 h -0.7565 l -0.17,-4.7636 0.5291,-0.262999 -0.6614,-0.309001 v -2.3373 h 2.6846 c 0,0 0.1071,-0.384159 -0.171,-0.7519 -0.9872,-1.305458 -1.4657,0.344849 -1.8742,-1.388669 -0.6052,-2.568703 -1.0408,-7.868145 -0.6928,-10.484145 0.2446,-1.838741 0.4071,-6.996303 -0.024,-9.240859 -0.2419,-1.260356 -3.2771,-0.888178 -2.8792,-5.89907 0.2732,-3.441164 3.5281,-14.678521 3.5281,-14.678521 v -0.9457 l 7.6074,-0.0085"
       transform="matrix(0,-1,-1,0,-1217.2177,-1144.844)" />
    <path
       style="fill:#363636;stroke:none;stroke-width:0.264583px;stroke-linecap:butt;stroke-linejoin:miter;stroke-opacity:1;fill-opacity:1"
       d="m -1116.711,19.39841 v 10.545189 l 3.9047,1.932182 c 0.8298,-0.201139 1.7114,-0.184542 2.533,0.04769 0.8114,0.229348 1.5626,0.668394 2.1607,1.262825 l 4.3657,0.47284 v -0.953947 h 0.7943 v -1.852084 h 1.852 V 19.39841 7.943715 h -1.852 V 6.091631 h -0.7943 V 5.137684 l -4.3657,0.47284 c -0.5981,0.5944315 -1.3493,1.0334772 -2.1607,1.262825 -0.8216,0.2322317 -1.7032,0.2488295 -2.533,0.04769 l -3.9047,1.932182 z"
       id="path4103"
       inkscape:path-effect="#path-effect4105;#path-effect4109"
       inkscape:original-d="m -1116.711,19.39841 v 10.545189 l 3.9047,1.932182 c 0,0 1.6549,-0.212451 2.533,0.04769 0.6931,0.205372 2.1607,1.262825 2.1607,1.262825 l 4.3657,0.47284 v -0.953947 h 0.7943 v -1.852084 h 1.852 V 19.39841"
       sodipodi:nodetypes="cccsccccccc"
       transform="translate(0,0.66592045)" />
    <path
       style="fill:#363636;stroke:none;stroke-width:0.264583px;stroke-linecap:butt;stroke-linejoin:miter;stroke-opacity:1;fill-opacity:1"
       d="m -1099.7737,19.39841 v 9.511452 h 0.5292 v 2.93677 c 0.2553,0.480091 0.5579,0.934991 0.902,1.355955 0.3811,0.466187 0.8132,0.890693 1.286,1.263525 h 2.096 l 1.4051,-0.847494 3.175,-4.025593 0.182,-5.15059 1.4066,-0.80918 V 19.39841 15.163565 l -1.4066,-0.80918 -0.182,-5.15059 -3.175,-4.025593 -1.4051,-0.847494 h -2.096 c -0.4728,0.3728315 -0.9049,0.7973384 -1.286,1.263525 -0.3441,0.4209637 -0.6467,0.8758639 -0.902,1.355955 v 2.93677 h -0.5292 z"
       id="path4111"
       sodipodi:nodetypes="cccczccccccc"
       inkscape:path-effect="#path-effect4147;#path-effect4115"
       inkscape:original-d="m -1099.7737,19.39841 v 9.511452 h 0.5292 v 2.93677 c 0,0 0.3467,0.718892 0.902,1.355955 0.5552,0.637064 1.286,1.263525 1.286,1.263525 h 2.096 l 1.4051,-0.847494 3.175,-4.025593 0.182,-5.15059 1.4066,-0.80918 V 19.39841"
       transform="translate(0,0.66592045)" />
    <path
       transform="matrix(0.26458333,0,0,0.26458333,-1283.9481,-1.5869832)"
       d="M 773.15039 0.4140625 C 772.74306 0.39676929 772.33355 0.40730381 771.92773 0.44726562 C 770.30447 0.60711289 768.72929 1.2306559 767.4375 2.2265625 C 766.14571 3.2224691 765.14187 4.5885402 764.57812 6.1191406 C 763.90227 7.9541367 763.8707 10.019578 764.48828 11.875 C 765.10586 13.730422 766.369 15.363827 768.00977 16.427734 L 768.08594 34.808594 C 766.88093 36.148534 766.10827 37.870957 765.91016 39.662109 C 765.71204 41.453262 766.08766 43.304105 766.9707 44.875 C 768.19651 47.055646 770.40908 48.656185 772.86328 49.140625 C 775.31749 49.625065 777.97113 48.984903 779.93359 47.433594 L 782.33008 49.927734 L 787.91602 49.927734 L 788.50195 47.433594 L 789.08594 49.927734 L 794.91992 49.927734 L 795.50391 47.433594 L 796.08594 49.927734 L 801.93945 49.927734 L 802.51367 47.433594 L 803.08789 49.927734 L 809.92188 49.927734 L 810.97461 47.433594 L 812.02539 50.927734 L 818.57617 50.927734 L 819.22656 34.925781 L 815.57422 34.882812 L 781.85156 6.53125 C 781.52578 6.2573544 781.21101 5.9655532 780.95312 5.6269531 C 780.69524 5.288353 780.48947 4.9135202 780.26367 4.5527344 C 779.39832 3.1700849 778.14273 2.0336512 776.67969 1.3125 C 775.58241 0.77163659 774.37237 0.46594213 773.15039 0.4140625 z M 782.33008 23.164062 L 795.69336 34.400391 L 782.33008 34.400391 L 782.33008 23.164062 z M 812.02539 112.73633 L 810.97461 116.23047 L 809.92188 113.73633 L 803.08789 113.73633 L 802.51367 116.23047 L 801.93945 113.73633 L 796.08594 113.73633 L 795.50391 116.23047 L 794.91992 113.73633 L 789.08594 113.73633 L 788.50195 116.23047 L 787.91602 113.73633 L 782.33008 113.73633 L 779.93359 116.23047 C 777.97113 114.67916 775.31749 114.039 772.86328 114.52344 C 770.40908 115.00788 768.19651 116.60842 766.9707 118.78906 C 766.08766 120.35996 765.71204 122.2108 765.91016 124.00195 C 766.10827 125.79311 766.88093 127.51553 768.08594 128.85547 L 768.00977 147.23633 C 766.369 148.30024 765.10586 149.93364 764.48828 151.78906 C 763.8707 153.64448 763.90227 155.70993 764.57812 157.54492 C 765.14187 159.07552 766.14571 160.43964 767.4375 161.43555 C 768.72929 162.43145 770.30447 163.055 771.92773 163.21484 C 773.551 163.37469 775.21665 163.07076 776.67969 162.34961 C 778.14273 161.62846 779.39832 160.49398 780.26367 159.11133 C 780.48947 158.75054 780.69524 158.37376 780.95312 158.03516 C 781.21101 157.69656 781.52578 157.40671 781.85156 157.13281 L 815.57422 128.78125 L 819.22656 128.73828 L 818.57617 112.73633 L 812.02539 112.73633 z M 782.33008 129.26367 L 795.69336 129.26367 L 782.33008 140.5 L 782.33008 129.26367 z "
       style="fill:#363636;fill-opacity:1;stroke:none;stroke-width:0.999999px;stroke-linecap:butt;stroke-linejoin:miter;stroke-opacity:1"
       id="path4119" />
    <rect
       style="fill:#363636;fill-opacity:1;stroke:none;stroke-width:0.499999;stroke-miterlimit:4;stroke-dasharray:none"
       id="rect4133"
       width="16.229601"
       height="16.229601"
       x="-1077.5365"
       y="11.949529" />
    <path
       id="path4171"
       style="fill:#f89719;fill-opacity:1;stroke:none;stroke-width:0.999999px;stroke-linecap:butt;stroke-linejoin:miter;stroke-opacity:1"
       d="m 227.12305,131.32422 -6.09961,1.6875 c 0.86702,8.24985 0.41161,16.62882 -2.23633,24.50781 -3.22243,9.58728 -8.97132,18.24624 -16.55078,24.94336 -6.65552,5.88096 -14.64177,10.10928 -23.15821,12.42188 l 206.4668,127.86328 c 0.26551,-0.66731 0.52583,-1.33568 0.77539,-2.00782 3.69978,-9.96398 6.0094,-21.05626 10.37891,-32.06835 8.84769,-22.29765 25.78092,-41.07312 46.84375,-52.35352 -5.60987,-3.0079 -11.30328,-5.85408 -17.11328,-8.46094 -15.11392,-6.78139 -30.82581,-12.11418 -46.4375,-17.6543 -41.02388,-14.55811 -80.21426,-33.88579 -117.22266,-56.80468 z"
       transform="matrix(0.26458333,0,0,0.26458333,-1283.9481,-1.5869832)"
       sodipodi:nodetypes="cccccccccsscc" />
    <rect
       style="fill:#363636;fill-opacity:1;stroke:none;stroke-width:0.4;stroke-miterlimit:4;stroke-dasharray:none"
       id="rect4175"
       width="8.0281181"
       height="10.722754"
       x="-1271.2273"
       y="14.702944" />
    <path
       id="path4264"
       style="color:#000000;font-style:normal;font-variant:normal;font-weight:normal;font-stretch:normal;font-size:medium;line-height:normal;font-family:sans-serif;font-variant-ligatures:normal;font-variant-position:normal;font-variant-caps:normal;font-variant-numeric:normal;font-variant-alternates:normal;font-variant-east-asian:normal;font-feature-settings:normal;font-variation-settings:normal;text-indent:0;text-align:start;text-decoration:none;text-decoration-line:none;text-decoration-style:solid;text-decoration-color:#000000;letter-spacing:normal;word-spacing:normal;text-transform:none;writing-mode:lr-tb;direction:ltr;text-orientation:mixed;dominant-baseline:auto;baseline-shift:baseline;text-anchor:start;white-space:normal;shape-padding:0;shape-margin:0;inline-size:0;clip-rule:nonzero;display:inline;overflow:visible;visibility:visible;opacity:1;isolation:auto;mix-blend-mode:normal;color-interpolation:sRGB;color-interpolation-filters:linearRGB;solid-color:#000000;solid-opacity:1;vector-effect:none;fill:#363636;fill-opacity:1;fill-rule:nonzero;stroke:none;stroke-width:5.66929;stroke-linecap:butt;stroke-linejoin:miter;stroke-miterlimit:4;stroke-dasharray:none;stroke-dashoffset:0;stroke-opacity:1;color-rendering:auto;image-rendering:auto;shape-rendering:auto;text-rendering:auto;enable-background:accumulate;stop-color:#000000;stop-opacity:1"
       d="m 42.324219,73.052734 c -1.088191,0.01039 -2.177058,0.04201 -3.263672,0.09766 -8.13241,0.416488 -16.574877,2.176883 -23.724609,6.828125 -3.580347,2.329069 -6.7702303,5.362157 -9.132813,9.037109 -2.367874,3.682681 -3.8645139,7.974744 -4.0527344,12.445315 -0.3159685,7.46287 3.0502262,14.55153 8.1132814,19.6875 5.028283,5.10097 11.53452,8.29494 18.167969,10.15625 9.623433,2.7003 19.640872,2.74487 29.283203,1.82422 9.635527,-0.92002 18.994131,-2.78287 28.279297,-4 1.786406,-0.23418 3.577309,-0.44016 5.36914,-0.62891 l -6.794922,-4.89062 c -9.290265,1.24649 -18.360369,3.01652 -27.392578,3.8789 -9.24926,0.88311 -18.568104,0.78225 -27.216797,-1.64453 -5.932724,-1.66468 -11.524156,-4.48036 -15.658203,-8.67383 -4.099275,-4.15847 -6.716311,-9.88809 -6.4804685,-15.46484 0.1413543,-3.352345 1.2856351,-6.723484 3.1523435,-9.626955 1.871622,-2.911204 4.471897,-5.405139 7.455078,-7.345703 5.976567,-3.888027 13.421593,-5.535506 20.927735,-5.919922 4.03011,-0.206377 8.076173,-0.0751 12.083984,0.392578 l 0.658203,-5.632812 c -3.241984,-0.378304 -6.508864,-0.550712 -9.773437,-0.519532 z"
       transform="matrix(0.26458333,0,0,0.26458333,-1283.9481,-1.5869832)"
       sodipodi:nodetypes="ssccccsssccsscccccccs" />
    <path
       id="path4268"
       style="color:#000000;font-style:normal;font-variant:normal;font-weight:normal;font-stretch:normal;font-size:medium;line-height:normal;font-family:sans-serif;font-variant-ligatures:normal;font-variant-position:normal;font-variant-caps:normal;font-variant-numeric:normal;font-variant-alternates:normal;font-variant-east-asian:normal;font-feature-settings:normal;font-variation-settings:normal;text-indent:0;text-align:start;text-decoration:none;text-decoration-line:none;text-decoration-style:solid;text-decoration-color:#000000;letter-spacing:normal;word-spacing:normal;text-transform:none;writing-mode:lr-tb;direction:ltr;text-orientation:mixed;dominant-baseline:auto;baseline-shift:baseline;text-anchor:start;white-space:normal;shape-padding:0;shape-margin:0;inline-size:0;clip-rule:nonzero;display:inline;overflow:visible;visibility:visible;opacity:1;isolation:auto;mix-blend-mode:normal;color-interpolation:sRGB;color-interpolation-filters:linearRGB;solid-color:#000000;solid-opacity:1;vector-effect:none;fill:#363636;fill-opacity:1;fill-rule:nonzero;stroke:none;stroke-width:5.66929;stroke-linecap:butt;stroke-linejoin:miter;stroke-miterlimit:4;stroke-dasharray:none;stroke-dashoffset:0;stroke-opacity:1;color-rendering:auto;image-rendering:auto;shape-rendering:auto;text-rendering:auto;enable-background:accumulate;stop-color:#000000;stop-opacity:1"
       d="m 59.103516,87.951172 c -4.940221,0.162894 -9.877001,0.487757 -14.794922,0.982422 -5.78041,0.581446 -12.067015,1.431932 -17.619141,4.753906 -2.788913,1.668665 -5.31844,3.956348 -7.080078,6.88086 -1.772598,2.9435 -2.692895,6.47323 -2.236328,10.03906 0.341669,2.66539 1.423362,5.12349 2.958984,7.19727 1.530709,2.06663 3.478222,3.72202 5.589844,4.99023 4.211906,2.52978 8.92675,3.48685 13.382813,3.9707 14.29644,1.55247 28.261501,-1.42207 41.78125,-3.12304 1.015939,-0.12782 2.035162,-0.22692 3.052734,-0.3418 l -5.716797,-4.11719 v -0.90429 c -13.150239,1.74213 -26.013687,4.20981 -38.503906,2.85351 -4.061481,-0.44104 -7.949181,-1.31394 -11.082031,-3.19531 -1.560567,-0.93736 -2.930259,-2.13187 -3.949219,-3.50781 -1.01367,-1.3688 -1.693524,-2.96326 -1.896485,-4.54688 -0.270236,-2.10896 0.297728,-4.43512 1.476563,-6.39258 1.190173,-1.97644 3.010166,-3.668636 5.130859,-4.937496 4.267087,-2.553074 9.674636,-3.414784 15.279297,-3.978515 4.791307,-0.481935 9.597306,-0.802235 14.410156,-0.960938 z"
       transform="matrix(0.26458333,0,0,0.26458333,-1283.9481,-1.5869832)"
       sodipodi:nodetypes="ccscccccscccscsccsscc" />
    <path
       id="path4272"
       style="color:#000000;font-style:normal;font-variant:normal;font-weight:normal;font-stretch:normal;font-size:medium;line-height:normal;font-family:sans-serif;font-variant-ligatures:normal;font-variant-position:normal;font-variant-caps:normal;font-variant-numeric:normal;font-variant-alternates:normal;font-variant-east-asian:normal;font-feature-settings:normal;font-variation-settings:normal;text-indent:0;text-align:start;text-decoration:none;text-decoration-line:none;text-decoration-style:solid;text-decoration-color:#000000;letter-spacing:normal;word-spacing:normal;text-transform:none;writing-mode:lr-tb;direction:ltr;text-orientation:mixed;dominant-baseline:auto;baseline-shift:baseline;text-anchor:start;white-space:normal;shape-padding:0;shape-margin:0;inline-size:0;clip-rule:nonzero;display:inline;overflow:visible;visibility:visible;opacity:1;isolation:auto;mix-blend-mode:normal;color-interpolation:sRGB;color-interpolation-filters:linearRGB;solid-color:#000000;solid-opacity:1;vector-effect:none;fill:#363636;fill-opacity:1;fill-rule:nonzero;stroke:none;stroke-width:5.66929;stroke-linecap:butt;stroke-linejoin:miter;stroke-miterlimit:4;stroke-dasharray:none;stroke-dashoffset:0;stroke-opacity:1;color-rendering:auto;image-rendering:auto;shape-rendering:auto;text-rendering:auto;enable-background:accumulate;stop-color:#000000;stop-opacity:1"
       d="m 48.673828,66.958984 c -2.313303,0.04098 -4.621191,0.299022 -6.888672,0.773438 -6.872693,1.438216 -13.145598,4.805697 -18.455078,9.138672 -5.301921,4.32633 -9.655442,9.587258 -13.3828124,15.11914 -3.776126,5.604106 -7.117731,11.804226 -8.6601562,18.705076 -1.55036223,6.93776 -1.15962084,14.57898 2.3398437,21.10547 3.3543307,6.25577 9.1469789,10.70133 15.4296879,13.33203 v 0.006 c 6.252094,2.61774 12.927508,3.51741 19.398437,3.7793 20.38715,0.82515 40.037945,-4.45963 59.460938,-6.64258 3.284034,-0.36911 6.580704,-0.63378 9.880864,-0.83398 -0.0302,-1.89817 0.0311,-3.79979 0.18359,-5.69727 -3.57051,0.20603 -7.13639,0.49106 -10.691408,0.89063 -19.992566,2.24695 -39.361248,7.40192 -58.605468,6.62304 -6.09411,-0.24665 -12.088272,-1.11272 -17.435547,-3.35156 C 15.932141,137.68035 11.212843,133.94749 8.625,129.12109 5.9260394,124.08776 5.5142345,117.79089 6.8242188,111.92773 8.1428959,106.02768 11.095304,100.4299 14.648438,95.15625 c 3.511937,-5.211923 7.533783,-10.02817 12.269531,-13.892578 4.727433,-3.857753 10.217768,-6.765226 16.02539,-7.980469 3.066331,-0.641654 6.23465,-0.820289 9.353516,-0.523437 l 0.539063,-5.640625 c -1.383591,-0.131694 -2.774128,-0.184745 -4.16211,-0.160157 z"
       transform="matrix(0.26458333,0,0,0.26458333,-1283.9481,-1.5869832)"
       sodipodi:nodetypes="sccccscccscccsccccccccs" />
    <path
       id="path4276"
       style="color:#000000;font-style:normal;font-variant:normal;font-weight:normal;font-stretch:normal;font-size:medium;line-height:normal;font-family:sans-serif;font-variant-ligatures:normal;font-variant-position:normal;font-variant-caps:normal;font-variant-numeric:normal;font-variant-alternates:normal;font-variant-east-asian:normal;font-feature-settings:normal;font-variation-settings:normal;text-indent:0;text-align:start;text-decoration:none;text-decoration-line:none;text-decoration-style:solid;text-decoration-color:#000000;letter-spacing:normal;word-spacing:normal;text-transform:none;writing-mode:lr-tb;direction:ltr;text-orientation:mixed;dominant-baseline:auto;baseline-shift:baseline;text-anchor:start;white-space:normal;shape-padding:0;shape-margin:0;inline-size:0;clip-rule:nonzero;display:inline;overflow:visible;visibility:visible;opacity:1;isolation:auto;mix-blend-mode:normal;color-interpolation:sRGB;color-interpolation-filters:linearRGB;solid-color:#000000;solid-opacity:1;vector-effect:none;fill:#363636;fill-opacity:1;fill-rule:nonzero;stroke:none;stroke-width:5.66929;stroke-linecap:butt;stroke-linejoin:miter;stroke-miterlimit:4;stroke-dasharray:none;stroke-dashoffset:0;stroke-opacity:1;color-rendering:auto;image-rendering:auto;shape-rendering:auto;text-rendering:auto;enable-background:accumulate;stop-color:#000000;stop-opacity:1"
       d="m 53.605469,83.083984 c -3.135668,-0.03188 -6.272643,0.07153 -9.400391,0.306641 -6.364724,0.47839 -12.899912,1.524636 -19.037109,4.132813 -6.161386,2.618793 -11.880901,6.881912 -15.4355471,12.875002 -3.7114961,6.25667 -4.6966982,14.02991 -2.3613281,20.99414 1.679244,5.0085 4.9279172,9.28228 8.8945312,12.52539 3.95452,3.23369 8.564212,5.43755 13.287109,6.90234 10.330583,3.20405 21.220199,2.94516 31.550782,1.53516 10.319622,-1.40847 22.108664,-5.10003 32.013672,-6.57422 2.368201,-0.35245 4.744135,-0.64816 7.126952,-0.88672 l -6.783202,-4.88476 c -0.393065,0.0554 -0.787069,0.10367 -1.179688,0.16211 -10.278803,1.52982 -22.047171,5.21522 -31.947266,6.5664 -9.888378,1.34965 -19.946981,1.51302 -29.107422,-1.32812 -4.176755,-1.29539 -8.116669,-3.21839 -11.375,-5.88282 -3.24737,-2.655 -5.826225,-6.11184 -7.109374,-9.9375 -1.76693,-5.27063 -1.004876,-11.45683 1.867187,-16.29882 2.78589,-4.696774 7.494886,-8.306197 12.771484,-10.548832 5.301922,-2.253257 11.215417,-3.251966 17.244141,-3.705079 3.955654,-0.297335 7.92861,-0.368481 11.892578,-0.214843 l 0.222656,-5.66211 c -1.044756,-0.04049 -2.089543,-0.06555 -3.134765,-0.07617 z"
       transform="matrix(0.26458333,0,0,0.26458333,-1283.9481,-1.5869832)"
       sodipodi:nodetypes="scccccccsccccccccccccs" />
    <path
       id="rect4320"
       style="fill:#363636;fill-opacity:1;stroke:none;stroke-width:3;stroke-miterlimit:4;stroke-dasharray:none;stroke-opacity:0.525089"
       d="m -1186.6916,131.83278 h -23.9446 v -5.29167 h 23.9446 23.9446 v 5.29167 z"
       sodipodi:nodetypes="cccc"
       inkscape:path-effect="#path-effect4337"
       inkscape:original-d="m -1186.6916,131.83278 h -23.9446 v -5.29167 h 23.9446" />
    <path
       style="fill:#363636;fill-opacity:1;stroke:none;stroke-width:0.264583px;stroke-linecap:butt;stroke-linejoin:miter;stroke-opacity:1"
       d="m -1186.6916,133.15567 h -28.6118 l -5.3273,5.32043 h -14.837 l -3.101,1.79749 h 51.8771 51.8771 l -3.101,-1.79749 h -14.837 l -5.3273,-5.32043 z"
       id="path4329"
       sodipodi:nodetypes="cccccc"
       inkscape:path-effect="#path-effect4339"
       inkscape:original-d="m -1186.6916,133.15567 h -28.6118 l -5.3273,5.32043 h -14.837 l -3.101,1.79749 h 51.8771" />
    <path
       sodipodi:nodetypes="cccc"
       d="m -1186.6913,152.47028 h 65.2197 l -10e-5,2.91041 h -65.2197 -65.2197 l -10e-5,-2.91041 h 65.2197"
       style="fill:#363636;fill-opacity:1;stroke:none;stroke-width:3.00001;stroke-miterlimit:4;stroke-dasharray:none;stroke-opacity:0.525089"
       id="path4331"
       inkscape:path-effect="#path-effect4343"
       inkscape:original-d="m -1186.6914,155.38069 h -65.2197 l -10e-5,-2.91041 h 65.2197" />
    <path
       style="fill:#363636;stroke:none;stroke-width:0.264583px;stroke-linecap:butt;stroke-linejoin:miter;stroke-opacity:1;fill-opacity:1"
       d="m -1186.6564,151.14736 h 61.6354 l -2.5522,-9.525 h -59.1007 -59.1007 l -2.5522,9.525 h 61.6354"
       id="path4333"
       inkscape:path-effect="#path-effect4341"
       inkscape:original-d="m -1186.6739,141.62236 h -59.1007 l -2.5522,9.525 h 61.6354" />
  </g>
</svg>
