<?xml version="1.0" encoding="UTF-8" standalone="no"?>
<svg
   xmlns:dc="http://purl.org/dc/elements/1.1/"
   xmlns:cc="http://creativecommons.org/ns#"
   xmlns:rdf="http://www.w3.org/1999/02/22-rdf-syntax-ns#"
   xmlns:svg="http://www.w3.org/2000/svg"
   xmlns="http://www.w3.org/2000/svg"
   xmlns:sodipodi="http://sodipodi.sourceforge.net/DTD/sodipodi-0.dtd"
   xmlns:inkscape="http://www.inkscape.org/namespaces/inkscape"
   width="217.42551mm"
   height="39.150021mm"
   viewBox="0 0 217.42551 39.15002"
   version="1.1"
   id="svg8"
   inkscape:version="1.0.1 (3bc2e813f5, 2020-09-07)"
   sodipodi:docname="leapmotion.svg">
  <defs
     id="defs2" />
  <sodipodi:namedview
     inkscape:object-paths="true"
     inkscape:bbox-nodes="true"
     inkscape:snap-global="true"
     id="base"
     pagecolor="#ffffff"
     bordercolor="#666666"
     borderopacity="1.0"
     inkscape:pageopacity="0.0"
     inkscape:pageshadow="2"
     inkscape:zoom="1.4142136"
     inkscape:cx="565.01913"
     inkscape:cy="55.359498"
     inkscape:document-units="mm"
     inkscape:current-layer="layer1"
     showgrid="false"
     inkscape:snap-smooth-nodes="true"
     showguides="true"
     inkscape:guide-bbox="true"
     inkscape:snap-page="true"
     inkscape:snap-to-guides="true"
     inkscape:snap-grids="true"
     inkscape:window-width="1366"
     inkscape:window-height="713"
     inkscape:window-x="0"
     inkscape:window-y="0"
     inkscape:window-maximized="1"
     fit-margin-top="0"
     fit-margin-left="0"
     fit-margin-right="0"
     fit-margin-bottom="0"
     inkscape:document-rotation="0"
     inkscape:snap-bbox="true"
     inkscape:snap-bbox-midpoints="true"
     inkscape:snap-intersection-paths="false"
     inkscape:snap-nodes="true"
     inkscape:snap-object-midpoints="true">
    <inkscape:grid
       type="axonomgrid"
       id="grid815"
       units="mm"
       empspacing="10"
       spacingy="1.25"
       originx="-42.017576"
       originy="-121.73997" />
    <sodipodi:guide
       id="guide1725"
       orientation="0,-1"
       position="53.339381,26.780749" />
    <sodipodi:guide
       id="guide1727"
       orientation="0,-1"
       position="54.100058,9.5166868" />
    <sodipodi:guide
       id="guide2038"
       orientation="0,-1"
       position="45.980658,26.779716" />
    <sodipodi:guide
       id="guide2040"
       orientation="0,-1"
       position="45.980658,9.5161715" />
  </sodipodi:namedview>
  <metadata
     id="metadata5">
    <rdf:RDF>
      <cc:Work
         rdf:about="">
        <dc:format>image/svg+xml</dc:format>
        <dc:type
           rdf:resource="http://purl.org/dc/dcmitype/StillImage" />
        <dc:title />
      </cc:Work>
    </rdf:RDF>
  </metadata>
  <g
     inkscape:label="1. réteg"
     inkscape:groupmode="layer"
     id="layer1"
     transform="translate(-42.017578,-153.73919)">
    <path
       transform="matrix(0.26458333,0,0,0.26458333,42.017578,153.73919)"
       d="M 8.5039062 46.753906 L 0 55.257812 L 0 103.49805 L 8.5039062 112.00195 L 29.427734 112.00195 L 28.041016 109.40234 A 11.336344 11.336344 0 0 1 20.837891 100.66406 L 17.007812 100.66406 L 11.337891 94.994141 L 11.337891 63.761719 L 17.007812 58.091797 L 56.429688 58.091797 A 11.336344 11.336344 0 0 1 56.027344 56.361328 A 11.336344 11.336344 0 0 1 57.507812 48.853516 L 57.117188 46.753906 L 8.5039062 46.753906 z M 147.92383 46.753906 A 11.336344 11.336344 0 0 1 144.11328 56.042969 L 143.92969 57.503906 A 11.336344 11.336344 0 0 1 144.30273 58.091797 L 165.28125 58.091797 L 170.94922 63.761719 L 170.94922 94.994141 L 165.28125 100.66406 L 138.55664 100.66406 L 138.54297 112.00195 L 173.78516 112.00195 L 182.28906 103.49805 L 182.28906 55.257812 L 173.78516 46.753906 L 147.92383 46.753906 z M 43.195312 100.66406 A 11.336344 11.336344 0 0 1 43.046875 101.39844 L 48.697266 112.00195 L 66.648438 112.00195 L 65.339844 100.66406 L 43.195312 100.66406 z "
       style="color:#000000;font-style:normal;font-variant:normal;font-weight:normal;font-stretch:normal;font-size:medium;line-height:normal;font-family:sans-serif;font-variant-ligatures:normal;font-variant-position:normal;font-variant-caps:normal;font-variant-numeric:normal;font-variant-alternates:normal;font-variant-east-asian:normal;font-feature-settings:normal;font-variation-settings:normal;text-indent:0;text-align:start;text-decoration:none;text-decoration-line:none;text-decoration-style:solid;text-decoration-color:#000000;letter-spacing:normal;word-spacing:normal;text-transform:none;writing-mode:lr-tb;direction:ltr;text-orientation:mixed;dominant-baseline:auto;baseline-shift:baseline;text-anchor:start;white-space:normal;shape-padding:0;shape-margin:0;inline-size:0;clip-rule:nonzero;display:inline;overflow:visible;visibility:visible;opacity:1;isolation:auto;mix-blend-mode:normal;color-interpolation:sRGB;color-interpolation-filters:linearRGB;solid-color:#000000;solid-opacity:1;vector-effect:none;fill:#363636;fill-opacity:1;fill-rule:nonzero;stroke:none;stroke-width:17.0079;stroke-linecap:butt;stroke-linejoin:bevel;stroke-miterlimit:4;stroke-dasharray:none;stroke-dashoffset:0;stroke-opacity:1;color-rendering:auto;image-rendering:auto;shape-rendering:auto;text-rendering:auto;enable-background:accumulate;stop-color:#000000;stop-opacity:1"
       id="path1885" />
    <g
       aria-label="LEAP MOTION"
       id="text852"
       style="font-style:normal;font-variant:normal;font-weight:normal;font-stretch:normal;font-size:22.6549px;line-height:1.25;font-family:'Libre Franklin';-inkscape-font-specification:'Libre Franklin';letter-spacing:0px;word-spacing:0px;fill:#363636;fill-opacity:1;stroke:none;stroke-width:0.264583">
      <path
         d="m 102.64163,166.65321 v 16.1756 c 0,0.22655 0.068,0.31717 0.31717,0.31717 h 9.92285 c 0.18124,0 0.27186,-0.0906 0.27186,-0.2492 v -1.20071 c 0,-0.18124 -0.0906,-0.22655 -0.27186,-0.22655 h -7.8386 c -0.18124,0 -0.22655,-0.0453 -0.22655,-0.22655 v -14.61241 c 0,-0.2039 -0.068,-0.29451 -0.27186,-0.29451 h -1.63115 c -0.18124,0 -0.27186,0.0906 -0.27186,0.31716 z"
         style="font-style:normal;font-variant:normal;font-weight:normal;font-stretch:normal;font-family:'Libre Franklin';-inkscape-font-specification:'Libre Franklin';fill:#363636;fill-opacity:1;stroke-width:0.264583"
         id="path5185" />
      <path
         d="m 116.27987,166.65321 v 16.1756 c 0,0.22655 0.068,0.31717 0.31716,0.31717 h 10.3986 c 0.18124,0 0.24921,-0.0906 0.24921,-0.2492 v -1.20071 c 0,-0.18124 -0.068,-0.22655 -0.24921,-0.22655 h -8.31435 c -0.18123,0 -0.22654,-0.0453 -0.22654,-0.22655 v -5.50514 c 0,-0.18124 0.068,-0.24921 0.2492,-0.24921 h 5.86762 c 0.18124,0 0.2492,-0.068 0.2492,-0.20389 v -1.20071 c 0,-0.18124 -0.068,-0.2492 -0.2492,-0.2492 h -5.86762 c -0.18124,0 -0.2492,-0.068 -0.2492,-0.24921 v -5.30124 c 0,-0.22655 0.068,-0.27186 0.29451,-0.27186 h 7.90656 c 0.20389,0 0.29451,-0.0906 0.29451,-0.27186 v -1.1554 c 0,-0.15859 -0.068,-0.2492 -0.22655,-0.2492 h -10.17205 c -0.20389,0 -0.27185,0.0906 -0.27185,0.31716 z"
         style="font-style:normal;font-variant:normal;font-weight:normal;font-stretch:normal;font-family:'Libre Franklin';-inkscape-font-specification:'Libre Franklin';fill:#363636;fill-opacity:1;stroke-width:0.264583"
         id="path5187" />
      <path
         d="m 129.5556,183.14598 h 1.35929 c 0.18124,0 0.29452,-0.068 0.33983,-0.20389 l 1.60849,-4.41771 c 0.0453,-0.13593 0.11328,-0.18124 0.27186,-0.18124 h 6.59258 c 0.18124,0 0.22655,0.068 0.27186,0.18124 l 1.56319,4.39505 c 0.068,0.15859 0.18124,0.22655 0.36247,0.22655 h 1.6085 c 0.2039,0 0.27186,-0.18124 0.22655,-0.38513 l -5.79965,-16.08498 c -0.068,-0.22655 -0.24921,-0.33982 -0.52107,-0.33982 h -1.76708 c -0.27186,0 -0.36248,0.0906 -0.4531,0.31716 l -5.86761,16.10764 c -0.0906,0.2492 0.0226,0.38513 0.20389,0.38513 z m 4.10054,-6.52461 c -0.18124,0 -0.22655,-0.068 -0.13593,-0.2492 l 2.76389,-7.49878 c 0.0906,-0.27185 0.2039,-0.27185 0.31717,0 l 2.71859,7.45347 c 0.0453,0.18124 0.0227,0.29451 -0.18124,0.29451 z"
         style="font-style:normal;font-variant:normal;font-weight:normal;font-stretch:normal;font-family:'Libre Franklin';-inkscape-font-specification:'Libre Franklin';fill:#363636;fill-opacity:1;stroke-width:0.264583"
         id="path5189" />
      <path
         d="m 159.18819,171.2295 c 0,-3.44354 -2.67327,-4.89345 -6.23009,-4.89345 h -5.70904 c -0.20389,0 -0.27186,0.0906 -0.27186,0.31716 v 16.19826 c 0,0.20389 0.0906,0.29451 0.29452,0.29451 h 1.54053 c 0.22655,0 0.33982,-0.0906 0.33982,-0.33982 v -6.4793 c 0,-0.13593 0.0453,-0.2039 0.2039,-0.2039 h 3.85133 c 3.48886,0 5.98089,-1.54053 5.98089,-4.89346 z m -2.22018,-0.068 c 0,2.28814 -1.56318,3.30761 -3.9646,3.30761 h -3.64744 c -0.15859,0 -0.2039,-0.0906 -0.2039,-0.31716 v -5.89028 c 0,-0.20389 0.0906,-0.27186 0.29452,-0.27186 h 3.39823 c 2.5147,0 4.12319,0.83823 4.12319,3.17169 z"
         style="font-style:normal;font-variant:normal;font-weight:normal;font-stretch:normal;font-family:'Libre Franklin';-inkscape-font-specification:'Libre Franklin';fill:#363636;fill-opacity:1;stroke-width:0.264583"
         id="path5191" />
      <path
         d="m 167.79698,183.14598 h 1.22337 c 0.22655,0 0.31716,-0.068 0.31716,-0.29451 v -12.82268 c 0,-0.13593 0.068,-0.13593 0.11328,0 l 4.91611,12.84533 c 0.068,0.18124 0.2039,0.27186 0.4531,0.27186 h 1.08744 c 0.22654,0 0.33982,-0.0906 0.43044,-0.29451 l 4.98408,-12.95861 c 0.0453,-0.11327 0.11327,-0.15858 0.11327,0 v 12.95861 c 0,0.20389 0.0906,0.29451 0.33982,0.29451 h 1.49523 c 0.22655,0 0.33982,-0.0906 0.33982,-0.33982 v -16.1756 c 0,-0.2039 -0.068,-0.29451 -0.2492,-0.29451 h -2.28815 c -0.18124,0 -0.29451,0.0906 -0.33982,0.29451 l -5.02939,12.91329 c -0.13593,0.29452 -0.2492,0.29452 -0.36248,0.0227 l -5.02938,-12.98126 c -0.068,-0.18124 -0.13593,-0.2492 -0.38514,-0.2492 h -2.17487 c -0.20389,0 -0.27186,0.068 -0.27186,0.31716 v 16.15295 c 0,0.22655 0.0906,0.33982 0.31717,0.33982 z"
         style="font-style:normal;font-variant:normal;font-weight:normal;font-stretch:normal;font-family:'Libre Franklin';-inkscape-font-specification:'Libre Franklin';fill:#363636;fill-opacity:1;stroke-width:0.264583"
         id="path5193" />
      <path
         d="m 194.46176,183.37253 c 4.46301,0 7.1816,-3.10372 7.1816,-8.58621 0,-5.52779 -2.74124,-8.67682 -7.15895,-8.67682 -4.44036,0 -7.20425,3.14903 -7.20425,8.69948 0,5.48248 2.71858,8.56355 7.1816,8.56355 z m 0.0453,-1.65381 c -3.28496,0 -4.96142,-2.19752 -4.96142,-6.90974 0,-4.78019 1.67646,-7.04568 4.93876,-7.04568 3.217,0 4.89346,2.24284 4.89346,7.04568 0,4.71222 -1.63115,6.90974 -4.8708,6.90974 z"
         style="font-style:normal;font-variant:normal;font-weight:normal;font-stretch:normal;font-family:'Libre Franklin';-inkscape-font-specification:'Libre Franklin';fill:#363636;fill-opacity:1;stroke-width:0.264583"
         id="path5195" />
      <path
         d="m 202.82141,167.7633 c 0,0.18124 0.0906,0.22655 0.27186,0.22655 h 4.93877 c 0.18124,0 0.22655,0.0453 0.22655,0.24921 v 14.61241 c 0,0.22655 0.0906,0.29451 0.27185,0.29451 h 1.63116 c 0.18124,0 0.27186,-0.068 0.27186,-0.29451 V 168.2164 c 0,-0.18124 0.068,-0.22655 0.2492,-0.22655 h 4.59894 c 0.18124,0 0.27186,-0.0453 0.27186,-0.22655 v -1.17805 c 0,-0.15859 -0.0906,-0.2492 -0.27186,-0.2492 h -12.18833 c -0.2039,0 -0.27186,0.0906 -0.27186,0.2492 z"
         style="font-style:normal;font-variant:normal;font-weight:normal;font-stretch:normal;font-family:'Libre Franklin';-inkscape-font-specification:'Libre Franklin';fill:#363636;fill-opacity:1;stroke-width:0.264583"
         id="path5197" />
      <path
         d="m 218.95167,166.33605 c -0.18124,0 -0.27186,0.0906 -0.27186,0.31716 v 16.1756 c 0,0.22655 0.068,0.31717 0.33982,0.31717 h 1.42726 c 0.31717,0 0.40779,-0.0906 0.40779,-0.38513 v -16.13029 c 0,-0.2039 -0.068,-0.29451 -0.27186,-0.29451 z"
         style="font-style:normal;font-variant:normal;font-weight:normal;font-stretch:normal;font-family:'Libre Franklin';-inkscape-font-specification:'Libre Franklin';fill:#363636;fill-opacity:1;stroke-width:0.264583"
         id="path5199" />
      <path
         d="m 231.70635,183.37253 c 4.46301,0 7.1816,-3.10372 7.1816,-8.58621 0,-5.52779 -2.74124,-8.67682 -7.15895,-8.67682 -4.44036,0 -7.20425,3.14903 -7.20425,8.69948 0,5.48248 2.71858,8.56355 7.1816,8.56355 z m 0.0453,-1.65381 c -3.28496,0 -4.96142,-2.19752 -4.96142,-6.90974 0,-4.78019 1.67646,-7.04568 4.93876,-7.04568 3.217,0 4.89346,2.24284 4.89346,7.04568 0,4.71222 -1.63115,6.90974 -4.8708,6.90974 z"
         style="font-style:normal;font-variant:normal;font-weight:normal;font-stretch:normal;font-family:'Libre Franklin';-inkscape-font-specification:'Libre Franklin';fill:#363636;fill-opacity:1;stroke-width:0.264583"
         id="path5201" />
      <path
         d="m 253.72691,166.33605 c -0.20389,0 -0.27186,0.0906 -0.27186,0.27185 v 12.32427 c 0,0.20389 -0.15858,0.29451 -0.33982,0.068 l -8.49559,-12.43754 c -0.13593,-0.18123 -0.22655,-0.22654 -0.47575,-0.22654 h -1.29133 c -0.22655,0 -0.29452,0.068 -0.29452,0.31716 v 16.19826 c 0,0.20389 0.0906,0.29451 0.29452,0.29451 h 1.26867 c 0.22655,0 0.31717,-0.0906 0.31717,-0.29451 V 170.278 c 0,-0.18124 0.11328,-0.22655 0.24921,-0.0227 l 8.74479,12.7094 c 0.13593,0.18124 0.27186,0.18124 0.47575,0.18124 h 1.11009 c 0.18124,0 0.29451,-0.0906 0.29451,-0.27186 V 166.6079 c 0,-0.20389 -0.068,-0.27185 -0.2492,-0.27185 z"
         style="font-style:normal;font-variant:normal;font-weight:normal;font-stretch:normal;font-family:'Libre Franklin';-inkscape-font-specification:'Libre Franklin';fill:#363636;fill-opacity:1;stroke-width:0.264583"
         id="path5203" />
    </g>
    <path
       sodipodi:nodetypes="ccccccc"
       style="fill:none;stroke:#363636;stroke-width:1.5;stroke-linecap:butt;stroke-linejoin:miter;stroke-miterlimit:4;stroke-dasharray:none;stroke-opacity:1"
       d="m 76.41504,189.42745 0.01807,-13.61415 -5.165027,-1.92119 -5.429097,-0.0224 -4.902601,1.0042 1.903173,16.51531 z"
       id="path1055" />
    <path
       style="fill:none;stroke:#363636;stroke-width:1.5;stroke-linecap:butt;stroke-linejoin:miter;stroke-miterlimit:4;stroke-dasharray:none;stroke-opacity:1"
       d="m 62.839558,191.38921 -5.469796,-3.00494 -3.967549,-3.04264 -2.913509,-5.46512"
       id="path1057"
       sodipodi:nodetypes="cccc" />
    <path
       style="fill:none;stroke:#363636;stroke-width:1.5;stroke-linecap:butt;stroke-linejoin:miter;stroke-miterlimit:4;stroke-dasharray:none;stroke-opacity:1"
       d="m 60.936385,174.8739 -1.129044,-6.66984 -0.948922,-5.10848 -1.129316,-5.29252"
       id="path1059"
       sodipodi:nodetypes="cccc" />
    <path
       sodipodi:nodetypes="cccc"
       style="fill:none;stroke:#363636;stroke-width:1.5;stroke-linecap:butt;stroke-linejoin:miter;stroke-miterlimit:4;stroke-dasharray:none;stroke-opacity:1"
       d="m 65.838986,173.8697 0.168122,-6.87048 0.01895,-5.70937 -0.43604,-6.05066"
       id="path1061" />
    <path
       style="fill:none;stroke:#363636;stroke-width:1.5;stroke-linecap:butt;stroke-linejoin:miter;stroke-miterlimit:4;stroke-dasharray:none;stroke-opacity:1"
       d="m 71.268083,173.89211 0.785313,-5.38389 0.445664,-5.17203 0.166596,-5.26267"
       id="path1063"
       sodipodi:nodetypes="cccc" />
    <path
       style="fill:none;stroke:#363636;stroke-width:1.5;stroke-linecap:butt;stroke-linejoin:miter;stroke-miterlimit:4;stroke-dasharray:none;stroke-opacity:1"
       d="m 76.43311,175.8133 1.187591,-5.17026 0.543549,-4.32506 0.127513,-4.06867"
       id="path1065"
       sodipodi:nodetypes="cccc" />
    <circle
       style="fill:#ffffff;fill-opacity:1;stroke:#ffa500;stroke-width:1.5;stroke-linecap:round;stroke-linejoin:bevel;stroke-miterlimit:4;stroke-dasharray:none;stroke-opacity:1"
       id="path1067"
       cx="-41.011147"
       cy="190.24411"
       r="1.822644"
       transform="matrix(-0.98881901,0.14912066,0.14912066,0.98881901,0,0)" />
    <circle
       r="1.5"
       cy="182.00552"
       cx="-34.17775"
       id="circle1069"
       style="fill:#ffa500;fill-opacity:1;stroke:none;stroke-width:1.5;stroke-linecap:round;stroke-linejoin:bevel;stroke-miterlimit:4;stroke-dasharray:none;stroke-opacity:1"
       transform="matrix(-0.98881901,0.14912066,0.14912066,0.98881901,0,0)" />
    <circle
       r="1.5"
       style="fill:#ffa500;fill-opacity:1;stroke:none;stroke-width:1.5;stroke-linecap:round;stroke-linejoin:bevel;stroke-miterlimit:4;stroke-dasharray:none;stroke-opacity:1"
       id="circle1071"
       cx="-34.055931"
       cy="175.2419"
       transform="matrix(-0.98881901,0.14912066,0.14912066,0.98881901,0,0)" />
    <circle
       r="1.5"
       cy="170.04901"
       cx="-33.879402"
       id="circle1073"
       style="fill:#ffa500;fill-opacity:1;stroke:none;stroke-width:1.5;stroke-linecap:round;stroke-linejoin:bevel;stroke-miterlimit:4;stroke-dasharray:none;stroke-opacity:1"
       transform="matrix(-0.98881901,0.14912066,0.14912066,0.98881901,0,0)" />
    <circle
       r="1.5"
       style="fill:#ffa500;fill-opacity:1;stroke:none;stroke-width:1.5;stroke-linecap:round;stroke-linejoin:bevel;stroke-miterlimit:4;stroke-dasharray:none;stroke-opacity:1"
       id="circle1075"
       cx="-33.551941"
       cy="164.64728"
       transform="matrix(-0.98881901,0.14912066,0.14912066,0.98881901,0,0)" />
    <circle
       r="1.5"
       style="fill:#ffa500;fill-opacity:1;stroke:none;stroke-width:1.5;stroke-linecap:round;stroke-linejoin:bevel;stroke-miterlimit:4;stroke-dasharray:none;stroke-opacity:1"
       id="circle1077"
       cx="-39.175301"
       cy="181.74361"
       transform="matrix(-0.98881901,0.14912066,0.14912066,0.98881901,0,0)" />
    <circle
       r="1.5"
       cy="174.97504"
       cx="-40.366035"
       id="circle1079"
       style="fill:#ffa500;fill-opacity:1;stroke:none;stroke-width:1.5;stroke-linecap:round;stroke-linejoin:bevel;stroke-miterlimit:4;stroke-dasharray:none;stroke-opacity:1"
       transform="matrix(-0.98881901,0.14912066,0.14912066,0.98881901,0,0)" />
    <circle
       r="1.5"
       style="fill:#ffa500;fill-opacity:1;stroke:none;stroke-width:1.5;stroke-linecap:round;stroke-linejoin:bevel;stroke-miterlimit:4;stroke-dasharray:none;stroke-opacity:1"
       id="circle1081"
       cx="-41.236176"
       cy="169.33235"
       transform="matrix(-0.98881901,0.14912066,0.14912066,0.98881901,0,0)" />
    <circle
       r="1.5"
       cy="163.28429"
       cx="-41.707275"
       id="circle1083"
       style="fill:#ffa500;fill-opacity:1;stroke:none;stroke-width:1.5;stroke-linecap:round;stroke-linejoin:bevel;stroke-miterlimit:4;stroke-dasharray:none;stroke-opacity:1"
       transform="matrix(-0.98881901,0.14912066,0.14912066,0.98881901,0,0)" />
    <circle
       r="1.5"
       style="fill:#ffa500;fill-opacity:1;stroke:none;stroke-width:1.5;stroke-linecap:round;stroke-linejoin:bevel;stroke-miterlimit:4;stroke-dasharray:none;stroke-opacity:1"
       id="circle1085"
       cx="-44.540337"
       cy="182.57538"
       transform="matrix(-0.98881901,0.14912066,0.14912066,0.98881901,0,0)" />
    <circle
       r="1.5"
       cy="177.36879"
       cx="-46.119705"
       id="circle1087"
       style="fill:#ffa500;fill-opacity:1;stroke:none;stroke-width:1.5;stroke-linecap:round;stroke-linejoin:bevel;stroke-miterlimit:4;stroke-dasharray:none;stroke-opacity:1"
       transform="matrix(-0.98881901,0.14912066,0.14912066,0.98881901,0,0)" />
    <circle
       r="1.5"
       style="fill:#ffa500;fill-opacity:1;stroke:none;stroke-width:1.5;stroke-linecap:round;stroke-linejoin:bevel;stroke-miterlimit:4;stroke-dasharray:none;stroke-opacity:1"
       id="circle1089"
       cx="-47.331657"
       cy="172.32103"
       transform="matrix(-0.98881901,0.14912066,0.14912066,0.98881901,0,0)" />
    <circle
       r="1.5"
       cy="167.14206"
       cx="-48.281166"
       id="circle1091"
       style="fill:#ffa500;fill-opacity:1;stroke:none;stroke-width:1.5;stroke-linecap:round;stroke-linejoin:bevel;stroke-miterlimit:4;stroke-dasharray:none;stroke-opacity:1"
       transform="matrix(-0.98881901,0.14912066,0.14912066,0.98881901,0,0)" />
    <circle
       r="1.5"
       style="fill:#ffa500;fill-opacity:1;stroke:none;stroke-width:1.5;stroke-linecap:round;stroke-linejoin:bevel;stroke-miterlimit:4;stroke-dasharray:none;stroke-opacity:1"
       id="circle1093"
       cx="-49.361115"
       cy="185.2453"
       transform="matrix(-0.98881901,0.14912066,0.14912066,0.98881901,0,0)" />
    <circle
       r="1.5"
       cy="180.30995"
       cx="-51.306419"
       id="circle1095"
       style="fill:#ffa500;fill-opacity:1;stroke:none;stroke-width:1.5;stroke-linecap:round;stroke-linejoin:bevel;stroke-miterlimit:4;stroke-dasharray:none;stroke-opacity:1"
       transform="matrix(-0.98881901,0.14912066,0.14912066,0.98881901,0,0)" />
    <circle
       r="1.5"
       style="fill:#ffa500;fill-opacity:1;stroke:none;stroke-width:1.5;stroke-linecap:round;stroke-linejoin:bevel;stroke-miterlimit:4;stroke-dasharray:none;stroke-opacity:1"
       id="circle1097"
       cx="-52.488869"
       cy="176.1143"
       transform="matrix(-0.98881901,0.14912066,0.14912066,0.98881901,0,0)" />
    <circle
       r="1.5"
       cy="172.11014"
       cx="-53.221672"
       id="circle1099"
       style="fill:#ffa500;fill-opacity:1;stroke:none;stroke-width:1.5;stroke-linecap:round;stroke-linejoin:bevel;stroke-miterlimit:4;stroke-dasharray:none;stroke-opacity:1"
       transform="matrix(-0.98881901,0.14912066,0.14912066,0.98881901,0,0)" />
    <circle
       r="1.5"
       style="fill:#ffa500;fill-opacity:1;stroke:none;stroke-width:1.5;stroke-linecap:round;stroke-linejoin:bevel;stroke-miterlimit:4;stroke-dasharray:none;stroke-opacity:1"
       id="circle1101"
       cx="-33.59687"
       cy="198.61996"
       transform="matrix(-0.98881901,0.14912066,0.14912066,0.98881901,0,0)" />
    <circle
       r="1.5"
       cy="198.70453"
       cx="-47.313103"
       id="circle1103"
       style="fill:#ffa500;fill-opacity:1;stroke:none;stroke-width:1.5;stroke-linecap:round;stroke-linejoin:bevel;stroke-miterlimit:4;stroke-dasharray:none;stroke-opacity:1"
       transform="matrix(-0.98881901,0.14912066,0.14912066,0.98881901,0,0)" />
    <circle
       r="1.5"
       style="fill:#ffa500;fill-opacity:1;stroke:none;stroke-width:1.5;stroke-linecap:round;stroke-linejoin:bevel;stroke-miterlimit:4;stroke-dasharray:none;stroke-opacity:1"
       id="circle1105"
       cx="-28.636337"
       cy="194.83299"
       transform="matrix(-0.98881901,0.14912066,0.14912066,0.98881901,0,0)" />
    <circle
       r="1.5"
       cy="191.23271"
       cx="-25.166857"
       id="circle1107"
       style="fill:#ffa500;fill-opacity:1;stroke:none;stroke-width:1.5;stroke-linecap:round;stroke-linejoin:bevel;stroke-miterlimit:4;stroke-dasharray:none;stroke-opacity:1"
       transform="matrix(-0.98881901,0.14912066,0.14912066,0.98881901,0,0)" />
    <circle
       r="1.5"
       style="fill:#ffa500;fill-opacity:1;stroke:none;stroke-width:1.5;stroke-linecap:round;stroke-linejoin:bevel;stroke-miterlimit:4;stroke-dasharray:none;stroke-opacity:1"
       id="circle1109"
       cx="-23.100908"
       cy="185.39424"
       transform="matrix(-0.98881901,0.14912066,0.14912066,0.98881901,0,0)" />
  </g>
</svg>
