<?xml version="1.0" encoding="utf-8"?>
<!-- Generator: Adobe Illustrator 21.0.0, SVG Export Plug-In . SVG Version: 6.00 Build 0)  -->
<svg version="1.1" id="Réteg_1" xmlns="http://www.w3.org/2000/svg" xmlns:xlink="http://www.w3.org/1999/xlink" x="0px" y="0px"
	 viewBox="0 0 1200 900" enable-background="new 0 0 1200 900" xml:space="preserve">
<g>
	<rect x="150.1" y="266" fill="#F8981D" width="535" height="175.4"/>
	<rect x="685.1" y="441.4" fill="#6A6A6A" width="364.9" height="192.5"/>
	<g>
		<path fill="#FFFFFF" d="M216.8,395.4h55.1v27.4h-87.9V284.4h32.9V395.4z"/>
		<path fill="#FFFFFF" d="M387.3,310.7h-65.9v28.4h51.8v26.1h-51.8v30.2h65.9v27.4h-98.9V284.4h98.9V310.7z"/>
		<path fill="#FFFFFF" d="M514.6,348.8v74h-14.8c-1.1-5.2-2.6-10.5-4.6-15.9c-9.9,12-22.5,18-37.7,18c-18.1,0-32.1-6.5-42.1-19.4
			c-10-12.9-15.1-29.6-15.1-50.1c0-22,5.4-39.7,16.1-53.1c10.7-13.4,25.3-20.1,43.6-20.1c15.4,0,27.8,4.3,37.3,13
			c9.5,8.7,15.2,20.2,17.3,34.6l-30.8,4.1c-2.5-16.8-10.4-25.1-23.8-25.1c-8.8,0-15.4,4-19.9,11.9c-4.5,7.9-6.7,19.3-6.7,34
			c0,14.2,2.4,25,7.3,32.5c4.9,7.5,11.8,11.3,20.8,11.3c5.8,0,11-1.9,15.6-5.7c4.6-3.8,6.8-9.8,6.8-18.1h-26.1v-25.9H514.6z"/>
		<path fill="#FFFFFF" d="M592.1,424.9c-18.6,0-33.1-7-43.3-21c-10.2-14-15.3-30.9-15.3-50.8c0-20.2,5.2-37.1,15.5-50.6
			c10.3-13.5,25.1-20.3,44.2-20.3c19.3,0,33.9,7.2,43.7,21.6c9.8,14.4,14.7,30.9,14.7,49.5c0,20.1-5.1,37-15.2,50.8
			C626.3,418,611.5,424.9,592.1,424.9z M593,308.7c-17,0-25.5,14.9-25.5,44.8c0,29.9,8.5,44.9,25.5,44.9c16.5,0,24.7-14.9,24.7-44.8
			C617.7,323.7,609.5,308.7,593,308.7z"/>
	</g>
	<g>
		<path fill="#FFFFFF" d="M734.3,491.4V550l39.1-58.6h28l-29.9,44.5l37.4,80.2h-32.2l-24.9-54.1l-17.5,25.6v28.6h-28.7V491.4H734.3z
			"/>
		<path fill="#FFFFFF" d="M864.3,618c-16.8,0-29.8-6.3-39-18.9c-9.2-12.6-13.8-27.9-13.8-45.8c0-18.2,4.7-33.4,14-45.6
			c9.3-12.2,22.6-18.3,39.8-18.3c17.4,0,30.5,6.5,39.4,19.5c8.9,13,13.3,27.9,13.3,44.6c0,18.1-4.6,33.3-13.7,45.8
			C895.1,611.8,881.8,618,864.3,618z M850.5,478.1c-3.3,0-5.9-1.1-7.9-3.2c-2-2.1-2.9-4.6-2.9-7.3c0-2.8,1-5.3,3-7.4
			c2-2.2,4.6-3.2,7.8-3.2c2.9,0,5.4,0.9,7.7,2.8c2.3,1.9,3.4,4.5,3.4,7.8c0,3.2-1.1,5.8-3.2,7.7
			C856.1,477.1,853.5,478.1,850.5,478.1z M865.1,513.3c-15.3,0-23,13.5-23,40.4c0,27,7.7,40.5,23,40.5c14.8,0,22.2-13.5,22.2-40.4
			C887.4,526.8,880,513.3,865.1,513.3z M881,478.1c-3.3,0-5.9-1.1-7.9-3.2c-2-2.1-2.9-4.6-2.9-7.3c0-2.8,1-5.3,3.1-7.4
			c2-2.2,4.6-3.2,7.8-3.2c2.9,0,5.5,0.9,7.7,2.8c2.2,1.9,3.3,4.5,3.3,7.8c0,3.2-1.1,5.8-3.2,7.7C886.6,477.1,884,478.1,881,478.1z"
			/>
		<path fill="#FFFFFF" d="M962.5,566.7v49.4h-29.4V491.4h54.8c10.1,0,18.2,1.2,24.3,3.5c6.1,2.3,11.2,6.6,15.2,12.9
			c4,6.3,6,13.2,6,20.9c0,15-7.2,25.7-21.6,32.2l23,55.1h-32.3l-19.1-49.4H962.5z M962.5,513.6v31.8h17.9c5.8,0,10.1-0.4,12.7-1.2
			s5-2.6,7.1-5.5c2.1-2.8,3.1-6.1,3.1-9.7c0-3.5-1-6.6-3.1-9.3c-2.1-2.7-4.3-4.4-6.8-5.1s-7-1-13.7-1H962.5z"/>
	</g>
</g>
</svg>
