<?xml version="1.0" encoding="UTF-8" standalone="no"?>
<svg
   xmlns:dc="http://purl.org/dc/elements/1.1/"
   xmlns:cc="http://creativecommons.org/ns#"
   xmlns:rdf="http://www.w3.org/1999/02/22-rdf-syntax-ns#"
   xmlns:svg="http://www.w3.org/2000/svg"
   xmlns="http://www.w3.org/2000/svg"
   xmlns:sodipodi="http://sodipodi.sourceforge.net/DTD/sodipodi-0.dtd"
   xmlns:inkscape="http://www.inkscape.org/namespaces/inkscape"
   sodipodi:docname="mi.svg"
   inkscape:version="1.0.1 (3bc2e813f5, 2020-09-07)"
   id="svg8"
   version="1.1"
   viewBox="0 0 241.43139 57.725655"
   height="57.725655mm"
   width="241.4314mm">
  <defs
     id="defs2" />
  <sodipodi:namedview
     fit-margin-bottom="0"
     fit-margin-right="0"
     fit-margin-left="0"
     fit-margin-top="0"
     inkscape:guide-bbox="true"
     showguides="true"
     inkscape:window-maximized="1"
     inkscape:window-y="0"
     inkscape:window-x="0"
     inkscape:window-height="713"
     inkscape:window-width="1366"
     showgrid="false"
     inkscape:document-rotation="0"
     inkscape:current-layer="layer1"
     inkscape:document-units="mm"
     inkscape:cy="119.20462"
     inkscape:cx="385.69221"
     inkscape:zoom="1.4"
     inkscape:pageshadow="2"
     inkscape:pageopacity="0.0"
     borderopacity="1.0"
     bordercolor="#666666"
     pagecolor="#ffffff"
     id="base" />
  <metadata
     id="metadata5">
    <rdf:RDF>
      <cc:Work
         rdf:about="">
        <dc:format>image/svg+xml</dc:format>
        <dc:type
           rdf:resource="http://purl.org/dc/dcmitype/StillImage" />
        <dc:title />
      </cc:Work>
    </rdf:RDF>
  </metadata>
  <g
     transform="translate(-111.95351,-84.688947)"
     id="layer1"
     inkscape:groupmode="layer"
     inkscape:label="Réteg 1">
    <path
       transform="matrix(0.26458333,0,0,0.26458333,111.95351,84.688947)"
       d="M 141.84961 0.52539062 L 122.46484 2.5117188 L 119.28906 3.9003906 L 111.39062 10.882812 L 99.277344 10.21875 L 96.191406 10.933594 L 78.955078 20.605469 L 76.378906 23.683594 L 73.951172 30.658203 L 65.601562 32.333984 L 61.984375 34.763672 L 49.714844 53.285156 L 48.792969 56.923828 L 50.041016 70.882812 L 46.697266 82.966797 L 46.931641 86.666016 L 54.794922 105.45312 L 56.832031 107.93945 L 65.984375 114.19141 L 73.242188 119.7207 L 73.242188 105.4668 L 72.740234 105.08398 L 72.503906 104.91406 L 64.611328 99.525391 L 58.152344 84.095703 L 61.238281 72.912109 L 61.423828 70.898438 L 60.263672 57.890625 L 70.140625 42.986328 L 79.353516 41.140625 L 83.591797 37.451172 L 86.380859 29.441406 L 100.29688 21.630859 L 113.08984 22.332031 L 117.15625 20.921875 L 125.43164 13.607422 L 141.26562 11.982422 L 149.69336 16.546875 L 138.17188 25.910156 L 117.05273 30.259766 L 117.5293 32.574219 L 102.14844 27.21875 L 100.28125 32.570312 L 112.0918 36.685547 L 107.03516 40.298828 L 106.16406 41.302734 L 101.83203 49.638672 L 106.85938 52.25 L 110.88281 44.521484 L 118.82227 38.845703 L 119.3418 41.363281 L 131.86523 38.783203 L 130.14062 43.517578 L 130.55859 53.660156 L 118.83984 55.779297 L 119.85156 61.359375 L 134.07812 58.777344 L 136.96484 58.658203 L 146.54297 64.623047 L 144.89844 73.318359 L 150.46289 74.367188 L 152.4707 63.773438 L 151.1875 60.835938 L 141.96875 55.095703 L 141.56055 45.289062 L 143.32227 40.458984 L 150.78125 48.810547 L 155.01172 45.039062 L 145.58984 34.486328 L 162.00195 21.150391 L 181.36328 19.955078 L 206.24805 35.568359 L 211.29688 53.195312 L 212.68555 55.587891 L 221.01172 64.142578 L 223.38281 79.261719 L 218.45508 84.433594 L 208.10938 74.345703 L 202.32227 48.9375 L 202.50586 41.333984 L 201.0957 38.816406 L 185.17383 29.574219 L 182.32422 34.474609 L 196.79883 42.875 L 196.62305 50.0625 L 194.2832 50.595703 L 177.45117 43.886719 L 166.01758 34.304688 L 162.37891 38.654297 L 174.16016 48.523438 L 174.93359 48.988281 L 192.27734 55.900391 L 195.63672 70.650391 L 173.30469 67.957031 L 166.99219 60.917969 L 165.52344 50.929688 L 159.91211 51.755859 L 161.50781 62.585938 L 162.20117 64.068359 L 170.93555 73.800781 L 164.4082 76.138672 L 163.10938 77.083984 L 152.56836 90.857422 L 157.0625 94.304688 L 167.10156 81.1875 L 172.45703 79.275391 L 200.36133 82.632812 L 212.92383 94.876953 L 212.86328 105.86523 L 205.42969 117.06445 L 199.57617 119.56641 L 197.19141 121.47852 L 193.89062 126.08398 L 185.41016 127.95312 L 181.00195 134.18945 L 182.50781 146.28125 L 168.72656 130.07812 L 166.89648 128.6543 L 155.15039 122.91992 L 168.88867 113.73438 L 179.79883 108.90625 L 189.19727 111.60156 L 189.44727 110.72852 L 191.23438 112.8418 L 176.4043 119.16797 L 178.625 124.37891 L 196.99219 116.54688 L 198.04688 112.11133 L 191.33008 104.17383 L 191.375 104.01953 L 203.39844 98.757812 L 201.125 93.560547 L 188.52539 99.082031 L 188.79102 99.689453 L 178.97266 96.867188 L 172.98047 99.523438 L 176.24023 92.931641 L 185.32812 90.984375 L 184.14062 85.439453 L 173.7168 87.675781 L 171.76758 89.189453 L 164.87109 103.11914 L 163.4043 103.76953 L 152.97266 110.74023 L 148.4043 97.722656 L 146.30664 95.892578 L 123.11328 91.042969 L 121.95508 96.59375 L 143.58398 101.11133 L 148.10938 113.99023 L 141.11914 118.66211 L 131.83984 122.46094 L 121.95508 119.95703 L 121.95508 131.65039 L 130.86523 133.91016 L 134.4082 133.6582 L 143.5918 129.90039 L 160.85742 138.32422 L 186.16211 168.07227 L 196.10547 163.69531 L 192.89453 137.91797 L 198.45312 136.69141 L 201.8418 134.45508 L 205.48828 129.36914 L 211.44531 126.83008 L 213.94141 124.74805 L 223.24805 110.72266 L 224.19336 107.62305 L 224.26758 94.777344 L 233.52539 85.056641 L 235.01562 80.265625 L 231.92969 60.607422 L 230.39453 57.537109 L 221.80273 48.701172 L 216.54688 30.355469 L 214.10938 27.115234 L 185.85156 9.3847656 L 182.48633 8.5273438 L 161.12305 9.8417969 L 145.12695 1.1835938 L 141.84961 0.52539062 z M 88.433594 48.212891 L 75.396484 55.662109 L 74.060547 58.865234 L 77.96875 73.205078 L 70.820312 72.691406 L 67.800781 75.216797 L 66.369141 88.429688 L 72.009766 89.035156 L 73.138672 78.544922 L 77.3125 78.84375 L 98.621094 94.203125 L 97.880859 103.51172 L 109.25586 103.51172 L 110.07031 93.279297 L 114.28516 86.414062 L 120.32227 83.175781 L 136.72656 83.041016 L 143.25195 88.488281 L 146.89062 84.140625 L 139.56055 78.021484 L 137.72266 77.363281 L 123.13672 77.484375 L 131.05664 70.136719 L 127.19531 65.980469 L 117.62695 74.865234 L 116.33008 72.447266 L 106.22461 77.873047 L 104.65039 80.433594 L 101.67578 68.734375 L 109.08008 63.367188 L 105.75195 58.777344 L 96.796875 65.273438 L 95.712891 68.261719 L 98.779297 80.339844 L 82.617188 68.693359 L 80.113281 59.492188 L 91.246094 53.136719 L 88.433594 48.212891 z M 119.01562 77.457031 L 119.07227 77.517578 L 119.04883 77.517578 L 119.01562 77.457031 z M 121.95508 109.09766 L 121.95508 114.80273 L 128.20703 115.51367 L 128.8418 109.88086 L 121.95508 109.09766 z "
       style="color:#000000;font-style:normal;font-variant:normal;font-weight:normal;font-stretch:normal;font-size:medium;line-height:normal;font-family:sans-serif;font-variant-ligatures:normal;font-variant-position:normal;font-variant-caps:normal;font-variant-numeric:normal;font-variant-alternates:normal;font-variant-east-asian:normal;font-feature-settings:normal;font-variation-settings:normal;text-indent:0;text-align:start;text-decoration:none;text-decoration-line:none;text-decoration-style:solid;text-decoration-color:#000000;letter-spacing:normal;word-spacing:normal;text-transform:none;writing-mode:lr-tb;direction:ltr;text-orientation:mixed;dominant-baseline:auto;baseline-shift:baseline;text-anchor:start;white-space:normal;shape-padding:0;shape-margin:0;inline-size:0;clip-rule:nonzero;display:inline;overflow:visible;visibility:visible;opacity:1;isolation:auto;mix-blend-mode:normal;color-interpolation:sRGB;color-interpolation-filters:linearRGB;solid-color:#000000;solid-opacity:1;vector-effect:none;fill:#363636;fill-opacity:1;fill-rule:nonzero;stroke:none;stroke-width:5.66929;stroke-linecap:butt;stroke-linejoin:bevel;stroke-miterlimit:4;stroke-dasharray:none;stroke-dashoffset:0;stroke-opacity:1;color-rendering:auto;image-rendering:auto;shape-rendering:auto;text-rendering:auto;enable-background:accumulate;stop-color:#000000;stop-opacity:1"
       id="path1119" />
    <circle
       transform="rotate(4.5282866)"
       r="1.25"
       cy="100.4364"
       cx="164.49849"
       id="path899"
       style="fill:#ffffff;fill-opacity:1;stroke:#f89719;stroke-width:1.5;stroke-linecap:round;stroke-linejoin:bevel;stroke-miterlimit:4;stroke-dasharray:none;stroke-opacity:1" />
    <circle
       transform="rotate(4.5282866)"
       style="fill:#ffffff;fill-opacity:1;stroke:#f89719;stroke-width:1.5;stroke-linecap:round;stroke-linejoin:bevel;stroke-miterlimit:4;stroke-dasharray:none;stroke-opacity:1"
       id="circle907"
       cx="172.93456"
       cy="91.344398"
       r="1.25" />
    <circle
       transform="rotate(4.5282866)"
       r="1.25"
       cy="81.140884"
       cx="155.52531"
       id="circle909"
       style="fill:#ffffff;fill-opacity:1;stroke:#f89719;stroke-width:1.5;stroke-linecap:round;stroke-linejoin:bevel;stroke-miterlimit:4;stroke-dasharray:none;stroke-opacity:1" />
    <circle
       transform="rotate(4.5282866)"
       style="fill:#ffffff;fill-opacity:1;stroke:#f89719;stroke-width:1.5;stroke-linecap:round;stroke-linejoin:bevel;stroke-miterlimit:4;stroke-dasharray:none;stroke-opacity:1"
       id="circle911"
       cx="147.5434"
       cy="96.902008"
       r="1.25" />
    <circle
       transform="rotate(4.5282866)"
       r="1.25"
       cy="85.507927"
       cx="171.36917"
       id="circle949"
       style="fill:#ffffff;fill-opacity:1;stroke:#f89719;stroke-width:1.5;stroke-linecap:round;stroke-linejoin:bevel;stroke-miterlimit:4;stroke-dasharray:none;stroke-opacity:1" />
    <circle
       transform="rotate(4.5282866)"
       style="fill:#ffffff;fill-opacity:1;stroke:#f89719;stroke-width:1.5;stroke-linecap:round;stroke-linejoin:bevel;stroke-miterlimit:4;stroke-dasharray:none;stroke-opacity:1"
       id="circle951"
       cx="165.17329"
       cy="91.218597"
       r="1.25" />
    <circle
       transform="rotate(4.5282866)"
       style="fill:#ffffff;fill-opacity:1;stroke:#f89719;stroke-width:1.5;stroke-linecap:round;stroke-linejoin:bevel;stroke-miterlimit:4;stroke-dasharray:none;stroke-opacity:1"
       id="circle953"
       cx="170.02362"
       cy="99.133598"
       r="1.25" />
    <circle
       transform="rotate(4.5282866)"
       r="1.25"
       cy="93.438278"
       cx="151.6254"
       id="circle955"
       style="fill:#ffffff;fill-opacity:1;stroke:#f89719;stroke-width:1.5;stroke-linecap:round;stroke-linejoin:bevel;stroke-miterlimit:4;stroke-dasharray:none;stroke-opacity:1" />
    <circle
       transform="rotate(4.5282866)"
       style="fill:#ffffff;fill-opacity:1;stroke:#f89719;stroke-width:1.5;stroke-linecap:round;stroke-linejoin:bevel;stroke-miterlimit:4;stroke-dasharray:none;stroke-opacity:1"
       id="circle957"
       cx="141.13618"
       cy="93.432556"
       r="1.25" />
    <circle
       transform="rotate(4.5282866)"
       r="1.25"
       cy="82.590286"
       cx="150.29288"
       id="circle959"
       style="fill:#ffffff;fill-opacity:1;stroke:#f89719;stroke-width:1.5;stroke-linecap:round;stroke-linejoin:bevel;stroke-miterlimit:4;stroke-dasharray:none;stroke-opacity:1" />
    <circle
       transform="rotate(4.5282866)"
       style="fill:#ffffff;fill-opacity:1;stroke:#f89719;stroke-width:1.5;stroke-linecap:round;stroke-linejoin:bevel;stroke-miterlimit:4;stroke-dasharray:none;stroke-opacity:1"
       id="circle961"
       cx="155.43819"
       cy="87.254272"
       r="1.25" />
    <circle
       transform="rotate(4.5282866)"
       r="1.25"
       cy="81.686134"
       cx="162.37981"
       id="circle963"
       style="fill:#ffffff;fill-opacity:1;stroke:#f89719;stroke-width:1.5;stroke-linecap:round;stroke-linejoin:bevel;stroke-miterlimit:4;stroke-dasharray:none;stroke-opacity:1" />
    <circle
       transform="rotate(4.5282866)"
       style="fill:#ffffff;fill-opacity:1;stroke:#f89719;stroke-width:1.5;stroke-linecap:round;stroke-linejoin:bevel;stroke-miterlimit:4;stroke-dasharray:none;stroke-opacity:1"
       id="circle967"
       cx="143.0676"
       cy="87.092964"
       r="1.25" />
    <path
       id="path977"
       d="m 114.20351,114.32671 v 25.83789 h 8.38867 v -4.5 h -3.88867 v -16.83789 h 3.88867 v -4.5 z"
       style="color:#000000;font-style:normal;font-variant:normal;font-weight:normal;font-stretch:normal;font-size:medium;line-height:normal;font-family:sans-serif;font-variant-ligatures:normal;font-variant-position:normal;font-variant-caps:normal;font-variant-numeric:normal;font-variant-alternates:normal;font-variant-east-asian:normal;font-feature-settings:normal;font-variation-settings:normal;text-indent:0;text-align:start;text-decoration:none;text-decoration-line:none;text-decoration-style:solid;text-decoration-color:#000000;letter-spacing:normal;word-spacing:normal;text-transform:none;writing-mode:lr-tb;direction:ltr;text-orientation:mixed;dominant-baseline:auto;baseline-shift:baseline;text-anchor:start;white-space:normal;shape-padding:0;shape-margin:0;inline-size:0;clip-rule:nonzero;display:inline;overflow:visible;visibility:visible;isolation:auto;mix-blend-mode:normal;color-interpolation:sRGB;color-interpolation-filters:linearRGB;solid-color:#000000;solid-opacity:1;vector-effect:none;fill:#f89719;fill-opacity:1;fill-rule:nonzero;stroke:none;stroke-width:4.5;stroke-linecap:butt;stroke-linejoin:miter;stroke-miterlimit:4;stroke-dasharray:none;stroke-dashoffset:0;stroke-opacity:1;paint-order:normal;color-rendering:auto;image-rendering:auto;shape-rendering:auto;text-rendering:auto;enable-background:accumulate;stop-color:#000000" />
    <path
       style="color:#000000;font-style:normal;font-variant:normal;font-weight:normal;font-stretch:normal;font-size:medium;line-height:normal;font-family:sans-serif;font-variant-ligatures:normal;font-variant-position:normal;font-variant-caps:normal;font-variant-numeric:normal;font-variant-alternates:normal;font-variant-east-asian:normal;font-feature-settings:normal;font-variation-settings:normal;text-indent:0;text-align:start;text-decoration:none;text-decoration-line:none;text-decoration-style:solid;text-decoration-color:#000000;letter-spacing:normal;word-spacing:normal;text-transform:none;writing-mode:lr-tb;direction:ltr;text-orientation:mixed;dominant-baseline:auto;baseline-shift:baseline;text-anchor:start;white-space:normal;shape-padding:0;shape-margin:0;inline-size:0;clip-rule:nonzero;display:inline;overflow:visible;visibility:visible;isolation:auto;mix-blend-mode:normal;color-interpolation:sRGB;color-interpolation-filters:linearRGB;solid-color:#000000;solid-opacity:1;vector-effect:none;fill:#f89719;fill-opacity:1;fill-rule:nonzero;stroke:none;stroke-width:4.5;stroke-linecap:butt;stroke-linejoin:miter;stroke-miterlimit:4;stroke-dasharray:none;stroke-dashoffset:0;stroke-opacity:1;paint-order:normal;color-rendering:auto;image-rendering:auto;shape-rendering:auto;text-rendering:auto;enable-background:accumulate;stop-color:#000000"
       d="m 141.97121,114.32671 v 25.83789 h -8.38867 v -4.5 h 3.88867 v -16.83789 h -3.88867 v -4.5 z"
       id="path979" />
    <circle
       transform="rotate(4.5282866)"
       r="1.25"
       cy="102.08948"
       cx="154.36885"
       id="circle965"
       style="fill:#ffffff;fill-opacity:1;stroke:#f89719;stroke-width:1.5;stroke-linecap:round;stroke-linejoin:bevel;stroke-miterlimit:4;stroke-dasharray:none;stroke-opacity:1" />
    <circle
       transform="rotate(4.5282866)"
       r="1.25"
       cy="99.814041"
       cx="141.76164"
       id="circle969"
       style="fill:#ffffff;fill-opacity:1;stroke:#f89719;stroke-width:1.5;stroke-linecap:round;stroke-linejoin:bevel;stroke-miterlimit:4;stroke-dasharray:none;stroke-opacity:1" />
    <circle
       style="fill:#ffffff;fill-opacity:1;stroke:#f89719;stroke-width:1.5;stroke-linecap:round;stroke-linejoin:bevel;stroke-miterlimit:4;stroke-dasharray:none;stroke-opacity:1"
       id="circle983"
       cx="159.66788"
       cy="105.02129"
       r="1.25"
       transform="rotate(4.5282866)" />
    <circle
       transform="rotate(4.5282866)"
       r="1.25"
       cy="107.13342"
       cx="170.50162"
       id="circle985"
       style="fill:#ffffff;fill-opacity:1;stroke:#f89719;stroke-width:1.5;stroke-linecap:round;stroke-linejoin:bevel;stroke-miterlimit:4;stroke-dasharray:none;stroke-opacity:1" />
    <g
       aria-label="Mesterséges
Intelligencia"
       id="text989"
       style="font-size:28.4768px;line-height:1;font-family:'Exo 2';-inkscape-font-specification:'Exo 2, ';text-align:start;letter-spacing:0px;word-spacing:0px;text-anchor:start;fill:#363636;fill-opacity:1;stroke-width:0.264583">
      <path
         d="m 207.4416,86.283647 h -3.10397 c -0.68344,0 -1.05364,0.341722 -1.25298,0.968212 l -3.30331,11.47615 c -0.28477,0.939735 -0.48411,1.765561 -0.68344,2.676821 h -0.51259 c -0.19933,-0.88278 -0.39867,-1.737086 -0.65496,-2.648344 l -3.33179,-11.504627 c -0.19934,-0.62649 -0.54106,-0.968212 -1.19602,-0.968212 h -3.16093 c -0.74039,0 -1.13907,0.427152 -1.16755,1.167549 l -0.74039,18.481444 h 2.8192 l 0.65497,-17.285418 h 0.54106 l 4.01522,13.982108 c 0.17086,0.65497 0.59802,0.96821 1.25298,0.96821 h 2.47748 c 0.65497,0 1.05365,-0.31324 1.22451,-0.96821 l 3.98675,-13.982108 h 0.56954 l 0.68344,17.285418 h 2.84768 l -0.79735,-18.481444 c -0.0285,-0.740397 -0.42715,-1.167549 -1.16755,-1.167549 z"
         style="font-style:normal;font-variant:normal;font-weight:500;font-stretch:normal;font-size:28.4768px;font-family:'Exo 2';-inkscape-font-specification:'Exo 2 Medium';text-align:start;text-anchor:start;fill:#363636;fill-opacity:1;stroke-width:0.264583"
         id="path3749" />
      <path
         d="m 219.94288,103.96774 c -2.67682,0 -3.87285,-0.62649 -4.15762,-3.64503 h 6.23642 c 2.3351,0 3.38874,-1.480793 3.38874,-3.986752 0,-3.047018 -1.76556,-4.670195 -6.09403,-4.670195 -4.49934,0 -6.43576,1.794038 -6.43576,7.290061 0,5.353636 1.85099,7.318536 6.69205,7.318536 1.65165,0 4.12913,-0.22781 5.49602,-0.82583 l -0.25629,-1.82251 c -1.50927,0.17086 -3.44569,0.34172 -4.86953,0.34172 z m -0.48411,-9.96688 c 2.36357,0 3.16093,0.654967 3.1894,2.335098 0,0.854304 -0.19934,1.850992 -1.36688,1.850992 h -5.55298 c 0.11391,-3.303309 1.02516,-4.18609 3.73046,-4.18609 z"
         style="font-style:normal;font-variant:normal;font-weight:500;font-stretch:normal;font-size:28.4768px;font-family:'Exo 2';-inkscape-font-specification:'Exo 2 Medium';text-align:start;text-anchor:start;fill:#363636;fill-opacity:1;stroke-width:0.264583"
         id="path3751" />
      <path
         d="m 233.61173,91.665763 c -3.87285,-0.02848 -5.49603,0.71192 -5.49603,3.872845 0,2.278144 0.85431,3.360262 3.16093,3.958275 l 3.87284,0.968207 c 1.30994,0.34173 2.10729,0.48411 2.10729,1.76557 0,1.42384 -0.88278,1.7086 -3.9298,1.7086 -1.79404,0 -3.47417,-0.0285 -4.75563,-0.14238 l -0.19933,2.05033 c 2.42052,0.3702 4.58476,0.39867 5.52449,0.39867 4.15762,0 6.03709,-0.59801 6.03709,-4.01522 0,-2.420532 -0.99669,-3.303313 -3.24636,-3.901326 l -3.9298,-0.968211 c -1.30993,-0.370198 -1.9649,-0.484106 -1.9649,-1.822515 0,-1.509271 0.76888,-1.537748 3.24636,-1.537748 1.73708,0 3.53112,0.08543 5.26821,0.142384 l 0.22781,-1.993376 c -1.70861,-0.284768 -4.10066,-0.455628 -5.92317,-0.484105 z"
         style="font-style:normal;font-variant:normal;font-weight:500;font-stretch:normal;font-size:28.4768px;font-family:'Exo 2';-inkscape-font-specification:'Exo 2 Medium';text-align:start;text-anchor:start;fill:#363636;fill-opacity:1;stroke-width:0.264583"
         id="path3753" />
      <path
         d="m 251.5236,94.171721 v -2.13576 h -4.29999 v -4.072182 h -2.73378 v 4.072182 l -2.53443,0.142384 v 1.993376 h 2.53443 v 8.115889 c 0,2.50596 1.25298,3.90132 3.61656,3.90132 0.74039,0 2.36357,-0.11391 3.27483,-0.3702 l -0.31325,-2.13576 h -2.02185 c -1.33841,0 -1.82251,-0.45563 -1.82251,-1.76556 v -7.745689 z"
         style="font-style:normal;font-variant:normal;font-weight:500;font-stretch:normal;font-size:28.4768px;font-family:'Exo 2';-inkscape-font-specification:'Exo 2 Medium';text-align:start;text-anchor:start;fill:#363636;fill-opacity:1;stroke-width:0.264583"
         id="path3755" />
      <path
         d="m 260.83547,103.96774 c -2.67681,0 -3.87284,-0.62649 -4.15761,-3.64503 h 6.23642 c 2.3351,0 3.38874,-1.480793 3.38874,-3.986752 0,-3.047018 -1.76556,-4.670195 -6.09403,-4.670195 -4.49934,0 -6.43576,1.794038 -6.43576,7.290061 0,5.353636 1.85099,7.318536 6.69205,7.318536 1.65165,0 4.12913,-0.22781 5.49602,-0.82583 l -0.25629,-1.82251 c -1.50927,0.17086 -3.44569,0.34172 -4.86954,0.34172 z m -0.4841,-9.96688 c 2.36357,0 3.16092,0.654967 3.1894,2.335098 0,0.854304 -0.19934,1.850992 -1.36689,1.850992 h -5.55297 c 0.11391,-3.303309 1.02516,-4.18609 3.73046,-4.18609 z"
         style="font-style:normal;font-variant:normal;font-weight:500;font-stretch:normal;font-size:28.4768px;font-family:'Exo 2';-inkscape-font-specification:'Exo 2 Medium';text-align:start;text-anchor:start;fill:#363636;fill-opacity:1;stroke-width:0.264583"
         id="path3757" />
      <path
         d="m 278.03545,91.665763 c -1.85099,0 -3.87284,0.939734 -5.83774,2.505958 l -0.28477,-2.13576 h -2.13576 v 13.896679 h 2.76225 V 95.851853 c 2.13576,-0.996688 3.50264,-1.594701 4.98344,-1.594701 h 0.8543 l 0.31325,-2.591389 z"
         style="font-style:normal;font-variant:normal;font-weight:500;font-stretch:normal;font-size:28.4768px;font-family:'Exo 2';-inkscape-font-specification:'Exo 2 Medium';text-align:start;text-anchor:start;fill:#363636;fill-opacity:1;stroke-width:0.264583"
         id="path3759" />
      <path
         d="m 286.00894,91.665763 c -3.87285,-0.02848 -5.49603,0.71192 -5.49603,3.872845 0,2.278144 0.85431,3.360262 3.16093,3.958275 l 3.87284,0.968207 c 1.30994,0.34173 2.10729,0.48411 2.10729,1.76557 0,1.42384 -0.88278,1.7086 -3.9298,1.7086 -1.79404,0 -3.47417,-0.0285 -4.75563,-0.14238 l -0.19934,2.05033 c 2.42053,0.3702 4.58477,0.39867 5.5245,0.39867 4.15762,0 6.03709,-0.59801 6.03709,-4.01522 0,-2.420532 -0.99669,-3.303313 -3.24636,-3.901326 l -3.9298,-0.968211 c -1.30993,-0.370198 -1.9649,-0.484106 -1.9649,-1.822515 0,-1.509271 0.76888,-1.537748 3.24636,-1.537748 1.73708,0 3.53112,0.08543 5.26821,0.142384 l 0.22781,-1.993376 C 290.2235,91.8651 287.83145,91.69424 286.00894,91.665763 Z"
         style="font-style:normal;font-variant:normal;font-weight:500;font-stretch:normal;font-size:28.4768px;font-family:'Exo 2';-inkscape-font-specification:'Exo 2 Medium';text-align:start;text-anchor:start;fill:#363636;fill-opacity:1;stroke-width:0.264583"
         id="path3761" />
      <path
         d="m 306.08505,86.79623 -1.53775,-2.107283 -5.04039,4.186089 0.91125,1.25298 z m -3.90132,17.17151 c -2.67682,0 -3.87285,-0.62649 -4.15762,-3.64503 h 6.23642 c 2.3351,0 3.38874,-1.480793 3.38874,-3.986752 0,-3.047018 -1.76556,-4.670195 -6.09403,-4.670195 -4.49934,0 -6.43576,1.794038 -6.43576,7.290061 0,5.353636 1.85099,7.318536 6.69205,7.318536 1.65165,0 4.12913,-0.22781 5.49602,-0.82583 l -0.25629,-1.82251 c -1.50927,0.17086 -3.44569,0.34172 -4.86953,0.34172 z m -0.48411,-9.96688 c 2.36358,0 3.16093,0.654967 3.1894,2.335098 0,0.854304 -0.19934,1.850992 -1.36688,1.850992 h -5.55298 c 0.11391,-3.303309 1.02516,-4.18609 3.73046,-4.18609 z"
         style="font-style:normal;font-variant:normal;font-weight:500;font-stretch:normal;font-size:28.4768px;font-family:'Exo 2';-inkscape-font-specification:'Exo 2 Medium';text-align:start;text-anchor:start;fill:#363636;fill-opacity:1;stroke-width:0.264583"
         id="path3763" />
      <path
         d="m 324.36714,92.035961 h -4.29999 c -0.85431,-0.256291 -1.9649,-0.370198 -3.33179,-0.370198 -4.58477,0 -6.06556,1.281456 -6.06556,4.499334 0,1.794039 0.51258,2.990064 1.82252,3.673508 -1.25298,0.939735 -1.56623,3.217875 -0.19934,4.328475 -1.53775,0.82583 -2.22119,1.62318 -2.22119,3.1894 0,3.21788 1.68013,4.27152 6.80595,4.27152 5.06887,0 6.72053,-1.05364 6.72053,-4.35695 0,-2.3351 -0.96821,-3.5596 -3.64503,-3.95828 l -5.12583,-0.79735 c -1.30993,-0.19933 -1.39536,-1.36688 -0.88278,-2.16423 0.7404,0.14238 1.68013,0.22781 2.76225,0.22781 4.52781,0 6.03708,-1.338408 6.03708,-4.442379 0,-0.996688 -0.14238,-1.794039 -0.4841,-2.420529 l 1.9649,-0.199337 z m -7.66026,6.464234 c -2.64834,0 -3.53112,-0.654966 -3.53112,-2.363574 0,-1.765562 0.88278,-2.363575 3.53112,-2.363575 2.61987,0 3.47417,0.598013 3.47417,2.363575 0,1.708608 -0.8543,2.363574 -3.47417,2.363574 z m 4.18609,8.628475 c 0,1.79403 -0.79735,2.16423 -4.0437,2.16423 -3.30331,0 -4.10066,-0.28477 -4.10066,-2.16423 0,-1.02517 0.45563,-1.65166 1.30993,-2.36358 l 4.47086,0.56954 c 1.93642,0.28477 2.36357,0.45563 2.36357,1.79404 z"
         style="font-style:normal;font-variant:normal;font-weight:500;font-stretch:normal;font-size:28.4768px;font-family:'Exo 2';-inkscape-font-specification:'Exo 2 Medium';text-align:start;text-anchor:start;fill:#363636;fill-opacity:1;stroke-width:0.264583"
         id="path3765" />
      <path
         d="m 333.39421,103.96774 c -2.67682,0 -3.87285,-0.62649 -4.15762,-3.64503 h 6.23642 c 2.3351,0 3.38874,-1.480793 3.38874,-3.986752 0,-3.047018 -1.76556,-4.670195 -6.09403,-4.670195 -4.49934,0 -6.43576,1.794038 -6.43576,7.290061 0,5.353636 1.85099,7.318536 6.69205,7.318536 1.65165,0 4.12913,-0.22781 5.49602,-0.82583 l -0.25629,-1.82251 c -1.50927,0.17086 -3.44569,0.34172 -4.86953,0.34172 z m -0.48411,-9.96688 c 2.36357,0 3.16093,0.654967 3.1894,2.335098 0,0.854304 -0.19934,1.850992 -1.36688,1.850992 h -5.55298 c 0.11391,-3.303309 1.02516,-4.18609 3.73046,-4.18609 z"
         style="font-style:normal;font-variant:normal;font-weight:500;font-stretch:normal;font-size:28.4768px;font-family:'Exo 2';-inkscape-font-specification:'Exo 2 Medium';text-align:start;text-anchor:start;fill:#363636;fill-opacity:1;stroke-width:0.264583"
         id="path3767" />
      <path
         d="m 347.06306,91.665763 c -3.87285,-0.02848 -5.49602,0.71192 -5.49602,3.872845 0,2.278144 0.8543,3.360262 3.16092,3.958275 l 3.87285,0.968207 c 1.30993,0.34173 2.10728,0.48411 2.10728,1.76557 0,1.42384 -0.88278,1.7086 -3.9298,1.7086 -1.79404,0 -3.47417,-0.0285 -4.75563,-0.14238 l -0.19933,2.05033 c 2.42053,0.3702 4.58476,0.39867 5.5245,0.39867 4.15761,0 6.03708,-0.59801 6.03708,-4.01522 0,-2.420532 -0.99669,-3.303313 -3.24636,-3.901326 l -3.9298,-0.968211 c -1.30993,-0.370198 -1.96489,-0.484106 -1.96489,-1.822515 0,-1.509271 0.76887,-1.537748 3.24635,-1.537748 1.73709,0 3.53112,0.08543 5.26821,0.142384 l 0.22781,-1.993376 c -1.7086,-0.284768 -4.10066,-0.455628 -5.92317,-0.484105 z"
         style="font-style:normal;font-variant:normal;font-weight:500;font-stretch:normal;font-size:28.4768px;font-family:'Exo 2';-inkscape-font-specification:'Exo 2 Medium';text-align:start;text-anchor:start;fill:#363636;fill-opacity:1;stroke-width:0.264583"
         id="path3769" />
      <path
         d="m 191.55154,114.80967 h -2.84768 v 19.64899 h 2.84768 z"
         style="font-style:normal;font-variant:normal;font-weight:500;font-stretch:normal;font-size:28.4768px;font-family:'Exo 2';-inkscape-font-specification:'Exo 2 Medium';text-align:start;text-anchor:start;fill:#363636;fill-opacity:1;stroke-width:0.264583"
         id="path3771" />
      <path
         d="m 204.73629,120.19178 c -2.05033,0 -4.10066,0.93974 -6.15099,2.47748 l -0.17086,-2.10728 h -2.33509 v 13.89668 h 2.76225 l -0.0285,-9.85297 c 2.13576,-1.28146 3.58808,-2.07881 5.1543,-2.07881 1.30993,0 1.76556,0.54106 1.76556,2.30662 v 9.62516 h 2.76225 v -10.42251 c 0,-2.50596 -1.30993,-3.84437 -3.75894,-3.84437 z"
         style="font-style:normal;font-variant:normal;font-weight:500;font-stretch:normal;font-size:28.4768px;font-family:'Exo 2';-inkscape-font-specification:'Exo 2 Medium';text-align:start;text-anchor:start;fill:#363636;fill-opacity:1;stroke-width:0.264583"
         id="path3773" />
      <path
         d="m 220.82564,122.69774 v -2.13576 h -4.3 v -4.07218 h -2.73377 v 4.07218 l -2.53444,0.14239 v 1.99337 h 2.53444 v 8.11589 c 0,2.50596 1.25298,3.90132 3.61655,3.90132 0.7404,0 2.36357,-0.11391 3.27483,-0.3702 l -0.31324,-2.13576 h -2.02186 c -1.3384,0 -1.82251,-0.45563 -1.82251,-1.76556 v -7.74569 z"
         style="font-style:normal;font-variant:normal;font-weight:500;font-stretch:normal;font-size:28.4768px;font-family:'Exo 2';-inkscape-font-specification:'Exo 2 Medium';text-align:start;text-anchor:start;fill:#363636;fill-opacity:1;stroke-width:0.264583"
         id="path3775" />
      <path
         d="m 230.13751,132.49376 c -2.67682,0 -3.87284,-0.62649 -4.15761,-3.64503 h 6.23642 c 2.3351,0 3.38874,-1.48079 3.38874,-3.98675 0,-3.04702 -1.76556,-4.6702 -6.09404,-4.6702 -4.49933,0 -6.43576,1.79404 -6.43576,7.29006 0,5.35364 1.851,7.31854 6.69205,7.31854 1.65166,0 4.12914,-0.22781 5.49603,-0.82583 l -0.2563,-1.82251 c -1.50927,0.17086 -3.44569,0.34172 -4.86953,0.34172 z m -0.4841,-9.96688 c 2.36357,0 3.16092,0.65497 3.1894,2.3351 0,0.8543 -0.19934,1.85099 -1.36689,1.85099 h -5.55298 c 0.11391,-3.30331 1.02517,-4.18609 3.73047,-4.18609 z"
         style="font-style:normal;font-variant:normal;font-weight:500;font-stretch:normal;font-size:28.4768px;font-family:'Exo 2';-inkscape-font-specification:'Exo 2 Medium';text-align:start;text-anchor:start;fill:#363636;fill-opacity:1;stroke-width:0.264583"
         id="path3777" />
      <path
         d="m 241.86994,114.5249 h -2.76225 v 16.54502 c 0,2.36358 1.36688,3.64503 3.50264,3.64503 0.71192,0 2.07881,-0.11391 2.64835,-0.3702 l -0.31325,-2.13576 h -1.28145 c -1.19603,0 -1.82252,-0.59801 -1.82252,-1.76556 z"
         style="font-style:normal;font-variant:normal;font-weight:500;font-stretch:normal;font-size:28.4768px;font-family:'Exo 2';-inkscape-font-specification:'Exo 2 Medium';text-align:start;text-anchor:start;fill:#363636;fill-opacity:1;stroke-width:0.264583"
         id="path3779" />
      <path
         d="m 250.46988,114.5249 h -2.76225 v 16.54502 c 0,2.36358 1.36689,3.64503 3.50265,3.64503 0.71192,0 2.0788,-0.11391 2.64834,-0.3702 l -0.31325,-2.13576 h -1.28145 c -1.19603,0 -1.82252,-0.59801 -1.82252,-1.76556 z"
         style="font-style:normal;font-variant:normal;font-weight:500;font-stretch:normal;font-size:28.4768px;font-family:'Exo 2';-inkscape-font-specification:'Exo 2 Medium';text-align:start;text-anchor:start;fill:#363636;fill-opacity:1;stroke-width:0.264583"
         id="path3781" />
      <path
         d="m 258.41485,114.63881 h -1.30993 c -0.54106,0 -0.79735,0.31324 -0.79735,0.79735 v 1.5947 c 0,0.54106 0.25629,0.82583 0.79735,0.82583 h 1.30993 c 0.54106,0 0.79735,-0.28477 0.79735,-0.82583 v -1.5947 c 0,-0.48411 -0.25629,-0.79735 -0.79735,-0.79735 z m 0.71192,5.92317 H 256.393 v 13.89668 h 2.73377 z"
         style="font-style:normal;font-variant:normal;font-weight:500;font-stretch:normal;font-size:28.4768px;font-family:'Exo 2';-inkscape-font-specification:'Exo 2 Medium';text-align:start;text-anchor:start;fill:#363636;fill-opacity:1;stroke-width:0.264583"
         id="path3783" />
      <path
         d="m 276.75391,120.56198 h -4.3 c -0.8543,-0.25629 -1.9649,-0.3702 -3.33179,-0.3702 -4.58476,0 -6.06555,1.28146 -6.06555,4.49934 0,1.79404 0.51258,2.99006 1.82251,3.6735 -1.25298,0.93974 -1.56622,3.21788 -0.19934,4.32848 -1.53774,0.82583 -2.22119,1.62318 -2.22119,3.1894 0,3.21788 1.68013,4.27152 6.80596,4.27152 5.06887,0 6.72052,-1.05364 6.72052,-4.35695 0,-2.3351 -0.96821,-3.5596 -3.64503,-3.95828 l -5.12582,-0.79735 c -1.30993,-0.19933 -1.39536,-1.36688 -0.88278,-2.16423 0.74039,0.14238 1.68013,0.22781 2.76225,0.22781 4.52781,0 6.03708,-1.33841 6.03708,-4.44238 0,-0.99669 -0.14238,-1.79404 -0.48411,-2.42053 l 1.9649,-0.19933 z m -7.66026,6.46424 c -2.64835,0 -3.53113,-0.65497 -3.53113,-2.36358 0,-1.76556 0.88278,-2.36357 3.53113,-2.36357 2.61986,0 3.47417,0.59801 3.47417,2.36357 0,1.70861 -0.85431,2.36358 -3.47417,2.36358 z m 4.18609,8.62847 c 0,1.79403 -0.79735,2.16423 -4.04371,2.16423 -3.30331,0 -4.10066,-0.28477 -4.10066,-2.16423 0,-1.02517 0.45563,-1.65166 1.30993,-2.36358 l 4.47086,0.56954 c 1.93643,0.28477 2.36358,0.45563 2.36358,1.79404 z"
         style="font-style:normal;font-variant:normal;font-weight:500;font-stretch:normal;font-size:28.4768px;font-family:'Exo 2';-inkscape-font-specification:'Exo 2 Medium';text-align:start;text-anchor:start;fill:#363636;fill-opacity:1;stroke-width:0.264583"
         id="path3785" />
      <path
         d="m 285.78098,132.49376 c -2.67682,0 -3.87285,-0.62649 -4.15761,-3.64503 h 6.23641 c 2.3351,0 3.38874,-1.48079 3.38874,-3.98675 0,-3.04702 -1.76556,-4.6702 -6.09403,-4.6702 -4.49934,0 -6.43576,1.79404 -6.43576,7.29006 0,5.35364 1.85099,7.31854 6.69205,7.31854 1.65165,0 4.12914,-0.22781 5.49602,-0.82583 l -0.25629,-1.82251 c -1.50927,0.17086 -3.44569,0.34172 -4.86953,0.34172 z m -0.48411,-9.96688 c 2.36358,0 3.16093,0.65497 3.1894,2.3351 0,0.8543 -0.19933,1.85099 -1.36688,1.85099 h -5.55298 c 0.11391,-3.30331 1.02517,-4.18609 3.73046,-4.18609 z"
         style="font-style:normal;font-variant:normal;font-weight:500;font-stretch:normal;font-size:28.4768px;font-family:'Exo 2';-inkscape-font-specification:'Exo 2 Medium';text-align:start;text-anchor:start;fill:#363636;fill-opacity:1;stroke-width:0.264583"
         id="path3787" />
      <path
         d="m 303.37962,120.19178 c -2.05033,0 -4.10066,0.93974 -6.15099,2.47748 l -0.17086,-2.10728 h -2.3351 v 13.89668 h 2.76225 l -0.0285,-9.85297 c 2.13576,-1.28146 3.58807,-2.07881 5.1543,-2.07881 1.30993,0 1.76556,0.54106 1.76556,2.30662 v 9.62516 h 2.76225 v -10.42251 c 0,-2.50596 -1.30993,-3.84437 -3.75894,-3.84437 z"
         style="font-style:normal;font-variant:normal;font-weight:500;font-stretch:normal;font-size:28.4768px;font-family:'Exo 2';-inkscape-font-specification:'Exo 2 Medium';text-align:start;text-anchor:start;fill:#363636;fill-opacity:1;stroke-width:0.264583"
         id="path3789" />
      <path
         d="m 317.30473,120.19178 c -4.84106,0 -6.63509,1.93643 -6.63509,7.31854 0,5.35364 1.76556,7.29006 6.63509,7.29006 1.65166,0 3.44569,-0.25629 4.84106,-0.76887 l -0.25629,-1.85099 c -1.45232,0.25629 -3.27484,0.31324 -4.10066,0.31324 -3.16093,0 -4.24305,-1.11059 -4.24305,-4.98344 0,-3.87284 1.08212,-4.98344 4.24305,-4.98344 0.96821,0 2.47748,0.057 3.75893,0.14238 l 0.3702,-1.76556 c -1.39536,-0.54106 -3.33178,-0.71192 -4.61324,-0.71192 z"
         style="font-style:normal;font-variant:normal;font-weight:500;font-stretch:normal;font-size:28.4768px;font-family:'Exo 2';-inkscape-font-specification:'Exo 2 Medium';text-align:start;text-anchor:start;fill:#363636;fill-opacity:1;stroke-width:0.264583"
         id="path3791" />
      <path
         d="m 327.44245,114.63881 h -1.30993 c -0.54106,0 -0.79735,0.31324 -0.79735,0.79735 v 1.5947 c 0,0.54106 0.25629,0.82583 0.79735,0.82583 h 1.30993 c 0.54106,0 0.79735,-0.28477 0.79735,-0.82583 v -1.5947 c 0,-0.48411 -0.25629,-0.79735 -0.79735,-0.79735 z m 0.71192,5.92317 h -2.73377 v 13.89668 h 2.73377 z"
         style="font-style:normal;font-variant:normal;font-weight:500;font-stretch:normal;font-size:28.4768px;font-family:'Exo 2';-inkscape-font-specification:'Exo 2 Medium';text-align:start;text-anchor:start;fill:#363636;fill-opacity:1;stroke-width:0.264583"
         id="path3793" />
      <path
         d="m 339.1464,120.19178 c -1.93642,0 -4.7841,0.31325 -6.749,0.65497 l 0.25629,2.02185 c 2.16424,-0.17086 4.52781,-0.34172 5.8947,-0.34172 2.13576,0 2.73377,0.54106 2.76225,2.24967 v 1.08212 h -5.58146 c -2.50595,0 -3.92979,1.25298 -3.92979,3.47417 v 1.45231 c 0,2.53444 1.7086,3.9298 4.24304,3.9298 2.53443,0 4.52781,-1.39536 5.55297,-2.449 l 0.31325,2.19271 h 2.16424 v -9.68211 c 0,-3.50265 -1.70861,-4.58477 -4.92649,-4.58477 z m -4.55629,10.25165 v -0.7404 c 0,-1.05364 0.3702,-1.7086 1.65166,-1.76556 h 5.06887 v 2.47748 c -1.5947,1.42384 -3.4457,1.9649 -4.69868,1.9649 -1.39536,0 -2.02185,-0.56953 -2.02185,-1.93642 z"
         style="font-style:normal;font-variant:normal;font-weight:500;font-stretch:normal;font-size:28.4768px;font-family:'Exo 2';-inkscape-font-specification:'Exo 2 Medium';text-align:start;text-anchor:start;fill:#363636;fill-opacity:1;stroke-width:0.264583"
         id="path3795" />
    </g>
  </g>
</svg>
