<svg xmlns="http://www.w3.org/2000/svg" viewBox="0 0 2699.97 2566.11"><defs><style>.cls-1{fill:red;}</style></defs><title>kakas</title><g id="Layer_2" data-name="Layer 2"><g id="Layer_1_Image" data-name="Layer 1 Image"><path d="M2543.31,2008.16c.16-36.39,38.07-72.89,60.31-108.84,30.17-48.75,61.13-97,96.35-152.8H2509.54c6-19,10.71-33.37,15.09-47.79,129.85-427.4,79.9-831.26-188.73-1190.46-304.14-406.69-718.54-576-1220.25-483.73C480.5,141.34,20.1,768.05,122.56,1475.05c13.11,90.47,39.33,179,60.51,273.09H0c50,79.4,94.82,152.9,142.34,224.61,15.68,23.66,17.88,40.39.84,65-43.66,63-83.86,128.5-125.28,193.11-5.35,8.36-9.68,17.38-17.55,31.65H419.19V2402c95.33,0,187.3-1.26,279.19.84,24.64.56,49.94,9,73.41,17.87,94.7,35.73,187.37,77.49,283.61,108.17,63.4,20.22,131.62,25.32,197.67,37.19h198.52c10.2-2.2,20.3-5.32,30.63-6.48,136.11-15.27,268.15-48,388.79-112.75,66.38-35.63,132.24-49.43,205.84-45.58,66.8,3.49,133.93.74,205.38.74V2259.55h416.95c-33.56-52.28-64-99.52-94.24-146.85C2582.69,2077.91,2543.16,2042.92,2543.31,2008.16ZM1108.63,60.59C1614.43-41.33,2029,136.33,2327.36,553.18c253.53,354.18,293.26,748.32,157.95,1161-7.87,24-17.35,42.17-43.58,29.78,21.22-86.83,47.86-171.52,62.19-258.24C2613,825.28,2187.47,219.88,1574.72,93.83c-473.84-97.47-971,124.68-1222.27,553.86-198,338.2-226,694.41-99.61,1064,3.37,9.83,6.38,19.79,9.74,30.24-24.54,9.93-37.47,4.25-46.44-20.66C-42.86,1001.67,375,208.41,1108.63,60.59Zm780.94,1714.1c31.94-13.57,60.36-26.41,89.35-37.8,74.2-29.17,88.79-95.12,33.87-153.81-23.36-25-46.38-50.28-68.79-76.1-5-5.74-6.74-14.28-12.38-26.91,29.62-7.66,56.39-15,83.34-21.48,31.93-7.71,43.42-22.76,36-58.73-4.75-22.91,8.4-49.53,14.16-77.61-3.48-.57-14.84-2.07-26-4.38-31.33-6.48-62-7.4-89.46-33.53-17.47-16.65-52.89-14.31-80.18-20.87-17.69-4.26-35.2-9.23-54.25-14.27,3.85-6.32,4.67-9.27,5.9-9.45,15.41-2.3,30.89-4.2,46.35-6.2-5.68-15.86-7.56-34.88-17.67-47.08-58.47-70.55-62.44-161.46-94.52-241.6-36.81-91.93-18.63-189.43-39.93-282.34-2.28-10,7.64-28.51,17-33.66,8.49-4.64,28-.47,35.74,7,23.37,22.5,48.67,28.26,77.92,17.58,53.26-19.44,108.74-37,118.63-109.11,31.43,31.62,64.22,59.08,90.4,91.83,264.47,330.81,309.32,690.89,141.72,1078.93-10.51,24.33-24.33,33.64-50.74,32-36.18-2.24-72.6-.56-112.11-.56v144.8C1962.23,1877.89,1931.81,1823.29,1889.57,1774.69Zm77.93,106.23c-44,13.54-48.88,10.8-62.39-37.86ZM543.12,1745.55c-12.22-.81-29.53-10.27-34.65-20.63-269.2-545.48,7.81-1209.31,584.93-1381a102.75,102.75,0,0,1,15.68-3.17c26.18,38.55,48.23,73.87,73.33,106.88,14.82,19.49,13,35.4,7.1,58.23-19,73.52-77.62,100.4-138.71,122.4-22.71,8.18-50.83,1.32-76.08,1.32-21,76.77,42.31,169.7,119.48,164.22,59.93-4.26,91,10.13,109.69,68.76,13.67,43,33.07,46.78,78.21,37.84,9-1.78,18.1-3.11,33.33-5.69-26.1,84.36-37.52,169.08-83.87,241.9-28.86,45.33-74.76,63.1-126,69.32-38.65,4.7-77.4,8.49-116,13.59-5.25.7-9.85,6.39-14.74,9.9,33.47-3.23,66.9-8.18,100.45-9.18,44.66-1.34,57.26,13.63,55.39,59.63l29.92-32.69c24.72,10.57,33.94,25.84,23.68,48.7-13.44,30-38.06,34.5-68.12,28.88,3.84-13.94,7.22-26.15,10.59-38.36l-61.3,48.85c6.78,2.79,14.81,5.54,14.66,6.11-8.8,33-9.63,72.66-29.31,97.22-58.49,73-115.25,146.13-157,230.56-18.92,38.29-76.71,40.94-109.69,7.77-11.13-11.2-19.84-24.81-31.29-39.4-3.61,47.84,14.63,64.88,93.92,89.08-28,51-55,101.62-84,151.06-3.84,6.55-17.89,9.25-27.46,9.86-22.16,1.42-44.46.45-69.84.45V1746.52C622.63,1746.52,582.73,1748.15,543.12,1745.55ZM1470.79,429l-24,69.83,75,45.23,8.32-7.69c-9.6-9.93-17.7-22.3-29.1-29.3-22.52-13.83-26.38-25.86-7.25-47,10.42-11.51,13.56-29.62,21.93-49.32,52-12,105.47-4.4,155.84,32L1508.09,485l88.7,45.19-16.44-50.57c38.59,4.12,76.33,4.41,111.72,13.69,15.13,4,36.11,27.13,35.51,40.75-1.18,27.18-15,53.94-24.46,80.58-4.58,12.93-15.83,25.22-15.81,37.78.11,74,2.47,148.07,4.58,222.09.26,9.14,2.59,18.52,5.57,27.24,30,87.62,61.29,174.79,88.8,263.16,2.69,8.63-15.68,26.75-27.65,36.15-10.77,8.46-26.24,10.84-39.51,16.22-4.31,1.74-10.14,7.55-12,6.36-43.17-27.56-65,18.06-97.29,27.45-19.38-31.57-69.42-44.41-125.06-26.8-31,9.79-59.59,26.91-94,42.91-2.52-45.54-28.57-63-72-67.14-17.88-1.7-33.71-22.75-51-34.24-6.14-4.08-13.76-5.92-21.29-9,21.11-38.37,46.41-77,64.1-118.88,13.59-32.13,17.68-68.29,25.81-102.7,6.68-28.33,23.71-43.25,52.88-49.53,39.28-8.45,57.52-43.89,42.87-81.6-8.46-21.76-21.85-41.63-33.37-62.17-4-7.18-12.38-13.47-13.07-20.71-2.35-24.71-7.68-51.45-.48-73.73,3.24-10,33.43-11.34,58.39-18.67.18-1.1,3.56-11,3-20.62-2.76-51-79.21-117.51-130.28-114.53-34.57,2-68.93,3.39-88.48,39.56-7.78,14.39-17.57,27.69-26.44,41.49l-12.13-7.58c4.08-6.82,7.59-14.08,12.33-20.41,29.62-39.59,29.46-66-1-105.29q-20.62-26.58-41.08-53.27c-2.87-3.74-7.15-7.27-8.09-11.5-11.39-51.22-33.6-92.13-97.24-96.22,73.63-58.9,151.35-80.08,238.2-64.71,23.13,4.09,45.85,11,68.38,17.94,52.28,16,63.36,28.38,60.53,83.77-1.7,33.36-12.39,66.25-19.79,103.09Zm433.76-56.53c13.87-16.36,29.56-33.74,48.24-42.78,20.23-9.79,34.47-.46,28.14,26.29-2.58,10.91-4.9,23.77-1.59,33.85,13.31,40.55,6.11,59.35-34.61,75.43-38.35,15.13-77.35,28.61-116,43-5.25,2-10,5.19-15.6,8.14,13.21,63.44,68.69,39.73,105.75,51.82-17.43,41.67-60.73,70.31-99.79,67.55-22.45-1.58-57.49-48.67-56-77.26,2.57-49.8-26.06-87.95-53.77-122.06-18.54-22.81-25.48-39.82-15.89-65.38,6.59-17.55,13.34-35,22.29-58.54l-30.19,12.38c-16.73-22.61-34.8-45.7-51.33-69.84-11.89-17.35-4.21-30.8,14.43-34.11,49.59-8.79,99.72-22.3,141.82,23.27,39.1,42.33,44.27,88.9,26.63,141.05-5.17,15.27-8.73,31.08-14,50.2C1856.9,440.17,1878.36,403.37,1904.55,372.46Zm-252.34-17.14,3.42,13.95c-11.42,8.63-22.54,24.23-34.31,24.73-59.91,2.54-120,1.17-184.39,1.17,5.57-29.57,10.1-53.58,16.09-85.38Zm-376.38,524c-33.36-8.62-68.73-74.32-58.52-101.39,1.2-3.2,2.68-6.89,5.2-8.88,12.71-10,26.83-18.46,38.47-29.55,10.59-10.08,18.63-22.83,32.13-39.87l57,93.73,7.16-39.2c13.81,10.55,25,18.36,35.32,27.09,38.37,32.3,37.76,47.07-2.57,75.68-32.58,23.11-44.92,19.49-61.38-16.77-4.78-10.54-9.93-22.37-18.42-29.32-7.1-5.8-19.32-5.33-29.27-7.63-1.72,9.41-4.43,18.76-4.93,28.23C1275.23,846.91,1275.83,862.5,1275.83,879.27ZM1250,710.78c1.24,4.66-5.35,12.94-10.26,17.47-37.24,34.4-82.71,52-132.17,49.74-58.13-2.63-114.59-71.43-114.35-137.1,13.7,8.22,28.28,12.62,36.07,22.42,26,32.68,60.53,37.47,95.77,27.67,49.57-13.78,97.82-32.59,146.18-50.47,44.35-16.39,87.23-38.76,147.44-27.66-54.18,24.95-99.55,45.93-145,66.73C1260.17,685.75,1244.13,688.81,1250,710.78Zm-12.68,578.7c-3,58.88-74.16,101.5-155.62,89.28,20.4-14.6,33.34-30.34,49-33.72,33.37-7.24,63.32-16.71,84.65-45.46C1218.93,1294.69,1227.75,1293.66,1237.32,1289.48ZM883.69,1715.55c2.92-4.59,7.4-8.19,15.44-16.87-3,22.24-5.18,38.2-7.34,54.16l10.41,3.93c11.25-30.31,22.71-60.55,33.64-91,4.58-12.75,5.4-27.59,12.45-38.59,40.12-62.59,78.79-126.49,124-185.27,18.48-24,51.42-37.65,79.15-53.63,28.11-16.2,61.6-24.94,86.16-45,43.68-35.68,39.2-53.07-17.52-78.59l40.81-57.89c8.38,11.17,14.3,16,16.21,22.14,7.78,24.82,21.15,33,44.55,17.8,18.73-12.15,31.67-6.69,44.27,11.25,24.56,35,50.59,40.65,83.77,16,47-34.93,91.42-44.47,138.84-.94,6,5.52,22.09,1.86,33-.13,28.27-5.14,56.4-11.23,84.35-17.9,19.23-4.59,38.07-10.79,64.85-9.84-8.27,9.52-15.23,20.78-25.09,28.18-15.94,12-38.31,18-49.59,32.81-12,15.83-23.71,42-18.59,58.32,7.35,23.45,2.28,35.85-11.78,51.77-26.56,30.07-53.25,60.3-76.78,92.72-50.48,69.57-36.47,154.22,32.08,206.81,55.68,42.72,121.34,56.55,188.8,62.6,29,2.6,44.11,12.26,50,42.28,4.34,22.11,17.53,42.49,27.45,65.16H775.5C813.22,1826.38,848.34,1770.89,883.69,1715.55Zm753.1-2.45c-59.66-45.72-72.54-139.92-26.81-199.58q25.83-33.69,53.58-65.89c22.73-26.39,40.5-52.23,36.27-91.48-1.82-16.87,13-45.84,27.69-52.29,48.88-21.41,100.67-44.62,155.72-22.36,23,9.29,42.79,26.44,65.71,41.08L1927.36,1348l89.86-7.6c5.14,25.12,13.09,49.91,13.87,74.92.3,9.67-14.19,26.22-24.47,28.58-29.44,6.76-60.11,9.18-90.43,10.79-31.17,1.67-62.5.37-97.22,4.45,38.22,1,45.46,25,49.29,53.89,1,7.59,12.66,13.37,18.3,20.84,16.47,21.83,32.37,44.09,47.76,65.19,17.09-19.1,15.27-39.76-16.11-60-26.82-17.26-45.62-36.87-39-77.27,9.84,5.73,20.34,8.45,25.2,15.21,35,48.63,69.06,97.87,102.81,147.35,21.17,31,15.35,65.87-15.07,86.57-6.74,4.58-17.87,2.35-26.79,4.15-8,1.63-17,2.7-23.51,7.07C1853.33,1781.61,1721.38,1777.93,1636.79,1713.1ZM415.57,1996.43c8.95,72.1,1.56,146.23,1.27,219.46,0,2.17-1.29,4.34-2.79,9.05H59.92c43.24-67.28,83.18-131.08,125.07-193.57,12.39-18.49,12.57-31.66.31-50.35-42.44-64.69-82.9-130.68-126.63-200.17H615.05l3,5.34c-35.49,18.72-69.35,42.08-106.81,55.18C435.24,1867.94,405.3,1913.66,415.57,1996.43Zm410.73,415.7q.56-6.95,1.1-13.89c33.3,5.24,68.72,4.89,99.57,16.59,278,105.43,555.39,106.78,834.33,4,35.16-13,74.19-15.39,111.43-22.71q.86,7.6,1.72,15.21Q1350.19,2657.06,826.3,2412.13Zm1420.2-45.38H452.13V1923.38H2246.51v443.37ZM2281.19,2225V2084c0-54.34-1.63-108.74.72-163,1.11-25.57-8.86-37.58-30.3-48-57.09-27.72-113.2-57.47-169.7-86.4.56-1.87,1.11-3.73,1.67-5.59h556.47c-41.38,65.74-78.44,128.34-119.49,188.19-18.94,27.61-18.21,47.36.69,74.39,40.32,57.67,76.9,118,117.76,181.43Z"/><path class="cls-1" d="M1967.5,1880.92c-44,13.54-48.88,10.8-62.39-37.86Z"/><path class="cls-1" d="M1874.45,2411.36q-524.27,245.7-1048.15.77.56-6.95,1.1-13.89c33.3,5.24,68.72,4.89,99.57,16.59,278,105.43,555.39,106.78,834.33,4,35.16-13,74.19-15.39,111.43-22.71Q1873.59,2403.75,1874.45,2411.36Z"/><path class="cls-1" d="M1916.19,1454.68c-31.17,1.67-62.5.37-97.22,4.45,38.22,1,45.46,25,49.29,53.89,1,7.59,12.66,13.37,18.3,20.84,16.47,21.83,32.37,44.09,47.76,65.19,17.09-19.1,15.27-39.76-16.11-60-26.82-17.26-45.62-36.87-39-77.27,9.84,5.73,20.34,8.45,25.2,15.21,35,48.63,69.06,97.87,102.81,147.35,21.17,31,15.35,65.87-15.07,86.57-6.74,4.58-17.87,2.35-26.79,4.15-8,1.63-17,2.7-23.51,7.07-88.56,59.44-220.51,55.76-305.1-9.07-59.66-45.72-72.54-139.92-26.81-199.58q25.83-33.69,53.58-65.89c22.73-26.39,40.5-52.23,36.27-91.48-1.82-16.87,13-45.84,27.69-52.29,48.88-21.41,100.67-44.62,155.72-22.36,23,9.29,42.79,26.44,65.71,41.08L1927.36,1348l89.86-7.6c5.14,25.12,13.09,49.91,13.87,74.92.3,9.67-14.19,26.22-24.47,28.58C1977.18,1450.65,1946.5,1453.07,1916.19,1454.68Z"/><path class="cls-1" d="M1237.32,1289.48c-3,58.88-74.16,101.5-155.62,89.28,20.4-14.6,33.34-30.34,49-33.72,33.37-7.24,63.32-16.71,84.65-45.46C1218.93,1294.69,1227.75,1293.66,1237.32,1289.48Z"/><path class="cls-1" d="M1859.84,1820.68c-5.9-30-21.06-39.68-50-42.28-67.46-6.05-133.12-19.88-188.8-62.6-68.55-52.59-82.56-137.24-32.08-206.81,23.53-32.42,50.22-62.65,76.78-92.72,14.06-15.92,19.13-28.32,11.78-51.77-5.12-16.33,6.58-42.49,18.59-58.32,11.28-14.86,33.65-20.85,49.59-32.81,9.86-7.4,16.82-18.66,25.09-28.18-26.78-1-45.62,5.25-64.85,9.84-28,6.67-56.08,12.76-84.35,17.9-10.95,2-27,5.65-33,.13-47.42-43.53-91.87-34-138.84.94-33.18,24.67-59.21,19-83.77-16-12.6-17.94-25.54-23.4-44.27-11.25-23.4,15.19-36.77,7-44.55-17.8-1.91-6.11-7.83-11-16.21-22.14l-40.81,57.89c56.72,25.52,61.2,42.91,17.52,78.59-24.56,20.06-58,28.8-86.16,45-27.73,16-60.67,29.61-79.15,53.63-45.22,58.78-83.89,122.68-124,185.27-7,11-7.87,25.84-12.45,38.59-10.93,30.42-22.39,60.66-33.64,91l-10.41-3.93c2.16-16,4.33-31.92,7.34-54.16-8,8.68-12.52,12.28-15.44,16.87-35.35,55.34-70.47,110.83-108.19,170.29H1887.29C1877.37,1863.17,1864.18,1842.79,1859.84,1820.68ZM1270.1,1601.45l-9.25-3.69c-.23-47.77,31.86-83.06,48.34-124.37l15.07,5.67Q1297.19,1540.25,1270.1,1601.45Z"/><path class="cls-1" d="M1944.73,465.25c-38.35,15.13-77.35,28.61-116,43-5.25,2-10,5.19-15.6,8.14,13.21,63.44,68.69,39.73,105.75,51.82-17.43,41.67-60.73,70.31-99.79,67.55-22.45-1.58-57.49-48.67-56-77.26,2.57-49.8-26.06-87.95-53.77-122.06-18.54-22.81-25.48-39.82-15.89-65.38,6.59-17.55,13.34-35,22.29-58.54l-30.19,12.38c-16.73-22.61-34.8-45.7-51.33-69.84-11.89-17.35-4.21-30.8,14.43-34.11,49.59-8.79,99.72-22.3,141.82,23.27,39.1,42.33,44.27,88.9,26.63,141.05-5.17,15.27-8.73,31.08-14,50.2,53.84,4.67,75.29-32.13,101.48-63,13.87-16.36,29.56-33.74,48.24-42.78,20.23-9.79,34.47-.46,28.14,26.29-2.58,10.91-4.9,23.77-1.59,33.85C1992.65,430.37,1985.44,449.17,1944.73,465.25Z"/><path class="cls-1" d="M1655.63,369.27c-11.42,8.63-22.54,24.23-34.31,24.73-59.91,2.54-120,1.17-184.39,1.17,5.57-29.57,10.1-53.58,16.09-85.38l199.19,45.53Z"/><path class="cls-1" d="M1418.68,612.85c-54.18,24.95-99.55,45.93-145,66.73-13.5,6.17-29.54,9.23-23.67,31.2,1.24,4.66-5.35,12.94-10.26,17.47-37.24,34.4-82.71,52-132.17,49.74-58.13-2.63-114.59-71.43-114.35-137.1,13.7,8.22,28.28,12.62,36.07,22.42,26,32.68,60.53,37.47,95.77,27.67,49.57-13.78,97.82-32.59,146.18-50.47C1315.59,624.12,1358.47,601.75,1418.68,612.85Z"/><path class="cls-1" d="M1390.06,856.88c-32.58,23.11-44.92,19.49-61.38-16.77-4.78-10.54-9.93-22.37-18.42-29.32-7.1-5.8-19.32-5.33-29.27-7.63-1.72,9.41-4.43,18.76-4.93,28.23-.83,15.52-.23,31.11-.23,47.88-33.36-8.62-68.73-74.32-58.52-101.39,1.2-3.2,2.68-6.89,5.2-8.88,12.71-10,26.83-18.46,38.47-29.55,10.59-10.08,18.63-22.83,32.13-39.87l57,93.73,7.16-39.2c13.81,10.55,25,18.36,35.32,27.09C1431,813.5,1430.38,828.27,1390.06,856.88Z"/><path class="cls-1" d="M1786.25,1164.87c-27.51-88.37-58.85-175.54-88.8-263.16-3-8.72-5.31-18.1-5.57-27.24-2.11-74-4.47-148.05-4.58-222.09,0-12.56,11.23-24.85,15.81-37.78,9.44-26.64,23.28-53.4,24.46-80.58.6-13.62-20.38-36.79-35.51-40.75-35.39-9.28-73.13-9.57-111.72-13.69l16.44,50.57L1508.08,485l163.47-42.23c-50.37-36.36-103.86-43.92-155.84-32-8.37,19.7-11.51,37.81-21.93,49.32-19.13,21.11-15.27,33.14,7.25,47,11.4,7,19.5,19.37,29.1,29.3l-8.32,7.69-75-45.23,24-69.83-69.22-8.51c7.4-36.84,18.09-69.73,19.79-103.09,2.83-55.39-8.25-67.77-60.53-83.77-22.53-6.9-45.25-13.85-68.38-17.94-86.85-15.37-164.57,5.81-238.2,64.71,63.64,4.09,85.85,45,97.24,96.22.94,4.23,5.22,7.76,8.09,11.5q20.49,26.67,41.08,53.27c30.46,39.26,30.62,65.7,1,105.29-4.74,6.33-8.25,13.59-12.33,20.41l12.13,7.58c8.87-13.8,18.66-27.1,26.44-41.49,19.55-36.17,53.91-37.54,88.48-39.56,51.07-3,127.52,63.55,130.28,114.53.52,9.66-2.86,19.52-3,20.62-25,7.33-55.15,8.64-58.39,18.67-7.2,22.28-1.87,49,.48,73.73.69,7.24,9,13.53,13.07,20.71,11.52,20.54,24.91,40.41,33.37,62.17,14.65,37.71-3.59,73.15-42.87,81.6-29.17,6.28-46.2,21.2-52.88,49.53-8.13,34.41-12.22,70.57-25.81,102.7-17.69,41.86-43,80.51-64.1,118.88,7.53,3.11,15.15,5,21.29,9,17.27,11.49,33.1,32.54,51,34.24,43.47,4.12,69.52,21.6,72,67.14,34.36-16,63-33.12,94-42.91,55.64-17.61,105.68-4.77,125.06,26.8,32.32-9.39,54.12-55,97.29-27.45,1.86,1.19,7.69-4.62,12-6.36,13.27-5.38,28.74-7.76,39.51-16.22C1770.58,1191.62,1789,1173.5,1786.25,1164.87ZM1418.74,741.44c-4-24.25-7.19-43.43-10.68-64.49C1441.76,691.79,1445.88,711.19,1418.74,741.44Z"/><path class="cls-1" d="M1282.1,900.41c-45.14,8.94-64.54,5.15-78.21-37.84-18.65-58.63-49.76-73-109.69-68.76-77.17,5.48-140.47-87.45-119.48-164.22,25.25,0,53.37,6.86,76.08-1.32,61.09-22,119.76-48.88,138.71-122.4,5.88-22.83,7.72-38.74-7.1-58.23-25.1-33-47.15-68.33-73.33-106.88a102.75,102.75,0,0,0-15.68,3.17c-577.12,171.68-854.13,835.51-584.93,1381,5.12,10.36,22.43,19.82,34.65,20.63,39.61,2.6,79.51,1,122.38,1V1888c25.38,0,47.68,1,69.84-.45,9.57-.61,23.62-3.31,27.46-9.86,29-49.44,56-100.07,84-151.06-79.29-24.2-97.53-41.24-93.92-89.08,11.45,14.59,20.16,28.2,31.29,39.4,33,33.17,90.77,30.52,109.69-7.77,41.71-84.43,98.47-157.54,157-230.56,19.68-24.56,20.51-64.26,29.31-97.22.15-.57-7.88-3.32-14.66-6.11l61.3-48.85c-3.37,12.21-6.75,24.42-10.59,38.36,30.06,5.62,54.68,1.08,68.12-28.88,10.26-22.86,1-38.13-23.68-48.7l-29.92,32.69c1.87-46-10.73-61-55.39-59.63-33.55,1-67,6-100.45,9.18,4.89-3.51,9.49-9.2,14.74-9.9,38.59-5.1,77.34-8.89,116-13.59,51.2-6.22,97.1-24,126-69.32,46.35-72.82,57.77-157.54,83.87-241.9C1300.2,897.3,1291.11,898.63,1282.1,900.41ZM974,1229.52c-61.88,8.9-80.4,36.27-66.16,97.73,17.68,76.33,17.9,76.92-55.27,103.47-49.8,18.07-101,32.32-150.28,51.74-50.27,19.82-71.42,62-58.52,114,3.16,12.76,18.11,33.13,26.13,32.44,47.76-4.13,53.11,38.77,74.81,63.66-46.9-15.48-89.92-40-118.57-79.57-26-36-9.69-100,31.87-120.58,63.86-31.66,130.88-57.62,198.15-81.52,41.25-14.65,45.31-15.25,37.84-59.2-2.17-12.77-3.55-25.68-5.09-38.55-7.85-65.36,18.49-91.32,85.09-83.67h.08l.1,0Zm.31,0h.12l0,0Z"/><path class="cls-1" d="M2196.73,1715.09c-10.51,24.33-24.33,33.64-50.74,32-36.18-2.24-72.6-.56-112.11-.56v144.8c-71.66-13.44-102.08-68-144.32-116.64,31.94-13.57,60.36-26.41,89.35-37.8,74.2-29.17,88.79-95.12,33.87-153.81-23.36-25-46.38-50.28-68.79-76.1-5-5.74-6.74-14.28-12.38-26.91,29.62-7.66,56.39-15,83.34-21.48,31.93-7.71,43.42-22.76,36-58.73-4.75-22.91,8.4-49.53,14.16-77.61-3.48-.57-14.84-2.07-26-4.38-31.33-6.48-62-7.4-89.46-33.53-17.47-16.65-52.89-14.31-80.18-20.87-17.69-4.26-35.2-9.23-54.25-14.27,3.85-6.32,4.67-9.27,5.9-9.45,15.41-2.3,30.89-4.2,46.35-6.2-5.68-15.86-7.56-34.88-17.67-47.08-58.47-70.55-62.44-161.46-94.52-241.6-36.81-91.93-18.63-189.43-39.93-282.34-2.28-10,7.64-28.51,17-33.66,8.49-4.64,28-.47,35.74,7,23.37,22.5,48.67,28.26,77.92,17.58,53.26-19.44,108.74-37,118.63-109.11,31.43,31.62,64.22,59.08,90.4,91.83C2319.48,967,2364.34,1327.05,2196.73,1715.09Z"/><path class="cls-1" d="M2485.31,1714.16c-7.87,24-17.35,42.17-43.58,29.78,21.22-86.83,47.86-171.52,62.19-258.24C2613,825.28,2187.47,219.88,1574.72,93.83c-473.84-97.47-971,124.68-1222.27,553.86-198,338.2-226,694.41-99.61,1064,3.37,9.83,6.38,19.79,9.74,30.24-24.54,9.93-37.47,4.25-46.44-20.66C-42.86,1001.67,375,208.41,1108.63,60.59,1614.43-41.33,2029,136.33,2327.36,553.18,2580.89,907.36,2620.62,1301.5,2485.31,1714.16Z"/><path class="cls-1" d="M2521.25,2043.59c40.32,57.67,76.9,118,117.76,181.43H2281.19V2084c0-54.34-1.63-108.74.72-163,1.11-25.57-8.86-37.58-30.3-48-57.09-27.72-113.2-57.47-169.7-86.4.56-1.87,1.11-3.73,1.67-5.59h556.47c-41.38,65.74-78.44,128.34-119.49,188.19C2501.63,1996.81,2502.36,2016.56,2521.25,2043.59Z"/><rect class="cls-1" x="452.13" y="1923.38" width="1794.38" height="443.37"/><path class="cls-1" d="M618,1786.19c-35.49,18.72-69.35,42.08-106.81,55.18-76,26.57-105.91,72.29-95.64,155.06,8.95,72.1,1.56,146.23,1.27,219.46,0,2.17-1.29,4.34-2.79,9.05H59.92c43.24-67.28,83.18-131.08,125.07-193.57,12.39-18.49,12.57-31.66.31-50.35-42.44-64.69-82.9-130.68-126.63-200.17H615.05Z"/><path d="M907.86,1327.25c17.68,76.33,17.9,76.92-55.27,103.47-49.8,18.07-101,32.32-150.28,51.74-50.27,19.82-71.42,62-58.52,114,3.16,12.76,18.11,33.13,26.13,32.44,47.76-4.13,53.11,38.77,74.81,63.66-46.9-15.48-89.92-40-118.57-79.57-26-36-9.69-100,31.87-120.58,63.86-31.66,130.88-57.62,198.15-81.52,41.25-14.65,45.31-15.25,37.84-59.2-2.17-12.77-3.55-25.68-5.09-38.55-7.86-65.36,18.48-91.32,85.09-83.67C912.14,1238.42,893.62,1265.79,907.86,1327.25Z"/><path d="M974.2,1229.54l-.18,0h.08Z"/><path d="M974.46,1229.59l-.14,0h.12Z"/><path d="M1324.25,1479.06q-27.07,61.18-54.16,122.39l-9.25-3.69c-.23-47.77,31.86-83.06,48.34-124.37Z"/><path d="M1418.74,741.44c-4-24.25-7.19-43.43-10.68-64.49C1441.76,691.79,1445.88,711.19,1418.74,741.44Z"/><path class="cls-1" d="M1170.06,2127.14l-24.26,114.24c-6.06,29.31-27.28,44.48-42,44.48-9.11,0-25.28-.5-25.28-39.43,0-47.51,27.8-138.51,70.76-138.51C1165.5,2107.92,1170.06,2121.08,1170.06,2127.14Z"/><path class="cls-1" d="M1697.64,2127.14l-24.27,114.24c-6,29.31-27.28,44.48-41.94,44.48-9.11,0-25.28-.5-25.28-39.43,0-47.51,27.8-138.51,70.76-138.51C1693.1,2107.92,1697.64,2121.08,1697.64,2127.14Z"/><path class="cls-1" d="M1889.16,2247.94c0,35.39-21.74,47-44,47-19.86,0-28.85-9.28-30.54-28.22q1-2.07,2-4.21c3,2.72,7.51,3.61,11.38,3.61,13.13,0,22.24-12.64,22.24-24.76,0-8.6-5-14.66-11.63-17.71,16.7-32.35,30.84-62.67,41-95.52C1884.61,2206,1889.16,2221.67,1889.16,2247.94Z"/><path d="M873.51,2108.89C905.29,2065.51,988,1955.56,988,1956.06h53l-140.22,161.4c6.56,0,12.1-.5,17.65-.5,48.92,0,62.54,23.2,62.54,54,0,41.36-24.71,95.83-24.71,127.61,0,15.13,7.57,28.75,19.67,33.29-21.18,6.05-37.83,8.57-49.93,8.57-32.78,0-39.34-17.15-39.34-33.79,0-33.29,26.73-94.32,26.73-132.65,0-20.17-7.57-34.3-30.26-34.3-4.54,0-10.59,1-16.64,2L826.1,2331.83H753.46l73.14-343c-44.39,18.66-70.61,57-70.61,110.46,0,25.72,6.56,29.76,7.06,34.3-34.8,0-54-12.61-54-48.92,0-67.08,92.81-131.14,177-131.14,7.06,0,13.62.5,20.18,1Z"/><path d="M1251.28,2079.64,1215,2251.13a70.22,70.22,0,0,0-2,16.14c0,14.12,6.56,21.69,20.68,21.69,19.67,0,33.29-22.19,40.85-47.41h21.18c-28.75,82.21-74.14,93.31-101.38,93.31-28.25,0-46.4-16.14-49.43-46.4-15.64,23.2-39.34,46.4-75.15,46.4-34.3,0-67.08-21.18-67.08-81.21,0-68.09,41.86-176.53,129.63-176.53,28.75,0,40.85,11.1,40.85,25.72v3.53l5.55-26.73Zm-174,167c0,38.84,16.14,39.34,25.22,39.34,14.63,0,35.81-15.13,41.86-44.39l24.21-114c0-6.05-4.54-19.17-20.68-19.17C1105,2108.39,1077.27,2199.18,1077.27,2246.59Z"/><path d="M1512.54,2079.64l-100.88,70.11a93.71,93.71,0,0,1,16.64-2c37.32,0,55.48,26.73,55.48,59a85.16,85.16,0,0,1-2,19.17l-5.55,25.22c-1,5-2.52,10.59-2.52,16.14,0,10.09,4,18.66,19.67,18.66,22.19,0,31.27-18.16,42.37-44.39h21.18c-28.75,84.74-69.6,93.31-92.81,93.31-41.36,0-63.55-20.68-63.55-57.5a126.87,126.87,0,0,1,3-26.23l4-19.67a84.4,84.4,0,0,0,2-18.66c0-14.63-5-24.21-18.16-24.21-11.6,0-23.2,7.06-37.32,18.66l-26.23,124.58H1255.3l73.13-343,74.65-10.09-37.83,177.54,97.35-76.67h49.94Z"/><path d="M1777.84,2079.64l-36.32,171.49a70.22,70.22,0,0,0-2,16.14c0,14.12,6.56,21.69,20.68,21.69,19.67,0,33.29-22.19,40.85-47.41h21.18c-28.75,82.21-74.14,93.31-101.38,93.31-28.25,0-46.4-16.14-49.43-46.4-15.64,23.2-39.34,46.4-75.15,46.4-34.3,0-67.08-21.18-67.08-81.21,0-68.09,41.86-176.53,129.63-176.53,28.75,0,40.85,11.1,40.85,25.72v3.53l5.55-26.73Zm-174,167c0,38.84,16.14,39.34,25.22,39.34,14.63,0,35.81-15.13,41.86-44.39l24.21-114c0-6.05-4.54-19.17-20.68-19.17C1631.57,2108.39,1603.83,2199.18,1603.83,2246.59Z"/><path d="M2014.88,2241.54c-26.23,30.26-54,49.43-77.17,63.05-21.18,22.19-53.46,30.26-79.19,30.26-51.45,0-73.64-33.79-73.64-64.56,0-23.2,13.11-40.35,26.73-46.91,28.25-49.93,46.4-99.87,62-149.3L1948.3,2064c6,130.63,11.1,150.3,11.1,183.59a76.85,76.85,0,0,1-2,19.17,283.08,283.08,0,0,0,36.32-25.22h21.18Zm-189.64,24.72c-5,0-11.1-1.51-13.62-6.56,0,23.71,8.57,35.31,30.77,35.31s43.88-11.6,43.88-46.91c0-26.23-4.54-41.86-9.58-119.54-10.09,32.78-24.21,63.05-40.86,95.33,6.56,3,11.6,9.08,11.6,17.65C1847.43,2253.65,1838.35,2266.26,1825.24,2266.26Z"/></g></g></svg>