<?xml version="1.0" encoding="utf-8"?>
<!-- Generator: Adobe Illustrator 21.0.0, SVG Export Plug-In . SVG Version: 6.00 Build 0)  -->
<svg version="1.1" xmlns="http://www.w3.org/2000/svg" xmlns:xlink="http://www.w3.org/1999/xlink" x="0px" y="0px"
	 viewBox="0 0 1200 723" enable-background="new 0 0 1200 723" xml:space="preserve">
<g id="Réteg_2">
</g>
<g id="Réteg_3">
</g>
<g id="Réteg_1">
	<g>
		<g>
			<g>
				<path fill="#5F2E8A" d="M852.6,303.7c-3.4-2.6-7.8-3.2-12-3.6c-50.1-5-100.9,12.5-142,41.6c-7.8-8.4-16-17-26.5-21.7
					c-10.5-4.7-24-4.6-32.3,3.3c-7.1,6.8-8.8,17.9-5.8,27.2c3,9.3,10,16.9,18.1,22.4c7,4.8,15.9,8.2,23.9,5.3
					c2.9-1.1,5.4-2.5,7.6-4.3c-0.4-0.4-0.9-0.9-1.3-1.3c-5.9-5.6-13.1-9.7-19.8-14.4s-13.2-10-17.2-17.1c-2.1-3.8-3.6-8.4,0.2-12.4
					c1-1.1,2.3-1.9,3.7-2.4c1.5-0.6,3.1-0.8,4.6-0.8c2.6,0,5.2,0.6,7.7,1.5c13.9,4.8,24.6,16.2,32.1,28.8c0.8,1.4,1.6,2.9,2.3,4.5
					c6.8-7.9,14.5-14.7,23.4-20.4c18.2-11.6,40.3-16.2,61.8-17.2c21.5-1,43.2-1.3,64.6-3.6c3.7-0.4,7.9-1.2,9.9-4.3
					C857.8,311.3,856,306.2,852.6,303.7z M840.6,312.7c-3.9-0.2-7.1-1.7-7-3.4c0.1-1.7,3.4-2.9,7.3-2.7c3.9,0.2,7.1,1.7,7,3.4
					C847.8,311.7,844.6,312.9,840.6,312.7z"/>
			</g>
			<g>
				<path fill="#83B4D3" d="M703.8,426c-5.4,0.1-10.6-1.6-15.7-3.4c-5.1-1.8-10.2-3.7-15.6-3.9c-8-0.4-16.2,3-21.5,9l3.9,31.3
					l8.2,26l25.5,2l19.6-7.5l9.5-13.4v-46.8C714.8,423.7,709.2,425.9,703.8,426z"/>
				<path fill="#83B4D3" d="M969.8,295.5c-19.6,25.5-12.3,72,3.6,92.4c15.9,20.5,38.3,32.5,41.4,56.5s1.4,44.6-6.4,52.3
					c0,0,20.5-17.8,22.8-45.1c2.3-27.3-6.4-49.2-22.1-64.9C992.8,370.4,969.8,357.9,969.8,295.5z"/>
				<path fill="#83B4D3" d="M1000.8,260.9c-19.6,25.5-12.3,72,3.6,92.4c15.9,20.5,38.3,32.5,41.4,56.5c3.2,24.1,1.4,44.6-6.4,52.3
					c0,0,20.5-17.8,22.8-45.1c2.3-27.3-6.4-49.2-22.1-64.9C1023.8,335.8,1000.8,323.2,1000.8,260.9z"/>
				<path fill="#83B4D3" d="M1069.3,317.6c-16.4-16.4-39.4-28.9-39.4-91.3c-19.6,25.5-12.3,72,3.6,92.4
					c15.9,20.5,38.3,32.5,41.4,56.5c3.2,24.1,1.4,44.6-6.4,52.3c0,0,20.5-17.8,22.8-45.1C1093.7,355.1,1085,333.3,1069.3,317.6z"/>
				<path fill="#83B4D3" d="M697.2,376.9c-0.5-5-1.7-10.3-3.5-14.8c-0.7-1.9-1.6-3.6-2.4-5c-5.9-9.8-16-22.5-30.7-27.6
					c-2.6-0.9-4.8-1.4-6.8-1.4c-1.3,0-2.6,0.2-3.7,0.6c-1,0.4-2,1-2.7,1.7c-2.1,2.3-2.1,5.1,0.2,9.1c4,7,10.5,12.1,16.4,16.2
					c1.8,1.2,3.6,2.5,5.4,3.6c5,3.3,10.2,6.7,14.7,11c0.5,0.5,1,1,1.5,1.5c5.3,5.5,6.7,10,8,14.3c0.2,0.8,0.5,1.6,0.8,2.4
					c0,0,0.1,0.2,0.2,0.2c0.1,0,0.1,0,0.1-0.1C696.8,385.5,697.6,381.2,697.2,376.9z"/>
			</g>
		</g>
		<g>
			<path fill="#83B4D3" d="M105.8,473.9l8.2-4.9c5.8,10.7,12.5,16,20.1,16c3.2,0,6.3-0.8,9.1-2.3c2.8-1.5,5-3.5,6.5-6.1
				c1.5-2.5,2.2-5.2,2.2-8.1c0-3.2-1.1-6.4-3.3-9.5c-3-4.3-8.6-9.5-16.6-15.5c-8.1-6.1-13.1-10.5-15.1-13.2
				c-3.4-4.6-5.1-9.5-5.1-14.8c0-4.2,1-8,3-11.5c2-3.5,4.9-6.2,8.5-8.2c3.7-2,7.6-3,11.9-3c4.6,0,8.8,1.1,12.8,3.4
				c4,2.3,8.2,6.4,12.6,12.5l-7.9,6c-3.6-4.8-6.7-8-9.3-9.5c-2.6-1.5-5.4-2.3-8.4-2.3c-3.9,0-7.1,1.2-9.6,3.6
				c-2.5,2.4-3.7,5.3-3.7,8.7c0,2.1,0.4,4.1,1.3,6.1c0.9,2,2.5,4.1,4.8,6.4c1.3,1.2,5.4,4.5,12.5,9.7c8.4,6.2,14.1,11.7,17.2,16.5
				c3.1,4.8,4.7,9.7,4.7,14.5c0,7-2.7,13.1-8,18.3c-5.3,5.2-11.8,7.8-19.4,7.8c-5.9,0-11.2-1.6-16-4.7
				C114.2,486.5,109.8,481.2,105.8,473.9z"/>
			<path fill="#83B4D3" d="M273,413.1l-7.6,5.9c-4.2-5.5-9.3-9.6-15.2-12.5c-5.9-2.8-12.4-4.2-19.4-4.2c-7.7,0-14.9,1.9-21.4,5.6
				c-6.6,3.7-11.7,8.7-15.3,14.9c-3.6,6.2-5.4,13.3-5.4,21.1c0,11.8,4,21.6,12.1,29.5c8.1,7.9,18.3,11.8,30.6,11.8
				c13.5,0,24.9-5.3,34-15.9l7.6,5.8c-4.8,6.1-10.8,10.9-18.1,14.2c-7.2,3.4-15.3,5-24.2,5c-16.9,0-30.3-5.6-40.1-16.9
				c-8.2-9.5-12.3-21-12.3-34.5c0-14.2,5-26.1,14.9-35.7c9.9-9.7,22.4-14.5,37.3-14.5c9,0,17.2,1.8,24.5,5.4
				C262.3,401.6,268.3,406.6,273,413.1z"/>
			<path fill="#83B4D3" d="M291.3,395.1h9.7v40.6h49.3v-40.6h9.7v96.8h-9.7v-46.7H301v46.7h-9.7V395.1z"/>
			<path fill="#5F2E8A" d="M432.8,453.9c-3.1-4.7-8.9-10.2-17.2-16.1c-6.8-4.9-10.9-8-12.1-9.1c-2.1-2.1-3.6-4-4.4-5.8
				c-0.8-1.7-1.2-3.5-1.2-5.3c0-3,1.1-5.4,3.2-7.4c2.2-2,4.9-3,8.4-3c2.7,0,5.2,0.7,7.5,2c2.4,1.4,5.3,4.3,8.7,8.8l0.8,1.1l9.9-7.3
				l-0.8-1.1c-4.4-5.9-8.7-10-12.8-12.3c-4.1-2.3-8.5-3.4-13.2-3.4c-4.4,0-8.6,1-12.4,3c-3.8,2-6.8,4.8-8.9,8.3
				c-2.1,3.5-3.2,7.4-3.2,11.7c0,5.3,1.8,10.4,5.3,14.9c2,2.7,7,7,15,12.9c7.7,5.7,13.1,10.6,16,14.5c2,2.7,3,5.5,3,8.3
				c0,2.5-0.7,4.8-2,7.1c-1.3,2.2-3.3,4-5.8,5.3c-2.6,1.3-5.4,2-8.3,2c-6.9,0-13.1-4.9-18.5-14.6l-0.7-1.2l-10.4,6.1l0.6,1.1
				c4,7.2,8.6,12.4,13.4,15.5c4.9,3.1,10.4,4.7,16.4,4.7c7.8,0,14.5-2.6,20-7.8c5.5-5.2,8.2-11.4,8.2-18.4
				C437.6,463.6,436,458.7,432.8,453.9z"/>
			<path fill="#5F2E8A" d="M450.3,400.3h66.6l-51.3,80.3h49.7v10.3h-69.7l51.3-80.4h-46.4V400.3z"/>
			<path fill="#5F2E8A" d="M620.5,400.3v90.6H609v-15.6c-4.9,5.9-10.4,10.4-16.5,13.4c-6.1,3-12.7,4.5-20,4.5
				c-12.8,0-23.8-4.7-32.9-14c-9.1-9.3-13.6-20.6-13.6-33.9c0-13.1,4.6-24.2,13.7-33.5c9.2-9.3,20.2-13.9,33.1-13.9
				c7.4,0,14.2,1.6,20.2,4.7c6,3.2,11.3,7.9,15.9,14.2v-16.7H620.5z M573.9,409.2c-6.5,0-12.5,1.6-18,4.8
				c-5.5,3.2-9.9,7.7-13.1,13.4c-3.2,5.8-4.9,11.9-4.9,18.3c0,6.4,1.6,12.5,4.9,18.3c3.3,5.8,7.7,10.4,13.2,13.6
				c5.5,3.2,11.4,4.9,17.8,4.9c6.4,0,12.4-1.6,18.1-4.8c5.7-3.2,10.1-7.6,13.2-13.1c3.1-5.5,4.6-11.7,4.6-18.6
				c0-10.5-3.5-19.2-10.4-26.3C592.5,412.7,584,409.2,573.9,409.2z"/>
			<path fill="#5F2E8A" d="M645.3,400.3h11.7v42.3c0,10.3,0.6,17.4,1.7,21.3c1.7,5.6,4.9,9.9,9.6,13.2c4.7,3.2,10.3,4.8,16.8,4.8
				c6.5,0,12-1.6,16.6-4.7c4.5-3.1,7.7-7.3,9.4-12.4c1.2-3.5,1.8-10.9,1.8-22.2v-42.3h11.9v44.5c0,12.5-1.5,21.9-4.4,28.2
				c-2.9,6.3-7.3,11.3-13.2,14.9c-5.9,3.6-13.2,5.4-22,5.4c-8.8,0-16.2-1.8-22.1-5.4c-5.9-3.6-10.3-8.6-13.2-15
				c-2.9-6.4-4.4-16.1-4.4-28.9V400.3z"/>
			<path fill="#5F2E8A" d="M750.5,400.3h11.7v16.2c4.7-6.2,9.8-10.9,15.5-14c5.7-3.1,11.8-4.6,18.5-4.6c6.8,0,12.8,1.7,18,5.2
				c5.2,3.4,9.1,8.1,11.6,13.9s3.7,14.9,3.7,27.2v46.7h-11.7v-43.2c0-10.4-0.4-17.4-1.3-20.9c-1.4-6-3.9-10.5-7.8-13.5
				c-3.8-3-8.8-4.5-15-4.5c-7.1,0-13.4,2.3-19,7c-5.6,4.7-9.3,10.4-11,17.3c-1.1,4.5-1.7,12.7-1.7,24.7v33.2h-11.7V400.3z"/>
			<path fill="#5F2E8A" d="M944.8,400.3v90.6h-11.5v-15.6c-4.9,5.9-10.4,10.4-16.5,13.4c-6.1,3-12.7,4.5-20,4.5
				c-12.8,0-23.8-4.7-32.9-14c-9.1-9.3-13.6-20.6-13.6-33.9c0-13.1,4.6-24.2,13.7-33.5c9.2-9.3,20.2-13.9,33.1-13.9
				c7.4,0,14.2,1.6,20.2,4.7c6,3.2,11.3,7.9,15.9,14.2v-16.7H944.8z M898.2,409.2c-6.5,0-12.5,1.6-18,4.8
				c-5.5,3.2-9.9,7.7-13.1,13.4c-3.2,5.8-4.9,11.9-4.9,18.3c0,6.4,1.6,12.5,4.9,18.3c3.3,5.8,7.7,10.4,13.2,13.6
				c5.5,3.2,11.4,4.9,17.8,4.9c6.4,0,12.4-1.6,18.1-4.8c5.7-3.2,10.1-7.6,13.2-13.1c3.1-5.5,4.6-11.7,4.6-18.6
				c0-10.5-3.5-19.2-10.4-26.3C916.8,412.7,908.3,409.2,898.2,409.2z"/>
		</g>
	</g>
</g>
</svg>
