<svg xmlns="http://www.w3.org/2000/svg" xmlns:xlink="http://www.w3.org/1999/xlink" viewBox="0 0 499.24 401.16"><defs><style>.cls-1{fill:#fff;}.cls-2{fill:url(#Névtelen_színátmenet_142);}.cls-3{fill:#2b2b2b;}.cls-4{fill:url(#Névtelen_színátmenet_187);}.cls-5{fill:#7b7b7b;}</style><linearGradient id="Névtelen_színátmenet_142" x1="274.41" y1="274.81" x2="448.31" y2="323.04" gradientUnits="userSpaceOnUse"><stop offset="0" stop-color="#3b3b3b"/><stop offset="0.03" stop-color="#c9c9c9"/><stop offset="0.23" stop-color="#b0b2b3"/><stop offset="0.26" stop-color="#171717"/><stop offset="0.29" stop-color="#363737"/><stop offset="0.3" stop-color="#c0c2c3"/><stop offset="0.42" stop-color="#d9d9d9"/><stop offset="0.52" stop-color="#ebebeb"/><stop offset="0.65" stop-color="#c0c2c3"/><stop offset="0.67" stop-color="#171717"/><stop offset="0.7" stop-color="#171717"/><stop offset="0.73" stop-color="#ccc"/><stop offset="0.82" stop-color="#ebebeb"/><stop offset="0.89" stop-color="#f0f0f0"/><stop offset="0.97" stop-color="#c9c9c9"/><stop offset="1" stop-color="#3b3b3b"/></linearGradient><linearGradient id="Névtelen_színátmenet_187" x1="295.07" y1="175.13" x2="480.35" y2="226.51" gradientTransform="translate(482.22 -225.47) rotate(75.12)" gradientUnits="userSpaceOnUse"><stop offset="0" stop-color="#080808"/><stop offset="0.16" stop-color="#262626"/><stop offset="0.23" stop-color="#555"/><stop offset="0.39" stop-color="#898a8a"/><stop offset="0.43" stop-color="#404140"/><stop offset="0.58" stop-color="#414242"/><stop offset="0.65" stop-color="#808181"/><stop offset="0.78" stop-color="#818282"/><stop offset="0.86" stop-color="#414241"/><stop offset="1" stop-color="#414241"/><stop offset="1" stop-color="#c9c9c9"/></linearGradient></defs><title>edenykolcsonzo</title><g id="Réteg_2" data-name="Réteg 2"><g id="Réteg_1" data-name="Réteg 1"><path class="cls-1" d="M183.81,173.76a4,4,0,0,0,2.69,1c.47,0,1.16-1.27,1.23-2a15.53,15.53,0,0,0,0-5.61c-1.29-4.41-1.32-6.71-7.32-5.61C179.25,167.91,179.88,170.23,183.81,173.76Z"/><path class="cls-1" d="M162.58,181.75a8.72,8.72,0,0,0,1.34.33c6.85,1.17,11.31-6.19,11.42-12.69-3.47,0-7-.12-10.41,0-.84,0-1.68,0-2.51.09-3.36.2-6,3.57-4.72,5.45C159.14,177,160.62,179,162.58,181.75Z"/><path class="cls-1" d="M147,183.93c2.78,1.67,5.79,1.88,8.73-.74-1.1-4.38-2.21-8.85-3.6-14.41-2,.75-4.72,1.07-6.3,2.6C144,173.21,145.09,182.76,147,183.93Z"/><path class="cls-1" d="M262.77,184.63c0,1.74-.11,3.62,0,5.48.26,3.87-1.57,5.74-5.34,6-1.21.08-2.87-.18-3.54.49-4.8,4.85-11.14,8.25-14,15a65,65,0,0,1-3.77,6.62c-1.42,2.48-3,4.88-4.18,7.47-2.76,6.2-7.72,10.36-12.92,14.29a3.35,3.35,0,0,1-2.75.11c-5.08-2.12-10.06-4.46-15.14-6.58-5.51-2.3-11.17-4.26-16.61-6.7s-7.61-7.94-4.52-11.28a98.65,98.65,0,0,0,16.31-24.58,37.26,37.26,0,0,0,2.45-7.13A76.88,76.88,0,0,0,203,153.32c2.63.55,4.4.88,6.13,1.31l.46.09c2.58.88,6.56.42,10.5-1.44a16.81,16.81,0,0,0,7.12-5.89,3.75,3.75,0,0,0,.64-1.3,5,5,0,0,0,.34-1.72c.57-4.86-1-13.14-3.46-14.3a6.22,6.22,0,0,0-1.34-.45,4,4,0,0,0-1-.14,4.28,4.28,0,0,0-3.86,6.21,2.2,2.2,0,0,0,.19.47,8.83,8.83,0,0,1,.71,1.58,5.4,5.4,0,0,1,.5,2.28,5.46,5.46,0,0,1-5.46,5.46c-1.25,0-7.95-2.24-10.12-3.35.05,0-.08-.13-.6-.37a11.62,11.62,0,0,1-2.75-1.7,76.78,76.78,0,0,0-2.57-8.37l-.44-1.16c-.53-1.38-1.12-2.74-1.73-4.08A74.64,74.64,0,0,0,168,94.11c-.58-.42-1-1.39-1.58-1.82-1-.76-1.7-2-2.89-3.42l19.91-5c5.69-1.41,11.95-1.78,16.93-4.49,5.53-3,10.11-8,14.61-12.52,1.09-1.11.67-4.22.09-6.14-.2-.64-3.32-1-4.74-.53-6.69,2.41-14.12-.4-20.7,3.49-3.59,2.12-8,2.83-12,4.24-3.65,1.28-7.23,2.75-10.91,3.93a26.18,26.18,0,0,1-7,1.47,39.2,39.2,0,0,1-5.08,0L134.19,35.78q-1.87-3.8-3.82-7.54c-2.61-5.07-5.15-10.2-8.15-15-2.14-3.46-5.26-6.3-7.42-9.75C112.49-.23,109.44-.5,105.87.5l-1.73.5h0s-6.58,1.53-16.4,4.43l-.45.13c-14.57,4.32-36,11.59-53.77,21.33-2.57,1.27-5.1,2.59-7.56,4a51.81,51.81,0,0,0-7.42,5.61c-1.94,1.51-3.77,3.06-5.44,4.64l0,.05c-1.78,1.56-3.54,3.14-5.34,4.68-2.32,2-.74,3.5.63,5,0,0,31.43,46.18,38.74,60.91a4.15,4.15,0,0,1-2.46,1.7,59.23,59.23,0,0,0-8.37,2.34c-6.52,2.64-12.92,5.6-19.41,8.3-4.74,2-9.65,3.56-14.3,5.7-1.23.57-2.76,2.75-2.51,3.81.79,3.48,2.45,6.74,3.55,10.16.81,2.5,2.62,3.21,4.71,2.59,4.05-1.21,8-2.79,12-4.28,3.11-1.17,6.2-2.42,9.28-3.65,3.23-1.29,6.86-2,9.57-4,3.41-2.53,6.73-2.59,10.95-2.06,0,.35,0,.68-.08,1a99.24,99.24,0,0,0-5.9,23.36,119.49,119.49,0,0,0,.13,31.06c1.08,8.07,6.12,16.53,14.14,24.17a82.81,82.81,0,0,0,15.09,11.26c2.21,1.31,4.57,2.58,7,3.78,2.51,2.77,6.43,5.63,8.41,8.3,2.54,2,3.35,4.13,5.55,6.46a18.5,18.5,0,0,1,5.49,11.11c.38,4.26-2,7-3.52,10.43-2.72,6.08-5.83,12.21-7.13,18.65-1.22,6.05-2.43,11.61-7.13,15.91-.51.46-1.14,1.52-.94,1.88a3.56,3.56,0,0,0,2,1.53,12.85,12.85,0,0,0,3.23.08l106.26-.94c15.55-.14,31.12,0,46.66-.5,5.49-.17,10.94-1.82,16.41-2.8a79,79,0,0,0-14-.83q-15.63,0-31.25,0c-2.13,0-4.11-.12-3.9-3.19.43-6.52-1.39-12.54-4-18.49-2-4.52-2.89-9.5-4.79-14-3.11-7.44-6.64-14.7-10-22l.7-1.28c2.69.49,5.69.39,8,1.6,3.13,1.62,5.54,4.61,8.62,6.36,7.17,4,14.35,5.16,21.46-.61,5.27-4.28,8.17-10.11,11.43-15.74,4-6.87,7.35-14.12,11.84-20.62,3.68-5.34,4.14-4.75,10.07-2,2.46,1.14,5.81,2.29,8.08,1.5,3.79-1.32,2.75-1.65,4.34-3.45a40.9,40.9,0,0,0,1.64-12.16C271.64,185,268.61,182.85,262.77,184.63ZM88.1,223.72A48.67,48.67,0,0,1,78,212.39a48.12,48.12,0,0,1-7-22.33s-3.35-24.28-2.64-26.14c.44-1.15,2.47-1.23,4-1.12a38.61,38.61,0,0,1,6,4.63c.6.52,1.2,1,1.8,1.52a24.31,24.31,0,0,0,15.13,7.81,25.23,25.23,0,0,0,2.9.18,24.61,24.61,0,0,0,6.8-1,24.07,24.07,0,0,0,5.52-2.39,24.34,24.34,0,0,0,11.49-26,37.24,37.24,0,0,0-3.08-9.8c-2.15-4.64-3.25-9.76-4.85-14.66-1-3-3.42-5.22-5.63-5.24-1.18,7.26-1.18,7.31-9.16,7.32-6.54,0-11.83,3-17.38,6.09-4.92,2.75-7.13,7.2-10.12,11.29-2.7,3.69-5.43,7.36-8.12,11a20.45,20.45,0,0,0-2.18,3.27,13.12,13.12,0,0,0-1.3,3.21l4,20.81c.59,3.35,1.37,8.33,1.93,14.41.73,8,.48,11.12.79,13.62a56.13,56.13,0,0,1-14.5-37.73c0-1,0-1.94.07-2.9a9.2,9.2,0,0,1-.06-1.57,17.35,17.35,0,0,1,.47-2.84A56.33,56.33,0,0,1,55.29,153c.46-3.84,2.89-7,4.27-10.57A24.72,24.72,0,0,1,71.36,129,56.15,56.15,0,0,1,95.9,116.34c1.18-.54,2.37-1.07,3.57-1.58,4.18-1.78,8.48-3.26,12.69-5,5.46-2.24,10.85-4.7,16.35-6.84,1.84-.72,4.06-.44,5.9-1.16a50.87,50.87,0,0,1,27.17-2.58c1.09.18,2.2.39,3.31.64A68.07,68.07,0,0,1,189.34,127c.47,2.5.87,5,1.32,7.52.49,2.76-.91,4-3.94,4.11-4,.12-8,.82-12,1.26.57-9.37,1.16-18.93,1.79-29.08-4.88.42-9-1.3-12.67,2-.73.67-2.32.54-3.51.55-4.33.07-8.69-.28-13,.12-6.57.63-12-1.88-16.82-5.74-3-2.42-4,.7-5.47,1.74-.65.46-.66,3.06,0,3.91,1.45,1.84,2.93,3.68,4.47,5.46a55,55,0,0,0,5.23,5.34,10.28,10.28,0,0,1,3.73,9c-.15,3-.61,5.84,3.44,7.54,2.83,1.19,4.84,4.33,7.85,7.19-16.43,4.57-23.34,17.09-28.79,32.16a11.62,11.62,0,0,1-3.18-1.46c-3.23-2.66-9.82-.93-9.71,3,.07,2.14,2.52,4.61,4.47,6.22,4.36,3.58,10.14,2.14,14.24-1.92,5.87-5.81,9.89-12.8,14.37-19.55,2.23-3.36,10.23-4.58,14.22-2.94a19.82,19.82,0,0,0,8.4,1.14l.72-.06a35.17,35.17,0,0,0,8.51-2,13.32,13.32,0,0,0,5.09-3.51c2.9-3.19,5-7.33,8.39-9.78,2-1.48,5.91-.94,8.81-.44.37.06.67.81.9,1.77a69.4,69.4,0,0,1-.07,15.78,71.53,71.53,0,0,1-11.45,31.1,73.44,73.44,0,0,1-7.22,9.18,74.45,74.45,0,0,1-8.62,7.28c-6,4.35-13.12,7-20.35,9.57-10.67,3.75-21.43,3.81-32.17,3.44a57,57,0,0,1-7.78.55A56.17,56.17,0,0,1,88.1,223.72ZM76.86,150.59a22.21,22.21,0,0,1,.19-2.84,20.84,20.84,0,0,1,2.8-8,21.17,21.17,0,0,1,4.91-5.59l0,.11c-.2.66-.42,1.31-.65,2-.88,2.51-1.89,5-2.41,7-.06.23-.14.49-.23.77a56,56,0,0,1-2.73,6.12c-.55,1.11-1.12,2.21-1.66,3.25A20.53,20.53,0,0,1,76.86,150.59Zm1.94,8.57a36.69,36.69,0,0,0,2.63-4.4c1.46-2.74,3-6,4.07-8.2,1.15-2.4,2.77-5.76,3.9-8.1.48-1,.86-1.77,1.1-2.25h0l.24-.51v0l2.44-5.53a21.18,21.18,0,0,1,4.68-.53l.9,0a21.29,21.29,0,0,1,5.51,1,9.34,9.34,0,0,1,0,5.34c-.16.59-.34,1.17-.52,1.75-1.65,4.27-4.14,8.6-5.26,12.09-.1.31-.24.66-.4,1-1.47,3.39-5.34,9.34-8.37,13.81-1,1.53-2,2.89-2.7,3.9l0,0a21.12,21.12,0,0,1-8.3-9.43Zm26.76-13.39c1.84,1-1.7,5-4.89,10.53-.59,1-1.13,2-1.64,2.92l-.92,1.69C96.3,164.2,95,166.43,94,165.8s0-2.37,1.52-5c.95-1.59,2.16-3.47,3.37-5.57.76-1.31,1.44-2.58,2.07-3.75C103,147.78,104.39,145.14,105.56,145.77Zm-7.51,19.45c2.51-3.7,5.18-8,7-11,2-3.24,4.77-7.75,6.73-10.9,1.35-2.19,2.3-3.71,2.3-3.71v-2.31a20.93,20.93,0,0,1,4.77,13.33c0,.56,0,1.12-.07,1.67a59.25,59.25,0,0,1-6.73,11.16c-3.72,5.08-11.28,7.36-14.62,8.15a20.29,20.29,0,0,1-3.92-.44A49.75,49.75,0,0,0,98.05,165.22Zm17.79-1.95a15.88,15.88,0,0,1-3.55,4.13,14.6,14.6,0,0,1-6.23,3.28,1.8,1.8,0,0,1-1.21,0c.49-.26,1-.58,1.61-.94,3.35-2.08,7.71-5.51,9.25-8.45.52-1,.75-1.25.81-1.09A14.36,14.36,0,0,1,115.84,163.27ZM165.56,139a26.59,26.59,0,0,1-8.54,3.33,56.92,56.92,0,0,0-8.63-11.06,11.45,11.45,0,0,1,3.43-1.91c4.5-1.7,8.54-2.34,13.06.07,1.57.84,4.1-.14,7-.35C170.69,133.33,169.73,136.78,165.56,139Zm1.38,8.24-2.49,5.33c-1.21-1.8-2-3-2.84-4.26l4.65-2Zm-21.35-20-1.06-.29c1.15-1.7,2-4.38,3.51-4.88,2.78-.91,6-.51,9-.66l.27,1.83Zm17.87,103.53c-3.3.32-3.64.34-3.8-2.4.86-.45,1.73-.9,2.57-1.37C163.51,227.29,163.87,228.57,163.46,230.78Zm-40.75,14.48a13.27,13.27,0,0,1-6.24-8.26q3.57.3,7.19.3,3.11,0,6.24-.24a1.57,1.57,0,0,1,.34.7c.85,6,3.79,11.44,3,17.83-.39,3.23,1.3,6.71,2.3,11.18-3.45,3.26-5-2-7-3.62-3.46-2.88-2.62-7.89,2-12.75C127.86,248.62,125.37,246.78,122.71,245.26Zm11.63-8.66c1.84-.25,3.67-.56,5.5-.95l.07,0c-2.16,1.06-3.27,2.08-4.1,1.89A3.18,3.18,0,0,1,134.34,236.6Zm4.13,16c.28-1.54,1.45-2.91,2.22-4.36,1.52,1.16,4.08,2.11,4.37,3.53a89.59,89.59,0,0,1,1.33,13.42c.2,3.68.12,7.37.15,11.05,0,1.59,0,3.18,0,4.77l-1.75.81c-1.22-2-3.09-3.89-3.53-6.06C139.71,268.09,137,260.53,138.47,252.56Zm-31.14,40.5c-3.31,1.15-6.41,2.41-9.62,3.23-1.22.32-3.55,0-3.89-.69a8.25,8.25,0,0,1-.3-5,52.88,52.88,0,0,1,2.38-6.5c1.66-4.58,3.15-9.23,5-13.71.46-1.11,2.17-1.69,3.22-2.46C107.85,276.43,108.9,284.43,107.33,293.06Zm40.84,4.1c-1-.24-2.59-.22-2.8-.76-1.26-3.18-3.85-2.84-6.42-2.93-3.34-.12-6.42-.09-9.81-1.91-3.65-2-8.54-1.63-13.41-2.38,0-3.49.22-6.88-.06-10.21-.45-5.44-.51-11.07-2.08-16.22-1.41-4.65-4.48-8.84-7.06-13.09-2.09-3.44-4.65-6.6-6.78-10-.55-.87-.25-2.28-.44-4.8,5,1.1,9.41,1.91,13.67,3.13.68.2.78,2.26,1.25,3.43q1.9,4.76,3.91,9.48c.19.44.67,1.1,1,1.1,5.11,0,4.51,3.51,4.67,7,.25,5.73,3.24,10.09,7.59,13.71a36.57,36.57,0,0,1,5.19,5.5c4.14,5.2,8.23,10.44,12.15,15.81C149.2,294.55,148.4,296.06,148.17,297.16Zm.19-59.45,2.71-4c2,1.45,4.93,2.5,5.86,4.48.78,1.66-.52,4.47-1.36,6.59-.2.51-2.94.8-3.26.34A66.78,66.78,0,0,1,148.36,237.71Zm11.9,59.19c-2.32,0-4.64-.76-7-1.21-.21-.33-.41-.66-.61-1,1.63-1.07,3.25-3,4.92-3,1.93,0,4.79,1,5.66,2.52C164.66,296.62,161.6,296.9,160.26,296.9Zm5.33-10.5c-.71.39-2.16.69-2.48.33-2.1-2.35-5.19-4.68-5.67-7.42-.94-5.43-.47-11.11-.41-16.69,0-1.2.83-3.44,1.18-3.42,1.61.09,4.06.32,4.64,1.37,3,5.38,5.41,11,8,16.57l-1,.4C170.48,281.49,169.09,284.51,165.59,286.4Zm12.54,4.51c-.09,5.25-4.24,7.75-8.33,5.14-1-.64-2.05-3.22-1.7-3.6,2-2.06,4.11-4.44,6.67-5.33C177.79,286.07,178.47,288.66,178.13,290.91Zm-3.26-9.36a14.39,14.39,0,0,1-.47-2.57c.42-8.11-4.11-14.26-8.1-20.63-.2-.33-.57-.63-.62-1-.61-4.05-1.18-8.12-1.79-12.43,3.79.34,6,1.41,6.69,5.5.57,3.25,2.51,6.4,4.37,9.26,2.14,3.29,2.91,6.84,3.88,10.55C180.09,275.05,178.1,277.91,174.87,281.55Zm7-28.28c-6.26.18-7.7-5-10.12-8.48-3.12-4.53-5-9.77-3.83-15.52.41-2,1.09-3.91,1.77-6.29,4.73,3.39,6.49,6.59,4.61,10.93a8.51,8.51,0,0,1-1.38,2.14c-1.38,1.64-1.76,2.59.48,4.32a52.16,52.16,0,0,1,8.37,8.92C182.47,250.12,181.91,251.93,181.91,253.27Zm10.87,11.31c1.71,3.84,2.64,8,4.33,11.88,2.06,4.73.62,10.29,4.15,14.74,2.37,3,1,5.06-2.72,5.1-4.32.05-8.65-.07-13,0-2.47.05-3.26-1-3.22-3.38.17-10.26.1-20.53.34-30.79a20.64,20.64,0,0,1,1.65-7c.32-.81,1.92-1.13,2.45-1.41C189,257.74,191.19,261,192.78,264.58Z"/><path class="cls-2" d="M474.27,229.44,301.19,178.23,259.7,337.41l.13,0a14.54,14.54,0,0,0-.66,2.06c-4.74,19.77,29.61,44.95,76.71,56.23,45.43,10.89,86.12,4.87,93.21-13.31l.13,0Z"/><path d="M294.94,175.58c-2.92,11,36.31,31,87.62,44.63,50.19,13.33,93.32,15.66,97.94,5.46L295,175.53S295,175.56,294.94,175.58Z"/><path class="cls-3" d="M258.88,341.15a18,18,0,0,0,.87,8c.5,0,1-.07,1.55-.09A21.19,21.19,0,0,1,258.88,341.15Z"/><path class="cls-3" d="M303,384.81a195.78,195.78,0,0,0,32.87,10.92c6.24,1.5,12.39,2.66,18.37,3.53-5.88-1.34-11.92-2.84-18.08-4.47C324.37,391.65,313.21,388.27,303,384.81Z"/><path class="cls-3" d="M422,391.15a21,21,0,0,0,7.42-9.32c-11,17.43-43,17.43-58.27,12.37-7.22-2.4,2.86.68-3.18-2.16-6.61,1-23.59-2-31.11-3.07-13.08-1.94-31-8.27-38.84-14.76-.6-.07-3.48-1.73-4.08-1.81-19.37-2.88-26.74-12.07-32.63-23.3-.54,0-1.05,0-1.55.09,4.09,12.37,20.3,25.56,43.26,35.62,10.2,3.46,21.36,6.84,33.16,10,6.16,1.63,12.2,3.13,18.08,4.47C383.87,403.57,409.47,400.37,422,391.15Z"/><ellipse class="cls-4" cx="387.71" cy="200.82" rx="16.83" ry="96.14" transform="matrix(0.26, -0.97, 0.97, 0.26, 94.05, 523.95)"/><path class="cls-5" d="M457.45,265.79l11.24,4.43s6.13,2.38,9.88,0,18.05-12.94,18.05-12.94,4.09-5.8,2-9.88-8.17-9.2-16-5.79-14.36,6.93-14.36,6.93l-2,7.35L485,246.72s3.74-2.05,6.13,1,4.09,5.73.68,8.15-14,10.58-19.76,8.88a57.7,57.7,0,0,0-11.24-2Z"/><path class="cls-5" d="M278.31,215.1l-15-20.21-.79-4.54,13.06,16,24.25,10.38c.26-.33.5-.68.73-1,3.75-5.79-9.54-6.82-15.33-8.18a24.59,24.59,0,0,1-8.86-3.75S261.05,182,258.67,183s0,10.56,0,10.56l18.39,26.23s3.41,3.07,12.61,4.77c0,0,.17-1.28.88-5.51l-5.76,0Z"/></g></g></svg>