<?xml version="1.0" encoding="utf-8"?>
<!-- Generator: Adobe Illustrator 21.0.0, SVG Export Plug-In . SVG Version: 6.00 Build 0)  -->
<svg version="1.1" id="Réteg_2" xmlns="http://www.w3.org/2000/svg" xmlns:xlink="http://www.w3.org/1999/xlink" x="0px" y="0px"
	 viewBox="0 0 1200 670.4" enable-background="new 0 0 1200 670.4" xml:space="preserve">
<g>
	<path fill="#DC5426" d="M1025.5,369.4l44.8-63.3h-55.8l-24.7,36.4l-20.4-35.6l-0.6-1.1h-63.7h-24.8h-51v-34.2h81.9V229H763.4v209.4
		h143.4h4.3h52.1l26.5-43.2l25.3,43.2h57.5L1025.5,369.4z M911.1,432.3v-41.6h-81.9v-42.4h81.9v-32.5l43.7,53.6L911.1,432.3z"/>
	<path fill="#332C81" d="M706.4,228.5v74.1c-9.6-10.2-20.1-20.4-44.5-20.4c-18.3,0-34.6,5.5-48,19.8c-7.6,8.2-13.6,22.8-16,43.1
		c-7.7-39.3-41.2-57.6-82.7-57.6c-46.3,0-73.2,20.8-82.1,52.1c-9.6-35.5-41.9-52.1-81.4-52.1c-41.3,0-67.1,16.6-78.6,42.3v-20.9h-82
		v-37.1h88.4V229H127.4v209.4h63.7v-79.7h75.3c-0.1,2-0.2,4-0.2,6.1c0,17.7,4.1,39.6,20.9,55.6c14.3,13.7,35.2,21.5,67.5,21.5
		c30,0,48-9,60.2-20.9c8.8-8.8,14.6-19.9,17.8-31.7c2.9,11.1,8.4,22.1,18,31.2c14.3,13.7,35.2,21.5,67.5,21.5c30,0,48-9,60.2-20.9
		c10.7-10.7,16.8-24.5,19.5-39.1c4.3,30.7,21.9,60.1,64.6,60.1c32.3,0,41.3-16.6,47.1-25l1.2,21.5h52.7v-210H706.4z M351.2,401.1
		c-4.9,0-14.8-0.5-21.2-9c-6.1-8.4-7-19.4-7-26.9c0-17,4.7-36.2,28.8-36.2c21.8,0,27.9,16.5,27.9,36.2
		C379.7,381,375,401.1,351.2,401.1z M514.7,401.1c-4.9,0-14.8-0.5-21.2-9c-6.1-8.4-7-19.4-7-26.9c0-17,4.7-36.2,28.8-36.2
		c21.8,0,27.9,16.5,27.9,36.2C543.2,381,538.5,401.1,514.7,401.1z M680.9,398.5c-22.8,0-25.6-24.9-25.6-36.5c0-11.4,3-37,26.1-37
		c18.1,0,25.6,16,25.6,36.3C707,382.1,699.6,398.5,680.9,398.5z"/>
</g>
</svg>
