<?xml version="1.0" encoding="UTF-8" standalone="no"?>
<!DOCTYPE svg PUBLIC "-//W3C//DTD SVG 1.1//EN" "http://www.w3.org/Graphics/SVG/1.1/DTD/svg11.dtd">
<svg width="100%" height="100%" viewBox="0 0 4146 4166" version="1.1" xmlns="http://www.w3.org/2000/svg" xmlns:xlink="http://www.w3.org/1999/xlink" xml:space="preserve" xmlns:serif="http://www.serif.com/" style="fill-rule:evenodd;clip-rule:evenodd;stroke-linejoin:round;stroke-miterlimit:2;">
    <g id="EPK" transform="matrix(4.16667,0,0,4.16667,-10,1)">
        <g transform="matrix(0,1,1,0,500.559,87.7601)">
            <path d="M409.965,-409.961C636.014,-409.961 819.923,-226.052 819.923,0.001C819.923,226.058 636.014,409.965 409.965,409.965C183.91,409.965 0.003,226.058 0.003,0.001C0.003,-226.052 183.91,-409.961 409.965,-409.961" style="fill:rgb(201,103,84);"/>
        </g>
        <g transform="matrix(1,0,0,1,106.081,705.506)">
            <path d="M0,3.658C3.293,2.013 4.99,-0.235 5.096,-3.09C5.172,-5.18 4.209,-8.231 2.21,-12.238C-3.134,-22.939 -9.373,-26.509 -16.506,-22.949C-21.067,-20.672 -23.189,-17.052 -22.865,-12.098C-22.649,-8.655 -21.116,-4.081 -18.266,1.629C-17.804,2.556 -17.03,3.926 -15.95,5.739C-14.867,7.551 -14.095,8.92 -13.633,9.847L-13.385,10.342L0,3.658ZM-31.327,19.297L-20.175,13.731C-21.356,10.958 -22.485,8.494 -23.56,6.34C-26.22,1.014 -28.626,-2.717 -30.778,-4.859C-34.297,-8.372 -38.021,-9.144 -41.957,-7.183C-47.844,-4.242 -48.293,2.223 -43.305,12.216C-41.616,15.597 -40.025,17.867 -38.531,19.027C-36.496,20.59 -34.095,20.682 -31.327,19.297M20.544,9.569C16.599,7.853 12.548,8.031 8.391,10.106L-29.755,29.155C-33.86,31.204 -36.39,34.327 -37.347,38.531C-37.644,37.933 -38.081,37.06 -38.656,35.907C-39.231,34.756 -39.668,33.883 -39.965,33.286C-41.1,31.012 -42.896,27.641 -45.348,23.171C-47.803,18.702 -49.598,15.331 -50.73,13.058C-53.837,6.839 -55.217,1.386 -54.876,-3.304C-54.445,-8.898 -51.551,-13.031 -46.196,-15.704C-40.244,-18.678 -34.701,-17.537 -29.564,-12.286C-32.139,-21.252 -29.458,-27.718 -21.522,-31.682C-15.57,-34.655 -10.079,-34.873 -5.046,-32.345C-0.422,-30.02 3.563,-25.511 6.907,-18.812C7.922,-16.779 9.379,-13.677 11.286,-9.509C13.187,-5.344 14.649,-2.242 15.664,-0.21L18.44,5.352C18.694,5.862 19.396,7.267 20.544,9.569" style="fill:rgb(174,92,78);"/>
        </g>
        <g transform="matrix(1,0,0,1,75.7798,628.903)">
            <path d="M0,-52.198C-3.413,-54.825 -7.398,-55.611 -11.954,-54.555L-46.922,-46.454C-50.563,-45.613 -54.118,-45.085 -57.59,-44.875C-53.319,-44.594 -49.458,-44.219 -46.016,-43.75L-1.339,-37.795C-0.6,-37.708 0.24,-37.779 1.187,-37.995C2.163,-38.223 2.815,-38.433 3.145,-38.627L5.745,-27.402C5.18,-27.425 4.498,-27.342 3.699,-27.156C2.752,-26.938 1.97,-26.611 1.353,-26.177L-36.128,-1.078C-39.341,1.069 -42.642,3.101 -46.035,5.016C-43.417,3.668 -40.007,2.511 -35.806,1.535L-0.837,-6.564C3.691,-7.614 6.918,-10.099 8.844,-14.025L13.039,4.086C9.624,1.455 5.641,0.67 1.083,1.723L-40.454,11.347C-44.922,12.381 -48.111,14.833 -50.021,18.694L-54.593,-1.026C-53.829,-0.688 -53.139,-0.593 -52.52,-0.734C-52.282,-0.789 -52.085,-0.88 -51.93,-1.005L-15.437,-25.381C-12.491,-27.329 -8.827,-29.287 -4.452,-31.257C-9.531,-31.103 -13.68,-31.237 -16.896,-31.655L-60.351,-37.37C-60.381,-37.364 -60.427,-37.372 -60.496,-37.394C-60.788,-37.44 -61.022,-37.446 -61.199,-37.405C-61.418,-37.283 -61.95,-36.955 -62.79,-36.418L-67.392,-56.285C-64.047,-53.696 -60.114,-52.927 -55.585,-53.976L-14.051,-63.597C-9.433,-64.668 -6.195,-67.098 -4.329,-70.892L0,-52.198Z" style="fill:rgb(174,92,78);"/>
        </g>
        <g transform="matrix(1,0,0,1,4.5635,514.709)">
            <path d="M0,-36.499C0.039,-38.834 -0.657,-41.169 -2.086,-43.496L19.109,-43.155C14.335,-40.959 10.939,-37.579 8.92,-33.007C7.278,-29.262 6.408,-24.234 6.307,-17.928C6.25,-14.458 6.574,-11.948 7.278,-10.404C8.304,-8.148 10.2,-7.003 12.965,-6.957L26.771,-6.732L26.979,-19.441C27.071,-25.178 25.214,-29.644 21.403,-32.844L39.759,-32.546C35.853,-29.472 33.853,-25.066 33.76,-19.33L33.553,-6.623L50.25,-6.353C53.284,-6.302 55.365,-7.485 56.494,-9.905C57.25,-11.528 57.659,-14.262 57.719,-18.097C57.833,-25.072 57.116,-30.405 55.569,-34.103C53.731,-38.504 50.214,-42.1 45.015,-44.887L67.016,-44.533C65.551,-42.383 64.797,-39.89 64.751,-37.05L64.015,8.388C61.336,5.014 57.659,3.29 52.98,3.213L10.35,2.522C5.764,2.446 2.079,4.053 -0.709,7.341L0,-36.499Z" style="fill:rgb(174,92,78);"/>
        </g>
        <g transform="matrix(1,0,0,1,37.7725,372.869)">
            <path d="M0,-55.505C0.775,-57.709 0.852,-60.142 0.229,-62.804L20.232,-55.785C15.012,-55.213 10.721,-53.074 7.36,-49.375C4.621,-46.339 2.207,-41.843 0.12,-35.894C-1.028,-32.618 -1.514,-30.135 -1.334,-28.447C-1.069,-25.984 0.366,-24.296 2.976,-23.379L16.004,-18.809L20.214,-30.801C22.112,-36.216 21.76,-41.042 19.153,-45.278L36.474,-39.2C31.799,-37.517 28.512,-33.971 26.613,-28.556L22.407,-16.565L38.16,-11.035C41.024,-10.031 43.373,-10.498 45.209,-12.437C46.439,-13.739 47.688,-16.199 48.957,-19.822C51.268,-26.404 52.271,-31.691 51.971,-35.69C51.617,-40.444 49.413,-44.967 45.362,-49.253L66.124,-41.969C64.058,-40.393 62.553,-38.267 61.614,-35.586L46.567,7.299C45.094,3.25 42.148,0.452 37.734,-1.097L-2.499,-15.212C-6.828,-16.731 -10.832,-16.371 -14.515,-14.131L0,-55.505ZM-14.444,-34.282L-22.687,-51.83C-23.812,-54.209 -24.092,-56.2 -23.528,-57.807C-23.176,-58.816 -22.548,-59.553 -21.646,-60.017C-20.745,-60.478 -19.837,-60.548 -18.923,-60.23C-17.521,-59.735 -16.558,-57.911 -16.029,-54.752L-13.213,-37.782L-14.444,-34.282Z" style="fill:rgb(174,92,78);"/>
        </g>
        <g transform="matrix(1,0,0,1,78.8647,266.163)">
            <path d="M0,-7.868L18.473,3.136C18.588,0.376 19.671,-3.588 21.725,-8.763C22.655,-11.087 23.252,-12.617 23.517,-13.354C25.765,-19.562 24.311,-24.202 19.161,-27.271C12.36,-31.322 6.522,-29.254 1.651,-21.071C-2.509,-14.09 -3.058,-9.687 0,-7.868M38.28,31.834C37.637,27.573 35.307,24.245 31.289,21.849L-5.344,0.029C-9.255,-2.3 -13.244,-2.759 -17.308,-1.337L-14.984,-4.969C-14.463,-5.784 -14.021,-6.493 -13.661,-7.096C-12.466,-9.104 -10.791,-12.186 -8.639,-16.346C-6.486,-20.506 -4.814,-23.589 -3.617,-25.596C0.006,-31.68 4.084,-35.681 8.62,-37.604C13.58,-39.702 18.757,-39.146 24.155,-35.93C29.917,-32.498 32.803,-27.32 32.813,-20.4C32.833,-17.707 31.499,-13.005 28.809,-6.296C28.588,-5.688 28.149,-4.567 27.497,-2.936C26.076,0.634 25.37,2.983 25.37,4.108C25.364,6.195 26.559,7.954 28.959,9.383L36.161,13.672C40.179,16.067 44.21,16.538 48.256,15.087L38.28,31.834Z" style="fill:rgb(174,92,78);"/>
        </g>
        <g transform="matrix(1,0,0,1,125.787,211.952)">
            <path d="M0,-39.712C-0.03,-35.415 1.716,-31.795 5.234,-28.855L37.958,-1.522C41.548,1.476 45.454,2.581 49.677,1.787L37.181,16.747C37.221,12.436 35.446,8.784 31.856,5.783L-0.868,-21.55C-4.387,-24.49 -8.263,-25.56 -12.497,-24.755L0,-39.712ZM-16.957,-29.717L-18.52,-49.044C-18.738,-51.666 -18.301,-53.629 -17.208,-54.936C-16.523,-55.757 -15.677,-56.227 -14.67,-56.343C-13.664,-56.459 -12.791,-56.208 -12.046,-55.588C-10.906,-54.633 -10.644,-52.587 -11.258,-49.442L-14.578,-32.565L-16.957,-29.717Z" style="fill:rgb(174,92,78);"/>
        </g>
        <g transform="matrix(1,0,0,1,213.375,122.145)">
            <path d="M0,38.673C3.11,42.244 6.792,43.954 11.037,43.796L-3.582,56.541C-2.864,52.372 -4.064,48.501 -7.177,44.931L-34.207,13.926C-36.861,10.881 -39.617,10.6 -42.47,13.091C-48.253,18.132 -49.104,25.443 -45.023,35.017L-60.452,17.322C-58.101,17.218 -56.281,16.607 -54.993,15.484L-22.69,-12.679C-21.329,-13.866 -20.461,-15.596 -20.088,-17.868L-4.662,-0.172C-13.516,-5.584 -20.86,-5.75 -26.694,-0.663C-29.573,1.846 -29.685,4.626 -27.033,7.668L0,38.673Z" style="fill:rgb(174,92,78);"/>
        </g>
        <g transform="matrix(1,0,0,1,244.675,111.646)">
            <path d="M0,-46.987L5.27,-65.646C5.979,-68.18 7.07,-69.868 8.552,-70.712C9.479,-71.243 10.437,-71.388 11.418,-71.148C12.403,-70.905 13.137,-70.365 13.617,-69.525C14.354,-68.235 13.885,-66.224 12.215,-63.491L3.222,-48.826L0,-46.987ZM24.815,-53.553C26.845,-54.716 28.498,-56.502 29.772,-58.922L40.285,-40.511C35.964,-43.501 31.324,-44.698 26.359,-44.104C22.303,-43.604 17.535,-41.791 12.057,-38.662C9.042,-36.941 7.051,-35.383 6.08,-33.989C4.665,-31.957 4.646,-29.739 6.015,-27.339L12.864,-15.349L23.898,-21.651C28.882,-24.496 31.777,-28.372 32.584,-33.279L41.69,-17.341C37.055,-19.133 32.246,-18.607 27.265,-15.761L16.228,-9.457L24.507,5.038C26.013,7.676 28.091,8.863 30.751,8.601C32.532,8.424 35.088,7.382 38.422,5.478C44.478,2.019 48.7,-1.318 51.093,-4.533C53.94,-8.358 55.242,-13.219 54.988,-19.114L65.899,-0.008C63.305,-0.169 60.777,0.453 58.311,1.86L18.847,24.401C20.382,20.374 19.992,16.332 17.674,12.27L-3.473,-24.755C-5.745,-28.738 -9.007,-31.09 -13.257,-31.81L24.815,-53.553Z" style="fill:rgb(174,92,78);"/>
        </g>
        <g transform="matrix(1,0,0,1,341.541,19.0788)">
            <path d="M0,79.157L-7.166,57.877C2.016,65.056 10.641,67.288 18.713,64.571C22.731,63.218 25.595,61.207 27.306,58.542C29.145,55.738 29.455,52.533 28.241,48.924C27.259,46.008 25.628,43.938 23.35,42.713C21.465,41.709 18.702,41.082 15.063,40.828C14.343,40.784 11.018,40.754 5.09,40.743C1.138,40.726 -2.155,40.427 -4.785,39.835C-9.93,38.684 -13.375,35.516 -15.118,30.336C-16.883,25.096 -16.064,20.255 -12.66,15.808C-9.613,11.768 -5.131,8.753 0.791,6.76C2.373,6.225 4.793,5.722 8.053,5.248C11.313,4.771 13.732,4.266 15.317,3.734C17.374,3.038 18.664,1.797 19.187,0L25.693,19.321C18.566,12.695 11.048,10.712 3.137,13.377C-0.093,14.463 -2.548,16.059 -4.234,18.165C-6.179,20.549 -6.678,23.151 -5.729,25.969C-5.061,27.952 -3.827,29.474 -2.027,30.532C-0.401,31.49 4.018,32.022 11.233,32.12C12.613,32.137 14.229,32.169 16.078,32.219C27.483,32.513 34.576,36.788 37.355,45.045C39.439,51.232 38.812,56.647 35.481,61.292C32.47,65.539 27.483,68.838 20.519,71.18C18.937,71.713 16.493,72.179 13.192,72.574C9.888,72.97 7.444,73.434 5.865,73.966C3.871,74.636 1.915,76.366 0,79.157" style="fill:rgb(174,92,78);"/>
        </g>
        <g transform="matrix(1,0,0,1,441.566,60.6893)">
            <path d="M0,-44.952C0.262,-45.509 0.349,-46.117 0.257,-46.777C-0.024,-48.848 -2.335,-49.587 -6.672,-48.992C-18.852,-47.326 -26.55,-41.507 -29.771,-31.542L-32.789,-53.583C-30.835,-52.369 -28.967,-51.884 -27.18,-52.129L16.299,-58.084L-10.527,-0.011C-10.897,0.775 -11.045,1.427 -10.974,1.94C-10.701,3.931 -7.886,4.561 -2.523,3.824C10.715,2.013 19.39,-3.947 23.5,-14.054L26.523,8.015C24.376,6.869 22.278,6.435 20.227,6.716L-26.637,13.132L0,-44.952Z" style="fill:rgb(174,92,78);"/>
        </g>
        <g transform="matrix(1,0,0,1,558.12,1.6829)">
            <path d="M0,67.864C3.557,65.434 5.543,61.89 5.949,57.231L9.1,21.474C9.424,17.753 10.027,14.21 10.905,10.841C9.313,14.815 7.761,18.369 6.243,21.496L-13.277,62.122C-13.588,62.799 -13.784,63.619 -13.869,64.585C-13.956,65.583 -13.959,66.271 -13.874,66.642L-25.355,65.633C-25.159,65.1 -25.023,64.427 -24.952,63.611C-24.867,62.643 -24.936,61.797 -25.157,61.077L-37.389,17.66C-38.434,13.94 -39.339,10.17 -40.108,6.35C-39.642,9.259 -39.598,12.86 -39.975,17.156L-43.122,52.91C-43.529,57.539 -42.168,61.38 -39.033,64.429L-57.55,62.799C-53.993,60.368 -52.01,56.824 -51.598,52.165L-47.858,9.69C-47.457,5.123 -48.796,1.331 -51.873,-1.683L-31.709,0.091C-32.268,0.712 -32.574,1.337 -32.628,1.97C-32.653,2.213 -32.628,2.425 -32.558,2.614L-20.705,44.868C-19.77,48.273 -19.041,52.362 -18.525,57.133C-17.096,52.258 -15.683,48.357 -14.289,45.427L4.626,5.89C4.632,5.86 4.653,5.816 4.697,5.759C4.831,5.497 4.904,5.276 4.924,5.093C4.877,4.848 4.727,4.242 4.479,3.277L24.793,5.063C21.296,7.439 19.343,10.942 18.937,15.569L15.196,58.044C14.782,62.763 16.089,66.598 19.116,69.547L0,67.864Z" style="fill:rgb(174,92,78);"/>
        </g>
        <g transform="matrix(1,0,0,1,651.715,88.3172)">
            <path d="M0,-70.409L17.407,-78.947C19.767,-80.112 21.75,-80.426 23.37,-79.888C24.385,-79.553 25.13,-78.936 25.606,-78.044C26.084,-77.149 26.171,-76.244 25.869,-75.324C25.399,-73.914 23.591,-72.918 20.44,-72.338L3.52,-69.241L0,-70.409ZM21.461,-56.322C23.679,-55.586 26.114,-55.55 28.763,-56.219L22.082,-36.098C21.422,-41.311 19.213,-45.566 15.456,-48.862C12.374,-51.549 7.84,-53.886 1.855,-55.875C-1.44,-56.969 -3.928,-57.41 -5.616,-57.203C-8.074,-56.898 -9.738,-55.432 -10.608,-52.809L-14.959,-39.704L-2.899,-35.7C2.546,-33.891 7.363,-34.325 11.559,-37.001L5.772,-19.58C4.013,-24.226 0.409,-27.456 -5.035,-29.262L-17.098,-33.269L-22.36,-17.42C-23.314,-14.542 -22.81,-12.202 -20.841,-10.399C-19.521,-9.19 -17.038,-7.982 -13.394,-6.773C-6.775,-4.575 -1.47,-3.661 2.521,-4.029C7.271,-4.463 11.755,-6.741 15.972,-10.865L9.04,10.017C7.429,7.976 5.276,6.508 2.581,5.614L-40.552,-8.707C-36.528,-10.251 -33.778,-13.241 -32.303,-17.682L-18.868,-58.147C-17.422,-62.498 -17.851,-66.497 -20.15,-70.142L21.461,-56.322Z" style="fill:rgb(174,92,78);"/>
        </g>
        <g transform="matrix(1,0,0,1,731.841,120.135)">
            <path d="M0,-45.4L-6.667,-33.951C-3.993,-32.181 -1.65,-30.711 0.368,-29.535C5.695,-26.431 9.875,-24.595 12.9,-24.025C17.729,-23.108 21.32,-24.669 23.672,-28.708C27.205,-34.767 24.043,-40.668 14.19,-46.407C10.849,-48.355 8.214,-49.364 6.287,-49.432C3.715,-49.522 1.62,-48.18 0,-45.4M-19.703,-11.577C-22.065,-7.521 -22.505,-3.475 -21.016,0.562L-37.86,-9.251C-33.604,-9.936 -30.301,-12.298 -27.947,-16.34L-6.481,-53.18C-4.174,-57.144 -3.771,-61.145 -5.273,-65.182C-4.668,-64.831 -3.781,-64.313 -2.61,-63.633C-1.443,-62.951 -0.557,-62.436 0.052,-62.081C3.112,-60.297 7.277,-57.992 12.554,-55.166L19.49,-51.445C20.146,-51.109 20.818,-50.739 21.509,-50.338C34.616,-42.702 38.233,-33.845 32.36,-23.766C28.615,-17.333 22.234,-15.146 13.219,-17.197C15.666,-14.297 17.068,-11.528 17.431,-8.894C17.739,-6.637 17.313,-3.686 16.157,-0.036C14.766,2.809 13.099,7.166 11.154,13.028C10.698,15.401 10.974,17.652 11.975,19.782L2.067,14.01C0.747,12.96 0.362,11.5 0.911,9.635C1.266,8.36 2.206,6.396 3.731,3.742C5.259,1.091 6.282,-0.914 6.801,-2.27C8.565,-7.093 8.56,-11.223 6.776,-14.657C5.202,-17.726 1.893,-20.73 -3.156,-23.67C-3.937,-24.123 -5.14,-24.772 -6.773,-25.615C-8.405,-26.461 -9.61,-27.113 -10.388,-27.566L-19.703,-11.577Z" style="fill:rgb(174,92,78);"/>
        </g>
        <g transform="matrix(1,0,0,1,827.455,181.08)">
            <path d="M0,-56.872C-0.969,-56.354 -1.512,-56.048 -1.64,-55.958C-1.763,-55.825 -1.88,-55.623 -1.986,-55.35C-2.003,-55.285 -2.021,-55.239 -2.044,-55.216L-13.465,-12.935C-14.793,-7.989 -16.351,-3.684 -18.141,-0.018C-16.242,-2.886 -13.749,-6.019 -10.669,-9.416L10.385,-32.633C13.442,-36.007 14.646,-39.858 13.991,-44.183L27.764,-31.694C23.459,-31.907 19.769,-30.314 16.686,-26.917L-16.362,9.526C-17.791,11.103 -18.615,12.401 -18.839,13.43L-29.085,4.139C-29.062,4.117 -29.011,4.084 -28.927,4.041C-28.171,3.754 -27.661,3.468 -27.399,3.179C-27.273,3.04 -27.153,2.832 -27.039,2.557C-27.022,2.488 -27.003,2.442 -26.981,2.418L-14.397,-44.387C-13.664,-47.128 -12.339,-51.114 -10.415,-56.351C-12.268,-53.438 -14.488,-50.552 -17.079,-47.696L-40.825,-21.511C-43.946,-18.069 -45.179,-14.184 -44.524,-9.863L-58.295,-22.351C-53.993,-22.136 -50.267,-23.762 -47.127,-27.226L-18.484,-58.812C-15.402,-62.208 -14.177,-66.039 -14.81,-70.302L0,-56.872Z" style="fill:rgb(174,92,78);"/>
        </g>
        <g transform="matrix(1,0,0,1,917.461,244.019)">
            <path d="M0,-40.529C1.109,-41.325 2.4,-41.563 3.876,-41.249C5.352,-40.935 6.527,-40.169 7.403,-38.949C8.295,-37.705 8.658,-36.336 8.497,-34.847C8.336,-33.357 7.687,-32.203 6.555,-31.393C5.321,-30.507 4.012,-30.215 2.624,-30.509C1.238,-30.807 0.057,-31.63 -0.914,-32.986C-1.863,-34.312 -2.254,-35.684 -2.076,-37.102C-1.899,-38.521 -1.209,-39.664 0,-40.529M-10.68,-55.417C-9.572,-56.214 -8.264,-56.432 -6.758,-56.072C-5.249,-55.709 -4.054,-54.918 -3.176,-53.694C-2.278,-52.441 -1.921,-51.088 -2.109,-49.634C-2.3,-48.18 -2.96,-47.045 -4.095,-46.232C-6.878,-44.236 -9.344,-44.735 -11.49,-47.727C-12.467,-49.089 -12.884,-50.491 -12.742,-51.931C-12.604,-53.371 -11.913,-54.533 -10.68,-55.417M-61.015,-1.324C-53.516,9.129 -42.687,9.277 -28.525,-0.882C-22.704,-5.058 -18.705,-9.406 -16.531,-13.929C-13.646,-19.906 -14.275,-25.787 -18.422,-31.568C-25.98,-42.102 -36.826,-42.302 -50.965,-32.16C-56.762,-28 -60.753,-23.616 -62.938,-19.006C-65.785,-12.975 -65.145,-7.08 -61.015,-1.324M-67.163,3.068C-73.164,-5.293 -74.817,-13.485 -72.122,-21.499C-69.872,-28.256 -64.746,-34.5 -56.757,-40.234C-48.715,-46.004 -41.137,-48.848 -34.02,-48.772C-25.594,-48.691 -18.351,-44.429 -12.292,-35.987C-6.297,-27.626 -4.644,-19.437 -7.336,-11.42C-9.589,-4.663 -14.698,1.573 -22.666,7.288C-30.708,13.057 -38.286,15.903 -45.4,15.826C-53.854,15.763 -61.107,11.511 -67.163,3.068" style="fill:rgb(174,92,78);"/>
        </g>
        <g transform="matrix(1,0,0,1,952.314,337.278)">
            <path d="M0,-45.389C-3.836,-47.326 -7.854,-47.372 -12.052,-45.528L-31.782,-36.868L-0.578,-26.529C1.833,-25.726 3.69,-25.612 4.997,-26.185C6.083,-26.662 6.754,-27.74 7.011,-29.423L15.068,-11.07C13.972,-11.833 10.213,-13.659 3.783,-16.545L3.66,-16.599L-14.493,-22.991L-36.927,5.576C-39.865,9.31 -41.867,13.399 -42.934,17.846L-50.487,0.641C-48.6,1.236 -46.974,1.233 -45.607,0.632C-44.412,0.106 -43.146,-0.988 -41.818,-2.649L-23.002,-26.414L-40.743,-32.931L-51.09,-28.389C-55.373,-26.507 -58.101,-23.501 -59.271,-19.366L-67.105,-37.211C-63.265,-35.26 -59.203,-35.222 -54.92,-37.105L-15.879,-54.247C-11.681,-56.088 -8.999,-59.086 -7.837,-63.235L0,-45.389Z" style="fill:rgb(174,92,78);"/>
        </g>
        <g transform="matrix(1,0,0,1,984.083,382.053)">
            <path d="M0,3.012C-3.465,0.467 -7.42,-0.24 -11.863,0.884L-53.198,11.348C-57.735,12.494 -60.919,15.011 -62.755,18.896L-67.536,0.003C-64.069,2.562 -60.07,3.268 -55.534,2.12L-14.201,-8.345C-9.758,-9.471 -6.615,-11.984 -4.784,-15.884L0,3.012Z" style="fill:rgb(174,92,78);"/>
        </g>
        <g transform="matrix(1,0,0,1,996.667,528.213)">
            <path d="M0,-15.444C-2.584,-18.878 -6.168,-20.692 -10.748,-20.893L-32.279,-21.84L-8.85,1.221C-7.044,3.005 -5.429,3.93 -4.002,3.993C-2.818,4.044 -1.738,3.37 -0.765,1.977L-1.646,22.002C-2.292,20.831 -4.858,17.534 -9.349,12.106L-9.436,12.001L-22.898,-1.756L-55.646,13.957C-59.932,16.012 -63.535,18.797 -66.454,22.313L-65.63,3.539C-64.2,4.907 -62.738,5.623 -61.249,5.69C-59.942,5.746 -58.325,5.324 -56.398,4.42L-29.02,-8.583L-42.056,-22.268L-53.347,-22.765C-58.017,-22.972 -61.795,-21.48 -64.67,-18.286L-63.813,-37.757C-61.229,-34.31 -57.602,-32.481 -52.929,-32.277L-10.333,-30.406C-5.751,-30.204 -2.021,-31.707 0.856,-34.915L0,-15.444Z" style="fill:rgb(174,92,78);"/>
        </g>
        <g transform="matrix(1,0,0,1,943.443,610.24)">
            <path d="M0,-13.178C-1.541,-8.202 -2.714,-4.13 -3.517,-0.962C-4.294,2.109 -5.199,6.198 -6.23,11.305L30.497,8.28L0,-13.178ZM-6.634,-17.976C-10.142,-20.349 -12.767,-21.751 -14.504,-22.194C-16.629,-22.731 -18.708,-22.379 -20.748,-21.135L-16.269,-38.817C-14.198,-34.744 -10.453,-30.8 -5.03,-26.978L36.049,1.929C36.373,2.134 36.698,2.276 37.022,2.357C37.934,2.59 38.981,2.483 40.159,2.038L35.877,18.943C35.189,18.075 34.464,17.544 33.697,17.349C33.285,17.247 32.772,17.221 32.164,17.279L-17.131,21.179C-23.847,21.722 -29.003,23.207 -32.593,25.639L-28.029,7.619C-26.793,9.93 -25.102,11.359 -22.949,11.902C-21.27,12.328 -18.351,12.328 -14.193,11.897C-12.911,7.947 -11.515,2.996 -10.006,-2.962C-8.506,-8.889 -7.382,-13.895 -6.634,-17.976" style="fill:rgb(174,92,78);"/>
        </g>
        <g transform="matrix(1,0,0,1,939.177,701.673)">
            <path d="M0,-3.823L-11.901,-9.648C-13.473,-6.854 -14.771,-4.407 -15.797,-2.309C-18.506,3.228 -20.036,7.53 -20.385,10.587C-20.95,15.47 -19.131,18.94 -14.933,20.994C-8.634,24.076 -2.979,20.498 2.032,10.254C3.732,6.782 4.548,4.078 4.477,2.151C4.381,-0.417 2.889,-2.411 0,-3.823M-35.162,-21.028C-39.376,-23.091 -43.443,-23.232 -47.361,-21.459L-38.796,-38.967C-37.806,-34.774 -35.211,-31.648 -31.008,-29.594L7.292,-10.853C11.411,-8.838 15.432,-8.726 19.349,-10.517C19.041,-9.888 18.591,-8.966 17.996,-7.752C17.401,-6.535 16.951,-5.613 16.643,-4.983C15.085,-1.802 13.086,2.521 10.649,7.985L7.441,15.176C7.152,15.852 6.833,16.55 6.481,17.271C-0.183,30.897 -8.756,35.144 -19.234,30.018C-25.92,26.745 -28.566,20.541 -27.172,11.403C-29.886,14.052 -32.549,15.651 -35.148,16.201C-37.374,16.673 -40.351,16.463 -44.073,15.574C-47.015,14.396 -51.48,13.045 -57.465,11.531C-59.862,11.247 -62.089,11.687 -64.143,12.838L-59.104,2.54C-58.152,1.147 -56.726,0.656 -54.824,1.068C-53.528,1.329 -51.502,2.126 -48.744,3.457C-45.986,4.785 -43.913,5.66 -42.524,6.081C-37.587,7.494 -33.468,7.186 -30.173,5.159C-27.227,3.367 -24.469,-0.155 -21.901,-5.398C-21.506,-6.211 -20.947,-7.46 -20.222,-9.149C-19.499,-10.837 -18.937,-12.087 -18.538,-12.896L-35.162,-21.028Z" style="fill:rgb(174,92,78);"/>
        </g>
        <g transform="matrix(1,0,0,1,368.533,978.4)">
            <path d="M0,-24.986L-6.361,-24.986C-8.467,-24.986 -10.194,-24.504 -11.542,-23.544L-11.542,-32.87C-9.643,-32.054 -7.889,-31.65 -6.285,-31.65C-0.586,-31.65 2.262,-34.558 2.262,-40.38C2.262,-41.992 1.932,-43.487 1.269,-44.859L10.104,-44.859C9.436,-42.924 9.106,-40.573 9.106,-37.804L9.106,8.984C9.106,13.594 10.712,17.227 13.934,19.873L-4.866,19.873C-1.623,17.257 0,13.632 0,8.994L0,-24.986Z" style="fill:rgb(174,92,78);"/>
        </g>
        <g transform="matrix(1,0,0,1,444.343,992.858)">
            <path d="M0,-52.592C-4.056,-52.592 -7.327,-51.804 -9.812,-50.23C-12.66,-48.415 -14.081,-45.739 -14.081,-42.201C-14.081,-38.604 -12.676,-35.884 -9.861,-34.043C-7.376,-32.408 -4.089,-31.591 0,-31.591C4.122,-31.591 7.426,-32.408 9.911,-34.043C12.756,-35.884 14.18,-38.604 14.18,-42.201C14.18,-45.739 12.739,-48.415 9.861,-50.23C7.376,-51.804 4.087,-52.592 0,-52.592M0.02,-25.104C-4.907,-25.104 -8.841,-24.168 -11.776,-22.296C-15.139,-20.125 -16.82,-16.885 -16.82,-12.574C-16.82,-8.262 -15.139,-5.021 -11.776,-2.853C-8.841,-0.948 -4.907,0.004 0.02,0.004C4.946,0.004 8.876,-0.948 11.814,-2.853C15.175,-5.021 16.855,-8.262 16.855,-12.574C16.855,-16.855 15.159,-20.081 11.766,-22.25C8.83,-24.152 4.913,-25.104 0.02,-25.104M14.482,-28.952C22.292,-26.034 26.196,-20.646 26.196,-12.787C26.196,-6.058 23.58,-1.014 18.345,2.349C13.798,5.268 7.682,6.725 -0.005,6.725C-7.66,6.725 -13.762,5.252 -18.309,2.304C-23.541,-1.058 -26.16,-6.087 -26.16,-12.787C-26.16,-20.646 -22.265,-26.034 -14.477,-28.952C-20.442,-31.451 -23.424,-35.904 -23.424,-42.303C-23.424,-48.167 -21.034,-52.572 -16.252,-55.519C-12.164,-58.051 -6.743,-59.317 0,-59.317C6.743,-59.317 12.177,-58.051 16.302,-55.519C21.114,-52.572 23.52,-48.167 23.52,-42.303C23.52,-35.933 20.505,-31.481 14.482,-28.952" style="fill:rgb(174,92,78);"/>
        </g>
        <g transform="matrix(1,0,0,1,514.4,932.769)">
            <path d="M0,65.504C4.55,61.458 8.312,55.673 11.29,48.147L23.956,16.151C24.542,14.662 24.837,13.437 24.837,12.483C24.837,9.318 22.022,7.733 16.395,7.733C4.907,7.733 -3.663,12.698 -9.326,22.622L-9.326,0C-6.97,1.389 -4.482,2.081 -1.866,2.081L42.558,2.081C38.956,5.415 36.076,9.804 33.915,15.248L19.341,51.895C18.261,54.601 17.718,56.849 17.718,58.632C17.718,61.071 18.898,63.362 21.253,65.504L0,65.504Z" style="fill:rgb(174,92,78);"/>
        </g>
        <g transform="matrix(1,0,0,1,587.146,957.342)">
            <path d="M0,18.443C6.282,29.788 14.529,35.46 24.739,35.46C29.385,35.46 33.108,34.254 35.904,31.847C38.7,29.439 40.103,26.138 40.103,21.946C40.103,18.022 38.63,15.003 35.684,12.891C33.002,10.961 29.45,9.995 25.034,9.995C20.844,9.995 17.229,10.982 14.186,12.955L14.186,1.262C16.414,2.602 19.229,3.27 22.636,3.27C27.058,3.27 30.661,2.499 33.446,0.946C36.852,-0.931 38.556,-3.745 38.556,-7.499C38.556,-10.776 37.228,-13.233 34.576,-14.872C32.284,-16.305 29.273,-17.017 25.538,-17.017C15.912,-17.017 7.941,-12.142 1.621,-2.396L1.621,-24.215C3.549,-22.522 5.955,-21.673 8.833,-21.673C10.931,-21.673 14.055,-22.025 18.212,-22.737C22.366,-23.446 25.506,-23.801 27.634,-23.801C33.395,-23.801 38.09,-22.625 41.721,-20.271C45.878,-17.592 47.956,-13.738 47.956,-8.707C47.956,-2.038 44.339,2.815 37.107,5.851C45.212,8.707 49.266,14.305 49.266,22.638C49.266,28.771 47.056,33.61 42.64,37.15C38.387,40.547 32.857,42.241 26.054,42.241C23.992,42.241 20.945,41.888 16.905,41.185C12.865,40.481 9.815,40.13 7.753,40.13C4.711,40.13 2.125,40.972 0,42.658L0,18.443Z" style="fill:rgb(174,92,78);"/>
        </g>
        <g transform="matrix(1,0,0,1,339.425,776.325)">
            <path d="M0,-144.056L0,1.271L321.756,1.271L321.756,-145.327L161.366,-11.856L0,-144.056Z" style="fill:white;"/>
        </g>
        <g transform="matrix(0,-1,-1,0,500.791,158.486)">
            <path d="M-46.906,-46.905C-72.812,-46.905 -93.811,-25.904 -93.811,0C-93.811,25.907 -72.812,46.906 -46.906,46.906C-21.002,46.906 -0,25.907 -0,0C-0,-25.904 -21.002,-46.905 -46.906,-46.905" style="fill:white;"/>
        </g>
        <g transform="matrix(0,-1,-1,0,500.792,185.759)">
            <path d="M-19.633,-19.632C-30.476,-19.632 -39.265,-10.842 -39.265,0.001C-39.265,10.844 -30.476,19.633 -19.633,19.633C-8.789,19.633 0,10.844 0,0.001C0,-10.842 -8.789,-19.632 -19.633,-19.632" style="fill:rgb(201,103,84);"/>
        </g>
        <g transform="matrix(1,0,0,1,259.965,327.662)">
            <path d="M0,-29.428L170.829,-29.428L155.041,0L15.792,0L0,-29.428Z" style="fill:white;"/>
        </g>
        <g transform="matrix(1,0,0,1,567.888,327.662)">
            <path d="M0,-29.428L171.91,-29.428L155.041,0L15.792,0L0,-29.428Z" style="fill:white;"/>
        </g>
        <g transform="matrix(1,0,0,1,487.498,308.747)">
            <path d="M0,21.067L13.293,0L25.124,20.713L0,21.067Z" style="fill:white;"/>
        </g>
        <g transform="matrix(1,0,0,1,286.523,564.522)">
            <path d="M0,-215.321C14.357,-215.326 118.433,-215.321 118.433,-215.321L111.256,-202.402L46.655,-202.402C46.655,-202.402 -28.95,-209.671 -37.328,-146.42C-42.571,-106.869 -2.155,-83.258 -2.155,-83.258L46.655,-83.258L2.87,0.005L-94.746,-83.258L-20.448,-83.258C-20.448,-83.258 -48.427,-118.853 -47.492,-148.821C-46.689,-174.542 -33.751,-187.54 -25.841,-193.078C-11.484,-203.125 -2.776,-205.279 0,-215.321" style="fill:white;"/>
        </g>
        <g transform="matrix(1,0,0,1,390.599,478.393)">
            <path d="M0,-104.076L-75.365,-104.076C-95.461,-104.076 -126.927,-84.648 -127.044,-56.704C-127.187,-22.961 -104.343,-2.294 -80.39,-2.515C-61.06,-2.69 -36.146,-16.285 -35.165,-40.195C-34.084,-66.456 -51.911,-77.021 -69.623,-76.446C-76.292,-76.227 -85.043,-73.049 -90.497,-66.871C-99.583,-56.576 -101.427,-39.863 -83.265,-28.705C-74.377,-23.244 -67.34,-38.133 -68.906,-41.63C-70.469,-45.127 -85.524,-53.284 -71.42,-59.214C-59.647,-64.162 -46.104,-44.505 -55.624,-29.428C-66.704,-11.88 -91.874,0 -111.253,-30.145C-131.892,-62.25 -109.362,-81.512 -96.181,-89.719C-77.411,-101.409 -53.832,-97.617 -45.22,-96.181C-36.605,-94.744 -8.612,-88.285 -8.612,-88.285L0,-104.076Z" style="fill:white;"/>
        </g>
        <g transform="matrix(1,0,0,1,713.978,564.522)">
            <path d="M0,-215.321C-14.356,-215.326 -118.436,-215.321 -118.436,-215.321L-111.256,-202.402L-46.654,-202.402C-46.654,-202.402 28.951,-209.671 37.328,-146.42C42.568,-106.869 2.155,-83.258 2.155,-83.258L-46.654,-83.258L-2.872,0.005L94.744,-83.258L20.448,-83.258C20.448,-83.258 48.428,-118.853 47.489,-148.821C46.69,-174.542 33.752,-187.54 25.838,-193.078C11.484,-203.125 2.777,-205.279 0,-215.321" style="fill:white;"/>
        </g>
        <g transform="matrix(1,0,0,1,609.902,478.393)">
            <path d="M0,-104.076L75.365,-104.076C95.462,-104.076 126.928,-84.648 127.045,-56.704C127.187,-22.961 104.344,-2.294 80.391,-2.515C61.061,-2.69 36.147,-16.285 35.165,-40.195C34.085,-66.456 51.911,-77.021 69.621,-76.446C76.293,-76.227 85.041,-73.049 90.494,-66.871C99.583,-56.576 101.425,-39.863 83.266,-28.705C74.378,-23.244 67.341,-38.133 68.903,-41.63C70.469,-45.127 85.524,-53.284 71.418,-59.214C59.647,-64.162 46.104,-44.505 55.624,-29.428C66.707,-11.88 91.872,0 111.253,-30.145C131.893,-62.25 109.36,-81.512 96.179,-89.719C77.411,-101.409 53.832,-97.617 45.217,-96.181C36.605,-94.744 8.612,-88.285 8.612,-88.285L0,-104.076Z" style="fill:white;"/>
        </g>
        <g transform="matrix(1,0,0,1,476.014,361.398)">
            <path d="M0,-12.202L47.375,-12.202L53.835,0L-7.177,0L0,-12.202Z" style="fill:white;"/>
        </g>
        <g transform="matrix(1,0,0,1,463.177,412.684)">
            <path d="M0,-38.078L74.249,-38.078L90.75,-7.616C90.75,-7.616 21.577,0 -17.134,-7.616L0,-38.078Z" style="fill:white;"/>
        </g>
        <g transform="matrix(1,0,0,1,438.427,474.243)">
            <path d="M0,-55.847L-18.405,-24.117L-34.906,-21.577C-34.906,-21.577 -24.117,0 1.269,-12.057C26.654,-24.117 18.402,-53.943 18.402,-53.943C18.402,-53.943 0.635,-54.576 0,-55.847" style="fill:white;"/>
        </g>
        <g transform="matrix(1,0,0,1,563.155,474.243)">
            <path d="M0,-55.847L18.405,-24.117L34.905,-21.577C34.905,-21.577 24.117,0 -1.269,-12.057C-26.656,-24.117 -18.405,-53.943 -18.405,-53.943C-18.405,-53.943 -0.636,-54.576 0,-55.847" style="fill:white;"/>
        </g>
        <g transform="matrix(1,0,0,1,472.697,465.111)">
            <path d="M0,-42.906C0,-42.906 47.595,-41.002 55.212,-43.542L55.212,-16.888C55.212,-2.291 42.86,0.636 28.094,0.636C13.326,0.636 -1.271,-4.193 -1.271,-14.348C-1.271,-24.502 0,-42.906 0,-42.906" style="fill:white;"/>
        </g>
        <g transform="matrix(1,0,0,1,467.618,714.766)">
            <path d="M0,-461.375C0,-461.375 20.309,-444.875 46.33,-451.219L-52.672,-274.792L-74.885,-267.177C-74.885,-267.177 -213.87,-27.921 -219.579,-19.037C-225.291,-10.152 -235.447,0 -235.447,0L-230.371,-20.308L0,-461.375Z" style="fill:white;"/>
        </g>
        <g transform="matrix(1,0,0,1,531.081,719.211)">
            <path d="M0,-464.549L-3.172,-463.28L-25.386,-422.662L56.739,-277.079L76.98,-271.176L225.93,-15.865L241.162,0C241.162,0 239.891,-12.057 237.986,-15.865C236.083,-19.674 0,-464.549 0,-464.549" style="fill:white;"/>
        </g>
        <g transform="matrix(1,0,0,1,390.195,523.746)">
            <path d="M0,-42.522L220.215,-42.522L246.233,0L-25.385,0L0,-42.522Z" style="fill:white;"/>
        </g>
        <g transform="matrix(1,0,0,1,357.194,545.324)">
            <path d="M0,-6.348L286.851,-6.348L291.93,0L-3.808,0L0,-6.348Z" style="fill:white;"/>
        </g>
        <g transform="matrix(1,0,0,1,500.791,554.841)">
            <path d="M0,122.748L-146.137,0L145.157,0L0,122.748Z" style="fill:white;"/>
        </g>
        <g transform="matrix(1,0,0,1,484.039,580.103)">
            <path d="M0,201.936L0,11.04C0,10.754 0.008,10.47 0.022,10.186C0.467,1.332 7.788,-5.709 16.752,-5.709C26.002,-5.709 33.501,1.79 33.501,11.04L33.501,207.645L0,201.936Z" style="fill:rgb(201,103,84);"/>
        </g>
        <g transform="matrix(1,0,0,1,436.523,574.395)">
            <path d="M0,213.992L0,16.749C0,7.498 5.398,0 12.057,0C18.716,0 24.114,7.498 24.114,16.749L24.114,210.184L0,213.992Z" style="fill:rgb(201,103,84);"/>
        </g>
        <g transform="matrix(1,0,0,1,413.677,574.394)">
            <path d="M0,210.185L-0.636,16.749C-0.636,7.498 -5.199,0 -10.832,0C-16.462,0 -21.029,7.498 -21.029,16.749L-21.029,208.913L0,210.185Z" style="fill:rgb(201,103,84);"/>
        </g>
        <g transform="matrix(-0.00462479,-0.999989,-0.999989,0.00462479,444.988,695.018)">
            <path d="M-89.235,70.692L48.069,70.692C57.319,70.649 70.366,88.823 61.113,88.866L-87.876,89.555L-89.235,70.692Z" style="fill:rgb(201,103,84);"/>
        </g>
        <g transform="matrix(0.00463208,-0.999989,-0.999989,-0.00463208,716.019,714.626)">
            <path d="M-70.365,88.823L66.939,88.823C76.189,88.866 89.236,70.692 79.983,70.649L-69.005,69.959L-70.365,88.823Z" style="fill:rgb(201,103,84);"/>
        </g>
        <g transform="matrix(1,0,0,1,565.06,574.395)">
            <path d="M0,213.992L0,16.749C0,7.498 -5.396,0 -12.058,0C-18.716,0 -24.117,7.498 -24.117,16.749L-24.117,210.184L0,213.992Z" style="fill:rgb(201,103,84);"/>
        </g>
        <g transform="matrix(1,0,0,1,587.905,574.394)">
            <path d="M0,210.185L0.636,16.749C0.636,7.498 5.199,0 10.832,0C16.463,0 21.029,7.498 21.029,16.749L21.029,208.913L0,210.185Z" style="fill:rgb(201,103,84);"/>
        </g>
        <g transform="matrix(1,0,0,1,343.865,740.351)">
            <path d="M0,-179.797C0,-179.797 -15.865,-151.239 -20.306,-148.699L156.926,1.269L333.181,-148.065L326.2,-156.951L312.239,-181.066L157.008,-50.009L0,-179.797Z" style="fill:white;"/>
        </g>
    </g>
</svg>
