<svg xmlns="http://www.w3.org/2000/svg" xmlns:xlink="http://www.w3.org/1999/xlink" viewBox="0 0 1096.87 1096.93"><defs><style>.cls-1{fill:none;stroke:#3854a2;stroke-linejoin:round;stroke-width:16.93px;}.cls-2{fill:url(#Névtelen_színátmenet_18);}.cls-3{fill:#3854a2;}.cls-4{fill:url(#Névtelen_színátmenet_18-2);}.cls-5{fill:url(#Névtelen_színátmenet_18-3);}.cls-6{fill:url(#Névtelen_színátmenet_18-4);}.cls-7{fill:url(#Névtelen_színátmenet_18-5);}.cls-8{fill:url(#Névtelen_színátmenet_18-6);}.cls-9{fill:url(#Névtelen_színátmenet_18-7);}.cls-10{fill:url(#Névtelen_színátmenet_18-8);}.cls-11{fill:url(#Névtelen_színátmenet_18-9);}.cls-12{fill:url(#Névtelen_színátmenet_18-10);}.cls-13{fill:url(#Névtelen_színátmenet_18-11);}.cls-14{fill:url(#Névtelen_színátmenet_18-12);}.cls-15{fill:url(#Névtelen_színátmenet_18-13);}.cls-16{fill:url(#Névtelen_színátmenet_18-14);}.cls-17{fill:url(#Névtelen_színátmenet_18-15);}.cls-18{fill:url(#Névtelen_színátmenet_18-16);}.cls-19{fill:url(#Névtelen_színátmenet_18-17);}.cls-20{fill:url(#Névtelen_színátmenet_18-18);}</style><linearGradient id="Névtelen_színátmenet_18" x1="-263.15" y1="954.93" x2="-246.8" y2="944.4" gradientTransform="matrix(3.78, 0, 0, -3.78, 1179.13, 4060.19)" gradientUnits="userSpaceOnUse"><stop offset="0" stop-color="#fab52b"/><stop offset="1" stop-color="#f3a305"/></linearGradient><linearGradient id="Névtelen_színátmenet_18-2" x1="-246.49" y1="978.86" x2="-221.08" y2="968.35" xlink:href="#Névtelen_színátmenet_18"/><linearGradient id="Névtelen_színátmenet_18-3" x1="-201.95" y1="989.66" x2="-177.15" y2="981.41" xlink:href="#Névtelen_színátmenet_18"/><linearGradient id="Névtelen_színátmenet_18-4" x1="-236.78" y1="945.64" x2="-216.8" y2="938.33" xlink:href="#Névtelen_színátmenet_18"/><linearGradient id="Névtelen_színátmenet_18-5" x1="-184.22" y1="963.31" x2="-171.43" y2="956.57" xlink:href="#Névtelen_színátmenet_18"/><linearGradient id="Névtelen_színátmenet_18-6" x1="-169.52" y1="952.37" x2="-149.29" y2="943.16" xlink:href="#Névtelen_színátmenet_18"/><linearGradient id="Névtelen_színátmenet_18-7" x1="-120.32" y1="967.67" x2="-106.94" y2="958.84" xlink:href="#Névtelen_színátmenet_18"/><linearGradient id="Névtelen_színátmenet_18-8" x1="-149.98" y1="971.16" x2="-130.24" y2="965" xlink:href="#Névtelen_színátmenet_18"/><linearGradient id="Névtelen_színátmenet_18-9" x1="-197.53" y1="934.37" x2="-168.08" y2="922.04" xlink:href="#Névtelen_színátmenet_18"/><linearGradient id="Névtelen_színátmenet_18-10" x1="-125.88" y1="918.82" x2="-99.83" y2="907.82" xlink:href="#Névtelen_színátmenet_18"/><linearGradient id="Névtelen_színátmenet_18-11" x1="-147.18" y1="932.82" x2="-129.91" y2="918.03" xlink:href="#Névtelen_színátmenet_18"/><linearGradient id="Névtelen_színátmenet_18-12" x1="-142.01" y1="893.82" x2="-122.64" y2="888.7" xlink:href="#Névtelen_színátmenet_18"/><linearGradient id="Névtelen_színátmenet_18-13" x1="-248.4" y1="930.1" x2="-227.35" y2="923.32" xlink:href="#Névtelen_színátmenet_18"/><linearGradient id="Névtelen_színátmenet_18-14" x1="-198.88" y1="905.85" x2="-183.19" y2="897.88" xlink:href="#Névtelen_színátmenet_18"/><linearGradient id="Névtelen_színátmenet_18-15" x1="-208.96" y1="955.26" x2="-190.14" y2="943.69" xlink:href="#Névtelen_színátmenet_18"/><linearGradient id="Névtelen_színátmenet_18-16" x1="-215.78" y1="973.78" x2="-205.43" y2="965.72" xlink:href="#Névtelen_színátmenet_18"/><linearGradient id="Névtelen_színátmenet_18-17" x1="-229.86" y1="915.79" x2="-220.67" y2="907.83" xlink:href="#Névtelen_színátmenet_18"/><linearGradient id="Névtelen_színátmenet_18-18" x1="-166.33" y1="916.98" x2="-158.38" y2="911.3" xlink:href="#Névtelen_színátmenet_18"/></defs><title>hallgatoitudasb</title><g id="Layer_2" data-name="Layer 2"><g id="Réteg_1" data-name="Réteg 1"><path id="path4568" class="cls-1" d="M930.51,928.86a538.15,538.15,0,0,1-680.67,69.45C35.06,855.73-49,581.21,49.21,342.84s351.17-374.09,604.06-324,435.14,271.88,435.14,529.67c0,166.14-124.6,332.28-249.21,207.67l-62.3-62.3"/><g id="g5136"><path id="path5022" class="cls-2" d="M241.89,480.52c-5.22,21.59-22.57,34-41.27,43.91-6.93-20.7-14.24-44.61-3.2-62.41,7.4-11.93,19.56-20.48,38.71-40.89,9.76,27.34,9.37,44.4,5.76,59.39Z"/><path id="path839" class="cls-3" d="M867.88,509.67,821,550.75c15.41,19.26,21.16,47.53,15.05,70.13h0a78.4,78.4,0,0,1-25.92,40.6h0a75.75,75.75,0,0,1-43.36,16.79l9,82.58a155.52,155.52,0,0,0,86.31-42.47,152.17,152.17,0,0,0,43.59-83.44h0a149,149,0,0,0-37.85-125.27Z"/><path id="path4558" class="cls-3" d="M526.12,695.88l-37.63,49.65A263.61,263.61,0,0,0,642,802.59a268.81,268.81,0,0,0,181.07-62l-54.84-62.39c-32.42,31.35-78.67,51.06-125.31,52.42-40.48,1.3-82.6-11-116.82-34.77Z"/><path id="path4564" class="cls-3" d="M227.11,580.65,206.47,583c2.94,39.68,25.34,77.77,60.38,99.94,35.51,22.22,81.52,26.75,122,10.53l-17.06-37.87c-26.17,13.89-61.41,14.54-89.45.37-27.87-13.85-49.8-42.92-55.23-75.34Z"/><path id="path4590" class="cls-3" d="M623.89,265.81l6.91,41c44.15-6.3,90.75,4.46,127.06,28.76h0c36.37,24.21,63.47,62.58,74.12,104h0a177.48,177.48,0,0,1-5.91,106.94l58.79,20.64a236.63,236.63,0,0,0,1-143.14h0a233.72,233.72,0,0,0-102-129.8h0a230,230,0,0,0-160-28.39Z"/><path id="path4815" class="cls-3" d="M368.23,657.84l-32.05,26.43a196.56,196.56,0,0,0,108,71.56,200.89,200.89,0,0,0,101.92-1l-18.9-59.36A143.31,143.31,0,0,1,455,703.63c-32.11-4.6-63.78-21-86.8-45.79Z"/><path id="path4835" class="cls-3" d="M548.83,334.85l17.4,9.3a92.84,92.84,0,0,1,15.71-17.43,88.39,88.39,0,0,1,50.5-21.11L624.5,267a120.88,120.88,0,0,0-61.27,42.61,115.62,115.62,0,0,0-14.4,25.28Z"/><path id="path4846" class="cls-3" d="M759.84,486.48l-16.3,12.85a174.92,174.92,0,0,0,45,46.68,179.61,179.61,0,0,0,46.85,23.83l9.9-40.33A142.74,142.74,0,0,1,805,518.1,148.32,148.32,0,0,1,759.84,486.48Z"/><path id="path4871" class="cls-3" d="M621.1,664.82,621,644.05a121.79,121.79,0,0,0-72.08,17.89,126.68,126.68,0,0,0-43.52,45.4l37.52,17.83a89.55,89.55,0,0,1,24.89-37.08A95.2,95.2,0,0,1,621.1,664.82Z"/><path id="path4877" class="cls-3" d="M355,302.2l12.38,14c39.83-33.06,91.37-51.27,142-50.89A217.46,217.46,0,0,1,633,305.19l20.69-31.13a250.33,250.33,0,0,0-145.12-37.4A246,246,0,0,0,355,302.2Z"/><path id="path4883" class="cls-3" d="M408.67,608.54l-16.49-12.62a149.36,149.36,0,0,0-21.76,28.85,155.2,155.2,0,0,0-18.72,52.15l41.46,2.44a119.66,119.66,0,0,1,3.91-42.87A124.63,124.63,0,0,1,408.67,608.54Z"/><path id="path5026" class="cls-4" d="M275,379.67c.41-22.21,14.65-38.1,30.76-51.82,11.25,18.7,23.58,40.46,16.66,60.23-4.64,13.26-14.65,24.24-28.92,48.32-15.46-24.58-18.78-41.31-18.5-56.73Z"/><path id="path4889" class="cls-3" d="M294.72,403.22a163.4,163.4,0,0,1,2.92-32.45c2.54-13,6.74-25.78,14.16-35.83l.95-1.26h0a57.26,57.26,0,0,1,26-18.84h0a55,55,0,0,1,30.84-1.65l1.45-8.71,1.45-8.7a70.42,70.42,0,0,0-39,6.81h0a68.29,68.29,0,0,0-28.19,26h0l-.91,1.58c-6.95,12.54-9.72,26.48-10.65,40.05A164.79,164.79,0,0,0,294.72,403.22Z"/><path id="path5028" class="cls-5" d="M465.55,358c-18.3,5.7-35.17-1.65-50.78-11.11,12.26-14.29,26.73-30.29,44.79-30,12.11.2,24.24,3.76,50.71,3.53-15.92,19.33-32,33.62-44.72,37.57Z"/><path id="path4909" class="cls-3" d="M462.81,337.53A52,52,0,0,1,435.62,346a50.12,50.12,0,0,1-24.19-5.7c-.77-.41-1.52-.83-2.26-1.27-8.11-4.79-14.64-12-20.7-19.71h0a166,166,0,0,1-12.1-18l-6.43,4.41-6.42,4.4a180.73,180.73,0,0,0,15.69,17.44c7.52,7.44,16.2,14.41,26.3,18.73h0c.93.4,1.87.76,2.82,1.1A56,56,0,0,0,436,350a54.05,54.05,0,0,0,26.82-12.51Z"/><path id="path5056" class="cls-6" d="M310.66,514.81c13.46,13,31.43,14.08,49.23,12.71-4.39-17.89-10-38.24-25.86-45.95-10.66-5.17-23.18-5.79-46-11.71,5.37,23.9,13.33,35.89,22.67,44.95Z"/><path id="path4915" class="cls-3" d="M320.37,494.83A157.6,157.6,0,0,1,366,550q2.61,5.29,4.81,10.74a151.08,151.08,0,0,1,10.93,56.64l10.36-.76,10.35-.76a167.51,167.51,0,0,0-20.77-60.45c-2.11-3.66-4.37-7.22-6.74-10.69a162.63,162.63,0,0,0-54.58-49.85Z"/><path id="path4921" class="cls-3" d="M224.7,458.39a135.94,135.94,0,0,0-25.64,63.66q-.45,3.48-.72,7a140.87,140.87,0,0,0,10,63.63l9.32-4.59,9.31-4.58a125,125,0,0,1-17.25-54.43c-.16-2.15-.27-4.3-.33-6.47a130.79,130.79,0,0,1,15.28-64.23Z"/><path id="path5066" class="cls-7" d="M524.81,433.45c2.9-16.36-5.27-30.08-15.12-42.46-10.95,12.11-23.13,26.31-20.9,41.81,1.5,10.4,7.27,19.9,14.28,39.63,14.88-15.82,19.73-27.62,21.74-39Z"/><path id="path4933" class="cls-3" d="M506.54,442.78A112.93,112.93,0,0,1,511.32,399a94.23,94.23,0,0,1,11-23.58l.41-.61h0c4.53-6.74,10.14-12.81,16-18.85h0a437.62,437.62,0,0,1,32.85-30.5l-5.33-5.68L561,314.06a452,452,0,0,0-30.23,34.88h0A147.47,147.47,0,0,0,516,370.75h0l-.38.72a100.58,100.58,0,0,0-9,26.29,115.24,115.24,0,0,0-.06,45Z"/><path id="path5064" class="cls-8" d="M554,491.81c-12.34-23.68-6.44-48.65,2.68-72.39,22.63,13.28,48.15,29.16,52.21,54,2.72,16.66-1.53,34-2.75,67.63C575.67,524,562.54,508.25,554,491.81Z"/><path id="path4939" class="cls-3" d="M586.25,494.09A247.31,247.31,0,0,1,565.92,427q-.95-6.16-1.56-12.33a242.17,242.17,0,0,1,5.41-80.53l-10.24-1.76-10.23-1.77a257.63,257.63,0,0,0,4.82,85.74q1.44,6.31,3.19,12.52a251.78,251.78,0,0,0,28.94,65.26Z"/><path id="path5074" class="cls-9" d="M728.68,419.44c-2.74,20.23,8,36.65,20.66,51.36,12.83-15.4,27.08-33.42,23.57-52.33-2.35-12.69-9.9-24.06-19.47-47.92-17.49,20.14-22.85,34.86-24.76,48.89Z"/><path id="path4945" class="cls-3" d="M746.66,419.71a117.9,117.9,0,0,0,.14,54.74c.44,1.85.94,3.69,1.47,5.52a122.87,122.87,0,0,0,32.41,53.47l5.69-6.76,5.68-6.75a109.66,109.66,0,0,1-35.51-43c-.74-1.6-1.44-3.23-2.11-4.87a113.86,113.86,0,0,1-7.77-52.31Z"/><path id="path5072" class="cls-10" d="M671.6,385.11c15.87,19.47,15.18,43.59,11.3,67.19-23.36-7.93-49.89-17.7-58.35-39.81-5.68-14.83-5.06-31.62-10.34-62.81,31.3,9.91,46.38,21.93,57.39,35.43Z"/><path id="path4951" class="cls-3" d="M642.74,396.05A233.47,233.47,0,0,0,678,450.66q5,5.71,10.29,11.14a240,240,0,0,0,66.52,47.56l3.92-9.62,3.92-9.62a224,224,0,0,1-67.45-36.07q-5.73-4.47-11.18-9.31a229.34,229.34,0,0,1-41.32-48.69Z"/><path id="path5062" class="cls-11" d="M499.83,577.5c-22.12,12.74-46.2,8.1-69.23.35,11.77-22.14,25.91-47.15,49.48-52,15.8-3.26,32.54.1,64.69-.08-15.07,29.76-29.59,42.93-44.94,51.76Z"/><path id="path4957" class="cls-3" d="M510.42,543.34a300.46,300.46,0,0,1-39.91,15.37c-7.57,2.31-15.32,4.35-23.11,6.87-3.71,1.21-7.43,2.52-11.15,4a130.48,130.48,0,0,0-48,34l8.23,6.33,8.22,6.34a114.14,114.14,0,0,1,36.94-35.79c3.11-1.88,6.35-3.62,9.68-5.3,7-3.52,14.33-6.75,21.61-10.28a302.75,302.75,0,0,0,37.47-21.57Z"/><path id="path5078" class="cls-12" d="M762.65,628c-17.15,11.21-36.65,8.58-55.47,3.41,8.43-18.27,18.63-39,37.3-43.93,12.51-3.34,26.08-1.4,51.84-3C785.59,609,774.55,620.19,762.65,628Z"/><path id="path4969" class="cls-3" d="M765.53,599.38a363.54,363.54,0,0,1-53.61,24.19q-9.09,3.25-18.32,6-12.45,3.7-25.07,6.57a395.55,395.55,0,0,1-50.6,8.11l1.67,10.24,1.67,10.25a412.82,412.82,0,0,0,51.23-15.32q12.56-4.66,24.73-10.13,9-4,17.8-8.56a367.65,367.65,0,0,0,50.5-31.36Z"/><path id="path5068" class="cls-13" d="M681.88,574.11C673.63,598.26,652.46,610.64,630,620c-5.73-24.41-11.57-52.54,2.94-71.74,9.73-12.87,24.54-21.37,48.6-42.69,8.28,32.31,6,51.79.32,68.55Z"/><path id="path4975" class="cls-3" d="M660.67,560.47A189.21,189.21,0,0,1,628.58,609c-1.56,1.71-3.14,3.39-4.76,5a184,184,0,0,1-51.38,36.83l5.26,9,5.26,9a199.94,199.94,0,0,0,48.83-48.08q2.12-3,4.12-6a194.49,194.49,0,0,0,24.76-54.17Z"/><path id="path5070" class="cls-14" d="M681.06,706.49c14.05-2.72,22.54-13.52,29.46-25.26-13.11-5.06-28.28-10.46-40-3.88-7.89,4.41-13.75,12-27.43,23.7,17.3,7.08,28.28,7.33,38,5.44Z"/><path id="path4987" class="cls-3" d="M667.13,694.71a183.1,183.1,0,0,1,55.42-9c1.46,0,2.93,0,4.39,0a179.28,179.28,0,0,1,50,8.07l1.79-7.58,1.78-7.58a190.87,190.87,0,0,0-54-1.3c-1.52.18-3,.38-4.55.6a186.94,186.94,0,0,0-54.83,16.75Z"/><path id="path5024" class="cls-15" d="M276,539.59c-16.43,2.47-26.83,14.58-35.43,27.87,15,6.51,32.31,13.54,46.29,6.48,9.38-4.74,16.55-13.23,33-26.16-19.74-9.07-32.48-9.9-43.88-8.19Z"/><path id="path4993" class="cls-3" d="M291.68,552.34a82.94,82.94,0,0,0-41.06,6.24l-.39.17a86.34,86.34,0,0,0-34.28,27l5.67,3.66,5.67,3.66a76.19,76.19,0,0,1,26.1-28.36l.33-.21a79.53,79.53,0,0,1,38-12.17Z"/><path id="path5060" class="cls-16" d="M468.36,643.24c11.43,12.06,13,26.78,10.52,42.42-15.5-5.12-33.64-8.4-39.36-23-3.84-9.78-4.06-26.45-1.44-47.78,9.95,11.11,20.31,17.82,30.28,28.34Z"/><path id="path4999" class="cls-3" d="M449.39,641.8A51.4,51.4,0,0,0,458.27,666a84,84,0,0,0,14.82,15.77c1.16,1,2.33,2,3.49,3l32.34,27,3.94-5.47,3.94-5.48-35.89-22.09q-1.91-1.17-3.77-2.36c-5.84-3.72-11.4-7.65-16-12.64a49.63,49.63,0,0,1-11.78-21.88Z"/><path id="path5054" class="cls-17" d="M445.77,487.31c-12.52,19.76-34,26.26-56,29.8.11-23,.92-49.3,18-63.3,11.42-9.38,26.43-13.79,52.44-27.65.47,30.57-5.7,47.44-14.38,61.15Z"/><path id="path5030" class="cls-3" d="M437.66,458.35Q425.35,473,411.83,486.53c-5.74,5.74-11.69,11.38-17,17.81l-1,1.24a99,99,0,0,0-21.43,58.83l5.19-.07,5.19-.07a91.13,91.13,0,0,1,15.34-55.53l.86-1.26c4.53-6.51,9.95-12.56,15.23-18.8q12.42-14.67,23.49-30.33Z"/><path id="path5058" class="cls-18" d="M404.28,397.14c1.68-18.29-8.14-33.1-19.63-46.34-10.57,14-22.27,30.33-18.59,47.42,2.47,11.45,9.39,21.7,18.49,43.23,14.43-18.28,18.56-31.62,19.73-44.31Z"/><path id="path5036" class="cls-3" d="M386.21,407.88a256.31,256.31,0,0,1,.1-48.77c0-.13,0-.27,0-.4.85-8.24,2-16.88.47-25.91a44.66,44.66,0,0,0-12.48-23.72l-3.48,3.85-3.48,3.85a35.66,35.66,0,0,1,11.82,17.76c2.18,7.22,1.88,15.5,2,23.93v.41a259.5,259.5,0,0,0,5,49Z"/><path id="path5086" class="cls-19" d="M314.94,611.92c-3.9,12.42,1.05,23.89,7.44,34.51,9.73-8.29,20.63-18.08,20.47-30.35-.11-8.22-3.63-16.19-7.07-32.22-13.16,10.78-18.12,19.45-20.84,28.06Z"/><path id="path5042" class="cls-3" d="M325.32,614a41.53,41.53,0,0,0-4.62,21,43.3,43.3,0,0,0,3.92,16.08,44.78,44.78,0,0,0,2.94,5.39,46.28,46.28,0,0,0,28.28,19.77l1-6.67,1-6.68a35.61,35.61,0,0,1-24.11-11.15,36.84,36.84,0,0,1-3.25-4,38.12,38.12,0,0,1-5.94-13.28,39.65,39.65,0,0,1,.77-20.53Z"/><path id="path5088" class="cls-20" d="M547.87,598.06c-6.24,13.62-2.23,27.43,3.55,40.47,12.3-8.07,26.15-17.69,27.72-31.72,1.05-9.41-1.82-19-3.45-37.8-16.58,10.41-23.49,19.61-27.82,29Z"/><path id="path5080" class="cls-3" d="M560.74,601a102,102,0,0,0-9.37,30.61h0c-.57,4-.89,8-1.57,11.61l-.15.79a57.9,57.9,0,0,1-20.51,33.81l5.41,5.6L540,689a69.47,69.47,0,0,0,17.43-44.21c0-.3,0-.61,0-.92h0c0-4.18-.35-8.14-.49-12h0A99.26,99.26,0,0,1,560.74,601Z"/></g></g></g></svg>