<?xml version="1.0" encoding="UTF-8" standalone="no"?>
<!DOCTYPE svg PUBLIC "-//W3C//DTD SVG 1.1//EN" "http://www.w3.org/Graphics/SVG/1.1/DTD/svg11.dtd">
<svg width="100%" height="100%" viewBox="0 0 999 339" version="1.1" xmlns="http://www.w3.org/2000/svg" xmlns:xlink="http://www.w3.org/1999/xlink" xml:space="preserve" xmlns:serif="http://www.serif.com/" style="fill-rule:evenodd;clip-rule:evenodd;stroke-linejoin:round;stroke-miterlimit:2;">
    <g id="Homar" transform="matrix(1,0,0,1,0,-330)">
        <g transform="matrix(1,0,0,1,264.3,462.524)">
            <path d="M0,-132.15C53.644,-132.08 93.827,-104.897 117.357,-68.047C124.773,-56.435 132.885,-41.234 137.081,-28.6C141.108,-16.474 138.68,-5.803 129.191,0C112.503,-1.58 90.104,-3.91 73.964,0C62.471,-12.832 41.264,-15.951 23.668,-22.682C24.895,-32.126 18.594,-34.044 12.82,-36.489C8.854,-68.418 23.207,-121.454 0,-132.15" style="fill:rgb(255,26,0);"/>
        </g>
        <g transform="matrix(1,0,0,1,214.99,400.482)">
            <path d="M0,133.047C5.256,145.509 33.428,142.935 46.351,138.964C44.174,158.775 54.38,171.471 44.379,184.33C36.42,194.562 -0.331,190.243 -4.931,184.33C-11.689,175.64 -7.889,153.77 -7.889,141.924C-7.889,125.01 -3.01,96.052 -15.779,90.641C-23.809,87.238 -53.946,89.064 -58.185,90.641C-71.534,95.607 -67.061,119.148 -67.061,141.924C-67.061,157.555 -62.63,174.828 -70.02,184.33C-78.122,194.747 -114.608,190.4 -119.33,184.33C-125.34,176.6 -122.288,142.985 -122.288,126.145L-122.288,3.856C-122.288,-11.038 -125.924,-44.864 -119.33,-53.343C-113.214,-61.206 -76.066,-61.118 -70.02,-53.343C-60.216,-40.738 -69.982,9.128 -66.075,19.635C-61.298,32.482 -14.14,32.976 -8.876,20.621C-5.177,11.942 -7.889,-5.304 -7.889,-17.84C-7.889,-29.199 -11.473,-44.932 -4.931,-53.343C1.569,-61.7 38.182,-61.311 44.379,-53.343C52.648,-42.711 47.337,-5.677 47.337,17.663L47.337,91.627C44.557,94.106 41.813,96.622 41.42,101.489C33.709,108.9 24.549,114.86 17.751,123.186C8.755,123.393 2.692,126.535 0,133.047"/>
        </g>
        <g transform="matrix(1,0,0,1,856.017,375.003)">
            <path d="M0,115.134C-11.109,114.281 -14.932,101.758 -23.669,95.41C-30.562,90.402 -38.587,88.953 -49.311,87.52C-51.693,83.973 -39.979,77.916 -37.476,72.728C-36.09,57.04 -37.984,43.58 -50.297,40.183C-57.511,38.193 -75.004,37.979 -84.813,40.183C-93.887,42.222 -111.837,61.315 -114.399,72.728C-115.695,78.5 -113.365,83.591 -114.399,87.52C-122.188,87.621 -128.044,89.655 -134.123,91.466C-149.533,86.449 -171.574,90.903 -189.351,93.438C-203.524,98.329 -221.459,99.461 -231.757,108.231C-254.15,111.806 -264.246,127.68 -283.038,134.858C-287.054,137.417 -288.66,142.385 -294.873,142.747C-289.729,69.893 -246.919,23.134 -193.295,-7.154C-155.339,-21.408 -104.301,-27.613 -71.007,-12.085C-45.299,-0.095 -18.354,19.151 -2.959,40.183C-0.262,53.178 9.234,64.633 12.819,75.686C18.722,93.877 -2.312,96.163 0,115.134" style="fill:rgb(255,26,0);"/>
        </g>
        <g transform="matrix(1,0,0,1,191.322,414.794)">
            <path d="M0,-52.862C1.698,-38.01 1.569,-16.451 0,-1.58C-7.303,0 -20.311,0 -27.614,-1.58C-27.536,-23.925 -12.179,-39.349 0,-52.862" style="fill:rgb(255,26,0);"/>
        </g>
        <g transform="matrix(-0.907317,-0.420448,-0.420448,0.907317,877.371,458.506)">
            <path d="M-6.888,-42.241C-16.051,-29.506 -32.575,-28.03 -38.205,-12.189C-31.197,-8.623 -16.838,-2.516 -6.888,2.323C4.408,-9.257 18.429,-17.537 23.12,-27.249C13.414,-29.313 4.484,-35.627 -6.888,-42.241" style="fill:rgb(255,26,0);"/>
        </g>
        <g transform="matrix(0.881496,0.472191,0.472191,-0.881496,921.966,455.482)">
            <path d="M9.925,-1.553C2.582,8.7 -6.803,12.196 -16.155,15.803C-17.894,27.803 6.13,21.813 9.925,29.773C17.181,30.266 27.664,29.679 30.819,24.183C36.524,14.247 20.936,3.188 9.925,-1.553" style="fill:rgb(255,26,0);"/>
        </g>
        <g transform="matrix(0.40082,0.916157,0.916157,-0.40082,763.06,429.08)">
            <path d="M22.554,-17.126C16.443,-9.207 4.927,2.335 7.251,14.328C8.923,22.959 15.661,36.055 22.554,34.543C29.57,33.005 35.775,9.531 36.671,0.379C37.724,-10.383 33.594,-18.053 22.554,-17.126"/>
        </g>
        <g transform="matrix(-0.74859,-0.663033,-0.663033,0.74859,402.153,464.118)">
            <path d="M0.411,-43.922C-18.171,-44.553 -30.159,-20.293 -24.5,-5.385C-16.115,-1.528 -8.091,-3.612 0.411,2.187C-2.455,-8.893 -1.821,-23.737 13.13,-30.021C12.564,-34.878 5.007,-39.31 0.411,-43.922" style="fill:rgb(255,26,0);"/>
        </g>
        <g transform="matrix(1,0,0,1,452.663,480.275)">
            <path d="M0,-34.517C6.539,-31.194 11.76,-26.553 11.834,-16.766C-0.019,-15.469 -1.006,-3.307 -10.848,0C-11.001,-2.783 -8.061,-2.472 -6.903,-3.945C-9.564,-5.288 -10.731,-7.419 -13.807,-5.917C-7.545,-13.791 -1.952,-22.333 0,-34.517" style="fill:rgb(255,26,0);"/>
        </g>
        <g transform="matrix(1,0,0,1,320.513,534.18)">
            <path d="M0,-67.711C-21.859,-53.739 -46.128,-42.176 -43.393,-3.608C-55.916,0.604 -73.48,5.249 -92.702,2.309C-92.325,-2.573 -88.133,-3.643 -83.826,-4.595C-75.398,-13.59 -63.824,-19.438 -59.172,-32.208C-55.571,-32.224 -54.743,-35.011 -52.268,-36.153C-48.762,-45.138 -45.397,-54.266 -41.42,-62.78C-30.017,-69.866 -14.218,-72.96 0,-67.711" style="fill:rgb(255,26,0);"/>
        </g>
        <g transform="matrix(1,0,0,1,357.002,522.711)">
            <path d="M0,46.322C38.976,54.627 38.05,-21.937 0,-11.864C-22.25,-5.973 -25.108,40.971 0,46.322M-1.972,-46.381C34.234,-49.581 64.369,-33.979 74.951,-8.906C80.607,4.497 81.916,23.23 75.937,39.419C55.075,95.903 -42.072,89.23 -63.116,43.363C-69.466,29.524 -71.596,10.388 -64.103,-7.919C-55.76,-28.3 -36.499,-43.329 -1.972,-46.381"/>
        </g>
        <g transform="matrix(1,0,0,1,557.199,547.904)">
            <path d="M0,-14.375C8.698,-15.538 14.474,-19.625 17.752,-26.208C25.825,-21.911 23.933,-34.55 31.559,-31.141C39.928,-43.152 58.354,-45.105 67.061,-56.781C72.882,-52.642 74.292,-57.727 77.909,-60.726C84.022,-58.1 91.018,-63.66 98.619,-66.643C121.924,-56.098 120.315,-29.649 120.315,6.335C120.315,17.789 122.812,33.14 120.315,41.839C116.081,56.601 74.167,56.293 70.021,41.839C63.317,18.472 81.127,-29.169 57.199,-33.112C34.743,-36.814 36.489,-8.343 36.489,13.238C36.489,27.444 39.929,47.885 26.627,51.7C14.503,55.179 -10.583,53.074 -13.807,41.839C-20.122,19.82 -2.096,-32.397 -28.6,-34.099C-47.816,-35.331 -47.337,-8.26 -47.337,13.238C-47.337,21.105 -44.688,32.606 -47.337,41.839C-51.023,54.687 -92.907,58.313 -97.633,41.839C-100.956,30.255 -97.633,4.413 -97.633,-9.444C-97.633,-26.061 -100.583,-49.456 -97.633,-59.739C-94.144,-71.903 -71.842,-71.39 -63.116,-69.602C-56.498,-68.245 -52.345,-61.162 -43.393,-61.712C-32.67,-62.371 -25.467,-72.087 -9.861,-72.561C-5.62,-72.688 -0.744,-71.616 4.931,-71.574C-1.689,-55.785 -3.015,-35.123 0,-14.375"/>
        </g>
        <g transform="matrix(1,0,0,1,761.342,529.465)">
            <path d="M0,22.803C-9.256,27.763 -12.197,42.054 -0.986,45.485C20.036,51.92 42.207,18.601 19.724,17.872C12.485,17.637 3.594,20.876 0,22.803M-55.228,-23.549C-46.899,-46.405 -25.32,-52.331 -0.986,-54.121C29.926,-56.394 65.168,-51.843 75.937,-29.465C83.889,-12.94 78.392,20.308 79.881,42.527C80.517,51.991 84.604,60.658 79.881,66.195C74.852,72.09 57.976,71.871 48.323,70.14C40.985,68.824 36.546,63.287 29.586,63.237C22.522,63.185 18.072,68.188 11.834,70.14C-17.11,79.197 -56.144,70.326 -61.145,45.485C-63.728,32.649 -58.896,22.39 -54.24,16.886C-45.817,6.927 -33.784,4.45 -13.808,0.12C-2.428,-2.346 27.676,-4.141 26.628,-16.645C25.839,-26.048 11.967,-25.232 3.944,-22.562C-5.455,-19.434 -9.687,-12.845 -16.766,-11.715C-31.769,-9.316 -50.982,-13.228 -55.228,-23.549"/>
        </g>
        <g transform="matrix(1,0,0,1,938.856,563.197)">
            <path d="M0,-49.391C-13.813,-40.315 -16.5,-33.046 -17.752,-15.86C-18.702,-2.794 -13.017,19.438 -19.724,30.491C-25.197,39.509 -60.478,39.715 -66.075,30.491C-71.987,20.749 -68.047,-12.227 -68.047,-24.737C-68.047,-38.951 -71.684,-76.788 -62.13,-82.921C-56.756,-86.372 -42.096,-86.531 -33.531,-84.894C-26.326,-83.517 -22.319,-78.855 -16.766,-78.977C-10.665,-79.111 -7.119,-85.168 1.973,-86.866C13.962,-89.106 27.603,-86.707 29.585,-77.005C32.021,-65.089 18.233,-44.651 0,-49.391"/>
        </g>
        <g transform="matrix(-0.728206,0.685358,0.685358,0.728206,201.482,574.372)">
            <path d="M15.779,-39.789C12.063,-30.134 8.255,-20.482 2.345,-10.893C6.528,-5.185 15.973,0.682 15.779,6.258C22.734,-1.211 25.335,-14.844 29.973,-24.707L15.779,-39.789Z" style="fill:rgb(255,26,0);"/>
        </g>
        <g transform="matrix(1,0,0,1,271.204,669.784)">
            <path d="M0,-74.125C12.372,-69.854 25.083,-68.419 36.489,-64.262C42.808,-61.96 47.486,-58.278 53.254,-56.373C63.496,-52.989 73.478,-53.893 87.771,-52.429C111.604,-49.986 134.953,-42.58 158.777,-39.607C232.694,-30.382 309.723,-24.476 393.491,-24.814C446.323,-25.029 499.557,-28.975 551.282,-33.69C576.97,-36.032 602.893,-39.813 627.219,-45.524C661.005,-53.459 692.091,-60.515 728.796,-52.429C721.737,-37.187 702.07,-38.725 688.363,-36.649C644.893,-30.066 595.894,-19.266 545.365,-13.967C479.157,-7.023 406.972,0 340.237,-0.16C201.695,-0.492 64.218,-22.915 -43.393,-64.262C-28.219,-66.841 -5.214,-61.586 0,-74.125" style="fill:rgb(255,26,0);"/>
        </g>
        <g transform="matrix(1,0,0,1,0,526.627)">
            <path d="M0,-65.089C24.697,-50.666 51.409,-29.713 77.91,-13.807L77.91,0C48.816,-18.573 23.756,-41.178 0,-65.089" style="fill:rgb(255,26,0);"/>
        </g>
    </g>
</svg>
