<svg xmlns="http://www.w3.org/2000/svg" viewBox="0 0 1024 339.58"><defs><style>.cls-1{fill:#f14717;}.cls-2{fill:#ffecec;}.cls-3{fill:#0c50be;}.cls-4{fill:#ddecff;}</style></defs><title>vikwiki</title><g id="Layer_2" data-name="Layer 2"><g id="svg826"><g id="layer1"><g id="g1489"><path id="rect826" class="cls-1" d="M452.41,7.51h99s-3.32,108.72-3.32,163.08,3.32,163.08,3.32,163.08h-99s3.33-108.72,3.33-163.08S452.41,7.51,452.41,7.51Z"/><path class="cls-2" d="M551.43,339.18h-99l-5.5-5.68c0-1.08,3.32-109.25,3.32-162.91S446.94,8.77,446.91,7.68L452.41,2h99l5.5,5.67c0,1.09-3.32,109.26-3.32,162.91s3.29,161.83,3.32,162.91Zm-93.34-11h87.67c-.68-23.1-3.16-110.87-3.16-157.58S545.08,36.11,545.76,13H458.09c.68,23.22,3.16,110.35,3.16,157.57C461.25,217.3,458.77,305.07,458.09,328.17Z"/><path id="path833" class="cls-1" d="M593.48,7.51h99s-7,119.84-2.22,122.13c27.31,13.12,82.48-40.95,98.31-122.13h87.56c0,45.64-46.68,139.23-87.56,162.84,26.86,26.85,87.56,111.33,87.56,163.32H788.58C728.89,208.46,694.06,198,690.84,211.92c-1.47,6.33,1.65,121.75,1.65,121.75h-99S596.8,225,596.8,170.59,593.48,7.51,593.48,7.51Z"/><path class="cls-2" d="M876.14,339.18H788.58l-5-3.14c-28.14-59-49.22-89.1-62-103.93-15.44-18-23.86-19.86-25.32-19.37a1.52,1.52,0,0,0-.12.34c-.91,6.3.61,77.12,1.78,120.44l-5.51,5.66h-99L588,333.5c0-1.08,3.32-109.25,3.32-162.91S588,8.77,588,7.68L593.48,2h99L698,7.83c-2.91,49.81-5,105.85-3.34,117.62,6.19,1.86,13.35-.62,18.48-3.19,26.14-13.13,58.6-57.12,70-115.8L788.58,2h87.56l5.5,5.5c0,22.63-11.14,58-29.07,92.23-17.24,32.93-37.11,58.53-55.42,71.61,27.74,30.25,84.49,110.6,84.49,162.32Zm-84.09-11h78.34c-4-48.19-57.63-125.86-85.7-153.93l1.14-8.66C823.54,143.8,866.93,58,870.41,13H793.08c-13.41,62.65-48,105.51-75,119.08-11.33,5.68-21.76,6.55-30.18,2.51-3.75-1.8-4.76-5.12-4.79-25,0-10.3.32-24.46,1-42.09.84-22.11,2-44.27,2.58-54.49H599.15c.68,23.09,3.16,110.86,3.16,157.57s-2.48,134.48-3.16,157.58h87.69c-.85-32.2-2.78-111.38-1.37-117.49a11.05,11.05,0,0,1,9.87-8.91C716.79,199.42,752.83,246.6,792.05,328.17Z"/><path id="path843" class="cls-3" d="M5.5,6h91V127.2l36,84.85,36-84.85V6h88.32V127.2L168.55,333.67h-72L8.21,127.2Z"/><path class="cls-4" d="M168.55,339.18h-72l-5.06-3.34L3.15,129.37l-.44-2L0,6.07,5.51.44h91L102,6V126.08L132.54,198,163,126.08V6l5.5-5.51h88.32L262.37,6V127.2l-.44,2.17L173.61,335.84Zm-68.38-11h64.74l86.45-202.1V11.45H174.05V127.2l-.44,2.15-36,84.85H127.47l-36-84.85L91,127.2V11.45H11.14L13.69,126Z"/><path id="path841" class="cls-1" d="M165.84,6h91V127.2l36,84.85,36-84.85V6H417.2V127.2L328.88,333.67h-72L168.54,127.2Z"/><path id="path845" class="cls-2" d="M165.85,0l-6,6.1,2.72,121.22.47,2.21,6.31,10.8,5-11.77-2.52-116.7h79V127.18l.52,2.33,35.95,84.83h10.88l36-84.83.44-2.33V11.86h76.53V126L325,327.72H260.77L212.67,215.3l-6.44,15L251.45,336l5.43,3.57h72l5.46-3.57,88.3-206.48.53-2.35V6l-6-6H328.87L323,6V126L292.85,196.9,262.78,126V6l-5.9-6Z"/><path id="path853" class="cls-3" d="M919.48,7.51h99s-3.33,108.72-3.33,163.08,3.33,163.08,3.33,163.08h-99s3.33-108.72,3.33-163.08S919.48,7.51,919.48,7.51Z"/><path class="cls-4" d="M1018.5,339.18h-99L914,333.5c0-1.08,3.32-109.25,3.32-162.91S914,8.77,914,7.68L919.48,2h99l5.5,5.67c0,1.09-3.32,109.26-3.32,162.91S1024,332.42,1024,333.5Zm-93.35-11h87.67c-.67-23.1-3.15-110.87-3.15-157.58s2.48-134.48,3.15-157.57H925.15c.69,23.22,3.16,110.35,3.16,157.57C928.31,217.3,925.83,305.07,925.15,328.17Z"/></g></g></g></g></svg>