<?xml version="1.0" encoding="utf-8"?>
<!-- Generator: Adobe Illustrator 24.0.1, SVG Export Plug-In . SVG Version: 6.00 Build 0)  -->
<svg version="1.1" id="Szakest_xA0_Image_1_" xmlns="http://www.w3.org/2000/svg" xmlns:xlink="http://www.w3.org/1999/xlink"
	 x="0px" y="0px" viewBox="0 0 246.5 251" style="enable-background:new 0 0 246.5 251;" xml:space="preserve">
<style type="text/css">
	.st0{fill:#FDFDFD;}
	.st1{fill:#050505;}
	.st2{fill:#0F0F0F;}
	.st3{fill:#060606;}
	.st4{fill:#FAFAFA;}
	.st5{fill:#FBFBFB;}
	.st6{fill:#F9F9F9;}
	.st7{fill:#F7F7F7;}
	.st8{fill:#F5F5F5;}
	.st9{fill:#E0E0E0;}
	.st10{fill:#0B0B0B;}
	.st11{fill:#1A1A1A;}
</style>
<g>
	<path class="st0" d="M0,250.8c0-83.5,0-167,0-250.5c82.2,0,164.3,0,246.5,0c0,83.5,0,167,0,250.5C164.3,250.8,82.2,250.8,0,250.8z
		 M175.4,79.3C175.4,79.3,175.3,79.3,175.4,79.3c0.2,0.2,0.3,0.4,0.5,0.6c0.3,0.3,0.6,0.6,0.9,0.9c0.2,0.2,0.4,0.3,0.6,0.5l0,0
		c1.3,1.1,2.5,2.2,3.8,3.4l0,0c0.4,0.4,0.8,0.7,1.2,1.1c0.1,0.1,0.2,0.2,0.3,0.2c0.1,0,0.1,0.1,0.2,0.1c0.1,0.1,0.2,0.2,0.3,0.2
		c0.7,0.6,1.5,1.3,2.2,1.9l0,0c0.2,0.2,0.3,0.3,0.5,0.5c0.4,0.3,0.7,0.6,1.1,1c0.3,0.2,0.5,0.5,0.8,0.7l0,0c0.2,0.2,0.3,0.3,0.5,0.5
		c0.3,0.2,0.6,0.5,0.9,0.7c0.3,0.2,0.5,0.5,0.8,0.7c0.3,0.2,0.5,0.5,0.8,0.7c0.7,0.6,1.4,1.2,2.1,1.8c0.2,0.2,0.5,0.4,0.7,0.6
		c0.7,0.6,1.4,1.3,2.2,1.9l0,0c0.3,0.3,0.6,0.6,0.9,0.8c0,0.1,0.1,0.1,0.2,0.1c0.2,0.2,0.4,0.3,0.6,0.5l0,0c0.2,0.2,0.3,0.3,0.5,0.5
		l0.1,0.1c0.6,0.5,1.2,1.1,1.8,1.6c0.1,0.1,0.2,0.1,0.2,0.2c0.4,0.3,0.8,0.7,1.2,1c0.1,0.1,0.1,0.1,0.2,0.2c0.2,0.2,0.4,0.3,0.5,0.5
		c0.2,0.1,0.3,0.3,0.5,0.4c0.2,0.2,0.4,0.4,0.6,0.6l0,0c0.3,0.3,0.7,0.6,1,0.9c0.5,0.5,1.1,1,1.6,1.4c0.3,0.2,0.5,0.5,0.8,0.7
		c0.1,0.1,0.2,0.2,0.3,0.2c0.2,0.2,0.4,0.4,0.7,0.6c0.2,0.1,0.3,0.3,0.5,0.4c0.2,0.2,0.3,0.3,0.5,0.5c0.8,0.7,1.7,1.5,2.5,2.2
		c0.2,0.2,0.4,0.3,0.6,0.5c0.7,0.6,1.4,1.2,2.1,1.8c0.3,0.2,0.5,0.5,0.8,0.7c0.3,0.3,0.6,0.5,0.9,0.8c0,0,0,0,0,0
		c0.3,0.2,0.5,0.5,0.8,0.7c0.1,0.1,0.1,0.1,0.2,0.2c0.3,0.3,0.7,0.6,1,0.8c0.1,0.1,0.1,0.1,0.2,0.2c0.3,0.3,0.7,0.6,1,0.9
		c0.2,0.1,0.3,0.3,0.5,0.4c0.1,0.1,0.3,0.2,0.4,0.4c0.1,0.1,0.2,0.2,0.3,0.2c0.2,0.2,0.5,0.5,0.7,0.7c0.3,0.2,0.6,0.5,0.9,0.7
		c0.5,0.4,1,0.9,1.4,1.3c0,0,0,0,0.1-0.1c0,0,0,0-0.1,0.1c0.4,0.4,0.9,0.7,1.3,1.1l0.1,0c0.5,0.4,0.9,0.8,1.4,1.2
		c0.1,0.1,0.1,0.1,0.2,0.2c0.8,0.7,1.6,1.5,2.5,2.3c0.3-0.6,0.5-1,0.7-1.4c0.3-0.6,0.7-1.3,1-1.9c-0.3-0.6-0.7-1.1-1-1.7
		c-0.1-0.1-0.1-0.2-0.2-0.3c-0.2-0.4-0.5-0.7-0.7-1.1c-0.3-0.4-0.5-0.7-0.8-1.1c-0.3-0.4-0.6-0.8-0.9-1.2c-0.3-0.4-0.5-0.8-0.8-1.1
		c-0.3-0.4-0.6-0.9-0.9-1.3c0-0.1-0.1-0.1-0.1-0.2c-0.3-0.5-0.7-0.9-1-1.4c-0.6-0.9-1.2-1.7-1.8-2.6c-0.2-0.3-0.4-0.6-0.6-0.9
		l-0.1-0.1c-0.2-0.3-0.5-0.7-0.7-1c-0.3-0.4-0.5-0.7-0.8-1.1c-0.6-0.9-1.2-1.8-1.9-2.6c-0.5-0.7-1-1.4-1.5-2.1
		c-0.4-0.5-0.7-1.1-1.1-1.6c-0.1-0.1-0.1-0.3-0.2-0.4c-5.6-8-11.2-16-16.8-24c-0.5-0.7-1-1.5-1.7-2.4c8,1.2,15.7,2.4,23.5,3.6
		c0.1-1.1,0.1-2.1,0.3-3.1c0.2-1.1,0-2.1-0.6-3c-2-3.3-4-6.6-6-9.9c-9-15-17.9-29.9-27-44.8c-1.5-2.5-3.3-4.8-5-7.1
		c-0.2-0.3-0.7-0.6-1-0.6c-2.8,0.2-3.9,3-3.3,5.1c3.6,12.5,7.1,25,10.6,37.5c0.1,0.5,0.2,0.9,0.4,1.5c-0.4,0-0.6-0.1-0.8-0.1
		c-5.5-0.8-11.1-1.5-16.6-2.4c-4.5-0.7-9.1-1.5-13.6-2.5c-4.6-1-9.2-1.9-13.9-2.1c-0.4,0-0.8,0-1.1,0.3c-1.3,1.2-1.3,1.8-0.2,3.2
		c0.4,0.5,0.8,1,1.2,1.5c1.4,2,3.1,3.6,5.3,4.8c1.2,0.6,2,2,2.9,3c-1.9,1.7-1.9,1.8-4,1.9c-1.4,0-2.9,0-4.2-0.4
		c-2.6-0.7-5-1.7-6.4-4.3c-2.7-4.9-6.2-9.1-11.5-11.4c-0.9-0.4-1.7-1.1-2.6-1.5c-0.9-0.5-1.7-1-2.7-1.2c-3.3-0.9-6.7-1.8-10-2.7
		c-0.6-0.2-1.3-0.6-1.7-1.1c-1.6-1.9-3.1-4-4.6-5.9c-0.3-0.4-0.7-0.7-1.1-0.9c-2-0.6-3.2-2-4-3.8c-0.3-0.6-0.7-1.3-1.1-1.9
		c-0.2-0.3-0.5-0.6-0.8-0.8c-2.9-1.5-5.7-3-8.6-4.4c-0.4-0.2-0.9-0.3-1.4-0.2c-2.7,0.3-5.4,0.7-8.2,0.9c-0.7,0.1-1.4-0.2-2.1-0.4
		c-0.8-0.2-1.5-0.9-2.3-0.8c-3,0.1-5.9-0.4-8.8-1.2c-0.6-0.2-1.4-0.1-2.1,0c-2.1,0.5-4.1,1.1-6.2,1.7c-4.2,1.2-8.2,2.4-11.5,5.7
		c-3,3-5.7,5.9-6.6,10.1c-0.4,1.8-1,3.6-1,5.3c-0.1,2.9,0.1,5.7,0.1,8.6c0,0.7-0.2,1.5-0.4,2.2c-0.6,2.2-1.4,4.3-1.1,6.6
		c0.9,7.1-0.4,14.1-0.4,21.2c-0.2,0-0.3,0-0.4,0c-3.2-1.5-6.2-3.2-8.5-6c-0.2-0.3-0.6-0.6-0.8-0.6c-0.6,0.1-1.5,0.3-1.7,0.7
		c-0.4,0.8-1,1.7-0.2,2.7c1,1.2,1.8,2.5,2.7,3.8c1.9,2.8,3.2,5.9,5.9,8.2c3.1,2.7,6.1,5.5,10.2,6.7c0.9,0.3,1.7,0.9,2.6,1.2
		c1.2,0.4,2.5,0.9,3.7,1.1c1.5,0.3,3,0.4,4.5,0.6c3.2,0.5,3.7,2.7,2.4,5.2c-0.7,1.4-1.4,2.7-2.2,4.1c-0.2,0.4-0.6,0.7-1,0.8
		c-1,0.4-2,0.3-3-0.1c-1.4-0.5-2.8-1-4.2-1.2c-3-0.3-5.9-0.4-8.9-0.5c-0.6,0-1.3-0.1-1.9,0.1c-3.1,1.3-6.6,1.8-9.3,4
		c-4,3.1-7.3,6.9-9.6,11.5c-0.1,0.2-0.2,0.6-0.1,0.8c1.9,3.5,3.1,7.5,5.7,10.7c2.2,2.6,4.4,5.3,6.6,8c0.3,0.4,0.6,0.9,0.7,1.4
		c0.6,2.8,0.8,5.7,0.2,8.5c-0.3,1.2-0.6,2.6-0.3,3.8c0.6,3.5,1.5,7,2.2,10.5c0.1,0.7,0.5,1,1.2,1c1.4,0,2.6,0.7,3.6,1.6
		c1.5,1.3,3.1,2.2,5.1,2.1c0.3,0,0.6,0.1,0.8,0.2c1.7,1,3.5,1.1,5.4,1c0.4,0,1,0.3,1.3,0.6c1.2,1.4,2.1,2.9,3.4,4.2
		c1.8,1.8,3.6,3.4,6.3,3.8c3.7,0.6,7.3,1.3,10.9,1.9c1.8,0.3,2.8,1.5,2.8,3.3c-0.1,4.1-0.1,8.1-0.2,12.2c0,0.4,0,0.9,0.2,1.3
		c1.4,3.5,1.7,7.2,1.4,10.9c-0.1,0.8-0.2,1.7-0.5,2.4c-2.5,5.8-5.1,11.5-7.6,17.2c-0.1,0.3-0.3,0.8-0.2,1c0.7,1.1,1.3,2.3,2.2,3.2
		c0.4,0.4,1.4,0.2,2.2,0.2c0.7,0,1.4,0,2.1,0c0.8,0.1,1.4-0.2,2-0.8c8.8-9.3,18-18.2,27.7-26.6c0.9-0.8,0.8-1.9,0.6-2.8
		c-0.3-1.2-1-1.3-1.8-0.3c-0.2,0.2-0.4,0.5-0.6,0.7c-1.5,2.4-3.7,3.6-6.6,3.2c-0.9-0.1-1.3,0.3-1.5,1.1c-0.3,0.8-0.5,1.6-1,2.3
		c-2.1,3-4.8,5.6-7.6,8c-3,2.5-6.4,4.5-8.9,7.6c-0.6,0.7-1.3,1.2-2,1.8c-0.1-0.1-0.2-0.2-0.4-0.3c1.1-1.3,2-2.8,3.3-4
		c1.2-1.1,2-2.3,2.6-3.8c1.7-3.9,3.6-7.7,5.4-11.5c0.7-1.6,1.6-2.1,3.4-2c1.4,0.1,2.9,0.2,4.5,0.3c0.1-0.2,0.2-0.5,0.4-0.9
		c-0.7-0.4-1.3-0.7-2-1c-1.3-0.5-2.1-1.4-2.6-2.6c-0.8-1.7-0.4-2.9,1.3-3.7c1.6-0.7,3.3-1.5,4.9-2.2c2.5-1.1,5-2.1,7.4-3.3
		c2.9-1.4,6.3,1.3,6.5,4c0,0.6,0.1,1.2,0.1,1.8c0,0.9,0.3,1.5,1.3,1.5c0.9,0,1.7,0.2,2.6,0.3c2,0.4,2.6,2.2,1.4,3.9
		c-0.7,1-1.3,2.2-1.8,3.3c-0.7,1.7-1.5,3.4-2,5.2c-0.4,1.7-0.5,3.4-0.5,5.2c0,0.6,0.5,1.3,1,1.8c0.7,0.8,1.7,1.4,2.3,2.2
		c1.5,2.1,3.3,3.9,5.5,5.3c1.2,0.8,2.2,2.1,3.4,3c0.7,0.5,1.7,1,2.5,1.1c0.7,0,1.8-0.5,2-1c0.6-1.6,0.9-3.3,1.2-4.9
		c0.4-2.6,0-5-1.1-7.4c-0.8-1.9-1.2-3.9-0.1-5.8c1.8-3.2,4.9-5,7.5-7.4c0.2-0.1,0.4-0.2,0.7-0.2c2.5-0.2,3.2-2.3,4.3-4
		c0.2-0.3,0.1-1.2-0.1-1.3c-0.5-0.3-1.3-0.5-1.8-0.3c-1.5,0.8-3,1.7-4.5,2.6c-1.6,1-3,0.5-4.4-0.3c-1.3-0.7-1.7-2.1-1.7-3.6
		c0-0.6,0.3-1,1.1-1.2c1-0.2,2-0.5,2.9-0.9c0.6-0.2,1.3-0.7,0.9-1.4c-0.2-0.5-1-0.9-1.5-0.9c-2.7-0.1-5.5-0.1-8.2-0.1
		c-2.9,0-5.9,0.3-8.8,0.2c-2-0.1-3.8-1.1-5.1-2.8c-0.5-0.7-0.5-1.4,0.4-1.7c0.8-0.3,1.6-0.7,2.5-0.8c2.1-0.3,4.2-0.4,6.3-0.6
		c0-0.1,0-0.2,0.1-0.3c-1.2-0.3-2.5-0.6-3.7-0.9c-1.3-0.3-2.7-0.5-4-1c-1.3-0.5-1.6-1.4-1.1-2.8c0.3-0.9,0.6-1.8,0.8-2.7
		c0.8-4.1,1.6-8.2,0.9-12.4c0-0.3,0-0.6,0.1-0.9c0.2-2,0.8-2.2,2.5-1.2c1.6,0.9,2.5,2.5,3.7,3.8c1.5,1.7,3.2,3.4,5,4.9
		c0.4,0.3,1.6,0.3,2,0c0.7-0.6-0.2-1-0.7-1.4c-2.1-2.1-4.2-4.3-6.3-6.5c-0.5-0.6-0.9-1.3-1.4-1.9c-0.4-0.5-0.8-1.2-1.3-1.5
		c-1.4-0.6-1.9-1.7-2.3-2.9c-1.8-5.4-3.5-10.8-5.2-16.2c-0.2-0.5,0-1.4,0.4-1.7c0.5-0.4,1.5-0.6,2-0.3c0.9,0.4,1.6,1.1,2.3,1.9
		c1.6,1.9,3,4,4.6,5.9c0.3,0.4,0.7,0.8,1.2,0.9c2.7,0.4,5.2,0.3,7-2.2c0.6-0.9,1.3-1.7,2.2-2.3c1.9-1.5,3.3-0.4,4,1.3
		c0.2,0.4,0.3,0.8,0.3,1.3c0,3.6,0.1,7.2-0.1,10.8c-0.1,1.7-0.7,3.3-1.2,5c-0.5,2,0.1,2.9,2.1,3c0.4,0,0.9,0,1.3,0
		c1.4,0,2.7,0.3,3.7,1.4c0.4,0.4,0.9,0.6,1.4,0.8c0.9,0.3,2.3-1.1,2.2-1.9c-0.2-1.6-0.5-3.1-0.6-4.7c-0.1-1.3,0-2.5,0.1-3.8
		c0.1-1.7-0.2-3.3-1.5-4.6c-0.4-0.4-0.8-1-1.2-1.5c1.5-0.4,2.7,0,3.6,1.1c1.1,1.2,1.3,2.7,1.6,4.1c0.3,1.7,1.6,3,2.8,2.7
		c2.2-0.5,4.2-3.4,3.7-5.6c-0.3-1.2-1.2-2.4-2-3.4c-0.9-1.1-2.2-1.9-3.1-2.9c-1.6-1.8-2.5-4-3-6.4c-0.2-0.9,0.2-1.3,1-1.5
		c0.8-0.2,1.7-0.2,2.5-0.3c1.4-0.1,1.9-0.7,1.8-2c-0.1-2.6-1.6-6.3-4.8-7.1c-1.4-0.3-2.1-1.5-2.5-2.9c-0.5-2.4,0.3-4.5,1.4-6.5
		c0.6-1.1,1.7-1.4,2.5-0.4c2,2.2,4.1,4.5,5.7,7c2.4,3.8,4.6,7.8,6.7,11.8c1,2,1.8,4.1,1.8,6.5c0,1.8,0.2,3.7,0.1,5.5
		c0,2.3,0,4.5-0.3,6.8c-0.2,1.3-1.1,2.4-1.4,3.7c-1,3.3-3,5.9-5.4,8.1c-1.1,1-2.1,1.9-3.2,2.9c1.1,1.3,1.6,1.4,2.9,0.7
		c2.5-1.3,4.2-3.3,5.7-5.6c0.7-1.1,1.3-2.2,2-3.2c0.4-0.5,1.1-0.6,1.6-1c0.3,0.5,0.8,1.1,0.8,1.6c-0.3,3.4-1.5,6.4-4.4,8.4
		c-1,0.7-2.1,1.4-3.1,2.2c-0.6,0.6-1.2,1.3-1.5,2.1c-0.4,1.1,0,1.6,1.2,1.5c0.5,0,1-0.1,1.9-0.2c-0.7,0.9-1.3,1.6-1.8,2.3
		c-0.6,0.8-1.1,1.7-1.7,2.5c-0.6,0.8-1.1,1.7-1.9,2.2c-1.4,1-3,1.8-4.4,2.8c-0.7,0.5-1.3,1.3-1.8,2c-0.2,0.2-0.1,0.6,0,0.9
		c0.1,0.7,0.4,1.4,0.3,2c-0.3,1.5-0.1,2.1,1.4,2.3c1.5,0.2,3.1,0.1,4.6,0c0.5,0,1.1-0.3,1.6-0.6c1.8-1.4,3.5-3,5.3-4.4
		c4.4-3.3,7.7-7.6,9.6-12.7c3.4-9.1,6.1-18.5,6.7-28.3c0.4-7.4-0.6-14.7-2.9-21.7c-0.8-2.5-1.7-5-2.7-7.4c-0.6-1.5-0.1-2.6,0.8-3.7
		c2.1-2.4,4.1-4.8,6.4-7.1c3.5-3.5,6.3-7.4,7.3-12.4c0.1-0.3,0.2-0.6,0.3-0.9c0.1-0.9,0.7-1.2,1.5-1.3c3.1-0.5,6.1-1.1,9.4-1.7
		c-0.9-0.8-1.1-1.9-2.4-1.7c-3.5,0.4-7,0.5-10.4-0.3c-1.1-0.2-1.8,1-1.6,2.1c0.3,1.6,0.4,3.2,0.4,4.8c0,0.7-0.3,1.7-1.2,1.6
		c-0.7,0-1.4-0.5-1.9-0.9c-0.3-0.3-0.5-0.8-0.6-1.2c-0.9-2.4-1.9-4.8-3.9-6.6c-1-0.9-1.9-1.9-2.8-2.9c-1.8-1.9-1.8-4-0.1-5.8
		c0.2-0.2,0.4-0.5,0.5-0.8c0.4-0.8,0-1.6-0.9-1.4c-1,0.2-1.9,0.8-2.8,1.3c-2.1,1.3-4,2.7-6.1,4.1c-0.2,0.1-0.5,0.1-0.7,0.1
		c-1.4,0.3-2.9,0.5-4.3,1c-1.9,0.7-2.9,0.5-4.2-1c-0.3-0.3-0.7-0.8-1.1-0.8c-2-0.5-3-2-3.7-3.7c-0.9-2.2,0.2-3.5,2.5-3.5
		c1.5,0,3-0.1,4.5-0.4c1.7-0.3,3.4-0.9,5-1.4c1.5-0.4,2.8-1,3.7-2.4c1.3-2,2.6-3.9,4-5.8c1.1-1.7,3.1-1.7,4.6-0.3
		c1.5,1.5,1.5,3.3,1.6,5.2c0,0.7,0.2,1.4,0.3,2.1c0.2,0.8,0.7,1.5,0.7,2.3c0.2,1.9,0.3,3.9,0.3,5.8c0.1,3.1,2.5,5,5.5,4
		c3-1,3.5-3.2,1.5-5.6c-1.2-1.4-2.4-3-3.5-4.5c-0.6-0.8-0.8-1.6-0.1-2.5c0.3-0.1,0.6-0.2,0.9-0.4c0.5,0.3,0.9,0.5,1.4,0.8
		c0.4,0.4,0.8,0.8,1.2,1.2c0.1,0.1,0.2,0.2,0.2,0.2C175,78.9,175.2,79.1,175.4,79.3z"/>
	<path class="st1" d="M228.2,120.5c0.1,0.1,0.1,0.2,0.2,0.3c-0.6,1-0.3,1.4,1,1.7c-0.3,0.6-0.7,1.3-1,1.9c-1.8,0-1.8,0-1.5-1.4
		c-0.6,0.2-1.1,0.3-1.7,0.4c-0.1-0.1-0.1-0.1-0.2-0.2c-0.1-0.8-0.3-1.5-1.4-1.2l-0.1,0c0-0.9-0.5-1.2-1.3-1.1c0,0,0,0,0.1-0.1
		c0,0,0,0-0.1,0.1c0.4-1.5-0.5-1.3-1.4-1.3c-0.3-0.2-0.6-0.5-0.9-0.7c-0.2-0.2-0.5-0.5-0.7-0.7c-0.1-0.1-0.2-0.2-0.3-0.2
		c0-0.2,0.1-0.4,0.1-0.6c-0.2,0.1-0.4,0.2-0.6,0.3c-0.2-0.1-0.3-0.3-0.5-0.4c0.1-0.8-0.3-1-1-0.9c-0.1-0.1-0.1-0.1-0.2-0.2
		c0-0.3,0-0.6-0.1-0.9c-0.3,0-0.6,0-0.9,0.1c-0.1-0.1-0.1-0.1-0.2-0.2c-0.3-0.2-0.5-0.5-0.8-0.7c0,0,0,0,0,0
		c-0.1-0.4-0.3-0.8-0.4-1.2c-0.3-0.3-0.5-0.6-0.8-0.9c-0.2,0.2-0.3,0.4-0.5,0.7c-0.7-0.6-1.4-1.2-2.1-1.8c-0.2-0.2-0.4-0.3-0.6-0.5
		c-0.8-0.7-1.7-1.5-2.5-2.2c-0.2-0.2-0.3-0.3-0.5-0.5c-0.2-0.1-0.3-0.3-0.5-0.4c-0.2-0.2-0.4-0.4-0.7-0.6c-0.1-0.1-0.2-0.2-0.3-0.2
		c-0.3-0.2-0.5-0.5-0.8-0.7c-0.5-0.5-1.1-1-1.6-1.4c-0.3-0.3-0.7-0.6-1-0.9c0,0,0,0,0,0c-0.2-0.2-0.4-0.4-0.6-0.6
		c-0.2-0.1-0.3-0.3-0.5-0.4c-0.2-0.2-0.4-0.3-0.5-0.5c-0.1-0.1-0.1-0.1-0.2-0.2c0-0.8-0.4-1.1-1.2-1c-0.1-0.1-0.2-0.1-0.2-0.2
		c-0.4-0.8-0.5-1.9-1.8-1.6l-0.1-0.1c0.1-0.1,0.2-0.3,0.3-0.5c-0.3,0-0.6,0-0.8,0c0,0,0,0,0,0c-0.2-0.2-0.4-0.3-0.6-0.5
		c-0.1,0-0.1-0.1-0.2-0.1c0.1-0.7-0.3-0.9-0.9-0.8c0,0,0,0,0,0c-0.2-0.6-0.4-1.3-0.6-1.8c-0.6,0-1.1-0.1-1.5-0.1
		c-0.2-0.2-0.5-0.4-0.7-0.6c0-1.4-1.2-1.4-2.1-1.8c-0.3-0.2-0.5-0.5-0.8-0.7c-0.3-0.2-0.5-0.5-0.8-0.7c-0.3-0.2-0.6-0.5-0.9-0.7
		c-0.2-0.2-0.3-0.3-0.5-0.5c0,0,0,0,0,0c0.1-0.6-0.3-0.8-0.8-0.7c-0.4-0.3-0.7-0.6-1.1-1c-0.2-0.2-0.3-0.3-0.5-0.5c0,0,0,0,0,0
		c-0.1-1.2-1-2-2.2-1.9c-0.1-0.1-0.2-0.2-0.3-0.2c0.1-0.1,0.2-0.2,0.2-0.3c-0.1,0.1-0.3,0.1-0.4,0.2c-0.1-0.1-0.2-0.2-0.3-0.2
		c0-0.8-0.4-1.1-1.2-1.1c0,0,0,0,0,0c0.2-0.8,0-1.2-0.9-1.6c-0.7-0.2-1.2-1-1.8-1.5c0.1-0.1,0.1-0.1,0.2-0.2c-0.4,0-0.8-0.1-1.3-0.1
		c0,0,0,0,0,0c-0.2-0.2-0.4-0.3-0.6-0.5c-0.3-0.3-0.6-0.6-0.9-0.9c-0.2-0.2-0.3-0.4-0.5-0.6c0,0,0,0,0,0c-0.2-0.2-0.3-0.3-0.5-0.5
		c-0.1-0.1-0.2-0.2-0.2-0.2c0.2-0.4,0.3-0.9,0.5-1.3c2,1.4,3.9,2.8,5.9,4.2c0,0.3,0.1,0.7,0.1,1.3c0.3-0.4,0.5-0.5,0.7-0.7
		c1,0.7,2,1.5,3.1,2.2c0.2,0.2,0.5,0.3,0.7,0.5c0.3,0.3,0.6,0.6,1,0.9c0.2,0.2,0.3,0.3,0.5,0.5c1.1,1,2.2,2.1,3.3,3.1
		c0.2,0.2,0.3,0.3,0.5,0.5l0,0c0.2,0.2,0.4,0.3,0.6,0.5c0.4,0.4,0.9,0.8,1.3,1.2c-0.2,0.2-0.3,0.3-0.7,0.6c0.6,0,1,0,1.4-0.1
		c0.4,0.4,0.9,0.8,1.3,1.1c-0.2,0.2-0.4,0.3-0.6,0.5c0,0.1,0.1,0.2,0.1,0.2c0.4-0.1,0.7-0.1,1.1-0.2c0.1,0,0.1,0.1,0.2,0.1
		c0.2,0.2,0.5,0.4,0.7,0.6c0.5,0.5,1,0.9,1.4,1.4c0.3,0.2,0.5,0.5,0.8,0.7c0.2,0.2,0.3,0.4,0.5,0.7c-0.2,0.1-0.5,0.3-0.7,0.4
		c0.1,0.1,0.2,0.2,0.2,0.2c0.2-0.2,0.3-0.4,0.5-0.6c0.1,0.1,0.3,0.1,0.4,0.2c0,0.4,0,0.7,0,1.1c0.3-0.2,0.5-0.3,0.6-0.5
		c1.4,1.3,2.8,2.6,4.2,3.9c0.1,0.4,0.2,0.8,0.3,1.2c0.1,0,0.2,0,0.3-0.1c0.1-0.2,0.1-0.3,0.2-0.5c0.9,0.8,1.9,1.7,2.8,2.5
		c0.2,0.2,0.5,0.4,0.7,0.6c0.4,0.3,0.8,0.6,1.2,1c-0.4,0.1-0.8,0.2-1.2,0.4c0,0.1,0.1,0.2,0.1,0.3c0.5-0.2,0.9-0.3,1.4-0.5
		c2,1.2,4,2.4,6,3.7c0.1,0.2,0.2,0.3,0.5,0.7c0-0.6,0-1,0-1.4c0-0.1,0-0.2,0-0.2c-0.3-0.2-0.6-0.4-0.9-0.7c0-0.1-0.1-0.1-0.1-0.2
		c-0.2-0.3-0.5-0.5-0.7-0.8l0-0.1c0-0.4,0-0.8,0-1.3c-0.4,0.1-0.7,0.1-0.9,0.2c-0.3-0.4-0.6-0.7-1-1.1c-0.2-0.2-0.3-0.4-0.5-0.6
		c-0.4-0.4-0.8-0.8-1.1-1.2c-8-9.7-15.1-20-22.1-30.5c-0.5-0.8-0.8-1.7-1-2.6c-0.1-0.4,0.2-1.1,0.5-1.2c0.8-0.3,1.8-0.5,2.6-0.3
		c1.3,0.3,2.6,1,3.9,1.3c4.7,1.1,9.4,2.2,14.2,3.2c2,0.4,4.1,0.8,6.1,1.2c0.1-0.1,0.2-0.2,0.3-0.3c-0.5-1.1-0.8-2.3-1.4-3.3
		c-4.2-6.9-8.6-13.8-12.8-20.7c-5.7-9.4-12.3-18.4-17-28.4c-0.3-0.7-1-1.3-1.5-2c-0.2,0.5-0.1,0.9,0,1.2c0.9,3.3,1.7,6.5,2.7,9.8
		c0.6,2.2,1.1,4.4,2,6.5c1.6,3.9,2.7,7.9,3.5,12c0.2,1.1,0.5,2.2,0.8,3.2c0.4,1.6,1,3.1,1.3,4.7c0.4,1.6-0.3,2.1-1.8,1.8
		c-4.7-1-9.5-2-14.2-3c-4.2-0.9-8.3-1.7-12.5-2.7c-1.7-0.4-3.3-0.3-4.9,0c-0.7,0.1-1.1,0.5-0.9,1.3c0.2,1.1,0.4,2.3,0.7,3.4
		c1.4,5,4.1,9.1,8,12.4c1.3,1.1,2.4,2.3,3.6,3.5c0.3,0.2,0.6,0.5,0.8,0.7c0.2,0.2,0.4,0.5,0.6,0.7c-0.1,0.2-0.2,0.4-0.3,0.7
		c0.5-0.1,0.9-0.1,1.2-0.2c0.3,0.3,0.7,0.6,1,0.9c-0.1,1-0.7,0.6-1.3,0.6c-0.5-0.3-0.9-0.5-1.4-0.8c0-0.2,0-0.4,0-0.7
		c-0.1,0-0.2-0.1-0.2-0.1c-0.2,0.4-0.5,0.8-0.7,1.1c-0.7,0.9-0.5,1.7,0.1,2.5c1.1,1.5,2.3,3,3.5,4.5c2,2.3,1.4,4.6-1.5,5.6
		c-2.9,1-5.4-0.8-5.5-4c0-1.9-0.1-3.9-0.3-5.8c-0.1-0.8-0.5-1.6-0.7-2.3c-0.2-0.7-0.3-1.4-0.3-2.1c-0.1-1.9-0.1-3.7-1.6-5.2
		c-1.5-1.4-3.4-1.4-4.6,0.3c-1.3,1.9-2.7,3.8-4,5.8c-0.9,1.4-2.3,1.9-3.7,2.4c-1.7,0.5-3.3,1.1-5,1.4c-1.5,0.3-3,0.4-4.5,0.4
		c-2.3,0-3.4,1.4-2.5,3.5c0.7,1.7,1.7,3.2,3.7,3.7c0.4,0.1,0.8,0.5,1.1,0.8c1.3,1.5,2.3,1.7,4.2,1c1.4-0.5,2.8-0.7,4.3-1
		c0.2-0.1,0.5,0,0.7-0.1c2-1.4,4-2.8,6.1-4.1c0.9-0.6,1.8-1.1,2.8-1.3c0.9-0.2,1.3,0.6,0.9,1.4c-0.1,0.3-0.3,0.6-0.5,0.8
		c-1.7,1.8-1.7,3.9,0.1,5.8c0.9,1,1.8,2,2.8,2.9c2,1.8,3,4.1,3.9,6.6c0.2,0.4,0.3,1,0.6,1.2c0.6,0.4,1.3,0.9,1.9,0.9
		c0.9,0,1.2-0.9,1.2-1.6c0-1.6-0.1-3.2-0.4-4.8c-0.2-1.1,0.5-2.4,1.6-2.1c3.5,0.7,6.9,0.6,10.4,0.3c1.3-0.1,1.6,1,2.4,1.7
		c-3.3,0.6-6.3,1.2-9.4,1.7c-0.9,0.1-1.4,0.4-1.5,1.3c0,0.3-0.2,0.6-0.3,0.9c-1,5-3.8,8.9-7.3,12.4c-2.2,2.2-4.3,4.7-6.4,7.1
		c-0.9,1.1-1.4,2.2-0.8,3.7c1,2.4,1.9,4.9,2.7,7.4c2.3,7,3.4,14.3,2.9,21.7c-0.6,9.8-3.2,19.2-6.7,28.3c-1.9,5-5.1,9.4-9.6,12.7
		c-1.8,1.4-3.5,3-5.3,4.4c-0.4,0.3-1,0.6-1.6,0.6c-1.5,0.1-3.1,0.2-4.6,0c-1.5-0.2-1.8-0.8-1.4-2.3c0.1-0.6-0.2-1.3-0.3-2
		c0-0.3-0.1-0.7,0-0.9c0.5-0.7,1.1-1.5,1.8-2c1.4-1,3-1.8,4.4-2.8c0.8-0.6,1.3-1.4,1.9-2.2c0.6-0.8,1.1-1.7,1.7-2.5
		c0.5-0.7,1-1.4,1.8-2.3c-0.8,0.1-1.4,0.1-1.9,0.2c-1.1,0.1-1.6-0.4-1.2-1.5c0.3-0.8,0.9-1.5,1.5-2.1c0.9-0.8,2-1.5,3.1-2.2
		c2.9-2.1,4.1-5,4.4-8.4c0-0.5-0.5-1.1-0.8-1.6c-0.6,0.3-1.3,0.5-1.6,1c-0.8,1-1.3,2.2-2,3.2c-1.5,2.3-3.3,4.3-5.7,5.6
		c-1.3,0.7-1.8,0.6-2.9-0.7c1-1,2.1-1.9,3.2-2.9c2.5-2.3,4.4-4.9,5.4-8.1c0.4-1.3,1.3-2.4,1.4-3.7c0.3-2.2,0.3-4.5,0.3-6.8
		c0-1.8-0.1-3.7-0.1-5.5c0-2.3-0.8-4.5-1.8-6.5c-2.1-4-4.3-8-6.7-11.8c-1.6-2.5-3.7-4.8-5.7-7c-0.8-1-1.9-0.7-2.5,0.4
		c-1.1,2-2,4.1-1.4,6.5c0.3,1.4,1.1,2.6,2.5,2.9c3.3,0.8,4.7,4.5,4.8,7.1c0.1,1.4-0.5,1.9-1.8,2c-0.8,0.1-1.7,0.1-2.5,0.3
		c-0.8,0.1-1.2,0.6-1,1.5c0.5,2.4,1.4,4.6,3,6.4c0.9,1.1,2.2,1.8,3.1,2.9c0.8,1,1.7,2.2,2,3.4c0.6,2.1-1.5,5-3.7,5.6
		c-1.2,0.3-2.6-1-2.8-2.7c-0.2-1.5-0.5-2.9-1.6-4.1c-1-1.1-2.1-1.5-3.6-1.1c0.4,0.5,0.7,1.1,1.2,1.5c1.3,1.3,1.6,2.9,1.5,4.6
		c-0.1,1.3-0.2,2.5-0.1,3.8c0.1,1.6,0.4,3.1,0.6,4.7c0.1,0.9-1.3,2.2-2.2,1.9c-0.5-0.2-1.1-0.4-1.4-0.8c-1-1.1-2.3-1.4-3.7-1.4
		c-0.4,0-0.9,0-1.3,0c-2,0-2.7-1-2.1-3c0.4-1.6,1.1-3.3,1.2-5c0.2-3.6,0.1-7.2,0.1-10.8c0-0.4-0.1-0.9-0.3-1.3
		c-0.7-1.7-2.2-2.7-4-1.3c-0.8,0.7-1.6,1.5-2.2,2.3c-1.8,2.6-4.4,2.6-7,2.2c-0.4-0.1-0.9-0.5-1.2-0.9c-1.5-2-3-4-4.6-5.9
		c-0.6-0.7-1.4-1.5-2.3-1.9c-0.5-0.2-1.5,0-2,0.3c-0.4,0.2-0.6,1.2-0.4,1.7c1.7,5.4,3.4,10.8,5.2,16.2c0.4,1.2,0.9,2.3,2.3,2.9
		c0.5,0.2,0.9,0.9,1.3,1.5c0.5,0.6,0.8,1.4,1.4,1.9c2.1,2.2,4.2,4.3,6.3,6.5c0.4,0.4,1.3,0.8,0.7,1.4c-0.4,0.3-1.6,0.4-2,0
		c-1.7-1.5-3.4-3.2-5-4.9c-1.2-1.3-2.1-2.9-3.7-3.8c-1.8-1-2.3-0.8-2.5,1.2c0,0.3-0.1,0.6-0.1,0.9c0.7,4.2-0.2,8.3-0.9,12.4
		c-0.2,0.9-0.5,1.8-0.8,2.7c-0.4,1.4-0.2,2.3,1.1,2.8c1.3,0.5,2.7,0.7,4,1c1.2,0.3,2.5,0.6,3.7,0.9c0,0.1,0,0.2-0.1,0.3
		c-2.1,0.2-4.2,0.3-6.3,0.6c-0.8,0.1-1.7,0.4-2.5,0.8c-0.9,0.4-0.9,1.1-0.4,1.7c1.3,1.6,3,2.7,5.1,2.8c2.9,0.1,5.9-0.1,8.8-0.2
		c2.7,0,5.5,0,8.2,0.1c0.5,0,1.2,0.5,1.5,0.9c0.4,0.7-0.3,1.2-0.9,1.4c-1,0.4-1.9,0.8-2.9,0.9c-0.8,0.1-1,0.6-1.1,1.2
		c0,1.5,0.4,2.9,1.7,3.6c1.3,0.7,2.8,1.3,4.4,0.3c1.4-0.9,2.9-1.9,4.5-2.6c0.5-0.2,1.3,0,1.8,0.3c0.2,0.1,0.3,1,0.1,1.3
		c-1.1,1.7-1.8,3.8-4.3,4c-0.2,0-0.5,0.1-0.7,0.2c-2.5,2.4-5.7,4.3-7.5,7.4c-1.1,2-0.7,3.9,0.1,5.8c1,2.4,1.5,4.9,1.1,7.4
		c-0.3,1.7-0.6,3.4-1.2,4.9c-0.2,0.5-1.3,1-2,1c-0.9-0.1-1.8-0.5-2.5-1.1c-1.2-0.9-2.2-2.1-3.4-3c-2.2-1.5-4-3.2-5.5-5.3
		c-0.6-0.9-1.6-1.4-2.3-2.2c-0.4-0.5-1-1.2-1-1.8c0-1.7,0.1-3.5,0.5-5.2c0.4-1.8,1.2-3.5,2-5.2c0.5-1.1,1.1-2.3,1.8-3.3
		c1.1-1.6,0.5-3.4-1.4-3.9c-0.9-0.2-1.7-0.3-2.6-0.3c-1.1,0-1.4-0.6-1.3-1.5c0-0.6,0-1.2-0.1-1.8c-0.2-2.7-3.6-5.4-6.5-4
		c-2.4,1.2-4.9,2.2-7.4,3.3c-1.6,0.7-3.3,1.4-4.9,2.2c-1.7,0.8-2.1,2-1.3,3.7c0.6,1.2,1.3,2.1,2.6,2.6c0.7,0.3,1.3,0.6,2,1
		c-0.2,0.4-0.3,0.8-0.4,0.9c-1.6-0.1-3-0.2-4.5-0.3c-1.8-0.1-2.6,0.4-3.4,2c-1.8,3.8-3.7,7.6-5.4,11.5c-0.6,1.5-1.4,2.7-2.6,3.8
		c-1.2,1.1-2.2,2.6-3.3,4c0.1,0.1,0.2,0.2,0.4,0.3c0.7-0.6,1.5-1.1,2-1.8c2.5-3.1,6-5.1,8.9-7.6c2.8-2.4,5.5-5,7.6-8
		c0.5-0.7,0.7-1.5,1-2.3c0.3-0.8,0.6-1.2,1.5-1.1c2.9,0.3,5.1-0.8,6.6-3.2c0.2-0.3,0.4-0.5,0.6-0.7c0.8-1,1.5-0.9,1.8,0.3
		c0.2,0.9,0.3,2-0.6,2.8c-9.7,8.4-18.8,17.3-27.7,26.6c-0.6,0.6-1.2,0.9-2,0.8c-0.7-0.1-1.4,0-2.1,0c-0.7,0-1.8,0.2-2.2-0.2
		c-0.9-0.9-1.5-2.1-2.2-3.2c-0.1-0.2,0.1-0.7,0.2-1c2.5-5.7,5.1-11.5,7.6-17.2c0.3-0.7,0.5-1.6,0.5-2.4c0.3-3.7-0.1-7.4-1.4-10.9
		c-0.2-0.4-0.2-0.9-0.2-1.3c0-4.1,0.1-8.1,0.2-12.2c0-1.8-0.9-3-2.8-3.3c-3.6-0.6-7.3-1.3-10.9-1.9c-2.6-0.4-4.5-2.1-6.3-3.8
		c-1.3-1.3-2.2-2.8-3.4-4.2c-0.3-0.3-0.8-0.6-1.3-0.6c-1.9,0-3.7-0.1-5.4-1c-0.2-0.1-0.5-0.2-0.8-0.2c-2.1,0.1-3.7-0.8-5.1-2.1
		c-1.1-0.9-2.2-1.5-3.6-1.6c-0.7,0-1-0.3-1.2-1c-0.7-3.5-1.6-7-2.2-10.5c-0.2-1.2,0.1-2.5,0.3-3.8c0.6-2.9,0.4-5.7-0.2-8.5
		c-0.1-0.5-0.4-1-0.7-1.4c-2.2-2.7-4.3-5.4-6.6-8c-2.7-3.2-3.8-7.1-5.7-10.7c-0.1-0.2-0.1-0.6,0.1-0.8c2.3-4.6,5.6-8.4,9.6-11.5
		c2.7-2.1,6.2-2.7,9.3-4c0.6-0.2,1.3-0.1,1.9-0.1c3,0.1,6,0.2,8.9,0.5c1.4,0.1,2.9,0.6,4.2,1.2c1,0.4,2,0.5,3,0.1
		c0.4-0.1,0.8-0.5,1-0.8c0.8-1.3,1.5-2.7,2.2-4.1c1.3-2.5,0.8-4.7-2.4-5.2c-1.5-0.2-3-0.3-4.5-0.6c-1.3-0.3-2.5-0.7-3.7-1.1
		c-0.9-0.3-1.7-0.9-2.6-1.2c-4.1-1.2-7.1-4-10.2-6.7c-2.6-2.3-4-5.4-5.9-8.2c-0.9-1.3-1.7-2.6-2.7-3.8c-0.8-1-0.2-1.9,0.2-2.7
		c0.2-0.4,1.1-0.6,1.7-0.7c0.2,0,0.6,0.3,0.8,0.6c2.2,2.8,5.3,4.5,8.5,6c0.1,0,0.2,0,0.4,0c0-7.1,1.3-14.1,0.4-21.2
		c-0.3-2.3,0.5-4.5,1.1-6.6c0.2-0.7,0.4-1.5,0.4-2.2c0-2.9-0.2-5.7-0.1-8.6c0.1-1.8,0.7-3.6,1-5.3c0.9-4.2,3.7-7.1,6.6-10.1
		c3.3-3.4,7.3-4.5,11.5-5.7c2.1-0.6,4.1-1.2,6.2-1.7c0.7-0.2,1.4-0.2,2.1,0c2.9,0.8,5.8,1.3,8.8,1.2c0.7,0,1.5,0.6,2.3,0.8
		c0.7,0.2,1.4,0.5,2.1,0.4c2.7-0.2,5.4-0.6,8.2-0.9c0.4,0,1,0,1.4,0.2c2.9,1.4,5.7,2.9,8.6,4.4c0.3,0.2,0.6,0.5,0.8,0.8
		c0.4,0.6,0.8,1.2,1.1,1.9c0.8,1.8,2,3.2,4,3.8c0.4,0.1,0.8,0.5,1.1,0.9c1.6,2,3,4,4.6,5.9c0.4,0.5,1.1,0.9,1.7,1.1
		c3.3,0.9,6.7,1.8,10,2.7c0.9,0.3,1.8,0.8,2.7,1.2c0.9,0.5,1.7,1.1,2.6,1.5c5.4,2.3,8.8,6.5,11.5,11.4c1.4,2.6,3.8,3.6,6.4,4.3
		c1.3,0.4,2.8,0.5,4.2,0.4c2.1-0.1,2.1-0.2,4-1.9c-1-1-1.7-2.4-2.9-3c-2.2-1.2-3.9-2.8-5.3-4.8c-0.4-0.5-0.8-1-1.2-1.5
		c-1.1-1.4-1.1-1.9,0.2-3.2c0.2-0.2,0.7-0.3,1.1-0.3c4.7,0.1,9.3,1,13.9,2.1c4.5,1,9,1.8,13.6,2.5c5.5,0.9,11.1,1.6,16.6,2.4
		c0.2,0,0.4,0,0.8,0.1c-0.1-0.6-0.2-1.1-0.4-1.5c-3.5-12.5-7.1-25-10.6-37.5c-0.6-2.2,0.5-4.9,3.3-5.1c0.3,0,0.8,0.3,1,0.6
		c1.7,2.3,3.5,4.6,5,7.1c9,14.9,18,29.9,27,44.8c2,3.3,3.9,6.6,6,9.9c0.6,1,0.8,1.9,0.6,3c-0.2,1-0.2,2-0.3,3.1
		c-7.8-1.2-15.5-2.4-23.5-3.6c0.7,1,1.2,1.7,1.7,2.4c5.6,8,11.2,16,16.8,24c0.1,0.1,0.1,0.3,0.2,0.4c0.1,0.6,0.1,1.1,0.2,1.7
		c0.3,0,0.6-0.1,0.9-0.1c0.5,0.7,1,1.4,1.5,2.1c-0.1,0.5-0.1,1-0.2,1.6c0.7,0.3,1.4,0.7,2,1c0.3,0.4,0.5,0.7,0.8,1.1
		c0,0.5-0.5,1.4,0.7,1c0,0,0.1,0.1,0.1,0.1c-0.5,0.8-0.1,0.9,0.6,0.9c0.6,0.9,1.2,1.7,1.8,2.6c-0.2,0.2-0.4,0.5-0.5,0.7
		c0.4,0.4,0.8,0.7,1.1,1c0.1-0.1,0.3-0.2,0.4-0.3c0,0,0.1,0.1,0.1,0.2c0,0.7-0.2,1.5,0.9,1.3c0.3,0.4,0.5,0.8,0.8,1.1
		c-0.5,0.9-0.3,1.1,0.9,1.2c0.3,0.4,0.5,0.7,0.8,1.1c-0.1,0.1-0.2,0.2-0.3,0.4c0,0-0.1,0-0.1-0.1c0,0,0.1,0,0.1,0.1
		C227.5,120,227.8,120.3,228.2,120.5z M205.4,104.1C205.4,104,205.4,104,205.4,104.1C205.4,104,205.4,104,205.4,104.1
		C205.5,104.1,205.5,104.1,205.4,104.1C205.5,104.1,205.5,104.1,205.4,104.1z M135.3,80.8c-0.1-0.3-0.3-0.7-0.4-1.1
		c-0.4-2.2-1.7-3.1-3.8-2.6c-0.7,0.2-1-0.1-1.3-0.7c-0.6-1-2.7-1.1-2.8-0.1c-0.3,2.1-0.2,4.2-0.2,6.4c0,0.8,0.3,1.6,0.2,2.3
		c-0.2,1.2-0.1,2.3,0.5,3.4c0.3,0.5,0.3,1.2,0.1,1.7c-0.3,1.7-0.9,3.3-1.2,5c-0.2,1.5-0.2,3.1-0.3,4.7c-1.2,0.1-1.9-0.2-2.7-1
		c-1.1-1.2-2.4-2.2-3.7-3.3c-0.6-0.5-1.3-0.9-1.8-1.5c-0.9-1-1.9-1.4-3.2-1.4c-1.1,0-2.2,0.1-2.7,1.3c-0.5,1.2,0,2.4,1.1,3.3
		c0.5,0.5,1.1,0.9,1.5,1.5c1.2,1.8,2.3,3.6,3.5,5.4c1.3,1.7,1.8,3.7,2,5.8c0.2,2.2-0.8,3.5-2.8,3.8c0.4-1,0.9-2,1.3-3.1
		c0.1-0.4,0.2-0.9,0.1-1.2c-0.6-1.9-1.4-3.6-3-4.9c-1-0.9-2.1-1.7-3.1-2.6c-1.6-1.6-3.8-1.4-4.8,0.6c-0.7,1.5-1.8,2-3.3,2.2
		c-2,0.3-3.7,1.2-4.7,3.1c-0.6,1.1-0.3,3.2,0.8,3.8c1.5,0.8,3,1.4,4.6,2c2.3,0.8,4.7,1.3,7,2c-0.7,0.4-1.3,0.7-2,0.7
		c-4.5-0.2-9-0.5-12.8-3.3c-1-0.8-2.1-1.6-3-2.4c-0.6-0.6-1.1-1.4-1.8-1.8c-1.4-0.8-2.4-1.9-2.9-3.4c-0.1-0.3-0.5-0.7-0.8-0.7
		c-0.8,0-1.7,0.1-2.9,0.2c1,2.6,1.4,5.2,2.8,7.1c1.7,2.3,4.2,3.9,6.4,6c0.9,0.9,2.3,1.9,2.4,2.9c0.3,2.8,1.5,4.7,3.7,6.2
		c0.3,0.2,0.6,0.4,0.8,0.7c1.9,1.9,4.4,2.6,6.9,3c2.8,0.4,5.8,0.2,8.7,0.3c1.2,0,2.4,0.3,3.7,0.4c-0.2,0.5-0.2,0.9-0.4,1
		c-1.4,0.7-2.8,1.8-4.3,1.9c-5.1,0.4-10-0.9-14.2-3.7c-3.6-2.4-7-5.4-10.1-8.5c-3.7-3.7-6.4-8.1-6.9-13.4c-0.5-5.4-2.9-10.2-5-15
		c-0.1-0.2,0-0.4,0-0.6c0.1-0.1,0.2-0.2,0.4-0.3c0,0.2,0,0.4,0.1,0.5c2.5,2.3,5.4,2.6,8.3,1c1.4-0.8,2.8-1.5,4.3-2.1
		c1.8-0.7,3.7-1,5.1-2.3c0.3-0.3,0.7-0.4,1.1-0.5c3.4-0.9,6.8-1.7,10.2-2.6c3.8-1,7.7-1.9,11.7-1.9c0.7,0,1.6-0.4,2.1-0.9
		c1.3-1.4,1-4.9-0.2-6.4c-0.6-0.7-1.2-1.5-1.5-2.4c-0.5-1.2-1.3-1.8-2.4-1.9c-0.8-0.1-1.7-0.1-2.5-0.2c-0.9-0.1-2,0.2-2.7-0.2
		c-1.8-1.1-3.5-2.4-5.1-3.7c-2.1-1.7-3.9-3.5-6-5.2c-1.4-1.1-4,0-4.4,1.7c-0.2,0.9-0.3,1.8-0.3,2.7c0,2.1-0.8,3.6-2.8,4.7
		c-2,1.1-3.8,2.7-5.7,4.1c-2.3,1.7-4.6,3.3-6.9,4.7c-2.5,1.5-3.9,3.5-4.1,6.4c0,0.4-0.4,0.8-0.7,1.3c-0.4-0.4-0.7-0.7-1-0.9
		c-1.4-1.1-3.1-0.9-3.8,0.3c-0.9,1.6-1.9,3.1-2.8,4.7c-0.5,0.8-0.9,1.7-0.2,2.6c0.9,1.4,1.7,2.9,2.7,4.2c1.1,1.4,2.2,2.8,2.7,4.5
		c0.4,1.4,0.9,2.7,1.5,4c2.8,5.7,5.8,11.2,9.4,16.4c0.5,0.7,1.1,1.5,1.7,2.1c3.9,4.1,8.3,7.4,13.5,9.8c4.4,2,8.7,4.1,13.6,3.2
		c2.5-0.4,5.1-0.9,7.3-2c2.6-1.4,4.8-3.5,7.1-5.4c1.7-1.4,2.2-3.2,1.2-5.2c-0.6-1.3-0.4-2.6,0.4-3.6c1.4-1.8,2.2-3.7,2.2-6
		c0-0.6,0.2-1.2,0.2-1.8c0-3.2,0.2-6.5-1.2-9.6c-0.3-0.7-0.5-1.8-0.1-2.4c1-1.6,2.2-3.3,3.6-4.6c1.7-1.5,2.5-3.2,2.5-5.4
		c0.2-4.4-0.2-8.9,0.7-13.3c0.2-1.1-0.9-2.2-2-1.9C136.9,79.7,136.2,80.3,135.3,80.8z M54.7,70.1c0.1,0.1,0.1,0.2,0.2,0.3
		c-0.6-0.1-1.2-0.2-1.7-0.4c-1.4-0.7-2.9-0.7-4.4-0.4c-0.3,0.1-0.7,0.2-0.9,0.1c-1.7-0.6-3.4,0.2-5,0.4c-0.9,0.1-1.2,1.2-0.6,1.8
		c0.3,0.3,0.8,0.6,1.2,0.7C47,74,50.9,74.7,54,77.3c0.5,0.4,0.8,1.1,1.3,1.6c0.4,0.4,1,1.1,1.4,1c0.8-0.1,1.8-0.5,2.3-1.1
		c1.6-1.9,3.2-3.9,4.5-6c1.6-2.6,2.6-5.5,2.3-8.7c-0.2-1.5-0.2-3.1-0.3-4.6c-0.2-2.9,1-5.3,3.1-7.1c0.3-0.2,0.9-0.1,1.3,0
		c0.2,0,0.3,0.6,0.3,0.9c0,0.8-0.2,1.6-0.2,2.4c-0.1,1.9,1,3,2.8,2.8c0.7-0.1,1.4-0.4,2-0.7c2.9-1.5,6.1-1.3,9.2-1.2
		c2.2,0.1,4.3,1.2,6.5,1.8c2.2,0.6,4.4,1.2,6.6,1.4c3.5,0.2,7,0.1,10.5,0c0.8,0,1.7-0.2,2.4-0.5c2.3-1.1,4.7-1.1,7.1-0.5
		c0.5,0.1,1.2,0.1,1.6-0.1c0.8-0.5,0.5-1.2,0.2-1.9c-0.8-1.7-0.3-3.2,0.6-4.6c0.2-0.3,0.4-0.6,0.4-0.9c0.3-3.4-1.6-6.4-5-7.3
		c-3.7-1-7.3-2.1-11.2-1.6c-2.9,0.3-5.8,0.3-8.6-0.5c-1.7-0.5-3.5-0.4-5.3-0.7c-1-0.2-2.1-0.3-3.1-0.7c-0.8-0.3-1.6-0.8-1.7-2
		c0.7-0.2,1.4-0.4,2.1-0.6c0.9-0.3,1.8-0.5,2.5-1c1.2-0.6,1.3-1.7,0.2-2.1c-1.8-0.7-3.2-2.5-5.4-1.7c-0.7-1.9-0.2-2.6,1.6-2.9
		c3.5-0.6,6.5,0.4,9.2,2.5c1,0.8,2,1,3.2-0.1c-0.4-0.4-0.7-1-1.1-1.1c-2.5-1.1-5.3-1.7-7.5-3.4c-0.1-0.1-0.3-0.1-0.5-0.1
		c-2.7-0.8-5.5-0.5-8.3-0.1c-0.5,0.1-1.2,0-1.7-0.2c-1.8-1-3.5-2.1-5.2-3.2c-0.7-0.5-1.1-0.3-1.7,0.3c-1.4,1.2-2.8,2.6-4.8,2.8
		c-1.2,0.1-2.5-0.3-3.7-0.2c-2.8,0-5.3,0.2-6.2,3.5c-0.3,1-1.2,1.9-2,2.7c-0.7,0.7-1.6,0.8-2.5,0.2c-0.8-0.5-1.2-1.2-1-2.2
		c0.2-0.9,0.5-1.8,0.6-2.7c0.1-0.6,0-1.2,0-1.8c-2.4,0.5-4.5,1-5.8,2.8c-1.7,2.4-3.1,4.9-4.6,7.5c-0.3,0.6-0.4,1.4-0.4,2.2
		c-0.1,2.2,0,4.5-0.1,6.7c-0.3,3.7,0.3,7.2,2.4,10.3c0.3,0.5,0.5,1.1,0.9,1.6c0.5,0.7,1,1.4,1.6,1.9c0.3,0.3,0.9,0.5,1.3,0.4
		c0.3-0.1,0.7-0.8,0.6-1.1c-0.1-1-0.4-2-0.5-3c-0.1-0.3-0.3-0.7-0.2-1c0.6-1.5,1.3-3.1,2.1-4.5c0.2-0.4,1.2-0.8,1.6-0.7
		c0.5,0.2,0.9,1,1,1.6c0.2,0.8,0,1.7,0,2.5c-0.4,4.2,0.7,8,3.6,11.2c0.3,0.3,0.6,0.7,0.6,1.1c0,0.7-0.1,1.5-0.4,2.1
		C56.1,68.8,55.3,69.4,54.7,70.1z M90.2,164c0.3-1.4-0.1-2.4-1.2-2.9c-1-0.5-0.8-1.2-0.6-2c0.2-1,0.4-2,0.6-3c0.2-1.1-0.5-2-1.3-2.3
		c-0.7-0.3-1.7-0.1-2.4,0.2c-1.3,0.5-1.9,1.7-2.6,2.9c-0.8,1.4-2,2.5-3.1,3.8c-1.9,2.2-4.1,4.2-5.1,7.1c-0.3,0.9-0.9,1.8-0.9,2.8
		c0,1.6-0.1,3.4,0.6,4.7c1.4,2.7,4,3.3,6.9,3.2c1.7-0.1,3.4-0.1,5.1-0.3c1.2-0.1,2.5-0.2,3.6-0.6c1.8-0.7,3.5-1.5,5.2-2.4
		c1.6-0.8,2.5-2.2,2.6-4.1c0.1-0.9,0.6-2.1,1.3-2.7c0.9-0.7,1.1-1.5,1.1-2.5c0-0.6-0.1-1.2-0.2-1.8c-0.1-0.7,0.1-1.2,0.8-1.4
		c1.1,1.1,1.5,2.4,1.6,3.9c0.1,1.5,0.3,3.1,0.4,4.6c0,0.8,0.3,1.5,1.2,1.5c1,0,1.2-0.8,1.2-1.6c-0.1-4.3-0.3-8.7-0.4-13
		c0-0.6-0.1-1.1-0.3-1.6c-1.4-4.8-2.7-9.5-4.2-14.2c-0.7-2.1-1.9-4-4.5-4.4c-0.6-0.1-1.2-0.7-1.8-1.1c-0.8-0.7-3-1.1-3.8-0.6
		c-1.5,1-2.3,2.6-1.9,4.4c0.2,0.8,0.5,1.6,0.8,2.4c0.7,1.9,1.5,3.8,2.2,5.6c0.4,1,0.7,2.1,1.1,3.2c0.9,2.3,2.4,4,4.8,4.9
		c0.5,0.2,1.2,0.6,1.2,1c0,0.4-0.5,1-0.9,1.3c-0.8,0.6-1.6,1-2.4,1.5c-0.3,0.2-0.6,0.7-0.5,0.9c0.6,1.6,1.1,3.2,1.9,4.7
		c0.6,1.1,0.7,1.6-0.4,2.3c-0.3,0.2-0.6,0.4-0.8,0.7c-0.7,0.9-1.7,1-3,0.9c0.4-0.6,0.8-1,1-1.5c0.2-0.5,0.3-1.1,0.4-1.7
		C93.5,164.6,92.5,163.6,90.2,164z M30.1,126.3c0.8-0.1,2.4-0.1,3.8-0.4c4-0.8,8-1.7,12-2.6c2.3-0.5,4.4-1.5,5.7-3.5
		c0.9-1.4,1.7-3,2.3-4.6c0.2-0.6-0.1-1.9-0.6-2.3c-2.4-1.8-5-3.1-8.1-3.2c-1.7-0.1-3.5-0.2-5.2-0.3c-1.2,0-2.5-0.3-3.7,0
		c-3.3,1-6.4,2.4-9.2,4.5c-2.5,1.9-4.4,4.2-5.2,7.3c-0.4,1.4,0.5,3.3,1.7,4C25.4,126.5,27.4,126.2,30.1,126.3z M58.1,140.7
		c-0.1-0.1-0.2-0.2-0.2-0.3c0,0-0.1,0-0.1-0.1c-0.1-0.2-0.2-0.4-0.2-0.7c-1.2-3-2.2-6.1-5.4-7.7c-0.4-0.2-0.7-0.8-1-1.1
		c-1.2-1-2.4-2.1-3.8-2.8c-1.6-0.9-3.1-0.1-3.5,1.7c-0.2,0.8-0.3,1.8,0,2.6c1.5,4.3,3.8,7.9,8.8,8.7c0.7,0.1,1.4,0.3,2.3,0.5
		c-0.4,0.4-0.6,0.7-0.9,0.9c-1.2,1.5-0.9,2.5,1,2.8c1.8,0.4,3.7,0.5,5.5,0.7c1.7,0.1,3.3-0.2,4.8-0.9c1-0.5,1.9-0.2,2.9,0.5
		c-2.1,2.5-4.1,5-6.1,7.5c-0.9,1.1-2,1.9-3.5,2.1c-0.4,0-0.9,0.7-0.9,1c0,0.4,0.5,1,0.8,1c0.9,0.1,1.9,0.2,2.7-0.1
		c2.2-0.9,4.4-1.8,6.5-3c1.1-0.6,2.1-1.5,2.9-2.5c1.3-1.6,1.8-3.6,1.5-5.6c-0.2-0.9-0.9-1.7-1.4-2.7c0,0,0.3-0.3,0.6-0.6
		c0.9-1,1.6-2,0.8-3.3c-0.9-1.6-1.9-3.3-3-4.8c-0.3-0.4-0.7-0.9-1.1-1.2c-1.2-0.6-2.5,0-3.4,1.4c-0.5,0.8-1.2,1.5-1.9,2.2
		c-0.4,0.5-0.9,0.9-1.4,1.3C60.2,139.1,59.1,139.9,58.1,140.7z M162.4,141.3c0,0-0.1,0-0.1,0c0-3.2,0-6.4,0-9.5c0-0.3-0.1-0.7-0.2-1
		c-0.6-1.7-1.2-3.3-1.9-5c-0.4-1.1-0.8-2.3-1.3-3.3c-0.2-0.4-0.9-0.8-1.3-0.8c-4-0.1-8.1-0.1-12.2-0.2c-1.6,0-2.1,0.9-1.3,2.2
		c0.7,1.1,1.5,2.1,2.4,2.9c3,2.9,4.9,6.6,6.7,10.2c2.2,4.4,3.8,9.2,5.7,13.7c0.2,0.4,0.3,0.9,0.7,1.1c0.6,0.4,1.2,1,1.8,1
		c1-0.1,1-1.1,1-1.9C162.4,147.7,162.4,144.5,162.4,141.3z M153,102.5c0.2,0.6,0.3,1.3,0.5,1.9c0.4,0.9,1,1.6,1.4,2.5
		c0.8,2.3,2.1,4.2,3.7,6.1c0.6,0.7,1.3,1,2.1,0.5c0.7-0.4,1.4-1,1.9-1.6c0.9-1.2,1.7-2.5,2.6-3.7c0.8-1.1,1.3-2.4,0.9-3.7
		c-0.5-1.6-1.1-3.1-1.9-4.6c-0.7-1.3-1.3-2.6-1.4-4.2c-0.2-3.2-3.8-5-6.5-3.5c-0.6,0.4-1.2,1.1-1.4,1.8c-0.4,1.4-0.6,2.8-0.9,4.3
		C153.5,99.6,153.3,101,153,102.5z M64.2,100.4c0.5,1.1,0.8,2.3,1.5,3.3c1.8,2.9,3.9,5.6,5.5,8.6c1.6,3,4.2,5,6.4,7.4
		c0.2,0.3,0.6,0.5,0.9,0.5c0.5,0.1,1.2,0.2,1.5,0c0.3-0.3,0.5-1,0.4-1.5c-0.1-0.7-0.5-1.4-0.8-2.1c-0.6-1.4-1.3-2.8-2-4.2
		c-1.1-2.1-2.2-4.2-3.3-6.3c-0.8-1.5-1.5-3-2.3-4.4c-0.7-1.4-1.3-2.8-2.2-4.1c-0.4-0.6-1.3-1-1.9-1.1
		C65.8,96.3,64.5,97.9,64.2,100.4z M45.1,150.3c-0.2,0.4-0.5,0.8-0.7,1.1c-0.5,0.8-0.2,1.9,0.7,2c1.6,0.2,3.2,0.2,4.8,0.2
		c0.9,0,1.7-0.3,2.5-0.5c0.7-0.1,1.5-0.2,2.2-0.4c1.5-0.6,3.1-1.3,4.6-2c0.7-0.3,1.4-0.8,1.1-1.8c-0.2-1-0.9-1.1-1.7-1.2
		c-0.8,0-1.7,0.4-2.6,0.3c-2.6-0.4-5.3,0.4-8-0.5c-1.5-0.5-2.9-0.8-4.1-1.8c-1.7-1.4-3.5-1.3-5.4-0.6c-0.9,0.4-1.1,1-0.6,1.9
		c0.8,1.4,1.9,2.2,3.7,2.1C42.8,149.1,44.2,149.1,45.1,150.3z M43,75.7c0,0.1,0,0.1,0,0.2c-0.4,0-0.9-0.1-1.3,0.1
		c-0.7,0.4-1.6,0.8-1.9,1.4c-0.2,0.5,0.2,1.4,0.4,2c0.2,0.6,0.7,1,1,1.6c1.1,2.7,4.3,3.6,6.8,3.2c1.7-0.2,3.4-0.7,5.1-1.1
		c0.9-0.2,1.7-0.6,1.9-1.6c0.2-1.1-0.4-1.8-1.2-2.4c-0.4-0.2-0.8-0.4-1.2-0.5c-2.3-0.8-4.5-1.7-6.8-2.4C44.8,76,43.9,75.9,43,75.7z
		 M132.6,54.7c-0.3-0.6-0.4-1.4-0.8-1.9c-1.5-1.9-3.4-3.2-5.8-3.6c-1.7-0.3-3,0.5-3.8,2.1c-0.9,1.9-0.7,3.1,0.8,4.3
		c1.1,0.9,2.3,1.7,3.5,2.5c1.3,0.9,2.9,0.9,4.2,0.2C132,57.5,132.5,56.2,132.6,54.7z M124.3,207.3c-0.5-0.5-1-1-1.1-1
		c-0.5,0.3-0.9,0.7-1.3,1.1c0.4,0.3,0.7,0.9,1.1,1C123.3,208.4,123.7,207.8,124.3,207.3z M228,123.5c0.1,0,0.1,0.1,0.2,0.1
		c0,0,0.1-0.1,0.1-0.2c0,0-0.1-0.1-0.2-0.1C228,123.3,228,123.4,228,123.5z M194.7,94.4c0,0.1-0.1,0.1-0.1,0.2c0.1,0,0.1,0,0.2,0.1
		c0,0,0.1-0.1,0.1-0.1C194.8,94.5,194.8,94.5,194.7,94.4z M226.4,119C226.3,119,226.3,119,226.4,119c-0.1,0.1-0.1,0.2-0.1,0.4
		c0,0,0.1,0,0.1,0C226.4,119.3,226.4,119.2,226.4,119z"/>
	<path class="st2" d="M177.2,81.2c0.4,0,0.8,0.1,1.3,0.1c-0.1,0.1-0.1,0.1-0.2,0.2c0.6,0.5,1.1,1.3,1.8,1.5c0.9,0.3,1.1,0.8,0.9,1.6
		C179.8,83.4,178.5,82.3,177.2,81.2z"/>
	<path class="st3" d="M225.2,123.4c0.6-0.1,1.1-0.3,1.7-0.4c-0.3,1.4-0.3,1.4,1.5,1.4c-0.2,0.4-0.4,0.8-0.7,1.4
		C226.8,124.9,226,124.1,225.2,123.4z"/>
	<path class="st3" d="M219,107.4c-0.7-0.3-1.4-0.7-2-1c0.1-0.6,0.1-1.1,0.2-1.6C217.8,105.6,218.4,106.5,219,107.4z"/>
	<path class="st2" d="M182.9,86.2c1.2,0,2.1,0.8,2.2,1.9C184.4,87.5,183.7,86.8,182.9,86.2z"/>
	<path class="st2" d="M193.2,95.2c0.5,0,1,0.1,1.5,0.1c0.2,0.6,0.4,1.2,0.6,1.8C194.7,96.5,194,95.9,193.2,95.2z"/>
	<path class="st3" d="M229.4,122.4c-1.4-0.3-1.6-0.7-1-1.7C228.7,121.3,229,121.9,229.4,122.4z"/>
	<path class="st3" d="M224,114.5c-0.2,0.1-0.3,0.2-0.4,0.3c-0.3-0.3-0.7-0.6-1.1-1c0.1-0.2,0.3-0.4,0.5-0.7
		C223.3,113.5,223.6,114,224,114.5z"/>
	<path class="st2" d="M197.6,99.1c1.4-0.3,1.4,0.8,1.8,1.6C198.8,100.2,198.2,99.7,197.6,99.1z"/>
	<path class="st2" d="M190.5,92.8c0.8,0.4,2.1,0.4,2.1,1.8C191.8,94,191.1,93.4,190.5,92.8z"/>
	<path class="st3" d="M213.2,112.9c0.2-0.2,0.3-0.4,0.5-0.7c0.3,0.3,0.5,0.6,0.8,0.9c-0.2,0.2-0.3,0.3-0.5,0.5
		C213.8,113.4,213.5,113.1,213.2,112.9z"/>
	<path class="st2" d="M173.4,77.3c0.5,0.1,1.2,0.4,1.3-0.6c0.2,0.1,0.3,0.3,0.5,0.4c-0.2,0.4-0.3,0.9-0.5,1.3
		C174.2,78.1,173.8,77.7,173.4,77.3z"/>
	<path class="st3" d="M220.8,119.6c0.9,0,1.9-0.2,1.4,1.3C221.8,120.4,221.3,120,220.8,119.6z"/>
	<path class="st2" d="M215.7,102.6c-0.3,0-0.6,0.1-0.9,0.1c-0.1-0.6-0.1-1.1-0.2-1.7C214.9,101.6,215.3,102.1,215.7,102.6z"/>
	<path class="st3" d="M226.7,118.4c-1.2-0.1-1.3-0.3-0.9-1.2C226.1,117.5,226.4,118,226.7,118.4z"/>
	<path class="st2" d="M215.9,115.2c0.3,0,0.6,0,0.9-0.1c0,0.3,0,0.6,0.1,0.9C216.5,115.8,216.2,115.5,215.9,115.2z"/>
	<path class="st3" d="M223.6,122c1.1-0.3,1.3,0.4,1.4,1.2C224.5,122.8,224.1,122.4,223.6,122z"/>
	<path class="st3" d="M222.3,120.9c0.8-0.1,1.3,0.2,1.3,1.1C223.1,121.6,222.7,121.2,222.3,120.9z"/>
	<path class="st3" d="M225,116c-1.2,0.1-1-0.6-0.9-1.3C224.4,115.1,224.7,115.5,225,116z"/>
	<path class="st2" d="M181,84.5c0.8-0.1,1.2,0.3,1.2,1.1C181.8,85.2,181.4,84.9,181,84.5z"/>
	<path class="st2" d="M214,113.6c0.2-0.2,0.3-0.3,0.5-0.5c0.1,0.4,0.3,0.8,0.4,1.2C214.6,114.1,214.3,113.9,214,113.6z"/>
	<path class="st2" d="M199.7,101c0.8-0.1,1.2,0.2,1.2,1C200.5,101.6,200.1,101.3,199.7,101z"/>
	<path class="st2" d="M171.1,76.9c0.2-0.4,0.5-0.8,0.7-1.1c0.1,0,0.2,0.1,0.2,0.1c0,0.2,0,0.4,0,0.7
		C171.7,76.7,171.4,76.8,171.1,76.9z"/>
	<path class="st3" d="M227.2,119.8c0.1-0.1,0.2-0.2,0.3-0.4c0.2,0.4,0.5,0.7,0.7,1.1C227.8,120.3,227.5,120,227.2,119.8L227.2,119.8
		z"/>
	<path class="st3" d="M220.5,109.5c-1.2,0.3-0.8-0.5-0.7-1C220,108.9,220.2,109.2,220.5,109.5z"/>
	<path class="st2" d="M217.1,116.2c0.7-0.1,1.1,0.1,1,0.9C217.7,116.9,217.4,116.6,217.1,116.2z"/>
	<path class="st2" d="M202.7,103.6c0.3,0.3,0.7,0.6,1,0.9C203.4,104.3,203.1,103.9,202.7,103.6z"/>
	<path class="st2" d="M195.4,97.2c0.6-0.1,1,0.1,0.9,0.8C196,97.7,195.7,97.4,195.4,97.2z"/>
	<path class="st3" d="M221.2,110.5c-0.7,0.1-1.1-0.1-0.6-0.9C220.8,109.9,221,110.2,221.2,110.5z"/>
	<path class="st3" d="M218.6,117.6c0.2-0.1,0.4-0.2,0.6-0.3c0,0.2-0.1,0.4-0.1,0.6C218.9,117.8,218.7,117.7,218.6,117.6z"/>
	<path class="st2" d="M214.9,114.4c0.3,0.2,0.5,0.5,0.8,0.7C215.4,114.8,215.2,114.6,214.9,114.4z"/>
	<path class="st2" d="M186.7,89.5c0.6-0.1,0.9,0.1,0.8,0.7C187.3,90,187,89.8,186.7,89.5z"/>
	<path class="st2" d="M219.2,118.2c0.2,0.2,0.5,0.5,0.7,0.7C219.7,118.6,219.5,118.4,219.2,118.2z"/>
	<path class="st2" d="M205.4,106c0.3,0.2,0.5,0.5,0.8,0.7C205.9,106.4,205.7,106.2,205.4,106z"/>
	<path class="st2" d="M188.9,91.4c0.3,0.2,0.5,0.5,0.8,0.7C189.4,91.9,189.2,91.7,188.9,91.4z"/>
	<path class="st2" d="M197,98.6c0.3,0,0.5,0,0.8,0c-0.1,0.2-0.2,0.3-0.3,0.5C197.4,98.9,197.2,98.8,197,98.6z"/>
	<path class="st2" d="M202.1,103.1c0.2,0.2,0.4,0.4,0.6,0.6C202.5,103.5,202.3,103.3,202.1,103.1z"/>
	<path class="st2" d="M206.4,106.9c0.2,0.2,0.4,0.4,0.7,0.6C206.9,107.3,206.7,107.1,206.4,106.9z"/>
	<path class="st2" d="M196.5,98.1c0.2,0.2,0.4,0.3,0.6,0.5C196.9,98.5,196.7,98.3,196.5,98.1z"/>
	<path class="st2" d="M207.6,107.9c0.2,0.2,0.3,0.3,0.5,0.5C207.9,108.2,207.7,108,207.6,107.9z"/>
	<path class="st2" d="M210.6,110.5c0.2,0.2,0.4,0.3,0.6,0.5C211,110.9,210.8,110.7,210.6,110.5z"/>
	<path class="st2" d="M175.3,79.3c0.2,0.2,0.3,0.4,0.5,0.6C175.7,79.6,175.5,79.4,175.3,79.3z"/>
	<path class="st2" d="M174.9,78.8c0.2,0.2,0.3,0.3,0.5,0.5C175.2,79.1,175,78.9,174.9,78.8z"/>
	<path class="st2" d="M201.1,102.2c0.2,0.2,0.4,0.3,0.5,0.5C201.4,102.5,201.3,102.3,201.1,102.2z"/>
	<path class="st2" d="M176.7,80.7c0.2,0.2,0.4,0.3,0.6,0.5C177.1,81,176.9,80.9,176.7,80.7z"/>
	<path class="st2" d="M187.5,90.2c0.2,0.2,0.3,0.3,0.5,0.5C187.9,90.5,187.7,90.4,187.5,90.2z"/>
	<path class="st2" d="M185.1,88.1c0.2,0.2,0.3,0.3,0.5,0.5C185.5,88.4,185.3,88.3,185.1,88.1z"/>
	<path class="st2" d="M182.5,85.8c0.1-0.1,0.3-0.1,0.4-0.2c-0.1,0.1-0.2,0.2-0.2,0.3C182.6,85.9,182.5,85.9,182.5,85.8z"/>
	<path class="st4" d="M135.3,80.8c0.9-0.5,1.6-1,2.4-1.2c1.1-0.3,2.2,0.8,2,1.9c-0.9,4.4-0.5,8.9-0.7,13.3c-0.1,2.2-0.8,3.9-2.5,5.4
		c-1.4,1.3-2.6,2.9-3.6,4.6c-0.4,0.6-0.2,1.7,0.1,2.4c1.4,3.1,1.3,6.3,1.2,9.6c0,0.6-0.2,1.2-0.2,1.8c0,2.3-0.8,4.2-2.2,6
		c-0.8,1-1,2.2-0.4,3.6c0.9,2,0.5,3.8-1.2,5.2c-2.3,1.9-4.5,4-7.1,5.4c-2.2,1.2-4.8,1.6-7.3,2c-5,0.9-9.3-1.2-13.6-3.2
		c-5.2-2.4-9.6-5.8-13.5-9.8c-0.6-0.7-1.2-1.4-1.7-2.1c-3.6-5.2-6.6-10.7-9.4-16.4c-0.6-1.3-1.2-2.6-1.5-4c-0.5-1.8-1.6-3.1-2.7-4.5
		c-1-1.3-1.8-2.8-2.7-4.2c-0.6-1-0.3-1.8,0.2-2.6c0.9-1.5,1.9-3.1,2.8-4.7c0.7-1.3,2.4-1.4,3.8-0.3c0.3,0.2,0.5,0.5,1,0.9
		c0.3-0.5,0.6-0.9,0.7-1.3c0.3-2.9,1.7-4.9,4.1-6.4c2.4-1.5,4.7-3.1,6.9-4.7c1.9-1.4,3.7-3,5.7-4.1c2-1.1,2.8-2.5,2.8-4.7
		c0-0.9,0.1-1.8,0.3-2.7c0.4-1.8,3-2.8,4.4-1.7c2.1,1.6,4,3.5,6,5.2c1.6,1.3,3.3,2.6,5.1,3.7c0.7,0.4,1.8,0.2,2.7,0.2
		c0.8,0.1,1.7,0.1,2.5,0.2c1.2,0.2,2,0.7,2.4,1.9c0.3,0.9,0.9,1.6,1.5,2.4c1.3,1.5,1.5,5,0.2,6.4c-0.5,0.5-1.4,0.9-2.1,0.9
		c-4,0-7.9,0.9-11.7,1.9c-3.4,0.9-6.8,1.7-10.2,2.6c-0.4,0.1-0.8,0.2-1.1,0.5c-1.5,1.4-3.4,1.7-5.1,2.3c-1.5,0.5-2.9,1.3-4.3,2.1
		c-2.9,1.7-5.9,1.4-8.3-1c-0.1-0.1-0.1-0.3-0.1-0.5c-0.1,0.1-0.2,0.2-0.4,0.3c0,0.2-0.1,0.4,0,0.6c2.2,4.8,4.5,9.6,5,15
		c0.5,5.3,3.2,9.8,6.9,13.4c3.1,3.1,6.5,6,10.1,8.5c4.2,2.8,9.1,4.1,14.2,3.7c1.5-0.1,2.9-1.2,4.3-1.9c0.2-0.1,0.2-0.5,0.4-1
		c-1.3-0.1-2.5-0.4-3.7-0.4c-2.9-0.1-5.8,0.2-8.7-0.3c-2.5-0.4-5-1.1-6.9-3c-0.3-0.3-0.5-0.5-0.8-0.7c-2.3-1.5-3.4-3.5-3.7-6.2
		c-0.1-1.1-1.5-2-2.4-2.9c-2.1-2-4.7-3.7-6.4-6c-1.4-1.9-1.8-4.5-2.8-7.1c1.3-0.1,2.1-0.2,2.9-0.2c0.3,0,0.6,0.4,0.8,0.7
		c0.5,1.6,1.6,2.6,2.9,3.4c0.7,0.4,1.2,1.3,1.8,1.8c1,0.9,2,1.6,3,2.4c3.8,2.9,8.3,3.1,12.8,3.3c0.6,0,1.3-0.3,2-0.7
		c-2.3-0.6-4.7-1.2-7-2c-1.6-0.5-3.1-1.2-4.6-2c-1.1-0.6-1.4-2.6-0.8-3.8c1-1.9,2.7-2.8,4.7-3.1c1.5-0.2,2.6-0.7,3.3-2.2
		c1-2,3.2-2.1,4.8-0.6c1,0.9,2.1,1.7,3.1,2.6c1.5,1.3,2.4,3,3,4.9c0.1,0.4,0,0.9-0.1,1.2c-0.4,1-0.8,2-1.3,3.1c2-0.3,3-1.7,2.8-3.8
		c-0.2-2.1-0.7-4-2-5.8c-1.3-1.7-2.3-3.6-3.5-5.4c-0.4-0.6-1-1-1.5-1.5c-1.1-1-1.6-2.2-1.1-3.3c0.5-1.2,1.6-1.3,2.7-1.3
		c1.3,0,2.3,0.4,3.2,1.4c0.5,0.6,1.2,1,1.8,1.5c1.3,1.1,2.6,2.1,3.7,3.3c0.7,0.8,1.5,1.1,2.7,1c0.1-1.6,0-3.2,0.3-4.7
		c0.3-1.7,0.8-3.3,1.2-5c0.1-0.6,0.1-1.3-0.1-1.7c-0.7-1.1-0.7-2.2-0.5-3.4c0.1-0.7-0.2-1.5-0.2-2.3c0-2.1-0.1-4.3,0.2-6.4
		c0.1-1,2.2-0.9,2.8,0.1c0.3,0.6,0.6,0.9,1.3,0.7c2.1-0.5,3.4,0.3,3.8,2.6C135,80,135.2,80.5,135.3,80.8z"/>
	<path class="st5" d="M54.7,70.1c0.7-0.7,1.5-1.2,1.9-2C57,67.5,57,66.7,57,66c0-0.4-0.3-0.8-0.6-1.1c-2.9-3.2-3.9-7-3.6-11.2
		c0.1-0.8,0.2-1.7,0-2.5c-0.1-0.6-0.5-1.3-1-1.6c-0.4-0.2-1.3,0.3-1.6,0.7c-0.8,1.4-1.5,3-2.1,4.5c-0.1,0.3,0.1,0.7,0.2,1
		c0.2,1,0.5,2,0.5,3c0,0.4-0.3,1-0.6,1.1c-0.3,0.1-1-0.1-1.3-0.4c-0.6-0.6-1.1-1.3-1.6-1.9c-0.3-0.5-0.6-1.1-0.9-1.6
		c-2.1-3.1-2.7-6.6-2.4-10.3c0.2-2.2,0.1-4.5,0.1-6.7c0-0.7,0.1-1.6,0.4-2.2c1.4-2.5,2.9-5.1,4.6-7.5c1.3-1.8,3.4-2.4,5.8-2.8
		c0,0.7,0.1,1.3,0,1.8c-0.2,0.9-0.5,1.8-0.6,2.7c-0.2,1,0.2,1.7,1,2.2c0.9,0.6,1.8,0.5,2.5-0.2c0.8-0.8,1.8-1.7,2-2.7
		c0.9-3.3,3.4-3.5,6.2-3.5c1.2,0,2.5,0.3,3.7,0.2c2-0.1,3.4-1.5,4.8-2.8c0.6-0.5,1-0.7,1.7-0.3c1.7,1.1,3.4,2.2,5.2,3.2
		c0.5,0.3,1.1,0.3,1.7,0.2c2.8-0.4,5.5-0.6,8.3,0.1c0.2,0,0.3,0,0.5,0.1c2.2,1.8,5,2.4,7.5,3.4c0.5,0.2,0.8,0.7,1.1,1.1
		c-1.3,1-2.2,0.8-3.2,0.1c-2.7-2.1-5.7-3.1-9.2-2.5c-1.8,0.3-2.2,1-1.6,2.9c2.2-0.8,3.6,1,5.4,1.7c1,0.4,0.9,1.5-0.2,2.1
		c-0.8,0.4-1.7,0.7-2.5,1c-0.7,0.2-1.4,0.4-2.1,0.6c0,1.2,0.9,1.7,1.7,2c1,0.4,2,0.6,3.1,0.7c1.8,0.3,3.6,0.2,5.3,0.7
		c2.9,0.8,5.8,0.8,8.6,0.5c3.9-0.5,7.6,0.6,11.2,1.6c3.4,0.9,5.3,3.9,5,7.3c0,0.3-0.3,0.6-0.4,0.9c-0.9,1.5-1.4,3-0.6,4.6
		c0.3,0.7,0.6,1.4-0.2,1.9c-0.4,0.3-1.1,0.3-1.6,0.1c-2.4-0.6-4.8-0.6-7.1,0.5c-0.7,0.3-1.6,0.5-2.4,0.5c-3.5,0.1-7,0.2-10.5,0
		c-2.2-0.1-4.4-0.8-6.6-1.4c-2.2-0.6-4.3-1.7-6.5-1.8c-3.1-0.1-6.3-0.2-9.2,1.2c-0.6,0.3-1.3,0.6-2,0.7c-1.8,0.3-3-0.9-2.8-2.8
		c0-0.8,0.2-1.6,0.2-2.4c0-0.3-0.1-0.8-0.3-0.9c-0.4-0.1-1-0.2-1.3,0c-2.2,1.9-3.3,4.2-3.1,7.1c0.1,1.5,0.1,3.1,0.3,4.6
		c0.4,3.2-0.6,6.1-2.3,8.7c-1.3,2.1-2.9,4.1-4.5,6c-0.5,0.6-1.5,0.9-2.3,1.1c-0.4,0.1-1-0.6-1.4-1c-0.5-0.5-0.8-1.1-1.3-1.6
		c-3.1-2.6-7-3.4-10.7-4.9c-0.4-0.2-0.9-0.4-1.2-0.7c-0.6-0.6-0.3-1.7,0.6-1.8c1.7-0.2,3.3-1,5-0.4c0.3,0.1,0.6,0,0.9-0.1
		c1.5-0.3,3-0.3,4.4,0.4c0.5,0.3,1.1,0.3,1.7,0.4C54.8,70.3,54.7,70.2,54.7,70.1z M78.6,39.9c-0.2-0.7-0.2-1.2-0.4-1.5
		c-1.7-1.9-3.3-3.8-5.2-5.5c-2.2-2-4.9-2.3-7.7-1.8c-0.3,0.1-0.8,0.4-0.8,0.7c-0.1,0.3,0.1,0.9,0.4,1.1c1.2,1.1,2.4,2.1,3.6,3.1
		c0.9,0.8,1,1.5,0.1,2.2c-0.6,0.4-1.2,0.7-1.9,0.9c-0.9,0.4-1.8,0.7-2.7,1.1c-0.8,0.4-1,1-0.4,1.8c5.3-2,3.9-2.2,10-1.8
		C75.2,40.3,76.8,40,78.6,39.9z M75.5,42.2c-0.4,0.4-0.8,0.7-1.2,1.1c-1.1,1.3-2.4,2.1-4.1,2.2c-1.2,0.1-2.4-0.3-3.6-0.3
		c-0.4,0-0.8,0.2-1.2,0.3c0.2,0.4,0.5,0.8,0.8,1.1c0.1,0.1,0.4,0.2,0.6,0.2c1.6,0.1,3.2,0.3,4.7,0.2C73.7,46.8,75.7,44.3,75.5,42.2z
		"/>
	<path class="st4" d="M175.2,77.2c-0.2-0.1-0.3-0.3-0.5-0.4c-0.3-0.3-0.7-0.6-1-0.9c-0.3-0.2-0.6-0.3-0.9-0.5
		c-0.2-0.2-0.4-0.5-0.6-0.7c-0.3-0.2-0.6-0.5-0.8-0.7c-1.2-1.2-2.3-2.4-3.6-3.5c-3.9-3.4-6.6-7.5-8-12.4c-0.3-1.1-0.5-2.2-0.7-3.4
		c-0.2-0.7,0.3-1.1,0.9-1.3c1.6-0.3,3.2-0.5,4.9,0c4.1,1.1,8.3,1.8,12.5,2.7c4.7,1,9.5,2,14.2,3c1.5,0.3,2.1-0.2,1.8-1.8
		c-0.4-1.6-0.9-3.1-1.3-4.7c-0.3-1.1-0.6-2.1-0.8-3.2c-0.8-4.1-1.8-8.1-3.5-12c-0.9-2.1-1.4-4.3-2-6.5c-0.9-3.2-1.8-6.5-2.7-9.8
		c-0.1-0.4-0.1-0.7,0-1.2c0.5,0.6,1.1,1.2,1.5,2c4.7,10,11.3,19,17,28.4c4.2,6.9,8.5,13.8,12.8,20.7c0.6,1,0.9,2.2,1.4,3.3
		c-0.1,0.1-0.2,0.2-0.3,0.3c-2-0.4-4.1-0.7-6.1-1.2c-4.7-1-9.5-2.1-14.2-3.2c-1.3-0.3-2.6-1-3.9-1.3c-0.8-0.2-1.8,0.1-2.6,0.3
		c-0.3,0.1-0.6,0.9-0.5,1.2c0.2,0.9,0.5,1.9,1,2.6c7,10.4,14,20.8,22.1,30.5c0.4,0.4,0.8,0.8,1.1,1.2c0.2,0.2,0.3,0.4,0.5,0.6
		c0.3,0.4,0.6,0.7,1,1.1c0.3,0.4,0.6,0.7,0.9,1.1l0,0.1c0.2,0.3,0.5,0.5,0.7,0.8c0,0.1,0.1,0.1,0.1,0.2c0.1,0.5,0.3,1.1,0.4,1.6
		c-2-1.2-4-2.4-6-3.7c-0.1-0.1-0.2-0.1-0.3-0.2c-0.4-0.3-0.8-0.6-1.2-1c-0.2-0.2-0.5-0.4-0.7-0.6c-0.9-0.8-1.9-1.7-2.8-2.5
		c-0.2-0.2-0.5-0.4-0.7-0.7c-1.4-1.3-2.8-2.6-4.2-3.9c-0.2-0.2-0.4-0.4-0.6-0.6c-0.1-0.1-0.3-0.1-0.4-0.2l0,0
		c-0.2-0.2-0.3-0.4-0.5-0.7c-0.3-0.2-0.5-0.5-0.8-0.7c-0.5-0.5-1-0.9-1.4-1.4c-0.2-0.2-0.5-0.4-0.7-0.6c-0.1,0-0.1-0.1-0.2-0.1
		c-0.2-0.2-0.4-0.4-0.6-0.5c-0.4-0.4-0.9-0.8-1.3-1.1c-0.2-0.2-0.5-0.4-0.7-0.6c-0.4-0.4-0.9-0.8-1.3-1.2c-0.2-0.2-0.4-0.3-0.6-0.5
		c0,0,0,0,0,0c-0.2-0.2-0.3-0.3-0.5-0.5c-1.1-1-2.2-2.1-3.3-3.1c-0.2-0.2-0.3-0.3-0.5-0.5c-0.3-0.3-0.6-0.6-1-0.9
		c-0.2-0.2-0.5-0.3-0.7-0.5c-1-0.7-2-1.5-3.1-2.2c-0.3-0.2-0.5-0.4-0.8-0.6C179.1,80,177.1,78.6,175.2,77.2z"/>
	<path class="st6" d="M90.2,164c2.3-0.4,3.3,0.6,2.9,2.7c-0.1,0.6-0.2,1.2-0.4,1.7c-0.2,0.5-0.6,0.9-1,1.5c1.2,0,2.2,0,3-0.9
		c0.2-0.3,0.5-0.5,0.8-0.7c1.1-0.7,1-1.2,0.4-2.3c-0.8-1.5-1.3-3.1-1.9-4.7c-0.1-0.2,0.2-0.7,0.5-0.9c0.8-0.6,1.7-1,2.4-1.5
		c0.4-0.3,1-0.9,0.9-1.3c0-0.4-0.7-0.8-1.2-1c-2.4-0.9-3.9-2.6-4.8-4.9c-0.4-1-0.7-2.1-1.1-3.2c-0.7-1.9-1.5-3.8-2.2-5.6
		c-0.3-0.8-0.6-1.5-0.8-2.4c-0.4-1.8,0.4-3.4,1.9-4.4c0.8-0.5,3-0.1,3.8,0.6c0.5,0.5,1.1,1,1.8,1.1c2.6,0.3,3.8,2.2,4.5,4.4
		c1.5,4.7,2.8,9.5,4.2,14.2c0.2,0.5,0.2,1.1,0.3,1.6c0.2,4.3,0.3,8.7,0.4,13c0,0.8-0.1,1.6-1.2,1.6c-0.9,0-1.1-0.7-1.2-1.5
		c-0.1-1.5-0.3-3.1-0.4-4.6c-0.1-1.5-0.5-2.8-1.6-3.9c-0.8,0.2-1,0.7-0.8,1.4c0.1,0.6,0.2,1.2,0.2,1.8c0,1-0.2,1.7-1.1,2.5
		c-0.7,0.6-1.2,1.7-1.3,2.7c-0.2,1.9-1,3.2-2.6,4.1c-1.7,0.9-3.4,1.8-5.2,2.4c-1.1,0.4-2.4,0.5-3.6,0.6c-1.7,0.2-3.4,0.2-5.1,0.3
		c-2.9,0.2-5.5-0.4-6.9-3.2c-0.7-1.4-0.6-3.1-0.6-4.7c0-0.9,0.6-1.8,0.9-2.8c1-2.9,3.2-4.9,5.1-7.1c1-1.2,2.3-2.4,3.1-3.8
		c0.7-1.2,1.3-2.4,2.6-2.9c0.7-0.3,1.8-0.5,2.4-0.2c0.8,0.3,1.5,1.2,1.3,2.3c-0.2,1-0.4,2-0.6,3c-0.2,0.8-0.4,1.5,0.6,2
		C90.1,161.7,90.5,162.7,90.2,164z"/>
	<path class="st5" d="M30.1,126.3c-2.6-0.1-4.6,0.2-6.5-0.9c-1.2-0.7-2.1-2.6-1.7-4c0.9-3.1,2.7-5.3,5.2-7.3
		c2.8-2.1,5.9-3.5,9.2-4.5c1.1-0.3,2.4,0,3.7,0c1.7,0.1,3.5,0.2,5.2,0.3c3.1,0.1,5.7,1.4,8.1,3.2c0.5,0.4,0.8,1.6,0.6,2.3
		c-0.6,1.6-1.4,3.1-2.3,4.6c-1.3,2.1-3.5,3-5.7,3.5c-4,0.9-8,1.8-12,2.6C32.4,126.3,30.9,126.3,30.1,126.3z"/>
	<path class="st7" d="M58.1,140.7c1.1-0.8,2.1-1.6,3.2-2.4c0.5-0.4,1-0.8,1.4-1.3c0.7-0.7,1.4-1.4,1.9-2.2c0.8-1.3,2.2-2,3.4-1.4
		c0.5,0.2,0.8,0.7,1.1,1.2c1,1.6,2,3.2,3,4.8c0.8,1.3,0,2.3-0.8,3.3c-0.3,0.3-0.5,0.6-0.6,0.6c0.6,1,1.3,1.8,1.4,2.7
		c0.4,2-0.2,4-1.5,5.6c-0.8,1-1.8,1.9-2.9,2.5c-2.1,1.1-4.3,2.1-6.5,3c-0.8,0.3-1.8,0.2-2.7,0.1c-0.3,0-0.8-0.7-0.8-1
		c0-0.4,0.5-1,0.9-1c1.5-0.2,2.5-1,3.5-2.1c2-2.5,4.1-5,6.1-7.5c-1-0.7-1.9-1-2.9-0.5c-1.5,0.8-3.2,1-4.8,0.9
		c-1.9-0.1-3.7-0.3-5.5-0.7c-1.9-0.4-2.2-1.4-1-2.8c0.2-0.3,0.5-0.5,0.9-0.9c-0.8-0.2-1.5-0.4-2.3-0.5c-5-0.9-7.3-4.4-8.8-8.7
		c-0.3-0.8-0.2-1.8,0-2.6c0.4-1.8,1.9-2.6,3.5-1.7c1.4,0.7,2.5,1.8,3.8,2.8c0.4,0.3,0.6,0.9,1,1.1c3.2,1.6,4.1,4.7,5.4,7.7
		c0.1,0.2,0.2,0.4,0.2,0.7c0,0,0.1,0.1,0.1,0.1C57.9,140.5,58,140.6,58.1,140.7z"/>
	<path class="st6" d="M162.4,141.3c0,3.2,0,6.4,0,9.5c0,0.8,0,1.8-1,1.9c-0.6,0-1.3-0.5-1.8-1c-0.3-0.2-0.5-0.7-0.7-1.1
		c-1.9-4.6-3.5-9.3-5.7-13.7c-1.8-3.6-3.7-7.3-6.7-10.2c-0.9-0.9-1.7-1.9-2.4-2.9c-0.9-1.4-0.3-2.2,1.3-2.2c4.1,0,8.1,0.1,12.2,0.2
		c0.5,0,1.1,0.4,1.3,0.8c0.5,1,0.9,2.2,1.3,3.3c0.6,1.7,1.3,3.3,1.9,5c0.1,0.3,0.2,0.7,0.2,1c0,3.2,0,6.4,0,9.5
		C162.3,141.3,162.4,141.3,162.4,141.3z"/>
	<path class="st6" d="M153,102.5c0.3-1.5,0.6-2.9,0.9-4.3c0.3-1.4,0.5-2.9,0.9-4.3c0.2-0.7,0.8-1.4,1.4-1.8c2.8-1.6,6.3,0.3,6.5,3.5
		c0.1,1.6,0.7,2.9,1.4,4.2c0.8,1.5,1.4,3,1.9,4.6c0.4,1.3-0.1,2.6-0.9,3.7c-0.9,1.2-1.7,2.5-2.6,3.7c-0.5,0.7-1.2,1.2-1.9,1.6
		c-0.8,0.5-1.5,0.2-2.1-0.5c-1.6-1.8-2.8-3.8-3.7-6.1c-0.3-0.9-1-1.6-1.4-2.5C153.2,103.8,153.1,103.1,153,102.5z"/>
	<path class="st7" d="M64.2,100.4c0.3-2.5,1.7-4.1,3.6-3.9c0.7,0.1,1.6,0.5,1.9,1.1c0.9,1.3,1.5,2.7,2.2,4.1
		c0.8,1.5,1.5,2.9,2.3,4.4c1.1,2.1,2.2,4.2,3.3,6.3c0.7,1.4,1.3,2.8,2,4.2c0.3,0.7,0.7,1.4,0.8,2.1c0.1,0.5-0.1,1.2-0.4,1.5
		c-0.3,0.3-1,0.1-1.5,0c-0.3-0.1-0.7-0.3-0.9-0.5c-2.2-2.4-4.8-4.4-6.4-7.4c-1.6-3-3.7-5.7-5.5-8.6C65,102.7,64.7,101.5,64.2,100.4z
		"/>
	<path class="st8" d="M45.1,150.3c-0.9-1.2-2.2-1.2-3.5-1.1c-1.8,0.1-2.8-0.7-3.7-2.1c-0.5-0.9-0.3-1.5,0.6-1.9
		c1.9-0.7,3.7-0.8,5.4,0.6c1.2,1,2.7,1.3,4.1,1.8c2.7,0.9,5.3,0.1,8,0.5c0.8,0.1,1.7-0.3,2.6-0.3c0.7,0,1.5,0.2,1.7,1.2
		c0.2,1-0.4,1.5-1.1,1.8c-1.5,0.7-3,1.4-4.6,2c-0.7,0.3-1.5,0.3-2.2,0.4c-0.8,0.2-1.7,0.5-2.5,0.5c-1.6,0-3.2,0-4.8-0.2
		c-0.9-0.1-1.1-1.2-0.7-2C44.6,151.1,44.8,150.7,45.1,150.3z"/>
	<path class="st7" d="M43,75.7c0.9,0.2,1.9,0.3,2.8,0.6c2.3,0.8,4.6,1.6,6.8,2.4c0.4,0.1,0.8,0.3,1.2,0.5c0.8,0.6,1.4,1.3,1.2,2.4
		c-0.2,1-1,1.4-1.9,1.6c-1.7,0.4-3.4,0.8-5.1,1.1c-2.5,0.3-5.7-0.5-6.8-3.2c-0.2-0.6-0.7-1-1-1.6c-0.3-0.6-0.7-1.5-0.4-2
		c0.3-0.6,1.2-1,1.9-1.4c0.4-0.2,0.9-0.1,1.3-0.1C42.9,75.9,43,75.8,43,75.7z"/>
	<path class="st7" d="M132.6,54.7c-0.2,1.5-0.6,2.9-1.9,3.5c-1.3,0.7-2.9,0.7-4.2-0.2c-1.2-0.8-2.4-1.6-3.5-2.5
		c-1.5-1.2-1.7-2.4-0.8-4.3c0.7-1.6,2.1-2.4,3.8-2.1c2.4,0.4,4.4,1.7,5.8,3.6C132.2,53.3,132.4,54.1,132.6,54.7z"/>
	<path class="st9" d="M124.3,207.3c-0.6,0.5-1,1.1-1.3,1c-0.4,0-0.7-0.6-1.1-1c0.4-0.4,0.8-0.8,1.3-1.1
		C123.3,206.2,123.8,206.8,124.3,207.3z"/>
	<path class="st2" d="M215.9,110.3c-0.1-0.5-0.3-1.1-0.4-1.6c0.3,0.2,0.6,0.4,0.9,0.7c0,0.1,0,0.2,0,0.2c0,0.4,0,0.8,0,1.4
		C216.2,110.6,216.1,110.5,215.9,110.3z"/>
	<path class="st3" d="M214.7,107.6c-0.3-0.4-0.6-0.7-0.9-1.1c0.3,0,0.5-0.1,0.9-0.2C214.7,106.8,214.7,107.2,214.7,107.6z"/>
	<path class="st2" d="M181.1,81.5c0.3,0.2,0.5,0.4,0.8,0.6c-0.2,0.2-0.3,0.4-0.7,0.7C181.1,82.1,181.1,81.8,181.1,81.5z"/>
	<path class="st2" d="M204.3,101.8c0.2,0.2,0.5,0.4,0.7,0.7c-0.1,0.2-0.1,0.3-0.2,0.5c-0.1,0-0.2,0-0.3,0.1
		C204.5,102.6,204.4,102.2,204.3,101.8z"/>
	<path class="st2" d="M172.8,75.4c0.3,0.2,0.6,0.3,0.9,0.5c-0.3,0-0.7,0.1-1.2,0.2C172.6,75.8,172.7,75.6,172.8,75.4z"/>
	<path class="st2" d="M194.9,93c0.2,0.2,0.4,0.4,0.6,0.5c-0.4,0.1-0.7,0.1-1.1,0.2c0-0.1-0.1-0.2-0.1-0.2
		C194.5,93.4,194.7,93.2,194.9,93z"/>
	<path class="st2" d="M209.7,106.4c0.1,0.1,0.2,0.1,0.3,0.2c-0.5,0.2-0.9,0.3-1.4,0.5c0-0.1-0.1-0.2-0.1-0.3
		C208.9,106.7,209.3,106.6,209.7,106.4z"/>
	<path class="st2" d="M192.8,91.3c0.2,0.2,0.5,0.4,0.7,0.6c-0.4,0-0.8,0-1.4,0.1C192.5,91.6,192.7,91.5,192.8,91.3z"/>
	<path class="st2" d="M199.1,97.1c-0.2,0.2-0.3,0.4-0.5,0.6c-0.1-0.1-0.2-0.2-0.2-0.2C198.6,97.3,198.9,97.2,199.1,97.1
		C199.1,97.1,199.1,97.1,199.1,97.1z"/>
	<path class="st2" d="M199.5,97.3c0.2,0.2,0.4,0.4,0.6,0.6c-0.2,0.1-0.4,0.3-0.6,0.5C199.5,98,199.5,97.6,199.5,97.3z"/>
	<path class="st2" d="M171.3,73.9c0.3,0.2,0.6,0.5,0.8,0.7C171.9,74.4,171.6,74.2,171.3,73.9z"/>
	<path class="st2" d="M197.8,95.7c0.3,0.2,0.5,0.5,0.8,0.7C198.3,96.2,198.1,95.9,197.8,95.7z"/>
	<path class="st2" d="M215.4,108.4c-0.2-0.3-0.5-0.5-0.7-0.8C215,107.9,215.2,108.2,215.4,108.4z"/>
	<path class="st2" d="M184.9,84.2c0.2,0.2,0.5,0.3,0.7,0.5C185.4,84.6,185.2,84.4,184.9,84.2z"/>
	<path class="st2" d="M207.8,104.9c0.2,0.2,0.5,0.4,0.7,0.6C208.3,105.3,208.1,105.1,207.8,104.9z"/>
	<path class="st2" d="M195.7,93.7c0.2,0.2,0.5,0.4,0.7,0.6C196.1,94.1,195.9,93.9,195.7,93.7z"/>
	<path class="st2" d="M190.9,89.7c0.2,0.2,0.4,0.3,0.6,0.5C191.3,90,191.1,89.8,190.9,89.7z"/>
	<path class="st2" d="M212.8,105.3c-0.2-0.2-0.3-0.4-0.5-0.6C212.5,105,212.6,105.2,212.8,105.3z"/>
	<path class="st2" d="M190.4,89.2c0.2,0.2,0.3,0.3,0.5,0.5C190.8,89.5,190.6,89.4,190.4,89.2z"/>
	<path class="st3" d="M228,123.5c0-0.1,0-0.2,0.1-0.2c0,0,0.2,0,0.2,0.1c0,0,0,0.2-0.1,0.2C228.1,123.6,228,123.5,228,123.5z"/>
	<path class="st2" d="M186.6,85.6c0.2,0.2,0.3,0.3,0.5,0.5C186.9,86,186.8,85.8,186.6,85.6z"/>
	<path class="st2" d="M194.7,94.4c0,0,0.1,0.1,0.1,0.1c0,0,0,0.1-0.1,0.1c-0.1,0-0.1,0-0.2-0.1C194.7,94.5,194.7,94.5,194.7,94.4z"
		/>
	<path class="st3" d="M226.4,119c0,0.1,0,0.2,0,0.4c0,0-0.1,0-0.1,0C226.3,119.3,226.3,119.2,226.4,119
		C226.3,119,226.3,119,226.4,119z"/>
	<path class="st3" d="M216.4,109.5c0-0.1,0-0.2,0-0.2C216.4,109.4,216.4,109.5,216.4,109.5z"/>
	<path class="st2" d="M205.4,104.1C205.5,104.1,205.5,104.1,205.4,104.1C205.5,104.1,205.5,104.1,205.4,104.1L205.4,104.1z"/>
	<path class="st2" d="M205.4,104.1C205.4,104,205.4,104,205.4,104.1C205.4,104,205.4,104,205.4,104.1L205.4,104.1z"/>
	<path class="st3" d="M227.2,119.8C227.1,119.8,227.1,119.8,227.2,119.8C227.1,119.8,227.1,119.8,227.2,119.8L227.2,119.8z"/>
	<path class="st10" d="M78.6,39.9c-1.9,0.1-3.5,0.5-5.1,0.4c-6.1-0.4-4.6-0.2-10,1.8c-0.6-0.7-0.5-1.4,0.4-1.8
		c0.9-0.4,1.8-0.7,2.7-1.1c0.6-0.3,1.3-0.5,1.9-0.9c0.9-0.7,0.9-1.4-0.1-2.2c-1.2-1-2.4-2-3.6-3.1c-0.3-0.3-0.5-0.8-0.4-1.1
		c0-0.3,0.5-0.6,0.8-0.7c2.8-0.5,5.5-0.2,7.7,1.8c1.9,1.7,3.5,3.6,5.2,5.5C78.5,38.6,78.5,39.2,78.6,39.9z"/>
	<path class="st11" d="M75.5,42.2c0.2,2.1-1.8,4.6-4,4.8c-1.6,0.1-3.2-0.1-4.7-0.2c-0.2,0-0.4-0.1-0.6-0.2c-0.3-0.3-0.5-0.7-0.8-1.1
		c0.4-0.1,0.8-0.4,1.2-0.3c1.2,0.1,2.4,0.4,3.6,0.3c1.6-0.1,3-0.9,4.1-2.2C74.7,42.9,75.1,42.6,75.5,42.2z"/>
</g>
</svg>
