<?xml version="1.0" encoding="UTF-8" standalone="no"?>
<svg width="100%" height="100%" viewBox="0 0 597 513" version="1.1"
    xmlns="http://www.w3.org/2000/svg" xmlns:xlink="http://www.w3.org/1999/xlink"
    xml:space="preserve" xmlns:serif="http://www.serif.com/"
    style="fill-rule:evenodd;clip-rule:evenodd;stroke-linejoin:round;stroke-miterlimit:2;">
    <g id="DSK" transform="matrix(1,0,0,1,-78,-139)">
        <g transform="matrix(1,0,0,1,0,1)">
            <path d="M91.7,340.7L661.3,340.7L661.3,451.4L91.7,451.4L91.7,340.7ZM352.9,524.5C355.4,525.5 357.3,526.1 360.4,526.7C360,528.6 359.8,529.5 359.4,531.4C357.1,530.9 356,530.6 353.8,529.9C353.3,531.5 353,532.3 352.5,533.9C354.6,534.6 355.6,534.9 357.7,535.3C357.3,537.1 357.1,538.1 356.7,539.9C354.6,539.4 353.5,539.1 351.6,538.5C351.4,538.4 351.2,538.4 351,538.3C350.5,539.9 350.2,540.7 349.7,542.2C350.3,542.4 350.7,542.5 351.2,542.7C353.1,543.3 354.5,543.6 356.7,544.1C356.5,545 356.4,545.7 356.2,546.4C356,547.1 355.9,547.9 355.7,548.8C349.6,547.6 346.6,546.6 340.9,544C344.7,535.7 346.6,531.6 350.4,523.3C351.5,523.9 352.2,524.2 352.9,524.5M385.2,548.6C382.1,549.3 380.5,549.6 377.4,550C376.7,548.5 376.4,547.8 375.8,546.4C373.8,546.6 372.4,546.7 370.8,546.7L368.2,546.7C368.1,547.1 367.9,547.4 367.8,547.7C367.5,548.6 367.2,549.3 366.8,550.4C363.7,550.3 362.2,550.1 359.1,549.6C359.6,548.7 360.1,547.9 360.5,547.1C361.7,545.1 362.6,543.2 363.5,541.4C364.1,540.2 364.6,539 365.1,537.8C366.3,534.8 367.3,531.7 368.5,527.6C370.4,527.6 371.5,527.6 373.1,527.5L373.5,527.5C373.7,527.5 373.9,527.5 374.2,527.401C377.2,535.401 379.3,539.7 383.8,546.401C384.2,547.1 384.6,547.8 385.2,548.6M393.4,527.2C395.1,529.3 396.7,531.1 398.1,532.7C397.6,531.3 397.4,530.7 396.9,529.3C396.4,528 396,526.7 395.6,525.4C394.9,523.4 394.6,522.4 393.8,520.5C396.1,519 397.2,518.2 399.2,516.4C401.2,518.2 402.9,519.7 404.5,521C408.4,524.3 411.8,526.9 417.2,530.6C414.9,532.9 413.7,534 411.2,535.9C409.3,534.1 407.9,532.6 406.5,531.2C404.5,529.2 402.7,527.3 400.2,524.6C402.7,530.5 403.8,533.6 405.5,540C404,540.9 403.2,541.4 401.9,542.1C401.6,542.3 401.3,542.4 400.9,542.6C400.3,542 399.8,541.5 399.3,541C395.7,537.4 393.6,534.9 390.1,530.4C391.6,534.9 392.4,537.8 393.5,541.6C393.8,542.8 394.2,544.1 394.6,545.6C391.9,546.7 390.5,547.2 387.7,547.9C387.7,547.5 387.6,547.2 387.6,546.8C386.6,538.4 385.8,533.8 383.9,525.3C386.3,524.5 387.5,524 389.9,522.8C391.1,524.3 392.3,525.8 393.4,527.2M334.1,518.2L337.7,514.6C341.1,518 343.2,519.6 346.9,521.7C347.2,521.9 347.5,522 347.8,522.2C346.8,524 346.3,524.9 345.3,526.8C345.1,526.7 345,526.6 344.9,526.6C343.8,526 343.1,525.6 341.9,524.8C339.1,529.1 337.3,531.8 335,535.3C334.2,536.5 333.3,537.9 332.3,539.4C329.6,537.6 328.3,536.7 325.8,534.5C330.3,529.1 332.6,526.5 337.2,521.1C335.8,519.9 335.2,519.4 334.1,518.2M400.6,638.2C337.5,643.6 279.9,627.9 229.1,590C219.1,582.5 209.8,574.5 201.2,565.9C173.2,537.8 153.1,503.9 141,464.3L216.2,464.3C222.3,477.1 229.2,489.2 238.1,500.1C242.6,505.6 247,511.4 252.2,516.3C261.5,525.2 271.5,533.4 282.6,540.3C300.8,551.7 320.3,559.3 341.4,563.3C354.4,565.8 367.4,566.9 380.5,566.2C399.7,565.1 418.3,561 436.2,553.7C451.9,547.3 466.4,538.9 479.4,528.1C495.5,514.8 509.4,499.4 519.7,481C522.4,476.2 524.7,471.2 527.4,466.4C527.9,465.4 529.3,464.3 530.3,464.3C557.7,464.2 585,464.2 612.4,464.3C612.7,464.3 613.1,464.5 613.4,464.6C589.8,551.5 505.7,629.3 400.6,638.2M456.4,307.1C454.5,305.2 453.6,304.3 451.6,302.6C455.7,297 457.7,294.1 461.6,288.4C456.6,291.7 453.8,293.8 449.7,296.9C448.9,297.5 448.1,298.2 447.2,298.9C445.8,297.8 445.1,297.2 443.7,296.2C446.5,289.6 447.8,286.3 450.2,279.5C445.6,284.8 443.4,287.4 439,292.8C437.8,292 437,291.5 436.1,290.9C435.6,290.6 435,290.2 434.4,289.8C434.2,289.7 434.1,289.6 433.9,289.5C434.9,288.2 435.9,287 436.8,285.8C438.1,284.2 439.2,282.7 440.4,281.3C443.1,277.9 445.7,274.9 449.3,270.7C449.5,270.4 449.7,270.2 450,269.9C451.7,271 452.9,271.8 454.1,272.6C455.3,273.4 456.5,274.3 458.1,275.5C456,280.7 454,285 452.2,288.6C453.4,287.6 454,287 455.2,286C456,285.3 456.9,284.6 457.7,284C458.1,283.7 458.4,283.5 458.8,283.2C460.7,281.8 461.6,281.1 463.5,279.8C464.6,280.7 465.5,281.5 466.4,282.2C468,283.5 469.3,284.8 471.3,286.6C469.5,289.3 467.9,291.6 466.4,293.7C463.3,298 460.6,301.6 456.4,307.1M279.3,283.6C280,283 280.7,282.4 281.4,281.8C283.2,280.2 285.2,278.7 287.7,276.8C289.1,278.6 289.8,279.5 291.2,281.4C290,282.3 289.2,282.9 288.3,283.7C287.9,284 287.5,284.3 287.1,284.7C292,290.7 294.5,293.7 299.4,299.7C297.4,301.4 296.3,302.3 294.4,304.1C289.1,298.4 286.5,295.6 281.2,289.9C280.4,290.6 279.9,291.1 279.3,291.7C278.7,292.3 278.1,292.8 277.4,293.6C275.8,292 275,291.2 273.3,289.5C275.6,287 277.4,285.2 279.3,283.6M327.6,282.3C327.5,282.3 327.4,282.4 327.3,282.4C323.4,273.4 321.4,268.8 317.6,260.1C317.5,259.9 317.4,259.6 317.3,259.4C319.9,258.3 322,257.4 324,256.7C326.2,255.9 328.4,255.2 331.2,254.3C331.4,254.2 331.6,254.2 331.8,254.1C332.4,256.1 332.7,257.1 333.4,259.2C330.5,260.1 329.1,260.6 326.3,261.6C326.9,263.3 327.3,264.2 327.9,265.9C330.3,265 331.4,264.6 333.8,263.9C333.9,264.2 334,264.5 334.1,264.8C334.5,266.2 334.9,267.2 335.4,268.8C333.1,269.5 332,269.9 329.7,270.8C330.3,272.5 330.7,273.4 331.3,275.1C333.3,274.4 334.5,273.9 336.2,273.4C336.7,273.3 337.1,273.1 337.7,272.9C338.1,274.2 338.4,275 338.7,276C338.9,276.6 339.1,277.2 339.3,278C335.6,279.1 333.4,279.9 330.5,281.1C329.6,281.5 328.7,281.8 327.6,282.3M318.5,286.7C317.9,287 317.2,287.4 316.4,287.9C314.3,284.3 313.3,282.4 311.3,278.8C309.8,279.7 308.8,280.2 307.6,281C307.1,281.3 306.6,281.6 306,282C308.2,285.5 309.3,287.3 311.6,290.8C309.4,292.2 308.4,292.9 306.3,294.4C301.4,287.6 298.6,283.6 294.4,277.7C293.6,276.5 292.7,275.3 291.7,273.9C293,273 294,272.3 295,271.6C296,271 296.9,270.3 298.2,269.5C300.2,272.7 301.2,274.2 303.2,277.4C304.1,276.9 304.8,276.4 305.4,276C306.4,275.4 307.4,274.8 308.7,274.1C306.9,270.9 306,269.2 304.1,266C305.8,265 307,264.4 308.3,263.7C309,263.4 309.7,263 310.5,262.6C310.7,262.5 310.8,262.5 311,262.4C315.5,271.4 317.7,275.9 322.1,284.9C321.6,285.1 321.2,285.3 320.8,285.6C319.9,286 319.2,286.3 318.5,286.7M365.9,249.7C366.5,250 367,250.3 367.5,250.6C367.7,250.7 367.8,250.8 368,250.9C370.6,252.9 371.8,256 371.8,260C371.8,263.1 371.3,265.5 370.3,267.4C370.1,267.8 369.8,268.2 369.6,268.6C368.7,269.9 367.5,271 366.1,271.7C364.3,272.7 362.3,273.3 360.1,273.5C357.7,273.8 356.5,274 354.1,274.4C352.8,266.7 352,261.9 350.9,255.5C350.6,253.7 350.3,251.8 349.9,249.6C350.1,249.6 350.3,249.5 350.5,249.5C352.1,249.2 353.2,249.1 354.6,248.9C354.9,248.9 355.3,248.8 355.7,248.8C356.1,248.8 356.5,248.7 356.9,248.6C359.3,248.3 361.4,248.4 363.3,248.8C364.2,249.1 365.1,249.4 365.9,249.7M393.6,251.2C395.4,252.9 396.1,254.9 395.7,257.2C395.5,258.4 394.9,259.5 394.1,260.5C393.2,261.5 392.1,262.2 390.7,262.6C392.3,267.4 392.9,269.8 394.1,274.6C392.9,274.4 392,274.2 391.2,274.1C390.1,273.9 389.1,273.8 387.7,273.6C386.2,268.8 385.4,266.4 383.6,261.7L383.5,261.7C383.4,262.9 383.3,263.9 383.3,264.8C383.1,267.6 382.9,269.7 382.7,273.1C382.4,273.1 382.1,273.1 381.8,273C379.9,272.9 378.7,272.8 376.5,272.8C376.7,263.1 376.8,258.1 377,248.8L375.9,248.8C375.9,248.5 375.9,248.2 376,247.9L376,247.8C376.4,247.8 376.7,247.9 377.1,247.9L377.1,247.6C380.6,247.7 382.4,247.8 385.9,248.1C387.3,248.2 388.5,248.4 389.6,248.8C391,249.4 392.5,250.2 393.6,251.2M415.7,259.6C413.7,259 412.4,258.6 410.8,258.1C410.1,257.9 409.4,257.7 408.6,257.5C408.5,257.8 408.4,258.2 408.4,258.4C408.1,259.6 407.9,260.5 407.5,261.9C409.9,262.5 411.1,262.9 413.5,263.6C412.9,265.6 412.6,266.6 411.9,268.6C410.6,268.2 409.6,267.9 408.6,267.6C407.9,267.4 407.1,267.2 406.2,266.9C406,267.8 405.8,268.4 405.6,269.1C405.4,269.8 405.2,270.5 405,271.4C407.6,272.1 408.9,272.5 411.5,273.3C411,274.8 410.7,275.7 410.3,276.9C410.2,277.4 410,277.8 409.8,278.4C409.7,278.4 409.6,278.3 409.5,278.3C408.6,278 407.8,277.8 407,277.5C403.8,276.5 401.4,276 397.5,275.2C399.5,265.5 400.5,260.5 402.5,250.9C402.5,250.8 402.5,250.7 402.6,250.6C408.6,251.8 411.6,252.6 417.4,254.5C416.7,256.6 416.4,257.6 415.7,259.6M432,288.3C430.6,287.5 429.6,287 428.6,286.4C427.9,286.1 427.2,285.7 426.4,285.3C426.3,285.3 426.3,285.2 426.2,285.2C426.6,283.5 426.7,282.7 427.1,281C424.6,279.8 423.4,279.2 420.8,278.1C419.8,279.4 419.2,280.1 418.3,281.4C418.3,281.5 418.2,281.5 418.2,281.6C418,281.5 417.8,281.5 417.7,281.4C415.7,280.6 414.5,280.1 412.2,279.4C418.2,270.9 421.5,266.8 428.6,259C428.6,258.9 428.7,258.9 428.7,258.9C431.9,260.2 433.4,260.9 436.5,262.5C435.8,268.5 435.2,272.8 434.4,277.2C433.8,280.4 433,283.9 432,288.3M341.3,154.7C409.6,145 472.2,160.9 527.4,202.5C559,226.3 583,255.7 599.7,290.5C605.3,302.1 610,314.3 614,327.1L533.8,327.1C531.4,327.1 529.9,326.7 528.9,324.3C522.9,310.2 515.1,297.1 505.3,285.5C498.4,277.3 490.4,269.9 482.6,262.4C477.7,257.7 472.3,253.5 466.6,249.8L466.6,248.9L465.2,248.9C460,245.6 454.6,242.5 449.1,239.7C437.1,233.5 424.5,228.7 411.3,225.9C402.7,224.1 393.9,223.1 385.1,222.1C379.4,221.5 373.7,221.2 368,221.3C353.8,221.7 339.9,223.9 326.2,227.7C309.6,232.3 294.2,239.4 279.9,248.8L279.4,248.8L279.4,249.1C279,249.4 278.5,249.7 278.1,250C270.8,254.9 264.1,260.9 257.4,266.7C251.9,271.4 246.9,276.5 242.2,282C238.2,286.7 234.5,291.7 231.1,296.9C225.7,305.2 221.4,314.2 216.8,322.9C216.1,324.2 215.5,325.2 214.6,326C213.7,326.7 212.6,327.1 210.8,327.1C187.8,326.9 164.8,327 141.8,327C142.6,308.6 173.4,254.8 193.8,233.1C205.2,221 217.2,210.2 229.9,200.6C262.3,176.3 299.3,160.6 341.3,154.7M670.8,327.1C657.7,327 644.6,327 631.5,327L628.4,327C623.4,314.3 618.7,302.2 613.7,290.1C606.7,273.2 596.9,257.9 586.2,243.3C575.3,228.5 562.4,215.4 548.7,203.2C537.4,193.1 525.2,184.1 512.3,176.3C492.9,164.7 472.5,155.1 450.6,149.3C439,146.2 427.3,143.9 415.5,141.8C407.9,140.5 400.1,140.2 392.4,139.4C391.9,139.3 391.4,138.9 390.9,138.6L363.9,138.6C363.7,138.7 363.5,138.7 363.3,138.8C362.7,139 362.2,139.3 361.6,139.3C346.9,139.6 332.5,142.2 318.2,145.4C297.5,150.2 277.6,157.4 258.7,167.1C242.9,175.3 227.7,184.6 214.2,196.3C204.6,204.6 195,212.9 186.3,222.1C173.2,236 161.9,251.3 152.3,267.9C142.4,285.3 134.4,303.3 129,322.3C127.9,326.2 126.2,327.1 122.8,327.1L121.8,327.1C108.7,326.8 95.5,327 82.4,327C81,327 79.5,327.4 78.1,327.7L78.1,464.2C93.6,464.2 109.2,464.2 124.7,464.1C126,464.1 126.8,464.4 127.4,465.1C127.8,465.6 128.1,466.2 128.4,467.1C131.7,476.9 134.9,486.9 138.9,496.4C140.3,499.8 141.9,503.2 143.5,506.5C148.4,516.9 154.1,526.8 160.7,536.2C161.6,537.5 162.6,538.9 163.6,540.2C165.4,542.7 167.3,545.2 169.2,547.7C173.2,552.8 177.2,557.9 181.4,562.8C182,563.5 182.7,564.3 183.3,565C187.2,569.5 191.2,574 195.5,578.2C196.9,579.6 198.4,581 199.8,582.3C214.4,595.7 230.3,607.4 247.4,617.5C264.1,627.3 281.8,634.8 300.1,640.6C311.3,644.1 322.8,646.4 334.4,648.5C343.7,650.2 353.2,650.6 362.7,651.7C363.1,651.7 363.4,652.2 363.8,652.4L390.8,652.4C391.8,652.1 392.8,651.7 393.8,651.6C407.5,651.1 420.9,648.8 434.3,646C449.5,642.7 464.5,638.4 478.6,631.9C491.9,625.8 505,618.8 517.6,611.3C523.8,607.6 529.6,603.6 535.3,599.2C543.2,593.2 550.6,586.5 557.9,579.6C558.2,579.3 558.5,579.1 558.7,578.8L558.9,578.6C571.3,566.6 582.6,553.7 592.3,539.6C606.4,519 617.5,496.8 625,472.901C625.9,470.1 626.7,467.3 627.7,464.1L671.8,464.1C673,464.1 674.2,464.6 675.3,464.901L675.3,328.4C673.6,328 672.2,327.1 670.8,327.1" style="fill-rule:nonzero;"/>
        </g>
        <g transform="matrix(1,0,0,1,371.4,543.5)">
            <path d="M0,-9.7C-0.4,-6.5 -1,-3.3 -2,0C-0.6,0 0.2,0 1.3,-0.1C1.7,-0.1 2.1,-0.2 2.6,-0.2C2.5,-0.5 2.4,-0.8 2.3,-1.1C1.2,-4 0.5,-6.9 0,-9.7" style="fill-rule:nonzero;"/>
        </g>
        <g transform="matrix(1,0,0,1,420.7,577.5)">
            <path d="M0,33.8C0,34 0.1,34.1 0.1,34.3L-5.2,34.3C-6.3,29.9 -7.4,25.4 -8.5,20.9C-4.4,25 -0.601,28.8 2.899,32.4C2.3,32.7 1.1,33.3 0,33.8M23.6,27.4C21.2,28.7 20.2,26.9 19.1,25.6C18,24.3 17,22.9 15.8,21.6C10.6,16.4 5.399,11.2 0.2,6.1C1.7,2.9 3.2,-0.1 5.399,-2.4C5.6,-2.6 5.8,-2.8 5.899,-2.9C6,-3 6,-3 6.1,-3.1C7.7,-4.5 9.7,-5.6 12.2,-6.2C9.6,-7.9 -3.2,-5.2 -6.2,-2.3L-6.5,-2L-2.101,-2C0.6,-2.099 1.399,-1 0,1.3C-3,6.4 -6.101,11.4 -9.5,17C-11,11.2 -12.3,6 -13.601,0.7C-11.9,0.1 -10.5,-0.4 -9.101,-0.9L-9.101,-1.9C-10.5,-1.9 -11.9,-2.2 -13.3,-1.9C-16.7,-1.099 -20.101,0.5 -23.601,0.7C-27.8,0.901 -32,5.8 -36.4,1.1C-36.7,0.8 -37.8,1.401 -38.5,1.5C-40.5,1.7 -42.601,2.1 -44.5,1.901C-47.6,1.6 -50.7,0.7 -53.8,0.3C-56.3,0 -59.1,1.3 -61.4,3.401C-64.7,6.5 -67,11.5 -65.5,16.1C-64,21.1 -60.6,24.1 -56.4,26.7C-53,28.8 -49.5,30.8 -46.3,33.2C-45.4,33.901 -44.9,35.901 -45.2,37.1C-45.3,37.3 -45.4,37.5 -45.6,37.8C-46.2,38.5 -47.4,39.1 -48.3,39.2C-49.7,39.5 -51.3,39.2 -52.6,38.8C-57.4,37.3 -60.6,34 -63,29.6C-63.8,28.2 -64.8,26.901 -65.6,25.6C-66,25.7 -66.4,25.901 -66.7,26L-66.7,40.6C-63.4,40.1 -60.1,38.6 -57.7,39.5C-53.7,40.901 -49.9,41.7 -45.8,41.5C-42.5,41.401 -39.5,39.901 -37.2,37.401C-35.9,35.901 -34.8,34.1 -34.101,32C-32.5,27 -34.101,21.901 -38.601,18.8C-43.4,15.5 -48.5,12.5 -53.3,9.1C-54.4,8.3 -55.2,6.1 -55,4.7C-55,4.5 -54.8,4.2 -54.5,3.901C-53.7,3.1 -52.2,2.401 -51.4,2.6C-48.6,3.2 -45.6,4 -43.5,5.8C-40.7,8.2 -38.8,11.5 -35.8,15.401C-35.5,11.1 -35.3,7.8 -35.101,5.6C-33,5.2 -31.8,5 -30.2,4.8C-29.8,5.5 -29.2,6.1 -29,6.901C-26.5,16.7 -24.101,26.6 -21.7,36.401C-21.4,37.7 -21.5,38.401 -22.2,38.8C-22.601,39.1 -23.101,39.2 -23.8,39.3C-24,39.3 -24.3,39.5 -24.5,39.6C-24.8,39.8 -25.101,40.2 -25.4,40.401C-25.5,40.401 -25.5,40.5 -25.601,40.5C-24.8,40.8 -24.101,41.1 -23.3,41.3C-23,41.401 -22.5,41.3 -22.2,41.2C-15.5,39.5 -8.7,37.8 -2,36C-1.4,35.8 -1,35.3 0.3,34.2C0.399,34.5 0.5,34.7 0.5,35C9.2,33.6 17.7,31.1 26.2,28.2C25.3,27.7 24.2,27.1 23.6,27.4" style="fill-rule:nonzero;"/>
        </g>
        <g transform="matrix(1,0,0,1,338.3,600)">
            <path d="M0,-16.6C-1.8,-9.299 -3.5,-1.9 -5.3,5.4C-5.7,7.1 -6.1,8.201 -6.7,8.9C-7.7,10.1 -9.5,10.1 -13.1,9.6C-10.2,-1.799 -7.4,-13.2 -4.5,-24.799C-4.1,-24.6 -3.8,-24.499 -3.5,-24.299C0,-22.6 0.9,-21.999 0.6,-19.799C0.6,-18.999 0.3,-17.999 0,-16.6M11.4,-19.299C8.6,-22.299 4.6,-24.499 -1,-25.6C-9.1,-27.299 -17,-29.799 -25,-31.9C-25.1,-30.9 -25.2,-30.1 -25.3,-29.499C-23.8,-29.2 -22.5,-28.9 -21.3,-28.7C-24.2,-17.299 -27,-5.999 -29.7,4.9C-31.6,5.1 -33,5.3 -34.5,5.501C-34.5,5.9 -34.4,6.3 -34.4,6.8C-25.5,9.001 -16.6,11.1 -7.8,13.4C-0.2,15.3 7.8,12.6 11.8,6.001C17.1,-2.9 17.5,-12.799 11.4,-19.299" style="fill-rule:nonzero;"/>
        </g>
        <g transform="matrix(1,0,0,1,421.7,360.001)">
            <path d="M0,72.099L0,0.099L8.3,0.099C9.6,-3.101 7.5,-2.801 5.7,-2.801L-31,-2.801C-31.8,-2.801 -32.4,-2.701 -32.9,-2.501C-33.8,-2.201 -34.3,-1.501 -34.7,-0.201C-36.8,6.399 -39.101,12.999 -41.4,19.599C-42.5,22.699 -43.7,25.799 -45.2,29.899C-48.2,21.299 -50.8,13.799 -53.4,6.299C-56.4,-2.601 -56.4,-2.701 -65.5,-2.701L-97.5,-2.701C-97.5,-1.801 -97.6,-0.701 -97.5,-0.701C-94.3,-0.201 -91.2,0.199 -87.9,0.699L-87.9,62.7C-87.9,69.899 -89.3,71.399 -96.5,72.399C-96.6,72.399 -96.7,72.399 -96.7,72.499L-96.8,72.499C-97.5,72.799 -98.1,73.7 -98.7,74.2C-98.5,74.499 -98.3,74.7 -98.1,74.999L-73.9,74.999C-73.7,74.599 -73.6,74.2 -73.4,73.899C-74.4,73.399 -75.3,72.499 -76.3,72.399C-76.9,72.299 -77.5,72.299 -78,72.2C-78.1,72.2 -78.2,72.2 -78.4,72.099C-78.7,71.999 -79,71.999 -79.3,71.899C-83,70.999 -84.3,68.7 -84.3,63.799L-84.3,7.699C-83.4,8.599 -83,9.499 -82.7,10.499C-75.7,31.299 -68.8,51.999 -61.7,72.7C-61.3,73.7 -59.8,74.999 -58.9,74.999C-57.9,74.999 -56.3,73.799 -55.9,72.799C-51.2,59.7 -46.8,46.499 -42.2,33.299C-39.101,24.499 -36,15.699 -32.601,5.999L-32.601,71.899C-41.101,73.099 -41.101,73.099 -41.101,75.2L7.2,75.2C8.8,74.999 9.1,74.099 8.2,72.099L0,72.099Z" style="fill-rule:nonzero;"/>
        </g>
        <g transform="matrix(1,0,0,1,275.4,360.4)">
            <path d="M0,71.7L-0.2,71.7C-0.6,71.801 -1.1,71.801 -1.5,71.9C-2.1,72 -2.6,72 -3.2,72L-5.2,72L-5.2,35.5C-4,35.3 -2.8,35.2 -1.8,35.2C5.6,35.1 8.9,39.1 8.9,47.4C8.9,52.1 9.2,56.9 8.8,61.6C8.4,66.2 7.8,68.6 5.9,70.001C4.6,70.9 2.8,71.301 0,71.7M-5.3,23.9L-5.3,0.4C1.9,-1.5 7.6,2.2 7.4,9.9C7.3,13.5 7.1,17.1 7.4,20.7C7.6,22.6 7.4,24.3 7.1,25.8C7,26.3 6.8,26.8 6.7,27.2C6.6,27.4 6.5,27.5 6.5,27.7C6.4,27.9 6.3,28 6.3,28.2C4.5,31.3 0.7,32.6 -5.2,31.9C-5.3,29.2 -5.3,26.5 -5.3,23.9M26.1,35.9C22.6,35.3 19.1,34.7 15.6,34.1C20.7,32.2 25.8,31.2 30.8,29.8C36.8,28 40.4,23.7 41,17.5C41.5,12.4 40.5,7.9 37.3,4.4C36.2,3.2 34.9,2.2 33.3,1.3C27.3,-2.1 20.7,-2.9 14.1,-3C-4,-3.3 -22.1,-3.1 -40.3,-3.1L-46.5,-3.1C-46.5,-2.2 -46.6,-1.2 -46.5,-1.1C-43.6,-0.5 -40.7,-0.1 -37.9,0.4L-37.9,71.5C-40.2,72.9 -43.3,71.1 -45.4,72.301C-45.6,72.4 -45.7,72.5 -45.9,72.6C-46.2,72.9 -46.5,73.2 -46.7,73.6C-46.5,74 -46.3,74.5 -46.1,74.9C-28.4,74.9 -10.6,75 7.1,74.801C13.3,74.7 19.5,74.301 25.5,73.2C30.9,72.301 36.3,70.301 39.3,65.4C44.1,57.6 44,47.9 38,41.7C35.3,38.9 31.3,36.801 26.1,35.9" style="fill-rule:nonzero;"/>
        </g>
        <g transform="matrix(1,0,0,1,511.8,386.6)">
            <path d="M0,19.4C-0.5,19.9 -0.8,20.7 -1.1,21.799C-2.7,28.4 -5.5,34.7 -10.399,39.5C-16.7,45.6 -24.6,46.7 -33.2,45.5L-33.2,10.799C-28.8,10.299 -24.6,11.799 -21.899,14.799C-21.1,15.7 -20.5,16.6 -20,17.7C-19,19.9 -18.5,22.4 -17.6,24.6C-17.5,24.9 -17.2,25.2 -16.899,25.4C-16.399,25.799 -15.6,26.299 -14.8,27L-14.8,-7.9C-17.6,-7.9 -17.8,-7.6 -18.3,-4.2C-19.3,2.2 -25.5,8.8 -33.1,7.1L-33.1,-26C-28,-26.5 -23.5,-26.2 -19.6,-25.2C-16.899,-24.5 -14.5,-23.3 -12.399,-21.9C-6.5,-17.7 -3.899,-11.6 -1.8,-5.1C-1.399,-3.9 -0.2,-3 0.7,-1.9C1,-2.1 1.3,-2.4 1.601,-2.6L1.601,-29.1L-74.5,-29.1C-74.5,-28.3 -74.6,-27.3 -74.5,-27.2C-71.6,-26.7 -68.7,-26.3 -65.899,-25.9L-65.899,45.6C-74.5,46.1 -74.5,46.1 -74,48.5L3.2,48.5L3.2,19.1C1.601,18.5 0.7,18.7 0,19.4" style="fill-rule:nonzero;"/>
        </g>
        <g transform="matrix(1,0,0,1,0,-1.6)">
            <path d="M188,438.9L104.3,438.9L104.3,355.3L188,355.3L188,438.9ZM191,351.7L190.9,351.6C190.8,351.5 190.7,351.4 190.5,351.4C190.4,351.3 190.2,351.3 190.1,351.3C190,351.3 189.9,351.2 189.8,351.2C189.6,351.2 189.3,351.1 189,351.1C172,351.2 155.1,351.3 138.1,351.4L120.9,351.4C115.2,351.4 109.4,351.4 103.7,351.3C101.2,351.3 99.5,351.6 100.5,354.7C100.7,355.3 100.5,355.9 100.5,356.6L100.5,436.8C100.5,438.8 100.3,440.7 100.2,442.5L192,442.5L192,354.8C192,353.4 191.8,352.3 191,351.7" style="fill-rule:nonzero;"/>
        </g>
        <g transform="matrix(1,0,0,1,0,1.9)">
            <path d="M647.8,436.9L564.2,436.9L564.2,353.2L647.8,353.2L647.8,436.9ZM650.1,349.4L643.9,349.4C619.2,349.4 594.4,349.4 569.7,349.3L563.5,349.3C562.6,349.3 562,349.4 561.5,349.7C561,349.9 560.7,350.3 560.5,350.7C560.4,351 560.3,351.3 560.3,351.7C560.3,352.1 560.2,352.5 560.2,352.9L560.2,353.3C560.3,370.4 560.2,387.5 560.2,404.6L560.2,440.8L651.4,440.8L651.4,349.6L651.3,349.6C650.8,349.5 650.5,349.4 650.1,349.4" style="fill-rule:nonzero;"/>
        </g>
        <g transform="matrix(1,0,0,1,413.7,175.9)">
            <path d="M0,37.3C0.5,34.4 0.899,31.7 1.399,29.1C1.7,27.5 2,26 2.3,24.5C2.899,21.9 3.7,19.3 4.8,16.9C5.1,16.2 6.6,16.1 7.6,15.7C7.8,16.5 8.3,17.4 8.3,18.2L8.3,18.5C7.3,23.7 6.2,28.8 5,33.9C4.899,34.1 4.899,34.4 4.8,34.6C4.8,34.7 4.8,34.8 4.7,34.9C4.3,35.8 3.8,36.8 3.3,38C8.5,39.1 14.1,40.3 19.5,41.4C18.899,39.8 18,38.4 17.899,37.2L17.899,36.7C18.5,32.5 19.6,28.3 20.6,24.2C20.7,23.7 20.8,23.3 20.899,22.8C21.899,15.8 17.6,10.9 10.899,12C9,12.3 7.3,13.3 4.8,14.2C5.899,8.8 6.899,3.8 7.899,-1.6C2.5,-1.5 -2.601,-4.1 -8.101,-3.1C-6.7,-2.9 -5.9,-2.5 -5.601,-1.7C-5.4,-1.2 -5.4,-0.5 -5.601,0.4C-8,11.1 -10.2,21.9 -12.5,32.7L-15.8,32.7C-15.8,33 -15.9,33.4 -15.9,33.7C-10.601,35 -5,36.2 0,37.3" style="fill-rule:nonzero;"/>
        </g>
        <g transform="matrix(1,0,0,1,272.2,223.2)">
            <path d="M0,-27.5L0.4,-27.5C3.2,-27.3 3.7,-24.7 4.7,-22.5C8.6,-13.5 12.6,-4.6 16.6,4.5C15.7,5.1 14.8,5.7 13.9,6.2C14.1,6.6 14.3,7 14.4,7.3C19.8,5 25.1,2.6 30.7,0.2C29,-1 27.4,-3.2 26.1,-5.8C23.2,-11.4 21.6,-18.6 23.8,-21.3C24.2,-20.4 24.6,-19.6 25,-18.7C27.8,-12.7 31.1,-7.3 32.1,-0.5C37.1,-2.7 42.5,-5.2 47.9,-7.6C47.9,-7.9 47.8,-8.2 47.8,-8.5C46.8,-8.3 45.7,-8.1 44.5,-7.9C42.1,-13.1 39.7,-18.4 37.1,-23.7C35.5,-26.8 33.7,-28.5 31.4,-28.6C30,-28.7 28.5,-28.2 26.7,-27.2C24.1,-25.7 22.3,-22.9 20,-20.6C18,-24.9 15.8,-29.9 13.5,-34.8C8.5,-32.3 3.8,-29.9 -0.9,-27.5C-0.7,-27.5 -0.4,-27.6 -0.2,-27.6C-0.2,-27.5 -0.1,-27.5 0,-27.5" style="fill-rule:nonzero;"/>
        </g>
        <g transform="matrix(1,0,0,1,214.4,248.3)">
            <path d="M0,7.9C4.6,13.5 9.3,13.7 16.9,10.8C20.9,9.3 24.9,8 29,7C30.1,6.7 32.1,7.7 32.7,8.7C33.2,9.7 32.9,11.6 32.2,12.7C28.9,18.2 22.2,19 15.8,17.8C14.4,17.5 13,17.5 11.5,17.3C11.4,17.6 11.3,17.9 11.3,18.1C12.4,19.1 13.5,20.1 14.6,21.2C16.9,23.4 19.3,25.6 21.9,28.1C22.7,25.9 23.2,24 24.1,22.1C24.5,21.1 25.3,20 26.2,19.7C31.4,17.5 35.1,13.9 37,8.6C38.4,4.7 38.2,0.7 35.8,-2.4C35.5,-2.9 35.1,-3.3 34.6,-3.7C31.7,-6.4 28.2,-8.2 23.8,-6.7C18.2,-4.7 12.6,-2.6 6.8,-1C5.4,-0.6 2.9,-1.2 2,-2.3C1.9,-2.4 1.8,-2.5 1.8,-2.7C1.4,-3.8 1.9,-5.9 2.6,-7C3.5,-8.4 5.3,-9.9 6.9,-10.2C10.3,-10.8 13.9,-10.5 17.4,-10.6L22.1,-10.6C17.9,-14.2 14.5,-17.1 10.9,-20.2C10.2,-18.1 9.8,-16.3 9.1,-14.7C8.7,-13.8 7.9,-12.9 7.1,-12.6C2.2,-10.7 -0.5,-7.1 -2.1,-2.3C-3.1,0.6 -2.8,3.2 -1.5,5.6C-1.1,6.4 -0.6,7.2 0,7.9" style="fill-rule:nonzero;"/>
        </g>
        <g transform="matrix(1,0,0,1,358.6,181.7)">
            <path d="M0,25.3C0,25.5 0.1,25.7 0.1,25.9L17.1,25.9C16.5,25 15.7,24.4 15.7,23.8C15.8,18.2 15.9,12.7 16.5,7.1C16.6,5.9 18.7,5 19.9,3.9C20.3,4.2 20.6,4.4 21,4.7C20.9,5.6 20.9,6.4 20.9,7.3C20.8,12.9 21.5,18.5 20.7,23.9C20.6,24.8 20.4,25.7 20.2,26.7L36.4,26.7C36.4,26.5 36.5,26.3 36.5,26.1C35.6,25.8 34.7,25.5 33.6,25.2C33.6,21.4 33.7,17.6 33.7,13.9C33.7,11.7 33.6,9.4 33.4,7.2C33.2,5 31.7,2.2 30,0.9C26.7,-1.4 20,0.2 17.2,3.2C16.7,3.8 16.1,4.2 14.9,5.2C14.9,5 15,4.8 15,4.5C15.2,2.7 15.4,1.4 15.5,0.4L15.5,-0L1.7,-0C1.9,0.5 2.1,0.9 2.2,1.3C2.7,2.5 3.2,3.5 3.3,4.4L3.3,4.7C3.4,6.1 3,7.5 3,8.9L3,24.4C1.9,24.7 1,25 0,25.3" style="fill-rule:nonzero;"/>
        </g>
        <g transform="matrix(1,0,0,1,334.1,210.3)">
            <path d="M0,-23.8C0.1,-23.9 0.1,-23.9 0.2,-23.9C0.3,-23.9 0.4,-24 0.5,-24C0.8,-24.1 1.1,-24.1 1.3,-24.1C3.1,-24.1 3.9,-22.7 4.3,-20.6C5.2,-15.2 6.4,-9.8 7.7,-4.5C8.2,-2.2 8.2,-0.1 5.6,0.6C5.3,0.7 5,0.7 4.7,0.7C2.8,0.7 2.1,-0.9 1.7,-2.8C0.9,-6.6 0.1,-10.4 -0.8,-14.5C-1.3,-16.7 -1.8,-18.9 -2.3,-21.3C-1.7,-22 -1,-23.2 0,-23.8M-13.2,-7C-13,-6.2 -12.6,-5.4 -12.3,-4.7C-11.9,-4 -11.5,-3.3 -10.9,-2.7C-10.2,-1.9 -9.5,-1.2 -8.8,-0.6C-8,0 -7.2,0.5 -6.4,0.9C-5.6,1.3 -4.7,1.7 -3.8,1.9C-2,2.4 -0.1,2.6 1.9,2.5C2.8,2.5 3.7,2.3 4.7,2.2C5.4,2.1 6.1,1.9 6.8,1.7C8.2,1.3 9.6,0.8 11,0.1C12.3,-0.5 13.5,-1.3 14.5,-2.1C15.2,-2.6 15.8,-3.2 16.3,-3.8C19.3,-7 20.2,-11.1 19.1,-16.1C18.4,-19.2 16.6,-21.7 14.1,-23.6C13.5,-24.1 12.8,-24.5 12.1,-24.8C11.4,-25.2 10.7,-25.5 9.9,-25.7C8.7,-26.1 7.5,-26.3 6.2,-26.4L4.9,-26.4C0,-26.4 -6.1,-24.2 -9.7,-21.2C-10,-20.9 -10.3,-20.6 -10.6,-20.3C-11.7,-19.1 -12.5,-17.6 -13.1,-16C-13.2,-15.6 -13.3,-15.2 -13.4,-14.8C-13.7,-13.6 -13.8,-12.3 -13.8,-11C-13.8,-10.1 -13.7,-9.3 -13.5,-8.4C-13.4,-7.8 -13.3,-7.4 -13.2,-7" style="fill-rule:nonzero;"/>
        </g>
        <g transform="matrix(1,0,0,1,505.6,270.9)">
            <path d="M0,-25.2C0,-24.8 0.101,-24.5 0.101,-24.1C5.9,-26.1 10.9,-25.7 14.5,-20.6C5,-19.3 -4.3,-17.9 -14.399,-16.5C-8,-9.3 -2.3,-2.9 3.5,3.6C4.301,4.5 5.2,5.5 6,6.4C8.4,4.5 11,2.4 13.7,0.2C7.801,0.5 2.2,-0 -2.3,-6C7.5,-7.4 16.601,-8.8 26.4,-10.2C19.601,-17.8 13.5,-24.6 7.301,-31.6C4.9,-29.3 2.4,-27.2 0,-25.2" style="fill-rule:nonzero;"/>
        </g>
        <g transform="matrix(1,0,0,1,483.9,242.1)">
            <path d="M0,-25.1C-4.4,-19.2 -8.9,-13.3 -13.101,-7.6C-14.5,-8.1 -15.601,-8.6 -16.801,-9.1C-17,-8.7 -17.2,-8.3 -17.301,-8C-11.301,-4.5 -6.9,1.2 -0.301,3.9C-0.101,3.6 0.1,3.3 0.199,3.1C-0.7,2.2 -1.601,1.3 -2.5,0.5C-0.601,-2.2 0.899,-4.3 2.1,-6C5.8,-11.1 7.5,-12.3 11.199,-12.9C11.1,-12.3 11.1,-11.6 10.899,-11.1C9.3,-7.2 11.8,-3.3 15.899,-2.7C17.899,-2.4 19.399,-3.1 20.6,-4.2C21.8,-5.3 22.5,-6.8 22.899,-8.4C23.5,-11 19.5,-15.2 16.399,-15.4C14,-15.5 11.6,-15.2 8.899,-15C10,-16.6 10.899,-18 11.899,-19.4C7.3,-22.6 2.8,-25.8 -1.801,-29C-2.101,-28.7 -2.4,-28.4 -2.7,-28.1C-2.4,-27.8 -2.101,-27.5 -1.801,-27.2C-1.301,-26.4 -0.7,-25.8 0,-25.1" style="fill-rule:nonzero;"/>
        </g>
        <g transform="matrix(1,0,0,1,463,221.8)">
            <path d="M0,-15.3C-0.7,-13.3 -1.7,-11.5 -2.7,-9.5C-3.1,-8.8 -3.4,-8.2 -3.8,-7.5C-5.5,-8.3 -7,-9 -8.9,-9.9C-7.5,-12.8 -6.3,-15.6 -4.7,-18.1C-4.2,-18.8 -2,-19.2 -1.3,-18.8C-0.5,-18.2 0.2,-16.7 0.1,-15.7C0.1,-15.5 0,-15.4 0,-15.3M-13.1,4C-8.8,6.3 -4,7.6 0.9,5.9C1.6,5.7 2.3,5.4 3,5C0.9,5.4 -1.2,5.8 -3.2,5.8C-6.6,5.9 -9.7,5 -11.8,1.6C-13.6,-1.2 -12.1,-5.1 -9.2,-8C-5.7,-6.3 -2.1,-4.6 1.4,-2.9C3.2,-2 5,-1.2 6.8,-0.3C7.2,-1.1 7.5,-1.9 7.7,-2.7C7.9,-3.3 8,-3.8 8.2,-4.4C8.3,-4.7 8.3,-5 8.4,-5.4C9,-8.9 8.4,-12.2 6.1,-15.1C5.5,-15.9 4.8,-16.6 4,-17.3C1.9,-19.1 -0.3,-20.5 -2.8,-21.5C-2.9,-21.5 -2.9,-21.5 -3,-21.6C-3.5,-21.8 -4.1,-22 -4.7,-22.2L-4.8,-22.2C-6.1,-22.6 -7.4,-22.8 -8.7,-22.9L-10.9,-22.9C-15.9,-22.7 -19.5,-20.3 -21.7,-16.4C-24,-12.4 -24.7,-7.5 -21.6,-3.5C-19.2,-0.6 -16.3,2.2 -13.1,4" style="fill-rule:nonzero;"/>
        </g>
        <g transform="matrix(1,0,0,1,266.6,216.1)">
            <path d="M0,27.6C1.5,26.9 2.9,26.1 4.3,25.2C5.3,24.6 6.3,23.9 7.2,23.1C7.6,22.8 7.9,22.6 8.3,22.3L8.9,21.7C12,18.8 13.3,14.3 11.9,10.7C11.7,12.5 12,13.7 11.5,14.5C10.7,15.7 9.9,17.1 9,18.3C8.1,19.5 7.2,20.6 6,21.4C4.8,22.2 1.1,21.5 0.1,20.2C-3.2,16.2 -6.1,11.7 -8.4,7.1C-9.2,5.6 -8.7,4 -7.6,2.9L-7.5,2.8C-7.3,2.6 -7.1,2.4 -6.9,2.3C-6.5,2 -6,1.8 -5.5,1.6C-4.6,1.3 -3.6,1.1 -2.6,1.2C-2.9,2.4 -3.2,3.4 -3.5,4.4C-3.6,4.6 -3.6,4.8 -3.7,5C-4.6,8 -2.5,11.5 0.4,11.2C2.6,11 5.2,9.9 6.7,8.4C6.8,8.3 6.9,8.2 6.9,8.1L7,8C8.7,5.8 7.4,3.1 5.7,1.4C4,-0.3 1.1,-2.2 -0.9,-1.8C-5.8,-0.8 -10.2,1.1 -13.6,4.6C-14.9,6 -16.1,7.6 -17.1,9.5C-19.6,14.6 -18.8,20.4 -15,24.5C-11,28.3 -4.8,29.8 0,27.6" style="fill-rule:nonzero;"/>
        </g>
        <g transform="matrix(1,0,0,1,335.8,172.3)">
            <path d="M0,6.9C0.2,7 0.4,7 0.7,7.1L1.7,7.1C2.3,7.1 2.9,7 3.4,6.8C3.4,6.8 3.5,6.8 3.5,6.7C4.7,6.2 5.4,5 5.4,2.7L5.4,2C5.2,1.9 5,1.7 4.7,1.4C4,0.8 3.2,-0.1 2.5,-0.2L2.2,-0.2C0.6,0.4 -1.3,2.1 -1.8,3.7C-2.1,5.1 -1.5,6.4 0,6.9" style="fill-rule:nonzero;"/>
        </g>
        <g transform="matrix(1,0,0,1,325.5,174.6)">
            <path d="M0,7.1C1.9,7.2 3.1,7 3.9,6.4C4.7,5.8 5.1,4.9 5.2,3.5C5.3,1.3 4.1,0 2.7,-0.1L2.1,-0.1C0.5,0.2 -1.3,2 -2,3.7C-2.1,3.9 -2,4.3 -1.8,4.6C-1.3,5.5 -0.3,6.5 0,7.1" style="fill-rule:nonzero;"/>
        </g>
        <g transform="matrix(1,0,0,1,127.3,361.5)">
            <path d="M0,65.2C-1.9,63.099 -3.7,61.2 -5.8,58.8C9.8,49.2 25.1,39.7 40.4,30.2C40.3,30 40.3,29.7 40.2,29.5L11.7,29.5C11.6,29.2 11.5,29 11.4,28.7C24.4,19.4 37.4,10.2 50.4,0.9C47,0.6 43.7,0.4 40.4,0.3L39.8,0.3C38.2,0.3 36.7,0.2 35.1,0.2C31.4,0.1 27.8,0.1 24.1,-0C20.5,-0.1 18.5,1.6 16.4,3.9C11.6,9.1 6.6,14 1.8,19.2C-4.1,25.5 -9.8,31.8 -16.3,38.8L0.9,38.8C-3,44.5 -6.6,49.599 -10.7,55.599C-12.8,53.2 -14.6,51.099 -16.5,49L-16.5,65.3L-4.3,65.3C-2.7,65.2 -1.3,65.2 0,65.2" style="fill-rule:nonzero;"/>
        </g>
        <g transform="matrix(1,0,0,1,577.3,373.6)">
            <path d="M0,45.7C-2.1,43.3 -3.899,41.2 -5.7,39.3L-5.7,55.4L10.5,55.4C8.601,53.3 6.8,51.4 4.7,49C20.3,39.4 35.601,29.9 50.9,20.4C50.9,20.2 50.8,20 50.8,19.8L22.3,19.8C22.2,19.5 22.101,19.2 22.101,18.9C35.101,9.7 48,0.4 61,-8.8C52,-9.7 43.3,-9.6 34.601,-9.7C32.7,-9.7 31.101,-9.7 29.7,-8.3C29.5,-8.1 29.3,-7.9 29.101,-7.6C26.8,-4.6 24.101,-1.9 21.4,0.8C15.601,6.8 9.7,12.7 3.9,18.8C0.9,21.9 -1.899,25.2 -5.6,29.3L11.601,29.3C7.7,34.6 4.2,39.7 0,45.7" style="fill-rule:nonzero;"/>
        </g>
        <g transform="matrix(1,0,0,1,383.9,259.1)">
            <path d="M0,-4.3C-0.101,-2.5 -0.2,-1.3 -0.4,0.8L0.399,0.8C2.899,0.8 4.3,0.1 4.5,-1.4C4.6,-2.6 4.399,-3.4 3.699,-4C3,-4.6 1.8,-5 0.1,-5.1C0,-4.8 0,-4.6 0,-4.3" style="fill-rule:nonzero;"/>
        </g>
        <g transform="matrix(0.804366,0.594134,0.594134,-0.804366,422.186,272.794)">
            <path d="M2.686,-1.256C4.469,-0.809 5.35,-0.655 7.193,-0.289C5.498,3.184 4.003,6.555 2.686,9.684L2.605,9.625C2.8,6.163 2.893,2.503 2.686,-1.256" style="fill-rule:nonzero;"/>
        </g>
        <g transform="matrix(1,0,0,1,359.1,269.2)">
            <path d="M1.2,-14.3L-1.2,-14.3C-0.5,-8.6 -0.2,-5.7 0.5,0L0.6,0C1.4,-0.2 2.1,-0.4 2.7,-0.7C3.5,-1.1 4.1,-1.6 4.5,-2.2C5.2,-3.3 5.5,-5.1 5.4,-7.6C5.3,-9.1 5.1,-10.3 4.7,-11.3C4.3,-12.3 3.8,-13 3.1,-13.5C2.4,-14 1.8,-14.3 1.2,-14.3Z" style="fill-rule:nonzero;"/>
        </g>
    </g>
</svg>