<svg xmlns="http://www.w3.org/2000/svg" viewBox="0 0 1000 991.85"><defs><style>.cls-1{fill:#519882;}.cls-1,.cls-2,.cls-3{fill-rule:evenodd;}.cls-2{fill:#3d8573;}.cls-3{fill:#fff;}</style></defs><title>GTK</title><g id="Layer_2" data-name="Layer 2"><g id="Layer_1-2" data-name="Layer 1"><path class="cls-1" d="M86.07,497.28c0,224.21,182.41,406.62,406.63,406.62S899.32,721.49,899.32,497.28,716.91,90.65,492.7,90.65,86.07,273.06,86.07,497.28Z"/><path class="cls-2" d="M280.16,869.93A13.64,13.64,0,0,0,270,876.42l-23.3,35.3a13.4,13.4,0,0,0-1.86,11.82l-2.43-1.6-2.42-1.6q-3.16-2.08-9.65-6t-9.64-6q-8.62-5.7-11.68-12-3.62-7.53,1.3-15,5.44-8.25,16-5.32-10-9.63-2.72-20.64,5.44-8.28,13.82-8.75,7.68-.46,17,5.68,2.82,1.86,8.38,5.81c3.7,2.64,6.49,4.57,8.37,5.82l5.15,3.39,3.9,2.58ZM240.45,904l6.81-10.32c-2.39-1.8-4.58-3.35-6.58-4.67q-7.38-4.87-11.75-6-7.16-1.9-10.75,3.56-5.4,8.16,8.47,17.32c3.13,2.07,5.62,3.22,7.48,3.48q3.78.5,6.32-3.34Zm19.13-29q3-4.56,1-8.32-1.46-2.76-7-6.42-14.85-9.81-21.39.09-4.19,6.33-.07,12.48,2.84,4.26,10.76,9.5c.86.56,2.21,1.36,4,2.38s3.17,1.81,4,2.38l.46.3,8.17-12.39Z"/><path class="cls-2" d="M185.13,795.59A13.49,13.49,0,0,0,174,800.21l-24.43,25.9a63.56,63.56,0,0,1-7.94,7.16q5.52-3.16,10.18-5.42l40.17-19.63a9.92,9.92,0,0,0,3.24-3.16l8.32,7.85a7.81,7.81,0,0,0-1.56,1.32,6.8,6.8,0,0,0-1.4,2.1l-17.16,41.32q-2.22,5.31-4.84,10.48a45.32,45.32,0,0,1,6.54-8.5l24.43-25.9a13.48,13.48,0,0,0,3.89-11.48l13.42,12.65a13.54,13.54,0,0,0-11.17,4.62l-29,30.77a13.38,13.38,0,0,0-3.87,11.32l-14.6-13.77a3.24,3.24,0,0,0,1.87-.9,1.36,1.36,0,0,0,.34-.55l16.74-40.17A78.85,78.85,0,0,1,193,815.33a80.49,80.49,0,0,1-10.5,6.5l-39,19.16a.38.38,0,0,1-.14.06,1.87,1.87,0,0,0-.58.37c-.12.23-.37.79-.78,1.7l-14.71-13.89a13.28,13.28,0,0,0,11-4.57l29-30.77q4.85-5.13,4-11.36l13.85,13.06Z"/><path class="cls-2" d="M88.82,779.25a12.8,12.8,0,0,0-5.9-4.21l16.81-12.63a19.53,19.53,0,0,0-1.8,14.15q1.48,5.9,7.13,13.4,3.1,4.13,5.34,5.3a5.75,5.75,0,0,0,6.55-.76l11-8.23-7.57-10.08q-5.13-6.83-12.53-7.1l14.56-10.94q-1.78,7.19,3.35,14l7.57,10.08,13.24-10c2.41-1.8,3.32-4,2.73-6.58q-.6-2.6-4-7.16-6.22-8.29-11.42-11.23-6.18-3.49-14.83-2l17.45-13.11a13.23,13.23,0,0,0,2.77,7.23l27.08,36a13.54,13.54,0,0,0-11.79,2.66l-33.81,25.41a13.34,13.34,0,0,0-5.73,10.5L88.82,779.25Z"/><path class="cls-2" d="M94.63,651.23a8.84,8.84,0,0,0-.17,7.67,45.16,45.16,0,0,0,4.77,7.38,44.27,44.27,0,0,1,4.76,7.38q12.24,26.75-16.71,40-13.8,6.32-24.64,4.23Q49.65,715.42,43,701a41.81,41.81,0,0,1-2.25-7.36,42.53,42.53,0,0,0-2.26-7.36,10,10,0,0,0-4.86-4.61l22.48-10.29q-5.4,7.5-7,12.6a19.92,19.92,0,0,0,1,14.61q4.35,9.49,14.69,10.27,7.93.58,17.5-3.8,9.28-4.26,13.86-10.55,5.88-8.1,1.64-17.36a19.72,19.72,0,0,0-6.76-8.47,9.34,9.34,0,0,0-9.71-1L76,670.14a12.57,12.57,0,0,0-7.49,10L61,663.62q4.06,1.17,11.13-2.06l22.55-10.33Z"/><path class="cls-2" d="M72.1,635.65q6.29.4,8.85-.34a7.8,7.8,0,0,0,4.81-4l5,17.38q-5.72-3.67-15.55-4.5L25.59,640a3.52,3.52,0,0,0-1.05.12A5.22,5.22,0,0,0,22,642L17.2,625.37a4.12,4.12,0,0,0,2.66.27,4.37,4.37,0,0,0,1.35-.7l40.23-28.07q8.22-5.75,11-11.57L77.57,603a7.84,7.84,0,0,0-6.5-1.12c-1.65.47-4.14,1.94-7.49,4.39q1.33,6,3.87,14.82t4.65,14.54ZM64,634.87q-1.76-7.54-3.12-12.22t-3.83-11.86l-29.91,21L64,634.87Z"/><path class="cls-2" d="M15,559a3.24,3.24,0,0,0-1.81-.24c-2.05.3-2.77,2.59-2.15,6.89q2.59,18.11,17.46,22.79L6.68,591.56A8.28,8.28,0,0,0,8.08,586L1.89,542.9l57.78,26.23a3.63,3.63,0,0,0,1.93.43c2-.29,2.58-3.08,1.82-8.4q-2.84-19.68-17.91-25.69l21.87-3.15a10.14,10.14,0,0,0-1.24,6.26L72.81,585,15,559Z"/><path class="cls-2" d="M65.12,526.15A13.49,13.49,0,0,0,54,521.37l-42.28.68A13.37,13.37,0,0,0,.92,527.19l-.06-3.58Q.7,514,.23,503.3c-.14-1.59-.21-2.62-.22-3.08Q-.48,470,32.07,469.49q14.68-.24,23.1,6.18,9.6,7.41,9.85,23c0,1.95,0,4.9-.12,8.84s-.16,6.9-.12,8.85c0,1.59.06,3,.11,4.22l.23,5.57ZM12.18,512.6l41.12-.66a4.25,4.25,0,0,0,4.36-3.49,27.66,27.66,0,0,0,.39-6.66q-.21-13.08-7.34-18.27-5.9-4.32-18.48-4.12-11.91.19-17.94,4.51Q6.79,489.28,7,501.63q.17,11.05,5.18,11Z"/><path class="cls-2" d="M52.77,447.84q5.55,3,8.19,3.37A7.83,7.83,0,0,0,67,449.54l-2.63,17.89q-3.67-5.7-12.28-10.54L8.64,432.51a3.63,3.63,0,0,0-1-.32,5.15,5.15,0,0,0-3.07.63l2.52-17.11a4.26,4.26,0,0,0,2.31,1.35,4.62,4.62,0,0,0,1.53-.09l48.24-8.83q9.85-1.81,14.81-6l-2.69,18.25a7.84,7.84,0,0,0-5.44-3.72q-2.55-.37-8.64.89c-.87,4-1.74,9-2.63,15.09s-1.49,11.05-1.81,15.15Zm-7-4.06q1.53-7.61,2.23-12.41T49.41,419l-35.93,6.7,32.26,18.09Z"/><path class="cls-2" d="M77,401.88l-21.41-6.13q16.54-5.17,20-17.36,1.74-6.06-.08-10.41a10.49,10.49,0,0,0-7.33-6.18,10.36,10.36,0,0,0-7.82.49A21,21,0,0,0,54.23,368q-.66.84-5.69,8.09a47.09,47.09,0,0,1-6.3,7.56q-5.76,5.33-13.58,3.08a14.68,14.68,0,0,1-10.47-10.19q-2.38-7.14.18-16.07a45,45,0,0,1,2.86-6.79,42.84,42.84,0,0,0,2.85-6.78,5.46,5.46,0,0,0-.86-5.26l19.43,5.57q-14.13,3.14-17.55,15.07a15.32,15.32,0,0,0-.24,8.71,7.68,7.68,0,0,0,5.53,5.62,8.11,8.11,0,0,0,5.81-.45Q38.75,375,45,366.22q1.18-1.67,2.81-3.9,10-13.71,22.45-10.15,9.34,2.67,12.21,10.68,2.67,7.29-.35,17.79a38.34,38.34,0,0,1-3,6.76,40.65,40.65,0,0,0-3,6.77q-.85,3,.94,7.71Z"/><path class="cls-2" d="M32.69,304l-6.85-18q-1.41-3.64-.39-6a3.76,3.76,0,0,1,2-2,3.28,3.28,0,0,1,2.71,0q2,.88,2.46,5.63l1.52,17L32.69,304ZM81,334.45q4.56,4.33,7,5.41a7.84,7.84,0,0,0,6.28,0L87,356.41q-2.05-6.48-9.08-13.41l-35.5-34.95a3.35,3.35,0,0,0-.88-.58,5.27,5.27,0,0,0-3.13-.2l6.94-15.84a4.16,4.16,0,0,0,1.87,1.91,4.52,4.52,0,0,0,1.49.32l48.87,4.18q10,.84,15.85-1.85L106,312.88a7.9,7.9,0,0,0-4.27-5c-1.58-.68-4.43-1.16-8.57-1.41q-2.84,5.48-6.51,13.86T81,334.45Zm-5.72-5.77q3.48-6.93,5.43-11.38t4.64-11.56l-36.43-3,26.36,25.94Z"/><path class="cls-2" d="M144.9,250a8.82,8.82,0,0,0-6.49,4.08,44.88,44.88,0,0,0-3.55,8,45.22,45.22,0,0,1-3.54,8q-15.61,24.93-42.6,8-12.85-8-17.08-18.25Q66.56,247.77,75,234.32a42.42,42.42,0,0,1,4.91-5.93,43.07,43.07,0,0,0,4.9-5.93A10,10,0,0,0,86,215.87l21,13.12q-9.24-.39-14.38,1.09A19.86,19.86,0,0,0,80.89,239q-5.53,8.84-.49,17.91,3.87,6.94,12.79,12.52,8.67,5.43,16.43,5.78,10,.46,15.4-8.17a19.7,19.7,0,0,0,3.37-10.31,9.33,9.33,0,0,0-4.5-8.67l-5-3.14a12.59,12.59,0,0,0-12.49-.75L116,228.72q1.26,4,7.85,8.16l21,13.16Z"/><path class="cls-2" d="M137,223.1a14.75,14.75,0,0,0-2.76,6.12l-5.48-8.11a8.46,8.46,0,0,0,3.58-2.87l7.87-9.87a13.34,13.34,0,0,0,3-6.43l5.65,8.37a6.83,6.83,0,0,0-3.69,2.53L137,223.1Z"/><path class="cls-2" d="M172.28,123.2a12.82,12.82,0,0,0,3.61-6.28l14.22,15.49a19.55,19.55,0,0,0-14.26-.41q-5.72,2.07-12.63,8.41c-2.54,2.33-4.12,4.28-4.76,5.84a5.77,5.77,0,0,0,1.4,6.45l9.27,10.09,9.28-8.53q6.28-5.77,5.84-13.16l12.32,13.41q-7.32-1.06-13.61,4.7l-9.28,8.53,11.2,12.2c2,2.22,4.31,2.91,6.82,2.07,1.68-.56,3.93-2.14,6.73-4.71q7.65-7,10-12.47,2.88-6.5.56-15L223.8,166a13.17,13.17,0,0,0-6.93,3.48l-33.2,30.48a13.49,13.49,0,0,0-3.81-11.47l-28.6-31.16a13.36,13.36,0,0,0-11-4.66l32-29.42ZM149.72,135l1-19.21c.13-2.6.81-4.48,2.06-5.62a3.72,3.72,0,0,1,2.68-1,3.28,3.28,0,0,1,2.48,1.09q1.5,1.62,0,6.14l-5.47,16.16L149.72,135Z"/><path class="cls-2" d="M230,161.42l-12.77-18.25q16.13,6.41,26.5-.86,5.17-3.63,6.49-8.14a11.69,11.69,0,0,0-8.19-14,21.19,21.19,0,0,0-8.41.52q-1,.24-9.52,2.71a46.3,46.3,0,0,1-9.65,1.9q-7.83.52-12.49-6.15a14.67,14.67,0,0,1-1.72-14.51q2.66-7.05,10.26-12.37A44.26,44.26,0,0,1,217,88.84a45.09,45.09,0,0,0,6.49-3.48,5.47,5.47,0,0,0,2.64-4.63l11.6,16.56q-13-6.47-23.13.66a15.33,15.33,0,0,0-5.68,6.61,7.7,7.7,0,0,0,.76,7.85,8.11,8.11,0,0,0,4.8,3.31q2.73.68,13.07-2.2c1.31-.37,2.86-.79,4.63-1.26q16.41-4.37,23.84,6.25,5.57,8,2.76,16-2.52,7.32-11.47,13.59a39.12,39.12,0,0,1-6.59,3.38,39.47,39.47,0,0,0-6.58,3.37c-1.71,1.2-3.08,3.39-4.13,6.58Z"/><path class="cls-2" d="M319.69,93.58q2.85,6.45,8.95,8.1l-17.59,7.77q2.85-5.6,0-12L294.56,60.08q-2.43-5.49-7.58-3.22-10.44,4.62-8.87,20l-9.41-21.3a8.57,8.57,0,0,0,5.71-.13l38.88-17.18a8.37,8.37,0,0,0,4-4.15l9.41,21.29Q316.51,43.82,306,48.47q-5.21,2.3-2.77,7.79l16.49,37.32Z"/><path class="cls-2" d="M351.29,77.68q-.36,6.3.41,8.85a7.8,7.8,0,0,0,4.06,4.78l-17.33,5.16q3.63-5.75,4.38-15.58l3.77-49.68a3.22,3.22,0,0,0-.13-1.05,5.14,5.14,0,0,0-1.86-2.51l16.58-4.94a4.2,4.2,0,0,0-.25,2.67,4.62,4.62,0,0,0,.71,1.34l28.36,40q5.81,8.18,11.65,10.91L384,82.92a7.83,7.83,0,0,0,1.07-6.5c-.48-1.65-2-4.14-4.44-7.46q-6,1.37-14.79,4t-14.51,4.75Zm-7.88-56.51,9.3-16.84C354,2.05,355.4.66,357,.18a3.74,3.74,0,0,1,2.87.23,3.33,3.33,0,0,1,1.76,2.06q.63,2.11-2.72,5.51l-12,12.14-3.52,1.05ZM352,69.59q7.53-1.82,12.2-3.2Q368.73,65,376,62.47L354.81,32.71,352,69.59Z"/><path class="cls-2" d="M416.89,64.51a13.59,13.59,0,0,0,6.47,10.24l-19.14,2.77a13.54,13.54,0,0,0,3.33-11.63L401.5,24A13.39,13.39,0,0,0,395,14l3-.44,3-.44q5.21-.75,14-2.33l7.68-1.39c.72-.15,1.47-.27,2.26-.39q22.33-3.23,24.82,14,1.57,11-10.82,16.91a16.66,16.66,0,0,1,8.39,3.85q2.44,2.34,4.47,7.67A114,114,0,0,0,456,64.59a10.66,10.66,0,0,0,4.81,4.74L449.58,71a3.74,3.74,0,0,1-3.6-2.69A28.81,28.81,0,0,1,444.55,62a49.36,49.36,0,0,0-1.33-6.57q-2.4-7.24-7.66-9.6-4.67-2.11-13.28-.88c-.88.13-2.22.37-4,.72s-3.12.59-4,.72l2.62,18.16Zm-5.56-38.42,1.89,13c3.16-.27,5.89-.58,8.19-.91q9.07-1.3,13.13-3.45Q441,31.34,440,24.45q-1.5-10.32-18.28-7.9-5.7.82-8,2.53-3.08,2.27-2.4,7Z"/><path class="cls-2" d="M464.77,71.93l-.37-22.26Q474.18,64,486.84,63.79q6.32-.1,9.94-3.11a10.48,10.48,0,0,0,3.78-8.81,10.38,10.38,0,0,0-2.75-7.34,21.15,21.15,0,0,0-7.26-4.28q-1-.39-9.4-3.09a46.38,46.38,0,0,1-9.06-3.83q-6.78-3.94-6.91-12.09a14.72,14.72,0,0,1,6.7-13Q478,3.9,487.32,3.75a45.7,45.7,0,0,1,7.32.76,43.36,43.36,0,0,0,7.32.76,5.49,5.49,0,0,0,4.78-2.36l.33,20.22Q500,10.52,487.54,10.72a15.34,15.34,0,0,0-8.41,2.3,7.68,7.68,0,0,0-3.76,6.92,8.11,8.11,0,0,0,2.12,5.43q1.88,2.1,12.06,5.5c1.3.43,2.81.95,4.55,1.55Q510.14,38,510.34,51q.17,9.7-6.67,14.79-6.18,4.67-17.11,4.84a39,39,0,0,1-7.34-.89,40.28,40.28,0,0,0-7.35-.9c-2.09,0-4.45,1.08-7.1,3.14Z"/><path class="cls-2" d="M530.47,56.21q-2.84,5.63-3.15,8.27a7.82,7.82,0,0,0,1.83,6l-18-2.16q5.61-3.83,10.22-12.56l23.21-44.08a3.4,3.4,0,0,0,.3-1,5.25,5.25,0,0,0-.71-3L561.38,9.7A4.23,4.23,0,0,0,560.09,12a4.43,4.43,0,0,0,.13,1.52l10.1,48q2.08,9.81,6.35,14.65L558.37,74a7.88,7.88,0,0,0,3.56-5.54c.21-1.71-.17-4.58-1.12-8.62q-6.06-1.12-15.14-2.23t-15.2-1.4Zm3.87-7.14Q542,50.39,546.81,51q4.68.57,12.41,1.11l-7.65-35.74L534.34,49.07Z"/><path class="cls-2" d="M579.12,77a13.5,13.5,0,0,0,7.7-9.31L598.05,26.9a13.4,13.4,0,0,0-1.89-11.81l3.44.94q9.3,2.56,19.67,5.11c1.57.31,2.57.53,3,.65q29.13,8,20.48,39.41-3.88,14.14-12.42,20.42-9.79,7.14-24.83,3-2.84-.78-8.46-2.6c-3.76-1.22-6.57-2.09-8.46-2.6q-2.29-.65-4.08-1.08L579.12,77ZM607,30,596.07,69.64a4.26,4.26,0,0,0,2.13,5.17,28.06,28.06,0,0,0,6.27,2.24q12.63,3.48,19.61-1.91,5.79-4.44,9.14-16.58,3.15-11.49.71-18.48-3-8.7-15-12Q608.32,25.16,607,30Z"/><path class="cls-2" d="M655.36,85.46Q651,90,650,92.48a7.84,7.84,0,0,0,0,6.28l-16.57-7.24q6.48-2.05,13.4-9.08l34.94-35.52a3.39,3.39,0,0,0,.58-.89,5.23,5.23,0,0,0,.2-3.12l15.85,6.93a4.18,4.18,0,0,0-1.92,1.87,4.54,4.54,0,0,0-.31,1.49L692,102.08q-.84,10,1.86,15.85l-16.9-7.39a7.85,7.85,0,0,0,5-4.27q1-2.37,1.41-8.57-5.49-2.85-13.86-6.51t-14.15-5.73Zm5.77-5.71q6.93,3.47,11.39,5.42t11.56,4.64l3-36.43L661.13,79.75Z"/><path class="cls-2" d="M745.58,74.87a13.4,13.4,0,0,0-9.87,6.75l-19.26,31.75q-5,8.23,3.33,13.28,14.22,8.63,26.93-3.8L733.28,145a8,8,0,0,0-3.83-4.8l-33.7-20.44a13.52,13.52,0,0,0,10-6.86l21.93-36.16a13.36,13.36,0,0,0,1.41-11.88l16.53,10Z"/><path class="cls-2" d="M757.36,162.49q-12-9.51-11.43-22.08.45-10.57,9.54-22T774.83,104q12.09-3.33,24.21,6.27t11.42,22.08Q810,143,801,154.38t-19.36,14.34q-12.12,3.38-24.23-6.23Zm4.66-5.86q15,11.88,31.11-8.44,6.61-8.37,7.88-15.72,1.68-9.72-6.62-16.3-15.12-12-31.19,8.31-6.59,8.31-7.83,15.81-1.61,9.79,6.65,16.34Z"/><path class="cls-2" d="M822.21,223.39a13.49,13.49,0,0,0,11.49-3.76l26.33-24a62.62,62.62,0,0,1,8.47-6.54q-5.76,2.75-10.57,4.64l-41.54,16.51a7.41,7.41,0,0,0-2.09,1.4,7.78,7.78,0,0,0-1.39,1.49l-7.69-8.45a8.24,8.24,0,0,0,1.65-1.2,6.39,6.39,0,0,0,1.55-2l20.27-39.89q2.61-5.13,5.61-10.08a44.3,44.3,0,0,1-7.16,8l-26.33,24a13.5,13.5,0,0,0-4.76,11.15L783.64,181a13.51,13.51,0,0,0,11.49-3.75l31.28-28.47a13.37,13.37,0,0,0,4.71-11l13.52,14.85a3.29,3.29,0,0,0-1.94.75,1.77,1.77,0,0,0-.38.52L822.57,192.7a79.24,79.24,0,0,1-6.66,10.41,82.19,82.19,0,0,1,11-5.69l40.38-16.12a.31.31,0,0,1,.13-.06,1.78,1.78,0,0,0,.62-.33c.13-.21.43-.75.89-1.62l13.62,15A13.28,13.28,0,0,0,871.18,198L839.9,226.44q-5.22,4.74-4.87,11l-12.82-14.08Z"/><path class="cls-2" d="M861.33,258.61q-5.88,3.9-6.47,10.2l-10.64-16q6,1.88,11.88-2l34-22.57q5-3.33,1.89-8-6.32-9.51-21.23-5.35l19.4-12.88a8.5,8.5,0,0,0,1.1,5.6L914.76,243a8.35,8.35,0,0,0,4.77,3.23l-19.4,12.88q9.71-12,3.33-21.61-3.13-4.72-8.15-1.41l-34,22.57Z"/><path class="cls-2" d="M914.5,264a13.35,13.35,0,0,0,7.59-9.25l8.52,17.36a13.4,13.4,0,0,0-12,.36l-27.9,13.71q-7.57,3.72-9.48,7.75-2.24,4.75,1.64,12.66t9,9c2.84.59,6.81-.35,11.89-2.85l27.9-13.7a13.34,13.34,0,0,0,7.54-9.34l8.22,16.73a13.34,13.34,0,0,0-11.91.45l-27.33,13.42q-11.07,5.43-16.58,4.26-9.21-2-15.68-15.13t-2.32-21.53q2.57-5.13,13.51-10.51L914.5,264Z"/><path class="cls-2" d="M889.92,335a13.48,13.48,0,0,0,12,1.22l40.13-13.36a13.41,13.41,0,0,0,8.77-8.15l1.12,3.4q3,9.13,6.71,19.19c.61,1.46,1,2.42,1.14,2.86q9.54,28.67-21.35,38.95-13.94,4.63-23.89,1-11.37-4.17-16.31-19c-.62-1.85-1.46-4.68-2.54-8.47s-1.92-6.63-2.54-8.48q-.75-2.26-1.38-4L889.92,335Zm54.55-3-39,13a4.24,4.24,0,0,0-3.11,4.65,28.1,28.1,0,0,0,1.63,6.46q4.13,12.4,12.48,15.22,6.93,2.36,18.87-1.63,11.31-3.76,15.75-9.69,5.53-7.38,1.64-19.09-3.5-10.5-8.25-8.91Z"/><path class="cls-2" d="M912.51,420.26q-2.75-15.06,6-24.13,7.34-7.65,21.73-10.26t24,2q11.28,5.47,14,20.68t-6,24.13q-7.32,7.65-21.68,10.26t-24-2q-11.33-5.47-14.09-20.68Zm7.38-1.32q3.42,18.82,28.93,14.19,10.5-1.9,16.3-6.6,7.68-6.21,5.79-16.62-3.45-19-28.92-14.35-10.44,1.9-16.32,6.71-7.67,6.3-5.78,16.67Z"/><path class="cls-2" d="M921,508.82a13.54,13.54,0,0,0,11.11,4.76l35.6-.62a64,64,0,0,1,10.68.67c-4.09-1.15-7.75-2.32-11-3.48l-42.1-15a7.75,7.75,0,0,0-2.49-.33,8.08,8.08,0,0,0-2,.21l-.19-11.43a7.48,7.48,0,0,0,2,.19,6.52,6.52,0,0,0,2.48-.47l41.55-16.58q5.36-2.13,10.88-3.86a44.56,44.56,0,0,1-10.65,1.25l-35.59.62A13.5,13.5,0,0,0,920.33,470L920,451.52a13.46,13.46,0,0,0,11.11,4.76l42.28-.73a13.36,13.36,0,0,0,10.8-5.15l.36,20.08a3.22,3.22,0,0,0-1.95-.71,1.5,1.5,0,0,0-.63.13L941.53,486a77.46,77.46,0,0,1-11.87,3.42,81.37,81.37,0,0,1,12,3l41,14.54a.35.35,0,0,1,.14.06,1.78,1.78,0,0,0,.67.15c.24-.07.83-.28,1.75-.63l.35,20.23a13.29,13.29,0,0,0-11-4.68l-42.28.73c-4.7.09-8.35,1.77-10.94,5.07l-.34-19Z"/><path class="cls-2" d="M932.32,549.39q-5.54-3-8.17-3.42a7.8,7.8,0,0,0-6.06,1.64l2.74-17.89q3.64,5.74,12.22,10.63L976.35,565a3.17,3.17,0,0,0,1,.33,5.18,5.18,0,0,0,3.07-.6L977.8,581.8a4.18,4.18,0,0,0-2.31-1.37,4.75,4.75,0,0,0-1.51.08l-48.31,8.54q-9.85,1.74-14.84,5.87l2.8-18.23a7.87,7.87,0,0,0,5.42,3.75q2.55.39,8.65-.84,1.34-6,2.72-15.07t1.9-15.14Zm7,4.1q-1.58,7.59-2.32,12.4t-1.51,12.37l36-6.48-32.14-18.29Zm47.46,12.91L998,582q2.29,3.16,1.92,5.67a3.74,3.74,0,0,1-1.44,2.49,3.25,3.25,0,0,1-2.61.71c-1.46-.22-2.73-1.83-3.82-4.81l-5.85-16,.56-3.64Z"/><path class="cls-2" d="M965.39,635.32c-.87-.65-1.37-1-1.51-1.09a2,2,0,0,0-.69-.06h-.14l-42.81,7.41a72.55,72.55,0,0,1-13.57,1.2,80.09,80.09,0,0,1,11.58,2.78l29.68,9.23a13.36,13.36,0,0,0,11.9-1.59l-5.47,17.61a13.37,13.37,0,0,0-8.93-8l-46.6-14.48a9.55,9.55,0,0,0-4.55-.6l4.07-13.1.16.1a4,4,0,0,0,1.41,1,2.43,2.43,0,0,0,.71.06h.15l47.36-8.26q4.15-.72,12.42-1.42A62.75,62.75,0,0,1,950,623.8l-33.48-10.4a13.46,13.46,0,0,0-12,1.54L910,597.33a13.49,13.49,0,0,0,9.06,8l40.38,12.55a13.33,13.33,0,0,0,11.87-1.51l-5.88,18.94Z"/><path class="cls-2" d="M924,713.61c1.63,2.27,3.08,3.7,4.33,4.28s2.82.44,4.86-.35L925.52,734a37.66,37.66,0,0,0-5-10.29l-21.42-31.08-10.63-5q-6.39-3-12.07-.24l8.2-17.51a13.51,13.51,0,0,0,7.87,9.2l10.23,4.79,38-3.33a36.76,36.76,0,0,0,11-2.68l-8.2,17.51a6,6,0,0,0-2.9-3.83,13.1,13.1,0,0,0-6-.69l-26,1.56L924,713.61Z"/><path class="cls-2" d="M911.06,757a13.38,13.38,0,0,0-6.84-9.8l-36.34-21.63a13.52,13.52,0,0,0-12-1.39l9.88-16.62a13.52,13.52,0,0,0,6.94,9.9L909.05,739a13.38,13.38,0,0,0,11.9,1.31L911.06,757Z"/><path class="cls-2" d="M871.23,812a13.35,13.35,0,0,0-5.06-10.83l-16.23-13.9,4.19,32.33q.48,3.75,2.09,5.13c.89.77,2.15.9,3.76.41l-12.93,15.09q.32-1.95,0-12.44v-.13l-2.1-19L809.8,801a31.3,31.3,0,0,0-13.55-.09l12.12-14.15a6.82,6.82,0,0,0,2.11,4.36,10.74,10.74,0,0,0,4.56,2l29.34,6.59L842.57,781l-8.51-7.29a13.56,13.56,0,0,0-11.59-3.43l12.58-14.68a13.53,13.53,0,0,0,5.15,10.94L872.31,794a13.36,13.36,0,0,0,11.5,3.32L871.23,812Z"/><path class="cls-2" d="M796,819.73q-2.31-5.87-4.06-7.88a7.86,7.86,0,0,0-5.69-2.65l13.6-11.92q-.9,6.74,2.52,16L819.64,860a3.29,3.29,0,0,0,.56.89,5.12,5.12,0,0,0,2.74,1.51l-13,11.4a4.12,4.12,0,0,0-.89-2.53,4.44,4.44,0,0,0-1.21-.92l-42.46-24.54q-8.68-5-15.14-5l13.86-12.16a7.88,7.88,0,0,0,1.74,6.36q1.7,1.93,7.16,4.92,4.9-3.76,11.78-9.79T796,819.73Zm2.72,7.65q-6.09,4.79-9.75,8t-9.11,8.5l31.7,18.18-12.84-34.68Z"/><path class="cls-2" d="M741.9,859.07a13.58,13.58,0,0,0-10.15-6.59L748,842a13.49,13.49,0,0,0,1.84,11.95l23,35.48a13.33,13.33,0,0,0,10.08,6.43l-2.56,1.67-2.57,1.66q-4.42,2.86-11.71,8l-6.4,4.48c-.59.43-1.22.86-1.88,1.29q-18.93,12.29-28.38-2.27-6-9.3,2.75-19.89c-3.67.87-6.75.88-9.24,0q-3.2-1.1-7.27-5.08a112.93,112.93,0,0,0-9.33-10.27,10.64,10.64,0,0,0-6.34-2.3l9.54-6.19a3.73,3.73,0,0,1,4.39.93,29.43,29.43,0,0,1,4,5.14,49,49,0,0,0,3.95,5.4q5.22,5.58,11,5.52,5.13,0,12.42-4.76c.75-.49,1.86-1.27,3.34-2.33s2.59-1.84,3.34-2.33l-10-15.4ZM763,891.65l-7.16-11c-2.76,1.58-5.11,3-7,4.25q-7.7,5-10.49,8.64-4.46,5.79-.67,11.63,5.69,8.75,19.91-.48,4.83-3.13,6.21-5.65c1.24-2.23,1-4.69-.75-7.36Z"/><path class="cls-2" d="M403.92,946.05h-6.31a8.67,8.67,0,0,0-5.14,1.43v-9.25a13.27,13.27,0,0,0,5.22,1.21q8.47,0,8.47-8.66a10.17,10.17,0,0,0-1-4.44h8.76a21.66,21.66,0,0,0-1,7v46.4a13.23,13.23,0,0,0,4.79,10.81H399.09q4.83-3.9,4.83-10.79V946.05Z"/><path class="cls-2" d="M467.1,961.63a23.38,23.38,0,0,1-17.53,7.26q-10.23,0-16.48-5.69t-6.26-15q0-10.23,6.92-16.15,6.76-5.79,18.11-5.8,13.62,0,20.2,9.61,5.42,7.88,5.4,21,0,15.08-5.84,23.89-7.25,10.94-22.78,10.93a44.28,44.28,0,0,1-7-.81,44.28,44.28,0,0,0-7-.81,11,11,0,0,0-6,1.62V970.15q7.89,14.55,19.13,14.56,10,0,15-7.36,4-6,4.14-15.72Zm-15.62-28.27q-7.31,0-11.34,3.76t-4,10.45q0,6.72,4,10.39t11.43,3.67q7.35,0,11.34-3.69t4-10.37q0-6.69-4.06-10.45t-11.36-3.76Z"/><path class="cls-2" d="M526.23,961.63a23.38,23.38,0,0,1-17.53,7.26q-10.23,0-16.48-5.69t-6.26-15q0-10.23,6.92-16.15,6.76-5.79,18.11-5.8,13.63,0,20.2,9.61,5.4,7.88,5.41,21,0,15.08-5.85,23.89Q523.5,991.74,508,991.73a44.28,44.28,0,0,1-7-.81,44.4,44.4,0,0,0-7-.81,10.92,10.92,0,0,0-6,1.62V970.15q7.89,14.55,19.13,14.56,10,0,15-7.36,4-6,4.14-15.72Zm-15.62-28.27q-7.31,0-11.34,3.76t-4,10.45q0,6.72,4,10.39t11.43,3.67q7.35,0,11.34-3.69t4-10.37q0-6.69-4.06-10.45t-11.36-3.76Z"/><path class="cls-2" d="M583.82,956.46q11.61,4.34,11.62,16,0,10-7.79,15-6.76,4.34-18.2,4.34t-18.16-4.39q-7.78-5-7.79-15,0-11.68,11.59-16-8.87-3.72-8.87-13.24,0-8.73,7.11-13.11,6.09-3.76,16.12-3.77t16.17,3.77q7.15,4.38,7.16,13.11,0,9.48-9,13.24Zm-14.35,3.82q-7.34,0-11.7,2.78a11.8,11.8,0,0,0,0,19.29q4.37,2.83,11.7,2.83t11.7-2.83a10.75,10.75,0,0,0,5-9.65,10.64,10.64,0,0,0-5-9.59q-4.36-2.83-11.65-2.83Zm0-27.27q-6,0-9.73,2.34a8.87,8.87,0,0,0-4.24,8,9.06,9.06,0,0,0,4.19,8.09q3.69,2.43,9.78,2.43t9.83-2.43a9,9,0,0,0,4.23-8.09,8.82,8.82,0,0,0-4.28-8c-2.47-1.56-5.72-2.34-9.78-2.34Z"/><path class="cls-3" d="M513.06,200.06a20.78,20.78,0,1,1-20.77-20.78,20.77,20.77,0,0,1,20.77,20.78Z"/><polygon class="cls-3" points="513.06 246.73 472.77 246.73 472.77 228.48 513.06 228.48 513.06 246.73 513.06 246.73"/><polygon class="cls-3" points="502.36 711.95 482.21 694.29 482.21 254.91 502.36 254.91 502.36 711.95 502.36 711.95"/><polygon class="cls-3" points="502.36 844.73 480.95 844.73 480.95 737.72 502.36 755.39 502.36 844.73 502.36 844.73"/><path class="cls-3" d="M272.81,251.68c7.55,12.06,6.39,26.4-2.59,32s-22.36.38-29.92-11.69-6.39-26.4,2.58-32,22.37-.39,29.93,11.69Z"/><path class="cls-3" d="M408.22,279.11l-11-5.13V262.47l73,30.84V273.8a23.47,23.47,0,0,1-14.47-6.3c-9.56-8.69-12-40.91-38.4-41.54-27.07-.65-35.88,38.4-38.4,54.13s-8.09,48.38-19.42,63.49l29.49-4.85,19.17-59.62Z"/><polygon class="cls-3" points="419.1 283.93 430.82 288.95 418.27 334.13 400.7 336.64 419.1 283.93 419.1 283.93"/><polygon class="cls-3" points="440.44 292.06 448.38 295.83 444.62 329.95 429.98 332.04 440.44 292.06 440.44 292.06"/><polygon class="cls-3" points="458.43 300.66 468.05 304.43 466.79 326.6 455.5 328.27 458.43 300.66 458.43 300.66"/><path class="cls-3" d="M466.79,338.8c.59,3.13,1.67,13.32-1.26,22.52-2.36,7.45-12.13,17.57-4.6,17.57,5.87,0,11.33-7.44,14.23-17.57,3.34-11.71-8.37-22.52-8.37-22.52Z"/><path class="cls-3" d="M450.9,345c9.11,3.2,6.65,15.67,5.55,21.15-1.25,6.27-9.26,14.65-1.67,20.8,8.78,7.11,13.68-9.33,18.28-4.72,3.79,3.78-2.5,13.38-6.27,17.15s-11.29,5.43-13,6.69-5.44,12.55,2.09,25.94,16.32,13.38,16.32,13.38v13.39l-16.32.42a62.55,62.55,0,0,1-35.55-46.86c-5.86-35.14,15.06-72.78,30.54-67.34Z"/><path class="cls-3" d="M263.91,621.51V300.25l22.59-14.64,156,182.8-2.93,15.48L294.45,339.15v15.9L312,372.8s.41,251.74.41,260.94,13,8.5,13-2c0-16.73,2.09-243.27,2.09-243.27l21.34,21.34V625.39c0,9.21,15.48,9.51,15.48-.95s.83-197.86.83-197.86L384,445V612c0,17.15,18,20.85,24.26,4.95s45.59-143.06,45.59-143.06h18.41V578.42c0,31-8.68,65.46-48.52,84.92-18,8.79-64.84,17.57-97,20.5s-62.75-25.52-62.75-62.33Z"/><polygon class="cls-3" points="401.53 461.72 401.53 603.11 436.25 496.86 401.53 461.72 401.53 461.72"/><polygon class="cls-3" points="345.91 691.33 377.15 685.08 285.13 790.17 269.8 777.1 345.91 691.33 345.91 691.33"/><path class="cls-3" d="M437.37,672.65,451,661.79s19.88,38.63,51.69,62.49c23.07,17.3,46.75,38,48.28,57.93,1.76,23-10.23,34-10.23,34s8.46-21-2.84-38c-16.92-25.48-41.46-35.79-64.75-57.37s-35.78-48.22-35.78-48.22Z"/><path class="cls-3" d="M711.13,251.68c-7.54,12.06-6.39,26.4,2.59,32s22.37.38,29.92-11.69,6.39-26.4-2.58-32-22.37-.39-29.93,11.69Z"/><path class="cls-3" d="M575.72,279.11l11-5.13V262.47l-73,30.84V273.8a23.47,23.47,0,0,0,14.47-6.3c9.56-8.69,12-40.91,38.4-41.54,27.07-.65,35.88,38.4,38.4,54.13s8.09,48.38,19.42,63.49l-29.49-4.85-19.17-59.62Z"/><polygon class="cls-3" points="564.84 283.93 553.13 288.95 565.67 334.13 583.24 336.64 564.84 283.93 564.84 283.93"/><polygon class="cls-3" points="543.5 292.06 535.55 295.83 539.32 329.95 553.96 332.04 543.5 292.06 543.5 292.06"/><polygon class="cls-3" points="525.52 300.66 515.9 304.43 517.15 326.6 528.45 328.27 525.52 300.66 525.52 300.66"/><path class="cls-3" d="M517.15,338.8c-.59,3.13-1.67,13.32,1.25,22.52,2.37,7.45,12.13,17.57,4.61,17.57-5.87,0-11.33-7.44-14.23-17.57-3.34-11.71,8.37-22.52,8.37-22.52Z"/><path class="cls-3" d="M533.05,345c-9.12,3.2-6.65,15.67-5.56,21.15,1.26,6.27,9.26,14.65,1.67,20.8-8.78,7.11-13.68-9.33-18.28-4.72-3.79,3.78,2.51,13.38,6.27,17.15s11.29,5.43,13,6.69S535.55,418.63,528,432s-16.32,13.38-16.32,13.38v13.39l16.32.42a62.55,62.55,0,0,0,35.55-46.86c5.86-35.14-15.06-72.78-30.53-67.34Z"/><path class="cls-3" d="M720,621.51V300.25l-22.59-14.64-156,182.8,2.93,15.48L689.5,339.15v15.9L671.92,372.8s-.41,251.74-.41,260.94-13,8.5-13-2c0-16.73-2.09-243.27-2.09-243.27l-21.34,21.34V625.39c0,9.21-15.47,9.51-15.47-.95s-.84-197.86-.84-197.86L600,445V612c0,17.15-18,20.85-24.27,4.95s-45.59-143.06-45.59-143.06H511.71V578.42c0,31,8.68,65.46,48.53,84.92,18,8.79,64.84,17.57,97,20.5S720,658.32,720,621.51Z"/><polygon class="cls-3" points="582.41 461.72 582.41 603.11 547.68 496.86 582.41 461.72 582.41 461.72"/><polygon class="cls-3" points="638.03 691.33 606.79 685.08 698.81 790.17 714.14 777.1 638.03 691.33 638.03 691.33"/><path class="cls-3" d="M515.68,714.86a145.1,145.1,0,0,0,31.43-42.21l-14.17-10.86s-3.41,13.73-17.26,27.7v25.37Z"/><path class="cls-3" d="M470.48,732.65c-19.11,15.41-36.11,32.79-37.51,49.56-1.84,22.15,10.76,31.91,10.76,31.91s-7.83-16.18,2.31-35.88c5.92-11.51,15.16-19.16,24.44-26.47V732.65Z"/><path class="cls-1" d="M445,383.07a7.11,7.11,0,1,1-7.11-7.11,7.11,7.11,0,0,1,7.11,7.11Z"/><path class="cls-1" d="M538.9,383.07A7.12,7.12,0,1,0,546,376a7.11,7.11,0,0,0-7.11,7.11Z"/></g></g></svg>