<svg xmlns="http://www.w3.org/2000/svg" viewBox="0 0 511.68 485.76"><defs><style>.cls-1{font-size:98.67px;font-family:Lobster1.4, "Lobster 1.4";letter-spacing:0.02em;}</style></defs><title>kakas</title><g id="Layer_0_Image" data-name="Layer 0 Image"><path d="M245.71.1h20.63a10.72,10.72,0,0,0,1.82.38,203.65,203.65,0,0,1,26.42,2.88,219,219,0,0,1,65.86,22c50.28,26.35,86.68,65.79,109.77,117.52a241.28,241.28,0,0,1,20.29,84.59,253.4,253.4,0,0,1-4.08,63.47A241.49,241.49,0,0,1,476.17,328c-.28.77-.48,1.57-.8,2.65h36.09c-2.66,4.48-5.29,8.44-7.81,12.47s-5.12,8.11-7.69,12.16l-7.69,12.15-7.62,12.06c.32.55.5.91.71,1.24l29.75,46.14c.07.1.26.13.4.19v.48c-1.12,0-2.24.1-3.36.1H435.23c-.92,0-1.85.05-3,.08v26.74h-3.1q-27.83,0-55.65,0a7.6,7.6,0,0,0-3.84,1c-4.13,2.28-8.26,4.56-12.48,6.65A228.11,228.11,0,0,1,264,485.59,229.19,229.19,0,0,1,142,455.39a7.36,7.36,0,0,0-3.87-.92q-27.82,0-55.65,0h-3V427.64H.18l30.9-47.89a2.57,2.57,0,0,0-.12-.47q-15-23.82-30.07-47.65a2.83,2.83,0,0,1-.2-.43.41.41,0,0,1,0-.22,2.48,2.48,0,0,1,.15-.41h35.6c-.39-1.21-.68-2.19-1-3.14a248.46,248.46,0,0,1-14.57-79.08A244.36,244.36,0,0,1,26.4,190C39.06,132.58,68.26,85.34,114.48,49,152.38,19.17,195.63,3,243.87.47A11.76,11.76,0,0,0,245.71.1Zm122.74,100,.09,0h-.16l0-1a3.39,3.39,0,0,1-1-.53,4.19,4.19,0,0,0-5.15-1.15,9.73,9.73,0,0,1-1.4.29c2.49.59,4.7,1.13,6.92,1.63.19,0,.44-.16.65-.24C368.38,99.43,368.42,99.77,368.45,100.1ZM206.18,252.66l-4.52,1.62-.3-.51a24.35,24.35,0,0,1,1.92-2c2.53-2.08,5.11-4.1,7.66-6.15a9.68,9.68,0,0,0,3.26-4.36c1.47-4.14-.19-8-4.32-9.48a12.62,12.62,0,0,0-4.65-.84c-5.27.23-10.53.61-15.79,1.08a72,72,0,0,0-9,1.32c-5,1.09-8.41,4.63-8.93,9.44a21.86,21.86,0,0,0,.47,6.64c.78,3.67,1.86,7.27,2.87,10.89,1,3.41.22,5.06-3.06,6.46-6.54,2.77-13.18,5.29-20,7.4-6.54,2-13.08,4.19-19.44,6.74-7.45,3-10.65,9.07-10.73,16.87a21.91,21.91,0,0,0,.78,5.68c1.14,4.45,6.12,6.95,9.71,4.72.18-.11.45-.05.64-.07,3.3,3.6,9.13,11.59,9.63,13.19a27.93,27.93,0,0,1-11-5.54,46,46,0,0,0-6.49-4.49c-4.49-2.56-7.2-6.13-7.6-11.42-.59-7.67,1.44-14,8.39-18.24a113.07,113.07,0,0,1,29-12.82c3.85-1.06,7.76-1.89,11.62-2.91,3.1-.82,4.24-2.42,4-5.6-.12-1.58-.47-3.15-.71-4.73-.64-4.35-1.45-8.68-1.19-13.11.28-4.9,2.87-8.39,7.45-9.39a178.49,178.49,0,0,1,26.72-4.17,95,95,0,0,0,11.41-1.4,29.76,29.76,0,0,0,22.39-17,57.07,57.07,0,0,0,3.41-8.17c3.28-10.77,6.39-21.59,9.54-32.4.06-.18-.06-.42-.12-.75l-2.86.6c-2.35.48-4.68,1-7,1.42a8.37,8.37,0,0,1-8.62-3.49,36.2,36.2,0,0,1-2.22-3.41,47.53,47.53,0,0,1-4.42-10.59c-1-3.38-1.72-3.81-5.16-3.54-1,.07-1.91.2-2.87.24a97.4,97.4,0,0,1-9.8.31c-7.78-.46-13.66-4.08-17.2-11.16a32.7,32.7,0,0,1-1.82-4.17c-1.16-3.48-2.28-7-3.27-10.52a9.19,9.19,0,0,1,.49-6.13c3.2.36,6.31.58,9.37,1.09a9.35,9.35,0,0,0,6-.77q8.34-4.22,16.73-8.33a8.31,8.31,0,0,0,4.13-4.44c1.74-4,3.49-8.06,5.44-12,1.44-2.92,1.28-5.4-.79-8-3.45-4.3-6.69-8.77-10.07-13.12a8,8,0,0,1-1.79-4.1c-.21-1.72-.64-3.41-1-5a3.05,3.05,0,0,0-.69-.09c-.93.23-1.86.46-2.77.73-38.48,11.08-69.9,32.66-93.91,64.57C84.43,170.11,72.68,216.28,78.65,267a182.76,182.76,0,0,0,17.91,59.6c.66,1.35,1.4,2.66,2.16,4.1h27.61v26.57c.88.06,1.5.13,2.12.14,4.48,0,9-.06,13.44,0a2.93,2.93,0,0,0,3-1.79c5-9.27,10.14-18.5,15.21-27.74.25-.46.43-1,.7-1.56-.8-.22-1.4-.4-2-.54-2.56-.62-5.15-1.15-7.68-1.87a9,9,0,0,1-5.62-4.21c-1.48-2.72-2.77-5.55-4.21-8.45l2.34-1.58A24.88,24.88,0,0,0,145,312a43.3,43.3,0,0,0,4.51,5.85c3.53,3.42,7.89,4.05,12.69,3.35,4.44-.65,6.92-3.29,8.57-7.1,0-.08.07-.15.1-.22,6.24-12.59,13.63-24.41,23.21-34.78,2.05-2.23,3.94-4.63,5.85-7a34.85,34.85,0,0,0,2.33-3.33,8.25,8.25,0,0,0,1.29-6.17,10,10,0,0,1,2.17-8.54,4.23,4.23,0,0,0,.47-1.43l.11.12ZM85.65,363.51v84.8H426v-84.8Zm61.46-6.32a9.69,9.69,0,0,0,1.23.2l210.57-.07s.12-.08.16-.14a2.81,2.81,0,0,0,.19-.36c-4.4-3.73-6.11-8.95-7.48-14.34-.27-1.08-.66-2.14-.84-3.24a2,2,0,0,0-1.94-1.76c-1.34-.18-2.69-.38-4-.6-5.83-1-11.71-1.67-17.47-2.95-8.37-1.87-16.13-5.33-22.48-11.22-7.54-7-10.76-15.7-8.92-26a24.88,24.88,0,0,1,5.14-11.23c4.65-5.79,9.46-11.46,14.22-17.17,1.53-1.83,3.13-3.61,4.68-5.4-.59-.88-1.11-1.59-1.57-2.33a7.91,7.91,0,0,1-1.24-6,48.17,48.17,0,0,1,1.75-5.71,2.6,2.6,0,0,1,1.08-1.22c3.79-2.35,7.12-5.45,11.44-6.93a6,6,0,0,0,1.64-1c2-1.52,2.44-3.32,1.39-6.07-2.12.91-4.22,1.84-6.34,2.72s-4.39,1.75-6.74,1.13c-4-1-7.56-.05-11,1.86a35.57,35.57,0,0,1-4.75,2.26c-2.92,1.07-4.73.37-6.13-2.4a4.39,4.39,0,0,0-3.51-2.56c-2.85-.39-5.71-.68-8.58-.93a12.82,12.82,0,0,0-10.47,3.75,15.06,15.06,0,0,1-7.28,4,9.13,9.13,0,0,1-10.28-4.31c-.47-.75-.85-1.55-1.34-2.27-1.69-2.51-3.41-3-6.16-1.69-1.22.58-2.36,1.34-3.61,1.87-2.53,1.09-4.08.46-5.18-2.09-.48-1.09-.72-2.29-1.22-3.37-1.12-2.44-3.12-2.82-4.9-.85-2.49,2.75-3.86,6.16-5.64,9.43,1.66.43,3.08.69,4.43,1.16,4.84,1.7,5.86,4.75,2.76,8.8-5,6.5-11.23,11.06-19.57,12.27-7.28,1.06-12.7,4.91-16.5,11.14-.63,1-1.18,2.09-1.85,3.09q-11.25,16.84-22.55,33.66a3.34,3.34,0,0,0-.6,3.12,6.36,6.36,0,0,1-.39,4.65c-1.64,3.9-3.24,7.82-4.85,11.74a6,6,0,0,1-3.07,3.12c-.12-4,1.19-7.31,1.31-10.91-.48,0-1-.09-1.16.09a6.1,6.1,0,0,0-1,1.35q-10.11,15.87-20.2,31.75C147.89,355.77,147.6,356.33,147.11,357.19Zm223.63-256-.41.42c1.58,2.83,1.89,3.85,1.09,6.11-1.18,3.31-2.49,6.55-5.95,8.33-1.84.94-3.5,2.24-5.26,3.34a37,37,0,0,1-11.47,4.7c-5.71,1.28-10.66.31-14.19-4.8a3.37,3.37,0,0,0-3.11-1.41c-4.69.1-7.29,3.44-6.36,8.06a75.08,75.08,0,0,1,1.69,9.18c.34,4.61.34,9.26.29,13.89-.09,6.93.36,13.72,3.33,20.15a31.06,31.06,0,0,1,1.69,5.48c.64,2.56,1,5.18,1.75,7.71,2.66,9.12,5.51,18.18,8.13,27.31a29.9,29.9,0,0,0,5.53,10.53c1.93,2.44,3.73,5,5.6,7.48a6.52,6.52,0,0,1,1.11,5c-.22,1.8-.63,2.25-2.39,2.34a17.78,17.78,0,0,1-3.34-.18c-1.76-.26-3.5-.64-5.6-1,.46.62.66,1,.92,1.24a13.78,13.78,0,0,0,8.75,4c3.89.48,7.78.88,11.65,1.44s7,2.19,8.92,5.74a3,3,0,0,0,2.56,1.47q6.65,1,13.27,2c1.7.25,3.38.56,5.46.91l-1.23,1c-.3.25-.61.51-.91.78a11.57,11.57,0,0,0-4.11,11.15c.22,1.33.62,2.64.94,4,.92,3.78-.36,6.32-4,7.45s-7.39,2-11.1,3c-1.39.35-2.83.54-4.21.93-3.12.89-3.74,2.38-2.09,5.11a33.33,33.33,0,0,0,2.35,3.33,83.82,83.82,0,0,0,10.25,11.06,21.6,21.6,0,0,1,6.61,10.1c2.58,8.62-1.07,16.05-9.43,19.38-5.78,2.3-11.51,4.75-17.26,7.14-.55.23-1.08.52-1.6.78a3.17,3.17,0,0,0,.23.61c5.46,7.11,11.1,14,18.47,19.36,2.71,2,5.22,1.63,8.29,1.59v-26.7h2.89c7.59,0,15.19,0,22.78,0,1.48,0,2.43-.4,2.92-1.81a13.07,13.07,0,0,1,.76-1.49A189.26,189.26,0,0,0,431.48,207.9a184.8,184.8,0,0,0-47.79-94C379.55,109.53,375.06,105.44,370.74,101.2ZM248.51,191.56c1.76,1.91,1.87,2,1.28,3.11-1.11,2.1-2,4.39-4.07,5.83a8.78,8.78,0,0,0-1.64,1.74c-2.07,2.52-3.3,5.29-2.26,8.63a2.37,2.37,0,0,1-.8,2.58c-1.46,1.37-2.93,2.72-4.36,4.12-.53.51-1.58,1-.9,1.87.23.31,1.27.12,1.9,0,1-.22,2-.58,3.2-.93-.17,1.27-.29,2.2-.43,3.26L251.07,228c1.23-.91,2.48-.68,3.79-.13a34.66,34.66,0,0,0,4.29,1.51,3.1,3.1,0,0,1,2.47,2.54c.48,2.18,1.2,4.31,1.85,6.45.17.56.46,1.09.75,1.78,1.22-.69,2.27-1.26,3.3-1.85,2.5-1.43,5-2.9,7.49-4.29a24,24,0,0,1,11.64-3.27c4.71,0,9.43.12,14.14.21.61,0,1.22.12,1.85.18l1.77,6.51L319,228.35c.32.53.51.86.72,1.19,1.72,2.68,3.42,3,5.93,1,.82-.64,1.54-1.4,2.29-2.11a4.27,4.27,0,0,1,4.59-1.19,3,3,0,0,0,2.26-.16,25.81,25.81,0,0,0,4.11-3.56,3.28,3.28,0,0,0,.35-2.26,7.89,7.89,0,0,0-.72-2c-1.62-4.25-3.44-8.43-4.82-12.76-2.45-7.68-4.63-15.44-6.9-23.18a11.08,11.08,0,0,1-.39-2.36,14.57,14.57,0,0,0-3-7.93,19.32,19.32,0,0,1-2.22-3.66c-1-2.29-.65-4.71-.32-7.09.5-3.63,1.38-7.23,1-11-.56-6.12-1.13-12.25-1.57-18.38-.32-4.39-.41-8.78-.65-13.17-.07-1.28.22-2.17,1.59-2.53a6.37,6.37,0,0,0,4.09-3.77c.67-1.36,1.29-2.75,1.9-4.14a13,13,0,0,0-1.09-12.79,7,7,0,0,0-5.23-3.46c-5-.59-10-1.21-15-1.74-2.41-.25-4.84-.34-7.77-.53,1.33,1.58,2.4,2.74,3.33,4,1.39,1.87,1.21,2.83-.72,4.49-4.85-2.38-9.74-4.78-14.62-7.19a3.24,3.24,0,0,1,2-.78c3.76.21,7-1.16,10.12-3.08a18.54,18.54,0,0,1,12.42-2.59,19.25,19.25,0,0,0,7.34-.76c-7.41-7.29-20.89-9.75-32.65-6.81a.67.67,0,0,0,0,.24c1.78,4.77,1.55,5.62-2.05,9a15.89,15.89,0,0,0-2.35,3,2.2,2.2,0,0,0,.42,3A39.33,39.33,0,0,0,284.76,96c1.05.72,2.24,1.26,3.21,2.07a4.06,4.06,0,0,1,1.06,5.31l-16.29-9.86c5.27-3,4.76-8,5.7-12.79a69,69,0,0,1-13.89-1.13,1.79,1.79,0,0,1-.06-.43c.24-.5.48-1,.74-1.49a35.89,35.89,0,0,0,3.66-24.84,8.66,8.66,0,0,0-6.14-7c-4.08-1.37-8.2-2.66-12.37-3.77a55.78,55.78,0,0,0-24.45-1.34c-9.22,1.65-17.44,5.58-25.07,10.88a8.14,8.14,0,0,0-.88.84c2.77,1.87,5.31,3.66,8.63,3.7a8.06,8.06,0,0,1,1.88.33c3.74,1,5.67,3.36,5.24,7.19a9.08,9.08,0,0,0,2.07,6.87c3.43,4.52,6.8,9.09,10.34,13.52,5.31,6.67,5.23,13.37-.4,19.71-.89,1-1.72,2.07-2.67,3.23l1.29,1.49c1.89-1,3.63-2,5.36-3a2,2,0,0,0,1.21-2.38c-.67-2.24.41-3.62,2-4.86.7-.53,1.29-1.19,2-1.76A9.4,9.4,0,0,1,243.25,94a21.21,21.21,0,0,0,4.05-.39,32.78,32.78,0,0,1,9.79,0,8.27,8.27,0,0,1,6.4,4.1,72.51,72.51,0,0,0,4.43,5.93c1,1.25,2.16,2.37,3.17,3.6a14.44,14.44,0,0,1,3.19,6.37,10.18,10.18,0,0,1-1.25,7.75,11.55,11.55,0,0,0-6.51-1.32c-2.28.27-4.28,1.17-5,3.51-1.48,4.87-1.3,9.54,1.68,14,2.7,4.05,5.25,8.21,7.6,12.48,4.14,7.5.27,17.28-8.83,18.06a8.46,8.46,0,0,0-7.39,5.68q-.45,1.11-.84,2.25-2.26,6.57-4.51,13.14C249,190,248.74,190.8,248.51,191.56ZM50.67,330.45c-.39-1.1-.68-2-1-2.85a232.8,232.8,0,0,1-14.92-66.41A239.06,239.06,0,0,1,36.9,206a226.55,226.55,0,0,1,23.18-71C83.44,90.59,117.36,56.87,162.59,34.9c29.67-14.42,61.16-21.21,94.11-21.16a213.15,213.15,0,0,1,35.56,3A209.55,209.55,0,0,1,353.45,37c45.47,23.43,79.11,58.47,101.44,104.38a228.21,228.21,0,0,1,22.18,83.34,239.91,239.91,0,0,1-1.7,52.14,230.42,230.42,0,0,1-13.63,51.8c-.22.57-.33,1.18-.55,1.95h7.24c.23-.44.36-.64.45-.86.3-.74.59-1.48.87-2.23a243.3,243.3,0,0,0,11.89-124.81,236.46,236.46,0,0,0-28.76-80.34c-23.82-41-56.73-72.42-99.34-93.37A218.7,218.7,0,0,0,243.9,6.69a215.94,215.94,0,0,0-43.27,6.64A223.35,223.35,0,0,0,94.39,75.45c-40.22,41.7-62.16,91.76-66.86,149.41A234.45,234.45,0,0,0,28.74,273a241.6,241.6,0,0,0,13.59,55.25c.3.8.67,1.58,1,2.24Zm332-76.81-18.71,1.57-.13-.4,5.5-3.22c-1.9-2.05-3.6-3.93-5.37-5.75a5.37,5.37,0,0,0-1.77-1.21c-2.65-1.11-5.27-2.32-8-3.16a18.32,18.32,0,0,0-11.08.22,59.71,59.71,0,0,1-8.86,2c-8.37,1.21-13.53,7.84-12.18,16.15a10.12,10.12,0,0,1-2.06,8.31c-2,2.52-4,5-6,7.47-3.11,3.86-6.25,7.7-9.32,11.59a16.89,16.89,0,0,0-4,9.1,54,54,0,0,0,.31,13.39,20.52,20.52,0,0,0,6.27,11.87,40.75,40.75,0,0,0,14,8.57,75.87,75.87,0,0,0,16.82,3.62,39.82,39.82,0,0,0,31.5-9.13c.6-.49,1.24-.94,1.93-1.46l2.39,3c1-.57,1.87-1.08,2.75-1.61,6.55-3.91,8.18-11.28,3.65-17.41-3.75-5.08-7.72-10-11.64-14.95-2.75-3.45-5.36-7-6.75-11.24a7.1,7.1,0,0,0-1.16-2.08,5,5,0,0,0-5.31-1.79c.36,2.35.65,4.55,1,6.73a6.58,6.58,0,0,0,2.47,4c1.12.9,2.31,1.7,3.48,2.54a39.27,39.27,0,0,1,3.7,2.64,7.87,7.87,0,0,1-.58,11.75,2.31,2.31,0,0,1-.92-2.7,8.24,8.24,0,0,0-2.9-8.17c-.77-.7-1.56-1.37-2.33-2.07-1.47-1.35-2.93-2.72-4.4-4.08a4.31,4.31,0,0,1-1.57-3.82,9.49,9.49,0,0,0-.24-2.85,4.22,4.22,0,0,0-4.35-3.68c-.79,0-1.59,0-2.39.06-1.82.05-1.9-.05-1.58-2.22,5.39,0,10.8,0,16.22,0,3.11,0,6.23.31,9.34.21A29.5,29.5,0,0,0,382,272.78c2.68-1.24,3.56-3,3.06-5.79C384.31,262.67,383.5,258.35,382.63,253.64Zm-344.22,126L11.35,421.54H79.49V357.91l39.57-20.76-.15-.38H11.32Zm462.08,42-27.09-42c4.61-7.29,9.11-14.36,13.58-21.46s9-14,13.47-21.4H393l-.15.43,39.45,20.2v42.89c0,7.08,0,14.15,0,21.33ZM341.75,82.53c.09-.49.13-.88.24-1.26.88-3.06,1.77-6.13,2.68-9.19a30.08,30.08,0,0,0,1.61-11.32c-.66-7.14-4.2-12.61-9.81-16.88-3.83-2.91-7.9-4.87-12.89-3.55a7.28,7.28,0,0,1-.95.09c-3.4.46-6.82.83-10.2,1.44s-4.56,3.2-2.84,6.25a16.39,16.39,0,0,0,1.18,1.8q3.17,4.23,6.35,8.42C318,59.52,319,60.68,320,62c.95-.74,1.67-1.36,2.44-1.91s1.33-1.54,2.58-.31c-1,2.64-2,5.31-2.95,8a45.07,45.07,0,0,0-1.84,5.43c-1,4.47.31,7.26,4.36,9.27a3.59,3.59,0,0,1,2.09,2.4,28.18,28.18,0,0,0,4.23,8.82,27.28,27.28,0,0,1,1.9,3.33,12.61,12.61,0,0,1,1.23,9.28,5.45,5.45,0,0,0,.73,4.34c2,3.63,5,6.41,7.94,9.25a2.09,2.09,0,0,0,1.5.46,31.77,31.77,0,0,0,10.88-2.66c4.49-2.22,7.51-5.76,9.69-10.67-3.2-.13-6-.25-8.89-.35-1.2,0-2.41.06-3.59-.07a9.62,9.62,0,0,1-8.6-9.24c2.67-1,5.4-2.17,8.17-3.18,5.77-2.11,11.57-4.16,17.34-6.26a12.12,12.12,0,0,0,7.51-7,5.11,5.11,0,0,0-.7-5.62,6.19,6.19,0,0,1-.92-7.14,9.43,9.43,0,0,0,.79-2.75,2.86,2.86,0,0,0-2.94-3.52,11.06,11.06,0,0,0-3.08.32,11.56,11.56,0,0,0-7.79,6.27c-2.26,4.45-5.71,7.8-9.32,11.12C349.49,82.62,345.83,82.86,341.75,82.53ZM357.05,455l-.17-.54c-4.23,0-8.47.05-12.7,0a13.48,13.48,0,0,0-5.56,1.11,212.69,212.69,0,0,1-62.77,15.55,217.34,217.34,0,0,1-42.37-.27,214.36,214.36,0,0,1-53-12.41c-3.5-1.3-6.91-3.16-10.54-3.8s-7.64-.15-11.48-.15h-3.66l-.06.51a221.75,221.75,0,0,0,202.35,0Zm-168-333.48c-1.19.48-1.56,1.14-1.19,2.31.43,1.37.63,2.81,1,4.2,1.78,6.93,6,11.83,12.37,15a54.06,54.06,0,0,1,5.53,3.29,5.28,5.28,0,0,0,3.8,1.08c2.6-.38,5.25-.57,7.82-1.11A35.68,35.68,0,0,0,235.14,138c1.92-1.73,2.79-3.67,1.54-6.17a3.34,3.34,0,0,1-.11-.89c10.7-5,21.59-9.74,32.24-15.06a12.05,12.05,0,0,0-3.13-.62A31,31,0,0,0,252.47,117c-5.61,2.08-11.12,4.42-16.68,6.63-4.44,1.78-8.84,3.7-13.37,5.24a42.16,42.16,0,0,1-18.18,2.22,9.7,9.7,0,0,1-7.05-3.63C195.08,124.66,192.24,123,189.09,121.55Zm67.42,28.82-.4.08c-.41-.64-.85-1.27-1.23-1.93-2.45-4.2-4.86-8.43-7.35-12.62-1.8-3-3.19-3.07-5.32-.19-1,1.35-1.87,2.78-2.82,4.16-1.76,2.57-3.85,4.69-7.07,5.32a1.6,1.6,0,0,0-1.42,1.4,10.78,10.78,0,0,0,.45,6.56,18.08,18.08,0,0,1,1.7,5.67c.33,4.31,3,6.3,6.64,7.5,1.76.57,2.43.22,2.62-1.61.29-2.73,1-5.55-.69-8.15a3.27,3.27,0,0,1-.32-1.14c-.49-2.65.51-3.84,3.17-3.68a7,7,0,0,1,6.37,4.33c.77,1.75,1.35,3.59,2.15,5.32,1.62,3.52,4.28,4.58,7.59,2.62A49.59,49.59,0,0,0,268,158.4a4.35,4.35,0,0,0,.63-5.89,11.43,11.43,0,0,0-2.18-2.52c-2.48-2.14-5-4.19-7.58-6.25-.46-.37-1-.66-1.73-1.14C256.91,145.38,256.71,147.88,256.51,150.37Zm57.16-82.24a168.06,168.06,0,0,0-38.83-8.82,71.65,71.65,0,0,1-.68,7.81c-.49,2.44-1.67,4.73-1.78,7.52h7.07q13.53,0,27.05,0c1.51,0,3.09.75,4.37-.92a11,11,0,0,0,2.4-4.07C313.37,69.2,313.5,68.76,313.67,68.13ZM206.19,261.83a27.73,27.73,0,0,0,8.19-.22A35.25,35.25,0,0,0,230.9,254a11.3,11.3,0,0,0,4.24-9.94c-4,1-4.73,1.43-7.08,4.45a12.26,12.26,0,0,1-6.68,4.38c-1.76.47-3.59.7-5.4,1C211.39,254.69,208.22,257.24,206.19,261.83Zm4.71-11a13.17,13.17,0,0,0,7.58-.08,8.84,8.84,0,0,0,6.9-8.67,5.19,5.19,0,0,0-.42-2.31c-2-4.1-5.59-4.5-7.93-.66S213,246.78,210.9,250.79ZM360.07,348.9c1.57,3.1,2.92,5.75,4.32,8.5H374.9C372.25,355.13,362.36,349.33,360.07,348.9Z"/><path d="M199.81,254.52c-2.82-.38-5.69-.55-8.46-1.2-4-.93-5.41-5.06-3-8.4.94-1.34,2-2.6,3.09-4a2.6,2.6,0,0,1,.57,3,23.43,23.43,0,0,0-1.47,4.27c-.45,2.16.23,3.36,2.31,4.1a44.62,44.62,0,0,0,4.63,1.12l2.48.55Z"/><path d="M249.36,277.65a10.53,10.53,0,0,1-.45,8.71q-3.79,7.86-7.64,15.71c-.33.68-.57,1.57-1.85,1.19-.29-2.31-.56-4.72.47-6.93,2.87-6.15,5.89-12.22,8.86-18.32C248.81,277.9,249,277.85,249.36,277.65Z"/><path d="M269,140.14c-.7-3.86-1.39-7.68-2.1-11.64l1.53-1c3,1.74,3.9,4.64,4.4,7.65C273.16,137.19,271.61,139.06,269,140.14Z"/></g><g id="Kakas"><text class="cls-1" transform="translate(149.39 434.35) scale(0.8 0.8)">Kakas</text></g></svg>