<?xml version="1.0" encoding="UTF-8" standalone="no"?>
<!DOCTYPE svg PUBLIC "-//W3C//DTD SVG 1.1//EN" "http://www.w3.org/Graphics/SVG/1.1/DTD/svg11.dtd">
<svg width="100%" height="100%" viewBox="0 0 1205 418" version="1.1" xmlns="http://www.w3.org/2000/svg" xmlns:xlink="http://www.w3.org/1999/xlink" xml:space="preserve" xmlns:serif="http://www.serif.com/" style="fill-rule:evenodd;clip-rule:evenodd;stroke-linejoin:round;stroke-miterlimit:2;">
    <g id="SchönherzIskolaszövetkezet" transform="matrix(1,0,0,1,0,-6)">
        <g id="iskolaszövetkezet">
            <g transform="matrix(0,1,1,0,381.599,367.748)">
                <path d="M-9.172,0.076L-0.076,0.076L-0.076,-9.02C-3.07,-8.945 -6.366,-9.172 -9.172,-8.906L-9.172,0.076Z" style="fill:rgb(26,23,27);fill-rule:nonzero;"/>
            </g>
            <g transform="matrix(1,0,0,1,447.846,423.95)">
                <path d="M0,-65.375L9.209,-65.375C9.285,-52.98 9.058,-40.287 9.323,-28.083C11.635,-27.894 14.742,-27.894 17.055,-28.083C24.874,-28.146 28.563,-32.34 28.765,-40.021C29.029,-42.105 28.803,-44.681 28.879,-46.956L38.088,-46.956L38.088,-40.931C37.828,-40.735 38.047,-40.063 37.975,-39.68C37.552,-32.598 35.412,-27.234 31.38,-23.763C35.756,-19.989 38.257,-14.343 38.543,-6.48L38.543,0L29.447,0C29.372,-2.085 29.598,-4.472 29.333,-6.366C29.257,-14.136 25.828,-18.551 18.191,-18.76C15.463,-18.949 11.938,-18.949 9.209,-18.76L9.209,0L0,0L0,-65.375Z" style="fill:rgb(26,23,27);fill-rule:nonzero;"/>
            </g>
            <g transform="matrix(1,0,0,1,556.31,423.95)">
                <path d="M0,-65.375L9.21,-65.375C9.208,-51.707 9.211,-35.309 9.21,-20.807C9.21,-18.159 8.996,-15.604 9.778,-13.871C11.686,-9.65 17.376,-9.351 23.08,-9.208C23.116,-9.055 23.365,-9.114 23.535,-9.095L23.535,0L21.603,0C14.499,-0.249 8.657,-1.758 4.662,-5.116C4.331,-5.543 3.951,-5.922 3.525,-6.252C1.539,-8.74 0.151,-11.823 0,-16.144L0,-65.375Z" style="fill:rgb(26,23,27);fill-rule:nonzero;"/>
            </g>
            <g transform="matrix(0,1,1,0,768.163,367.746)">
                <path d="M-9.171,0.075L-0.075,0.075L-0.075,-9.019C-3.069,-8.946 -6.365,-9.171 -9.171,-8.905L-9.171,0.075Z" style="fill:rgb(26,23,27);fill-rule:nonzero;"/>
            </g>
            <g transform="matrix(0,1,1,0,786.582,367.746)">
                <path d="M-9.171,0.075L-0.075,0.075L-0.075,-9.02C-3.069,-8.946 -6.365,-9.171 -9.171,-8.905L-9.171,0.075Z" style="fill:rgb(26,23,27);fill-rule:nonzero;"/>
            </g>
            <g transform="matrix(1,0,0,1,920.477,424.063)">
                <path d="M0,-65.488L9.209,-65.488C9.285,-59.385 9.059,-52.981 9.324,-47.069C13.796,-46.805 18.76,-47.031 23.421,-46.956L23.421,-37.86C18.723,-37.785 13.719,-38.01 9.209,-37.745C9.285,-30.509 9.059,-22.966 9.324,-15.917C9.879,-10.598 14.845,-9.689 20.352,-9.321C20.51,-9.064 21.144,-9.28 21.488,-9.208L23.421,-9.208L23.421,0L21.375,0C21.219,-0.259 20.583,-0.041 20.238,-0.113C9.938,-0.794 2.595,-3.839 0.568,-12.506C-0.122,-15.462 0,-18.754 0,-22.511C0.002,-36.345 0,-51.985 0,-65.488" style="fill:rgb(26,23,27);fill-rule:nonzero;"/>
            </g>
            <g transform="matrix(1,0,0,1,974.937,377.335)">
                <path d="M0,27.856C-2.729,27.589 -5.951,27.819 -8.868,27.742C-9.135,33.806 -8.907,40.364 -8.982,46.615L-18.078,46.615L-18.078,-18.759L-8.982,-18.759L-8.982,18.533C-6.63,18.72 -3.488,18.723 -1.138,18.533C7.424,18.528 10.892,13.432 10.687,4.663C10.951,3.222 10.726,1.291 10.801,-0.341L19.896,-0.341L19.896,5.914C19.797,12.231 17.846,17.607 14.78,21.261C14.232,21.914 12.561,23.075 13.757,23.309C14.201,23.849 14.694,24.341 15.234,24.788C18.183,28.396 20.025,33.108 20.352,39.338C20.422,39.722 20.205,40.395 20.465,40.589L20.465,46.615L11.256,46.615C11.18,44.342 11.406,41.765 11.142,39.68C10.957,32.209 7.465,28.047 0,27.856" style="fill:rgb(26,23,27);fill-rule:nonzero;"/>
            </g>
            <g transform="matrix(1,0,0,1,1181.64,374.152)">
                <path d="M0,34.336L0,-15.576L9.095,-15.576L9.095,2.843C13.644,3.107 18.683,2.881 23.42,2.956L23.42,12.052L9.208,12.052C9.019,19.025 9.019,26.794 9.208,33.768C9.65,39.315 14.72,40.232 20.35,40.59C20.509,40.848 21.142,40.632 21.487,40.703L23.42,40.703L23.42,49.912L21.261,49.912C21.104,49.652 20.468,49.871 20.123,49.799C13.694,49.482 8.507,47.924 4.773,44.91C4.367,44.408 3.912,43.953 3.409,43.546C1.57,41.178 0.205,38.338 0,34.336" style="fill:rgb(26,23,27);fill-rule:nonzero;"/>
            </g>
            <g transform="matrix(1,0,0,1,372.693,423.95)">
                <path d="M0,-46.956L8.982,-46.956L8.982,0L-0.114,0L-0.114,-46.615C-0.124,-46.776 -0.132,-46.936 0,-46.956" style="fill:rgb(26,23,27);fill-rule:nonzero;"/>
            </g>
            <g transform="matrix(1,0,0,1,396.569,411.216)">
                <path d="M0,-21.374C0.621,-30.72 7.585,-33.724 17.054,-34.222L20.692,-34.222C30.069,-33.744 36.961,-30.783 37.747,-21.716C37.818,-21.37 37.602,-20.736 37.86,-20.577L37.86,-20.237L28.651,-20.237C28.485,-24.694 24.031,-24.863 19.556,-25.013C19.396,-25.2 18.464,-25.2 18.305,-25.013C14.007,-24.875 9.687,-24.761 9.209,-20.806C9.02,-20.609 9.02,-19.637 9.209,-19.441C9.297,-15.96 13.373,-15.791 16.94,-15.462C27.439,-14.496 36.985,-13.881 37.747,-2.728C37.818,-2.383 37.602,-1.748 37.86,-1.592L37.86,-0.796C37.602,-0.638 37.818,-0.004 37.747,0.342C36.971,9.002 30.646,12.114 21.83,12.734C21.484,12.807 20.85,12.588 20.692,12.848L17.054,12.848C16.896,12.588 16.263,12.807 15.917,12.734C7.009,12.092 0.617,8.934 0,-0L0,-1.25L8.868,-1.25C9.266,2.272 12.28,3.398 16.258,3.526C16.714,3.788 17.658,3.564 18.305,3.64C22.162,3.587 27.055,3.536 28.31,0.798C29.019,-0.753 28.812,-3.076 27.742,-4.206C25.817,-6.237 18.451,-6.074 15.008,-6.48C9.97,-7.073 6.398,-8.109 3.866,-10.232C3.534,-10.658 3.155,-11.038 2.729,-11.369C1.258,-13.348 0.132,-15.67 0,-18.987L0,-21.374Z" style="fill:rgb(26,23,27);fill-rule:nonzero;"/>
            </g>
            <g transform="matrix(1,0,0,1,497.985,403.369)">
                <path d="M0,-5.796C0.822,-18.882 7.461,-26.151 21.147,-26.376L22.512,-26.376C36.647,-26.146 43.217,-18.354 43.659,-4.432L43.659,-1.248C43.237,12.351 36.855,19.993 23.421,20.58L20.238,20.58C14.285,20.32 9.747,18.641 6.367,15.807C5.998,15.342 5.581,14.924 5.117,14.555C1.75,10.607 0.004,5.038 -0.113,-2.159L-0.113,-4.658C0.145,-4.817 -0.072,-5.45 0,-5.796M34.45,-4.204C34.407,-9.795 32.807,-13.621 29.789,-15.46C25.923,-17.817 18.435,-17.973 14.326,-15.688C10.489,-13.554 9.117,-8.864 9.096,-3.067C9.06,6.431 12.521,11.496 21.943,11.486C30.381,11.476 34.43,7.501 34.45,-1.476C34.639,-2.122 34.639,-3.559 34.45,-4.204" style="fill:rgb(26,23,27);fill-rule:nonzero;"/>
            </g>
            <g transform="matrix(1,0,0,1,594.967,419.857)">
                <path d="M0,-38.77C3.389,-41.447 8.081,-42.816 14.099,-42.863L15.577,-42.863C21.581,-42.805 26.41,-41.569 29.789,-38.884C30.159,-38.419 30.574,-38.002 31.039,-37.632C32.5,-35.682 33.604,-33.375 33.77,-30.129L33.77,-8.641C33.608,-5.389 32.489,-3.097 31.039,-1.137C30.574,-0.768 30.159,-0.351 29.789,0.114C26.61,2.659 22.089,3.86 16.6,4.093L13.075,4.093C7.581,3.866 3.195,2.53 0,0C-0.368,-0.465 -0.785,-0.881 -1.25,-1.25C-2.723,-3.303 -3.974,-5.577 -4.093,-8.982L-4.093,-10.914C-3.977,-14.247 -2.773,-16.493 -1.364,-18.533C-0.824,-18.977 -0.331,-19.47 0.114,-20.01C3.39,-22.533 7.85,-23.872 13.53,-23.99C14.517,-24.064 15.803,-23.839 16.6,-24.104C20.398,-24.321 24.118,-24.621 24.559,-28.197C24.748,-28.356 24.748,-29.288 24.559,-29.446C24.082,-33.405 19.752,-33.509 15.463,-33.653C15.304,-33.841 14.371,-33.841 14.212,-33.653C9.888,-33.507 5.506,-33.416 5.116,-29.332C4.809,-29.415 5.199,-28.796 4.89,-28.878L-4.093,-28.878L-4.093,-29.789C-3.974,-33.194 -2.723,-35.467 -1.25,-37.52C-0.785,-37.889 -0.368,-38.305 0,-38.77M24.445,-16.031C21.875,-15.34 19.143,-14.816 15.918,-14.781C14.97,-14.706 13.721,-14.931 12.962,-14.666C9.205,-14.442 5.471,-14.2 5.116,-10.574C4.929,-10.45 4.929,-9.559 5.116,-9.435C5.24,-5.638 10.066,-5.023 14.667,-5.001C19.274,-4.983 24.415,-5.592 24.559,-9.322C24.824,-11.332 24.596,-13.833 24.672,-16.031C24.646,-16.174 24.446,-16.145 24.445,-16.031" style="fill:rgb(26,23,27);fill-rule:nonzero;"/>
            </g>
            <g transform="matrix(1,0,0,1,643.287,411.216)">
                <path d="M0,-21.374C0.624,-30.718 7.584,-33.726 17.055,-34.222L20.694,-34.222C30.597,-33.741 37.656,-30.415 37.862,-20.237L28.651,-20.237C28.485,-24.694 24.031,-24.863 19.558,-25.013C19.396,-25.2 18.465,-25.2 18.306,-25.013C14.009,-24.875 9.688,-24.761 9.21,-20.806C9.022,-20.646 9.022,-19.715 9.21,-19.556C9.197,-15.968 13.366,-15.791 16.94,-15.462C28.089,-14.437 38.043,-13.666 37.862,-0.796C37.603,-0.638 37.818,-0.004 37.748,0.342C36.979,9.008 30.644,12.111 21.83,12.734C21.484,12.807 20.851,12.588 20.694,12.848L17.055,12.848C16.898,12.588 16.263,12.807 15.918,12.734C7.016,12.088 0.618,8.934 0,-0L0,-1.25L8.868,-1.25C9.273,2.266 12.272,3.401 16.259,3.526C16.717,3.788 17.66,3.564 18.306,3.64C22.187,3.596 27.037,3.522 28.311,0.798C28.995,-0.668 28.839,-2.938 27.857,-4.093C26.051,-6.209 18.56,-6.09 15.123,-6.48C10.026,-7.059 6.411,-8.091 3.867,-10.232C3.535,-10.658 3.157,-11.038 2.729,-11.369C1.27,-13.356 0.128,-15.664 0,-18.987L0,-21.374Z" style="fill:rgb(26,23,27);fill-rule:nonzero;"/>
            </g>
            <g transform="matrix(1,0,0,1,695.019,423.95)">
                <path d="M0,-46.956L43.772,-46.956L43.772,-40.816C43.326,-27.013 36.846,-19.244 22.966,-18.874C22.17,-18.798 21.072,-19.024 20.465,-18.76C14.053,-18.428 10.433,-15.301 9.55,-9.436C9.44,-9.435 9.462,-9.298 9.437,-9.208C20.654,-8.943 32.364,-9.171 43.772,-9.095L43.772,0L0,0L0,-5.344C0.263,-19.293 6.424,-27.344 20.01,-27.97C20.845,-28.043 21.979,-27.818 22.625,-28.083C29.546,-28.249 33.409,-31.473 34.222,-37.747C23.042,-38.012 11.369,-37.785 0,-37.86L0,-46.956Z" style="fill:rgb(26,23,27);fill-rule:nonzero;"/>
            </g>
            <g transform="matrix(1,0,0,1,757.779,419.29)">
                <path d="M0,-37.634C3.553,-40.523 8.281,-42.237 14.665,-42.295L15.917,-42.295C22.319,-42.255 27.026,-40.519 30.584,-37.634C31.028,-37.094 31.521,-36.601 32.062,-36.155C35.288,-32.294 36.979,-26.9 37.178,-20.011L37.178,-17.509C36.797,-3.755 30.479,4.064 16.94,4.661L13.757,4.661C0.166,4.077 -6.255,-3.674 -6.595,-17.509L-6.595,-20.011C-6.467,-26.894 -4.729,-32.167 -1.592,-36.042C-1.015,-36.525 -0.483,-37.057 0,-37.634M2.615,-17.737C2.775,-13.529 3.203,-10.735 4.889,-8.414C7.979,-4.157 18.844,-2.899 23.989,-6.708C28.506,-10.054 29.517,-22.861 26.034,-28.538C23.105,-33.318 13.604,-34.788 7.731,-31.608C4.097,-29.641 2.626,-25.362 2.615,-19.899C2.426,-19.44 2.426,-18.195 2.615,-17.737" style="fill:rgb(26,23,27);fill-rule:nonzero;"/>
            </g>
            <g transform="matrix(1,0,0,1,825.428,376.995)">
                <path d="M0,47.524C-6.128,31.594 -12.474,15.884 -18.646,0L-8.755,0C-4.417,11.127 -0.054,22.224 4.32,33.312C8.766,22.258 13.123,11.114 17.509,0L27.4,0C21.226,15.88 14.877,31.588 8.754,47.524L0,47.524Z" style="fill:rgb(26,23,27);fill-rule:nonzero;"/>
            </g>
            <g transform="matrix(1,0,0,1,868.519,419.29)">
                <path d="M0,-37.634C3.557,-40.518 8.276,-42.241 14.666,-42.295L16.03,-42.295C30.17,-42.072 36.685,-34.223 37.178,-20.353L37.178,-14.213C25.769,-14.137 14.06,-14.364 2.842,-14.099C3.828,-7.847 7.772,-4.553 15.006,-4.547C22.169,-4.282 29.825,-4.51 37.178,-4.434L37.178,4.661L13.755,4.661C0.025,4.066 -6.393,-3.842 -6.596,-17.965C-6.596,-18.494 -6.595,-19.025 -6.596,-19.557C-6.526,-26.727 -4.769,-32.206 -1.479,-36.155C-0.939,-36.601 -0.446,-37.094 0,-37.634M27.626,-23.763C27.062,-31.388 18.77,-34.567 11.026,-32.745C6.608,-31.704 2.95,-27.761 2.956,-23.422C6.896,-23.156 11.329,-23.384 15.461,-23.309L24.897,-23.309C25.78,-23.488 27.407,-22.92 27.74,-23.65C27.734,-23.719 27.723,-23.784 27.626,-23.763" style="fill:rgb(26,23,27);fill-rule:nonzero;"/>
            </g>
            <g transform="matrix(1,0,0,1,1007.45,403.371)">
                <path d="M0,-5.798C0.827,-18.88 7.458,-26.156 21.147,-26.377L22.512,-26.377C36.609,-26.15 43.182,-18.396 43.659,-4.548L43.659,1.704L9.323,1.704C9.313,1.868 9.305,2.027 9.437,2.047C10.422,8.223 14.443,11.364 21.602,11.37C28.728,11.636 36.344,11.408 43.659,11.483L43.659,20.579L20.237,20.579C14.284,20.317 9.746,18.639 6.367,15.804C5.997,15.34 5.581,14.922 5.116,14.554C1.732,10.586 -0.016,4.98 -0.113,-2.274L-0.113,-4.661C0.145,-4.819 -0.071,-5.453 0,-5.798M34.223,-7.504C33.803,-10.317 32.832,-12.649 31.039,-14.325C27.007,-18.092 17.328,-18.235 13.075,-14.666C13.005,-14.659 12.939,-14.65 12.961,-14.553C12.535,-14.222 12.155,-13.842 11.824,-13.416C10.554,-11.996 9.742,-10.115 9.437,-7.731C9.154,-7.686 9.43,-7.29 9.664,-7.39C17.812,-7.467 26.264,-7.237 34.223,-7.504" style="fill:rgb(26,23,27);fill-rule:nonzero;"/>
            </g>
            <g transform="matrix(1,0,0,1,1066.23,423.95)">
                <path d="M0,-46.956L43.773,-46.956L43.773,-40.59C43.513,-34.025 41.833,-28.885 38.769,-25.127C38.192,-24.644 37.662,-24.113 37.179,-23.535C33.71,-20.713 29.128,-19.005 22.967,-18.874C22.17,-18.798 21.072,-19.024 20.464,-18.76C13.953,-18.524 10.156,-14.97 9.551,-9.208C20.731,-8.943 32.403,-9.171 43.773,-9.095L43.773,0L0,0L0,-6.14C0.492,-19.594 6.661,-27.372 20.011,-27.97C20.845,-28.043 21.98,-27.818 22.626,-28.083C29.575,-28.22 33.353,-31.531 34.223,-37.747C23.042,-38.012 11.37,-37.785 0,-37.86L0,-46.956Z" style="fill:rgb(26,23,27);fill-rule:nonzero;"/>
            </g>
            <g transform="matrix(1,0,0,1,1122.97,401.555)">
                <path d="M0,-2.164C0.374,-16.343 6.914,-24.352 21.261,-24.56L22.625,-24.56C29.104,-24.483 33.918,-22.741 37.404,-19.672C37.737,-19.245 38.115,-18.866 38.543,-18.534C41.849,-14.716 43.618,-9.36 43.772,-2.39L43.772,3.521L9.436,3.521C9.427,3.685 9.418,3.844 9.551,3.863C10.509,10.068 14.564,13.174 21.716,13.187C28.841,13.452 36.458,13.225 43.772,13.3L43.772,22.396L20.351,22.396C14.404,22.129 9.848,20.469 6.479,17.62C6.073,17.119 5.618,16.664 5.115,16.255C1.885,12.4 0.189,7.01 0,0.111L0,-2.164ZM34.336,-5.687C34.054,-14.685 22.189,-17.736 14.779,-13.986C12.017,-12.588 9.844,-9.272 9.551,-5.914C9.267,-5.869 9.543,-5.474 9.778,-5.573C17.926,-5.65 26.376,-5.421 34.336,-5.687" style="fill:rgb(26,23,27);fill-rule:nonzero;"/>
            </g>
        </g>
        <g id="schönherz">
            <g transform="matrix(1,0,0,1,557.675,343.455)">
                <path d="M0,-113.923L16.031,-113.923L16.031,-76.631C21.119,-79.199 27.442,-81.517 35.246,-81.747C35.74,-81.821 36.532,-81.6 36.838,-81.86L39.68,-81.86C39.987,-81.6 40.777,-81.821 41.271,-81.747C51.831,-81.317 59.709,-78.204 65.489,-72.992C65.858,-72.527 66.274,-72.111 66.739,-71.742C72.409,-65.472 75.587,-56.713 76.177,-45.364C76.247,-45.02 76.031,-44.386 76.29,-44.228L76.29,0L60.259,0L60.259,-43.546C60.188,-43.893 60.404,-44.525 60.146,-44.683C59.786,-57.93 53.644,-65.392 40.362,-65.716C39.187,-65.905 37.219,-65.905 36.042,-65.716C22.764,-65.351 16.479,-57.992 16.146,-44.683C15.887,-44.525 16.103,-43.893 16.031,-43.546L16.031,0L0,0L0,-113.923Z" style="fill:rgb(26,23,27);fill-rule:nonzero;"/>
            </g>
            <g transform="matrix(1,0,0,1,0,44.03)">
                <rect x="670.233" y="185.502" width="15.918" height="16.031" style="fill:rgb(26,23,27);"/>
            </g>
            <g transform="matrix(1,0,0,1,0,44.03)">
                <rect x="702.296" y="185.502" width="16.031" height="16.031" style="fill:rgb(26,23,27);"/>
            </g>
            <g transform="matrix(1,0,0,1,862.265,343.455)">
                <path d="M0,-113.923L15.917,-113.923C15.994,-101.491 15.767,-88.758 16.031,-76.517C21.251,-79.446 27.441,-81.403 35.246,-81.747C35.74,-81.821 36.532,-81.6 36.837,-81.86L39.68,-81.86C39.986,-81.6 40.775,-81.821 41.271,-81.747C64.077,-80.715 74.983,-67.782 76.178,-45.137C76.247,-44.79 76.031,-44.158 76.291,-44L76.291,0L60.259,0L60.259,-43.204C60.188,-43.588 60.405,-44.261 60.145,-44.455C59.886,-50.98 58.452,-56.329 55.256,-59.918C54.925,-60.344 54.547,-60.724 54.119,-61.055C50.843,-63.918 46.325,-65.54 40.362,-65.716C39.187,-65.905 37.218,-65.905 36.041,-65.716C21.722,-65.407 15.758,-56.742 16.031,-41.84C15.767,-28.121 15.994,-13.909 15.917,0L0,0L0,-113.923Z" style="fill:rgb(26,23,27);fill-rule:nonzero;"/>
            </g>
            <g transform="matrix(1,0,0,1,404.073,343.683)">
                <path d="M0,-82.09L3.297,-82.09C3.68,-81.825 4.546,-82.05 5.116,-81.977C21.613,-81.153 33.503,-75.725 34.563,-59.465L34.563,-57.531L18.646,-57.531C18.508,-64.937 11.549,-65.518 4.434,-65.945C2.842,-66.133 0.455,-66.133 -1.137,-65.945C-7.813,-65.534 -14.421,-65.056 -15.235,-58.782C-15.424,-58.174 -15.424,-56.775 -15.235,-56.167C-14.951,-50.245 -8.188,-49.954 -2.16,-49.346C9.587,-48.16 22.284,-47.777 28.083,-41.499C28.452,-41.036 28.869,-40.618 29.333,-40.25C32.296,-36.847 34.289,-32.472 34.563,-26.379L34.563,-22.626C34.244,-16.505 32.255,-12.051 29.22,-8.642C28.793,-8.312 28.414,-7.931 28.083,-7.506C22.816,-2.768 15.039,-0.539 5.458,-0.114C5.037,-0.043 4.325,-0.262 4.093,0L-0.796,0C-1.064,-0.264 -1.816,-0.043 -2.274,-0.114C-19.144,-1.057 -31.128,-6.886 -31.38,-24.445L-15.349,-24.445C-15.239,-17.202 -8.464,-16.626 -1.592,-16.147C-1.285,-15.884 -0.495,-16.106 0,-16.033L3.297,-16.033C3.792,-16.106 4.583,-15.884 4.889,-16.147C11.471,-16.614 17.971,-17.163 18.532,-23.651C18.721,-23.994 18.721,-25.124 18.532,-25.468C18.535,-30.799 13.96,-31.569 8.868,-32.291C0.613,-33.46 -8.615,-33.508 -15.576,-35.587C-25.584,-38.577 -30.658,-44.62 -31.38,-56.848L-31.38,-58.326C-30.774,-75.459 -18.733,-81.153 -1.819,-81.977C-1.248,-82.05 -0.382,-81.825 0,-82.09" style="fill:rgb(26,23,27);fill-rule:nonzero;"/>
            </g>
            <g transform="matrix(1,0,0,1,498.554,343.455)">
                <path d="M0,-81.862L2.956,-81.862C3.263,-81.599 4.053,-81.822 4.548,-81.749C14.853,-81.328 22.553,-78.301 28.31,-73.335C28.945,-72.604 29.627,-71.923 30.356,-71.289C33.693,-67.385 36.147,-62.6 37.747,-56.962C32.365,-56.697 26.491,-56.925 20.92,-56.847C17.722,-62.366 12.11,-65.471 3.638,-65.717C2.426,-65.905 0.417,-65.905 -0.796,-65.717C-6.741,-65.522 -11.271,-63.913 -14.553,-61.054C-14.979,-60.724 -15.359,-60.343 -15.69,-59.919C-18.839,-56.322 -20.222,-50.96 -20.465,-44.456C-20.726,-44.261 -20.506,-43.588 -20.579,-43.206L-20.579,-38.658C-20.506,-38.274 -20.726,-37.6 -20.465,-37.407C-20.174,-23.826 -13.892,-16.237 -0.228,-16.033C0.646,-15.843 2.311,-15.843 3.183,-16.033C9.405,-16.175 14.156,-17.794 17.509,-20.807C17.974,-21.177 18.39,-21.593 18.76,-22.058C19.517,-22.892 20.222,-23.778 20.692,-24.901L37.747,-24.901C36.141,-19.003 33.543,-14.096 30.016,-10.12C29.476,-9.674 28.984,-9.181 28.538,-8.64C22.689,-3.462 14.752,-0.37 4.093,0L-1.137,0C-24.267,-0.897 -35.324,-13.87 -36.496,-36.723C-36.567,-37.107 -36.35,-37.779 -36.61,-37.974L-36.61,-44C-36.35,-44.195 -36.567,-44.87 -36.496,-45.251C-35.954,-56.457 -32.871,-65.125 -27.401,-71.402C-26.747,-71.961 -26.14,-72.567 -25.582,-73.221C-19.81,-78.288 -12.003,-81.321 -1.592,-81.749C-1.096,-81.822 -0.306,-81.599 0,-81.862" style="fill:rgb(26,23,27);fill-rule:nonzero;"/>
            </g>
            <g transform="matrix(1,0,0,1,693.087,343.454)">
                <path d="M0,-81.861L2.956,-81.861C3.262,-81.599 4.052,-81.821 4.548,-81.747C27.52,-80.692 38.409,-67.553 39.452,-44.568C39.524,-44.073 39.304,-43.284 39.564,-42.977L39.564,-38.656C39.304,-38.349 39.524,-37.559 39.452,-37.064C38.407,-13.967 27.326,-0.907 4.092,0L-1.138,0C-11.879,-0.364 -19.915,-3.43 -25.811,-8.64C-26.292,-9.219 -26.822,-9.75 -27.4,-10.232C-33.199,-16.752 -36.355,-25.913 -36.724,-37.86L-36.724,-43.772C-36.35,-55.829 -33.159,-65.071 -27.288,-71.628C-26.785,-72.035 -26.331,-72.491 -25.923,-72.992C-20.135,-78.194 -12.244,-81.295 -1.707,-81.747C-1.174,-81.821 -0.346,-81.599 0,-81.861M-0.796,-65.715C-14.598,-65.342 -20.704,-57.275 -20.692,-43.09C-20.883,-41.839 -20.883,-39.795 -20.692,-38.543C-20.723,-24.187 -14.437,-16.149 -0.229,-16.031C0.645,-15.841 2.311,-15.841 3.184,-16.031C17.017,-16.181 23.28,-23.903 23.421,-37.747C23.684,-38.09 23.461,-38.921 23.534,-39.452L23.534,-42.181C23.461,-42.713 23.684,-43.541 23.421,-43.886C23.233,-57.571 17.163,-65.371 3.638,-65.715C2.424,-65.905 0.418,-65.905 -0.796,-65.715" style="fill:rgb(26,23,27);fill-rule:nonzero;"/>
            </g>
            <g transform="matrix(1,0,0,1,796.776,343.455)">
                <path d="M0,-81.862L2.956,-81.862C3.3,-81.599 4.128,-81.822 4.661,-81.749C15.084,-81.295 22.897,-78.229 28.651,-73.107C29.097,-72.567 29.589,-72.074 30.129,-71.63C36.04,-65.072 39.138,-55.701 39.565,-43.659L39.565,0L23.649,0C23.573,-13.758 23.801,-27.818 23.536,-41.386C23.87,-56.425 18.139,-65.399 3.753,-65.717C2.538,-65.905 0.531,-65.905 -0.681,-65.717C-13.999,-65.352 -20.261,-57.932 -20.578,-44.57C-20.838,-44.411 -20.622,-43.778 -20.693,-43.433L-20.693,0L-36.724,0L-36.724,-44.114C-36.464,-44.273 -36.682,-44.905 -36.61,-45.251C-35.377,-67.856 -24.387,-80.705 -1.592,-81.749C-1.096,-81.822 -0.306,-81.599 0,-81.862" style="fill:rgb(26,23,27);fill-rule:nonzero;"/>
            </g>
            <g transform="matrix(1,0,0,1,998.698,343.454)">
                <path d="M0,-81.861L2.956,-81.861C3.302,-81.599 4.13,-81.821 4.663,-81.747C15.088,-81.295 22.896,-78.226 28.653,-73.106C29.098,-72.566 29.591,-72.074 30.131,-71.628C35.709,-65.383 38.854,-56.703 39.452,-45.478C39.525,-45.132 39.309,-44.499 39.566,-44.341L39.566,-32.858C19.671,-32.781 -0.53,-33.008 -20.237,-32.744C-19.606,-28.333 -18.108,-24.792 -15.689,-22.171C-15.32,-21.706 -14.902,-21.29 -14.439,-20.919C-11.081,-17.872 -6.371,-16.178 -0.113,-16.031C12.888,-15.766 26.379,-15.994 39.566,-15.918L39.566,0L-1.136,0C-24.201,-0.886 -35.378,-13.662 -36.608,-36.382C-36.68,-36.729 -36.463,-37.362 -36.722,-37.519L-36.722,-44.114C-36.463,-44.271 -36.68,-44.904 -36.608,-45.251C-35.38,-67.862 -24.386,-80.704 -1.592,-81.747C-1.096,-81.821 -0.306,-81.599 0,-81.861M-0.566,-65.715C-12.229,-65.213 -18.666,-59.484 -20.237,-48.889C-6.062,-48.699 8.907,-48.699 23.082,-48.889C22.475,-53.361 20.933,-56.897 18.532,-59.576C18.126,-60.078 17.671,-60.534 17.168,-60.941C13.958,-63.832 9.523,-65.499 3.64,-65.715C2.502,-65.905 0.57,-65.905 -0.566,-65.715" style="fill:rgb(26,23,27);fill-rule:nonzero;"/>
            </g>
            <g transform="matrix(1,0,0,1,1103.64,343.455)">
                <path d="M0,-81.862L1.819,-81.862L1.819,-65.831C0.758,-65.756 -0.605,-65.981 -1.479,-65.717C-12.548,-65.152 -22.88,-63.848 -22.965,-52.3C-23.232,-35.094 -23.005,-17.397 -23.079,0L-38.996,0L-38.996,-53.211C-38.83,-61.04 -36.389,-66.594 -32.744,-70.946C-32.052,-71.543 -31.408,-72.188 -30.812,-72.88C-24.042,-78.654 -14.172,-81.331 -2.045,-81.749C-1.4,-81.822 -0.456,-81.597 0,-81.862" style="fill:rgb(26,23,27);fill-rule:nonzero;"/>
            </g>
            <g transform="matrix(1,0,0,1,1128.77,343.455)">
                <path d="M0,-81.862L76.289,-81.862L76.289,-71.63C76.027,-71.359 76.248,-70.609 76.176,-70.151C75.708,-58.414 72.512,-49.406 66.738,-42.978C66.235,-42.572 65.781,-42.116 65.374,-41.614C59.445,-36.324 51.352,-33.201 40.474,-32.859C39.375,-32.784 37.976,-33.01 37.064,-32.744C24.882,-32.535 18.096,-26.927 16.485,-16.146C17.293,-15.75 21.642,-15.919 23.762,-15.919C41.297,-15.921 59.378,-15.919 76.289,-15.919L76.289,0L0,0L0,-10.916C0.37,-22.711 3.438,-31.807 9.094,-38.315C9.824,-38.952 10.508,-39.633 11.142,-40.363C17.11,-45.534 25.263,-48.525 36.153,-48.777C37.255,-48.85 38.654,-48.625 39.565,-48.89C51.47,-49.264 58.125,-54.887 59.576,-65.717C39.943,-65.981 19.819,-65.755 0,-65.831L0,-81.862Z" style="fill:rgb(26,23,27);fill-rule:nonzero;"/>
            </g>
        </g>
        <g id="grafika">
            <g transform="matrix(1,0,0,1,255.473,215.434)">
                <path d="M0,-208.972L12.848,-208.972C13.079,-208.711 13.792,-208.931 14.212,-208.858C43.151,-207.631 64.89,-199.203 80.269,-184.414C80.791,-183.799 81.359,-183.23 81.974,-182.708C82.307,-182.282 82.685,-181.903 83.111,-181.572C98.665,-164.571 106.967,-140.317 108.352,-109.148C108.424,-108.765 108.205,-108.092 108.465,-107.897L108.465,-106.192C108.541,-105.546 108.316,-104.603 108.579,-104.145L108.579,-41.385C107.921,-28.623 102.752,-19.414 95.958,-12.62C89.148,-5.81 79.902,-0.639 67.08,0L65.602,0L65.602,-101.758C65.527,-102.592 65.753,-103.727 65.488,-104.372L65.488,-106.078C65.417,-106.462 65.635,-107.134 65.375,-107.328C64.576,-125.44 60.934,-140.709 51.845,-150.533C51.134,-151.339 50.377,-152.096 49.571,-152.806C40.788,-160.926 28.168,-165.209 11.938,-165.882C11.743,-166.142 11.071,-165.923 10.687,-165.995L8.527,-165.995C7.427,-166.186 5.534,-166.186 4.434,-165.995L2.16,-165.995C1.778,-165.923 1.104,-166.142 0.91,-165.882C-15.733,-165.205 -28.573,-160.725 -37.52,-152.352C-38.135,-151.83 -38.704,-151.263 -39.225,-150.646C-48.39,-140.94 -52.058,-125.734 -52.869,-107.67C-53.128,-107.475 -52.91,-106.801 -52.982,-106.419L-52.982,-104.827C-53.245,-104.296 -53.021,-103.274 -53.096,-102.554L-53.096,-46.16C-53.354,-46.003 -53.139,-45.369 -53.209,-45.024C-54.186,-32.913 -59.048,-23.747 -65.716,-17.168C-72.401,-10.571 -81.527,-5.63 -93.799,-4.775C-94.369,-4.701 -95.235,-4.925 -95.618,-4.662L-96.073,-4.662L-96.073,-104.6C-95.81,-105.019 -96.033,-105.925 -95.959,-106.533L-95.959,-108.124C-95.699,-108.319 -95.917,-108.993 -95.845,-109.375C-92.923,-171.102 -63.323,-206.165 -1.364,-208.858C-0.944,-208.931 -0.232,-208.711 0,-208.972" style="fill:rgb(26,23,27);fill-rule:nonzero;"/>
            </g>
            <g transform="matrix(1,0,0,1,479.226,210.732)">
                <path d="M0,-204.27L55.255,-204.27C64.988,-204.27 73.851,-204.651 81.292,-202.678C88.647,-200.728 94.191,-197.183 99.142,-192.787C99.853,-191.982 100.61,-191.224 101.417,-190.513C107.776,-183.306 112.583,-174.544 112.899,-161.293L0.796,-161.293C0.263,-161.219 -0.566,-161.442 -0.91,-161.18L-2.047,-161.18C-2.806,-161.104 -3.864,-161.33 -4.434,-161.066C-22.735,-160.146 -37.933,-157.085 -47.752,-147.877C-57.548,-138.691 -62.865,-125.587 -63.556,-107.174C-63.82,-106.643 -63.596,-105.623 -63.669,-104.9L-63.669,-103.422C-63.86,-102.55 -63.86,-100.884 -63.669,-100.012L-63.669,-98.534C-63.596,-97.813 -63.82,-96.792 -63.556,-96.26C-62.917,-79.882 -58.525,-67.259 -50.367,-58.399C-49.809,-57.746 -49.202,-57.139 -48.548,-56.58C-38.855,-47.476 -23.849,-43.684 -5.912,-42.823C-5.568,-42.56 -4.74,-42.783 -4.207,-42.709L-3.411,-42.709C-2.652,-42.445 -1.403,-42.671 -0.455,-42.596L1.478,-42.596C228.791,-42.33 456.727,-42.557 684.216,-42.482L685.467,-42.482C697.348,-41.551 705.566,-36.959 712.301,-30.885C712.86,-30.231 713.466,-29.624 714.119,-29.066C720.444,-22.051 725.19,-13.454 725.831,-0.756L725.831,0.381L-3.411,0.381C-3.981,0.117 -5.04,0.343 -5.799,0.268C-38.182,-1.081 -63.287,-9.702 -80.497,-26.223C-80.943,-26.763 -81.435,-27.256 -81.975,-27.701L-81.975,-27.815C-82.307,-28.241 -82.685,-28.621 -83.111,-28.952C-97.188,-44.17 -105.191,-65.464 -106.533,-93.417C-106.608,-94.101 -106.383,-95.083 -106.646,-95.578L-106.646,-107.856C-106.383,-108.351 -106.608,-109.333 -106.533,-110.017C-105.201,-138.246 -97.07,-159.676 -82.884,-175.05C-82.344,-175.495 -81.851,-175.988 -81.406,-176.528C-81.168,-176.67 -80.978,-176.86 -80.837,-177.097C-80.297,-177.542 -79.804,-178.035 -79.359,-178.575C-62.351,-194.273 -37.977,-202.604 -6.708,-204.043C-6.063,-204.118 -5.119,-203.894 -4.662,-204.156L-1.706,-204.156C-1.173,-204.23 -0.344,-204.007 0,-204.27" style="fill:rgb(0,85,141);fill-rule:nonzero;"/>
            </g>
            <g transform="matrix(1,0,0,1,510.719,93.8513)">
                <path d="M0,30.626C-1.251,31.152 -0.796,28.154 -0.796,27.215L-0.796,-0.526L51.618,-0.526C60.335,0.041 66.335,3.326 71.287,7.66C71.845,8.313 72.453,8.92 73.106,9.479C77.701,14.7 81.144,21.071 81.406,30.626L0,30.626Z" style="fill:rgb(0,85,141);fill-rule:nonzero;"/>
            </g>
            <g transform="matrix(1,0,0,1,246.264,131.526)">
                <path d="M0,82.202L0,0L31.152,0L31.152,51.959C30.707,61.103 27.074,67.933 22.284,72.879C17.513,77.806 10.675,81.391 1.819,82.089C1.361,82.162 0.611,81.94 0.341,82.202L0,82.202Z" style="fill:rgb(26,23,27);fill-rule:nonzero;"/>
            </g>
            <g transform="matrix(1,0,0,1,0,424.632)">
                <path d="M0,-204.765C84.251,-204.766 168.995,-204.765 253.199,-204.765C309.545,-204.766 346.393,-185.307 359.05,-141.779C365.413,-119.894 365.502,-88.972 359.846,-66.513C348.562,-21.702 312.736,-0.989 257.52,0.001L186.005,0.001C167.45,-1.529 154.839,-10.833 148.373,-25.127C146.229,-29.866 144.261,-35.958 144.507,-42.068C144.52,-42.381 144.313,-42.965 144.734,-43.09L226.936,-43.09C240.738,-43.09 254.917,-42.54 267.525,-43.546C280.051,-44.545 291.226,-47.13 299.701,-52.413C316.166,-62.678 323.187,-84.764 320.621,-112.671C319.454,-125.359 315.988,-135.379 310.047,-143.143C304.062,-150.964 295.521,-155.678 284.352,-158.491C273.373,-161.256 260.338,-161.789 246.491,-161.787C191.646,-161.787 136.969,-161.789 82.315,-161.787C68.396,-161.787 54.602,-161.525 41.271,-161.787C28.788,-162.036 19.388,-167.642 12.734,-174.296C5.686,-181.342 1.016,-189.829 0,-202.605L0,-204.765Z" style="fill:rgb(162,218,243);fill-rule:nonzero;"/>
            </g>
            <g transform="matrix(1,0,0,1,144.62,338.025)">
                <path d="M0,-31.522L82.088,-31.522L82.088,-0.255C68.166,-0.256 53.712,-0.255 39.566,-0.255C34.866,-0.255 30.202,0 25.922,-0.71C18.1,-2.009 12.044,-5.839 7.731,-10.829C3.373,-15.875 -0.001,-22.022 -0.114,-31.18C-0.122,-31.342 -0.132,-31.501 0,-31.522" style="fill:rgb(162,218,243);fill-rule:nonzero;"/>
            </g>
        </g>
    </g>
</svg>
