<svg xmlns="http://www.w3.org/2000/svg" viewBox="0 0 1000.22 280.37"><defs><style>.cls-1,.cls-2{fill:#900028;fill-rule:evenodd;}.cls-10,.cls-11,.cls-12,.cls-13,.cls-14,.cls-15,.cls-16,.cls-17,.cls-18,.cls-19,.cls-2,.cls-20,.cls-21,.cls-22,.cls-23,.cls-24,.cls-25,.cls-3,.cls-4,.cls-5,.cls-6,.cls-7,.cls-8,.cls-9{stroke:#900028;}.cls-15,.cls-2,.cls-21,.cls-25,.cls-3,.cls-8,.cls-9{stroke-miterlimit:2.61;}.cls-2{stroke-width:0.22px;}.cls-10,.cls-11,.cls-12,.cls-13,.cls-14,.cls-15,.cls-16,.cls-17,.cls-18,.cls-19,.cls-20,.cls-21,.cls-22,.cls-23,.cls-24,.cls-25,.cls-3,.cls-4,.cls-5,.cls-6,.cls-7,.cls-8,.cls-9{fill:none;}.cls-3{stroke-linecap:square;}.cls-14,.cls-3,.cls-4,.cls-9{stroke-width:0.7px;}.cls-10,.cls-11,.cls-12,.cls-17,.cls-18,.cls-20,.cls-4{stroke-linecap:round;}.cls-10,.cls-11,.cls-12,.cls-13,.cls-14,.cls-16,.cls-17,.cls-18,.cls-19,.cls-20,.cls-22,.cls-23,.cls-24,.cls-4,.cls-5,.cls-6,.cls-7{stroke-linejoin:round;}.cls-10,.cls-5{stroke-width:0.72px;}.cls-6{stroke-width:0.71px;}.cls-7{stroke-width:0.73px;}.cls-8{stroke-width:0.69px;}.cls-11,.cls-19{stroke-width:0.72px;}.cls-12{stroke-width:0.74px;}.cls-13{stroke-width:4.97px;}.cls-15{stroke-width:0.7px;}.cls-16,.cls-21{stroke-width:0.7px;}.cls-17{stroke-width:0.74px;}.cls-18{stroke-width:0.71px;}.cls-20{stroke-width:0.74px;}.cls-22{stroke-width:0.7px;}.cls-23{stroke-width:0.7px;}.cls-24{stroke-width:0.7px;}.cls-25{stroke-width:0.69px;}</style></defs><title>BMEBordo</title><g id="Layer_2" data-name="Layer 2"><g id="Bordó"><path class="cls-1" d="M22.9,118.2v12h4.72v-12h0a4.51,4.51,0,0,0-4.72,0Z"/><path class="cls-1" d="M36.47,118.2v12H31.75v-12h0a4.51,4.51,0,0,1,4.72,0Z"/><path class="cls-1" d="M22.65,145.89v14.66h5.22V145.89h0a4.83,4.83,0,0,0-5.22,0Z"/><path class="cls-1" d="M36.23,145.89v14.66H31V145.89h0a4.83,4.83,0,0,1,5.22,0Z"/><path class="cls-1" d="M22.65,176.35v13.41h5.22V176.35h0a5.28,5.28,0,0,0-5.22,0Z"/><path class="cls-1" d="M31,176.35v13.41h5.22V176.35h0a5.28,5.28,0,0,0-5.22,0Z"/><path class="cls-1" d="M57.32,176.35v13.41h5.22V176.35h0a5.28,5.28,0,0,0-5.22,0Z"/><path class="cls-1" d="M49,176.35v13.41h5.22V176.35h0a5.28,5.28,0,0,0-5.22,0Z"/><path class="cls-1" d="M75.27,176.35v13.41h5.22V176.35h0a5.26,5.26,0,0,0-5.21,0Z"/><path class="cls-1" d="M83.64,176.35v13.41h5.21V176.35h0a5.26,5.26,0,0,0-5.21,0Z"/><path class="cls-1" d="M62.54,145.89v14.66H57.32V145.89h0a4.83,4.83,0,0,1,5.22,0Z"/><path class="cls-1" d="M49,145.89v14.66h5.22V145.89h0a4.83,4.83,0,0,0-5.22,0Z"/><path class="cls-1" d="M49.21,118.2v12h4.72v-12h0a4.51,4.51,0,0,0-4.72,0Z"/><path class="cls-1" d="M62.78,118.2v12H58.06v-12h0a4.51,4.51,0,0,1,4.72,0Z"/><path class="cls-1" d="M88.85,145.89v14.66H83.64V145.89h0a4.82,4.82,0,0,1,5.21,0Z"/><path class="cls-1" d="M75.27,145.89v14.66h5.22V145.89h0a4.82,4.82,0,0,0-5.21,0Z"/><path class="cls-1" d="M75.52,118.2v12h4.72v-12h0a4.51,4.51,0,0,0-4.72,0Z"/><path class="cls-1" d="M89.09,118.2v12H84.37v-12h0a4.51,4.51,0,0,1,4.72,0Z"/><polygon class="cls-1" points="27.91 207.86 23.1 207.86 23.1 199.59 27.91 199.59 27.91 207.86 27.91 207.86"/><polygon class="cls-1" points="54.23 207.86 49.41 207.86 49.41 199.59 54.23 199.59 54.23 207.86 54.23 207.86"/><polygon class="cls-1" points="80.54 207.86 75.72 207.86 75.72 199.59 80.54 199.59 80.54 207.86 80.54 207.86"/><polygon class="cls-1" points="88.9 207.86 83.59 207.86 83.59 199.59 88.9 199.59 88.9 207.86 88.9 207.86"/><polygon class="cls-1" points="62.59 207.86 57.27 207.86 57.27 199.59 62.59 199.59 62.59 207.86 62.59 207.86"/><polygon class="cls-1" points="36.28 207.86 30.96 207.86 30.96 199.59 36.28 199.59 36.28 207.86 36.28 207.86"/><polygon class="cls-1" points="22.95 88.86 25.8 88.86 25.8 95.16 22.95 95.16 22.95 88.86 22.95 88.86"/><polygon class="cls-1" points="27.98 88.86 30.83 88.86 30.83 95.16 27.98 95.16 27.98 88.86 27.98 88.86"/><polygon class="cls-1" points="33.01 88.86 35.86 88.86 35.86 95.16 33.01 95.16 33.01 88.86 33.01 88.86"/><polygon class="cls-1" points="49.33 88.86 52.19 88.86 52.19 95.16 49.33 95.16 49.33 88.86 49.33 88.86"/><polygon class="cls-1" points="54.36 88.86 57.21 88.86 57.21 95.16 54.36 95.16 54.36 88.86 54.36 88.86"/><polygon class="cls-1" points="59.32 88.86 62.17 88.86 62.17 95.16 59.32 95.16 59.32 88.86 59.32 88.86"/><polygon class="cls-1" points="75.64 88.86 78.5 88.86 78.5 95.16 75.64 95.16 75.64 88.86 75.64 88.86"/><polygon class="cls-1" points="80.67 88.86 83.52 88.86 83.52 95.16 80.67 95.16 80.67 88.86 80.67 88.86"/><polygon class="cls-1" points="85.7 88.86 88.55 88.86 88.55 95.16 85.7 95.16 85.7 88.86 85.7 88.86"/><path class="cls-1" d="M100.68,118.23v11.84h11.45V118.23h0a10.76,10.76,0,0,0-11.45,0Z"/><path class="cls-1" d="M111,146a8.56,8.56,0,0,0-9.25,0h0V160.6H111V146Z"/><path class="cls-1" d="M111,176.51a8.68,8.68,0,0,0-9.25,0h0v13.25H111V176.51Z"/><path class="cls-1" d="M133.4,146a8.54,8.54,0,0,0-9.24,0h0V160.6h9.24V146Z"/><path class="cls-1" d="M123.05,118.23v11.84h11.46V118.23h0a10.77,10.77,0,0,0-11.46,0Z"/><path class="cls-1" d="M133.4,176.51a8.66,8.66,0,0,0-9.24,0h0v13.25h9.24V176.51Z"/><path class="cls-1" d="M155.78,146a8.54,8.54,0,0,0-9.24,0h0V160.6h9.25V146Z"/><path class="cls-1" d="M145.43,118.23v11.84h11.46V118.23h0a10.77,10.77,0,0,0-11.46,0Z"/><path class="cls-1" d="M155.78,176.51a8.66,8.66,0,0,0-9.24,0h0v13.25h9.25V176.51Z"/><path class="cls-1" d="M178.16,146a8.56,8.56,0,0,0-9.25,0h0V160.6h9.25V146Z"/><path class="cls-1" d="M167.8,118.23v11.84h11.46V118.23h0a10.76,10.76,0,0,0-11.45,0Z"/><path class="cls-1" d="M178.16,176.51a8.68,8.68,0,0,0-9.25,0h0v13.25h9.25V176.51Z"/><path class="cls-1" d="M200.53,146a8.54,8.54,0,0,0-9.24,0h0V160.6h9.24V146Z"/><path class="cls-1" d="M190.18,118.23v11.84h11.46V118.23h0a10.77,10.77,0,0,0-11.46,0Z"/><path class="cls-1" d="M200.53,176.51a8.66,8.66,0,0,0-9.24,0h0v13.25h9.24V176.51Z"/><path class="cls-1" d="M222.91,146a8.54,8.54,0,0,0-9.24,0h0V160.6h9.25V146Z"/><path class="cls-1" d="M212.56,118.23v11.84H224V118.23h0a10.77,10.77,0,0,0-11.46,0Z"/><path class="cls-1" d="M222.91,176.51a8.68,8.68,0,0,0-9.25,0h0v13.25h9.25V176.51Z"/><path class="cls-1" d="M245.29,146a8.56,8.56,0,0,0-9.25,0h0V160.6h9.25V146Z"/><path class="cls-1" d="M234.93,118.23v11.84h11.46V118.23h0a10.77,10.77,0,0,0-11.46,0Z"/><path class="cls-1" d="M245.29,176.51a8.68,8.68,0,0,0-9.25,0h0v13.25h9.25V176.51Z"/><path class="cls-1" d="M267.66,146a8.54,8.54,0,0,0-9.24,0h0V160.6h9.24V146Z"/><path class="cls-1" d="M257.31,118.23v11.84h11.46V118.23h0a10.77,10.77,0,0,0-11.46,0Z"/><path class="cls-1" d="M267.66,176.51a8.66,8.66,0,0,0-9.24,0h0v13.25h9.24V176.51Z"/><path class="cls-1" d="M290,146a8.56,8.56,0,0,0-9.25,0h0V160.6H290V146Z"/><path class="cls-1" d="M279.69,118.23v11.84h11.46V118.23h0a10.76,10.76,0,0,0-11.45,0Z"/><path class="cls-1" d="M290,176.51a8.68,8.68,0,0,0-9.25,0h0v13.25H290V176.51Z"/><path class="cls-1" d="M312.41,146a8.54,8.54,0,0,0-9.24,0h0V160.6h9.25V146Z"/><path class="cls-1" d="M302.06,118.23v11.84h11.46V118.23h0a10.77,10.77,0,0,0-11.46,0Z"/><path class="cls-1" d="M312.41,176.51a8.66,8.66,0,0,0-9.24,0h0v13.25h9.25V176.51Z"/><path class="cls-1" d="M334.79,146a8.54,8.54,0,0,0-9.24,0h0V160.6h9.24V146Z"/><path class="cls-1" d="M324.44,118.23v11.84H335.9V118.23h0a10.77,10.77,0,0,0-11.46,0Z"/><path class="cls-1" d="M334.79,176.51a8.66,8.66,0,0,0-9.24,0h0v13.25h9.24V176.51Z"/><path class="cls-1" d="M357.17,146a8.56,8.56,0,0,0-9.25,0h0V160.6h9.25V146Z"/><path class="cls-1" d="M346.82,118.23v11.84h11.45V118.23h0a10.76,10.76,0,0,0-11.45,0Z"/><path class="cls-1" d="M357.17,176.51a8.68,8.68,0,0,0-9.25,0h0v13.25h9.25V176.51Z"/><path class="cls-1" d="M98.55,92.59V85.67h.19V83.73h1.35V81.89l-2.18-.63V75.73l-.48-.29a9.21,9.21,0,0,0-2.12-4.31H362.72v1.1h.55v9.49h-.77v2.22H362v3.43l-5.21,1.25v2.29h3.52v1.7h-3.85a1.15,1.15,0,0,1-1.09-.82h0a3.38,3.38,0,0,0-5.69,0h0a1.15,1.15,0,0,1-1.09.82H334.1a1.16,1.16,0,0,1-1.09-.82h0a3.37,3.37,0,0,0-5.68,0h0a1.16,1.16,0,0,1-1.1.82h-14.5a1.17,1.17,0,0,1-1.1-.82h0a3.37,3.37,0,0,0-5.68,0h0a1.15,1.15,0,0,1-1.09.82H289.35a1.16,1.16,0,0,1-1.09-.82h0a3.38,3.38,0,0,0-5.69,0h0a1.14,1.14,0,0,1-1.09.82H267a1.16,1.16,0,0,1-1.09-.82h0a3.37,3.37,0,0,0-5.68,0h0a1.16,1.16,0,0,1-1.1.82H244.6a1.17,1.17,0,0,1-1.1-.82h0a3.37,3.37,0,0,0-5.68,0h0a1.15,1.15,0,0,1-1.09.82H222.22a1.16,1.16,0,0,1-1.09-.82h0a3.38,3.38,0,0,0-5.69,0h0a1.14,1.14,0,0,1-1.09.82H199.84a1.17,1.17,0,0,1-1.09-.82h0a3.37,3.37,0,0,0-5.68,0h0a1.16,1.16,0,0,1-1.09.82H177.47a1.15,1.15,0,0,1-1.09-.82h0a3.38,3.38,0,0,0-5.69,0h0a1.15,1.15,0,0,1-1.09.82H155.09a1.16,1.16,0,0,1-1.09-.82h0a3.37,3.37,0,0,0-5.68,0h0a1.14,1.14,0,0,1-1.09.82h-14.5a1.17,1.17,0,0,1-1.1-.82h0a3.37,3.37,0,0,0-5.68,0h0a1.16,1.16,0,0,1-1.09.82H110.34a1.15,1.15,0,0,1-1.09-.82h0a3.38,3.38,0,0,0-5.69,0h0a1.15,1.15,0,0,1-1.09.82h0l-3.92,0Z"/><path class="cls-1" d="M901.72,92.59V85.67h-.18V83.73h-1.36V81.89l2.18-.63V75.73l.48-.29A9.32,9.32,0,0,1,905,71.13H637.55v1.1H637v9.49h.77v2.22h.49v3.43l5.2,1.25v2.29h-3.52v1.7h3.85a1.17,1.17,0,0,0,1.1-.82h0a3.37,3.37,0,0,1,5.68,0h0a1.16,1.16,0,0,0,1.09.82h14.51a1.15,1.15,0,0,0,1.09-.82h0a3.38,3.38,0,0,1,5.69,0h0a1.15,1.15,0,0,0,1.09.82h14.51a1.16,1.16,0,0,0,1.09-.82h0a3.37,3.37,0,0,1,5.68,0h0a1.16,1.16,0,0,0,1.1.82h14.5a1.17,1.17,0,0,0,1.1-.82h0a3.37,3.37,0,0,1,5.68,0h0a1.16,1.16,0,0,0,1.09.82H733.3a1.15,1.15,0,0,0,1.09-.82h0a3.38,3.38,0,0,1,5.69,0h0a1.15,1.15,0,0,0,1.09.82h14.51a1.16,1.16,0,0,0,1.09-.82h0a3.37,3.37,0,0,1,5.68,0h0a1.16,1.16,0,0,0,1.1.82h14.5a1.17,1.17,0,0,0,1.1-.82h0a3.37,3.37,0,0,1,5.68,0h0a1.15,1.15,0,0,0,1.09.82h14.51a1.16,1.16,0,0,0,1.09-.82h0a3.38,3.38,0,0,1,5.69,0h0a1.14,1.14,0,0,0,1.09.82h14.51a1.17,1.17,0,0,0,1.09-.82h0a3.37,3.37,0,0,1,5.68,0h0a1.16,1.16,0,0,0,1.09.82h14.51a1.15,1.15,0,0,0,1.09-.82h0a3.38,3.38,0,0,1,5.69,0h0a1.15,1.15,0,0,0,1.09.82h14.51a1.16,1.16,0,0,0,1.09-.82h0a3.37,3.37,0,0,1,5.68,0h0a1.14,1.14,0,0,0,1.09.82h14.5a1.17,1.17,0,0,0,1.1-.82h0a3.37,3.37,0,0,1,5.68,0h0a1.16,1.16,0,0,0,1.09.82h0l3.92,0Z"/><polygon class="cls-1" points="105.42 94.69 105.42 97.82 107.39 97.82 107.39 94.69 105.42 94.69 105.42 94.69"/><polygon class="cls-1" points="127.8 94.69 127.8 97.82 129.76 97.82 129.76 94.69 127.8 94.69 127.8 94.69"/><polygon class="cls-1" points="150.17 94.69 150.17 97.82 152.14 97.82 152.14 94.69 150.17 94.69 150.17 94.69"/><polygon class="cls-1" points="172.55 94.69 172.55 97.82 174.52 97.82 174.52 94.69 172.55 94.69 172.55 94.69"/><polygon class="cls-1" points="194.93 94.69 194.93 97.82 196.89 97.82 196.89 94.69 194.93 94.69 194.93 94.69"/><polygon class="cls-1" points="217.3 94.69 217.3 97.82 219.27 97.82 219.27 94.69 217.3 94.69 217.3 94.69"/><polygon class="cls-1" points="239.68 94.69 239.68 97.82 241.65 97.82 241.65 94.69 239.68 94.69 239.68 94.69"/><polygon class="cls-1" points="262.06 94.69 262.06 97.82 264.02 97.82 264.02 94.69 262.06 94.69 262.06 94.69"/><polygon class="cls-1" points="284.43 94.69 284.43 97.82 286.4 97.82 286.4 94.69 284.43 94.69 284.43 94.69"/><polygon class="cls-1" points="306.81 94.69 306.81 97.82 308.78 97.82 308.78 94.69 306.81 94.69 306.81 94.69"/><polygon class="cls-1" points="329.19 94.69 329.19 97.82 331.15 97.82 331.15 94.69 329.19 94.69 329.19 94.69"/><polygon class="cls-1" points="351.56 94.69 351.56 97.82 353.53 97.82 353.53 94.69 351.56 94.69 351.56 94.69"/><path class="cls-1" d="M385.56,8.82v.72l1,4H384l1-4V8.83h0a.75.75,0,0,1,.07-.94h0L385.3,0l.19,7.89h0a.74.74,0,0,1,.07.93Zm-2,7.44h0v7h3.54v-7Zm-1.13,9.46L369.19,66.25l1.25,2.42h29.7l1.26-2.4L388.2,25.72Zm0,26.78L384,60.19h2.66l1.54-7.69Zm2.73-3.89-2.61,3.56h5.51l-2.6-3.56Z"/><path class="cls-1" d="M614.72,8.82v.72l-1,4h2.55l-1-4V8.83h0a.74.74,0,0,0-.08-.94h0L615,0l-.19,7.89h0a.72.72,0,0,0-.07.93Zm2,7.44h0v7h-3.54v-7Zm1.13,9.46,13.2,40.53-1.24,2.42h-29.7l-1.27-2.4,13.2-40.55Zm0,26.78-1.55,7.69h-2.65L612.1,52.5Zm-2.73-3.89,2.61,3.56h-5.51l2.61-3.56Z"/><path class="cls-1" d="M572.7,78v-.9h0a.48.48,0,0,1-.28-.26h0a4.88,4.88,0,0,0-4.32-3h0a.58.58,0,0,1-.56-.58h0a2.85,2.85,0,0,0-1.48-.42h0a2.82,2.82,0,0,0-1.47.42h0a.58.58,0,0,1-.57.58h0a4.87,4.87,0,0,0-4.32,3h0a.53.53,0,0,1-.29.26h0V78H539.74v-.9h0a.53.53,0,0,1-.29-.26h0a4.87,4.87,0,0,0-4.32-3h0a.58.58,0,0,1-.56-.58h0a2.82,2.82,0,0,0-1.47-.42h0a2.88,2.88,0,0,0-1.48.42h0a.58.58,0,0,1-.56.58h0a4.88,4.88,0,0,0-4.32,3h0a.51.51,0,0,1-.28.26h0V78H506.77v-.9h0a.48.48,0,0,1-.28-.26h0a4.89,4.89,0,0,0-4.32-3h0a.58.58,0,0,1-.56-.58h0a2.88,2.88,0,0,0-1.48-.42h0a2.82,2.82,0,0,0-1.47.42h0a.57.57,0,0,1-.56.58h0a4.87,4.87,0,0,0-4.31,3h0a.48.48,0,0,1-.28.26h0V78H473.8v-.9h0a.51.51,0,0,1-.28-.26h0a4.87,4.87,0,0,0-4.32-3h0a.58.58,0,0,1-.56-.58h0a2.83,2.83,0,0,0-1.48-.42h0a2.82,2.82,0,0,0-1.47.42h0a.58.58,0,0,1-.56.58h0a4.87,4.87,0,0,0-4.32,3h0a.51.51,0,0,1-.28.26h0V78H440.84v-.9h0a.53.53,0,0,1-.29-.26h0a4.87,4.87,0,0,0-4.31-3h0a.58.58,0,0,1-.57-.58h0a2.82,2.82,0,0,0-1.47-.42h0a2.88,2.88,0,0,0-1.48.42h0a.58.58,0,0,1-.56.58h0a4.89,4.89,0,0,0-4.32,3h0a.48.48,0,0,1-.28.26h0V78H407.33V72.23h.56V71.13h4.89l31.75-36H446V33.83l1.48-3.49h-.28V22.52h0a5,5,0,0,1,.5-2.23h0a2.54,2.54,0,0,1,1.6-1.44h0l.07-2.24.32-1.12.33,1.12.06,2.24h0a2.59,2.59,0,0,1,1.61,1.44h0a5,5,0,0,1,.5,2.23h0v6.69H548V22.52h0a5.08,5.08,0,0,1,.5-2.23h0a2.59,2.59,0,0,1,1.61-1.44h0l.06-2.24.33-1.12.32,1.12.07,2.24h0a2.59,2.59,0,0,1,1.61,1.44h0a5.22,5.22,0,0,1,.5,2.23h0v7.82h-.29l1.48,3.49v1.28h1.51l31.75,36h4.91v1.1h.55L593,78ZM549.54,22.52v6.35h2V22.52Zm-98.82,0h-2v6.35h2V22.52Z"/><polygon class="cls-1" points="373.13 73.41 376.13 73.41 376.13 81.72 373.13 81.72 373.13 73.41 373.13 73.41"/><polygon class="cls-1" points="378.46 73.41 381.46 73.41 381.46 81.72 378.46 81.72 378.46 73.41 378.46 73.41"/><polygon class="cls-1" points="383.8 73.41 386.8 73.41 386.8 81.72 383.8 81.72 383.8 73.41 383.8 73.41"/><polygon class="cls-1" points="389.13 73.41 392.13 73.41 392.13 81.72 389.13 81.72 389.13 73.41 389.13 73.41"/><polygon class="cls-1" points="394.47 73.41 397.47 73.41 397.47 81.72 394.47 81.72 394.47 73.41 394.47 73.41"/><polygon class="cls-1" points="627.13 73.41 624.13 73.41 624.13 81.72 627.13 81.72 627.13 73.41 627.13 73.41"/><polygon class="cls-1" points="621.8 73.41 618.8 73.41 618.8 81.72 621.8 81.72 621.8 73.41 621.8 73.41"/><polygon class="cls-1" points="611.13 73.41 608.13 73.41 608.13 81.72 611.13 81.72 611.13 73.41 611.13 73.41"/><polygon class="cls-1" points="616.46 73.41 613.46 73.41 613.46 81.72 616.46 81.72 616.46 73.41 616.46 73.41"/><polygon class="cls-1" points="605.79 73.41 602.79 73.41 602.79 81.72 605.79 81.72 605.79 73.41 605.79 73.41"/><polygon class="cls-1" points="420.99 110.75 414.44 110.75 413.64 104.85 413.64 103.77 421.8 103.77 421.8 104.85 420.99 110.75 420.99 110.75"/><polygon class="cls-1" points="420.62 112.52 414.96 112.52 414.69 157.2 420.94 157.2 420.62 112.52 420.62 112.52 420.62 112.52"/><polygon class="cls-1" points="413.39 160.84 413.39 166.32 422.04 166.32 422.04 160.84 413.39 160.84 413.39 160.84 413.39 160.84"/><path class="cls-1" d="M442.14,122.62a8.39,8.39,0,0,0-2.23-1.65h0a13.12,13.12,0,0,0-11.44,0h0a8.34,8.34,0,0,0-2.22,1.65h0a5.2,5.2,0,0,0-1.52,3.53h0v34.76h18.92V126.15h0a5.16,5.16,0,0,0-1.52-3.53Z"/><polygon class="cls-1" points="446.35 160.84 446.35 166.32 455.01 166.32 455.01 160.84 446.35 160.84 446.35 160.84 446.35 160.84"/><polygon class="cls-1" points="453.58 112.52 447.93 112.52 447.66 157.2 453.9 157.2 453.58 112.52 453.58 112.52 453.58 112.52"/><polygon class="cls-1" points="453.95 110.75 447.41 110.75 446.6 104.85 446.6 103.77 454.76 103.77 454.76 104.85 453.95 110.75 453.95 110.75"/><path class="cls-1" d="M475.1,122.62a8.18,8.18,0,0,0-2.22-1.65h0a13.12,13.12,0,0,0-11.44,0h0a8.18,8.18,0,0,0-2.22,1.65h0a5.2,5.2,0,0,0-1.52,3.53h0v34.76h18.92V126.15h0a5.2,5.2,0,0,0-1.52-3.53Z"/><path class="cls-1" d="M508.07,122.62a8.39,8.39,0,0,0-2.23-1.65h0a13.1,13.1,0,0,0-11.43,0h0a8.39,8.39,0,0,0-2.23,1.65h0a5.25,5.25,0,0,0-1.52,3.53h0v34.76h18.93V126.15h0a5.25,5.25,0,0,0-1.52-3.53Z"/><polygon class="cls-1" points="486.55 112.52 480.89 112.52 480.62 157.2 486.87 157.2 486.55 112.52 486.55 112.52 486.55 112.52"/><polygon class="cls-1" points="486.92 110.75 480.38 110.75 479.57 104.85 479.57 103.77 487.73 103.77 487.73 104.85 486.92 110.75 486.92 110.75"/><polygon class="cls-1" points="479.32 160.84 479.32 166.32 487.98 166.32 487.98 160.84 479.32 160.84 479.32 160.84 479.32 160.84"/><path class="cls-1" d="M541,122.62a8.18,8.18,0,0,0-2.22-1.65h0a13.12,13.12,0,0,0-11.44,0h0a8.18,8.18,0,0,0-2.22,1.65h0a5.2,5.2,0,0,0-1.52,3.53h0v34.76h18.92V126.15h0a5.2,5.2,0,0,0-1.52-3.53Z"/><polygon class="cls-1" points="519.89 110.75 513.34 110.75 512.53 104.85 512.53 103.77 520.69 103.77 520.69 104.85 519.89 110.75 519.89 110.75"/><polygon class="cls-1" points="519.51 112.52 513.86 112.52 513.59 157.2 519.84 157.2 519.51 112.52 519.51 112.52 519.51 112.52"/><polygon class="cls-1" points="512.29 160.84 512.29 166.32 520.94 166.32 520.94 160.84 512.29 160.84 512.29 160.84 512.29 160.84"/><path class="cls-1" d="M574,122.62a8.34,8.34,0,0,0-2.22-1.65h0a13.12,13.12,0,0,0-11.44,0h0a8.18,8.18,0,0,0-2.22,1.65h0a5.2,5.2,0,0,0-1.52,3.53h0v34.76h18.92V126.15h0a5.2,5.2,0,0,0-1.52-3.53Z"/><polygon class="cls-1" points="552.85 110.75 546.31 110.75 545.5 104.85 545.5 103.77 553.66 103.77 553.66 104.85 552.85 110.75 552.85 110.75"/><polygon class="cls-1" points="552.48 112.52 546.83 112.52 546.56 157.2 552.8 157.2 552.48 112.52 552.48 112.52 552.48 112.52"/><polygon class="cls-1" points="545.25 160.84 545.25 166.32 553.91 166.32 553.91 160.84 545.25 160.84 545.25 160.84 545.25 160.84"/><polygon class="cls-1" points="585.82 110.75 579.27 110.75 578.47 104.85 578.47 103.77 586.63 103.77 586.63 104.85 585.82 110.75 585.82 110.75"/><polygon class="cls-1" points="585.45 112.52 579.79 112.52 579.52 157.2 585.77 157.2 585.45 112.52 585.45 112.52 585.45 112.52"/><polygon class="cls-1" points="578.22 160.84 578.22 166.32 586.87 166.32 586.87 160.84 578.22 160.84 578.22 160.84 578.22 160.84"/><polygon class="cls-1" points="427.03 173.28 427.03 179.43 430.22 179.43 430.22 173.28 427.03 173.28 427.03 173.28"/><polygon class="cls-1" points="432.29 173.28 432.29 179.43 435.49 179.43 435.49 173.28 432.29 173.28 432.29 173.28"/><polygon class="cls-1" points="437.55 173.28 437.55 179.43 440.75 179.43 440.75 173.28 437.55 173.28 437.55 173.28"/><polygon class="cls-1" points="428.67 188.68 428.67 191.38 432.76 191.38 432.76 188.68 428.67 188.68 428.67 188.68"/><polygon class="cls-1" points="428.67 192.41 428.67 198.76 432.76 198.76 432.76 192.41 428.67 192.41 428.67 192.41"/><polygon class="cls-1" points="435.02 192.41 435.02 198.76 439.1 198.76 439.1 192.41 435.02 192.41 435.02 192.41"/><polygon class="cls-1" points="435.02 188.68 435.02 191.38 439.1 191.38 439.1 188.68 435.02 188.68 435.02 188.68"/><polygon class="cls-1" points="571.59 192.41 571.59 198.76 567.51 198.76 567.51 192.41 571.59 192.41 571.59 192.41"/><polygon class="cls-1" points="571.59 188.68 571.59 191.38 567.51 191.38 567.51 188.68 571.59 188.68 571.59 188.68"/><polygon class="cls-1" points="573.24 173.28 573.24 179.43 570.04 179.43 570.04 173.28 573.24 173.28 573.24 173.28"/><polygon class="cls-1" points="565.24 188.68 565.24 191.38 561.16 191.38 561.16 188.68 565.24 188.68 565.24 188.68"/><polygon class="cls-1" points="565.24 192.41 565.24 198.76 561.16 198.76 561.16 192.41 565.24 192.41 565.24 192.41"/><polygon class="cls-1" points="562.71 173.28 562.71 179.43 559.51 179.43 559.51 173.28 562.71 173.28 562.71 173.28"/><polygon class="cls-1" points="567.97 173.28 567.97 179.43 564.78 179.43 564.78 173.28 567.97 173.28 567.97 173.28"/><path class="cls-1" d="M548.23,185h4.21v.25h0a.15.15,0,0,0-.15.15h0v.27h0a.09.09,0,0,1-.1.09h-.14v.08h0a0,0,0,0,1,0,.05h-4.57a14.36,14.36,0,0,0-14.33-13.33h0a14.36,14.36,0,0,0-14.33,13.33h-4.31a14.36,14.36,0,0,0-14.33-13.33h0A14.36,14.36,0,0,0,485.8,185.9h-4.3a14.36,14.36,0,0,0-14.34-13.33h0a14.36,14.36,0,0,0-14.33,13.33h-4.56a0,0,0,0,1,0-.05h0v-.08h-.15a.1.1,0,0,1-.1-.09h0v-.27h0a.15.15,0,0,0-.15-.15h0V185H452a15.27,15.27,0,0,1,15.13-13.32h0A15.27,15.27,0,0,1,482.3,185H485a15.26,15.26,0,0,1,15.13-13.32h0A15.25,15.25,0,0,1,515.26,185H518a15.25,15.25,0,0,1,15.13-13.32h0A15.26,15.26,0,0,1,548.23,185Z"/><polygon class="cls-1" points="457.96 205.89 476.37 205.89 476.37 199.64 476.47 199.54 476.47 190.16 472.15 190.16 471.29 189.3 469.17 189.3 468.73 188.86 465.6 188.86 465.16 189.3 463.04 189.3 462.18 190.16 457.86 190.16 457.86 199.5 457.97 199.65 457.96 205.89 457.96 205.89"/><path class="cls-1" d="M476.47,186.94a9.31,9.31,0,0,0-18.61,0h0v2.47h4.05l.86-.86h2.12l.44-.44H469l.44.44h2.1l.87.88h4.06v-2.49Z"/><polygon class="cls-1" points="490.93 205.89 509.33 205.89 509.33 199.64 509.43 199.54 509.43 190.16 505.12 190.16 504.25 189.3 502.13 189.3 501.69 188.86 498.57 188.86 498.13 189.3 496.01 189.3 495.15 190.16 490.83 190.16 490.83 199.5 490.94 199.65 490.93 205.89 490.93 205.89"/><path class="cls-1" d="M509.43,186.94a9.3,9.3,0,1,0-18.6,0h0v2.47h4l.86-.86h2.12l.45-.44H502l.44.44h2.09l.88.88h4.05v-2.49Z"/><polygon class="cls-1" points="523.89 205.89 542.3 205.89 542.3 199.64 542.4 199.54 542.4 190.16 538.08 190.16 537.22 189.3 535.1 189.3 534.66 188.86 531.54 188.86 531.09 189.3 528.97 189.3 528.11 190.16 523.79 190.16 523.79 199.5 523.9 199.65 523.89 205.89 523.89 205.89"/><path class="cls-1" d="M542.4,186.94a9.31,9.31,0,0,0-18.61,0h0v2.47h4.05l.86-.86h2.12l.44-.44h3.67l.44.44h2.1l.87.88h4.06v-2.49Z"/><path class="cls-1" d="M377.77,118.72a4.07,4.07,0,0,0-6.19,0h0v12.61h6.19V118.72Z"/><path class="cls-1" d="M388.4,118.72a4.08,4.08,0,0,0-6.2,0h0v12.61h6.2V118.72Z"/><path class="cls-1" d="M398.8,118.72a4.08,4.08,0,0,0-6.2,0h0v12.61h6.2V118.72Z"/><polygon class="cls-1" points="371.58 145.72 371.58 160.9 377.77 160.9 377.77 145.72 371.58 145.72 371.58 145.72"/><polygon class="cls-1" points="382.2 145.72 382.2 160.9 388.4 160.9 388.4 145.72 382.2 145.72 382.2 145.72"/><polygon class="cls-1" points="392.6 145.72 392.6 160.9 398.8 160.9 398.8 145.72 392.6 145.72 392.6 145.72"/><polygon class="cls-1" points="371.6 174.56 371.6 189.83 377.8 189.83 377.8 174.56 371.6 174.56 371.6 174.56"/><polygon class="cls-1" points="382.2 174.56 382.2 189.83 388.4 189.83 388.4 174.56 382.2 174.56 382.2 174.56"/><polygon class="cls-1" points="392.8 174.56 392.8 189.83 398.99 189.83 398.99 174.56 392.8 174.56 392.8 174.56"/><polygon class="cls-1" points="371.53 199.59 371.53 207.71 377.82 207.71 377.82 199.59 371.53 199.59 371.53 199.59"/><polygon class="cls-1" points="382.15 199.59 382.15 207.71 388.45 207.71 388.45 199.59 382.15 199.59 382.15 199.59"/><polygon class="cls-1" points="392.77 199.59 392.77 207.71 399.07 207.71 399.07 199.59 392.77 199.59 392.77 199.59"/><path class="cls-1" d="M622.49,118.72a4.07,4.07,0,0,1,6.19,0h0v12.61h-6.19V118.72Z"/><path class="cls-1" d="M611.87,118.72a4.07,4.07,0,0,1,6.19,0h0v12.61h-6.2V118.72Z"/><path class="cls-1" d="M601.46,118.72a4.08,4.08,0,0,1,6.2,0h0v12.61h-6.2V118.72Z"/><polygon class="cls-1" points="628.68 145.72 628.68 160.81 622.49 160.81 622.49 145.72 628.68 145.72 628.68 145.72"/><polygon class="cls-1" points="618.06 145.72 618.06 160.81 611.87 160.81 611.87 145.72 618.06 145.72 618.06 145.72"/><polygon class="cls-1" points="607.66 145.72 607.66 160.81 601.46 160.81 601.46 145.72 607.66 145.72 607.66 145.72"/><polygon class="cls-1" points="607.46 174.12 607.46 189.83 601.27 189.83 601.27 174.12 607.46 174.12 607.46 174.12"/><polygon class="cls-1" points="618.06 174.12 618.06 189.83 611.87 189.83 611.87 174.12 618.06 174.12 618.06 174.12"/><polygon class="cls-1" points="628.66 174.12 628.66 189.83 622.46 189.83 622.46 174.12 628.66 174.12 628.66 174.12"/><polygon class="cls-1" points="607.49 199.59 607.49 207.71 601.19 207.71 601.19 199.59 607.49 199.59 607.49 199.59"/><polygon class="cls-1" points="618.11 199.59 618.11 207.71 611.82 207.71 611.82 199.59 618.11 199.59 618.11 199.59"/><polygon class="cls-1" points="628.73 199.59 628.73 207.71 622.44 207.71 622.44 199.59 628.73 199.59 628.73 199.59"/><path class="cls-1" d="M889.23,176.51a8.72,8.72,0,0,1,9.25,0h0v13.25h-9.25V176.51Z"/><path class="cls-1" d="M889.23,146a8.44,8.44,0,0,1,9.25,0h0v15h-9.25V146Z"/><path class="cls-1" d="M899.59,118.24v11.91H888.13V118.24h0a10.73,10.73,0,0,1,11.46,0Z"/><polygon class="cls-1" points="894.84 94.69 894.84 97.82 892.87 97.82 892.87 94.69 894.84 94.69 894.84 94.69"/><path class="cls-1" d="M844.48,176.51a8.72,8.72,0,0,1,9.25,0h0v13.25h-9.25V176.51Z"/><path class="cls-1" d="M854.83,118.24v11.91H843.37V118.24h0a10.73,10.73,0,0,1,11.46,0Z"/><path class="cls-1" d="M844.48,146a8.44,8.44,0,0,1,9.25,0h0v15h-9.25V146Z"/><path class="cls-1" d="M866.86,176.51a8.7,8.7,0,0,1,9.24,0h0v13.25h-9.24V176.51Z"/><path class="cls-1" d="M866.86,146a8.42,8.42,0,0,1,9.24,0h0v15h-9.24V146Z"/><path class="cls-1" d="M877.21,118.24v11.91H865.75V118.24h0a10.73,10.73,0,0,1,11.46,0Z"/><polygon class="cls-1" points="872.46 94.69 872.46 97.82 870.5 97.82 870.5 94.69 872.46 94.69 872.46 94.69"/><path class="cls-1" d="M822.1,176.51a8.72,8.72,0,0,1,9.25,0h0v13.25H822.1V176.51Z"/><path class="cls-1" d="M822.11,146a8.42,8.42,0,0,1,9.24,0h0v15H822.1V146Z"/><path class="cls-1" d="M832.46,118.24v11.91H821V118.24h0a10.73,10.73,0,0,1,11.46,0Z"/><polygon class="cls-1" points="850.09 94.69 850.09 97.82 848.12 97.82 848.12 94.69 850.09 94.69 850.09 94.69"/><polygon class="cls-1" points="827.71 94.69 827.71 97.82 825.74 97.82 825.74 94.69 827.71 94.69 827.71 94.69"/><path class="cls-1" d="M732.6,176.51a8.7,8.7,0,0,1,9.24,0h0v13.25H732.6V176.51Z"/><path class="cls-1" d="M743,118.24v11.91H731.49V118.24h0a10.73,10.73,0,0,1,11.46,0Z"/><path class="cls-1" d="M732.6,146a8.42,8.42,0,0,1,9.24,0h0v15H732.6V146Z"/><path class="cls-1" d="M799.73,176.51a8.7,8.7,0,0,1,9.24,0h0v13.25h-9.24V176.51Z"/><path class="cls-1" d="M799.73,146a8.42,8.42,0,0,1,9.24,0h0v15h-9.24V146Z"/><path class="cls-1" d="M777.35,176.51a8.72,8.72,0,0,1,9.25,0h0v13.25h-9.25V176.51Z"/><path class="cls-1" d="M777.35,146a8.44,8.44,0,0,1,9.25,0h0v15h-9.25V146Z"/><path class="cls-1" d="M810.08,118.24v11.91H798.62V118.24h0a10.73,10.73,0,0,1,11.46,0Z"/><polygon class="cls-1" points="805.34 94.69 805.34 97.82 803.37 97.82 803.37 94.69 805.34 94.69 805.34 94.69"/><path class="cls-1" d="M787.7,118.24v11.91H776.25V118.24h0a10.72,10.72,0,0,1,11.45,0Z"/><polygon class="cls-1" points="782.96 94.69 782.96 97.82 780.99 97.82 780.99 94.69 782.96 94.69 782.96 94.69"/><path class="cls-1" d="M755,176.51a8.7,8.7,0,0,1,9.24,0h0v13.25H755V176.51Z"/><path class="cls-1" d="M755,146a8.42,8.42,0,0,1,9.24,0h0v15H755V146Z"/><path class="cls-1" d="M765.33,118.24v11.91H753.87V118.24h0a10.73,10.73,0,0,1,11.46,0Z"/><polygon class="cls-1" points="760.58 94.69 760.58 97.82 758.62 97.82 758.62 94.69 760.58 94.69 760.58 94.69"/><polygon class="cls-1" points="738.21 94.69 738.21 97.82 736.24 97.82 736.24 94.69 738.21 94.69 738.21 94.69"/><path class="cls-1" d="M687.85,176.51a8.7,8.7,0,0,1,9.24,0h0v13.25h-9.24V176.51Z"/><path class="cls-1" d="M698.2,118.24v11.91H686.74V118.24h0a10.73,10.73,0,0,1,11.46,0Z"/><path class="cls-1" d="M687.85,146a8.42,8.42,0,0,1,9.24,0h0v15h-9.24V146Z"/><path class="cls-1" d="M710.22,176.51a8.72,8.72,0,0,1,9.25,0h0v13.25h-9.25V176.51Z"/><path class="cls-1" d="M710.22,146a8.44,8.44,0,0,1,9.25,0h0v15h-9.25V146Z"/><path class="cls-1" d="M720.57,118.24v11.91H709.12V118.24h0a10.72,10.72,0,0,1,11.45,0Z"/><polygon class="cls-1" points="715.83 94.69 715.83 97.82 713.86 97.82 713.86 94.69 715.83 94.69 715.83 94.69"/><path class="cls-1" d="M665.47,176.51a8.72,8.72,0,0,1,9.25,0h0v13.25h-9.25V176.51Z"/><path class="cls-1" d="M665.47,146a8.42,8.42,0,0,1,9.24,0h0v15h-9.25V146Z"/><polygon class="cls-1" points="693.45 94.69 693.45 97.82 691.49 97.82 691.49 94.69 693.45 94.69 693.45 94.69"/><path class="cls-1" d="M675.82,118.24v11.91H664.36V118.24h0a10.73,10.73,0,0,1,11.46,0Z"/><polygon class="cls-1" points="671.08 94.69 671.08 97.82 669.11 97.82 669.11 94.69 671.08 94.69 671.08 94.69"/><path class="cls-1" d="M643.09,176.51a8.72,8.72,0,0,1,9.25,0h0v13.25h-9.25V176.51Z"/><path class="cls-1" d="M643.09,146a8.44,8.44,0,0,1,9.25,0h0v15h-9.25V146Z"/><path class="cls-1" d="M653.45,118.24v11.91H642V118.24h0a10.73,10.73,0,0,1,11.46,0Z"/><polygon class="cls-1" points="648.7 94.69 648.7 97.82 646.73 97.82 646.73 94.69 648.7 94.69 648.7 94.69"/><path class="cls-1" d="M969.25,176.35v13.41H964V176.35h0a5.28,5.28,0,0,1,5.22,0Z"/><path class="cls-1" d="M964,145.89v14.7h5.22v-14.7h0a4.83,4.83,0,0,0-5.22,0Z"/><path class="cls-1" d="M977.61,176.35v13.41H972.4V176.35h0a5.26,5.26,0,0,1,5.21,0Z"/><path class="cls-1" d="M977.61,145.89v14.7H972.4v-14.7h0a4.82,4.82,0,0,1,5.21,0Z"/><path class="cls-1" d="M977.36,118.19V130h-4.72V118.19h0a4.59,4.59,0,0,1,4.72,0Z"/><polygon class="cls-1" points="972.28 88.86 969.43 88.86 969.43 95.16 972.28 95.16 972.28 88.86 972.28 88.86"/><polygon class="cls-1" points="977.31 88.86 974.46 88.86 974.46 95.16 977.31 95.16 977.31 88.86 977.31 88.86"/><path class="cls-1" d="M951.3,145.89v14.7h-5.22v-14.7h0a4.82,4.82,0,0,1,5.21,0Z"/><path class="cls-1" d="M951.3,176.35v13.41h-5.22V176.35h0a5.26,5.26,0,0,1,5.21,0Z"/><path class="cls-1" d="M942.94,176.35v13.41h-5.22V176.35h0a5.28,5.28,0,0,1,5.22,0Z"/><path class="cls-1" d="M937.72,145.89v14.7h5.22v-14.7h0a4.83,4.83,0,0,0-5.22,0Z"/><path class="cls-1" d="M951.05,118.19V130h-4.72V118.19h0a4.59,4.59,0,0,1,4.72,0Z"/><polygon class="cls-1" points="950.93 88.86 948.08 88.86 948.08 95.16 950.93 95.16 950.93 88.86 950.93 88.86"/><path class="cls-1" d="M963.79,118.19V130h4.72V118.19h0a4.55,4.55,0,0,0-4.72,0Z"/><polygon class="cls-1" points="967.26 88.86 964.4 88.86 964.4 95.16 967.26 95.16 967.26 88.86 967.26 88.86"/><path class="cls-1" d="M937.48,118.19V130h4.72V118.19h0a4.55,4.55,0,0,0-4.72,0Z"/><polygon class="cls-1" points="940.95 88.86 938.09 88.86 938.09 95.16 940.95 95.16 940.95 88.86 940.95 88.86"/><polygon class="cls-1" points="945.9 88.86 943.05 88.86 943.05 95.16 945.9 95.16 945.9 88.86 945.9 88.86"/><path class="cls-1" d="M925,176.35v13.41h-5.22V176.35h0a5.28,5.28,0,0,1,5.22,0Z"/><path class="cls-1" d="M916.63,176.35v13.41h-5.22V176.35h0a5.28,5.28,0,0,1,5.22,0Z"/><path class="cls-1" d="M925,145.89v14.7h-5.22v-14.7h0a4.83,4.83,0,0,1,5.22,0Z"/><path class="cls-1" d="M911.41,145.89v14.7h5.22v-14.7h0a4.83,4.83,0,0,0-5.22,0Z"/><path class="cls-1" d="M924.74,118.19V130H920V118.19h0a4.59,4.59,0,0,1,4.72,0Z"/><path class="cls-1" d="M911.17,118.19V130h4.72V118.19h0a4.55,4.55,0,0,0-4.72,0Z"/><polygon class="cls-1" points="924.62 88.86 921.77 88.86 921.77 95.16 924.62 95.16 924.62 88.86 924.62 88.86"/><polygon class="cls-1" points="914.56 88.86 911.71 88.86 911.71 95.16 914.56 95.16 914.56 88.86 914.56 88.86"/><polygon class="cls-1" points="919.59 88.86 916.74 88.86 916.74 95.16 919.59 95.16 919.59 88.86 919.59 88.86"/><polygon class="cls-1" points="963.99 207.86 969.3 207.86 969.3 199.59 963.99 199.59 963.99 207.86 963.99 207.86"/><polygon class="cls-1" points="972.35 207.86 977.17 207.86 977.17 199.59 972.35 199.59 972.35 207.86 972.35 207.86"/><polygon class="cls-1" points="937.67 207.86 942.99 207.86 942.99 199.59 937.67 199.59 937.67 207.86 937.67 207.86"/><polygon class="cls-1" points="911.36 207.86 916.68 207.86 916.68 199.59 911.36 199.59 911.36 207.86 911.36 207.86"/><polygon class="cls-1" points="919.73 207.86 924.54 207.86 924.54 199.59 919.73 199.59 919.73 207.86 919.73 207.86"/><polygon class="cls-1" points="946.03 207.86 950.86 207.86 950.86 199.59 946.03 199.59 946.03 207.86 946.03 207.86"/><polygon class="cls-2" points="0.15 212.18 0.15 214.15 1000.11 214.15 1000.11 212.18 0.15 212.18 0.15 212.18"/><polygon class="cls-2" points="0.11 212.22 1000.02 212.22 1000.02 214.05 0.11 214.05 0.11 212.22 0.11 212.22"/><path class="cls-1" d="M95.14,71.12H87L69.27,46.82V39l-.52-1.89-1.4-1.36-.15-.14v-.15L67,31.82l-.25,3.59v.15l-.15.14-1.3,1.21-.6,1.67H46.81l-.6-1.67-1.3-1.21-.15-.14v-.15l-.25-3.59-.24,3.59v.15l-.15.14-1.4,1.36L42.2,39v7.87h-.08L19,78.52v.61H39.87v-3.4l.52-.3A9.31,9.31,0,0,1,42.57,71a9.41,9.41,0,0,1,2.21,4.41l.48.29v3.4H66.18V75.74l.51-.31a9.27,9.27,0,0,1,2.2-4.4,9.32,9.32,0,0,1,2.2,4.41l.49.29v3.4H92.51v-.28h0V75.73l.52-.3a9.21,9.21,0,0,1,2.11-4.31ZM43.23,38.82h2.49v5.23H43.23V38.82Zm22.49,0H68.2v5.23H65.72V38.82Z"/><path class="cls-1" d="M905.13,71.12h8.13L931,46.82V39l.52-1.89,1.4-1.36.15-.14v-.15l.25-3.59.24,3.59v.15l.15.14,1.3,1.21.6,1.67h17.86l.59-1.67,1.31-1.21.15-.14v-.15l.24-3.59.25,3.59v.15l.14.14,1.41,1.36.51,1.89v7.87h.09l23.13,31.7v.61H960.41v-3.4l-.52-.3a9.46,9.46,0,0,0-2.2-4.4,9.41,9.41,0,0,0-2.21,4.41l-.48.29v3.4H934.09V75.74l-.51-.31a9.22,9.22,0,0,0-2.19-4.4,9.36,9.36,0,0,0-2.21,4.41l-.48.29v3.4H907.77v-.28h0V75.73l-.52-.3a9.21,9.21,0,0,0-2.11-4.31ZM957,38.82h-2.48v5.23H957V38.82Zm-22.48,0h-2.49v5.23h2.49V38.82Z"/><path class="cls-3" d="M448.23,123.52c-1.52-4.85-7.37-8.35-14-8.35-6.81,0-12.77,3.71-14.12,8.74m61.17-.39c-1.52-4.85-7.37-8.35-14-8.35-6.81,0-12.77,3.71-14.12,8.74m61.06-.39c-1.52-4.85-7.37-8.35-14-8.35-6.81,0-12.77,3.71-14.12,8.74m61.12-.39c-1.52-4.85-7.37-8.35-14-8.35-6.8,0-12.77,3.71-14.12,8.74m61.06-.39c-1.51-4.85-7.36-8.35-14-8.35-6.81,0-12.77,3.71-14.12,8.74"/><path class="cls-4" d="M500.13,176.6a10.36,10.36,0,0,0-10.33,10.34h0m10.33-10.34a10.36,10.36,0,0,0-10.33,10.34h0m20.67,0a10.37,10.37,0,0,0-10.34-10.34h0m10.34,10.34a10.37,10.37,0,0,0-10.34-10.34h0"/><path class="cls-5" d="M500.13,169h139.7M587.89,90.91H500.13m0,2.93h91m-74.48-10H500.13m0-7.06h.69m.25-3.15H499.2m14.71,13.75H500.13m0,12.68h91.1M615,166.82H500.13M488,162h24.31m-12.16-58.18h91.2M511.7,208.86H488.57m-192-105.12H99.68M207.1,196.25H184.72m22.38-33.86H184.72m22.38,3.69H184.72m22.38-64.92H184.72m0,10.33H207.1M184.72,94.23H192M276.15,169H162.35M92,85.67H19.53m36.22,75.39H11m1.48-49.57H55.75m0-12.54H13m42.79,97.3H12.2m24.86-30.17H30.67m25.08-63.81h-35m80,66.71H10.7m11-36.47H37.73m.14-1.25H21.5m17.41,63.16H20M12.6,160.91V111.49M20,160.91V111.49"/><path class="cls-4" d="M28.31,187.84a.15.15,0,0,0-.15.15h0m.15-.15a.15.15,0,0,0-.15.15h0m2.56,0a.15.15,0,0,0-.15-.15h0m.15.15a.15.15,0,0,0-.15-.15h0m-8.21.15a.15.15,0,0,0-.15-.15h0m.15.15a.15.15,0,0,0-.15-.15h0"/><path class="cls-6" d="M21.87,173.46V169m0,4.48H20m2.24,14.38H12.13M20,190.79H12m7.23-4.43v1.48m.73-1.48v-12.9m0,12.9h-.73m.73,8.06v-3.63m10.6-2.95H28.31m-.1-21.76H20.34m-8.11-3.69H12m18.66,3.69H28.21m-7.45-63.81H11.83m9.67,29v.15m.15,1.1v-1.1m-.15,0h.15m0-.15,1.1-.22m13.87,0H22.75M19.6,85.69V98.94M13,85.67V99m6.64-3.7H13m86.67,99.16h13.53m4.42-28.34H99.27m18.32,30.17h-18m18,0H95.22m3.91-64.84h14.55m-.14,1.1H99.27"/><path class="cls-4" d="M36.67,187.84a.15.15,0,0,0-.15.15h0m.15-.15a.15.15,0,0,0-.15.15h0m12.15,0a.15.15,0,0,0-.15-.15h0m.15.15a.15.15,0,0,0-.15-.15h0m6.1,0a.15.15,0,0,0-.15.15h0m.15-.15a.15.15,0,0,0-.15.15h0M57,188a.15.15,0,0,0-.15-.15h0M57,188a.15.15,0,0,0-.15-.15h0m6.1,0a.15.15,0,0,0-.15.15h0m.15-.15a.15.15,0,0,0-.15.15h0"/><path class="cls-7" d="M117.59,162.39H99.27M117.59,169H100.8m16.79-67.82h-14m-4.72,10.33h18.68M55.75,161.06H100m-1-49.57H55.75m0-12.54H98.52M72.23,95.26H65.59m6.64-9.59H65.59M55.75,196.25H99.62m-27-5.46H65.22M63,187.84H74.83M55.75,102.27h35M46.28,160.91V111.49m-7.37,49.42V111.49m26.31,49.42V111.49m0,82.93H46.28m1.9-21V169M37,173.46V169m11.17,4.48h-1.9m-7.37,0H37m1.9,17.33h7.37m2.24-2.95H36.67m3-1.48v1.48m-.73-1.48v-12.9m0,12.9h.73m-.73,4.43v3.63m6.64-8.06v1.48m.73-1.48v-12.9m0,12.9h-.73m.73,8.06v-3.63m-7.74-24.71H37.06m26.26,7.38V169m1.9,4.48h-1.9m-6.44,14.38H54.62m10.6-1.48v-12.9m.74,12.9v1.48m-.74-1.48H66m-.74,4.43v3.63m-.37-28.34H46.69M48,132.51H64m-26.31-1.1h.14m-.14-.15L36.62,131m1.11,1.47v-1.1m.14-.15v.15m1.41-36.15h6.63m-6.59-9.59h6.59"/><path class="cls-4" d="M75,188a.15.15,0,0,0-.15-.15h0M75,188a.15.15,0,0,0-.15-.15h0m6.1,0a.15.15,0,0,0-.15.15h0m.15-.15a.15.15,0,0,0-.15.15h0m2.56,0a.15.15,0,0,0-.15-.15h0m.15.15a.15.15,0,0,0-.15-.15h0m6.1,0a.15.15,0,0,0-.15.15h0m.15-.15a.15.15,0,0,0-.15.15h0"/><path class="cls-5" d="M39.28,85.67V98.92m6.64-13.24V98.92M65.59,85.69V98.92M100,143V132.51m-8.48,28.4V111.49m7.38,49.42V111.49M72.59,160.91V111.49m17,62V169m-6.35-2.9h7.87m.37,7.38H89.64m-.35,14.38H99.37m-9-26.63v-.15M72.59,194.42H91.53m-17-21V169m0,4.48h-1.9m0,12.9h-.73m.73,0v-12.9m-.73,12.9v1.48m.73,2.95v3.63m10.6-6.58H80.93m-6.49-21.76h6.39m-7.87,0h1.48m6.39,0h2.46m18.2,2.9v4.48m-1.85,0h1.85m-1.85,17.33v3.63m1.7-6.58H99.27m.37-1.48v-12.9m2.22,21H99.27"/><path class="cls-4" d="M101.49,188a.15.15,0,0,0-.15-.15h0m.15.15a.15.15,0,0,0-.15-.15h0"/><path class="cls-5" d="M91.53,190.79h8.11m-8.11-4.43h.74m7.37,0h-.37m-7.74,0v-12.9m.74,12.9v1.48m7.37,1.53h0m-8.09,5v-3.63m10-28.4v3.69m6,2.9H109M74.27,132.51H90.35M72.23,85.7V98.92m26.68,12.57v4.08m.36,16.94v-.95m-.14-.15,1.25-.37m-1.25.52v-.15m.14.15h-.14m-.59-37.33h3.93M91.7,85.67h.2m-1.16,16.6h9"/><path class="cls-4" d="M111.47,187.84a.15.15,0,0,0-.15.15h0m.15-.15a.15.15,0,0,0-.15.15h0m12.54,0a.15.15,0,0,0-.14-.15h0m.14.15a.15.15,0,0,0-.14-.15h0"/><path class="cls-5" d="M91.9,85.67V98.92M92,85.67h6.57m3.93,8.56v5.06m41.93,95.13h13.52m4.43,1.83H140m22.38-33.86H140m22.38,3.69H140m8.61,2.9h1.47m12.3-67.82H140m0,10.33h22.38m0,57.49H140M112.8,142.87V132.51M122,194.42h13.52m4.43,1.83H117.59M140,162.39H117.59M140,166.08H117.59M140,169H117.59m-6.27,0v4.48M123.86,169v4.48m-12.54,0h1.85m8.85,0h1.84m-.14,14.38h-6.13m-4.42,6.58v-3.63m.73-4.43v1.48m-2.43,0h6.12m-4.42-14.38v12.9m0,0h.73m8.12,4.43v3.63m0-8.06v-12.9m-.74,12.9v1.48m.74-1.48h-.74M118.72,169h1.48m-1.48,0h1.48m-8.88-6.59v3.69m-.07,2.9h1.47m2.27,0h1.47m7.4-6.59v3.69m-1.4,2.9h1.48m2.26,0h1.47m18.57,0v4.48M133.7,169v4.48m10.7,0h1.84m-12.54,0h1.84m0,21v-3.63m0-17.33v12.9m.74,0v1.48m-.74-1.48h.74m8.12,4.43v3.63m0-8.06v-12.9m-.74,12.9v1.48m.74-1.48h-.74M137.36,169h1.48m-5.14-6.59v3.69m-3.81,2.9h1.47m2.27,0h1.47m11.14-6.59v3.69M141.1,169h1.48m2.26,0h1.47m-5.21,0h1.48M140,101.16H117.59m0,10.33H140m-26.07,0v4.08m7.38-4.08v4.08m-7.6,16h-.14m0,.95v-.95m.14-.15v.15m0-.15-1.25-.37m5.16-36.81h7.26M113.9,111.49v-7.75m-3.56-9.51v6.93m7.25-6.93h-7.25m10.94,17.26v-7.75m3.57-9.51v6.93m11.43,10.33v4.08m7.38-4.08v4.08M140,94.23h-7.25m3.56,17.26v-7.75m-3.56-9.51v6.93m10.94,10.33v-7.75m3.56-9.51v6.93M140,94.23h7.25m19.55,100.19H180.3M168.62,169v4.48m-1.85,0h1.85m16.1,22.79H162.35m6.27-33.86v3.69m16.1-3.69H162.35m22.37,3.69H162.35m4.86,2.9h1.48m-12.61,0v4.48m0,0h1.84m0,21v-3.63m0-17.33v12.9m.74,0v1.48m-.74-1.48h.74m8.11,4.43v3.63m0-8.06v-12.9m-.74,12.9v1.48m.74-1.48H166m-9.95-24v3.69m-3.82,2.9h1.48m2.26,0h1.48m6,0H165m-1.47,0H165m-5.21,0h1.47m17.24,0v4.48m0,0h1.85m0,21v-3.63m0-17.33v12.9m.73,0v1.48m-.73-1.48H181M171,169h1.48m2.21,0h1.48m9.73,0h1.48m-8.88-6.59v3.69m-.07,2.9h1.47m2.27,0h1.47m1.13-67.82H162.35m0,10.33h22.37M162.35,94.23h7.25M166,111.49v4.08m-7.37-4.08v4.08m0-4.08v-7.75m3.69-9.51h-7.26m0,0v6.93M166,111.49v-7.75m15,7.75v4.08m-3.56-21.34v6.93m7.25-6.93h-7.25m-7.87,0v6.93M181,111.49v-7.75"/><path class="cls-4" d="M408.09,83.4V81.72m-66.73,29.77h20m.3-7.75H341.36m20.41-2.58H341.36m0-6.93h7.25m12.49,68.16H341.36m19.74,3.69H341.36m19.4,30.17h-19.4M270.47,169h90.09M256.28,194.42H269.8m4.43,1.83H251.85m22.38-33.86H251.85m22.38,3.69H251.85m22.38-64.92H251.85m0,10.33h22.38m-44.75,84.76H207.1m22.38-33.86H207.1m22.38,3.69H207.1m22.38-64.92H207.1m153.26,59.9H100M207.1,111.49h22.38m0-17.26h-7.26M191,169v4.48m9.84-4.48v4.48m0,0h1.84m-13.52,0H191m-1.84,21h13.52m-13.52-3.63v3.63m0-8.06v-12.9m-.74,12.9v1.48m.74-1.48h-.74m14.26,8.06v-3.63m0-17.33v12.9m.74,0v1.48m-.74-1.48h.74m-12.42-24v3.69m9.84-3.69v3.69m12.54,2.9v4.48m9.84-4.48v4.48m0,0h1.84m-13.53,0h1.85m-1.85,21h13.53m-13.53-3.63v3.63m0-8.06v-12.9m-.73,12.9v1.48m.73-1.48h-.73m14.26,8.06v-3.63m0-17.33v12.9m.74,0v1.48m-.74-1.48h.74m-12.42-24v3.69m9.84-3.69v3.69M207.1,94.23h7.25m-10.94,17.26v4.08m-15-4.08v4.08m0-4.08v-7.75M192,94.23v6.93m11.43,10.33v-7.75m-3.57-9.51v6.93m7.26-6.93h-7.26m25.95,17.26v4.08m-15-4.08v4.08m0-4.08v-7.75m3.56-9.51v6.93m11.44,10.33v-7.75m-3.57-9.51v6.93m11.68,93.26h13.53m-1.85-21h1.85m4.42,22.79H229.48m22.37-33.86H229.48m22.37,3.69H229.48m6.27,2.9v4.48m9.83-4.48v4.48m-11.68,0h1.85m-1.85,17.33v3.63m0-8.06v-12.9m-.74,12.9v1.48m.74-1.48h-.74m2.59-24v3.69m9.83-3.69v3.69m12.54,2.9v4.48m-1.84,0h1.84m-1.84,17.33v3.63m0-8.06v-12.9m-.74,12.9v1.48m.74-1.48h-.74m-8.11,8.06v-3.63m0-17.33v12.9m.73,0v1.48m-.73-1.48h.73m10-24v3.69m-6.27-64.92H229.48m0,10.33h22.37m0-17.26H244.6m-11.44,17.26v4.08m3.57-21.34v6.93m-7.25-6.93h7.25m-3.57,17.26v-7.75m11.44-9.51v6.93m10.94,10.33v4.08m-7.38-4.08v4.08m7.38-4.08v-7.75m-3.69-9.51h7.26m-11,17.26v-7.75m11-9.51v6.93M301,194.42h13.52m4.43,1.83H296.6M319,162.39H296.6M319,166.08H296.6M319,101.16H296.6M319,103.74H296.6m0,7.75H319m-40.33,82.93h13.53m4.42,1.83H274.23m22.37-33.86H274.23m22.37,3.69H274.23m6.27,2.9v4.48M268,169v4.48m10.69,0h1.85m-12.54,0h1.84m0,21v-3.63m0-17.33v12.9m.74,0v1.48m-.74-1.48h.74m8.11,4.43v3.63m0-8.06v-12.9m-.73,12.9v1.48m.73-1.48h-.73m-10-24v3.69m12.54-3.69v3.69m22.37,2.9v4.48M290.33,169v4.48m10.7,0h1.84m-12.54,0h1.85m0,21v-3.63m0-17.33v12.9m.74,0v1.48m-.74-1.48h.74m8.11,4.43v3.63m0-8.06v-12.9m-.74,12.9v1.48m.74-1.48h-.74m-10-24v3.69m12.54-3.69v3.69m-6.27-64.92H274.23m0,10.33H296.6m-18.68,0v4.08m-7.38-4.08v4.08m3.69-21.34h7.25m-10.94,17.26v-7.75M267,94.23v6.93m7.26-6.93H267m10.95,17.26v-7.75m3.56-9.51v6.93m18.81,10.33v4.08m-7.37-4.08v4.08m3.68-21.34h-7.25m3.57,17.26v-7.75m-3.57-9.51v6.93m10.94,10.33v-7.72m3.57-9.54v6.93m-7.26-6.93h7.26m19.55,100.19h13.52m-13.52-21h1.84m16.11,22.79H319m22.38-33.86H319m22.38,3.69H319m-6.27,2.9v4.48m0,0h1.84m0,21v-3.63m0-17.33v12.9m0,0h.74m8.12,4.43v3.63m0-8.06v-12.9m-.74,12.9v1.48m.74-1.48h-.74m-7.38,0v1.48m-2.58-25.45v3.69m12.54,2.9v4.48m9.84-4.48v4.48m0,0h1.84m0,21v-3.63m0-17.33v12.9m.74,0v1.48m-.74-1.48h.74m-12.42-24v3.69m9.84-3.69v3.69m6.27-64.92H319m22.38,2.58H319m0,7.75h22.38M319,94.23h7.25m-3.56,17.26v4.08m-7.38-4.08v4.08M319,94.23h-7.25m0,0v6.93m10.94,10.33v-7.72m-7.38,7.72v-7.72m22.38,7.72v4.08M334.1,94.23v6.93m7.26-6.93H334.1m-7.87,0v6.93m11.44,10.33v-7.72m73.6,94.89h17.4M500.13,169H385.3m32.42-85.14H434.2m65.93,10H410.25m89.88,6.22H409m3.1-9.15h88m-79.71-3.53H434.2m-48.9,79.44H500.13m-78.09-.5H409.89m11.91-61.47v-1.08m78.33,0h-91.2M392.58,208v-8.6m6.69,8.6v-8.6M378,208v-8.6m-6.69,8.6v-8.6M382,208v-8.6m6.69,8.6v-8.6m22.63.24v6m-41.06,3.13h14.84m.25-.57h-3.15m3.15-.24H382m-7.27.24h-3.15m3.15-.24h-3.35m-1.12,0v.81m1.12-.81h-1.12m15.09-90.86a4.63,4.63,0,0,0-3.18,1.29m3.18-1.29a4.63,4.63,0,0,0-3.18,1.29M371.33,208l.2.15M382,208H378m-.2.15h4.33m-4.33,0,.2-.15m-3.34.15h3.14m-3.14-.24H378m4.13.24L382,208m17.94.72H385.05m7.72-.57h-4.32m4.32,0-.19-.15m3.34-.09h-3.34m-3.94.09h3.94m-4.13.15.19-.15m-3.34.15h3.15m-3.15-.24h3.34m11.25,0v.81m-1.12-.81h1.12m-.62.09-.2.15m-3.15,0h-3.15m3.15,0h3.15m-3.15-.24h3.35m-24.59-75.06H385.3m0-1H374.68m0,0H385.3M359.58,169H385.3m0-7.77H360.48m24.82,0H382m3.32-70.3H360.09m28.53,83.16H382m3.32-73.87H366M362,87.38h46.57m-47.06,6.46H385.3m0,9.93H361.67M385.3,111H361.77M382,145.42h3.32m0,21.4H358.74m26.56-4.77H360.49M385.3,199.4H382m3.35,0H382m-10.59-116H385.3m0,111.82H361M347.63,169v4.48m9.83-4.48v4.48m3.64-3v24.71m-3.64-21.76h1.85m-13.53,0h1.85m13.47-3v24.71m0-24.71v24.71m-15.32-.8h13.53m-13.53-3.63v3.63m-.73-8.06v1.48m.73-1.48v-12.9m0,12.9h-.73m14.26,8.06v-3.63m.74-4.43v1.48m-.74-14.38v12.9m0,4.43h1.79m-1.79-4.43h.74m-12.42-24v3.69m9.83-3.69v3.69m20.56,8h-6.64m3.3,25.33h-3.35m.05-25.33V190.2M378,174.07V190.2m-3.34,9.2H378m4-25.33v16.08m-4-28.94h-6.64m0-15.79h3.32m-3.32,15.79V145.42m0,0v15.79m6.64,0V145.42m0,0v15.79m0-15.79h-3.32m7.3,15.79V145.42m0,0v15.79M362,83.92h9.36M365,100.2h-3.32m-1.64,11.29v4.08m-15-4.08v4.08m0-4.08v-7.72m3.56-9.54v6.93m11.44,10.33v-7.72m-3.57-9.54v6.93M362,94.23h-5.54m18.2,22.82a4.66,4.66,0,0,0-3.19,1.29m3.19-1.29a4.66,4.66,0,0,0-3.19,1.29m0,0a.52.52,0,0,0-.17.39h0m.17-.39a.52.52,0,0,0-.17.39h0m6.53-.38a4.63,4.63,0,0,0-3.18-1.29h0m3.18,1.29a4.63,4.63,0,0,0-3.18-1.29h0m3.34,1.67h0a.55.55,0,0,0-.16-.39m.16.39h0a.55.55,0,0,0-.16-.39m4.26,0a.56.56,0,0,0-.17.39h0m.17-.39a.56.56,0,0,0-.17.39h0m-7.27,14.13H370.4m4.28-1H370.4m0,1v-1m.93-13.13v12.93m0,.2V118.72m6.69,0v12.93m0,.2V118.72m3.93,0v12.93m0,.2V118.72M371.31,111v-7.23M365,100.2H366m-.94,0H366M378,111v-7.23m3.89,7.23v-7.23m3.37,58.28h24.81m-24.81-.84h24.84m-24.84.84h24.81M385.3,195.22h24.2m-10.28-21.15h-6.64m0,0v16.08m3.34,9.25h-3.34m-4-25.33v16.08m-3.32,9.25h3.34m-3.34,0h3.34m10.58-25.33v16.08m-3.3,9.25h3.35m-6.89-38.19H399m-6.64,0V145.42m0,0v15.79m0-15.79h3.32m-3.1,0h3.32M385.3,161.21h3.32m0,0V145.42m0,0v15.79m0-15.79H385.3M399,161.21V145.42m0,0v15.79m0-15.79H395.7M385.3,90.91h26.83m-12.92-7.07h8.87M385.3,100.2h19.35m4.43-6.36H385.3m0,9.93h23.63m-16.41,14.56a.55.55,0,0,0-.16.39h0m.16-.39a.55.55,0,0,0-.16.39h0m3.34-1.67a4.63,4.63,0,0,0-3.18,1.29m3.18-1.29a4.63,4.63,0,0,0-3.18,1.29m3.18-1.29a4.63,4.63,0,0,0-3.18,1.29m3.18-1.29a4.63,4.63,0,0,0-3.18,1.29m-4,0a4.63,4.63,0,0,0-3.18-1.29h0m3.18,1.29a4.63,4.63,0,0,0-3.18-1.29h0m3.34,1.67h0a.55.55,0,0,0-.16-.39m.16.39h0a.55.55,0,0,0-.16-.39m10.56.39h0a.55.55,0,0,0-.16-.39m.16.39h0a.55.55,0,0,0-.16-.39m0,0a4.63,4.63,0,0,0-3.18-1.29h0m3.18,1.29a4.63,4.63,0,0,0-3.18-1.29h0m3.18,1.29a4.63,4.63,0,0,0-3.18-1.29h0m3.18,1.29a4.63,4.63,0,0,0-3.18-1.29h0m-10.4-6h23.53m-12.91,21.85H385.3m-.22,0H395.7m.22-1H385.3m10.4,0H385.08m0,0H395.7m-3.34-13.13v12.93m0,.2V118.72m-3.72,0v12.93m0,.2V118.72m11.56,14.13v-1m-4.28,1h4.28m-4.28-1h4.28M399,118.72v12.93m0,.2V118.72M392.55,111v-7.23m6.59-20.37H385.3m3.37,27.6v-7.23M399.29,111v-7.23m-.15-20.37.07,0M415,87.38h-6.43m9.14-3.54h-9.14m0,3.54V83.84m-3,16.36h-.93m.93,0h3.3m4.76,4.65v-1.08m62.73,95.87V206m14.56-6.35v6m-33-6v6.25m-2.36,3h23.13M467.17,176.6a10.36,10.36,0,0,0-10.34,10.34h0m10.34-10.34a10.36,10.36,0,0,0-10.34,10.34h0m20.67,0a10.36,10.36,0,0,0-10.33-10.34h0m10.33,10.34a10.36,10.36,0,0,0-10.33-10.34h0M450.68,83.84h16.48m-13.77,3.54h13.77m-13.77,0h13.77M455,162h24.31m-33,0H422m18.09,38.33H427.64m0-.93h12.49m-12.49.93v-.93m0,0,.71-.1m11.78.1-.71-.1m.71.1v.93m-.71-1H428.35m29.62.4-.4-.15m0-.84v.84m-11.22-33.18H455m-4.33-82.48H434.2M448,87.38H434.2m45.12,78.94H488m-4.33,31.11h-6.14m-.75,1.23h6.89m-7.28,1,.39-.17m0-.81v.81m13.77-.81h-6.88m7.28,1-.4-.14m0-.84v.83m-6.88-2.06h6.15m0,1.23V186.94m-6.15-103.1H467.16m13.78,3.54H467.16m16.49-3.54h16.48m-13.78,3.54h13.78m-82.41-8.06h11.36M371,69.77H385.3m-22.8,12h8.11m-7.34-9.49h7.3m-5.31-7h3.37m96,10.52a3.24,3.24,0,0,0-2.6,3.17V79m2.6-3.29a3.24,3.24,0,0,0-2.6,3.17V79M433.38,75.5a12.65,12.65,0,0,0-1.69.19m1.69-.19a12.65,12.65,0,0,0-1.69.19m0,0a3.24,3.24,0,0,0-2.6,3.17V79m2.6-3.29a3.24,3.24,0,0,0-2.6,3.17V79m7.63-3.3A13.55,13.55,0,0,0,435,75.5m1.76.19A13.55,13.55,0,0,0,435,75.5M439.32,79v-.12a3.24,3.24,0,0,0-2.6-3.17m2.6,3.29v-.12a3.24,3.24,0,0,0-2.6-3.17M472.28,79v-.12a3.24,3.24,0,0,0-2.6-3.17m2.6,3.29v-.12a3.24,3.24,0,0,0-2.6-3.17m-3.33-.2a12.46,12.46,0,0,0-1.69.19m1.69-.19a12.46,12.46,0,0,0-1.69.19m5,0a13.59,13.59,0,0,0-1.75-.19m1.75.19a13.59,13.59,0,0,0-1.75-.19m31.39,0a12.65,12.65,0,0,0-1.69.19m1.69-.19a12.65,12.65,0,0,0-1.69.19m0,0A3.23,3.23,0,0,0,495,78.87V79m2.59-3.29A3.23,3.23,0,0,0,495,78.87V79M402,65.18h3.35m2,16.54H400m7.33-9.49H400m-.4-2.46H385.3m14.51,2.46H400m17.72,7.09H407.33m43.35,0h11.37m-11.37,0H439.31M429.08,79v.33m5.12-2.54h-.69m-.25-3.15.25,3.15m-.25-3.15h1.87M439.31,79v.33m-5.11-2.54h.69m.24-3.15-.24,3.15m48.76,2.54H472.28m-5.12-2.54h.69m.25-3.15-.25,3.15m.25-3.15h-1.87m.93,3.15h-.68m-.25-3.15.25,3.15m5.8,2.21v.33m11.37,0H495m0-.33v.33m5.11-2.54h-.69m-.24-3.15.24,3.15m78.78,89.54h8.65m-4.32-82.48H566.06m13.78,3.54H566.06m16.49-3.54H566.06m-42.17,115.8v6m18.41-6v6m-33-6v6m12.19,3.27h23.13m-1.23-21.92A10.36,10.36,0,0,0,533.1,176.6h0m10.33,10.34A10.36,10.36,0,0,0,533.1,176.6h0m0,0a10.36,10.36,0,0,0-10.34,10.34h0M533.1,176.6a10.36,10.36,0,0,0-10.34,10.34h0m26.82-103.1H533.1m13.78,3.54H533.1M520.94,162h24.31M523.5,198.66h-6.89m-4.32-32.34h8.65m1.82,31.11H510.47m-.74,1.23H523.5m-14.15,1,.39-.14m0-.84v.81m.73-.82V186.94m12.29,11.71V186.94m1.13,12.7-.39-.14m0-.84v.84M516.61,83.84H533.1m-13.78,3.54H533.1M553.91,162h24.31m-34.79,36.71V186.94m-1.13,12.7.39-.14m-.39.14.39-.14m0-.84v.84m2.56-33.18h8.66m13.6,32.34h-2.27m-5.11,1.62h12.49m0-.93H560.13m0,0,.71-.1m-.71.1v.93m.71-1h11.07m.71,1v-.93m0,0-.71-.1M549.58,83.84h16.48m-13.78,3.54h13.78M622.24,208v-8.6m6.69,8.6v-8.6M607.68,208v-8.6M601,208v-8.6m17.31,8.6v-8.6m-6.69,8.6v-8.6m18.43,9.32H615.21m-.25-.57h3.15m-3.15-.24h3.35m-17.94.81h14.84m-7.72-.57h4.33m-4.33,0,.19-.15m-3.34-.09h3.34m-7.31,0v.81m1.12-.81h-1.12m.63.09.19.15m3.15,0h3.15m-3.15,0h-3.15m3.15-.24H601m10.82.24-.2-.15m3.34.15h-3.14m3.14-.24h-3.34m14,.24h3.14m-3.14-.24h3.34m-6.49.24h-4.33m4.33,0-.2-.15m3.35.15h-3.15m3.15-.24h-3.35m-4.13.24.2-.15m11.74-.09v.81m-1.12-.81h1.12m-1.12.09-.2.15m-10.58-89.81a4.66,4.66,0,0,0-3.19-1.29h0m3.19,1.29a4.66,4.66,0,0,0-3.19-1.29h0m-7.05,1.67h0a.52.52,0,0,0-.17-.39m.17.39h0a.52.52,0,0,0-.17-.39m0,0a4.66,4.66,0,0,0-3.19-1.29h0m3.19,1.29a4.66,4.66,0,0,0-3.19-1.29h0m3.19,1.29a4.66,4.66,0,0,0-3.19-1.29h0m3.19,1.29a4.66,4.66,0,0,0-3.19-1.29h0m-3.18,1.28a.55.55,0,0,0-.16.39h0m.16-.39a.55.55,0,0,0-.16.39h0m3.34-1.67a4.63,4.63,0,0,0-3.18,1.29m3.18-1.29a4.63,4.63,0,0,0-3.18,1.29m3.18-1.29a4.63,4.63,0,0,0-3.18,1.29m3.18-1.29a4.63,4.63,0,0,0-3.18,1.29M615,117.05a4.63,4.63,0,0,0-3.18,1.29m3.18-1.29a4.63,4.63,0,0,0-3.18,1.29m0,0a.55.55,0,0,0-.16.39h0m.16-.39a.55.55,0,0,0-.16.39h0M594.68,100.2h.93m-.93,0h-3.27m12.93,32.65H615m.22,0H604.56m-.22-1H615m-10.4,0h10.62m0,0H604.56m3.35-13.13v12.93m0,.2V118.72m-7.85,14.13v-1m4.28,1h-4.28m4.28-1h-4.28m1.16-13.13v12.93m0,.2V118.72m10.4,0v12.93m0,.2V118.72M607.71,111v-7.23M601.12,83.4H615M601,111v-7.23m.15-20.37,0,0M611.59,111v-7.23m10.65,70.3h6.64m-3.29,25.33h3.34m-6.69-25.33V190.2m3.35,9.2h-3.35m-4-25.33v16.08m10.6-16.08V190.2m0-44.78h-3.32M622.27,161V145.42m0,0V161m0-15.57h3.32M618.28,161V145.42m0,0V161m10.63,0V145.42m0,0V161m-.14-42.65a4.63,4.63,0,0,0-3.18-1.29h0m3.18,1.29a4.63,4.63,0,0,0-3.18-1.29h0m0,0a4.66,4.66,0,0,0-3.19,1.29m3.19-1.29a4.66,4.66,0,0,0-3.19,1.29m0,0a.52.52,0,0,0-.17.39h0m.17-.39a.52.52,0,0,0-.17.39h0m-3.93,0h0a.52.52,0,0,0-.17-.39m.17.39h0a.52.52,0,0,0-.17-.39m10.79.39h0a.55.55,0,0,0-.16-.39m.16.39h0a.55.55,0,0,0-.16-.39"/><path class="cls-8" d="M638.25,83.92h-9.36m6.36,16.28h3.3m-13,32.65h4.27m-4.27-1h4.27m-7.62-13.13v12.93m0,.2V118.72m-3.93,0v12.93m0,.2V118.72m11.55,14.13v-1m-.93-13.13v12.93"/><path class="cls-4" d="M628.93,131.85V118.72M622.22,111v-7.23M618.33,111v-7.23M629,111v-7.23m6.3-3.57h-.93M538.21,79v-.12a3.24,3.24,0,0,0-2.6-3.17m2.6,3.29v-.12a3.24,3.24,0,0,0-2.6-3.17m-33,0a13.55,13.55,0,0,0-1.76-.19m1.76.19a13.55,13.55,0,0,0-1.76-.19M505.25,79v-.12a3.24,3.24,0,0,0-2.6-3.17m2.6,3.29v-.12a3.24,3.24,0,0,0-2.6-3.17m27.93,0a3.24,3.24,0,0,0-2.6,3.17V79m2.6-3.29a3.24,3.24,0,0,0-2.6,3.17V79m4.3-3.49a12.65,12.65,0,0,0-1.69.19m1.69-.19a12.65,12.65,0,0,0-1.69.19m5,0a13.94,13.94,0,0,0-1.76-.19m1.76.19a13.94,13.94,0,0,0-1.76-.19M638.5,101.16h.06m-56-21.84H571.18m-21.6,0H538.21m-21.6,0H528m-11.37,0H505.24m0-.33v.33m-4.17-5.69-.25,3.15M528,79v.33M538.21,79v.33m-5.11-2.54h.69m.24-3.15-.24,3.15m34.78-1.09a13.59,13.59,0,0,0-1.75-.19m1.75.19a13.59,13.59,0,0,0-1.75-.19M571.18,79v-.12a3.24,3.24,0,0,0-2.6-3.17m2.6,3.29v-.12a3.24,3.24,0,0,0-2.6-3.17m-3.33-.2a12.8,12.8,0,0,0-1.7.19m1.7-.19a12.8,12.8,0,0,0-1.7.19m0,0a3.23,3.23,0,0,0-2.6,3.17V79m2.6-3.29a3.23,3.23,0,0,0-2.6,3.17V79M534,73.63h-1.87m.94,3.15h-.69m-.25-3.15.25,3.15m17.17,2.54H561m5.11-2.54h.69m.25-3.15-.25,3.15m.25-3.15h-1.87M561,79v.33m5.11-2.54h-.69m-.24-3.15.24,3.15M571.18,79v.33m21,2.4h8.1m-7.34-9.49h7.33m-3.67-7h1.68M582.55,79.32h10.38m3.66-14.14h-1.67m5.54,7h-.2m37.5,9.49h-8.08M637,72.23h-7.33m3.66-7h-1.67m1.67,0H635M100.38,131h12.05M80.78,188h2.56m5.8,0h12.35m9.83,0h12.54m-1.84,2.8h-8.85m22.37,0h8.86m13.52,0h8.85m13.53,0h8.85m13.52,0h8.85m13.53,0h8.85m13.53,0h8.85m13.52,0h8.85m13.53,0H301m13.52,0h8.86m13.52,0h8.85M122.76,131h12m1.1,1.47H121.65m-.15-1.1h14.56m-.89,11.53V132.51m.89-1.1-1.25-.37m1.25.37v.15m-.15.95v-.95m.15,0h-.15m-14.41-.15,1.26-.37m-1.11.52h-.15m0,0v-.15m.15,1.1v-.95m.74,11.3V132.51m11.46,55.33a.15.15,0,0,0-.15.15h0m.15-.15a.15.15,0,0,0-.15.15h0m12.54,0a.15.15,0,0,0-.15-.15h0m.15.15a.15.15,0,0,0-.15-.15h0M133.7,188h12.54m-.15-.15H140m-6.12,0H140m5.16-56.8h12.05m1.11,1.47H144m-.15-1.1h14.56m-.89,11.47V132.51m.89-1.1-1.26-.37m1.26.37v.15m-.15.95v-.95m.15,0h-.15m-14.41-.15,1.25-.37m-1.1.52h-.15m0,0v-.15m.15,1.1v-.95m.73,11.37V132.51m11.46,55.33a.15.15,0,0,0-.14.15h0m.14-.15a.15.15,0,0,0-.14.15h0m12.54,0a.15.15,0,0,0-.15-.15h0m.15.15a.15.15,0,0,0-.15-.15h0m-12.39.15h12.54m-.15-.15h-6.12m-6.13,0h6.13m5.16-56.8h12.05m1.11,1.47H166.4m-.14-1.1h14.55m-.88,11.35V132.51m.88-1.1-1.25-.37m1.25.37v.15m-.14.95v-.95m.14,0h-.14m-14.41-.15,1.25-.37m-1.11.52h-.14m0,0v-.15m.14,1.1v-.95m.74,11.31V132.51m11.46,55.33a.15.15,0,0,0-.15.15h0m.15-.15a.15.15,0,0,0-.15.15h0M191,188a.15.15,0,0,0-.14-.15h0m.14.15a.15.15,0,0,0-.14-.15h0m-12.4.15H191m-.15-.15h-6.12m-6.12,0h6.12m5.17-56.8h12.05m1.1,1.47H188.78m-.15-1.1h14.56m-.89,11.51V132.51m.89-1.1-1.25-.37m1.25.37v.15m-.15.95v-.95m.15,0H203m-14.41-.15,1.26-.37m-1.11.52h-.15m0,0v-.15m.15,1.1v-.95m.74,11.44V132.51M201,187.84a.15.15,0,0,0-.15.15h0m.15-.15a.15.15,0,0,0-.15.15h0m12.54,0a.15.15,0,0,0-.15-.15h0m.15.15a.15.15,0,0,0-.15-.15h0m-12.39.15h12.54m-.15-.15H207.1m-6.12,0h6.12m5.16-56.8h12.05m1.11,1.47H211.16m-.15-1.1h14.56m-.89,11.48V132.51m.89-1.1-1.26-.37m1.26.37v.15m-.15.95v-.95m.15,0h-.15M211,131.41l1.25-.37m-1.1.52H211m0,0v-.15m.15,1.1v-.95m.73,11.36V132.51m11.46,55.33a.15.15,0,0,0-.14.15h0m.14-.15a.15.15,0,0,0-.14.15h0m12.54,0a.15.15,0,0,0-.15-.15h0m.15.15a.15.15,0,0,0-.15-.15h0m-12.39.15h12.54m-.15-.15h-6.12m-6.13,0h6.13m5.16-56.8h12.05m1.1,1.47H233.53m-.15-1.1h14.56m-.88,11.44V132.51m.88-1.1-1.25-.37m1.25.37v.15m-.15.95v-.95m.15,0h-.15m-14.41-.15,1.26-.37m-1.11.52h-.15m0,0v-.15m.15,1.1v-.95m.74,11.37V132.51m11.46,55.33a.15.15,0,0,0-.15.15h0m.15-.15a.15.15,0,0,0-.15.15h0m12.54,0a.15.15,0,0,0-.15-.15h0m.15.15a.15.15,0,0,0-.15-.15h0m-12.39.15h12.54m-.15-.15h-6.12m-6.12,0h6.12M257,131h12m1.11,1.47H255.91m-.15-1.1h14.56M269.43,143V132.51m.89-1.1-1.26-.37m1.26.37v.15m-.15.95v-.95m.15,0h-.15m-14.41-.15L257,131m-1.11.52h-.15m0,0v-.15m.15,1.1v-.95m.74,11.39V132.51m11.46,55.33a.15.15,0,0,0-.15.15h0m.15-.15a.15.15,0,0,0-.15.15h0m12.54,0a.15.15,0,0,0-.15-.15h0m.15.15a.15.15,0,0,0-.15-.15h0M268,188H280.5m-.15-.15h-6.12m-6.12,0h6.12m5.16-56.8h12.05m1.11,1.47H278.29m-.15-1.1h14.55M291.81,143V132.51m.88-1.1-1.25-.37m1.25.37v.15m-.14.95v-.95m.14,0h-.14m-14.41-.15,1.25-.37m-1.1.52h-.15m0,0v-.15m.15,1.1v-.95m.73,11.31V132.51m11.46,55.33a.15.15,0,0,0-.15.15h0m.15-.15a.15.15,0,0,0-.15.15h0m12.54,0a.15.15,0,0,0-.14-.15h0m.14.15a.15.15,0,0,0-.14-.15h0m-12.4.15h12.54m-.14-.15H296.6m-6.12,0h6.12m5.17-56.8h12.05m1.1,1.47H300.66m-.15-1.1h14.56m-.88,11.52V132.51m.88-1.1-1.25-.37m1.25.37v.15m-.15.95v-.95m.15,0h-.15m-14.41-.15,1.26-.37m-1.11.52h-.15m0,0v-.15m.15,1.1v-.95M301.4,143V132.51m11.46,55.33a.15.15,0,0,0-.15.15h0m.15-.15a.15.15,0,0,0-.15.15h0m12.54,0a.15.15,0,0,0-.15-.15h0m.15.15a.15.15,0,0,0-.15-.15h0m-12.39.15h12.54m-.15-.15H319m-6.12,0H319m5.16-56.8h12.05m1.11,1.47H323m-.15-1.1h14.56M336.56,143V132.51m.89-1.1-1.26-.37m1.26.37v.15m-.15.95v-.95m.15,0h-.15m-14.41-.15,1.25-.37m-1.1.52h-.15m0,0v-.15m.15,1.1v-.95m.74,11.37V132.51m11.45,55.33a.15.15,0,0,0-.14.15h0m.14-.15a.15.15,0,0,0-.14.15h0m12.54,0a.15.15,0,0,0-.15-.15h0m.15.15a.15.15,0,0,0-.15-.15h0m-12.39.15h12.54m-.15-.15h-6.12m-6.13,0h6.13m5.16-56.8h12.05m1.11,1.47H345.41m-.14-1.1h14.55m-.88,11.52V132.51m.88-1.1-1.25-.37m1.25.37v.15m-.14.95v-.95m.14,0h-.14m-14.41-.15,1.25-.37m-1.11.52h-.14m0,0v-.15m.14,1.1v-.95m.74,11.42V132.51m11.46,55.33a.15.15,0,0,0-.15.15h0m.15-.15a.15.15,0,0,0-.15.15h0m0,0h3.64m-3.49-.15h3.49"/><path class="cls-9" d="M22.36,188H11.9m16.26,0h2.56m5.8,0H48.67"/><path class="cls-4" d="M54.47,188H57m5.8,0H75M62.93,131H49.06m15.12.22H47.81m0,.15H48m-.15-.15v.15m.15-.15,1.1-.22M48,132.51v-1.1M64,131.26,62.93,131m1.25.22v.15m-.14,1.1v-1.1m0,0h.14M89.24,131H75.37m15.13.22H74.12m0,.15h.15m-.15-.15v.15m.15-.15,1.1-.22m-1.1,1.47v-1.1m16.08-.15L89.24,131m1.26.22v.15m-.15,1.1v-1.1m0,0h.15M22.8,208h5.41m781.21-20.16h6.12m6.27.15H809.27M639.79,161.06H900.25M820,190.79h-8.86m-87-21.81H837.92M815.54,94.23h-7.25m7.25,17.26H793.16m0-10.33h22.38m-22.38,64.92h22.38m-22.38-3.69h22.38m-22.38,33.86h22.38M703.66,103.74H900.57"/><path class="cls-10" d="M963.64,131h13.87m-16.16,63.38h18.94m-17.9-63.16h16.37m-.14,1.25H962.54M899.46,169h90.1m-45-66.71h35m-16.3,63.81h6.39m-25.08,30.17h43.54M944.51,99h42.81m.44,12.54H944.51m0,49.57h44.15M908.29,85.67h72.44m-.44,75.24V111.49m7.38,49.42V111.49m1.1,49.72v-.15m-10.37,12.4V169m-.5,19h10.49m-10.34-.15h10m-9.64-14.38h1.89m0,21v-3.63m0-4.43H981m-.74,0v-12.9m.74,12.9v1.48m-.74,2.95h8"/><path class="cls-4" d="M978.05,187.84a.15.15,0,0,0-.15.15h0m.15-.15a.15.15,0,0,0-.15.15h0m-8.21-.15a.15.15,0,0,0-.15.15h0m.15-.15a.15.15,0,0,0-.15.15h0m2.56,0a.15.15,0,0,0-.15-.15h0m.15.15a.15.15,0,0,0-.15-.15h0m.15.15h-2.56m.15-.15H972m.1-21.76h7.87m8.16,4.43H988M985,169h-1.38m-2.23,0H980m-10.38-2.9h2.46m7.45-63.81h9m-9.69,29.14h-.14m.14-.15v.15"/><path class="cls-11" d="M978.62,131.26l-1.11-.22m1.11,1.47v-1.1m2.11-45.74h6.64m-6.64,9.59h6.6m0-9.59V98.94m-6.64-13.27V98.94m-.2-13.27h.2"/><path class="cls-4" d="M899.88,131h-12m13.53-19.55H882.67m0-10.33h14m-14,67.82h16.79m-16.79-6.59H901m-14.26-29.88H901m.15-1.1H886.58m-3.91,64.84H905m-22.37,0h18m-18-30.17H901m-.37,28.34H887.09m50.19-6.58H925.43m12,.15H925.28m19.23-85.72h-35m18.15,88.52H935m9.47,5.46H900.64M928,85.67h6.64M928,95.26h6.64M944.51,99H901.72m-.46,12.54h43.25m0,49.57H900.25m34.79-.15V111.49m26.31,49.42V111.49M954,160.91V111.49m9.76,76.5a.15.15,0,0,0-.15-.15h0m.15.15a.15.15,0,0,0-.15-.15h0m-11.85,0a.15.15,0,0,0-.15.15h0m.15-.15a.15.15,0,0,0-.15.15h0M935,194.42H954m-1.85-28.34h-6.39m17.51,7.38V169m-11.17,4.48V169m-.34,18.86h11.85m.15.15H951.59m9.76,2.8H954m7.37,0v3.63m0-8.06h-.73m.73,0v-12.9m-.73,12.9v1.48m.73-14.38h1.9m-9.27,21v-3.63m0-4.43h.74m-.74,0v-12.9m.74,12.9v1.48m-2.64-14.38H954m7.74-7.38h1.48m-9.59,0h-1.48m-15.19,7.38V169m6.44,18.86a.15.15,0,0,0-.15.15h0m.15-.15a.15.15,0,0,0-.15.15h0m2.56,0a.15.15,0,0,0-.15-.15h0m.15.15a.15.15,0,0,0-.15-.15h0m-8.21.15a.15.15,0,0,0-.15-.15h0m.15.15a.15.15,0,0,0-.15-.15h0m8.51.15h-2.56m.15-.15h2.26M935,190.79v3.63m0-8.06h-.73m0,0v1.48m.73-1.48v-12.9m0,0h1.9m-.05-7.38h6.39m0,0h1.23m1.23,0h-1.23m-9.1,0h1.48m-.81-34.82h16.37M937.33,131H951.2m1.11,1.47H936.22"/><path class="cls-12" d="M962.54,131.26l1.1-.22m-1.25.22v.15m.15,1.1v-1.1m0,0h-.15m-10.08,1.1v-1.1m0-.15L951.2,131m1.25.22v.15m0,0h-.14M961,85.67h-6.64M961,95.26h-6.64M961,85.67V99m.19-13.32H961m-6.64,0V99"/><path class="cls-4" d="M936.22,131.41h-.14m.14,1.1v-1.1m-.14-.15v.15m.14-.15,1.11-.22m-2.65-45.37V99m-33.32,62V111.49m26.31,49.42V111.49m-18.94,49.42V111.49m-8.48,31.41V132.51M911,187.84H900.89m10.23.15H898.77m28.9,6.43H908.73m0-21h1.9m6.34-7.38H909.1m16.67,7.38V169m-15.14,4.48V169m14.8,18.86a.15.15,0,0,0-.15.15h0m.15-.15a.15.15,0,0,0-.15.15h0m.49-14.53h1.9m0,17.33v3.63m.73-8.06v1.48m-.73-1.48v-12.9m0,12.9h.73M911.12,188a.15.15,0,0,0-.15-.15h0m.15.15a.15.15,0,0,0-.15-.15h0m6.1,0a.15.15,0,0,0-.15.15h0m.15-.15a.15.15,0,0,0-.15.15h0m2.56,0a.15.15,0,0,0-.15-.15h0m.15.15a.15.15,0,0,0-.15-.15h0m.15.15h-2.56m.15-.15h2.26m6.49-21.76h-6.39m7.87,0h-1.48m-26.9,21.76a.15.15,0,0,0-.15.15h0m.15-.15a.15.15,0,0,0-.15.15h0m20.66-21.91H917m-18.2,2.9v4.48m-.37,21H901m-2.07-6.58H901m-.37-14.38h-1.85m10,21v-3.63m-.73-4.43v1.48m.73-1.48v-12.9m-8.11,12.9H901m7.74,0H908m.73,4.43h-8.11m0-4.43v-12.9m.37,21.76v-4.43m-.37,0v3.63M899.81,169H898.7m-6,0h-1.48m5.17,0H895m3.81-6.59v3.69m11.14-34.82L911,131m-1.25.22h16.37m-.14,1.25H909.91M911,131h13.87m1.11,1.47v-1.1m0-.15-1.11-.22m1.25.22v.15m0,0H926m2-45.74V99m-.2-13.28h.2"/><path class="cls-4" d="M901.36,111.49v4.08m-.22,15.84-1.26-.37m10,.37h-.14m.14,1.1v-1.1m-.14-.15v.15m-8.78.15h.15m0,0v-.15m-.15,1.1v-.95m.74-37.33h-3.94m10.94,16.52h.35m-.79-15.49h-6.57m6.64-9.59V98.76m.72,12h-.35m.35.37v-.37m.44-8.48h-8.95m8-16.6h-.2"/><path class="cls-4" d="M856.38,131.41H841.83m.14,1.1h14.26m-1.1-1.47h-12M837.92,169h22.37m0-57.49H837.92m0-10.33h22.37M851.69,169h-1.48m-12.29-2.9h22.37m-22.37-3.69h22.37m-22.37,33.86h22.37m-4.42-1.83H842.34M855.5,143V132.51M877.87,143V132.51M865.09,143v-10.5M887.46,143V132.51M888.94,188a.15.15,0,0,0-.15-.15h0m.15.15a.15.15,0,0,0-.15-.15h0m-12.24,0a.15.15,0,0,0-.15.15h0m.15-.15a.15.15,0,0,0-.15.15h0m-9.84,0a.15.15,0,0,0-.15-.15h0m.15.15a.15.15,0,0,0-.15-.15h0m-12.24,0a.15.15,0,0,0-.15.15h0m.15-.15a.15.15,0,0,0-.15.15h0m6.27-19h22.38m-22.38-2.9h22.38m-22.38-3.69h22.38m-22.38,33.86h22.38m-4.43-1.83H864.72M876.4,169v4.48M888.94,169v4.48m-10.7,17.33h8.85m1.85-2.8H876.4m.15-.15h6.12m4.42-1.48h-.73m.73-12.9v12.9m1.7,1.48h-6.12m3.69-1.48v1.48m.73,6.58v-3.63m1.85-17.33h-1.85m-8.85,12.9H879m0,0v1.48m-.74-1.48v-12.9m0,17.33v3.63m0-21H876.4m5.14-4.48h-1.48m1.48,0h-1.48m5.21,0H883.8m5.21,0h-1.47m1.4-6.59v3.69M874.06,169h-1.47m5.21,0h-1.48m.08-6.59v3.69m-9.84,2.9v4.48M854,169v4.48m12.39,14.38h-6.12m6.27.15H854m10.7,2.8h-8.85m8.85-4.43H864m0,0v1.48m.74-14.38v12.9m0,8.06v-3.63m1.84-17.33h-1.84m-10.55,14.38h6.12m-4.42-1.48h.73m0,0v1.48m-.73-1.48v-12.9m0,17.33v3.63m0-21H854M862.9,169h-1.48m5.22,0h-1.48m5.21,0H868.9m-2.34-6.59v3.69m-7.4,2.9h-1.47m-2.27,0H854m5.21,0h-1.47M854,162.39v3.69m24.74-34.67H864.2m.15,1.1h14.26M877.5,131h-12m-21.27,57a.15.15,0,0,0-.15-.15h0m.15.15a.15.15,0,0,0-.15-.15h0m38.63-76.35H860.29m0-10.33h22.38M879,111.49v4.08m7.38-4.08v4.08m.22,15.84,1.25-.37m-1.25.37v.15m.15.95v-.95m-.15,0h.15m-8.12.95v-.95m.15,0v-.15m-.15.15h.15m0-.15L877.5,131m5.17-36.81h-7.26m7.26,0h7.25m0,0v6.93m-3.56,10.33v-7.75m-11-9.51v6.93M879,111.49v-7.75m-22.38,7.75v4.08m7.38-4.08v4.08m.22,16h.15m0,.95v-.95m-.15-.15v.15m0-.15,1.26-.37m-9.23,1.47v-.95m.15,0v-.15m-.15.15h.15m0-.15-1.25-.37m5.16-36.81h7.26m0,0v6.93M864,111.49v-7.75m-3.69-9.51H853m0,0v6.93m3.56,10.33v-7.75M833.12,143V132.51m-12.79,10.43V132.51m22.38,10.72V132.51m-10.92,55.33h6.13m6.27.15H831.65m1.4-19h-1.48m-16-2.9h22.38m-22.38-3.69h22.38m-22.38,33.86h22.38m-4.43-22.79h-1.84m1.84,21H820M844.19,169v4.48M844,187.84h-6.12m4.42,2.95h-8.85m8.85-4.43h-.74m.74-12.9v12.9m0,8.06v-3.63m1.85-17.33h-1.85m-8.85,12.9h.74m0,0v1.48m-.74-1.48v-12.9m0,17.33v3.63m8.11-8.06v1.48M844.26,169h-1.48m5.22,0h-1.48m-2.33-6.59v3.69m-3.67,2.9h-1.47m-2.27,0h-1.47m1.47,0h-1.47m-13.5,0v4.48m9.84-4.48v4.48m.14,14.38a.15.15,0,0,0-.14.15h0m.14-.15a.15.15,0,0,0-.14.15h0m-9.84,0a.15.15,0,0,0-.15-.15h0m.15.15a.15.15,0,0,0-.15-.15h0m0,0h-6.12m4.43-1.48h-.74m0,0v1.48m.74-14.38v12.9m0,8.06v-3.63m1.84-17.33H820m5.65-4.48h-1.47m5.16,0h-1.48m3.82-6.59v3.69m-13.5,2.9h-1.48m5.21,0h-1.47m1.4-6.59v3.69m-7.4,2.9h-1.48M834,131.41H819.45m.15,1.1h14.26M832.75,131h-12m17.22-36.81h-7.26m7.26,17.26H815.54m0-10.33h22.38m3.68,10.33v4.08m-7.37-4.08v4.08m7.6,16H842m-.14-.15,1.25-.37M842,132.51v-.95m-8.11.95v-.95m.15,0v-.15m-.15.15H834m0-.15-1.26-.37m9.08.37v.15m-3.91-37.33h7.25m0,0v6.93m-10.94,10.33v-7.75m7.37,7.75v-7.75m-22.37,7.75v4.08m.22,16h.15m0,.95v-.95m-.15-.15v.15m0-.15,1.25-.37m-5.16-36.81h7.25m7.87,0v6.93m-7.87-6.93v6.93m-3.56,10.33v-7.75m-166.45,84.1h6.12m6.27.15H652.63m10.7,2.8h-8.85M729.8,169H639.7m-.2,27.27h19.4m-19.74-30.17H658.9m-19.74-3.69H658.9m0-68.16h-7.25m-13.15,6.93h20.4m-20.31,2.58H658.9m0,7.75h-20M744.5,131.41H729.94m.15,1.1h14.26m-1.1-1.47h-12m17.21-19.55H726m0-10.33h22.38M726,166.08h22.38M726,162.39h22.38M726,196.25h22.38M744,194.42H730.46m46.45-6.58h-6.12m6.27.15H764.52m10.69,2.8h-8.85m4.43-96.56H778m15.12,17.26H770.79m0-10.33h22.37m-22.37,64.92h22.37m-22.37-3.69h22.37m-22.37,33.86h22.37M788.37,143V132.51M775.58,143V132.51m35.16,10.55V132.51M798,143V132.51M787,187.84h6.12m6.27.15H786.89m10.7,2.8h-8.85M799.43,169v4.48m9.84-4.48v4.48m.15,14.38a.15.15,0,0,0-.15.15h0m.15-.15a.15.15,0,0,0-.15.15h0m-9.84,0a.15.15,0,0,0-.14-.15h0m.14.15a.15.15,0,0,0-.14-.15h0m11.82,6.58H797.59m13.52-8.06h.74m0,0v1.48m-.74-1.48v-12.9m0,17.33v3.63m0-21h-1.84m-10,14.38h-6.13m4.43-1.48h-.74m0,0v1.48m.74-14.38v12.9m0,8.06v-3.63m1.84-17.33h-1.84m11.68-11.07v3.69m-9.84-3.69v3.69M777.06,169v4.48m9.83-4.48v4.48m.15,14.38a.15.15,0,0,0-.15.15h0m.15-.15a.15.15,0,0,0-.15.15h0m-9.83,0a.15.15,0,0,0-.15-.15h0m.15.15a.15.15,0,0,0-.15-.15h0m11.83,6.58H775.21m13.53-8.06h.73m0,0v1.48m-.73-1.48v-12.9m0,17.33v3.63m0-21h-1.85m-11.68,12.9h-.74m0,0v1.48m.74-14.38v12.9m0,8.06v-3.63m1.85-17.33h-1.85m11.68-11.07v3.69m-9.83-3.69v3.69m16.1-71.85h-7.25m25.94,17.26v4.08m-15-4.08v4.08m14.78,15.84H797.07m.15,1.1h14.26m-1.1-1.47h-12m13.15,1.47v-.95m.15,0v-.15m-.15.15h.15m0-.15-1.25-.37m-13.31.52h.15m0,.95v-.95m-.15-.15v.15m0-.15,1.26-.37m10-36.81v6.93m3.56,10.33v-7.75m-18.69-9.51h7.26m0,0v6.93m-3.57,10.33v-7.75m-7.38,7.75v4.08m-15-4.08v4.08m14.78,15.84H774.7m.14,1.1h14.27M788,131H776m13.16,1.47v-.95m.14,0v-.15m-.14.15h.14m0-.15L788,131m-13.3.52h.14m0,.95v-.95m-.14-.15v.15m0-.15L776,131m10-36.81v6.93m3.56,10.33v-7.75M778,94.23v6.93m-3.57,10.33v-7.75M743.62,143V132.51M766,143.06V132.51M753.2,143V132.51m1.33,55.33h-6.12m6.27.15H742.14m6.27-21.91h22.38m-22.38-3.69h22.38m-22.38,33.86h22.38m-16.11-22.79h-1.84m13.52,21H752.84M754.68,169v4.48m9.84-4.48v4.48m.14,14.38a.15.15,0,0,0-.14.15h0m.14-.15a.15.15,0,0,0-.14.15h0m-9.84,0a.15.15,0,0,0-.15-.15h0m.15.15a.15.15,0,0,0-.15-.15h0m10.13,0h6.13m-4.43-1.48h.74m0,0v1.48m-.74-1.48v-12.9m0,17.33v3.63m0-21h-1.84m-22.23,14.38a.15.15,0,0,0-.15.15h0m.15-.15a.15.15,0,0,0-.15.15h0m22.38-25.6v3.69m-9.84-3.69v3.69M742.14,169v4.48m.15,14.38h6.12m4.43,2.95H744m0-4.43h.74m8.12,0h-.74m0,0v1.48m.74-14.38v12.9m0,8.06v-3.63m-8.12-4.43v1.48m-.74-1.48v-12.9m0,17.33v3.63m0-21h-1.84m0-11.07v3.69m24.74-34.67H752.32m.15,1.1h14.26M765.62,131h-12m-5.16-36.81h7.25m15.13,17.26H748.41m0-10.33h22.38m-3.69,10.33v4.08m-.37,16.94v-.95m.15,0v-.15m-.15.15h.15m0-.15-1.26-.37m5.17-36.81h-7.26m3.57,17.26v-7.75m-11.44-9.51v6.93m7.87-6.93v6.93M752.1,111.49v4.08m-7.38-4.08v4.08m-.22,15.84-1.25-.37m1.1,1.47v-.95m.15,0v-.15m-.15.15h.15m7.82,0h.15m0,.95v-.95m-.15-.15v.15m0-.15,1.25-.37m-5.16-36.81h-7.25m10.94,17.26v-7.75m-7.38,7.75v-7.75m-3.56-9.51v6.93m-41.41,30.25H685.19m.15,1.1H699.6M698.49,131h-12m17.22-19.55H681.28m0-7.75h22.38m-22.38-2.58h22.38m-22.38,64.92h22.38m-22.38-3.69h22.38m-22.38,33.86h22.38m-4.43-1.83H685.71M698.86,143V132.51m22.38,10.59V132.51M708.45,143.1V132.51M730.83,143V132.51M732.3,188a.15.15,0,0,0-.14-.15h0m.14.15a.15.15,0,0,0-.14-.15h0m-12.25,0a.15.15,0,0,0-.15.15h0m.15-.15a.15.15,0,0,0-.15.15h0m-9.83,0a.15.15,0,0,0-.15-.15h0m.15.15a.15.15,0,0,0-.15-.15h0m-12.25,0a.15.15,0,0,0-.14.15h0m.14-.15a.15.15,0,0,0-.14.15h0m6.27-21.91H726m-22.37-3.69H726m-22.37,33.86H726m-4.42-1.83H708.08M732.3,169v4.48M719.76,169v4.48m.15,14.38H726m6.27.15H719.76m10.7,2.8h-8.85m10.55-2.95H726m4.43-1.48h-.74m0,0v1.48m.74-14.38v12.9m0,8.06v-3.63m1.84-17.33h-1.84m-8.85,12.9h.74m0,0v1.48m-.74-1.48v-12.9m0,17.33v3.63m0-21h-1.85m12.54-11.07v3.69m-12.54-3.69v3.69m-9.83,2.9v4.48M697.39,169v4.48m12.39,14.38h-6.12m6.27.15H697.39m10.69,2.8h-8.85m8.85-4.43h-.73m0,0v1.48m.73-14.38v12.9m0,8.06v-3.63m1.85-17.33h-1.85m-10.55,14.38h6.13m-4.43-1.48H700m0,0v1.48m-.74-1.48v-12.9m0,17.33v3.63m0-21h-1.84m12.54-11.07v3.69m-12.54-3.69v3.69m24.73-34.67H707.57m.14,1.1H722M720.87,131h-12m-21.27,57a.15.15,0,0,0-.15-.15h0m.15.15a.15.15,0,0,0-.15-.15h0M726,111.49H703.66m0-10.33H726m3.69,10.33v4.08m-7.37-4.08v4.08m7.59,16h.15m0,.95v-.95m-.15-.15v.15m0-.15,1.26-.37M722,132.51v-.95m.14,0v-.15m-.14.15h.14m0-.15-1.25-.37M726,94.23h-7.25m7.25,0h7.26m0,0v6.93m-3.57,10.33v-7.75m-10.94-9.51v6.93m3.57,10.33v-7.75m-15,7.75v4.08M700,111.49v4.08m7.6,16h.14m0,.95v-.95m-.14-.15v.15m0-.15,1.25-.37m-9.22,1.47v-.95m.15,0v-.15m-.15.15h.15m0-.15-1.26-.37m5.17-36.81h7.25m0,0v6.93m-3.56,10.33v-7.75m-3.69-9.51H696.4m0,0v6.93M700,111.49v-7.72m-23.48,39.46V132.51M663.7,143V132.51m22.38,10.56V132.51m-10.92,55.33h6.12m6.27.15H675M658.9,166.08h22.38m-22.38-3.69h22.38M658.9,196.25h22.38m-4.43-22.79H675m1.84,21H663.33M687.55,169v4.48m-.15,14.38h-6.12m4.43,2.95h-8.86m8.86-4.43H685m.74-12.9v12.9m0,8.06v-3.63m1.84-17.33h-1.84m-.74,12.9v1.48m-8.12-1.48h.74m0,0v1.48m-.74-1.48v-12.9m0,17.33v3.63m10.7-32v3.69M665.17,169v4.48M675,169v4.48m.15,14.38a.15.15,0,0,0-.15.15h0m.15-.15a.15.15,0,0,0-.15.15h0m-9.84,0a.15.15,0,0,0-.14-.15h0m.14.15a.15.15,0,0,0-.14-.15h0m0,0H658.9m4.43-1.48h-.74m0,0v1.48m.74-14.38v12.9m0,8.06v-3.63m1.84-17.33h-1.84M675,162.39v3.69m-9.84-3.69v3.69m12.2-34.67H662.81m.15,1.1h14.26m-1.1-1.47h-12m17.21-36.81H674m7.25,17.26H658.9m0-7.75h22.38m-22.38-2.58h22.38M685,111.49v4.08m-7.38-4.08v4.08m7.6,15.84,1.25-.37m-9.22,1.47v-.95m.15,0v-.15m-.15.15h.15m0-.15-1.25-.37m9.07.52h.15m0,.95v-.95m-.15-.15v.15m-3.91-37.33h7.25m0,0v6.93M685,111.49v-7.72m-7.38,7.72v-7.72m-15,7.72v4.08m.22,16H663m0,.95v-.95m-.15-.15v.15m0-.15,1.26-.37M658.9,94.23h7.26m7.87,0v6.93m-7.87-6.93v6.93m-3.57,10.33v-7.72m-8.48,39.46V132.51M652.63,169v4.48m.15,14.38a.15.15,0,0,0-.15.15h0m.15-.15a.15.15,0,0,0-.15.15h0m1.85,6.43H641m13.53-8.06h.74m-.74,0v-12.9m.74,12.9v1.48m-.74,2.95v3.63m0-21h-1.85m0-11.07v3.69m2.59-54.59v4.08M655,131.41H640.44m.15,1.1h14.26M653.74,131h-12m13.16,1.47v-.95m.14,0v-.15m-.14.15H655m0-.15-1.25-.37m1.48-19.55v-7.72M642.8,188a.15.15,0,0,0-.15-.15h0m.15.15a.15.15,0,0,0-.15-.15h0m9-93.61v6.93m-13.38-6.93h5.51m0,0v6.93m-3.56,10.33v4.08m1.1,27.45V132.51m-.88-.95h.15m0,.95v-.95m-.15-.15v.15m0-.15,1.25-.37m1.11,31.35v3.69M641,173.46v12.9M642.8,169v4.48m0,0H641M642.8,188h-3.64m3.49-.15h-3.49m1.79-1.48h-.73m.73,4.43h-1.79m1.06-4.43v1.48m.73,6.58v-3.63m-184.12,7.86V186.94m20.67,0v11.71m-44.74,0H435m4.08,0h18.47m103.58,0H542.68m46.31,0H571.58m-4.09,0h-2.26M462.05,79v.33"/><line class="cls-13" x1="91.91" y1="95.28" x2="98.55" y2="95.28"/><line class="cls-14" x1="897.83" y1="94.22" x2="897.83" y2="99.28"/><path class="cls-9" d="M978.54,115.45a6.51,6.51,0,0,0-3.57-1.08,6.6,6.6,0,0,0-3.57,1.06l.6,2.69a5.13,5.13,0,0,1,6,0l.59-2.67Zm-888.27,0a6.51,6.51,0,0,0-3.57-1.08,6.6,6.6,0,0,0-3.57,1.06l.59,2.69a5.15,5.15,0,0,1,6,0l.59-2.67Zm862,0a6.51,6.51,0,0,0-3.57-1.08,6.66,6.66,0,0,0-3.58,1.06l.6,2.69a5.15,5.15,0,0,1,6,0l.59-2.67ZM64,115.45a6.51,6.51,0,0,0-3.56-1.08,6.64,6.64,0,0,0-3.58,1.06l.6,2.69a5.13,5.13,0,0,1,6,0l.59-2.67Zm862,0a6.51,6.51,0,0,0-3.57-1.08,6.6,6.6,0,0,0-3.57,1.06l.59,2.69a5.15,5.15,0,0,1,6,0l.59-2.67Zm-888.31,0a6.51,6.51,0,0,0-3.56-1.08,6.64,6.64,0,0,0-3.58,1.06l.6,2.69a5.13,5.13,0,0,1,5.95,0l.59-2.67Zm932.1,0a6.51,6.51,0,0,0-3.57-1.08,6.66,6.66,0,0,0-3.58,1.06l.6,2.69a5.15,5.15,0,0,1,6,0l.59-2.67Zm-888.28,0a6.48,6.48,0,0,0-3.56-1.08,6.64,6.64,0,0,0-3.58,1.06l.6,2.69a5.15,5.15,0,0,1,6,0l.58-2.67Zm862,0a6.51,6.51,0,0,0-3.57-1.08,6.6,6.6,0,0,0-3.57,1.06l.59,2.69a5.15,5.15,0,0,1,6,0l.59-2.67Zm-888.27,0a6.51,6.51,0,0,0-3.57-1.08A6.66,6.66,0,0,0,48,115.43l.6,2.69a5.15,5.15,0,0,1,6,0l.59-2.67Zm862,0a6.54,6.54,0,0,0-3.57-1.08,6.64,6.64,0,0,0-3.58,1.06l.6,2.69a5.15,5.15,0,0,1,6,0l.59-2.67Zm-888.31,0a6.51,6.51,0,0,0-3.57-1.08,6.66,6.66,0,0,0-3.58,1.06l.6,2.69a5.15,5.15,0,0,1,6,0l.59-2.67Zm949.75,28.38a6.57,6.57,0,0,0-7.17,0l.6,1.95a5.16,5.16,0,0,1,3-1,5.1,5.1,0,0,1,3,.95l.58-2Zm-888.79,0a6.55,6.55,0,0,0-7.16,0l.59,1.95a5.17,5.17,0,0,1,6,0l.57-2Zm862.47,0a6.57,6.57,0,0,0-7.17,0l.6,1.95a5.16,5.16,0,0,1,3-1,5.1,5.1,0,0,1,3,.95l.58-2Zm-888.79,0a6.55,6.55,0,0,0-7.16,0l.59,1.95a5.17,5.17,0,0,1,6,0l.57-2Zm862.47,0a6.57,6.57,0,0,0-7.17,0l.6,1.95a5.16,5.16,0,0,1,3-1,5.1,5.1,0,0,1,3,.95l.58-2Zm-888.83,0a6.55,6.55,0,0,0-7.16,0l.6,1.95a5.15,5.15,0,0,1,6,0l.57-2Zm933.08,0a6.55,6.55,0,0,0-7.16,0l.6,1.95a5.15,5.15,0,0,1,6,0l.57-2Zm-888.78,0a6.57,6.57,0,0,0-7.17,0l.6,1.95a5.16,5.16,0,0,1,3-1,5.1,5.1,0,0,1,3,.95l.58-2Zm862.49,0a6.55,6.55,0,0,0-7.16,0l.59,1.95a5.17,5.17,0,0,1,6,0l.57-2Zm-888.79,0a6.55,6.55,0,0,0-7.16,0l.6,1.95a5.15,5.15,0,0,1,6,0l.57-2Zm862.49,0a6.55,6.55,0,0,0-7.16,0l.6,1.95a5.15,5.15,0,0,1,6,0l.57-2Zm-888.82,0a6.55,6.55,0,0,0-7.16,0l.6,1.95a5.15,5.15,0,0,1,6,0l.57-2Zm872.56-28.31a14,14,0,0,0-15,0l1.51,2.62a10.65,10.65,0,0,1,12,0c.16-.29,1.49-2.47,1.48-2.62Zm-22.36,0a14.19,14.19,0,0,0-7.47-2.2,14,14,0,0,0-7.58,2.21l1.51,2.62a10.63,10.63,0,0,1,12,0l1.5-2.61Zm-22.37,0a14.23,14.23,0,0,0-7.48-2.2,14,14,0,0,0-7.57,2.21l1.51,2.62a10.54,10.54,0,0,1,6-1.88,10.66,10.66,0,0,1,6,1.86l1.5-2.61Zm-22.38,0a13.94,13.94,0,0,0-15,0l1.51,2.62a10.63,10.63,0,0,1,12,0l1.5-2.61Zm-22.37,0a14.23,14.23,0,0,0-7.48-2.2,14,14,0,0,0-7.57,2.21l1.51,2.62a10.54,10.54,0,0,1,6-1.88,10.66,10.66,0,0,1,6,1.86l1.5-2.61Zm-22.38,0a13.94,13.94,0,0,0-15,0l1.51,2.62a10.63,10.63,0,0,1,12,0l1.5-2.61Zm-22.37,0a14.23,14.23,0,0,0-7.48-2.2,14,14,0,0,0-7.57,2.21l1.51,2.62a10.54,10.54,0,0,1,6-1.88,10.66,10.66,0,0,1,6,1.86l1.5-2.61Zm-22.38,0a13.94,13.94,0,0,0-15,0l1.51,2.62a10.63,10.63,0,0,1,12,0l1.5-2.61Zm-22.37,0a14.22,14.22,0,0,0-7.47-2.2,14,14,0,0,0-7.58,2.21l1.51,2.62a10.54,10.54,0,0,1,6-1.88,10.66,10.66,0,0,1,6,1.86l1.5-2.61Zm-22.38,0a13.94,13.94,0,0,0-15,0l1.52,2.62a10.61,10.61,0,0,1,12,0l1.5-2.61Zm-22.37,0a14.19,14.19,0,0,0-7.47-2.2,14,14,0,0,0-7.58,2.21l1.51,2.62a10.63,10.63,0,0,1,12,0l1.5-2.61Zm-22.38,0a13.94,13.94,0,0,0-15,0l1.52,2.62a10.52,10.52,0,0,1,6-1.88,10.66,10.66,0,0,1,6,1.86l1.49-2.61Zm-295.15,0a13.94,13.94,0,0,0-15,0l1.51,2.62a10.63,10.63,0,0,1,12,0l1.5-2.61Zm-22.39,0a14.22,14.22,0,0,0-7.47-2.2,14,14,0,0,0-7.58,2.21l1.51,2.62a10.54,10.54,0,0,1,6-1.88,10.66,10.66,0,0,1,6,1.86l1.5-2.61Zm-22.4,0a13.94,13.94,0,0,0-15.05,0l1.52,2.62a10.52,10.52,0,0,1,6-1.88,10.66,10.66,0,0,1,6,1.86l1.49-2.61Zm-22.33,0a13.94,13.94,0,0,0-15.05,0l1.51,2.62a10.63,10.63,0,0,1,12,0l1.5-2.61Zm-22.39,0a14.19,14.19,0,0,0-7.47-2.2,14,14,0,0,0-7.58,2.21l1.51,2.62a10.63,10.63,0,0,1,12,0l1.5-2.61Zm-22.39,0a14.23,14.23,0,0,0-7.48-2.2,14,14,0,0,0-7.57,2.21l1.51,2.62a10.52,10.52,0,0,1,6-1.88,10.66,10.66,0,0,1,6,1.86l1.5-2.61Zm-22.4,0a13.94,13.94,0,0,0-15,0l1.51,2.62a10.63,10.63,0,0,1,12,0l1.5-2.61Zm-22.33,0a14.19,14.19,0,0,0-7.47-2.2,14,14,0,0,0-7.58,2.21l1.51,2.62a10.63,10.63,0,0,1,12,0l1.5-2.61Zm-22.39,0a14.23,14.23,0,0,0-7.48-2.2,14,14,0,0,0-7.57,2.21l1.51,2.62a10.54,10.54,0,0,1,6-1.88,10.66,10.66,0,0,1,6,1.86l1.5-2.61Zm-22.4,0a13.94,13.94,0,0,0-15,0l1.51,2.62a10.63,10.63,0,0,1,12,0l1.5-2.61Zm-22.39,0a14.22,14.22,0,0,0-7.47-2.2,14,14,0,0,0-7.58,2.21l1.51,2.62a10.63,10.63,0,0,1,12,0l1.5-2.61Zm-22.33,0a14,14,0,0,0-14.82-.14,7.1,7.1,0,0,0,1.28,2.77,10.64,10.64,0,0,1,12,0l1.5-2.61Zm786.3,27.69a12.23,12.23,0,0,0-6.41-1.85,12.1,12.1,0,0,0-6.39,1.85l1.48,2.57a8.89,8.89,0,0,1,4.91-1.46,9,9,0,0,1,4.93,1.46l1.48-2.57Zm-22.38,0a12,12,0,0,0-12.8,0l1.48,2.57a8.94,8.94,0,0,1,4.92-1.46,9.06,9.06,0,0,1,4.93,1.46l1.47-2.57Zm-22.37,0a12,12,0,0,0-12.8,0l1.48,2.57a8.89,8.89,0,0,1,4.91-1.46,9,9,0,0,1,4.93,1.46l1.48-2.57Zm-22.38,0a12,12,0,0,0-12.79,0l1.47,2.57a8.94,8.94,0,0,1,4.92-1.46,9.06,9.06,0,0,1,4.93,1.46l1.47-2.57Zm-22.37,0a12,12,0,0,0-12.8,0l1.48,2.57a8.91,8.91,0,0,1,4.91-1.46,9,9,0,0,1,4.93,1.46l1.48-2.57Zm-22.38,0a12,12,0,0,0-12.79,0l1.47,2.57a8.94,8.94,0,0,1,4.92-1.46,9.06,9.06,0,0,1,4.93,1.46l1.47-2.57Zm-22.37,0a12,12,0,0,0-12.8,0l1.48,2.57a8.92,8.92,0,0,1,4.92-1.46,9,9,0,0,1,4.92,1.46l1.48-2.57Zm-22.38,0a12,12,0,0,0-12.79,0l1.47,2.57a8.94,8.94,0,0,1,4.92-1.46,9,9,0,0,1,4.93,1.46l1.47-2.57Zm-22.37,0a12,12,0,0,0-12.8,0l1.48,2.57a9,9,0,0,1,9.84,0l1.48-2.57Zm-22.37,0a12.23,12.23,0,0,0-6.41-1.85,12.1,12.1,0,0,0-6.39,1.85l1.47,2.57a8.94,8.94,0,0,1,4.92-1.46,9,9,0,0,1,4.93,1.46l1.48-2.57Zm-22.38,0a12,12,0,0,0-12.8,0l1.48,2.57a9,9,0,0,1,9.84,0l1.48-2.57Zm-22.37,0a12.23,12.23,0,0,0-6.41-1.85,12.1,12.1,0,0,0-6.39,1.85l1.48,2.57a8.89,8.89,0,0,1,4.91-1.46,9,9,0,0,1,4.93,1.46l1.48-2.57Zm-295.16,0a12,12,0,0,0-12.79,0l1.47,2.57a8.94,8.94,0,0,1,4.92-1.46,9.06,9.06,0,0,1,4.93,1.46l1.47-2.57Zm-22.39,0a12,12,0,0,0-12.8,0l1.48,2.57a9,9,0,0,1,9.84,0l1.48-2.57Zm-22.39,0a12.23,12.23,0,0,0-6.41-1.85,12.1,12.1,0,0,0-6.39,1.85l1.48,2.57a8.89,8.89,0,0,1,4.91-1.46,9,9,0,0,1,4.93,1.46l1.48-2.57Zm-22.34,0a12,12,0,0,0-12.79,0l1.47,2.57a8.94,8.94,0,0,1,4.92-1.46,9.06,9.06,0,0,1,4.93,1.46l1.47-2.57Zm-22.39,0a12,12,0,0,0-12.8,0l1.48,2.57a9,9,0,0,1,9.84,0l1.48-2.57Zm-22.39,0a12,12,0,0,0-12.8,0l1.48,2.57a8.89,8.89,0,0,1,4.91-1.46,9,9,0,0,1,4.93,1.46l1.48-2.57Zm-22.4,0a12,12,0,0,0-12.79,0l1.47,2.57a8.94,8.94,0,0,1,4.92-1.46,9.06,9.06,0,0,1,4.93,1.46l1.47-2.57Zm-22.33,0a12,12,0,0,0-12.8,0l1.48,2.57a9,9,0,0,1,9.84,0l1.48-2.57Zm-22.39,0a12,12,0,0,0-12.8,0l1.48,2.57a8.89,8.89,0,0,1,4.91-1.46,9,9,0,0,1,4.93,1.46l1.48-2.57Zm-22.4,0a12,12,0,0,0-12.79,0l1.47,2.57a8.94,8.94,0,0,1,4.92-1.46,9.06,9.06,0,0,1,4.93,1.46l1.47-2.57Zm-22.39,0a12,12,0,0,0-12.8,0l1.48,2.57a9,9,0,0,1,9.84,0l1.48-2.57Zm-22.33,0a12,12,0,0,0-12.8,0l1.48,2.57a8.89,8.89,0,0,1,4.91-1.46,9,9,0,0,1,4.93,1.46l1.48-2.57Z"/><line class="cls-15" x1="11.89" y1="188" x2="361.12" y2="188"/><line class="cls-9" x1="639.15" y1="187.99" x2="988.35" y2="187.99"/><path class="cls-16" d="M12.77,85.67v-2H11.66V81.81l1.92-.54V75.74l.52-.31A9.17,9.17,0,0,1,16.29,71a9.32,9.32,0,0,1,2.21,4.41l.48.29v5.53l2.18.63v1.84H19.8v1.94Z"/><path class="cls-10" d="M987.5,85.67v-2h1.11V81.81l-1.92-.54V75.74l-.51-.31A9.17,9.17,0,0,0,984,71a9.32,9.32,0,0,0-2.21,4.41l-.48.29v5.53l-2.18.63v1.84h1.35v1.94Z"/><path class="cls-16" d="M39.05,85.67v-2H37.94V81.81l1.92-.54V75.74l.51-.31A9.17,9.17,0,0,1,42.57,71a9.22,9.22,0,0,1,2.21,4.41l.48.29v5.53l2.18.63v1.84H46.09v1.94Z"/><path class="cls-17" d="M961.22,85.67v-2h1.11V81.81l-1.93-.54V75.74l-.51-.31a9.12,9.12,0,0,0-2.2-4.4,9.27,9.27,0,0,0-2.2,4.41l-.49.29v5.53l-2.17.63v1.84h1.35v1.94Z"/><path class="cls-16" d="M65.37,85.67v-2H64.25V81.81l1.93-.54V75.74l.51-.31a9.31,9.31,0,0,1,2.2-4.4,9.27,9.27,0,0,1,2.2,4.41l.49.29v5.53l2.17.63v1.84H72.4v1.94Z"/><path class="cls-11" d="M934.9,85.67v-2H936V81.81l-1.93-.54V75.74l-.51-.31a9.31,9.31,0,0,0-2.2-4.4,9.42,9.42,0,0,0-2.21,4.41l-.48.29v5.53l-2.18.63v1.77h1.36v2Z"/><path class="cls-16" d="M91.7,85.67v-2H90.59V81.81l1.92-.54V75.74l.51-.31A9.17,9.17,0,0,1,95.22,71a9.32,9.32,0,0,1,2.21,4.41l.48.29v5.53l2.18.63v1.84H98.74v1.94Z"/><path class="cls-18" d="M908.57,85.67v-2h1.11V81.81l-1.93-.54V75.74l-.51-.31A9.12,9.12,0,0,0,905,71a9.27,9.27,0,0,0-2.2,4.41l-.49.29v5.53l-2.17.63v1.84h1.35v1.94Z"/><polyline class="cls-19" points="12.97 98.95 7.9 99.39 7.9 101.41 11.81 101.41 11.81 104.85 12.6 104.85 12.6 110.75 12.25 110.75 12.25 111.49 20.32 111.49 20.32 110.75 19.97 110.75 19.97 104.85 20.76 104.85 20.76 102.27"/><polyline class="cls-16" points="987.3 98.95 992.37 99.39 992.37 101.41 988.46 101.41 988.46 104.85 987.67 104.85 987.67 110.75 988.02 110.75 988.02 111.49 979.95 111.49 979.95 110.75 980.3 110.75 980.3 104.85 979.51 104.85 979.51 102.27"/><polyline class="cls-19" points="90.76 102.27 90.76 104.85 91.55 104.85 91.55 110.75 91.2 110.75 91.2 111.49 99.27 111.49 99.27 110.75 98.92 110.75 98.92 104.85 99.71 104.85 99.71 101.41 103.62 101.41 103.62 99.39 98.55 98.95 98.55 85.67"/><polyline class="cls-16" points="909.51 102.27 909.51 104.85 908.72 104.85 908.72 110.75 909.07 110.75 909.07 111.49 901 111.49 901 110.75 901.35 110.75 901.35 104.85 900.56 104.85 900.56 101.41 896.65 101.41 896.65 99.39 901.72 98.95 901.72 85.68"/><polyline class="cls-19" points="38.12 102.28 38.12 104.85 38.91 104.85 38.91 110.75 38.56 110.75 38.56 111.49 46.63 111.49 46.63 110.75 46.28 110.75 46.28 104.85 47.07 104.85 47.07 102.27"/><polyline class="cls-16" points="962.15 102.28 962.15 104.85 961.36 104.85 961.36 110.75 961.71 110.75 961.71 111.49 953.64 111.49 953.64 110.75 953.99 110.75 953.99 104.85 953.2 104.85 953.2 102.27"/><polyline class="cls-19" points="64.42 102.3 64.42 104.87 65.21 104.87 65.21 110.77 64.87 110.77 64.87 111.51 72.93 111.51 72.93 110.77 72.58 110.77 72.58 104.87 73.37 104.87 73.37 102.29"/><polyline class="cls-20" points="935.84 102.3 935.85 104.87 935.06 104.87 935.06 110.77 935.4 110.77 935.4 111.51 927.34 111.51 927.34 110.77 927.68 110.77 927.68 104.87 926.89 104.87 926.89 102.29"/><line class="cls-21" x1="66.18" y1="78.56" x2="71.58" y2="78.56"/><line class="cls-21" x1="934.09" y1="78.56" x2="928.69" y2="78.56"/><line class="cls-21" x1="92.52" y1="78.56" x2="97.92" y2="78.56"/><line class="cls-11" x1="907.75" y1="78.56" x2="902.35" y2="78.56"/><line class="cls-21" x1="39.86" y1="78.55" x2="45.27" y2="78.55"/><line class="cls-11" x1="960.41" y1="78.55" x2="955" y2="78.55"/><line class="cls-21" x1="13.65" y1="78.55" x2="19.06" y2="78.55"/><line class="cls-21" x1="986.62" y1="78.55" x2="981.21" y2="78.55"/><polyline class="cls-16" points="11.49 161.06 11.49 162.39 12.24 162.39 12.24 166.22 9.86 166.81 9.86 168.99 11.2 168.99 11.2 170.55 12.24 170.55 12.24 187.86 11.88 187.86 11.88 190.79 12.22 190.79 12.22 196.26 10.46 196.97 10.46 208.76 10 209.2 10 212.18"/><path class="cls-16" d="M988.77,161.06v1.33H988v3.83l2.38.59V169h-1.34v1.56h-1v17.31h.36v2.93h-.34v5.47l1.76.71v11.79l.46.44v3M100,161.06v1.33h-.74v3.83l2.38.59V169H100.3v1.56h-1v17.31h.37v2.93h-.35v5.47l1.77.71v11.79l.46.44v3"/><path class="cls-16" d="M900.26,161.06v1.33H901v3.83l-2.38.59V169H900v1.56h1v17.31h-.36v2.93H901v5.47l-1.76.71v11.79l-.46.44v3M21.08,161.06v1.33h-.74v3.83h-8.1"/><polyline class="cls-16" points="979.19 161.06 979.19 162.39 979.93 162.39 979.93 166.22 988.03 166.22"/><polyline class="cls-16" points="47.39 161.06 47.39 162.39 46.65 162.39 46.65 166.22 38.53 166.22 38.53 162.39 37.8 162.39 37.8 161.06"/><polyline class="cls-16" points="952.88 161.06 952.88 162.39 953.62 162.39 953.62 166.22 961.74 166.22 961.74 162.39 962.47 162.39 962.47 161.06"/><polyline class="cls-16" points="73.71 161.06 73.71 162.39 72.97 162.39 72.97 166.22 64.84 166.22 64.84 162.39 64.11 162.39 64.11 161.06"/><path class="cls-16" d="M926.56,161.06v1.33h.74v3.83h8.12v-3.83h.73v-1.33m-845.73,0v1.33h.74v3.83h8.11"/><polyline class="cls-16" points="909.85 161.06 909.85 162.39 909.11 162.39 909.11 166.22 901 166.22"/><path class="cls-19" d="M102.47,94.23a2.68,2.68,0,0,0,2.47-1.53,1.66,1.66,0,0,1,.37-.6,1.54,1.54,0,0,1,2.19,0,1.67,1.67,0,0,1,.28.42,2.82,2.82,0,0,0,2.56,1.75"/><path class="cls-16" d="M897.83,94.22a2.72,2.72,0,0,1-2.5-1.52,1.66,1.66,0,0,0-.37-.6,1.54,1.54,0,0,0-2.19,0,1.67,1.67,0,0,0-.28.42,2.84,2.84,0,0,1-2.57,1.75"/><path class="cls-19" d="M124.85,94.23a2.81,2.81,0,0,0,2.54-1.53,1.57,1.57,0,0,1,2.56-.64,1.67,1.67,0,0,1,.28.42,2.72,2.72,0,0,0,2.49,1.75"/><path class="cls-16" d="M875.41,94.23a2.79,2.79,0,0,1-2.53-1.53,1.66,1.66,0,0,0-.37-.6,1.54,1.54,0,0,0-2.19,0,1.67,1.67,0,0,0-.28.42,2.73,2.73,0,0,1-2.49,1.75"/><path class="cls-19" d="M147.22,94.23a2.68,2.68,0,0,0,2.47-1.53,1.66,1.66,0,0,1,.37-.6,1.54,1.54,0,0,1,2.19,0,1.67,1.67,0,0,1,.28.42,2.82,2.82,0,0,0,2.56,1.75"/><path class="cls-16" d="M853,94.23a2.67,2.67,0,0,1-2.46-1.53,1.81,1.81,0,0,0-.37-.6,1.54,1.54,0,0,0-2.19,0,2.13,2.13,0,0,0-.29.42,2.81,2.81,0,0,1-2.56,1.75"/><path class="cls-16" d="M169.6,94.23a2.72,2.72,0,0,0,2.49-1.53,1.66,1.66,0,0,1,.37-.6,1.54,1.54,0,0,1,2.19,0,1.67,1.67,0,0,1,.28.42,2.79,2.79,0,0,0,2.54,1.75"/><path class="cls-16" d="M830.66,94.23a2.7,2.7,0,0,1-2.48-1.53,1.66,1.66,0,0,0-.37-.6,1.54,1.54,0,0,0-2.19,0,1.67,1.67,0,0,0-.28.42,2.81,2.81,0,0,1-2.55,1.75"/><path class="cls-16" d="M192,94.23a2.67,2.67,0,0,0,2.46-1.53,1.66,1.66,0,0,1,.37-.6,1.54,1.54,0,0,1,2.19,0,2.13,2.13,0,0,1,.29.42,2.81,2.81,0,0,0,2.55,1.75"/><path class="cls-16" d="M808.29,94.23a2.65,2.65,0,0,1-2.46-1.53,1.81,1.81,0,0,0-.37-.6,1.54,1.54,0,0,0-2.19,0,2.13,2.13,0,0,0-.29.42,2.81,2.81,0,0,1-2.56,1.75"/><path class="cls-16" d="M214.35,94.23a2.81,2.81,0,0,0,2.54-1.53,1.66,1.66,0,0,1,.37-.6,1.54,1.54,0,0,1,2.19,0,1.67,1.67,0,0,1,.28.42,2.72,2.72,0,0,0,2.49,1.75"/><path class="cls-16" d="M785.91,94.23a2.79,2.79,0,0,1-2.53-1.53,1.66,1.66,0,0,0-.37-.6,1.54,1.54,0,0,0-2.19,0,1.67,1.67,0,0,0-.28.42,2.74,2.74,0,0,1-2.5,1.75"/><path class="cls-16" d="M236.73,94.23a2.76,2.76,0,0,0,2.51-1.53,1.66,1.66,0,0,1,.37-.6,1.54,1.54,0,0,1,2.19,0,1.67,1.67,0,0,1,.28.42,2.76,2.76,0,0,0,2.52,1.75"/><path class="cls-16" d="M763.53,94.23A2.72,2.72,0,0,1,761,92.7a1.81,1.81,0,0,0-.37-.6,1.54,1.54,0,0,0-2.19,0,2.13,2.13,0,0,0-.29.42,2.75,2.75,0,0,1-2.52,1.75"/><path class="cls-16" d="M259.11,94.23a2.69,2.69,0,0,0,2.48-1.53,1.81,1.81,0,0,1,.37-.6,1.54,1.54,0,0,1,2.19,0,2.13,2.13,0,0,1,.29.42A2.78,2.78,0,0,0,267,94.23"/><path class="cls-16" d="M741.16,94.23a2.69,2.69,0,0,1-2.48-1.53,1.7,1.7,0,0,0-.38-.6,1.53,1.53,0,0,0-2.18,0,2.13,2.13,0,0,0-.29.42,2.78,2.78,0,0,1-2.54,1.75"/><path class="cls-16" d="M281.48,94.23A2.74,2.74,0,0,0,284,92.7a1.81,1.81,0,0,1,.37-.6,1.54,1.54,0,0,1,2.19,0,2.13,2.13,0,0,1,.29.42,2.74,2.74,0,0,0,2.51,1.75"/><path class="cls-16" d="M718.78,94.23a2.72,2.72,0,0,1-2.5-1.53,1.7,1.7,0,0,0-.38-.6,1.53,1.53,0,0,0-2.18,0,2.13,2.13,0,0,0-.29.42,2.75,2.75,0,0,1-2.52,1.75"/><path class="cls-16" d="M303.86,94.23a2.79,2.79,0,0,0,2.53-1.53,1.81,1.81,0,0,1,.37-.6,1.54,1.54,0,0,1,2.19,0,2.13,2.13,0,0,1,.29.42,2.71,2.71,0,0,0,2.49,1.75"/><path class="cls-16" d="M696.4,94.23a2.76,2.76,0,0,1-2.52-1.53,1.81,1.81,0,0,0-.37-.6,1.54,1.54,0,0,0-2.19,0,2.13,2.13,0,0,0-.29.42,2.72,2.72,0,0,1-2.5,1.75"/><path class="cls-16" d="M326.23,94.23a2.74,2.74,0,0,0,2.51-1.53,1.7,1.7,0,0,1,.38-.6,1.53,1.53,0,0,1,2.18,0,2.13,2.13,0,0,1,.29.42,2.74,2.74,0,0,0,2.51,1.75"/><path class="cls-16" d="M674,94.23a2.72,2.72,0,0,1-2.5-1.53,1.7,1.7,0,0,0-.38-.6,1.53,1.53,0,0,0-2.18,0,1.77,1.77,0,0,0-.29.42,2.75,2.75,0,0,1-2.52,1.75"/><path class="cls-16" d="M348.61,94.23a2.78,2.78,0,0,0,2.53-1.53,1.81,1.81,0,0,1,.37-.6,1.54,1.54,0,0,1,2.19,0,2.13,2.13,0,0,1,.29.42,2.71,2.71,0,0,0,2.49,1.75"/><path class="cls-16" d="M651.65,94.23a2.76,2.76,0,0,1-2.52-1.53,1.7,1.7,0,0,0-.38-.6,1.53,1.53,0,0,0-2.18,0,2.13,2.13,0,0,0-.29.42,2.72,2.72,0,0,1-2.5,1.75"/><path class="cls-16" d="M371.85,87.37V83.9h-.47V81.74h-.79V72.23H371V69.79l-2.4-4.62a1.44,1.44,0,0,0,.4-1.31,4.54,4.54,0,0,0-2.11-3.67,4.78,4.78,0,0,0-2.1,3.65c0,.64,0,1,.45,1.33l-2.55,4.62v2.44h.55v9.49h-.77v2.22H362v3.43l-5.21,1.25v2.29h3.52v2.92H362v5l-1,.57.71.83V111l-.38.2v.57h.4v48.43l-1.29.86v1h.62v4.19l-2.37.56V168h.85v1h1.52V195.2l-.34.13v.91l-1.43,1.34v11.2l-.47.58v2.88"/><path class="cls-16" d="M628.43,87.37V83.9h.47V81.74h.78V72.23h-.44V69.79l2.41-4.62a1.42,1.42,0,0,1-.4-1.31,4.53,4.53,0,0,1,2.1-3.67,4.75,4.75,0,0,1,2.1,3.65c0,.64,0,1-.45,1.33l2.56,4.62v2.44H637v9.49h.77v2.21h.49v3.44l5.2,1.25v2.29h-3.52v2.92h-1.68v5l1,.57-.7.83,0,10.8.39.2v.57h-.4v48.43l1.29.86v1h-.62v4.19l2.37.56V168h-.86v1h-1.52V195.2l.34.13v.91l1.44,1.34v11.2l.47.58v2.88M398.75,87.37V83.9h.47V81.74H400V72.23h-.44V69.79l2.4-4.62a1.44,1.44,0,0,1-.4-1.31,4.56,4.56,0,0,1,2.1-3.67,4.79,4.79,0,0,1,2.11,3.65c0,.64,0,1-.45,1.33l2.55,4.62v2.44h-.55v9.49h.77v2.21h.48v3.44l5.21,1.25v2.29h-3.52v2.92h-1.69v5l1,.57-.7.83V111l.38.2v.57h-.4v48.43l1.29.86v1h-.62v4.19l2.37.56V168H411v1H409.5V195.2l.34.13v.91l1.43,1.34v11.2l.47.58v2.88"/><path class="cls-16" d="M601.52,87.37V83.9h-.46V81.74h-.79V72.23h.44V69.79l-2.41-4.62a1.42,1.42,0,0,0,.4-1.31,4.53,4.53,0,0,0-2.1-3.67,4.78,4.78,0,0,0-2.1,3.65c0,.64,0,1,.45,1.33l-2.55,4.62v2.44H593v9.49h-.77v2.21h-.49v3.44l-5.2,1.25v2.29H590v2.92h1.69v5l-1,.57.7.83,0,10.8-.39.2v.57h.41v48.43l-1.3.86v1h.62v4.19l-2.36.56V168h.85v1h1.52V195.2l-.34.13v.91L589,197.58v11.2l-.46.58v2.88m-217.88-22H400v.84H370.66v-.84Zm229.66,0h29.31v.83H600.32v-.83ZM415.59,79.31l-.2,4.53m33.19-4.53-.2,4.53m33.11-4.53-.2,4.53m33.19-4.53-.2,4.53m33.19-4.53-.21,4.53m33.17-4.53-.2,4.53M419.84,79.31l.2,4.53m32.78-4.53.21,4.53m32.71-4.53.2,4.53m32.78-4.53.2,4.53m32.79-4.53.2,4.53m32.76-4.53.2,4.53M415,83.84v3.74h5.42V83.84m27.56,0v3.74h5.42V83.84m27.5,0v3.74h5.41V83.84m27.57,0v3.74h5.42V83.84m27.57,0v3.74h5.42V83.84m27.54,0v3.74h5.42V83.84"/><polygon class="cls-16" points="22.84 208.01 28.23 208.01 28.23 209.6 22.84 209.6 22.84 208.01 22.84 208.01"/><polygon class="cls-22" points="977.47 208.01 972.08 208.01 972.08 209.66 977.47 209.66 977.47 208.01 977.47 208.01"/><polygon class="cls-16" points="49.11 208.01 54.49 208.01 54.49 209.6 49.11 209.6 49.11 208.01 49.11 208.01"/><polygon class="cls-22" points="951.13 208.01 945.75 208.01 945.75 209.66 951.13 209.66 951.13 208.01 951.13 208.01"/><polygon class="cls-16" points="75.45 208.01 80.84 208.01 80.84 209.6 75.45 209.6 75.45 208.01 75.45 208.01"/><polygon class="cls-22" points="924.85 208.01 919.47 208.01 919.47 209.66 924.85 209.66 924.85 208.01 924.85 208.01"/><polygon class="cls-23" points="30.75 208.01 36.59 208.01 36.59 209.6 30.75 209.6 30.75 208.01 30.75 208.01"/><polygon class="cls-24" points="969.56 208.01 963.72 208.01 963.72 209.66 969.56 209.66 969.56 208.01 969.56 208.01"/><polygon class="cls-23" points="57.01 208.01 62.86 208.01 62.86 209.6 57.01 209.6 57.01 208.01 57.01 208.01"/><polygon class="cls-24" points="943.29 208.01 937.45 208.01 937.45 209.66 943.29 209.66 943.29 208.01 943.29 208.01"/><polygon class="cls-23" points="83.36 208.01 89.2 208.01 89.2 209.6 83.36 209.6 83.36 208.01 83.36 208.01"/><polygon class="cls-24" points="916.95 208.01 911.11 208.01 911.11 209.66 916.95 209.66 916.95 208.01 916.95 208.01"/><path class="cls-16" d="M445.76,212.18V205.9h.74V205h8.36v.87h.75v6.3m23.11,0V205.9h.74V205h8.37v.87h.74v6.3m23.11,0V205.9h.74V205h8.37v.89h.74v6.28m23.11,0V205.9h.74V205h8.37v.87h.74v6.3"/><line class="cls-16" x1="521.56" y1="205.9" x2="544.87" y2="205.9"/><line class="cls-22" x1="488.59" y1="205.9" x2="511.86" y2="205.9"/><line class="cls-16" x1="455.62" y1="205.9" x2="479" y2="205.9"/><path class="cls-1" d="M42.64,279.12h10.1a8.28,8.28,0,0,1-2.59-6.44V248a8.16,8.16,0,0,1,2.59-6.38H42a2.88,2.88,0,0,1,.32,1,1.18,1.18,0,0,1-.11.49L34.09,266.9a49.17,49.17,0,0,0-1.67,7,43.88,43.88,0,0,0-1.73-7l-8.16-23.78a.84.84,0,0,1-.06-.38,2.06,2.06,0,0,1,.38-1.14H12.2A8.2,8.2,0,0,1,14.85,248v24.7a8.32,8.32,0,0,1-2.65,6.44H22a8.32,8.32,0,0,1-2.65-6.44v-20.8a26.52,26.52,0,0,0-.6-6.22c.6,2.16,1.25,4.32,2,6.38l8.43,24.43a4.19,4.19,0,0,1,.22,1.46,4.59,4.59,0,0,1-.11,1.19h6.05a5,5,0,0,1-.1-1.19,4.19,4.19,0,0,1,.21-1.46L43.77,252c.7-2.11,1.35-4.22,1.95-6.38a38.93,38.93,0,0,0-.44,6.22v20.8a8.34,8.34,0,0,1-2.64,6.44ZM101.39,248v17.79c0,4.32.27,7.51,1.83,9.78,2.17,3.08,5.63,4.33,10.81,4.33s8.71-1.3,10.87-4.33c1.62-2.27,1.84-5.51,1.84-9.78V248a8.23,8.23,0,0,1,2.59-6.38h-9.89a8.2,8.2,0,0,1,2.65,6.38v18.16c0,6.6-1.57,9.36-7.84,9.36s-7.89-2.82-7.89-9.36V248A8.2,8.2,0,0,1,109,241.6H98.74a8.2,8.2,0,0,1,2.65,6.38Zm8.37-10.16h1.63l4.86-5.13c.92-1,1.46-1.62,1.46-2.44a2,2,0,0,0-1.89-1.94c-1,0-1.84.76-2.54,2.27l-3.52,7.24Zm6.49,0h1.57l5.84-5c1.13-1,1.67-1.78,1.67-2.54a1.83,1.83,0,0,0-1.89-1.95c-1,0-1.78.65-2.6,2l-4.59,7.46Zm82.1,3.78H175.27a8.2,8.2,0,0,1,2.65,6.38v24.7a8.32,8.32,0,0,1-2.65,6.44h23.95a6.32,6.32,0,0,1,3.94,1.25V267.6c-2.86,6.17-6.7,7.63-14,7.63-4.38,0-6.27-.92-6.27-4.22v-9.68h6.71c3.18,0,5.13.82,7,3.36V254c-1.89,2.54-3.84,3.35-7,3.35h-6.71v-8c0-2.92,1.73-3.95,5.73-3.95,7.08,0,11.14,1.95,13.41,7.19V240.31a6.13,6.13,0,0,1-3.68,1.29Zm79.83,38.77v-14.5c0-2.91.44-5.08,1.46-6.43H270a7.65,7.65,0,0,1,3.19,6.43v3.46c0,3.68-3.25,6.44-8.22,6.44-6.16,0-10.05-5.46-10.05-15,0-10,4.05-15.51,10.21-15.51,5.35,0,8.38,3.08,11.84,9.78V240.58a4.82,4.82,0,0,1-3.3,1.46c-1.57,0-4.27-1.19-8.11-1.19-10,0-15.89,7.19-15.89,20.43,0,12.22,5.41,18.6,15.62,18.6,4.65,0,7.68-1.47,9.25-1.47a4.56,4.56,0,0,1,3.67,2Zm67.08-32.93-6.76,13.35-6.59-13.35a8.53,8.53,0,0,1-1-3.35,3.6,3.6,0,0,1,1.19-2.49H321.79a21.25,21.25,0,0,1,3.79,5.19l10.16,19.3v6.59a8.31,8.31,0,0,1-2.64,6.44h10.27a8.28,8.28,0,0,1-2.6-6.44v-6.86l10.11-19a22.28,22.28,0,0,1,3.84-5.19H345.1a3.68,3.68,0,0,1,1.24,2.49,9.41,9.41,0,0,1-1.08,3.35Zm75.13-5.84H397.31A8.19,8.19,0,0,1,400,248v24.7a8.31,8.31,0,0,1-2.64,6.44h23.94a6.35,6.35,0,0,1,3.95,1.25V267.6c-2.87,6.17-6.71,7.63-14,7.63-4.38,0-6.27-.92-6.27-4.22v-9.68h6.7c3.19,0,5.14.82,7,3.36V254c-1.89,2.54-3.84,3.35-7,3.35h-6.7v-8c0-2.92,1.73-3.95,5.73-3.95,7.08,0,11.13,1.95,13.4,7.19V240.31a6.12,6.12,0,0,1-3.67,1.29Zm66.8,31.08V248.85c0-2.49.76-3.52,3-3.52,3.84,0,6.92,2.92,8.54,8.6V240.31A4.23,4.23,0,0,1,496,241.6H473.41a4.1,4.1,0,0,1-2.76-1.29v13.62c1.62-5.68,4.65-8.6,8.54-8.6,2.22,0,3,1,3,3.52v23.83a8.28,8.28,0,0,1-2.59,6.44h10.22a8.28,8.28,0,0,1-2.6-6.44Zm79.62-31.08H543.73a8.19,8.19,0,0,1,2.64,6.38v24.7a8.31,8.31,0,0,1-2.64,6.44h23.94a6.35,6.35,0,0,1,4,1.25V267.6c-2.87,6.17-6.71,7.63-14,7.63-4.38,0-6.27-.92-6.27-4.22v-9.68h6.7c3.19,0,5.13.82,7,3.36V254c-1.9,2.54-3.84,3.35-7,3.35h-6.7v-8c0-2.92,1.73-3.95,5.73-3.95,7.08,0,11.13,1.95,13.4,7.19V240.31a6.12,6.12,0,0,1-3.67,1.29Zm82,37.52H659a8.28,8.28,0,0,1-2.59-6.44V248A8.16,8.16,0,0,1,659,241.6H648.21a2.88,2.88,0,0,1,.32,1,1.18,1.18,0,0,1-.11.49l-8.11,23.78a46.57,46.57,0,0,0-1.67,7,43.88,43.88,0,0,0-1.73-7l-8.16-23.78a.84.84,0,0,1-.06-.38,2.06,2.06,0,0,1,.38-1.14H618.42a8.2,8.2,0,0,1,2.65,6.38v24.7a8.32,8.32,0,0,1-2.65,6.44h9.79a8.32,8.32,0,0,1-2.65-6.44v-20.8a27.06,27.06,0,0,0-.6-6.22c.6,2.16,1.25,4.32,1.95,6.38l8.43,24.43a4.19,4.19,0,0,1,.22,1.46,4.59,4.59,0,0,1-.11,1.19h6a4.59,4.59,0,0,1-.11-1.19,4.19,4.19,0,0,1,.22-1.46L650,252c.7-2.11,1.35-4.22,1.94-6.38a40.13,40.13,0,0,0-.43,6.22v20.8a8.32,8.32,0,0,1-2.65,6.44ZM754.8,252.58v20.1a8.28,8.28,0,0,1-2.6,6.44h10.11a8.28,8.28,0,0,1-2.6-6.44V245a14.53,14.53,0,0,1,.54-4.16H755.5a5.93,5.93,0,0,1,.54,2.65c0,3.4-1.57,5.13-4.6,5.13a6.59,6.59,0,0,1-2.81-.7v5.51a4.15,4.15,0,0,1,2.76-.86Zm66.91,26.54h11.4a5.72,5.72,0,0,1-1.89-4.06,12.9,12.9,0,0,1,.87-4l7.83-21.67a22.17,22.17,0,0,1,4.65-7.79H820.68a6.89,6.89,0,0,1-4-1.24v13.41c3.14-6,7.51-8.81,13.84-8.81,3.08,0,4.54.86,4.54,2.81a6.5,6.5,0,0,1-.49,2.16l-6.81,18.92c-1.4,3.89-3,7.29-6,10.27Zm80.42-18.06c5.79,0,9.08,2.81,9.08,7.41s-3.29,7.46-9.08,7.46-9.08-2.81-9.08-7.46,3.3-7.41,9.08-7.41Zm0-16.27c4.87,0,7.63,2.33,7.63,6.17s-2.76,6.27-7.63,6.27-7.56-2.38-7.56-6.27,2.75-6.17,7.56-6.17Zm7.79,14c3.19-1.46,4.86-4.1,4.86-7.89,0-6.27-4.65-10.05-12.65-10.05s-12.59,3.78-12.59,10.05c0,3.79,1.62,6.43,4.81,7.89-4.11,1.68-6.27,5-6.27,9.57,0,7.19,5,11.52,14,11.52s14.11-4.33,14.11-11.52a9.65,9.65,0,0,0-6.32-9.57ZM961.59,280a4.71,4.71,0,0,1,2.92-.87H984.4a5.11,5.11,0,0,1,3.29,1.25V265.06c-1.51,3.68-2.75,6.38-4.75,8.11s-4.87,2.27-9,2.27c-4.6,0-6.44-.43-6.44-2.7,0-2.87,3.41-5.73,9.46-10.11,3.84-2.76,6.65-4.76,7.89-6.81a10.64,10.64,0,0,0,1.63-5.67c0-5.63-3.9-9.36-10.38-9.36-4,0-7.19,1.3-9.68,1.3a5.2,5.2,0,0,1-3.78-1.51v14c3.35-6.27,7.78-9.62,12.86-9.62,3.73,0,6,2,6,5.24,0,2.59-1.35,3.89-3.41,5.73-1.46,1.3-4.65,3.24-8.81,6.59-5.29,4.22-7.78,9-7.78,15.3,0,.7,0,1.41.11,2.17Z"/><path class="cls-25" d="M625.59,132.85H615m0-1h10.63m0,0H615m-3.32,42.22h6.64M615,199.4h3.35m-3.35,0h3.35m0-54H615m0,16.63h24.81M615,161.21H639.8M615,100.2h19.36m3.93-12.82H591.68M615,90.91h25.21m-1.43,2.93H615m0,9.93h23.63M615,111h23.57M615,166.82h26.56M615,195.22h24.3M628.91,83.4H615m0,78.65H590.81m24.15-.84H590.13m24.83,34H590.79m10.26-21.15h6.63m0,0v16.08m-3.34,9.25h3.34m-6.63-25.33v16.08m3.29,9.25H601m10.64-25.33v16.08M615,199.4h-3.34m3.34,0h-3.34m-3.74-38.19V145.42m0,0v15.79m0-15.79h-3.32m3.1,0h-3.32m-3.1,15.79V145.42m0,0h3.32m-3.32,0v15.79m10.4-15.79H615m-3.32,15.79V145.42m0,0v15.79M615,90.91H590m11.51-7.07h-9.83M615,100.2H595.61m-4.42-6.36H615m0,9.93H591.33M615,111H591.43m-6.18-23.62h6.43m-9.13-3.54h9.13"/></g></g></svg>