<?xml version="1.0" encoding="UTF-8" standalone="no"?>
<!DOCTYPE svg PUBLIC "-//W3C//DTD SVG 1.1//EN" "http://www.w3.org/Graphics/SVG/1.1/DTD/svg11.dtd">
<svg width="100%" height="100%" viewBox="0 0 4145 4166" version="1.1" xmlns="http://www.w3.org/2000/svg" xmlns:xlink="http://www.w3.org/1999/xlink" xml:space="preserve" xmlns:serif="http://www.serif.com/" style="fill-rule:evenodd;clip-rule:evenodd;stroke-linejoin:round;stroke-miterlimit:2;">
    <g id="TTK" transform="matrix(4.16667,0,0,4.16667,-10,0)">
        <g transform="matrix(0,1,1,0,501.176,89.1619)">
            <path d="M409.488,-409.532C635.29,-409.532 818.994,-225.827 818.994,-0.023C818.994,225.783 635.29,409.488 409.488,409.488C183.722,409.488 0.026,225.783 0.026,-0.023C0.026,-225.827 183.722,-409.532 409.488,-409.532" style="fill:rgb(10,96,169);"/>
        </g>
        <g transform="matrix(1,0,0,1,193.314,834.25)">
            <path d="M0,-11.451C2.605,-14.038 3.513,-16.696 2.722,-19.429C2.142,-21.431 0.279,-24.02 -2.862,-27.186C-11.259,-35.645 -18.272,-37.085 -23.896,-31.501C-27.496,-27.929 -28.366,-23.852 -26.512,-19.266C-25.229,-16.078 -22.351,-12.229 -17.871,-7.717C-17.144,-6.981 -15.992,-5.919 -14.423,-4.523C-12.851,-3.128 -11.702,-2.064 -10.972,-1.333L-10.587,-0.943L0,-11.451ZM-24.771,13.139L-15.935,4.367C-17.917,2.115 -19.751,0.136 -21.44,-1.563C-25.612,-5.767 -29.052,-8.546 -31.754,-9.895C-36.178,-12.113 -39.948,-11.677 -43.065,-8.584C-47.73,-3.954 -46.147,2.307 -38.319,10.197C-35.668,12.864 -33.456,14.513 -31.678,15.142C-29.266,15.982 -26.964,15.313 -24.771,13.139M21.408,-12.243C17.114,-12.649 13.32,-11.221 10.026,-7.952L-20.193,22.046C-23.443,25.271 -24.858,29.033 -24.436,33.335C-24.904,32.861 -25.593,32.167 -26.501,31.256C-27.406,30.345 -28.092,29.649 -28.563,29.177C-30.35,27.377 -33.104,24.739 -36.831,21.265C-40.555,17.79 -43.309,15.153 -45.098,13.35C-49.988,8.422 -53.007,3.681 -54.151,-0.869C-55.493,-6.309 -54.045,-11.132 -49.809,-15.338C-45.098,-20.014 -39.487,-20.665 -32.974,-17.288C-38.221,-24.985 -37.707,-31.951 -31.426,-38.188C-26.715,-42.864 -21.576,-44.786 -16.014,-43.959C-10.904,-43.197 -5.716,-40.164 -0.447,-34.854C1.152,-33.244 3.513,-30.766 6.635,-27.422C9.758,-24.077 12.119,-21.599 13.718,-19.989L18.093,-15.582C18.494,-15.181 19.597,-14.064 21.408,-12.243" style="fill:rgb(10,96,169);"/>
        </g>
        <g transform="matrix(1,0,0,1,125.562,778.245)">
            <path d="M0,-67.002C-4.093,-68.387 -8.118,-67.837 -12.076,-65.351L-42.442,-46.29C-45.603,-44.307 -48.782,-42.64 -51.98,-41.287C-47.855,-42.414 -44.09,-43.322 -40.686,-44.003L3.437,-52.969C4.177,-53.103 4.958,-53.425 5.779,-53.942C6.627,-54.474 7.167,-54.899 7.397,-55.217L13.517,-45.469C12.983,-45.293 12.368,-44.986 11.674,-44.553C10.853,-44.035 10.219,-43.477 9.771,-42.881L-17.424,-6.952C-19.754,-3.873 -22.208,-0.878 -24.783,2.038C-22.745,-0.076 -19.898,-2.279 -16.253,-4.569L14.116,-23.631C18.046,-26.1 20.277,-29.507 20.809,-33.855L30.683,-18.125C26.606,-19.485 22.589,-18.928 18.635,-16.445L-17.418,6.19C-21.297,8.625 -23.509,11.973 -24.054,16.236L-34.804,-0.889C-33.979,-0.818 -33.296,-0.948 -32.763,-1.285C-32.559,-1.412 -32.394,-1.548 -32.272,-1.689L-5.825,-36.647C-3.678,-39.452 -0.862,-42.496 2.624,-45.789C-2.12,-43.989 -6.077,-42.767 -9.251,-42.113L-52.138,-33.308C-52.162,-33.294 -52.211,-33.285 -52.281,-33.282C-52.566,-33.229 -52.783,-33.155 -52.937,-33.064C-53.103,-32.876 -53.49,-32.399 -54.097,-31.621L-64.929,-48.874C-60.938,-47.537 -56.979,-48.102 -53.051,-50.567L-16.995,-73.201C-12.989,-75.716 -10.723,-79.062 -10.195,-83.238L0,-67.002Z" style="fill:rgb(10,96,169);"/>
        </g>
        <g transform="matrix(1,0,0,1,27.98,658.341)">
            <path d="M0,-10.446C-0.778,-12.65 -2.245,-14.591 -4.397,-16.271L15.583,-23.333C11.88,-19.619 9.882,-15.268 9.584,-10.286C9.354,-6.21 10.286,-1.198 12.384,4.742C13.539,8.01 14.715,10.246 15.913,11.45C17.659,13.203 19.833,13.617 22.435,12.701L35.435,8.107L31.206,-3.865C29.295,-9.27 25.999,-12.804 21.318,-14.474L38.608,-20.584C36.042,-16.352 35.714,-11.536 37.625,-6.131L41.853,5.841L57.58,0.284C60.437,-0.726 61.974,-2.558 62.19,-5.217C62.334,-7.002 61.765,-9.698 60.488,-13.314C58.168,-19.884 55.639,-24.628 52.898,-27.552C49.641,-31.033 45.087,-33.172 39.235,-33.971L59.962,-41.292C59.339,-38.771 59.499,-36.172 60.442,-33.499L75.567,9.303C71.886,7.085 67.842,6.749 63.437,8.308L23.272,22.497C18.952,24.024 16.057,26.807 14.59,30.846L0,-10.446Z" style="fill:rgb(10,96,169);"/>
        </g>
        <g transform="matrix(1,0,0,1,59.0967,522.373)">
            <path d="M0,-12.61C4.727,-12.774 8.367,-14.55 10.918,-17.924L11.601,1.431C8.817,-1.756 5.063,-3.266 0.336,-3.1L-40.712,-1.653C-44.74,-1.512 -46.689,0.445 -46.556,4.215C-46.288,11.862 -41.162,17.112 -31.182,19.969L-54.661,20.792C-53.219,18.907 -52.53,17.115 -52.59,15.412L-54.094,-27.303C-54.157,-29.103 -54.973,-30.86 -56.542,-32.575L-33.063,-33.402C-42.821,-29.949 -47.564,-24.368 -47.293,-16.659C-47.158,-12.85 -45.077,-11.021 -41.046,-11.165L0,-12.61Z" style="fill:rgb(10,96,169);"/>
        </g>
        <g transform="matrix(1,0,0,1,13.5024,453.191)">
            <path d="M0,-45.737C0.35,-48.047 -0.038,-50.45 -1.16,-52.947L19.814,-49.787C14.797,-48.25 10.986,-45.35 8.378,-41.089C6.259,-37.597 4.728,-32.735 3.787,-26.503C3.272,-23.071 3.258,-20.545 3.749,-18.922C4.464,-16.553 6.188,-15.162 8.918,-14.751L22.555,-12.695L24.446,-25.257C25.303,-30.926 24.059,-35.6 20.714,-39.275L38.845,-36.54C34.582,-34.014 32.02,-29.913 31.164,-24.245L29.269,-11.682L45.784,-9.191C48.782,-8.741 51.004,-9.635 52.446,-11.882C53.411,-13.387 54.178,-16.038 54.75,-19.83C55.792,-26.722 55.789,-32.103 54.742,-35.971C53.501,-40.576 50.484,-44.607 45.692,-48.06L67.447,-44.78C65.698,-42.85 64.611,-40.484 64.188,-37.678L57.42,7.21C55.214,3.513 51.804,1.318 47.183,0.621L5.061,-5.73C0.531,-6.412 -3.334,-5.312 -6.529,-2.434L0,-45.737Z" style="fill:rgb(10,96,169);"/>
        </g>
        <g transform="matrix(1,0,0,1,43.7822,338.851)">
            <path d="M0,9.101L12.468,13.579C13.721,10.627 14.742,8.055 15.531,5.856C17.619,0.051 18.665,-4.389 18.673,-7.469C18.697,-12.386 16.51,-15.633 12.111,-17.212C5.513,-19.582 0.287,-15.402 -3.567,-4.669C-4.876,-1.031 -5.389,1.745 -5.107,3.653C-4.73,6.198 -3.028,8.014 0,9.101M36.804,22.32C41.2,23.898 45.247,23.578 48.947,21.358L42.366,39.682C40.918,35.629 37.999,32.813 33.603,31.232L-6.483,16.837C-10.793,15.289 -14.797,15.617 -18.491,17.823C-18.253,17.164 -17.909,16.2 -17.451,14.929C-16.993,13.658 -16.648,12.69 -16.41,12.031C-15.214,8.703 -13.702,4.195 -11.875,-1.495L-9.468,-8.978C-9.259,-9.683 -9.021,-10.412 -8.75,-11.166C-3.63,-25.42 4.413,-30.581 15.374,-26.643C22.37,-24.13 25.677,-18.265 25.3,-9.046C27.707,-11.976 30.171,-13.857 32.691,-14.69C34.849,-15.402 37.825,-15.522 41.62,-15.045C44.667,-14.199 49.245,-13.351 55.354,-12.502C57.767,-12.488 59.93,-13.166 61.838,-14.535L57.965,-3.747C57.17,-2.259 55.813,-1.614 53.885,-1.809C52.571,-1.925 50.478,-2.492 47.605,-3.505C44.729,-4.522 42.58,-5.159 41.159,-5.422C36.115,-6.276 32.071,-5.514 29.024,-3.134C26.3,-1.025 23.953,2.777 21.977,8.272C21.673,9.12 21.253,10.424 20.719,12.181C20.186,13.939 19.765,15.241 19.458,16.089L36.804,22.32Z" style="fill:rgb(10,96,169);"/>
        </g>
        <g transform="matrix(1,0,0,1,147.463,249.27)">
            <path d="M0,2.165C-0.501,-2.136 -2.724,-5.538 -6.665,-8.045L-36.923,-27.285C-40.07,-29.286 -42.946,-31.435 -45.548,-33.733C-42.753,-30.494 -40.319,-27.482 -38.243,-24.702L-11.2,11.297C-10.752,11.896 -10.121,12.457 -9.302,12.978C-8.457,13.517 -7.844,13.823 -7.467,13.907L-13.642,23.622C-14.038,23.226 -14.58,22.809 -15.271,22.367C-16.092,21.849 -16.865,21.508 -17.589,21.35L-61.713,12.219C-65.495,11.435 -69.254,10.508 -72.992,9.432C-70.189,10.34 -66.969,11.948 -63.337,14.26L-33.077,33.496C-29.163,35.987 -25.138,36.554 -21.001,35.196L-30.965,50.866C-31.48,46.588 -33.708,43.195 -37.649,40.687L-73.586,17.84C-77.451,15.382 -81.43,14.827 -85.523,16.176L-74.673,-0.887C-74.375,-0.106 -73.955,0.457 -73.415,0.802C-73.209,0.932 -73.019,1.035 -72.851,1.108L-29.921,9.979C-26.466,10.701 -22.503,11.923 -18.033,13.647C-21.684,10.129 -24.479,7.071 -26.422,4.48L-52.785,-30.475C-52.809,-30.492 -52.839,-30.529 -52.875,-30.586C-53.059,-30.809 -53.227,-30.966 -53.381,-31.064C-53.623,-31.139 -54.23,-31.289 -55.203,-31.511L-44.274,-48.701C-43.775,-44.511 -41.566,-41.168 -37.649,-38.68L-1.713,-15.83C2.279,-13.291 6.28,-12.686 10.287,-14.012L0,2.165Z" style="fill:rgb(10,96,169);"/>
        </g>
        <g transform="matrix(1,0,0,1,140.437,186.521)">
            <path d="M0,-37.433L0.144,-56.825C0.155,-59.456 0.765,-61.372 1.965,-62.576C2.722,-63.329 3.605,-63.72 4.619,-63.747C5.63,-63.771 6.481,-63.44 7.167,-62.755C8.219,-61.703 8.3,-59.638 7.414,-56.561L2.619,-40.052L0,-37.433ZM22.172,-50.333C23.823,-51.983 24.929,-54.16 25.487,-56.856L40.49,-41.854C35.563,-43.58 30.789,-43.501 26.176,-41.618C22.406,-40.068 18.296,-37.064 13.846,-32.616C11.398,-30.166 9.886,-28.143 9.314,-26.55C8.484,-24.225 9.04,-22.091 10.983,-20.15L20.682,-10.45L29.646,-19.413C33.692,-23.46 35.468,-27.943 34.972,-32.861L47.939,-19.896C43,-20.411 38.506,-18.646 34.459,-14.6L25.496,-5.636L37.292,6.158C39.433,8.302 41.75,8.899 44.242,7.949C45.909,7.313 48.096,5.637 50.804,2.93C55.727,-1.993 58.917,-6.313 60.372,-10.04C62.109,-14.472 62.08,-19.492 60.288,-25.1L75.803,-9.588C73.277,-9.043 71.014,-7.768 69.008,-5.763L36.907,26.338C37.354,22.031 35.926,18.225 32.625,14.924L2.521,-15.179C-0.715,-18.416 -4.488,-19.812 -8.795,-19.365L22.172,-50.333Z" style="fill:rgb(10,96,169);"/>
        </g>
        <g transform="matrix(1,0,0,1,238.537,77.6189)">
            <path d="M0,81.322L-12.756,62.88C-1.965,67.208 6.931,66.95 13.935,62.107C17.423,59.694 19.625,56.976 20.535,53.951C21.533,50.755 20.955,47.597 18.8,44.48C17.058,41.965 14.921,40.436 12.393,39.902C10.3,39.468 7.462,39.642 3.884,40.422C3.18,40.574 -0.024,41.45 -5.727,43.052C-9.527,44.131 -12.772,44.751 -15.464,44.914C-20.725,45.231 -24.91,43.144 -28.016,38.65C-31.158,34.11 -31.708,29.234 -29.669,24.021C-27.861,19.302 -24.389,15.165 -19.253,11.614C-17.878,10.666 -15.694,9.511 -12.696,8.154C-9.695,6.798 -7.511,5.643 -6.14,4.695C-4.353,3.459 -3.467,1.895 -3.478,0L8.132,16.789C-0.547,12.398 -8.321,12.577 -15.187,17.323C-17.987,19.261 -19.909,21.475 -20.95,23.964C-22.159,26.794 -21.92,29.428 -20.229,31.873C-19.039,33.594 -17.434,34.714 -15.409,35.229C-13.58,35.698 -9.181,34.98 -2.211,33.072C-0.884,32.705 0.678,32.291 2.467,31.827C13.499,28.954 21.489,31.095 26.438,38.251C30.146,43.613 31.041,48.985 29.125,54.365C27.409,59.274 23.533,63.817 17.494,67.994C16.123,68.943 13.908,70.065 10.845,71.358C7.785,72.651 5.57,73.773 4.196,74.722C2.469,75.917 1.068,78.118 0,81.322" style="fill:rgb(10,96,169);"/>
        </g>
        <g transform="matrix(1,0,0,1,306.409,100.358)">
            <path d="M0,-45.993C0.092,-46.597 0,-47.201 -0.277,-47.806C-1.141,-49.695 -3.562,-49.73 -7.538,-47.912C-18.703,-42.803 -24.392,-35.026 -24.601,-24.579L-33.849,-44.786C-31.624,-44.174 -29.691,-44.242 -28.054,-44.993L11.813,-63.232L2.895,0.021C2.77,0.881 2.816,1.545 3.033,2.016C3.865,3.84 6.741,3.626 11.658,1.379C23.793,-4.175 30.372,-12.377 31.388,-23.224L40.652,-2.977C38.265,-3.464 36.131,-3.278 34.25,-2.418L-8.715,17.239L0,-45.993Z" style="fill:rgb(10,96,169);"/>
        </g>
        <g transform="matrix(1,0,0,1,399.327,82.5518)">
            <path d="M0,-69.438C2.269,-69.994 4.345,-71.26 6.234,-73.233L11.273,-52.649C7.944,-56.707 3.816,-59.132 -1.114,-59.927C-5.147,-60.564 -10.225,-60.133 -16.345,-58.634C-19.711,-57.81 -22.053,-56.861 -23.368,-55.788C-25.287,-54.227 -25.916,-52.105 -25.26,-49.421L-21.98,-36.025L-9.647,-39.045C-4.083,-40.409 -0.233,-43.333 1.892,-47.821L6.253,-30.011C2.295,-32.998 -2.464,-33.811 -8.032,-32.447L-20.362,-29.428L-16.391,-13.206C-15.67,-10.259 -13.998,-8.543 -11.374,-8.061C-9.615,-7.744 -6.872,-8.039 -3.147,-8.95C3.618,-10.605 8.592,-12.652 11.771,-15.089C15.559,-17.986 18.136,-22.31 19.51,-28.056L24.739,-6.708C22.292,-7.578 19.692,-7.676 16.935,-7.001L-27.157,3.795C-24.558,0.348 -23.815,-3.646 -24.926,-8.186L-35.058,-49.564C-36.146,-54.012 -38.642,-57.167 -42.54,-59.024L0,-69.438Z" style="fill:rgb(10,96,169);"/>
        </g>
        <g transform="matrix(1,0,0,1,481.892,11.8511)">
            <path d="M0,45.04C0.252,49.765 2.104,53.367 5.549,55.855L-13.794,56.891C-10.685,54.053 -9.256,50.271 -9.508,45.55L-11.701,4.547C-11.918,0.52 -13.911,-1.394 -17.684,-1.19C-25.327,-0.781 -30.488,4.434 -33.164,14.457L-34.418,-8.997C-32.505,-7.59 -30.697,-6.932 -28.995,-7.024L13.721,-9.306C15.521,-9.404 17.264,-10.249 18.953,-11.851L20.205,11.6C16.572,1.915 10.902,-2.719 3.193,-2.308C-0.612,-2.104 -2.41,0.01 -2.192,4.038L0,45.04Z" style="fill:rgb(10,96,169);"/>
        </g>
        <g transform="matrix(1,0,0,1,561.484,12.8911)">
            <path d="M0,47.668C-0.588,52.362 0.586,56.236 3.521,59.296L-15.696,56.884C-12.118,54.642 -10.037,51.175 -9.448,46.483L-4.334,5.73C-3.832,1.73 -5.456,-0.507 -9.207,-0.978C-16.811,-1.932 -22.819,2.288 -27.235,11.686L-24.311,-11.628C-22.676,-9.893 -21.012,-8.918 -19.32,-8.706L23.156,-3.374C24.948,-3.149 26.815,-3.681 28.762,-4.966L25.837,18.348C23.978,8.164 19.215,2.589 11.544,1.626C7.761,1.152 5.616,2.914 5.115,6.918L0,47.668Z" style="fill:rgb(10,96,169);"/>
        </g>
        <g transform="matrix(1,0,0,1,629.104,81.1806)">
            <path d="M0,-50.809C1.423,-55.16 0.973,-59.152 -1.348,-62.784L17.158,-56.734C13.165,-55.167 10.457,-52.207 9.034,-47.857L-0.688,-18.115C-2.45,-12.726 -2.806,-8.63 -1.757,-5.83C-0.521,-2.523 2.903,0.046 8.517,1.881C14.16,3.727 18.439,3.676 21.359,1.727C23.79,0.095 25.889,-3.429 27.661,-8.847L37.381,-38.59C38.796,-42.913 38.319,-46.911 35.95,-50.589L53.791,-44.759C49.841,-43.241 47.145,-40.276 45.702,-35.869L36.175,-6.722C33.603,1.147 30.743,6.131 27.599,8.232C22.346,11.745 15.041,11.975 5.689,8.918C-3.694,5.849 -9.405,1.366 -11.441,-4.532C-12.71,-8.169 -12.073,-13.881 -9.527,-21.663L0,-50.809Z" style="fill:rgb(10,96,169);"/>
        </g>
        <g transform="matrix(1,0,0,1,728.178,112.745)">
            <path d="M0,-42.106L-20.527,-6.058C-21.671,-4.055 -21.405,-2.195 -19.741,-0.477C-18.925,0.373 -17.068,1.621 -14.177,3.269C-6.541,7.617 -0.003,8.617 5.435,6.264C9.947,4.326 14.298,-0.323 18.491,-7.682C22.456,-14.645 24.224,-20.609 23.796,-25.569C23.253,-31.749 19.378,-36.885 12.178,-40.989C5.727,-44.662 1.667,-45.033 0,-42.106M-38.899,-3.096C-34.654,-3.822 -31.38,-6.213 -29.068,-10.271L-8.002,-47.264C-5.735,-51.243 -5.375,-55.241 -6.915,-59.258L-3.784,-57.477C1.837,-54.273 7.844,-51.037 14.232,-47.768C15.647,-47.015 16.556,-46.521 16.962,-46.291C34.586,-36.253 37.985,-21.736 27.162,-2.73C22.283,5.835 16.551,11.455 9.961,14.127C2.404,17.152 -5.926,16.073 -15.024,10.891C-16.737,9.917 -19.275,8.373 -22.636,6.256C-25.997,4.142 -28.534,2.597 -30.244,1.623C-31.635,0.829 -32.876,0.141 -33.961,-0.442L-38.899,-3.096Z" style="fill:rgb(10,96,169);"/>
        </g>
        <g transform="matrix(1,0,0,1,788.799,130.095)">
            <path d="M0,39.175C9.671,47.632 20.239,45.309 31.699,32.204C36.411,26.815 39.311,21.675 40.397,16.783C41.843,10.313 39.891,4.738 34.54,0.057C24.79,-8.465 14.197,-6.186 2.757,6.896C-1.936,12.262 -4.819,17.436 -5.896,22.418C-7.294,28.932 -5.329,34.518 0,39.175M-5.015,44.859C-12.753,38.091 -16.226,30.498 -15.429,22.085C-14.77,14.997 -11.205,7.752 -4.732,0.346C1.78,-7.102 8.511,-11.601 15.453,-13.155C23.671,-14.998 31.688,-12.504 39.501,-5.674C47.239,1.095 50.709,8.687 49.912,17.1C49.256,24.189 45.699,31.423 39.246,38.804C32.735,46.253 26.005,50.755 19.065,52.305C10.823,54.173 2.8,51.69 -5.015,44.859" style="fill:rgb(10,96,169);"/>
        </g>
        <g transform="matrix(1,0,0,1,861.143,191.475)">
            <path d="M0,69.203C4.175,70.295 8.151,69.466 11.927,66.715L40.908,45.605C43.925,43.407 46.979,41.528 50.083,39.965C46.047,41.379 42.353,42.542 39.003,43.455L-4.396,55.439C-5.114,55.637 -5.865,56.024 -6.651,56.596C-7.459,57.184 -7.974,57.64 -8.19,57.957L-14.97,48.652C-14.444,48.448 -13.851,48.104 -13.187,47.621C-12.403,47.05 -11.812,46.448 -11.411,45.811L13.23,8.088C15.348,4.86 17.592,1.705 19.967,-1.382C18.099,0.9 15.424,3.309 11.943,5.844L-17.038,26.956C-20.789,29.689 -22.79,33.226 -23.045,37.568L-33.979,22.557C-29.811,23.644 -25.839,22.815 -22.063,20.066L12.344,-5.001C16.047,-7.695 18.021,-11.194 18.262,-15.496L30.169,0.849C29.339,0.832 28.67,1.008 28.163,1.38C27.968,1.521 27.818,1.672 27.716,1.835L3.692,38.503C1.749,41.45 -0.843,44.686 -4.09,48.21C0.523,46.093 4.392,44.602 7.512,43.74L49.688,31.998C49.715,31.979 49.761,31.966 49.831,31.96C50.113,31.89 50.324,31.803 50.471,31.697C50.625,31.502 50.98,30.995 51.533,30.177L63.527,46.643C59.45,45.575 55.534,46.41 51.788,49.142L17.378,74.206C13.553,76.991 11.523,80.49 11.29,84.699L0,69.203Z" style="fill:rgb(10,96,169);"/>
        </g>
        <g transform="matrix(1,0,0,1,959.237,357.314)">
            <path d="M0,-65.028L17.99,-57.778C20.433,-56.802 21.993,-55.533 22.668,-53.972C23.097,-52.991 23.135,-52.026 22.785,-51.075C22.438,-50.123 21.82,-49.453 20.929,-49.069C19.562,-48.475 17.613,-49.158 15.076,-51.112L1.475,-61.632L0,-65.028ZM-47.342,-50.611C-45.51,-45.727 -43.94,-41.786 -42.637,-38.782C-41.373,-35.871 -39.587,-32.079 -37.275,-27.403L-10.05,-52.265L-47.342,-50.611ZM-55.49,-50.334C-59.713,-50.067 -62.648,-49.572 -64.291,-48.86C-66.3,-47.987 -67.729,-46.439 -68.582,-44.214L-75.838,-60.927C-71.715,-58.967 -66.343,-58.135 -59.724,-58.428L-9.598,-60.651C-9.213,-60.678 -8.866,-60.757 -8.56,-60.889C-7.695,-61.264 -6.938,-61.992 -6.282,-63.071L0.653,-47.095C-0.428,-47.375 -1.331,-47.358 -2.055,-47.044C-2.444,-46.876 -2.859,-46.575 -3.301,-46.141L-39.891,-12.964C-44.87,-8.438 -48.039,-4.114 -49.392,0L-56.785,-17.033C-54.4,-15.959 -52.194,-15.861 -50.161,-16.743C-48.575,-17.434 -46.271,-19.215 -43.255,-22.088C-44.65,-25.994 -46.572,-30.762 -49.015,-36.394C-51.448,-41.994 -53.606,-46.64 -55.49,-50.334" style="fill:rgb(10,96,169);"/>
        </g>
        <g transform="matrix(1,0,0,1,984.085,412.458)">
            <path d="M0,-26.515C-1.087,-26.658 -1.707,-26.728 -1.862,-26.731C-2.041,-26.694 -2.252,-26.596 -2.499,-26.441C-2.551,-26.395 -2.591,-26.371 -2.621,-26.363L-36.543,1.277C-40.503,4.513 -44.276,7.096 -47.865,9.026C-44.656,7.782 -40.813,6.681 -36.332,5.721L-5.714,-0.838C-1.266,-1.792 1.954,-4.199 3.955,-8.064L7.845,10.094C4.47,7.394 0.548,6.524 -3.933,7.484L-51.993,17.778C-54.069,18.222 -55.495,18.806 -56.271,19.529L-59.166,6.02C-59.136,6.014 -59.07,6.017 -58.976,6.03C-58.182,6.234 -57.588,6.297 -57.197,6.213C-57.021,6.174 -56.808,6.088 -56.558,5.95C-56.504,5.908 -56.46,5.887 -56.431,5.879L-18.941,-24.753C-16.754,-26.555 -13.357,-29.025 -8.761,-32.163C-11.961,-30.879 -15.441,-29.832 -19.209,-29.025L-53.733,-21.63C-58.273,-20.657 -61.537,-18.226 -63.527,-14.339L-67.419,-32.497C-64.053,-29.822 -60.085,-28.971 -55.515,-29.949L-13.864,-38.872C-9.384,-39.832 -6.155,-42.222 -4.185,-46.044L0,-26.515Z" style="fill:rgb(10,96,169);"/>
        </g>
        <g transform="matrix(1,0,0,1,987.01,474.634)">
            <path d="M0,26.995C2.488,28.309 4.429,28.955 5.825,28.925C7.158,28.897 8.568,28.069 10.051,26.434L10.436,44.697C7.733,41.849 4.711,39.488 1.363,37.623L-31.847,19.126L-43.678,19.373C-48.41,19.471 -52.075,21.192 -54.677,24.531L-55.084,5.067C-52.283,8.363 -48.551,9.959 -43.878,9.862L-32.505,9.626L0.347,-10.359C3.708,-12.4 6.636,-14.845 9.132,-17.702L9.535,1.763C8.075,0.291 6.63,-0.427 5.204,-0.401C3.746,-0.371 1.827,0.318 -0.545,1.665L-23.292,14.667L0,26.995Z" style="fill:rgb(10,96,169);"/>
        </g>
        <g transform="matrix(1,0,0,1,991.853,543.019)">
            <path d="M0,27.341C-2.301,23.749 -5.73,21.673 -10.275,21.104L-52.552,15.819C-57.189,15.236 -61.068,16.403 -64.186,19.318L-61.771,0C-59.475,3.664 -56.011,5.787 -51.373,6.369L-9.094,11.655C-4.548,12.222 -0.71,11.013 2.415,8.023L0,27.341Z" style="fill:rgb(10,96,169);"/>
        </g>
        <g transform="matrix(1,0,0,1,961.495,674.737)">
            <path d="M0,8.341C-1.238,4.224 -3.974,1.282 -8.199,-0.481L-28.064,-8.779L-14.035,20.918C-12.956,23.213 -11.758,24.637 -10.44,25.187C-9.349,25.646 -8.107,25.385 -6.714,24.411L-14.431,42.887C-14.634,41.57 -15.919,37.596 -18.277,30.969L-18.325,30.841L-26.187,13.296L-62.302,16.76C-67.026,17.21 -71.365,18.581 -75.313,20.877L-68.08,3.557C-67.21,5.326 -66.091,6.5 -64.719,7.072C-63.516,7.573 -61.852,7.723 -59.732,7.52L-29.588,4.755L-37.099,-12.55L-47.508,-16.899C-51.814,-18.697 -55.872,-18.594 -59.667,-16.58L-52.164,-34.546C-50.937,-30.403 -48.166,-27.432 -43.856,-25.633L-4.554,-9.218C-0.325,-7.453 3.692,-7.589 7.503,-9.628L0,8.341Z" style="fill:rgb(10,96,169);"/>
        </g>
        <g transform="matrix(1,0,0,1,885.416,751.907)">
            <path d="M0,-12.731C-3.093,-8.53 -5.552,-5.068 -7.367,-2.342C-9.129,0.3 -11.35,3.857 -14.032,8.338L21.619,17.724L0,-12.731ZM-4.648,-19.421C-7.161,-22.82 -9.159,-25.018 -10.65,-26.01C-12.469,-27.225 -14.542,-27.585 -16.879,-27.094L-6.766,-42.252C-6.175,-37.725 -3.963,-32.759 -0.13,-27.355L28.913,13.561C29.13,13.892 29.374,14.152 29.653,14.335C30.434,14.859 31.464,15.09 32.743,15.03L23.074,29.521C22.712,28.482 22.199,27.743 21.543,27.306C21.191,27.071 20.72,26.875 20.134,26.718L-27.583,13.956C-34.085,12.227 -39.431,11.908 -43.626,12.999L-33.32,-2.448C-32.928,0.141 -31.809,2.052 -29.962,3.283C-28.523,4.245 -25.774,5.215 -21.717,6.2C-19.193,2.909 -16.229,-1.293 -12.821,-6.399C-9.43,-11.479 -6.709,-15.819 -4.648,-19.421" style="fill:rgb(10,96,169);"/>
        </g>
        <g transform="matrix(1,0,0,1,851.832,816.876)">
            <path d="M0,11.721L-9.397,2.405C-11.774,4.543 -13.783,6.441 -15.423,8.094C-19.754,12.463 -22.573,16.038 -23.88,18.817C-25.972,23.257 -25.362,27.117 -22.047,30.405C-17.073,35.334 -10.584,33.76 -2.572,25.68C0.144,22.943 1.775,20.646 2.326,18.806C3.055,16.342 2.282,13.981 0,11.721M-27.777,-15.821C-31.101,-19.12 -34.89,-20.568 -39.137,-20.172L-25.428,-33.998C-25.845,-29.697 -24.395,-25.902 -21.074,-22.611L9.187,7.392C12.438,10.617 16.218,12.005 20.511,11.55C20.018,12.048 19.297,12.778 18.346,13.741C17.394,14.697 16.67,15.426 16.18,15.922C13.686,18.434 10.411,21.885 6.354,26.277L1.017,32.047C0.499,32.568 -0.043,33.112 -0.606,33.681C-11.275,44.443 -20.743,45.719 -29.011,37.523C-34.288,32.291 -34.801,25.575 -30.559,17.372C-33.977,19.012 -37.004,19.676 -39.642,19.362C-41.896,19.098 -44.645,17.95 -47.881,15.916C-50.286,13.862 -54.078,11.159 -59.255,7.809C-61.434,6.78 -63.679,6.479 -65.99,6.912L-57.938,-1.209C-56.593,-2.217 -55.086,-2.225 -53.419,-1.23C-52.278,-0.566 -50.616,0.835 -48.435,2.974C-46.252,5.115 -44.571,6.606 -43.393,7.446C-39.175,10.363 -35.186,11.387 -31.418,10.528C-28.06,9.775 -24.329,7.332 -20.229,3.196C-19.6,2.556 -18.67,1.556 -17.444,0.193C-16.22,-1.174 -15.29,-2.174 -14.658,-2.813L-27.777,-15.821Z" style="fill:rgb(10,96,169);"/>
        </g>
        <g transform="matrix(1,0,0,1,376.108,978.844)">
            <path d="M0,-24.964L-6.356,-24.964C-8.459,-24.964 -10.184,-24.482 -11.531,-23.522L-11.531,-32.838C-9.633,-32.025 -7.882,-31.618 -6.28,-31.618C-0.588,-31.618 2.258,-34.527 2.258,-40.341C2.258,-41.95 1.927,-43.439 1.266,-44.813L10.091,-44.813C9.425,-42.878 9.094,-40.53 9.094,-37.766L9.094,8.97C9.094,13.577 10.701,17.204 13.916,19.849L-4.863,19.849C-1.621,17.237 0,13.612 0,8.98L0,-24.964Z" style="fill:rgb(10,96,169);"/>
        </g>
        <g transform="matrix(1,0,0,1,453.624,992.748)">
            <path d="M0,-51.646C-4.9,-51.646 -8.709,-50.383 -11.419,-47.859C-14.13,-45.334 -15.488,-41.829 -15.488,-37.345C-15.488,-32.83 -14.13,-29.341 -11.419,-26.874C-8.709,-24.408 -4.868,-23.177 0.098,-23.177C5.031,-23.177 8.839,-24.416 11.517,-26.899C14.198,-29.376 15.537,-32.859 15.537,-37.345C15.537,-41.829 14.174,-45.334 11.444,-47.859C8.717,-50.383 4.9,-51.646 0,-51.646M15.732,-23.177C11.024,-18.303 5.142,-15.867 -1.919,-15.867C-8.785,-15.867 -14.317,-17.775 -18.516,-21.594C-22.717,-25.411 -24.818,-30.438 -24.818,-36.675C-24.818,-43.536 -22.495,-48.957 -17.854,-52.939C-13.312,-56.832 -7.232,-58.778 0.385,-58.778C9.538,-58.778 16.32,-55.552 20.733,-49.106C24.36,-43.815 26.173,-36.759 26.173,-27.937C26.173,-17.807 24.213,-9.784 20.291,-3.873C15.42,3.465 7.771,7.132 -2.656,7.132C-4.256,7.132 -6.608,6.858 -9.715,6.317C-12.821,5.772 -15.174,5.498 -16.775,5.498C-19.063,5.498 -21.075,6.042 -22.806,7.132L-22.806,-14.603C-17.51,-4.827 -11.089,0.061 -3.537,0.061C3.196,0.061 8.229,-2.409 11.563,-7.345C14.244,-11.365 15.632,-16.645 15.732,-23.177" style="fill:rgb(10,96,169);"/>
        </g>
        <g transform="matrix(1,0,0,1,537.269,992.748)">
            <path d="M0,-51.646C-4.9,-51.646 -8.709,-50.383 -11.419,-47.859C-14.13,-45.334 -15.487,-41.829 -15.487,-37.345C-15.487,-32.83 -14.13,-29.341 -11.419,-26.874C-8.709,-24.408 -4.868,-23.177 0.098,-23.177C5.03,-23.177 8.839,-24.416 11.517,-26.899C14.198,-29.376 15.537,-32.859 15.537,-37.345C15.537,-41.829 14.174,-45.334 11.444,-47.859C8.717,-50.383 4.9,-51.646 0,-51.646M15.732,-23.177C11.023,-18.303 5.142,-15.867 -1.919,-15.867C-8.785,-15.867 -14.317,-17.775 -18.516,-21.594C-22.717,-25.411 -24.817,-30.438 -24.817,-36.675C-24.817,-43.536 -22.494,-48.957 -17.854,-52.939C-13.312,-56.832 -7.231,-58.778 0.385,-58.778C9.538,-58.778 16.32,-55.552 20.733,-49.106C24.359,-43.815 26.176,-36.759 26.176,-27.937C26.176,-17.807 24.213,-9.784 20.291,-3.873C15.42,3.465 7.771,7.132 -2.656,7.132C-4.256,7.132 -6.608,6.858 -9.715,6.317C-12.818,5.772 -15.174,5.498 -16.775,5.498C-19.063,5.498 -21.074,6.042 -22.807,7.132L-22.807,-14.603C-17.51,-4.827 -11.089,0.061 -3.537,0.061C3.195,0.061 8.229,-2.409 11.563,-7.345C14.244,-11.365 15.632,-16.645 15.732,-23.177" style="fill:rgb(10,96,169);"/>
        </g>
        <g transform="matrix(1,0,0,1,621.634,993.284)">
            <path d="M0,-52.537C-4.052,-52.537 -7.318,-51.751 -9.801,-50.176C-12.645,-48.365 -14.064,-45.692 -14.064,-42.158C-14.064,-38.563 -12.661,-35.848 -9.853,-34.007C-7.367,-32.373 -4.084,-31.557 0,-31.557C4.117,-31.557 7.417,-32.373 9.899,-34.007C12.742,-35.848 14.163,-38.563 14.163,-42.158C14.163,-45.692 12.727,-48.365 9.854,-50.176C7.367,-51.751 4.083,-52.537 0,-52.537M0.02,-25.078C-4.903,-25.078 -8.831,-24.143 -11.764,-22.273C-15.122,-20.104 -16.8,-16.866 -16.8,-12.561C-16.8,-8.254 -15.122,-5.017 -11.764,-2.849C-8.831,-0.949 -4.903,-0.001 0.02,-0.001C4.941,-0.001 8.866,-0.949 11.802,-2.849C15.16,-5.017 16.838,-8.254 16.838,-12.561C16.838,-16.839 15.145,-20.058 11.753,-22.23C8.82,-24.13 4.909,-25.078 0.02,-25.078M14.467,-28.922C22.268,-26.008 26.168,-20.625 26.168,-12.776C26.168,-6.054 23.555,-1.015 18.326,2.346C13.784,5.26 7.674,6.716 -0.005,6.716C-7.651,6.716 -13.744,5.244 -18.287,2.301C-23.517,-1.058 -26.129,-6.083 -26.129,-12.776C-26.129,-20.625 -22.242,-26.008 -14.46,-28.922C-20.418,-31.422 -23.396,-35.864 -23.396,-42.258C-23.396,-48.118 -21.009,-52.517 -16.235,-55.462C-12.148,-57.987 -6.738,-59.253 0,-59.253C6.736,-59.253 12.165,-57.987 16.282,-55.462C21.092,-52.517 23.495,-48.118 23.495,-42.258C23.495,-35.894 20.484,-31.451 14.467,-28.922" style="fill:rgb(10,96,169);"/>
        </g>
        <g transform="matrix(1,0,0,1,641.018,638.902)">
            <path d="M0,-57.036C-12.241,-57.036 -23.013,-53.62 -32.212,-46.936L-93.918,-108.36C-97.113,-111.566 -102.896,-111.041 -106.102,-107.842C-109.311,-104.646 -109.858,-98.868 -106.665,-95.661L-44.513,-34.869C-45.716,-33.277 -46.839,-32.155 -47.871,-30.437L-208.62,-100.746L-235.473,-91.297L-54.189,-14.488C-55.222,-10.244 -55.783,-5.814 -55.783,-1.253C-55.783,29.555 -30.812,54.53 0,54.53C30.811,54.53 55.785,29.555 55.785,-1.253C55.785,-32.06 30.811,-57.036 0,-57.036" style="fill:white;"/>
        </g>
        <g transform="matrix(1,0,0,1,595.594,611.879)">
            <path d="M0,-1.944L1.903,-4.516L4.795,-8.141L2.906,-9.883L-59.247,-70.675C-61.171,-72.608 -60.902,-76.571 -58.667,-78.799C-57.504,-79.957 -55.767,-80.645 -54.023,-80.642C-52.605,-80.639 -51.359,-80.171 -50.516,-79.322C-50.508,-79.314 12.921,-16.177 12.921,-16.177L14.89,-17.606C23.611,-23.943 33.888,-27.158 45.424,-27.158C74.61,-27.158 98.355,-3.414 98.355,25.771C98.355,54.955 74.61,78.702 45.424,78.702C16.236,78.702 -7.508,54.955 -7.508,25.771C-7.508,21.561 -6.998,17.332 -5.995,13.21L-5.421,10.855C-5.421,10.855 -169.587,-58.701 -182.153,-64.027C-174.927,-66.572 -164.738,-70.152 -163.31,-70.657C-161.277,-69.767 -1.507,0.113 -1.507,0.113L0,-1.944ZM-62.692,-82.84C-65.036,-80.507 -66.224,-77.314 -66.224,-74.199C-66.224,-71.372 -65.245,-68.613 -63.261,-66.624C-63.236,-66.599 -13.105,-17.565 -2.908,-7.59C-3.041,-7.406 -3.163,-7.241 -3.385,-6.937C-7.443,-8.71 -163.084,-76.785 -163.084,-76.785L-197.942,-64.52C-197.942,-64.52 -16.07,12.538 -11.975,14.273C-12.736,18.073 -13.214,21.919 -13.214,25.771C-13.214,58.102 13.09,84.409 45.424,84.409C77.755,84.409 104.061,58.102 104.061,25.771C104.061,-6.56 77.755,-32.864 45.424,-32.864C33.54,-32.864 22.904,-29.632 13.643,-23.509C10.642,-26.497 -46.48,-83.358 -46.48,-83.358C-48.391,-85.277 -51.072,-86.34 -54.013,-86.348C-57.284,-86.353 -60.447,-85.077 -62.692,-82.84" style="fill:rgb(10,96,169);"/>
        </g>
        <g transform="matrix(1,0,0,1,743.891,486.6)">
            <path d="M0,-73.605C2.049,-67.813 -1.009,-61.389 -6.804,-59.339L-190.822,6.803C-196.614,8.853 -203.03,5.792 -205.085,0.002C-207.137,-5.792 -204.074,-12.212 -198.281,-14.264L-14.26,-80.406C-8.471,-82.458 -2.052,-79.395 0,-73.605" style="fill:white;"/>
        </g>
        <g transform="matrix(1,0,0,1,541.494,413.945)">
            <path d="M0,71.703C-0.739,69.621 -0.615,67.363 0.345,65.349C1.307,63.335 2.982,61.817 5.066,61.08C5.08,61.075 189.102,-5.068 189.102,-5.068C193.411,-6.594 198.174,-4.322 199.707,0.001C200.024,0.9 200.185,1.83 200.185,2.76C200.185,3.991 199.908,5.216 199.357,6.362C198.398,8.373 196.724,9.889 194.642,10.623C194.628,10.629 10.609,76.772 10.609,76.772C6.3,78.297 1.529,76.026 0,71.703M187.183,-10.443C187.171,-10.438 3.147,55.708 3.147,55.708C-0.357,56.949 -3.188,59.503 -4.806,62.893C-6.421,66.282 -6.624,70.09 -5.377,73.608C-2.794,80.897 5.239,84.727 12.528,82.147C12.539,82.141 196.558,15.998 196.558,15.998C200.062,14.76 202.893,12.209 204.511,8.821C206.126,5.43 206.332,1.621 205.085,-1.902C202.502,-9.193 194.471,-13.024 187.183,-10.443" style="fill:rgb(10,96,169);"/>
        </g>
        <g transform="matrix(1,0,0,1,657.338,496.951)">
            <path d="M0,14.501L-256.014,16.467C-260.541,16.507 -264.278,12.837 -264.324,8.308C-264.365,3.781 -260.689,0.04 -256.166,0L-0.149,-1.966C4.377,-2.006 4.529,14.466 0,14.501" style="fill:white;"/>
        </g>
        <g transform="matrix(1,0,0,1,394.916,503.206)">
            <path d="M0,2.033C-0.033,-1.455 2.784,-4.323 6.275,-4.355L262.289,-6.318C262.706,-6.131 263.809,-4.027 263.841,0.012L263.841,0.201C263.841,4.088 262.817,6.132 262.373,6.345C262.307,6.345 6.391,8.308 6.391,8.308C2.9,8.341 0.035,5.524 0,2.033M262.255,-10.121L6.242,-8.158C0.65,-8.107 -3.854,-3.518 -3.803,2.068C-3.749,7.661 0.84,12.162 6.424,12.111C6.427,12.111 262.434,10.149 262.434,10.149C263.292,10.14 264.904,9.815 266.105,7.696C268.235,3.93 268.165,-4 265.966,-7.73C264.73,-9.831 263.11,-10.129 262.255,-10.121" style="fill:rgb(10,96,169);"/>
        </g>
        <g transform="matrix(0,-1,-1,0,359.549,465.223)">
            <path d="M-48.175,-48.183C-74.788,-48.183 -96.356,-26.615 -96.356,-0.002C-96.356,26.608 -74.788,48.175 -48.175,48.175C-21.571,48.175 -0.002,26.608 -0.002,-0.002C-0.002,-26.615 -21.571,-48.183 -48.175,-48.183" style="fill:white;"/>
        </g>
        <g transform="matrix(1,0,0,1,315.178,513.404)">
            <path d="M0,-0.007C0,-24.471 19.906,-44.378 44.375,-44.378C68.842,-44.378 88.751,-24.471 88.751,-0.007C88.751,24.465 68.842,44.371 44.375,44.371C19.906,44.371 0,24.465 0,-0.007M-7.608,-0.007C-7.608,28.658 15.713,51.979 44.375,51.979C73.038,51.979 96.357,28.658 96.357,-0.007C96.357,-28.667 73.038,-51.986 44.375,-51.986C15.713,-51.986 -7.608,-28.667 -7.608,-0.007" style="fill:rgb(10,96,169);"/>
        </g>
        <g transform="matrix(1,0,0,1,487.923,481.113)">
            <path d="M0,-175.667L-97.875,2.982C-100.488,7.782 -106.557,9.571 -111.363,6.96C-116.166,4.342 -117.96,-1.724 -115.342,-6.529L-17.434,-185.238L0,-175.667Z" style="fill:white;"/>
        </g>
        <g transform="matrix(1,0,0,1,370.08,315.243)">
            <path d="M0,157.968C-3.377,164.167 -1.082,171.958 5.115,175.335C11.319,178.706 19.101,176.408 22.473,170.215L120.343,-8.427L115.342,-11.169L17.467,167.483C15.594,170.919 11.279,172.191 7.842,170.326C4.41,168.452 3.136,164.137 5.006,160.706L102.911,-17.997L97.91,-20.738L0,157.968Z" style="fill:rgb(10,96,169);"/>
        </g>
        <g transform="matrix(1,0,0,1,197.863,525.328)">
            <path d="M0,88.77C-2.483,84.981 -1.423,79.852 2.363,77.364L127.265,-2.356C131.049,-4.844 136.178,-3.777 138.668,0.005C141.151,3.789 140.092,8.922 136.305,11.408L11.401,91.13C7.619,93.614 2.488,92.551 0,88.77" style="fill:white;"/>
        </g>
        <g transform="matrix(1,0,0,1,199.367,529.845)">
            <path d="M0,79.739C0,77.983 0.854,76.261 2.423,75.232L127.295,-4.466C129.805,-6.116 133.147,-5.425 134.782,-2.943C136.408,-0.465 135.714,2.877 133.234,4.506L8.362,84.207C5.852,85.857 2.51,85.163 0.881,82.686C0.285,81.778 0,80.751 0,79.739M124.194,-9.255L-0.678,70.442C-5.814,73.814 -7.24,80.702 -3.89,85.816L-3.887,85.819C-0.528,90.926 6.356,92.351 11.463,88.996L136.334,9.296C141.474,5.921 142.902,-0.967 139.549,-6.079C136.183,-11.188 129.295,-12.612 124.194,-9.255" style="fill:rgb(10,96,169);"/>
        </g>
        <g transform="matrix(1,0,0,1,558.606,462.431)">
            <path d="M0,-197.533C0,-228.341 -24.976,-253.313 -55.786,-253.313C-86.594,-253.313 -111.569,-228.341 -111.569,-197.533C-111.569,-169.394 -90.736,-146.136 -63.655,-142.311L-55.455,45.667C-55.179,51.358 -50.292,55.78 -44.603,55.504C-38.918,55.219 -34.489,50.341 -34.771,44.654L-42.965,-143.246C-18.337,-149.042 0,-171.138 0,-197.533" style="fill:white;"/>
        </g>
        <g transform="matrix(1,0,0,1,509.098,214.796)">
            <path d="M0,297.638C-1.301,296.456 -2.063,294.854 -2.146,293.119L-10.481,101.999L-13.612,101.557C-39.064,97.963 -58.257,75.842 -58.257,50.103C-58.257,21.442 -34.938,-1.874 -6.277,-1.874C22.384,-1.874 45.703,21.442 45.703,50.103C45.703,74.341 29.241,95.141 5.671,100.687L2.605,101.408L10.938,292.455C11.116,296.081 8.324,299.161 4.717,299.34C2.979,299.424 1.304,298.82 0,297.638M-65.863,50.103C-65.863,78.534 -45.41,103.059 -17.813,108.496C-17.559,114.321 -9.744,293.469 -9.744,293.469C-9.563,297.25 -7.917,300.728 -5.111,303.27C-2.301,305.821 1.323,307.121 5.094,306.941C12.656,306.561 18.554,300.291 18.554,292.808C18.554,292.572 18.549,292.335 18.538,292.103C18.538,292.103 11.482,130.362 10.466,107.095C35.801,99.689 53.312,76.799 53.312,50.103C53.312,17.248 26.58,-9.483 -6.277,-9.483C-39.135,-9.483 -65.863,17.248 -65.863,50.103" style="fill:rgb(10,96,169);"/>
        </g>
        <g transform="matrix(1,0,0,1,511.694,589.876)">
            <path d="M0,-153.812C-35.708,-153.812 -64.66,-124.864 -64.66,-89.155C-64.66,-87.144 -64.554,-85.156 -64.373,-83.191L-245.482,-23.205L-234.635,0L-57.219,-59.049C-46.388,-38.506 -24.836,-24.498 0,-24.498C35.714,-24.498 64.66,-53.443 64.66,-89.155C64.66,-124.864 35.714,-153.812 0,-153.812" style="fill:white;"/>
        </g>
        <g transform="matrix(1,0,0,1,451.258,517.429)">
            <path d="M0,-8.042L-0.417,-16.708C-0.417,-50.262 26.88,-77.56 60.437,-77.56C93.993,-77.56 121.294,-50.262 121.294,-16.708C121.294,16.847 93.993,44.146 60.437,44.146C37.793,44.146 17.158,31.684 6.581,11.626L5.077,8.769C5.077,8.769 -165.994,65.706 -172.187,67.77C-173.93,64.037 -177.673,56.032 -179.788,51.509C-172.024,48.937 0,-8.042 0,-8.042M-8.026,-16.708C-8.026,-16.708 -7.947,-15.076 -7.872,-13.446C-13.179,-11.688 -190.302,46.977 -190.302,46.977L-176.212,77.126C-176.212,77.126 -3.941,19.789 1.572,17.954C13.873,38.829 36.063,51.753 60.437,51.753C98.189,51.753 128.902,21.042 128.902,-16.708C128.902,-54.457 98.189,-85.168 60.437,-85.168C22.687,-85.168 -8.026,-54.457 -8.026,-16.708" style="fill:rgb(10,96,169);"/>
        </g>
        <g transform="matrix(1,0,0,1,834.545,274.58)">
            <path d="M0,132.782C-2.47,138.411 -9.092,141 -14.722,138.533L-295.089,14.716C-300.716,12.249 -303.302,5.627 -300.841,-0.003C-298.374,-5.633 -291.747,-8.218 -286.12,-5.752L-5.747,118.066C-0.122,120.533 2.466,127.154 0,132.782" style="fill:white;"/>
        </g>
        <g transform="matrix(1,0,0,1,821.35,272.311)">
            <path d="M0,137.32L-280.359,13.507C-284.089,11.873 -285.789,7.515 -284.16,3.793C-283.376,2.001 -281.929,0.619 -280.086,-0.102C-278.242,-0.82 -276.242,-0.785 -274.45,0.001L5.912,123.816C7.712,124.604 9.094,126.049 9.813,127.893C10.156,128.771 10.327,129.684 10.327,130.594C10.327,131.592 10.121,132.587 9.709,133.522C8.926,135.317 7.479,136.702 5.636,137.42C3.792,138.141 1.794,138.103 0,137.32M-282.854,-7.187C-286.591,-5.726 -289.529,-2.913 -291.128,0.741C-294.438,8.306 -290.979,17.156 -283.422,20.471L-3.063,144.283C0.597,145.887 4.665,145.966 8.397,144.508C12.135,143.05 15.076,140.234 16.678,136.577C19.993,129.017 16.537,120.168 8.975,116.852L-271.388,-6.963C-275.05,-8.567 -279.118,-8.646 -282.854,-7.187" style="fill:rgb(10,96,169);"/>
        </g>
        <g transform="matrix(1,0,0,1,528.302,544.358)">
            <path d="M0,195.869C-6.131,196.246 -17.927,191.534 -18.299,185.4L-23.735,11.839C-24.112,5.702 -17.783,0.379 -11.652,0C-5.516,-0.377 -0.189,4.339 0.182,10.471L10.472,184.04C10.845,190.169 6.135,195.494 0,195.869" style="fill:white;"/>
        </g>
        <g transform="matrix(1,0,0,1,508.366,728.569)">
            <path d="M0,-172.491C-0.241,-176.513 4.483,-180.164 8.517,-180.414C10.468,-180.533 12.36,-179.877 13.84,-178.568C15.322,-177.256 16.203,-175.462 16.323,-173.51L26.609,0.052C26.729,2.011 26.072,3.898 24.764,5.378C23.451,6.861 21.657,7.744 19.703,7.863C16.382,8.064 10.254,6.158 7.025,3.302C6.053,2.437 5.473,1.586 5.435,0.959C5.435,0.91 0,-172.491 0,-172.491M8.048,-188.006C0.235,-187.523 -8.115,-180.637 -7.598,-172.141C-7.598,-172.087 -2.166,1.309 -2.166,1.309C-1.995,4.123 -0.563,6.741 1.984,8.996C6.993,13.431 15.163,15.762 20.169,15.455C24.148,15.211 27.805,13.423 30.461,10.419C33.117,7.418 34.445,3.575 34.202,-0.404L23.915,-173.966C23.674,-177.953 21.885,-181.609 18.882,-184.265C15.878,-186.922 12.029,-188.253 8.048,-188.006" style="fill:rgb(10,96,169);"/>
        </g>
        <g transform="matrix(1,0,0,1,246.411,358.591)">
            <path d="M0,147.155L64.549,0.586C66.98,-5.055 73.586,-7.687 79.227,-5.259C84.873,-2.827 87.507,3.779 85.073,9.425L21.031,154.842L0,147.155Z" style="fill:white;"/>
        </g>
        <g transform="matrix(1,0,0,1,308.342,504.189)">
            <path d="M0,-146.14L-64.541,0.407L-59.32,2.706L5.229,-143.864C7.053,-148.098 11.956,-150.049 16.168,-148.236C18.201,-147.36 19.776,-145.737 20.6,-143.66C21.424,-141.586 21.397,-139.331 20.524,-137.301L-43.51,8.095L-38.287,10.393L25.753,-135.024C27.241,-138.472 27.29,-142.28 25.902,-145.769C24.514,-149.26 21.858,-151.998 18.426,-153.475C11.325,-156.533 3.058,-153.244 0,-146.14" style="fill:rgb(10,96,169);"/>
        </g>
        <g transform="matrix(1,0,0,1,478.097,333.12)">
            <path d="M0,-61.787C1.396,-57.016 -0.444,-52.384 -4.751,-50.839L-169.259,6.4C-173.566,7.947 -178.231,5.308 -179.63,0.539C-181.026,-4.231 -178.644,-9.403 -174.339,-10.951L-9.831,-68.189C-5.523,-69.734 -1.398,-66.557 0,-61.787" style="fill:white;"/>
        </g>
        <g transform="matrix(1,0,0,1,304.165,267.962)">
            <path d="M0,68.619C-1.396,67.909 -2.475,66.551 -2.96,64.895C-3.927,61.591 -2.314,57.927 0.559,56.893L165.037,-0.337C166.051,-0.7 167.032,-0.637 167.972,-0.155C169.412,0.574 170.615,2.192 171.195,4.171C172.193,7.578 170.965,10.647 168.216,11.633L3.735,68.863C2.497,69.308 1.179,69.219 0,68.619M163.137,-5.717L-1.344,51.513C-7.083,53.576 -10.251,60.292 -8.435,66.497C-7.508,69.66 -5.375,72.286 -2.585,73.707C0.011,75.024 2.93,75.214 5.638,74.241L170.117,17.014C175.782,14.981 178.527,8.911 176.67,2.569C175.641,-0.941 173.415,-3.787 170.561,-5.243C168.23,-6.427 165.593,-6.595 163.137,-5.717" style="fill:rgb(10,96,169);"/>
        </g>
        <g transform="matrix(0,-1,-1,0,789.354,333.367)">
            <path d="M-65.923,-65.929C-102.337,-65.929 -131.852,-36.413 -131.852,-0.003C-131.852,36.408 -102.337,65.923 -65.923,65.923C-29.515,65.923 -0,36.408 -0,-0.003C-0,-36.413 -29.515,-65.929 -65.923,-65.929" style="fill:white;"/>
        </g>
        <g transform="matrix(1,0,0,1,727.234,399.296)">
            <path d="M0,-0.006C0,-34.259 27.867,-62.123 62.123,-62.123C96.376,-62.123 124.246,-34.259 124.246,-0.006C124.246,34.25 96.376,62.117 62.123,62.117C27.867,62.117 0,34.25 0,-0.006M-7.605,-0.006C-7.605,38.443 23.674,69.726 62.123,69.726C100.571,69.726 131.854,38.443 131.854,-0.006C131.854,-38.452 100.571,-69.732 62.123,-69.732C23.674,-69.732 -7.605,-38.452 -7.605,-0.006" style="fill:rgb(10,96,169);"/>
        </g>
        <g transform="matrix(1,0,0,1,523.754,562.454)">
            <path d="M0,171.877L-246.838,52.384C-245.868,47.881 -245.345,43.216 -245.345,38.427C-245.345,2.019 -274.86,-27.496 -311.273,-27.496C-347.684,-27.496 -377.202,2.019 -377.202,38.427C-377.202,74.84 -347.684,104.356 -311.273,104.356C-289.271,104.356 -269.805,93.57 -257.827,77.012L-11.753,196.143C-5.077,199.373 3.025,196.554 6.253,189.878C9.481,183.21 6.671,175.106 0,171.877" style="fill:white;"/>
        </g>
        <g transform="matrix(1,0,0,1,525.41,564.536)">
            <path d="M0,166.375L0,166.372L0,166.375ZM-375.052,36.345C-375.052,2.092 -347.183,-25.775 -312.93,-25.775C-278.674,-25.775 -250.804,2.092 -250.804,36.345C-250.804,40.739 -251.278,45.162 -252.213,49.499L-252.842,52.421L-3.315,173.222C-1.003,174.339 0.737,176.301 1.586,178.752C2.442,181.201 2.293,183.825 1.174,186.141C0.054,188.455 -1.914,190.197 -4.364,191.052C-6.814,191.903 -9.438,191.757 -11.753,190.637L-260.697,70.115L-262.565,72.698C-274.233,88.834 -293.061,98.468 -312.93,98.468C-347.183,98.468 -375.052,70.601 -375.052,36.345M-382.661,36.345C-382.661,74.794 -351.378,106.076 -312.93,106.076C-291.708,106.076 -271.634,96.204 -258.447,79.656C-253.178,82.207 -15.065,197.481 -15.065,197.481C-10.924,199.486 -6.237,199.756 -1.865,198.237C2.505,196.717 6.018,193.597 8.023,189.452C9.167,187.083 9.744,184.535 9.744,181.969C9.744,180.05 9.422,178.123 8.771,176.252C7.253,171.886 4.139,168.375 0,166.372C-0.003,166.372 -239.314,50.521 -244.293,48.106C-243.626,44.208 -243.195,40.272 -243.195,36.345C-243.195,-2.104 -274.478,-33.381 -312.93,-33.381C-351.378,-33.381 -382.661,-2.104 -382.661,36.345" style="fill:rgb(10,96,169);"/>
        </g>
        <g transform="matrix(1,0,0,1,486.134,278.772)">
            <path d="M0,177.192L-88.006,90.612C-79.582,79.087 -74.6,64.889 -74.6,49.521C-74.6,11.009 -105.817,-20.208 -144.331,-20.208C-182.842,-20.208 -214.062,11.009 -214.062,49.521C-214.062,88.032 -182.842,119.252 -144.331,119.252C-129.255,119.252 -115.309,114.451 -103.906,106.32L-15.724,193.073C-11.354,197.4 -4.245,197.359 0.081,192.992C4.402,188.626 4.364,181.516 0,177.192" style="fill:white;"/>
        </g>
        <g transform="matrix(1,0,0,1,275.875,405.356)">
            <path d="M0,-77.063C0,-113.414 29.575,-142.989 65.928,-142.989C102.282,-142.989 131.857,-113.414 131.857,-77.063C131.857,-62.993 127.474,-49.56 119.183,-38.216L117.244,-35.562C117.244,-35.562 207.565,53.294 207.584,53.314C209.037,54.75 209.763,56.65 209.763,58.55C209.763,60.424 209.056,62.299 207.635,63.733C206.259,65.124 204.41,65.896 202.431,65.907C200.455,65.915 198.601,65.164 197.213,63.787C197.205,63.779 106.747,-25.216 106.747,-25.216L104.147,-23.362C92.931,-15.363 79.714,-11.138 65.928,-11.138C29.575,-11.138 0,-40.712 0,-77.063M-7.606,-77.063C-7.606,-36.519 25.381,-3.529 65.928,-3.529C80.215,-3.529 93.871,-7.763 105.782,-15.491C109.777,-11.56 191.868,69.203 191.868,69.203C194.692,71.998 198.458,73.532 202.466,73.513C206.478,73.494 210.235,71.922 213.043,69.086C215.927,66.17 217.366,62.359 217.366,58.55C217.366,54.688 215.889,50.831 212.935,47.906C212.935,47.906 131.174,-32.529 127.076,-36.562C135.08,-48.616 139.465,-62.491 139.465,-77.063C139.465,-117.61 106.475,-150.595 65.928,-150.595C25.381,-150.595 -7.606,-117.61 -7.606,-77.063" style="fill:rgb(10,96,169);"/>
        </g>
        <g transform="matrix(1,0,0,1,677.596,349.134)">
            <path d="M0,124.94C-2.946,131.741 -10.921,134.901 -17.724,131.952L-281.519,17.719C-288.32,14.773 -289.857,6.795 -286.913,-0.005C-283.967,-6.809 -277.608,-9.961 -270.807,-7.017L-7.009,107.218C-0.211,110.165 2.944,118.139 0,124.94" style="fill:white;"/>
        </g>
        <g transform="matrix(1,0,0,1,661.385,343.808)">
            <path d="M0,133.789C0,133.787 -263.795,19.557 -263.795,19.557C-268.729,17.417 -269.247,11.536 -267.211,6.831C-265.476,2.827 -261.649,-0.599 -256.106,1.797L7.689,116.033C12.582,118.155 14.84,123.861 12.72,128.753C11.698,131.111 9.807,132.935 7.392,133.892C4.981,134.846 2.355,134.809 0,133.789L19.7,131.778L0,133.789ZM-274.193,3.808C-278.251,13.186 -275.083,22.955 -266.821,26.536L-3.025,140.769C1.195,142.599 5.89,142.666 10.191,140.967C14.493,139.265 17.87,136.001 19.7,131.778C20.665,129.547 21.126,127.222 21.126,124.934C21.126,118.25 17.225,111.874 10.712,109.053L-253.084,-5.183C-261.619,-8.877 -270.298,-5.177 -274.193,3.808" style="fill:rgb(10,96,169);"/>
        </g>
        <g transform="matrix(1,0,0,1,795.282,531.657)">
            <path d="M0,-134.728C6.541,-131.236 9.037,-123.029 5.543,-116.489L-56.64,-3.041C-60.134,3.491 -83.907,-9.203 -80.416,-15.74L-18.233,-129.19C-14.742,-135.725 -6.538,-138.219 0,-134.728" style="fill:white;"/>
        </g>
        <g transform="matrix(1,0,0,1,780.385,520.337)">
            <path d="M0,-116.044C2.532,-120.782 8.4,-122.565 13.105,-120.053C15.375,-118.841 17.036,-116.808 17.792,-114.323C18.077,-113.385 18.218,-112.428 18.218,-111.477C18.218,-109.913 17.839,-108.371 17.085,-106.964C17.085,-106.964 -41.991,0.819 -44.935,6.191C-45.902,6.524 -49.562,6.09 -54.457,3.475C-59.36,0.856 -61.748,-1.938 -62.003,-2.925C-58.675,-8.994 0,-116.044 0,-116.044L16.689,-126.764L0,-116.044ZM-6.689,-119.665L-68.855,-6.248C-71.596,-1.123 -67.448,5.158 -58.051,10.181C-48.646,15.206 -41.11,15.165 -38.387,10.072L23.774,-103.342C25.138,-105.896 25.829,-108.674 25.829,-111.474C25.829,-113.169 25.577,-114.868 25.073,-116.534C23.729,-120.961 20.75,-124.596 16.689,-126.764C8.286,-131.25 -2.203,-128.065 -6.689,-119.665" style="fill:rgb(10,96,169);"/>
        </g>
        <g transform="matrix(1,0,0,1,267.442,555.258)">
            <path d="M0,-41.824L-18.161,-0.586C-20.589,5.057 -27.195,7.687 -32.838,5.261C-38.487,2.832 -41.116,-3.779 -38.685,-9.42L-21.031,-49.511L0,-41.824Z" style="fill:white;"/>
        </g>
        <g transform="matrix(1,0,0,1,226.144,526.101)">
            <path d="M0,18.585C-1.485,22.038 -1.531,25.849 -0.144,29.337C1.247,32.826 3.903,35.564 7.332,37.038C14.437,40.09 22.701,36.797 25.758,29.697L43.911,-11.519L38.688,-13.817L20.527,27.421C18.706,31.655 13.802,33.606 9.587,31.796C7.557,30.923 5.985,29.299 5.158,27.229C4.332,25.152 4.358,22.892 5.231,20.864L22.877,-19.206L17.657,-21.505L0,18.585Z" style="fill:rgb(10,96,169);"/>
        </g>
        <g transform="matrix(0,-1,-1,0,526.908,688.362)">
            <path d="M-65.928,-65.932C-102.34,-65.932 -131.859,-36.414 -131.859,-0.001C-131.859,36.41 -102.34,65.928 -65.928,65.928C-29.518,65.928 -0,36.41 -0,-0.001C-0,-36.414 -29.518,-65.932 -65.928,-65.932" style="fill:white;"/>
        </g>
        <g transform="matrix(1,0,0,1,464.783,754.294)">
            <path d="M0,-0.004C0,-34.258 27.87,-62.125 62.126,-62.125C96.382,-62.125 124.251,-34.258 124.251,-0.004C124.251,34.252 96.382,62.121 62.126,62.121C27.87,62.121 0,34.252 0,-0.004M-7.605,-0.004C-7.605,38.447 23.674,69.729 62.126,69.729C100.577,69.729 131.859,38.447 131.859,-0.004C131.859,-38.451 100.577,-69.733 62.126,-69.733C23.674,-69.733 -7.605,-38.451 -7.605,-0.004" style="fill:rgb(10,96,169);"/>
        </g>
        <g transform="matrix(1,0,0,1,733.379,732.993)">
            <path d="M0,-311.257C-46.215,-311.257 -83.677,-273.792 -83.677,-227.583C-83.677,-206.733 -76.036,-187.68 -63.421,-173.028L-188.093,-24.989C-193.01,-18.866 -192.02,-9.829 -185.895,-4.915C-179.766,0 -170.731,-0.99 -165.817,-7.113L-40.585,-154.403C-28.563,-147.722 -14.729,-143.903 0,-143.903C46.215,-143.903 83.68,-181.368 83.68,-227.583C83.68,-273.792 46.215,-311.257 0,-311.257" style="fill:white;"/>
        </g>
        <g transform="matrix(1,0,0,1,672.866,592.797)">
            <path d="M0,-30.381L2.087,-32.859L-0.024,-35.315C-12.495,-49.797 -19.361,-68.291 -19.361,-87.387C-19.361,-131.428 16.469,-167.258 60.513,-167.258C104.557,-167.258 140.39,-131.428 140.39,-87.387C140.39,-43.343 104.557,-7.51 60.513,-7.51C46.966,-7.51 33.57,-10.977 21.776,-17.533L19.05,-19.049L-108.202,130.619C-111.886,135.205 -118.494,135.93 -123.005,132.316C-125.17,130.573 -126.533,128.077 -126.84,125.285C-127.146,122.491 -126.354,119.759 -124.614,117.59C-124.669,117.655 0,-30.381 0,-30.381M-26.97,-87.387C-26.97,-67.559 -20.142,-48.376 -7.81,-32.918C-11.666,-28.341 -130.488,112.76 -130.488,112.76C-133.128,116.045 -134.514,119.997 -134.514,124.1C-134.514,124.767 -134.476,125.439 -134.402,126.112C-133.876,130.929 -131.516,135.235 -127.765,138.25C-119.982,144.483 -108.576,143.234 -102.337,135.463C-102.337,135.463 5.529,8.601 20.939,-9.527C33.163,-3.309 46.738,0.097 60.513,0.097C108.752,0.097 147.995,-39.148 147.995,-87.387C147.995,-135.621 108.752,-174.864 60.513,-174.864C12.276,-174.864 -26.97,-135.621 -26.97,-87.387" style="fill:rgb(10,96,169);"/>
        </g>
        <g transform="matrix(0.460706,-0.887553,-0.887553,-0.460706,474.455,324.036)">
            <path d="M0.7,13.747L22.851,13.747L23.292,-0.806L-0.244,0.228L0.7,13.747Z" style="fill:white;"/>
        </g>
        <g transform="matrix(0.0205123,0.99979,0.99979,-0.0205123,520.379,431.472)">
            <path d="M-2.804,-16.548L13.577,-16.548L16.891,-2.862L-2.142,-3.958L-2.804,-16.548Z" style="fill:white;"/>
        </g>
        <g transform="matrix(-0.951442,0.307827,0.307827,0.951442,266.901,593.858)">
            <path d="M-22.021,-22.295L6.339,-22.295L4.264,-3.715L-25.286,-4.843L-22.021,-22.295Z" style="fill:white;"/>
        </g>
    </g>
</svg>
