<?xml version="1.0" encoding="utf-8"?>
<!-- Generator: Adobe Illustrator 21.0.0, SVG Export Plug-In . SVG Version: 6.00 Build 0)  -->
<svg version="1.1" id="logos" xmlns="http://www.w3.org/2000/svg" xmlns:xlink="http://www.w3.org/1999/xlink" x="0px" y="0px"
	 viewBox="0 0 255.1 124.9" style="enable-background:new 0 0 255.1 124.9;" xml:space="preserve">
<style type="text/css">
	.st0{fill:#0F1031;}
</style>
<g>
	<g>
		<path class="st0" d="M236.7,74.7l17.9-28.3h-12.4l-16.5,26.1c-0.4,1-0.7,1.8-0.7,2.4c0,0.4,0.2,1.8,2.6,5.4l12.4,19.6
			c1.7,2.6,4.6,4.2,7.7,4.2h7.5L236.7,74.7z"/>
	</g>
	<g>
		<path class="st0" d="M208.3,46.4v42.9l-23-36.8c-2.3-3.7-6.4-6-10.8-6h-0.1H168h-16.2c-8.6,0-15.4,6.8-15.4,15.2
			c0,7.7,4.9,13.8,11.5,15.2l12.9,2.9c3.7,0.9,6.4,4.1,6.1,8.1c-0.3,4.1-4,7.2-8.1,7.2H140l-5.7,9.1h25.9c9.4,0,17.4-7.4,17.5-16.9
			c0.1-8.2-5.5-15-13.2-16.7l-13.2-2.9c-2.2-0.5-4.1-2.4-4.1-4.8v-2.5c0-2.7,2.1-4.9,5.5-4.9h14.4c4.1,0,7.9,2.1,10,5.5l27.2,43.1
			h9.7c3.2,0,5.8-2.6,5.8-5.8V46.4H208.3z"/>
	</g>
</g>
<g>
	<path class="st0" d="M20.6,34.3v8c0,0.5,0,1.1-0.1,1.6c-0.1,0.5-0.2,1-0.4,1.5c-0.2,0.5-0.4,1-0.7,1.4s-0.6,0.9-1,1.2
		c-1.9,1.9-3.6,3.9-5.1,6.1c-1.5,2.2-2.8,4.6-3.8,7c-1,2.5-1.9,5.1-2.4,7.8s-0.8,5.5-0.8,8.3c0,1.9,0.1,3.7,0.4,5.5
		c0.2,1.8,0.6,3.5,1.1,5.3c0.5,1.7,1,3.4,1.7,5s1.4,3.2,2.3,4.7c0.4,0.7,0.8,1.4,1.1,2.2s0.6,1.5,0.8,2.3c0.2,0.8,0.4,1.6,0.5,2.4
		s0.2,1.6,0.2,2.4v3.9c0,0,0,0,0,0c0,0,0,0,0,0c0,0,0,0,0,0c0,0,0,0,0,0c-2.2-2.1-4.2-4.5-5.9-7S5,98.8,3.8,96S1.6,90.1,1,87
		c-0.6-3.1-1-6.4-1-9.7c0-3.4,0.4-6.7,1-9.8c0.7-3.2,1.7-6.2,2.9-9.1s2.8-5.7,4.6-8.2c1.8-2.6,3.8-5,6.1-7.1c0.3-0.3,0.6-0.6,0.9-1
		c0.3-0.3,0.6-0.7,0.9-1s0.5-0.7,0.8-1.1c0.3-0.4,0.5-0.8,0.7-1.1L20.6,34.3z"/>
</g>
<g>
	<path class="st0" d="M74.7,34.3l2.6,4.4c0.2,0.4,0.5,0.8,0.7,1.1c0.3,0.4,0.5,0.7,0.8,1.1s0.6,0.7,0.9,1c0.3,0.3,0.6,0.7,0.9,1
		c2.3,2.2,4.3,4.6,6.1,7.1c1.8,2.6,3.4,5.3,4.6,8.2s2.3,6,2.9,9.1c0.7,3.2,1,6.5,1,9.8c0,3.3-0.3,6.6-1,9.7c-0.6,3.1-1.6,6.1-2.8,9
		c-1.2,2.9-2.7,5.6-4.5,8.1s-3.7,4.9-5.9,7.1c0-0.1,0-0.1,0-0.1s0-0.1,0-0.1c0,0,0,0,0-0.1s0,0,0-0.1V107c0-0.8,0.1-1.6,0.2-2.4
		c0.1-0.8,0.3-1.6,0.5-2.4c0.2-0.8,0.5-1.5,0.8-2.3c0.3-0.7,0.7-1.5,1.1-2.2c0.9-1.5,1.6-3.1,2.3-4.7c0.7-1.6,1.2-3.3,1.7-5
		c0.5-1.7,0.8-3.5,1.1-5.3c0.2-1.8,0.4-3.6,0.4-5.5c0-2.8-0.3-5.6-0.8-8.3c-0.6-2.7-1.4-5.3-2.4-7.8s-2.3-4.8-3.8-7
		c-1.5-2.2-3.2-4.3-5-6.1c-0.4-0.4-0.7-0.8-1-1.3c-0.3-0.4-0.5-0.9-0.7-1.4c-0.2-0.5-0.3-1-0.4-1.5c-0.1-0.5-0.1-1.1-0.1-1.6V34.3z"
		/>
</g>
<g>
	<path class="st0" d="M29.3,7.6l1.9,3.3v35.4v26.6l2,2v7.6l-6.9,9.7v20.7v7.1c-0.3-0.1-0.5-0.3-0.8-0.4c-0.3-0.1-0.5-0.3-0.8-0.4
		s-0.5-0.3-0.8-0.4c-0.2-0.1-0.5-0.3-0.7-0.4c-0.6-0.4-1.2-0.8-1.7-1.4c-0.5-0.5-0.9-1.1-1.3-1.8c-0.4-0.6-0.6-1.3-0.8-2
		c-0.2-0.7-0.3-1.4-0.3-2.2l0-19.5c0-0.2,0-0.4,0.1-0.6s0.1-0.4,0.2-0.6s0.2-0.4,0.3-0.6c0.1-0.2,0.2-0.4,0.3-0.5l5.6-7.2l0-63.8
		h-2.3L29.3,7.6z"/>
</g>
<g>
	<path class="st0" d="M66,7.6L72,18h-2.3v63.8l5.6,7.2c0.1,0.2,0.2,0.3,0.3,0.5c0.1,0.2,0.2,0.4,0.3,0.6s0.1,0.4,0.2,0.6
		c0,0.2,0.1,0.4,0.1,0.6v19.5c0,0.7-0.1,1.5-0.3,2.2s-0.5,1.4-0.8,2c-0.4,0.6-0.8,1.2-1.3,1.8c-0.5,0.5-1.1,1-1.7,1.4
		c-0.2,0.1-0.5,0.3-0.7,0.4s-0.5,0.3-0.8,0.4c-0.3,0.1-0.5,0.3-0.8,0.4c-0.3,0.1-0.5,0.3-0.8,0.4v-7.1V92.1l-6.9-9.7l0-7.6l2-2V46.3
		V10.9L66,7.6z"/>
</g>
<g>
	<path class="st0" d="M59.1,0v70.8l-2,2V84l6.9,9.7v21.6v6.7c-1.3,0.5-2.6,0.9-3.9,1.2c-1.3,0.4-2.7,0.7-4,0.9
		c-1.4,0.2-2.8,0.4-4.2,0.6s-2.8,0.2-4.3,0.2c-1.4,0-2.9-0.1-4.3-0.2s-2.8-0.3-4.2-0.6c-1.4-0.2-2.7-0.5-4-0.9s-2.6-0.8-3.9-1.2
		v-6.7V93.7l6.9-9.7l0-11.2l-2-2V0L59.1,0z"/>
</g>
</svg>
