<?xml version="1.0" encoding="utf-8"?>
<!-- Generator: Adobe Illustrator 21.0.0, SVG Export Plug-In . SVG Version: 6.00 Build 0)  -->
<svg version="1.1" id="Réteg_1" xmlns="http://www.w3.org/2000/svg" xmlns:xlink="http://www.w3.org/1999/xlink" x="0px" y="0px"
	 viewBox="0 180.4 595.3 661.5" enable-background="new 0 180.4 595.3 661.5" xml:space="preserve">
<g>
	<path d="M283.8,768c-1.9-0.1-3.9-0.2-5.8-0.4l0,0C151.3,757.5,52.1,650,52.1,522.9c0-97.8,58-186.3,147.7-225.3
		c1.8-0.8,2.6-2.8,1.8-4.6s-2.8-2.6-4.6-1.8C104.8,331.3,45.1,422.2,45.1,522.9c0,63.9,23.9,124.9,67.4,171.7
		c43.2,46.6,101.7,75,164.8,80c0,0,0,0,0,0c2,0.2,4,0.3,6,0.4c0.1,0,0.1,0,0.2,0c1.8,0,3.4-1.4,3.5-3.3
		C287.2,769.7,285.7,768.1,283.8,768z"/>
	<path d="M476.2,344.3c-47.7-47.7-111.1-74-178.5-74c-15.2,0-30.5,1.4-45.3,4.1c-1.9,0.3-3.2,2.2-2.8,4.1c0.3,1.9,2.2,3.2,4.1,2.8
		c14.4-2.6,29.3-3.9,44.1-3.9c135.4,0,245.5,110.1,245.5,245.5c0,112.3-75.9,210.1-184.6,237.9c-2.7,0.7-5.4,1.3-8.1,1.9
		c-1.9,0.4-3.1,2.3-2.7,4.2c0.4,1.6,1.8,2.8,3.4,2.8c0.2,0,0.5,0,0.8-0.1c2.8-0.6,5.6-1.3,8.4-2c0,0,0,0,0,0
		c53.3-13.6,101.6-45.1,135.8-88.6c35.3-44.9,54-98.8,54-156.1C550.1,455.4,523.9,392,476.2,344.3z"/>
	<path d="M256.7,317.6l-0.5-0.6l-0.2-0.6l-0.5-0.7l-0.5-0.6l-0.8-0.8l-0.9-0.8l-0.4-0.5l-0.6-0.4l-0.8-0.4l-0.4-0.2l-0.4-0.2l-1-0.5
		l-0.4,0l-0.9-0.6l-0.5,0.2l-0.9-0.6l-1.2-0.1l-0.5-0.2l-1,0.1l-1.7,0l-0.7,0.1l-0.4,0.1l-0.1,0.7l-0.6,0l-0.1-0.8l-2.4,0.6
		l-0.6,0.1l-3,0.9l-0.9,0.3l-1.6,0.5l-1.7,0.7l-0.5,0.2l-2.4,1.1l-0.4,0.3l-0.4,0.3l-0.4,0.3l-0.7,0.1l-0.4,0.2l-1.2,0.7l-0.4,0.1
		l-0.3,0.2l-1.1,0.6l-1.2,0.5l-1.9,0.5l-0.6,0l-0.4-0.2l-1.5-1.1l-0.6-0.3l-3.3,0.4l-0.3,0.5l-0.7,0.7l-0.1,0.6l0.1,1.8l0.6,1.2
		l0.3,0.5l0.5,0.4l0.7,0.2l0.5,0.1l0.6,0.4l1.5,0.2l0.3-0.1l0.5,0.3l0.9,0.4l0.6,0.8l0.5,0.5l0.2,0.4l0.6,1.6l0.2,0.3l0.1,0.7
		l0.3,0.8l0.4,0.3l0.1,0.3l0.1,0.7l0.4,0.8l0.1,0.3l0.3,0.4l0.2,0.5l0.1,0.8l0.4,1.3l0.4,1.1l0.5,1.7l0.3,0.5l0.8,3l-0.1,0.7l1,3.2
		l0.1,0.6l-0.2,0.8l0.1,0.6l0.2,0.7l0.5,0.8l0.2,0.5l0,1l0.1,0.5l0.5,1l0.7,0.1l0.2,0.4l0.2,1.4l0,0.7l0-0.1c0,0,0-0.1-0.1-0.1
		c0,0-0.1-0.1-0.1-0.1l0,0.3l-0.3,0.5l0.1,0.8l0.2,1.1l0.5,1.2l0.4,1.1l-0.2,0.9l0.1,0.5l0.3,0.4l0.4,0.6l0.1,0.6l-0.2,1.8l-0.1,0.6
		l-0.1,0.4l-0.1,0.8l-0.9,1.1l-0.2,0.4l-0.3,0.2l-0.4,0.5l-0.7,0.7l-0.4,0.5l-0.6,0.4l-0.4,0.6l-0.3,0.2l-0.6,0.7l-0.5,1.1l-0.2,2.4
		l0.5,1.3l0.5,0.5l0.2,0.3l0.4,0.3l1.5,0.6l2.1-1l0.5-0.6l0.4-1.1l0.4-0.7l0.3-0.8l0.7-0.6l1.3-1.2l1.1-0.3l0.9-0.5l0.4-0.1l2-0.7
		l0.7-0.1l0.4-0.2l0.5,0.1l0.3,0l0.3-0.1l1.6-0.3l0.9,0.2l0.8-0.5l0.2-0.5l0.4-0.7l0.3-0.2l0.2,0.3l0.4,1.1l0.7,0.3l0.7-0.6l1.8-0.3
		l0.6,0.1l0.3-0.1l0.6-0.1l0.3-0.1l1,0l0.5-0.2l3.1-0.7l0.5-0.2l0.5,0l3.3-1.4l0.4-0.3l1.1-0.2l0.8-0.5l1.5-1.2l2.3-2.3l0.1-0.8
		l0.4-0.1l0.1,0.4l1-1.5l0.7-1.8l0.2-0.5l1-1l0.4-0.9l-1-0.9l1.1-0.8l0.3-0.4l0.1-0.5l0.2-0.4l-0.4-0.6l0.7-1.2l-0.1-0.3l0.1-0.6
		l-0.1-0.8l0.1-0.5l0.4-1.3l-0.1-0.7l0.1-0.4l0.5-1.7l-0.6-0.8l-0.8-0.7l-1.1-1.5l-0.9-1l-0.5-0.7l-1.6-1.3l-1-0.5l-0.8-0.4
		l-0.2-0.5l-0.4-0.3l-0.7,0.3l-1.9-0.5l-0.1-0.3l-0.4-0.3l-0.7,0.3l-1.1-0.2l-0.3-0.4l-0.8,0.4l-0.3,0l-0.7-0.1l-0.3,0.2l-0.8-0.2
		l-0.3,0l-0.5-0.1l-1.8,0.4l-0.8,0.1l1.1-1.5l2.3-1.4l1.7-2l0.6-1.1l0.4-0.7l0.3-0.6l0.5-1l0.4-1.6l0.3-1.3l0.1-0.4l-0.2-1.1l0-1.5
		l-0.2-0.9l0.3-1.3L256.7,317.6z M250.7,341.9l1.6,2.5l0.2,0.7l0.3,0.9l0.6,1.4l0.5,1.1l0.9,0.4l-0.8,0.2l0.2,0.5l0.1,0.6l0.1,0.7
		l0.2,0.7l0.2,0.4l-0.1,0.4l0.1,0.5l0.2,0.6l0.2,0.3l0.9,0.6l-0.9,0.1l0.2,1.6l0.1,0.3l-0.2,1l-0.1,1.5l-0.3,0.5l-0.1,0.7l-0.4,1
		l-0.9,1l-0.4,0.2l-0.2,0.3l-0.4,0.1l-0.8,0.3l-1.8,0.1l-0.7-0.1l-0.7-0.8l-0.5-0.1l-0.4-0.9l-1.1-0.2l-0.4-1.3l-0.5-0.7l-0.5-0.5
		l-0.2-0.4l-0.2-0.6l-0.6-1l-0.4-0.1l-0.1-0.4l-0.1-0.6l-0.3-0.4l-0.4-0.6l-0.4-1l-0.1-0.6l-0.1-0.8l-0.1-0.4l-0.4-1l-0.6-0.2
		l-0.5-0.1l-0.2-0.5l0-0.5l0.2-0.8l-0.6-1.7l-0.5-2l0.1-1l-0.3-1.2l-0.8-0.9l-0.5-1.1l-0.3-1l-1.3-3.2l-0.2-0.9l-0.9-0.4l0.3-0.5
		l0.3-0.4l-0.4-1l-0.4-1.6l-0.7-2l-0.1-1.9l-0.6-0.6l-0.3-0.8l-0.2-0.7l-0.2-2.5l-0.1-0.5l-0.5-0.7l-0.2-1.6l0.2-0.3l0.7-1.7
		l0.4-0.5l1.2-0.6l0.2-0.4l0.7-0.2l0.5-0.2l2.1,0l2.4,1.1l1-0.5l-0.3,1l0.7,0.8l0.3,0.5l0.4,0.2l0.3,0.5l0.3,0.4l0,0.6l0.3,0.6
		l1.2,0.9l0.5,1.3l0.1,0.4l-0.3,0.7l0.1,0.8l0.4,0.6l0.4,1.3l-0.1,0.4l0.2,0.8l0.1,2.2l-0.2,1.6l-0.1,0.4L246,334l-0.5,0.7l-0.4,0.4
		l-0.7-1.5l-0.5-0.9l-1.1-1l-1.4-0.2l-0.6,0.1l-0.4,0.3l-0.7,0.4l-0.8,1.3l-0.4,1.1l0,0.8l0.2,0.4l0.4,1l0.1,0.5l0.4,0.2l2.4,1.3
		l0.4,0.3l0.7-0.2l1.1,0.3l0.3-0.2l1.1,0.5l0.6-0.2l1.4,0.3l0.5,0.3l0.5,0.3l1.3,0.8l0.3,0.4L250.7,341.9z"/>
	<path d="M281.6,350.6l-0.3,0.5l-0.2,0.4l-0.4,0.7l-1.2,0.8l-0.3,0.3l-0.3,0.1l-0.5,0.3l-0.8,0.4l-0.6,0.4l-0.7,0.2l-0.5,0.4
		l-0.3,0.1l-0.8,0.5l-0.8,0.9l-0.9,2.2l0.1,1.4l0.3,0.7l0.1,0.3l0.3,0.4l1.2,1l2.3-0.3l0.7-0.4l0.7-0.9l0.6-0.6l0.6-0.7l0.9-0.3
		l1.6-0.7l1.2,0.1l1-0.2l0.4,0.1l2.1,0l0.7,0.1l0.4-0.1l0.5,0.3l0.3,0l0.3,0l1.6,0.2l0.8,0.5l0.9-0.2l0.4-0.4l0.6-0.6l0.3-0.1
		l0.1,0.3l0.1,1.2l0.6,0.5l0.9-0.4l1.8,0.2l0.5,0.2l0.3,0l0.6,0.1l0.3,0l0.9,0.3l0.5,0l3.2,0.3l0.5-0.1l0.5,0.1l3.5-0.3l0.4-0.1
		l1.1,0.1l0.9-0.2l1.8-0.7l2.9-1.4l0.3-0.8l0.4,0l0,0.4l1.5-1.1l1.2-1.5l0.4-0.4l1.2-0.6l0.7-0.8l-0.6-1.1l1.3-0.5l0.4-0.3l0.2-0.4
		l0.3-0.3l-0.2-0.7l1.1-0.9l0-0.3l0.3-0.5l0.1-0.8l0.3-0.4l0.8-1.1l0.1-0.7l0.3-0.4l1-1.4l-0.3-1l-0.6-0.9l-0.6-1.8l-0.6-1.2
		l-0.2-0.8l-1.1-1.7l-0.8-0.8l-0.7-0.6l-0.1-0.6l-0.3-0.4l-0.7,0.1l-1.7-1.1l0-0.3l-0.3-0.4l-0.7,0.1l-0.9-0.5l-0.2-0.5l-0.8,0.1
		l-0.3,0l-0.6-0.3l-0.4,0.1l-0.7-0.4l-0.3,0l-0.4-0.2l-1.9-0.2l-0.8-0.2l1.5-1.1l2.6-0.6l2.2-1.4l0.9-0.9l0.6-0.5l0.5-0.5l0.8-0.8
		l0.9-1.4l0.6-1.1l0.3-0.4l0.2-1.1l0.4-1.4l0.1-0.9l0.7-1.2l-0.7-1.9l-0.3-0.7l0-0.7l-0.3-0.9l-0.3-0.7l-0.5-1l-0.6-1.1l-0.3-0.6
		l-0.4-0.5l-0.6-0.7l-0.3-0.3l-0.3-0.4l-0.8-0.8l-0.4-0.1l-0.6-0.8l-0.6,0.1l-0.7-0.8l-1.1-0.4l-0.4-0.3l-1-0.2l-1.6-0.5l-0.7-0.1
		l-0.4-0.1l-0.3,0.6l-0.6-0.2l0.2-0.8l-2.5-0.2l-0.6-0.1l-3.2-0.1l-0.9,0l-1.7,0l-1.8,0.2l-0.5,0l-2.7,0.3l-0.5,0.1l-0.5,0.2
		l-0.5,0.1l-0.7-0.1l-0.5,0.1l-1.4,0.3l-0.4,0l-0.4,0.1l-1.2,0.2l-1.3,0.2l-2-0.1l-0.6-0.2l-0.3-0.4l-1.1-1.5l-0.5-0.5l-3.3-0.7
		l-0.4,0.3l-0.9,0.5l-0.3,0.5l-0.5,1.7l0.2,1.3l0.1,0.6l0.4,0.6l0.6,0.4l0.4,0.3l0.4,0.5l1.4,0.6l0.3,0l0.4,0.4l0.7,0.7l0.3,0.9
		l0.3,0.6l0.1,0.4l0.1,1.7l0.1,0.4l-0.1,0.7l0,0.8l0.3,0.4l0,0.3l-0.1,0.7l0.1,0.9l0,0.3l0.1,0.4l0,0.6l-0.1,0.8l0,1.4l0.1,1.1
		l-0.1,1.8l0.2,0.6l-0.1,3.1l-0.3,0.6l0,3.4l-0.1,0.7l-0.4,0.7l-0.1,0.6l0,0.7l0.2,0.9l0.1,0.5l-0.3,1l-0.1,0.5l0.2,1.1l0.6,0.4
		l0.1,0.5l-0.2,1.4l-0.2,0.7l0-0.1c0,0,0-0.1,0-0.1c0,0,0-0.1-0.1-0.2l-0.1,0.3l-0.5,0.4l-0.2,0.8l-0.1,1.1l0.1,1.3l0.1,1.2
		l-0.4,0.8l0,0.5l0.1,0.4l0.2,0.7l-0.1,0.6L281.6,350.6z M296.5,324.7l0.4-0.3l-0.1-1.1l0.1-1.7l0-2.1l0.5-1.9l-0.3-0.8l0-0.8
		l0.1-0.7l0.6-2.5l0-0.5l-0.2-0.8l0.3-1.6l0.3-0.2l1.2-1.4l0.6-0.3l1.3-0.2l0.4-0.3l0.7,0l0.5,0l2,0.6l2,1.8l1.1-0.1l-0.6,0.9l0.4,1
		l0.1,0.5l0.3,0.3l0.2,0.6l0.2,0.4l-0.1,0.6l0.1,0.7l0.9,1.3l0.1,1.4l-0.1,0.4l-0.5,0.6l-0.1,0.8l0.2,0.7l0,1.4l-0.2,0.3l-0.1,0.8
		l-0.6,2.1l-0.7,1.5l-0.2,0.4l-0.7,0.9l-0.7,0.5l-0.5,0.2l-0.2-1.7l-0.2-1l-0.8-1.3l-1.3-0.7l-0.6-0.1l-0.5,0.2l-0.8,0.2l-1.2,0.9
		l-0.7,0.9l-0.3,0.8l0,0.4l0.1,1l-0.1,0.5l0.3,0.4l1.9,1.9l0.3,0.4l0.7,0l0.9,0.6l0.4-0.1l0.9,0.8l0.7,0l1.3,0.7l0.4,0.4l0.4,0.5
		l1,1.2l0.2,0.5l0.3,0.7l0.7,2.8l0,0.7l0,0.9l0.1,1.5l0.2,1.2l0.7,0.7l-0.8-0.1l0,0.5l-0.1,0.6l-0.1,0.6l0,0.7l0,0.4l-0.2,0.3
		l-0.1,0.5l0,0.6l0.1,0.4l0.7,0.8l-0.9-0.1l-0.3,1.6l0,0.3l-0.4,0.9l-0.5,1.4l-0.5,0.4l-0.3,0.6l-0.7,0.8l-1.1,0.7l-0.4,0.1
		l-0.3,0.2l-0.4,0l-0.9,0.1l-1.7-0.5l-0.6-0.3l-0.4-1l-0.4-0.2l-0.1-1l-0.9-0.5l0.1-1.3l-0.3-0.8l-0.3-0.6l-0.1-0.5l0-0.7l-0.2-1.2
		l-0.3-0.2l0-0.4l0.1-0.6l-0.2-0.5l-0.2-0.7l-0.1-1l0.1-0.6l0.1-0.8l0.1-0.4l0-1.1l-0.5-0.4l-0.4-0.3l0-0.5l0.2-0.5l0.4-0.6
		l-0.1-1.8l0.1-2l0.4-0.9l0.1-1.2l-0.5-1.1l-0.1-1.2l0-1.1l-0.2-3.5l0.1-0.9l-0.7-0.7L296.5,324.7z"/>
	<polygon points="337.7,349.7 337.4,350.3 337,350.8 336.8,351.3 335.2,353.6 335,353.9 334.3,354.7 333,355.5 332.7,355.7 
		331.8,355.7 330.5,356 329.3,356.6 328.7,356.6 328.1,356.3 327.6,356.5 326.8,356.7 326.2,357.3 325.6,357.6 325.2,357.9 
		324.6,358.9 324.4,359.2 324.2,359.8 324,360.2 323.9,360.6 324.4,362.3 325.1,362.7 326,363.4 326.8,363.6 327.4,363.6 
		327.9,363.5 329.5,362.6 330.6,362.3 331.8,362.1 332.9,362.1 335.8,362.8 336.3,363.1 337.8,363.6 338.6,364.2 339.3,364.3 
		339.8,364.7 340.5,365.1 341.1,365.3 341.4,365.4 341.9,366 342.8,366.5 343.1,366.2 343.6,365.9 344.1,366.5 345.2,367.6 
		345.4,368 346.1,368.5 346.7,368.2 347.1,368.5 347.7,368.4 348.1,368.8 347.9,369 348.7,369.5 349.3,369.6 350.4,370.1 
		351.1,370.1 351.6,370.5 352.6,370.9 353,370.8 353.7,371 354.5,371 354.9,371 355.8,370.6 356.2,370.3 356.6,369.7 356.8,369.3 
		356.9,369.1 356.7,368 355.9,366.8 354.5,366.1 354.2,366 353.1,365.5 351.8,364.5 350.8,363.4 350.3,362.3 350.2,360.6 
		350.5,359.8 350.5,359.3 350.6,358.9 350.9,357.9 351,357.5 351.4,357.2 351.5,356.5 351.8,355.2 351.1,355 351.2,353.9 352.2,351 
		352.5,350.4 353.2,348.5 354.1,345.9 354.4,345.2 354.8,344.5 354.9,344.1 355.3,343.3 355.6,343.1 356.6,343 358,343.8 
		361.3,344.6 362.7,345.5 363.6,346.6 364.2,347.2 364.2,347.6 364.2,348.3 364.2,348.9 364.9,348.1 365,348.9 364.8,349.4 
		364.4,349.3 364.6,350.1 364.6,350.6 364.6,351.4 364.7,351.9 364.5,353 364.3,354.3 363.8,355.4 363.7,355.8 363.3,356.4 
		363,357.3 362.8,357.7 362.5,358.1 362.7,359.2 362.2,359.6 361.7,360 361.6,360.3 361.1,361 360.7,361.6 359.9,362.5 359.3,363.9 
		359.1,364.7 359.1,365 359.3,365.6 359.4,366 359.8,367.6 359.4,368.4 359.4,368.9 358.9,369.6 358.8,370.1 358.5,370.6 358.1,372 
		357.9,373 357.7,373.7 357.9,374.1 357.8,375.2 357.6,375.8 357.9,377.3 357.8,378.1 357.6,378.6 357.6,379.1 358.2,379.6 
		358.3,380.7 359,381.4 359,382.1 359.4,382.6 359.7,383.3 359.7,383.9 361.1,385.3 361.4,385.8 362,386.3 362.4,386.9 363.1,387.7 
		363.4,387.8 364.1,387.8 364.5,388 365,388.8 365.1,389.2 366,389.5 367,389.6 367.7,389.7 368.1,389.6 368.5,389.8 369.3,389.8 
		370.4,389.8 371.3,389.7 371.7,389.6 372.4,389.6 374.3,388.7 374.6,388.5 374.9,388.3 375.9,387.6 376.3,387 376.9,385.9 
		377.1,385.6 377.3,384.9 377.5,384.4 377.6,384 377.6,383.6 377.5,382.6 377.5,382 376.9,381.3 376.5,380.8 374.7,380.2 
		373.2,380.2 372.6,380.4 371.8,381.1 371.2,381.9 370.9,382.7 370.9,383.3 370.9,385.2 370.5,385.7 370,385.9 368.8,385.4 
		367.8,384 367.6,383.4 367.6,382.6 367.7,382.3 367.5,381.9 367.7,381.1 367.8,380.4 367.9,379.7 368.1,379.3 368.4,378.9 
		368.6,378.6 369.6,376.9 370,376.5 370.2,376 371.2,374.8 371.8,373.9 372.7,372.7 373,372 373.5,370.9 374.2,369.5 374.5,368.6 
		374.8,368.1 375.6,367.5 375.7,366.6 376.1,365.4 376.3,364.8 376.4,364.5 376.9,363.4 377.2,362.7 377.3,362.5 377.3,361.5 
		377.4,360.7 377.8,359.8 377.8,358.1 377.5,355.2 377.3,354.7 377.4,354.3 377.1,353.9 376.6,352.8 376.3,352 376.2,351.1 
		375.2,349.7 374.4,348.6 373.7,348 373.3,347.7 373,347.8 371.9,346.1 371.3,345.8 371.1,345.7 369.1,344.6 368.3,344 368.9,343.8 
		370.6,344.3 372,344.6 373,344.7 373.4,344.5 374.1,344.4 374.4,344 375,344 376.1,343.8 376.6,343.5 377.8,342.9 378.2,342.7 
		379.1,342.1 380.2,340.7 380.9,339.9 381.2,338.9 381.4,338.4 381.5,337.9 382.4,337.2 382.7,336.8 383.5,335.4 383.5,334.3 
		383.9,333.7 384.1,333.5 384.4,332.4 384.6,331.9 384.6,331.3 384.7,330.9 385.4,328.7 385.9,328 386.1,327.7 386.2,327.1 
		386.7,326.4 387.2,325.7 387.9,325.3 388.8,325 389.9,324.4 390.3,324.1 390.6,323.6 390.8,322.9 390.7,322.5 389.5,321.2 
		388.9,320.9 387.7,320.4 387.1,320.3 386.5,320.3 385.7,320 385.1,319.9 383.6,320 382.9,320 381.7,320.1 381.3,320.4 380.6,320.5 
		378.7,321.4 378.2,321.8 377.8,321.8 376.8,322.8 376.2,323.3 375.7,323.9 374.7,325.1 375.1,325.3 374.7,325.6 374.4,326 
		373.9,326.7 373.5,326.8 373.3,327.1 372.8,328 372.2,328.7 372,329.1 372,329.5 371.9,330 371.3,330.5 371.2,331.2 371,331.7 
		370.4,333.6 370,334.4 369.5,335.1 369.5,335.4 368.8,336.3 368.6,336.7 367.9,337.4 367.6,337.8 366.4,338.5 365,339.1 
		364.5,339.2 363.3,339.1 362.7,339.1 361.4,338.9 359.6,338.1 357.9,337.1 357.9,336.7 357.6,336.4 357.6,335.9 357.6,335 
		357.9,334.3 358,333.3 358.3,332.1 358.5,331.7 358.7,331.4 358.7,330.9 359,330.3 358.7,330 358.9,329.4 359.6,329 359.9,328.5 
		360.1,328.1 360.2,327.8 360.7,326.7 361.6,324.4 361.9,323.8 362.5,322.8 362.6,322.4 363,322 363.6,321.1 364.3,320.6 
		364.8,320.4 365.9,320.2 367.1,320.2 367.6,320.1 368.3,320.1 368.7,319.8 369.4,319.8 369.4,319.4 370.6,318.5 371,318.8 
		371.8,318.7 372.3,318.1 372.5,317.3 372.8,316.4 372.5,316.1 372.5,315.6 372.3,315.2 371.3,314.2 370.3,313.8 368.1,314.2 
		367.1,314.5 366.3,314.8 365.8,314.9 364.5,314.8 362.8,314.6 362.4,314.2 362.1,314.3 361.5,314.1 360.9,313.9 359.7,313.5 
		359,313.3 358.3,312.8 356.9,312.5 354.9,311.5 353.4,310.9 353,310.8 352.5,310.5 351.9,310 351.5,310 351.2,309.6 350.7,309.5 
		350.2,309.3 349.8,308.9 349,308.6 348.6,308.5 347.7,308.4 347.3,308.5 346.5,308.7 346.1,308.9 345.4,309.4 344.9,310.2 
		344.8,310.7 345,311.6 345.2,312 345.5,312.4 345.6,312.9 346.4,313.6 346.8,313.9 347.3,314.1 347.9,314.6 348.2,315 348.5,315.2 
		349.2,316.6 349.1,318.4 348.5,320 348.7,320.7 347.9,322.3 347.4,322.9 347.2,323.7 347.3,324.6 346.9,325.6 346.3,326.6 
		345.9,327.4 345.9,327.7 345.4,328.8 345,329.2 344.6,329.7 344.4,330 344.5,332.1 344.2,333.1 343.2,335.2 344,335.5 344.1,335.9 
		343.8,336 342.9,336.2 342.7,337 342.9,337.5 342.1,338.2 341.9,338.9 341.5,339.7 340.8,341.5 340.3,341.7 340.2,342.1 
		339.7,343.3 339.6,343.9 339.8,345 339.4,345.7 338.6,346.6 338.3,347.1 338.2,347.6 338.3,348.3 338.2,349 	"/>
	<path d="M96.7,616.6l1.9,0.6l0.6,0.2l1.1,1l1,0.4l0.9-1.1l0.9,1.1l0.4,0.3l0.5,0.1l0.4,0.2l0.6-0.4l1.3,0.7l0.3-0.1l0.6,0.1
		l0.8-0.2l0.5,0.1l1.4,0.4l0.7-0.1l0.5,0.1l1.8,0.4l0.8-0.6l0.7-0.9l1.5-1.3l1-1l0.7-0.6l1.3-1.7l0.5-1.1l0.3-0.9l0.5-0.3l0.3-0.4
		l-0.4-0.7l0.5-2.1l0.4-0.1l0.3-0.4l-0.4-0.7l0.2-1.1l0.4-0.4l-0.4-0.8l-0.1-0.3l0-0.7l-0.2-0.3l0.1-0.9l-0.1-0.3l0.1-0.5l-0.6-1.9
		l-0.1-0.8l1.7,1l1.6,2.3l2.2,1.6l1.2,0.5l0.7,0.4l0.7,0.3l1.1,0.5l1.7,0.3l1.3,0.2l0.5,0.1l1.2-0.2l1.6-0.1l0.9-0.2l1.4,0.3
		l1.6-1.4l0.6-0.6l0.6-0.2l0.7-0.6l0.6-0.6l0.8-0.8l0.8-1l0.5-0.5l0.4-0.6l0.4-0.8l0.2-0.5l0.2-0.5l0.4-1.1l0-0.4l0.6-0.9l-0.3-0.5
		l0.6-1l0-1.2l0.2-0.5l-0.2-1l-0.1-1.8l-0.1-0.8l-0.1-0.4l-0.8-0.1l0-0.6l0.8-0.1l-0.7-2.5l-0.1-0.6l-1.1-3.1l-0.4-0.9l-0.6-1.6
		l-0.9-1.7l-0.2-0.5l-1.3-2.5l-0.3-0.4l-0.4-0.4l-0.3-0.4l-0.2-0.7l-0.3-0.4l-0.8-1.3l-0.1-0.4l-0.3-0.3l-0.6-1.1l-0.6-1.2l-0.6-2
		l0-0.6l0.2-0.5l1-1.6l0.3-0.7l-0.6-3.5l-0.5-0.3l-0.8-0.7l-0.6-0.1l-1.9,0.2l-1.2,0.7l-0.5,0.3l-0.4,0.6l-0.2,0.7l-0.1,0.5
		l-0.4,0.6l-0.1,1.6l0.1,0.4l-0.2,0.5l-0.4,1l-0.8,0.7l-0.5,0.5l-0.4,0.2l-1.6,0.7l-0.4,0.2l-0.8,0.1l-0.8,0.3l-0.3,0.4l-0.3,0.1
		l-0.7,0.2l-0.9,0.4l-0.3,0.1l-0.4,0.3l-0.5,0.2l-0.8,0.2l-1.4,0.5l-1.1,0.5l-1.8,0.6l-0.5,0.4l-3.1,1.1l-0.7-0.1l-3.3,1.3l-0.7,0.2
		l-0.8-0.1l-0.6,0.1l-0.7,0.3l-0.8,0.6l-0.5,0.3l-1.1,0.1l-0.5,0.1l-1,0.6l-0.1,0.8l-0.4,0.3l-1.4,0.3l-0.8,0l0.1,0
		c0,0,0.1,0,0.1-0.1c0,0,0.1-0.1,0.1-0.1l-0.3,0l-0.6-0.3l-0.9,0.1l-1.1,0.3l-1.2,0.6l-1.2,0.5l-0.9-0.1l-0.5,0.1l-0.4,0.3l-0.6,0.4
		l-0.7,0.2l-1.9-0.1l-0.6-0.1l-0.5,0l-0.9-0.1l-1.3-0.9l-0.4-0.1l-0.3-0.3l-0.5-0.3l-0.7-0.7l-0.6-0.4l-0.5-0.6l-0.6-0.4l-0.2-0.3
		l-0.8-0.6l-1.1-0.5l-2.5-0.1l-1.4,0.6l-0.5,0.6l-0.3,0.2l-0.2,0.4l-0.5,1.6l1.2,2.1l0.7,0.5l1.1,0.3l0.8,0.3l0.9,0.3l0.7,0.7
		l1.3,1.3l0.4,1.2l0.6,0.9l0.1,0.4l0.8,2.1l0.1,0.7l0.2,0.4l-0.1,0.6l0.1,0.3l0.1,0.3l0.4,1.7l-0.2,0.9l0.5,0.8l0.6,0.2l0.8,0.3
		l0.2,0.3l-0.3,0.2l-1.1,0.5l-0.2,0.8l0.7,0.7l0.5,1.9l0,0.6l0.2,0.3l0.2,0.6l0.1,0.3l0,1l0.2,0.5l0.9,3.2l0.3,0.5l0,0.5l1.7,3.3
		l0.3,0.4l0.3,1.1l0.5,0.8l1.4,1.5l2.5,2.3l0.9,0l0.1,0.4l-0.4,0.1L96.7,616.6z M95,605.4l-1-0.4l-1.1-0.9l-0.2-0.4l-0.3-0.2
		l-0.2-0.4l-0.4-0.8l-0.2-1.9l0.1-0.8l0.8-0.8l0.1-0.5l0.9-0.5l0.2-1.1l1.3-0.5l0.7-0.6l0.5-0.5l0.4-0.3l0.7-0.3l1.1-0.7l0-0.4
		l0.4-0.1l0.7-0.2l0.4-0.3l0.6-0.4l1-0.5l0.6-0.2l0.8-0.2l0.4-0.1l1.1-0.4l0.2-0.6l0.1-0.5l0.5-0.2l0.5,0l0.8,0.2l1.7-0.7l2-0.7
		l1.1,0.1l1.2-0.4l0.9-0.9l1.1-0.6l1.1-0.4l3.3-1.5l0.9-0.2l0.4-0.9l0.6,0.3l0.5,0.3l1-0.5l1.7-0.5l2.1-0.8l2-0.3l0.6-0.6l0.8-0.3
		l0.7-0.2l2.6-0.3l0.5-0.2l0.7-0.5l1.7-0.3l0.3,0.2l1.8,0.6l0.5,0.4l0.7,1.2l0.4,0.2l0.3,0.7l0.2,0.5l0.2,2.2l-1,2.6l0.5,1.1
		l-1.1-0.2l-0.8,0.8l-0.5,0.3l-0.2,0.4l-0.5,0.4l-0.3,0.4l-0.6,0.1l-0.7,0.3l-0.9,1.4l-1.4,0.7l-0.4,0.1l-0.7-0.3l-0.8,0.2l-0.6,0.4
		l-1.4,0.5l-0.4-0.1l-0.8,0.3l-2.3,0.2l-1.7-0.1l-0.5-0.1l-1.2-0.4l-0.8-0.5l-0.4-0.4l1.5-0.9l1-0.6l1-1.2l0.2-1.5l-0.2-0.6
		l-0.4-0.5l-0.5-0.7l-1.4-0.8l-1.2-0.4l-0.9,0l-0.4,0.2l-1,0.5l-0.5,0.1l-0.2,0.5l-1.2,2.6l-0.3,0.5l0.3,0.7l-0.2,1.1l0.2,0.4
		l-0.5,1.2l0.2,0.6l-0.2,1.5l-0.3,0.5l-0.3,0.6l-0.8,1.5l-0.4,0.4l-0.6,0.6l-2.5,1.8l-0.7,0.3l-0.9,0.3l-1.5,0.7l-1.1,0.6l-0.4,0.9
		l-0.2-0.8L106,604l-0.7,0.2l-0.7,0.1l-0.7,0.3l-0.4,0.2l-0.4,0l-0.5,0.1l-0.6,0.3l-0.4,0.2l-0.6,1l-0.2-0.9l-1.7,0.3l-0.4,0.1
		l-1-0.1l-1.6,0l-0.6-0.3L95,605.4z"/>
	<polygon points="155.9,691.7 156.2,691.4 156.3,690.5 156.7,690 157,689.7 157.1,689.3 157.5,688.9 158.3,688.8 159,688.6 
		159.3,688.2 160,687.4 160.4,687.1 161.8,686.3 162.3,685.7 163.2,685.3 164.8,684.7 165.4,684.4 166.2,684.3 166.6,684.1 
		167.6,683.1 168.8,682.8 169.9,682.1 170.2,681.7 170.5,681.5 171.2,681.4 172.1,681 172.5,680.7 172.9,680.2 176.1,678.3 
		177.9,676.7 178.4,676.6 179.3,675.5 180.6,674.3 181.2,673.7 181.6,673 182.2,672.3 183.2,670.7 184.7,668.4 185,667.6 185.3,667 
		185.4,666 185.6,665.2 185.4,664.5 186,663.4 186.9,662.8 186.9,661.9 187.3,660.2 187.3,659.6 187.6,657.1 187.6,656.5 
		187.7,655.5 188.5,654.5 187.5,653.1 187.2,651.6 186.9,651.3 187.8,650 187.2,649.4 187.2,648.7 186.8,648.3 186.7,647.7 
		186.4,646.4 186.1,646 185.8,645 185,643.4 184,641.6 183.9,640.9 183.4,640.3 183.3,640 182.9,639.6 182.4,638.9 181.6,637.9 
		181.2,637.5 181,636.8 180.7,636.6 180.2,636 179.6,635.2 179,634.8 178.6,633.9 178,633.1 177.5,632.6 176.6,632 175.5,630.5 
		175.2,630 174.6,629.5 174.3,629.2 173.9,629 172.3,627.5 171.8,627.3 171.6,626.9 170.4,626.1 169.3,625.1 168.8,624.5 
		167.7,624.1 167.2,623.8 166.4,623.1 166.1,622.7 165.6,622.7 165.2,622.5 164.2,622.2 163.2,621.8 162,621.2 160.7,621 
		159.4,620.2 158.9,620.1 158.4,620.1 158,620.1 156.7,619.7 156.1,619.5 155,619.5 154.3,619.2 151,619.5 150,619.5 149.6,619.4 
		149,619.6 148.8,619.8 148.2,619.7 147.7,619.5 147,619.6 146.1,620.5 144.7,620.3 143.7,620.7 142.8,621.1 141.8,621.3 
		141.3,621.5 140.7,621.8 140.2,622.3 139,622.6 138.5,622.8 137.8,623.2 136.2,623.9 135.3,624.5 134.8,625 134.3,625.3 
		133.4,625.9 131.2,627.9 130.6,628.5 130.3,628.8 129.9,629.2 129.3,629.9 128.4,630.9 128.1,631.2 127.5,632.6 126.9,633.1 
		126.7,633.5 125,636.3 124.7,636.7 124.2,637.8 123.5,638.6 123.4,639 123.3,639.6 122.8,640.3 122.5,640.6 122.2,641.1 
		121.8,641.8 121.5,642.4 121.2,642.6 120.8,643.2 120.7,643.7 120.2,644.1 118.9,645.6 117.3,647.2 115.3,648.2 114.5,648.2 
		113.9,648.3 113,648 112.1,647.2 111.3,646.1 111.6,645.1 112.1,644.6 113.1,644.1 113.6,643.9 114.3,643.4 114.8,642.8 
		115.3,641.8 115.4,641 115.3,640.1 115,639.2 114.5,638.7 114.3,638.6 114,638.3 113.7,638.1 113.1,637.8 112.7,637.6 111.3,637.5 
		110.6,637.7 109.4,638.3 107.4,640.2 107.2,640.5 107.3,641.1 106.8,641.6 106.6,642.1 106.5,642.7 106.2,643.8 106.2,645.4 
		106.4,645.8 106.8,647.1 107,647.6 107.1,648.3 107.3,648.6 107.9,649.8 108.8,651 110.6,652.9 111.2,653.2 111.8,653.9 113.6,655 
		114.9,655.4 115.9,656 116.8,656.1 117.6,656.3 119.9,656.4 122.6,655.8 123.3,655.7 125.3,654.6 126.2,654.2 126.8,654.1 
		127.5,654.1 128.2,653.4 129.3,652.9 130.4,652 131,651.8 131.4,651.5 131.9,651.1 132.2,650.9 133.2,650.6 133.6,650.1 
		133.4,649.5 133.5,648.9 134.5,648.9 135,648.2 136.2,647.5 136.6,646.8 137.1,646.2 137.3,645.8 137.7,645.2 138.7,644.5 
		139.7,644.3 140.7,644 142,643.4 142.4,643.1 142.6,642.8 142.8,642.5 143.6,641.3 143.9,640.3 144.2,639.9 144.5,638.8 
		145.2,637.9 145.9,636.8 146.4,636.3 147,635.5 146.8,635 147.2,634.5 147.5,634.8 148,634.1 149.8,632.3 150.5,631.9 150.9,631.3 
		151.2,630.7 151.8,630.7 152.4,630.6 153.2,629.5 153.9,629.2 154.4,628.9 155.1,628.3 156.7,628.3 157.4,627.8 157.9,627.7 
		158.9,627.4 160.4,627.2 161.7,627.2 162.3,627.5 162.9,627.6 163.3,627.7 164.9,629 165.1,629.5 165.5,630.2 165.8,630.9 
		165.7,631.3 165.4,632.5 164.5,633.4 164.1,633.8 163.7,634.5 162.5,635.6 162,636.1 161.6,636.2 160.8,637.3 160.3,637.9 
		159.5,638.3 159.1,638.6 158.9,639 158.5,639.4 158,639.6 156.9,640.3 156.9,640.8 156.2,641.5 155,642.5 154.3,643.2 153.4,644.3 
		152.8,644.7 151.5,645.7 149.6,647.4 149,648.1 148.3,648.3 147.6,648.9 147.3,649.5 146.1,650.2 145.8,650.6 145.6,651 
		145.1,651.3 144.7,651.5 144.4,651.8 143.8,652.3 142.4,653.7 141.8,654.1 141.5,654.3 141.2,654.8 140.2,655 139.6,655.4 
		139.5,656 138.1,657.2 136.8,658.1 136.5,658.5 136.1,658.6 135.8,658.9 135.4,659.1 134.9,659.5 134,660.2 132.5,660.8 
		132.1,660.9 131.5,661.1 129.9,660.9 128.6,660.5 127.8,660.2 127.5,659.9 125.9,659.2 124.5,658.8 123.9,658.5 123.2,658.3 
		122.4,658.3 121.6,658.5 120.5,658.8 119.5,659.6 119,660.1 118.5,661 118.4,661.7 118.7,662.9 119.1,663.6 120.2,664.6 
		122.2,664.7 123.5,664.9 124.4,665.2 124.6,665.4 125.2,665.7 125.9,666.7 125.7,667.2 126.4,667.5 126.8,667.4 127.6,668.2 
		127.9,668.6 128.7,669.3 129.5,670.3 130.2,670.6 130.6,671 130.6,672 130.8,672.3 131.2,672.5 131.3,673.1 132.1,673.9 
		132.6,674.4 132.9,675.1 133.2,675.4 133.7,676 133.9,676.6 134.8,677.8 135,678.2 135.2,678.7 135.8,679.5 136.2,680.4 
		136.5,680.8 137,681.3 137.6,682.3 138.3,683.4 138.9,683.9 139.5,684.3 139.8,684.7 140.3,685.1 140.6,685.2 141.1,685.2 
		141.8,685.5 142.2,685.5 142.7,685.4 143.7,685.1 144.2,684.7 144.6,684 144.8,683.5 144.6,683 144.8,682.4 144.3,682 144.1,681.5 
		144,680.9 143.6,679.5 143.6,678.6 143.5,677.3 143.7,676.2 143.7,675.7 143.8,675.1 144.2,674.3 144.4,674 144.6,673.5 
		145.8,671.7 146.1,671.3 146.4,670.8 147.1,670.3 147.5,669.9 148.3,668.9 148.8,667.6 149.3,666.9 150.1,666.1 150.8,665.7 
		151,665.4 151.3,664.8 150.7,664.1 151.8,664 152.6,664 153.6,663.2 154,662.9 155,661.5 157,659.8 158.2,659.2 159.3,657.9 
		159.7,657.6 160.8,656.5 160.9,655.3 161.4,654.7 162.5,654.5 163.5,653.6 163,653.2 164.2,653.1 164.8,652.4 165.1,651.3 
		165.4,651 166.3,650.5 167,650.1 170.3,647.6 170.9,647.2 172.2,646.2 172.8,645.7 173.3,645.4 173.9,644.9 174.7,644.5 
		176.5,643.8 177.1,643.7 178,643.9 178.2,644.2 178.9,644.5 179.6,645.2 179.9,645.9 179.8,646.3 180.2,646.8 180.5,647.3 
		180.6,648 180.6,649.9 180.2,650.8 180.3,651.3 180,651.7 180,652.2 180,652.6 179.6,653.2 179.1,654.1 178.6,654.6 178.2,654.9 
		178.2,655.4 177.4,656.1 177.3,656.5 176.2,657.5 176.1,657.9 175.1,658.8 174.8,659 174.1,659.8 172,661.5 171.6,661.8 
		171.1,662.1 170,662.7 169,662.8 168.1,663.9 166.7,664.9 164,666.5 163.5,666.9 163.1,668 162.7,668.5 161,669.6 160.3,669.9 
		158.8,670.9 158.6,671.1 158.1,671.8 157.6,671.8 157.2,672.1 156.7,672.4 155.8,673.1 155.4,673.3 155,673.5 154.4,674.3 
		153.5,675.4 151.4,677.1 151.2,677.7 150.7,678 150.1,678.6 150,679 148.8,680.4 148.6,680.7 148.1,681.7 147.6,682.5 147.1,684.2 
		146.9,684.6 147,686 146.7,686.7 147,687.5 146.6,687.8 146.6,688.6 146.5,689.9 147,691.3 147.6,692 148,692.9 148.1,693.4 
		148.6,693.9 149,695 150.3,696.6 150.6,696.8 150.9,697.1 151.5,697.8 152.7,698.8 154.8,699.9 155.7,700.1 156.8,699.6 
		157.3,699.3 157.9,698.7 158,697.1 157.2,696.1 156.3,695.2 155.7,695.1 155.4,694.8 155.2,693.6 155.5,692.3 	"/>
	<polygon points="238.9,689.3 240,687.6 240.3,687.2 240.7,686.8 241,686.5 241.3,686.2 242.3,685.3 242.8,684.7 244.3,683.6 
		244.3,682.8 245.7,682.6 247.1,681.6 247.9,680.3 247.9,679.4 247.8,679 247.4,678.7 246.2,677.9 245.1,677.9 244.6,678 244,678.1 
		242.6,678.6 241.8,679.1 241,679.5 239.4,679.7 238.6,679.4 238.3,679.3 237.3,677.7 237,677.3 236.7,676.9 236.4,676.4 
		235.2,675.3 235.2,674.9 234.9,674.6 234.6,674.4 234.2,674.3 233.6,673.7 233,673 232.4,672.6 232,672.3 231.5,672 230.9,671.7 
		230,671.1 228.5,670.2 226.6,669.4 225.8,669.1 225.4,668.9 224.9,668.8 222.2,668.1 219.3,667.3 218.8,667.5 217.7,667.1 
		216.7,667.3 216.3,667.3 215.3,667.1 213.7,667.2 213.2,667.1 212.2,667.4 211.2,667.5 210.7,667.6 209.7,667.8 208.9,668.1 
		208.2,668.3 207.4,668.8 206.7,669.4 206.2,669.6 205,669.4 204.3,670.2 203,670.9 202.9,671.2 202.1,672 201.7,672.1 200.7,672.2 
		200.5,672.7 198.3,674.5 197.9,675 197.3,675.5 197,675.8 196.2,676.6 195.6,677.3 195.3,678 194.2,678.7 193.5,679.3 191.9,680.9 
		190.5,681.9 189.9,682.4 189.5,682.6 188.3,683.2 188,683.8 188,684.8 188,685.5 188.3,686.1 188,687.2 187.9,687.6 187.8,688.4 
		187.5,689 187.5,691 187.5,691.4 187.2,691.8 186.9,692.1 186.8,692.6 186.6,693.1 186.5,693.5 186.2,694.2 186.1,695.1 
		185.9,695.7 185.8,696.3 185.8,696.7 185.4,697.2 185,698.3 184.9,698.8 185.1,699.5 184.9,701.3 184.8,704 185.2,704.5 
		185.5,704.7 185.3,705.3 184.8,705.8 185.5,706.6 185.4,707.7 185,708.2 184.8,708.8 185.2,709.8 185.5,711.2 186.5,711.2 
		185.9,712.8 186.6,713.6 188.4,717 188.8,717.5 189.1,718.1 189.4,718.5 189.9,719.1 190.5,719.8 191.9,721.3 192.4,721.4 
		192.7,721.8 193.4,722.4 193.7,722.8 195,723.8 196.3,724.6 198.2,725.8 198.7,726 199.2,726.3 199.9,726.6 200.5,727 202.8,727.9 
		203.4,727.9 204.1,728.2 204.5,728.4 205.3,728.4 205.7,728.4 207,728.6 207.5,728.6 208.4,728.6 210.6,728.4 212.8,727.9 
		213.2,727.7 213.5,727.9 214.8,728.6 214.5,729.8 214,731.4 213.8,732.3 213.8,733.2 213.7,733.5 213.8,733.9 213.4,735.1 
		213.1,737.7 213.3,738.8 213.2,739.3 213.4,739.7 213.5,741.6 213.9,742 214.1,742.7 215.4,744.5 215.8,745 216.8,745.4 
		217.6,745.8 217.9,746.1 218.6,746.2 219.2,746 219.5,745.6 219.5,745.2 219.8,746 220.6,746.2 221.5,745.8 222.6,744.9 
		223.3,743.5 223.4,741.9 223.3,741.5 220.9,738.9 219.5,738.2 219.3,737.3 219.2,736.5 219.7,735 219.6,734.6 219,734.4 
		219.6,732.5 219.8,731.2 220.2,730.1 220.5,729.5 220.6,729 220.9,727.8 221.1,727.1 221.2,726.7 222.5,724.5 222.8,724.2 
		223.3,722.8 223.4,722.2 223.9,720.9 224.3,720.5 224.6,719.9 224.9,719.3 225.1,718.8 225.6,717.9 225.7,717.2 225.8,716.7 
		226,716.1 226.1,715.5 226.1,714.4 226,713.9 225.3,713.4 225.1,713 224.3,712.9 223.6,712.6 223,712.7 222.4,712.8 221,714.4 
		220.4,715 218.7,717 217,718.6 216.5,718.7 216.1,718.8 214.9,720.2 214.4,720.7 212.8,721.1 212.1,721.6 211.7,722.1 210.6,722.6 
		209.9,722.9 208.7,723.2 208.3,723.1 207.5,723.3 206.8,723.1 206.4,722.9 205.6,723.2 204.4,723 203.9,722.9 203.5,722.8 
		202.9,722.7 202.3,722.3 202,722 201.4,721.8 199.2,719.1 198.9,718.3 198.4,717.6 198.1,716.6 198,715.2 197.8,714.5 197.9,713.5 
		198.1,712.6 198.2,712.2 198.3,711 198.4,710.2 198.5,709.5 198.8,708.6 199,708 198.8,707.4 199.1,706.3 199.3,705.7 198.9,705.6 
		200.4,703.6 200.2,702.9 200.6,702 201.8,699.7 201.7,699 202.2,697.7 202.5,697.4 202.8,696.7 203.4,696 203.3,696.6 204.1,697 
		204.5,697.1 204.9,697.2 205.5,697.6 206,697.8 206.6,698.2 207.7,698.6 208.5,698.9 208.8,699 210.5,700 211.1,700.3 213.3,701.6 
		214.7,702.7 215.4,703.7 215.8,704.3 215.9,704.8 216.3,705.6 215.8,706.8 215.7,707.5 215.3,708 215.6,708.7 215.8,709.3 
		216.6,710.4 218.1,710.5 219.4,709.9 220.7,708.4 221.1,707.9 221.8,706.7 221.3,705.6 221.7,704.3 222.1,702.7 222.9,702.6 
		223.9,699.7 224.4,698.4 224.7,697.8 225.2,697.7 225.5,697.5 225.9,696.9 226.3,696.5 226.7,696.1 227,695.7 227.2,695.4 
		227.7,694.4 227.6,693.3 227,692.5 226.2,692.1 225.8,692.1 224.1,692.3 223.1,692.9 222.3,693.3 221.7,693.5 220.3,694 
		219.5,693.8 220.4,693.4 219.2,693.5 217.4,692.6 216.8,692.8 216.8,692.3 215.1,691.5 214.6,691.1 213.5,690.7 212.9,690.4 
		208.6,688.2 208,688 207.3,687.7 206.9,687.6 206.7,686.9 207.6,686.2 208.4,686.2 208.7,685.2 209.1,684.8 209.5,684.1 
		209.3,683.3 209.9,682.9 210,682.6 211.4,681.2 211.5,680.2 212,680.3 214,678.2 214.3,677.8 214.7,677.4 215.4,676.8 216.6,676 
		217,675.8 217.5,675.2 218.3,675.2 218.8,674.9 219.7,674.6 220.1,674.5 220.9,674.4 221.8,674.3 223.2,674.5 223.8,674.5 
		224.6,674.6 225.3,674.8 225.8,675 226.5,675.7 227.2,675.4 228.8,676.4 229.7,676.9 230.1,677.1 230.7,677.8 231.2,678.5 
		231.5,678.9 231.5,679.4 232.2,680.2 232.8,680.6 233,680.9 233.2,681.8 233.2,682.5 233.5,683.7 232.8,685.1 233.5,685.8 
		233,686.5 232.6,687.5 232.8,687.9 232.6,688.7 232.4,689.1 232.1,689.8 232,690.4 232,690.8 231.9,691.4 231.7,691.9 231.5,692.3 
		231.4,692.6 231.3,693.6 231.5,694.2 231.5,694.8 231.8,695.2 232.2,695.5 232.8,695.8 233.3,696 233.8,696 234.6,695.8 
		236.2,694.6 237.2,692.7 237,692.1 237.7,691.5 	"/>
	<polygon points="486,644.5 486.3,644 486.9,642.5 487.2,642.2 487.7,641.8 487.9,641.5 487.9,640.2 489,639.4 489.9,638.6 
		490.2,638.4 491.3,637 491.6,636.4 492,636 492.9,635 494,633.6 494.3,633.2 494.9,632.2 495.2,630.9 495.8,631.1 496.2,630.4 
		496.4,629.9 497.2,628.3 497.6,627.8 498.2,627.1 498.8,626.3 499.5,624.7 499.8,622.6 499.4,621.4 499.1,621.2 498.8,620.8 
		498,620.5 496.9,620.5 496.1,620.8 495.3,621.7 495,621.9 494.7,622.2 493.7,623.7 492.7,624 492.1,624.8 491.2,624.8 490.8,625.2 
		489.6,625.1 487.5,624.6 487.1,624.4 485.6,624 484.4,623.6 483.6,623.7 482.9,623 482.4,622.7 482,622.5 481.4,622.4 481.1,622.1 
		480.5,621.7 479.8,621 479.4,620.6 478.9,620.3 477.7,620.3 476.9,619.9 476,619.4 474.3,618.1 473.4,617.6 472.5,616.7 
		471.9,616.7 471.3,616.6 470.7,616.4 470.1,616 469.5,615.4 469,615.2 468.1,614.9 467.1,614.4 463.2,611.9 462,611.2 461.7,611 
		461.4,610.6 461.2,610.2 459,608.9 458.5,608.6 457.9,608.7 455.3,607 454.4,606.9 453.9,607.5 453.3,605.7 453,605.3 452.6,605.1 
		451.9,604.5 451.1,603.6 450.6,602.9 450.4,603.2 450.1,602.2 450,601.8 449.8,601.4 449.6,600.9 449.6,600.1 449.6,598.8 
		449.6,597.5 449.7,596.7 449.7,596.2 449.5,595.7 449.4,594.9 449.2,594.5 448.2,593.3 447.7,593 447.2,593 446.5,593 446,593.2 
		445.5,593.3 445.1,593.5 444.3,594.9 444,595.9 443.7,596.3 443.6,596.7 443.8,598.3 443.8,598.8 443.9,599.5 443.6,600.4 
		442.9,602 442.7,602.5 442.4,602.9 442.1,603.3 441.9,604.1 441.5,605.1 441,605.8 440.3,607.3 439.4,608.9 437,611.9 436.7,612.4 
		436.3,613 435.6,613.8 434.7,615.1 434.3,615.5 433.6,617.1 433.4,617.4 433.4,618.3 433.6,619.4 434.4,619.9 434.2,619.9 
		433.5,619.9 433.1,620 432.1,620.6 431.8,620.9 431.3,621.6 431,622.3 430.8,622.8 430.6,623.4 430.7,624.1 430.4,624.4 430.3,625 
		429,626.7 426.2,629.4 425.7,629.9 425.6,630.2 425.1,630.6 424.7,630.8 424.1,631.5 423.2,632.3 422.4,633.2 421.6,634 
		421.1,634.1 420.3,634.7 419.4,636.1 418.7,636.6 418.1,637.3 416.9,639.2 416.6,640 416.8,640.6 417,641.2 417.4,641.7 
		418.8,642.3 420,642 421,641.2 422,640.7 423,640.2 423.2,640 423.3,639.4 423.6,639.2 424.3,639.1 425.2,639.2 426.1,638.8 
		427.2,638.8 427.8,638.9 428.2,639.2 429.2,639.9 429.7,640.5 430.5,641.4 430.8,641.8 431,642.1 431.3,642.5 431.9,643.1 
		432.3,643.6 432.6,644.1 432.8,644.5 433.6,645.8 434.1,646.9 434.9,647.8 435.2,648.2 435.2,648.7 435.7,649.4 436.3,649.6 
		436.5,650.1 436.7,650.7 436.9,651.3 437.3,651.8 437.8,652.4 438.5,653.6 439,655 439.8,655.2 440.4,656.4 440.5,657 441,657.6 
		441.4,657.8 441.7,658.1 441.6,658.7 441.6,659.4 442,659.9 442.5,660.3 443.3,660.6 443.8,661.6 443.8,663.2 444.3,664 
		444.7,665.3 445,665.5 445.2,665.9 445,667 445.8,667.9 446.3,667.9 446.6,668.9 447.5,669.1 448.1,670.1 448.6,670.8 448.3,671.8 
		448.6,673.2 449.4,674.1 449.6,675.3 448.9,675 447.6,674.1 446.6,673.5 444.4,672.3 442.3,671 441.8,670.6 441.4,670.4 441,670.1 
		440.1,669.4 439.7,669.1 438.8,668.6 438.2,668.1 436.9,667.1 436.4,666.5 435.4,665.8 434.4,665.9 433.7,666.3 432.9,665.1 
		431.9,664.2 430.8,663.2 430.4,663.4 429.2,662.7 428.7,662.4 426.8,661.3 426,660.7 425.4,660.6 424.9,660.4 424.1,659.8 
		423.5,659 423.2,658.6 422.7,658.3 422.2,658 421.6,657.6 419.9,656.9 418.6,655.6 418.2,654.9 417.6,654.8 415.6,652.7 415.2,652 
		414.9,651.4 414.5,651.2 414.9,650.1 415.3,648.1 415.3,647.7 415.6,647.4 416,646.7 416.2,646.4 416.3,645.9 416.6,645.6 
		416.7,644.6 416.6,643.6 416.2,642.8 415.6,642.5 414.8,642.3 413.5,642.4 412.7,642.7 412,643.2 408.9,646.2 408,646.5 
		408.5,647.4 408.1,648.1 407.8,648.6 407.2,649 406.8,649.3 406,649.2 403.4,651.6 402.6,652.3 402.2,652.8 401,653.7 400.5,654.2 
		400.1,654.6 399.1,655.5 396.7,657.5 396.3,657.9 395.7,658 394.9,658.8 393.6,659.3 392.5,659.2 391.2,659.7 390.5,660.3 
		390.2,660.5 390,660.8 389.6,661.4 389.3,662 389.5,663.6 390.3,664.5 391.4,665.3 391.9,665.3 392.3,665.4 393.5,665.4 395,664.8 
		396.3,664.2 398.2,663.6 398.9,663.6 399.7,663.7 401.3,664 402.2,664.2 403.3,664.7 403.9,665 405.3,665.6 406.1,666.1 
		406.9,666.2 408.9,667.4 409.6,667.5 409.9,667.7 410.5,668.3 412.1,668.9 412.5,669.4 412.7,669.9 413,670.3 413.5,670.7 
		414.5,670.6 415.1,671 416.7,672.1 417.9,672.4 419.4,673 419.5,673.4 420.6,673.9 421.1,674.4 421.8,674.8 422.5,675.4 423,675.4 
		424.2,676 424.6,676.3 425.7,676.9 426,677.5 426.2,677.7 426.9,677.9 427.4,678.2 429.3,678.5 429.6,679.7 430.5,680.2 
		431.2,680.5 432,680.4 432.9,680.8 433.4,681.4 433.2,681.8 433.2,682.2 433.9,682.7 434.8,682.6 435.3,683 435.4,683.4 
		436.1,683.9 436.4,684 436.9,684.5 437.9,686 438.3,687.3 438.6,688.3 438.3,690.4 438.1,690.7 438.2,691.1 438,691.6 437.6,692.6 
		437.3,693.2 437.2,693.8 437.2,694.5 437.1,694.8 437.4,695.1 437,695.4 436.9,696 436.8,697.3 437.1,697.7 437.2,698.1 
		437.5,698.5 437.7,698.9 438.1,699.4 439.1,699.7 439.6,700 440.9,699.9 441.4,699.7 442.2,699.2 443,698.5 443.1,698.1 
		443.1,697.5 443.5,697 443.6,696.3 443.8,696 443.7,695.3 443.9,695 443.9,694.4 444.4,693.5 444.7,693 444.7,692.5 445.7,691.7 
		445.9,691.4 446.6,690.6 447.4,689.7 449.4,688.1 449.7,687.8 451.1,686.5 451.7,686.1 452.1,685.9 452.4,685.5 455.1,683.7 
		457.3,682.5 457.7,682.4 457.8,681.1 458.8,680.4 459.1,680.1 459.9,679.7 460.4,679.7 461.2,679.3 461.8,678.8 462.3,678.4 
		462.7,677.8 463.4,676.8 464.9,674.9 465.3,674.2 465.7,673.9 465.9,673.5 466.4,672.9 466.6,672.2 466.9,670.3 466.6,669.9 
		466.3,669.5 466.1,669.1 465,668.8 464.7,668.6 463.8,668.8 462.7,669.5 462.4,669.7 461.9,670.2 461.5,670.6 461,670.7 
		460.6,671.2 460,671.9 459.4,672 458.8,672.2 457.9,672.1 456.9,671.7 456.7,671.4 456.3,671.1 455.8,670.8 455.2,670.1 
		454.6,669.3 454,668.4 453.8,667.8 453.4,667.2 452.4,665.9 452.3,665.6 451.9,665.2 450.9,663 451,662.5 450.7,662 450.4,661.5 
		449.9,661.4 449.8,661 449.2,659.8 448.7,658.9 448.5,658.2 448.1,657.1 447.7,656.7 447.6,656.1 447.4,655.6 446.7,655.1 
		446.3,654.4 446.1,654 445.5,653 444.2,650.5 444.2,649.9 443.8,649.5 443.6,648.7 443.1,648.4 442.8,648 442.6,647.6 442.3,646.9 
		441.8,646 440.9,644.1 440.2,643 440,642.5 439.6,642 438.9,640.7 438.2,639.1 437.2,637.2 437,636.8 436.5,635.6 436.3,635.3 
		436.1,634.9 435.8,633.9 435.5,633.5 435.7,632.9 435.5,632.4 435.1,631.5 434.8,629.7 435.3,628 435.5,627.4 435.8,626.6 
		436,626.3 436.3,625.4 436.5,625.1 436.9,623 436.7,622.3 436.7,621.5 435.3,620.2 435,619.9 435.4,619.7 436.1,619.5 437.4,619.6 
		437.9,619.1 438.5,618.9 439.1,618.4 439.7,618.1 440.3,618.1 441.1,617.9 441.5,618.1 444.2,618.9 444.6,619.2 445.2,619.4 
		446.3,620.4 446.9,620.3 447.6,620.6 448,621.1 448.4,621.5 448.7,621.6 449.2,621.9 450.5,622.5 451.2,622.7 451.4,623.2 
		452.1,623.6 452.4,624.2 455.2,625.8 456.3,625.7 457.1,627 458.1,626.9 458.4,627.1 458.9,627.5 460.2,628.5 460.8,628.7 
		461.3,629 461.7,629.4 462.4,629.5 462.9,629.3 463.1,630 464.4,630.8 465,631.6 465.2,631.9 466.1,632.4 466.7,632.5 467.1,632.8 
		467.7,633.3 467.9,633.7 468.3,634.1 469.1,634 470.1,634.8 470.6,635.1 471.6,635.8 472.7,636.3 473.3,636.9 474.2,637.5 
		474.7,637.9 475.1,638.1 475.4,638.4 475.7,638.7 476.1,638.9 477.2,640 477.6,640.5 478.7,643 478.9,644.6 478.8,645.1 
		478.7,645.4 478.8,648.3 479.1,648.4 479.1,648.9 478.8,649.2 479.1,650 479.1,650.5 479.6,651.5 480.5,652.7 481.2,653.2 
		482,653.6 482.3,653.7 483.4,653.7 484,653.5 485.1,652.6 485.9,651.7 486.1,651.1 486,649.5 485.6,648.4 485.3,647.2 485.2,646.8 
		485.4,646 	"/>
	<polygon points="528.6,563.4 527.9,563.6 527,563.7 526.7,563.6 526.3,563.8 525.5,563.7 524.8,563.7 524,563.5 523.5,563.4 
		523.2,563.1 522.9,562.9 520.9,562 520.6,561.7 520,561.4 518.6,560.5 517.6,559.9 516.3,559 515.6,558.7 514.4,558.3 512.9,557.7 
		511.9,557.5 511.4,557.2 510.7,556.4 509.7,556.3 508.4,556 507.8,555.9 507.5,555.8 506.3,555.4 505.5,555 505.2,554.9 504.3,555 
		503.4,555 502.4,554.6 500.7,554.8 497.6,555.3 497.1,555.5 496.7,555.5 496.2,555.8 495.2,556.4 494.3,556.7 493.4,556.9 
		492,558.1 490.9,559.1 490.4,559.8 490.1,560.2 490.1,560.6 488.5,561.8 488.2,562.4 488.1,562.7 487.1,564.9 486.5,565.8 
		486.3,565.1 486.7,563.3 486.9,561.9 486.9,560.8 486.7,560.4 486.5,559.6 486.1,559.4 486,558.7 485.7,557.6 485.4,557 
		484.7,555.8 484.4,555.4 483.7,554.6 482.2,553.5 481.3,552.8 480.3,552.6 479.7,552.4 479.2,552.4 478.4,551.5 477.9,551.2 
		476.4,550.4 475.2,550.5 474.6,550.1 474.3,549.9 473.2,549.7 472.7,549.5 472,549.5 471.6,549.5 469.2,548.9 468.5,548.4 
		468.2,548.3 467.5,548.2 466.7,547.7 465.9,547.2 465.5,546.5 465.1,545.6 464.4,544.5 464.1,544.1 463.5,543.9 462.8,543.7 
		462.3,543.8 461,545.1 460.8,545.8 460.3,547.1 460.3,547.8 460.3,548.4 460.1,549.2 460,549.9 460.2,551.4 460.3,552.1 
		460.5,553.4 460.8,553.8 461,554.5 462,556.4 462.5,557 462.5,557.3 463.7,558.4 464.3,558.9 464.9,559.4 466.2,560.4 466.4,560 
		466.8,560.3 467.2,560.7 468,561.1 468.1,561.5 468.5,561.7 469.4,562.2 470.1,562.8 470.6,562.9 471,562.9 471.6,562.9 
		472.1,563.6 472.8,563.6 473.5,563.8 475.5,564.3 476.3,564.6 477.1,565.1 477.5,565.1 478.4,565.8 478.9,566 479.7,566.7 
		480.1,566.9 480.9,568.1 481.6,569.6 481.8,570.1 481.8,571.4 481.7,571.9 481.7,573.3 481,575.3 480,577.1 479.6,577.2 
		479.3,577.5 478.8,577.5 477.9,577.7 477.1,577.3 476,577.3 474.8,577.1 474.3,576.9 474,576.7 473.4,576.7 472.8,576.5 
		472.5,576.9 471.9,576.6 471.4,575.9 470.8,575.7 470.5,575.5 470.1,575.4 468.9,575 466.5,574.2 465.8,574 464.7,573.4 
		464.3,573.2 463.8,572.9 462.9,572.4 462.3,571.7 462,571.1 461.7,570 461.6,568.7 461.5,568.2 461.5,567.5 461.1,567 461.1,566.4 
		460.7,566.4 459.6,565.2 459.9,564.7 459.7,563.9 459,563.4 458.2,563.3 457.3,563 456.9,563.3 456.4,563.4 456.1,563.7 455,564.7 
		454.7,565.9 455.3,568.1 455.7,569.1 456,570 456.2,570.4 456.2,571.8 456,573.6 455.7,574.1 455.8,574.5 455.7,575 455.4,575.7 
		455.2,577 455,577.7 454.5,578.5 454.3,580 453.4,582.1 452.9,583.8 452.8,584.2 452.5,584.8 452.1,585.4 452.1,585.9 451.7,586.1 
		451.6,586.7 451.4,587.2 451,587.7 450.7,588.6 450.7,589 450.7,589.9 450.8,590.3 451,591.2 451.3,591.6 451.8,592.2 452.7,592.7 
		453.2,592.9 454.2,592.5 454.6,592.3 455,592 455.5,591.9 456.2,590.9 456.5,590.5 456.7,590 457.1,589.3 457.5,588.9 457.7,588.6 
		459.1,587.8 461.1,587.8 462.8,588.3 463.5,588 465.2,588.8 465.9,589.2 466.7,589.3 467.6,589.2 468.7,589.5 469.8,590.1 
		470.7,590.4 471.1,590.5 472.3,590.9 472.7,591.3 473.2,591.7 473.6,591.8 475.8,591.6 476.8,591.9 479.1,592.7 479.4,591.9 
		479.8,591.7 479.9,592.1 480.2,592.9 481.1,593.2 481.6,592.9 482.3,593.6 483,593.9 483.9,594.2 485.9,594.8 486.1,595.3 
		486.6,595.4 487.9,595.8 488.5,595.9 489.7,595.6 490.4,596 491.4,596.7 492,597 492.5,597.1 493.2,596.9 493.9,596.9 494.8,597.5 
		495.3,597.7 495.9,598.2 496.5,598.3 499,599.8 499.4,600 500.2,600.7 501.2,602 501.4,602.3 501.4,603.2 501.9,604.6 502.6,605.8 
		502.6,606.4 502.3,607.1 502.6,607.5 502.9,608.3 503.6,609 503.9,609.5 504.2,609.9 505.3,610.6 505.7,610.8 506.3,610.9 
		506.7,611 507.2,611.1 508.9,610.5 509.3,609.7 510,608.8 510.1,607.9 510,607.3 509.9,606.7 508.9,605.1 508.5,604 508.2,602.8 
		508,601.5 508.6,598.5 508.9,598 509.3,596.4 509.9,595.5 509.9,594.7 510.3,594.1 510.6,593.4 510.9,592.7 510.9,592.4 
		511.5,591.8 512,590.8 511.7,590.6 511.3,590.1 511.9,589.5 512.9,588.2 513.3,588 513.9,587.2 513.5,586.7 513.7,586.2 
		513.6,585.6 514,585.1 514.3,585.3 514.7,584.5 514.7,583.8 515.2,582.6 515.2,581.8 515.6,581.4 515.9,580.2 515.8,579.8 
		516,579.1 515.8,578.3 515.8,577.9 515.4,577 515,576.5 514.4,576.1 514,576 513.6,575.9 512.5,576.2 511.3,577.1 510.7,578.6 
		510.6,578.9 510.2,580.2 509.3,581.6 508.2,582.7 507,583.3 505.3,583.6 504.4,583.3 503.9,583.3 503.4,583.2 502.3,583 502,582.9 
		501.6,582.5 500.9,582.5 499.5,582.3 499.3,583 498.1,583 495,582.2 494.4,581.9 492.4,581.3 489.6,580.5 488.8,580.2 488.1,579.9 
		487.6,579.8 486.8,579.5 486.5,579.1 486.4,578.1 487.1,576.5 487.7,573 488.5,571.6 489.6,570.5 490.2,569.8 490.6,569.8 
		491.3,569.8 492,569.7 491.1,569 491.9,568.9 492.5,569 492.4,569.4 493.2,569.2 493.7,569.2 494.6,569.1 495.1,568.9 496.3,569.1 
		497.6,569.2 498.8,569.6 499.3,569.7 499.9,570.1 500.9,570.4 501.3,570.5 501.8,570.8 502.8,570.5 503.3,571 503.7,571.5 
		504.1,571.6 504.9,572.1 505.5,572.4 506.5,573.2 508,573.8 508.9,573.9 509.3,573.8 509.9,573.6 510.3,573.5 511.9,572.9 
		512.8,573.3 513.3,573.3 514,573.7 514.6,573.8 515.1,574.1 516.6,574.4 517.8,574.5 518.4,574.7 518.9,574.5 520,574.5 
		520.7,574.6 522.2,574.3 523.1,574.3 523.6,574.4 524.1,574.4 524.6,573.8 525.8,573.5 526.4,572.8 527.2,572.7 527.7,572.3 
		528.4,571.9 529,571.9 530.4,570.3 530.9,569.9 531.4,569.3 532,568.8 532.7,568 532.8,567.7 532.7,567 533,566.5 533.7,565.9 
		534.1,565.9 534.4,564.9 534.4,563.8 534.5,563.1 534.4,562.7 534.6,562.2 534.5,561.4 534.4,560.2 534.3,559.3 534.2,558.8 
		534,558.2 533,556.2 532.7,555.9 532.5,555.6 531.7,554.6 531,554.2 529.8,553.7 529.5,553.5 528.7,553.3 528.2,553.2 527.8,553.1 
		527.4,553.1 526.3,553.3 525.7,553.4 525,554 524.6,554.5 524,556.4 524.1,557.9 524.4,558.6 525.2,559.4 526,560 527,560.2 
		527.6,560.2 529.6,560 530.1,560.4 530.3,560.9 529.9,562.3 	"/>
	<path d="M213.6,338.9c3.9-2.2,0.4-8.3-3.5-6c-7.6,4.3-16.4,6.3-25.1,6.4c-5.3,0.1-15.5-0.8-15.8-7.9c-0.1-2.8-3.9-5-6-2.5
		c-17,20.5-28.2,46.4-51.8,60.5c-2,1.2-2.3,3.8-0.7,5.5c6.3,6.7,6.9,15.9,3.4,24.1c-0.7,1.8,0.8,3.9,2.4,4.3
		c10.2,2.7,17.7,10.3,20.5,20.4c2.6,9.4-4.9,16.6-4,25.7c0.6,6.4,4.6,10.8,9.7,14.3c1.9,1.2,3.9,2.3,5.4,4c1.9,2.1-0.9,6.1-1.9,7.9
		c-1.6,2.8,1,5.8,4,5.1c2.9-0.6,9.8-3.6,12.5-1.4c3.9,3.2,0.8,9.9-1.2,13.1c-4.7,7.4-13.1,13.3-20.8,17.2c-2,1-2.3,4-0.7,5.5
		c5.2,5.1,4.7,16.2,1.9,22.4c-1.9,4.1,4.1,7.6,6,3.5c3.6-7.7,4.4-19.4-0.2-27.3c9.8-5.6,19.8-14.1,23.2-24.8
		c1.6-5,0.4-12.9-4.6-15.7c-3.4-2-7.3-1.7-11-0.9c0.9-3.9,0.3-7.8-3.4-10.9c-5.2-4.5-11.6-6.2-11.9-14.2c-0.1-4.4,3.3-9.2,4.3-13.5
		c1.3-5.3,0.2-10.8-1.7-15.9c-3.6-9.5-11.2-16.7-20.5-20.2c2.5-8.4,1.3-17.3-3.6-24.5c20.4-13.8,31.4-35.7,46.1-54.9
		c3.3,4.7,9.8,6.8,15.9,7.6C191.6,347.3,204,344.3,213.6,338.9z"/>
	<path d="M173.6,592.8c-6.2-0.6-12.4-2.1-18.7-1c-4.4,0.8-2.5,7.6,1.9,6.8c6.7-1.3,14,1.2,20.7,1.4c6.9,0.2,12.9-3.7,18.5-7.3
		c3.6-2.3,7.1-4.7,10.8-6.7c2.1-1.2,4.3-2.3,6.7-2.2c1.3,0,2.4,0.4,3.7,0.3c7.9-0.3,7.8-10.4,11-15.3c2.4-3.8-3.6-7.3-6-3.5
		c-1.7,2.6-2.5,5.6-3.3,8.5c-1.2,4.1-3,3.1-6.4,3c-6.9-0.2-14.5,6.3-20,9.9C186.1,590.8,181.1,593.5,173.6,592.8z"/>
	<path d="M232.7,616.9c2.8-3.5-2.1-8.5-5-4.9c-1.9,2.4-5.5,3.9-7,6.7c-1.4,2.8-1.2,5.2-0.4,8.1c1.5,5.8-6.3,11.8-9.9,15.3
		c-1.6,1.6-1.2,4.4,0.7,5.5c3.1,1.8,6.1,3.6,8.1,6.7c1.7,2.6,2.3,5.9,3.3,8.8c1.4,4.3,8.1,2.4,6.8-1.9c-1.2-3.6-2.1-7.2-4-10.5
		c-1.6-2.8-4.1-5-6.7-6.8c3.3-3.4,6.1-6.7,8-11.3c1.2-2.9,1.4-4.7,0.5-7.7C226,620.9,230.6,619.6,232.7,616.9z"/>
	<path d="M377,734.3c9.3-3.9,15.4-11.4,21.9-18.9c3.7-4.3,7.2-8.7,10.2-13.4c3.7-5.7,5-12.2,6.2-18.7c0.8-4.4-5.9-6.3-6.7-1.9
		c-1.2,6.6-2.6,12.5-6.3,18.2c-3.4,5.2-7.6,9.9-11.6,14.6c-3.5,4-6.9,8.1-11.4,11.1c-3.2,2.1-7,3.4-10.5,4.9
		c-9.8,4.4-17.5,11.4-23.4,20.4c-4.8,7.4-7.8,15.7-11.3,23.8c-8.8-12.2-25.6-16.8-39.9-11.6c-3-6.7-7.4-12.2-11.5-18.4
		c-2.5-3.8-3.1-7.7-3.9-12.1c-0.7-3.7-2.9-6.9-5.4-9.6c-2.4-2.6-7.6-3.8-8.9-7.3c-0.9-2.3-1.5-4.8-2.3-7.1
		c-2.3-6.9-5.7-13.6-11.8-18c-3.7-2.6-7.2,3.5-3.5,6c5.3,3.8,7.7,10.7,9.5,16.7c1.9,6,4.3,9.4,9.7,12.9c7.3,4.7,5.8,13.9,9.8,20.9
		c4.3,7.4,10.2,13.3,12.9,21.6c0.7,2.2,3.1,3.1,5.1,2.1c13-6.5,31.4-1.6,37,12.5c1,2.5,4.9,3.8,6.4,0.8c4.8-9.8,8.3-20.3,14-29.7
		C357.5,744.3,366.6,738.7,377,734.3z"/>
	<path d="M379.5,585.3c0.6,6.2,2.4,11.1,5.6,16.4c7.1,11.4,18.2,19.7,25.5,30.9c1.6,2.4,4.3,2,5.7,0.3c0.7-0.7,1-1.7,0.7-2.9
		c-0.1-0.3-0.2-0.7-0.3-1c0,0,0,0,0,0c0,0,0,0,0,0c-0.1-0.1-0.1-0.2-0.2-0.3c-0.2-0.4-0.4-0.6-0.7-0.9
		c-7.1-10.3-16.8-18.2-23.9-28.4c-4-5.8-5.3-11.3-5.9-18.2c-0.4-5-0.5-10.6-3.1-15.1c-2.3-3.9-8.3-0.4-6,3.5
		C379.5,574.1,379,580.4,379.5,585.3z"/>
	<path d="M388,556.4c7,2.4,14.1,4.5,21.2,6.3c6.3,1.6,14,1.8,19.9,4.7c9.6,4.6,18.2-6.9,25.4-11.3c3.8-2.4,0.3-8.4-3.5-6
		c-4.2,2.6-7.8,6-11.7,8.8c-4.1,3-6.1,2.2-10.5,0.9c-6.2-1.9-13-2.6-19.3-4.2c-6.6-1.7-13.1-3.6-19.5-5.9
		C385.6,548.1,383.7,554.9,388,556.4z"/>
	<path d="M200.9,283.5c2.4,7.2,7.1,13.9,13.2,17.7c-0.4,2.2-0.8,4.4-1,6.7c-0.4,4.5,6.6,4.5,7,0c0.1-1.3,0.3-2.6,0.5-3.9
		c3.7,0.8,7.7,0.6,11.9-0.9c7-2.6,14.5-8,16.5-15.5c1.5-6-3-12.6-9-13.7c-6.6-1.2-12.7,3.3-16.9,7.9c-3.3,3.7-5.6,8-7.2,12.6
		c-6.5-4.8-9.2-14.2-10.7-21.8c-2.2-10.7-2.1-21.7-3.3-32.6c-0.5-4.4-7.5-4.5-7,0C196.6,254.5,196.2,269.4,200.9,283.5z
		 M227.3,287.7c2.3-3.2,7-7.8,11.5-7c5.8,1.1,2.6,7.8,0.1,10.3c-4.2,4.2-10.5,7.3-16.5,6.2C223.6,293.8,225.2,290.6,227.3,287.7z"/>
	<path d="M465.7,371.6c0.9-1.8,0.3-4.8-2.1-5.1c-4.3-0.6-6.6-2.2-8.7-6c-1.7-3.1-4.6-6.8-4.9-10.3c-0.6-8.6-7.8-11-14.1-15.4
		c-7.6-5.2-12.8-14.1-18.8-20.8c-2.8-3.2-6.1-5.9-9.7-8.2c-4.5-2.9-10.2-1.8-14.3-5.5c-1.9-1.7-5.1-1.1-5.9,1.5
		c-1,3.4-4,4.8-6.1,7.5c-2.7,3.5,2.2,8.5,4.9,5c1.9-2.5,4.1-4.1,5.8-6.4c2.2,1.2,4.6,1.9,7.3,2.4c5.4,1,9.2,4.7,12.9,8.6
		c6.8,7.3,12.1,15.9,20.3,21.9c3,2.2,6.3,3.9,9.3,6c1.9,1.3,1.2,4.7,1.7,6.6c0.5,2,1.6,3.5,2.7,5.3c3.4,5.6,5.6,10.6,11,13.1
		c-3.2,3.4-7.6,5.2-12.3,6.6c-1.8,0.5-3,2.4-2.4,4.3c4.1,14.6,9,38.3,26.8,40.5c-1.1,5-1.1,10,1.7,14.6c3.1,5.1,9.1,7.8,13.5,11.4
		c7.2,5.9,8,13.9,8.1,22.7c0.1,8.4-0.3,16.9,2,25.1c-16.7,8.5-25.5,26-23.7,44.8c0.4,4.5,7.4,4.5,7,0c-1.6-16.7,5.9-33,21.9-39.6
		c1.6-0.7,3.2-2.4,2.4-4.3c-3.1-8.3-2.6-17.2-2.6-26c0-7.4-0.4-16.5-5.3-22.6c-3.8-4.8-8.8-8-13.7-11.6c-6.1-4.5-5.6-10.2-3.4-17
		c0.6-2.1-1.1-4.6-3.4-4.4c-16,1.2-20.4-19.2-23.8-32.2C456.5,381.8,462.4,378.3,465.7,371.6z"/>
	<path d="M268.7,372.7c4.5,1.9,4,11.5,4.9,15.4c1.4,6.3,5.5,10.9,12,12c16.7,2.7,25.8-16.7,24.7-30.8c-0.3-4.5-7.4-4.5-7,0
		c0.5,6.1-1.1,12.3-4.3,17.5c-3.1,5.2-11.2,9.4-16.4,4.4c-3.3-3.2-3-10.2-3.8-14.5c-1-5-3.4-8.9-8.2-10.9
		C266.4,364.2,264.6,371,268.7,372.7z"/>
	<path d="M351.1,413c-3,0-6,0.5-8.8,1.5c-8.4,3-14.8,10-18,19.8c-3.2,9.7-2.9,21.1,1,31.9c6.4,18.2,21.6,30.9,36.9,30.9
		c3,0,6-0.5,8.8-1.5c8.4-3,14.8-10,18-19.8c3.2-9.7,2.9-21.1-1-31.9C381.5,425.7,366.4,413,351.1,413z M351.3,459.8
		c-1.2,0.6-2.6,0.9-4,0.9c-5.4,0-11.1-4.3-14.1-10.6c-3.9-8.2-2.1-17.3,4-20.1c1.2-0.6,2.6-0.9,4-0.9c5.4,0,11.1,4.3,14,10.6
		C359.1,447.9,357.3,456.9,351.3,459.8z"/>
	<path d="M384.4,550.3c2.7-8.4,2.5-18.1-0.8-27.4c-5.5-15.6-18.6-26.6-31.7-26.6c-2.6,0-5.2,0.4-7.6,1.3
		c-10.8,3.8-17.2,15.4-17.3,28.8c-0.3-1.3-0.7-2.6-1.2-3.9c-4.4-12.4-13.3-21.9-23.3-25.8c7.3-7.8,12.1-19.4,12.4-32.5
		c0.2-11.5-3-22.3-9.1-30.5c-6.1-8.3-14.4-12.9-23.4-13.1l-0.5,0c-10.8,0-20.5,6.7-26.6,17.1c-0.9-8.4-4.7-15.4-10.7-20.1
		c-4.8-3.7-10.7-5.6-17.2-5.6c-12.6,0-26.2,7.4-35.4,19.3c-7,9.1-10.9,19.7-10.9,30c0,10.3,3.9,19,11,24.4
		c4.8,3.7,10.7,5.6,17.2,5.6c0,0,0,0,0,0c12.6,0,26.2-7.4,35.4-19.3c1.3-1.7,2.6-3.6,3.7-5.4c0.9,18.7,11.1,34.3,24.8,38.7
		c-6.6,9.2-8.3,23.3-3.4,37c5.8,16.3,19.3,27.6,33,27.6c0,0,0,0,0,0c2.7,0,5.4-0.5,7.9-1.3c7.5-2.7,13.2-8.9,16.1-17.7
		c1.3-3.9,1.9-8.1,1.9-12.4c0.3,1.1,0.7,2.3,1.1,3.4c5.5,15.6,18.6,26.6,31.7,26.6c0,0,0,0,0,0c2.6,0,5.2-0.4,7.6-1.3
		C376.1,564.8,381.6,558.7,384.4,550.3z M352,536.5c-1,0.5-2.2,0.7-3.4,0.7c-4.6,0-9.4-3.6-12-9c-3.3-7-1.8-14.7,3.4-17.1
		c1.1-0.5,2.2-0.7,3.4-0.7c4.6,0,9.4,3.6,12,9C358.7,526.4,357.1,534.1,352,536.5z M280.3,510.2c1.1-0.5,2.3-0.8,3.5-0.8
		c4.8,0,9.8,3.8,12.5,9.4c3.5,7.3,1.9,15.3-3.5,17.9c-1.1,0.5-2.3,0.8-3.5,0.8c-4.8,0-9.8-3.8-12.5-9.4
		C273.4,520.7,275,512.7,280.3,510.2z M272.1,433.4c0.2,0,0.5,0,0.7,0c6.4,0,12,6.8,12.7,15.5c0.7,9.1-4.1,16.9-10.8,17.4
		c-6.7,0.6-12.7-6.4-13.5-15.4C260.6,441.8,265.4,433.9,272.1,433.4z M230.3,442.2c-3.4,5.5-8.9,9-14,9c-1.9,0-3.6-0.5-5.1-1.4
		c-5.7-3.5-6.4-12.7-1.6-20.4c3.4-5.5,8.9-9,14-9c1.9,0,3.6,0.5,5.1,1.4C234.4,425.3,235.1,434.5,230.3,442.2z"/>
	<path d="M340.3,629.6C340.3,629.6,340.3,629.6,340.3,629.6c2.5,0,4.9-0.4,7.3-1.2c6.9-2.4,12.1-8.2,14.8-16.2
		c2.6-8,2.3-17.2-0.8-26.1c-5.3-14.9-17.7-25.3-30.2-25.3c-2.5,0-4.9,0.4-7.3,1.2c-14.2,5-20.5,24-14,42.3c0.4,1.1,0.8,2.1,1.2,3.1
		c-3.7-4.1-8.4-6.7-13.5-7.4c-1-0.1-2-0.2-3-0.2c-13.7,0-25.9,13.1-28.4,30.5c-2.7,18.8,6.9,35.8,21.5,37.9c1,0.1,2,0.2,3,0.2
		c0,0,0,0,0,0c8.1,0,15.7-4.6,21-12c-2.5,5.9-3.6,12.9-2.8,20.3c1.9,17.7,14.2,31.6,28,31.6c0,0,0,0,0,0c0.7,0,1.5,0,2.2-0.1
		c7.1-0.8,13.4-5,17.8-12.1c4.3-7,6.2-15.9,5.2-25c-1.9-17.7-14.2-31.6-28-31.6c-0.7,0-1.5,0-2.2,0.1c-6.4,0.7-12,4.2-16,9.6
		c1.5-3.5,2.6-7.3,3.2-11.3c1.1-7.3,0.3-14.5-2.1-20.8C323.4,624.9,331.8,629.6,340.3,629.6z M325.4,651c0.5-0.1,1-0.2,1.5-0.2
		c4.8,0,9.3,4.7,10.6,11c1.5,7.1-1.6,13.7-6.7,14.8c-0.5,0.1-1,0.2-1.5,0.2c-4.8,0-9.3-4.7-10.6-11C317.2,658.7,320.2,652,325.4,651
		z M331.4,599c-1,0.5-2.1,0.7-3.2,0.7c-4.4,0-9-3.5-11.4-8.6c-3.1-6.7-1.7-14,3.2-16.3c1-0.5,2.1-0.7,3.2-0.7c4.4,0,9,3.5,11.4,8.6
		C337.8,589.4,336.3,596.7,331.4,599z M288.2,609.3c0.1,0,0.2,0,0.3,0c5.3,0.2,9.4,6.3,9.1,13.5c-0.3,7.2-4.8,12.9-10.2,12.7
		c-2.5-0.1-4.9-1.5-6.6-4.1c-1.7-2.6-2.6-5.9-2.5-9.4C278.6,614.9,283,609.3,288.2,609.3z"/>
	<path d="M224.3,562.2C224.3,562.2,224.3,562.2,224.3,562.2c13,0,25.8-10.2,31.8-25.4c7.5-18.9,1.6-39.1-13.1-44.9
		c-2.7-1-5.5-1.6-8.4-1.6c-13,0-25.8,10.2-31.8,25.4c-7.5,18.9-1.6,39.1,13.1,44.9C218.6,561.7,221.4,562.2,224.3,562.2z M217.2,510
		c1.8-6.4,6.7-11,11.7-11c0.7,0,1.4,0.1,2.1,0.3c5.5,1.5,8.3,8.9,6.2,16.4c-1.8,6.4-6.7,11-11.7,11c-0.7,0-1.4-0.1-2.1-0.3
		C217.9,524.8,215.1,517.4,217.2,510z"/>
	<path d="M281.9,595.7c7-17.7,1.5-36.5-12.2-41.9c-2.5-1-5.1-1.5-7.8-1.5c-12.2,0-24.1,9.5-29.7,23.7c-7,17.7-1.5,36.5,12.2,41.9
		c2.5,1,5.1,1.5,7.8,1.5C264.4,619.5,276.3,609.9,281.9,595.7z M245.7,570.7c1.7-5.9,6.2-10.3,10.9-10.3c0.7,0,1.3,0.1,2,0.3
		c5.1,1.4,7.7,8.3,5.7,15.2c-1.7,5.9-6.2,10.3-10.9,10.3c-0.7,0-1.3-0.1-2-0.3C246.3,584.5,243.7,577.6,245.7,570.7z"/>
</g>
</svg>
