<svg xmlns="http://www.w3.org/2000/svg" viewBox="0 0 1000 998.12"><defs><style>.cls-1{fill:#1b5f49;}.cls-1,.cls-2,.cls-3{fill-rule:evenodd;}.cls-2{fill:#084d3d;}.cls-3{fill:#fff;}</style></defs><title>VBK</title><g id="Layer_2" data-name="Layer 2"><g id="Layer_1-2" data-name="Layer 1"><path class="cls-1" d="M87.68,502.8C87.68,725.72,269,907.08,492,907.08S896.24,725.72,896.24,502.8,714.88,98.52,492,98.52,87.68,279.88,87.68,502.8Z"/><path class="cls-1" d="M207.05,820.11a13.54,13.54,0,0,0-11.25,4.18l-30,29.42a13.31,13.31,0,0,0-4.29,11.1l-2-2.07-2-2.07c-1.76-1.78-4.46-4.41-8.12-7.86S143,846.74,141.2,845q-7.19-7.35-8.84-14.1-1.94-8.08,4.4-14.27,7-6.89,16.64-1.82-7.69-11.46,1.68-20.64c4.68-4.59,9.78-6.46,15.26-5.61q7.57,1.17,15.32,9.08c1.56,1.6,3.87,4.08,6.92,7.41s5.35,5.81,6.92,7.41l4.29,4.37c.39.41,1.48,1.51,3.26,3.33ZM161.3,844.93l8.78-8.6q-2.93-3.36-5.41-5.91-6.16-6.28-10.16-8.32-6.56-3.36-11.2,1.2-6.94,6.81,4.61,18.61,3.92,4,6.54,5,3.57,1.27,6.84-1.93ZM186,820.77q3.89-3.81,2.74-7.87-.84-3-5.47-7.71-12.39-12.65-20.81-4.39-5.38,5.28-2.69,12.11,1.88,4.74,8.48,11.49,1.07,1.1,3.41,3.15t3.42,3.16l.38.39L186,820.77Z"/><path class="cls-1" d="M130,727.56a13.45,13.45,0,0,0-11.83,2.14L89,749.72a64,64,0,0,1-9.22,5.3q6-1.92,11-3.14L134,741.27a9.9,9.9,0,0,0,3.82-2.38l6.43,9.37a7.62,7.62,0,0,0-1.8,1,6.7,6.7,0,0,0-1.8,1.75L115.25,787.5q-3.27,4.69-6.9,9.16a43.87,43.87,0,0,1,8.14-6.87l29.18-20a13.41,13.41,0,0,0,6.21-10.33l10.37,15.11a13.44,13.44,0,0,0-11.83,2.14l-34.67,23.79a13.25,13.25,0,0,0-6.14,10.18l-11.3-16.46a3.16,3.16,0,0,0,2-.48,1.38,1.38,0,0,0,.45-.45l24.72-35.52a78.57,78.57,0,0,1,8-9.35,79.48,79.48,0,0,1-11.57,4.11l-42,10.4a.32.32,0,0,1-.14,0,1.93,1.93,0,0,0-.65.24c-.16.19-.52.69-1.1,1.48L66.67,748.07a13.24,13.24,0,0,0,11.67-2.13L113,722.15q5.77-4,6.3-10.19L130,727.56Z"/><path class="cls-1" d="M39.65,690.75a12.67,12.67,0,0,0-4.83-5.35l19-8.69a19.42,19.42,0,0,0-4.77,13.36q.2,6,4.07,14.53c1.42,3.11,2.78,5.21,4.06,6.29a5.7,5.7,0,0,0,6.52.65l12.39-5.65L70.9,694.48q-3.53-7.71-10.65-9.56l16.47-7.53Q73.47,684,77,691.7l5.2,11.4,15-6.84q4.08-1.86,4-5.81c0-1.77-.81-4.37-2.38-7.81q-4.29-9.39-8.7-13.34-5.26-4.71-14-5.12l19.74-9a13.14,13.14,0,0,0,1.16,7.62l18.62,40.77a13.42,13.42,0,0,0-12,.07L65.41,721.09a13.26,13.26,0,0,0-7.79,9l-18-39.32Z"/><path class="cls-1" d="M67.59,596.13a49.5,49.5,0,0,1-10.67-.26L23,591.4a20.45,20.45,0,0,0-6.59-.07,7.56,7.56,0,0,0-5.22,4.13L7.29,577.84A21.51,21.51,0,0,0,17,582l53.49,7.13A7.18,7.18,0,0,0,73,589a8.87,8.87,0,0,0,1.94-.62l2.79,12.75a5.29,5.29,0,0,0-2.34,0,7.27,7.27,0,0,0-2.07.84L29.12,629.35a24.73,24.73,0,0,0-8.62,8.73l-3.9-17.81a6.78,6.78,0,0,0,5.28,1.42,18.75,18.75,0,0,0,5.31-2.39l30.56-18.41a46.73,46.73,0,0,1,9.84-4.76Z"/><path class="cls-1" d="M2.67,522.77A12.69,12.69,0,0,0,0,516.08l20.85-1.55a19.47,19.47,0,0,0-9.11,10.87q-1.92,5.75-1.22,15c.25,3.42.79,5.85,1.62,7.31A5.73,5.73,0,0,0,18,550.63l13.58-1-.92-12.5q-.63-8.46-6.67-12.66l18.05-1.34q-5.34,5-4.71,13.51l.92,12.5,16.42-1.22q4.48-.33,5.82-4,.9-2.49.48-8.15-.77-10.29-3.54-15.53-3.28-6.24-11.32-9.65l21.64-1.61a13.14,13.14,0,0,0-1.56,7.55l3.32,44.69a13.47,13.47,0,0,0-11.3-4.1l-41.93,3.11a13.32,13.32,0,0,0-10.44,5.72l-3.2-43.12Z"/><path class="cls-1" d="M71.42,446.8a8.77,8.77,0,0,0-3.81,6.61,44.28,44.28,0,0,0,.63,8.71,44.33,44.33,0,0,1,.63,8.71Q66.77,500,35.2,497.73q-15-1.07-23.51-8.07-10.15-8.36-9-24.08a42.65,42.65,0,0,1,1.54-7.5,41.72,41.72,0,0,0,1.55-7.49,9.92,9.92,0,0,0-2-6.34L28.24,446q-8.31,4-12.12,7.65A19.75,19.75,0,0,0,10,466.89q-.75,10.35,7.91,16,6.61,4.29,17.06,5,10.14.72,17.13-2.58,9-4.26,9.72-14.35A19.65,19.65,0,0,0,60,460.34a9.29,9.29,0,0,0-8-5.52l-5.87-.42a12.51,12.51,0,0,0-11.32,5.16l1.3-18q3,3,10.69,3.52l24.6,1.76Z"/><path class="cls-1" d="M26.08,388.26q-3.12-2.75-5.15-3.18c-1.28-.28-2.83.19-4.63,1.42l3.82-17.63a37.17,37.17,0,0,0,7.08,8.88l27.66,25.36,11.42,2.47q6.84,1.47,11.74-2.45L74,421.92a13.43,13.43,0,0,0-9.67-7.17l-11-2.37L17.2,424.06a36.33,36.33,0,0,0-10.1,5l4.06-18.79a6,6,0,0,0,3.66,3.07,13.11,13.11,0,0,0,6-.67l24.82-7.28L26.08,388.26Z"/><path class="cls-1" d="M23.85,338.55,16,321.12c-1.07-2.36-1.32-4.33-.73-5.9a3.7,3.7,0,0,1,1.89-2.15,3.25,3.25,0,0,1,2.69-.17q2.06.77,2.76,5.44l2.51,16.78-1.26,3.43Zm14.57-20.7a12.66,12.66,0,0,0,.34-7.19l19.62,7.23A19.38,19.38,0,0,0,45.58,324q-4.11,4.42-7.35,13.18c-1.18,3.21-1.7,5.65-1.54,7.32a5.71,5.71,0,0,0,4.17,5.06l12.77,4.71L58,342.52q2.93-8-.82-14.29l17,6.26q-6.94,2.38-9.89,10.34l-4.33,11.76,15.45,5.7q4.22,1.54,7-1.27,1.85-1.9,3.81-7.23,3.57-9.68,3.22-15.6-.42-7-6.31-13.48l20.36,7.51a13.23,13.23,0,0,0-4.55,6.22L83.37,380.5a13.47,13.47,0,0,0-8.58-8.42L35.33,357.54a13.29,13.29,0,0,0-11.86.88l15-40.57Z"/><path class="cls-1" d="M107.05,325,87.49,314.61q17.16-1.64,23.06-12.76c2-3.69,2.65-7.08,2.06-10.14a11.62,11.62,0,0,0-13.56-8.66,21.1,21.1,0,0,0-7.21,4.28q-.82.69-7.2,6.7A46,46,0,0,1,77,300.08q-6.69,4-13.84.21A14.63,14.63,0,0,1,55,288.22q-.84-7.43,3.49-15.6a44.37,44.37,0,0,1,4.17-6,45,45,0,0,0,4.18-6,5.44,5.44,0,0,0,.23-5.3l17.77,9.42q-14.4.13-20.18,11a15.17,15.17,0,0,0-2,8.42,7.62,7.62,0,0,0,4.22,6.6,8.05,8.05,0,0,0,5.75.76q2.72-.62,10.57-7.86,1.49-1.38,3.53-3.21,12.56-11.3,23.93-5.25,8.53,4.51,9.68,12.9,1.1,7.62-4,17.23a39.46,39.46,0,0,1-4.3,6,39.22,39.22,0,0,0-4.3,6c-1,1.83-1.2,4.4-.68,7.69Z"/><path class="cls-1" d="M105.15,220.55a3.09,3.09,0,0,0-1.14-1.41q-2.52-1.78-6.26,3.5-10.5,14.84-3,28.39L76.85,238.36a8.31,8.31,0,0,0,4.83-3.06l25-35.33,23.76,58.43a3.6,3.6,0,0,0,1.11,1.64q2.43,1.71,7.05-4.82,11.41-16.12,4.65-30.79l17.93,12.69a10.07,10.07,0,0,0-5.18,3.66l-26.94,38.08-23.9-58.31Z"/><path class="cls-1" d="M203.33,189.5A13.45,13.45,0,0,0,199,178.28l-25.13-24.93a64.37,64.37,0,0,1-6.92-8.08c2,3.72,3.72,7.13,5.14,10.26L190.6,196a7.3,7.3,0,0,0,1.49,2,7.68,7.68,0,0,0,1.56,1.3l-8,8.07a7.27,7.27,0,0,0-1.28-1.58,6.52,6.52,0,0,0-2.05-1.45l-40.63-18.11c-3.47-1.55-6.91-3.24-10.28-5.07a44.6,44.6,0,0,1,8.27,6.72l25.12,24.93a13.44,13.44,0,0,0,11.31,4.17l-12.91,13a13.42,13.42,0,0,0-4.31-11.22L129,189.1A13.26,13.26,0,0,0,117.88,185L132,170.8a3.26,3.26,0,0,0,.84,1.88,1.35,1.35,0,0,0,.54.35l39.5,17.66a77.94,77.94,0,0,1,10.68,6.09,80.37,80.37,0,0,1-6.21-10.6l-18-39.27a.38.38,0,0,1-.06-.14,1.87,1.87,0,0,0-.36-.59c-.21-.12-.77-.39-1.66-.81l14.17-14.27a13.25,13.25,0,0,0,4.27,11.07l29.84,29.62q5,4.94,11.2,4.28L203.33,189.5Z"/><path class="cls-1" d="M222.49,93.87a12.6,12.6,0,0,0,4.34-5.75l12.11,17a19.33,19.33,0,0,0-14-2.17q-5.91,1.32-13.51,6.72-4.18,3-5.42,5.17-1.78,3.19.59,6.53l7.88,11.1,10.22-7.25q6.93-4.92,7.39-12.26l10.49,14.76q-7.08-2-14,3L218.35,138l9.53,13.42c1.73,2.44,3.89,3.41,6.47,2.89,1.74-.35,4.14-1.62,7.23-3.81q8.41-6,11.46-11.06,3.63-6,2.41-14.68L268,142.43a13.15,13.15,0,0,0-7.26,2.57L224.21,171a13.46,13.46,0,0,0-2.33-11.79l-24.35-34.28a13.27,13.27,0,0,0-10.29-6l35.25-25Zm-23.71,8.86,3.36-18.83q.66-3.83,2.72-5.29a3.74,3.74,0,0,1,2.77-.7A3.3,3.3,0,0,1,210,79.29c.85,1.19.58,3.21-.79,6l-7.4,15.27-3,2.12Z"/><path class="cls-1" d="M282.91,119.25a13.52,13.52,0,0,0,9.37,7.57l-17.13,8.72a13.45,13.45,0,0,0-.58-12L255.48,86.07a13.34,13.34,0,0,0-9.31-7.41l2.71-1.37,2.71-1.38q4.66-2.39,12.41-6.68l6.78-3.76c.63-.37,1.3-.73,2-1.09q20-10.18,27.83,5.2,5,9.8-4.78,19.37c3.71-.48,6.76-.16,9.13,1q3.06,1.41,6.67,5.78a112.59,112.59,0,0,0,8.16,11.12,10.57,10.57,0,0,0,6,2.93l-10.08,5.13a3.69,3.69,0,0,1-4.24-1.38,28.7,28.7,0,0,1-3.38-5.48,48.24,48.24,0,0,0-3.35-5.76q-4.57-6.06-10.28-6.59c-3.39-.33-7.64.81-12.78,3.43-.79.4-2,1-3.54,2s-2.76,1.55-3.55,1.95l8.28,16.26Zm-17.52-34.4,5.93,11.65q4.35-1.91,7.42-3.48,8.13-4.14,11.26-7.45,5-5.26,1.87-11.43-4.71-9.24-19.74-1.59-5.1,2.6-6.73,4.94c-1.44,2.08-1.45,4.54,0,7.36Z"/><path class="cls-1" d="M329.87,40.82c0,1.08,0,1.7,0,1.85a2.07,2.07,0,0,0,.36.59.36.36,0,0,1,.09.12L361.06,73.7A70.63,70.63,0,0,1,369.88,84a79.31,79.31,0,0,1-4.44-11l-9.72-29.34a13.32,13.32,0,0,0-8.17-8.7L365,29.2A13.28,13.28,0,0,0,363.68,41l15.26,46.06a9.47,9.47,0,0,0,2.15,4l-12.95,4.29a.82.82,0,0,1,0-.19,4.07,4.07,0,0,0,0-1.73,2.09,2.09,0,0,0-.35-.61.24.24,0,0,1-.1-.11L333.6,59.24c-2-2-4.78-5-8.34-9.22a64.17,64.17,0,0,1,4.2,9.91l11,33.09a13.43,13.43,0,0,0,8.21,8.83l-17.4,5.77a13.44,13.44,0,0,0,1.23-12L319.24,55.75A13.33,13.33,0,0,0,311.15,47l18.72-6.2Z"/><path class="cls-1" d="M421.44,84.36q-15,2.51-23.89-6.3-7.5-7.4-9.9-21.75T390,32.47q5.61-11.13,20.76-13.66t23.9,6.3q7.5,7.39,9.89,21.71T442.2,70.65q-5.59,11.17-20.76,13.71ZM394.26,8.93a4.53,4.53,0,0,1,1.13-3.76A5.82,5.82,0,0,1,399.05,3a5.42,5.42,0,0,1,4.06.82,4.67,4.67,0,0,1,2.14,3.23q.84,5-4.54,5.9a6,6,0,0,1-4.26-.72,4.61,4.61,0,0,1-2.19-3.34Zm26,68.08Q439,73.88,434.76,48.45,433,38,428.43,32.15q-6-7.72-16.43-6-18.93,3.15-14.68,28.54,1.74,10.41,6.43,16.32,6.15,7.71,16.48,6ZM412.08,6a4.63,4.63,0,0,1,1.05-3.74A5.55,5.55,0,0,1,416.7.09a5.64,5.64,0,0,1,4.11.82A4.62,4.62,0,0,1,423,4.13,4.69,4.69,0,0,1,422.09,8a5.74,5.74,0,0,1-3.73,2,5.61,5.61,0,0,1-4.15-.76A4.71,4.71,0,0,1,412.08,6Z"/><path class="cls-1" d="M476.32,13.6a13.29,13.29,0,0,0-4.72,10.91L472,45.76,493.25,21.3q2.47-2.82,2.44-4.94a3.79,3.79,0,0,0-2.18-3.06L513.27,13A112.21,112.21,0,0,0,504,21.14l-.09.08L491.17,35.31l17.45,31.28a31.27,31.27,0,0,0,8.87,10.14L499,77.05a6.8,6.8,0,0,0,1.85-4.44,10.84,10.84,0,0,0-1.54-4.7L484.82,41.75,472.14,55.4l.19,11.15a13.47,13.47,0,0,0,5.09,10.87l-19.21.34a13.4,13.4,0,0,0,4.73-11.05l-.73-42a13.3,13.3,0,0,0-5.11-10.74l19.22-.33Z"/><path class="cls-1" d="M544.17,16.06a13.36,13.36,0,0,0-5.82,10.37l-3.61,41.89a13.43,13.43,0,0,0,3.94,11.34L519.53,78a13.43,13.43,0,0,0,5.85-10.5L529,25.62a13.27,13.27,0,0,0-4-11.21l19.14,1.65Z"/><path class="cls-1" d="M635.21,34.41a12.71,12.71,0,0,0,7.19-.31L637,54.29a19.34,19.34,0,0,0-7.26-12.18q-4.79-3.7-13.8-6.12-4.95-1.34-7.43-.88-3.6.66-4.66,4.61l-3.53,13.16,12.11,3.24q8.19,2.21,14.16-2.12l-4.7,17.49q-3-6.7-11.19-8.91l-12.11-3.25-4.27,15.91c-.77,2.89-.14,5.16,1.91,6.82,1.37,1.12,3.88,2.16,7.54,3.14q10,2.68,15.82,1.79,7-1,12.85-7.51l-5.62,21a13.15,13.15,0,0,0-6.61-4L576.91,84.87a13.47,13.47,0,0,0,7.6-9.31L595.4,34.94a13.27,13.27,0,0,0-1.95-11.73l41.76,11.2ZM613.27,21.78l16.64-9.41c2.26-1.28,4.19-1.7,5.82-1.27A3.76,3.76,0,0,1,638,12.79a3.27,3.27,0,0,1,.41,2.66c-.38,1.42-2.1,2.5-5.17,3.26l-16.48,4-3.53-.95Z"/><path class="cls-1" d="M634.37,103.41,642.93,83q3.18,17,14.8,21.82,5.78,2.41,10.29,1.13a10.4,10.4,0,0,0,7-6.51,10.26,10.26,0,0,0,.43-7.78,21.12,21.12,0,0,0-4.9-6.8q-.76-.75-7.33-6.56a46.19,46.19,0,0,1-6.72-7.1A13.26,13.26,0,0,1,655,57.42a14.58,14.58,0,0,1,11.28-9.15q7.32-1.52,15.85,2.06a44.51,44.51,0,0,1,6.36,3.61,44.33,44.33,0,0,0,6.37,3.62,5.45,5.45,0,0,0,5.29-.25l-7.77,18.55q-1.44-14.32-12.82-19.1A15.25,15.25,0,0,0,671,55.5a7.64,7.64,0,0,0-6.19,4.81,8,8,0,0,0-.23,5.79q.87,2.66,8.78,9.81c1,.91,2.19,2,3.52,3.23q12.38,11.48,7.4,23.36-3.74,8.9-12,10.8-7.5,1.78-17.52-2.42a39.23,39.23,0,0,1-6.33-3.75,40.68,40.68,0,0,0-6.33-3.74c-1.92-.8-4.49-.79-7.73,0Z"/><path class="cls-1" d="M710.3,136.42a13.59,13.59,0,0,0,10.24-6.27L744.36,95.5a13.28,13.28,0,0,0,2.08-11.71l2.38,1.64,2.38,1.64q3.09,2.13,9.47,6.16t9.48,6.16q8.46,5.82,11.38,12.14,3.45,7.55-1.57,14.84-5.58,8.12-16,5,9.76,9.76,2.32,20.57-5.58,8.12-13.9,8.44-7.65.3-16.77-6-2.77-1.91-8.22-5.94t-8.22-5.94l-5-3.47-3.83-2.63Zm20.55-4.71c-2.05,3-2.45,5.74-1.17,8.25q1.4,2.78,6.85,6.52,14.58,10,21.26.31,4.28-6.21.31-12.4-2.73-4.3-10.52-9.65-1.26-.87-4-2.44t-4-2.44l-.45-.31-8.36,12.16Zm19.57-28.45-7,10.13c2.34,1.83,4.49,3.41,6.45,4.76q7.25,5,11.57,6.22,7.07,2,10.75-3.33,5.52-8-8.09-17.38c-3.07-2.12-5.53-3.31-7.37-3.6q-3.75-.57-6.35,3.2Z"/><path class="cls-1" d="M818.1,137.78a13.27,13.27,0,0,0-10.77,5l-27.41,31.89a13.46,13.46,0,0,0-3.43,11.51l-14.57-12.53a13.4,13.4,0,0,0,10.88-5.1l27.41-31.89a13.32,13.32,0,0,0,3.32-11.42l14.57,12.53Z"/><path class="cls-1" d="M801.87,213q-10.39-11.13-8-23.4,2-10.33,12.64-20.27t21.15-11.24q12.38-1.5,22.87,9.73t8,23.4q-2,10.33-12.62,20.24t-21.14,11.25q-12.42,1.51-22.91-9.71Zm5.46-5.08q13,13.91,31.82-3.7Q846.91,197,849.22,190q3.09-9.32-4.09-17-13.1-14-31.9,3.57-7.71,7.2-10,14.39-3,9.38,4.13,17Z"/><path class="cls-1" d="M859.51,287.3a13.41,13.41,0,0,0,11.87-1.83l29.69-19.28a63.89,63.89,0,0,1,9.36-5.06q-6.07,1.77-11.11,2.86L855.9,273.5a7.42,7.42,0,0,0-2.27,1,7.52,7.52,0,0,0-1.6,1.25l-6.19-9.54a7.88,7.88,0,0,0,1.82-.91,6.63,6.63,0,0,0,1.84-1.7l26.29-35.88q3.39-4.6,7.14-9a44.36,44.36,0,0,1-8.31,6.66l-29.69,19.28a13.43,13.43,0,0,0-6.47,10.18l-10-15.38a13.43,13.43,0,0,0,11.88-1.83l35.26-22.9a13.29,13.29,0,0,0,6.4-10l10.87,16.74a3.15,3.15,0,0,0-2,.43,1.38,1.38,0,0,0-.45.45L864.8,257.25a78.24,78.24,0,0,1-8.21,9.15,78.55,78.55,0,0,1,11.67-3.82l42.2-9.33a.26.26,0,0,1,.15,0,2,2,0,0,0,.65-.22c.16-.19.54-.67,1.14-1.45l11,16.86a13.24,13.24,0,0,0-11.72,1.83l-35.27,22.9q-5.88,3.83-6.55,10L859.51,287.3Z"/><path class="cls-1" d="M948.91,326.41a12.66,12.66,0,0,0,4.69,5.47l-19.24,8.19a19.33,19.33,0,0,0,5.11-13.23q0-6-3.7-14.63-2-4.72-3.89-6.38a5.72,5.72,0,0,0-6.51-.83l-12.53,5.34,4.92,11.53q3.33,7.81,10.4,9.84l-16.65,7.1q3.42-6.51.1-14.31L906.69,313l-15.15,6.45q-4.12,1.77-4.2,5.71c0,1.77.7,4.39,2.19,7.87q4.05,9.5,8.36,13.56,5.13,4.83,13.84,5.48l-20,8.5a13.19,13.19,0,0,0-1-7.64l-17.57-41.23a13.43,13.43,0,0,0,12,.24l38.68-16.5a13.27,13.27,0,0,0,8-8.77l17,39.77Zm-3.61-25.06L963,308.64c2.4,1,3.93,2.25,4.59,3.79a3.79,3.79,0,0,1,.1,2.86,3.25,3.25,0,0,1-1.85,2c-1.35.57-3.26-.11-5.75-2.06l-13.33-10.49-1.44-3.36Z"/><path class="cls-1" d="M911.22,380.06a13.51,13.51,0,0,0-9.4,7.53L897,369a13.44,13.44,0,0,0,11.85,2l40.69-10.63a13.3,13.3,0,0,0,9.23-7.51c.17.67.43,1.65.77,2.94s.59,2.27.76,2.94q1.32,5.07,3.87,13.55l2.22,7.44c.22.69.43,1.42.63,2.18q5.67,21.71-11,26.07-10.65,2.79-17.91-8.81-.48,5.59-2.87,8.72-2,2.67-7.08,5.27a113.44,113.44,0,0,0-12.61,5.59,10.61,10.61,0,0,0-4.15,5.28l-2.86-10.94a3.73,3.73,0,0,1,2.25-3.86,29.46,29.46,0,0,1,6.09-2.12,47.57,47.57,0,0,0,6.33-2q6.9-3.18,8.64-8.64,1.58-4.85-.61-13.21c-.22-.86-.61-2.15-1.15-3.88s-.93-3-1.16-3.88l-17.65,4.61Zm37.35-9.76-12.65,3.31c.63,3.09,1.23,5.76,1.82,8q2.29,8.82,4.86,12.59,4.08,6,10.77,4.27,10-2.62,5.77-18.94-1.44-5.53-3.38-7.63c-1.73-1.86-4.12-2.39-7.19-1.59Z"/><path class="cls-1" d="M977.78,442.65c-1-.26-1.66-.4-1.81-.41a2,2,0,0,0-.65.22.28.28,0,0,1-.13.06L939,466.1a71.82,71.82,0,0,1-11.92,6.42,78.69,78.69,0,0,1,11.66-2l30.74-3.23a13.26,13.26,0,0,0,10.24-6.12l1.92,18.23a13.26,13.26,0,0,0-11.28-3.76l-48.25,5.07a9.53,9.53,0,0,0-4.39,1.24l-1.43-13.56a.4.4,0,0,1,.19,0,4,4,0,0,0,1.69.37,2.45,2.45,0,0,0,.67-.22.28.28,0,0,1,.13-.06l40-26.15c2.35-1.53,5.94-3.59,10.8-6.18a63.18,63.18,0,0,1-10.59,2l-34.67,3.64A13.42,13.42,0,0,0,914.15,448l-1.92-18.24a13.42,13.42,0,0,0,11.41,3.76l41.82-4.4a13.25,13.25,0,0,0,10.25-6l2.07,19.61Z"/><path class="cls-1" d="M915.78,522.87q.71-15.21,11.19-22,8.82-5.77,23.35-5.1t22.81,7.31q9.71,7.83,9,23.18t-11.2,22q-8.8,5.76-23.3,5.09t-22.81-7.31q-9.74-7.83-9-23.18Zm7.44.37q-.9,19,24.86,20.22,10.57.48,17.26-2.76,8.83-4.29,9.32-14.8.9-19.15-24.8-20.37-10.54-.5-17.31,2.85-8.84,4.39-9.33,14.86Zm71.18,7a4.64,4.64,0,0,1,3.44,1.81,5.85,5.85,0,0,1-.35,7.78,4.57,4.57,0,0,1-3.61,1.48,4.7,4.7,0,0,1-3.58-1.72,5.75,5.75,0,0,1-1.23-4.08,5.64,5.64,0,0,1,1.62-3.89,4.74,4.74,0,0,1,3.71-1.38Zm.84-18a4.53,4.53,0,0,1,3.44,1.89,5.93,5.93,0,0,1,1.31,4,5.42,5.42,0,0,1-1.66,3.79,4.69,4.69,0,0,1-3.61,1.42q-5.07-.24-4.81-5.68a6,6,0,0,1,1.61-4,4.65,4.65,0,0,1,3.72-1.43Z"/><path class="cls-1" d="M973.4,591.44a13.3,13.3,0,0,0-9.67-6.92l-20.84-4.12,19.41,26c1.49,2,2.93,3.16,4.31,3.43a3.81,3.81,0,0,0,3.46-1.48l-3.84,19.38a111.64,111.64,0,0,0-6-10.79l-.07-.11L949,601.37l-34.26,10.45A31.16,31.16,0,0,0,903,618.35l3.6-18.17a6.79,6.79,0,0,0,3.95,2.75,10.9,10.9,0,0,0,4.92-.52l28.62-8.6-10.67-15.29-10.93-2.16A13.5,13.5,0,0,0,910.78,579l3.74-18.85a13.42,13.42,0,0,0,9.79,7l41.25,8.16a13.28,13.28,0,0,0,11.58-2.73l-3.74,18.86Z"/><path class="cls-1" d="M956.56,657.33a13.32,13.32,0,0,0-8.89-7.9L907.52,637a13.48,13.48,0,0,0-11.93,1.43L901.3,620a13.42,13.42,0,0,0,9,8l40.16,12.48a13.28,13.28,0,0,0,11.8-1.5l-5.7,18.36Z"/><path class="cls-1" d="M930.23,720.93a13.32,13.32,0,0,0-7.37-9.33L904,701.85l11.44,30.34c.87,2.34,1.94,3.84,3.19,4.48,1,.54,2.28.38,3.73-.46l-9.07,17.56a111,111,0,0,0-2.8-12l0-.13-6.36-17.89-35.82.52a31.27,31.27,0,0,0-13.13,3l8.51-16.46a6.72,6.72,0,0,0,3,3.73,10.74,10.74,0,0,0,4.87.87l29.89-.31-6-17.65-9.9-5.11a13.48,13.48,0,0,0-12-.68l8.82-17.07a13.44,13.44,0,0,0,7.47,9.41l37.36,19.29a13.28,13.28,0,0,0,11.88.59l-8.82,17.08Z"/><path class="cls-1" d="M858.82,746q-3.54-5.16-5.7-6.71A7.75,7.75,0,0,0,847,738l10.47-14.63q.64,6.74,6.06,14.92l27.31,41.32a3.45,3.45,0,0,0,.74.74,5.13,5.13,0,0,0,3,.84l-10,14a4.12,4.12,0,0,0-1.43-2.25,4.45,4.45,0,0,0-1.38-.61L835.1,778.17q-9.54-2.88-15.8-1.47L830,761.8a7.83,7.83,0,0,0,3.12,5.76c1.4,1,4.08,2,8,3.15q3.89-4.76,9.19-12.14T858.82,746Zm4.37,6.79q-4.82,6-7.63,10c-1.81,2.54-4.12,6-6.9,10.29l34.81,10.43-20.28-30.67Z"/><path class="cls-1" d="M815,796.72a13.47,13.47,0,0,0-11.32-4.09L817,778.78a13.43,13.43,0,0,0,4.47,11.16l30.28,29.18a13.25,13.25,0,0,0,11.21,4l-2.11,2.19-2.11,2.19q-3.63,3.76-9.54,10.36L844,843.59q-.72.82-1.53,1.68-15.57,16.15-28,4.18-7.92-7.63-1.81-19.87-5,2.49-8.94,2.09-3.36-.34-8.19-3.3a112.75,112.75,0,0,0-11.35-7.84,10.52,10.52,0,0,0-6.66-.79l7.85-8.15a3.69,3.69,0,0,1,4.46-.08,28.76,28.76,0,0,1,5,4.08,48.57,48.57,0,0,0,5,4.35q6.3,4.23,11.87,2.87,5-1.18,11-7.41c.61-.64,1.52-1.64,2.71-3s2.09-2.37,2.71-3L815,796.72Zm27.79,26.79-9.4-9.07q-3.48,3.22-5.88,5.71-6.33,6.57-8.21,10.72-3,6.61,2,11.41,7.47,7.2,19.17-4.94,4-4.12,4.75-6.87,1-3.66-2.4-7Z"/><path class="cls-2" d="M406.47,952.18h-6.28a8.55,8.55,0,0,0-5.1,1.43v-9.2a13.28,13.28,0,0,0,5.18,1.2q8.43,0,8.43-8.61a10,10,0,0,0-1-4.41h8.71a21.34,21.34,0,0,0-1,6.95v46.14a13.14,13.14,0,0,0,4.77,10.74H401.67q4.8-3.87,4.8-10.73V952.18Z"/><path class="cls-2" d="M475.68,962.53q11.55,4.32,11.55,15.94,0,10-7.74,14.93-6.72,4.32-18.1,4.31t-18.05-4.36q-7.74-5-7.74-14.88,0-11.62,11.52-15.94c-5.88-2.46-8.82-6.86-8.82-13.16q0-8.68,7.07-13,6.06-3.75,16-3.74t16.08,3.74q7.11,4.36,7.11,13,0,9.42-8.91,13.16Zm-14.26,3.79q-7.29,0-11.64,2.77a11.74,11.74,0,0,0,0,19.18q4.35,2.81,11.64,2.81t11.63-2.81a11.66,11.66,0,0,0-.05-19.13q-4.33-2.82-11.58-2.82Zm0-27.1a17.9,17.9,0,0,0-9.68,2.33,8.79,8.79,0,0,0-4.21,7.91,9,9,0,0,0,4.16,8q3.69,2.41,9.73,2.42t9.77-2.42a9,9,0,0,0,4.21-8,8.78,8.78,0,0,0-4.25-7.91q-3.69-2.32-9.73-2.33Z"/><path class="cls-2" d="M505.7,996.42q6.73-6,11.14-17.11l12.49-31.56a10.35,10.35,0,0,0,.87-3.62q0-4.68-8.33-4.68-17,0-25.36,14.68v-22.3a14.32,14.32,0,0,0,7.35,2h43.81a34.87,34.87,0,0,0-8.52,13L524.77,983a18.89,18.89,0,0,0-1.59,6.65q0,3.6,3.48,6.77Z"/><path class="cls-2" d="M552.66,974.24Q561.95,991,577.05,991c4.59,0,8.25-1.19,11-3.57a12.2,12.2,0,0,0,4.14-9.76,10.33,10.33,0,0,0-4.35-8.93q-4-2.85-10.5-2.86a19.26,19.26,0,0,0-10.7,2.92V957.3a15.93,15.93,0,0,0,8.33,2A21.77,21.77,0,0,0,585.64,957a9,9,0,0,0,5-8.33,8,8,0,0,0-3.92-7.27,16.68,16.68,0,0,0-8.92-2.11q-14.24,0-23.58,14.41V932.18a10.38,10.38,0,0,0,7.11,2.51,60.24,60.24,0,0,0,9.25-1.05,60.13,60.13,0,0,1,9.29-1q8.52,0,13.89,3.48a12.76,12.76,0,0,1,6.15,11.4q0,9.87-10.7,14.36,12,4.21,12,16.55,0,9.07-6.53,14.31-6.3,5-16.36,5a57.91,57.91,0,0,1-9-1,57.88,57.88,0,0,0-9-1,12,12,0,0,0-7.64,2.49V974.24Z"/><path class="cls-3" d="M270.55,267.88V252.52l208.58-24.86V221a47.87,47.87,0,0,1-9.94.55c-13.17-.66-13.69-19.89-1.74-19.89h47c12,0,11,19.29-.48,19.29l-10.49-.47v6L713.32,252v14.91s-192.76,33.71-197.18,34.81-4.42,2.81-4.42,2.81H470.9s1.3-1.87-3.86-2.81c-6.08-1.1-196.49-33.79-196.49-33.79Z"/><path class="cls-3" d="M312.12,302c-2-1.8-3.89-4.3-4.17-7.41-.55-6.08-.59-10.62-.59-10.62l-16.57-2.76v12.71c0,2.11-1.37,5.11-3.93,7.58-30.72,4.36-54.11,26.57-54.11,53.33V587.23c-.18,0-.36-.06-.54-.06a9.39,9.39,0,1,0,0,18.78c.1,0,.2,0,.31,0v11.54H277.2V591.3H247.78V354.85c0-22.57,23.1-37.68,50.28-37.68s50,15.11,50,37.68v150l16.09-6.55V354.85c0-25.86-22.64-47.47-52.05-52.83Z"/><path class="cls-3" d="M351.87,549.94l-9.39-25c-13.14,0-55.7,2.5-48.19,12.83s46.31,13.14,57.58,12.21Z"/><path class="cls-3" d="M357.88,549.62c5.94,0,34.07-1.64,41.55-11.26,2.19-2.82-3.76-4.7-3.76-4.7l-37.79,16Z"/><path class="cls-3" d="M350,515.2s4.07,8.14,5,12.83a14.09,14.09,0,0,0,4.38,7.51s172.11-60.39,189.32-65.71,40.37-13.77,54.63-2.51c9,7.11,3.36,19.86-6.44,24.41-8.76,4.07-36.92,17.21-45.06,55.07H726.12s9.39-40.36-28.47-91.68-99.82-35-120.48-28.16S350,515.2,350,515.2Z"/><polygon class="cls-3" points="735.2 575.28 540.56 575.28 540.56 556.19 735.2 556.19 735.2 575.28 735.2 575.28"/><polygon class="cls-3" points="510.83 628.16 472.34 628.16 472.34 584.04 510.83 584.04 510.83 628.16 510.83 628.16"/><polygon class="cls-3" points="526.17 716.72 455.76 716.72 455.76 603.76 526.17 603.76 526.17 716.72 526.17 716.72"/><polygon class="cls-3" points="534.3 737.56 302.43 737.56 302.43 694.19 547.76 694.19 534.3 737.56 534.3 737.56"/><polygon class="cls-3" points="677.15 737.56 578.24 737.56 590.87 694.19 677.15 694.19 677.15 737.56 677.15 737.56"/><path class="cls-3" d="M285.53,549v82c0,20.65,13.14,34.42,26.91,34.42H376.9c15,0,28.16-8.76,28.16-35V551.5s-15,13.14-57.57,13.14-62-15.64-62-15.64Z"/><path class="cls-3" d="M560.63,586.91h23.19l-5.58,18.84c-7.81-4.5-14.48-12.78-17.61-18.84Z"/><path class="cls-3" d="M622.87,586.91h31l9.77,30.8s-14.85,3.71-25.59,3.71-24.21-3.9-24.21-3.9l9-30.61Z"/><path class="cls-3" d="M693.9,586.66h15.56s-6.13,8.21-11.6,11.92l-4-11.92Z"/><polygon class="cls-3" points="486.95 311.18 471.94 311.18 471.94 457.92 486.95 452.02 486.95 311.18 486.95 311.18"/><polygon class="cls-3" points="510.65 543.68 510.65 493.17 495.62 499.07 495.62 543.68 486.95 543.68 486.95 502.48 471.94 508.38 471.94 543.68 457.95 543.68 457.95 575.59 524.6 575.59 524.6 543.68 510.65 543.68 510.65 543.68"/><polygon class="cls-3" points="510.65 311.18 495.62 311.18 495.62 448.61 510.65 442.71 510.65 311.18 510.65 311.18"/><polygon class="cls-3" points="554.58 737.52 544.31 737.52 590.76 586.66 601.04 586.66 554.58 737.52 554.58 737.52"/><polygon class="cls-3" points="567.81 737.52 562.09 737.52 608.55 586.66 614.26 586.66 567.81 737.52 567.81 737.52"/><polygon class="cls-3" points="721.67 737.52 711.92 737.52 664.75 586.66 674.49 586.66 721.67 737.52 721.67 737.52"/><polygon class="cls-3" points="734.89 737.52 729.18 737.52 682 586.66 687.72 586.66 734.89 737.52 734.89 737.52"/><path class="cls-3" d="M636.07,686.12H625.8l-3.59-58.71a56,56,0,0,0,10.27,1.06l3.59,57.65Z"/><path class="cls-3" d="M648.24,686.12h-5.72l-3.6-58.18a39.43,39.43,0,0,0,5.72-.53l3.6,58.71Z"/><path class="cls-3" d="M752.75,587.17c-.19,0-.36.05-.55.06V354.85c0-26.76-23.38-49-54.1-53.33-2.57-2.47-3.93-5.47-3.93-7.58V281.23L677.6,284s0,4.54-.59,10.62a11.87,11.87,0,0,1-4.17,7.41c-29.41,5.36-52.05,27-52.05,52.83v52.43h16.09V354.85c0-22.57,22.84-37.68,50-37.68s50.28,15.11,50.28,37.68V591.3H722.49c-8.45,13.93-24.1,26.16-24.1,26.16h54.05V605.92c.1,0,.2,0,.31,0a9.39,9.39,0,0,0,0-18.78Z"/><path class="cls-3" d="M566.22,743.94a11,11,0,1,1-21.9,0Z"/><path class="cls-3" d="M651,743.94a11,11,0,1,1-21.9,0Z"/><path class="cls-3" d="M735.82,743.94a11,11,0,1,1-21.9,0Z"/></g></g></svg>