<svg xmlns="http://www.w3.org/2000/svg" viewBox="0 0 1000 339.25"><defs><style>.cls-1{fill:#ff1a00;}.cls-1,.cls-2{fill-rule:evenodd;}</style></defs><title>Homar</title><g id="Layer_2" data-name="Layer 2"><g id="Layer_2-2" data-name="Layer 2"><path class="cls-1" d="M264.3,0c53.64.07,93.83,27.25,117.36,64.1,7.41,11.62,15.52,26.82,19.72,39.45,4,12.13,1.6,22.8-7.89,28.6-16.69-1.58-39.09-3.91-55.23,0-11.49-12.83-32.7-16-50.29-22.68,1.22-9.45-5.08-11.36-10.85-13.81C273.15,63.73,287.51,10.7,264.3,0Z"/><path class="cls-2" d="M215,203.16c5.26,12.46,33.43,9.88,46.35,5.91-2.18,19.81,8,32.51-2,45.37-8,10.23-44.71,5.91-49.31,0-6.76-8.69-3-30.56-3-42.41,0-16.91,4.88-45.87-7.89-51.28-8-3.4-38.17-1.58-42.4,0-13.35,5-8.88,28.51-8.88,51.28,0,15.63,4.43,32.91-3,42.41-8.1,10.42-44.59,6.07-49.31,0-6-7.73-3-41.35-3-58.19V74c0-14.89-3.63-48.71,3-57.19,6.12-7.87,43.26-7.78,49.31,0,9.8,12.6,0,62.47,3.95,73,4.77,12.85,51.93,13.34,57.19,1,3.7-8.68,1-25.92,1-38.46,0-11.36-3.58-27.09,3-35.5s43.11-8,49.31,0c8.27,10.63,3,47.66,3,71v74c-2.78,2.47-5.53,5-5.92,9.86C248.7,179,239.54,185,232.74,193.29,223.74,193.5,217.68,196.64,215,203.16Z"/><path class="cls-1" d="M856,159.76c-11.11-.85-14.93-13.37-23.67-19.72-6.9-5-14.92-6.46-25.64-7.89-2.39-3.55,9.33-9.6,11.83-14.79,1.39-15.69-.51-29.15-12.82-32.55-7.21-2-24.71-2.2-34.52,0-9.07,2-27,21.13-29.58,32.55-1.3,5.77,1,10.86,0,14.79-7.79.1-13.65,2.13-19.73,3.95-15.41-5-37.45-.57-55.22,2-14.18,4.89-32.11,6-42.41,14.79-22.39,3.58-32.49,19.45-51.28,26.63-4,2.56-5.62,7.53-11.84,7.89,5.15-72.86,48-119.62,101.58-149.9,38-14.26,89-20.46,122.29-4.94,25.71,12,52.65,31.24,68,52.27,2.69,13,12.19,24.45,15.78,35.51C874.74,138.51,853.71,140.79,856,159.76Z"/><path class="cls-1" d="M191.32,31.56c1.7,14.85,1.57,36.41,0,51.28-7.3,1.58-20.31,1.58-27.61,0C163.79,60.5,179.14,45.07,191.32,31.56Z"/><path class="cls-1" d="M901.38,92.7c3,15.41,17.33,23.7,15.78,40.44-7.86.28-23.45-.21-34.52,0-5.38-15.26-14.62-28.67-14.79-39.45C877.52,95.9,888.28,93.92,901.38,92.7Z"/><path class="cls-1" d="M930,131.16c-1.63-12.5-8.25-20-14.79-27.61,4.13-11.4,22.48,5.22,29.58,0,6.63,3,15.6,8.46,15.78,14.79C960.89,129.8,941.93,132.18,930,131.16Z"/><path class="cls-2" d="M756.41,126.23c4.81-8.77,10.76-24,22.68-26.62,8.58-1.93,23.28-1,24.66,5.91s-17.62,22.14-25.64,26.63C768.67,137.43,760,136.72,756.41,126.23Z"/><path class="cls-1" d="M431,100.59c14.33,11.85,7.21,38-6.91,45.37-8.83-2.68-13.46-9.56-23.67-10.85,9.5-6.4,18.87-17.93,11.84-32.55C415.87,99.31,424.47,101,431,100.59Z"/><path class="cls-1" d="M452.66,115.38c6.54,3.33,11.76,8,11.84,17.76-11.86,1.29-12.84,13.46-22.69,16.76-.15-2.78,2.79-2.47,3.95-3.94-2.66-1.35-3.83-3.48-6.9-2C445.12,136.11,450.71,127.57,452.66,115.38Z"/><path class="cls-1" d="M320.51,136.1c-21.86,14-46.12,25.53-43.39,64.1-12.52,4.21-30.09,8.86-49.31,5.92.38-4.89,4.57-6,8.88-6.91,8.42-9,20-14.84,24.65-27.61,3.6,0,4.43-2.81,6.9-3.95,3.51-9,6.88-18.11,10.85-26.62C290.5,133.94,306.29,130.85,320.51,136.1Z"/><path class="cls-2" d="M355,146c36.21-3.2,66.34,12.4,76.92,37.47,5.66,13.4,7,32.14,1,48.33-20.86,56.48-118,49.81-139,3.94a65.37,65.37,0,0,1-1-51.28C301.24,164,320.5,149,355,146Zm2,92.7c39,8.3,38.05-68.26,0-58.19C334.75,186.36,331.89,233.31,357,238.66Z"/><path class="cls-2" d="M557.2,203.16c8.7-1.17,14.47-5.25,17.75-11.84,8.07,4.3,6.18-8.34,13.81-4.93,8.37-12,26.79-14,35.5-25.64,5.82,4.14,7.23-.95,10.85-3.94,6.11,2.62,13.11-2.94,20.71-5.92,23.3,10.54,21.69,37,21.69,73,0,11.45,2.5,26.8,0,35.5-4.23,14.76-46.14,14.45-50.29,0-6.7-23.37,11.11-71-12.82-75-22.46-3.7-20.71,24.77-20.71,46.35,0,14.21,3.44,34.65-9.86,38.46-12.13,3.48-37.21,1.37-40.44-9.86-6.31-22,11.71-74.24-14.79-75.94-19.22-1.23-18.74,25.84-18.74,47.34,0,7.87,2.65,19.37,0,28.6-3.68,12.85-45.57,16.47-50.29,0-3.33-11.58,0-37.43,0-51.28,0-16.62-2.95-40,0-50.3,3.49-12.16,25.79-11.65,34.51-9.86,6.62,1.36,10.77,8.44,19.73,7.89,10.72-.66,17.92-10.38,33.53-10.85,4.24-.13,9.12.94,14.79,1C555.51,161.75,554.18,182.41,557.2,203.16Z"/><path class="cls-2" d="M706.11,175.54c8.33-22.85,29.91-28.78,54.25-30.57,30.91-2.27,66.15,2.28,76.92,24.66,8,16.52,2.45,49.77,3.94,72,.64,9.46,4.73,18.13,0,23.67-5,5.89-21.9,5.67-31.56,3.94-7.33-1.31-11.77-6.85-18.73-6.9s-11.52,4.95-17.75,6.9c-28.95,9.06-68,.19-73-24.65a34,34,0,0,1,6.9-28.6c8.42-10,20.46-12.44,40.43-16.77C758.91,196.74,789,195,788,182.45c-.79-9.41-14.66-8.59-22.68-5.92-9.4,3.13-13.63,9.72-20.71,10.85C729.57,189.78,710.36,185.86,706.11,175.54Zm55.23,46.35c-9.25,5-12.2,19.25-1,22.69,21,6.43,43.19-26.89,20.71-27.62C773.83,216.73,764.94,220,761.34,221.89Z"/><path class="cls-2" d="M938.86,183.43C925,192.51,922.36,199.78,921.1,217c-1,13.07,4.74,35.3-2,46.35-5.47,9-40.75,9.23-46.35,0-5.91-9.74-2-42.71-2-55.22,0-14.22-3.64-52.06,5.92-58.19,5.37-3.45,20-3.61,28.6-2,7.2,1.38,11.21,6,16.76,5.92,6.1-.14,9.65-6.19,18.74-7.89,12-2.24,25.63.16,27.61,9.86C970.88,167.73,957.09,188.17,938.86,183.43Z"/><path class="cls-1" d="M162.72,225.84c9.33,4.48,18.71,8.9,29.59,11.83.86,7-2,17.77,2,21.7-10.18-.67-21.42-8.82-31.56-12.82Z"/><path class="cls-1" d="M271.2,265.29c12.38,4.27,25.09,5.7,36.49,9.86,6.32,2.3,11,6,16.77,7.89,10.24,3.38,20.22,2.48,34.51,3.94,23.84,2.44,47.19,9.85,71,12.82,73.92,9.23,150.95,15.14,234.71,14.8,52.84-.22,106.07-4.16,157.8-8.88a556.81,556.81,0,0,0,75.93-11.83C932.21,286,963.3,278.9,1000,287c-7.06,15.24-26.73,13.71-40.43,15.78-43.47,6.58-92.47,17.39-143,22.68-66.21,6.95-138.39,14-205.13,13.81-138.54-.33-276-22.75-383.63-64.1C243,272.57,266,277.82,271.2,265.29Z"/><path class="cls-1" d="M0,131.16c24.7,14.43,51.41,35.38,77.91,51.29v13.8C48.82,177.68,23.76,155.07,0,131.16Z"/></g></g></svg>