<svg id="Réteg_2" data-name="Réteg 2" xmlns="http://www.w3.org/2000/svg" viewBox="0 0 1200 900"><title>impulzus</title><path d="M427.65,443.4h-4.76a50.41,50.41,0,0,0-27.95,8.47L390,455.16l-4.94-3.29a50.41,50.41,0,0,0-27.95-8.47h-4.76a42.64,42.64,0,0,0-42.64,42.65v91.32A11.61,11.61,0,0,0,321.32,589h5.89a11.61,11.61,0,0,0,11.61-11.62V486.92a18.24,18.24,0,0,1,18.24-18.23h.88a18.24,18.24,0,0,1,18.24,18.23v90.45A11.61,11.61,0,0,0,387.79,589h5.3a11.62,11.62,0,0,0,11.62-11.62V486.92a18.23,18.23,0,0,1,18.23-18.23h.88a18.24,18.24,0,0,1,18.24,18.23v90.45A11.62,11.62,0,0,0,453.68,589h5a11.61,11.61,0,0,0,11.61-11.62V486.05A42.64,42.64,0,0,0,427.65,443.4Z"/><path d="M709.52,443.4H703.4A11.86,11.86,0,0,0,691.32,455v90.45c0,10.07-8.49,18.23-19,18.23h-.91c-10.48,0-19-8.16-19-18.23V455a11.86,11.86,0,0,0-12.08-11.62h-5.2A11.86,11.86,0,0,0,623.11,455v91.32a41.78,41.78,0,0,0,14.31,31.32,45.16,45.16,0,0,0,30,11.33h9.79a45.11,45.11,0,0,0,30-11.33,41.83,41.83,0,0,0,14.16-28.31c.07-1,.16-2,.16-3V455A11.86,11.86,0,0,0,709.52,443.4Z"/><path d="M1035.62,443.4h-6.12A11.86,11.86,0,0,0,1017.42,455v90.45c0,10.07-8.49,18.23-19,18.23h-.92c-10.47,0-19-8.16-19-18.23V455a11.86,11.86,0,0,0-12.08-11.62h-5.2A11.86,11.86,0,0,0,949.21,455v91.32a41.78,41.78,0,0,0,14.31,31.32,45.16,45.16,0,0,0,30,11.33h9.79a45.16,45.16,0,0,0,30-11.33,41.92,41.92,0,0,0,14.16-28.31c.07-1,.15-2,.15-3V455A11.86,11.86,0,0,0,1035.62,443.4Z"/><path d="M906.67,443.4H833.33a10.19,10.19,0,0,0-10.19,10.2v2.74a10.2,10.2,0,0,0,10.19,10.2h47.74a1.59,1.59,0,0,1,1.36,2.43l-56.87,92.92a16.53,16.53,0,0,0-2.42,8.6v2A16.47,16.47,0,0,0,839.61,589h73.33a10.2,10.2,0,0,0,10.2-10.2v-2.74a10.2,10.2,0,0,0-10.2-10.2H867.88a1.6,1.6,0,0,1-1.38-2.4l54.39-93.06a16.5,16.5,0,0,0,2.25-8.31v-2.21A16.47,16.47,0,0,0,906.67,443.4Z"/><path d="M578.88,454.73A42.45,42.45,0,0,0,550,443.4h-9.41A42.7,42.7,0,0,0,498.09,483c-.07,1-.15,2-.15,3V629.14a11.61,11.61,0,0,0,11.62,11.61h5.88a11.61,11.61,0,0,0,11.62-11.61V486.92a18.23,18.23,0,0,1,18.23-18.23h.89a18.23,18.23,0,0,1,18.23,18.23v65.84A13.39,13.39,0,0,1,551,566.15h-5.74a8.43,8.43,0,0,0-8.43,8.43v6a8.44,8.44,0,0,0,8.43,8.43h12.55a34.81,34.81,0,0,0,34.81-34.81V486.05A42.49,42.49,0,0,0,578.88,454.73Z"/><path d="M1121.91,504.58h-8.38a10.15,10.15,0,0,1-10.15-10.15V483.55a10.14,10.14,0,0,1,10.15-10.15h42.79A12.65,12.65,0,0,0,1169,460.75v-4.7a12.65,12.65,0,0,0-12.65-12.65h-45.73A36.61,36.61,0,0,0,1074,480v16.17a36.61,36.61,0,0,0,36.62,36.62H1125a15.74,15.74,0,0,1,15.73,15.74v27.5a13,13,0,0,0,13,12.94h4.26a12.94,12.94,0,0,0,12.94-12.94V547.52c0-23.72-16.43-42.94-40.15-42.94Z"/><path d="M878.43,652.81c-7.64,0-16.41-11.21-24.14-21.09A161.26,161.26,0,0,0,842,617.14c-9.19-9.19-18.4-11-25.12-12.41-5.17-1-7.77-1.65-10.18-4.06-5.77-5.77-7.32-17.15-7.44-21L763.59,233.25a5.23,5.23,0,0,0-5.48-4.7l-8.84.47a5.24,5.24,0,0,0-5,5.23V628.11c0,12-13.26,24.7-20.39,24.7H22.75c-1.18,0-3.93,0-3.93-3.92v-42H273.14a9.8,9.8,0,0,0,9.8-9.8V312a9.81,9.81,0,0,0-9.8-9.81H9.8A9.81,9.81,0,0,0,0,312V648.89c0,11.3,7.81,22.75,22.75,22.75H723.92c18.69,0,39.22-22.79,39.22-43.53V417.19l17.27,163.33c.13,3.63,1.4,21.92,12.94,33.46,6.53,6.53,13.86,8,19.75,9.2s10.37,2.1,15.54,7.27a147.16,147.16,0,0,1,10.82,12.86c10.38,13.28,22.15,28.33,39,28.33h316.33a5.24,5.24,0,0,0,5.24-5.24v-8.35a5.24,5.24,0,0,0-5.24-5.24ZM147.94,325.75c34.93,0,63.24,6.85,63.24,15.3s-28.31,15.29-63.24,15.29-63.23-6.85-63.23-15.29S113,325.75,147.94,325.75ZM27.65,553.34a35.23,35.23,0,0,1,35.23-35.23h59.77a10.3,10.3,0,0,0,10.29-10.3v-45H84c-27.44,0-34.7-37.88-9.21-48l93-37a25.25,25.25,0,0,1,34.6,23.47V507.81a10.3,10.3,0,0,0,10.3,10.3h5.65a35.23,35.23,0,0,1,35.23,35.23v.71a35.23,35.23,0,0,1-35.23,35.23H62.88a35.23,35.23,0,0,1-35.23-35.23Z"/></svg>