<?xml version="1.0" encoding="utf-8"?>
<!-- Generator: Adobe Illustrator 21.0.0, SVG Export Plug-In . SVG Version: 6.00 Build 0)  -->
<svg version="1.1" xmlns="http://www.w3.org/2000/svg" xmlns:xlink="http://www.w3.org/1999/xlink" x="0px" y="0px"
	 viewBox="0 0 1200 900" style="enable-background:new 0 0 1200 900;" xml:space="preserve">
<style type="text/css">
	.st0{display:none;}
	.st1{fill:#818285;}
	.st2{fill:#23B2E7;}
</style>
<g id="Réteg_1" class="st0">
	
		<image style="display:inline;overflow:visible;" width="1366" height="768" xlink:href="F89F0FEC.jpg"  transform="matrix(1 0 0 1 140.7143 130.9286)">
	</image>
</g>
<g id="Réteg_2">
	<g>
		<g>
			<g>
				<polygon class="st1" points="234.1,458.7 169.1,458.7 169.1,395.7 133.9,395.7 133.9,561 169.1,561 169.1,493.8 234.1,493.8 
					234.1,561 269.4,561 269.4,395.7 234.1,395.7 				"/>
				<path class="st1" d="M653.2,395.7H618V561h35.3v-39.7l103.2,43.5v-44l-97.7-38.4c-2.1-0.8-2.1-3.7-0.1-4.6l97.8-41.2v-40.9
					l-103.2,40.6V395.7z"/>
				<path class="st1" d="M774.3,449.6V561h35.3v-67.1H910v-35.1H809.6V452c0-11.9,9.7-21.6,21.6-21.6H910v-34.7h-81.7
					C798.5,395.7,774.3,419.8,774.3,449.6z"/>
				<path class="st1" d="M1030.9,395.7v98.2c0,15.9-12.9,28.8-28.8,28.8h-11.9c-15.9,0-28.8-12.9-28.8-28.8v-98.2h-35.3V501
					c0,33.1,26.9,60,60,60h20c33.1,0,60-26.9,60-60V395.7H1030.9z"/>
				<path class="st1" d="M367.2,393.9c-16.5,0-27.4,7.2-32.8,21.6L280.9,561h43.5l41.5-125c0.6-1.7,3-1.7,3.5,0l40.2,125h43.5
					l-53.5-145.5C394.3,401.1,383.5,393.9,367.2,393.9z"/>
				<path class="st1" d="M601.9,488.9c0-5.7-2.8-11.4-8.3-17.1c-8.2-8.4-20.4-12.6-36.7-12.6h-52.3c-7.1-0.6-10.7-3.8-10.7-9.5v-19
					H599v-35.1H456.1v61.2c0,10.5,4.1,18.9,12.2,25.2c8.2,6.3,18.7,9.5,31.5,9.5l56.7,0.4c7.3,0,7.8,3,7.8,9v9.9v2.2
					c0,5.7-0.4,12.2-7.5,13.1h-55.4c-7.1-0.9-7.5-7.4-7.5-13.1V511h-37.7l-0.1,14.9c0,0.2,0,0.3,0,0.4c0,23.1,16.7,34.7,50.2,34.7
					h42.5c33.4,0,53.4-11.6,53.4-34.7c0-0.2,0-0.3,0-0.4l-0.1-14.9L601.9,488.9z"/>
			</g>
		</g>
		<g>
			<path class="st1" d="M170.6,623.8c0,1.1,0,2-0.1,2.8s-0.2,1.3-0.4,1.7c-0.2,0.4-0.4,0.7-0.7,0.8c-0.3,0.2-0.6,0.2-1.1,0.2
				c-0.3,0-0.7-0.1-1.2-0.2c-0.4-0.1-0.9-0.2-1.4-0.4c-0.5-0.1-1.1-0.2-1.8-0.4c-0.6-0.1-1.3-0.2-2.1-0.2c-0.9,0-1.8,0.1-2.7,0.4
				s-1.8,0.7-2.8,1.2c-1,0.6-2,1.3-3,2.3c-1,0.9-2.2,2.1-3.4,3.5v26.1c0,0.3-0.1,0.6-0.4,0.8s-0.7,0.4-1.3,0.6
				c-0.6,0.2-1.4,0.3-2.5,0.4s-2.3,0.1-3.9,0.1c-1.6,0-2.9,0-3.9-0.1s-1.9-0.2-2.5-0.4c-0.6-0.2-1.1-0.4-1.3-0.6
				c-0.3-0.2-0.4-0.5-0.4-0.8V620c0-0.3,0.1-0.6,0.3-0.8c0.2-0.2,0.6-0.4,1.2-0.6c0.6-0.2,1.3-0.3,2.1-0.4c0.9-0.1,2-0.1,3.3-0.1
				c1.4,0,2.5,0,3.4,0.1s1.6,0.2,2.1,0.4c0.5,0.2,0.8,0.4,1.1,0.6s0.3,0.5,0.3,0.8v5.2c1.5-1.6,2.9-2.9,4.2-3.9
				c1.3-1,2.6-1.8,3.8-2.4c1.2-0.6,2.4-1,3.6-1.2c1.2-0.2,2.4-0.4,3.6-0.4c0.6,0,1.2,0,1.8,0.1c0.6,0,1.3,0.1,2,0.2
				c0.7,0.1,1.3,0.2,1.8,0.4c0.5,0.1,0.9,0.3,1.1,0.4c0.2,0.2,0.4,0.3,0.5,0.5s0.2,0.4,0.3,0.8s0.1,0.8,0.2,1.5
				S170.6,622.7,170.6,623.8z"/>
			<path class="st1" d="M226.4,661.9c0,0.4-0.2,0.8-0.6,1c-0.4,0.3-1.1,0.4-2,0.5c-0.9,0.1-2.3,0.2-4.1,0.2c-1.9,0-3.3-0.1-4.2-0.2
				c-0.9-0.1-1.5-0.3-1.9-0.5c-0.4-0.3-0.5-0.6-0.5-1v-3.3c-2.4,1.8-5,3.3-8.1,4.3c-3,1-6.4,1.5-10,1.5c-3,0-5.8-0.3-8.4-0.9
				c-2.5-0.6-4.7-1.4-6.6-2.6c-1.9-1.1-3.3-2.6-4.3-4.2s-1.5-3.7-1.5-5.9c0-2.4,0.7-4.6,2-6.4c1.3-1.8,3.2-3.3,5.8-4.5
				c2.6-1.2,5.8-2,9.7-2.6s8.3-0.8,13.4-0.8h5.6v-2.5c0-1.3-0.2-2.5-0.5-3.4c-0.4-1-1-1.8-1.8-2.5c-0.8-0.7-1.9-1.1-3.3-1.5
				c-1.4-0.3-3.1-0.5-5.2-0.5c-2.7,0-5.1,0.2-7.2,0.7s-4,0.9-5.6,1.5s-3,1-4.1,1.5c-1.1,0.4-2,0.7-2.7,0.7c-0.5,0-0.9-0.1-1.3-0.3
				c-0.4-0.2-0.7-0.5-0.9-0.9s-0.4-0.9-0.5-1.5c-0.1-0.6-0.2-1.3-0.2-2c0-1,0.1-1.7,0.3-2.3s0.6-1.1,1.2-1.5s1.6-1,3.1-1.5
				s3.3-1.1,5.3-1.5c2-0.5,4.2-0.9,6.6-1.1c2.4-0.3,4.8-0.4,7.3-0.4c4.5,0,8.3,0.3,11.5,1c3.2,0.6,5.8,1.6,7.9,3
				c2.1,1.3,3.5,3,4.5,5.1c0.9,2.1,1.4,4.6,1.4,7.5V661.9z M210.6,644h-6.2c-2.6,0-4.8,0.1-6.7,0.4c-1.8,0.3-3.3,0.7-4.5,1.3
				s-2,1.2-2.5,2c-0.5,0.8-0.8,1.7-0.8,2.7c0,1.8,0.8,3.1,2.3,4.1c1.5,1,3.6,1.5,6.3,1.5c2.3,0,4.4-0.4,6.3-1.3
				c1.9-0.8,3.8-2.1,5.8-3.7V644z M205,599.4c0.3-0.3,0.7-0.6,1.1-0.9c0.4-0.3,1-0.4,1.6-0.6c0.6-0.1,1.5-0.2,2.4-0.3
				c1-0.1,2.2-0.1,3.6-0.1c2,0,3.5,0.1,4.6,0.2c1.1,0.1,1.9,0.3,2.4,0.5c0.5,0.2,0.7,0.5,0.7,0.8c0,0.3-0.3,0.6-0.6,1L208.4,611
				c-0.3,0.3-0.7,0.6-1,0.8s-0.8,0.4-1.3,0.5c-0.5,0.1-1.2,0.2-2,0.3c-0.8,0.1-1.8,0.1-3.1,0.1c-1.5,0-2.7,0-3.6-0.1
				c-0.9-0.1-1.5-0.2-1.8-0.4c-0.3-0.2-0.5-0.5-0.4-0.8s0.3-0.7,0.7-1.1L205,599.4z"/>
			<path class="st1" d="M296.8,661.8c0,0.3-0.1,0.6-0.3,0.9c-0.2,0.2-0.6,0.4-1.1,0.6c-0.5,0.2-1.2,0.3-2.1,0.3s-2,0.1-3.2,0.1
				c-1.4,0-2.5,0-3.3-0.1c-0.9-0.1-1.6-0.2-2.1-0.3c-0.5-0.2-0.9-0.4-1.2-0.6c-0.2-0.2-0.4-0.5-0.4-0.9v-4.6c-3,2.3-6,4.1-9.3,5.4
				c-3.2,1.3-6.8,1.9-10.7,1.9c-4.4,0-8-0.6-11.1-1.9c-3-1.2-5.5-2.9-7.4-5c-1.9-2.1-3.3-4.5-4.1-7.3c-0.9-2.8-1.3-5.7-1.3-8.8
				c0-3.7,0.5-7.1,1.6-10s2.7-5.5,4.8-7.6s4.7-3.7,7.8-4.8s6.7-1.7,10.8-1.7c3.2,0,6.1,0.5,8.7,1.4c2.6,1,5.2,2.4,7.8,4.2v-22.6
				c0-0.3,0.1-0.6,0.4-0.8c0.2-0.3,0.7-0.5,1.3-0.6c0.6-0.2,1.4-0.3,2.5-0.4c1-0.1,2.3-0.1,3.9-0.1c1.6,0,2.9,0,3.9,0.1
				c1,0.1,1.8,0.2,2.4,0.4c0.6,0.2,1,0.4,1.3,0.6c0.3,0.3,0.4,0.5,0.4,0.8V661.8z M280.8,633.8c-2.3-2.1-4.5-3.8-6.6-4.9
				c-2.1-1.1-4.3-1.7-6.6-1.7c-2.1,0-3.9,0.4-5.4,1.1c-1.5,0.8-2.7,1.8-3.7,3.1c-0.9,1.3-1.6,2.7-2.1,4.3c-0.4,1.6-0.7,3.2-0.7,4.9
				c0,1.8,0.2,3.5,0.6,5.1c0.4,1.7,1,3.1,1.9,4.4c0.9,1.3,2,2.3,3.5,3.1c1.5,0.8,3.3,1.2,5.5,1.2c1.1,0,2.2-0.1,3.2-0.4
				c1-0.2,2.1-0.6,3.2-1.1c1.1-0.5,2.2-1.2,3.4-2.1c1.2-0.9,2.4-1.9,3.8-3.2V633.8z"/>
			<path class="st1" d="M330.4,605.8c0,2.4-0.7,4-2,4.9c-1.3,0.9-3.8,1.4-7.4,1.4c-3.6,0-6.1-0.4-7.3-1.3c-1.3-0.9-1.9-2.5-1.9-4.7
				c0-2.4,0.6-4,2-4.9c1.3-0.9,3.8-1.4,7.4-1.4c3.6,0,6,0.4,7.3,1.3C329.8,601.9,330.4,603.5,330.4,605.8z M329.2,661.8
				c0,0.3-0.1,0.6-0.4,0.8c-0.3,0.2-0.7,0.4-1.3,0.6c-0.6,0.2-1.4,0.3-2.5,0.4c-1,0.1-2.3,0.1-3.9,0.1c-1.6,0-2.9,0-3.9-0.1
				c-1-0.1-1.9-0.2-2.5-0.4c-0.6-0.2-1.1-0.4-1.3-0.6s-0.4-0.5-0.4-0.8V620c0-0.3,0.1-0.6,0.4-0.8s0.7-0.4,1.3-0.6
				c0.6-0.2,1.4-0.3,2.5-0.4c1-0.1,2.3-0.1,3.9-0.1c1.6,0,2.9,0,3.9,0.1c1,0.1,1.9,0.2,2.5,0.4c0.6,0.2,1.1,0.4,1.3,0.6
				c0.3,0.2,0.4,0.5,0.4,0.8V661.8z"/>
			<path class="st1" d="M403.2,640.4c0,3.6-0.6,6.8-1.9,9.8s-3.2,5.5-5.8,7.6c-2.6,2.1-5.9,3.8-9.8,4.9c-3.9,1.2-8.5,1.7-13.8,1.7
				c-5.1,0-9.5-0.5-13.3-1.5s-6.9-2.5-9.4-4.5c-2.5-2-4.3-4.4-5.5-7.3s-1.8-6.2-1.8-9.8c0-3.6,0.7-6.8,2-9.8c1.3-3,3.3-5.5,5.9-7.6
				c2.6-2.1,5.9-3.7,9.8-4.9c3.9-1.2,8.5-1.7,13.8-1.7c5.1,0,9.6,0.5,13.3,1.5c3.8,1,6.9,2.5,9.3,4.5c2.5,2,4.3,4.4,5.5,7.3
				C402.6,633.4,403.2,636.7,403.2,640.4z M386.5,640.9c0-2.1-0.2-4-0.7-5.7c-0.5-1.7-1.2-3.2-2.3-4.5s-2.5-2.3-4.3-3
				c-1.8-0.7-4-1.1-6.7-1.1c-2.4,0-4.5,0.3-6.3,1c-1.8,0.6-3.3,1.6-4.4,2.8s-2,2.7-2.6,4.5c-0.6,1.7-0.9,3.7-0.9,5.9
				c0,2.1,0.2,4,0.7,5.7c0.5,1.7,1.2,3.2,2.3,4.5c1,1.3,2.5,2.3,4.3,3c1.8,0.7,4,1.1,6.7,1.1c2.4,0,4.6-0.3,6.4-1
				c1.8-0.6,3.3-1.6,4.4-2.8s2-2.7,2.6-4.4S386.5,643.1,386.5,640.9z M375.6,599.4c0.3-0.3,0.7-0.6,1.1-0.9c0.4-0.3,1-0.4,1.6-0.6
				c0.6-0.1,1.5-0.2,2.4-0.3c1-0.1,2.2-0.1,3.6-0.1c2,0,3.5,0.1,4.6,0.2s1.9,0.3,2.4,0.5s0.7,0.5,0.7,0.8c0,0.3-0.3,0.6-0.6,1
				L379,611c-0.3,0.3-0.7,0.6-1,0.8s-0.8,0.4-1.3,0.5c-0.5,0.1-1.2,0.2-2,0.3s-1.8,0.1-3.1,0.1c-1.5,0-2.7,0-3.6-0.1
				s-1.5-0.2-1.8-0.4s-0.5-0.5-0.4-0.8s0.3-0.7,0.7-1.1L375.6,599.4z"/>
			<path class="st1" d="M464.7,661.9c0,0.4-0.2,0.8-0.6,1c-0.4,0.3-1.1,0.4-2,0.5c-0.9,0.1-2.3,0.2-4.1,0.2c-1.9,0-3.3-0.1-4.2-0.2
				c-0.9-0.1-1.5-0.3-1.9-0.5c-0.4-0.3-0.5-0.6-0.5-1v-3.3c-2.4,1.8-5,3.3-8,4.3c-3,1-6.4,1.5-10,1.5c-3,0-5.8-0.3-8.4-0.9
				c-2.5-0.6-4.7-1.4-6.6-2.6c-1.9-1.1-3.3-2.6-4.3-4.2c-1-1.7-1.5-3.7-1.5-5.9c0-2.4,0.7-4.6,2-6.4c1.3-1.8,3.2-3.3,5.8-4.5
				s5.8-2,9.7-2.6s8.3-0.8,13.4-0.8h5.6v-2.5c0-1.3-0.2-2.5-0.5-3.4c-0.4-1-1-1.8-1.8-2.5c-0.8-0.7-1.9-1.1-3.3-1.5
				c-1.4-0.3-3.1-0.5-5.2-0.5c-2.7,0-5.1,0.2-7.2,0.7s-4,0.9-5.6,1.5s-3,1-4.1,1.5c-1.1,0.4-2,0.7-2.7,0.7c-0.5,0-0.9-0.1-1.3-0.3
				c-0.4-0.2-0.7-0.5-0.9-0.9s-0.4-0.9-0.5-1.5c-0.1-0.6-0.2-1.3-0.2-2c0-1,0.1-1.7,0.3-2.3s0.6-1.1,1.2-1.5s1.6-1,3.1-1.5
				c1.5-0.5,3.3-1.1,5.3-1.5c2-0.5,4.2-0.9,6.6-1.1s4.8-0.4,7.3-0.4c4.5,0,8.3,0.3,11.5,1s5.8,1.6,7.9,3c2.1,1.3,3.5,3,4.5,5.1
				c0.9,2.1,1.4,4.6,1.4,7.5V661.9z M448.8,644h-6.2c-2.6,0-4.8,0.1-6.7,0.4c-1.8,0.3-3.3,0.7-4.5,1.3c-1.2,0.6-2,1.2-2.5,2
				c-0.5,0.8-0.8,1.7-0.8,2.7c0,1.8,0.8,3.1,2.3,4.1c1.5,1,3.6,1.5,6.3,1.5c2.3,0,4.4-0.4,6.3-1.3c1.9-0.8,3.8-2.1,5.8-3.7V644z"/>
			<path class="st1" d="M571.8,661.8c0,0.3-0.1,0.6-0.4,0.8c-0.3,0.2-0.7,0.4-1.3,0.6c-0.6,0.2-1.4,0.3-2.4,0.4s-2.3,0.1-3.9,0.1
				c-1.6,0-3,0-4-0.1c-1-0.1-1.8-0.2-2.5-0.4c-0.6-0.2-1-0.4-1.3-0.6c-0.2-0.2-0.4-0.5-0.4-0.8V637c0-1.4-0.2-2.7-0.5-3.8
				c-0.4-1.2-0.9-2.1-1.7-3c-0.7-0.8-1.7-1.5-2.8-1.9c-1.1-0.5-2.5-0.7-4.1-0.7c-1.9,0-3.9,0.5-5.8,1.6c-2,1.1-4.1,2.7-6.4,4.8v27.8
				c0,0.3-0.1,0.6-0.4,0.8c-0.3,0.2-0.7,0.4-1.3,0.6c-0.6,0.2-1.4,0.3-2.5,0.4c-1,0.1-2.3,0.1-3.8,0.1c-1.6,0-2.9,0-3.9-0.1
				s-1.8-0.2-2.5-0.4c-0.6-0.2-1.1-0.4-1.3-0.6s-0.4-0.5-0.4-0.8V637c0-1.4-0.2-2.7-0.5-3.8c-0.4-1.2-0.9-2.1-1.6-3
				c-0.7-0.8-1.7-1.5-2.8-1.9c-1.2-0.5-2.5-0.7-4-0.7c-2,0-3.9,0.5-5.9,1.6c-2,1.1-4.1,2.7-6.4,4.8v27.8c0,0.3-0.1,0.6-0.4,0.8
				c-0.3,0.2-0.7,0.4-1.3,0.6c-0.6,0.2-1.4,0.3-2.5,0.4c-1,0.1-2.3,0.1-3.9,0.1c-1.6,0-2.9,0-3.9-0.1c-1-0.1-1.9-0.2-2.5-0.4
				c-0.6-0.2-1.1-0.4-1.3-0.6s-0.4-0.5-0.4-0.8V620c0-0.3,0.1-0.6,0.3-0.8c0.2-0.2,0.6-0.4,1.2-0.6c0.6-0.2,1.3-0.3,2.1-0.4
				s2-0.1,3.3-0.1c1.4,0,2.5,0,3.4,0.1s1.6,0.2,2.1,0.4c0.5,0.2,0.8,0.4,1.1,0.6s0.3,0.5,0.3,0.8v4.8c3.2-2.5,6.3-4.4,9.5-5.6
				c3.1-1.3,6.4-1.9,9.8-1.9c2.4,0,4.5,0.2,6.4,0.5c1.9,0.4,3.6,0.9,5,1.5c1.5,0.7,2.7,1.5,3.8,2.4c1.1,0.9,2,2,2.7,3.1
				c1.7-1.3,3.4-2.5,5-3.5c1.6-1,3.3-1.8,4.9-2.4c1.6-0.6,3.2-1.1,4.8-1.4c1.6-0.3,3.2-0.4,4.9-0.4c3.8,0,7,0.5,9.6,1.4
				s4.7,2.2,6.3,3.8c1.6,1.6,2.7,3.5,3.4,5.6s1,4.4,1,6.8V661.8z"/>
			<path class="st1" d="M636.4,661.9c0,0.4-0.2,0.8-0.6,1c-0.4,0.3-1.1,0.4-2,0.5c-0.9,0.1-2.3,0.2-4.1,0.2c-1.9,0-3.3-0.1-4.2-0.2
				c-0.9-0.1-1.5-0.3-1.9-0.5c-0.4-0.3-0.5-0.6-0.5-1v-3.3c-2.4,1.8-5,3.3-8,4.3c-3,1-6.4,1.5-10,1.5c-3,0-5.8-0.3-8.4-0.9
				c-2.5-0.6-4.7-1.4-6.6-2.6c-1.9-1.1-3.3-2.6-4.3-4.2s-1.5-3.7-1.5-5.9c0-2.4,0.7-4.6,2-6.4c1.3-1.8,3.2-3.3,5.8-4.5
				c2.6-1.2,5.8-2,9.7-2.6c3.8-0.6,8.3-0.8,13.4-0.8h5.6v-2.5c0-1.3-0.2-2.5-0.5-3.4c-0.4-1-1-1.8-1.8-2.5c-0.8-0.7-1.9-1.1-3.3-1.5
				c-1.4-0.3-3.1-0.5-5.2-0.5c-2.7,0-5.1,0.2-7.2,0.7s-4,0.9-5.6,1.5s-3,1-4.1,1.5s-2,0.7-2.7,0.7c-0.5,0-0.9-0.1-1.3-0.3
				c-0.4-0.2-0.7-0.5-0.9-0.9s-0.4-0.9-0.5-1.5c-0.1-0.6-0.2-1.3-0.2-2c0-1,0.1-1.7,0.3-2.3c0.2-0.6,0.6-1.1,1.2-1.5
				c0.6-0.5,1.6-1,3.1-1.5s3.3-1.1,5.3-1.5c2-0.5,4.2-0.9,6.6-1.1c2.4-0.3,4.8-0.4,7.3-0.4c4.5,0,8.3,0.3,11.5,1
				c3.2,0.6,5.8,1.6,7.9,3c2.1,1.3,3.5,3,4.5,5.1c0.9,2.1,1.4,4.6,1.4,7.5V661.9z M620.5,644h-6.2c-2.6,0-4.8,0.1-6.7,0.4
				c-1.8,0.3-3.3,0.7-4.5,1.3c-1.2,0.6-2,1.2-2.5,2c-0.5,0.8-0.8,1.7-0.8,2.7c0,1.8,0.8,3.1,2.3,4.1c1.5,1,3.6,1.5,6.3,1.5
				c2.3,0,4.4-0.4,6.3-1.3c1.9-0.8,3.8-2.1,5.8-3.7V644z"/>
			<path class="st1" d="M685.1,657.6c0,1.4-0.1,2.4-0.4,3.2c-0.2,0.7-0.5,1.3-0.9,1.5s-1,0.6-1.7,0.8c-0.7,0.2-1.6,0.4-2.6,0.6
				c-1,0.2-2.1,0.3-3.3,0.4s-2.4,0.1-3.6,0.1c-3.2,0-6-0.3-8.3-0.9s-4.3-1.5-5.8-2.7c-1.5-1.2-2.7-2.8-3.4-4.7
				c-0.7-1.9-1.1-4.1-1.1-6.7v-21.4h-6.9c-0.8,0-1.4-0.4-1.9-1.1c-0.4-0.7-0.6-2-0.6-3.7c0-0.9,0.1-1.7,0.2-2.3
				c0.1-0.6,0.3-1.1,0.5-1.5c0.2-0.4,0.5-0.6,0.8-0.8s0.7-0.2,1.1-0.2h6.8V609c0-0.3,0.1-0.6,0.4-0.8c0.2-0.3,0.7-0.5,1.3-0.6
				c0.6-0.2,1.5-0.3,2.5-0.4c1-0.1,2.3-0.1,3.9-0.1c1.6,0,2.9,0,3.9,0.1c1,0.1,1.9,0.2,2.5,0.4s1,0.4,1.3,0.6
				c0.3,0.3,0.4,0.5,0.4,0.8v9.3h12.4c0.4,0,0.8,0.1,1.1,0.2c0.3,0.2,0.6,0.4,0.8,0.8s0.4,0.9,0.5,1.5s0.2,1.4,0.2,2.3
				c0,1.7-0.2,2.9-0.6,3.7s-1,1.1-1.9,1.1h-12.5v19.6c0,2.3,0.5,4,1.5,5.1c1,1.1,2.7,1.7,5.3,1.7c0.9,0,1.6-0.1,2.3-0.2
				s1.3-0.2,1.8-0.4s1-0.3,1.3-0.4c0.4-0.1,0.7-0.2,1-0.2c0.3,0,0.5,0.1,0.7,0.2c0.2,0.1,0.4,0.3,0.5,0.7c0.1,0.3,0.2,0.8,0.4,1.3
				S685.1,656.8,685.1,657.6z"/>
			<path class="st1" d="M753.4,640.4c0,3.6-0.6,6.8-1.9,9.8c-1.3,2.9-3.2,5.5-5.8,7.6c-2.6,2.1-5.9,3.8-9.8,4.9s-8.5,1.7-13.8,1.7
				c-5.1,0-9.5-0.5-13.3-1.5s-6.9-2.5-9.4-4.5c-2.5-2-4.3-4.4-5.5-7.3c-1.2-2.9-1.8-6.2-1.8-9.8c0-3.6,0.7-6.8,2-9.8
				c1.3-3,3.3-5.5,5.9-7.6c2.6-2.1,5.9-3.7,9.8-4.9c3.9-1.2,8.5-1.7,13.8-1.7c5.1,0,9.6,0.5,13.3,1.5c3.8,1,6.9,2.5,9.3,4.5
				c2.5,2,4.3,4.4,5.5,7.3C752.8,633.4,753.4,636.7,753.4,640.4z M716.9,612.1c-0.3,0.3-0.6,0.5-0.9,0.6c-0.3,0.2-0.7,0.3-1.2,0.4
				c-0.5,0.1-1,0.1-1.6,0.2c-0.6,0-1.4,0-2.3,0c-1.3,0-2.4,0-3.2-0.1c-0.8-0.1-1.5-0.2-1.9-0.3s-0.6-0.4-0.6-0.6s0.2-0.6,0.5-0.9
				l9.7-11.4c0.3-0.3,0.6-0.6,1-0.9c0.4-0.3,0.9-0.4,1.5-0.6c0.6-0.1,1.3-0.3,2.2-0.3c0.9-0.1,2-0.1,3.3-0.1c2,0,3.6,0.1,4.8,0.2
				s2.1,0.3,2.6,0.6c0.5,0.3,0.7,0.6,0.6,0.9c-0.1,0.4-0.5,0.8-1.2,1.3L716.9,612.1z M736.8,640.9c0-2.1-0.2-4-0.7-5.7
				c-0.5-1.7-1.2-3.2-2.3-4.5c-1.1-1.3-2.5-2.3-4.3-3c-1.8-0.7-4-1.1-6.7-1.1c-2.4,0-4.5,0.3-6.3,1c-1.8,0.6-3.3,1.6-4.4,2.8
				c-1.2,1.2-2,2.7-2.6,4.5c-0.6,1.7-0.9,3.7-0.9,5.9c0,2.1,0.2,4,0.7,5.7c0.5,1.7,1.2,3.2,2.3,4.5c1,1.3,2.5,2.3,4.3,3
				c1.8,0.7,4,1.1,6.7,1.1c2.4,0,4.6-0.3,6.4-1c1.8-0.6,3.3-1.6,4.4-2.8c1.2-1.2,2-2.7,2.6-4.4C736.5,645.1,736.8,643.1,736.8,640.9
				z M740.7,612.1c-0.3,0.3-0.7,0.5-1.1,0.7c-0.4,0.2-0.8,0.3-1.3,0.4c-0.5,0.1-1.1,0.1-1.8,0.2c-0.7,0-1.5,0-2.5,0
				c-2.5,0-4.2-0.1-5.1-0.4s-1-0.7-0.3-1.5l11.5-11.9c0.3-0.3,0.6-0.6,1-0.8c0.4-0.2,0.9-0.3,1.5-0.5c0.6-0.1,1.5-0.2,2.5-0.3
				s2.3-0.1,3.9-0.1c1.7,0,3.1,0.1,4.1,0.2c1,0.2,1.7,0.4,2.1,0.6s0.5,0.6,0.4,0.9s-0.5,0.7-1,1.1L740.7,612.1z"/>
			<path class="st1" d="M802.9,623.8c0,1.1,0,2-0.1,2.8s-0.2,1.3-0.4,1.7c-0.2,0.4-0.4,0.7-0.7,0.8c-0.3,0.2-0.6,0.2-1.1,0.2
				c-0.3,0-0.7-0.1-1.2-0.2c-0.4-0.1-0.9-0.2-1.4-0.4c-0.5-0.1-1.1-0.2-1.8-0.4c-0.6-0.1-1.3-0.2-2.1-0.2c-0.9,0-1.8,0.1-2.7,0.4
				s-1.8,0.7-2.8,1.2c-1,0.6-2,1.3-3,2.3c-1,0.9-2.2,2.1-3.4,3.5v26.1c0,0.3-0.1,0.6-0.4,0.8c-0.3,0.2-0.7,0.4-1.3,0.6
				c-0.6,0.2-1.4,0.3-2.5,0.4c-1,0.1-2.3,0.1-3.9,0.1c-1.6,0-2.9,0-3.9-0.1s-1.9-0.2-2.5-0.4s-1.1-0.4-1.3-0.6
				c-0.3-0.2-0.4-0.5-0.4-0.8V620c0-0.3,0.1-0.6,0.3-0.8c0.2-0.2,0.6-0.4,1.2-0.6c0.6-0.2,1.3-0.3,2.1-0.4c0.9-0.1,2-0.1,3.3-0.1
				c1.4,0,2.5,0,3.4,0.1s1.6,0.2,2.1,0.4c0.5,0.2,0.8,0.4,1.1,0.6s0.3,0.5,0.3,0.8v5.2c1.5-1.6,2.9-2.9,4.2-3.9
				c1.3-1,2.6-1.8,3.8-2.4c1.2-0.6,2.4-1,3.6-1.2c1.2-0.2,2.4-0.4,3.6-0.4c0.6,0,1.2,0,1.8,0.1c0.6,0,1.3,0.1,2,0.2
				c0.7,0.1,1.3,0.2,1.8,0.4c0.5,0.1,0.9,0.3,1.1,0.4c0.2,0.2,0.4,0.3,0.5,0.5s0.2,0.4,0.3,0.8s0.1,0.8,0.2,1.5
				C802.9,621.8,802.9,622.7,802.9,623.8z"/>
			<path class="st1" d="M895.7,661.8c0,0.3-0.1,0.6-0.4,0.8c-0.2,0.2-0.7,0.4-1.3,0.6c-0.6,0.1-1.5,0.3-2.5,0.3
				c-1.1,0.1-2.5,0.1-4.2,0.1c-1.8,0-3.2,0-4.3-0.1s-2-0.2-2.7-0.3c-0.7-0.1-1.3-0.3-1.6-0.6c-0.4-0.3-0.7-0.6-1-1l-19-22v22.1
				c0,0.3-0.1,0.6-0.4,0.8c-0.3,0.2-0.7,0.4-1.3,0.6c-0.6,0.2-1.4,0.3-2.5,0.4c-1,0.1-2.3,0.1-3.9,0.1c-1.6,0-2.9,0-3.9-0.1
				c-1-0.1-1.9-0.2-2.5-0.4s-1.1-0.4-1.3-0.6c-0.3-0.2-0.4-0.5-0.4-0.8v-61.6c0-0.3,0.1-0.6,0.4-0.8c0.3-0.3,0.7-0.5,1.3-0.6
				s1.4-0.3,2.5-0.4c1-0.1,2.3-0.1,3.9-0.1c1.6,0,2.9,0,3.9,0.1c1,0.1,1.9,0.2,2.5,0.4c0.6,0.2,1.1,0.4,1.3,0.6
				c0.3,0.3,0.4,0.5,0.4,0.8v36.7l16.9-16.6c0.3-0.4,0.7-0.7,1.2-1c0.4-0.3,1-0.5,1.7-0.7c0.7-0.2,1.6-0.3,2.6-0.4s2.4-0.1,4-0.1
				c1.6,0,2.9,0,4,0.1s2,0.2,2.6,0.4c0.7,0.2,1.1,0.4,1.4,0.6c0.3,0.2,0.4,0.5,0.4,0.9c0,0.5-0.2,1-0.5,1.5s-0.8,1.1-1.4,1.7
				l-16.7,13.9l19.4,21.9c0.5,0.6,0.9,1.2,1.1,1.6C895.6,661,895.7,661.4,895.7,661.8z"/>
			<path class="st1" d="M921.8,661.8c0,0.3-0.1,0.6-0.4,0.8s-0.7,0.4-1.3,0.6c-0.6,0.2-1.4,0.3-2.5,0.4c-1,0.1-2.3,0.1-3.9,0.1
				c-1.6,0-2.9,0-3.9-0.1c-1-0.1-1.9-0.2-2.5-0.4c-0.6-0.2-1.1-0.4-1.3-0.6c-0.3-0.2-0.4-0.5-0.4-0.8v-61.6c0-0.3,0.1-0.6,0.4-0.8
				c0.3-0.3,0.7-0.5,1.3-0.6c0.6-0.2,1.4-0.3,2.5-0.4c1-0.1,2.3-0.1,3.9-0.1c1.6,0,2.9,0,3.9,0.1c1,0.1,1.8,0.2,2.5,0.4
				c0.6,0.2,1.1,0.4,1.3,0.6s0.4,0.5,0.4,0.8V661.8z"/>
			<path class="st1" d="M992.1,661.8c0,0.3-0.1,0.6-0.3,0.8c-0.2,0.2-0.6,0.4-1.1,0.6c-0.5,0.2-1.2,0.3-2.1,0.4
				c-0.9,0.1-2,0.1-3.3,0.1c-1.4,0-2.6,0-3.4-0.1c-0.9-0.1-1.6-0.2-2.1-0.4c-0.5-0.2-0.9-0.4-1.1-0.6c-0.2-0.2-0.3-0.5-0.3-0.8v-4.8
				c-3.2,2.5-6.4,4.4-9.7,5.6c-3.3,1.3-6.7,1.9-10.2,1.9c-3.9,0-7.2-0.5-9.9-1.4s-4.8-2.2-6.5-3.8s-2.8-3.5-3.5-5.6
				c-0.7-2.1-1.1-4.8-1.1-8V620c0-0.3,0.1-0.6,0.4-0.8c0.2-0.2,0.7-0.4,1.3-0.6c0.6-0.2,1.5-0.3,2.5-0.4c1-0.1,2.3-0.1,3.9-0.1
				c1.6,0,2.9,0,3.9,0.1c1,0.1,1.8,0.2,2.5,0.4c0.6,0.2,1.1,0.4,1.3,0.6c0.3,0.2,0.4,0.5,0.4,0.8v23.6c0,2.2,0.2,3.9,0.6,5
				c0.4,1.2,1,2.1,1.8,3c0.8,0.8,1.8,1.5,3,1.9s2.6,0.7,4.3,0.7c2,0,4.1-0.5,6.2-1.6s4.3-2.7,6.6-4.8V620c0-0.3,0.1-0.6,0.4-0.8
				c0.2-0.2,0.7-0.4,1.3-0.6c0.6-0.2,1.4-0.3,2.5-0.4c1-0.1,2.3-0.1,3.9-0.1c1.6,0,2.9,0,3.9,0.1c1,0.1,1.8,0.2,2.4,0.4
				c0.6,0.2,1,0.4,1.3,0.6c0.3,0.2,0.4,0.5,0.4,0.8V661.8z"/>
			<path class="st1" d="M1066,640.3c0,3.7-0.6,7.1-1.7,10c-1.1,3-2.7,5.5-4.8,7.6c-2.1,2.1-4.7,3.7-7.7,4.8
				c-3.1,1.1-6.5,1.7-10.4,1.7c-1.9,0-3.7-0.1-5.4-0.4c-1.7-0.3-3.3-0.7-4.8-1.3s-3-1.3-4.5-2.3c-1.5-0.9-3-2-4.5-3.3v4.5
				c0,0.3-0.1,0.6-0.4,0.9s-0.6,0.4-1.2,0.6s-1.3,0.3-2.2,0.3c-0.9,0.1-2,0.1-3.3,0.1c-1.3,0-2.4,0-3.3-0.1
				c-0.9-0.1-1.6-0.2-2.1-0.3s-0.9-0.4-1.1-0.6c-0.2-0.2-0.3-0.5-0.3-0.9v-61.6c0-0.3,0.1-0.6,0.4-0.8c0.3-0.3,0.7-0.5,1.3-0.6
				c0.6-0.2,1.4-0.3,2.5-0.4c1-0.1,2.3-0.1,3.9-0.1c1.6,0,2.9,0,3.9,0.1c1,0.1,1.8,0.2,2.5,0.4c0.6,0.2,1.1,0.4,1.3,0.6
				c0.3,0.3,0.4,0.5,0.4,0.8v23.1c1.5-1.1,2.9-2,4.4-2.7c1.5-0.8,2.9-1.4,4.4-1.9s3-0.8,4.5-1.1c1.5-0.2,3.2-0.3,4.9-0.3
				c4.2,0,7.8,0.6,10.8,1.9c3,1.2,5.4,2.9,7.2,5c1.9,2.1,3.2,4.5,4.1,7.3S1066,637.2,1066,640.3z M1049.2,641.1
				c0-1.8-0.2-3.5-0.5-5.2c-0.4-1.7-1-3.1-1.9-4.4c-0.9-1.3-2.1-2.3-3.5-3.1c-1.4-0.8-3.2-1.1-5.4-1.1c-1.1,0-2.1,0.1-3.1,0.3
				c-1,0.2-2.1,0.6-3.2,1.1c-1.1,0.5-2.2,1.2-3.4,2.1c-1.2,0.8-2.4,1.9-3.7,3.1v13.9c2.3,2.1,4.4,3.7,6.5,4.9
				c2.1,1.1,4.2,1.7,6.5,1.7c2.1,0,3.9-0.4,5.3-1.2s2.7-1.8,3.6-3c1-1.3,1.7-2.7,2.1-4.3S1049.2,642.7,1049.2,641.1z"/>
		</g>
		<g>
			<g>
				<path class="st2" d="M367,529.9c-11.6,0-21.1-9.4-21.1-21.1c0-11.6,9.5-21.1,21.1-21.1c11.6,0,21.1,9.4,21.1,21.1
					C388.1,520.4,378.7,529.9,367,529.9z M367,498.5c-5.7,0-10.3,4.6-10.3,10.3c0,5.7,4.6,10.3,10.3,10.3c5.7,0,10.3-4.6,10.3-10.3
					C377.4,503.1,372.7,498.5,367,498.5z"/>
			</g>
		</g>
		<g>
			<g>
				<g>
					<path class="st2" d="M541.5,325.7c-2.1,0-4.1-0.8-5.7-2.4c-45.5-46.2-105.2-71.7-168.2-71.7S245,277,199.5,323.3
						c-3.1,3.2-8.2,3.2-11.3,0.1c-3.1-3.1-3.2-8.2-0.1-11.3c48.5-49.3,112.3-76.5,179.6-76.5s131.1,27.2,179.6,76.5
						c3.1,3.1,3.1,8.2-0.1,11.3C545.6,324.9,543.6,325.7,541.5,325.7z"/>
				</g>
				<g>
					<path class="st2" d="M510.6,355.6c-2,0-4.1-0.8-5.6-2.3c-37.4-37.1-86.2-57.5-137.4-57.5s-99.9,20.4-137.3,57.5
						c-3.1,3.1-8.2,3.1-11.3,0c-3.1-3.1-3.1-8.2,0-11.3c40.4-40.1,93.2-62.1,148.6-62.1s108.2,22.1,148.6,62.1
						c3.1,3.1,3.2,8.2,0,11.3C514.8,354.8,512.7,355.6,510.6,355.6z"/>
				</g>
				<g>
					<path class="st2" d="M510.6,355.6c-2,0-4.1-0.8-5.6-2.3c-37.4-37.1-86.2-57.5-137.4-57.5s-99.9,20.4-137.3,57.5
						c-3.1,3.1-8.2,3.1-11.3,0c-3.1-3.1-3.1-8.2,0-11.3c40.4-40.1,93.2-62.1,148.6-62.1s108.2,22.1,148.6,62.1
						c3.1,3.1,3.2,8.2,0,11.3C514.8,354.8,512.7,355.6,510.6,355.6z"/>
				</g>
				<g>
					<path class="st2" d="M480.2,385.1c-2,0-4-0.7-5.5-2.2c-29.4-28.1-67.4-43.6-107-43.6s-77.6,15.5-107,43.6
						c-3.2,3.1-8.3,2.9-11.3-0.3c-3.1-3.2-2.9-8.3,0.3-11.3c32.4-31,74.3-48,118.1-48s85.7,17.1,118.1,48c3.2,3.1,3.3,8.1,0.3,11.3
						C484.4,384.3,482.3,385.1,480.2,385.1z"/>
				</g>
			</g>
		</g>
	</g>
</g>
</svg>
