<?xml version="1.0" encoding="UTF-8" standalone="no"?>
<!DOCTYPE svg PUBLIC "-//W3C//DTD SVG 1.1//EN" "http://www.w3.org/Graphics/SVG/1.1/DTD/svg11.dtd">
<svg width="100%" height="100%" viewBox="0 0 3666 3236" version="1.1" xmlns="http://www.w3.org/2000/svg" xmlns:xlink="http://www.w3.org/1999/xlink" xml:space="preserve" xmlns:serif="http://www.serif.com/" style="fill-rule:evenodd;clip-rule:evenodd;stroke-linejoin:round;stroke-miterlimit:2;">
    <g id="g15" transform="matrix(0.261555,0,0,0.261555,340.284,881.517)">
        <g id="LevelIp">
            <g id="g151" serif:id="g15">
                <g id="háromszög">
                    <g id="path8" transform="matrix(1.33333,0,0,-1.33333,5149.36,4081.89)">
                        <path d="M0.002,0L839.422,0L419.711,799.607L0.002,0Z" style="fill:rgb(102,0,128);fill-rule:nonzero;"/>
                    </g>
                    <g id="path9" transform="matrix(1.33333,0,0,-1.33333,3586.77,4081.89)">
                        <path d="M0.002,0L724.525,0L1591.65,1651.61L2458.78,0L3183.31,0L1591.65,3032.32L0.002,0Z" style="fill:rgb(102,0,128);fill-rule:nonzero;"/>
                    </g>
                </g>
                <g id="text9" transform="matrix(1.01158,0,0,1.01158,262.641,-188.637)">
                    <path d="M1631.7,5779.14C1631.7,5804.36 1622.47,5826.19 1604.02,5844.65C1586.18,5862.49 1564.65,5871.41 1539.43,5871.41C1514.2,5871.41 1492.37,5862.49 1473.91,5844.65C1456.07,5826.19 1447.15,5804.36 1447.15,5779.14L1447.15,4671.85C1447.15,4646.63 1456.07,4625.1 1473.91,4607.26C1492.37,4588.81 1514.2,4579.58 1539.43,4579.58L2185.34,4579.58C2287.46,4579.58 2374.5,4615.57 2446.47,4687.54C2518.45,4759.51 2554.43,4846.56 2554.43,4948.67C2554.43,5050.79 2518.45,5137.83 2446.47,5209.81C2374.5,5281.78 2287.46,5317.77 2185.34,5317.77L1631.7,5317.77L1631.7,5779.14ZM1631.7,4764.13L1631.7,5133.22L2185.34,5133.22C2236.4,5133.22 2279.77,5115.38 2315.45,5079.7C2351.74,5043.41 2369.89,4999.73 2369.89,4948.67C2369.89,4897.61 2351.74,4854.25 2315.45,4818.57C2279.77,4782.27 2236.4,4764.13 2185.34,4764.13L1631.7,4764.13ZM3000.12,4908.07L2677.16,5686.86L3323.07,5686.86L3000.12,4908.07ZM2537.83,5871.41C2512.61,5871.41 2490.77,5862.49 2472.31,5844.65C2454.47,5826.19 2445.55,5804.36 2445.55,5779.14C2445.55,5763.76 2448.94,5749.61 2455.7,5736.69L2908.77,4648.78L2909.69,4648.78C2913.38,4633.41 2921.68,4619.26 2934.6,4606.34C2952.44,4588.5 2973.97,4579.58 2999.19,4579.58C3024.41,4579.58 3046.25,4588.5 3064.71,4606.34C3078.24,4620.49 3086.55,4636.17 3089.62,4653.4L3093.31,4652.48L3549.14,5749.61L3548.22,5749.61C3551.3,5758.84 3552.84,5768.68 3552.84,5779.14C3552.84,5804.36 3543.61,5826.19 3525.15,5844.65C3507.31,5862.49 3485.78,5871.41 3460.56,5871.41L2537.83,5871.41ZM3737.38,4671.85C3737.38,4646.63 3746.3,4625.1 3764.14,4607.26C3782.6,4588.81 3804.43,4579.58 3829.66,4579.58L4475.57,4579.58C4577.69,4579.58 4664.73,4615.57 4736.7,4687.54C4808.68,4759.51 4844.66,4846.56 4844.66,4948.67C4844.66,5050.79 4808.68,5137.83 4736.7,5209.81C4664.73,5281.78 4577.69,5317.77 4475.57,5317.77L4136.93,5317.77L4790.22,5694.24C4800.07,5699.16 4809.29,5705.62 4817.91,5713.62C4835.74,5732.08 4844.66,5753.91 4844.66,5779.14C4844.66,5804.36 4835.74,5826.19 4817.91,5844.65C4800.07,5862.49 4778.23,5871.41 4752.39,5871.41C4734.55,5871.41 4718.86,5867.1 4705.33,5858.49L3921.93,5406.35L3921.93,5779.14C3921.93,5804.36 3912.7,5826.19 3894.25,5844.65C3876.41,5862.49 3854.88,5871.41 3829.66,5871.41C3804.43,5871.41 3782.6,5862.49 3764.14,5844.65C3746.3,5826.19 3737.38,5804.36 3737.38,5779.14L3737.38,4671.85ZM3921.93,4764.13L3921.93,5133.22L4475.57,5133.22C4526.63,5133.22 4570,5115.38 4605.68,5079.7C4641.97,5043.41 4660.12,4999.73 4660.12,4948.67C4660.12,4897.61 4641.97,4854.25 4605.68,4818.57C4570,4782.27 4526.63,4764.13 4475.57,4764.13L3921.93,4764.13ZM5675.13,5779.14C5675.13,5804.36 5665.9,5826.19 5647.44,5844.65C5629.61,5862.49 5608.07,5871.41 5582.85,5871.41C5557.63,5871.41 5535.79,5862.49 5517.34,5844.65C5499.5,5826.19 5490.58,5804.36 5490.58,5779.14L5490.58,4764.13L5121.49,4764.13C5096.26,4764.13 5074.43,4755.21 5055.97,4737.37C5038.13,4718.91 5029.21,4697.07 5029.21,4671.85C5029.21,4646.63 5038.13,4625.1 5055.97,4607.26C5074.43,4588.81 5096.26,4579.58 5121.49,4579.58L6044.22,4579.58C6069.44,4579.58 6090.97,4588.81 6108.81,4607.26C6127.27,4625.1 6136.49,4646.63 6136.49,4671.85C6136.49,4697.07 6127.27,4718.91 6108.81,4737.37C6090.97,4755.21 6069.44,4764.13 6044.22,4764.13L5675.13,4764.13L5675.13,5779.14ZM6321.04,4671.85C6321.04,4646.63 6329.96,4625.1 6347.8,4607.26C6366.26,4588.81 6388.09,4579.58 6413.32,4579.58C6438.54,4579.58 6460.07,4588.81 6477.91,4607.26C6496.36,4625.1 6505.59,4646.63 6505.59,4671.85L6505.59,5779.14C6505.59,5804.36 6496.36,5826.19 6477.91,5844.65C6460.07,5862.49 6438.54,5871.41 6413.32,5871.41C6388.09,5871.41 6366.26,5862.49 6347.8,5844.65C6329.96,5826.19 6321.04,5804.36 6321.04,5779.14L6321.04,4671.85ZM7705.15,4579.58C7730.37,4579.58 7751.9,4588.81 7769.74,4607.26C7788.19,4625.1 7797.42,4646.63 7797.42,4671.85C7797.42,4697.07 7788.19,4718.91 7769.74,4737.37C7751.9,4755.21 7730.37,4764.13 7705.15,4764.13L6874.68,4764.13L6874.68,5133.22L7520.6,5133.22C7545.82,5133.22 7567.35,5142.45 7585.19,5160.9C7603.65,5178.74 7612.87,5200.27 7612.87,5225.49C7612.87,5250.72 7603.65,5272.55 7585.19,5291.01C7567.35,5308.85 7545.82,5317.77 7520.6,5317.77L6874.68,5317.77L6874.68,5686.86L7705.15,5686.86C7730.37,5686.86 7751.9,5696.09 7769.74,5714.54C7788.19,5732.38 7797.42,5753.91 7797.42,5779.14C7797.42,5804.36 7788.19,5826.19 7769.74,5844.65C7751.9,5862.49 7730.37,5871.41 7705.15,5871.41L6782.41,5871.41C6757.19,5871.41 6735.35,5862.49 6716.9,5844.65C6699.06,5826.19 6690.14,5804.36 6690.14,5779.14L6690.14,4671.85C6690.14,4646.63 6699.06,4625.1 6716.9,4607.26C6735.35,4588.81 6757.19,4579.58 6782.41,4579.58L7705.15,4579.58ZM8996.98,4579.58C9022.2,4579.58 9043.73,4588.81 9061.57,4607.26C9080.02,4625.1 9089.25,4646.63 9089.25,4671.85C9089.25,4697.07 9080.02,4718.91 9061.57,4737.37C9043.73,4755.21 9022.2,4764.13 8996.98,4764.13L8351.06,4764.13C8300,4764.13 8256.33,4782.27 8220.03,4818.57C8184.35,4854.25 8166.51,4897.61 8166.51,4948.67C8166.51,4999.73 8184.35,5043.41 8220.03,5079.7C8256.33,5115.38 8300,5133.22 8351.06,5133.22L8720.16,5133.22C8822.27,5133.22 8909.32,5169.21 8981.29,5241.18C9053.26,5313.15 9089.25,5400.2 9089.25,5502.32C9089.25,5604.43 9053.26,5691.48 8981.29,5763.45C8909.32,5835.42 8822.27,5871.41 8720.16,5871.41L8074.24,5871.41C8049.02,5871.41 8027.18,5862.49 8008.73,5844.65C7990.89,5826.19 7981.97,5804.36 7981.97,5779.14C7981.97,5753.91 7990.89,5732.38 8008.73,5714.54C8027.18,5696.09 8049.02,5686.86 8074.24,5686.86L8720.16,5686.86C8771.21,5686.86 8814.58,5669.02 8850.26,5633.34C8886.56,5597.05 8904.7,5553.37 8904.7,5502.32C8904.7,5451.26 8886.56,5407.89 8850.26,5372.21C8814.58,5335.91 8771.21,5317.77 8720.16,5317.77L8351.06,5317.77C8248.94,5317.77 8161.9,5281.78 8089.93,5209.81C8017.95,5137.83 7981.97,5050.79 7981.97,4948.67C7981.97,4846.56 8017.95,4759.51 8089.93,4687.54C8161.9,4615.57 8248.94,4579.58 8351.06,4579.58L8996.98,4579.58Z" style="fill:rgb(212,42,255);fill-rule:nonzero;"/>
                </g>
                <g id="szöveg">
                    <g id="path10" transform="matrix(1.33333,0,0,-1.33333,708.452,3371.19)">
                        <path d="M0.002,0L1016.03,0L859.718,-312.624L-312.622,-312.624L-312.622,1094.18L0.002,1094.18L0.002,0Z" style="fill:rgb(212,42,255);fill-rule:nonzero;"/>
                    </g>
                    <g id="path11" transform="matrix(1.33333,0,0,-1.33333,6260.23,1912.28)">
                        <path d="M0.002,0L-413.445,-886.288L-826.889,0L-1172.34,0L-413.445,-1627.2L345.449,0L0.002,0Z" style="fill:rgb(212,42,255);fill-rule:nonzero;"/>
                    </g>
                    <g id="path12" transform="matrix(1.33333,0,0,-1.33333,9771.62,3371.19)">
                        <path d="M0.002,0L1016.03,0L859.715,-312.624L-312.622,-312.624L-312.622,1094.18L0.002,1094.18L0.002,0Z" style="fill:rgb(212,42,255);fill-rule:nonzero;"/>
                    </g>
                    <g id="path13" transform="matrix(1.33333,0,0,-1.33333,3380.13,3371.19)">
                        <path d="M781.561,0L-468.933,0L-468.933,234.467L468.937,234.467L625.251,547.092L-468.933,547.092L-468.933,781.559L625.251,781.559L781.561,1094.18L-781.557,1094.18L-781.557,-312.624L625.251,-312.624L703.407,-156.314L781.561,0Z" style="fill:rgb(212,42,255);fill-rule:nonzero;"/>
                    </g>
                    <g id="path14" transform="matrix(1.33333,0,0,-1.33333,8037.81,3371.19)">
                        <path d="M781.561,0L-468.933,0L-468.933,234.467L468.94,234.467L625.251,547.092L-468.933,547.092L-468.933,781.559L625.251,781.559L781.561,1094.18L-781.557,1094.18L-781.557,-312.624L625.251,-312.624L703.407,-156.314L781.561,0Z" style="fill:rgb(212,42,255);fill-rule:nonzero;"/>
                    </g>
                </g>
            </g>
        </g>
    </g>
</svg>
