<svg xmlns="http://www.w3.org/2000/svg" viewBox="0 0 1205.06 431.06"><defs><style>.cls-1{fill:#1a171b;}.cls-2{fill:#00558d;}.cls-3{fill:#a2daf3;}</style></defs><title>iskolaszovetkezet</title><g id="Réteg_4" data-name="Réteg 4"><g id="g578"><path id="path580" class="cls-1" d="M381.68,358.58v9.09h-9.1c.07-3-.15-6.29.11-9.09Z"/></g><g id="g582"><path id="path584" class="cls-1" d="M447.85,358.58h9.21c.07,12.39-.16,25.08.11,37.29a52.49,52.49,0,0,0,7.73,0c7.82-.07,11.51-4.26,11.71-11.94.27-2.09,0-4.66.11-6.94h9.21v6c-.26.19,0,.87-.11,1.25-.42,7.08-2.56,12.45-6.59,15.92,4.37,3.77,6.87,9.42,7.16,17.28V424h-9.1c-.07-2.08.15-4.47-.11-6.37-.08-7.77-3.51-12.18-11.14-12.39a70.81,70.81,0,0,0-9,0V424h-9.21Z"/></g><g id="g586"><path id="path588" class="cls-1" d="M556.31,358.58h9.21v44.56c0,2.65-.21,5.21.57,6.94,1.91,4.22,7.6,4.52,13.3,4.66,0,.16.29.1.46.12V424h-1.94c-7.1-.25-12.94-1.76-16.94-5.12a6.71,6.71,0,0,0-1.13-1.13,16,16,0,0,1-3.53-9.89Z"/></g><g id="g590"><path id="path592" class="cls-1" d="M768.24,358.58v9.09h-9.1c.08-3-.15-6.29.12-9.09Z"/></g><g id="g594"><path id="path596" class="cls-1" d="M786.66,358.58v9.09h-9.1c.08-3-.15-6.29.12-9.09Z"/></g><g id="g598"><path id="path600" class="cls-1" d="M920.48,358.58h9.21c.07,6.1-.15,12.5.11,18.41,4.47.27,9.44,0,14.1.12v9.09c-4.7.08-9.7-.15-14.21.12.07,7.24-.15,14.78.11,21.83.56,5.31,5.52,6.22,11,6.59.16.26.79,0,1.14.12h1.93v9.2h-2c-.15-.26-.79,0-1.14-.11-10.29-.68-17.64-3.72-19.66-12.39-.7-3-.57-6.25-.57-10v-43"/></g><g id="g602"><path id="path604" class="cls-1" d="M974.94,405.19c-2.73-.27-6,0-8.87-.11-.27,6.06,0,12.62-.11,18.87h-9.1V358.58H966v37.29a55.44,55.44,0,0,0,7.84,0c8.56,0,12-5.1,11.82-13.87a43,43,0,0,0,.12-5h9.09v6.26c-.1,6.32-2.05,11.69-5.11,15.35-.55.65-2.22,1.81-1,2a10.89,10.89,0,0,0,1.48,1.48c3,3.61,4.79,8.32,5.12,14.55.07.39-.15,1.06.11,1.25v6h-9.21c-.07-2.27.15-4.85-.11-6.94-.19-7.47-3.68-11.63-11.14-11.82"/></g><g id="g606"><path id="path608" class="cls-1" d="M1181.64,408.49V358.58h9.09V377c4.55.27,9.59,0,14.33.12v9.09h-14.22c-.19,7-.19,14.75,0,21.72.45,5.55,5.52,6.46,11.15,6.82.16.26.79,0,1.13.11h1.94v9.21h-2.16c-.16-.26-.8,0-1.14-.11-6.43-.32-11.62-1.87-15.35-4.89a9.2,9.2,0,0,0-1.36-1.36,15.6,15.6,0,0,1-3.41-9.21"/></g><g id="g674"><path id="path676" class="cls-1" d="M372.69,377h9v47h-9.1V377.34c0-.17,0-.33.11-.35"/></g><g id="g678"><path id="path680" class="cls-1" d="M396.57,389.84c.62-9.34,7.58-12.35,17.05-12.85h3.64c9.38.48,16.27,3.44,17.06,12.51.07.35-.15,1,.11,1.14V391h-9.21c-.17-4.46-4.62-4.63-9.1-4.78a1.51,1.51,0,0,0-1.25,0c-4.29.14-8.61.25-9.09,4.21a1.69,1.69,0,0,0,0,1.36c.09,3.49,4.16,3.66,7.73,4,10.5,1,20,1.59,20.81,12.74.07.34-.15,1,.11,1.13v.8c-.26.16,0,.79-.11,1.14-.78,8.66-7.1,11.77-15.92,12.39-.35.07-1-.15-1.14.11h-3.64c-.15-.26-.79,0-1.13-.11-8.91-.64-15.3-3.8-15.92-12.73V410h8.87c.4,3.52,3.41,4.64,7.39,4.77.45.26,1.4,0,2,.12,3.86-.06,8.75-.11,10-2.85a5,5,0,0,0-.57-5c-1.92-2-9.29-1.87-12.73-2.27-5-.6-8.61-1.63-11.15-3.76a6.71,6.71,0,0,0-1.13-1.13,13,13,0,0,1-2.73-7.62Z"/></g><g id="g682"><path id="path684" class="cls-1" d="M532.44,399.17c-.05-5.6-1.65-9.42-4.67-11.26-3.86-2.36-11.35-2.51-15.46-.23-3.84,2.14-5.21,6.83-5.23,12.62,0,9.5,3.43,14.57,12.85,14.56,8.44,0,12.49-4,12.51-13a6.92,6.92,0,0,0,0-2.72M498,397.57c.82-13.08,7.46-20.35,21.14-20.58h1.37c14.13.23,20.7,8,21.14,21.95v3.18c-.42,13.6-6.8,21.24-20.23,21.83h-3.19c-6-.26-10.49-1.94-13.87-4.77a7.45,7.45,0,0,0-1.25-1.26q-5-5.91-5.23-16.71v-2.5c.26-.16,0-.79.12-1.14"/></g><g id="g686"><path id="path688" class="cls-1" d="M619.41,403.83a33.59,33.59,0,0,1-8.53,1.25,14.79,14.79,0,0,0-3,.11c-3.76.22-7.49.47-7.85,4.09a1.27,1.27,0,0,0,0,1.14c.13,3.8,4.95,4.41,9.55,4.44s9.75-.6,9.9-4.32c.26-2,0-4.52.11-6.71a.12.12,0,0,0-.23,0M595,381.09q5.09-4,14.1-4.1h1.47c6,.06,10.84,1.3,14.22,4a7.84,7.84,0,0,0,1.25,1.26,13.06,13.06,0,0,1,2.73,7.5v21.49a13.09,13.09,0,0,1-2.73,7.5,7.78,7.78,0,0,0-1.25,1.25c-3.18,2.55-7.7,3.75-13.19,4H608c-5.49-.23-9.88-1.56-13.07-4.09a7.78,7.78,0,0,0-1.25-1.25,13.27,13.27,0,0,1-2.85-7.73v-1.94a13.48,13.48,0,0,1,2.73-7.62,10.28,10.28,0,0,0,1.48-1.47c3.28-2.53,7.74-3.86,13.42-4a16,16,0,0,0,3.07-.12c3.8-.21,7.51-.51,8-4.09a1.51,1.51,0,0,0,0-1.25c-.48-4-4.81-4.06-9.1-4.21a1.51,1.51,0,0,0-1.25,0c-4.33.15-8.71.24-9.1,4.33-.3-.09.09.53-.22.45h-9v-.91a13.22,13.22,0,0,1,2.85-7.73,8.21,8.21,0,0,0,1.25-1.25"/></g><g id="g690"><path id="path692" class="cls-1" d="M643.29,389.84c.62-9.34,7.58-12.35,17.05-12.85H664c9.9.48,17,3.81,17.17,14h-9.21c-.17-4.46-4.62-4.63-9.1-4.78a1.51,1.51,0,0,0-1.25,0c-4.29.14-8.61.25-9.09,4.21a1.44,1.44,0,0,0,0,1.25c0,3.59,4.15,3.77,7.73,4.09,11.15,1,21.1,1.8,20.92,14.67-.26.16,0,.79-.11,1.14-.77,8.66-7.11,11.77-15.92,12.39-.35.07-1-.15-1.14.11h-3.64c-.15-.26-.79,0-1.14-.11-8.9-.65-15.29-3.8-15.91-12.73V410h8.87c.4,3.51,3.4,4.65,7.39,4.77.45.26,1.4,0,2,.12,3.88-.05,8.73-.12,10-2.85a5.07,5.07,0,0,0-.46-4.89c-1.8-2.11-9.29-2-12.73-2.38-5.1-.58-8.71-1.61-11.26-3.76a6.71,6.71,0,0,0-1.13-1.13,13.09,13.09,0,0,1-2.73-7.62Z"/></g><g id="g694"><path id="path696" class="cls-1" d="M695,377h43.77v6.14c-.44,13.81-6.92,21.58-20.8,21.95a10.63,10.63,0,0,0-2.51.11c-6.41.33-10,3.46-10.91,9.32-.11,0-.09.14-.11.23,11.21.27,22.92,0,34.33.12V424H695v-5.34c.26-13.95,6.42-22,20-22.63a11.5,11.5,0,0,0,2.61-.11q10.4-.25,11.6-9.67c-11.18-.26-22.85,0-34.22-.11Z"/></g><g id="g698"><path id="path700" class="cls-1" d="M760.39,401.55c.16,4.21.59,7,2.28,9.33,3.09,4.25,14,5.51,19.1,1.7,4.52-3.34,5.53-16.15,2-21.83-2.93-4.78-12.43-6.25-18.3-3.07-3.63,2-5.1,6.25-5.12,11.71a4.39,4.39,0,0,0,0,2.16m-2.61-19.89c3.55-2.89,8.28-4.61,14.66-4.67h1.26c6.4,0,11.11,1.78,14.66,4.67a10.82,10.82,0,0,0,1.48,1.47c3.23,3.87,4.92,9.26,5.12,16.15v2.5c-.38,13.75-6.7,21.57-20.24,22.17h-3.18c-13.59-.58-20-8.33-20.36-22.17v-2.5c.13-6.88,1.87-12.16,5-16a14,14,0,0,0,1.59-1.59"/></g><g id="g702"><path id="path704" class="cls-1" d="M825.43,424.52C819.3,408.59,813,392.88,806.78,377h9.89q6.51,16.69,13.08,33.32c4.44-11.06,8.8-22.2,13.19-33.32h9.89c-6.18,15.88-12.53,31.59-18.65,47.53Z"/></g><g id="g706"><path id="path708" class="cls-1" d="M896.15,395.53c-.57-7.63-8.86-10.81-16.6-9-4.42,1-8.08,5-8.07,9.33,3.94.26,8.37,0,12.5.11h9.44c.88-.18,2.51.39,2.84-.34,0-.07,0-.13-.11-.11m-27.63-13.87c3.56-2.89,8.28-4.61,14.67-4.67h1.36c14.14.23,20.65,8.08,21.15,21.95v6.14c-11.41.07-23.12-.16-34.34.11,1,6.25,4.93,9.55,12.17,9.55,7.16.27,14.81,0,22.17.12V424H882.27c-13.73-.59-20.14-8.5-20.35-22.63v-1.59c.07-7.17,1.83-12.65,5.12-16.6a10.82,10.82,0,0,0,1.48-1.47"/></g><g id="g710"><path id="path712" class="cls-1" d="M1041.68,395.87a11.21,11.21,0,0,0-3.19-6.82c-4-3.77-13.71-3.91-18-.34-.07,0-.14,0-.11.11a6.15,6.15,0,0,0-1.14,1.14,10.27,10.27,0,0,0-2.39,5.68c-.28.05,0,.44.23.34,8.15-.08,16.6.15,24.56-.11m-34.23,1.7c.83-13.08,7.46-20.36,21.15-20.58H1030c14.09.23,20.67,8,21.14,21.83v6.26h-34.33c0,.16,0,.32.11.34,1,6.17,5,9.32,12.17,9.32,7.12.27,14.74,0,22,.11V424h-23.42c-6-.26-10.49-1.94-13.87-4.77a7.45,7.45,0,0,0-1.25-1.26q-5.07-5.94-5.23-16.82v-2.39c.26-.16,0-.79.11-1.14"/></g><g id="g714"><path id="path716" class="cls-1" d="M1066.23,377H1110v6.37c-.26,6.57-1.94,11.71-5,15.46a14.13,14.13,0,0,0-1.59,1.6c-3.47,2.82-8.05,4.53-14.21,4.66a10.54,10.54,0,0,0-2.5.11c-6.51.24-10.31,3.79-10.91,9.55,11.18.27,22.85,0,34.22.12V424h-43.78v-6.14c.5-13.45,6.67-21.23,20-21.83a11.53,11.53,0,0,0,2.61-.11c7-.14,10.73-3.45,11.6-9.67-11.18-.26-22.86,0-34.23-.11Z"/></g><g id="g718"><path id="path720" class="cls-1" d="M1157.3,395.87c-.28-9-12.14-12.05-19.55-8.3a10.4,10.4,0,0,0-5.23,8.07c-.28.05,0,.44.23.34,8.14-.08,16.59.15,24.55-.11M1123,399.39c.37-14.18,6.91-22.19,21.26-22.4h1.36c6.48.08,11.3,1.82,14.78,4.89a6.47,6.47,0,0,0,1.14,1.14c3.31,3.82,5.08,9.17,5.23,16.15v5.91H1132.4c0,.16,0,.32.12.34q1.44,9.3,12.16,9.32c7.13.27,14.75,0,22.06.11V424h-23.42c-6-.27-10.5-1.93-13.87-4.77a8.87,8.87,0,0,0-1.37-1.37c-3.23-3.85-4.92-9.25-5.11-16.14Z"/></g></g><g id="Réteg_3" data-name="Réteg 3"><g id="g192"><path id="path194" class="cls-1" d="M557.68,229.53h16v37.29a44.93,44.93,0,0,1,19.21-5.11c.5-.08,1.29.15,1.59-.12h2.84c.31.27,1.1,0,1.6.12,10.56.43,18.43,3.54,24.21,8.75a7.78,7.78,0,0,0,1.25,1.25c5.67,6.27,8.85,15,9.44,26.38.07.35-.14,1,.11,1.14v44.22h-16V299.91c-.07-.35.15-1-.11-1.14-.36-13.25-6.5-20.71-19.78-21a16.44,16.44,0,0,0-4.32,0c-13.28.36-19.57,7.72-19.9,21-.26.16,0,.79-.11,1.14v43.54h-16Z"/></g><path id="path200" class="cls-1" d="M670.23,229.53h15.92v16H670.23Z"/><path id="path210" class="cls-1" d="M702.3,229.53h16v16h-16Z"/><g id="g212"><path id="path214" class="cls-1" d="M862.26,229.53h15.92c.08,12.43-.15,25.17.12,37.41a42,42,0,0,1,19.21-5.23c.49-.08,1.29.15,1.59-.12h2.84c.31.27,1.1,0,1.6.12,22.8,1,33.71,14,34.9,36.61.07.34-.14,1,.12,1.13v44h-16v-43.2c-.07-.38.15-1.06-.11-1.25-.26-6.53-1.69-11.87-4.89-15.46a6.15,6.15,0,0,0-1.14-1.14c-3.27-2.86-7.79-4.49-13.75-4.66a16.44,16.44,0,0,0-4.32,0c-14.32.31-20.29,9-20,23.87-.27,13.72,0,27.93-.12,41.84H862.26Z"/></g><g id="g224"><path id="path226" class="cls-1" d="M404.07,261.59h3.3c.38.27,1.25,0,1.82.12,16.5.82,28.39,6.25,29.45,22.51v1.93H422.72c-.14-7.4-7.1-8-14.21-8.41a27.29,27.29,0,0,0-5.57,0c-6.68.41-13.29.89-14.1,7.16a6.09,6.09,0,0,0,0,2.62c.28,5.92,7.05,6.21,13.07,6.82,11.75,1.18,24.45,1.57,30.25,7.84a7.39,7.39,0,0,0,1.25,1.25,21.73,21.73,0,0,1,5.23,13.87v3.76c-.32,6.12-2.31,10.57-5.35,14a6.42,6.42,0,0,0-1.13,1.14c-5.27,4.74-13.05,7-22.63,7.39-.42.07-1.13-.15-1.36.11h-4.89c-.27-.26-1,0-1.48-.11-16.87-.94-28.86-6.77-29.11-24.33h16c.11,7.24,6.89,7.82,13.76,8.3.31.26,1.1,0,1.59.11h3.3c.49-.07,1.29.15,1.59-.11,6.58-.47,13.08-1,13.65-7.51a3.13,3.13,0,0,0,0-1.82c0-5.33-4.58-6.1-9.67-6.82-8.25-1.17-17.48-1.22-24.44-3.29-10-3-15.09-9-15.81-21.27v-1.47c.61-17.14,12.65-22.83,29.56-23.65.57-.08,1.44.15,1.82-.12"/></g><g id="g236"><path id="path238" class="cls-1" d="M498.55,261.59h3c.31.27,1.1,0,1.59.12,10.31.42,18,3.44,23.76,8.41a22,22,0,0,0,2,2.05,37.32,37.32,0,0,1,7.39,14.32c-5.38.27-11.26,0-16.83.12-3.19-5.52-8.81-8.63-17.28-8.87a17.29,17.29,0,0,0-4.43,0c-5.95.19-10.48,1.8-13.76,4.66a6.15,6.15,0,0,0-1.14,1.14c-3.15,3.59-4.53,9-4.77,15.46-.26.19,0,.87-.12,1.25v4.55c.08.38-.14,1.05.12,1.25.29,13.58,6.57,21.17,20.24,21.37a10.27,10.27,0,0,0,3.41,0c6.22-.14,11-1.76,14.32-4.77a7.78,7.78,0,0,0,1.25-1.25,9.91,9.91,0,0,0,1.94-2.85h17a36.16,36.16,0,0,1-7.73,14.78,11.5,11.5,0,0,0-1.48,1.48c-5.85,5.18-13.78,8.28-24.44,8.65h-5.23c-23.13-.9-34.19-13.87-35.36-36.73-.07-.38.14-1.05-.12-1.25v-6c.26-.19.05-.86.12-1.25.54-11.2,3.62-19.87,9.09-26.15a15.64,15.64,0,0,0,1.82-1.82c5.77-5.06,13.58-8.1,24-8.52.5-.08,1.29.15,1.59-.12"/></g><g id="g256"><path id="path258" class="cls-1" d="M692.29,277.74c-13.8.37-19.91,8.44-19.9,22.62a18.23,18.23,0,0,0,0,4.55c0,14.36,6.26,22.4,20.47,22.51a10.27,10.27,0,0,0,3.41,0c13.83-.15,20.1-7.87,20.24-21.71.26-.35,0-1.18.11-1.71v-2.73c-.07-.53.15-1.36-.11-1.7-.19-13.69-6.26-21.49-19.79-21.83a17.29,17.29,0,0,0-4.43,0m.8-16.15H696c.31.26,1.1,0,1.59.12,23,1.05,33.87,14.19,34.91,37.18.07.49-.15,1.28.11,1.59v4.32c-.26.3,0,1.09-.11,1.59-1,23.1-12.13,36.16-35.36,37.06H692c-10.74-.36-18.78-3.43-24.67-8.64a13.27,13.27,0,0,0-1.59-1.59c-5.8-6.52-9-15.68-9.33-27.63v-5.91c.38-12.05,3.57-21.3,9.44-27.85a9.27,9.27,0,0,0,1.36-1.37c5.79-5.2,13.68-8.3,24.22-8.75.53-.08,1.36.14,1.71-.12"/></g><g id="g268"><path id="path270" class="cls-1" d="M796.78,261.59h3c.35.27,1.17,0,1.71.12,10.42.45,18.23,3.52,24,8.64a10.89,10.89,0,0,0,1.48,1.48c5.91,6.55,9,15.92,9.43,28v43.66H820.43c-.08-13.76.15-27.82-.12-41.39.34-15-5.4-24-19.78-24.33a17.29,17.29,0,0,0-4.43,0c-13.32.36-19.58,7.78-19.9,21.15-.26.15-.05.79-.12,1.13v43.44h-16V299.34c.26-.16.05-.79.12-1.14,1.23-22.6,12.22-35.45,35-36.49.5-.08,1.29.15,1.6-.12"/></g><g id="g288"><path id="path290" class="cls-1" d="M998.13,277.74c-11.66.5-18.1,6.23-19.67,16.83,14.18.19,29.15.19,43.32,0a19.5,19.5,0,0,0-4.55-10.69,9.78,9.78,0,0,0-1.36-1.37c-3.21-2.89-7.65-4.55-13.53-4.77a15.62,15.62,0,0,0-4.21,0m.57-16.15h2.95c.35.26,1.18,0,1.71.12,10.43.45,18.23,3.52,24,8.64a11.5,11.5,0,0,0,1.48,1.48c5.58,6.24,8.72,14.92,9.32,26.15.07.34-.14,1,.11,1.13V310.6c-19.89.07-40.09-.15-59.8.11A19.14,19.14,0,0,0,983,321.28a8.27,8.27,0,0,0,1.25,1.26c3.36,3,8.07,4.74,14.32,4.88,13,.27,26.5,0,39.68.12v15.91h-40.7c-23.06-.88-34.24-13.66-35.47-36.38-.07-.35.14-1-.11-1.14v-6.59c.25-.16,0-.79.11-1.14,1.23-22.61,12.22-35.45,35-36.49.49-.08,1.28.14,1.59-.12"/></g><g id="g300"><path id="path302" class="cls-1" d="M1103.64,261.59h1.82v16a18.48,18.48,0,0,0-3.3.12c-11.07.56-21.4,1.87-21.49,13.42-.26,17.2,0,34.9-.11,52.3h-15.92V290.24c.17-7.83,2.61-13.38,6.26-17.73a18.61,18.61,0,0,0,1.93-1.94c6.77-5.77,16.64-8.45,28.76-8.86.65-.08,1.59.15,2.05-.12"/></g><g id="g308"><path id="path310" class="cls-1" d="M1128.77,261.59h76.29v10.24c-.26.27,0,1-.12,1.47-.46,11.74-3.66,20.75-9.43,27.18a8.81,8.81,0,0,0-1.37,1.36c-5.93,5.29-14,8.41-24.9,8.76a19.8,19.8,0,0,0-3.41.11c-12.18.21-19,5.82-20.58,16.6.81.4,5.16.23,7.28.23,17.53,0,35.62,0,52.53,0v15.92h-76.29V332.54c.37-11.8,3.44-20.89,9.09-27.4a20.88,20.88,0,0,0,2.05-2.05c6-5.17,14.12-8.16,25-8.41a19.75,19.75,0,0,0,3.41-.12q17.87-.56,20-16.82c-19.63-.27-39.75,0-59.57-.12Z"/></g></g><g id="Réteg_2" data-name="Réteg 2"><g id="g28"><path id="path30" class="cls-1" d="M255.47,6.46h12.85c.23.26.95,0,1.36.12C298.62,7.8,320.36,16.23,335.74,31a14.53,14.53,0,0,0,1.71,1.71,6.71,6.71,0,0,0,1.13,1.13c15.56,17,23.86,41.26,25.24,72.43.08.38-.14,1,.12,1.25v1.7c.07.65-.15,1.59.11,2.05v62.76a43.21,43.21,0,0,1-41.5,41.38h-1.47V113.68a11.56,11.56,0,0,0-.12-2.62v-1.7c-.07-.39.15-1.06-.11-1.25-.8-18.12-4.44-33.39-13.53-43.21A25.71,25.71,0,0,0,305,62.63c-8.78-8.12-21.4-12.41-37.63-13.08-.19-.26-.87,0-1.25-.11H264a14.75,14.75,0,0,0-4.09,0h-2.28c-.38.07-1.05-.15-1.25.11-16.64.68-29.48,5.16-38.43,13.53a14.45,14.45,0,0,0-1.7,1.71c-9.17,9.7-12.84,24.91-13.65,43-.26.2,0,.87-.11,1.25v1.6a8.66,8.66,0,0,0-.11,2.27v56.39c-.26.16,0,.79-.12,1.14-1,12.11-5.83,21.28-12.5,27.86a43.12,43.12,0,0,1-28.09,12.39c-.57.07-1.43-.15-1.81.11h-.46V110.83c.26-.42,0-1.32.11-1.93v-1.59c.26-.2.05-.87.12-1.25,2.92-61.73,32.52-96.79,94.48-99.48.42-.08,1.13.14,1.36-.12"/></g><g id="g44"><path id="path46" class="cls-2" d="M479.23,6.46h55.25c9.73,0,18.6-.38,26,1.59a42.67,42.67,0,0,1,17.85,9.89,25.71,25.71,0,0,0,2.27,2.28,43.17,43.17,0,0,1,11.49,29.22H480c-.53.07-1.36-.15-1.7.11h-1.14a9.59,9.59,0,0,0-2.39.12c-18.3.92-33.5,4-43.32,13.18s-15.11,22.29-15.8,40.71a8.66,8.66,0,0,0-.11,2.27v1.48a10.27,10.27,0,0,0,0,3.41v1.48a8.66,8.66,0,0,0,.11,2.27q1,24.57,13.19,37.86a15.64,15.64,0,0,0,1.82,1.82c9.69,9.11,24.7,12.9,42.63,13.76.35.26,1.18,0,1.71.11h.8a14.68,14.68,0,0,0,2.95.12h1.93q341,.39,682.74.11h1.25a43.2,43.2,0,0,1,26.84,11.6,17.28,17.28,0,0,0,1.81,1.82A43.27,43.27,0,0,1,1205.06,210v1.13H475.82a9.62,9.62,0,0,0-2.39-.11c-32.39-1.35-57.49-10-74.7-26.49a11.5,11.5,0,0,0-1.48-1.48v-.11a6.15,6.15,0,0,0-1.14-1.14C382,166.56,374,145.27,372.69,117.31c-.07-.68.15-1.66-.11-2.16V102.88c.26-.5,0-1.48.11-2.17,1.34-28.22,9.47-49.65,23.65-65a10.35,10.35,0,0,0,1.48-1.48,1.56,1.56,0,0,0,.57-.57,10.82,10.82,0,0,0,1.48-1.47c17-15.7,41.38-24,72.65-25.47.64-.08,1.59.15,2-.11h3c.53-.08,1.36.14,1.71-.12"/></g><g id="g68"><path id="path70" class="cls-2" d="M510.72,124.48c-1.25.52-.8-2.47-.8-3.41V93.32h52.42A31.58,31.58,0,0,1,582,101.51a15.64,15.64,0,0,0,1.82,1.82,31.5,31.5,0,0,1,8.29,21.15Z"/></g><g id="g138"><path id="path140" class="cls-1" d="M246.26,213.73v-82.2h31.16v51.95a30.95,30.95,0,0,1-29.34,30.13c-.45.08-1.21-.14-1.48.12Z"/></g><g id="g168"><path id="path170" class="cls-3" d="M0,219.87H253.2c56.35,0,93.19,19.46,105.85,63,6.36,21.89,6.45,52.81.8,75.27-11.29,44.81-47.11,65.52-102.33,66.51H186c-18.56-1.53-31.17-10.83-37.64-25.13-2.14-4.73-4.11-10.83-3.86-16.94,0-.31-.2-.89.22-1h82.21c13.8,0,28,.55,40.59-.45s23.7-3.59,32.17-8.87C316.17,362,323.19,339.87,320.62,312c-1.17-12.69-4.63-22.71-10.57-30.47s-14.53-12.54-25.7-15.35c-11-2.76-24-3.3-37.86-3.3H82.32c-13.92,0-27.72.27-41,0-12.48-.24-21.88-5.85-28.54-12.5C5.69,243.29,1,234.8,0,222Z"/></g><g id="g488"><path id="path490" class="cls-3" d="M144.62,306.5h82.09v31.27H184.19c-4.7,0-9.37.26-13.65-.46a31.25,31.25,0,0,1-26-30.47c0-.16,0-.32.11-.34"/></g></g></svg>