<svg xmlns="http://www.w3.org/2000/svg" viewBox="0 0 1000 999.52"><defs><style>.cls-1{fill:#657d99;}.cls-1,.cls-2,.cls-3{fill-rule:evenodd;}.cls-2{fill:#596a84;}.cls-3{fill:#fff;}.cls-4{fill:none;stroke:#fff;stroke-miterlimit:2.61;}</style></defs><title>GPK</title><g id="Layer_2" data-name="Layer 2"><g id="Layer_1-2" data-name="Layer 1"><path class="cls-1" d="M89.5,500.23c0,227.09,184.75,411.83,411.83,411.83S913.17,727.32,913.17,500.23,728.42,88.41,501.33,88.41,89.5,273.16,89.5,500.23Z"/><path class="cls-1" d="M135.88,735.2a13.82,13.82,0,0,0-12.2,1.06L86.24,757.11a13.47,13.47,0,0,0-7.17,9.78c-.33-.58-.81-1.44-1.43-2.57l-1.44-2.57q-1.86-3.33-5.83-9.91t-5.83-9.91q-5.09-9.13-4.89-16.22.27-8.44,8.15-12.83,8.74-4.87,16.82,2.65-4.47-13.29,7.21-19.79,8.76-4.87,16.5-1.41,7.11,3.18,12.6,13,1.66,3,4.81,9.13c2.09,4.09,3.7,7.13,4.8,9.13l3,5.45,2.3,4.13Zm-51.63,12,10.94-6.09q-1.95-4.08-3.71-7.24-4.35-7.8-7.73-10.86-5.5-5-11.31-1.81-8.65,4.83-.51,19.48c1.84,3.3,3.54,5.49,5.09,6.59,2.1,1.46,4.52,1.44,7.23-.07ZM115,730.15c3.23-1.8,4.84-4.12,4.82-7q0-3.15-3.29-9-8.74-15.69-19.21-9.86Q90.59,708,91.4,715.43q.55,5.15,5.22,13.51c.5.91,1.33,2.25,2.47,4s2,3.11,2.48,4l.27.48L115,730.15Z"/><path class="cls-1" d="M78.8,599.58a13.63,13.63,0,0,0-12.12-1.83L32,607.54a67.47,67.47,0,0,1-10.62,2.13q6.45.12,11.67.58l45.11,3.85a6.94,6.94,0,0,0,2.54-.3,6.66,6.66,0,0,0,1.92-.75l3.15,11.14a9.05,9.05,0,0,0-2,.37,7.08,7.08,0,0,0-2.31,1.07L45,652.61q-4.68,3.45-9.66,6.57a43.85,43.85,0,0,1,10.09-4l34.71-9.8a13.7,13.7,0,0,0,9.36-7.92l5.08,18a13.66,13.66,0,0,0-12.11-1.81L41.23,665.26A13.5,13.5,0,0,0,32,673.1l-5.53-19.57a3.37,3.37,0,0,0,2.11.19,2.14,2.14,0,0,0,.59-.26l35.45-26.2a77.74,77.74,0,0,1,10.72-6.44,81.16,81.16,0,0,1-12.5.17L19,617.33a.3.3,0,0,1-.15,0,1.91,1.91,0,0,0-.7,0c-.22.13-.73.49-1.55,1.06L11,598.69a13.47,13.47,0,0,0,11.94,1.72l41.22-11.63Q71,586.85,73.57,581l5.23,18.55Z"/><path class="cls-1" d="M2.53,506.17A12.91,12.91,0,0,0,0,499.28l21.28-1a19.77,19.77,0,0,0-9.59,10.8Q9.57,514.9,10,524.38q.24,5.24,1.44,7.48c1.17,2.2,3.15,3.23,5.93,3.11l13.87-.63-.58-12.75q-.39-8.62-6.44-13.08l18.42-.84q-5.55,5-5.17,13.61L38.05,534l16.77-.76c3-.14,5.07-1.45,6-3.95q1-2.51.73-8.28-.48-10.5-3.16-15.91Q55.26,498.68,47.15,495l22.08-1a13.55,13.55,0,0,0-1.81,7.64l2.07,45.61a13.69,13.69,0,0,0-11.38-4.52l-42.8,1.95a13.54,13.54,0,0,0-10.79,5.51l-2-44Z"/><path class="cls-1" d="M116.26,303.9a9,9,0,0,0-5.9,5.05,44.67,44.67,0,0,0-2.37,8.58,45.57,45.57,0,0,1-2.36,8.58q-11.94,27.3-41.48,14.38-14.09-6.17-19.82-15.76-6.91-11.48-.48-26.19a43.32,43.32,0,0,1,4-6.67,43.91,43.91,0,0,0,4-6.67,10.21,10.21,0,0,0,.23-6.77l22.92,10q-9.33,1-14.26,3.21A20.16,20.16,0,0,0,50.47,302.3q-4.24,9.69,2.16,18,4.9,6.38,14.68,10.65,9.48,4.14,17.32,3.35,10.09-1,14.22-10.46A20.1,20.1,0,0,0,100.69,313a9.48,9.48,0,0,0-5.79-8l-5.5-2.4a12.73,12.73,0,0,0-12.61,1.09l7.38-16.88q1.86,3.85,9.08,7l23,10.07Z"/><path class="cls-1" d="M104.45,198a12.61,12.61,0,0,0,2.2-7l17.41,12.35A19.73,19.73,0,0,0,109.88,206q-5.22,3.25-10.72,11-3,4.26-3.48,6.78c-.43,2.45.49,4.47,2.74,6.07l11.27,8,7.39-10.41q5-7.05,3-14.26l15,10.67q-7.49.48-12.49,7.53l-7.39,10.41,13.7,9.72c2.48,1.77,4.89,2,7.2.61q2.31-1.37,5.67-6.09,6.08-8.56,7.31-14.48,1.45-7-2.63-14.93l18,12.77a13.63,13.63,0,0,0-6.1,4.93L132,271.57A13.62,13.62,0,0,0,125.8,261L90.88,236.2A13.52,13.52,0,0,0,79,233.93L104.45,198Zm-19.8,16.5L81.58,195.3q-.64-3.92.85-6a3.83,3.83,0,0,1,2.42-1.61,3.38,3.38,0,0,1,2.69.55q1.83,1.29,1.27,6.09l-2,17.16-2.16,3Z"/><path class="cls-1" d="M185.67,202.1a13.65,13.65,0,0,0-4-11.56l-29.44-31.1A13.64,13.64,0,0,0,141,154.85l3.24-2.88c.73-.65,1.35-1.22,1.86-1.7q2.55-2.43,7.39-7.58t7.4-7.57q7.75-7.35,15.12-8.28,8.05-1,14.56,5.86,6.94,7.34,4.11,17.39-1.08,3.91-7.75,12.56c-.38.53-1.11,1.49-2.19,2.89q-3.52,4.61-4,6.24-.87,3,2,6.08l5.79,6.11a13.68,13.68,0,0,0,11.31,4.67L185.67,202.1Zm-26.13-48.8L174.36,169c.88-2.62,3-6.16,6.44-10.59,1.54-2,2.53-3.31,3-4q5.84-8.11-.37-14.67-8.21-8.67-18.65,1.23-8.91,8.44-5.23,12.33Z"/><path class="cls-1" d="M250.31,69.12A12.71,12.71,0,0,0,255,63.48l11.36,18a19.73,19.73,0,0,0-14.12-3q-6.07,1-14.12,6.1-4.44,2.79-5.8,5a5.8,5.8,0,0,0,.21,6.67L239.93,108l10.82-6.82q7.32-4.62,8.22-12.06l9.83,15.6q-7.08-2.36-14.4,2.26l-10.82,6.81,8.95,14.2q2.43,3.85,6.42,3.3,2.67-.39,7.57-3.48,8.89-5.6,12.29-10.61,4-6,3.26-14.83L293.84,121a13.6,13.6,0,0,0-7.52,2.23l-38.63,24.34a13.69,13.69,0,0,0-1.7-12.12L223.16,99.25A13.52,13.52,0,0,0,213,92.6l37.27-23.48Zm-24.67,7.7,4.47-19c.6-2.57,1.62-4.32,3.07-5.23a3.81,3.81,0,0,1,2.86-.56,3.34,3.34,0,0,1,2.27,1.54q1.2,1.9-1.14,6.12l-8.38,15.12-3.15,2Z"/><path class="cls-1" d="M323.46,106.62l-8.17-21q14.31,10.15,26.26,5.51,5.94-2.31,8.33-6.44a10.6,10.6,0,0,0,.5-9.69,10.53,10.53,0,0,0-5.19-6,21.34,21.34,0,0,0-8.38-1.52c-.73,0-4.06.12-10,.39a47.53,47.53,0,0,1-9.94-.46Q309,66,306.06,58.32a14.91,14.91,0,0,1,1.78-14.7q4.31-6.3,13.07-9.7a44.24,44.24,0,0,1,7.22-1.84,44.24,44.24,0,0,0,7.22-1.84,5.55,5.55,0,0,0,3.71-3.93l7.42,19.09q-11.19-9.49-22.91-4.95a15.5,15.5,0,0,0-7.17,5.15,7.8,7.8,0,0,0-1.14,7.91,8.21,8.21,0,0,0,3.93,4.41q2.51,1.34,13.37,1c1.39,0,3-.09,4.87-.12q17.18-.34,21.94,11.9,3.57,9.18-1.12,16.4Q354,93.71,343.7,97.72a40.13,40.13,0,0,1-7.3,1.72,39.93,39.93,0,0,0-7.29,1.71c-2,.77-3.86,2.59-5.65,5.47Z"/><path class="cls-1" d="M418.83,19.38a3.23,3.23,0,0,0,.16-1.86c-.38-2.08-2.74-2.72-7.06-1.92Q393.72,19,389.61,34.28l-4.1-22a8.48,8.48,0,0,0,5.69,1.17l43.34-8.08L410.42,65a3.77,3.77,0,0,0-.34,2q.56,3,8.57,1.46,19.8-3.69,25.26-19.16l4.09,22a10.35,10.35,0,0,0-6.37-1L394.91,79l23.92-59.57Z"/><path class="cls-1" d="M537.38,67.77a13.72,13.72,0,0,0,5.43-11l1.36-36A63.61,63.61,0,0,1,545.46,10c-1.39,4.07-2.78,7.71-4.14,10.92L523.78,62.67a6.81,6.81,0,0,0-.5,2.5,7,7,0,0,0,.12,2.07l-11.57-.44a9.11,9.11,0,0,0,.27-2,7,7,0,0,0-.3-2.53L497.35,19.27q-1.85-5.52-3.29-11.21a44.55,44.55,0,0,1,.68,10.84l-1.36,36a13.67,13.67,0,0,0,4.67,11.35l-18.66-.71a13.64,13.64,0,0,0,5.44-11l1.62-42.8a13.53,13.53,0,0,0-4.6-11.2l20.32.76a3.24,3.24,0,0,0-.83,1.92,1.41,1.41,0,0,0,.11.64l14,41.8a78.58,78.58,0,0,1,2.8,12.2,82.14,82.14,0,0,1,3.66-12l17-40.62a.28.28,0,0,1,.06-.13,1.81,1.81,0,0,0,.2-.67c-.06-.25-.23-.85-.54-1.8l20.48.78a13.44,13.44,0,0,0-5.36,10.83l-1.62,42.79q-.27,7.14,4.52,11.35l-19.27-.73Z"/><path class="cls-1" d="M649.76,23.89a12.79,12.79,0,0,0,7.34-.3l-5.62,20.54a19.78,19.78,0,0,0-7.34-12.44q-4.86-3.8-14-6.31c-3.36-.92-5.89-1.23-7.57-.93q-3.67.64-4.77,4.66l-3.66,13.35,12.32,3.38q8.36,2.28,14.44-2.06L636,61.57q-3-6.87-11.37-9.16L612.31,49l-4.44,16.19q-1.2,4.41,1.9,7c1.4,1.14,4,2.22,7.67,3.24q10.14,2.78,16.12,1.9,7.11-1,13.14-7.57L640.85,91.1A13.32,13.32,0,0,0,634.14,87L590.11,75a13.67,13.67,0,0,0,7.79-9.44l11.32-41.29a13.55,13.55,0,0,0-1.93-12l42.47,11.63ZM627.49,11l17-9.53Q648-.5,650.44.17a3.8,3.8,0,0,1,2.34,1.74,3.37,3.37,0,0,1,.41,2.72q-.6,2.16-5.29,3.3l-16.82,4-3.59-1Z"/><path class="cls-1" d="M691.9,98.13a13.69,13.69,0,0,0-.62,12.23l-17.43-8.9a13.68,13.68,0,0,0,9.56-7.66l19.48-38.15a13.53,13.53,0,0,0,.53-12.11L706.18,45l2.76,1.41q4.74,2.43,12.92,6.24L729,55.94,731.09,57q20.35,10.4,12.37,26-5.09,10-18.83,7.64,3.92,4.15,4.68,8.09.66,3.38-.78,8.95a116.27,116.27,0,0,0-4.29,13.37,10.78,10.78,0,0,0,1.21,6.73l-10.27-5.24a3.79,3.79,0,0,1-1.41-4.32,30.09,30.09,0,0,1,2.5-6.06A49.37,49.37,0,0,0,719,106q2.24-7.4-.73-12.41-2.62-4.47-10.47-8.48c-.81-.41-2-1-3.74-1.76s-2.93-1.34-3.74-1.75L691.9,98.13Zm17.89-35L703.73,75q4.17,2.45,7.32,4.05,8.3,4.24,12.91,4.84,7.35,1,10.56-5.3,4.82-9.43-10.52-17.27c-3.47-1.76-6.17-2.63-8.12-2.59-2.59.05-4.62,1.51-6.09,4.4Z"/><path class="cls-1" d="M807.58,106.77c-.94.57-1.47.9-1.59,1a1.94,1.94,0,0,0-.31.63.53.53,0,0,1,0,.14l-9,43a73.23,73.23,0,0,1-4,13.22,80.51,80.51,0,0,1,7-9.85l19.77-24.47a13.51,13.51,0,0,0,2.94-11.79l14.53,11.73A13.48,13.48,0,0,0,826,135.83l-31,38.43a9.45,9.45,0,0,0-2.24,4.07l-10.81-8.73.15-.11a4.21,4.21,0,0,0,1.48-1,1.89,1.89,0,0,0,.29-.65.3.3,0,0,1,0-.15l10-47.65q.87-4.19,3.31-12.23a63.58,63.58,0,0,1-6.16,9.08l-22.32,27.63a13.68,13.68,0,0,0-3.06,11.87l-14.53-11.73a13.59,13.59,0,0,0,11-5.5L789,105.91a13.44,13.44,0,0,0,3-11.76l15.63,12.62Z"/><path class="cls-1" d="M837,227.88q-9.78-12-6.45-24.33,2.79-10.37,14.29-19.72t22.3-9.93q12.67-.63,22.55,11.52t6.44,24.34q-2.77,10.37-14.26,19.68t-22.29,9.93Q846.82,240,837,227.88Zm5.91-4.8q12.24,15.06,32.61-1.47,8.37-6.81,11.23-13.8,3.79-9.26-3-17.59Q871.4,175,851.07,191.54q-8.34,6.78-11.21,13.91-3.74,9.33,3,17.63Zm47.18-57.24a4.65,4.65,0,0,1,3.9-.9,5.88,5.88,0,0,1,3.73,2.16,5.52,5.52,0,0,1,1.3,4,4.84,4.84,0,0,1-1.8,3.54q-4,3.26-7.51-1a6,6,0,0,1-1.49-4.13,4.74,4.74,0,0,1,1.87-3.63Zm11.6,14.29a4.69,4.69,0,0,1,3.85-1,5.62,5.62,0,0,1,3.68,2.09,5.78,5.78,0,0,1,1.35,4.06,4.68,4.68,0,0,1-1.75,3.59,4.86,4.86,0,0,1-3.9,1.13,5.84,5.84,0,0,1-3.7-2.28,5.71,5.71,0,0,1-1.42-4.06,4.8,4.8,0,0,1,1.89-3.57Z"/><path class="cls-1" d="M941.34,265.53a13.58,13.58,0,0,0-12.08.63L910,276.09l31.93,8.39c2.47.66,4.35.65,5.62,0,1.06-.54,1.66-1.67,1.82-3.37L958.61,299a114.55,114.55,0,0,0-11.68-4.7l-.13-.05-18.61-5.3-20.67,30a31.71,31.71,0,0,0-5.25,12.68l-8.66-16.78a6.79,6.79,0,0,0,4.88-.31,10.57,10.57,0,0,0,3.57-3.56l17.38-25-18.18-5.39-10.08,5.2a13.71,13.71,0,0,0-7.63,9.55l-9-17.4a13.64,13.64,0,0,0,12.24-.64l38.07-19.65a13.52,13.52,0,0,0,7.49-9.54l9,17.4Z"/><path class="cls-1" d="M978.73,355.84a13.56,13.56,0,0,0-12-1.37L926,367.67a13.67,13.67,0,0,0-9.08,8.2l-6-18.63A13.68,13.68,0,0,0,923,358.58l40.75-13.19a13.54,13.54,0,0,0,8.94-8.18l6,18.63Z"/><path class="cls-1" d="M998,543.63a13.55,13.55,0,0,0-10.47-6.07l-21.52-2.17,22.19,24.45q2.57,2.83,4.69,3c1.18.12,2.3-.49,3.35-1.84l-2,20q-.87-1.82-7.16-10.34l-.08-.11-12.74-14.56L940.59,570a31.8,31.8,0,0,0-11.32,7.77l1.9-18.79a6.84,6.84,0,0,0,4.27,2.41,11.07,11.07,0,0,0,4.94-1l28.2-11.5-12.3-14.46L945,533.27a13.72,13.72,0,0,0-11.61,3.84l2-19.48a13.63,13.63,0,0,0,10.6,6.14l42.6,4.29a13.48,13.48,0,0,0,11.47-3.92l-2,19.49Z"/><path class="cls-1" d="M933.77,619q-5.09-3.86-7.66-4.67a7.92,7.92,0,0,0-6.32.72l5.47-17.49q2.76,6.3,10.61,12.5l39.61,31.26a2.93,2.93,0,0,0,.94.52,5,5,0,0,0,3.15-.19l-5.23,16.72a4.26,4.26,0,0,0-2.1-1.7,4.89,4.89,0,0,0-1.53-.17l-49.64,1.19q-10.14.26-15.75,3.62l5.57-17.82a7.94,7.94,0,0,0,4.85,4.57q2.49.78,8.76.47,2.25-5.84,5-14.67T933.77,619Zm6.4,5.14q-2.76,7.36-4.24,12.07t-3.38,12.19l37.07-1-29.45-23.25Z"/><path class="cls-1" d="M896.43,704.94a13.79,13.79,0,0,0-12.17-1.12l9.51-17.11a13.65,13.65,0,0,0,7.3,9.85l37.44,20.82a13.5,13.5,0,0,0,12.1.94L949.1,721l-1.5,2.71q-2.6,4.66-6.69,12.7l-3.59,7c-.35.65-.73,1.32-1.12,2q-11.12,20-26.46,11.44-9.79-5.45-7-19.1-4.29,3.78-8.25,4.4c-2.26.35-5.23,0-8.92-1.1a114.36,114.36,0,0,0-13.21-4.76,10.92,10.92,0,0,0-6.77,1l5.59-10.05a3.79,3.79,0,0,1,4.37-1.25,29.44,29.44,0,0,1,6,2.71,47.88,47.88,0,0,0,6.1,3q7.3,2.5,12.42-.28,4.58-2.46,8.84-10.14c.44-.79,1.07-2,1.88-3.67s1.45-2.87,1.89-3.67l-16.23-9Zm34.4,19.12-11.66-6.48q-2.58,4.08-4.29,7.16-4.53,8.12-5.28,12.7-1.23,7.3,4.93,10.74,9.26,5.15,17.61-9.88,2.83-5.09,2.88-8,.06-3.88-4.19-6.24Z"/><path class="cls-2" d="M373.23,953.13h-6.39a8.84,8.84,0,0,0-5.21,1.45v-9.37a13.49,13.49,0,0,0,5.28,1.23q8.59,0,8.59-8.77a10.16,10.16,0,0,0-1-4.5h8.88a21.89,21.89,0,0,0-1,7.09v47a13.4,13.4,0,0,0,4.86,10.94H368.34q4.89-3.94,4.89-10.93V953.13Z"/><path class="cls-2" d="M469,963.67q11.77,4.4,11.77,16.24,0,10.14-7.88,15.21-6.86,4.39-18.44,4.4T436,995.07q-7.89-5.07-7.88-15.16,0-11.83,11.73-16.24-9-3.76-9-13.41,0-8.84,7.2-13.28,6.17-3.81,16.32-3.81T470.81,937q7.24,4.44,7.25,13.28,0,9.6-9.08,13.41Zm-14.53,3.87q-7.43,0-11.84,2.82-5.07,3.27-5.07,9.77a10.85,10.85,0,0,0,5.07,9.76q4.41,2.86,11.84,2.87t11.85-2.87a11.86,11.86,0,0,0-.05-19.48q-4.41-2.88-11.8-2.87Zm0-27.62q-6.1,0-9.85,2.38a9,9,0,0,0-4.29,8.06,9.16,9.16,0,0,0,4.24,8.2c2.49,1.64,5.8,2.46,9.9,2.46s7.46-.82,10-2.46a9.14,9.14,0,0,0,4.29-8.2,8.93,8.93,0,0,0-4.34-8.06q-3.75-2.37-9.91-2.38Z"/><path class="cls-2" d="M524.81,998.2q6.86-6.11,11.34-17.44l12.73-32.14a10.6,10.6,0,0,0,.88-3.69q0-4.77-8.48-4.77-17.31,0-25.84,15V932.39a14.52,14.52,0,0,0,7.5,2.1h44.62a35.59,35.59,0,0,0-8.68,13.22l-14.64,36.82a19,19,0,0,0-1.63,6.76q0,3.69,3.55,6.91Z"/><path class="cls-2" d="M620.54,953.13h-6.39a8.78,8.78,0,0,0-5.2,1.45v-9.37a13.49,13.49,0,0,0,5.28,1.23q8.58,0,8.58-8.77a10.29,10.29,0,0,0-1-4.5h8.87a21.91,21.91,0,0,0-1,7.09v47a13.39,13.39,0,0,0,4.85,10.94H615.65q4.89-3.94,4.89-10.93V953.13Z"/><path class="cls-3" d="M402,709.44c-3.65,7.42-12.6,19.14-12.6,19.14a21,21,0,0,0,3.91.6c1.52.67,3.51,1.94,5,2.58a27,27,0,0,0,3,2.36c5.29,4.09,3.14,9.09,2.22,14-.71,3.81-2.44,13,.1,15.58,2.72,2.82,8.55,4.41,8.55,4.41s5.68,2.13,9.53,1.46c3.56-.66,7.52-9.15,9.18-12.61,2.15-4.55,3.31-9.84,10-10.12a18.35,18.35,0,0,0,4.05-.23c1.49.35,3,.67,4.45.95a28.51,28.51,0,0,0,3.74,1.83c6,2.89,4.95,8.24,5.09,13.25.07,3.83.28,13.17,3.32,15.22,3.24,2.19,9.28,2.5,9.28,2.5s.56.08,1.41.16V712.75a213.17,213.17,0,0,1-63.69-18.57s-2.95,7.85-6.6,15.26Z"/><path class="cls-3" d="M353.41,427.42C350.07,400.65,375,387.8,375,387.8s-19.19-13.93-24.45-21.1-3.82-25.76,7.65-36.75c15.58-14.94,36.07-26.72,57.64-35.76l17.79-52.1c-1.73-2-2.65-4.68-3.85-7.2-1.65-3.46-2.93-11.95-6.5-12.55-3.88-.67-12.24,1.48-12.24,1.48s-5.83,1.59-8.54,4.4c-2.54,2.65-.74,11.84,0,15.62.91,4.92,3.07,9.92-2.15,14a20.49,20.49,0,0,0-3.15,2.56c-1.41.6-2.82,1.24-4.23,1.87a39.48,39.48,0,0,0-4,.74c-6.57,1.2-8.82-3.76-11.89-7.73-2.33-3-8-10.5-11.65-10.37-3.92.15-9,3.44-9,3.44s-5.4,2.77-7.45,6.1c-1.94,3.09,1.73,11.71,3.22,15.27,1.93,4.61,5.08,9,.81,14.15a19.55,19.55,0,0,0-2.58,3.22c-1.23.86-2.44,1.75-3.64,2.63a33.74,33.74,0,0,0-3.84,1.57c-6.18,2.54-9.43-1.82-13.24-5.1-2.93-2.47-10-8.58-13.56-7.7-3.77.94-8.08,5.23-8.08,5.23s-4.66,3.85-6,7.5c-1.24,3.44,4.13,11.1,6.32,14.28,2.86,4.11,6.85,7.77,3.74,13.67a19.73,19.73,0,0,0-1.8,3.57c-1,1.11-2,2.26-3,3.41a27,27,0,0,0-3.5,2.38c-5.54,3.76-9.6.16-14-2.22-3.39-1.86-11.58-6.38-14.86-4.75-3.5,1.72-6.82,6.81-6.82,6.81s-3.77,4.72-4.3,8.6c-.49,3.61,6.32,10,9.14,12.61,3.64,3.44,8.33,6.18,6.5,12.61a18.38,18.38,0,0,0-1,3.88c-.81,1.36-1.62,2.72-2.36,4.1a24.63,24.63,0,0,0-2.79,2.89c-4.63,4.8-9.35,2.17-14.16.76-3.7-1.11-12.63-3.82-15.53-1.56-3.07,2.43-5.22,8.06-5.22,8.06s-2.72,5.43-2.44,9.32c.25,3.65,8.26,8.45,11.58,10.43,4.27,2.6,9.43,4.35,9,11a22.44,22.44,0,0,0-.17,4.05c-.49,1.48-1.06,3-1.52,4.51a25.84,25.84,0,0,0-2.08,3.39c-3.53,5.67-8.72,4.05-13.7,3.67-3.84-.29-13.16-1.09-15.49,1.72-2.51,3-3.46,9-3.46,9s-1.56,5.86-.46,9.64c1,3.49,9.85,6.53,13.48,7.8,4.73,1.62,10.13,2.26,11.09,8.84a19.57,19.57,0,0,0,.67,4.06c-.07.67-.18,1.31-.25,2-.11.84-.14,1.64-.21,2.42a34,34,0,0,0-1.45,4c-2.26,6.31-7.66,5.8-12.64,6.47-3.81.48-13.09,1.66-14.78,4.87-1.84,3.45-1.53,9.49-1.53,9.49s-.28,6.06,1.56,9.51c1.73,3.21,11,4.37,14.82,4.85,5,.62,10.38.1,12.68,6.37a20.06,20.06,0,0,0,1.37,3.6c.18,1.59.39,3.15.57,4.72-.18,1.15-.43,2.35-.57,4.09-.88,6.62-6.28,7.26-11,9-3.63,1.26-12.49,4.34-13.48,7.85-1.06,3.78.49,9.6.49,9.6s1,6,3.5,9c2.36,2.81,11.68,2,15.5,1.65,5-.4,12,.59,17.92,10.38.44.72-.3.48,0,0,3-4.69,25.37-16.4,33.4-17.41a220.94,220.94,0,0,1-8.15-86.26c.67-6.55,2.43-28.69,6.25-37.77s16.83-33.39,32.49-27.32c11.26,4.37,32.06,18.71,32.06,18.71Z"/><path class="cls-3" d="M405,462.5c-10.91,3.26-26.36.57-33.24-5.54L328.16,573.29a93.28,93.28,0,0,0-12-.87,86.63,86.63,0,1,0,45,13.18c-.55-.35,43.79-123.1,43.79-123.1Z"/><path class="cls-3" d="M399,384.5c8.33-.64,21.87,4.86,30.12,13.28,0,0,37.47-98.18,38.43-101s4.3-1.43,4.3-1.43V216.88l-7.65-1L399,384.5Z"/><polygon class="cls-3" points="526.25 137.04 503.09 137.04 497.76 137.04 474.57 137.04 474.63 155.73 497.76 155.73 503.09 155.73 526.18 155.73 526.25 137.04 526.25 137.04"/><polygon class="cls-3" points="521.2 511.78 480.45 511.78 480.45 237.06 521.2 237.06 521.2 511.78 521.2 511.78"/><path class="cls-3" d="M541.62,168.6H461.31c-15.76,0-28.55,11.74-28.55,26.21S445.55,221,461.31,221h80.31c15.76,0,28.55-11.7,28.55-26.16s-12.79-26.21-28.55-26.21Z"/><path class="cls-3" d="M380.57,581.32l23.21-18.1s8.54,22.15,27,31.08L407,615.5s-8.54-20.15-26.39-34.18Z"/><path class="cls-4" d="M457.14,433l17.64,7.93v35.4m0,0s-6.77-32.69-17.16-42.6"/><path class="cls-3" d="M607.48,393.07c-10.58,0-19.33,5.05-27.45,11.25-9.06,6.93-29.14,24.86-43.2,64.95-7.48,21.35-7.83,41.82-7.42,51.72H472c.41-9.9.06-30.37-7.42-51.72-14.06-40.09-34.14-58-43.2-64.95-8.12-6.2-16.87-11.25-27.45-11.25-16.87,0-30.54,13.2-30.54,29.49s13.67,29.5,30.54,29.5c5.38,0,10.7-1,14.71-3.79a28,28,0,0,0,6.5-6.18s32.35,27.93,26.14,80.18c-15,3.93-26,16.59-26,31.63,0,18.16,16.06,32.86,35.86,32.86H551.88c19.8,0,35.85-14.7,35.85-32.86,0-15.58-11.81-28.6-27.65-32-6-52,26.19-79.81,26.19-79.81a28,28,0,0,0,6.5,6.18c4,2.8,9.33,3.79,14.71,3.79,16.87,0,30.54-13.19,30.54-29.5s-13.67-29.49-30.54-29.49Z"/><path class="cls-3" d="M599.32,709.44c3.65,7.42,12.6,19.14,12.6,19.14a21,21,0,0,1-3.91.6c-1.52.67-3.51,1.94-5,2.58a28,28,0,0,1-3,2.36c-5.29,4.09-3.14,9.09-2.22,14,.71,3.81,2.44,13-.1,15.58-2.73,2.82-8.55,4.41-8.55,4.41s-5.68,2.13-9.53,1.46c-3.56-.66-7.52-9.15-9.18-12.61-2.15-4.55-3.31-9.84-10-10.12a18.5,18.5,0,0,1-4.06-.23c-1.48.35-3,.67-4.44.95a28.51,28.51,0,0,1-3.74,1.83c-6,2.89-5,8.24-5.09,13.25-.07,3.83-.28,13.17-3.32,15.22-3.25,2.19-9.28,2.5-9.28,2.5s-.56.08-1.41.16V712.75a213.17,213.17,0,0,0,63.69-18.57s2.95,7.85,6.6,15.26Z"/><path class="cls-3" d="M648,427.42c3.35-26.77-21.58-39.62-21.58-39.62s19.19-13.93,24.45-21.1,3.82-25.76-7.65-36.75c-15.58-14.94-36.07-26.72-57.64-35.76l-17.79-52.1c1.73-2,2.64-4.68,3.85-7.2,1.66-3.46,2.93-11.95,6.5-12.55,3.88-.67,12.24,1.48,12.24,1.48s5.83,1.59,8.54,4.4c2.55,2.65.74,11.84,0,15.62-.91,4.92-3.07,9.92,2.15,14a21,21,0,0,1,3.15,2.56c1.41.6,2.82,1.24,4.23,1.87a39.48,39.48,0,0,1,4,.74c6.57,1.2,8.82-3.76,11.89-7.73,2.34-3,8-10.5,11.65-10.37,3.92.15,9,3.44,9,3.44s5.4,2.77,7.45,6.1c1.94,3.09-1.73,11.71-3.22,15.27-1.94,4.61-5.08,9-.81,14.15a19.55,19.55,0,0,1,2.58,3.22c1.23.86,2.44,1.75,3.64,2.63a33.74,33.74,0,0,1,3.84,1.57c6.18,2.54,9.43-1.82,13.24-5.1,2.93-2.47,10-8.58,13.56-7.7,3.77.94,8.08,5.23,8.08,5.23s4.66,3.85,6,7.5c1.24,3.44-4.13,11.1-6.32,14.28-2.86,4.11-6.85,7.77-3.74,13.67a19.73,19.73,0,0,1,1.8,3.57c1,1.11,2,2.26,3,3.41a27,27,0,0,1,3.5,2.38c5.54,3.76,9.6.16,14-2.22,3.39-1.86,11.58-6.38,14.86-4.75,3.5,1.72,6.81,6.81,6.81,6.81s3.78,4.72,4.31,8.6c.49,3.61-6.32,10-9.14,12.61-3.64,3.44-8.33,6.18-6.5,12.61a18.38,18.38,0,0,1,1,3.88c.81,1.36,1.62,2.72,2.36,4.1a24.63,24.63,0,0,1,2.79,2.89c4.62,4.8,9.36,2.17,14.15.76,3.71-1.11,12.64-3.82,15.54-1.56,3.07,2.43,5.22,8.06,5.22,8.06s2.72,5.43,2.44,9.32c-.25,3.65-8.26,8.45-11.58,10.43-4.27,2.6-9.42,4.35-9,11a21.54,21.54,0,0,1,.17,4.05c.49,1.48,1.06,3,1.52,4.51a24.8,24.8,0,0,1,2.08,3.39c3.53,5.67,8.72,4.05,13.69,3.67,3.85-.29,13.17-1.09,15.5,1.72,2.51,3,3.46,9,3.46,9s1.56,5.86.46,9.64c-1,3.49-9.85,6.53-13.48,7.8-4.73,1.62-10.13,2.26-11.09,8.84a19.57,19.57,0,0,1-.67,4.06c.07.67.18,1.31.25,2,.11.84.14,1.64.21,2.42a34,34,0,0,1,1.45,4c2.26,6.31,7.66,5.8,12.63,6.47,3.82.48,13.1,1.66,14.8,4.87,1.83,3.45,1.52,9.49,1.52,9.49s.28,6.06-1.56,9.51c-1.73,3.21-11,4.37-14.82,4.85-5,.62-10.38.1-12.68,6.37a20.06,20.06,0,0,1-1.37,3.6c-.18,1.59-.39,3.15-.57,4.72.18,1.15.43,2.35.57,4.09.88,6.62,6.28,7.26,11,9,3.63,1.26,12.49,4.34,13.48,7.85,1.06,3.78-.49,9.6-.49,9.6s-1,6-3.5,9c-2.37,2.81-11.68,2-15.5,1.65-5-.4-12,.59-17.92,10.38-.44.72.3.48,0,0-3-4.69-25.37-16.4-33.4-17.41a220.94,220.94,0,0,0,8.15-86.26c-.67-6.55-2.43-28.69-6.25-37.77S695.67,402.64,680,408.71C668.75,413.08,648,427.42,648,427.42Z"/><path class="cls-3" d="M595.65,462.44c10.94,3.16,26.36.32,33.19-5.85l44.64,115.92a93.08,93.08,0,0,1,12-1,86.63,86.63,0,1,1-44.92,13.6c.55-.35-44.92-122.69-44.92-122.69Z"/><path class="cls-3" d="M602.35,384.5c-8.33-.64-21.87,4.86-30.13,13.28,0,0-37.46-98.18-38.42-101s-4.3-1.43-4.3-1.43V216.88l7.65-1,65.2,168.58Z"/><path class="cls-3" d="M620.79,581.32l-23.21-18.1s-8.54,22.15-27,31.08l23.85,21.2s8.54-20.15,26.39-34.18Z"/><path class="cls-3" d="M592.1,461.86a17.79,17.79,0,0,1-8.46-7.73s-10.94,10.81-15.53,26c0,0,11.29-13.94,24-18.31Z"/><path class="cls-4" d="M544.22,433l-17.64,7.93v35.4m0,0s6.77-32.69,17.16-42.6"/><polygon class="cls-3" points="517.98 829.93 484.37 829.93 484.37 594.14 517.98 594.14 517.98 829.93 517.98 829.93"/><path class="cls-3" d="M409.26,461.86a17.79,17.79,0,0,0,8.46-7.73s10.94,10.81,15.53,26c0,0-11.29-13.94-24-18.31Z"/><path class="cls-1" d="M461.61,206.84A12.41,12.41,0,1,1,474,194.43a12.41,12.41,0,0,1-12.42,12.41Z"/><path class="cls-1" d="M541,206.84a12.41,12.41,0,1,1,12.41-12.41A12.41,12.41,0,0,1,541,206.84Z"/><path class="cls-1" d="M392.51,437.29A15.29,15.29,0,1,1,407.83,422a15.23,15.23,0,0,1-15.32,15.26Z"/><path class="cls-1" d="M451.43,569A15.58,15.58,0,1,1,467,553.43,15.58,15.58,0,0,1,451.43,569Z"/><path class="cls-1" d="M551.09,569a15.58,15.58,0,1,1,15.59-15.58A15.58,15.58,0,0,1,551.09,569Z"/><path class="cls-1" d="M608.85,437.29A15.29,15.29,0,1,0,593.53,422a15.23,15.23,0,0,0,15.32,15.26Z"/></g></g></svg>