<?xml version="1.0" encoding="UTF-8" standalone="no"?>
<!DOCTYPE svg PUBLIC "-//W3C//DTD SVG 1.1//EN" "http://www.w3.org/Graphics/SVG/1.1/DTD/svg11.dtd">
<svg width="100%" height="100%" viewBox="0 0 2835 3750" version="1.1" xmlns="http://www.w3.org/2000/svg" xmlns:xlink="http://www.w3.org/1999/xlink" xml:space="preserve" xmlns:serif="http://www.serif.com/" style="fill-rule:evenodd;clip-rule:evenodd;stroke-linejoin:round;stroke-miterlimit:2;">
    <g id="KFB" transform="matrix(4.16667,0,0,4.16667,0,0)">
        <g transform="matrix(1,0,0,1,223.627,194.311)">
            <path d="M0,-166.084L-47.045,-166.084C-51.722,-166.084 -55.513,-162.292 -55.513,-157.616L-55.513,-88.237C-52.729,-84.305 -50.089,-80.232 -47.477,-76.186C-43.752,-70.415 -39.901,-64.448 -35.679,-58.994C-29.816,-51.419 -24.268,-43.468 -18.901,-35.778C-10.386,-23.577 -1.609,-11.057 8.468,0L8.468,-157.616C8.468,-162.292 4.677,-166.084 0,-166.084" style="fill:rgb(119,17,19);fill-rule:nonzero;"/>
        </g>
        <g transform="matrix(1,0,0,1,216.695,687.636)">
            <path d="M0,-197.687C-8.909,-197.687 -20.549,-199.387 -25.412,-207.486C-27.526,-211.006 -29.045,-217.084 -24.275,-226.042C-20.553,-233.034 -14.084,-237.462 -8.375,-241.37C-3.048,-245.016 1.475,-248.358 3.585,-252.851C5.728,-257.412 5.301,-263.245 4.6,-268.351C2.903,-280.725 -4.345,-321.1 -26.344,-321.1C-27.807,-321.1 -29.35,-320.93 -30.932,-320.597C-41.693,-318.325 -47.841,-306.008 -48.162,-295.572C-48.518,-283.976 -44.521,-272.747 -40.564,-263.291C-39.367,-260.431 -40.702,-257.14 -43.552,-255.921C-44.025,-255.719 -44.511,-255.61 -44.998,-255.542C-45.255,-255.506 -45.513,-255.464 -45.769,-255.464C-46.763,-255.464 -47.729,-255.74 -48.581,-256.229L-48.581,-86.386C-48.581,-84.566 -49.167,-82.794 -50.253,-81.333L-101.479,-12.444C-102.566,-10.983 -103.152,-9.211 -103.152,-7.391L-103.152,114.945C-103.152,119.622 -99.361,123.413 -94.685,123.413L6.932,123.413C11.609,123.413 15.4,119.622 15.4,114.945L15.4,-199.008C11.781,-198.529 8.096,-198.083 4.437,-197.835C2.975,-197.737 1.481,-197.687 0,-197.687" style="fill:rgb(119,17,19);fill-rule:nonzero;"/>
        </g>
        <g transform="matrix(1,0,0,1,411.487,808.593)">
            <path d="M0,-319.629C-6.459,-317.237 -12.327,-312.836 -17.94,-306.175C-21.681,-301.733 -25.262,-296.332 -28.888,-289.663C-49.724,-251.357 -57.424,-207.42 -64.87,-164.929C-65.152,-163.31 -65.377,-161.684 -65.594,-160.059C-65.971,-157.257 -68.361,-155.163 -71.189,-155.163C-74.018,-155.163 -76.409,-157.257 -76.785,-160.059C-77.003,-161.684 -77.225,-163.31 -77.509,-164.929C-84.955,-207.418 -92.653,-251.355 -113.489,-289.663C-117.117,-296.332 -120.698,-301.733 -124.439,-306.175C-130.052,-312.836 -135.92,-317.237 -142.379,-319.629C-146.846,-321.282 -151.841,-322.085 -157.652,-322.085C-161.095,-322.085 -164.566,-321.805 -168.102,-321.413L-168.102,-6.012C-168.102,-1.335 -164.31,2.456 -159.633,2.456L17.254,2.456C21.931,2.456 25.723,-1.335 25.723,-6.012L25.723,-321.413C22.187,-321.805 18.717,-322.085 15.273,-322.085C9.463,-322.085 4.466,-321.282 0,-319.629" style="fill:rgb(119,17,19);fill-rule:nonzero;"/>
        </g>
        <g transform="matrix(1,0,0,1,428.741,227.528)">
            <path d="M0,-227.528L-176.887,-227.528C-181.564,-227.528 -185.355,-223.737 -185.355,-219.06L-185.355,-21.804C-178.215,-14.912 -172.004,-9.391 -162.989,-5.56L-161.391,-5.034C-152.869,-2.221 -146.136,0 -139.387,0C-135.157,0 -130.993,-0.845 -126.326,-2.656C-123.698,-4.532 -121.618,-8.218 -121.613,-11.104C-121.61,-12.704 -122.272,-13.127 -122.59,-13.33C-126.063,-15.543 -129.596,-16.568 -133.687,-17.753C-136.714,-18.631 -139.843,-19.538 -143.218,-21.006C-149.661,-23.806 -155.099,-29.549 -157.071,-35.634C-158.541,-40.17 -158.111,-44.609 -155.828,-48.471C-152.682,-53.792 -147.127,-56.016 -142.663,-57.803C-142.663,-57.803 -141.189,-58.397 -141.125,-58.421C-111.356,-69.371 -109.434,-84.861 -108.162,-95.111C-107.499,-100.452 -106.748,-106.507 -100.684,-108.248C-99.896,-108.474 -99.083,-108.588 -98.263,-108.588C-93.378,-108.588 -89.813,-104.812 -85.685,-100.44C-80.067,-94.492 -73.077,-87.091 -61.903,-87.091C-58.01,-87.091 -53.74,-87.986 -49.215,-89.749C-48.501,-90.027 -47.79,-90.311 -47.077,-90.597C-42.613,-92.385 -37.997,-94.233 -32.725,-94.615C-32.266,-94.648 -31.805,-94.665 -31.338,-94.665C-24.498,-94.665 -16.331,-90.966 -14.568,-82.846C-13.222,-76.65 -16.45,-71.234 -18.996,-67.698C-22.937,-62.219 -27.581,-57.402 -32.072,-52.743C-37.668,-46.938 -42.953,-41.456 -46.727,-35.004C-50.611,-28.361 -51.929,-19.774 -50.084,-13.125C-48.94,-9.002 -46.719,-6.013 -43.479,-4.242C-41.059,-2.919 -38.234,-2.302 -34.592,-2.302C-30.736,-2.303 -26.493,-3.021 -22.369,-3.736C-11.653,-7.506 -1.106,-13.806 8.469,-22.086L8.469,-219.06C8.469,-223.737 4.677,-227.528 0,-227.528" style="fill:rgb(119,17,19);fill-rule:nonzero;"/>
        </g>
        <g transform="matrix(1,0,0,1,565.379,502.392)">
            <path d="M0,172.8L-51.226,103.91C-52.313,102.449 -52.898,100.678 -52.898,98.858L-52.898,-70.986C-53.75,-70.497 -54.717,-70.221 -55.711,-70.221C-55.967,-70.221 -56.225,-70.262 -56.481,-70.298C-56.969,-70.366 -57.455,-70.475 -57.929,-70.678C-60.779,-71.897 -62.113,-75.188 -60.917,-78.048C-56.958,-87.502 -52.961,-98.73 -53.319,-110.327C-53.64,-120.764 -59.786,-133.081 -70.55,-135.353C-72.13,-135.686 -73.674,-135.856 -75.135,-135.856C-97.136,-135.856 -104.383,-95.481 -106.081,-83.107C-106.779,-78.001 -107.208,-72.167 -105.065,-67.607C-102.955,-63.114 -98.431,-59.772 -93.175,-56.175C-87.394,-52.216 -80.925,-47.788 -77.204,-40.797C-72.436,-31.841 -73.953,-25.762 -76.068,-22.242C-80.931,-14.143 -92.57,-12.443 -101.48,-12.443C-102.961,-12.443 -104.455,-12.493 -105.916,-12.592C-109.576,-12.839 -113.261,-13.286 -116.88,-13.764L-116.88,300.189C-116.88,304.865 -113.088,308.656 -108.411,308.656L-6.795,308.656C-2.118,308.656 1.673,304.865 1.673,300.189L1.673,177.853C1.673,176.032 1.086,174.261 0,172.8" style="fill:rgb(119,17,19);fill-rule:nonzero;"/>
        </g>
        <g transform="matrix(1,0,0,1,492.647,87.2214)">
            <path d="M0,48.095C4.223,42.64 8.074,36.672 11.799,30.901C14.411,26.855 17.05,22.783 19.834,18.852L19.834,-50.527C19.834,-55.203 16.042,-58.995 11.365,-58.995L-35.679,-58.995C-40.355,-58.995 -44.147,-55.203 -44.147,-50.527L-44.147,107.09C-34.069,96.032 -25.293,83.511 -16.776,71.308C-11.41,63.619 -5.862,55.669 0,48.095" style="fill:rgb(119,17,19);fill-rule:nonzero;"/>
        </g>
        <g transform="matrix(1,0,0,1,608.905,313.435)">
            <path d="M0,112.148C8.528,61.93 7.354,9.424 -3.815,-40.273C-7.549,-56.885 -12.358,-73.233 -17.164,-89.567C-20.972,-102.507 -24.779,-115.447 -28.586,-128.387C-34.232,-111.068 -29.443,-92.222 -30.298,-74.027C-30.682,-65.856 -32.325,-57.803 -34.046,-49.806C-35.775,-41.77 -37.588,-33.753 -39.483,-25.755C-46.324,3.107 -54.6,32.459 -72.242,56.304C-50.845,-10.703 -39.712,-83.367 -54.726,-152.086C-56.092,-158.341 -57.818,-164.811 -62.949,-169.1C-65.409,-171.156 -68.565,-172.365 -71.754,-172.031C-78.647,-171.309 -81.543,-164.686 -83.656,-158.796C-88.242,-146.009 -92.476,-133.098 -96.424,-120.1C-104.829,-92.432 -111.815,-64.333 -117.268,-35.935C-120.487,-19.163 -124.557,-0.198 -139.207,8.579C-145.509,12.355 -153.127,13.535 -160.405,12.407C-163.754,11.888 -167.031,10.882 -170.074,9.413C-170.633,9.144 -171.153,8.813 -171.695,8.515C-180.534,3.666 -187.225,-4.77 -190.632,-14.285C-185.314,18.911 -194.739,54.195 -215.901,80.318C-203.896,83.189 -193.442,65.773 -180.558,74.412C-176.347,77.236 -173.537,81.715 -172.312,86.634C-172.111,87.441 -171.904,88.253 -171.695,89.067C-167.997,103.521 -163.399,119.082 -167.46,133.65C-167.88,135.157 -168.397,136.691 -168.236,138.248C-167.849,142.016 -164.189,143.836 -160.405,145.295C-159.155,145.778 -157.892,146.22 -156.729,146.68C-151.868,148.603 -147.652,152.117 -144.885,156.551C-144.087,157.829 -143.395,159.424 -144.022,160.793C-144.855,162.608 -147.327,162.782 -149.319,162.646C-153.028,162.393 -156.726,161.984 -160.405,161.454C-162.719,161.121 -165.028,160.75 -167.324,160.307C-168.792,160.024 -170.272,159.704 -171.695,159.248C-173.01,158.827 -174.277,158.292 -175.434,157.537C-178.332,155.645 -180.258,152.624 -182.189,149.752C-190.617,137.217 -203.555,124.469 -220.522,133.364C-224.788,135.6 -228.408,138.883 -231.398,142.659C-245.966,161.048 -256.32,182.741 -261.507,205.617C-261.905,207.372 -266.189,244.968 -268.607,261.36C-271.027,244.968 -275.31,207.372 -275.708,205.617C-280.895,182.741 -291.25,161.048 -305.816,142.659C-308.807,138.883 -312.427,135.6 -316.693,133.364C-333.66,124.469 -346.598,137.217 -355.025,149.752C-356.957,152.624 -358.883,155.645 -361.782,157.537C-362.937,158.292 -364.205,158.827 -365.52,159.248C-366.943,159.704 -368.423,160.024 -369.891,160.307C-372.187,160.75 -374.496,161.121 -376.81,161.454C-380.49,161.984 -384.187,162.393 -387.896,162.646C-389.888,162.782 -392.36,162.608 -393.192,160.793C-393.82,159.424 -393.128,157.829 -392.331,156.551C-389.563,152.117 -385.347,148.603 -380.486,146.68C-379.323,146.22 -378.06,145.778 -376.81,145.295C-373.026,143.836 -369.366,142.016 -368.979,138.248C-368.819,136.691 -369.335,135.157 -369.755,133.65C-373.816,119.082 -369.218,103.521 -365.52,89.067C-365.311,88.253 -365.104,87.441 -364.903,86.634C-363.678,81.715 -360.869,77.236 -356.658,74.412C-343.772,65.773 -333.32,83.189 -321.314,80.318C-342.476,54.195 -351.901,18.911 -346.583,-14.285C-349.99,-4.77 -356.681,3.666 -365.52,8.515C-366.061,8.813 -366.583,9.144 -367.141,9.413C-370.184,10.882 -373.461,11.888 -376.81,12.407C-384.088,13.535 -391.707,12.355 -398.008,8.579C-412.658,-0.198 -416.728,-19.163 -419.947,-35.935C-425.4,-64.333 -432.386,-92.432 -440.791,-120.1C-444.739,-133.098 -448.973,-146.009 -453.559,-158.796C-455.672,-164.686 -458.567,-171.309 -465.461,-172.031C-468.649,-172.365 -471.806,-171.156 -474.266,-169.1C-479.397,-164.811 -481.123,-158.341 -482.489,-152.086C-497.502,-83.367 -486.37,-10.703 -464.973,56.304C-482.616,32.459 -490.89,3.107 -497.731,-25.755C-499.627,-33.753 -501.44,-41.77 -503.169,-49.806C-504.89,-57.803 -506.533,-65.856 -506.917,-74.027C-507.771,-92.222 -502.982,-111.068 -508.629,-128.387C-512.436,-115.447 -516.244,-102.507 -520.051,-89.567C-524.856,-73.233 -529.666,-56.885 -533.4,-40.273C-544.57,9.424 -545.743,61.93 -537.215,112.148C-559.4,60.01 -564.417,0.911 -552.466,-54.477C-540.514,-109.864 -511.804,-161.357 -471.787,-201.473C-456.986,-194.646 -448.057,-180.458 -440.956,-165.788C-440.898,-165.669 -440.848,-165.547 -440.791,-165.428C-433.791,-150.857 -429.424,-135.16 -422.961,-120.341C-419.381,-112.132 -415.166,-104.218 -410.955,-96.313C-403.396,-82.124 -395.592,-67.617 -383.588,-56.923C-381.479,-55.044 -379.206,-53.295 -376.81,-51.738C-373.277,-49.443 -369.473,-47.584 -365.52,-46.367C-361.15,-45.021 -356.602,-44.457 -352.032,-45.006C-340.136,-46.435 -330.146,-54.922 -318.399,-57.283C-308.716,-59.229 -296.462,-57.914 -291.292,-66.33C-288.108,-71.512 -288.531,-79.487 -283.012,-82.041C-276.331,-73.183 -279.905,-58.552 -289.918,-53.772C-294.763,-51.459 -300.463,-51.279 -305.149,-48.657C-309.464,-46.243 -312.445,-42.023 -314.953,-37.762C-326.342,-18.414 -330.514,4.857 -327.461,27.032C-324.163,50.994 -311.68,73.005 -302.815,95.222C-302.23,96.689 -301.64,98.24 -301.855,99.804C-302.069,101.369 -303.398,102.9 -304.97,102.745C-306.597,102.585 -307.527,100.894 -308.497,99.578C-310.98,96.211 -315.153,94.492 -319.27,93.748C-327.343,92.288 -335.959,94.096 -342.763,98.679C-350.024,103.569 -355.133,111.558 -356.458,120.22C-356.794,122.419 -355.347,124.072 -353.125,123.941C-349.657,123.736 -346.439,123.482 -343.36,121.81C-337.208,118.467 -331.057,114.93 -324.285,113.152C-317.513,111.375 -309.891,111.559 -303.997,115.337C-300.082,117.846 -297.249,121.702 -294.661,125.565C-282.31,144.004 -273.469,164.767 -268.607,186.419C-264.35,167.454 -257.037,149.172 -246.988,132.536C-245.473,129.145 -243.727,125.856 -241.744,122.715C-239.614,119.34 -237.148,115.915 -236.842,111.937C-236.712,110.242 -236.987,108.544 -237.044,106.845C-237.182,102.671 -235.987,98.689 -234.252,94.862C-225.397,72.768 -213.034,50.865 -209.754,27.032C-206.701,4.857 -210.872,-18.414 -222.262,-37.762C-224.771,-42.023 -227.75,-46.243 -232.066,-48.657C-236.752,-51.279 -242.452,-51.459 -247.297,-53.772C-257.311,-58.552 -260.885,-73.183 -254.203,-82.041C-248.684,-79.487 -249.107,-71.512 -245.923,-66.33C-240.753,-57.914 -228.499,-59.229 -218.815,-57.283C-207.069,-54.922 -197.078,-46.435 -185.183,-45.006C-180.613,-44.457 -176.064,-45.021 -171.695,-46.367C-167.742,-47.584 -163.938,-49.443 -160.405,-51.738C-158.009,-53.295 -155.735,-55.044 -153.627,-56.923C-141.623,-67.617 -133.819,-82.124 -126.26,-96.313C-122.05,-104.218 -117.834,-112.132 -114.254,-120.341C-107.79,-135.16 -103.425,-150.857 -96.424,-165.428C-96.367,-165.547 -96.317,-165.669 -96.26,-165.788C-89.158,-180.458 -80.229,-194.646 -65.428,-201.473C-25.411,-161.357 3.3,-109.864 15.251,-54.477C27.202,0.911 22.186,60.01 0,112.148M-291.319,-134.721C-289.972,-137.019 -287.623,-138.6 -285.116,-139.501C-279.491,-141.524 -272.804,-140.222 -268.349,-136.236C-265.685,-133.852 -263.847,-129.63 -266.004,-126.779C-268.135,-123.961 -272.38,-124.484 -275.912,-124.411C-278.658,-124.353 -281.382,-123.761 -284.127,-123.851C-286.872,-123.941 -289.801,-124.874 -291.345,-127.145C-292.843,-129.349 -292.667,-132.422 -291.319,-134.721M-251.825,-147.016C-249.543,-151.766 -243.503,-154.327 -238.502,-152.665C-237.875,-146.179 -239.698,-139.485 -243.529,-134.213C-244.146,-133.365 -244.938,-132.484 -245.984,-132.419C-246.675,-132.376 -247.332,-132.707 -247.912,-133.083C-252.334,-135.95 -254.108,-142.266 -251.825,-147.016M61.41,30.482C58.354,-61.11 6.715,-160.48 -57.396,-225.965C-75.909,-222.606 -86.36,-208.903 -96.424,-193.556C-101.342,-186.058 -106.167,-178.169 -111.794,-170.899C-128.172,-149.74 -141.686,-126.171 -160.405,-107.122C-161.281,-106.23 -162.155,-105.336 -163.055,-104.465C-165.785,-101.822 -168.676,-99.287 -171.695,-96.892C-180.573,-89.85 -190.591,-84.033 -201.114,-80.397C-209.721,-78.901 -218.804,-77.305 -226.352,-81.433C-239.069,-88.388 -239.082,-107.483 -231.764,-119.996C-224.446,-132.51 -212.206,-141.373 -203.74,-153.141C-201.49,-156.268 -199.433,-160.028 -200.25,-163.792C-201.351,-168.863 -207.306,-171.502 -212.481,-171.128C-217.657,-170.753 -222.493,-168.515 -227.329,-166.632C-261.08,-153.483 -270.96,-187.355 -279.291,-184.964C-287.622,-182.574 -272.371,-152.542 -319.34,-135.267C-323.74,-133.463 -328.712,-131.834 -331.132,-127.741C-335.33,-120.641 -328.695,-111.615 -321.131,-108.326C-313.567,-105.038 -306.674,-104.667 -299.72,-100.232C-292.765,-95.798 -296.887,-84.181 -303.857,-79.77C-319.499,-73.508 -329.495,-77.271 -345.137,-82.414C-353.38,-85.877 -359.491,-90.627 -365.52,-96.176C-368.347,-98.78 -371.157,-101.558 -374.16,-104.465C-375.06,-105.336 -375.934,-106.23 -376.81,-107.122C-395.529,-126.171 -409.043,-149.74 -425.421,-170.899C-431.048,-178.169 -435.874,-186.058 -440.791,-193.556C-450.854,-208.903 -461.306,-222.606 -479.819,-225.965C-543.93,-160.48 -595.569,-61.11 -598.625,30.482C-601.541,117.864 -572.179,205.897 -517.72,274.254C-517.266,273.805 -516.76,273.4 -516.192,273.058C-536.988,236.253 -549.621,194.343 -561.769,153.912C-563.488,148.189 -565.226,142.305 -564.761,136.348C-564.296,130.391 -561.126,124.256 -555.584,122.021C-546.82,118.484 -537.654,125.784 -531.384,132.856C-525.623,139.354 -520.238,146.182 -515.221,153.27C-514.791,152.922 -514.317,152.617 -513.805,152.355C-526.493,122.222 -529.437,87.12 -524.351,55.152C-523.252,48.248 -520.44,40.085 -513.582,38.726C-509.263,37.87 -505.003,40.188 -501.296,42.562C-476.506,58.442 -456.111,81.027 -442.611,107.178C-442.359,107.012 -442.094,106.858 -441.818,106.717C-444.488,98.761 -446.271,90.583 -446.014,82.219C-445.825,76.056 -443.982,69.743 -440.791,64.436C-437.036,58.19 -431.406,53.343 -424.307,51.845C-394.674,45.591 -384.896,87.853 -382.017,108.846C-381.156,115.12 -380.822,121.782 -383.515,127.514C-386.306,133.455 -391.908,137.499 -397.325,141.206C-402.742,144.913 -408.417,148.783 -411.502,154.576C-421.214,172.814 -400.404,175.325 -388.154,174.497C-384.403,174.243 -380.614,173.769 -376.81,173.26C-373.056,172.758 -369.286,172.226 -365.52,171.824C-356.171,170.826 -346.845,170.665 -337.838,173.998C-329.759,176.988 -323.121,182.484 -317.54,189.11C-313.057,194.432 -309.254,200.482 -305.948,206.561C-284.883,245.29 -276.976,289.593 -269.366,333.019C-269.07,334.713 -268.835,336.413 -268.607,338.113C-268.379,336.413 -268.146,334.713 -267.849,333.019C-260.239,289.593 -252.332,245.29 -231.267,206.561C-227.96,200.482 -224.158,194.432 -219.675,189.11C-214.095,182.484 -207.456,176.988 -199.377,173.998C-190.37,170.665 -181.044,170.826 -171.695,171.824C-167.929,172.226 -164.159,172.758 -160.405,173.26C-156.601,173.769 -152.812,174.243 -149.061,174.497C-136.811,175.325 -116.001,172.814 -125.713,154.576C-128.797,148.783 -134.474,144.913 -139.89,141.206C-145.307,137.499 -150.909,133.455 -153.7,127.514C-156.393,121.782 -156.059,115.12 -155.198,108.846C-152.318,87.853 -142.541,45.591 -112.908,51.845C-105.809,53.343 -100.18,58.19 -96.424,64.435C-93.232,69.743 -91.391,76.056 -91.201,82.219C-90.933,90.95 -92.876,99.482 -95.744,107.767C-95.507,107.858 -95.274,107.955 -95.051,108.064C-81.558,81.538 -60.987,58.62 -35.919,42.562C-32.212,40.188 -27.952,37.87 -23.634,38.726C-16.775,40.085 -13.963,48.248 -12.864,55.152C-7.688,87.678 -10.817,123.454 -24.075,153.933C-23.655,154.103 -23.254,154.295 -22.883,154.52C-17.617,146.982 -11.932,139.737 -5.831,132.856C0.439,125.784 9.604,118.484 18.369,122.021C23.911,124.256 27.081,130.391 27.546,136.348C28.012,142.305 26.273,148.189 24.554,153.912C12.155,195.178 -0.734,237.995 -22.309,275.34C-21.892,275.645 -21.513,275.987 -21.167,276.356C34.368,207.708 64.355,118.759 61.41,30.482" style="fill-rule:nonzero;"/>
        </g>
        <g transform="matrix(1,0,0,1,0,888.202)">
            <path d="M0,-38.048L4.911,-38.048L4.911,-19.702L5.081,-19.702C6.097,-21.17 7.113,-22.525 8.073,-23.767L19.702,-38.048L25.798,-38.048L12.024,-21.903L26.872,0L21.056,0L8.581,-18.686L4.911,-14.509L4.911,0L0,0L0,-38.048Z" style="fill-rule:nonzero;"/>
        </g>
        <g transform="matrix(1,0,0,1,33.5332,874.542)">
            <path d="M0,0.056C0,6.039 3.387,10.555 8.242,10.555C12.984,10.555 16.54,6.097 16.54,-0.058C16.54,-4.687 14.225,-10.502 8.355,-10.502C2.541,-10.502 0,-5.082 0,0.056M21.621,-0.227C21.621,9.878 14.564,14.282 8.016,14.282C0.677,14.282 -5.081,8.863 -5.081,0.225C-5.081,-8.864 0.959,-14.226 8.468,-14.226C16.314,-14.226 21.621,-8.524 21.621,-0.227" style="fill-rule:nonzero;"/>
        </g>
        <g transform="matrix(1,0,0,1,0,836.324)">
            <rect x="61.421" y="11.798" width="4.967" height="40.08"/>
        </g>
        <g transform="matrix(1,0,0,1,0,836.324)">
            <rect x="74.744" y="11.798" width="4.967" height="40.08"/>
        </g>
        <g transform="matrix(1,0,0,1,106.526,888.823)">
            <path d="M0,-39.741L-6.887,-31.669L-10.387,-31.669L-5.419,-39.741L0,-39.741ZM-1.129,-16.936C-1.072,-20.04 -2.428,-24.952 -8.016,-24.952C-13.097,-24.952 -15.242,-20.38 -15.637,-16.936L-1.129,-16.936ZM-15.694,-13.378C-15.581,-6.661 -11.347,-3.895 -6.323,-3.895C-2.766,-3.895 -0.564,-4.516 1.242,-5.307L2.146,-1.749C0.395,-0.959 -2.654,0 -7,0C-15.411,0 -20.435,-5.589 -20.435,-13.83C-20.435,-22.072 -15.581,-28.508 -7.621,-28.508C1.354,-28.508 3.669,-20.718 3.669,-15.693C3.669,-14.678 3.613,-13.944 3.5,-13.378L-15.694,-13.378Z" style="fill-rule:nonzero;"/>
        </g>
        <g transform="matrix(1,0,0,1,134.752,888.654)">
            <path d="M0,-16.993C0,-17.839 -0.057,-18.573 -0.283,-19.194C-1.186,-22.13 -3.557,-24.5 -7.226,-24.5C-11.968,-24.5 -15.355,-20.492 -15.355,-14.171C-15.355,-8.806 -12.589,-4.347 -7.283,-4.347C-4.178,-4.347 -1.411,-6.266 -0.395,-9.428C-0.113,-10.274 0,-11.233 0,-12.081L0,-16.993ZM4.967,-4.46C4.967,1.861 3.669,5.646 1.072,8.073C-1.637,10.498 -5.476,11.346 -8.92,11.346C-12.194,11.346 -15.807,10.556 -18.008,9.087L-16.766,5.25C-14.959,6.436 -12.138,7.451 -8.75,7.451C-3.67,7.451 0.056,4.798 0.056,-2.146L0.056,-5.139L-0.057,-5.139C-1.524,-2.597 -4.516,-0.564 -8.75,-0.564C-15.525,-0.564 -20.379,-6.323 -20.379,-13.888C-20.379,-23.145 -14.339,-28.339 -8.017,-28.339C-3.275,-28.339 -0.734,-25.911 0.507,-23.653L0.62,-23.653L0.79,-27.774L5.193,-27.774C5.024,-25.854 4.967,-23.597 4.967,-20.323L4.967,-4.46Z" style="fill-rule:nonzero;"/>
        </g>
        <g transform="matrix(1,0,0,1,0,838.3)">
            <path d="M147.567,22.58L152.534,22.58L152.534,49.902L147.567,49.902L147.567,22.58ZM153.1,14.901C153.1,16.596 151.915,17.95 149.938,17.95C148.132,17.95 146.946,16.596 146.946,14.901C146.946,13.209 148.189,11.798 150.051,11.798C151.857,11.798 153.1,13.152 153.1,14.901" style="fill-rule:nonzero;"/>
        </g>
        <g transform="matrix(1,0,0,1,183.639,869.01)">
            <path d="M0,11.683C0,14.563 0.057,17.047 0.226,19.192L-4.177,19.192L-4.459,14.732L-4.572,14.732C-5.814,16.933 -8.75,19.813 -13.604,19.813C-17.895,19.813 -23.032,17.385 -23.032,7.846L-23.032,-8.13L-18.064,-8.13L-18.064,6.942C-18.064,12.135 -16.427,15.691 -11.968,15.691C-8.637,15.691 -6.322,13.377 -5.419,11.119C-5.137,10.443 -4.967,9.538 -4.967,8.579L-4.967,-8.13L0,-8.13L0,11.683Z" style="fill-rule:nonzero;"/>
        </g>
        <g transform="matrix(1,0,0,1,191.883,880.243)">
            <path d="M0,-11.969C0,-14.847 -0.113,-17.106 -0.226,-19.364L4.121,-19.364L4.347,-14.904L4.516,-14.904C6.04,-17.5 8.58,-19.928 13.153,-19.928C16.822,-19.928 19.645,-17.669 20.83,-14.451L20.943,-14.451C21.79,-16.032 22.919,-17.162 24.048,-18.01C25.685,-19.25 27.436,-19.928 30.032,-19.928C33.701,-19.928 39.064,-17.558 39.064,-8.073L39.064,7.959L34.209,7.959L34.209,-7.452C34.209,-12.759 32.234,-15.864 28.282,-15.864C25.403,-15.864 23.257,-13.776 22.354,-11.405C22.128,-10.67 21.959,-9.823 21.959,-8.92L21.959,7.959L17.104,7.959L17.104,-8.411C17.104,-12.759 15.186,-15.864 11.403,-15.864C8.355,-15.864 6.04,-13.38 5.25,-10.896C4.967,-10.218 4.855,-9.316 4.855,-8.468L4.855,7.959L0,7.959L0,-11.969Z" style="fill-rule:nonzero;"/>
        </g>
        <g transform="matrix(1,0,0,1,0,838.3)">
            <path d="M238.965,22.58L243.932,22.58L243.932,49.902L238.965,49.902L238.965,22.58ZM244.498,14.901C244.498,16.596 243.313,17.95 241.336,17.95C239.53,17.95 238.344,16.596 238.344,14.901C238.344,13.209 239.586,11.798 241.449,11.798C243.255,11.798 244.498,13.152 244.498,14.901" style="fill-rule:nonzero;"/>
        </g>
        <g transform="matrix(1,0,0,1,264.255,888.202)">
            <path d="M0,-38.048L20.492,-38.048L20.492,-33.928L4.967,-33.928L4.967,-21.282L19.306,-21.282L19.306,-17.217L4.967,-17.217L4.967,0L0,0L0,-38.048Z" style="fill-rule:nonzero;"/>
        </g>
        <g transform="matrix(1,0,0,1,307.216,877.253)">
            <path d="M0,-5.366C0.057,-8.47 -1.298,-13.382 -6.887,-13.382C-11.968,-13.382 -14.112,-8.809 -14.507,-5.366L0,-5.366ZM-14.564,-1.807C-14.452,4.909 -10.217,7.675 -5.193,7.675C-1.636,7.675 0.565,7.054 2.372,6.263L3.275,9.822C1.524,10.612 -1.524,11.571 -5.871,11.571C-14.281,11.571 -19.306,5.982 -19.306,-2.26C-19.306,-10.502 -14.452,-16.937 -6.492,-16.937C2.484,-16.937 4.798,-9.147 4.798,-4.123C4.798,-3.107 4.742,-2.374 4.629,-1.807L-14.564,-1.807Z" style="fill-rule:nonzero;"/>
        </g>
        <g transform="matrix(1,0,0,1,0,836.324)">
            <rect x="318.168" y="11.798" width="4.967" height="40.08"/>
        </g>
        <g transform="matrix(1,0,0,1,333.409,888.202)">
            <path d="M0,-27.322L5.364,-12.024C6.267,-9.484 7.001,-7.225 7.566,-4.968L7.735,-4.968C8.356,-7.225 9.146,-9.484 10.048,-12.024L15.356,-27.322L20.549,-27.322L9.823,0L5.081,0L-5.305,-27.322L0,-27.322Z" style="fill-rule:nonzero;"/>
        </g>
        <g transform="matrix(1,0,0,1,376.54,888.823)">
            <path d="M0,-39.741L-6.886,-31.669L-10.387,-31.669L-5.417,-39.741L0,-39.741ZM-1.128,-16.936C-1.071,-20.04 -2.426,-24.952 -8.016,-24.952C-13.096,-24.952 -15.241,-20.38 -15.637,-16.936L-1.128,-16.936ZM-15.691,-13.378C-15.58,-6.661 -11.346,-3.895 -6.321,-3.895C-2.766,-3.895 -0.564,-4.516 1.242,-5.307L2.146,-1.749C0.397,-0.959 -2.651,0 -7,0C-15.411,0 -20.435,-5.589 -20.435,-13.83C-20.435,-22.072 -15.58,-28.508 -7.621,-28.508C1.356,-28.508 3.67,-20.718 3.67,-15.693C3.67,-14.678 3.613,-13.944 3.501,-13.378L-15.691,-13.378Z" style="fill-rule:nonzero;"/>
        </g>
        <g transform="matrix(1,0,0,1,392.347,888.823)">
            <path d="M0,-34.491L0,-27.943L7.112,-27.943L7.112,-24.162L0,-24.162L0,-9.428C0,-6.04 0.959,-4.122 3.726,-4.122C5.079,-4.122 5.87,-4.234 6.604,-4.46L6.831,-0.678C5.87,-0.338 4.347,0 2.428,0C0.112,0 -1.751,-0.79 -2.937,-2.09C-4.291,-3.613 -4.854,-6.04 -4.854,-9.258L-4.854,-24.162L-9.089,-24.162L-9.089,-27.943L-4.854,-27.943L-4.854,-33.025L0,-34.491Z" style="fill-rule:nonzero;"/>
        </g>
        <g transform="matrix(1,0,0,1,422.041,877.253)">
            <path d="M0,-5.366C0.057,-8.47 -1.297,-13.382 -6.888,-13.382C-11.967,-13.382 -14.113,-8.809 -14.509,-5.366L0,-5.366ZM-14.563,-1.807C-14.451,4.909 -10.218,7.675 -5.193,7.675C-1.638,7.675 0.564,7.054 2.371,6.263L3.274,9.822C1.525,10.612 -1.523,11.571 -5.871,11.571C-14.282,11.571 -19.307,5.982 -19.307,-2.26C-19.307,-10.502 -14.451,-16.937 -6.492,-16.937C2.484,-16.937 4.798,-9.147 4.798,-4.123C4.798,-3.107 4.741,-2.374 4.629,-1.807L-14.563,-1.807Z" style="fill-rule:nonzero;"/>
        </g>
        <g transform="matrix(1,0,0,1,0,836.324)">
            <rect x="432.992" y="11.798" width="4.969" height="40.08"/>
        </g>
        <g transform="matrix(1,0,0,1,0,838.3)">
            <path d="M446.315,22.58L451.284,22.58L451.284,49.902L446.315,49.902L446.315,22.58ZM451.848,14.901C451.848,16.596 450.663,17.95 448.687,17.95C446.88,17.95 445.695,16.596 445.695,14.901C445.695,13.209 446.936,11.798 448.799,11.798C450.606,11.798 451.848,13.152 451.848,14.901" style="fill-rule:nonzero;"/>
        </g>
        <g transform="matrix(1,0,0,1,476.574,853.934)">
            <path d="M0,30.543C1.017,30.712 2.37,30.767 4.122,30.767C9.201,30.767 13.888,28.905 13.888,23.372C13.888,18.235 9.428,16.034 4.064,16.034L0,16.034L0,30.543ZM0,12.364L4.46,12.364C9.597,12.364 12.646,9.599 12.646,5.929C12.646,1.525 9.315,-0.281 4.346,-0.281C2.09,-0.281 0.79,-0.111 0,0.058L0,12.364ZM-4.91,-3.216C-2.766,-3.725 0.678,-4.062 4.064,-4.062C8.976,-4.062 12.138,-3.216 14.451,-1.297C16.427,0.171 17.669,2.43 17.669,5.422C17.669,9.147 15.185,12.364 11.233,13.775L11.233,13.944C14.847,14.792 19.081,17.783 19.081,23.429C19.081,26.704 17.783,29.243 15.806,31.05C13.209,33.478 8.92,34.605 2.711,34.605C-0.677,34.605 -3.274,34.38 -4.91,34.155L-4.91,-3.216Z" style="fill-rule:nonzero;"/>
        </g>
        <g transform="matrix(1,0,0,1,0,838.3)">
            <path d="M502.09,22.58L507.059,22.58L507.059,49.902L502.09,49.902L502.09,22.58ZM507.624,14.901C507.624,16.596 506.438,17.95 504.462,17.95C502.656,17.95 501.47,16.596 501.47,14.901C501.47,13.209 502.711,11.798 504.575,11.798C506.381,11.798 507.624,13.152 507.624,14.901" style="fill-rule:nonzero;"/>
        </g>
        <g transform="matrix(1,0,0,1,512.195,863.76)">
            <path d="M0,21.562L12.308,5.473C13.548,3.95 14.678,2.653 15.92,1.184L15.92,1.07L1.129,1.07L1.129,-2.88L21.903,-2.88L21.903,0.225L9.711,16.087C8.523,17.611 7.452,19.023 6.21,20.376L6.21,20.491L22.13,20.491L22.13,24.442L0,24.442L0,21.562Z" style="fill-rule:nonzero;"/>
        </g>
        <g transform="matrix(1,0,0,1,542.171,874.542)">
            <path d="M0,0.056C0,6.039 3.387,10.555 8.242,10.555C12.983,10.555 16.541,6.097 16.541,-0.058C16.541,-4.687 14.226,-10.502 8.354,-10.502C2.54,-10.502 0,-5.082 0,0.056M21.62,-0.227C21.62,9.878 14.563,14.282 8.017,14.282C0.679,14.282 -5.081,8.863 -5.081,0.225C-5.081,-8.864 0.959,-14.226 8.468,-14.226C16.315,-14.226 21.62,-8.524 21.62,-0.227" style="fill-rule:nonzero;"/>
        </g>
        <g transform="matrix(1,0,0,1,576.043,888.823)">
            <path d="M0,-34.491L0,-27.943L7.112,-27.943L7.112,-24.162L0,-24.162L0,-9.428C0,-6.04 0.959,-4.122 3.726,-4.122C5.079,-4.122 5.87,-4.234 6.604,-4.46L6.831,-0.678C5.87,-0.338 4.347,0 2.428,0C0.112,0 -1.751,-0.79 -2.937,-2.09C-4.291,-3.613 -4.854,-6.04 -4.854,-9.258L-4.854,-24.162L-9.089,-24.162L-9.089,-27.943L-4.854,-27.943L-4.854,-33.025L0,-34.491Z" style="fill-rule:nonzero;"/>
        </g>
        <g transform="matrix(1,0,0,1,594.731,888.823)">
            <path d="M0,-34.491L0,-27.943L7.112,-27.943L7.112,-24.162L0,-24.162L0,-9.428C0,-6.04 0.959,-4.122 3.725,-4.122C5.079,-4.122 5.869,-4.234 6.604,-4.46L6.831,-0.678C5.869,-0.338 4.346,0 2.428,0C0.112,0 -1.751,-0.79 -2.937,-2.09C-4.291,-3.613 -4.855,-6.04 -4.855,-9.258L-4.855,-24.162L-9.089,-24.162L-9.089,-27.943L-4.855,-27.943L-4.855,-33.025L0,-34.491Z" style="fill-rule:nonzero;"/>
        </g>
        <g transform="matrix(1,0,0,1,606.755,865.962)">
            <path d="M0,17.216C1.523,18.12 4.12,19.135 6.604,19.135C10.16,19.135 11.854,17.385 11.854,15.071C11.854,12.701 10.443,11.459 6.83,10.103C1.863,8.296 -0.452,5.645 -0.452,2.369C-0.452,-2.034 3.16,-5.646 8.975,-5.646C11.74,-5.646 14.168,-4.913 15.637,-3.954L14.451,-0.341C13.378,-1.017 11.402,-1.976 8.862,-1.976C5.926,-1.976 4.346,-0.284 4.346,1.748C4.346,4.007 5.926,5.024 9.483,6.435C14.168,8.184 16.652,10.555 16.652,14.619C16.652,19.475 12.871,22.862 6.492,22.862C3.498,22.862 0.732,22.071 -1.186,20.942L0,17.216Z" style="fill-rule:nonzero;"/>
        </g>
        <g transform="matrix(1,0,0,1,646.666,888.823)">
            <path d="M0,-39.741L-6.886,-31.669L-10.387,-31.669L-5.475,-39.741L0,-39.741ZM-2.482,-14.565C-7.902,-14.678 -14.057,-13.719 -14.057,-8.411C-14.057,-5.137 -11.91,-3.67 -9.427,-3.67C-5.814,-3.67 -3.499,-5.928 -2.709,-8.242C-2.539,-8.806 -2.482,-9.37 -2.482,-9.822L-2.482,-14.565ZM2.315,-7.169C2.315,-4.798 2.428,-2.484 2.711,-0.621L-1.749,-0.621L-2.145,-4.065L-2.313,-4.065C-3.839,-1.92 -6.773,0 -10.668,0C-16.201,0 -19.023,-3.895 -19.023,-7.846C-19.023,-14.451 -13.152,-18.064 -2.597,-18.008L-2.597,-18.573C-2.597,-20.775 -3.218,-24.895 -8.806,-24.838C-11.402,-24.838 -14.057,-24.104 -15.975,-22.805L-17.104,-26.137C-14.847,-27.549 -11.515,-28.508 -8.071,-28.508C0.283,-28.508 2.315,-22.805 2.315,-17.387L2.315,-7.169Z" style="fill-rule:nonzero;"/>
        </g>
        <g transform="matrix(1,0,0,1,675.402,888.654)">
            <path d="M0,-16.993C0,-17.839 -0.058,-18.573 -0.283,-19.194C-1.186,-22.13 -3.559,-24.5 -7.227,-24.5C-11.969,-24.5 -15.356,-20.492 -15.356,-14.171C-15.356,-8.806 -12.589,-4.347 -7.283,-4.347C-4.178,-4.347 -1.412,-6.266 -0.396,-9.428C-0.114,-10.274 0,-11.233 0,-12.081L0,-16.993ZM4.967,-4.46C4.967,1.861 3.668,5.646 1.071,8.073C-1.638,10.498 -5.477,11.346 -8.921,11.346C-12.193,11.346 -15.807,10.556 -18.01,9.087L-16.768,5.25C-14.961,6.436 -12.139,7.451 -8.751,7.451C-3.67,7.451 0.055,4.798 0.055,-2.146L0.055,-5.139L-0.058,-5.139C-1.525,-2.597 -4.518,-0.564 -8.751,-0.564C-15.525,-0.564 -20.38,-6.323 -20.38,-13.888C-20.38,-23.145 -14.34,-28.339 -8.017,-28.339C-3.275,-28.339 -0.735,-25.911 0.507,-23.653L0.621,-23.653L0.79,-27.774L5.193,-27.774C5.023,-25.854 4.967,-23.597 4.967,-20.323L4.967,-4.46Z" style="fill-rule:nonzero;"/>
        </g>
    </g>
</svg>
