<?xml version="1.0" encoding="UTF-8" standalone="no"?>
<!DOCTYPE svg PUBLIC "-//W3C//DTD SVG 1.1//EN" "http://www.w3.org/Graphics/SVG/1.1/DTD/svg11.dtd">
<svg width="100%" height="100%" viewBox="0 0 1024 1024" version="1.1" xmlns="http://www.w3.org/2000/svg" xmlns:xlink="http://www.w3.org/1999/xlink" xml:space="preserve" xmlns:serif="http://www.serif.com/" style="fill-rule:evenodd;clip-rule:evenodd;stroke-linejoin:round;stroke-miterlimit:2;">
    <rect id="schdesign" x="0" y="0" width="1024" height="1024" style="fill:none;"/>
    <g transform="matrix(30.9781,0,0,30.9781,-6733.44,-13006.9)">
        <g id="schdesign1" serif:id="schdesign">
            <g>
                <path d="M220.564,436.428C220.564,434.595 220.914,432.87 221.614,431.253C222.314,429.636 223.264,428.22 224.464,427.003C225.664,425.786 227.081,424.828 228.714,424.128C230.348,423.428 232.081,423.078 233.914,423.078C235.748,423.078 237.473,423.428 239.089,424.128C240.706,424.828 242.114,425.778 243.314,426.978L239.764,430.528C238.998,429.761 238.114,429.161 237.114,428.728C236.114,428.295 235.048,428.078 233.914,428.078C232.014,428.078 230.348,428.628 228.914,429.728C227.481,430.828 226.481,432.228 225.914,433.928L246.964,433.928C247.031,434.328 247.089,434.736 247.139,435.153C247.189,435.57 247.214,435.995 247.214,436.428C247.214,438.261 246.864,439.986 246.164,441.603C245.464,443.22 244.514,444.628 243.314,445.828C242.114,447.028 240.706,447.978 239.089,448.678C237.473,449.378 235.748,449.728 233.914,449.728C232.048,449.728 230.306,449.378 228.689,448.678C227.073,447.978 225.664,447.028 224.464,445.828L228.014,442.278C228.781,443.045 229.664,443.645 230.664,444.078C231.664,444.511 232.748,444.728 233.914,444.728C235.781,444.728 237.431,444.186 238.864,443.103C240.298,442.02 241.281,440.628 241.814,438.928L220.814,438.928C220.748,438.528 220.689,438.12 220.639,437.703C220.589,437.286 220.564,436.861 220.564,436.428Z" style="fill:rgb(248,72,94);fill-rule:nonzero;"/>
            </g>
        </g>
    </g>
</svg>
