<svg id="Réteg_1" data-name="Réteg 1" xmlns="http://www.w3.org/2000/svg" viewBox="0 0 811 671"><defs><style>.cls-1{fill:#70de01;}</style></defs><title>sem</title><g id="_000000ff" data-name="#000000ff"><path d="M627.52,12.28c14.93-2.71,29.79-5.9,44.87-7.83,41.26,116.2,83.22,232.16,124.74,348.28,3.19,9.07,6.88,18,9.39,27.3-120.22,23.23-240.2,47.72-360.36,71.21-81.79,16.49-163.69,32.4-245.47,48.89C173,505,145.6,511.64,117.81,516c-8.38-30.83-17.7-61.41-26.38-92.15C87.28,408.56,82,393.56,78.76,378c13.59-6.95,26.49-18.46,28.49-34.42,2.51-24.64-14.36-49-37.45-57.07C63.28,284,56.32,283,49.54,281.41,39.27,235.47,28.94,189.54,18,143.75c1.46,11.92,4.47,23.73,3.55,35.85-2,23.4-4,46.83-6.23,70.24-.46,7.51-.87,15.27,1.45,22.56,30,109,58.92,218.3,89.27,327.21,5-26.3,8-53,13.08-79.27,3.06-3.32,8.8-2.35,12.89-3.86-3.12,30.89-8.83,61.47-12.49,92.3,17.93-3.33,35.68-7.55,53.63-10.73,2.73-8.42,6.09-16.64,8.18-25.22-1.64-7.13-6.5-13.12-9.31-19.84,35.21-6.93,70.31-14.35,105.39-21.88,2.92,6.6,6.54,12.9,9,19.71,1.36,3.09-.15,6.34-1.23,9.25-2.21,5.37-4.45,10.73-6.62,16.12,17.89-3.42,35.64-7.5,53.56-10.74,3.13-.9,6.71-1,9.54-2.77,3.22-6.92,5.34-14.29,7.87-21.48a164.8,164.8,0,0,1-9-18.46c33.48-7.09,67-13.92,100.51-21,2.82,7.13,6.94,13.84,9,21.27-1.19,6.8-5,12.83-6.88,19.45,18.52-3.67,37-7.6,55.5-11.3,2.88-7.38,6.08-14.67,8.17-22.32,1.2-8.19-4.9-14.83-7.74-22.05,33.09-6.2,65.8-14.38,99-19.92,2.69,7.81,9.17,15,7.58,23.79-2.13,6.84-5.51,13.24-7.65,20.09,17-3.31,34-7.09,51-10.44,2.85-8,6.25-15.86,8.53-24.06,1.25-8.19-4.88-14.83-7.72-22.05,33.09-6.21,65.8-14.39,99-19.93,2.69,7.82,9.16,15.05,7.57,23.8-2.37,7.48-6,14.51-8.52,21.95q5.49-1.11,11-2.16c10.73-29.27,21.86-58.4,32.72-87.61,2-6.24,9.72-5.45,14.83-7.14-.87,3.32-1.86,6.62-3,9.86-10.55,29.17-21.2,58.31-31.44,87.6a16.22,16.22,0,0,1-2.43,4.78c-7.86,2.6-16.17,3.42-24.12,5.69-2.87.71-3.59,4-4.75,6.32-4.38,11.44-9.36,22.64-13.6,34.14-1.13,2.45-1.82,5.35-4,7.12-4.68,2-9.84,2.54-14.74,3.79C682,547.81,656,554.84,629.56,559.87c4.77-16.22,10.75-32,15.71-48.22-15.79,3.32-31.63,6.4-47.39,9.84-4.76-.74-5.9,3.79-7.37,6.93-4.52,12-9.77,23.64-14.19,35.66-1.13,2.44-1.83,5.34-4,7.12-4.67,2-9.84,2.53-14.74,3.79-26.36,5.41-52.36,12.44-78.78,17.47,4.75-16.62,11.28-32.67,15.89-49.33-19.1,3.52-38.07,7.75-57.08,11.73q-10,25.14-20,50.26c-1.27,4.22-5.94,4.68-9.62,5.63-29.69,6.51-59.27,13.47-88.93,20.09,6-18.45,12.71-36.65,18.71-55.1-19.62,3.7-39.1,8-58.68,12-5.19-.58-6.91,4.2-8.39,7.92-6,15.94-13,31.48-18.91,47.44C218,651.47,183.92,658.68,150,666.55c6.13-18.62,12.43-37.17,18.6-55.78-22.07,4.17-43.88,9.78-66.09,13.2C72.59,510.78,41.61,397.88,11.4,284.77c-3.65-12.6-8.18-25.28-6.59-38.66q3.72-46.47,7.61-92.91c.56-9.43,2.7-18.68,2.79-28.13Q321.45,69.12,627.52,12.28m23.42,10.21Q340.88,78.92,30.77,135.19c10,45,21,89.69,31.1,134.63,18.8,2.12,32.64,17.52,41.41,33.16,6,12,11.92,25.12,9.47,38.85C111.22,356.1,101.82,368,91,376.77c12.49,41.72,25.36,83.31,38.22,124.92,80.32-15.15,160.35-31.77,240.58-47.38Q579.84,412.51,790,370.9C747.61,254.08,704.69,137.49,662.22,20.72c-3.78.55-7.53,1.12-11.28,1.77M16.19,134.57c.36,2.92.75,5.88,1.29,8.8C17.16,140.42,16.71,137.49,16.19,134.57Z"/><path d="M290.36,208.39c45-9.58,89.95-19.09,135-28,3.17,8.69,6,17.5,8.43,26.43-33.85,6.6-67.57,13.79-101.28,21,2.4,6.81,4.71,13.65,7.06,20.48,19.85-3.41,39.43-8.17,59.24-11.81,3.31,9.09,6.45,18.24,9.26,27.5-19.75,3.92-39.43,8.15-59.13,12.23,2.22,7,4.47,14,6.92,21C389.51,290.31,423,283,456.65,276.28c3.38,9.39,6.61,18.84,9.52,28.38-45.16,9.06-90.17,18.84-135.31,28-10.54-33.18-21.53-66.22-32.62-99.23C295.48,225.11,292.41,216.91,290.36,208.39Z"/><path d="M137,240c40.41-8.7,81-16.69,121.37-25.52q5,13.51,9.26,27.33c-38.8,8.6-77.85,16.06-116.65,24.66,2.4,7.1,4.73,14.24,7.23,21.3,24.74-5.22,49.51-10.3,74.26-15.52,10.47-2.16,20.92-5.08,31.7-4.86,7.21-.75,14.13,4.58,15.81,11.51,5.46,16,11.52,32,14.75,48.58,1.83,8.38-6.67,14.25-13.88,15.61-43.19,9.23-86.48,18-129.67,27.15-3.24-8.9-6.3-17.85-9.05-26.9,38.74-8.11,77.54-15.92,116.22-24.31-2.23-7.09-4.69-14.11-6.74-21.26-30.74,5.8-61.22,12.94-91.94,18.81-8.83.87-19.63,2.26-26.59-4.64-5.54-9.39-7.57-20.29-11.36-30.4-2.71-9.3-7.67-18.38-7.13-28.33C118,244.26,128.83,242,137,240Z"/><path d="M157.69,378.78c19-3,37,10.91,43,28.4,7.19,17.82,3.76,40.45-10.85,53.61-10.33,9.92-27.17,12-39.73,5.22-17-8.06-26.45-27.58-25.41-45.9,0-18.89,13.3-39,33-41.33m-.95,22.55C144,404.55,136.3,418.61,138,431.27c.08,16.29,15.86,32.76,32.86,27.9,12.32-3.44,19.49-17.65,17.91-29.86C188.69,413.36,173.48,396.93,156.74,401.33Z"/></g><g id="_70de01ff" data-name="#70de01ff"><path class="cls-1" d="M555.3,116.94c32.38-6.23,64.57-13.49,96.91-19.93,20,58.65,38.88,117.7,58.53,176.47,8.26-1.65,16.5-3.47,24.76-5.19,2.3,7.78,4.58,15.58,7.23,23.25-16.11,3-32,6.88-48.21,9.52-19.56-58.62-38.76-117.35-58.18-176-16.55,3.1-33,6.75-49.48,10.11,14.54,47,31.19,93.42,45.91,140.4,3.85,12.12,8.63,24,11.71,36.32-18.11,3.92-36.31,7.36-54.37,11.46-6.62-21.27-14-42.3-20.92-63.45-12.72-37.56-24.42-75.44-37.38-112.9-16.57,2.78-32.94,6.51-49.38,9.9,6.7,22.49,14.38,44.67,21.77,66.93,12.28,36.47,23.9,73.14,36.15,109.62-110.24,23-220.61,45.44-330.89,68.26-2.64-7.63-5.36-15.24-7.56-23,102.29-21.28,204.73-41.88,307-63.43-11.82-37.5-24.69-74.64-37-112-6.54-21.59-14-42.87-21.15-64.27,32.38-7,64.87-13.48,97.26-20.41q28.9,88.35,58.24,176.57c2.5-.49,5-1,7.48-1.56C594,234.81,574.69,175.85,555.3,116.94Z"/></g></svg>