<svg id="Réteg_2" data-name="Réteg 2" xmlns="http://www.w3.org/2000/svg" viewBox="0 0 1132.38 261.26"><title>pizzasch</title><path d="M95.41,103.17a50.77,50.77,0,0,0-22.22-7.12,35.74,35.74,0,0,0-9.13,23,35.37,35.37,0,0,0,6.4,20.48A73.37,73.37,0,0,0,108.75,115,50.69,50.69,0,0,0,95.41,103.17ZM72.72,133.68a30.08,30.08,0,0,1-3.67-14.57,30.53,30.53,0,0,1,6.27-17.81,45.86,45.86,0,0,1,17.5,6.14,45,45,0,0,1,9.34,7.54A68.16,68.16,0,0,1,72.72,133.68Z"/><path d="M150,88.55l-.3-.6A74.72,74.72,0,0,0,122.13,58.9c-14.41-8.61-31.73-13-51.49-13q-3.87,0-7.7.23A191.15,191.15,0,0,0,33.81,50.3l-4.68,1L25.9,54.82C17.28,64.22,11,77,6.69,93.87c-9.3,36.45-8.9,76.87,1.18,120.14,1.81,7.74,3.92,15.52,6.27,23.14L17,246.47l9.69,1.13a143.31,143.31,0,0,0,16.47,1,144.94,144.94,0,0,0,33.69-4l6.85-1.64,3.1-6.33a149.78,149.78,0,0,0,14.65-52.91,95.8,95.8,0,0,0,27.85-16.83c16.13-14.2,25.78-34.37,25.81-54A61,61,0,0,0,150,88.55ZM126,163.11a92.07,92.07,0,0,1-29.3,17.06,144.25,144.25,0,0,1-14.38,54.24l-2.07,4.21-4.57,1.09a139.31,139.31,0,0,1-32.53,3.85,138.17,138.17,0,0,1-15.9-.92l-6.46-.75-1.92-6.21c-2.32-7.52-4.39-15.19-6.17-22.8C2.83,170.39,2.42,130.77,11.52,95.1c4.1-16,10-28.13,18.05-36.9l2.16-2.35,3.12-.67a185.19,185.19,0,0,1,28.37-4c2.46-.15,4.94-.22,7.42-.22,18.84,0,35.31,4.13,48.94,12.27a69.33,69.33,0,0,1,7.4,5.13,67.81,67.81,0,0,1,18.25,21.92l.15.29.13.3a55.85,55.85,0,0,1,4.64,22.08C150.12,131.08,141.1,149.85,126,163.11Z"/><path d="M194.32,69.72c-8.71,2.39-12.86,11.39-16.75,19.54s-5.84,17.1-7.08,26a182.05,182.05,0,0,0,21.43,113.09c2.89.59,5.28-1,7.94-2.29l12.7-6.13a49.64,49.64,0,0,0,9.79-5.67c2.94-2.38,6.26-5,6.39-8.79a657.89,657.89,0,0,0-9.85-137.92A68.34,68.34,0,0,0,194.32,69.72Z"/><path d="M120.8,76.14a59.74,59.74,0,0,0-6.34-4.4c-15-9-33.18-11.66-50.67-10.66a177.91,177.91,0,0,0-26.86,3.86c-8.07,8.79-12.74,20.85-15.74,32.63-9.41,36.87-7.38,76,1.26,113q2.6,11.17,6,22.13a129.28,129.28,0,0,0,45-2.73A133.64,133.64,0,0,0,87,172.89c11.88-3.54,23.14-9.11,32.41-17.26,12.26-10.79,20.72-26.42,20.74-42.74a45.33,45.33,0,0,0-3.81-18.09A57.73,57.73,0,0,0,120.8,76.14Zm-54.21,74.4a44.79,44.79,0,0,1,2.65-64.63A60.35,60.35,0,0,1,121,115.12,82.72,82.72,0,0,1,66.59,150.54Z"/><path d="M386.64,176.9c-6.43,0-12.83,1.32-19.24.92a25.61,25.61,0,0,1-8.31-1.92c3.53-7.18,8.71-13.69,14.24-19.55,8.89-9.4,19-17.78,26.49-28.31a54.92,54.92,0,0,0,8.73-18.39,90.79,90.79,0,0,0-7.72-21.26c-3.08-6-7-11.82-12.92-15.06C374,65.64,355.83,70.52,341.1,71c-18.37.62-36.67,1.13-54.84-1.68a56.11,56.11,0,0,1-11.54-2.78,10.3,10.3,0,0,0-12.55,4.32,50.4,50.4,0,0,0-6.65,34.88l0,0C259.67,108,264.43,108,269,108l72.16-.67c6.41-.06,13.09-.06,18.83,2.81,5,2.51,9,8,8.6,13.42a328.93,328.93,0,0,0-98.41,46c-7.73,5.34-15.49,11.3-19.74,19.67-5.05,9.93-4.33,22.21.51,32.25a46.29,46.29,0,0,0,5.45,8.58l.16.1c5.83,1.33,11.86,1.07,17.83.8l74-3.32c11.46-.51,23.07-1.05,34-4.5,1-.31,1.95-.68,2.92-1.05a45.89,45.89,0,0,0,9.25-14.52A46.56,46.56,0,0,0,396,178.33,30,30,0,0,0,386.64,176.9Z"/><path d="M652,153l16.82,1.21c1.31.09,2.65.18,4,.18,2.89,0,3.86-.48,4.14-.69.49-.36,1.7-1.88,2.23-8.13a126.85,126.85,0,0,0-1.28-31.44A57.86,57.86,0,0,0,652,153Zm22.2-7.85a27.84,27.84,0,0,1-.63,4.24h-.77c-1.21,0-2.43-.08-3.62-.17l-11-.79A53.06,53.06,0,0,1,674,123.24,121.92,121.92,0,0,1,674.15,145.19Z"/><path d="M718.88,117.3c-3.12-15-9.16-29.79-19.16-41.33a106.74,106.74,0,0,0-35.45,4.29c-19.56,14.37-38.23,30.08-53.59,48.82-14.48,17.64-25.93,38.21-31.23,60.31a360.52,360.52,0,0,1-96.71-2.61c6.55-7.55,15-13.71,23.24-19.55l52.11-36.89c9.69-6.86,19.93-14.42,23.87-25.61A28.82,28.82,0,0,0,561,67a886.16,886.16,0,0,0-117.85,7.12A40.07,40.07,0,0,0,432.9,91.24a27.53,27.53,0,0,0,.42,15.83,17,17,0,0,0,1.66.82c4.71,2,10,2.21,15.08,2.37l63.43,2a16.59,16.59,0,0,1,6.35,1,6.82,6.82,0,0,1,.68.41,55.56,55.56,0,0,1-7.31,6C496,132,477,141.72,459.33,153.39c-12.31,8.13-24.12,17.49-33.64,28.66a60.92,60.92,0,0,0,21.84,49c21.34,2.94,43.13,2.59,64.73,2.16,30-.6,60-1.22,90-3.24a143.29,143.29,0,0,0,38.32-47.49,188.4,188.4,0,0,0,39.63-4,89.06,89.06,0,0,0,8.67,44.16,69.22,69.22,0,0,0,15.29.29,39.28,39.28,0,0,0,12.93-3.62c5.42-15.58,5.59-33.15,5.52-49.92C722.52,152,722.43,134.37,718.88,117.3Zm-29.82,29.15c-.48,5.68-1.67,12-6.27,15.33-4.1,3-9.66,2.78-14.73,2.42l-18-1.29c-2.92-.21-6.31-.7-7.79-3.23-.92-1.58-.81-3.54-.59-5.36a67.69,67.69,0,0,1,32.62-49.67c2.9-1.68,6.59-3.14,9.44-1.38,2.28,1.41,3,4.32,3.52,7A137.07,137.07,0,0,1,689.06,146.45Z"/><path d="M709.23,50.86c3,.78,6.14,1.56,9.1.73,3.35-.93,5.73-3.71,7.79-6.42a126.46,126.46,0,0,0,7.74-11.51c.65-1.11,1.31-2.42.82-3.6-.61-1.47-2.56-1.83-4.19-1.95a151.68,151.68,0,0,0-17.84-.3A13,13,0,0,0,706.89,29c-2.24,1.21-3.52,3.53-4.69,5.73-1.82,3.44-3.65,7.53-1.85,11C702,48.75,705.78,50,709.23,50.86Z"/><path d="M1132.38,70.9l-3.06-1.05c-8.25-2.83-16.77-5.76-25.87-6.57-1.5-.13-3-.2-4.53-.2-8.89,0-16.78,2.37-22.82,6.84-7.87,5.83-13,15.52-14.6,27.27-1.11,8.45-.3,16.9.75,24.91l-18.84.76a184.15,184.15,0,0,0,11.34-31.12c1.28-4.84,2.08-9.93-.74-14.45-3.24-5.2-9.41-6.4-13.77-6.85a79.56,79.56,0,0,0-36.17,4.73,35.12,35.12,0,0,0-10,5.44c-3.19-6.89-7.25-11.61-12.36-14.39-4.07-2.21-8.85-3.25-15-3.25-1.26,0-2.51.05-3.75.11a107.05,107.05,0,0,0-93.46,66.47,22.14,22.14,0,0,0-2.51-2.87,25,25,0,0,0-8.89-5.45c.47-.29.93-.6,1.37-.93,7.53-5.56,10.12-15.13,11.53-22.84,2.7-14.68.81-25.12-5.77-31.93-5.64-5.84-13.61-7.73-21.37-8.9-19.95-3-38.6-2.54-54.9,1.34-19.19,4.57-36.27,14.29-48.07,27.36-5.16,5.72-8.56,11.28-10.41,17-4.31-13.85-10.77-26-19-35.71a30,30,0,0,0,4.24.34,25.18,25.18,0,0,0,6.76-.9c8.57-2.39,13.57-9,15.69-11.81a139.11,139.11,0,0,0,8.68-12.9c4.29-7.22,3.34-13.21,1.78-17-1.27-3.07-5.45-10.29-16.88-11.15-4.16-.32-8.4-.48-12.59-.48-2.34,0-4.67,0-7,.15a27.38,27.38,0,0,0-12.29,3c-6.25,3.41-9.17,8.91-10.74,11.86-2.05,3.88-7.52,14.18-1.89,24.92a21.92,21.92,0,0,0,7.65,8.27h0a121.19,121.19,0,0,0-34.72,5l-2.48.74-2.09,1.54c-24.31,17.86-42.2,34.19-56.3,51.39-14.25,17.37-25,36.62-31.26,55.86-9,.71-18.08,1.06-27.07,1.06-7,0-14.06-.21-21.1-.64l47.06-33.31c10-7.07,23.65-16.75,29.33-32.86a43.8,43.8,0,0,0-31.7-57.34l-1.6-.37-7.17,0a903.92,903.92,0,0,0-114.3,7.26l-5.21.66-3.65,3.78c-7,7.24-11.72,15.21-14,23.69-.23.84-.37,1.71-.54,2.56-1.15-2.85-2.38-5.66-3.78-8.38-3.34-6.49-8.95-15.77-19-21.32-7.51-4.14-16.34-6.15-27-6.15a166.15,166.15,0,0,0-17,1.13c-3.78.39-7.35.75-10.53.86-7.44.25-14.71.47-21.82.47a196,196,0,0,1-30.24-2,42.62,42.62,0,0,1-8.42-1.95,25.16,25.16,0,0,0-9.11-1.7,25.48,25.48,0,0,0-21.64,12.22,66,66,0,0,0-7.56,18,66.82,66.82,0,0,0-1,27.11l.59,3.47,1.73,2.38,1.93,3,3.42,1.85c6.49,3.5,13.17,4,18.89,4l58.5-.54a341.2,341.2,0,0,0-64.13,34.78c-5.93,4.09-12.35,8.81-17.73,15.06A675.94,675.94,0,0,0,233.63,65l-2-11.19L220.32,52.7c-2.61-.25-5.26-.38-7.9-.38a83.39,83.39,0,0,0-22.07,3c-15.12,4.15-21.7,17.92-26,27l-.23.48c-5.28,11-7.32,22.67-8.4,30.45a196.64,196.64,0,0,0,23.2,122.47l3.35,6,6.71,1.37a21.39,21.39,0,0,0,4.24.42,25.85,25.85,0,0,0,12.22-3.41l1-.49,12.72-6.14a63.42,63.42,0,0,0,12.73-7.55c1-.81,2.26-1.82,3.55-3q.94,2.58,2.13,5a60.14,60.14,0,0,0,7.21,11.39l1.59,2,2.2,1.39,2.39,1.46,2.35.54a60.79,60.79,0,0,0,13.88,1.4c2.66,0,5.32-.11,8-.23l74-3.32c11.7-.52,25-1.12,37.84-5.18,1.16-.37,2.32-.79,3.67-1.31l3.28-1.23,2.39-2.55A60.61,60.61,0,0,0,408.5,213a59.72,59.72,0,0,0,3.64-14.24,76,76,0,0,0,6.23,18.81,77.19,77.19,0,0,0,19.54,24.93l3.3,2.78,4.28.59c13,1.79,26.71,2.58,44.55,2.58,7.59,0,15.29-.14,22.52-.28,29.49-.59,60-1.2,90.68-3.27l4.7-.32,3.67-3a159.8,159.8,0,0,0,38-44.34c5.4-.21,10.81-.64,16.15-1.28a103.24,103.24,0,0,0,9.66,33.16l3.59,7.42,8.19.93a99.08,99.08,0,0,0,11.12.69,68.71,68.71,0,0,0,7.45-.39,54.73,54.73,0,0,0,17.88-5l5.56-2.71,2-5.83c.91-2.64,1.67-5.32,2.34-8a38.78,38.78,0,0,0,10.21,13c11.4,9.18,25.19,11.34,34.76,11.53H780c12.17,0,23.84-2.8,33.66-5.54,16.17-4.52,36.21-11.8,47.68-28.12a52.5,52.5,0,0,0,5-9A73.35,73.35,0,0,0,876,216.79c11.93,16.63,31.29,27,50.52,27a53,53,0,0,0,8.57-.7c11.64-1.94,23.26-7.88,33.6-17.2A116.29,116.29,0,0,0,984,208.74c-.8,4-1.62,7.91-2.43,11.81L976.66,244l4.52.52a201.47,201.47,0,0,0,40.35.1c6-.55,12.3-1.64,17-5.8,6.4-5.66,7.39-14.5,7.52-22.4.23-14.89-2.41-25.86-8.08-33.42a63.08,63.08,0,0,1,18.18-2.61,154.68,154.68,0,0,1-6.73,52.53l-.1.46c-.65,4.08,2,7.5,4.92,9.09a18.06,18.06,0,0,0,7.35,1.75q10.37.86,20.76,1.5c2.76.17,5.47.33,8.19.33a41.77,41.77,0,0,0,14.14-2.09c11.64-4.09,20.68-15.25,24.19-29.84,2.76-11.5,2-23.26,1.26-34.64l-.16-2.37c-1.91-30.19-1.25-62,2.13-103ZM737.56,170.16a42.47,42.47,0,0,1,0,10C737.57,176.61,737.57,173.27,737.56,170.16Zm0-5.44c0-5.74-.11-11.54-.33-17.39a24.68,24.68,0,0,0,3.46,4.38,25.54,25.54,0,0,0,7.06,4.93A31.15,31.15,0,0,0,737.53,164.72Zm-46-114.41c-4.41-8.41,0-16.72,1.88-20.27,1.42-2.67,3.78-7.13,8.72-9.82a22.56,22.56,0,0,1,10.11-2.38c2.28-.09,4.54-.14,6.81-.14,4.06,0,8.17.15,12.21.46,8.36.63,11.52,5.34,12.65,8.08,1.63,3.93,1.14,8.14-1.46,12.51a134.44,134.44,0,0,1-8.36,12.44c-2,2.62-6.11,8.08-13.06,10a20,20,0,0,1-5.42.72,34.68,34.68,0,0,1-8.9-1.42C703,59.53,695.28,57.51,691.51,50.31ZM403.86,211.16a55.46,55.46,0,0,1-11.25,17.69l-1.59,1.7-2.19.82c-1.27.48-2.34.88-3.42,1.22-12.26,3.87-25.17,4.45-36.56,5l-74,3.32c-2.57.11-5.16.22-7.74.22a56.1,56.1,0,0,1-12.76-1.27l-1.57-.36-1.7-1-1.41-.91-1.07-1.33A55.73,55.73,0,0,1,242,225.74a50.31,50.31,0,0,1-4.4-14.42c-2,5.1-6.14,8.46-8.9,10.69a58.3,58.3,0,0,1-11.79,7l-12.7,6.13-1,.52a21.29,21.29,0,0,1-10,2.88,16,16,0,0,1-3.24-.32l-4.48-.91-2.23-4a191.64,191.64,0,0,1-22.61-119.34c1-7.46,3-18.57,8-29l.23-.49c4.2-8.78,9.95-20.81,22.88-24.36a78.38,78.38,0,0,1,20.74-2.79c2.47,0,5,.12,7.42.35l7.55.72,1.33,7.46A669.8,669.8,0,0,1,239,191.13a40.2,40.2,0,0,1,2.55-6.48c5.42-10.67,14.7-17.65,23-23.36A337,337,0,0,1,352.46,118a41.8,41.8,0,0,0-8.85-.7l-76.32.7c-5.31,0-11-.41-16.48-3.38l-2.28-1.24-1.24-1.94-1.21-1.68-.4-2.33a61.72,61.72,0,0,1,1-25,60.67,60.67,0,0,1,7-16.64,20.29,20.29,0,0,1,24.68-8.46,47.86,47.86,0,0,0,9.46,2.23,200.59,200.59,0,0,0,31,2.05c7.18,0,14.5-.23,22-.48,3.34-.11,7-.48,10.88-.88a162.63,162.63,0,0,1,16.5-1.1c9.8,0,17.84,1.81,24.59,5.53,8.85,4.89,13.92,13.32,17,19.24a101.35,101.35,0,0,1,8.58,23.58l.53,2.33-.57,2.31a65.12,65.12,0,0,1-10.3,21.79c-5.62,7.87-12.34,14.45-18.84,20.82-3,2.91-5.8,5.67-8.52,8.54q-2.07,2.2-3.87,4.32l.61-.06c2.94-.26,6-.53,9.2-.53a39.79,39.79,0,0,1,12.66,1.95l5,1.69,1.41,5.1A56.37,56.37,0,0,1,403.86,211.16Zm7-34.82v.09c-.17-.7-.3-1.4-.49-2.09l-2.12-7.65-7.52-2.53a43.61,43.61,0,0,0-12-2.17l3.83-3.77c6.66-6.51,13.54-13.25,19.42-21.48a71.83,71.83,0,0,0,9.71-19l4.28,2.41a32,32,0,0,0,3.11,1.53c7.37,3.15,14.95,3.39,20.49,3.56l25.69.81-.45.27c-7.81,4.63-15.89,9.43-23.74,14.61-15.39,10.16-27.42,20.45-36.79,31.45Zm315.6,46.24-1.36,3.89-3.7,1.8a49.51,49.51,0,0,1-16.24,4.57,64,64,0,0,1-6.91.36,93.9,93.9,0,0,1-10.56-.66l-5.46-.62L679.88,227a98.79,98.79,0,0,1-9.65-36.61,199.23,199.23,0,0,1-23.61,2,154.39,154.39,0,0,1-38.14,45.35l-2.44,2-3.14.21c-30.5,2.06-61,2.67-90.44,3.26-7.61.15-15,.29-22.42.29-17.61,0-31.14-.79-43.87-2.54l-2.85-.39-2.2-1.86a70.85,70.85,0,0,1-25.4-56.93l.11-3.49,2.27-2.66c9.06-10.65,20.75-20.63,35.74-30.53,7.77-5.13,15.81-9.9,23.59-14.52,5.1-3,10.07-6,14.91-9l-42.59-1.33c-5.43-.17-12.18-.38-18.69-3.16a29.17,29.17,0,0,1-2.63-1.3l-3.32-1.87-1.23-3.62s0-.07,0-.11l.1-.39-.8-3.48c-.28-1.2-.6-2.38-.93-3.56a38.34,38.34,0,0,1,1.05-14.09C425.32,81,429.61,73.76,436,67.13l2.43-2.51,3.48-.45A899.66,899.66,0,0,1,555.6,57l6.6,0,1.06.24a38.82,38.82,0,0,1,28.11,50.83c-5.15,14.6-18.08,23.75-27.51,30.44l-52.12,36.88c-2.05,1.45-4.08,2.91-6.06,4.37,11.67,1.17,23.41,1.76,35.1,1.76,10.27,0,20.61-.46,30.83-1.36,5.88-19.74,16.63-39.44,31.35-57.39,13.84-16.87,31.44-32.93,55.4-50.53l1.4-1,1.65-.5a116.19,116.19,0,0,1,33.29-4.82c1.83,0,3.66,0,5.48.13l4.28.19,2.81,3.24c10.2,11.79,17.59,27.63,21.38,45.83s3.85,36.4,3.92,54.07C732.63,184.25,732.72,204.67,726.5,222.58Zm136.27-69.49a95.42,95.42,0,0,0-.1,30.26c-2,7.88-4.57,13.89-8.09,18.91-10,14.18-28.28,20.75-43.12,24.89-9.27,2.59-20.26,5.24-31.4,5.24h-1.39c-11.68-.24-22.23-3.68-29.7-9.7-7-5.62-11.25-14.51-12.47-23.91.56-5.48.85-10.85,1-15.94a34.52,34.52,0,0,1,4.71-10.67c4.06-6,10.79-9.94,17.12-9.94a15.4,15.4,0,0,1,2.14.15,14.5,14.5,0,0,1,9.48,5.92,11.07,11.07,0,0,1,2.19,8.47,27.74,27.74,0,0,1-1.13,3.78c-1,2.79-2.05,5.94-1.58,9.51a14.7,14.7,0,0,0,8.14,10.87c3.2,1.66,7,2.43,11.87,2.45a48.92,48.92,0,0,0,37-17.17c5-5.95,7-12,5.81-17.57s-5.67-10.35-13.19-13.91a62.77,62.77,0,0,0-29.6-5.95,120.9,120.9,0,0,0-12.64,1.45,115.19,115.19,0,0,1-11.65,1.37c-.69,0-1.38,0-2.07,0-5.32,0-12.68-1-17.5-5.82-4-4-5.76-10.09-7.12-15.54-2-8-3.59-16.57-1.47-24.27,1.35-4.92,4.31-9.86,9-15.11,10.68-11.84,26.25-20.66,43.83-24.84,15.25-3.63,32.85-4,51.74-1.21,6.31,1,12.7,2.39,16.63,6.46,4.58,4.74,5.74,12.8,3.57,24.65-1.21,6.59-3.15,13.85-8.3,17.65-4.07,3-11.13,3.49-17,1.14-3.39-1.36-6.23-3.86-9.25-6.52-4.51-4-9.18-8.08-16.17-8.92a34.62,34.62,0,0,0-27.54,9c-6.62,6.35-10.52,17.11-5.18,25.38,3.32,5.14,9.4,8,17.13,8a34.47,34.47,0,0,0,7.35-.81c6.44-1.42,12.43-4,18.23-6.46a126.85,126.85,0,0,1,12.54-4.87,40.57,40.57,0,0,1,11.88-1.9c4.28,0,10.31.87,14.69,5a19,19,0,0,1,4.53,7.43A108.81,108.81,0,0,0,862.77,153.09Zm-85.1,10.34a23.55,23.55,0,0,0-3.94-4.23c1.77-.23,3.53-.49,5.27-.76a117.53,117.53,0,0,1,11.77-1.37,54.59,54.59,0,0,1,25.66,5.17c5.07,2.39,8,5.14,8.64,8.17.8,3.69-1.76,7.71-4.05,10.43a40.65,40.65,0,0,1-30.73,14.22,17.27,17.27,0,0,1-7.94-1.52,6.67,6.67,0,0,1-3.71-4.58c-.22-1.62.47-3.6,1.21-5.73a33.93,33.93,0,0,0,1.43-4.94A19.35,19.35,0,0,0,777.67,163.43Zm54.67-41.9-.2.07a137.1,137.1,0,0,0-13.37,5.17c-5.68,2.43-11,4.73-16.72,6a26.78,26.78,0,0,1-5.57.62c-2.79,0-7.81-.54-10.15-4.16-2.76-4.29-.16-10.93,3.95-14.87a25.83,25.83,0,0,1,17.78-7,25.37,25.37,0,0,1,3,.18c4.43.53,7.95,3.62,11.68,6.91A46.62,46.62,0,0,0,832.34,121.53Zm158.07,43.32a37.31,37.31,0,0,0-9.92-3.88c-5.1-1.34-10.33-2.55-15.53-3.59a30.18,30.18,0,0,0-5.8-.69,13.27,13.27,0,0,0-6.25,1.41c-3.7,1.93-6.31,6-7,10.88a35.23,35.23,0,0,0,.26,9.05l.16,1.41c.85,7.76,0,13.09-2.8,16.75-2.43,3.23-6.61,5.08-11.49,5.08a18.65,18.65,0,0,1-8.79-2.19c-6.32-3.47-11.34-10.53-14.13-19.88a58.15,58.15,0,0,1,1-36.07c2.13-5.95,4.84-10.25,8.29-13.16a15.45,15.45,0,0,1,9.73-3.76,10.43,10.43,0,0,1,3.06.43c3.7,1.13,6.72,4.26,9.91,7.57a51.86,51.86,0,0,0,7.77,7A28.25,28.25,0,0,0,965,146a31.87,31.87,0,0,0,16-4.31,35.19,35.19,0,0,0,9.87-8.75A282.53,282.53,0,0,1,990.41,164.85Zm-27.27,54.82c-9.16,8.26-19.32,13.5-29.39,15.18a44.12,44.12,0,0,1-7.21.59c-16.6,0-33.37-9-43.77-23.49-10.93-15.22-15.22-36.2-11.79-57.54a98.85,98.85,0,0,1,92.34-83c1.1-.06,2.2-.1,3.31-.1,4.75,0,8.27.71,11.08,2.23,4.22,2.3,7.56,6.86,10.22,13.94.09.25.17.5.25.74a26.34,26.34,0,0,0-1.74,14.38,53.19,53.19,0,0,0,1.77,7.54,39.68,39.68,0,0,1,1.6,7.18l0,.12c-2.34,7.41-7.07,13.64-13,17.11A23.78,23.78,0,0,1,965,137.71a20,20,0,0,1-11.37-3.34,44.21,44.21,0,0,1-6.49-5.93c-3.79-3.93-7.71-8-13.48-9.75-6.5-2-14.74,0-20.57,4.93-4.6,3.88-8.12,9.34-10.76,16.7a66.59,66.59,0,0,0-1.14,41.26c3.42,11.46,9.85,20.26,18.1,24.79a26.66,26.66,0,0,0,12.78,3.21c7.51,0,14.12-3.06,18.14-8.39s5.51-12.66,4.41-22.67l-.17-1.46a28.55,28.55,0,0,1-.27-6.95c.3-2.18,1.29-4,2.6-4.63.67-.35,3.06-.64,6.59.06,5,1,10.07,2.16,15,3.47,4.2,1.11,8.86,2.57,10.89,5.8a2.4,2.4,0,0,1,.21.46c-.28,2.56-.6,5.13-1,7.69-.2,1.4-.42,2.81-.65,4.22l-.18,1.12c-.86,1.56-1.84,3.09-2.7,4.4C979.32,201.41,972.29,211.43,963.14,219.67Zm158.55-42,.15,2.37c.7,10.76,1.42,21.89-1,32.17-2.19,9.14-8.3,20.23-18.86,23.94a33.84,33.84,0,0,1-11.38,1.61c-2.54,0-5.18-.15-7.67-.3-6.87-.43-13.74-.93-20.65-1.49a11.31,11.31,0,0,1-4-.79,2.13,2.13,0,0,1-.61-.51,162.08,162.08,0,0,0,6.36-62l-.15-1.58-8.14.34v.7a66.46,66.46,0,0,0-26.68,5.45l-6.1,2.73,5.14,4.26c6.79,5.63,10,16,9.73,31.78-.1,6.08-.73,12.78-4.71,16.29-3.07,2.72-7.94,3.37-12.27,3.76a199.61,199.61,0,0,1-34.1.36l3-14.53c2.59-12.41,5.27-25.25,7-38.11a288.12,288.12,0,0,0,1.34-67.62,47.25,47.25,0,0,0-1.9-8.67,47.38,47.38,0,0,1-1.52-6.39c-.39-2.8-.61-8.12,2.43-12.15,2.41-3.19,6.56-5.06,9.91-6.33a71.27,71.27,0,0,1,32.38-4.23c4.11.43,6.58,1.4,7.57,3,1.14,1.84.52,5-.24,7.92a176.7,176.7,0,0,1-13.82,35.78l-3.29,6.35,42.11-1.71-.63-4.53c-1.23-9-2.52-18.32-1.35-27.22,1.24-9.37,5.36-17.27,11.31-21.68s12.92-5.21,17.87-5.21c1.27,0,2.54.06,3.79.17,7,.62,13.87,2.74,20.86,5.11C1120.37,116.6,1119.8,147.8,1121.69,177.68Z"/></svg>