<?xml version="1.0" encoding="UTF-8" standalone="no"?>
<!DOCTYPE svg PUBLIC "-//W3C//DTD SVG 1.1//EN" "http://www.w3.org/Graphics/SVG/1.1/DTD/svg11.dtd">
<svg width="100%" height="100%" viewBox="0 0 4166 4158" version="1.1" xmlns="http://www.w3.org/2000/svg" xmlns:xlink="http://www.w3.org/1999/xlink" xml:space="preserve" xmlns:serif="http://www.serif.com/" style="fill-rule:evenodd;clip-rule:evenodd;stroke-linejoin:round;stroke-miterlimit:2;">
    <g id="VBK" transform="matrix(4.16667,0,0,4.16667,0,-3)">
        <g transform="matrix(0,1,1,0,491.962,99.4602)">
            <path d="M404.281,-404.281C627.201,-404.281 808.561,-222.921 808.561,0.004C808.561,222.921 627.201,404.281 404.281,404.281C181.361,404.281 0.001,222.921 0.001,0.004C0.001,-222.921 181.361,-404.281 404.281,-404.281" style="fill:rgb(21,95,73);"/>
        </g>
        <g transform="matrix(1,0,0,1,185.972,832.631)">
            <path d="M0,-10.92C2.592,-13.458 3.506,-16.083 2.741,-18.792C2.182,-20.779 0.354,-23.35 -2.736,-26.505C-10.99,-34.935 -17.924,-36.397 -23.542,-30.898C-27.134,-27.375 -28.029,-23.339 -26.229,-18.786C-24.985,-15.621 -22.16,-11.793 -17.756,-7.297C-17.042,-6.567 -15.904,-5.513 -14.339,-4.14C-12.776,-2.766 -11.636,-1.714 -10.922,-0.984L-10.541,-0.595L0,-10.92ZM-24.669,13.241L-15.888,4.639C-17.837,2.394 -19.641,0.424 -21.303,-1.274C-25.41,-5.467 -28.794,-8.24 -31.465,-9.598C-35.829,-11.833 -39.56,-11.431 -42.66,-8.395C-47.294,-3.856 -45.761,2.349 -38.054,10.219C-35.445,12.879 -33.266,14.528 -31.514,15.163C-29.13,16.015 -26.848,15.374 -24.669,13.241M21.073,-11.587C16.851,-12.004 13.101,-10.611 9.827,-7.405L-20.214,22.017C-23.444,25.183 -24.875,28.878 -24.501,33.114C-24.961,32.641 -25.637,31.954 -26.523,31.046C-27.41,30.141 -28.086,29.451 -28.546,28.98C-30.297,27.193 -33.001,24.571 -36.659,21.119C-40.314,17.667 -43.017,15.044 -44.771,13.255C-49.565,8.356 -52.512,3.657 -53.612,-0.847C-54.899,-6.229 -53.434,-10.984 -49.216,-15.115C-44.528,-19.705 -38.981,-20.314 -32.574,-16.938C-37.705,-24.574 -37.143,-31.455 -30.895,-37.575C-26.207,-42.166 -21.117,-44.034 -15.629,-43.183C-10.587,-42.403 -5.483,-39.373 -0.316,-34.099C1.251,-32.498 3.561,-30.027 6.607,-26.691C9.657,-23.356 11.962,-20.887 13.531,-19.286L17.821,-14.91C18.213,-14.507 19.297,-13.401 21.073,-11.587" style="fill:rgb(21,95,73);"/>
        </g>
        <g transform="matrix(1,0,0,1,130.016,795.989)">
            <path d="M0,-67.489C-4.079,-68.671 -8.021,-67.957 -11.825,-65.348L-41.014,-45.327C-44.052,-43.24 -47.126,-41.479 -50.241,-40.033C-46.215,-41.315 -42.538,-42.361 -39.208,-43.167L3.955,-53.783C4.664,-53.969 5.41,-54.337 6.202,-54.878C7.016,-55.434 7.54,-55.865 7.77,-56.162L14.201,-46.792C13.671,-46.608 13.074,-46.287 12.406,-45.83C11.617,-45.286 11.017,-44.705 10.608,-44.086L-14.769,-7.551C-16.945,-4.424 -19.246,-1.369 -21.67,1.608C-19.751,-0.569 -17.037,-2.858 -13.53,-5.264L15.658,-25.292C19.435,-27.882 21.503,-31.326 21.86,-35.624L32.23,-20.507C28.148,-21.693 24.207,-20.979 20.403,-18.371L-14.269,5.414C-18,7.972 -20.046,11.369 -20.411,15.604L-31.703,-0.858C-30.881,-0.82 -30.211,-0.979 -29.694,-1.337C-29.497,-1.468 -29.348,-1.623 -29.251,-1.796L-4.523,-37.308C-2.517,-40.158 0.141,-43.275 3.45,-46.659C-1.16,-44.691 -5.015,-43.321 -8.118,-42.548L-50.073,-32.153C-50.097,-32.136 -50.143,-32.126 -50.216,-32.12C-50.498,-32.06 -50.714,-31.977 -50.862,-31.877C-51.021,-31.688 -51.39,-31.196 -51.968,-30.398L-63.344,-46.984C-59.343,-45.81 -55.453,-46.519 -51.676,-49.111L-17.004,-72.899C-13.152,-75.54 -11.052,-78.938 -10.706,-83.093L0,-67.489Z" style="fill:rgb(21,95,73);"/>
        </g>
        <g transform="matrix(1,0,0,1,39.6514,695.425)">
            <path d="M0,-3.74C-0.96,-5.839 -2.568,-7.623 -4.831,-9.088L14.185,-17.774C10.865,-13.797 9.278,-9.344 9.418,-4.419C9.548,-0.388 10.905,4.456 13.49,10.114C14.909,13.227 16.264,15.324 17.545,16.401C19.416,17.971 21.592,18.19 24.071,17.057L36.458,11.399L31.249,-0.005C28.899,-5.149 25.35,-8.336 20.6,-9.569L37.067,-17.093C34.896,-12.697 34.982,-7.928 37.334,-2.783L42.541,8.617L57.518,1.775C60.241,0.531 61.592,-1.405 61.57,-4.038C61.554,-5.803 60.759,-8.406 59.187,-11.85C56.329,-18.106 53.428,-22.551 50.484,-25.184C46.978,-28.323 42.322,-30.031 36.51,-30.309L56.248,-39.326C55.855,-36.793 56.242,-34.252 57.405,-31.705L76.028,9.061C72.211,7.193 68.208,7.217 64.009,9.131L25.764,26.603C21.652,28.482 19.051,31.478 17.964,35.586L0,-3.74Z" style="fill:rgb(21,95,73);"/>
        </g>
        <g transform="matrix(1,0,0,1,67.5938,620.726)">
            <path d="M0,-23.662C-3.549,-23.359 -7.107,-23.446 -10.673,-23.919L-44.633,-28.393C-47.507,-28.772 -49.705,-28.794 -51.227,-28.461C-53.509,-27.958 -55.247,-26.585 -56.439,-24.333L-60.306,-41.948C-57.059,-39.591 -53.809,-38.196 -50.554,-37.764L2.934,-30.629C3.69,-30.529 4.523,-30.578 5.429,-30.775C6.221,-30.951 6.864,-31.153 7.364,-31.394L10.16,-18.653C9.449,-18.82 8.667,-18.812 7.819,-18.626C7.116,-18.472 6.426,-18.19 5.748,-17.788L-38.472,9.566C-42.198,11.869 -45.071,14.776 -47.091,18.286L-50.998,0.477C-49.089,1.779 -47.329,2.253 -45.718,1.899C-44.285,1.585 -42.511,0.79 -40.4,-0.486L-9.849,-18.902C-6.091,-21.186 -2.806,-22.773 0,-23.662" style="fill:rgb(21,95,73);"/>
        </g>
        <g transform="matrix(1,0,0,1,2.6733,552.979)">
            <path d="M0,-29.273C-0.17,-31.574 -1.059,-33.801 -2.673,-35.961L18.175,-37.51C13.683,-34.928 10.646,-31.306 9.07,-26.637C7.792,-22.811 7.383,-17.799 7.843,-11.598C8.097,-8.183 8.638,-5.748 9.468,-4.291C10.676,-2.17 12.642,-1.209 15.358,-1.411L28.94,-2.419L28.013,-14.918C27.594,-20.559 25.372,-24.782 21.344,-27.586L39.397,-28.924C35.837,-25.558 34.264,-21.054 34.683,-15.413L35.61,-2.915L52.031,-4.133C55.015,-4.352 56.954,-5.705 57.849,-8.178C58.449,-9.84 58.605,-12.557 58.324,-16.332C57.816,-23.19 56.637,-28.367 54.788,-31.86C52.593,-36.02 48.819,-39.238 43.463,-41.514L65.102,-43.12C63.855,-40.881 63.336,-38.365 63.544,-35.572L66.862,9.122C63.931,6.045 60.165,4.677 55.564,5.02L13.634,8.129C9.125,8.464 5.645,10.371 3.201,13.847L0,-29.273Z" style="fill:rgb(21,95,73);"/>
        </g>
        <g transform="matrix(1,0,0,1,71.417,494.9)">
            <path d="M0,-47.16C-2.35,-45.414 -3.618,-43.211 -3.81,-40.551C-3.947,-38.612 -3.736,-35.708 -3.177,-31.837C-2.62,-27.969 -2.409,-25.065 -2.547,-23.13C-3.942,-3.684 -15.167,5.28 -36.218,3.772C-46.251,3.053 -54.085,0.361 -59.725,-4.306C-66.5,-9.877 -69.511,-17.904 -68.757,-28.385C-68.635,-30.094 -68.119,-32.592 -67.213,-35.879C-66.302,-39.166 -65.789,-41.664 -65.667,-43.373C-65.521,-45.409 -66.197,-47.523 -67.7,-49.71L-43.18,-47.952C-48.713,-45.311 -52.752,-42.762 -55.299,-40.302C-58.976,-36.736 -61.006,-32.327 -61.382,-27.071C-61.876,-20.172 -59.241,-14.849 -53.472,-11.102C-49.054,-8.242 -43.364,-6.563 -36.402,-6.065C-29.649,-5.582 -23.942,-6.441 -19.281,-8.647C-13.28,-11.483 -10.041,-16.265 -9.557,-22.994C-9.26,-27.128 -9.876,-30.67 -11.409,-33.619C-13.145,-37.041 -15.807,-38.883 -19.392,-39.139L-25.267,-39.561C-29.868,-39.891 -33.642,-38.169 -36.586,-34.4L-35.291,-52.44C-33.301,-50.464 -29.738,-49.294 -24.599,-48.923L0,-47.16Z" style="fill:rgb(21,95,73);"/>
        </g>
        <g transform="matrix(1,0,0,1,26.083,410.648)">
            <path d="M0,-21.449C-2.084,-23.282 -3.804,-24.344 -5.15,-24.634C-6.437,-24.912 -7.981,-24.436 -9.779,-23.208L-5.967,-40.838C-4.028,-37.482 -1.663,-34.525 1.122,-31.965L28.778,-6.601L40.194,-4.133C44.76,-3.146 48.675,-3.963 51.938,-6.583L47.875,12.206C45.939,8.405 42.719,6.015 38.21,5.042L27.234,2.669L-8.884,14.345C-12.577,15.534 -15.942,17.218 -18.986,19.389L-14.926,0.603C-13.861,2.35 -12.642,3.371 -11.263,3.669C-9.857,3.971 -7.862,3.75 -5.277,3.004L19.545,-4.282L0,-21.449Z" style="fill:rgb(21,95,73);"/>
        </g>
        <g transform="matrix(1,0,0,1,38.4214,374.241)">
            <path d="M0,-55.452C0.794,-57.615 0.908,-60.013 0.338,-62.646L19.954,-55.417C14.796,-54.933 10.53,-52.892 7.161,-49.294C4.415,-46.344 1.962,-41.951 -0.187,-36.115C-1.371,-32.903 -1.887,-30.461 -1.736,-28.793C-1.514,-26.36 -0.125,-24.673 2.436,-23.73L15.212,-19.023L19.546,-30.783C21.503,-36.09 21.23,-40.853 18.727,-45.074L35.712,-38.813C31.076,-37.225 27.778,-33.778 25.823,-28.469L21.487,-16.709L36.937,-11.016C39.746,-9.98 42.068,-10.405 43.909,-12.286C45.142,-13.552 46.41,-15.96 47.721,-19.51C50.097,-25.966 51.17,-31.164 50.935,-35.109C50.662,-39.805 48.559,-44.297 44.628,-48.588L64.988,-41.083C62.925,-39.561 61.411,-37.485 60.443,-34.86L44.944,7.194C43.552,3.177 40.692,0.374 36.364,-1.221L-3.09,-15.763C-7.332,-17.326 -11.287,-17.034 -14.953,-14.881L0,-55.452ZM-14.572,-34.752L-22.428,-52.183C-23.501,-54.544 -23.747,-56.512 -23.166,-58.088C-22.801,-59.077 -22.171,-59.794 -21.276,-60.237C-20.378,-60.678 -19.484,-60.735 -18.586,-60.405C-17.213,-59.896 -16.291,-58.083 -15.818,-54.96L-13.307,-38.182L-14.572,-34.752Z" style="fill:rgb(21,95,73);"/>
        </g>
        <g transform="matrix(1,0,0,1,107.048,256.242)">
            <path d="M0,69.678L-19.562,59.305C-8.119,58.218 -0.433,53.963 3.504,46.545C5.461,42.852 6.15,39.47 5.566,36.402C4.979,33.149 3.028,30.641 -0.289,28.881C-2.968,27.461 -5.539,27.083 -8.002,27.751C-10.032,28.313 -12.436,29.738 -15.212,32.022C-15.758,32.482 -18.159,34.715 -22.411,38.727C-25.25,41.398 -27.81,43.414 -30.095,44.777C-34.558,47.443 -39.172,47.51 -43.936,44.985C-48.751,42.433 -51.449,38.41 -52.03,32.917C-52.587,27.962 -51.425,22.76 -48.538,17.318C-47.767,15.864 -46.375,13.861 -44.366,11.308C-42.355,8.759 -40.965,6.753 -40.192,5.299C-39.189,3.407 -39.108,1.641 -39.954,0L-22.19,9.419C-31.787,9.511 -38.513,13.193 -42.368,20.462C-43.944,23.431 -44.62,26.24 -44.401,28.889C-44.174,31.917 -42.766,34.117 -40.176,35.49C-38.351,36.458 -36.437,36.71 -34.428,36.247C-32.617,35.831 -29.092,33.212 -23.86,28.388C-22.863,27.464 -21.684,26.393 -20.325,25.175C-11.962,17.648 -3.985,15.896 3.604,19.922C9.292,22.939 12.517,27.24 13.282,32.825C14.009,37.91 12.676,43.652 9.281,50.052C8.508,51.509 7.075,53.498 4.979,56.021C2.885,58.543 1.449,60.532 0.679,61.987C-0.295,63.82 -0.522,66.383 0,69.678" style="fill:rgb(21,95,73);"/>
        </g>
        <g transform="matrix(1,0,0,1,105.153,259.216)">
            <path d="M0,-37.726C-0.224,-38.288 -0.605,-38.759 -1.141,-39.141C-2.822,-40.33 -4.912,-39.164 -7.405,-35.643C-14.407,-25.745 -15.401,-16.28 -10.392,-7.248L-28.302,-19.919C-26.112,-20.508 -24.504,-21.527 -23.477,-22.982L1.519,-58.31L25.28,0.124C25.602,0.922 25.969,1.465 26.386,1.763C28.005,2.906 30.354,1.3 33.436,-3.055C41.046,-13.812 42.595,-24.074 38.083,-33.845L56.018,-21.157C53.744,-20.384 52.02,-19.165 50.841,-17.497L23.901,20.584L0,-37.726Z" style="fill:rgb(21,95,73);"/>
        </g>
        <g transform="matrix(1,0,0,1,203.326,172.473)">
            <path d="M0,17.967C0.4,13.736 -1.036,9.997 -4.31,6.748L-29.433,-18.189C-32.047,-20.784 -34.353,-23.474 -36.354,-26.264C-34.342,-22.55 -32.631,-19.132 -31.214,-16.01L-12.728,24.412C-12.412,25.071 -11.912,25.739 -11.233,26.413C-10.53,27.11 -10.014,27.542 -9.678,27.716L-17.683,35.782C-17.962,35.299 -18.386,34.769 -18.962,34.201C-19.641,33.525 -20.325,33.044 -21.011,32.758L-61.641,14.647C-65.121,13.095 -68.551,11.405 -71.931,9.578C-69.43,11.06 -66.675,13.296 -63.655,16.291L-38.532,41.227C-35.28,44.455 -31.509,45.845 -27.221,45.39L-40.136,58.402C-39.733,54.172 -41.168,50.432 -44.445,47.183L-74.286,17.561C-77.497,14.374 -81.214,12.998 -85.442,13.433L-71.379,-0.736C-71.26,0.078 -70.979,0.705 -70.536,1.146C-70.365,1.317 -70.187,1.433 -70,1.498L-30.492,19.159C-27.318,20.597 -23.761,22.625 -19.819,25.244C-22.612,21.084 -24.68,17.553 -26.021,14.647L-44.066,-24.628C-44.085,-24.647 -44.107,-24.694 -44.123,-24.761C-44.237,-25.029 -44.355,-25.226 -44.482,-25.35C-44.699,-25.471 -45.253,-25.742 -46.143,-26.161L-31.974,-40.435C-32.379,-36.285 -30.958,-32.596 -27.705,-29.367L2.138,0.251C5.455,3.544 9.186,4.971 13.331,4.533L0,17.967Z" style="fill:rgb(21,95,73);"/>
        </g>
        <g transform="matrix(1,0,0,1,198.775,146.932)">
            <path d="M0,-43.269L3.36,-62.093C3.807,-64.645 4.718,-66.408 6.088,-67.381C6.948,-67.993 7.87,-68.227 8.859,-68.087C9.849,-67.946 10.619,-67.487 11.173,-66.708C12.022,-65.514 11.757,-63.494 10.384,-60.65L2.982,-45.386L0,-43.269ZM23.714,-52.123C25.596,-53.458 27.043,-55.373 28.059,-57.871L40.165,-40.828C35.634,-43.339 30.962,-44.064 26.15,-42.996C22.214,-42.115 17.713,-39.871 12.641,-36.27C9.852,-34.289 8.048,-32.564 7.229,-31.104C6.037,-28.971 6.234,-26.792 7.813,-24.57L15.699,-13.469L25.915,-20.728C30.53,-24.002 32.993,-28.087 33.309,-32.983L43.793,-18.225C39.07,-19.533 34.401,-18.549 29.789,-15.272L19.573,-8.017L29.105,5.408C30.838,7.847 32.996,8.813 35.577,8.296C37.31,7.95 39.716,6.679 42.801,4.487C48.411,0.502 52.23,-3.183 54.264,-6.57C56.688,-10.602 57.491,-15.497 56.672,-21.255L69.235,-3.567C66.675,-3.475 64.253,-2.618 61.971,-0.996L25.431,24.958C26.548,20.856 25.772,16.928 23.101,13.168L-1.246,-21.115C-3.866,-24.799 -7.294,-26.792 -11.536,-27.087L23.714,-52.123Z" style="fill:rgb(21,95,73);"/>
        </g>
        <g transform="matrix(1,0,0,1,265.394,109.221)">
            <path d="M0,-23.428L5.929,-11.784C8.824,-13.057 11.295,-14.218 13.347,-15.261C18.767,-18.021 22.52,-20.506 24.606,-22.712C27.945,-26.226 28.567,-30.035 26.475,-34.145C23.336,-40.305 16.756,-40.836 6.737,-35.731C3.339,-34.001 1.098,-32.352 0.011,-30.792C-1.438,-28.711 -1.441,-26.256 0,-23.428M17.521,10.968C19.622,15.091 22.741,17.613 26.883,18.538L9.757,27.261C11.46,23.368 11.265,19.367 9.173,15.258L-9.916,-22.209C-11.968,-26.237 -15.069,-28.708 -19.222,-29.619C-18.605,-29.932 -17.702,-30.392 -16.513,-30.997C-15.326,-31.603 -14.423,-32.063 -13.807,-32.377C-10.692,-33.96 -6.559,-36.185 -1.397,-39.049L5.391,-42.814C6.018,-43.179 6.686,-43.539 7.388,-43.898C20.716,-50.689 29.992,-48.959 35.212,-38.708C38.545,-32.168 36.953,-25.71 30.441,-19.332C34.15,-19.811 37.194,-19.494 39.57,-18.386C41.606,-17.44 43.825,-15.512 46.234,-12.603C47.854,-9.932 50.573,-6.223 54.396,-1.482C56.121,0.162 58.132,1.138 60.433,1.446L50.359,6.577C48.784,7.11 47.367,6.653 46.112,5.201C45.248,4.225 44.12,2.398 42.736,-0.283C41.349,-2.966 40.235,-4.886 39.389,-6.039C36.334,-10.078 32.903,-12.274 29.103,-12.631C25.72,-12.963 21.462,-11.822 16.329,-9.208C15.537,-8.805 14.355,-8.151 12.785,-7.248C11.211,-6.347 10.03,-5.696 9.238,-5.293L17.521,10.968Z" style="fill:rgb(21,95,73);"/>
        </g>
        <g transform="matrix(1,0,0,1,329.868,96.9308)">
            <path d="M0,-55.171C-0.024,-54.09 -0.029,-53.473 -0.014,-53.322C0.043,-53.152 0.163,-52.954 0.341,-52.73C0.39,-52.681 0.422,-52.646 0.43,-52.617L31.192,-22.297C34.793,-18.759 37.735,-15.334 40.014,-12.016C38.473,-15.039 36.991,-18.697 35.569,-22.992L25.848,-52.33C24.434,-56.593 21.711,-59.494 17.683,-61.029L35.085,-66.796C32.814,-63.203 32.39,-59.262 33.812,-54.968L49.07,-8.913C49.73,-6.923 50.446,-5.585 51.222,-4.896L38.275,-0.606C38.267,-0.632 38.265,-0.694 38.267,-0.789C38.386,-1.576 38.386,-2.151 38.267,-2.52C38.208,-2.692 38.089,-2.895 37.908,-3.13C37.856,-3.176 37.827,-3.217 37.816,-3.244L3.733,-36.753C1.738,-38.713 -1.043,-41.79 -4.606,-45.977C-3.003,-42.973 -1.603,-39.667 -0.408,-36.058L10.557,-2.968C11.998,1.382 14.734,4.326 18.762,5.859L1.36,11.625C3.631,8.032 4.042,4.05 2.593,-0.329L-10.632,-40.243C-12.054,-44.536 -14.75,-47.444 -18.716,-48.97L0,-55.171Z" style="fill:rgb(21,95,73);"/>
        </g>
        <g transform="matrix(1,0,0,1,412.082,80.8566)">
            <path d="M0,-73.966C-0.222,-75.294 0.129,-76.54 1.049,-77.71C1.971,-78.879 3.16,-79.587 4.617,-79.83C6.107,-80.078 7.478,-79.805 8.727,-79.014C9.973,-78.221 10.711,-77.148 10.938,-75.791C11.184,-74.315 10.873,-73.03 10.008,-71.931C9.143,-70.83 7.899,-70.146 6.28,-69.876C4.69,-69.611 3.309,-69.865 2.127,-70.638C0.952,-71.411 0.241,-72.52 0,-73.966M8.151,-2.912C20.665,-4.999 25.507,-14.521 22.676,-31.471C21.514,-38.44 19.405,-43.872 16.35,-47.764C12.317,-52.92 6.837,-54.918 -0.086,-53.763C-12.698,-51.66 -17.591,-42.144 -14.766,-25.223C-13.606,-18.283 -11.462,-12.841 -8.335,-8.903C-4.236,-3.758 1.26,-1.763 8.151,-2.912M-17.824,-70.989C-18.045,-72.317 -17.67,-73.571 -16.694,-74.75C-15.718,-75.926 -14.499,-76.64 -13.03,-76.883C-11.533,-77.134 -10.181,-76.859 -8.976,-76.059C-7.77,-75.261 -7.056,-74.182 -6.829,-72.825C-6.272,-69.492 -7.786,-67.529 -11.371,-66.929C-12.998,-66.658 -14.42,-66.896 -15.634,-67.651C-16.848,-68.403 -17.578,-69.516 -17.824,-70.989M9.362,4.442C-0.649,6.112 -8.613,4.012 -14.536,-1.86C-19.535,-6.791 -22.833,-14.042 -24.431,-23.609C-26.037,-33.236 -25.258,-41.182 -22.095,-47.445C-18.356,-54.869 -11.436,-59.424 -1.327,-61.111C8.681,-62.782 16.648,-60.681 22.571,-54.81C27.569,-49.876 30.865,-42.642 32.458,-33.103C34.063,-23.477 33.285,-15.531 30.122,-9.268C26.388,-1.817 19.47,2.755 9.362,4.442" style="fill:rgb(21,95,73);"/>
        </g>
        <g transform="matrix(1,0,0,1,476.315,78.0506)">
            <path d="M0,-63.515C-3.225,-60.765 -4.796,-57.126 -4.717,-52.606L-4.347,-31.357L16.935,-55.813C18.584,-57.697 19.395,-59.344 19.37,-60.752C19.349,-61.92 18.624,-62.942 17.191,-63.815L36.953,-64.158C35.843,-63.453 32.752,-60.724 27.678,-55.978L27.583,-55.889L14.855,-41.804L32.301,-10.522C34.58,-6.426 37.54,-3.05 41.179,-0.387L22.652,-0.065C23.909,-1.555 24.528,-3.036 24.501,-4.507C24.478,-5.797 23.966,-7.362 22.96,-9.203L8.505,-35.367L-4.179,-21.709L-3.985,-10.565C-3.906,-5.953 -2.208,-2.328 1.108,0.311L-18.107,0.643C-14.869,-2.106 -13.29,-5.788 -13.371,-10.4L-14.104,-52.442C-14.182,-56.965 -15.888,-60.544 -19.219,-63.18L0,-63.515Z" style="fill:rgb(21,95,73);"/>
        </g>
        <g transform="matrix(1,0,0,1,544.175,78.946)">
            <path d="M0,-61.945C-3.49,-59.541 -5.429,-56.086 -5.82,-51.58L-9.438,-9.69C-9.838,-5.094 -8.521,-1.312 -5.496,1.654L-24.647,-0.001C-21.142,-2.404 -19.189,-5.903 -18.792,-10.498L-15.172,-52.39C-14.782,-56.895 -16.107,-60.633 -19.148,-63.599L0,-61.945Z" style="fill:rgb(21,95,73);"/>
        </g>
        <g transform="matrix(1,0,0,1,613.269,90.2597)">
            <path d="M0,-67.538L16.646,-76.949C18.897,-78.23 20.836,-78.654 22.458,-78.219C23.477,-77.946 24.248,-77.384 24.77,-76.532C25.291,-75.681 25.429,-74.791 25.181,-73.869C24.802,-72.455 23.079,-71.371 20.011,-70.614L3.531,-66.589L0,-67.538ZM21.938,-54.91C24.166,-54.312 26.564,-54.418 29.136,-55.226L23.721,-35.035C22.769,-40.128 20.349,-44.188 16.459,-47.216C13.271,-49.684 8.673,-51.725 2.666,-53.337C-0.641,-54.224 -3.119,-54.516 -4.769,-54.212C-7.169,-53.772 -8.721,-52.234 -9.427,-49.601L-12.954,-36.446L-0.849,-33.202C4.615,-31.737 9.333,-32.439 13.307,-35.318L8.616,-17.832C6.615,-22.304 2.882,-25.275 -2.581,-26.74L-14.688,-29.987L-18.956,-14.082C-19.729,-11.193 -19.097,-8.919 -17.053,-7.257C-15.683,-6.145 -13.168,-5.099 -9.513,-4.118C-2.868,-2.336 2.406,-1.742 6.312,-2.333C10.963,-3.034 15.248,-5.538 19.162,-9.841L13.539,11.116C11.836,9.202 9.633,7.88 6.929,7.155L-36.358,-4.454C-32.486,-6.208 -29.954,-9.309 -28.759,-13.764L-17.866,-54.378C-16.693,-58.744 -17.348,-62.655 -19.821,-66.111L21.938,-54.91Z" style="fill:rgb(21,95,73);"/>
        </g>
        <g transform="matrix(1,0,0,1,634.369,59.2721)">
            <path d="M0,45.08L8.562,24.658C10.682,35.956 15.612,43.226 23.357,46.473C27.216,48.089 30.644,48.467 33.647,47.608C36.834,46.729 39.154,44.561 40.603,41.098C41.779,38.3 41.92,35.705 41.033,33.312C40.289,31.341 38.654,29.076 36.126,26.518C35.618,26.016 33.177,23.829 28.797,19.957C25.88,17.37 23.639,15.004 22.076,12.852C19.019,8.648 18.529,4.061 20.616,-0.911C22.723,-5.94 26.482,-8.991 31.897,-10.067C36.786,-11.073 42.068,-10.384 47.751,-8.002C49.271,-7.367 51.39,-6.161 54.115,-4.39C56.837,-2.619 58.957,-1.416 60.476,-0.778C62.452,0.049 64.218,-0.032 65.774,-1.022L58.005,17.521C57.043,7.973 52.771,1.609 45.178,-1.573C42.082,-2.874 39.222,-3.29 36.603,-2.833C33.606,-2.336 31.544,-0.733 30.411,1.971C29.613,3.877 29.535,5.808 30.179,7.762C30.757,9.533 33.685,12.804 38.962,17.578C39.973,18.489 41.146,19.565 42.484,20.806C50.735,28.451 53.204,36.237 49.881,44.163C47.392,50.098 43.401,53.701 37.908,54.969C32.912,56.153 27.072,55.345 20.39,52.544C18.87,51.906 16.759,50.66 14.058,48.8C11.354,46.943 9.243,45.694 7.727,45.059C5.812,44.255 3.238,44.264 0,45.08" style="fill:rgb(21,95,73);"/>
        </g>
        <g transform="matrix(1,0,0,1,750.42,142.044)">
            <path d="M0,-37.846L-6.964,-27.719C-4.62,-25.888 -2.472,-24.302 -0.514,-22.955C4.319,-19.63 8.178,-17.556 11.057,-16.738C15.769,-15.383 19.354,-16.494 21.813,-20.068C25.487,-25.412 22.792,-31.209 13.717,-37.449C10.646,-39.563 8.188,-40.76 6.348,-41.049C3.847,-41.425 1.73,-40.357 0,-37.846M-19.565,-9.395C-21.622,-6.405 -22.017,-3.656 -20.744,-1.141C-19.812,0.699 -17.526,2.874 -13.888,5.374C-4.169,12.06 2.919,12.165 7.375,5.685C10.224,1.543 10.327,-2.591 7.683,-6.713C5.855,-9.581 2.347,-12.796 -2.836,-16.364C-3.68,-16.943 -4.999,-17.757 -6.797,-18.803C-8.598,-19.852 -9.916,-20.665 -10.757,-21.244L-11.206,-21.552L-19.565,-9.395ZM-40.119,-4.691C-35.894,-5.094 -32.484,-7.181 -29.884,-10.957L-6.056,-45.602C-3.496,-49.327 -2.804,-53.231 -3.982,-57.313C-3.441,-56.94 -2.646,-56.394 -1.601,-55.675C-0.555,-54.956 0.237,-54.41 0.781,-54.037C2.844,-52.617 6.002,-50.566 10.251,-47.878C14.504,-45.191 17.661,-43.139 19.727,-41.72C25.371,-37.835 29.167,-33.788 31.11,-29.578C33.409,-24.545 32.885,-19.597 29.537,-14.734C25.82,-9.33 20.492,-7.665 13.555,-9.746C20.06,-3.236 20.83,3.619 15.871,10.827C12.154,16.234 7.521,19.046 1.971,19.264C-3.128,19.467 -8.722,17.475 -14.802,13.293C-16.648,12.022 -19.39,10.04 -23.021,7.353C-26.653,4.666 -29.392,2.687 -31.238,1.417L-36.289,-2.057C-36.751,-2.374 -38.026,-3.253 -40.119,-4.691" style="fill:rgb(21,95,73);"/>
        </g>
        <g transform="matrix(1,0,0,1,818.102,174.601)">
            <path d="M0,-35.886C-4.238,-35.975 -7.831,-34.302 -10.775,-30.871L-38.183,1.016C-41.189,4.514 -42.333,8.351 -41.608,12.528L-56.186,0C-51.936,0.094 -48.308,-1.604 -45.301,-5.102L-17.896,-36.992C-14.949,-40.422 -13.841,-44.229 -14.576,-48.414L0,-35.886Z" style="fill:rgb(21,95,73);"/>
        </g>
        <g transform="matrix(1,0,0,1,807.327,173.858)">
            <path d="M0,35.031C8.659,44.298 19.27,43.065 31.827,31.33C36.988,26.504 40.346,21.74 41.897,17.045C43.958,10.832 42.593,5.16 37.799,0.035C29.069,-9.305 18.437,-8.119 5.904,3.598C0.762,8.402 -2.582,13.198 -4.131,17.986C-6.15,24.244 -4.771,29.927 0,35.031M-5.456,40.108C-12.388,32.695 -15.045,24.896 -13.431,16.715C-12.087,9.822 -7.872,3.063 -0.787,-3.561C6.342,-10.227 13.393,-13.974 20.362,-14.804C28.613,-15.799 36.236,-12.552 43.236,-5.067C50.162,2.349 52.822,10.146 51.208,18.329C49.864,25.223 45.664,31.971 38.597,38.573C31.468,45.239 24.417,48.986 17.45,49.816C9.175,50.83 1.541,47.594 -5.456,40.108" style="fill:rgb(21,95,73);"/>
        </g>
        <g transform="matrix(1,0,0,1,859.512,221.568)">
            <path d="M0,66.674C4.047,67.961 8.007,67.35 11.873,64.836L41.563,45.558C44.649,43.552 47.77,41.868 50.919,40.502C46.864,41.681 43.16,42.632 39.811,43.357L-3.609,52.873C-4.32,53.044 -5.077,53.387 -5.88,53.911C-6.71,54.449 -7.243,54.863 -7.483,55.155L-13.672,45.623C-13.139,45.453 -12.533,45.149 -11.854,44.709C-11.052,44.187 -10.438,43.622 -10.012,43.011L16.282,7.131C18.537,4.06 20.913,1.068 23.414,-1.85C21.44,0.278 18.67,2.5 15.104,4.815L-14.586,24.092C-18.427,26.588 -20.581,29.98 -21.047,34.268L-31.027,18.894C-26.98,20.181 -23.022,19.57 -19.151,17.055L16.112,-5.843C19.905,-8.305 22.035,-11.65 22.509,-15.872L33.379,0.87C32.56,0.813 31.887,0.954 31.362,1.297C31.162,1.426 31.011,1.575 30.905,1.746L5.285,36.62C3.206,39.418 0.473,42.465 -2.92,45.766C1.735,43.914 5.625,42.64 8.748,41.946L50.951,32.619C50.976,32.603 51.021,32.594 51.095,32.592C51.381,32.538 51.598,32.462 51.746,32.365C51.911,32.179 52.292,31.697 52.89,30.916L63.844,47.782C59.873,46.507 55.969,47.117 52.125,49.613L16.861,72.514C12.941,75.058 10.754,78.402 10.306,82.546L0,66.674Z" style="fill:rgb(21,95,73);"/>
        </g>
        <g transform="matrix(1,0,0,1,945.302,346.766)">
            <path d="M0,-44.476L17.676,-37.185C20.076,-36.204 21.606,-34.941 22.266,-33.395C22.68,-32.424 22.712,-31.473 22.363,-30.535C22.015,-29.599 21.403,-28.942 20.522,-28.566C19.173,-27.993 17.259,-28.683 14.772,-30.629L1.436,-41.113L0,-44.476ZM3.604,-19.421C4.507,-17.298 6.069,-15.476 8.295,-13.952L-10.938,-5.755C-7.515,-9.645 -5.814,-14.054 -5.831,-18.985C-5.857,-23.016 -7.088,-27.893 -9.529,-33.613C-10.873,-36.763 -12.171,-38.893 -13.425,-40.002C-15.255,-41.621 -17.423,-41.894 -19.932,-40.824L-32.46,-35.484L-27.542,-23.954C-25.322,-18.75 -21.856,-15.471 -17.142,-14.122L-33.795,-7.02C-31.511,-11.356 -31.476,-16.125 -33.695,-21.332L-38.61,-32.862L-53.758,-26.404C-56.512,-25.23 -57.91,-23.327 -57.959,-20.694C-57.985,-18.929 -57.258,-16.306 -55.774,-12.824C-53.076,-6.498 -50.289,-1.978 -47.412,0.728C-43.987,3.956 -39.378,5.784 -33.573,6.208L-53.533,14.715C-53.079,12.196 -53.4,9.647 -54.498,7.07L-72.076,-34.157C-68.308,-32.192 -64.301,-32.113 -60.059,-33.922L-21.381,-50.413C-17.221,-52.186 -14.544,-55.111 -13.354,-59.191L3.604,-19.421Z" style="fill:rgb(21,95,73);"/>
        </g>
        <g transform="matrix(1,0,0,1,948.567,407.505)">
            <path d="M0,-36.264L-12.644,-32.96C-12.019,-29.863 -11.416,-27.199 -10.832,-24.972C-9.297,-19.086 -7.675,-14.89 -5.966,-12.379C-3.249,-8.365 0.341,-6.942 4.802,-8.108C11.493,-9.854 13.418,-16.167 10.576,-27.048C9.611,-30.739 8.483,-33.28 7.191,-34.674C5.467,-36.537 3.071,-37.065 0,-36.264M-37.348,-26.507C-41.824,-25.337 -44.957,-22.83 -46.747,-18.981L-51.603,-37.578C-48.164,-35.08 -44.217,-34.415 -39.754,-35.58L0.928,-46.207C5.305,-47.351 8.381,-49.854 10.16,-53.715C10.336,-53.044 10.59,-52.066 10.928,-50.774C11.264,-49.484 11.522,-48.502 11.695,-47.832C12.577,-44.455 13.863,-39.938 15.559,-34.285L17.784,-26.848C18.006,-26.156 18.217,-25.429 18.414,-24.663C22.195,-10.192 18.521,-1.504 7.389,1.406C0.29,3.26 -5.68,0.324 -10.516,-7.405C-10.84,-3.677 -11.8,-0.771 -13.393,1.314C-14.752,3.098 -17.112,4.855 -20.467,6.585C-23.425,7.596 -27.629,9.46 -33.078,12.176C-35.055,13.509 -36.437,15.269 -37.229,17.451L-40.086,6.509C-40.27,4.855 -39.521,3.571 -37.834,2.654C-36.696,2.016 -34.668,1.311 -31.751,0.532C-28.837,-0.249 -26.726,-0.927 -25.414,-1.506C-20.815,-3.628 -17.937,-6.507 -16.774,-10.144C-15.728,-13.377 -15.928,-17.781 -17.385,-23.353C-17.609,-24.215 -17.996,-25.507 -18.54,-27.237C-19.083,-28.965 -19.47,-30.26 -19.694,-31.119L-37.348,-26.507Z" style="fill:rgb(21,95,73);"/>
        </g>
        <g transform="matrix(1,0,0,1,977.775,463.281)">
            <path d="M0,-19.697C-1.049,-19.951 -1.651,-20.089 -1.803,-20.105C-1.984,-20.087 -2.2,-20.013 -2.457,-19.886C-2.514,-19.848 -2.56,-19.827 -2.587,-19.823L-38.775,3.756C-43.003,6.518 -46.978,8.659 -50.7,10.179C-47.421,9.319 -43.53,8.651 -39.032,8.178L-8.294,4.948C-3.827,4.477 -0.41,2.439 1.947,-1.171L3.866,17.059C0.842,14.074 -2.919,12.82 -7.418,13.293L-55.669,18.365C-57.753,18.584 -59.213,18.997 -60.054,19.608L-61.481,6.045C-61.451,6.04 -61.392,6.051 -61.3,6.075C-60.554,6.362 -59.991,6.483 -59.607,6.446C-59.427,6.424 -59.202,6.351 -58.935,6.223C-58.878,6.186 -58.835,6.164 -58.805,6.161L-18.791,-19.984C-16.45,-21.513 -12.852,-23.573 -7.999,-26.161C-11.275,-25.236 -14.804,-24.574 -18.586,-24.176L-53.254,-20.532C-57.81,-20.051 -61.271,-18.007 -63.63,-14.398L-65.547,-32.63C-62.521,-29.646 -58.718,-28.394 -54.131,-28.875L-12.313,-33.271C-7.815,-33.744 -4.397,-35.756 -2.063,-39.305L0,-19.697Z" style="fill:rgb(21,95,73);"/>
        </g>
        <g transform="matrix(1,0,0,1,995.243,537.856)">
            <path d="M0,-24.731C1.343,-24.669 2.489,-24.036 3.436,-22.836C4.382,-21.632 4.82,-20.29 4.75,-18.805C4.68,-17.286 4.125,-16.023 3.09,-15.015C2.057,-14.003 0.852,-13.534 -0.522,-13.595C-3.898,-13.755 -5.499,-15.65 -5.331,-19.278C-5.251,-20.927 -4.718,-22.268 -3.726,-23.295C-2.736,-24.323 -1.495,-24.801 0,-24.731M-0.847,-6.68C0.497,-6.618 1.644,-6.012 2.592,-4.866C3.541,-3.719 3.981,-2.409 3.911,-0.932C3.842,0.576 3.287,1.86 2.249,2.915C1.214,3.966 0.008,4.46 -1.365,4.396C-2.86,4.326 -4.056,3.752 -4.945,2.673C-5.84,1.595 -6.245,0.235 -6.17,-1.406C-6.094,-3.014 -5.554,-4.312 -4.55,-5.301C-3.545,-6.291 -2.312,-6.751 -0.847,-6.68M-72.025,-13.682C-72.62,-1.011 -64.334,5.729 -47.167,6.537C-40.108,6.867 -34.353,5.951 -29.906,3.783C-24.015,0.924 -20.906,-4.009 -20.579,-11.019C-19.979,-23.793 -28.249,-30.582 -45.386,-31.384C-52.414,-31.714 -58.184,-30.762 -62.693,-28.535C-68.587,-25.613 -71.695,-20.66 -72.025,-13.682M-79.468,-14.046C-78.989,-24.185 -75.259,-31.53 -68.273,-36.083C-62.396,-39.93 -54.615,-41.625 -44.926,-41.173C-35.178,-40.713 -27.575,-38.281 -22.117,-33.869C-15.647,-28.648 -12.652,-20.921 -13.134,-10.686C-13.609,-0.551 -17.34,6.793 -24.329,11.349C-30.203,15.196 -37.97,16.894 -47.629,16.44C-57.378,15.983 -64.98,13.547 -70.438,9.135C-76.938,3.915 -79.946,-3.812 -79.468,-14.046" style="fill:rgb(21,95,73);"/>
        </g>
        <g transform="matrix(1,0,0,1,973.404,597.385)">
            <path d="M0,-5.011C-2.012,-8.742 -5.231,-11.045 -9.67,-11.924L-30.514,-16.05L-11.108,9.917C-9.613,11.926 -8.175,13.069 -6.791,13.343C-5.647,13.566 -4.496,13.075 -3.339,11.858L-7.175,31.247C-7.632,30.011 -9.646,26.413 -13.212,20.455L-13.282,20.339L-24.36,4.927L-58.621,15.373C-63.106,16.735 -67.031,18.914 -70.402,21.907L-66.805,3.731C-65.612,5.275 -64.296,6.192 -62.854,6.478C-61.59,6.726 -59.948,6.556 -57.938,5.965L-29.311,-2.641L-39.983,-17.923L-50.914,-20.088C-55.439,-20.981 -59.343,-20.088 -62.62,-17.404L-58.889,-36.258C-56.883,-32.514 -53.617,-30.192 -49.092,-29.296L-7.848,-21.135C-3.409,-20.256 0.452,-21.167 3.73,-23.865L0,-5.011Z" style="fill:rgb(21,95,73);"/>
        </g>
        <g transform="matrix(1,0,0,1,956.557,620.974)">
            <path d="M0,37.291C-1.604,33.368 -4.566,30.735 -8.884,29.394L-49.038,16.923C-53.444,15.553 -57.418,16.033 -60.963,18.355L-55.258,0C-53.66,3.936 -50.659,6.591 -46.253,7.958L-6.099,20.43C-1.779,21.77 2.152,21.272 5.704,18.935L0,37.291Z" style="fill:rgb(21,95,73);"/>
        </g>
        <g transform="matrix(1,0,0,1,930.23,708.332)">
            <path d="M0,13.536C-0.893,9.391 -3.35,6.285 -7.367,4.209L-26.248,-5.545L-14.813,24.793C-13.937,27.137 -12.871,28.632 -11.619,29.278C-10.581,29.813 -9.338,29.659 -7.892,28.813L-16.961,46.375C-17.056,45.06 -17.988,41.046 -19.765,34.331L-19.797,34.201L-26.158,16.317L-61.976,16.837C-66.661,16.902 -71.035,17.905 -75.106,19.846L-66.604,3.382C-65.886,5.196 -64.877,6.442 -63.571,7.115C-62.425,7.71 -60.803,8 -58.705,7.988L-28.813,7.673L-34.823,-9.973L-44.723,-15.088C-48.821,-17.205 -52.819,-17.429 -56.716,-15.761L-47.894,-32.839C-47.007,-28.681 -44.515,-25.545 -40.416,-23.428L-3.061,-4.131C0.96,-2.058 4.92,-1.86 8.821,-3.541L0,13.536Z" style="fill:rgb(21,95,73);"/>
        </g>
        <g transform="matrix(1,0,0,1,863.193,766.737)">
            <path d="M0,-13.011C-3.209,-8.996 -5.75,-5.679 -7.629,-3.06C-9.445,-0.519 -11.749,2.912 -14.531,7.229L20.278,17.665L0,-13.011ZM-4.369,-19.802C-6.734,-23.243 -8.638,-25.477 -10.078,-26.507C-11.833,-27.764 -13.868,-28.189 -16.187,-27.782L-5.715,-42.406C-5.279,-37.92 -3.261,-32.949 0.344,-27.49L27.659,13.834C27.883,14.136 28.132,14.383 28.399,14.575C29.154,15.115 30.151,15.396 31.393,15.413L21.379,29.395C21.06,28.345 20.584,27.599 19.951,27.145C19.611,26.9 19.148,26.694 18.57,26.529L-28.094,12.372C-34.455,10.452 -39.725,9.96 -43.896,10.903L-33.223,-4C-32.92,-1.435 -31.879,0.484 -30.101,1.76C-28.708,2.758 -26.025,3.804 -22.058,4.907C-19.459,1.742 -16.396,-2.303 -12.865,-7.231C-9.354,-12.13 -6.523,-16.323 -4.369,-19.802" style="fill:rgb(21,95,73);"/>
        </g>
        <g transform="matrix(1,0,0,1,842.804,813.647)">
            <path d="M0,10.797L-9.407,1.733C-11.728,3.879 -13.685,5.779 -15.282,7.437C-19.502,11.817 -22.241,15.391 -23.492,18.156C-25.501,22.568 -24.844,26.374 -21.524,29.572C-16.545,34.371 -10.153,32.722 -2.349,24.628C0.295,21.881 1.877,19.594 2.396,17.761C3.085,15.322 2.285,13 0,10.797M-27.794,-15.988C-31.124,-19.2 -34.896,-20.565 -39.113,-20.084L-25.774,-33.926C-26.115,-29.692 -24.622,-25.973 -21.303,-22.771L8.974,6.406C12.23,9.546 15.97,10.867 20.189,10.373C19.709,10.87 19.006,11.6 18.081,12.56C17.153,13.523 16.451,14.252 15.97,14.747C13.547,17.264 10.365,20.716 6.424,25.107L1.236,30.884C0.76,31.43 0.249,31.992 -0.297,32.56C-10.678,43.327 -20.011,44.723 -28.294,36.742C-33.576,31.647 -34.182,25.023 -30.107,16.866C-33.46,18.531 -36.442,19.23 -39.048,18.956C-41.281,18.727 -44.009,17.629 -47.234,15.663C-49.638,13.671 -53.42,11.054 -58.58,7.818C-60.746,6.828 -62.968,6.564 -65.244,7.026L-57.396,-1.117C-56.082,-2.136 -54.596,-2.166 -52.933,-1.201C-51.798,-0.565 -50.135,0.797 -47.95,2.879C-45.766,4.963 -44.084,6.412 -42.908,7.226C-38.702,10.046 -34.744,11.003 -31.032,10.097C-27.729,9.308 -24.076,6.837 -20.078,2.69C-19.462,2.052 -18.559,1.049 -17.366,-0.319C-16.174,-1.684 -15.271,-2.687 -14.655,-3.328L-27.794,-15.988Z" style="fill:rgb(21,95,73);"/>
        </g>
        <g transform="matrix(1,0,0,1,406.467,977.763)">
            <path d="M0,-24.64L-6.274,-24.64C-8.351,-24.64 -10.054,-24.167 -11.381,-23.218L-11.381,-32.415C-9.508,-31.613 -7.78,-31.212 -6.199,-31.212C-0.581,-31.212 2.23,-34.08 2.23,-39.823C2.23,-41.412 1.903,-42.886 1.252,-44.238L9.962,-44.238C9.305,-42.331 8.978,-40.012 8.978,-37.282L8.978,8.858C8.978,13.405 10.565,16.987 13.739,19.598L-4.798,19.598C-1.601,17.017 0,13.44 0,8.869L0,-24.64Z" style="fill:rgb(12,77,61);"/>
        </g>
        <g transform="matrix(1,0,0,1,461.398,992.022)">
            <path d="M0,-51.868C-3.999,-51.868 -7.223,-51.09 -9.675,-49.538C-12.484,-47.748 -13.885,-45.109 -13.885,-41.622C-13.885,-38.075 -12.498,-35.39 -9.724,-33.574C-7.272,-31.963 -4.031,-31.157 0,-31.157C4.063,-31.157 7.321,-31.963 9.773,-33.574C12.579,-35.39 13.982,-38.075 13.982,-41.622C13.982,-45.109 12.563,-47.748 9.727,-49.538C7.275,-51.09 4.031,-51.868 0,-51.868M0.019,-24.761C-4.839,-24.761 -8.716,-23.836 -11.614,-21.99C-14.928,-19.851 -16.585,-16.653 -16.585,-12.403C-16.585,-8.151 -14.928,-4.955 -11.614,-2.814C-8.716,-0.94 -4.839,0 0.019,0C4.877,0 8.754,-0.94 11.652,-2.814C14.966,-4.955 16.624,-8.151 16.624,-12.403C16.624,-16.624 14.95,-19.805 11.603,-21.946C8.708,-23.822 4.847,-24.761 0.019,-24.761M14.282,-28.554C21.984,-25.677 25.834,-20.365 25.834,-12.614C25.834,-5.977 23.255,-1.003 18.092,2.312C13.609,5.191 7.575,6.629 -0.005,6.629C-7.553,6.629 -13.571,5.177 -18.053,2.268C-23.214,-1.046 -25.796,-6.007 -25.796,-12.614C-25.796,-20.365 -21.957,-25.677 -14.274,-28.554C-20.157,-31.019 -23.098,-35.409 -23.098,-41.72C-23.098,-47.505 -20.741,-51.849 -16.028,-54.753C-11.993,-57.251 -6.65,-58.497 0,-58.497C6.65,-58.497 12.009,-57.251 16.078,-54.753C20.822,-51.849 23.195,-47.505 23.195,-41.72C23.195,-35.439 20.225,-31.049 14.282,-28.554" style="fill:rgb(12,77,61);"/>
        </g>
        <g transform="matrix(1,0,0,1,505.705,932.762)">
            <path d="M0,64.599C4.484,60.609 8.194,54.902 11.132,47.481L23.622,15.929C24.201,14.458 24.49,13.253 24.49,12.31C24.49,9.19 21.714,7.627 16.166,7.627C4.836,7.627 -3.617,12.523 -9.198,22.31L-9.198,0C-6.875,1.369 -4.423,2.052 -1.841,2.052L41.965,2.052C38.416,5.34 35.574,9.671 33.446,15.037L19.069,51.177C18.005,53.848 17.472,56.062 17.472,57.822C17.472,60.228 18.632,62.486 20.956,64.599L0,64.599Z" style="fill:rgb(12,77,61);"/>
        </g>
        <g transform="matrix(1,0,0,1,552.658,956.995)">
            <path d="M0,18.188C6.196,29.375 14.328,34.968 24.396,34.968C28.978,34.968 32.646,33.779 35.406,31.408C38.167,29.032 39.546,25.777 39.546,21.643C39.546,17.775 38.094,14.795 35.188,12.713C32.544,10.81 29.043,9.856 24.687,9.856C20.557,9.856 16.988,10.83 13.99,12.776L13.99,1.246C16.186,2.568 18.964,3.227 22.322,3.227C26.683,3.227 30.237,2.465 32.981,0.935C36.339,-0.917 38.021,-3.694 38.021,-7.394C38.021,-10.625 36.713,-13.05 34.099,-14.665C31.838,-16.078 28.864,-16.781 25.185,-16.781C15.69,-16.781 7.829,-11.974 1.598,-2.364L1.598,-23.88C3.501,-22.207 5.871,-21.372 8.713,-21.372C10.778,-21.372 13.86,-21.72 17.959,-22.42C22.055,-23.121 25.155,-23.469 27.25,-23.469C32.931,-23.469 37.562,-22.309 41.144,-19.99C45.241,-17.348 47.291,-13.547 47.291,-8.584C47.291,-2.009 43.726,2.776 36.594,5.768C44.585,8.588 48.58,14.106 48.58,22.327C48.58,28.372 46.404,33.143 42.049,36.636C37.854,39.983 32.403,41.657 25.696,41.657C23.663,41.657 20.651,41.308 16.672,40.616C12.687,39.921 9.678,39.575 7.645,39.575C4.647,39.575 2.098,40.405 0,42.068L0,18.188Z" style="fill:rgb(12,77,61);"/>
        </g>
        <g transform="matrix(1,0,0,1,270.549,239.235)">
            <path d="M0,29.586L0,14.22L208.581,-10.633L208.581,-17.262C208.581,-17.262 204.156,-16.435 198.641,-16.71C185.472,-17.367 184.953,-36.594 196.902,-36.594L243.858,-36.594C255.889,-36.594 254.861,-17.302 243.383,-17.302L232.888,-17.772L232.888,-11.738L442.771,13.649L442.771,28.562C442.771,28.562 250.011,62.274 245.591,63.376C241.174,64.482 241.174,66.18 241.174,66.18L200.354,66.18C200.354,66.18 201.647,64.315 196.491,63.376C190.414,62.274 0,29.586 0,29.586" style="fill:white;"/>
        </g>
        <g transform="matrix(1,0,0,1,312.12,597.616)">
            <path d="M0,-294.661C-1.96,-296.453 -3.885,-298.957 -4.169,-302.071C-4.723,-308.145 -4.764,-312.685 -4.764,-312.685L-21.333,-315.448L-21.333,-302.742C-21.333,-300.625 -22.698,-297.63 -25.258,-295.161C-55.98,-290.795 -79.368,-268.587 -79.368,-241.825L-79.368,-9.452C-79.552,-9.462 -79.728,-9.505 -79.914,-9.505C-85.099,-9.505 -89.3,-5.304 -89.3,-0.119C-89.3,5.069 -85.099,9.27 -79.914,9.27C-79.806,9.27 -79.708,9.243 -79.6,9.238L-79.6,20.787L-34.915,20.787L-34.915,-5.377L-64.339,-5.377L-64.339,-241.825C-64.339,-264.399 -41.241,-279.505 -14.061,-279.505C13.117,-279.505 35.956,-264.399 35.956,-241.825L35.956,-91.833L52.046,-98.384L52.046,-241.825C52.046,-267.686 29.41,-289.297 0,-294.661" style="fill:white;"/>
        </g>
        <g transform="matrix(1,0,0,1,351.866,526.777)">
            <path d="M0,24.096L-9.387,-0.938C-22.528,-0.938 -65.088,1.563 -57.578,11.89C-50.065,22.22 -11.263,25.034 0,24.096" style="fill:white;"/>
        </g>
        <g transform="matrix(1,0,0,1,357.875,534.602)">
            <path d="M0,15.958C5.945,15.958 34.074,14.314 41.554,4.692C43.744,1.876 37.799,0 37.799,0L0,15.958Z" style="fill:white;"/>
        </g>
        <g transform="matrix(1,0,0,1,349.989,436.343)">
            <path d="M0,79.797C0,79.797 4.069,87.932 5.007,92.624C5.945,97.32 9.387,100.135 9.387,100.135C9.387,100.135 181.498,39.742 198.708,34.422C215.921,29.102 239.076,20.654 253.342,31.919C262.336,39.021 256.699,51.776 246.897,56.325C238.138,60.394 209.977,73.538 201.839,111.4L376.135,111.4C376.135,111.4 385.521,71.034 347.656,19.715C309.795,-31.603 247.838,-15.329 227.184,-8.446C206.532,-1.563 0,79.797 0,79.797" style="fill:white;"/>
        </g>
        <g transform="matrix(-1,0,0,1,1275.76,133.353)">
            <rect x="540.562" y="423.779" width="194.634" height="19.089" style="fill:white;"/>
        </g>
        <g transform="matrix(-1,0,0,1,983.174,214.083)">
            <rect x="472.341" y="370.897" width="38.492" height="44.123" style="fill:white;"/>
        </g>
        <g transform="matrix(-1,0,0,1,981.923,322.354)">
            <rect x="455.756" y="282.341" width="70.411" height="112.964" style="fill:white;"/>
        </g>
        <g transform="matrix(-1,0,0,1,315.884,695.129)">
            <path d="M-218.418,43.368L13.458,43.368L13.458,0L-231.876,0L-218.418,43.368Z" style="fill:white;"/>
        </g>
        <g transform="matrix(-1,0,0,1,578.24,695.129)">
            <path d="M-98.908,43.368L0,43.368L-12.628,0L-98.908,0L-98.908,43.368Z" style="fill:white;"/>
        </g>
        <g transform="matrix(1,0,0,1,285.529,666.34)">
            <path d="M0,-116.405L0,-34.421C0,-13.768 13.142,0 26.91,0L91.373,0C106.391,0 119.535,-8.761 119.535,-35.048L119.535,-113.901C119.535,-113.901 104.515,-100.759 61.958,-100.759C19.4,-100.759 0,-116.405 0,-116.405" style="fill:white;"/>
        </g>
        <g transform="matrix(1,0,0,1,560.63,606.683)">
            <path d="M0,-18.832L23.186,-18.832L17.608,0C9.798,-4.49 3.126,-12.779 0,-18.832" style="fill:white;"/>
        </g>
        <g transform="matrix(1,0,0,1,622.871,622.361)">
            <path d="M0,-34.51L31.05,-34.51L40.814,-3.712C40.814,-3.712 25.973,0 15.231,0C4.491,0 -8.982,-3.907 -8.982,-3.907L0,-34.51Z" style="fill:white;"/>
        </g>
        <g transform="matrix(1,0,0,1,693.896,599.514)">
            <path d="M0,-11.914L15.566,-11.914C15.566,-11.914 9.432,-3.71 3.963,0L0,-11.914Z" style="fill:white;"/>
        </g>
        <g transform="matrix(-1,0,0,1,471.936,458.854)">
            <path d="M-15.018,-146.74L0,-146.74L0,0L-15.018,-5.899L-15.018,-146.74Z" style="fill:white;"/>
        </g>
        <g transform="matrix(1,0,0,1,510.649,526.021)">
            <path d="M0,18.593L0,-31.917L-15.026,-26.016L-15.026,18.593L-23.696,18.593L-23.696,-22.607L-38.713,-16.706L-38.713,18.593L-52.704,18.593L-52.704,50.51L13.955,50.51L13.955,18.593L0,18.593Z" style="fill:white;"/>
        </g>
        <g transform="matrix(-1,0,0,1,495.623,449.548)">
            <path d="M-15.026,-137.434L0,-137.434L0,0L-15.026,-5.901L-15.026,-137.434Z" style="fill:white;"/>
        </g>
        <g transform="matrix(-1,0,0,1,590.763,587.6)">
            <path d="M36.18,150.862L46.453,150.862L0,0L-10.273,0L36.18,150.862Z" style="fill:white;"/>
        </g>
        <g transform="matrix(-1,0,0,1,608.549,587.6)">
            <path d="M40.741,150.862L46.456,150.862L0.003,0L-5.715,0L40.741,150.862Z" style="fill:white;"/>
        </g>
        <g transform="matrix(-1,0,0,1,664.753,587.6)">
            <path d="M-56.913,150.862L-47.173,150.862L0,0L-9.74,0L-56.913,150.862Z" style="fill:white;"/>
        </g>
        <g transform="matrix(-1,0,0,1,682.004,587.6)">
            <path d="M-52.89,150.862L-47.172,150.862L0,0L-5.718,0L-52.89,150.862Z" style="fill:white;"/>
        </g>
        <g transform="matrix(-1,0,0,1,622.207,628.348)">
            <path d="M-13.865,58.706L-3.594,58.706L0,0C0,0 -4.198,0.955 -10.269,1.063L-13.865,58.706Z" style="fill:white;"/>
        </g>
        <g transform="matrix(-1,0,0,1,638.922,628.348)">
            <path d="M-9.313,58.706L-3.595,58.706L0,0.533C-2.573,0.544 -5.717,0 -5.717,0L-9.313,58.706Z" style="fill:white;"/>
        </g>
        <g transform="matrix(1,0,0,1,752.75,312.459)">
            <path d="M0,275.651C-0.187,275.651 -0.362,275.694 -0.546,275.705L-0.546,43.331C-0.546,16.569 -23.931,-5.639 -54.652,-10.005C-57.216,-12.474 -58.581,-15.469 -58.581,-17.586L-58.581,-30.292L-75.15,-27.529C-75.15,-27.529 -75.19,-22.989 -75.742,-16.915C-76.025,-13.801 -77.953,-11.297 -79.913,-9.505C-109.321,-4.141 -131.96,17.47 -131.96,43.331L-131.96,95.756L-115.866,95.756L-115.866,43.331C-115.866,20.757 -93.03,5.651 -65.851,5.651C-38.673,5.651 -15.574,20.757 -15.574,43.331L-15.574,279.779L-30.263,279.779C-38.711,293.708 -54.36,305.943 -54.36,305.943L-0.313,305.943L-0.313,294.394C-0.205,294.399 -0.108,294.426 0,294.426C5.186,294.426 9.387,290.225 9.387,285.038C9.387,279.852 5.186,275.651 0,275.651" style="fill:white;"/>
        </g>
        <g transform="matrix(1,0,0,1,566.221,755.834)">
            <path d="M0,-10.951C0,-4.904 -4.903,0 -10.951,0C-17.001,0 -21.903,-4.904 -21.903,-10.951L0,-10.951Z" style="fill:white;"/>
        </g>
        <g transform="matrix(1,0,0,1,651.022,755.834)">
            <path d="M0,-10.951C0,-4.904 -4.904,0 -10.952,0C-16.999,0 -21.903,-4.904 -21.903,-10.951L0,-10.951Z" style="fill:white;"/>
        </g>
        <g transform="matrix(1,0,0,1,735.823,755.834)">
            <path d="M0,-10.951C0,-4.904 -4.9,0 -10.951,0C-16.999,0 -21.902,-4.904 -21.902,-10.951L0,-10.951Z" style="fill:white;"/>
        </g>
    </g>
</svg>
