<svg xmlns="http://www.w3.org/2000/svg" viewBox="0 0 500.91 694.61"><defs><style>.cls-1{fill:#960404;}.cls-2{fill:#143b65;fill-rule:evenodd;}.cls-3{fill:#556b2f;}.cls-4{fill:#6e6b6b;}.cls-5{fill:#febd07;}.cls-6{fill:#fcfefe;}</style></defs><title>schönherz airsoft team</title><g id="Réteg_2" data-name="Réteg 2"><g id="Réteg_1" data-name="Réteg 1"><polygon points="255.21 682.67 387.53 619.3 442.95 572.29 478.16 497.65 491.31 420.81 491.31 297.02 484.96 156.31 493.31 42.2 447.07 27.34 335.19 9.4 236.22 4.22 125.02 13.78 7.44 42.2 10.63 313.52 7.44 443.85 37.33 539.25 73.2 591.83 132.59 630.39 255.21 682.67"/><path class="cls-1" d="M151.52,358.43c-8.33-1.19-14.94-4.76-18.39-9.94-1.79-2.68-1.91-3.21-1.61-6.49.18-2,.48-4.4.65-5.41.42-1.79.3-1.91-4.28-4.23a111.92,111.92,0,0,0-11-4.64c-3.57-1.19-6.43-2.5-6.43-2.92,0-1.25,14.94-.06,22.32,1.79A72.67,72.67,0,0,1,159,339.74a81.5,81.5,0,0,0,18.81,11.55c7.62,3.45,7.62,4.11.06,5.89C171.52,358.61,157.71,359.32,151.52,358.43Z"/><polygon class="cls-2" points="372.76 297.02 372.76 284.09 372.1 198.47 340.59 199.94 339.26 296.82 357.74 297.02 372.76 297.02"/><polygon class="cls-2" points="402.59 324.77 387.22 308.27 385.45 204.23 376.82 204.28 376.2 204.3 376.7 302.43 335.05 302.27 336.55 205.77 336.06 205.79 326.68 206.13 324.55 304.9 309.18 321.41 307.92 354.85 403.78 354.79 402.59 324.77"/><path class="cls-3" d="M250.62,692.23c-2.91-1.31-14.34-6-25.29-10.47-18.46-7.44-23.4-9.47-42.26-17.15-54-22.08-89.64-43.74-116.79-71.24C49,575.87,39.8,563.25,29.8,543.19c-7.38-14.76-11.37-25.6-16.07-43.39-6.37-23.81-9.89-49.23-12-85.48C.21,387.42,1.11,330,3.9,272.07c1.31-27.27,2-66.91,1.61-96.79-.36-28.21-.65-36.54-2.2-60.95-.3-4.4-.89-16.84-1.43-27.68S.69,62.31.33,56.54C-.38,45.29,0,41.89,2.18,38.38a6.33,6.33,0,0,1,2.2-2.32C6.94,35,25.51,29.93,42.65,25.64A871,871,0,0,1,145.27,6.3C193.13,0,258.6-1.74,310.74,1.83A870.71,870.71,0,0,1,486,32.43c13.69,3.93,14.94,4.4,14.94,6,0,.65-.41,7.62-.89,15.48s-1,21.25-1.19,29.76S498,107.19,497.46,117c-1.43,24.7-1.37,97.26.06,132.44,3.1,75.23,3.22,78.57,3.28,119.64.17,62-2.74,93.51-12.09,130.05-2.14,8.28-8.45,27.26-10.71,32.14-7.56,16.31-11.85,24.29-18,33.34-13.39,19.58-32.79,38.86-53.75,53.27s-38.39,23.69-84.64,44.7c-23.21,10.54-45.89,21.55-57,27.62-4.46,2.44-8.21,4.46-8.33,4.4S253.6,693.54,250.62,692.23Zm14.88-21c23.1-4.05,53.1-17.5,86.91-38.87,29.94-19,61.66-43.92,80-63a106.84,106.84,0,0,0,15.66-19.7c25.77-39.64,37.08-93.75,36.66-175.18-.11-20.23-1.84-70.05-3.27-92.85-1.19-19.88-2.62-62.86-3.39-102l-.12-7.15-11.61-3.15c-126.24-34.23-261.9-37.2-391.06-8.45C61.1,164,36.11,170.34,26.82,173.14l-3.57,1.07-.42,35.71c-.18,19.59-.95,48.51-1.61,64.23s-1.36,32.85-1.6,38.09-.42,11-.6,12.8-.41,20.42-.65,41.37c-.42,45.47.36,64.16,3.75,90.47.83,6.55,1.25,9.05,3.27,20.42.36,2,.83,3.69,1.13,3.69a30.12,30.12,0,0,0,4.23-2.86c3.51-2.62,14.7-10.36,17.08-11.72C64.08,456.88,76,451.23,88.54,447.3c3.7-1.13,7.27-2.32,7.92-2.62s4-1,7.44-1.73,7.2-1.54,8.33-1.84c4.89-1.25,15.54-3.16,15.84-2.8s-2.5,5.77-7,13.1a39.26,39.26,0,0,0-2.85,5.23c0,.24.71.36,1.66.24,23-4.05,33.4-4.82,49.53-3.93a389.14,389.14,0,0,1,46.72,6c2,.36,5.06.9,6.85,1.2s7.85,1.54,13.39,2.67c11.78,2.5,25.24,3.34,33,2.15,4.88-.78,14.41-5,18.75-8.34,1.31-1,3.57-2.67,5-3.75,3.75-2.85,11.07-11.37,13.87-16.13l2.38-4.1-1.37-2.5c-.71-1.31-2.73-4.29-4.4-6.61-4.53-6.07-4.94-6.85-5.66-10.12l-.65-3-18.87-9.28c-10.36-5.18-22.2-11.31-26.31-13.69s-8-4.58-8.63-4.94-2-1.19-3-1.85-2.26-1.43-2.79-1.78c-4.29-2.56-17.74-12.2-23-16.31-9.82-7.92-13.63-11.73-16-16.07-6.67-12.2-9.64-16.85-14.4-22.68a129.62,129.62,0,0,0-15.84-16.55c-5.53-4.88-16.19-12.91-18.09-13.69-.42-.18-2.09-1.19-3.63-2.2-5.9-4-21.73-11.49-29.47-14.05-2-.65-4-1.43-4.46-1.66-1.31-.72-12.62-3.93-18-5.18l-4.64-1.07v-2.56c0-10.72,5.12-35.42,9.76-47.5.78-2,2.56-6.49,3.93-10.12s3.87-9.35,5.48-12.74,2.74-6.37,2.56-6.55-2,.18-4,.72-5.3,1.43-7.2,2A17,17,0,0,0,96.52,194a16.11,16.11,0,0,1-3.81,1.25,9.21,9.21,0,0,0-3.45,1.25,1.67,1.67,0,0,1-1.31.54c-3,0-27.86,11.31-37.32,17-3.22,2-6.67,4-7.68,4.58a27.56,27.56,0,0,0-3.09,2.27,5.06,5.06,0,0,1-1.67,1.13,21.66,21.66,0,0,0-3.75,2.56c-1.85,1.36-4,3-4.88,3.63a37.85,37.85,0,0,0-3.1,2.62c-2,1.78-2.85.77-1.25-1.55,2-2.68,17.86-18,23.93-23,5.3-4.4,15.66-12.38,17.8-13.69l6.31-4.22a218,218,0,0,1,53.87-25.84c3.45-1.07,6.78-2.2,7.44-2.44,2-.71,17.61-4.28,17.85-4s-3.09,6.13-7.2,13.27-7.38,13.21-7.38,13.45-1.55,3.22-3.39,6.61c-3.63,6.67-10.48,21.25-12.62,27-.78,2-1.73,4.41-2.2,5.36-.9,2.08-3.46,9.82-4.77,14.58-.47,1.79-1.13,4.11-1.43,5.06-1,3.27-2.79,13.45-2.44,13.69s4.59,1.73,9.71,3.51a188.73,188.73,0,0,1,41.36,20.06c10.84,7.14,22.92,17.26,30,25.06,4.53,5.06,13.75,16.91,15.6,20.06.65,1.19,2.8,4.94,4.7,8.39a54.89,54.89,0,0,0,6.31,9.11c3.15,3.21,14.58,12.32,15.48,12.32a2.63,2.63,0,0,1,1.31.89c.59.72,7.73,5.66,12.2,8.46.65.41,3.45,2.2,6.25,3.92,17.08,10.78,46.48,25.18,78.57,38.51a66.82,66.82,0,0,1,6.72,3c.54.42-.41,6.31-1.37,8.57-.29.66-1.07,3.1-1.84,5.36-3.45,11.07-12.38,27.56-19.82,36.78-12.44,15.36-25.18,24.47-42.32,30.12-9,3-14.29,4.11-21.73,4.58-6.78.48-7.08.36-9.28-4-2.8-5.54-10.3-8.93-25.54-11.67-29.76-5.36-53.93-7.44-70.06-6.13a171.55,171.55,0,0,0-25.35,4c-1.85.53-5.3,1.43-7.62,2s-6,1.61-8,2.32c-12.74,4.23-16.31,5.24-16.48,4.77s2.55-14.35,3.45-17.33c.29-.89.29-1.78.06-1.9-1.55-.95-27,9.76-34.23,14.4-1.37.9-3.33,2.09-4.46,2.68-3.16,1.73-8,5.48-13.45,10.3-4.77,4.23-5.06,4.4-8,4.4-3.57,0-3.57-.77-.24,9.83a187.43,187.43,0,0,0,11.79,29.16c13.21,26.85,24.88,39.94,55.41,62.62,46.73,34.64,106.07,65,139.22,71.25,2.62.47,5.3,1,6,1.13C248.12,672.29,261.16,672,265.5,671.22ZM49.44,155.7c54.94-13.93,105.29-21.55,164-24.76,16.43-.95,63.81-.95,80.36,0a837.12,837.12,0,0,1,150.83,21.49c11.48,2.73,31,7.79,33.21,8.63.77.29.95-1.13,1.31-10.24.24-5.83.83-16.49,1.37-23.69s.89-13.75.89-14.58c-.47-22,1.07-54.71,3.22-66.73l.35-2.08-11.19-3.1C414.61,24.51,354.55,15.11,290.38,12,264.61,10.7,219,11.24,191.7,13.2,134,17.25,69.5,28.44,20.33,43l-4.1,1.25.41,9.29c.24,5.18.66,12.38.95,16.13,1.08,12,2.39,38.21,2.39,47.08,0,4.76.41,13.33.89,19s1,14.17,1.25,18.81l.41,8.39,4.83-1.43C30,160.76,40,158.14,49.44,155.7Z"/><path class="cls-4" d="M29.8,496.94c-.54-1.67-2.62-11-3-13.27s-.3-2.44,2.5-4.47c25.89-18.69,45.42-28.51,69.82-35.06,6.13-1.66,28.69-6.13,29.05-5.71.29.24-4.29,8.57-8,14.46-2.5,3.93-2.5,4.53,0,4.05,1-.24,6.07-1.07,11.13-1.84,28.39-4.53,52.56-2.74,104.46,7.79a97.41,97.41,0,0,0,20.48,2.44c12.86.42,16.07-.17,24.7-4.52a62.16,62.16,0,0,0,26.31-24.4l2.2-3.87L308,429.92a51.88,51.88,0,0,0-4.52-6.61c-3.75-4.64-5.54-8.09-5.54-10.59,0-1.85-.17-2-18.57-11.08-29-14.4-43.69-23.21-63-37.91-11.25-8.51-15.66-13.27-19.88-21.13a129.35,129.35,0,0,0-42.68-46.85A181.11,181.11,0,0,0,97,271.05l-6.91-1.66.42-5.6a178.7,178.7,0,0,1,5.71-31.9c3-10.42,10.66-30.78,14.65-38.57.77-1.61,1.3-3.1,1.07-3.28-.72-.71-13.75,3-25,7.15-23,8.51-44,19.94-58.81,32.2-1.55,1.31-3,2.2-3.16,2-.89-.89,1.14-3.39,9.47-11.49,13.81-13.57,32.38-28,47.44-37,12.08-7.2,22.62-12.08,40.65-18.87,8-3,30.66-8.81,30-7.62-15.12,25.66-28.21,52.14-34.82,70.36-3.33,9.28-7.74,27.14-6.84,28a66.52,66.52,0,0,0,7.61,3,194.26,194.26,0,0,1,50.9,26c9.76,6.85,22.61,19.23,30.17,28.93,4.41,5.65,11.43,16.49,13.69,21.13,2.68,5.3,7.27,9.82,18.63,18.33,22.62,16.85,50.18,31.73,91.67,49.46,8,3.46,14.88,6.49,15.24,6.79.71.6.47,2.62-.9,7.68-3.57,13.27-9.58,25.77-18.75,38.57-14.1,19.88-30.71,31.37-53.51,37-6.48,1.61-18.57,2.86-19.94,2A14.37,14.37,0,0,1,243,490c-2.55-4.77-7.91-8-16.6-10.12-15.3-3.75-44.58-7.62-62.38-8.22a167.6,167.6,0,0,0-58.63,8.81c-3.93,1.37-9.11,3-11.55,3.81l-4.34,1.37.35-2.5c.24-1.37,1.19-5.77,2.21-9.82s1.72-7.5,1.54-7.68c-.71-.71-18.69,6.25-27.26,10.6a112.53,112.53,0,0,0-26.48,18c-3.46,3.22-3.81,3.39-6.73,3.39C31.17,497.65,30,497.36,29.8,496.94Z"/><path class="cls-5" d="M232.59,603.84c-1.25-.83-1.31-1.31-1.31-9.76v-8.87l-2.14-.18c-4.23-.35-4-4,.12-4,2,0,2,0,2-2.74,0-5,4.58-7.56,11.67-6.49,2.85.42,3.86,1.55,2.79,3.21-.41.66-1.31.9-2.79.78-3.16-.24-4.53.71-4.53,3.15,0,1.91.18,2.09,1.73,2.09,2.62,0,3.63.59,3.63,2.08s-1,2.08-3.63,2.08h-1.73v8.63c0,7.86-.12,8.75-1.19,9.82C235.8,605,234.37,605.09,232.59,603.84Z"/><path class="cls-5" d="M206.28,603.66a15.67,15.67,0,0,1-8.33-4.58c-2.21-2.5-2.62-4.05-2.27-8.57a10.66,10.66,0,0,1,6.19-9.23c3.4-1.72,12.09-1.66,15.42.12a11.9,11.9,0,0,1,6,6.25c2.38,5.84.12,11.79-5.71,14.76C215.09,603.66,209.32,604.32,206.28,603.66Zm7.5-5.35c3.33-2,4.23-8.57,1.61-11.49-2.38-2.68-7.21-3.45-9.71-1.49-3.21,2.44-4.1,8.39-1.72,11.37A7.56,7.56,0,0,0,213.78,598.31Z"/><path class="cls-5" d="M252.71,603.19c-2.8-1.43-3.51-3.75-3.51-11.61-.06-6.37-.06-6.43-1.49-6.43-3,0-3.75-3.69-.78-4,1.55-.17,1.61-.35,1.61-3.63,0-3.87,1.07-5.41,3.75-5.41,2.14,0,3.39,2,3.39,5.47v2.8l2.44.18c4.65.36,4.41,4-.23,4H256.1l.3,6.54c.18,3.87.53,6.85,1,7.27s2.26.71,4.11.71c3.09.06,3.45.18,3.63,1.37C265.5,603.25,256.64,605.21,252.71,603.19Z"/><path class="cls-5" d="M173.54,600.27c-5.47-1.49-9.64-5.95-7.74-8.27,1.43-1.73,3.75-1.07,6.31,1.84,2.21,2.56,2.62,2.8,5.72,3.1,4.94.41,7.26-1.37,4.76-3.63a29.77,29.77,0,0,0-6-2.86c-6.43-2.44-9-4.64-9-7.68a4.11,4.11,0,0,1,1.79-3.81c2.26-1.9,5-2.38,10-1.9,6.66.59,12.26,4.52,10.47,7.32-1.25,2-3.69,1.66-5.83-.72-3.28-3.51-9.58-4.1-9.58-.83,0,1.49.35,1.67,9.52,5,3.21,1.19,6.84,4.35,6.84,5.89a12,12,0,0,1-.89,3.1C188.24,600.81,181.22,602.29,173.54,600.27Z"/><path class="cls-5" d="M292.05,599.2c-.42-.48-1.43-6.13-2.26-12.68s-1.73-12-2-12.26-2.5-.24-5,.12c-5.24.71-6.91.24-6.91-2s1-2.56,6.55-3.27c2.8-.36,8.75-1.25,13.21-1.9,9.47-1.49,11.19-1.31,11.19,1.19,0,2-1.25,2.67-7.26,3.69a18.41,18.41,0,0,0-4.05.89c0,.18.84,5.65,1.79,12.26,1.61,10.89,1.72,12.08.89,13.39-.71,1-1.49,1.37-3.21,1.37A4.55,4.55,0,0,1,292.05,599.2Z"/><path class="cls-5" d="M146,595.81a3.46,3.46,0,0,1-2-1.79c-.42-1.19,3-18.45,3.93-20.3,1.13-2.14,5.89-1.78,5.89.42,0,1.37,1.07,1.61,2.68.54,3.21-2.15,9.52.29,9.52,3.69,0,2.2-1.6,2.5-5.41,1.07-4.83-1.85-6.61.12-8.64,9.46-.83,3.81-1.54,5.78-2.38,6.55C148.25,596.58,148.25,596.58,146,595.81Z"/><path class="cls-5" d="M316.69,594.44c-6.37-2.38-9.22-11.49-5.41-17.32,3.57-5.48,13.87-8,20-4.88,3,1.48,4.58,3.45,5.12,6.19.59,3-1.55,3.86-15.36,6.72-3.87.78-4.23,1.43-1.91,3.75,3.28,3.28,8.34,2.56,12.5-1.72,2-2.15,2.92-2.68,4.23-2.5,4.05.47,1.49,5.41-4.17,8.21C327.05,595.15,320.56,595.87,316.69,594.44Zm8.81-13.81c2.2-.54,4-1.13,4-1.43,0-1.31-2.86-3.63-4.82-3.93-3.87-.65-6.85,1.43-8,5.66-.35,1.36-.29,1.42,2.21,1C320.26,581.7,323.24,581.1,325.5,580.63Z"/><path class="cls-5" d="M130.81,592.47c-2-.77-2-2.44.23-11.6,1.19-5,2.44-9.59,2.74-10.12,1.31-2.62,6.43-1.43,6.43,1.49,0,2.26-3.69,17.91-4.52,19.34C134.85,592.83,132.71,593.25,130.81,592.47Z"/><path class="cls-5" d="M117.65,588.78c-1-.95-2.44-5.71-2.44-8,0-.42-3.45-1.73-7.74-3l-7.74-2.32-3.21,3.1c-3.51,3.27-3.87,3.39-5.89,2.38-1.61-.9-2.2-1.67-2.2-3.16,0-1.31,19.1-21.72,21.84-23.27,1.61-1,2.2-1,4.29-.36,2.79.83,3.86,2.44,4.52,6.91.24,1.66,1.43,8.15,2.74,14.52,1.6,8,2.14,11.84,1.72,12.56A3.79,3.79,0,0,1,117.65,588.78ZM114,573.13c0-.78-.36-3.87-.71-7l-.72-5.53-3.57,4c-1.9,2.26-4,4.7-4.64,5.41l-1.13,1.31,4.64,1.49C113.72,574.74,114,574.74,114,573.13Z"/><path class="cls-5" d="M345.86,587.83c-2.44-1.31-3.27-2.56-3.27-5.12,0-3.27,1.78-5,8.92-8.57a56.06,56.06,0,0,0,6.85-3.81,2.42,2.42,0,0,0-.3-1.84c-1.49-2.8-9.34-.54-11.13,3.27s-5.95,3.51-5.71-.36c.18-4.16,7.44-8.21,15.77-8.75,4.58-.3,4.64-.24,6.37,1.61,1.19,1.25,2.32,3.63,3.27,6.79a32.17,32.17,0,0,0,3.1,7.14c1.72,2.56,1.6,3.45-.66,4.94-1.43,1-1.66,1-3.87-.06L362.88,582l-2.79,2.5C355.8,588.31,349.61,589.74,345.86,587.83Zm11-5.06c3.51-1.78,4.88-5.42,3.16-8.45-.12-.24-2.33.65-4.89,2-5.41,2.8-6.72,4.59-4.82,6.49C351.81,584.26,353.89,584.26,356.87,582.77Z"/><path class="cls-5" d="M377.17,578.66c-1.25-1.25-6.61-16.78-6.61-19.16a3.43,3.43,0,0,1,.72-2.2c1.07-1.08,4.46-.9,5.17.29.48,1,.66.9,1.79-.41a12.74,12.74,0,0,0,1.25-1.85,13.66,13.66,0,0,1,3-2c2.68-1.43,3.52-1.61,6.73-1.37,3.63.3,3.63.3,5.18-1.91a13,13,0,0,1,9.82-4.76c2.38,0,3,.3,4.64,2,2.56,2.73,7.74,14.7,7.27,16.66s-2.21,2.86-4.41,2.62c-1.37-.18-2-.89-3.87-4.94-4.7-10.12-4.7-10.12-6.84-10.3-1.49-.18-2.32.18-3.69,1.61a5.47,5.47,0,0,0-1.79,3,48.16,48.16,0,0,0,2.44,7.56c2.68,6.84,2.62,8.69-.3,9.46-3.57.89-4,.42-7.2-7.44-1.61-4.05-3.45-7.56-4.05-7.92-1.48-.77-5,.48-6.19,2.26s-.83,4,1.61,10.72c2.08,5.65,2,7.38-.3,8.45C379.43,580.09,378.48,580,377.17,578.66Z"/><path class="cls-5" d="M136.76,565.75a2.52,2.52,0,0,1,.18-4.53c3.27-1.48,6.54,1.55,4.7,4.23C140.57,566.94,138.6,567.06,136.76,565.75Z"/><path class="cls-5" d="M227.23,561.34a11.74,11.74,0,0,1-8.45-14.4c1.49-6.13,7.26-9.94,14-9.23s10.83,4.59,11.43,11C245,557.89,237.23,563.72,227.23,561.34Zm8-5.23c2.62-2.09,3.39-6.14,2-10.12s-7-5.06-10-2-2.86,9.47.36,12C229.43,557.47,233.42,557.59,235.21,556.11Z"/><path class="cls-5" d="M207.41,560.09c-1-1-1.19-1.72-.89-3.69a76.51,76.51,0,0,0,.41-7.85c.06-4.83-.06-5.42-1.25-6.37a5.24,5.24,0,0,0-7.73,1.9,39.38,39.38,0,0,0-1.25,7.26c-.84,7.44-1.13,8.22-3.75,8.22-3.57,0-3.69-.42-2.21-14.47.72-7,1.49-13.51,1.67-14.58.6-3.45,3.16-4.76,5.24-2.68.89.84.95,1.79.59,6.31l-.41,5.36,2-1.43c2.38-1.73,7-1.85,9.88-.36,3.4,1.79,3.93,3.69,3.63,13.1-.18,7.8-.29,8.33-1.6,9.4C209.91,561.64,209,561.64,207.41,560.09Z"/><path class="cls-5" d="M250.92,560.75c-1-.66-1.67-6.73-1.72-16.19-.06-5.84.05-6.43,1.13-7a3,3,0,0,1,4.28,1.55l.66,1.37,2-1.73c3.69-3.21,9.94-2.91,13,.6,1.66,2,1.84,2.8,2.73,11.79.66,6.13.6,6.84-.35,7.91a3.18,3.18,0,0,1-4.59.24c-.89-.89-1.25-2.74-2-11-.3-3.57-.65-4.7-1.85-5.89-1.78-1.79-4.46-1.49-6.72.83-1.43,1.43-1.49,1.66-1.31,8.81.12,6.13,0,7.56-.77,8.33A3.76,3.76,0,0,1,250.92,560.75Z"/><path class="cls-5" d="M281.4,558c-1.07-1-1.43-2.8-2.74-14.05-1.91-16.19-1.91-16.19-.06-17.44,1.37-.89,1.61-.89,2.92-.06s1.54,1.79,2.14,6.07l.71,5.18,1.91-1.78a9.89,9.89,0,0,1,9.22-2.5c3.81,1,5.06,3.09,6.55,10.89,1.91,10.24,1.61,11.9-2.14,11.9-2.2,0-2.86-1.19-3.69-6.84-1.37-9.4-2.26-11.19-5.48-11.19a5.26,5.26,0,0,0-3.57,1.73c-2,2-2.08,3.27-1,11.54.71,5.24.71,5.36-.66,6.43C283.78,559.26,282.94,559.26,281.4,558Z"/><path class="cls-5" d="M169.73,556.28c-5.41-1.9-8.09-5.35-8.09-10.41,0-4.76,2.2-9,5.71-11.07,5.48-3.22,15.06-1.31,18,3.57,1.6,2.56,1.54,3.69-.18,4.82s-3.33.53-5.12-2.38a6.15,6.15,0,0,0-9.17-1.55,8.89,8.89,0,0,0-2.73,6.9c0,2.27.29,3.1,1.72,4.53s2.26,1.72,4.7,1.72c2.21,0,3.22-.29,4-1.25,2.92-3.27,6.79-3.27,6.79,0,0,2.08-2.56,4.64-5.42,5.47A19.45,19.45,0,0,1,169.73,556.28Z"/><path class="cls-5" d="M314.31,551.52c-6.9-2.44-9.58-12.5-4.94-18.81,2-2.68,6.61-4.7,10.66-4.7s6.19.71,8.39,2.8c3.21,3,3.63,7.08.95,8.33A81.12,81.12,0,0,1,321,541.4L314,543l1,1.79c2.26,4.34,8,4.16,12-.42,3.75-4.29,7.26-3.33,5.06,1.31-1.19,2.62-5.18,5.24-9.17,6.07S317.23,552.53,314.31,551.52Zm4.29-13.09c5.77-1.31,6.13-1.49,6.13-2.38,0-1.25-3.51-3.87-5.12-3.87a6.11,6.11,0,0,0-6.19,6C313.42,539.56,313.48,539.56,318.6,538.43Z"/><path class="cls-5" d="M140.21,550.93c-6.43-1.79-10.71-6.13-10.71-10.78,0-2,.29-2.73,1.25-3.21,2.38-1.31,3.92-.3,5.11,3.39s2.86,5.36,6.49,6.13c3.16.72,5.54,0,7-2,1.13-1.55,1.13-1.79.35-3.28-.59-1-2.85-2.61-6.19-4.4-5.71-3-7.73-4.64-9-7.14-1.79-3.4-.3-7.68,3.45-10,2.38-1.43,7.86-1.61,12-.36,6.67,2,10.89,8.33,7.5,11.37-1.9,1.73-3.87.77-5.12-2.44-1.31-3.39-3.63-5-7.44-5-2.8,0-4.7,1.25-4.7,3,0,1.49,3,3.87,8.09,6.37s8.52,5.78,8.7,8c.41,6.78-2.92,10.42-10.18,10.89A24.91,24.91,0,0,1,140.21,550.93Z"/><path class="cls-5" d="M339.67,545.39c-.6-1.13-5.42-18.51-5.42-19.58,0-2.38,4.11-3.39,5.54-1.37.77,1.13.83,1.07,1.78-.89a4.64,4.64,0,0,1,3.34-2.74c3.21-.95,6.25-.12,6.48,1.72.3,2-.95,3.1-3.57,3.1a4.9,4.9,0,0,0-3.87,1.55c-1.36,1.37-1.48,1.84-1.13,4.46a63.44,63.44,0,0,0,1.55,6.67c2,6.25,1.43,8.15-2.2,8.15C340.92,546.46,340,546.11,339.67,545.39Z"/><path class="cls-5" d="M358.18,539.8c-1.25-1.25-.83-2.68,3.57-11.43,2.38-4.76,4.17-8.81,4-8.93s-2.8.48-5.77,1.49c-6.08,2-7.44,2-7.15-.42.18-1.49.84-1.84,9.11-4.82,10.42-3.75,11.9-3.75,11.43-.3-.12,1.19-2,5.89-4.17,10.42S365.38,534,365.5,534s3-1.07,6.37-2.38c7-2.68,9.17-3,9.7-1.19.72,2.32-.12,2.8-12.08,7.08C360.5,540.69,359.31,540.93,358.18,539.8Z"/><path class="cls-5" d="M224.31,534.2c-1.07-.48-.95-2.92.12-3.81a2.89,2.89,0,0,1,2.38-.36c1.31.36,1.55.66,1.37,2.33s-.47,1.9-1.66,2A7.36,7.36,0,0,1,224.31,534.2Z"/><path class="cls-5" d="M232.53,533.49a2,2,0,0,1,.3-2.38c1.72-2.5,4.88-1,4.16,2-.29,1.19-.77,1.49-2.14,1.49A2.59,2.59,0,0,1,232.53,533.49Z"/><path class="cls-5" d="M417.76,116.47c-6-1.31-10.89-2.62-10.89-2.91,0-1.25,4.58-11.13,5.18-11.13S433,107,435,107.55c.9.23.66,1-1.66,5.77-1.73,3.57-3,5.48-3.69,5.53C429.07,118.91,423.71,117.84,417.76,116.47Z"/><path class="cls-5" d="M71.46,113.38c-5.77-1.25-9.88-3.22-13.39-6.55-1.61-1.55-3-3-3-3.27,0-.6,2-1.13,13.87-3.87l9.35-2.14,2.08,1.84c5.65,4.94,21.07,5.06,37.62.3,6.55-1.85,10.06-3.93,11.31-6.43.83-1.79.83-2.14-.12-3.87C127,85.11,121,84.57,96,86.3c-31.3,2.2-41,1.37-47-4-4.7-4.29-5.83-9-3.09-13.63,6.66-11.37,39.46-21.25,67.38-20.3,12.26.48,20.71,2.62,26.13,6.79,1.9,1.48,5.35,6,4.88,6.42-.12.12-5.9.9-12.86,1.85l-12.62,1.61L117,63.26a14.54,14.54,0,0,0-4.88-2.86c-10-3.33-39,2.27-42.15,8.1-.89,1.73-.71,3.87.48,4.94,2.8,2.5,7.5,2.62,39.05,1,12.08-.59,26.31-.06,31.78,1.19,8.1,1.91,13.22,7.26,13.22,13.87,0,7.5-10.72,14.64-28.93,19.46C108.13,113.56,82.24,115.64,71.46,113.38Z"/><path class="cls-5" d="M368.83,107.13c-5.65-.89-10.41-1.79-10.53-1.91s2.86-10.89,6.61-23.92,6.6-24,6.37-24.17c-.36-.36-17.56-2.56-32.27-4.11a47.9,47.9,0,0,1-6.48-1c-.24-.24,1.07-8.21,1.54-9.52.24-.66,1.79-.54,22.5,1.84,15.42,1.79,35.42,4.82,53.28,8,13.21,2.38,32.14,6.37,32.67,6.84.24.3-3.33,8.51-4,9.35-.24.3-4-.3-8.4-1.31-10.89-2.38-30.47-6-30.77-5.78-.12.18-3.57,9.77-7.62,21.31s-7.86,22.21-8.39,23.63C382.17,109.51,383,109.45,368.83,107.13Z"/><path class="cls-5" d="M162,101.71c-.84-2.5-2.27-10.65-2-11,.54-.48,24.17-2.8,24.58-2.38s2.15,11.19,1.85,11.55c-.18.12-4.41.65-9.41,1.07s-10.41,1-12,1.25C163,102.43,162.17,102.31,162,101.71Z"/><path class="cls-5" d="M324.43,101.53c-3.93-.41-9.17-1-11.67-1.19l-4.52-.35.89-5.78a58.91,58.91,0,0,1,1.08-6c.35-.36,24.64,1.85,24.94,2.26.41.78-2.33,12-2.92,11.91C331.87,102.31,328.36,102,324.43,101.53Z"/><path class="cls-5" d="M191.4,99.69c0-.6,4.58-8.75,10.24-18.27,6.31-10.6,15.18-23.87,23.27-35.06l6-8.22h33.45L268.6,44c6.37,8.69,16.07,23.15,21.49,32,6.48,10.59,13.33,22.91,13,23.27s-26.19-1-26.43-1.49c-.11-.23-1.6-3-3.33-6.07l-3.15-5.65-10-.54c-5.54-.24-15.78-.3-22.74-.06l-12.68.42L221.1,92l-3.63,6.13-4.88.36c-2.62.18-7.92.47-11.67.65s-7.44.48-8.15.66S191.4,99.87,191.4,99.69ZM262.29,74c-.3-.59-3.81-6-7.74-12l-7.26-11-1.67,2.32c-2,2.8-9.22,13.57-12.14,18.21l-2.2,3.4h15.77C261.93,75.05,262.83,75,262.29,74Z"/><path class="cls-6" d="M355.7,169.55A104.61,104.61,0,1,0,460.3,274.16,104.73,104.73,0,0,0,355.7,169.55Zm2.53,192c-.14-2.3-.17-6.2-.17-13.12,0-15,.06-15.53,1.19-15.83a1.32,1.32,0,0,0,0-2.62c-1.13-.3-1.19-.83-1.19-9.7s.06-9.41,1.19-9.7a1.32,1.32,0,0,0,0-2.62c-1.13-.3-1.19-.84-1.19-9.65,0-8.63.06-9.34,1.19-10.05a2.5,2.5,0,0,0,1.19-1.55,1.57,1.57,0,0,0-1.19-1.25c-1-.36-1.19-.9-1.19-4.53v-4.1H371c5.19,0,8.32,0,10.29.11l2.51,2.57h0l61.59.75,10.31.26v2c0,4.17-2.5,16.31-4.76,23a100,100,0,0,1-75.3,67.08c-3.27.65-8,1.37-10.48,1.61l-4.42.4-.8-11.49h0Zm62.92-88.89-2.17,0-35.2.43h0l-1.69,1.74c-2.11.13-5.47.17-10.81.17H358.06V260.93c0-6.61,0-10.23.21-12.3l1.65-1.54h0l.93-73.4,4.59.4c14.82,1.25,31.85,7.2,44.94,15.83a100.48,100.48,0,0,1,45.24,75.66c.3,3.39.47,6.25.41,6.31S440.26,272.3,421.15,272.66ZM346.81,174l5.12-.36.42,9.77c0,1.2.09,2.94.16,5.09l.74,58.56h0l2.23,2.08c.15,2.26.2,5.9.2,11.76V275H342.41c-9.31,0-12.18-.07-13.5-.56l-1.7-1.69h0l-8.71-.11c-2.85-.08-6.61-.16-11.63-.26-10.95-.18-27.08-.35-35.83-.35H266l-10.87-.13v-2.26c0-1.25.41-5.29,1-9a100.09,100.09,0,0,1,54.7-76.43A97.43,97.43,0,0,1,346.81,174Zm-19.6,105h0l1.82-1.81c1.67-.29,5.23-.34,13-.34h13.63v3.93c0,3.33-.18,4.1-1.31,5.05L353,287l1.37,1.13c1.25,1.07,1.31,1.54,1.31,10.29,0,8.46-.06,9.17-1.19,9.88s-1,2.5.36,2.5c.65,0,.83,1.79.83,9.53s-.18,9.52-.83,9.52c-1,0-1.49,1.13-1.13,2.26a1.36,1.36,0,0,0,1.13.72c1,0,1.19,19.31.64,28.25l-2.24,2.09h0l-.78,11.31-2.92-.05a96.25,96.25,0,0,1-19.11-3A100.6,100.6,0,0,1,255.92,287c-.39-3.23-.78-6.29-.83-7.12Z"/></g></g></svg>