<svg xmlns="http://www.w3.org/2000/svg" viewBox="0 0 1133.86 1133.86"><defs><style>.cls-1{fill:#231f20;fill-rule:evenodd;}</style></defs><title>KJK</title><g id="Layer_2" data-name="Layer 2"><g id="Layer_1-2" data-name="Layer 1"><path class="cls-1" d="M566.93,484a83,83,0,1,1-58.67,24.3A82.7,82.7,0,0,1,566.93,484ZM606,527.82a55.31,55.31,0,1,0,16.2,39.11A55.14,55.14,0,0,0,606,527.82ZM566.93,0C410.38,0,268.65,63.46,166.05,166.05S0,410.38,0,566.93,63.46,865.21,166.05,967.81s244.33,166,400.88,166,298.28-63.46,400.88-166,166-244.33,166-400.88-63.46-298.28-166-400.88S723.48,0,566.93,0ZM938.48,195.38a525.45,525.45,0,0,0-743.1,743.1c95.09,95.08,226.45,153.9,371.55,153.9s276.46-58.82,371.55-153.9,153.9-226.45,153.9-371.55-58.82-276.46-153.9-371.55ZM398.33,605.32A171.34,171.34,0,0,0,420.54,659l5.87,9.35-7.76,7.77L260.41,834.34l-10.82,10.82-9.65-11.9a421.18,421.18,0,0,1-62.52-104.48,431.36,431.36,0,0,1-30-118.91l-1.66-15.23h15.38l223.76-.07h11l2.44,10.75Zm-16.67,38.27a199.12,199.12,0,0,0,9.89,20.5L251.88,803.76a390.09,390.09,0,0,1-49-85.46,399.52,399.52,0,0,1-26.14-96.12l197.42-.06a199.53,199.53,0,0,0,7.47,21.47Zm-51.54,238.3L469.68,742.26a196.58,196.58,0,0,0,20.47,9.91,199.56,199.56,0,0,0,21.52,7.5v197.5a390.55,390.55,0,0,1-95.17-25.83,399.11,399.11,0,0,1-86.38-49.45ZM406,956.83A431.29,431.29,0,0,1,300.67,894l-12-9.62,10.84-10.85L457.71,715.22l7.81-7.81,9.32,5.86a172.53,172.53,0,0,0,53.63,22.26L539.22,738V988.06L524,986.48a420.71,420.71,0,0,1-118-29.65Zm199.3-221.31A171.63,171.63,0,0,0,659,713.32l9.35-5.88,7.77,7.77L834.34,873.45l10.82,10.82-11.9,9.65a421.18,421.18,0,0,1-104.48,62.52,431.45,431.45,0,0,1-118.91,30l-15.23,1.66V972.74L594.57,749V738l10.75-2.45Zm38.27,16.68a199.12,199.12,0,0,0,20.5-9.89L803.76,882a390.09,390.09,0,0,1-85.46,49,400,400,0,0,1-96.12,26.14l-.06-197.42a199.53,199.53,0,0,0,21.47-7.47Zm238.3,51.54L742.26,664.18a196.58,196.58,0,0,0,9.91-20.47,199.56,199.56,0,0,0,7.5-21.52h197.5a390.55,390.55,0,0,1-25.83,95.17,399.35,399.35,0,0,1-49.45,86.38Zm74.94-75.9A431.29,431.29,0,0,1,894,833.19l-9.62,12-10.85-10.85L715.22,676.14l-7.81-7.8,5.86-9.32a172.79,172.79,0,0,0,22.26-53.63L738,594.64H988.06l-1.58,15.18a420.71,420.71,0,0,1-29.65,118ZM735.52,528.54a171.63,171.63,0,0,0-22.2-53.66l-5.88-9.35,7.77-7.77L873.45,299.52l10.82-10.82,9.65,11.9a421.18,421.18,0,0,1,62.52,104.48,431.27,431.27,0,0,1,30,118.91l1.66,15.23H972.74L749,539.29H738l-2.45-10.75Zm16.68-38.27a199.12,199.12,0,0,0-9.89-20.5L882,330.1a390.09,390.09,0,0,1,49,85.46,399.73,399.73,0,0,1,26.14,96.12l-197.42.06a199.53,199.53,0,0,0-7.47-21.47ZM659,420.58a173.09,173.09,0,0,0-53.63-22.25l-10.75-2.45V145.79l15.18,1.59q124.36,13,223.37,92.52l12,9.62-10.85,10.85L676.14,418.64l-7.8,7.81L659,420.58Zm-15.31-38.89a197.42,197.42,0,0,0-21.52-7.5V176.69Q721.87,190.81,803.74,252L664.18,391.6a197.56,197.56,0,0,0-20.47-9.91Zm-186,37L299.52,260.41,288.7,249.59l11.9-9.65a421.18,421.18,0,0,1,104.48-62.52A431.27,431.27,0,0,1,524,147.4l15.23-1.66v15.38l.07,223.76v11l-10.75,2.44a171.34,171.34,0,0,0-53.66,22.21l-9.35,5.88-7.77-7.77ZM330.1,251.88a390.09,390.09,0,0,1,85.46-49,399.27,399.27,0,0,1,96.12-26.14l.06,197.42a198.47,198.47,0,0,0-42,17.36L330.1,251.88ZM252,330.12,391.6,469.68a196.78,196.78,0,0,0-17.39,41.94H176.69a390.94,390.94,0,0,1,25.83-95.12A399.72,399.72,0,0,1,252,330.12ZM177,406A431.29,431.29,0,0,1,239.9,300.67l9.62-12,10.85,10.84L418.64,457.72l7.81,7.8-5.87,9.32a172.82,172.82,0,0,0-22.25,53.63l-2.46,10.8H145.79L147.38,524A420.71,420.71,0,0,1,177,406Z"/></g></g></svg>