<svg id="Layer_1" data-name="Layer 1" xmlns="http://www.w3.org/2000/svg" viewBox="0 0 685.8 143.2"><defs><style>.cls-1{fill:#422daa;}</style></defs><title>lango_white</title><g id="_9SmDpC" data-name="9SmDpC"><path class="cls-1" d="M734.07,231.85c0,3.15-.07,6.31-0.15,9.49,0,0.77-.26,1.55-0.33,2.32-0.44,5.22-.43,5.22,5.31,8.44-1.78.45-3,1.08-4.09,1-3.17-.31-4.08,1.35-4.55,3.53-1.7,7.94-3.45,15.88-5.06,23.85-1.39,6.87-2.5,13.81-3.92,20.7-1.82,8.79-3.88,17.54-5.69,26.36-0.26,1.29.32,2.81,0.51,4.23a34.27,34.27,0,0,1,3.92-.53c1.92-.05,3.88.1,6.34,0.18-0.11,11.35-2.74,21.54-5.61,32l1.89,1.22a4.07,4.07,0,0,1-1.18,1c-4.3,1.12-8.47,2.4-12.78,3.11a10.5,10.5,0,0,1-6-1c-12.79-6.53-24.81-13-36.26-18.86-4.09-2.11-8.21-3.88-12.2-5.79-2.16-1-2.53-2.23-1.2-4.34a28.45,28.45,0,0,0,3-7c3.63-12.27,7.09-24.63,10.69-37,3.87-13.23,7.86-26.47,11.78-39.76,0.72-2.45,1.3-4.93,1.92-7.4,0.42-1.67.47-3.51,3.22-3.2,0.51,0.06,1.63-1.25,2-2.08,1.68-4.15,3.3-8.33,4.74-12.56,1-3.06,3.07-4.26,6.2-4.05,9.59,0.66,19.6,1.27,30,2.15,3.1,0.26,6.08,1.25,9.53,2l-2,2.1c-1.69-.69-3.27-1.79-5.06-2-9-.93-17.82-1.62-26.27-2.33-4.63-.39-5.44.17-6.91,4.57l-4.37,13.12,39.79,6.06ZM677.2,278.61c0.2,0.12.82,0.45,1.38,0.86,1.77,1.26,1.75,2.59.62,4.49a113.26,113.26,0,0,0-5.57,10.83,3.44,3.44,0,0,0,.67,2.9c1.34,1.59,1.22,2.85.18,4.47a28.5,28.5,0,0,0-2.88,5.68c-0.8,2.21-1.21,4.57-1.84,7.12,2.57,3-.66,5.59-1.11,8.47,5.39,4.15,5.39,4.15-2,12.58l2.14,1.5c3.27-2.83,4.25-2.6,6.31,1.55,1.12,2.27,2.29,2.29,4,1,2.1-1.5,4.57-.15,4.62,2.46,0,0.9-.92,1.71-0.89,2.61a12,12,0,0,0,1,4.14,2.6,2.6,0,0,0,2,.83,12.41,12.41,0,0,0,1.78-3c0.17-.36-0.08-1.08.16-1.28,1-.83,2.18-2.3,3.22-2.12,2,0.35,2.6,2.25,2,4.09a24.48,24.48,0,0,0-1.24,3c-0.47,2.68,1.62,4.36,3.66,5.13,2.44,0.91,2.46-1.41,2.65-3.09,0.11-1-.2-2.34.33-3,0.74-.89,2.08-1.27,3.17-1.88a18,18,0,0,1,1.93,3.79c0.18,0.75-.61,1.61-1,2.38-1.85,3.46-1.45,4.85,2.79,8.1,0.41-1.65.82-3.13,1.16-4.63q10.29-45.87,20.46-91.46c0.75-3.4.92-6.88,1.5-10.3,0.38-2.24-.66-3.16-3-3.56-13.8-2.34-26.81-4.67-39.17-6.77-3.86-.66-6.16,2.16-5.33,5.91,0.52,2.35.27,4.91,0.61,7.34,0.15,1.08.61,2.52,1.44,3,2.6,1.47,2.88,2.54.81,5a52,52,0,0,0-5,6.33C677.83,274.48,677.77,276.35,677.2,278.61Zm16.3-48.21-1.67-.33-4,12.77,0.61,0.08ZM671.69,348.61l0.22-.63-15.72-7.89-0.33,1Z" transform="translate(-53.1 -225.65)"/><path class="cls-1" d="M738.32,275.91c-1.53,2.82-2.9,5.48-4.45,8a2.2,2.2,0,0,1-1.95.46,5.5,5.5,0,0,1-1.9-1.9,23.84,23.84,0,0,1-1.88-3.53,19.3,19.3,0,0,1-.76-2.7c0.9-.1,1.8-0.28,2.71-0.3C732.5,275.91,734.95,275.93,738.32,275.91Z" transform="translate(-53.1 -225.65)"/><path class="cls-1" d="M731.79,303.93c-0.66,5.22-4.9,7.43-9.09,4.76-0.83-.53-1.11-1.81-1.64-2.74a20.35,20.35,0,0,1,3-1C726.52,304.56,729,304.29,731.79,303.93Z" transform="translate(-53.1 -225.65)"/><path class="cls-1" d="M677.5,338.45c-1.9-3.8-1.85-6.49-1-9a2.62,2.62,0,0,1,2.54-.72c0.95,0.82,2.24,2.51,2,3.29C680.4,334.07,679,335.83,677.5,338.45Z" transform="translate(-53.1 -225.65)"/><path class="cls-1" d="M701.38,340.43l-5.21,4c-0.45-2.12-1.24-4.29-1.17-6.31,0-.81,2.31-2.15,2.94-1.83C699.16,336.92,699.93,338.58,701.38,340.43Z" transform="translate(-53.1 -225.65)"/><path class="cls-1" d="M684.33,333.29c1.76-.51,3.34-1.48,3.94-1,1,0.75,2.17,2.79,1.84,3.61-0.67,1.71-2.28,3-3.49,4.39Z" transform="translate(-53.1 -225.65)"/><path class="cls-1" d="M707.89,331.78a9,9,0,0,1-1.2,2.38,32,32,0,0,1-3.06,2.16c-0.51-1.19-1.08-2.36-1.49-3.56a2.47,2.47,0,0,1,0-1.66,8.85,8.85,0,0,1,1.81-3c0.33-.31,2,0.1,2.42.63A12.69,12.69,0,0,1,707.89,331.78Z" transform="translate(-53.1 -225.65)"/><path class="cls-1" d="M692.41,332.52a47.24,47.24,0,0,1,.1-7c0.09-.58,2.12-1.3,2.93-1s2,2.15,1.82,2.84a35.58,35.58,0,0,1-3,5.8Z" transform="translate(-53.1 -225.65)"/><path class="cls-1" d="M673.38,319.43c1.58-.61,3.09-1.69,3.67-1.3,1,0.67,2.23,2.76,1.9,3.42-0.8,1.58-2.45,2.67-3.75,3.95Z" transform="translate(-53.1 -225.65)"/><path class="cls-1" d="M688.58,324.79L684,329c-0.4-2-1.11-4.07-1-6,0-.77,2.15-2.08,2.82-1.79C686.89,321.68,687.51,323.3,688.58,324.79Z" transform="translate(-53.1 -225.65)"/><path class="cls-1" d="M673.59,316a5.89,5.89,0,0,1-.79-7.27c0.33-.64,2.33-1.15,2.74-0.77,0.78,0.7,1.57,2.36,1.27,3.16C676.15,312.78,674.81,314.19,673.59,316Z" transform="translate(-53.1 -225.65)"/><path class="cls-1" d="M679.52,312.3c1.6-.7,2.88-1.79,3.87-1.53,0.81,0.21,2,2.47,1.74,3.11-0.78,1.62-2.33,2.82-3.57,4.18Z" transform="translate(-53.1 -225.65)"/><path class="cls-1" d="M688.81,315l4.11-1.85c0.6,1.18,2,2.77,1.66,3.48-0.81,1.66-2.43,2.89-3.72,4.28Z" transform="translate(-53.1 -225.65)"/><path class="cls-1" d="M692.18,257.72l-4.83,3.36c-0.31-1.56-1.06-3.18-.77-4.65,0.18-.89,2-1.56,3.08-2.34Z" transform="translate(-53.1 -225.65)"/><path class="cls-1" d="M713.66,280.23l-4.48,4.45c-0.6-1.85-1.54-3.68-1.6-5.52,0-.68,2.11-2,3.18-2S712.49,278.93,713.66,280.23Z" transform="translate(-53.1 -225.65)"/><path class="cls-1" d="M680.55,273.88c1.64-.83,2.88-1.94,3.91-1.8,0.72,0.1,1.87,2.19,1.57,2.92-0.64,1.54-2.1,2.77-3.22,4.12Z" transform="translate(-53.1 -225.65)"/><path class="cls-1" d="M705.27,320.37l-4.84,3.86a33,33,0,0,1-1.12-6.26c0-.57,2.37-1.69,3-1.34C703.48,317.24,704.12,318.81,705.27,320.37Z" transform="translate(-53.1 -225.65)"/><path class="cls-1" d="M711.3,311.71c-0.58,1.46-.68,2.36-1.2,2.86a4.14,4.14,0,0,1-2.49,1.24c-0.41,0-1.1-1.29-1.42-2.07a3.17,3.17,0,0,1-.1-2,10.1,10.1,0,0,1,1.64-3.61c0.3-.35,2.4,0,2.78.59A7.51,7.51,0,0,1,711.3,311.71Z" transform="translate(-53.1 -225.65)"/><path class="cls-1" d="M676.33,291c1.43-.58,2.79-1.63,3.54-1.3s2,2.43,1.66,3c-0.91,1.56-2.49,2.71-3.81,4Z" transform="translate(-53.1 -225.65)"/><path class="cls-1" d="M709.06,290.08c1.79-.86,3.47-2.18,4.06-1.84,1.1,0.63,2.39,2.5,2.09,3.4-0.52,1.56-2.18,2.75-3.36,4.09Z" transform="translate(-53.1 -225.65)"/><path class="cls-1" d="M686.56,303.76c1.62-.64,3.07-1.73,3.78-1.37,0.92,0.48,2,2.49,1.65,3.21-0.72,1.55-2.28,2.68-3.5,4Z" transform="translate(-53.1 -225.65)"/><path class="cls-1" d="M695.59,306.7c1.57-.6,3-1.65,3.83-1.31s2.28,2.48,2,3.08c-0.86,1.64-2.48,2.87-3.79,4.25Z" transform="translate(-53.1 -225.65)"/><path class="cls-1" d="M708.62,259.67l-4.29,4.17c-0.53-1.68-1.44-3.34-1.41-5,0-.73,2-2.15,3-2.1S707.54,258.4,708.62,259.67Z" transform="translate(-53.1 -225.65)"/><path class="cls-1" d="M697.62,287.46L693.1,291c-0.43-1.76-1.16-3.53-1.12-5.27,0-.64,2.22-2,2.77-1.7C695.83,284.5,696.44,285.93,697.62,287.46Z" transform="translate(-53.1 -225.65)"/><path class="cls-1" d="M693.14,295.84c1.49-.57,3.1-1.61,3.53-1.27,1,0.79,2.25,2.64,1.9,3.39-0.65,1.41-2.36,2.33-3.62,3.44Z" transform="translate(-53.1 -225.65)"/><path class="cls-1" d="M693.81,266.67l-4.63,3.8c-0.33-1.63-1-3.29-.84-4.86,0.1-.78,2-2,2.9-2S692.73,265.31,693.81,266.67Z" transform="translate(-53.1 -225.65)"/><path class="cls-1" d="M704.18,278.38l-4.45,4.29c-0.41-1.75-1.19-3.53-1.06-5.24,0.05-.73,2-1.79,3.09-1.87C702.41,275.52,703.18,277.16,704.18,278.38Z" transform="translate(-53.1 -225.65)"/><path class="cls-1" d="M684.19,303.6l-4.39,3.53a25,25,0,0,1-.75-5.47c0-.63,2.18-1.77,2.65-1.49C682.7,300.78,683.23,302.18,684.19,303.6Z" transform="translate(-53.1 -225.65)"/><path class="cls-1" d="M700,287.41l4.06-1.53c0.48,1.16,1.63,2.58,1.28,3.44-0.6,1.49-2.13,2.62-3.26,3.9Z" transform="translate(-53.1 -225.65)"/><path class="cls-1" d="M702.32,268.08l-4.43,4c-0.46-1.69-1.25-3.37-1.23-5.06,0-.64,2-1.93,2.86-1.8S701.15,266.77,702.32,268.08Z" transform="translate(-53.1 -225.65)"/><path class="cls-1" d="M709.3,300.59l-4.48,3.24c-0.55-1.67-1.51-3.37-1.45-5,0-.7,2.22-1.85,3.31-1.7C707.53,297.25,708.21,299.06,709.3,300.59Z" transform="translate(-53.1 -225.65)"/><path class="cls-1" d="M685.26,298.81c0-1.62-.45-3.36,0-4.81,0.28-.85,2-1.23,3-1.82,0.53,1,1.73,2.31,1.45,3-0.64,1.58-2,2.85-3.08,4.25Z" transform="translate(-53.1 -225.65)"/><path class="cls-1" d="M720,272.09l-4.35,3.14c-0.54-1.66-1.51-3.32-1.43-5,0-.78,2-1.52,3.16-2.28Z" transform="translate(-53.1 -225.65)"/><path class="cls-1" d="M682.78,283.3c1.52-.63,2.76-1.61,3.67-1.37s1.92,2.18,1.63,2.72c-0.81,1.51-2.28,2.66-3.49,4Z" transform="translate(-53.1 -225.65)"/><path class="cls-1" d="M695.37,277.09L691,280.6c-0.32-1.75-.93-3.5-0.82-5.21,0-.61,2.17-1.81,2.79-1.55C693.91,274.24,694.39,275.67,695.37,277.09Z" transform="translate(-53.1 -225.65)"/><path class="cls-1" d="M711,269.68l-4.54,3.82c-0.55-1.63-1.49-3.25-1.45-4.87,0-.73,2-2.13,3-2S709.66,268.26,711,269.68Z" transform="translate(-53.1 -225.65)"/><path class="cls-1" d="M717.06,261.72l-3.69,3.49c-0.64-1.78-1.56-3.53-1.73-5.34-0.05-.56,1.94-1.36,3-2Z" transform="translate(-53.1 -225.65)"/><path class="cls-1" d="M693.86,257.19l3.86-2c0.51,1.07,1.72,2.35,1.39,3.16-0.56,1.42-2.06,2.54-3.16,3.79Z" transform="translate(-53.1 -225.65)"/></g><path class="cls-1" d="M53.1,254.76H80.6v61H103.4v21.68H53.1V254.76Zm43.36,72.72v-3H68.71V264.67H65.49v62.81h31Z" transform="translate(-53.1 -225.65)"/><path class="cls-1" d="M132.26,254.76h19.82l31.34,82.63h-26L154.69,330h-25l-2.72,7.43h-26Zm-12.88,72.72,2.35-6.19h40.88l2.35,6.19h3.47l-23.91-62.81h-4.71l-23.91,62.81h3.47Zm22.79-59.84,19.33,50.67H122.85Zm8.05-17.72H136.35l10.28-19.2H163Zm-2.48,61.82-5.58-14.49-5.58,14.49h11.15Zm-3-66.77h2.6l6.07-9.29h-3.72Z" transform="translate(-53.1 -225.65)"/><path class="cls-1" d="M185.28,254.76H207l22.79,31.84V254.76h25.89v82.63h-21.8l-22.67-31.71v31.71H185.28V254.76ZM200,327.48V270.24l40.88,57.23h3.22V264.67h-3.22V321.9L200,264.67h-3.22v62.81H200Z" transform="translate(-53.1 -225.65)"/><path class="cls-1" d="M317,282.88a15.1,15.1,0,0,0-5.58-3,21.85,21.85,0,0,0-6.57-1.05,16.2,16.2,0,0,0-6.57,1.3,15.6,15.6,0,0,0-5.14,3.59,16.58,16.58,0,0,0-3.41,5.51,19.16,19.16,0,0,0-1.24,6.94,17.58,17.58,0,0,0,1.36,6.94,16.59,16.59,0,0,0,3.72,5.51,17.18,17.18,0,0,0,5.51,3.59,17.55,17.55,0,0,0,6.75,1.3,16.45,16.45,0,0,0,7.68-1.8,18.35,18.35,0,0,0,5.95-4.89H312V289.44h31.84v27.5a45.62,45.62,0,0,1-6.81,9.23,43.26,43.26,0,0,1-8.86,7.12,42.6,42.6,0,0,1-10.59,4.58,43.16,43.16,0,0,1-55.13-41.75,44.3,44.3,0,0,1,3.22-16.85,43.29,43.29,0,0,1,8.86-13.81,41.41,41.41,0,0,1,13.38-9.29,40.92,40.92,0,0,1,16.66-3.41,46.8,46.8,0,0,1,12,1.36,46,46,0,0,1,8.55,3.1,31.31,31.31,0,0,1,6.81,4.34Zm1.24-16a20.4,20.4,0,0,0-3.59-1.24,35.28,35.28,0,0,0-4.09-.87,33.48,33.48,0,0,0-5.2-.37,31.82,31.82,0,0,0-12.26,2.35,30.61,30.61,0,0,0-9.91,6.5,29.92,29.92,0,0,0-6.63,10,33.31,33.31,0,0,0-2.42,12.88A32.56,32.56,0,0,0,276.59,309a29.7,29.7,0,0,0,6.81,10,31.83,31.83,0,0,0,10.1,6.5,32.25,32.25,0,0,0,12.33,2.35,30.28,30.28,0,0,0,15.49-4,33,33,0,0,0,11.27-10.72V296.88H319.45v3h9.91v12.39a28,28,0,0,1-23.54,12.39,29.73,29.73,0,0,1-11.09-2,27.08,27.08,0,0,1-15.18-14.87,29.39,29.39,0,0,1-2.23-11.58,30.15,30.15,0,0,1,2.17-11.58,27.33,27.33,0,0,1,5.95-9,26.24,26.24,0,0,1,8.86-5.82,29.27,29.27,0,0,1,11-2,22.89,22.89,0,0,1,4.21.37q2,0.37,3.47.74,1.73,0.5,3.22,1Z" transform="translate(-53.1 -225.65)"/><path class="cls-1" d="M348.81,296.13a42.2,42.2,0,0,1,3.41-16.85,43.33,43.33,0,0,1,23.1-23.1,43.36,43.36,0,0,1,33.7,0,43.34,43.34,0,0,1,23.1,23.1,43.36,43.36,0,0,1,0,33.7,43.34,43.34,0,0,1-23.1,23.1,43.36,43.36,0,0,1-33.7,0,43.33,43.33,0,0,1-23.1-23.1A42.2,42.2,0,0,1,348.81,296.13Zm11.65,0a30.84,30.84,0,0,0,2.48,12.33,32,32,0,0,0,16.91,16.91,31.89,31.89,0,0,0,24.65,0,32,32,0,0,0,16.91-16.91,31.9,31.9,0,0,0,0-24.65A32,32,0,0,0,404.5,266.9a31.89,31.89,0,0,0-24.65,0,32,32,0,0,0-16.91,16.91A30.84,30.84,0,0,0,360.46,296.13Zm31.71,28.49a27.54,27.54,0,0,1-11.09-2.23,29,29,0,0,1-15.18-15.18,28.68,28.68,0,0,1,0-22.18,29,29,0,0,1,15.18-15.18,28.68,28.68,0,0,1,22.18,0A29,29,0,0,1,418.43,285a28.68,28.68,0,0,1,0,22.18,29,29,0,0,1-15.18,15.18A27.55,27.55,0,0,1,392.17,324.63Zm-17.34-28.49a16.82,16.82,0,0,0,1.36,6.75,17.4,17.4,0,0,0,9.23,9.23,17.4,17.4,0,0,0,13.5,0,17.4,17.4,0,0,0,9.23-9.23,17.4,17.4,0,0,0,0-13.5,17.4,17.4,0,0,0-9.23-9.23,17.4,17.4,0,0,0-13.5,0,17.4,17.4,0,0,0-9.23,9.23A16.83,16.83,0,0,0,374.83,296.13Z" transform="translate(-53.1 -225.65)"/><path class="cls-1" d="M460.06,340a83.19,83.19,0,0,1-8.79-.44c-2.69-.29-5.11-0.65-7.17-1.06a60.44,60.44,0,0,1-6.61-1.5l-0.36-.1V311.06l0.65,0.21a40.33,40.33,0,0,0,5.63,1.35,45.51,45.51,0,0,0,5.61,1,54.37,54.37,0,0,0,6.32.37c3.5,0,5.2-1.21,5.2-3.71a4.27,4.27,0,0,0-1.58-2.92,52.12,52.12,0,0,0-4.36-3.68c-1.79-1.37-3.71-2.89-5.71-4.53a41.86,41.86,0,0,1-5.77-5.77,30.36,30.36,0,0,1-4.47-7.37,23.7,23.7,0,0,1-1.78-9.43,24.41,24.41,0,0,1,2.15-10.5,21.27,21.27,0,0,1,6-7.61,26.82,26.82,0,0,1,8.9-4.61,36.84,36.84,0,0,1,10.86-1.57,58.57,58.57,0,0,1,6,.31l5.33,0.56,5.35,0.75,0.43,0.06v24.17l-0.56-.07-2.22-.25-2.23-.25c-0.82-.08-1.67-0.12-2.55-0.12-0.49,0-1.1,0-1.83.06a11,11,0,0,0-2,.3,3.8,3.8,0,0,0-1.54.77,1.65,1.65,0,0,0-.56,1.35c0,0.29.2,0.94,1.5,2.1,1.12,1,2.49,2.16,4.07,3.46s3.41,2.87,5.34,4.6a37.66,37.66,0,0,1,5.4,6,35.43,35.43,0,0,1,4.15,7.67,26,26,0,0,1,1.71,9.6,30.3,30.3,0,0,1-1.76,10.39,22.34,22.34,0,0,1-5.51,8.49,26.39,26.39,0,0,1-9.53,5.69A40.71,40.71,0,0,1,460.06,340Zm-21.92-3.85a60.39,60.39,0,0,0,6.15,1.37c2,0.41,4.43.76,7.09,1a82.22,82.22,0,0,0,8.68.43,39.72,39.72,0,0,0,13.33-2,25.39,25.39,0,0,0,9.17-5.46,21.35,21.35,0,0,0,5.27-8.11,29.31,29.31,0,0,0,1.7-10,25,25,0,0,0-1.64-9.23,34.47,34.47,0,0,0-4-7.45,36.75,36.75,0,0,0-5.26-5.87c-1.92-1.72-3.71-3.25-5.31-4.57s-3-2.48-4.1-3.48-1.84-2-1.84-2.85a2.62,2.62,0,0,1,.92-2.12,4.83,4.83,0,0,1,1.93-1,12,12,0,0,1,2.2-.32q1.14-.06,1.89-0.06c0.91,0,1.8,0,2.65.13l2.24,0.25,1.67,0.18V254.82l-4.9-.68-5.31-.56a57.52,57.52,0,0,0-5.89-.31,35.85,35.85,0,0,0-10.57,1.53,25.83,25.83,0,0,0-8.57,4.43,20.27,20.27,0,0,0-5.68,7.26,23.42,23.42,0,0,0-2.06,10.07,22.7,22.7,0,0,0,1.69,9,29.37,29.37,0,0,0,4.32,7.13,40.9,40.9,0,0,0,5.63,5.63c2,1.63,3.91,3.15,5.69,4.51a53,53,0,0,1,4.44,3.75,5.2,5.2,0,0,1,1.89,3.64c0,2.15-1.08,4.71-6.2,4.71a55.09,55.09,0,0,1-6.44-.38,45.94,45.94,0,0,1-5.7-1,41.33,41.33,0,0,1-5.08-1.17v23.72Zm21.18-7.79c-1.32,0-2.65-.06-3.95-0.19s-2.55-.28-3.68-0.44c-1.33-.17-2.59-0.38-3.75-0.62l-0.39-.08v-4.24l0.61,0.13c1.14,0.25,2.34.45,3.55,0.61a43.44,43.44,0,0,0,7.62.62c4.57,0,8.2-1,10.78-3s3.83-4.86,3.83-8.65a11.39,11.39,0,0,0-1.72-5.94,30.15,30.15,0,0,0-4.51-5.67c-1.83-1.83-3.82-3.68-5.92-5.49s-4.12-3.72-6-5.67a33.36,33.36,0,0,1-4.65-6,13.09,13.09,0,0,1-1.87-6.76c0-4.45,1.53-7.77,4.55-9.89a19.36,19.36,0,0,1,11.31-3.13q1.13,0,2.2.06c0.71,0,1.37.11,2,.19a14.41,14.41,0,0,0,1.79.12h0.5v4.22h-0.5a16.48,16.48,0,0,1-2-.13q-1-.12-2-0.18c-0.69,0-1.36-.06-2-0.06-4.07,0-7,.77-8.84,2.3a8,8,0,0,0-2.67,6.49,10.05,10.05,0,0,0,1.72,5.49,33.68,33.68,0,0,0,4.52,5.49c1.85,1.85,3.84,3.69,5.92,5.49a78.86,78.86,0,0,1,6,5.74,32.14,32.14,0,0,1,4.66,6.29,14.36,14.36,0,0,1,1.86,7.06,15.58,15.58,0,0,1-1.61,7.36,14.21,14.21,0,0,1-4.3,4.94,17.51,17.51,0,0,1-6.06,2.74A28.82,28.82,0,0,1,459.32,328.35Zm-10.77-2.15c1,0.21,2.12.38,3.28,0.53s2.31,0.3,3.64.43a31.77,31.77,0,0,0,10.49-.61,16.53,16.53,0,0,0,5.71-2.58,13.21,13.21,0,0,0,4-4.6,14.59,14.59,0,0,0,1.49-6.89,13.37,13.37,0,0,0-1.73-6.57,31.18,31.18,0,0,0-4.51-6.1,77.6,77.6,0,0,0-5.91-5.66c-2.1-1.81-4.11-3.67-6-5.54a34.64,34.64,0,0,1-4.65-5.66,11,11,0,0,1-1.88-6,9,9,0,0,1,3-7.26c2.29-1.94,6.26-2.78,11.56-2.47q1.07,0.07,2.08.19c0.47,0.06.94,0.1,1.42,0.11v-2.22c-0.46,0-.93-0.06-1.42-0.12S468,265,467.28,265s-1.4-.06-2.14-0.06a18.38,18.38,0,0,0-10.74,2.95c-2.77,1.94-4.12,4.91-4.12,9.07a12.11,12.11,0,0,0,1.73,6.25,32.39,32.39,0,0,0,4.51,5.86c1.84,1.92,3.83,3.81,5.91,5.6s4.13,3.69,6,5.54a31.07,31.07,0,0,1,4.66,5.86,12.37,12.37,0,0,1,1.87,6.45c0,4.11-1.42,7.29-4.22,9.44s-6.59,3.2-11.39,3.2a44.33,44.33,0,0,1-7.77-.63c-1-.13-2-0.3-3-0.5v2.2Z" transform="translate(-53.1 -225.65)"/><path class="cls-1" d="M536.5,340a49.81,49.81,0,0,1-18-3.19,42.73,42.73,0,0,1-14.29-9A40.88,40.88,0,0,1,494.78,314a46,46,0,0,1-3.38-17.85,45.2,45.2,0,0,1,3.51-18.1,42.39,42.39,0,0,1,9.53-13.85,41.72,41.72,0,0,1,14-8.84,47.42,47.42,0,0,1,17-3.07,53.4,53.4,0,0,1,12.69,1.38,60.51,60.51,0,0,1,9.56,3.13,45.25,45.25,0,0,1,8,4.38l0.37,0.26-13.51,23.81-0.45-.34a43.89,43.89,0,0,0-4.29-2.82A41.75,41.75,0,0,0,543,280.2a21.34,21.34,0,0,0-6.47-.91,17.54,17.54,0,0,0-6.87,1.32,17.72,17.72,0,0,0-5.48,3.61,16.63,16.63,0,0,0-3.67,5.35,16.43,16.43,0,0,0-1.32,6.55,15.79,15.79,0,0,0,1.38,6.55,16.87,16.87,0,0,0,3.79,5.35,18,18,0,0,0,5.67,3.62,18.73,18.73,0,0,0,7.12,1.33,22.75,22.75,0,0,0,6.91-1,25.56,25.56,0,0,0,5.1-2.18,18.78,18.78,0,0,0,4.23-3.14l0.46-.46,13.54,23.86-0.33.27a37.46,37.46,0,0,1-8,4.9,67.92,67.92,0,0,1-9.62,3.25A50.4,50.4,0,0,1,536.5,340Zm-1-86.72a46.43,46.43,0,0,0-16.67,3,40.75,40.75,0,0,0-13.71,8.63,41.39,41.39,0,0,0-9.3,13.53,44.21,44.21,0,0,0-3.43,17.7,45,45,0,0,0,3.3,17.46,39.89,39.89,0,0,0,9.18,13.52,41.73,41.73,0,0,0,14,8.75A48.81,48.81,0,0,0,536.5,339a49.38,49.38,0,0,0,12.63-1.47,66.91,66.91,0,0,0,9.47-3.2,36.94,36.94,0,0,0,7.48-4.5l-12.48-22a20,20,0,0,1-4,2.85,26.54,26.54,0,0,1-5.29,2.27,23.75,23.75,0,0,1-7.21,1,19.71,19.71,0,0,1-7.5-1.4,19,19,0,0,1-6-3.82,17.86,17.86,0,0,1-4-5.67,16.8,16.8,0,0,1-1.47-7,17.42,17.42,0,0,1,1.4-7,17.61,17.61,0,0,1,3.89-5.67,18.38,18.38,0,0,1,13-5.22,22.34,22.34,0,0,1,6.78,1,42.55,42.55,0,0,1,5.08,1.94,45.63,45.63,0,0,1,4,2.56l12.5-22a45,45,0,0,0-7.47-4,59.48,59.48,0,0,0-9.4-3.07A52.41,52.41,0,0,0,535.51,253.27Zm1.36,75.07a36.35,36.35,0,0,1-12.81-2.26,31.77,31.77,0,0,1-10.57-6.48,30.22,30.22,0,0,1-7.12-10.14,33.14,33.14,0,0,1-2.58-13.33,31.79,31.79,0,0,1,9.88-23.47A31.51,31.51,0,0,1,524,266.18a33.82,33.82,0,0,1,12.26-2.26,36.45,36.45,0,0,1,6.41.5,48.38,48.38,0,0,1,4.88,1.13c1.5,0.5,2.93,1,4.27,1.63l0.51,0.22-2.27,3.89-0.43-.25a15.9,15.9,0,0,0-3.48-1.44,25.87,25.87,0,0,0-4.22-1,34.2,34.2,0,0,0-5.68-.43,30.15,30.15,0,0,0-11.7,2.19A25.89,25.89,0,0,0,510,285.17a30.91,30.91,0,0,0,0,21.93,26.2,26.2,0,0,0,5.71,8.88,26.8,26.8,0,0,0,9.06,6,31.76,31.76,0,0,0,12.08,2.19,28.74,28.74,0,0,0,6-.55,27.4,27.4,0,0,0,4.38-1.28,15.23,15.23,0,0,0,3.62-1.81l0.45-.31,2.25,3.87-0.42.25a25.51,25.51,0,0,1-4.29,2,40.72,40.72,0,0,1-5.15,1.38A33.4,33.4,0,0,1,536.87,328.35Zm-0.62-63.43a32.81,32.81,0,0,0-11.9,2.2,30.52,30.52,0,0,0-10,6.28,30.78,30.78,0,0,0-9.57,22.74,32.17,32.17,0,0,0,2.5,12.93,29.23,29.23,0,0,0,6.88,9.81,30.78,30.78,0,0,0,10.24,6.28,35.36,35.36,0,0,0,12.46,2.2,32.46,32.46,0,0,0,6.59-.61,39.65,39.65,0,0,0,5-1.34,25,25,0,0,0,3.69-1.69L551,321.62a16.66,16.66,0,0,1-3.38,1.62,28.46,28.46,0,0,1-4.52,1.32,29.8,29.8,0,0,1-6.18.57,32.74,32.74,0,0,1-12.45-2.27,27.79,27.79,0,0,1-9.4-6.18,27.2,27.2,0,0,1-5.93-9.21,31.92,31.92,0,0,1,0-22.66,26.89,26.89,0,0,1,15.08-15.39,31.16,31.16,0,0,1,12.09-2.27,35.14,35.14,0,0,1,5.84.44,26.77,26.77,0,0,1,4.36,1.07,17.58,17.58,0,0,1,3.24,1.28l1.2-2.06c-1.16-.49-2.39-1-3.65-1.37a47.23,47.23,0,0,0-4.76-1.1A35.47,35.47,0,0,0,536.25,264.92Z" transform="translate(-53.1 -225.65)"/><path class="cls-1" d="M638,337.89H610.45v-30.6H596.71v30.6H569.32V254.26h27.39v28.12h13.74V254.26H638v83.63Zm-26.51-1H637V255.26H611.45v28.12H595.71V255.26H570.32v81.63h25.39v-30.6h15.74v30.6ZM625.58,328h-4.22V296.63H585.93V328h-4.22V264.17h4.22v28.49h35.42V264.17h4.22V328Zm-3.22-1h2.22V265.17h-2.22v28.49H584.93V265.17h-2.22V327h2.22V295.63h37.42V327Z" transform="translate(-53.1 -225.65)"/><path class="cls-1" d="M471.27,299.48a77.83,77.83,0,0,0-5.95-5.7q-3.16-2.73-5.95-5.51a34.11,34.11,0,0,1-4.58-5.57,10.5,10.5,0,0,1-1.8-5.76,8.52,8.52,0,0,1,2.85-6.88q2.85-2.42,9.17-2.42c0.66,0,1.34,0,2,.06s1.38,0.1,2,.19a15.84,15.84,0,0,0,2,.12v-3.22a14.87,14.87,0,0,1-1.86-.12q-0.87-.12-1.92-0.19c-0.7,0-1.42-.06-2.17-0.06a18.79,18.79,0,0,0-11,3q-4.34,3-4.34,9.48a12.56,12.56,0,0,0,1.8,6.5,32.67,32.67,0,0,0,4.58,5.95q2.79,2.91,5.95,5.64t5.95,5.51a30.57,30.57,0,0,1,4.58,5.76,11.83,11.83,0,0,1,1.8,6.19q0,5.95-4,9t-11.09,3.1a43.83,43.83,0,0,1-7.68-.62q-1.86-.25-3.59-0.62v3.22q1.73,0.37,3.72.62,1.73,0.25,3.65.43t3.9,0.19a28.2,28.2,0,0,0,6.75-.81,17,17,0,0,0,5.88-2.66,13.65,13.65,0,0,0,4.15-4.77,15,15,0,0,0,1.55-7.12,13.8,13.8,0,0,0-1.8-6.81A31.67,31.67,0,0,0,471.27,299.48Z" transform="translate(-53.1 -225.65)"/><polygon class="cls-1" points="532.33 39.02 529.11 39.02 529.11 101.83 532.33 101.83 532.33 70.49 568.75 70.49 568.75 101.83 571.97 101.83 571.97 39.02 568.75 39.02 568.75 67.51 532.33 67.51 532.33 39.02"/><path class="cls-1" d="M547.4,322.77a27.83,27.83,0,0,1-4.46,1.3,29.24,29.24,0,0,1-6.07.56,32.16,32.16,0,0,1-12.27-2.23,27.22,27.22,0,0,1-9.23-6.07,26.6,26.6,0,0,1-5.82-9,31.43,31.43,0,0,1,0-22.3,26.4,26.4,0,0,1,14.81-15.11,30.53,30.53,0,0,1,11.89-2.23,34.56,34.56,0,0,1,5.76.43,26,26,0,0,1,4.27,1.05,16.31,16.31,0,0,1,3.59,1.49l1.73-3q-2-.86-4.21-1.61a47.85,47.85,0,0,0-4.83-1.11,35.71,35.71,0,0,0-6.32-.5,33.19,33.19,0,0,0-12.08,2.23A30.91,30.91,0,0,0,514,273a31.29,31.29,0,0,0-9.73,23.1,32.52,32.52,0,0,0,2.54,13.13,29.58,29.58,0,0,0,7,10,31.15,31.15,0,0,0,10.41,6.38,35.72,35.72,0,0,0,12.64,2.23,32.92,32.92,0,0,0,6.69-.62,39.85,39.85,0,0,0,5.08-1.36,24.71,24.71,0,0,0,4.21-2l-1.73-3A15.7,15.7,0,0,1,547.4,322.77Z" transform="translate(-53.1 -225.65)"/></svg>