<svg id="Layer_1" data-name="Layer 1" xmlns="http://www.w3.org/2000/svg" viewBox="0 0 1007.87 1019.01"><defs><style>.cls-1{fill:#fdfdfd;}.cls-2{fill:#fcfcfc;}.cls-3{fill:gray;}.cls-4{fill:#404040;}.cls-5{fill:#010101;}</style></defs><title>szor_black</title><path d="M457.73,1050.15q0-507.5-.07-1015c0-2.59.58-3.17,3.17-3.17q502,.11,1003.94.06v1013.6c0,4.49,0,4.49-4.48,4.49ZM941.19,542l.06,1.2A46.52,46.52,0,0,0,923.13,552c-22.67,18.6-48.42,31.9-75.21,43.33-21.86,9.32-43.66,18.72-64.22,30.72-25,14.57-48.22,31.23-66.55,53.94-9,11.17-16.52,23.19-19.53,37.51-.38,1.79-1.55,2.31-3,2.9A185.75,185.75,0,0,1,661,730.25c-1.7.35-2.87.7-2.24,2.82.53,1.77-.78,1.83-2,1.85-11.72.21-23.44.38-35.16.65-1.89,0-2.38-.68-2.31-2.42.11-2.64-.16-5.31.08-7.93s-.74-3.21-3.27-3.19q-25.51.18-51,0c-2.79,0-3.63.64-3.62,3.55q.12,95.52,0,191c0,2.47.44,3.29,3.16,3.27,17.24-.15,34.48-.12,51.72,0,2.35,0,3.08-.48,3-3-.14-12.65,0-25.29-.12-37.94,0-2.57.66-3.29,3.22-3.3a240.26,240.26,0,0,0,45.84-5c2.57-.51,6-2.73,7.43-1.37s1.19,5.14,1.42,7.87c.17,2.09.76,2.75,3,2.19,25.87-6.5,51.29-14.31,75-26.87,41.28-21.89,83.46-41.81,127.19-58.34,13.2-5,26.53-9.6,40.38-12.5,9.8-2,19.87-1.84,29.72-3.75,16.55-3.22,31-10,40.26-24.55,7.18-11.26,16.73-19.68,27.89-26.62,10.91-6.8,21.7-14,33.62-18.77a204.12,204.12,0,0,0,43.4-23.64c6.51-4.69,13.47-9.06,18.47-15.41,19.47-24.74,38.68-49.67,57.94-74.58a9.14,9.14,0,0,1,5.16-3.58,41.26,41.26,0,0,0,13.91-6.61c2.22-1.62,3.89-3.55,4.26-6.38a24.38,24.38,0,0,0,9.09-12.83c1.72-6.7.79-13.89-4.68-19.45-1-1-2.54-1.8-1.8-3.68,26.09,0,52.18.07,78.27-.09a209,209,0,0,0,36.66-3.33c6.87-1.26,11.72-4.73,14.77-11a158.85,158.85,0,0,0,6.14-15.29c1-2.75.43-3.37-2.49-3.36-20.45.08-40.91,0-61.36,0q-131,0-262.05.09H584.4c-.8,0-1.61.07-2.41,0-2-.22-2.73.31-1.92,2.45a130.17,130.17,0,0,0,8.2,18.14,18.84,18.84,0,0,0,13.82,9.7,171.73,171.73,0,0,0,30.85,2.69q145.68,0,291.36,0C929.93,541.81,935.56,541.93,941.19,542Zm176.51-171.5c0-23.25-3.3-43.76-11-61.61-12.61-29.43-32.84-49.94-66.24-53.61-22.09-2.42-42.56,2.14-59.88,16.89-17.66,15-27.34,34.76-32.5,57-4.75,20.47-5.26,41.22-3.27,62,1.83,19.13,6.76,37.4,16.57,54.16,24.81,42.42,68.9,47.17,100.57,34.5,20.4-8.17,33.5-24,42.73-43.32C1114.69,415.63,1117.46,393.29,1117.7,370.49ZM1245.81,376c16.74-6.08,26-18.36,29.72-34.91a89.44,89.44,0,0,0-1.78-46.31c-5.17-16.84-16.37-27.79-33.2-33a82.88,82.88,0,0,0-24.45-3.52c-18.73,0-37.47.09-56.21-.05-3.12,0-3.93.74-3.92,3.91q.33,67.25.38,134.49.09,40.69,0,81.38c0,2.62.66,3.24,3.21,3.16,6.32-.21,12.65-.26,19,0,3,.12,3.5-.82,3.49-3.61-.14-29.31-.14-58.62-.16-87.93,0-1.48-.64-3.16,2.15-3.11,9.88.18,19.78-.18,29.65.21,10.81.43,19.64,4.92,25.85,14.13a126.46,126.46,0,0,1,11.35,21.57q11.8,27.84,23.56,55.7c.48,1.15.5,2.82,2.47,2.81,8.45,0,16.89,0,25.63,0-.33-1-.45-1.58-.67-2.09-9.17-21.73-18.09-43.58-27.63-65.16C1267.79,399.06,1260.86,384.58,1245.81,376ZM797.08,456c.94-1.44,1.66-2.58,2.42-3.7C835.35,399.55,871,346.65,907.22,294.09c5.88-8.55,9.3-16.8,8.28-27.25-.78-8-.17-8.06-8.43-8q-67.94.09-135.86.12c-2.87,0-3.69.66-3.57,3.57.26,6.19.3,12.41.05,18.61-.11,3,.9,3.49,3.66,3.48q54.14-.21,108.28-.2h3.94c-1.21,1.82-2,3.05-2.85,4.27L776.18,442.81c-3.61,5.31-8.56,10.23-10.36,16.1s-.29,12.76-.53,19.19c-.12,2.91.5,3.77,3.65,3.76q72.75-.28,145.52-.29a20.22,20.22,0,0,1,2.06,0c1.49.16,2-.42,2-1.93-.06-7.24-.08-14.49,0-21.73,0-1.55-.56-2-2-1.89-1,.09-2.07,0-3.1,0ZM609.45,441.19c0,6.34-.09,12,0,17.6.09,4.44-1.78,10,.71,13s8,4,12.31,5.57c23.19,8.51,46.87,12.07,71.32,6.46,22.1-5.08,37.54-17.66,43.75-40.06a89.43,89.43,0,0,0,2.34-33.16c-2.27-22.42-12.82-39.06-33.48-48.9-10-4.78-20.82-7-31.51-9.6-8.91-2.15-17.89-4-26.16-8.25a25,25,0,0,1-13.87-18.55,50.22,50.22,0,0,1-.58-13.73c1.08-12.41,7-21.72,18.33-27.12,12-5.69,24.68-5.85,37.45-3.74,13,2.15,25,7.4,36.44,13.86,2.37,1.34,2.77.87,2.72-1.65-.14-7.35-.36-14.72,0-22.06.18-3.71-1.2-5.11-4.47-6.22-21.92-7.41-44.21-11.86-67.34-7.68-22.46,4-38.19,16.58-45.6,38.57-3.46,10.29-3.84,21-3,31.7,1.68,20.24,11.12,35.37,29.81,44.18,2.69,1.27,5.43,2.43,8.2,3.52,10.83,4.27,22.36,5.92,33.53,8.93,9.73,2.63,19.35,5.9,25.84,14.1,9.62,12.18,10.1,26.18,5.4,40.19-5.3,15.82-18.37,21.68-33.75,23.61-16.69,2.09-32.36-1.66-47.44-8.61A169.94,169.94,0,0,1,609.45,441.19Z" transform="translate(-457.66 -32)"/><path class="cls-1" d="M457.73,1050.15H1460.29c4.48,0,4.48,0,4.48-4.49V32.06c.22.15.72-.34.7.35,0,.92,0,1.84,0,2.76q0,506.28.07,1012.56c0,2.59-.58,3.17-3.17,3.17q-500.76-.11-1001.53-.11C459.82,1050.79,458.49,1051.59,457.73,1050.15Z" transform="translate(-457.66 -32)"/><path class="cls-1" d="M1197.34,577.8c-.37,2.83-2,4.76-4.26,6.38a41.26,41.26,0,0,1-13.91,6.61,9.14,9.14,0,0,0-5.16,3.58c-19.26,24.91-38.47,49.84-57.94,74.58-5,6.35-12,10.72-18.47,15.41A204.12,204.12,0,0,1,1054.2,708c-11.92,4.81-22.71,12-33.62,18.77-11.16,6.94-20.71,15.36-27.89,26.62-9.31,14.6-23.71,21.33-40.26,24.55-9.85,1.91-19.92,1.71-29.72,3.75-13.85,2.9-27.18,7.52-40.38,12.5-43.73,16.53-85.91,36.45-127.19,58.34-23.67,12.56-49.09,20.37-75,26.87-2.23.56-2.82-.1-3-2.19-.23-2.73.14-6.39-1.42-7.87s-4.86.86-7.43,1.37a240.26,240.26,0,0,1-45.84,5c-2.56,0-3.25.73-3.22,3.3.14,12.65,0,25.29.12,37.94,0,2.48-.7,3-3,3-17.24-.1-34.48-.13-51.72,0-2.72,0-3.16-.8-3.16-3.27q.1-95.52,0-191c0-2.91.83-3.57,3.62-3.55q25.53.19,51,0c2.53,0,3.53.51,3.27,3.19s0,5.29-.08,7.93c-.07,1.74.42,2.46,2.31,2.42,11.72-.27,23.44-.44,35.16-.65,1.2,0,2.51-.08,2-1.85-.63-2.12.54-2.47,2.24-2.82a185.75,185.75,0,0,0,33.64-9.82c1.43-.59,2.6-1.11,3-2.9,3-14.32,10.52-26.34,19.53-37.51,18.33-22.71,41.6-39.37,66.55-53.94,20.56-12,42.36-21.4,64.22-30.72,26.79-11.43,52.54-24.73,75.21-43.33a46.52,46.52,0,0,1,18.12-8.84l6-1a15.33,15.33,0,0,0-6.1-.17c-5.63-.06-11.26-.18-16.89-.18q-145.68,0-291.36,0a171.73,171.73,0,0,1-30.85-2.69,18.84,18.84,0,0,1-13.82-9.7,130.17,130.17,0,0,1-8.2-18.14c-.81-2.14-.08-2.67,1.92-2.45.8.08,1.61,0,2.41,0h425.49q131,0,262.05-.09c20.45,0,40.91.11,61.36,0,2.92,0,3.48.61,2.49,3.36a158.85,158.85,0,0,1-6.14,15.29c-3.05,6.29-7.9,9.76-14.77,11a209,209,0,0,1-36.66,3.33c-26.09.16-52.18.08-78.27.09-18.37,0-36.74,0-55.11.07-1.93,0-3.89-.45-5.81.16-15.78-.43-31.57-.39-47.36-.09l-42.87,0a9.25,9.25,0,0,0-1-.11H965.39c1.39.58,2,.84,2.57,1.07,12.46,4.72,16.33,12.64,12.39,25.5a60.43,60.43,0,0,1-23.82,32.73c-13.44,9.42-26.74,19-40,28.6a37.71,37.71,0,0,0-12.41,15.78c-2.12,4.77-1.52,6.62,2.27,10.15a17,17,0,0,1,1.69,2.15c-.18.65.21,1.09.58,1.52,8.55,10,20,14.74,32.47,17.37a5.57,5.57,0,0,0,2.36-.31c27.11-7,54.21-14,80.82-22.82a14.21,14.21,0,0,0,5-3q13.62-11.93,28.31-22.51c9.61-6.89,19.23-13.84,30.81-17.23a3.91,3.91,0,0,0,1.86-1.43A286.6,286.6,0,0,1,1117.3,582c16-14.23,33.57-24.85,55.61-26.12C1188,555,1199.61,560.62,1197.34,577.8ZM591.68,904.07a14.78,14.78,0,1,0-14.93-14.82A14.87,14.87,0,0,0,591.68,904.07Z" transform="translate(-457.66 -32)"/><path class="cls-2" d="M1117.7,370.49c-.24,22.8-3,45.14-13,66-9.23,19.32-22.33,35.15-42.73,43.32-31.67,12.67-75.76,7.92-100.57-34.5-9.81-16.76-14.74-35-16.57-54.16-2-20.8-1.48-41.55,3.27-62,5.16-22.2,14.84-41.93,32.5-57,17.32-14.75,37.79-19.31,59.88-16.89,33.4,3.67,53.63,24.18,66.24,53.61C1114.4,326.73,1117.73,347.24,1117.7,370.49Zm-26.88,0a201.89,201.89,0,0,0-2-27.13c-2.39-15.23-7.08-29.56-15.93-42.43-20.38-29.66-63.72-29.12-83.71-.81a89.05,89.05,0,0,0-13.41,28.45c-6,22.32-6.28,45-3.2,67.69,2.11,15.61,7,30.28,16.23,43.37,19.12,27.21,53.23,26.48,71.6,12.81,9.19-6.84,15.5-15.88,20.16-26.16C1088.6,408.54,1090.53,389.66,1090.82,370.48Z" transform="translate(-457.66 -32)"/><path class="cls-2" d="M1245.81,376c15,8.63,22,23.11,28.43,37.7,9.54,21.58,18.46,43.43,27.63,65.16.22.51.34,1.06.67,2.09-8.74,0-17.18,0-25.63,0-2,0-2-1.66-2.47-2.81q-11.82-27.84-23.56-55.7a126.46,126.46,0,0,0-11.35-21.57c-6.21-9.21-15-13.7-25.85-14.13-9.87-.39-19.77,0-29.65-.21-2.79-.05-2.15,1.63-2.15,3.11,0,29.31,0,58.62.16,87.93,0,2.79-.51,3.73-3.49,3.61-6.31-.26-12.64-.21-19,0-2.55.08-3.22-.54-3.21-3.16q.12-40.68,0-81.38-.12-67.25-.38-134.49c0-3.17.8-3.93,3.92-3.91,18.74.14,37.48,0,56.21.05a82.88,82.88,0,0,1,24.45,3.52c16.83,5.17,28,16.12,33.2,33a89.44,89.44,0,0,1,1.78,46.31C1271.83,357.59,1262.55,369.87,1245.81,376Zm-64.15-53.76h.16q0,18.45,0,36.89c0,1.34-.38,2.74,1.92,2.67,12.51-.36,25,.58,37.54-.67,13.77-1.38,24-10,27.49-23.36a65.38,65.38,0,0,0,1.57-21.87c-1.56-20.54-13.82-32.37-34.33-32.71-10.57-.18-21.14.05-31.71-.12-2.51,0-2.7,1-2.69,3C1181.7,298.06,1181.66,310.13,1181.66,322.19Z" transform="translate(-457.66 -32)"/><path class="cls-2" d="M797.08,456H913.4c1,0,2.07.07,3.1,0,1.44-.13,2,.34,2,1.89-.07,7.24,0,14.49,0,21.73,0,1.51-.5,2.09-2,1.93a20.22,20.22,0,0,0-2.06,0q-72.76.1-145.52.29c-3.15,0-3.77-.85-3.65-3.76.24-6.43-1.28-13.3.53-19.19s6.75-10.79,10.36-16.1L880.72,288.64c.83-1.22,1.64-2.45,2.85-4.27h-3.94q-54.15.08-108.28.2c-2.76,0-3.77-.48-3.66-3.48.25-6.2.21-12.42-.05-18.61-.12-2.91.7-3.57,3.57-3.57q67.93.06,135.86-.12c8.26,0,7.65,0,8.43,8,1,10.45-2.4,18.7-8.28,27.25C871,346.65,835.35,399.55,799.5,452.34,798.74,453.46,798,454.6,797.08,456Z" transform="translate(-457.66 -32)"/><path class="cls-2" d="M609.45,441.19a169.94,169.94,0,0,0,21,12c15.08,6.95,30.75,10.7,47.44,8.61,15.38-1.93,28.45-7.79,33.75-23.61,4.7-14,4.22-28-5.4-40.19-6.49-8.2-16.11-11.47-25.84-14.1-11.17-3-22.7-4.66-33.53-8.93-2.77-1.09-5.51-2.25-8.2-3.52-18.69-8.81-28.13-23.94-29.81-44.18-.89-10.71-.51-21.41,3-31.7,7.41-22,23.14-34.52,45.6-38.57,23.13-4.18,45.42.27,67.34,7.68,3.27,1.11,4.65,2.51,4.47,6.22-.36,7.34-.14,14.71,0,22.06,0,2.52-.35,3-2.72,1.65-11.43-6.46-23.39-11.71-36.44-13.86-12.77-2.11-25.45-2-37.45,3.74-11.38,5.4-17.25,14.71-18.33,27.12a50.22,50.22,0,0,0,.58,13.73,25,25,0,0,0,13.87,18.55c8.27,4.21,17.25,6.1,26.16,8.25,10.69,2.58,21.47,4.82,31.51,9.6,20.66,9.84,31.21,26.48,33.48,48.9a89.43,89.43,0,0,1-2.34,33.16c-6.21,22.4-21.65,35-43.75,40.06-24.45,5.61-48.13,2.05-71.32-6.46-4.29-1.57-9.74-2.45-12.31-5.57s-.62-8.58-.71-13C609.36,453.16,609.45,447.53,609.45,441.19Z" transform="translate(-457.66 -32)"/><path class="cls-3" d="M1197.34,577.8c2.27-17.18-9.35-22.81-24.43-21.95-22,1.27-39.64,11.89-55.61,26.12a286.6,286.6,0,0,0-27.09,27.46,3.91,3.91,0,0,1-1.86,1.43c-11.58,3.39-21.2,10.34-30.81,17.23q-14.7,10.54-28.31,22.51a14.21,14.21,0,0,1-5,3c-26.61,8.78-53.71,15.82-80.82,22.82a5.57,5.57,0,0,1-2.36.31c-12.5-2.63-23.92-7.32-32.47-17.37-.37-.43-.76-.87-.58-1.52,4-.23,8,.1,12-.59,8.52-1.47,16.42-4.79,24.46-7.75,9.21-3.39,18.49-6.6,27.73-9.89,6.06-1.64,12.25-2.73,17.78-6.05,16.72-10,33.62-19.74,50.9-28.8,9.85-5.16,20-9.77,30.08-14.35,3.23-3.26,6.42-6.56,9.7-9.77,16.48-16.1,34.09-30.47,56.73-37.16.79-.23,1.56-.41,1.67-1.4,1.92-.61,3.88-.16,5.81-.16,18.37-.06,36.74,0,55.11-.07-.74,1.88.83,2.7,1.8,3.68,5.47,5.56,6.4,12.75,4.68,19.45A24.38,24.38,0,0,1,1197.34,577.8Z" transform="translate(-457.66 -32)"/><path class="cls-4" d="M941.19,542a15.33,15.33,0,0,1,6.1.17l-6,1Z" transform="translate(-457.66 -32)"/><path class="cls-5" d="M972.17,639.6c-9.24,3.29-18.52,6.5-27.73,9.89-8,3-15.94,6.28-24.46,7.75-4,.69-8,.36-12,.59a17,17,0,0,0-1.69-2.15c-3.79-3.53-4.39-5.38-2.27-10.15a37.71,37.71,0,0,1,12.41-15.78c13.31-9.57,26.61-19.18,40-28.6a60.43,60.43,0,0,0,23.82-32.73c3.94-12.86.07-20.78-12.39-25.5-.6-.23-1.18-.49-2.57-1.07h82.38a9.25,9.25,0,0,1,1,.11c0,1.49-1.2,2.17-2.13,2.95a44.28,44.28,0,0,0-10.92,13.94c-4.68,9.17-9.34,18.31-15.61,26.59-13.44,17.76-28.45,34.09-44.23,49.76C974.55,636.55,972.82,637.63,972.17,639.6Z" transform="translate(-457.66 -32)"/><path class="cls-4" d="M972.17,639.6c.65-2,2.38-3.05,3.74-4.4,15.78-15.67,30.79-32,44.23-49.76,6.27-8.28,10.93-17.42,15.61-26.59a44.28,44.28,0,0,1,10.92-13.94c.93-.78,2.12-1.46,2.13-2.95l42.87,0c1.15,8.92-2.29,16.5-8.17,22.56-7.16,7.38-10,16.46-12.57,25.86-10.13,4.58-20.23,9.19-30.08,14.35-17.28,9.06-34.18,18.76-50.9,28.8C984.42,636.87,978.23,638,972.17,639.6Z" transform="translate(-457.66 -32)"/><path class="cls-5" d="M1070.93,590.4c2.57-9.4,5.41-18.48,12.57-25.86,5.88-6.06,9.32-13.64,8.17-22.56,15.79-.3,31.58-.34,47.36.09-.11,1-.88,1.17-1.67,1.4-22.64,6.69-40.25,21.06-56.73,37.16C1077.35,583.84,1074.16,587.14,1070.93,590.4Z" transform="translate(-457.66 -32)"/><path class="cls-5" d="M591.68,904.07a14.78,14.78,0,1,1,14.88-14.86A14.82,14.82,0,0,1,591.68,904.07Z" transform="translate(-457.66 -32)"/><path class="cls-5" d="M1090.81,370.49c-.28,19.17-2.21,38.05-10.26,55.78-4.66,10.28-11,19.32-20.16,26.16-18.37,13.67-52.48,14.4-71.6-12.81-9.2-13.09-14.12-27.76-16.23-43.37-3.08-22.72-2.78-45.37,3.2-67.69a89.05,89.05,0,0,1,13.41-28.45c20-28.31,63.33-28.85,83.71.81,8.85,12.87,13.54,27.2,15.93,42.43A200.28,200.28,0,0,1,1090.81,370.49Z" transform="translate(-457.66 -32)"/><path class="cls-5" d="M1181.66,322.19c0-12.06,0-24.13,0-36.19,0-2,.18-3,2.69-3,10.57.17,21.14-.06,31.71.12,20.51.34,32.77,12.17,34.33,32.71a65.38,65.38,0,0,1-1.57,21.87c-3.54,13.34-13.72,22-27.49,23.36-12.49,1.25-25,.31-37.54.67-2.3.07-1.92-1.33-1.92-2.67q0-18.43,0-36.89Z" transform="translate(-457.66 -32)"/></svg>