<?xml version="1.0" encoding="utf-8"?>
<!-- Generator: Adobe Illustrator 21.0.0, SVG Export Plug-In . SVG Version: 6.00 Build 0)  -->
<svg version="1.1" id="Réteg_1" xmlns="http://www.w3.org/2000/svg" xmlns:xlink="http://www.w3.org/1999/xlink" x="0px" y="0px"
	 viewBox="0 0 1239.1 1248.1" enable-background="new 0 0 1239.1 1248.1" xml:space="preserve">
<path fill-rule="evenodd" clip-rule="evenodd" d="M519,253.3c-1.7-0.8-5-0.6-7.2-0.6c-2.5,0-5.1,0-7.6-0.1c-25-0.1-22.2,2-22.1-5.5
	c0.1-4.8-0.2-9.9,0.1-14.5c0.4-9.5,0.4-19.8,0.5-29.8c0.1-8.7-0.6-21,0.4-29.2c1.6-13.1,0.9-44.7,1-59.4c0.1-20.1,1.1-38.3,1.1-58.5
	l-19.6,0.7c-1.1,0.3-1.9,0.9-2.2,2.6c0,0,0,1.8,0,1.9l-0.1,12.7c-0.1,28-1.5,55.2-1.8,83c-0.1,10.6,0.4,23.1-0.3,33.5
	c-0.3,5.2-0.9,9.7-0.9,15.9l-0.9,49.8c-0.4,2.6-2,3.5-3.5,5.1c-1.7,1.8-2.2,2.4-3.8,4.4l-16.6,17.6c-1.9,2-5.4,6.2-7.9,8.5
	c0,7.6-0.3,15.3-0.4,22.9c0,3.7,0.1,18.8-1.5,20.6c-6.9-1.5-12-5.6-18.5-7.9l-29.7-10.2c-3.9-0.8-5.6,0.2-4.4,4.4
	c2.9,10.1,3.2,20.8,5.2,31c-3.7-1.4-4.7-3.5-9.7-4.2c-4.4-0.7-8.6-1.9-11,0.6c-0.7,1.3,4.9,35.7,4.9,40.5
	c-11.7-1.3-36.1-10.7-51.9-10.6c-1.3,2.3-2.2,5.2-0.4,8.2c2.2,3.7,7.1,19.9,8.2,24.2c2.1,7.9,8.4,28.3,9.3,34.1
	c-4.6,0.6-11.3,3.2-15.8,2.7c-1.9-2.2-1.5-3.2-4.6-4.9c-5.6,0.6-4.9,1.5-7.6,4.4l-10.5-1.4c-0.6-3.3-1-3.1-3.8-4.4
	c-4-1.8-6.2-5-10.8-2.8c-2.1,1-2.4,2.4-3.3,4.1c-4.8,0.3-27.7-6.3-33.3-8.4c-5.5-2-9.6-3.4-14.9-6c-2.1-1.1-5-1.9-7.3-2.8
	c-2.8-1.1-4.5-2.1-7-3.1c-10.4-4.7-10.5-4-11.8-9.2c-0.8-3.1-3.6-2.7-6.9-3.8c-1.7-0.6-1.9-1.2-3.4-1.7c-4.5-1.6-8.8-1.9-13.5-0.8
	c-2.6,0.6-4.7-1.2-7.3-1.8c-1.8-0.4-2.8,0-4.6-0.5c-1.6-0.5-2-0.7-3.9-1.1c-3.9-0.9-3.4-2.3-8.1-1.4c0.8,4,1,1.9,4.7,4.2
	c0.9,0.6,1.8,1.2,2.7,1.7c7.9,4.5,4.7,4.3,11.2,8.4c0.3,4.2,0.2,4.4,2.9,6.6c1.9,1.5,3.1,2.6,4.9,4c7.7,5.9,5.7,3.5,13,4.3
	c5,0.6,24.8,10.5,31.5,13.9l11.3,6.4c2.2,1.4,2.5,2.4,5,3.9c4.2,2.5,7,4.7,11.2,7.2c3.9,2.3,5.9,5.2,10,7.6l-1.2,3
	c-0.1,3.3,8.6,7,11.1,8.1c2.8,1.2,0.9,0.2,3,2.1c2.5,2.3,5.2,4.2,6.5,7.6c-1.4,2.9-2.7,6.5-2.4,10.5c3.2,2.1,7.5,2.6,11.8,2.4
	c1.7,1.9,2.5,3.4,4.4,4.9l-0.3,4.6c0.6,2,4.6,2,4.8,9.2c-10.4,1.1-28.4-0.2-39.3-0.8c-7.1-0.3-15.4-1.3-22.3-1.2
	c-5.9,0.1-10-1.2-12.9-0.6c-1.3,3.4,0.2,5.6,3.4,4.5c3.3-1.2,2.2-0.3,2.8,0c0.5,3.4-3.3,1.3-4.7,5.5c2.1,0.8,3.3,0.7,5.7,0.2
	l0.5,6.3c-3.9,1-3.3,1.4-5.4,3.1c0,4.7,1.2,6.5,5.1,7.8c3.1,1,1.4-0.5,1.9,1.9c-4.6,2.5-7.6-3.7-14.3,6.1c-1.6,2.4-2.6,4.8-5,6.4
	c-3.1,2-5.6,0.3-6.1,5.3c3.4,2.4,3.9,1,6.7,4.6l3.9,7.3c-3.7-0.2-6.3-2.6-8.3-4.9c-5.4-6.3-14.1-2.2-19.9,0.2
	c-2.3,1-2.3,1.3-4.2,2.1c-6.7,3.1-8.4,14.4-11.6,20.8c-3.1,6.2-5.8,10.8-12.4,13.7c-2.5-0.5-4.4-1.8-6.4-2c-3.7-0.6-4.4,0.9-6.3,1.1
	c-4.1,0.3-7-0.1-10.4,4l3.6,1.3c5.9,0.6,4.2-0.4,9.3,2c3.9,1.9,6.8-3.5,11.7,0.2c5.9,4.5,7.3,15.9,9.4,22.3
	c2.6,7.9,5.7,14.2,12.5,19.2c6.7,5,13.4,0.8,18-0.6c2.4-0.7,4.3-0.1,6.9-0.7c0,1.9-2.6,8-3.5,9.8c-3.1,0.6-3.1,0.1-4.7,2.2
	c1.4,3.3,6.4,3.1,9,9.2c3.1,7.5,6.3,4.7,12.1,6.4l2.1,5.3l-9.3,5c-0.3,4.9,2.4,5.1,5.6,6.4c-0.1,2.6-0.8,4.6-1,7.1
	c-0.2,2.6,0.4,4.4-0.5,7.1c-2.4,2.1-5.1-0.4-6,4.1c2.4,3.1,3.5,1,7.6,1c6.9,0,7,1.7,10.8,1.9c4,0.2,8.3,0,12.1,0.3
	c4.4,0.3,36.8,0.5,41.1-0.2c-0.3,2.3-5.1,9-7.5,8.8c-2.7-0.2-0.5-2.4-6.3-1.6c-1.8,2.6-1.1,3.2-1.4,7.1c-2.2,1-1.1,0.9-3.4,2.1
	l-23.7,11.7c-5.5,2.3-10.4,2.2-15.7,2.2c-5.6,0-14.4-2.6-16.7-2.5c-5,0.1-7.5-1.6-10.8,2.8l-3.5,0.4c-2,1.1-2.6,7.8-1.9,10.2
	c1.4,4.7,4.2,3.8,7,6.6c-0.9,2.7-6.7,3.9-9.7,5.2c-6.7,2.8-4,2-6.3,8.1c-1.3,2.4-5.2,2.9-7.7,2.8c-12.9-0.1-6.4-2.1-14.2-7.5
	c-0.6,0.7-0.8,0.9-1.5,1.5c0.2,3.1,1.5,4.3,1.9,7.2l-1.8,1.1c-2.6-1.3-5.1-4.9-8.5-1.9c1,3.3,4,4,5.1,7.2c-3.2-0.6-7.3-1.3-8.6,2.2
	c1.4,1.6,3.2,1.2,4.8,2.6c-2.4,2.7-4,0.9-5.2,5.3c3.4,1.6,5.6,0.4,9.2-0.8c-1.2,3.8-5.7,5.1-2,9.4c1.6-0.5,3.2-2.1,4.6-3.6
	c1-1.1,1.3-1.6,1.9-2.5l1.9-2c1.2,2.9,0.8,5.3,0.4,8.9c-3.6,1.4-6.4,4-9.9,5.8l-10.8,4.4c-7.4,2.9-7.1-0.6-12.9,1.1
	c-2.9,0.9-4.7,3.1-5.4,6c-0.3,1.1-0.3,0.5-0.2,1.6c0.2,3.4,3.3,0.7,5.7,0.8c1.6,0,3.4,1.1,4.8,1.4c4,0.8,6.3-3.9,7.3-4.5
	c11.2-1.3,6.5,0.3,13.9-5.4c7.3-5.7,6.7-1.3,12.5-4.6c5.5-3.1,5.3-5.7,14-4.6c2.4,0.3,5.2-0.4,6.8-1.8c1.4-1.2,2-4.5,4-4.5
	c2.1,0,2.6,0.8,5.6-0.3c3.3-1.2,3.8-4.8,8.4-4.3c2.8,0.3,0.9,1.3,4.8,2c7.9-12.2,19.9,0.4,23.9-7.5c3-5.8,4.3-0.4,9-1.2l5.8-2.4
	c4.1-1.7,7.4-3.3,11.5-5c3.2-1.4,9-3.3,12.6-3.9l14.9-1.8c1.7,2,2.4,4.3,4.8,5.8c2.6,1.6,4.1,0.3,7.7,1.1c8.5,2,12.6,1.2,15.1,5.8
	c-1.7,1.7-5.6,4.3-7.5,5.8l-13,7.3l-9.9,2.7c-2,0.6-1.5-0.4-4.3,0.8c-1.1,4.4,1.7,5.1,3.9,8.6c1.6,2.7,3.1,5.2,2.5,8.6
	c-2.8,0.7-2.6-0.8-3.9-2.8l-6.1-9.1c-3.2-3-5.6-4.1-8.8-0.7c-6.3,6.6,0.5,6,1,9.8c0.1,1-0.9,1.7-1,2.1c-0.5,1.5-0.2,1.6-0.3,2.9
	c-0.1,1.8-0.6,3.5-0.6,5.7c0.1,4.3,0,6.2-5.1,7.4L253,832.8l-4.2,0c-1.6,1.9-2.5,3.5-5.5,4.6c-2.6-1.7-3.3-3.2-4.9-5.9
	c-14,5.5-22.1-4.7-29.9-3.3c-0.2,0.3-1.9,0.1-0.6,2.8c1.3,2.6,18.7,12.8,23.4,17.1c0.6,0.5,1.5,1.5,1.9,1.9c5.6,4.8,6,6,8.1,7.8
	c4.7,3.9,13.6,17.5,17.8,22.7c1.2,1.5,2.1,2.6,3.3,4.3c2.5,3.5,4.4,5.3,6.8,9.1l15.7,24.8c1.3,2,1.4,3.2,2.6,5
	c7.6,11.9,16,30.3,19.9,44.1c0.4,1.5,1.4,4.8,1.6,6.5c0.2,2-1.1,8.7,2.8,8.5c4.3-2,2.2-5.6,2.6-9.8c0.2-2.3,4-11,5.5-12.8
	c1.2-1.5,2.1-1.9,2.7-3.6c2.2-6.1-5.1-8,0.5-12.1c1.8-1.4,0.9-0.8,2.3-2.5c-1.3-7.1-5-8.6-7.2-13.9l1.5-2.9c3.8,0.5,3.8,1.2,6.8,2.1
	c3.5,1,3.5,0,7,0.1c1.2,4-0.1,4.8,2.5,6.8c2.1-0.6,4.1-2.2,5.9-3.3c7.9-4.7-1.8-11.2-3.2-17.7c2.7,0.1,5.2,3.1,6.7,6
	c1.3,2.6,1.6,7.2,5,7.4c6.9-11.6,4.3-7.2,12.9-14.8c6.2-5.4,16.2-9.2,22.7-14.1c2.2-1.6,2.8-2.6,5.7-3.3c0.3,3.7,2.5,5.7,5,6.8
	c-0.9,2.7-12.8,19.8-15.4,23.5c-4.1,5.9-7.8,11.1-10.8,17.6c-1.6,3.6-1.4,3.4-3.5,5.8c-8.4-3.5-9.6,14.3-17.7,14.9
	c-4.1,0.3-10-4.9-9.6,1.8c0.1,1.4,0.7,2.3,1.3,3.2l-0.4,0.9c-3.1,5.7,1.1,6.1,5.6,9.1c2.2,1.4,3.1,3.2,4.7,4.8
	c3,2.8,1.3,2.3,3.6,5.3c2.1,2.8,8.5,5.6,11.8,6.6c5.5,1.6,6.2,4.1,13.3,5c1.9-2.8,1.3-2.8,2-6.9c2.1,0.3,7.9,2.6,10.1,3.6
	c1.9,0.8,3.4,1.1,5.2,1.8l24.5,9.8c1.4,0.6,3.3,1.8,4.6,2.3c2.9,1,2.4,0.6,4.9,2.1c7.9,4.7,20.6,7.1,29.2,11.2
	c-0.1,2.9-1.4,4-2.7,5.6c0.2,4.7-0.6,5.7,3.1,6.7c2.7,0.7,3.3,1.7,6.3,2.5c6.3,1.7,12.3,2.2,20.5,6.1c1.8,0.9,3.6,2.6,5.7,3
	c7.3,1.3,7.1-3.8,9.1-7.8c7.9,1.3,12-2.2,15.5-6.5l-0.9-4.2c0.5-0.4-1.1-1.6,2.2-0.5l4.3,3.5c1.9,2.6,2.3,3.7,6.4,4
	c3.1-4.4,0-15.7,1.7-17.8c2.2,1.5,1.2,1.9,3.3,3.6c7.9-1.8,0.1-3.8,11,0c0.9-0.8,1.2-1,2-1.9c0.8-4.4-2.6-7,3.4-7
	c2.4,0,2,0.7,4.5,1.1c5.1,0.9,7.9,4.4,13.4,1.6c3.2-1.7,3.7-3,5-6.4c3.3-1.6,12.7-0.5,16.2,0.8c2.8,1.1,11.9-0.4,14.7-1.7
	c0.7-12.8-4.7-6.7-0.2-29.9c0.6-3.2,1.1-9.7,4.2-10.7l0.9,5c0.8,5.2,0.2,10.3,1.2,15.4c1.4,7.1,1.8,9.3-1.9,14.7
	c0.8,3.5,2.2,2.4,2.3,6.9l-0.4,25.4c-0.1,2.4,0.4,6.1,0.5,8.9c0.1,3.5-3.8,9.2,3.6,12.2c10.2,4.2,5.2,1.5,4.9,15l0.3,21.6
	c-0.4,5.6-3.7,9.1,7.4,11.1c0.9,6.4-1.9,1.9-3.4,6.8c-3,9.4,0.7,18.9,0,22c-2.5,4.3-2.4,4.5,0,8.7c6.4,0.3,4.4,3,4.4,9.7
	c0,4.1,0.3,9.4-0.1,13.3c-2.5,3-4,2.8-3.6,8.2c0.5,7.4,6.6,8.7,12.1,11.2c1.7,0.8,1.3,1.1,3.9,1.8c1.4,0.4,3.1,0.7,4.5,1
	c0,3.4-0.6,2.1-0.8,3.3c-0.2,1.1,0.5,1.2,0.1,3.5c-0.4,2.8-1,3.9-1.2,7.1c-3.2,2.4-9.8,4.7-6.2,10.7c3.2,5.4,4.9,6.6,10.5,9.1
	c8,3.5,25,3.2,34.5,3.2c9.3,0,50.2-6.2,56.4-12.2c0.9-0.9,0.5-0.6,1.4-1.2c1.6-1.2,2.6-1.9,3.1-3.9c-0.6-0.7-0.1-0.3-1-1
	c-1.9-1.5-2.8-3.5-4.8-5.1l1.3-23.8c4.1-1.4,13.5-3.1,14.7-7.4c1.6-5.8,1.2-3.1,0.6-9.1c-0.3-2.6,1.2-0.8-0.6-3.7l-2-3.2
	c-2.3-0.1-3.2-0.1-4.7-0.8c-0.8,1.9-1.5,1.9-4.1,2.3l0.7-17.3c0-5,1.7-3.6,1.7-8.3c-0.6-1.6-3.3-2.2-4-3.7c-0.3-5.9,0.8-15,1.2-21.4
	c0.2-4-1.1-4.7,0.3-9.7c1.3-4.8-0.3-4.9-3.1-6.9c0.5-8.4,0.4-17.4,1.6-25.7c0.3-2.4,0.7-5.1,0.3-7.7c-0.4-2.8-1.3-4.3-1.2-7
	c5.1-2.6,4.2-2.4,2.2-8.2l-4.9-0.7c-3.2-8.1-0.8-5.9-0.7-10.8c0.1-2.1-0.8-3.9-1-5.7c-0.7-5.9,0.2-10.9-1.4-17
	c-1.1-4-2.4-6.5-2.5-10.8c1.6-1.2,3.2-1.1,4-2.3c0.4-0.5,1.3-4,1.5-4.7c-1.4-2.1-1.8-1.8-4.2-3.1c-0.1-3.4-1-11.3-1.8-14.1
	c-1.5-4.9-2.9-12-2.4-16.7c1.5,0.5,4.6,5.3,5.9,6.9c1.4,1.7,1.9,2.2,3.2,3.8c4.2,4.9,7.5,9.4,12,13.9c2.6,2.5,8.6,11.7,12.6,14.1
	c1.9,1.1,2.4,1.5,4.7,0.6c6-2.3,13.1-2,20.9-5c8.2-3.1,15.1-7.3,22.2-11.4l26.5-18.5c4.1-2.8,6.8-5.9,10.4-9.3
	c3.7-3.4,1.7-4.4-0.2-8.1c-0.7-1.3-1.3-2.8-1.8-3.9c-2.2-4.9-1.4-3.9,3.5-4.9c2.4-2,1.6-3.7,1.4-6.7c11.1-8.8,10.3-2.9,11.5-13.1
	c2.5-0.6,3-0.3,5.4-1c2.9-1,2-0.6,5.4-0.3c0.9-0.9,1.7-2,2.6-3c4.3,1,7.3,2.3,10,5.3c2.1,2.3,5.3,2.6,8,3.4c0.6,0.2,2,1.1,2.4,1.3
	c8.2,4.9,2.5,4.8,6.5,7.5c2,1.4,6.9,1.8,9.1,0.1l2.3-1.8c5.7,3.5,7.3,16,16.9,19.5c8.7,3.2,12.6-5.5,15.8-10.5l17.2-27.8
	c3.3-5.3,9.1-19.3,9.1-27c0.2-20.6-1.7-14.8-9.2-19.4c-0.1-0.9-0.1-0.5,0-1.3c1.6-14.5-3.2-7.4-12.1-15.1c-2.6-2.2-3.5-3.3-5.4-6
	c-4-5.9-4.9-4-8.7-7.7l-6.5-5c-1.5-0.9-2.2-0.4-2.8-2.7c-2-7.5,0.1-10.4-10.1-11c-1.1-2.4-2.3-3-3.6-6.5c-2.3-6.3-9.8-9.7-13.9-15.3
	c3.5-10,4.8-11.4,13.9-16c5.9-2.9,12.3-9.8,18.6-11.3c-0.9,3.6-2,3.3-5.2,4.9c0,2.7,0.7,4.3,2,5.8c3.5,0.1,3.6-1.5,6.3-2.6
	c2-0.8,4-1.4,6.3-1.7c0.3,11.9-2.5,9.7-2.8,12c0.6,2.7,1.1,3.5,2.8,5c3.8,1.6,7.2-6,11.2-8.5c4.7,7.5-1,10.8,0.4,14.7
	c1.5,4.1,6.6,0.6,8.6-0.4c0-1.8-0.4-4.4,0.7-5.8c0.5-0.7,2.7-1.6,3.9-1.8c1.8,1.2,3,3,3.4,5.7c-1.2,2.7-4.9,5.1-1.6,8.3
	c3.2,3.1,6.5-0.4,8.2-2c1.4-3-1.3-6.3,5.3-7.6c6.1,6.4-0.3,4.6,3.5,12.1l4.7-0.1c3.1-1.4,1.3-6,2.3-8.3c0.9-1.9,2.1-2.8,3.9-3.3
	c1.9,1.6,4.2,2.6,4.3,5.3c0.1,4,0.1,4.3,3.9,5.2c7.6-3.6,1.3-4.4,6.5-10c9.6,0.1,1.5,10,13.8,3.8c-0.3-3.4-1.8-4.4-1-7.6
	c4.1-0.9,4.7,2.4,7.1,4.8c7.9-0.1,2.8-7.7,7.1-13.9l4.1,0.9c1.5,3.2-0.1,2.1,2.9,4.1c3.9-0.7,4.5-1.7,2.7-5.3
	c-1.2-2.4-1.6-5.3-1.7-7.7c0.1-0.1,0.3-0.2,0.4-0.2l4.2-2.2c1.2,0.6,1.1,0.3,2.2,1.6c1.2-0.2,1.4,0,2.7-0.4c5.4-1.3-0.3-5.7-1.3-7.2
	c-4.2-5.8,3-5.4,6.5-6.1c3.6-0.7,2.9-3.2,1.7-5.8c-3.4-2-4.4-1.9-5.8-6.1c1.2-1.1,4.1-3.3,5.6-3.5c2.9-0.4,4.9,0.9,5.9-2.6
	c1.7-5.9-7.6-5.3-9.8-8.5c2.2-3,3.9-2.6,8.4-2.6c2.2-3.4,3.3-4.3,1.2-8.3c-2.5-4.9-4.7-0.4-7.6-1.2c-1.6-0.4-1.3-1.5-0.2-2.6
	c1.6-1.6,2.1-0.9,4.1-1.6c2.6-1,0.2-0.6,2.6-2.1c0.5-9.3-5.5-2.5-8.8-8.1l1.7-0.6c0.9-0.3,0.5-0.1,1.5-0.5c4-1.3,4.8-5,3.2-8.2
	c-4-0.6-5.8,0.3-9.6-1c-0.1-5.2,6.5-5.2,3.2-12.6c-3.7-0.4-4,0.6-6.5,2.1c-6.5,0.1-5.5-1.3-5.1-6.5c0.3-4.7,3.4-6.7-0.6-9.5
	c-2.1-0.7-7.8,3.4-10.1,4.2c-1.2-1.4-1.4-2.5-1.8-4.3c3.7-3.5,3.9-4.6,1.3-9.4c-5.2-0.4-5.5,3.3-10.3,4.7c-1.7-1.8-0.8,0.2-1.7-2.8
	c2.2-2.4,1.3-0.2,3.3-3.8c-0.1-0.2-0.1-0.4-0.2-0.5c-1.2-3.7-3.6-7.5-7.5-3.1c-1.7,2-0.4,0.8-1.4,3c-1.7,1.2-2.7,1.5-5.2,1.7
	c-4.1-1.1-3.6-7.9-4-11c-3.2-0.4-3.4,0.5-5.4,1.8l0,4.6c-2.5,1-1,0.1-2.5,2.2c-6.8-0.8-5.1-2.1-5.6-5.6c-0.5-3.7-4.4-2.6-6.4-0.4
	c-0.7,3.6,0.1,4.4-2.1,6.7c-3,0.2-3.6-0.5-4.5-3c-1.5-4.2-7.9-6-8.1,0c-0.2,4.2,1.7,1.8-0.3,6.7c-5.1-0.7-3.9-2.4-5.2-6.8
	c-7.2-1.6-6.1,5.3-8,11.4c-2.1-0.1-2.8-0.5-4.5-1.5c-1.4-0.8-2.6-2.2-3.6-2.7c-2.7-1.4-3.9-1.1-6.7-5.4c-2.8-4.4-8.9-7.9-10.7-12.9
	c8.5,0.1,22.9,0.7,30.5-1.1c4.3-1,2.3-1.3,7.3-1.2c8.5,0.3,18.4,0.7,26.6-0.4l33-1.9c4.2,0,7.1,0.6,11.4,0.6l23.4-0.7
	c3.8-0.2,7.3-0.2,10.7-0.3c11-0.4,21.7,0.4,32.6-1.3c7.7-1.2,11.4,4.5,24.3-3.6l6.8-3.2c3.2-1.6,2.3-2.3,7.1-3.2
	c4.3-0.8,3.9-1.2,6-4.1c2.6-3.6,0.5-3.2,6.2-3.2c12.2,0,10.1-6.8,16.7-8.1c3.4-0.7,8.1-0.8,11.8-1c5-0.2,7.7,0.7,8.7-3.9
	c-4.7,0.2-19.6-0.5-22.9-2.1c-1.3-0.7-3.4-4.5-4.4-5.7c-3.4-3.9-12.4-0.5-17.2-1.9c-1.5-6-0.6-7.6-7.9-8.1c-2.1-0.2-5-0.5-7-0.9
	c-2.7-0.5-3-1.5-5.6-1.9c-9.1-1.6-13.3-6.8-20.7-10.4c-8.8-4.2-13.9-6.3-25.6-6.3c-5.3,0-10.1-0.4-15.2-0.3
	c-4.7,0.2-10.1,0.7-14.6,0.7l-22.8,0.5c-11.1,0.3-28.5,5-32.6-5.5c-4.2-10.8-3.3-23-0.9-34.4c1.5-6.8,5-13.8,10.1-17.8
	c1.6-1.2,3.8-2.5,5.2-3.7c3.4-3.1,7.4-5.5,8-9.6l-1.5-1.6c-4.9-0.2-11.8-0.6-15.1-3.3c-2.8-2.3-5.7-7-7.5-10.6
	c-5.3,0.5-2.4,2.5-8.2,3.9c-1.4,0.3-3.2,0.6-4.6,1.1c-7,2.7-6.2,0.2-14.1,0.7c-5.3,0.3-12.1,0.5-17.3-1c-6.9-2-10.4-8.3-14.1-14.3
	c-6.4-10.4-9.3-33.3-4.8-46.4c2-5.9,5.8-6.1,4.6-12.4l-10.2-2.9c-4.1-1.2-5.3-2.5-7.6-4.9c-1.5-0.7-8.6,3.3-15.3,3.1
	c-2.1-0.1-2.8,0.5-5.6,0.3c-5.2-0.5-5.4-0.3-9.9-2.5c-11-5.3-5.7-4.9-1.8-5.6c4.4-0.8,6.8-3.7,5.8-8.5l-5.5-2.7
	c0.4-3.6,2.7-6.7-0.2-8.8l-2.2-1.3c1.6-2.7,3.5-3.5,5.1-5.8c6.1,0.6,7.6,3.4,16.7,3c3.8-0.2,5.5-0.6,8.3-1.6c2.8-1,4.6-1.4,4.6-5.1
	c-3.5-5-8.5-0.7-9.6-9.5c2.1-1.6,4-3.5,6.6-5.4c2.9-2.2,5.2-1.2,9.8-1.4c4-0.2,6.9-1.4,11-0.4c4.8,1.2,6.7,0.8,7.3-3.6
	c-3.8-5.7-3.4-1.6-7.9-4.5c1.9-6.9,1.3-3.6-1.1-9.4c1.8-2.5,5.2-5.4,7.8-7c3.6,1.3,4.5,1.5,8.9,1.7c4.1,0.1,5.3,2.2,8.9,1.1
	c0.5-1,0.6-4-0.1-5.9c-0.5-1.6-1.2-2.5-2.1-4.2c-4.5-8.7-7.3-21.9-7.3-31.9c0-7.2-0.7-3.8,2.5-6.9c1.8-1.7-1.8,2,0.6-0.7l2.9-3.4
	c1.5-1.6,2.6-0.6,3.4-2.9c0.1-0.1,0.1-0.3,0.1-0.5c0.7-2,1.5-2.6,3.2-3.8c4.2-3,2.3-3.1,4.7-4.9c1.6-1.2,1.9-0.3,3.7-0.8
	c1-2.5,1-1.8,2-3.7c0.6-1,0.4-2.9,1.4-3.7c3.6-1,4.2,1.9,6.4-3.6c-1.8-5.3-5.4-6.8-8.5-1.6c-1.8,2.9-4,4.2-6.4,6.2
	c-1.8,1.4-0.4,0.4-1.5,2.4c-1.1,2.1-2.8,2.9-4.4,4.5c-2.9,3-10.1,10.4-13.4,11.4c-5,1.5-8.6,2.2-14.4,1.1c-13.6-2.5-13.8-2.5-24.5-9
	c-2.3-1.4-3.2-1.4-4.7-3.5c-1.8-2.4-0.9-3.3-4.4-3.9c-0.3,0.4-0.7-0.5-0.9,1.5c-0.1,1.6,1,1.8,0.7,4.6c-0.8,8.1,5,17.4,4.6,19.3
	c-0.9,2.1-3.1,4.3-5.1,5.8c-2.8-0.4-3.5-1.5-6.2-0.6c-1.5,0.5-2.1,1.7-4.1,2.4c-1.7-4.8-2.8-4.4-3.9-11.3l-4.4-0.8
	c-1.6,3.8-4.1,8.1-5.2,12.4c-1.6,6.4,0.9,9.3,1.6,15l-2.6,2.3c-1.5-1.2-1.5-1.2-3.2-2.2c-2.1,1-3.2,2.5-5.7,3.2
	c-4.3-3.1-3.6-5.1-4.6-9.5l-4.9-0.2c-3.6,7.1-4.7,15.3-1.4,22.7c-2.4,0.8-3.6,1.7-5.2,3.6c-2.7,3.2-0.8,4,0.3,6.6
	c-7,10-7.1,4.1-12.8,4l-2,2.7c-3.3-4-3.2-8.2-3.2-13.5c-3.4-2-5.7-2.9-7.3,1.8c-1.7,5-0.5,9.7-0.1,15.2c0.3,3.3,1.5,4.5,2.2,7
	c-0.5,1.6-4.2,4.8-5.4,5.3c-3.4-3.1-1.2-9.1-8.8-4.1c-1.6,8.2-3.8,11.8-8.6,15.6c-6.7,5.4-9.5,4.4-16.6,1.4
	c-1.3-8.2-1.1-53.5-2.3-67.9c-0.6-6.6-0.4-16.6-0.3-23.4c-0.8-0.5-1.4-1.2-2.1-1.6c-1-0.6-1.1-0.4-2.1-0.9l-17.3-10.2
	c-1.5-1-2.8-1.8-4.3-2.6l-8.2-4.7c-3-1.9-22.4-14.1-26.3-15.3l-42.3-9.2c-10.1-1.2-23.8-6-36-7.7c-1.9-0.3-3.4-1-5.2-1.4
	c-2.1-0.4-3.8-0.3-5.5-0.8c-13.3-3.7-27.2-5.7-40.7-8.8l-1.4-0.4c-1.7-0.4-1.1-0.4-2.9-0.1c-1.8,0.3-7.6,3.4-9.2,4.3
	c-6.8,3.9-13.8,6.8-20.7,10.4l-27.1,12.5c-0.1,0.2-0.4,0.6-0.5,0.8l-13.9,27c-1.4,3.8-2.7,5.7-3.3,9.7l-1.9,31.7
	c-0.1,4.2,0.4,4.2-0.8,5.4l-8,3.2c0.3-10.9,1.5-23.6,2.1-34.5c0.5-7.9-0.6-9.3,2.8-15.1c0.6-1.1,1.1-2.4,1.6-3.5
	c0.4-0.8,1-2,1.6-2.8l0.8-1.7c0.5-1,0-0.1,0.7-1.2C520.5,252.9,519.2,253.7,519,253.3 M612.5,268.7c4.3,1.9,4.9,6.6,9,9.9
	c0.3,5.3,0.2,28.6-1,32.3c-3.1,0.9-15.3,0.7-17.3-0.1c-0.8-1.2-0.8,0.4-1-2.9l0.5-29.2L612.5,268.7z M715.3,292.1
	c1.9-2.3,6.5-7.3,9.3-7.7c0.9,1.8,1.7,2.9,2.8,4.7c0.5,0.9,0.6,1.1,1.4,2.3c0.7,1,0.2,0.3,0.8,1.1c1.3,1.8,0.3,13,0.2,15.5
	c-0.1,2.4-0.1,5.2-0.1,7.6c0,4.3,0,3.7-3.8,3.7c-11.1,0-10.2,1-10.2-4.4L715.3,292.1z M560.8,308.4c-1.5-1.9-0.4-2.3-0.3-6.1
	c0-2.3,0-4.6,0.1-7c0.1-4.5-0.1-9.2,0.4-13.5c0.9-7.8-1.1-6,3.3-11.3l4.8-5.3c0.1-0.1,0.2-0.3,0.2-0.4c2.7-3.9,3.7-0.9,5.8,1.9
	c6.3,8.1,6.2,6.2,6.1,14.8l-0.2,20.9c0,1.2,0.1,2.7,0,3.8c0,0.7-0.1,1.1-0.2,1.8c0,0.1-0.2,0.6-0.2,0.5c0,0,0.1,0.7-1.7,1l-14-0.2
	C562.8,309.1,562.2,309.4,560.8,308.4z M772.4,321.6c-1-1.4-0.6,0.8-1.1-2.3l-0.2-21.3l2.3-3.4c0.1-0.1,0.1-0.3,0.2-0.4
	c1.3-2.6,0.4-3.4,4.2-3.8c1.9,6.3,5.3,3.6,5.3,12.5c0,5,0.8,13.2-0.4,17.5C780,321.2,774.1,322.3,772.4,321.6z M644.5,283.9
	c4.2-4.3,6.6-8.4,9.1-9.1c4.7,4.5,3.5,5.7,7.7,8.4l0.3,28.5c-0.1,5-2.4,3.2-9.2,2.9c-2.9-0.2-6.1,0.4-8.7-0.6
	c-0.6-3.9-0.1-11.4,0-15.6c0-1.4,0.1-2.1,0.3-3.4c0-0.2,0.1-0.3,0.1-0.5l0.1-3C644.3,288.9,644.3,286.4,644.5,283.9z M745.1,294.6
	c0.4-0.4,0.7-0.7,1.1-1.2l2.3-3.4c1.2-1.8,2.1-3.2,4-4.1c1.5,1.2,3.4,4.5,4.6,6c3.8,4.7,2.4,9.2,2.6,18.5c0.2,9.2,1.2,9.8-3.4,9.9
	c-10.9,0.2-11.1,0.7-11.3-2.9L745.1,294.6z M679.7,311.8c0-6.8-0.5-15.1,0-21.7c0.2-3.1,2.5-4.6,4.2-6.5l3.8-3.9
	c2.4-1.5,2.7-0.4,5.5,2.9c4.9,5.7,4.5,2.9,4.4,13.8c-0.3,22.7-1,15.5,6.6,17.6l0.3,16c-3.3-0.5-4.9-1.6-7.7-2.6
	c-6.6-2.2-19.2-4.6-24-6.4l0.3-9.2L679.7,311.8z M907.3,406.5c-1.1,2.4-3.6,2.3-6.2,3.8l-20,12.2c-2.9-3.1-5.1-6.3-7.1-9.9
	c-1.3-2.2-2-3.6-3.3-5c-6.1-6.9-2.8-4.2-4.6-8c-0.9-1.9-1.1,0.4-1-3c0.2-6.8,0.6-6.3,7-3.1c3.8,1.9,2.5,1.3,7.1,1.3
	c3.5,0,3.4,6.7,12.5,7.7C894.8,402.9,905.8,405.5,907.3,406.5z M917.5,414c-0.1-2.8,0.3-3.6,1-5.3l4.9,1.9c-0.7,1.4-1,1.7-2.6,2.4
	C919.8,413.4,918.4,414,917.5,414z M908.7,418.4c0,0-2.7-1,1.3-4.2c1.4-1.1,2.5-2,4.2-2.6C913.8,414.6,912.3,418.9,908.7,418.4z
	 M939.4,472.8c-7-1.6-13.3-13.5-16.8-19.6c-1.2-2.1-0.7-2.4-1.8-4.6c-0.7-1.3-1.4-2.3-1.9-3.9c-1.1-3-2-5.6-2.6-9.4
	c-0.3-1.8-0.6-3.5-0.7-5.7c-0.2-3.5,2.7-4.6,9-8c5.9-3.2,4.6-4,7.7-4.3c-3.3,11.9-3.1,25.9,0,37.5c0.9,3.2,2,6.5,3,9.7
	C936.5,468.1,938.7,470.5,939.4,472.8z M853.7,415.6c8.4,0.1,4.6-2.7,9-5.8c1.5,1.6,4.7,5.5,5.9,7.5c1.8,3.1,3.9,5.6,5,8.4
	c-2.6,2.9-7.7,5.6-11.6,7.4c-1.7-1.4-1.5-1.4-2.9-3.2c-3.2-4.2-7.7-7-8.4-10.6L853.7,415.6z M194.9,422.8c-1.5-0.9-0.6-0.1-1.3-1.5
	c0.3-0.2-0.9-1.7,2.3-0.2c0.7,0.3,0.5,0.5,1.4,1.1c2,1.3,1.8,0.5,3,2.2C198.9,425.1,196.6,423.8,194.9,422.8z M888.6,428.8
	c-0.1-1.5-0.2,0.3,0-1.1c0.4-2.6,7.1-5.9,9.6-6l1.8,0.3c0.1-0.2,0.3,0.2,0.5,0.2c0.6,2.1,0.3,2.9-1,4.2c-3,3.2-6.4,5.8-10.5,3.4
	L888.6,428.8z M206.8,428.6c-0.5-0.6,0.6-0.1,0.6-0.1C208.6,428.5,207.6,429.4,206.8,428.6z M207.3,433.4c-0.2-0.2-1.5-0.6-1.6-0.8
	l0.9-0.3c0.1,0.1,0.2,0.2,0.2,0.2L207.3,433.4z M213.4,432.3c0.7-0.6-1.3-1.9,2.6-0.2c2.3,1,1.7,1.1,1.8,1.5L213.4,432.3z
	 M226.9,437.3c-3.1-0.2-3.8-1.2-5.4-2.3c1.4-0.1,1.5,0.2,3,0.7C227.2,436.6,225.9,436,226.9,437.3z M213.4,436.8
	c0.8-0.5,0.1-0.9,1.7-0.6c1.8,0.4,0.3,0.3,1,1L213.4,436.8z M867.7,439.4c3.8-2.6,9.3-6.4,12.1-2.3c-0.5,1-6.8,7.1-8.9,7.7
	C869.4,443.4,868,442.1,867.7,439.4z M225.3,441.3c-1.8-0.1-3.2-1.1-4.5-2C222.8,439.3,223.9,440,225.3,441.3z M230.8,439
	c2.2-1.2,2.6-0.2,2.7,1.6C231.5,440.1,231.9,440.5,230.8,439z M893.8,440.9c2.3-2.1,14.2-9.2,17.6-10.4c2.1,3.5,1.7,11.1,4.4,18.6
	c2.4,6.7,4.3,8.5,7.7,14.4c2.2,3.8,3.5,5.8,6.2,8.4c6.5,6-0.8,1.3,9.1,6c3.6,1.7,6.4,2.8,9.2,5.4c11,10.5,13.9,9.5,17.8,12
	c-1.4,2.2-5.1,3.2-7.3,4.3c-3.8,2-19.6,11.4-21.9,12c-1.8-3-3.3-6.5-4.9-9.5c-1.7-3.3-3.5-5.4-5.4-8.5c-2-3.3-3-6-5.2-9.4l-8.1-13.4
	C910.2,465,895,444.4,893.8,440.9z M237,443c1.1-1-1.5-1.1,1.6-0.7l4.2,2.5C237.8,444.3,244,444.4,237,443z M231.8,445.5
	c-1.8,0.1-2.3-0.7-1.8-2.1c0,0,0.8-0.7,1.8,0.1C233.9,445.2,231.8,445.4,231.8,445.5z M239.7,449.8c-2.2-0.3-2.2-0.3-3.7-1.9
	c0.1-0.7,1.3-1.4,2.4-0.8C239.7,447.8,239.5,448,239.7,449.8z M265.8,450.8c-1.1-0.2-2.1-0.7-2.7-1c0.4-1.9,3.5-0.8,4.9,0
	C267.6,450.3,268.2,451.1,265.8,450.8z M320.5,454.3c0.3-3,0.7-2.3,4-3.1c2.4-0.6,3-1,4.6,0.1C327.9,453.7,323.3,454.4,320.5,454.3z
	 M875,451.5c0.3-0.3,0.8,1.5-0.2,0.3L875,451.5z M242.9,452.8c0.9-2.9-0.2-1,1.8-1.9C244.2,453.2,245.9,452.4,242.9,452.8z
	 M930.5,515.6c-1.2,1.4-14.9,9-17.1,9.6c-2.8-2.6-7.8-19-9.8-25.1c-1-2.9-1.4-2.6-2.4-4.6c-0.8-1.7-0.9-3.1-1.9-5
	c-0.9-1.6-1.4-2.5-2.2-4.2c-2.1-4.1-4-7.9-6.9-10.8c-3-3-6.8-11.1-9.2-14.8c-1.5-2.3-3.8-5.6-4.9-8.4c2.1-1.3,9.1-5.6,11.4-6.1
	l6.3,8.7c1,1.6,2.1,2.3,3.1,3.8l29,47.6C927.4,509.8,929.4,512.6,930.5,515.6z M264.3,458c-0.5,0.3,0.8,1.4-2.2,0.3
	c-2.2-0.9-3.9-2.1-4.2-4c2.1,0.3,1.9,0.6,3.7,1.2C265,456.6,264.1,455,264.3,458z M307.6,457.1c-0.1-2,0.3-2.1,2-2.6
	C309.4,456.2,309.1,456.6,307.6,457.1z M249,453.5c0.9,0.5,4.3,2,0,4.3c-2.2-1.1-0.4,0.4-1.7-1.7L249,453.5z M292.1,457.9
	c0-0.8-0.1-1.8,0.8-2.3c2.2-1.2,1.8,0.5,1.8,0.5C295,458,294.4,457.9,292.1,457.9z M285.5,456.8c-1.5,1-0.4,0.7-2.6,0.3
	C283,456.8,284.4,456.2,285.5,456.8z M320.2,459.7c0.2-0.8,1.1-0.7,2.2-0.7L320.2,459.7z M253.7,458.9c2.3-0.4,1.2-0.7,2.5,0.8
	c-0.2,1.3-1,1.7-2.5,1.8C252.8,460,252,461.2,253.7,458.9z M313,463.6c0-2,0.4-2,2.1-2.8C314.4,463.3,314.9,462.8,313,463.6z
	 M258.8,465.3c-0.5-4.2,2-2.6,2.1-2.8c0.1-0.2,0.3,0.1,0.5,0.2C261.6,464.8,261.3,465.4,258.8,465.3z M275.6,469.1
	c0.3-1.7,0.6-3.8,1.4-5.1l14.2,0c0.4,3.5-3.2,8.5-5.4,13.9C281.9,475.5,284.7,474.7,275.6,469.1z M302.5,496.6c0-2,0.7-9.1,1.5-10.9
	c0.6-1.5,1.4-2.8,2.2-4.1c1.7-2.6,6.3-14.4,14.7-15.8c-0.3,2.1-2.9,6.6-4.1,8.6l-10.6,21.7c-0.4,0.5-2.1,2.9-2.7,3.5
	C302.6,498.6,302.5,498.3,302.5,496.6z M276.1,476.5l-1.9-1.7l0.9-0.7L276.1,476.5z M962.7,485c2.7-0.3,0.9,0.3,3.7-0.5
	c0.9-0.3,11.7-0.2,16.9-1.6c2.1-0.6,1.2,0.5,4.6-0.1c-0.4,3.1-11.8,8.7-14.4,8.7c-3.2,0-12.5-4.6-13.8-6.2L962.7,485z M277.9,483.4
	c1.6,1,2.3,0.7,2.6,3C278.4,486,278.4,485.7,277.9,483.4z M292.7,493.2c-1.3-2.1,1.8-5.1,2.6-6.6l2.8-7.3c0.6-1.4,0.7-2,1.6-3.6
	c1.2-2.2,0.7-1,1.1-3.1c0.5-3,0.2,0,2.2-4.8c1-2.5,0.2-0.7,1.2-1.6l-7.7,19.1C295.6,487,294.8,491,292.7,493.2z M991.7,492.9
	c1.4-2.1,3.6-3.3,6.6-3.9l-0.5,3.5C996.3,493.6,994,493,991.7,492.9z M297.2,495.6c0.9,1.8,0.6,1-0.6,1.5L297.2,495.6z M290.6,498.4
	c-0.2,1.5,0.1,0.2-0.8,0.6l0.5-1.6C290.4,497.7,290.7,497.2,290.6,498.4z M983.7,502.3c0.5-5,4.5-4.3,9.6-4.3
	c-1.3,2.3-2,1.6-5.7,3.2C984.5,502.5,986.6,502.4,983.7,502.3z M963.2,513.8c-1.9-5.1-1.1-5,2.9-7.4c2.7-1.6,4.9-3.7,8.8-2.3
	l-1.5,3.3c-1.2,1.1-2.5,1.2-3.8,1.9C965.7,511,968.3,512.5,963.2,513.8z M299.7,504.1c1.7,2.8,1.9,3.1,1.3,4.6
	c-0.7-0.6-1.2-0.8-1.6-2.3C298.4,502.8,299.5,504.4,299.7,504.1z M972.1,535.3c0-2.8,0.9-9.2,2.2-10.6l23.7-13.9
	c-0.2,2-1.3,3.4-2,5.8c-0.8,2.6-0.7,4.4-1.3,7c-6,27.2,2.9,35.8,3.6,39.7c-4.9,0.6-14.1-0.4-19.1-0.7c-2.4-3.4-2.7-8.8-4.3-12.2
	C973.2,546.9,972.1,539.8,972.1,535.3z M298.7,513.4c0.3,1.4,0,1.8-0.3,2.8c-1.7-1.5-1.8-2.3-1.9-5
	C297.7,511.6,298.2,511.3,298.7,513.4z M942.6,520.2c7.2-5.7,8.5-7.4,14.5-2.3c-0.6,3.4-2.7,4.1-5.8,5.3c-3.1,1.2-4.4,3.4-6.9,3.7
	C943.2,525.2,942.6,523.1,942.6,520.2z M231.4,530c-0.8-1.3-2-4-1.6-5.6c1.2-0.3,2.3-0.4,3.6,0.7l0,4.7L231.4,530z M919.3,531.5
	c1.3-1.5,3.2-2.4,4.8-4.4c3.2,0,5.1-0.5,8.2,0.2c4.2,2.4,0.7,7.3-3.4,9.6c-1.6,0.9-5.1,3.1-6.3,3.1
	C921.2,539.4,919.5,533.2,919.3,531.5z M950.3,538.4c2.3-2.7,9.7-5.5,12.9-7.2c2.1-1.1,1.6-1.5,4.4-2.3c-0.9,7.8-1.7,11.5,0.3,18.9
	c0.7,2.5,1.2,5.7,2.2,8.1c1,2.2,2.3,4.6,2.1,7.9l-10.8,0.2c-0.5-2.1-0.7-1.8-1.4-3.7c-0.5-1.5-0.4-2.1-0.9-3.6L950.3,538.4z
	 M232.5,532.4c1,1.7,1.3-1.1,0.7,2.3c-0.2,1.1-1.3,1.2-1.3,1.3C230.5,533.3,230.8,533.7,232.5,532.4z M264.4,532.6
	c0.6,2.2,2,8.1,0.8,10c-2.9-1-5.7-2.2-8.9-3.2c-6.4-1.9-7.4-1.7-7.4-5.4C252.4,531.8,259.7,532.5,264.4,532.6z M938.5,536.1
	c0.3-1.2-1.4-0.9,1.2-1.2C939.4,535.9,940.8,536,938.5,536.1z M278.2,538.4c3.1-2.7,8.9-3.1,13.4-3.5l-1.9,8.1
	c-1.9,0-9.5-2-11.4-2.5L278.2,538.4z M917,540.2c2.7,4.9,1.9,3.9,4.1,4.4c-1.8,2.6-1.3,1.6-2,1.9C918.1,545.1,917.8,541.6,917,540.2
	z M312.1,536.6l0.9,8.3c-1.6,1.2-1.8,1.8-3.8,2.9L312.1,536.6z M920.8,553.5c5.4-0.9,14.4-9.2,22.3-10.7c3.4,4,9.2,15.5,9.9,21.3
	l-29.4,1.9L920.8,553.5z M247,576.6c-0.4-5.7,0.4-10.2,1.2-15.6c1.2-7.9-3.1-4.4,10.8-5.6c-0.9,1.5,0.1,0.6-1.7,1.4
	c-1.9,0.9-3,0.9-4.9,2.8c-1.9,1.9-2.8,4.4-1.8,8.2c2.4,9.7,10.8,6.8,12.1,8.9C260.2,577.4,251.2,576.4,247,576.6z M264,556.6
	l-0.9-1.6l1.8-0.2C264.5,556.2,264.9,555.8,264,556.6z M285.2,555.9c0.1,0.1,1.5,0.3,0.3,2.4c-0.4,0.7-0.7,0.8-1.7,1
	c-5.1,0.9-2.9-2.7-11.3,4.9c-0.2,5,2.4,7.8,6.5,8.9c4.6,1.2,2.1-0.1,3,1.5c-3,1.5-8.8,0.6-12.4,0.3c-0.2-0.7,0.4-14.4,0.6-16.5
	l1.5-1.4L285.2,555.9z M238.3,556.4l0.1,6.4l-3-0.6c-0.2-0.5-0.6-0.5-0.6-2.9c0-1.2,0.2-1.4,0.4-2.5L238.3,556.4z M262.6,564.8
	c0.8,1.1,0.2,0,0.6,1.4l-3.7-1L262.6,564.8z M235,571.6c-0.1-0.2-1.6,0.1-0.3-3c0.4-0.9,0.7-1,1.5-1.4
	C237.2,569.1,236.9,571.4,235,571.6z M1070,569.5c1.1-0.7,2.5-1,3.4-1.4c11.1-4.5,10.3-0.2,14.7,0c1.7,0.1,1.4-0.2,3.2,0.1
	c3.6,0.6,5-0.1,5.6,3.3C1092.9,574.7,1071.1,575.4,1070,569.5z M304.3,565c1.2-1.8,8.1-7.9,10.9-8l0.2,3.6c0.4,12.9,1.4,16,2.1,26.8
	c-2.9,1.3-5.4,3.9-7.7,5.4C306.7,588.3,304.3,571.6,304.3,565z M234.4,581.4c-4.5-0.7-1.9-4.6,1.2-5
	C235.7,578.6,235.6,579.8,234.4,581.4z M714.3,821.5c0.9-3.1,1.7-4.5,5.5-6c9.8-3.8,13.7-15.1,3.9-19.7c-4.6-2.2-15.3-1.7-21.3-1.6
	c-3.8,0.1-7.1,0.4-10.7,0.7c-3.7,0.2-7.5-0.2-11.2,0.3c-6.9,0.9-12.8,2.7-19.9,3.1c-13.9,0.8-27.2,2.9-41.2,4.1
	c-36,3.2-71.9,3.6-107.2-1.5c-13.7-2-24.3-5.3-36.7-8.9c-11.1-3.2-22.3-8.4-32.8-12.8c-6.9-2.9-8.3-2.8-15.5-7.2
	c-13.3-8-15.4-10.6-26.5-19.1c-5.3-4.1-7.1-7-11.7-11.1c-6-5.3-2.5-0.9-9-8.2l-8.2-8.9c-1.4-1.7-1.5-1.1-2.9-2.8l-9.6-13.2
	c-4.5-5.5-7.6-11.2-9.7-18.8c-1.9-6.8-4.5-9.7-6.5-16.3c-1.7-5.8-4-11.8-5.2-17.6c-0.7-3.4-0.8-6.5-1.7-9.8
	c-2.6-9.7-3.7-18.6-5.5-28.5c-2.4-13.3-5.7-25.8-5.8-39.8c0-20.4-1.2-48.6-0.2-68.4c0.6-12.5,16.3-36,22.6-45.8
	c10.7-16.6,26.9-36.2,41.3-49.9c7.8-7.5,15.6-14.7,24.4-21.2c4.3-3.2,8.4-6.3,12.9-9.9l6.8-4.6c2.4-1.5,4.3-3.1,6.8-4.6
	c65.1-39.8,142-57.6,221-42.8c26.3,4.9,47,11.9,69.7,21.5c25.2,10.6,49.8,26.1,70.8,43.8c8.2,6.9,16.3,14,23.9,21.7
	c9.2,9.4,18.7,19.8,26.3,30.7c1.6,2.3,3.2,4.1,4.9,6.5l17.8,27.8c53.9,93.4,52.5,213.9-1.5,306.5c-2.8,4.9-5.7,9.2-8.6,14.2
	c-1.5,2.6-2.7,4.3-4.6,6.8c-7.2,9.7-16.8,23.4-25.2,31.8c-3.8,3.8-6.9,7.9-10.9,11.9c-7.3,7.3-16,14.9-24.3,21.3
	c-17.5,13.6-35,25.5-55.3,35.8c-19.5,9.9-43.3,18.9-66.9,24.4c-51.8,12-111.3,10.8-160.7-4.7c-29.4-9.2-53.7-20.7-77.9-36.1
	c-11.3-7.1-26.9-18.1-36-26.8c-15.1-14.4-22.9-21.1-36.3-37.8c-0.9-1.1-1.7-1.8-2.7-2.9c-4.4-5.1-7.9-11.1-12.1-16.4
	c-1-1.3-1.6-2.1-2.3-3.4c-1-1.8-1-1.6-2.3-3.4c-8.4-12.4-16.2-26.5-22.2-40.5l-1.3-3.5c0.1,0.2,1,1.1,1.6,1.6l2.2,1.7
	c1.3,1.1,2.7,2.2,4.2,3.4c10.9,8.7,34,18.8,47.1,27.4c6,3.9,14.3,6.3,20.5,9.3c11.4,5.6,25.9,6.3,38.7,6.6c3,0.1,11.5,0.4,14,0.9
	l6.9,0.8c2.5,0,5.1,0.1,7.6,0.1c2.3,0.1,4.4,0.4,6.8,0.7l20.3,1.4c14.3,0.4,27.5,2.4,42.1,1.1c9.2-0.8,20.1-0.4,29.5-0.5
	c4.2-0.1,9.9-0.7,13.8-0.8c13.3-0.3,27.1-2,40.6-2.8l13.3-0.9c9.6-2,29.5-4.3,39.3-5.1c4.7-0.4,9-1,13.3-1.9c4.2-0.8,7.4-2.2,12-2.3
	c7.5-0.2,20.7-2,26,2.4c0.4,7-4.8,7.8-9.4,10.3c-4.9,2.6-8.4,3.9-8.2,10.6c1.6,5.2,18.5,8.2,23.4,8.7c20.1,2.2,46.4-6.6,61.1-19.7
	c3-2.7,5.7-5.5,6.4-9.6c-3.3,0.9-5,4.6-7.4,6.7c-6.1,5.7-18.7,13.3-26,14.5c-14.6,2.5-32.8,3.8-47.2-0.9L714.3,821.5z M209.1,651.3
	c-2.5-3.1-3.5-11.1-3.8-16.6c-0.4-7.1,1.9-39.5,5-44.2c0.7-1.1,1.5-1.6,2.1-3c0.9-2.2,0.1-1.5,1.7-3.8l2.6,0.9
	c-0.8,5.7-4.6,6.7-5,15.9c-0.2,5.5-2.6,11.2-3.2,17.7c-0.4,5-2,2.8-1,7.7l1.8,18.8C209.7,650.1,212.8,650,209.1,651.3z M213.5,618.9
	c-0.2-0.4-0.3-0.1-0.5-1.3c-0.3-2.4,0.5-5.2,1.1-7.6c0.9-3.2,1.4-5.5,1.9-8.9c1.3-8.9,3.2-9.4,3.7-12.3c0.5-3-1.3-1.8,0.8-2.9
	c1.7,2.6-1.8,13.5-3,16.7C216.2,606.3,214.9,616.9,213.5,618.9z M1126.4,619.3c-1.1-6.8-2-25.7-0.9-33.3c0.3-2,0.4-1.7,1.3-2.9
	c3-0.3,1.6-0.5,3.5,0.6c0.4,2.3,0,13.3,0,17.4l0.8,19L1126.4,619.3z M239.4,586.6c3.7,0,7.1-0.4,10.2-0.4
	c10.1-0.2,16.6,1.6,19.6,1.7c4.2,0.1,7.7-0.9,10.6,0.5l-0.4,2.7c-3.3,0.1-6-0.5-9.5-0.7c-8-0.3-6.7-0.9-8.8-1.2
	c-6.2-0.7-8.5,0-12.9,0.7c-1.2,0.2-1.3-0.3-3.4,0c-6.5,1-4.6,9.7-4.7,15.7c-0.2,11.3-2.8,25.3-3.9,36.1c-1.7,15.9,4,12.8,21.3,14.2
	c3.3,0.3,6.2,0.2,9.6,0.7c6.8,0.9,5.8-3.2,7,1.6c-3,1.4-16.4,0.1-19.1-0.3c-4.8-0.7-17.2,1-18.4-1.1l-1.2-2c-1.3-1.8-0.7,0-1.5-2.2
	l1.9-33.5c1-5.4,0.4-11.7,0.8-17.6C237.3,590.2,235.2,595.6,239.4,586.6z M1041.6,589.7c2.1-1.6,10.2-1.9,13.3-1.6
	c-2.1,1.8-2.8,1.4-6.6,1.8C1046.1,590.1,1043.2,590.9,1041.6,589.7z M1041,596.2c0.2-4,1.7-2.7,6-2.7c8.9,0.1,14.8-1.5,20.3-1.8
	c1,1.1,1.6,1.6,1.4,3.2c-2,0.3-5.1,0.4-7,0.4c-3.7,0-3.4,0.2-6.5,0.6C1051.6,596.4,1044.9,596.2,1041,596.2z M1101.4,601.8
	c-1.3-3.3-6.3,0.4-5.2-3.9c0.9-0.6,0.6-0.8,2.6-0.6c7,0.5,7.8,4.5,6,10.3C1098.5,607.4,1102.7,605.1,1101.4,601.8z M1082.7,609.7
	c-3.6-6.7,0.9-10.9,7.9-12c1.6,2.2,1,1.5,1.2,3l-3.1,2.4c0.5,8.2,2.5,4.1,8.1,5.8c2,0.6,2.7,1.4,3.3,2.6
	C1085.5,612.6,1095.1,611.8,1082.7,609.7z M1041,601.1c2.6-1.4,0.9-0.3,6.9-1.1c4.7-0.6,6.3,0.6,13.5-0.2c3.8-0.5,4.5-0.8,6.9,0.5
	l-0.2,1.7c-4.6,0.5-9.4-0.2-13.8,0.7l-12.9,1.3L1041,601.1z M221.6,652.2c-1.5-2.2-2.4-10.5-3-13.8c-1.3-6.8-1.2-5.5-1.1-13.9
	c0.1-4.3,5.3-24,6.7-25.9c-0.1,2.3-0.9,9.9-1.6,13.5c-1.9,10.2-0.8,1.5-1.8,13.3C220,634.5,222.5,649.8,221.6,652.2z M1041.3,610
	c0.6-3.3,2.6-1.8,5.9-2.3l13.7-1.5c3.1,0,4.6-0.3,6.4,1.2c-1,0.8,1.1,0.2-1.5,1l-5.4,0.5c-10.8,1.4-8.6,0.3-13.2,0.7
	C1044.4,609.9,1043.9,611.2,1041.3,610z M310.7,610c0-5.6,5.2-11.3,9.6-12c0.8,8.2,3.6,15.5,3.9,22.7c-4.2,1.1-6.9,3.7-10.5,5.7
	C312.5,620.8,310.7,616,310.7,610z M253.9,623.9c1.1-2.2,4.7-8.6,7.1-9.6c2.8-1.1,11.4-1.2,14.5-0.3l-1.1,7.4l-1.8-2.1
	c-3.2,0.6-2.3,0.3-5.2,0.3c-0.1,0.1-5.3,3.1-5.7,6.5c1.1,1.1,2.8,3.6,4.4,4.2c5.2,1.9,7.3-1,7.5,2.9c0,0.1-0.2,1.9-0.2,2.1
	c-0.1,1.7-0.2,2.5-0.5,4.2c-9.8,1.2-13-3.3-16.3-9.9C255.5,627.3,254.3,626.3,253.9,623.9z M1042.1,615.2c4-0.9,22.7-2.2,25.7-1.4
	l0,2.6l-19.6,1.3c-3,0-3.7,0.7-6.3,0.6L1042.1,615.2z M1044.4,621.9c1.6-0.7,22.3-0.6,23.6-0.1c0.3,0.5,0.3-0.5,0.6,1.5
	c0.4,2.7-0.2,1.1-0.3,1.6c-3.8,0.1-8.5-0.4-12.8-0.1c-4,0.3-8.2,0.4-12.7,0.4L1044.4,621.9z M213.5,635.4c-0.4-0.5-0.9,0.5-1-3.2
	c-0.1-1.5,0-3,0-4.5c0.1-3.1-0.4-5.9,1-7.7C213.5,626.1,214.2,629.3,213.5,635.4z M213.5,637.9c0-1.9,0.4,0.1,0.4,0.1
	C214.5,638.4,213.5,639.7,213.5,637.9z M316.7,635.2c1.9-1.9,6-4.7,9.5-5.4c1.5,3.5,4.9,16.6,4.6,20.8c-1.1,0.9-2.3,1.8-3.6,2.7
	C318.7,659.3,316.1,639.5,316.7,635.2z M213.4,639.5c1.5,1.7,2.4,6.3,2.6,8l-0.3,2.2c0-0.1-0.2,0.3-0.3,0.5
	c-2.8-1.8,0.1,0.7-1.4-4.6C213.2,642.6,213.1,643.1,213.4,639.5z M1006.8,652.8c-2.3-0.2-2-0.2-2.4-2.2
	C1006.1,651.3,1006.3,650.9,1006.8,652.8z M978.7,652.5c1.5-1.4,1.1,0,1.7,0.7l-1.6,0.8C978.8,654,977.1,653.9,978.7,652.5z
	 M932.6,647c2.3,0.7,15.3,15.7,16.2,17.7c-4.1-0.2-3-1.3-5.7-2.5c-7.1,1-3.3,5.5-3.8,11.1c-3.3,0.4-2,0.7-7.3-3.1
	C932.2,659.5,932.9,660,932.6,647z M341.5,750.4c-5-3.3-9.1-7.1-14.4-11.8c-4.7-4.1-9.1-8.3-13.2-12.8c-1.8-1.9-5.4-6-6-7.4
	c-1.1-2.3-2.3-7.8-3-10.5c-9.7-40.2-11-78.6-5.2-119.6l0.8,3c2,12.6,2.9,11,4.4,17.9c0.7,3.2,1.1,8.3,1.6,11.7
	c0.5,3.8,1.5,6.7,2.2,10.5c1.6,8.9,5.1,15.7,6.1,19.9c1.9,7.9,4.5,11.7,7,18.3c7.5,19.9,13.7,34.1,26.7,51.2
	c2.8,3.7,9.8,11.1,11.1,14C359.6,736.5,344.7,749.4,341.5,750.4z M965.5,658.5c-0.1-1.7-0.2-0.3,0.1-2l0.6-1.5l2.5,1.8
	C967.9,658.7,967.8,658.6,965.5,658.5z M996.9,659.4c-1.4,0.5-3.2-0.6-3.9-2.1C995.4,656.9,996.2,657,996.9,659.4z M983.4,661
	c-2.6-0.8-1.1,0.5-1.6-1.7C983.6,660.1,982.6,658.9,983.4,661z M1011,660c-0.1,1.6,0,0.4-0.8,1.3c-2.5-2.1-1.9-1.8,0.4-2.7
	C1011,659.6,1011.1,658.3,1011,660z M225.6,663.2c-0.8-2.5-0.3-3.6,1.3-5.7l3.1,0.6C230.3,662.1,229.5,663.3,225.6,663.2z
	 M1027.5,661.3c0.7-0.5,0.5-0.8,1.7,0C1029,661.5,1030,663.3,1027.5,661.3z M325.6,661.3c2.4-1.3,2.8-0.9,8-4.1l2.9,13.9
	c-1.8,1-4.9,3.1-7,4.5C327.4,671.3,325.9,666.8,325.6,661.3z M988,661c2.8,0.7,2.9,0.7,3.9,2.7C988,663.9,988.2,664.3,988,661z
	 M972.7,664c-0.2-0.7-0.1-1,0.6-2l1.2,1.2C973.8,664.4,974.9,664.2,972.7,664z M1001.3,661.2c0.7-1.8,0.5-1.1,1.3-1.8
	c1.5,1.6,2.2,3.3,2.8,5.6l-4.7-1.1C1000.9,662.7,1001,662.1,1001.3,661.2z M978.2,665.7c0,0,0.4-1,0.7,0.1
	C979.2,667.4,978.2,666.3,978.2,665.7z M1021.4,667.4c0.2-3.2-0.3,0.5,0.2-1.5c0-0.1,0.2-0.2,0.3-0.5c0-0.3,0.2-0.3,0.3-0.4
	c1.3-0.2,1.1-0.3,1.9,1.5L1021.4,667.4z M1012.8,667.6c0.2-1,0.2-1.4,0.7-2.3c1.3-2.2-0.1-0.7,1.8-1.5
	C1018,666.2,1017.9,670.9,1012.8,667.6z M224.7,667.4l3.8-0.1l-0.2,3.2l-4-0.6L224.7,667.4z M967.8,667.4l2.5,0.8
	c-0.9,1.9-0.1,1.5-2.5,2L967.8,667.4z M945,675.1c-0.6-1.6-0.9-3.3-0.4-5.6l5.1-0.2c-0.6,2.7-0.2,1.8-2.1,3.4
	C946.6,673.7,946.1,674.5,945,675.1z M1041.1,672.5c-1.6-0.8-1.8-1.2-2.3-3.1l2.8-0.1c0.1,0.2,0.2,0.4,0.2,0.5
	C1042.1,671.8,1042.5,670.4,1041.1,672.5z M1027.5,670.6c-0.3,1.6-0.4,1.3-1.4,1.8l-1.4-1.2l1-0.8c0.9-0.6-0.1,0,1.1-0.6
	L1027.5,670.6z M236.5,683.5c0-0.4,2.2-12.9,3.3-14.3c8.3,2.1,14.9,0.7,17.5,2.3c-0.8,5.3-3.7-0.4-12.4,2.2
	c-5.3,1.6-4.6,7.6-4.6,13.6c0.6,3.1,7,4.8,9.9,5.1c0.6,0.1,1.7,0.1,2.2,0.3c1.7,0.7,0.6-0.1,1,1.4c-4.9,0-6.2-0.9-10.8-1
	C235.8,693,236.5,691.7,236.5,683.5z M994.6,690.7c-0.9-0.3-6.4-19.2-6.5-20c1.1-1,4.5-1.2,5.2,1.3L994.6,690.7z M1000.6,682.3
	c-0.4-2.9-1.7-9.1-1.4-11.7l2.9,0.1c1.3,0.4,0.5,0.1,1.5,0.5c1.1,0.4,1.1,0.5,1.3,0.7l-2,22.5c-0.4,1.8,0.2,1.3-1.2,1.7
	C1001.6,690.7,1001.2,687.2,1000.6,682.3z M261.3,692.7c-0.6-3,0.4-2,0.4-4.8c0-3.9-1.6-6.3,0.8-14.9c3.1-0.4,4.2-0.5,7.3-0.4
	c5.5,0.1,5.1-0.8,6.7,0.9c-1.4,1.8-1.7,0.6-4.8,1c-9.4,1.2-13.2,16.5,3.8,16.5c3.2,0,3.2-0.7,4.4,1.4
	C277.8,694.2,263.5,693.3,261.3,692.7z M985.9,687c-1.4-1.3-2.6-4.3-3.7-6.4c-1.5-2.8-3.3-4.2-3.6-7.3l3.7-0.5L985.9,687z
	 M226.3,679.7c-1.6-1.8-0.6-1.9-2.4-3.8C224,674.4,229.1,671,226.3,679.7z M1013.8,674.2c0.3,1.7-2.1,9.1-3,11
	c-1.2-1.4-0.2-8.1,0.5-11.1L1013.8,674.2z M971.7,678.9c-2-3-0.4-2.5-0.3-2.6c3.4-1.1,0.3-1.2,4,4.1c1.2,1.7,2.4,2.7,2.2,5.3
	C976,684.7,972.9,680.5,971.7,678.9z M1032.5,678.3c-0.1-2-0.1-1.2,1.1-2.1C1034.9,678,1034.2,678,1032.5,678.3z M957.7,678.5
	c-1.6,0.6-0.9,0.3-1.4-1.5c1.7,0.7,0.4-0.2,1.4,0.7C959.3,679.1,957.8,678.1,957.7,678.5z M1016.4,688.5c0.2-1.9,2.9-10.5,4-11.8
	c2.1,0.3,2.6,1.4,3.6,2.4C1021.8,681.6,1019.2,686.9,1016.4,688.5z M939.8,679.7c0.6-0.3-0.7-1.4,1.2,0l-0.8,0.3
	C940.1,679.8,939.9,679.7,939.8,679.7z M1039.4,679.2c1.5,0.9,0.7-0.2,1.3,1.7C1037.9,681.2,1038.2,681.5,1039.4,679.2z M338,678.7
	l3.8,9.2c-1.1,1-1.9,1.6-2.9,2.4c-1.7-1.3-1.4-1.8-3.2-4.3c-1.3-1.8-1.6-2.7-2.4-4.5C334.8,680.2,336.5,679.2,338,678.7z
	 M1051.5,685.4c-2.8-0.2-2.5-0.4-3.2-3.3l3.2,0.2L1051.5,685.4z M253.5,685c-2.7,1.1-3.3-0.2-4-0.9c0.5-0.6,0.9-1.3,2.7-1.4
	c3.7-0.2,2,0.1,2.8,1.4C254.2,684.7,255.1,684.4,253.5,685z M929.7,685.5c0.1-1,0.4-3.9,0.6-4.7c1.1-4.7,5.3,0.2,5.8,3.8
	C933.2,684.9,932.8,685.4,929.7,685.5z M964.6,682.7c1.4,0.9,2.2,1.8,2.5,3.8c-0.4-0.2-2.2-0.9-2.5-1.2
	C962.9,683.4,964.5,683,964.6,682.7z M1017,699.4c0.7-2.1,9.2-16.4,11.7-17.6l2.4,2.3C1030,686.6,1019.7,698.2,1017,699.4z
	 M1042.1,686.8c-2.3-0.7-1.6,0-2.5-2C1041.6,683,1042,684.7,1042.1,686.8z M951.1,684.5c0.9,0.9,0.4,0.1,0.8,1.6l-1.5-0.4
	C950.3,684.2,950.1,685.8,951.1,684.5z M943.7,687.8c0.7-2.9,1.3-2.6,1.4-3c0-0.2,0.2-0.2,0.3-0.3c1.1,1.5,3.1,2.7,0.3,3.4
	C945.6,687.9,943.8,687.8,943.7,687.8z M1045.7,690.7c-2.2,0.2-1-0.5-1.4-1c0.1-0.8,0.8-0.8,1.4-0.8c1.9,0,0.5,0.3,0.9,0.8
	C1046.5,690.1,1047.2,690.6,1045.7,690.7z M935.8,689.8l-2.8,4.9c-1.3-1.1-2.2-3-2.1-3.9C931.1,689.4,933.8,689.7,935.8,689.8z
	 M959.5,689.1c2.4,1.1,5.2,2.5,6,4.8c-1.6,0-6-1.5-7.1-2.4L959.5,689.1z M1026.4,696.5c4.6-4.5,3.5-3.7,7.1-9.1
	c2.1,0.8,1-0.1,2.2,1.6c0.8,1.1,0.6,0.8,1,2.1c-2.2,3.6-4.9,3.4-7.2,6.1c-1.6,1.8-5.4,4.3-7.9,4.6L1026.4,696.5z M941.6,692.7
	c0,0,3.8-2.2,6.3,0.4l-1.5,4.5C944.3,697.8,942.4,694.6,941.6,692.7z M1055.9,693.6c-1.6,2-1.5,2-2.1-0.8
	C1056,693.2,1054.5,692.4,1055.9,693.6z M1044.5,695.5c0.7-0.5-0.1-0.3,1.1-0.4l0.7,0.4C1044.1,697.3,1045,696,1044.5,695.5z
	 M346.8,694.7c2.7,7.5,6.5,7.6,0.7,11.7c-1.7-1-5-5.4-6-8.4L346.8,694.7z M939.3,697c1.5,1.3,0.6,0.3,1.3,2.2l-2.3-0.2
	C938.8,698,938.7,697.9,939.3,697z M926.6,701.9c-0.4-1,0.1-3.9,1.5-5.4l1.4,2.8C928.7,700.6,928,702.3,926.6,701.9z M1030.4,702.3
	c3-2.4,5-5.4,8.4-7.1c1.3,2,1.1,2,1.3,5.4c-3.1,1.2-14.6,8.3-18.1,7.8L1030.4,702.3z M1050.3,702.2c-4.1-1.1-1.2,0.2-2.4-1.6
	c0.2-0.1-0.4-1.8,1.7-0.1C1050.8,701.3,1049.8,700.6,1050.3,702.2z M1056.7,703.4c2.2,0.2,1.6-0.4,2,2
	C1056.7,705.7,1056.7,706.5,1056.7,703.4z M221.9,704.8c0.3-3.6,0.3-1.5,1.1-2.3c1.9,1.4,1.5,3,0,4.5
	C222.4,706.5,221.7,707.3,221.9,704.8z M937.6,706c-0.8-3,0.2-1.3,0.5-1.9l6.6-0.6l-2.2,6.3C941.1,709.2,938,707.6,937.6,706z
	 M1046.5,706l1.5,0.2c-0.9,0.9,0.6,0.4-0.9,0.6C1044.7,707.1,1047.5,707.3,1046.5,706z M955.1,696.8c2.8,0.3,22.3,6.7,26.7,11
	c-0.7-0.1-2.1-0.5-2.3-0.5l-5.2-1.2c-4.9-1.8-13.6-2.5-20-5.5L955.1,696.8z M1036,708.9c0.9-1.8,0.4-1.2,2.5-2.3
	c1.2-0.6,1.1-0.6,2.4-0.6C1041.5,709.1,1038.9,708.6,1036,708.9z M951.6,706.3c0.1-0.3,0.2-0.3,0.4-0.4c4.9,0.7,19.9,4.4,22.5,6.5
	c-4.8,1.4-19.3-0.6-23.8-1.5C949.2,708.1,951.4,707.4,951.6,706.3z M245.2,706.9c2.8-0.3,5.9-0.3,8.7,0.2l-0.2,6.4
	c-6.6-0.8-4,1.3-11-1.7c-1.5-0.7-1.2-0.2-2.7-1.2C240.3,707.5,241.7,707.2,245.2,706.9z M267.8,710.7c0.9-1.8,0.8-1.6,3.3-2
	l12.9-0.1l-0.4,3.8c-2.5-0.1-12.4-0.2-14.5-1C267.6,710.9,268.5,711.1,267.8,710.7z M925.4,711.4c0.9-2,2.3-3.3,4.5-4.1l-0.7,6.2
	L925.4,711.4z M221.8,712.7l0.6-1.4c0.3,0.6,0.4,0,0.2,1.1C222.3,713.4,222.6,712.4,221.8,712.7z M937.5,711.3
	c0.6,2.5,0.1,0.2-0.7,1.3c-1.6-0.8-1.7-0.1-0.7-2.5C937.1,710.6,937,709.6,937.5,711.3z M360.2,718.4l-1.6,1.7
	c-2.5-0.7-3.2-1.7-4.7-3.5c-1.3-1.5-2-2.6-2.8-4c1.2-1.5,1.5-2.3,3.1-3.1C356.1,710.2,359.1,716,360.2,718.4z M1049.2,714.8
	c0,0.1-0.3,0.5-0.5,0.6c-1.6-0.5-1.4-0.2-1.6-2.2l2,0.3C1049.1,713.7,1049.3,714.2,1049.2,714.8z M1028.8,715.1
	c1.4-1.1,0.1-0.6,3.6-0.6c1.7,0,1.7,0,3.4-0.4c1.5-0.4,1.5-0.5,3-0.8l1.6-0.2c0.2,0,0.9-0.2,1.5-0.3l0.4,3.4
	C1040.3,716.7,1030.6,715.7,1028.8,715.1z M223.4,717.9c-0.9-1.5-1.4-1.5-1.1-3c0,0,0.6-0.8,1.6,1.5
	C224.6,718.2,224.1,717.2,223.4,717.9z M941.7,716l0.3,4.2c-1.7-0.8-2-1.4-3.5-2.5C939.5,716.3,939.8,716.3,941.7,716z M1059.1,717
	c-0.8,1.5,0.8,0.9-1.9,1.2C1057.5,716.1,1057.1,716.1,1059.1,717z M922.1,722.2c0.3-2.6,0-4,1.4-5.7l2.2,0.9
	C924.5,722,922.9,721.8,922.1,722.2z M948.7,722.2c-1.1-2.6-0.7-3-0.6-6c3.1-0.1,8.1,1.3,12.3,1.8l3.7,1l-3.8,1.4
	C955.6,721.5,951.1,723.4,948.7,722.2z M1049.4,718.9c2.5-1.1,1.1-1,2,0.6c-0.2,0.1-0.1,0.2-1.1,0c-0.1,0-0.4-0.1-0.5-0.3
	C1049.8,719.1,1049.5,719,1049.4,718.9z M1038.7,736l-15.2-7.5c-5.1-2.1-12.3-4.6-13.3-8.8c7.1,0.8,26.1,7.1,31,11.3
	C1040.9,733.1,1040.1,734.5,1038.7,736z M1041.2,725.7l-12.1-5.2c1-0.5,10.8,0.6,12.8,1.1L1041.2,725.7z M972.4,722.6
	C972.1,722.3,972.9,722.9,972.4,722.6z M950.1,732.3c-0.5-1-1.7-3.2-0.5-4.3c0.8-0.8-0.1-0.2,1.3-0.5c1.6-0.4,2.3-0.3,3.9-0.8
	c6.7-2,12.1-2.6,16.1-3.8C969.9,724.2,952.2,731.9,950.1,732.3z M1046.6,723.1l2.7,1.5c-1.4,1.2-1,1.1-2.7,0.8L1046.6,723.1z
	 M936.7,722.2c2.4,0.8,2.9,0.7,4.3,3.3l-4.5,2.5L936.7,722.2z M926.4,727.4c0.2-2.8,0.4-4.1,2.6-5c1.2,1.9,0.9,3.4,0.7,6
	C928,728.3,927.8,727.9,926.4,727.4z M367.4,730.4c1.6,2.1,3.2,4,2.8,6c-3.4,1.1-2.9-0.4-5.1-3.1c-1.3-1.6-2.9-3-4-4.8
	c0.3-1.1,0.4-1.6,0.8-2.3c1.2-2,0.1-0.7,1.7-1.7C366.7,727,364,725.9,367.4,730.4z M1050.1,729.2c0.2,0.2,0.9-0.8,0.8,1.8
	c-0.1,3.4-0.2,1-1.1,1.9C1048.2,731.2,1047.9,730.9,1050.1,729.2z M1057.1,732.3c-0.1-0.2-1.3,1.2-0.7-1.9c0.4-1.7,0.3-0.7,1.5-1.3
	C1059.3,731.2,1059.1,731.2,1057.1,732.3z M1025.7,754.1c-1.7-2-2.4-3.1-4.6-5.4c-7.6-8.2-8.1-7.8-10.8-18.1
	c2.3,0.7,1.6,0.3,3.2,2.2c3.3,3.7,3.6,3.2,7.7,7.4c3.7,3.7,8.9,7.3,10.1,9.7C1030.1,751.4,1027.4,753.7,1025.7,754.1z M939.3,734.1
	c0.5-2.6,2.4-3.1,4.1-4.4l1.1,4.7L939.3,734.1z M1034.3,745.5l-12.3-12.3c1.5,1.5,12.1,4.5,14.9,7.2
	C1036.6,742.6,1035.8,743.8,1034.3,745.5z M911.8,761.7c1.3-5.8,8.4-21.7,9-30.8c2.4,0.3,5.5,2.4,7,3.9c-0.6,1.9-2.2,6.1-4.2,7.1
	c-2.8,1.5-6,3.2-3,6.5c3.9,1.9,4.7-1.4,10.3,0.9c-0.6,1.8,0,0.7-4.3,3.8C924.5,754.7,913.9,761.5,911.8,761.7z M316,734.7
	c6.3,4.2,3.3,3.9,8.4,9.5c-0.8,1.7-2.2,2.9-3.8,3.8c-3.6-4.1-5.1-3.2-6.8-10.7C315.1,736.1,315,736.3,316,734.7z M375.7,736.3
	c1.8,0.5,4.2,3.4,5.5,5c0.9,1.2,3.4,4.5,3.8,6c-5,2.2-9.7-5.1-11.8-7.4C374.2,738,374.5,738.3,375.7,736.3z M971.6,761.4
	c0-2.9-0.1-1.5,1.1-3.4c0.9-1.4,0.8-1.5,1.7-2.7c4.4-5.9,6.3-12.3,9.6-17c0.8,1.3-0.1,3.1-1.1,5.2c-3.2,6.7-3.5,16.4-6.5,20.5
	L971.6,761.4z M939.7,741l-0.8-2l2.3-0.2C940.3,740.6,941.4,739.7,939.7,741z M985.9,747.7c0.8-2.5,2-4.4,2.9-7.2
	c0.8-2.8,0.7-5.3,2.4-7.4c0.9,3.6-2,30.5-3.1,32.2l-6.3-0.6L985.9,747.7z M929.6,742.9c-0.5-2.8,1.7-3.1,1.7-3.1l1,4.4
	C929.6,743.7,930.6,743.9,929.6,742.9z M1046.3,746.6c-1-0.9-2.2-3.1-2.2-4.6l4.6-0.2C1048.5,744,1047.9,745.2,1046.3,746.6z
	 M958.4,748.7c1.9-1.8,4.8-5,7.4-5.8c-1,3-1.5,1.8-2.9,4.1c-1.2,2-0.8,2.6-2.8,4.2L958.4,748.7z M964.2,756.8c-0.1-2.5,0.4-2.5,2-4
	c3.8-3.6,5.7-8.5,8.6-9.6c-1.2,3.1-6.4,12.7-8.3,14.6L964.2,756.8z M1050.7,750c0.2-2.2,1.8-5.5,3-7.3c1.6,1.2,1.9,0.9,2.1,3.5
	C1055,747.4,1052.1,749.5,1050.7,750z M1015.6,759.1l-5.3-12.3c2.3,0.9,9.9,10.1,9.7,10.8C1018.9,759.2,1017.2,759.3,1015.6,759.1z
	 M1038.9,749.1c0.5-2.9,0.5-3.1,2.3-4.7c1.4,1.3,1.7,2.8,2,4.9L1038.9,749.1z M398.1,755.3c-1,3.4-0.6,1-1.8,3.6
	c-3.4-0.8-8.8-5.2-9.6-7.6l0.9-1.5c1.8,0.8,0-0.2,1.9,1l3.9,1.7C395.8,753.3,395.3,754.2,398.1,755.3z M345.2,753.4
	c0.9-1.7-0.1-1,2.2-2.5c3.2-2.2,12.9-11.6,14.9-12.5c2.5,1.7,3.9,4,6.1,6.1l17.9,14.6c0.1,0.1,0.2,0.2,0.3,0.2l24.8,14.3
	c13.5,5.9,25.8,13.2,41,18.5l35,10c1.3,0.5,1,0.6,1.2,0.9c-3.1,1.5-38.8-2.5-43.6-3.6c-19.3-4.5-36.5-11.4-54-19.4
	c-13.5-6.1-13.1-6.2-24.4-12.3c-2.8-1.5-4.6-2.9-7.5-4.6L345.2,753.4z M944,752.5c0.2-0.1-0.1-0.6,1.6-0.7c1.8,0,0.3-0.1,1.3,0.7
	C945.6,755,945.1,753.9,944,752.5z M326.4,753.1c1.2-0.9,2.5-2.6,4.9-3.2c1.9,1.6,1.9,3.2,3.6,4.7l4.4,3.4l-2.4,2.6
	C333.9,760,327.3,754.5,326.4,753.1z M1039.8,757.8c-0.8-1.9-0.7-1,0-3c1.4-0.1,2.2,0.1,3,0.4
	C1041.9,757.3,1041.5,757.9,1039.8,757.8z M953.3,756.3c-3,0-0.1,0.1-1.6-0.8l1.6-2.1c2,0.9,1.3,0.5,2,2.2
	C954.5,756.1,955.2,756.4,953.3,756.3z M1006.6,753.9c1.6,2.5,3.2,5,3.9,8.3l-3.7,0.2c-0.1-1.8-0.2-2.9-0.5-4.7
	C1005.4,752.7,1006.2,754.5,1006.6,753.9z M1048,758.5c0.1-0.5,0.2-1.5,0.3-1.6c0.8-1.7-0.2-0.4,1.6-1.5c0.4,0.9,0.6,2.2,0.6,2.8
	L1048,758.5z M1033.2,757.1c0.7-0.9,0.4-0.1,0.7-1c1,1.5,0.8,0.8,0.6,3.3l-2.5-0.5C1032.9,757,1032.1,758.5,1033.2,757.1z
	 M937.6,756.5c1.4,0.7,3.2,1.4,3.4,3.3l-4.2,0.6L937.6,756.5z M953.8,761.4c1.5-0.8,2.2-1.9,2.5,1.3c-0.8-0.1-0.1,0.3-1.5-0.3
	C952.7,761.4,954.8,762.6,953.8,761.4z M404.3,760.1c6.3,7,6.8,4.1,6.8,8.4c-2.1-0.5-4-1.9-5.5-2.9c-3.1-2.1-3.4-0.9-4.9-2
	C401.8,761.5,401.9,761.7,404.3,760.1z M994.8,744.9c0.2-2.2,0.4-4.2,1.7-5.8c0.8,2.3,3.5,9.6,3.7,12.1c0.4,4.6,1.8,9.3,1.9,13.6
	l-8.4,0.3L994.8,744.9z M1023.5,764.1c0.9,1,1.6,1.7-0.1,2.6l-1.7-1.7L1023.5,764.1z M1032.5,765.2c-0.9,1.1-1.6,1.5-2.5,1.4
	c-0.6-0.7-0.4-0.2-0.8-1.5c-0.3-0.8-0.1-0.3,0-1.5C1031.5,764,1031,763.5,1032.5,765.2z M343.4,766.4c1.9-2,1.8-1.7,3.1-4.2
	c2.4,0.9,8.5,5,10.8,6.4c-0.8,2.5-1.9,3-3.6,4.6C350.4,772.4,344.8,768.7,343.4,766.4z M1040.3,767.4l1.2-1c0-0.1,0.1-0.1,0.3-0.3
	l0.6,1.5c-1.2,0.7-1.1,1-2.4,0.1C1040,767.6,1040.2,767.4,1040.3,767.4z M947.2,764.8c2,1,2.2,2.1,3.9,3.3c-0.9,1.1-1.8,2.9-4,1.8
	L947.2,764.8z M970.2,769c2.4-0.9,2.8,0.8,3.3,1.3C969.3,770.2,970.8,769.6,970.2,769z M1016,770.9c2.2-1.4,1.6-0.8,2.4,0.8
	C1016.3,772.6,1016.9,772.8,1016,770.9z M426.3,775.8c-2.9,1.1-2.8-0.1-5.3-1.5c-1.9-1-3.1-1.3-4.5-2.6
	C421.2,771.6,423.5,773.4,426.3,775.8z M983.4,772.8c0.4-0.3-0.4-1.6,4.4-0.4c-0.2,1.5,0.5,1.4-1.4,1.5L983.4,772.8z M999,772.1
	c-0.3,1.8-0.3,2.7-2.6,2.5c-1.7-0.2-1.7-0.7-1.9-2.4L999,772.1z M1002.6,775.3c0.6-2.4,0.5-2.5,2.7-3.1l0.5,3.2L1002.6,775.3z
	 M427.2,776.3c0-0.1-0.1,0.1-0.2,0.1L427.2,776.3z M959.3,773.9c2.3,0.6,2.5,0.4,3.6,2.1c-1.4,1.3-0.7,1-2.9,1.3L959.3,773.9z
	 M1028.6,776.6c0.6-0.6,0.7-0.7,1.4-1.2l1.1,2.6C1028.4,777.3,1029.4,777.5,1028.6,776.6z M364.9,773.9c2.2,0.9,2.7,1.4,4.6,2.5
	c2.8,1.6,2.2,0.7,3.7,2.9l-3.8,3.1l-6.6-3.1c-0.9-0.6-0.2-0.1-1-0.8l-0.5-0.7C362.6,775.6,362.5,775.3,364.9,773.9z M975.4,782
	c-1-0.7-1.8-0.7-1.3-2.2c0.9-0.5-1.4-0.9,1.6-0.4c2.5,0.4,1.3,0.7,1.7,1C976.4,782,977.9,780.9,975.4,782z M1015.2,780.3
	c0.2-0.1,0.8-1.4,3.3-0.8l0.4,2.5C1016.9,782.3,1016.3,782,1015.2,780.3z M989.3,784c-1.7-0.7-1.8-0.9-2.7-2.7l4,1.1L989.3,784z
	 M1004.7,782.4c2.2-0.3,1.2,0.3,1.7,0.5c-0.8,3.4-2.1,2.4-4,0.6C1002.9,783.2,1001.4,782.8,1004.7,782.4z M377.4,787.5
	c1-2.6,1.5-2.1,2.7-4.5c1.5,0.2,7.1,3.3,8.3,4.4l-3.2,3.7C382.9,790.3,380,788.4,377.4,787.5z M396.6,790.7c2.6,0.3,6.9,1.9,9.2,3.3
	c0.1,6.9-9,2.8-12.2,1.5L396.6,790.7z M412.1,800.3c0.9-1.7,1.3-2.6,2.2-4.2l7.3,2.7l-1.4,4L412.1,800.3z M427.7,800.2
	c1.5,0.3,2.6,0.7,4.2,1.3l3.3,1.8l-1.1,2.1c-2.4,0.2-5.9-0.3-7.5-1.4L427.7,800.2z M447.5,806.9l-5.3,0c-0.7-1.2-0.9-1.3-1-2.8
	l4,0.6C447.7,805.1,447.6,804.8,447.5,806.9z M457.4,808.1c-6,0-3.7-0.1-4.1-1.1c0.4-0.2,1.4-0.2,2.2,0
	C458.4,807.6,456.6,806.8,457.4,808.1z M168.6,805.2c1.9,0.9,1.9,2.2,1.8,4.3l-2.6,1.1L168.6,805.2z M306.6,815
	c3-1.2,6.4-3.8,9.9-3.4c0.6,2.7,0.9,1.6-0.9,3c-0.7,0.6-6.1,4.1-7.8,4.4L306.6,815z M294.8,827.1c0.3-1.8,1.1-2.2,2-3.4
	c1.4-1.8,0.6-1.4,2.6-2.5c0.6,0.8,1.1,0.9,1.9,2C300,824.7,296.6,826.9,294.8,827.1z M273.9,835.7c1.3,0.3,3,1.2,3.3,3.3
	c-1.5,1.1-1,0.8-3.3,0.7L273.9,835.7z M293.3,841.1c2.2-2.7,5.7-4,8.7-6.6l26.9-16.5l20.5,29.9c1.8,2.8,1.8,1.7,3.2,3.2
	c0.9,1,2.5,4.3,5.6,7.1c1.8,1.7,2.1,1.1,3.4,2.9c1.3,1.8,1.5,2.2,2.8,3.6c0.6,0.7,1,1,1.6,1.5c0.1,0.1,0.6,0.4,0.7,0.6
	c0.1,0.1,0.2,0.2,0.3,0.3l6.4,7c-1.6,1.7-3.1,2.7-4.8,4.1l-4.9,3.9c-4.8,3.1-11.5,9.2-12.4,9.7c-4,2.6-16.1,11.8-18.3,12.4
	c-2-2.2-3.3-5.3-5.3-7.9c-5.1-6.7-9.4-16.1-11.9-19.8c-1-1.5-2-2.1-2.8-3.6c-1.9-3.5-2.1-5.2-4.8-8.5L293.3,841.1z M311.9,894.1
	c2,2.8,4.5,5.6,3.8,8.1c-4,15.8,0.6,15.2-4.7,16.3c-1.3-1.5-1.9-2.3-2.9-4.2l-7.5-11.5c-1.2-2.4-3.5-5-5.2-7.4l-14.9-23.1
	c-1.9-2.6-3.6-5-5.2-7.5c-4.3-6.9-3.7-3.6-5.2-7.2c1.1-1.9,1.3-1.4,3.1-2.9c1.4-1.1,2.1-2,3.5-2.7c6.7,3,6.8,1.9,10.1,3.1
	c4.3,1.6,11.9,18.5,15.3,22.7l7.6,12C310.5,891.4,311,892.8,311.9,894.1z M918.4,864.5c1.6,0.7,3.1,2,3.6,4.1
	c0.5,2.2-0.4,3.7-1.7,4.7C916,868.7,914.4,866.1,918.4,864.5z M909.7,882.2c-1.4-3.1-3.5-2.7-3-5.9c0.1-0.1-0.5-1,2-0.3
	c1.8,0.5,2.3,2.9,3.6,4.2c1.8,1.8,4,1.9,2.4,5.9C911.4,887.5,910.8,884.5,909.7,882.2z M361.4,895.3c10.1-6.9,11.6-10.6,14.9-6
	c-1.8,2.9-10.4,9.1-13.1,10.1C362.4,898,361.9,897.2,361.4,895.3z M893.1,889.9c1.4-1.4,1.1-0.8,2.6-1.8c2.1-1.4,0.4-0.9,2.7-2
	l5.9,7.2c3,3.6-0.8,7.5-2.3,8.1C900.8,900.1,893.5,891.6,893.1,889.9z M808.2,889.4c1.8,1.4,1.2,0.4,2.2,2.6l-2.4,1.4l-1.9-2.3
	L808.2,889.4z M796.4,898.3l2.1,3.1c-1.1,2.5-0.6,1.8-2.5,2.6l-2.4-3.9c0.2,0,0.4-0.1,0.5-0.1l1.2-0.6
	C796.2,898.7,795.6,899.1,796.4,898.3z M347,906c1.2-2.8,4.6-3.6,6.6-5.1l2.2,2.9L347,906z M377,950.6c0-2.3,0.6-3,1.5-4.6
	l11.4-18.4c0.9-1.1,1.3-1.4,1.9-2.6l8.4-13.8c2.1-2.8,0.6-3.2,2.8-6.3c2.4,1,1.7,1.4,2.6,2.1c2.3,1.8,0.5,0.5,2.6,0.5
	c0.3,3.3-7.3,13.7-9.9,16.4c-1.6,1.5-2.4,3.6-3.5,5.4c-1.2,2-2.3,3.3-3.9,5.6c-2.5,3.7-6.6,13.8-10.1,16.9L377,950.6z M784.2,912.8
	c-1.3-1.6-2.1-2.9-2.7-4.7c0,0,1.7-0.6,2.2-0.6c1.8,0.2,3.1,2.5,3.6,3.9C785.5,913.1,786.2,912.6,784.2,912.8z M319.2,907
	c2.2,0.8,2.9,2.2,3.2,4.6l-3.3,1.4L319.2,907z M394.3,955.5c-0.4-3,4-8.7,5.5-11.6c2-3.8,3.7-7.9,5.8-12l13.8-21.9
	c2.9,0.5,4.6,1.9,6.6,3c-1.1,4.1-13.3,21.9-15,27.4c-1,3.2-9,12.9-10.2,14C399,955.9,397.3,956.4,394.3,955.5z M776.4,922.2
	c-0.8,1.2-0.6,0.9-1.8,1.9c-1.8-1.9-4.4-5.1-4.3-7.5C773.3,916.8,772.6,917.6,776.4,922.2z M420.6,951.3c1.7-11.6,9.1-19,11.1-24.9
	c1.3-3.6,1.5-5.8,4-8.3l2.8,1.4c-0.5,2.5-0.7,2.3-2,4.2l-7,12C426.8,941.5,425,948.4,420.6,951.3z M327.4,922.4
	c-1.1-0.4-0.7-0.4-1.2-0.8c0.8-2.8,2.8-0.1,3.2,1.4C329.2,922.9,327.5,922.4,327.4,922.4z M443.3,943.7c-0.2-4.2,1.6-6.5,3.2-9.5
	c0.7-1.4,1.2-2.5,2-4.3l1.6-4.1c1.7,1,1.6,0.4,3.3,2.2c-0.5,3.7-3,7.2-4.3,9.5c-1.9,3.3,0.5,1.8-2.5,3.9
	C443.5,943.6,447.3,943,443.3,943.7z M759.4,925.9c2.8,0.9,4.4,3.1,5.1,5.9l-2.6,1.3C759.9,931.1,758.5,929.1,759.4,925.9z
	 M745,936.1c1.1-2,0.6-1.7,2.5-2.7c2.2,1.3,5.3,5.8,6.2,7.8c0,0.2-0.7,3.1-3.6,3.8C747.6,942.2,746.4,939.4,745,936.1z M466.6,962.1
	l-5.6,18.2c-0.8,2.2-1.1,4.4-2,6.2c-5-0.2-2.6-2.3-6.5-4.5c-2.4-1.4-5.4-2.8-6.7-5.4l4.4-10.2c1.4-3.8,1.8-7.8,3.7-11.5
	c1.8-3.4,3.8-5.6,5.2-10l2.7-8.8c0.4-2.6-0.3-4.1,2.3-3.1c0.6,0.2,1.6,0.8,2.1,1.1c1.6,0.9,3.2,1.5,4.6,2.6
	c-0.4,1.1-0.5,1.1-0.7,1.4c-1.7,2.4-0.7,0.7-2.1,4.9c-0.7,2.2-1.6,3.9-2.3,6.5c-0.4,1.5-1.9,6.4-1.9,6.7
	C464,958.5,465.4,961,466.6,962.1z M721,941.8c0.3,7.8,1.6,14.6,1.7,22.2c0.1,7.9-0.5,9.1,0.6,17.1c0.4,2.5,0.7,2.8-1.3,3.7
	c-1.8-7.7-0.6-29.8-2.3-39.4C719.1,942,718.3,942.6,721,941.8z M734.8,945c1.1-1.8,0-0.3,1.8-1.9c2.3,1,5.4,4.8,5.9,7.7
	c-3.9,0.9-2.4,0.2-4.9-2.4C736.2,946.9,735.6,947.1,734.8,945z M716.9,986.7c-1.4-0.5-1.1,0.3-2-3.6c-1.5-7.3-2.9-28.5-2.6-35.6
	c0.1-2.8,0.2-3.3,3.1-2.8L716.9,986.7z M702,948.9c5.4-1.6,4.1,1.3,4.7,6.4l1.3,24c0.8,8.3,1.8,9.9-1.1,10.7l-2.5-20.4
	C704.2,965.2,703.2,951.7,702,948.9z M488.4,958.9c1.4,2.9,2.7,4.7,4.2,7c-1.5,3.9-4.1,9.6-5,13.8c-0.6,2.6-3.8,12.2-4.8,14
	c-2.6,0-3.1-0.9-5.6-1.9c-2.1-0.8-3.8-0.9-6.2-1.5c-0.1-4.5,3.9-11.5,5.4-15.1c0.7-1.7,1.2-3.3,2.1-4.9c1.1-2.1,1.4-2.4,1.7-5.2
	c0.5-4.1,4-5.5,6.7-14.8l3.1-1.1C491.4,951.2,488.7,955.3,488.4,958.9z M438.5,955.6c0.2-1.3,0.1-0.7,0.3-1.8
	c0.1-0.4,0.4-1.6,0.8-2.3c0.1,0.1,0.3,0.1,0.3,0.4c0,0.2,0.2,0.3,0.2,0.4C440.3,954.4,439.5,955.1,438.5,955.6z M692.4,952.6
	c4.4-3.1,3.5,0.5,3.8,3.8c0.2,2.2,0.7,2.2,0.8,5.1c0.3,12.2,1.4,20.5,1.9,31.8c-2.5-0.4-2.5-0.8-3-3.2L692.4,952.6z M431,974.3
	c-2.6-4.3-6.7-3.7-7.8-3.8c-1.3-0.2-1.3-0.4-1.6-0.5c-0.4-1.1-0.7,1.5-0.3-1.5c0.5-3.9,5.1-3.7,7.9-5.5l9.3-6.8
	c-0.5,3.1-0.5,1-1.7,5c-1.4,4.6-3,7-3.7,8.9C432.2,972.7,433.1,973,431,974.3z M682.4,954.8l2-0.1c2.2,4.1,1,17.3,1.3,23.2
	c0.2,2.9,0.5,9.5,0.9,12c0.3,1.9,4.4,9-2.2,5.9C683.1,991.8,681.4,957.3,682.4,954.8z M652.4,1001.4c-0.6-0.7-1,0.6-1.2-3.9
	c-0.1-2.1,0-2.7-0.4-4.8c-0.6-3-0.7-6.4-0.8-9.2c-0.3-6.8-0.2-13.7,0.2-20.2c1-0.7,1.8-1.1,2.8-1.6l1,0.9c-1.3,4.8-0.6,2-0.5,8.9
	c0.1,9-0.3,11.5,0.3,21.5c0.1,1.5,0.3,2.8,0.3,4.5C654.1,1000.3,654.3,1000.4,652.4,1001.4z M638.5,964.4c4-0.2,3.3-0.1,3.7,2.1
	c0.2,0.9,0.3,1.8,0.4,2.7l0.4,14.5c0.6,3.1,0.3-0.4,0.9,2.3c-1.7,4.2-0.1,3.7-0.2,7.8l-0.3,6.9c-0.4,1.4-0.6,1-1.2,1.6
	C640.5,998.4,639.1,969.3,638.5,964.4z M613.4,967.6l1.1,6.2c-1.2-1.1-0.4-0.1-1.2-2.6l-0.4-1C611.7,966.7,612.6,967.6,613.4,967.6z
	 M627.6,1001.6c-2.5-2.4,0.4,2.1-1.1-1.4c-1.6-3.7-2.1-26.2-1.9-31.2c0.1-3-0.4-2.4,2-3l2,33.5
	C628.6,1001.2,629.1,1001.8,627.6,1001.6z M660.9,968.4C661,967,660.8,969.9,660.9,968.4z M632.8,965.3c0.9,1.4,0.6,0,0.5,2.5
	c-0.1,1.6-0.2,1.8-0.2,3.7c0.1,2.5,0.3,4.6,0.4,7c0.2,3.6,4,27,0.3,23.6l-2-33.8C632,965.2,631.7,966.6,632.8,965.3z M617.5,967.1
	l2.6-0.2c0.3,0.7,0.4,0.4,0.5,1.6c0.1,0.5,0,2,0,2.5l0,13.9c0.2,3.1,2.2,15.6,0.3,15.2c-0.9-0.6-0.7-5.5-1-8c-0.3-3-0.3-5.6-0.5-8.4
	C619,978.1,617.9,972.7,617.5,967.1z M503,1002.5c-2.8-0.5-9.6-3.6-11.2-4.8l11.9-27.9c3.9,0.5,2.5,1.3,7,0.2c1.2,1.4,2,2,2.9,2.9
	c-0.8,6.4-8.2,23.9-8.3,24.5c-0.2,1.3,0.4,0-0.1,1.6C504.7,999.7,503.5,1001.7,503,1002.5z M660.7,973.9c1.8,2.9,1.1,9.5,1.1,12.9
	c0,3.2,0.4,4,0.7,6.4l0.2,5.6c-0.5,2.7-0.1,0.5-0.7,1.4c-2.1-2.9-1-8.8-1.1-12.8C660.7,982.4,659.9,978.3,660.7,973.9z M534.2,990.6
	l0.1,8.6c-2.1,0.8-5.5,0.8-7.1,0.1c0.4-3.9,5.4-21.2,7-23.5L534.2,990.6z M670.2,957.7l3.1-0.2c-0.9,7.9,2.4,37.6,1.3,40.5
	c-2.3,0.1-2.9-0.4-3.5-7.5C670.5,982.4,669.1,964.6,670.2,957.7z M613.4,975.9c1,1,1-1.4,1.2,2.6c0.1,1.1-0.2,2.6-0.3,3.6
	L613.4,975.9z M722.3,995.8l2.7-0.7l-1,28.6c-0.8-1.8-0.6-17.8-0.5-21.7c0-1.3,0.1-2.4-0.2-3.7l-0.8-1.6
	C722.4,996.5,722.3,996,722.3,995.8z M542.2,998.2c0-2.5,0.1-9.7,1.2-11.4c2.1,1.3,2.4,10.7,2.3,13.1
	C542.6,999.9,543.4,999.3,542.2,998.2z M716.5,998.7l0.9,38.8c0,3.5,0.1,4.4-3.1,4.6c0.2-4.2,2.5-35.8,1-41.5
	C715.4,1000.5,713.9,996.9,716.5,998.7z M707.8,1042.8l-1.8,0.7c-1-2.1-0.8-2-0.9-5.4l0-17.1c0.2-3.6,0.8-7.3,0.9-10.8
	c0.2-3.8-0.5-9,1.9-10.6c1.9,1.5,1,0.8,0.9,3.7c0,2.7,0.6,3.2,0.6,5.7c-0.1,8.9-0.5,5.7-0.7,10.8
	C708.5,1027.9,709.1,1035.4,707.8,1042.8z M695.5,1003.4c3.3,0.8,2.8,4.5,2.2,8.6c-1.3,10-0.8,23.6-1.3,32.7l-2.8,1
	c-0.5-8.8,2.2-23.1,2.3-32.3C695.9,1010.4,695,1004.5,695.5,1003.4z M685.1,1046.7l-3.8,0.5c0.8-6.3-1.2-6.5,1.1-20.9
	c0.6-3.6,1-6.6,1.3-10.2c0.1-1.7,0.3-3.6,0.2-5.2c-0.5-4-1.7,0.1-0.8-4.1c1.8-1.1,1.6-0.9,4.3-1.1l-2.8,30.6
	C684.6,1039.9,685.1,1043.5,685.1,1046.7z M659.5,1041.9c-0.2,2.1-0.1,6-1.2,7.9c-0.9,1.5-0.2,0.5-1.1,0.6c-0.1-0.2-0.2-0.5-0.2-0.5
	c0,0.1-0.2-0.4-0.2-0.5l2.2-30.8c0.2-1.4,0.4-3.2,0.6-5c0.1-0.6,0.2-2,0.5-2.6c1.1-2.7,0.2-0.9,1.6-1.4L659.5,1041.9z M616.9,1047.8
	c0-3,0.6-7.3,0.5-9.4c-0.5-8.8,0.5-12.1,0.5-19.3l0.2-7c0.2-2.5,0.2-1.6,0.9-2.6l2.3,0.6c-3.1,8.2-1.9,33.6-2.7,36
	C617.5,1049,618.2,1047.1,616.9,1047.8z M672.6,1047.7c-4.1,1.3-3.1-3.2-3.5-6.7l2-32.7c2.6,1,1.8,0.4,1.6,8.9l-0.5,26.6
	C672.6,1047,674.3,1044.4,672.6,1047.7z M626.3,1014.6c-1-1.3-2.9-3.3-0.9-4C627.7,1009.8,626.6,1013.3,626.3,1014.6z M641.9,1011.5
	c-0.8,1.9-0.2,1-1.7,1.9C639.7,1010.7,640,1011.8,641.9,1011.5z M645.7,1050.6c0-6.7,0.7-13.4,0.5-20.2c-0.1-5.1,0.3-14.6,1.3-19.5
	l3.9-0.3c0.9,5.2-1.4,4.4-2.2,8.4c-1.3,6.4-1.6,14.7-1.8,21.5c0,1.8-0.3,4-0.2,5.7C647.3,1049.3,648.7,1050.5,645.7,1050.6z
	 M632.2,1044.7c-1.1-1.9-0.3-5.8-0.7-8.4c-0.3-2.2-1.5-5.9-1.6-7.7c0-0.9,1.7-16.6,1.9-17.5l2.8,0.5c0.4,4.8-0.2,13.1-1,17.1
	C632.6,1033,633.7,1041.7,632.2,1044.7z M723.7,1025.7l0.5,2L723.7,1025.7z M476.4,1031.1c0.1-0.1-0.5-1.4,1.5,0
	C475.8,1032.9,476.6,1031.2,476.4,1031.1z M639.4,1029c1.2,1.5,0.7,2.1,0.8,4.7c0.1,2.5,0.8,3.3-1.1,4.3
	C638.3,1036.1,638.7,1031.4,639.4,1029z M722.6,1041l1.1-10.8c1,1.4,0.7,3.6,0.7,5.4c0,0.7,0.1,2.5,0,3.1
	C723.9,1041.9,723.5,1040.2,722.6,1041z M638.8,1041.9c0-0.7,0.6-0.3,0.5,0.1C639.2,1042.3,638.8,1043.1,638.8,1041.9z
	 M625.2,1046.3c0.3,0.6,0.6-0.8,0.5,1.3c-0.1,1.3-0.1,0.6-0.5,1.1C625,1048.5,623.4,1048.4,625.2,1046.3z M639.2,1043.8l0.2,6.2
	c-1.1-0.5-1.9,0.7-0.9-4.3c0.5-2.7-0.4,0.9,0.2-1.1L639.2,1043.8z M733.8,1083l-0.5,4.1c-1.2,0.6-1.9,1.1-2-0.9
	c-0.1-1.7,0.3-1.3,0.4-2c1.5-8.2,0.7-26.1,1.5-35.6c1.6-1,0.8-0.8,2.5-0.7l-2,30C733.5,1080,733.9,1082.1,733.8,1083z M723.8,1090.8
	c-1.7-2.5,1-17.3,1-20.5c0-2.4,2.2-18.7,2.9-20.1c1,0.4,1.3-1.8,1.1,3.7c-0.2,4.4-1.8,20.1-1.3,23c0.4,2.5,0.4,3.7,0.3,6.2
	C727.8,1086.8,729,1092.3,723.8,1090.8z M715.3,1092.7c-1.6,1-3.1,1.1-5.4,1.4c1-6.2,2.4-13.2,3.2-20.1c0.8-6.8,1.1-13.7,2.5-20.3
	c0.9-0.8,1.4-1.3,3.1-1.4c0.1,5.6-1.7,12.7-1.9,19.4C716.7,1075.7,716.3,1090.2,715.3,1092.7z M705.2,1094.4l-1,0.5
	c-0.1,0.1-0.8,0.3-1,0.3c-0.9,0.2-1.6,0.3-2.7,0.4c0.7-3.1,0.9-7.1,1.3-10.2c1.1-9.6,2-19.2,2.1-28.7c0-2.4,1.3-2.4,3.5-2.2
	c-0.4,2.9-1.4,6.3-1.7,8.8c-0.4,3.4-0.5,7.1-1.1,10.5c-0.7,4-0.6,6.3-0.9,10.4C703.3,1090.5,703.1,1089.3,705.2,1094.4z
	 M696.1,1096.6l-3.5,0.8c-1.6-2.7,0.7-29.2,1.9-35.4c0.8-4.2-1.4-5.7,2.4-5.9c1.4-0.1,1.3,0.2,2,0.7c-0.2,0.9-1,7.8-1,9.2l-2.1,20
	C695.1,1090.2,696.2,1092.6,696.1,1096.6z M630,1064.7l-1.1-2.5l-2.4,0.5l-0.2-3.8l6.4,0c-0.2,2.4,0.1,1.2-0.8,3L630,1064.7z
	 M688.8,1057.7l-2.4,19.6c-0.4,5.5-0.5,13.5-0.2,20l-5.7,0.9c-1-3,1.8-26.9,1.6-34.9C682,1057.7,681.2,1058,688.8,1057.7z
	 M664.2,1061.2l1.2-0.3c-0.4,1,0.7,0.2-0.2,0.3L664.2,1061.2z M671.7,1059.9l4.4-0.5c0.1,1.9-0.4,8.4-0.7,9.8
	c-1.3,5.7-2.4,23.3-2,29.1l-3.9-0.1l2.1-28.9C672.5,1065.5,670.8,1062.5,671.7,1059.9z M647.9,1082.7c0.1-4.4,0.7-7.2,0.9-11
	c0.1-2.9-0.4-8.1,0.1-10.5l8.9,0.1c-1.8,5.6-4.7,4.9-6.7,9.1c-0.9,2-1,4.1-1.6,6.1C648.1,1081.1,649.2,1080.6,647.9,1082.7z
	 M642.3,1074c-1.2-1.5-1.1-3.8-0.6-5.4c0.9-3.1,0.5-4.3,0.7-7.6c5.9-0.8,3.9,1.9,2.4,5C643.6,1068.6,643.4,1071.9,642.3,1074z
	 M641.2,1075.3l0.5,0l-0.4,4.3L641.2,1075.3z M663,1083.5c0.3,0.3,0.4,2,0.4,2.1c-0.6,3.2-0.1,0.9-1.1,2.1L663,1083.5z
	 M647.8,1085.4l-0.2,2.5C646.8,1086.6,647.2,1086.5,647.8,1085.4z M663.7,1098.1l-1.9,0.5c-1.5-2.1-0.9-0.4-0.5-4.8l0.5-3.8
	c0.4-1.1,0.4-0.8,0.8-1.3c1,2.4,0.5,2.4,0.3,4.8C662.7,1095.8,663.5,1095.3,663.7,1098.1z M630.1,1093.2c0.1-0.1,0.4-0.4,0.5-0.2
	c0.1,0.1,0.4-0.1,0.5-0.2l2.5-0.8c0.1-0.1,0.3-0.2,0.4-0.2l3.3,3.8c-1.3,0.6-2.5,1.1-4.4,0.8C630.2,1096,630.5,1095.9,630.1,1093.2z
	 M638.3,1095.1c1.7-0.9,0.9-1.5,1.8,0.4C639,1096.3,639.3,1096.4,638.3,1095.1z M645.4,1096.3c-0.1-2,1.8-0.3,0.7,0.1
	c0,0-0.1,0-0.1,0C645.9,1096.5,645.6,1098.7,645.4,1096.3z M654.8,1096.3v1.4C654.3,1097.4,652.6,1097.1,654.8,1096.3z
	 M733.4,1099.5c1.5-1.6,0.9-1.5,3.2-1.8c0.1,2.2-0.8,12.4-1.2,15c-0.6,4.2-0.1,11.1-0.3,13.7c-3.2-1.2-1-13-0.4-16.2l0.1-7.5
	C734.7,1100.6,734.7,1100.9,733.4,1099.5z M709.5,1136.2c-2.4,0.5-2.2,0.9-5.1,0.7l2-32.1c1.8-0.9,3.2-1.4,5.1-1l-2.5,15
	C708.7,1125.2,709.4,1130.4,709.5,1136.2z M717.4,1106.5l0.1-3.8l4.5-1.6l-0.3,16.2c-0.3,3.7-0.5,11.7-2.1,14.4
	c-0.4-0.5-0.7,0.1-0.8-2.3c0-1.1,0.2-2.1,0.3-3.2c0.2-2.4-0.2-4.4,0.1-6.9c0.3-3.3,1.6-8.6,1.7-11.5c-0.9-0.4-0.4-0.1-1.3-0.4
	l-1.5-0.5C717.8,1106.7,717.6,1106.6,717.4,1106.5z M631,1106l6.8,2.2l-0.1,5.9c0,1.4-0.7,4.2-0.7,6.9c0,4.7,0.7,10.3,0.6,14.5
	l-2.6-0.1c-0.1-2.3,0.6-4.5,0.4-7.4c-0.1-2.8-0.1-5.4-0.1-8.2c0-2.5,0.1-9.8-1.5-11c-1.7-1.2-1.1,0-3.3-1.3
	C631.2,1106.5,630.6,1107.3,631,1106z M693.9,1138.5c-0.3-2.6,0.8-5.1,1-7.3c0.4-3.1,0-6.4,0.1-9.5c0-3.2,1.1-3.8,0.9-8.1
	c-0.1-2.5-0.1-5.5,0.3-8.3l4.4,0c-0.5,4.8-3,23.4-2.1,28.1C699.3,1137.8,698.4,1139.4,693.9,1138.5z M670.9,1109.6
	c2.4-1.4,4.2-1.3,7.1-0.9c0.5,2.3-1.3,12.6-1.4,16.1c-0.3,13.9,4,16.8-4.3,15.5l0.2-23.1C672.7,1113.3,671.4,1112.1,670.9,1109.6z
	 M656.5,1110.5l11.2-0.8c0,5.2-1.4,9.1-1.6,14.5c-0.2,3.2-0.6,12.6-0.1,14.9l-1.8,0.6c-1.6-2.2-0.6-0.2-0.6-6.7c0-2.8,0.5-5,0.5-7.6
	c0-4.4,0.6-9.6-0.6-13.5c-1.9-0.4-1.5-0.2-3.4,0.4c0,3.9,0,3.4-0.8,6.9c-1.1,4.6-1.3,15.9-0.3,20.5l-3.8-0.5
	C654.9,1135.5,658.8,1122.6,656.5,1110.5z M630.5,1127.2l1.5,7.7c-1.8-0.8-1.1,0.7-1.9-1.6C629.3,1131.3,630.7,1127.8,630.5,1127.2z
	 M730.4,1121.6c0,4.2,1.7,6.4-2.6,7.3c0.3-1.4,0.5-2.4,0.9-3.8c0.2-0.7,0.2-1.3,0.5-2C730.1,1121,729.4,1122.5,730.4,1121.6z
	 M651.9,1138.1c0.6-0.7,1.9,0.8,0.6,0.4C652.5,1138.5,651.2,1139.1,651.9,1138.1z M683.3,1137c1.3,1.2,1.6,1.3,0.8,3.1
	c-0.9-0.6-0.7,1.1-1.1-1.3C682.8,1138,683.1,1137.5,683.3,1137z M738.7,1136.8c0.1,2.4-0.1,5.2-0.9,6.8c-0.7-0.8-1.2-1.8-1.8-2.3
	c-1.3-1-1.4-0.4-2.9-1.6C733.9,1138.2,736.5,1137,738.7,1136.8z M727.8,1161.7c-1.3-2-0.2-4.5-0.1-9.6c0-3.7,0-7.7,0.2-11.4l3.1-0.6
	c-1,2.9-2,5.3-2,10c0,2.1-0.1,4.3-0.1,6.3c0,0.5,0.1,3.1,0.1,3.2C728.7,1162.6,729.1,1160.9,727.8,1161.7z M722.7,1142.4
	c0.5,0.6,1.6-1.6,0.8,4.6c-0.3,1.9-0.7,2.9-0.7,5l-0.6,10.9c-1.1-2-0.3-12.1-0.3-16.4C721.7,1143.6,720.7,1143.8,722.7,1142.4z
	 M633.7,1153.1l0.9-9.1l3.9,0.8c-1,3.1-1.4,1.1-3.2,6.6C634.4,1154.4,635.8,1153,633.7,1153.1z M707.6,1166.5
	c-0.6-3.9,0.6-11.6,0.8-16.7c0.1-3.2-0.3-4.1,1.8-5.2c1.2,1.9,0.3,0.9-0.1,5.6l-0.5,12.4C709.6,1165.3,710.4,1166.1,707.6,1166.5z
	 M697.2,1146.8l3.2-0.5c-0.2,1.1-0.4,1.7-0.8,2.8c-0.9,2.3-0.6,1.5-1.8,2.5C697.4,1150,697.5,1147.6,697.2,1146.8z M716.7,1149.6
	c-0.2-0.2-1.2-0.2-1-3.3c0.2-3-0.4-1.5,1.3-2.4C717.9,1145.4,717.8,1148.6,716.7,1149.6z M667.3,1149.5c0.5-0.4,0.5-0.4,1-0.9
	c1.4,0.3,1.9,0.4,2.9,1c-0.1,0.9-2.6,13.4-3.5,14.3c-0.6-2.1,0.1-7.8,0-10.6c0-0.4,0-1.5-0.1-1.9
	C667.5,1149.4,667.6,1150.6,667.3,1149.5z M682.4,1149.5c0.1,0.7-0.2,0.7-0.5,1.6c-0.7,2.2-0.3,6.9-1.5,6.9l0.1-5.8
	c0-0.2,0-0.7,0.1-0.9c0.1-1.6-0.5,0.6,0-1.2c0.1-0.5-0.2-0.5,0.6-0.8C683.5,1148.3,681.6,1149.2,682.4,1149.5z M643.5,1167.1
	c-3.1-2.6,0.2-12.9,1.3-15.4c0.9,2.2-1.4,6.5-1,11.8C643.9,1165.8,644.6,1165.3,643.5,1167.1z M655.6,1169.8
	c-1.3-0.3-1.2,1.2-1.8-1.3l0.9-8.8c0.1-2.1,0.9-10.5,1.4-12c3,0.9,2.4,1.8,1.1,10.4C656.6,1162,657.1,1166.5,655.6,1169.8z
	 M715.9,1151c1.2,1.6,1.1,8.6,0.9,11.2c-0.2,2.1-0.4,1.8-1.7,2.5L715.9,1151z M733.5,1157.4c1,1.4,0.9,0.6,0,2.1
	C733.4,1159.5,731.6,1159.5,733.5,1157.4z M687.9,1181c-5.3,0-4,2.6-14,1.4c-6.6-0.8-32.1-2.2-36.5-4.6c-3.1-1.7-4-0.8-4.9-4.2
	c10.4,1.5,6.5,3.9,29.2,5.4c11.7,0.8,20.3-0.6,31.3-1.5l43.7-7.6c2.2-0.8,3.9-1.8,6.3-2.6c1.3-0.5,2.2-0.7,3.3-1.1
	c1.6-0.6,1.2-0.8,2.8-1.1c0.1,1.9-1.1,2.8-4.4,4.5c-3.8,1.9-17.7,4.6-23.4,6.4C716.2,1177.5,691.8,1181,687.9,1181z M648.3,1168.2
	c1.5-3.2-0.6-5,0.9-7.6c1,1.6,0.3,5.8,0.4,7.9C648.8,1168.8,649.2,1168.7,648.3,1168.2z M696.6,1160.3l0.5,6.4c-0.4,3.2,0,0.8-1,1.9
	c-0.9-1.1-0.7,1.6-0.8-1.9L696.6,1160.3z M685.4,1167.7c0.7,0.7,0.6,0,0.9,1.2c0.4,1.6-0.3,1.2-0.3,1.3
	C684.9,1169.4,684.2,1169.8,685.4,1167.7z M689.9,1169.2C689.9,1167.7,689.9,1170.5,689.9,1169.2z M667.6,1164.6c0.1,1,0,3.2,0,3.5
	c0,0.2,0.7,0.9-0.6,2.6c-0.1-0.2-1.2,1.5-0.4-2.9C667.2,1164.4,667.6,1164.6,667.6,1164.6z M674.7,1158.2l0,11.6
	c-0.3,1.3-0.3,0.8-0.8,1.5l-2.3-0.4c-0.1-2,0.2-4.3,1-6.3c0.7-1.9,0.6-0.6,1-3C674,1158.6,672.8,1160.3,674.7,1158.2z M630,1173.6
	c0-1.7,1.8-0.4,0.7,0c0,0-0.1,0-0.1,0C630.1,1173.7,630,1175.1,630,1173.6z M648.9,1187.5C649.1,1186.2,648.9,1188.5,648.9,1187.5z
	 M697.9,1189.4h0.6v1.9h-0.6V1189.4z M679.2,1188.4c2.1-0.8,4.6-0.9,7-1.3c1.6-0.3,6.2-1,7.1-1.1c1.3,3.9,0.7,9.5-3.4,11.8
	C683.9,1201.2,677.7,1196.4,679.2,1188.4z M708,1198.9l3.3,0c0.5,3.8,0.8,2.8-0.4,4.8l-3.3,0.4
	C706.8,1201.4,707.1,1200.9,708,1198.9z M663.1,1204.6c0.5-0.8-0.7-1,1.3-1.1c2.6-0.1,2.1,1.3,2.1,1.4
	C664.3,1205.4,664.9,1205.6,663.1,1204.6z M644.9,1204.6c-0.1-0.9,0.7-0.2,0.7,0.2C645.5,1205.3,645.2,1206.7,644.9,1204.6z
	 M719.3,1212.8c-0.1,0.4-0.3,0.4-0.4,0.6L719.3,1212.8z M711.4,1213.7l5.3-0.6c-1.2,1.1,1.9,1.2-2.9,1.3
	C712.3,1214.5,712,1214.1,711.4,1213.7z M640.9,1207.9l9.6,5.6c1.7,0.8,2.1,0.2,3.5,1.3c-1.7,0.9-5.8-0.8-7.7-1.6
	c-1.4-0.5-2.4-0.9-3.4-1.7C640.3,1209.5,641,1209,640.9,1207.9z M709.6,1214.4C710.3,1214.1,709.3,1214.5,709.6,1214.4z
	 M687.4,1216.6c2.6-1.9,7-1,10.4-1.5c2.6-0.4,8.1-2.2,10.3-0.3C705.8,1216.2,690.3,1217.8,687.4,1216.6z M656.9,1214.3
	c1.2,1.8,0.6,0.6,0,1.6C656.3,1214.9,655.7,1215.4,656.9,1214.3z M658.4,1215.5c1.4-0.9,20.5,0.7,21,0.8
	C677.8,1218.3,661.1,1217.5,658.4,1215.5z M680.8,1216.4c3.3,0,1.5-0.7,1.7,0.6L680.8,1216.4z M684.8,1216.7l0.7-0.5
	c1.3,0.1,0.4-0.1,1.1,0.5C685.8,1217.1,686.7,1217.7,684.8,1216.7z"/>
<path fill-rule="evenodd" clip-rule="evenodd" d="M490.5,245.4l33.3,0.4l4.3-8.5c0.1-0.1,0.2-0.3,0.2-0.4l1.4-2.9
	c1.4-3,24.5-13,26.9-14.4l-0.7-88.9c-0.1-28.3-0.6-57.3-0.6-85.2l-63.4,0c0.4,41.8-1.3,80.4-1.7,121.3l-0.7,67.1
	c0,0.7-0.1,2.6-0.1,3.2C489.6,242.1,489,243.5,490.5,245.4z"/>
<path fill="none" stroke="#FFFFFF" stroke-width="0.216" stroke-miterlimit="22.9256" d="M490.5,245.4l33.3,0.4l4.3-8.5
	c0.1-0.1,0.2-0.3,0.2-0.4l1.4-2.9c1.4-3,24.5-13,26.9-14.4l-0.7-88.9c-0.1-28.3-0.6-57.3-0.6-85.2l-63.4,0
	c0.4,41.8-1.3,80.4-1.7,121.3l-0.7,67.1c0,0.7-0.1,2.6-0.1,3.2C489.6,242.1,489,243.5,490.5,245.4z"/>
<path fill-rule="evenodd" clip-rule="evenodd" d="M381,506.4c3.2-0.1,3.9-0.6,6.4-1.7c1.1-0.5,1.5-0.6,2.5-1.3
	c1.3-0.8,1.2-1,2.5-1.9c0,0,0.8-0.5,1.2-0.8c5.6-4.2,1.9-0.8,8.7-5.9c2.2-1.7,5.4-6.1,7.4-8.4c1.4-1.6,6.3-7.2,8.3-8
	c-0.3,9-4,20.4-4,30.3c-0.1,15.1-3.1,42.9-16.6,48.9c-4.8,2.1-6.1,0.5-9-1.8c-3.1-2.4-4.5-3.7-6.5-7c-2.7-4.4-9.7-9-11.1-0.6
	c-0.9,5.4,2.2,6.9,4.4,11.2c4.4,8.8,29.7,19.8,39.6,5.3c1.1-1.7,0.6-0.6,1.3-2.5c3.9-10.7,3.8-24,4.8-35.6c5.9,1,6.5,3,11.6-2.9
	l8.1-6.5c0.8-0.5,0.4-0.3,1.6-0.5c5.2,8.3-2.1,30.1,9.4,41.1c7.8,7.4,18.9,4.4,27.2-2.3c1.4-1.1,2-1.8,3.3-3
	c1.3-1.2,2.2-2.2,4.4-2.4c0.5,7.2,6,16.7,13.2,14.8c4.7-1.3,7.7-7,10.3-10.5l1.1-1.4c0.1-0.1,0.2-0.3,0.2-0.4
	c0.1-0.1,0.1-0.3,0.2-0.4c0.1-0.1,0.1-0.3,0.2-0.4c1.5-2-0.9-0.4,2.1-1.6c3.3,2.3,1.9,3.2,4.3,6.3c4,5,11,6.4,16.7,4.6
	c1.8-0.6,3-1.1,4-1.6c1.3-0.6,0.9-0.3,2.2-1.1c1.1-0.6,0.7-0.5,1.4-0.9c6.7,9.1,11.3,17.7,23.2,9c6.2-4.6,12.4-16.3,16.2-23
	l7.4-12.2c1.1-1.9,0.9-3,2.9-3.8c-1.5,14.3-3,19.4,0.7,33.5c1.2,4.6,4.9,7.6,9.3,8.4c2.7-13.6,0.3-9.8-4.3-19.8
	c-5-11,0.1-23.9,3.1-35.2c2.6-9.7,2.7-9.1,16.6-11.4c3-0.5,9.6-0.6,10.9-3c-2.6-1.6-2.5-0.9-5.2-0.8c-3.5,0.2-15.9,2.6-17.3,1.7
	c1.5-3.7,2.4-10.2,4.4-14.6c1.8-4,5.2-13.2-1.6-13.5c-6.4,7.1-5.2,24.7-10,30.4c-2.7,3.3-14.8,4.4-18.8,11.6
	c-2.1,3.7-0.5,4.6,2.2,5.6c4.9-3.5,8-9.7,14.3-11.1c-1.4,8.2-16.4,30.3-21.1,38.3c-4.2,7.2-13.1,24.7-23.4,16.9
	c-2.6-2-5.4-5-6.1-9.5c1.6-2.1,3-3.2,4.6-5.2c1.8-2.3,1.9-3.8,3.7-5.8c4.3-4.8,7.7-11.7,11.6-17c0.1-0.1,0.2-0.2,0.3-0.4
	c3.5-4.6,7.4-14,9.6-19.4c3.6-9,6.2-22.3,3.7-32.9c-1.2-5.4-4.6-9.2-10.5-6.2c-3.6,1.8-2.6,1.5-4.6,4.8c-6.3,10-11.7,22.7-14.6,34.1
	l-5.7,23c-1.5,5.5-2.3,11.4-2.5,17.3c-0.1,3.3-1.2,4.1-3.4,5.8c-4,3.2-10.9,4.1-14.6,1.1c-11.4-9,1-16.3,1.6-23.3
	c0.3-4.3-1.8-7.5-5.6-3.4c-6.1,6.6-2.3,9.9-12.3,24.4c-1.9,2.8-4.4,6.2-6.6,7.9c-7.4,5.8-12.6-9-9.3-14.4c3-4.8,6.3-10.4,5.5-16.4
	c-0.3-2.4-2.2-2.8-5.5-3c-1.6,3-1.9,3-2.9,7.2c-0.7,2.9-0.9,5.8-2.6,8.1c-1.7,2.3-3.5,3.9-5,5.8c-2.5,3.3-1.6,3.2-5.6,5.1
	c-7.5,3.7-6.8,4.9-15.9,2.1c-11.5-3.5-8.7-10.4-8.4-20.3c0.4-11.1,2.5-24.6-9.2-29.6c1.1-4.9,5.3-13.1,7.4-17.4
	c13.1-25.7,28.6-18.5,40.2-24.3l1.9-1.3c1.1-0.9,0.5-0.6,1.6-1.6c0.8-0.8,0.9-0.8,1.8-1.3c-0.3-3.3,0.5-4.5-2.9-5.6
	c-6.1-1.9-13.2,2-18.3,4.6l-9.7,6.2c-0.9,0.7-1.5,1-2.2,1.5c-7.5,5.3-15.5,17.6-18.7,25c-2.5,5.6-6.2,10.3-7.5,15.9
	c-0.8,3.4-5.1,14.2-7.6,16.5c-3.5,3.1-7.9-0.9-7.8-4.9l3-28.3c2.4-8.2,4.8-15.9,8.1-23.7c1.1-2.7,1.6-3,2.5-5.1
	c1.4-3.1,4.1-8.8,2.6-12c-1.2-2.6-2.2-3.4-5.4-3.1c-3.5,1.3-7.5,13.6-9.7,17.3c-1.7,2.8-4,5.9-5.5,8.4
	C402.3,493,383.9,502,381,506.4 M545.7,543.2c-1.1-5.6,7.6-25,9.6-29.6c2.8-6.3,8.9-25.3,14.3-24l0.5,0.9c0.3,1.1,0.1,0,0.2,1.1
	c0.3,3-2.5,14.8-4.6,18.5C560.2,520.1,553,535.4,545.7,543.2z"/>
<path fill-rule="evenodd" clip-rule="evenodd" d="M465.2,671.8c4.9,0.3,0.5-3.5,6.8-14.2c9.4-16.2,11.4-19.3,25.1-28.7
	c2.3-1.6,4.7-3.9,6.7-3.9c0.5,2.4-1.9,27.4-4.3,30.9c-0.5,0.7-0.6,0.8-1.1,1.4l-1.8,1.8c-2.4-0.6-2.3-1.4-4.9-1.4
	c-1.8,2.7-4.2,8.3-3.2,12.2c3.8,1,3.8,0.1,5.9-2.7c0.1-0.2,0.7-1,0.8-1.1c2.1-2,1-0.8,2.3-0.1c0.5,2.5-7.1,31.7-1.9,37.1
	c0.1,0.1,0.6,0.4,0.7,0.5c0,0,1.5,1.4,1.7-1.7c0.3-4.6-1.7-3.1,1.1-21.7c0.7-4.6,0.4-5,2-6.7c3,4.5,5.2,10.4,12.2,16
	c6.9,5.5,4.5,6.9,16.3,12.9c7.6,3.9,29.1,4.8,38.4,2.7c21.4-4.8,6.6-1.2,21.9,0.8c4.6,0.6,9.3,0.5,13.9,0.4
	c6.4-0.3,11.8-0.8,16.9-4.2c2.4-1.7,2.3-1.3,3-5c-3.6-2.2-3.4-5.3-12.7-0.8c-5.5,2.7-25.4,7.9-27.6-0.1c-0.8-3,0.6-4.5,1.7-6.3
	c3.6-5.7,9.4-8.9,16.6-10.7c4.3-1.1,7.8-4.3,8.6-9.6c0.7-4.9-5.3-7.5-10.3-7c-5.3,0.5-8.4,4.1-11.2,7c-3.5,3.6-4.8,5.7-7.7,10
	c-8.2,12.2-0.9,13.3-19.8,17.1c-7.6,1.5-25,1.7-31.9-1.9c-4.3-2.2-8-3.9-11.6-6.7c-5.9-4.6-5.6-6-8.5-9.8c-2.5-3.2-5.7-7.3-6.8-11.7
	c3.1-1.9,3.2-5.2,6.4-7.9c3.1-2.6,5.8-3.9,8.7-6.5l14.6-15.8c14.2-17.3,0.1-37.5-13.1-32.1c-5.9,2.4-12.8,8.8-18.2,12.2
	c-11.9,7.7-28.5,30.7-33.3,42.7C466.1,663.1,464.8,667.7,465.2,671.8 M514.4,619.7l4.4,3c-0.3,4.6-10.2,23.5-12.9,24.3l1.8-25.4
	L514.4,619.7z M590,674.4c0.9-1.6,5.7-7.3,9-7.2C601.3,671.9,593.6,674.9,590,674.4z"/>
<path fill-rule="evenodd" clip-rule="evenodd" d="M562.8,52.4c-1.4,2.2-0.8,6.8-0.7,9.2l1,107.6c0.2,12.9,0.1,32.8,0.6,46
	c2.8-0.3,20.3-8.6,20.7-9.3c0.6-1.2-1.7-140.6-1.7-148.1C582.7,51.7,583.2,51.7,562.8,52.4"/>
<path fill-rule="evenodd" clip-rule="evenodd" d="M897.8,688.2c0.1,0,0.3-0.2,0.4-0.2c0.1,0,0.3-0.1,0.4-0.3
	c0.1-0.2,0.2-0.3,0.3-0.4c-4.7-3.1-19.8,1.4-23.9,4c-3.2,2.1-6.3,3.8-9.3,5.9c-3.8,2.8-6,5.7-7.9,6.3c0-4.6,0.4-1.3-0.9-3.2
	c-5.6,2-5.2,8.5-8.2,11c-0.8-1.4-0.2-1.2-1.9-2.2c-1.9,2.1-1.6,3.7-3,4.9c-10.1,8.1-3.6,9.4-8.8,12.2l-0.9-6.5
	c-2.5,0.4-2.6,1.4-3,4.4c-1.2,9,1.3,5.9-2.6,10.6c0.5-2.9,1.6-1.2,0.5-4.8c-7.8-1.6-8.2,18-12.5,21.3c-1.7-3.2,0.6-6.6,0.8-7.3
	c0.8-2.9,0.2-0.7-0.2-1.5c-1.6,1.2-1.8,2.1-3,4c-5.7,8.8-2.1,8-1.8,15.1l-1.9,1c0,2.2,0.3,2.1,0.6,4.4l-2.5,0.1
	c-0.2,0-0.3,0-0.5,0.1l-3.9,1c-2.3,2.2-0.4-0.1-0.8,2.2l3.4-0.6c1.7-0.4,1.2-0.4,3.1-0.3c-0.3,3.8-8.3,10.8-8.3,10.8
	c-1.8,2.2-4.2,7.5-4.8,10.6c-0.9,4.8,0.7,3.7,0.7,3.7c1.1-0.7,0.5,0.6,1.5-1.9l3-5.2c4-5.3,1.9-3,4.4-7c3.6-5.6,3.1-6.4,7.6-12.1
	c2.2-2.8,2.9-1,5.4-2.8c2.4-1.7,4.8-5.9,7.5-7l3.2-1.5c3.7-2.6,3-1.3,6.3-3.1c2.6-1.4,5.4-1.8,6-4.7l-5-0.3c1.8-4,3.3-0.6,12.9-5.8
	c5.7-3.1,2.3-5.7,7.9-9.9c1.8-1.3,1.4-0.5,3-2.1c0.6-0.6,1.2-1.5,1.9-2.7c4.1-7.3,11.6-9.4,14.3-12c-0.9-1.7-1.1-1.3-1.7-3.2
	c1.4-2.2,4.7-2.8,7.1-4.8l5.1-6.3c1.7-2.7,4-3.3,5.8-5.6c3.8-4.8,3.3-5.2,3.3-8.1L897.8,688.2z M825,751.5c1.4-1.7,6.3-6.3,7.3-8.7
	c1.8-4,5.5-8.8,8.9-11.8c6.8-6.1,11.2-14.5,15-15.9c-2.7,3.1-5.4,7.3-9.5,11.9l-21.3,26.2c-3.6,5.6-4.5,4.7-6.8,7.9L825,751.5z"/>
<path fill-rule="evenodd" clip-rule="evenodd" d="M808.6,638.2c2.2-4.9,9.6-11.8,6.8-21.4l-3.3-0.6c-5.8,0.9-9,27.8-10.9,29.8
	c-1.6,1.7-8.2,0.2-17.2,6.6c-0.1,5.1,0.9,5.9,6.3,4.6c1.1-0.3,2.7-0.6,3.9-1.1c2.1-0.9,1.3-0.9,4-1.3c-0.2,3.3-1.7,7.4-2.5,10.4
	c-2.2,8-8,38,1.8,41.1c5.1,1.6,17.3-10,17.5-15.9c0.2-5.9-7.2-2.4-9.4,0.4c-2.3,2.9-2.9,5.5-6.2,6.6c-7.5-7.4,2.9-42.6,4-44.2
	c2.4-3.4,26.2-6.8,32.2-8.3c4.2-1.1,7-2.3,10.8-2.4l-4.4-2.1c0,0-32.5,5-35.8,4.6L808.6,638.2z"/>
<path fill-rule="evenodd" clip-rule="evenodd" d="M641.2,551.6c0.4,3.7-0.3,11.7,6.6,15c2.5,1.2,8.6,1.3,9.7-0.4
	c2.8-4.5-5-5.6-5-5.6c-5.1-2-6.5-16.5-1.4-24.7c3.9-6.2,4.3-7.3,0.7-10.4c-9.8,1.6-9.9,22.6-22.1,31.4c-7.6,5.4-16.6,9-16.3-5.2
	l0.8-4.1c2.5-9.8,0.7-6.9,5.7-17c2.3-4.5,1.4-8.4-2.3-9.9c-1.9,0.6-2.6,1.4-4.1,2.2c-3.3,2-4.9,10.4-5.8,14.4
	c-2,9-2.2,16.8,2.4,23.4c3.7,5.3,10.4,7.9,17.6,3.6C634.8,560.1,637.6,552.1,641.2,551.6"/>
<path fill-rule="evenodd" clip-rule="evenodd" d="M657,693c-4.9,4.1-7.2,5.3-14.7,4.7c-7-0.6-7-6-12.4-4.6c-4.5,1.1-3,8.5-0.4,10.2
	c6.1,4,20.3,4.3,27.4-2.1c0.1-0.1,0.2-0.2,0.3-0.3c0.1-0.1,0.2-0.2,0.3-0.3c3-2.7,4.7-5.6,3.7-10.1c-0.2-0.8-4.1-7.2-4.9-7.8
	c-4.5-3.2-17.2-0.3-23-2.9c-0.4-1.2-0.9,1.4-0.2-1.3c0.2-0.8,0.5-1.1,0.9-1.6c6.7-8.1,22.8,0.1,24.2-8.2c1-5.4-9.2-6.3-16.4-4.2
	c-5.3,1.6-11.1,5.2-13.5,10.5c-1.6,3.6,1.2,6,3,7.2c4.7,3.3,16,1.8,21.8,2.3C656.8,685,657.1,687.6,657,693"/>
<path fill-rule="evenodd" clip-rule="evenodd" d="M667.6,703.2c0.9,1.8,1,1.8,2.6,2.4c2-0.9,2.9-2.5,4.3-3.8
	c2.7,0.2,3.6,1.3,6.4,2.1c21.6,6.2,21.4-5.1,14.1-7.9c-7.3-0.9-10.6,4.9-17.1,3.3c0.4-2.2,1-2.4,2.5-3.9c3.5-3.6,4.5-5.5,7-9.7
	c4.2-0.4,7.7-0.2,10.8-2c-0.7-1,1-0.9-1.9-1.6l-7.2-0.4c-0.4-2.4,0.5-2.3-0.1-5.7c-0.3-2-1.2-3.4-2-4.9c-1.6-2.7-3.4-5.4-7.3-6
	c-7-1-15.5,7.7-7.4,13.6c4.7-0.6,10.7-3.4,13.6-2.7c-0.5,2.4-0.7,4.3-1.8,5.8c-2.8-0.1-13.6-0.6-16.1,0.4l-0.1,1.7
	c0.9,2.6,9.4,1.4,14.2,1.6c0,2.9-7.3,11-8.1,12.2l-6.8-0.4C666,700.2,666.3,700.7,667.6,703.2"/>
<path fill-rule="evenodd" clip-rule="evenodd" d="M666.1,542.3c-0.2-6.2,0.9-10.3,0-12.5c-5.4-0.5-3.5,12.1-3.4,20
	c0,4.9-2.1,10.9-0.7,16.9c0.7,3.1,1.2,2.6,4,3.1c-0.1-3.1,0.1-6.9,0.3-9.2c0.7-9.2-1.8-10.3,8.4-22c2.8-3.2,5.6-6.9,11.5-8.1
	c7.4-1.5,11.8,2.7,17.8,1.3c0-0.2,0.1-0.6,0.1-0.5c0,0.1,0.1-0.4,0.1-0.6c0-0.2,0.1-0.4,0.1-0.6c0.8-6.5-7.6-12.2-20.4-4.4
	C673.6,532,668.8,541.2,666.1,542.3"/>
<path fill-rule="evenodd" clip-rule="evenodd" d="M756.4,703.2c2.4-9.5,1.4-25.8,7.6-29.8c9.3-6.1,14.1-1.1,18.1-4.1
	c4.1-3,1-14.9-13.4-6.4c-12.2,7.2-9.9,14.5-13,16c-2.1-4.6,1.6-12.9-4.4-13.1c-0.5,2.4,1,31.3,1.5,35.4
	C754.9,703.1,752.9,702.8,756.4,703.2"/>
<path fill-rule="evenodd" clip-rule="evenodd" d="M637.9,521.3c2.3-0.8,0.4,1.9,2.5-5.1c0.7-2.2,1.3-4.2,1.9-6.3
	c1.2-4.3,2.9-7.1,4.2-11.7c4.2-14,10.1-17.5,5.7-22.2c-1.3-1.4-3.3-2.1-5.3-0.9c-2.9,1.6-3.9,16.5-4.4,19.8
	C641.5,500.7,635.5,518,637.9,521.3"/>
<path fill-rule="evenodd" clip-rule="evenodd" d="M427,776.4c0.1,0,0.2-0.2,0.2-0.1c0,0,0.1,0,0.1,0
	C427.2,776.3,426.2,775.9,427,776.4"/>
<path fill-rule="evenodd" clip-rule="evenodd" d="M972.4,722.6C972.9,722.9,972.1,722.3,972.4,722.6"/>
<path fill-rule="evenodd" clip-rule="evenodd" d="M660.9,968.4C660.8,969.9,661,967,660.9,968.4"/>
<path fill-rule="evenodd" clip-rule="evenodd" d="M701,693.9c1.6,8.4,12.3,11.7,20.9,12.7c2.7,0,5.5,0,8.2,0
	c10.6-2.6,13.9-11.4,15.8-19c0-3.2,0.1-6.2-0.5-9.4c-1.7-8.3-12.8-17.2-17.9-17.2C708.4,661,701,679.1,701,693.9 M717.7,699.7
	c-1.6,0.3-3.1,0.3-4.6,0.3c-2.9-0.3-8.4-1.5-8.6-11.4c0.3-2.6,2-7.6,3.5-10c0.1,0,16.9-25.3,25.3,0c0.5,3.3,1,6.3,0.6,9.5
	C732.6,695.2,720.8,699.5,717.7,699.7z"/>
</svg>
