<?xml version="1.0" encoding="UTF-8" standalone="no"?>
<!DOCTYPE svg PUBLIC "-//W3C//DTD SVG 1.1//EN" "http://www.w3.org/Graphics/SVG/1.1/DTD/svg11.dtd">
<svg width="100%" height="100%" viewBox="0 0 500 512" version="1.1" xmlns="http://www.w3.org/2000/svg" xmlns:xlink="http://www.w3.org/1999/xlink" xml:space="preserve" xmlns:serif="http://www.serif.com/" style="fill-rule:evenodd;clip-rule:evenodd;stroke-linejoin:round;stroke-miterlimit:2;">
    <g id="SchönherzBody">
        <g transform="matrix(-0.0955723,0.995422,0.995422,0.0955723,205.514,2.03608)">
            <path d="M1.78,-4.997C0.435,-4.383 -0.08,-2.895 -0.843,-1.743C-0.121,-0.478 0.259,1.216 1.78,1.804C3.87,2.839 6.423,1.155 6.733,-1.025C7.353,-3.608 4.172,-6.053 1.78,-4.997" style="fill:rgb(11,11,11);fill-rule:nonzero;"/>
        </g>
        <g transform="matrix(1,0,0,1,325.15,45.7301)">
            <path d="M0,-43.61C2.949,-43.51 6.51,-44.16 8.779,-41.76C9.529,-40.35 9.5,-38.27 7.75,-37.69C4.1,-35.7 -0.41,-42.1 -3.21,-37.82C-6.051,-33.11 -8.61,-28.22 -10.96,-23.24C-7.21,-24.85 -3.351,-27.01 0.869,-26.62C2.989,-26.04 3.859,-23.58 2.939,-21.67C0.239,-15.51 -4.37,-10.38 -6.86,-4.1C-4.561,-5 -2.301,-6.02 -0.021,-6.98C2.09,-3.73 -1.86,-2.64 -4.08,-1.57C-6.41,-0.68 -9.021,0.55 -11.511,-0.39C-13.721,-1.83 -13.141,-4.74 -12.24,-6.78C-9.74,-12.16 -6.11,-16.91 -3.49,-22.23C-8.271,-21.81 -13.12,-19.32 -15.381,-14.94C-17.33,-11.27 -19.37,-7.65 -21.181,-3.91C-23.17,-4.41 -25.15,-4.94 -27.131,-5.46C-24.17,-11.27 -20.83,-16.88 -17.91,-22.71C-15.08,-27.76 -12.801,-33.17 -9.261,-37.8C-6.971,-40.52 -3.62,-43.35 0.189,-42.49L0,-43.61Z" style="fill:rgb(11,11,11);fill-rule:nonzero;"/>
        </g>
        <g transform="matrix(-0.954518,-0.298153,-0.298153,0.954518,195.364,10.9378)">
            <path d="M4.321,-5.971C2.787,-8.105 -1.383,-7.533 -1.808,-4.763C-3.518,-1.233 2.131,1.946 4.321,-1.309C4.608,-1.156 5.177,-0.863 5.464,-0.711C4.711,-2.392 5.718,-4.539 4.321,-5.971" style="fill:rgb(11,11,11);fill-rule:nonzero;"/>
        </g>
        <g transform="matrix(1,0,0,1,241.83,28.69)">
            <path d="M0,-14.17C2.78,-17.29 6.15,-20.25 10.3,-21.26C11.72,-21.84 12.92,-20.92 13.99,-20.1C13.6,-18.52 13.22,-16.93 12.86,-15.34C16.2,-17.47 19.24,-20.72 23.37,-21.14C25.71,-21.45 27.37,-18.94 26.8,-16.79C25.63,-10.24 22.47,-4.2 21.52,2.42C23.93,1.54 27.08,-3.98 29.04,0.36C26.12,3.1 23.16,6.32 19.11,7.23C16.25,7.67 15.24,4.57 15.61,2.3C16.28,-3.95 19.35,-9.63 20.31,-15.83C18.38,-15.11 16.45,-14.24 14.939,-12.81C9.53,-8.09 9.65,-0.26 7.66,6.14C5.56,6.13 3.47,6.1 1.38,6.07C3.4,-1.42 5.53,-8.9 7.05,-16.5C4.87,-15.04 2.51,-11 0,-14.17" style="fill:rgb(11,11,11);fill-rule:nonzero;"/>
        </g>
        <g transform="matrix(1,0,0,1,195.12,35.0198)">
            <path d="M0,-16.72C-2.88,-12.36 -2.14,-6.66 -0.6,-1.95C0.12,0.25 2.18,3.1 4.84,1.9C7.75,-0.41 8.29,-4.49 8.17,-7.97C7.75,-11.96 6.97,-16.48 3.52,-19.03C2.23,-18.46 0.68,-18.11 0,-16.72M2.24,-22.48C5.65,-24.2 10.2,-22.84 12.07,-19.5C16.79,-11.57 13.71,-0.62 6.53,4.77C4.04,6.34 0.83,7.48 -2.03,6.23C-6.24,4.84 -7.59,-0.02 -7.8,-3.99C-8.16,-11.24 -4.97,-19.67 2.24,-22.48" style="fill:rgb(11,11,11);fill-rule:nonzero;"/>
        </g>
        <g transform="matrix(1,0,0,1,136.14,60.8601)">
            <path d="M0,-46.74C1.58,-47.99 4.08,-49.39 5.87,-47.68C7.21,-46.81 6.35,-44.88 6.38,-43.57C3.81,-41.74 -0.2,-41.86 -1.86,-38.97C-1.17,-33.04 0.59,-27.26 2.28,-21.54C3.83,-25.08 5.42,-28.8 8.3,-31.48C10.11,-33.08 13.08,-31.86 13.64,-29.62C15.87,-23.24 15.57,-16.19 18.29,-9.96C19.47,-11.99 19.73,-14.82 21.51,-16.36C22.07,-16.15 23.21,-15.74 23.77,-15.53C22.84,-11.5 21.08,-7.72 18.49,-4.48C17.19,-4.34 15.88,-4.25 14.57,-4.21C10.32,-10.44 10.78,-18.36 8.65,-25.36C5.44,-23.03 4.23,-18.75 4.12,-14.96C4.79,-9.99 6.35,-5.17 7.56,-0.31C5.72,0.73 3.84,1.73 1.93,2.65C-0.18,-8.46 -3.52,-19.29 -5.88,-30.34C-7.25,-36.36 -4.95,-43.01 0,-46.74" style="fill:rgb(11,11,11);fill-rule:nonzero;"/>
        </g>
        <g transform="matrix(1,0,0,1,370.04,60.8601)">
            <path d="M0,-15.72C-2.81,-14.7 -4.97,-12.5 -6.88,-10.3C-3.38,-10.38 1.68,-9.99 3.33,-13.89C3.53,-15.71 1.35,-16.32 0,-15.72M-18.28,-5.07C-15.3,-11.8 -8.99,-16.8 -2.03,-18.92C1.91,-20.23 6.18,-18.83 9.16,-16.1C9.99,-13.21 8.94,-9.85 6.14,-8.48C1.33,-6.01 -4.33,-7 -9.49,-7.38C-10.4,-5.81 -11.271,-4.22 -12.12,-2.61C-9,0.63 -4.16,-1.31 -0.25,-1.31C-0.31,-0.46 -0.41,1.25 -0.47,2.1C-5.78,2.83 -11.66,4.51 -16.62,1.59C-19.03,0.39 -19.31,-2.86 -18.28,-5.07" style="fill:rgb(11,11,11);fill-rule:nonzero;"/>
        </g>
        <g transform="matrix(1,0,0,1,329.14,77.2395)">
            <path d="M0,306.741C0.061,309.541 1.221,312.11 2.181,314.701C2.87,314.661 4.25,314.581 4.95,314.541C4.16,311.551 3.21,307.93 0,306.741M7.87,299.94C7.771,302.081 7.971,304.261 9,306.19C9.48,306.041 10.431,305.751 10.9,305.6C10.851,303.43 10.721,301.261 10.521,299.11C9.63,299.381 8.75,299.661 7.87,299.94M-33.89,292.241C-34.71,293.23 -34.22,295.161 -32.939,295.511C-30.979,295.241 -32.149,291.35 -33.89,292.241M67.13,286.9C66.38,292.951 61.551,296.991 58.25,301.72C59.431,303.421 60.061,305.581 58.271,307.15C54.311,310.86 48.28,314.211 49.011,320.581C52.101,320.98 55.17,319.411 56.851,316.82C59.431,313.02 60.641,308.211 64.63,305.48C63.431,299.581 71.37,298.741 72.891,293.86C74.07,290.86 71.67,288.14 70.13,285.801C69.38,286.07 67.88,286.621 67.13,286.9M-26.319,264.171C-30.439,268.801 -33.97,274.43 -33.859,280.881C-32.93,280.1 -32.05,279.27 -31.22,278.381C-30.08,278.121 -28.93,278.051 -28.029,278.961C-28.56,279.35 -29.64,280.121 -30.18,280.511C-28.699,281.18 -28.08,282.301 -28.319,283.871C-29.909,283.43 -31.33,282.61 -32.25,281.19C-32.79,281.77 -33.319,282.371 -33.84,282.97C-32.859,288.801 -30.46,294.421 -26.779,299.06C-24.76,299.241 -21.439,300.711 -20.109,298.741C-19.88,290.841 -23.04,282.85 -20.62,275.03C-20.02,274.56 -19.409,274.11 -18.779,273.701C-19.83,277.68 -20.72,282.03 -18.77,285.911C-17.979,290.85 -18.949,296.31 -16.319,300.85C-15.25,303.19 -12.62,303.991 -10.729,305.501C-9.56,306.61 -7.92,306.631 -6.399,306.801C-5.26,295.701 -8.89,284.881 -9.029,273.831C-8.52,273.171 -8.01,272.511 -7.5,271.86C-8.34,280.961 -5.04,289.61 -3.659,298.47C-2.97,298.07 -2.27,297.68 -1.56,297.301C-0.729,299.98 1.69,301.381 3.761,303.03C4.7,304.89 4.28,307.121 4.551,309.14L5.851,309.06C5.61,304.81 6.41,300.291 4.561,296.31C1.721,289.081 1.79,280.751 4.521,273.501C4.801,272.39 5.521,271.72 6.65,271.48C6.681,272.19 6.75,273.61 6.78,274.331L5.431,275.081C5.04,277.89 5.301,280.751 5.301,283.581C7.33,283.661 9.431,283.61 11.25,284.69C9.311,285.97 6.23,285.871 5.141,288.19C3.771,290.301 4.58,293.051 5.681,295.091C8.82,296.35 12.91,294.53 12.79,290.78C11.9,284.911 10.641,277.911 14.23,272.741C15.83,271.53 17.54,270.47 19.23,269.39C11.971,262.341 1.08,263.411 -8.18,263.921C-14.229,264.6 -20.31,263.001 -26.319,264.171M37.891,262.69C33.78,263.541 29.95,265.57 25.721,265.881C21.341,265.881 20.29,270.951 17.2,273.11C11.99,277.551 13.021,285.001 14.591,290.881C16.851,292.78 18.04,295.551 19.92,297.791C23.71,302.421 28.66,305.9 33.65,309.131C33.92,307.741 34.181,306.341 34.44,304.961C36.351,304.97 38.45,304.541 40.181,305.64C42.971,307.31 46.25,307.631 49.44,307.73C50.49,303.85 52.03,299.64 55.79,297.631C59.431,295.881 59.641,291.07 63.07,289.051C66.021,287.581 67.67,284.051 66.46,280.911C64.16,275.511 58.66,272.701 54.021,269.631C53.561,271.241 53.101,272.86 52.641,274.47C50.511,275.27 48.23,275.82 46.32,277.1C45.41,279.48 46.091,282.27 45.62,284.801C43.391,281.61 42.63,277.711 41.24,274.14C42.94,272.081 45.54,273.94 47.41,272.421C51.261,270.331 55.44,267.631 56.061,262.881C50.16,261.161 43.83,261.161 37.891,262.69M4.351,259.751C5.641,260.78 7.271,259.051 7.11,257.69C7.13,254.251 3.891,258.381 4.351,259.751M41.23,246.15C40.65,246.161 39.49,246.171 38.91,246.171C38.65,248.18 38.841,250.31 38.16,252.251C36.391,255.32 34.12,258.121 32.971,261.52C39.58,260.4 46.24,259.581 52.96,259.671C54.57,259.97 55.141,258.161 56.061,257.27C56.9,257.051 57.74,256.841 58.58,256.631C61.21,254.22 64.311,252.44 67.15,250.331C66.4,250.11 64.9,249.661 64.15,249.44C64.761,249.06 65.971,248.32 66.58,247.94C67.891,244.32 64.641,241.72 65.28,238.171C64.23,237.14 63.2,236.081 62.25,234.97C54.45,236.161 44.2,237.501 41.23,246.15M19.42,228.241C16.66,232.461 14.16,236.871 11.91,241.39C17.5,238.81 19.891,232.64 21.021,227.001C20.62,227.31 19.82,227.93 19.42,228.241M10.011,201.301C8.41,207.331 10.15,213.541 11.13,219.53C13.19,221.301 13.431,224.291 15.12,226.381C16.25,226.451 17.391,226.53 18.53,226.61C19.13,225.65 19.74,224.701 20.38,223.77C18.811,215.661 16.62,206.841 10.011,201.301M3.7,200.631C3.41,201.03 2.83,201.841 2.54,202.251C0.38,203.131 -1.739,204.11 -3.88,205.011C-7.6,206.591 -10.04,210.44 -14.04,211.421C-18.27,212.381 -21.899,208.701 -26.109,209.671C-49.97,212.491 -74.22,212.03 -97.979,208.551C-100.439,207.98 -104.03,203.86 -105.95,206.86C-106.229,217.091 -104.2,227.381 -105.61,237.591C-106.39,241.241 -107.37,244.991 -106.36,248.72C-105.89,252.36 -102.45,254.511 -101.52,257.97C-103.08,259.251 -104.34,260.81 -105,262.741C-93.939,272.06 -82.28,281.72 -68.029,285.56C-62.56,285.881 -57.05,285.15 -51.56,285.261C-50.93,282.871 -50.63,280.081 -48.87,278.22C-46.75,277.52 -44.529,277.121 -42.359,276.591C-42.8,277.761 -43.22,278.93 -43.63,280.121C-42.84,280.9 -42.06,281.711 -41.3,282.53C-36.359,280.461 -34.949,274.77 -32.93,270.331C-33.479,269.53 -33.71,268.631 -33.6,267.631C-33.159,268.241 -32.72,268.85 -32.279,269.461C-30.85,266.43 -28.72,263.541 -25.51,262.241C-24.88,258.22 -22.899,254.65 -19.85,251.97C-17.85,253.72 -16.199,252.44 -16.069,250.091C-15.42,250.03 -14.1,249.911 -13.439,249.85C-11.159,245.56 -10.779,240.551 -8.569,236.251C-6.64,232.82 -2.489,232.11 0.91,230.93C4.601,227.06 4.391,220.921 8.13,217.201C7.53,211.801 7.4,206.36 6.601,200.991C5.87,200.9 4.42,200.72 3.7,200.631M34.33,199.93C34.91,201.791 35.46,203.711 36.681,205.291C36.74,204.371 36.851,202.53 36.91,201.61C36.04,201.041 35.19,200.48 34.33,199.93M30.261,200.07C29.08,204.411 28.601,208.911 27.42,213.261C25.761,216.871 23.23,220.18 22.851,224.261C25.811,225.22 24.79,229.041 25.761,231.421C28.83,231.541 28.65,234.81 29.62,236.911C30.86,237.751 32.311,238.36 33.2,239.65C34.471,240.02 35.841,240.331 36.38,241.741C40.98,240.491 45.67,239.171 49.761,236.631C52.23,235.161 53.82,232.65 56.181,231.041C56.601,231.56 57.431,232.6 57.851,233.121C59.36,232.241 61.7,231.81 61.99,229.751C62.771,226.051 60.15,222.93 58.61,219.82C55.391,213.97 51.48,207.381 44.38,205.94C43.48,209.011 39.471,206.411 37.19,206.921C39.591,212.741 46.98,214.501 48.79,220.631C45.57,218.6 44.141,214.741 40.771,212.9C36.351,210.35 34.311,205.491 32.49,200.991C31.74,200.68 31,200.371 30.261,200.07M-116.61,196.57C-118.66,201.461 -116.7,206.671 -117.02,211.741C-116.899,214.511 -119.05,216.53 -120.03,218.94C-121.8,223.77 -125.16,227.9 -126.32,232.97C-123.28,230.541 -120.7,227.56 -117.399,225.451C-116.68,223.051 -115.84,220.661 -114.36,218.61C-114.41,211.35 -111.56,202.77 -116.61,196.57M31.99,193.93C31.28,195.6 31.74,196.131 33.38,195.491C34.07,193.82 33.61,193.301 31.99,193.93M-19.439,185.041C-18.779,186.911 -16.77,186.041 -15.31,186.081C-16.29,184.69 -17.92,184.64 -19.439,185.041M-140.28,185.091C-145.91,185.81 -152.61,186.091 -156.24,191.161C-162.6,191.171 -168.95,190.35 -175.3,190.97C-181.5,188.621 -189.07,187.501 -195.02,191.1C-194.41,193.07 -193.2,194.761 -192.31,196.6C-192.33,199.73 -192.14,203.56 -194.77,205.791C-194.88,206.491 -195.09,207.89 -195.189,208.6C-196.09,208.98 -196.63,209.621 -196.82,210.52C-198.209,216.871 -199.57,223.261 -200.06,229.751C-200.91,236.35 -197.56,242.461 -197.36,249.02C-195.86,250.06 -194.58,251.35 -193.32,252.661C-195.25,254.27 -197.22,256.15 -197.5,258.81C-198.29,264.831 -196.56,270.801 -196.02,276.78C-195.7,277.19 -195.05,277.991 -194.729,278.39C-195.169,280.19 -195.39,282.041 -195.45,283.9C-193.12,287.741 -193.479,292.57 -192.29,296.831C-190.95,297.461 -189.33,297.69 -188.22,298.741C-188.12,300.06 -188.05,301.381 -188.01,302.711C-185.49,305.251 -186.18,309.44 -183.479,311.881C-181.399,314.98 -178.26,317.131 -174.68,318.171C-171.8,318.911 -169.09,320.64 -166.08,320.64C-162.28,318.89 -158.32,317.56 -154.39,316.131C-154.709,316.131 -155.35,316.121 -155.669,316.11C-160.16,312.171 -166.37,311.081 -171.899,309.241C-175.89,308.551 -178.78,305.56 -182.2,303.661C-183.16,300.85 -183.7,297.871 -185.78,295.591C-189.55,290.77 -186.49,284.291 -188.63,279.201C-186.05,273.381 -181.11,269.041 -177.86,263.661C-175.2,254.041 -177.29,243.551 -173.62,234.14C-172.5,231.1 -169.74,229.211 -166.57,228.9C-165.919,230.871 -165.419,232.9 -164.649,234.841C-163.7,235.801 -162.36,236.36 -161.64,237.57C-165.34,238.201 -169.08,238.511 -172.81,238.911C-172.7,241.39 -172.78,243.871 -172.86,246.35C-171.95,246.06 -171.04,245.791 -170.12,245.541C-168.72,248.131 -170.399,250.85 -170.09,253.591C-169.53,253.65 -168.41,253.77 -167.85,253.841C-167.93,255.94 -170.25,256.251 -171.55,257.411C-171.939,259.341 -171.64,261.411 -172.52,263.23C-174.419,267.131 -174.35,271.56 -174.33,275.791C-173.939,277.39 -172.63,278.671 -170.93,278.68C-170.74,279.86 -170.55,281.051 -170.37,282.241C-168.32,282.201 -166.2,281.78 -164.189,282.4C-163.209,283.28 -162.54,284.451 -161.81,285.541C-157.7,284.421 -152.62,283.82 -149.979,287.97C-145.75,287.94 -143.13,291.94 -139.01,291.991C-133.8,292.581 -128.61,293.491 -123.55,294.831C-123.439,295.331 -123.209,296.341 -123.1,296.85C-121.14,296.761 -119.11,296.77 -117.34,295.801C-116.82,296.951 -115.149,297.881 -115.57,299.31C-116.78,300.43 -118.88,300.82 -119.36,302.551C-118.74,304.35 -116.3,304.44 -114.91,305.47C-114.83,305.07 -114.669,304.27 -114.59,303.871C-114.63,304.27 -114.7,305.091 -114.74,305.501C-111.87,306.36 -109.459,308.131 -107.12,309.94C-94.76,310.36 -82.55,314.18 -70.109,312.761C-65.52,311.341 -60.85,310.081 -56.319,308.44C-55.93,306.53 -55.55,304.631 -55.21,302.72C-52.3,302.761 -49.38,302.73 -46.47,302.68C-45.979,301.011 -45.489,299.341 -45.01,297.671C-42.279,299.051 -39.26,299.57 -36.239,299.94C-35.87,295.36 -35.649,290.661 -37.14,286.251C-52.39,286.621 -68.699,289.68 -83,282.751C-88.95,280.11 -92.399,274.201 -98.11,271.241C-104.78,267.19 -112.229,264.341 -119.979,263.331C-122.52,262.911 -125.149,262.94 -127.57,262.02C-132.09,259.991 -137.39,261.251 -141.79,258.831C-141.86,258.251 -141.979,257.081 -142.05,256.501C-141.55,256.201 -140.56,255.621 -140.06,255.331C-142.63,254.741 -145.22,254.261 -147.82,253.86C-147.209,251.921 -148.1,250.57 -150.13,250.44C-149.3,249.15 -148.82,247.69 -148.43,246.22C-147.82,246.06 -146.59,245.73 -145.97,245.56C-145.14,241.85 -145.54,238.091 -146.37,234.421C-142.81,234.93 -142.87,238.94 -142.189,241.65C-140.939,241.621 -139.68,241.57 -138.43,241.491C-130.979,230.461 -123.49,218.911 -121.02,205.61C-121.13,197.78 -123.939,189.86 -129.07,183.911C-132.86,183.27 -136.52,184.85 -140.28,185.091M-193.439,146.66C-193.439,148.691 -195.229,151.841 -192.459,152.64C-190.51,155.66 -188.01,158.251 -185.41,160.711C-184.459,153.901 -183.479,147.091 -182.5,140.281C-187.229,140.231 -190.34,143.671 -193.439,146.66M-56.069,122.071C-56.75,125.06 -53.109,123.211 -52.1,122.031C-46.689,126.481 -41.5,131.191 -36.62,136.22C-28.25,143.211 -18.449,148.64 -11.1,156.801C-7.149,162.151 -1.899,169.551 5.841,167.051C4.931,169.741 3.13,172.111 3.36,175.12C4.46,175.571 5.521,176.211 6.721,176.39C8.86,175.611 10.681,174.04 12.96,173.6C14.721,174.751 12.391,176.401 11.69,177.461C10.03,178.95 10.37,181.32 10.13,183.32C15.561,183.43 21.011,181.72 24.94,177.87C24.141,174.461 27.19,172.011 26.9,168.691C26.9,164.731 27.851,160.731 27.29,156.81C24.17,149.68 18.601,143.841 12.351,139.31C11.271,138.54 10.49,137.47 9.681,136.45C6.24,135.43 2.79,134.41 -0.63,133.301C-0.79,132.131 -0.949,130.95 -1.109,129.781C-15.199,124.111 -29.67,117.6 -45.18,117.87C-49.25,117.7 -52.59,120.361 -56.069,122.071M-149.149,116.72C-158.47,119.341 -166.83,124.631 -174.479,130.441C-179.75,140.921 -179.209,153.441 -176.899,164.671C-175.709,164.93 -174.52,165.171 -173.32,165.43C-173.56,171.58 -167.03,173.281 -162.43,174.901C-162.3,175.321 -162.02,176.171 -161.88,176.591C-159.95,177.321 -158.1,178.35 -156.01,178.62C-156.26,175.43 -153.79,179.68 -152.11,178.6C-148.12,179.39 -144.74,177.241 -141.59,175.111C-140.56,175.68 -139.53,176.29 -138.47,176.841C-139.24,175.231 -139.5,173.45 -140.06,171.781C-140.729,170.731 -142.75,169.901 -141.36,168.56C-138.149,168.441 -134.95,168.751 -131.76,169.011C-131.09,168.461 -130.419,167.91 -129.75,167.361C-127.99,167.131 -126.229,166.921 -124.45,166.731C-125.04,166.231 -125.62,165.731 -126.209,165.231C-125.169,165.16 -124.24,165.441 -123.439,166.06C-120.04,164.611 -119.05,160.93 -117.82,157.81C-115.979,157.91 -112.899,156.22 -112.729,159.16C-109.55,159.231 -106.399,159.7 -103.29,160.361C-103.399,162.211 -103.5,164.071 -103.58,165.941C-102.38,165.29 -101.27,164.481 -100.189,163.651C-99.689,165.231 -99.2,166.821 -98.7,168.421C-96.459,169.131 -94,169.45 -91.97,170.7C-91.41,171.95 -90.99,173.261 -90.53,174.56C-88.33,175.001 -86.01,175.33 -84.25,176.861C-81.7,178.991 -78.27,179.091 -75.13,179.401C-73.909,180.711 -73.199,183.03 -71.08,183.081C-58.449,184.65 -45.81,186.53 -33.05,186.61C-32.67,187.081 -31.909,188.02 -31.529,188.501C-26.62,187.57 -24.949,182.39 -23.18,178.39C-19.359,177.961 -15.58,178.781 -11.92,179.81C-11.949,180.97 -11.449,181.791 -10.43,182.28C-10.27,181.44 -9.96,179.78 -9.81,178.941C-9.189,178.89 -7.96,178.781 -7.35,178.731C-5.63,174.18 -6.46,169.301 -7.069,164.62C-7.21,163.27 -7.689,161.941 -9.05,161.39C-12.17,159.58 -13.68,156.171 -16.229,153.77C-20.47,149.691 -25.71,146.741 -31.27,144.861C-33.14,144.12 -35.279,143.751 -36.699,142.211C-36.979,142.341 -37.56,142.591 -37.85,142.72C-42.449,135.341 -51.43,132.381 -59.729,132.091C-60.05,129.97 -61.27,128.47 -63.319,127.85C-63.819,127.011 -64.3,126.171 -64.779,125.33C-68.26,124.02 -72.489,123.72 -74.92,120.58C-75.8,119.87 -76.35,118.491 -77.569,118.39C-84.419,117.631 -91.33,117.711 -98.209,117.861C-101.45,117.66 -103.939,120.2 -107.05,120.68C-114.81,122.091 -121.709,117.211 -129.07,115.83C-135.76,116.091 -142.5,116.011 -149.149,116.72M-63.59,108.551C-63.96,109.241 -64.33,109.93 -64.699,110.62C-63.609,110.861 -62.529,111.091 -61.43,111.33C-61.479,110.39 -61.529,109.45 -61.58,108.52C-62.08,108.52 -63.09,108.54 -63.59,108.551M-162.86,120.171C-154.979,116.751 -146.62,114.301 -138.06,113.481C-131.53,113.04 -124.59,113.27 -118.74,116.531C-114.99,118.93 -110.2,117.781 -106.35,116.18C-108.64,110.691 -115.13,110.501 -119.97,108.841C-124.33,104.85 -128.64,100.441 -134.27,98.251C-142.11,107.7 -154.93,110.91 -162.86,120.171M-71.439,77.241C-72.359,78.591 -73.38,79.87 -74.409,81.14C-73.899,81.691 -72.87,82.79 -72.359,83.341C-72.04,83.29 -71.39,83.191 -71.06,83.14C-69.59,81.58 -68.739,79.651 -68.55,77.52C-69.52,77.421 -70.479,77.33 -71.439,77.241M-96.709,71.89C-96.43,72.16 -95.87,72.711 -95.59,72.991C-91.689,73.491 -87.93,74.631 -84.16,75.711C-80.82,75.731 -77.449,75.281 -74.279,74.231C-81.18,70.72 -89.229,70.861 -96.709,71.89M-141.1,54.801C-141.08,55.511 -141.05,56.921 -141.04,57.62C-140.47,57.511 -139.32,57.29 -138.75,57.18C-138.68,56.62 -138.55,55.501 -138.479,54.941C-139.13,54.901 -140.439,54.841 -141.1,54.801M-108.04,-5.19C-114.16,1.761 -116.36,11.031 -120.979,18.881C-126.76,26.68 -123.939,36.961 -124.06,45.93C-121.34,47.77 -118.419,49.66 -116.87,52.671C-115.08,55.921 -114.95,59.7 -114.85,63.31C-117.97,64.261 -117.669,67.511 -118.959,69.87C-119.11,72.571 -117.959,75.08 -116.709,77.41C-116.39,76.941 -115.729,76.001 -115.41,75.531C-112.74,76.131 -110.06,76.68 -107.39,77.251C-105.399,78.751 -106.08,81.631 -105.85,83.79C-103.47,84.261 -101.12,84.89 -98.75,85.461C-98.419,86.821 -99.47,87.741 -100.12,88.781C-99.959,89.901 -99.729,91.011 -99.439,92.111C-91.14,91.751 -82.83,91.631 -74.529,91.361C-74.239,90.191 -73.949,89.02 -73.649,87.85C-78.35,87.261 -81.74,83.671 -86.27,82.591C-92.8,81.211 -95.54,73.72 -101.97,72.06C-101.689,71.04 -101.72,69.761 -100.689,69.14C-96.43,65.941 -90.85,65.37 -85.68,65.531C-79.39,65.901 -72.409,68.251 -69.3,74.171C-68.899,74.2 -68.09,74.27 -67.68,74.301C-66.979,68.77 -67.27,62.04 -62.83,57.961C-61.92,56.441 -60.689,55.16 -59.54,53.841C-58.63,51.27 -58.22,48.58 -57.72,45.921C-64.069,44.631 -70.479,43.131 -76.09,39.77C-77.899,44.7 -75.22,49.37 -72.899,53.56C-72.189,56.731 -72.56,60.091 -72.659,63.33C-78.66,66.56 -85.87,63.361 -91.28,60.241C-94.09,59.1 -93.08,55.591 -93.62,53.241C-90.82,53.151 -88.06,52.64 -85.29,52.401C-82.12,53.08 -78.37,54.821 -75.47,52.441C-78.82,45.52 -77.43,37.501 -79.95,30.341C-81.72,30.64 -84.01,30.031 -85.24,31.66C-85.85,32.97 -86.13,34.401 -86.53,35.77C-96,40.421 -107.31,38.77 -116.7,34.761C-117.27,31.261 -118.1,27.801 -118.63,24.281C-108.55,22.761 -98.33,22.861 -88.18,22.281C-84.47,21.62 -81.959,24.85 -79.51,27.031C-79.26,26.33 -78.78,24.921 -78.54,24.22C-75.069,24.301 -71.6,24.35 -68.13,24.37C-65.58,27.81 -61.34,28.731 -57.649,30.37C-55.229,34.381 -56.02,39.251 -56.659,43.651C-55.81,42.691 -54.649,41.93 -54.14,40.72C-54.199,35.97 -56.27,31.461 -56.09,26.711C-55.399,22.751 -58.159,19.41 -59.42,15.87C-64.359,13.171 -69.67,11.29 -74.88,9.211C-77.08,6.531 -79.49,3.921 -80.83,0.671C-82.2,-2.269 -83.38,-5.559 -86.12,-7.539C-89.86,-10.329 -94.81,-9.699 -99.189,-9.969C-102.91,-10.61 -105.76,-7.67 -108.04,-5.19M-90.2,-31.96C-85.59,-32.67 -80.76,-32.249 -76.479,-30.289C-75.77,-29.249 -75.25,-28.009 -74.239,-27.199C-72.689,-27.03 -71.13,-27.139 -69.569,-27.059C-68.699,-25.539 -67.739,-24.079 -66.83,-22.579C-66.529,-22.98 -65.93,-23.78 -65.63,-24.179C-65.34,-23.469 -64.76,-22.039 -64.47,-21.329C-55.8,-18.519 -50.939,-10.059 -47.22,-2.329C-44,3.54 -45.5,10.571 -43.659,16.801C-41.14,22.261 -37.85,27.611 -37.319,33.731C-37.06,36.29 -38.21,38.64 -39.409,40.81L-38.279,41.341C-38.649,41.261 -39.39,41.091 -39.76,41.011C-41.64,42.611 -43.8,43.85 -45.609,45.54C-44.89,47.321 -46.14,48.441 -47.1,49.72C-48.67,54.14 -50.449,58.56 -50.859,63.27C-53.029,63.651 -54.149,64.79 -53.05,66.961C-56.17,72.011 -59.909,77.481 -59.25,83.711C-58.71,94.441 -58.659,105.171 -58.58,115.91C-57.96,117.39 -59.27,118.22 -60.029,119.16C-62.279,117.941 -63.449,115.921 -63.38,113.37C-66.18,113.511 -64.89,116.671 -65.21,118.52C-63.83,119.441 -62.46,120.381 -61.09,121.33C-59.38,119.64 -57.12,119.251 -54.84,120.051C-50.39,116.651 -44.77,115.18 -39.199,115.511C-26.02,116.1 -13.42,120.801 -1.55,126.281C4.311,128.83 9.271,133.051 13.511,137.761C16.221,142.151 20.811,144.781 23.99,148.761C27.25,152.54 30.07,156.83 31.44,161.68C34.29,171.111 32.94,181.091 33.54,190.751C35.261,193.97 37.561,196.841 39.511,199.921C40.931,202.68 44.23,203.28 46.54,205.06C59.471,213.86 67.75,228.171 72.181,242.911C73.801,248.73 75.141,254.791 74.841,260.871C73.45,266.051 70.04,271.301 71.801,276.82C75.75,284.121 77.88,293.07 75.431,301.211C73.96,306.241 69.63,309.44 66.44,313.31C63.62,318.741 62.44,325.011 58.87,330.06C55.33,334.551 49.24,335.211 43.95,335.711C20.891,334.871 -2.17,332.68 -25.25,333.06C-53.42,339.411 -82.49,338.131 -111.149,338.31C-131.8,336.661 -152.51,335.94 -173.2,335.07C-181.34,334.03 -190.58,332.411 -195.99,325.581C-201.26,318.9 -202.22,310.171 -204.43,302.241C-208.75,291.22 -212.77,280.06 -215.97,268.661C-217,263.73 -218.979,258.89 -218.63,253.761C-218.45,246.4 -219.06,239.001 -217.95,231.68C-215.729,214.86 -211.07,198.47 -208.729,181.661C-207.93,176.841 -208.26,171.821 -206.649,167.14C-203.76,157.941 -198.35,149.801 -192.51,142.231C-189.88,138.77 -185.04,138.571 -181.689,136.171C-175.88,130.02 -169.77,124.131 -164.39,117.591C-155.95,109.901 -145.41,104.941 -136.6,97.751C-135.34,92.87 -133.33,87.761 -134.91,82.72C-139.43,80.761 -142.979,77.031 -144.979,72.56C-146.63,69.79 -146.95,66.06 -149.85,64.211C-149.85,62.841 -149.85,61.47 -149.83,60.1C-148.49,59.54 -148.37,58.251 -148.34,56.981C-149.74,56.491 -151.16,56.001 -152.57,55.54C-151.8,53.961 -150.85,52.47 -150.18,50.85C-149.729,43.821 -151.7,36.671 -149.8,29.77C-147.649,20.881 -146.7,11.281 -141.28,3.611C-138.79,0.671 -139.54,-3.509 -137.669,-6.739C-135.39,-10.769 -131.16,-13.019 -127.56,-15.659C-125.34,-16.949 -125.08,-19.739 -124.07,-21.869C-121.12,-21.849 -119.32,-24.059 -117.7,-26.199C-116.66,-25.699 -115.61,-25.219 -114.55,-24.73C-114.25,-25.44 -113.649,-26.849 -113.35,-27.55C-112,-24.889 -109.05,-25.039 -106.62,-25.869C-104.689,-26.63 -104.62,-30.21 -102.2,-29.789C-97.979,-28.949 -94.27,-31.38 -90.2,-31.96" style="fill:rgb(11,11,11);fill-rule:nonzero;"/>
        </g>
        <g transform="matrix(1,0,0,1,89.1899,81.1201)">
            <path d="M0,-12.29C0.49,-16.6 3.23,-21.21 7.74,-22.13C10.17,-22.63 11.37,-20.34 11.85,-18.41C9.93,-14.83 3.72,-16.63 3.35,-11.99C3.56,-8.25 5.28,-4.73 7.21,-1.57C8.57,0.26 10.14,2.41 12.54,2.81C16.39,1.29 16.75,-3.58 17.55,-7.08C18.59,-6.48 20.06,-6.28 20.66,-5.11C19.56,-0.09 18.05,5.64 13.5,8.65C10.86,10.34 7.6,8.79 5.74,6.66C1.27,1.54 -0.69,-5.57 0,-12.29" style="fill:rgb(11,11,11);fill-rule:nonzero;"/>
        </g>
        <g transform="matrix(1,0,0,1,403.6,90.6702)">
            <path d="M0,-19.95C4.721,-20.22 10.271,-20.71 14.08,-17.35C14.78,-15.22 12.431,-14.2 11.28,-12.88C14.591,-13.43 18.221,-14.57 21.45,-13.1C23.771,-12.03 23.24,-7.86 20.511,-7.95C17.391,-8.09 14.521,-10.12 11.301,-9.61C3.86,-9.15 -1.479,-3.41 -7.13,0.76C-8.79,-0.54 -10.38,-1.92 -11.909,-3.37C-5.85,-8.02 0.931,-11.79 6.381,-17.17C4.36,-17.14 2.351,-17.04 0.341,-16.92C0.221,-17.93 0.101,-18.94 0,-19.95" style="fill:rgb(11,11,11);fill-rule:nonzero;"/>
        </g>
        <g transform="matrix(1,0,0,1,41.48,127.99)">
            <path d="M0,-29.38C1.47,-33.55 5.07,-36.34 8.06,-39.39C10.4,-35.83 13.61,-33.03 16.63,-30.08C15.96,-29.32 15.29,-28.56 14.62,-27.8C12.38,-29.44 10.41,-32.12 7.5,-32.38C1.32,-31.32 1.75,-20.79 7.58,-19.33C13.33,-18.64 19.32,-21.76 24.92,-19.39C30.72,-16.99 32.86,-9.77 31.64,-4.01C30.59,2.53 25.7,9.44 18.51,9.55C15.1,10.01 11.8,5.67 14.52,2.92C17.37,1 20.42,4.66 23.4,3.31C29.5,0.3 29.44,-11.03 22.47,-13.02C16.65,-14.18 10.53,-10.51 4.92,-13.35C-0.42,-16.47 -2.04,-23.81 0,-29.38" style="fill:rgb(11,11,11);fill-rule:nonzero;"/>
        </g>
        <g transform="matrix(1,0,0,1,441.66,132.03)">
            <path d="M0,-17.85C0.05,-21.22 4.22,-21.46 5.92,-23.66C5.6,-21.97 7.77,-21.97 8.75,-21.16C13.479,-18.15 13.359,-10.75 19.14,-8.92C19.33,-8.43 19.689,-7.45 19.88,-6.96C17.49,-5.72 14.83,-6.7 12.35,-7.01C5.27,-8.35 -1.86,-9.42 -8.891,-10.99C-6.19,-7.25 -6.59,-1.4 -2.62,1.3C-0.78,-0.36 0.96,-3.13 3.75,-1.38C3.78,0 4.359,1.62 3.18,2.7C-0.08,5.81 -5.69,4.94 -8.7,1.87C-12.3,-1.68 -12.94,-7 -15.36,-11.28C-17.42,-12.1 -20.141,-12.91 -19.521,-15.71C-13.3,-15.99 -7.32,-13.8 -1.19,-13.03C-0.9,-13.17 -0.32,-13.44 -0.03,-13.57C2.689,-11.23 6.72,-11.76 10.05,-11.04C8.01,-13.45 6.52,-16.25 4.57,-18.72C4.1,-18.2 3.18,-17.15 2.72,-16.62C3.1,-16.34 3.859,-15.76 4.25,-15.48C2.37,-13.12 -0.4,-15.59 0,-17.85" style="fill:rgb(11,11,11);fill-rule:nonzero;"/>
        </g>
        <g transform="matrix(1,0,0,1,23.3999,468.21)">
            <path d="M0,-317.54C2.27,-308.86 2.97,-299.84 4.77,-291.06C12.39,-297.99 20.33,-304.55 28.24,-311.14C20.15,-291.48 12.33,-271.49 8.98,-250.38C-0.09,-201.15 8.67,-149.07 32.47,-105.11C32.38,-104.76 32.21,-104.06 32.12,-103.71C32.45,-103.74 33.1,-103.79 33.43,-103.82C37.98,-94.32 44.32,-85.82 50.28,-77.18C50.18,-76.74 49.99,-75.85 49.9,-75.41C50.12,-75.729 50.57,-76.36 50.8,-76.68C63.63,-59.62 79.15,-44.63 96.28,-31.92C100.21,-29.12 103.67,-25.49 108.26,-23.78C107.48,-23.39 106.7,-22.979 105.91,-22.61C105.67,-23.03 105.18,-23.86 104.94,-24.28C93.8,-26.83 82.83,-30.13 71.76,-33C76.01,-26.65 79.54,-19.86 83.48,-13.32C84.14,-12.25 84.94,-11.12 86.22,-10.75C86.06,-10.51 85.72,-10.019 85.55,-9.78C87.35,-6.519 89.52,-3.45 90.97,0C78.11,-9.93 64.82,-19.42 53.36,-31C10.03,-72.58 -17.45,-130.28 -22.21,-190.17C-22.8,-200.82 -22.29,-211.48 -22.6,-222.14C-22.04,-255.1 -13.16,-287.45 0,-317.54" style="fill:rgb(11,11,11);fill-rule:nonzero;"/>
        </g>
        <g transform="matrix(1,0,0,1,476.6,472.019)">
            <path d="M0,-321.129C1.95,-318.799 2.61,-315.759 3.771,-313.019C14.98,-285.409 22.181,-255.889 22.62,-226.009C22.351,-215.359 22.86,-204.71 22.19,-194.069C18.82,-154.839 5.92,-116.509 -14.89,-83.099C-14.609,-82.719 -14.04,-81.939 -13.76,-81.559L-13.89,-81.539C-14.229,-81.909 -14.93,-82.659 -15.27,-83.029C-23.25,-69.099 -33.51,-56.589 -44.369,-44.829C-58.239,-29.96 -73.79,-16.659 -90.859,-5.599C-90.899,-5.029 -90.97,-3.889 -91,-3.319C-91.26,-3.629 -91.79,-4.25 -92.05,-4.559C-94.279,-2.949 -96.47,-1.259 -98.93,0C-90.229,-12.599 -80.81,-24.71 -72.09,-37.299C-86.27,-32.629 -100.38,-27.729 -114.659,-23.369C-105.42,-30.739 -95.109,-36.759 -86.159,-44.539C-66.25,-60.829 -49.47,-80.789 -36.399,-102.929C-32.31,-110 -28.26,-117.17 -25.279,-124.789C-24.97,-124.71 -24.359,-124.559 -24.05,-124.489C-24.21,-124.839 -24.529,-125.539 -24.689,-125.899C-7.42,-164.479 -1.54,-208.139 -8.14,-249.899C-10.72,-266.939 -15.39,-283.639 -21.819,-299.619C-22.859,-302.319 -24.14,-304.949 -24.72,-307.809C-25.159,-307.679 -26.05,-307.419 -26.5,-307.289C-26.159,-307.659 -25.47,-308.399 -25.13,-308.759C-26.279,-310.669 -27.029,-312.769 -27.6,-314.909C-19.779,-307.749 -11.83,-300.729 -3.81,-293.799C-2.949,-302.959 -1.1,-311.989 0,-321.129" style="fill:rgb(11,11,11);fill-rule:nonzero;"/>
        </g>
        <g transform="matrix(1,0,0,1,174.06,476.698)">
            <path d="M0,1.162C-3.1,5.521 -6.11,9.952 -9.81,13.832C-8.22,14.512 -6.64,15.252 -4.96,15.722C0.26,17.252 6.22,12.682 6.5,7.382C6.72,3.672 2.58,2.611 0,1.162M-15.06,-12.668C-6.61,-20.149 6.81,-19.918 15.89,-13.708C19.09,-11.468 20.88,-6.778 18.71,-3.248C17.24,0.012 13.73,1.561 10.35,1.932C13.26,4.481 14.6,8.782 12.52,12.292C8.97,19.452 -0.61,21.311 -7.61,18.582C-12.38,16.502 -17.11,14.172 -22.26,13.191C-21.71,12.372 -21.12,11.582 -20.5,10.811C-18.25,10.542 -15.44,11.932 -13.83,9.582C-8.57,3.351 -4.31,-3.679 0.57,-10.198C-2.28,-10.418 -0.9,-12.208 0,-13.748C1.7,-13.349 3.4,-12.968 5.11,-12.568C5.34,-11.679 5.62,-10.798 5.93,-9.918C6.83,-10.998 7.16,-13.599 9.33,-11.998C6.93,-8.418 4.1,-5.118 2,-1.338C5.2,-0.849 9,-0.548 11.49,-3.048C13.99,-5.218 14.95,-9.538 11.94,-11.729C2.92,-17.718 -11.55,-15.238 -16.56,-5.149C-18.14,-2.568 -16.43,0.111 -15.22,2.422C-14.06,3.882 -15.32,6.042 -17.03,6.222C-18.82,5.981 -20.25,4.512 -20.65,2.792C-22.53,-2.878 -19.39,-9.028 -15.06,-12.668" style="fill:rgb(11,11,11);fill-rule:nonzero;"/>
        </g>
        <g transform="matrix(1,0,0,1,342.47,505.071)">
            <path d="M0,-44.111C0.641,-47.381 5.2,-48.09 6.32,-44.751C10.08,-36.441 9.95,-26.931 9.12,-18.021C8.34,-10.561 6.521,-2.291 0.13,2.419C-1.8,3.979 -4.319,3.879 -6.64,3.779C-7.109,2.309 -8.17,0.689 -6.95,-0.721C-4.859,-3.121 -1.09,-2.531 1.34,-4.401C4.15,-8.041 5.511,-13.111 3.96,-17.561C2.23,-22.071 -0.72,-25.981 -3.819,-29.641C-5.59,-31.601 -7.56,-33.671 -10.16,-34.421C-12.05,-34.071 -12.739,-31.761 -13.83,-30.381C-14.76,-30.781 -15.68,-31.161 -16.6,-31.541C-15.17,-34.781 -13.47,-37.991 -11.029,-40.601C-9.33,-41.291 -7.56,-40.041 -5.8,-40.421C-5.96,-40.171 -6.27,-39.681 -6.42,-39.431C-0.97,-36.271 2.521,-30.861 6.09,-25.851C5.88,-29.801 5.88,-33.911 4.261,-37.59C3.03,-39.881 1.29,-41.851 0,-44.111" style="fill:rgb(11,11,11);fill-rule:nonzero;"/>
        </g>
        <g transform="matrix(1,0,0,1,282.41,479.74)">
            <path d="M0,9.3C-1.42,13.81 -3.26,19.54 -0.4,23.77C2.729,24.23 4.68,20.84 5.79,18.4C6.91,13.91 6.729,9.22 7.109,4.63C3.95,4.44 0.859,6.14 0,9.3M12.39,-15.92C15.39,-18.86 19.649,-21.41 23.979,-20.12C24.149,-18.59 25.08,-16.84 23.89,-15.49C21.12,-13.7 17.57,-15.02 14.689,-13.73C13.149,-9.59 13.54,-5.07 13.109,-0.75C12.93,6.94 11.78,14.61 12.189,22.3C13.96,20.87 15.54,19.23 16.97,17.47C17.74,18.18 18.52,18.91 19.28,19.66C16.05,22.84 13.37,27.54 8.54,28.31C6.149,28.37 6.1,25.91 6.2,24.16C3.729,26.97 0.83,30.71 -3.38,30.17C-8.04,28.37 -7.97,22.27 -7.18,18.16C-5.79,10.34 -1.521,1.09 7.18,-0.38C7.649,-5.84 8.37,-11.79 12.39,-15.92" style="fill:rgb(11,11,11);fill-rule:nonzero;"/>
        </g>
        <g transform="matrix(1,0,0,1,226.31,500.031)">
            <path d="M0,-7.55C-1.68,-3.101 -2.59,2.3 0.07,6.569C1.14,5.769 2.58,4.779 3.39,6.479C7.79,3.59 9.2,-2.05 9.37,-7.011C9.38,-9.33 9.22,-12.511 6.7,-13.481C3.38,-13.441 1.27,-10.25 0,-7.55M7.11,-18.67C8.38,-16.321 11.51,-17.261 13.25,-15.5C16.16,-13.3 16.52,-9.311 16.2,-5.95C15.5,0.62 11.01,6.309 5.26,9.319C2.3,10.76 -1.29,11.12 -4.3,9.62C-6.26,8.88 -7.06,6.429 -9.26,6.189C-8.87,6.25 -8.07,6.37 -7.67,6.42C-9.8,-0.59 -6.74,-8.401 -1.39,-13.141C-0.4,-14.21 1.18,-15.101 1.18,-16.721C1.4,-16.471 1.84,-15.96 2.06,-15.71C3.54,-16.79 7.18,-16.29 7.11,-18.67" style="fill:rgb(11,11,11);fill-rule:nonzero;"/>
        </g>
    </g>
</svg>
