<?xml version="1.0" encoding="utf-8"?>
<!-- Generator: Adobe Illustrator 23.0.5, SVG Export Plug-In . SVG Version: 6.00 Build 0)  -->
<svg version="1.1" id="Réteg_2" xmlns="http://www.w3.org/2000/svg" xmlns:xlink="http://www.w3.org/1999/xlink" x="0px" y="0px"
	 viewBox="0 0 841.9 595.3" style="enable-background:new 0 0 841.9 595.3;" xml:space="preserve">
<style type="text/css">
	.st0{fill:#5AED65;}
	.st1{fill:#E4EF9A;}
	.st2{fill:#EF8C8C;}
</style>
<g>
	<path d="M163.1,228.8c-7.5-6.6-14.9-12.7-22-19.2c-14.8-13.7-27.4-29.2-35.9-47.8C84.8,116.6,99.4,75,133.2,47.6
		c33.3-27.1,71.7-34.7,113.2-24c24.9,6.4,43.3,22.3,56.9,43.8c12.6,19.8,20.3,41.7,25.6,64.4c0.2,0.8,0.3,1.6,0.6,2.4
		c0.1,0.3,0.3,0.6,0.7,1.2c27.7-7.8,55.7-13.1,84.7-13.2c28.7-0.1,57.1,2.7,85.3,10.4c0.5-1.6,0.9-2.8,1.2-4.2
		c6-24.3,15.3-47,30.7-66.9c21.5-27.7,50.3-40.8,84.9-42.2c23.2-0.9,45.3,3.2,66,14c17.9,9.3,32.4,22.3,42.2,40.2
		c11.8,21.5,12.8,44,5.5,67.1c-7.6,24-22.7,43.2-40.2,60.7c-6.6,6.5-13.5,12.6-20.4,19.1c5.4,4.6,10.7,9.1,16,13.8
		c35.4,31.6,62.9,68.8,78.6,113.9c3.4,9.7,5.7,19.8,8.7,29.7c0.4,1.4,1.5,2.7,2.3,4c0.5,0.9,1.3,1.7,1.7,2.6
		c20.2,50.5,4.3,113.1-43.6,143.6c-16.9,10.8-35.4,17.8-54.7,22.7c-54.7,14.1-110.2,22.5-166.6,24.7c-51.3,2-102.5,1.2-153.7-1.1
		c-54.3-2.5-108.2-9.3-161.3-21c-18.9-4.1-37.7-8.9-56.1-14.6c-21.2-6.5-40.5-17.1-55.6-33.8c-26.2-29.1-34.6-63.1-26.2-101.3
		c0.9-4.1,1.4-8.7,3.7-12c5.3-7.6,5.7-16.6,8-25c11.2-41.4,31.8-77.5,61.4-108.4c9-9.4,18.8-18,28.2-27
		C161.4,230.4,162.1,229.7,163.1,228.8z M415.8,227.4c1.1,30.6,1.5,51.9,2.6,73.3c1.5,29.1,3.4,58.3,5.2,87.4
		c1.7,26.5,3.6,53.1,5.4,79.6c0.3,5,0.3,5.1,5.4,4.7c18-1.4,36-2.7,54-4.2c23.5-1.9,47-3.1,70.4-6c29.9-3.7,59.6-8.3,89.3-13.3
		c25-4.2,49.4-10.8,72.3-22.1c18.9-9.3,34.6-22.4,46-40.2c0.7-1.1,1.2-2.9,0.9-4.1c-1.4-6.3-2.9-12.6-4.7-18.7
		c-12-42.2-34.3-78.4-64.9-109.5c-30-30.4-64.1-55.4-101.7-75.7c-27.7-14.9-56.2-28-86.5-36.8c-28.1-8.1-56.7-12.4-85.9-13
		c-2.7-0.1-3.9,0.5-4.1,3.6C418.3,167,416.8,201.8,415.8,227.4z M422.8,472.6c0-1.6,0.1-2.6,0-3.5c-2-28.4-4.2-56.8-5.9-85.2
		c-2.4-38.6-4.9-77.2-6.5-115.9c-1.8-43-1.1-86,2.1-129c0.2-3.2,0.3-6.5,0.5-10c-1.9,0-3.4-0.1-4.9,0c-13.9,1.5-27.8,2.5-41.5,4.7
		c-44.2,7.2-84.6,24.8-123.3,46.7c-28.4,16.1-54.9,35-79.6,56.4c-17.3,15-33.3,31.4-46.8,49.9c-21.9,29.9-36.8,63-43.3,99.7
		c-0.5,2.6-0.1,4.4,1.5,6.4c7.8,9.9,16.9,18.2,27.5,24.9c19.3,12.4,40.8,19.6,63,24.1c26.9,5.3,53.9,9.8,81.1,13.3
		c33.2,4.3,66.6,7.3,99.9,10.7c19.8,2,39.7,3.7,59.5,5.5C411.4,471.9,416.9,472.2,422.8,472.6z M775.4,399.8
		c-1.9,4.6-3.1,9.2-5.5,13.1c-9.3,15-22.6,25.9-37.3,35.1c-17.8,11.2-37.5,17.8-57.6,22.9c-40.9,10.4-82.6,16.1-124.5,20
		c-30.6,2.9-61.2,5.4-91.8,7.8c-13.1,1-26.3,2.7-39.3,1.9c-22.9-1.4-45.7-4.5-68.6-7c-35.3-3.8-70.7-7.2-105.9-11.4
		c-31.6-3.7-62.9-9-93.6-17.5C128,458.3,106,449,87.4,433.3c-8.9-7.5-18-15.2-20.7-27.6c0-0.2-0.5-0.3-1-0.7
		c-0.5,1.3-1.1,2.3-1.2,3.4c-0.7,5.5-1.6,10.9-1.8,16.4c-0.9,26.9,6.2,51.3,24.4,71.7c13.2,14.7,29.8,24.5,48,31.7
		c23.4,9.2,47.9,15.1,72.5,19.9c24.5,4.9,49.2,8.7,73.9,12.2c30.4,4.3,61.1,6.2,91.8,7c19.4,0.5,38.9,0.7,58.3,1.2
		c38.2,0.9,76.5,0.6,114.6-2.3c35.9-2.8,71.5-8.3,106.5-16.9c22-5.4,43.9-11.1,64.3-21.2c20.1-10,37-23.5,48.2-43.3
		c14.7-26.1,16.9-53.9,11.1-82.8C776.3,401.3,775.7,400.5,775.4,399.8z M312,141.2c-0.9-1.7-1.5-2.9-2.2-4.2
		c-12.1-21.6-26.6-41.3-43.1-59.7c-10.3-11.5-22.9-17.9-37.9-20.3c-18.8-3-36.8,0.4-54.6,6.5c-33.1,11.4-50.3,43.9-45.2,76.9
		c3.5,22.7,13.2,42.9,26.1,61.6c4.3,6.3,9.6,11.9,16.8,15.1c1.5,0.7,3.9,1.2,4.9,0.5c5.9-4.1,11.5-8.7,18-13.6
		c-6.7-1.2-12.6-2.2-18.6-3.3c-6.7-1.2-13.6-1.6-19.5-5.4c-5.6-3.6-8.5-9.8-7.1-15.6c1.5-6.3,6.3-8.7,12.2-9.4
		c2.3-0.3,2.6-1.4,2.4-3.3c-0.4-3.8-1.1-7.7-1-11.6c0.1-6.5-0.2-13.3,1.4-19.5c5.2-20,29.7-32.1,51-28.6c12.2,2,22.3,8.3,30.4,17.2
		c8.6,9.5,16.3,20,24,30.2c1.9,2.5,3.2,2.9,5.9,1.6c5.3-2.6,10.7-4.9,16.1-7.1C298.4,146.5,305,144,312,141.2z M636.7,195.8
		c5.3,3.8,9.6,6.9,13.9,9.9c7.1,5,9,4.9,15.7-0.8c0.7-0.6,1.4-1.3,2.1-1.9c7.7-7.4,12.8-16.7,17.7-26c8.4-15.9,14.8-32.5,16.4-50.5
		c2.6-29.1-13-54.8-39.3-64.9c-17.1-6.5-34.7-9.8-53.1-8c-16.4,1.6-31.2,7-43.2,18.9c-18.8,18.6-34.8,39.2-47.6,62.4
		c-0.4,0.8-0.7,1.6-0.9,2.2c12.3,4.8,24.4,9.3,36.3,14.1c2.8,1.1,4,0.8,5.6-1.7c7.3-11.4,15.3-22.2,25.3-31.4
		c16-14.9,34.2-21.4,55.8-13.9c17.2,6,26.5,18.6,26.5,36.8c0,5.8-0.6,11.7-1.1,17.5c-0.2,2.2,0.4,3.1,2.7,3.3
		c6.9,0.8,11.1,4.2,12.2,9.4c1.3,6.2-1.3,12.4-7.2,15.5c-3.6,1.9-7.6,3.2-11.5,4.1C654.6,192.7,646.1,194,636.7,195.8z M767.7,397
		c-1.2,1.5-2.1,2.5-2.9,3.5c-7.1,9.2-15.8,16.6-25.4,23.1c-21,14-44.5,21.8-68.7,27.8c-32.3,7.9-65.1,12.8-98,16.3
		c-23.4,2.5-46.9,4.1-70.4,6.2c-15.1,1.3-30.1,3-45.2,4c-13.5,0.9-27.2,2.2-40.7,1.5c-22.3-1.3-44.6-4.1-66.8-6.3
		c-23.2-2.3-46.5-4.2-69.6-7c-28.1-3.4-56.3-7-84.3-11.3c-23.5-3.6-46.7-8.9-69-17.5c-16-6.2-30.9-14.2-43.7-25.7
		c-3.3-2.9-6.3-6.1-9.5-9.2c-0.8,3-0.2,5.1,2.3,8.7c11.7,16.2,27.6,27.3,45.4,35.6c20.8,9.8,43,15.3,65.6,19.2
		c23.2,4,46.5,7.4,69.8,10.6c20.3,2.7,40.7,4.9,61.1,7c20.9,2.2,41.8,4.1,62.6,6c15.2,1.4,30.3,3.6,45.5,3.7c16,0,32-2,48-3.2
		c26.9-2.1,53.8-3.7,80.6-6.7c26.9-3,53.7-6.9,80.4-11.3c26.7-4.4,53.2-10.2,78.1-21.5c20.3-9.3,37.9-21.9,50.7-40.5
		C766.3,406.2,768.5,402.4,767.7,397z M169.4,224c0.1-0.4,0.1-0.9,0.2-1.3c-8.5-4.1-14.8-10.7-20-18.3c-3.9-5.7-7.6-11.5-11-17.6
		c-10.6-18.9-17.6-39-17.1-60.9c0.6-25.3,10.8-46,32-60.2c22.3-14.9,47.3-19.6,73.9-16.9c17,1.8,31.6,8.4,43,21.3
		c17.8,20.1,34.4,41.2,46.4,65.5c1.9,3.7,2.3,3.8,6.2,1.1c-5.4-23.7-13-46.6-26.6-67.1c-13.7-20.6-32.3-34.4-56.6-39.9
		c-30.1-6.9-58.8-2.6-85.8,11.9c-18.3,9.8-32.7,23.9-42,42.7c-13.4,26.7-11.4,53.3,1.5,79.5c12.2,24.7,31.9,42.8,53.1,59.6
		C167.2,224,168.4,223.8,169.4,224z M507,133.7c4.3,2.1,4.2,2,6.3-1.5c3.9-6.7,7.6-13.5,11.7-20c10.9-17.6,25-32.4,39.5-47
		c8.4-8.5,18.9-13.8,30.6-16.4c21.9-4.9,43.6-3.5,64.8,3.7c12.4,4.2,23.6,10.4,32.4,20.3c16.1,18.2,20,39.5,15.8,62.7
		c-3.9,21.7-13.3,41.1-25.4,59.4c-5.2,7.9-11.1,15-19.4,20.1c1.4,0.2,2.7,0.2,3.5-0.5c6.3-5.6,12.6-11.2,18.6-17.2
		c15.3-15.1,28.6-31.6,36.5-52c10-25.9,8.9-51-6.4-74.6C702.7,51,684.1,39.1,662.1,32c-20-6.4-40.5-7.7-61.2-4.2
		c-21.1,3.6-39.7,12.4-54.9,27.8C524.7,77.4,514,104.5,507,133.7z M197.8,184.4c0.1,0,0.1,0,0.2,0c-0.3-2.8-0.6-5.6-0.9-8.4
		c-0.8-6.6-4.8-11-11.2-12.3c-3.5-0.7-6.4,1-6.8,4.7c-0.2,2.4,0.6,4.8,0.6,7.2c0,1.6-0.3,4-1.3,4.5c-1.2,0.6-3.4-0.1-5-0.6
		c-3.3-1-6.4-3-9.7-3.4c-5-0.6-8.6,4.5-7.2,9.4c1.3,4.7,5.2,6.2,9.2,7.1c6.6,1.6,13.2,2.9,19.9,4.1c8.5,1.4,11.9-1.6,12.2-10.3
		C197.8,185.8,197.8,185.1,197.8,184.4z M642.5,189c3.4-0.6,6.9-1,10.3-1.8c5.9-1.5,11.8-2.9,17.5-5c3.9-1.4,5.6-5.8,4.5-9.2
		c-1.2-3.8-4.5-6.1-8.7-5.2c-3,0.6-5.7,2.5-8.6,3.5c-1.5,0.5-3.6,1.3-4.7,0.6c-1.1-0.6-1.5-2.9-1.6-4.4c-0.1-2.4,0.6-4.9,0.4-7.3
		c-0.4-3.5-2.8-5-6.3-4.5c-5.5,0.8-10.4,4.8-11.1,10.2c-0.7,5.2-0.7,10.5-0.3,15.7C634.3,186.9,637,188.7,642.5,189z"/>
	<path class="st0" d="M415.8,227.4c1-25.5,2.5-60.3,3.8-95.1c0.1-3.1,1.3-3.6,4.1-3.6c29.2,0.6,57.9,4.9,85.9,13
		c30.3,8.8,58.8,21.8,86.5,36.8c37.6,20.3,71.7,45.3,101.7,75.7c30.6,31.1,53,67.3,64.9,109.5c1.8,6.2,3.3,12.5,4.7,18.7
		c0.3,1.3-0.2,3-0.9,4.1c-11.5,17.8-27.2,30.9-46,40.2c-22.9,11.3-47.3,17.9-72.3,22.1c-29.7,4.9-59.4,9.6-89.3,13.3
		c-23.4,2.9-46.9,4.1-70.4,6c-18,1.5-36,2.8-54,4.2c-5.1,0.4-5.1,0.3-5.4-4.7c-1.8-26.5-3.7-53.1-5.4-79.6
		c-1.9-29.1-3.7-58.2-5.2-87.4C417.3,279.3,416.8,258,415.8,227.4z"/>
	<path class="st0" d="M422.8,472.6c-5.9-0.4-11.4-0.7-16.8-1.2c-19.8-1.8-39.7-3.5-59.5-5.5c-33.3-3.4-66.7-6.4-99.9-10.7
		c-27.2-3.5-54.2-8-81.1-13.3c-22.2-4.4-43.7-11.6-63-24.1c-10.5-6.8-19.7-15.1-27.5-24.9c-1.6-2-1.9-3.8-1.5-6.4
		c6.6-36.7,21.4-69.8,43.3-99.7c13.5-18.5,29.5-34.9,46.8-49.9c24.7-21.4,51.2-40.3,79.6-56.4c38.7-21.9,79.1-39.4,123.3-46.7
		c13.7-2.2,27.7-3.2,41.5-4.7c1.5-0.2,3,0,4.9,0c-0.2,3.6-0.3,6.8-0.5,10c-3.2,43-3.9,86-2.1,129c1.6,38.6,4.1,77.3,6.5,115.9
		c1.8,28.4,4,56.8,5.9,85.2C422.8,470.1,422.8,471,422.8,472.6z"/>
	<path class="st1" d="M775.4,399.8c0.3,0.7,0.9,1.5,1.1,2.3c5.8,28.9,3.6,56.8-11.1,82.8c-11.2,19.8-28.2,33.3-48.2,43.3
		c-20.4,10.1-42.3,15.9-64.3,21.2c-35,8.6-70.6,14.2-106.5,16.9c-38.1,2.9-76.4,3.2-114.6,2.3c-19.4-0.5-38.9-0.7-58.3-1.2
		c-30.7-0.8-61.4-2.7-91.8-7c-24.7-3.5-49.4-7.3-73.9-12.2c-24.6-4.9-49-10.7-72.5-19.9c-18.2-7.2-34.8-17-48-31.7
		c-18.2-20.4-25.3-44.8-24.4-71.7c0.2-5.5,1.1-10.9,1.8-16.4c0.1-1.1,0.7-2.2,1.2-3.4c0.5,0.3,0.9,0.5,1,0.7
		c2.7,12.3,11.8,20,20.7,27.6c18.6,15.7,40.6,24.9,63.9,31.4c30.7,8.5,62,13.7,93.6,17.5c35.3,4.2,70.6,7.7,105.9,11.4
		c22.8,2.4,45.7,5.5,68.6,7c13,0.8,26.2-0.8,39.3-1.9c30.6-2.4,61.2-4.9,91.8-7.8c41.9-3.9,83.6-9.6,124.5-20
		c20.1-5.1,39.8-11.8,57.6-22.9c14.7-9.2,28.1-20.1,37.3-35.1C772.3,409,773.5,404.4,775.4,399.8z"/>
	<path class="st1" d="M312,141.2c-7,2.8-13.7,5.4-20.2,8.1c-5.4,2.3-10.8,4.6-16.1,7.1c-2.7,1.3-4,1-5.9-1.6
		c-7.8-10.3-15.4-20.7-24-30.2c-8-8.9-18.2-15.2-30.4-17.2c-21.3-3.5-45.8,8.6-51,28.6c-1.6,6.2-1.3,13-1.4,19.5
		c-0.1,3.8,0.6,7.7,1,11.6c0.2,1.9,0,3-2.4,3.3c-5.9,0.7-10.6,3.1-12.2,9.4c-1.4,5.8,1.5,12,7.1,15.6c5.9,3.8,12.8,4.2,19.5,5.4
		c5.9,1.1,11.9,2.1,18.6,3.3c-6.4,4.9-12,9.5-18,13.6c-1,0.7-3.4,0.1-4.9-0.5c-7.2-3.2-12.5-8.8-16.8-15.1
		c-12.9-18.7-22.6-38.9-26.1-61.6c-5-33,12.1-65.5,45.2-76.9C192,57.4,210,54,228.8,57c15,2.4,27.6,8.8,37.9,20.3
		c16.5,18.4,31.1,38.2,43.1,59.7C310.5,138.2,311.1,139.5,312,141.2z"/>
	<path class="st1" d="M636.7,195.8c9.4-1.8,17.8-3.2,26.1-5c4-0.9,7.9-2.2,11.5-4.1c5.9-3.1,8.4-9.3,7.2-15.5
		c-1.1-5.2-5.3-8.6-12.2-9.4c-2.3-0.3-2.9-1.1-2.7-3.3c0.5-5.8,1.1-11.7,1.1-17.5c0-18.3-9.2-30.9-26.5-36.8
		c-21.6-7.5-39.8-1-55.8,13.9c-9.9,9.2-18,20-25.3,31.4c-1.6,2.5-2.8,2.9-5.6,1.7c-11.9-4.9-24-9.4-36.3-14.1
		c0.2-0.6,0.5-1.4,0.9-2.2c12.8-23.2,28.8-43.8,47.6-62.4c12-11.9,26.8-17.4,43.2-18.9c18.3-1.8,36,1.5,53.1,8
		c26.3,10.1,41.9,35.8,39.3,64.9c-1.6,18-8,34.6-16.4,50.5c-4.9,9.3-10,18.6-17.7,26c-0.7,0.6-1.3,1.3-2.1,1.9
		c-6.8,5.7-8.6,5.8-15.7,0.8C646.3,202.7,642.1,199.6,636.7,195.8z"/>
	<path class="st2" d="M767.7,397c0.8,5.4-1.4,9.2-3.9,12.9c-12.8,18.7-30.4,31.3-50.7,40.5c-24.9,11.4-51.3,17.1-78.1,21.5
		c-26.7,4.4-53.5,8.3-80.4,11.3c-26.8,3-53.7,4.6-80.6,6.7c-16,1.3-32,3.3-48,3.2c-15.2,0-30.4-2.3-45.5-3.7
		c-20.9-1.9-41.8-3.8-62.6-6c-20.4-2.1-40.8-4.3-61.1-7c-23.3-3.1-46.6-6.6-69.8-10.6c-22.6-3.9-44.8-9.4-65.6-19.2
		c-17.8-8.4-33.7-19.4-45.4-35.6c-2.6-3.6-3.2-5.7-2.3-8.7c3.2,3.1,6.2,6.3,9.5,9.2c12.8,11.5,27.7,19.5,43.7,25.7
		c22.3,8.7,45.5,13.9,69,17.5c28,4.3,56.1,8,84.3,11.3c23.1,2.8,46.4,4.7,69.6,7c22.3,2.2,44.5,5,66.8,6.3
		c13.5,0.8,27.1-0.6,40.7-1.5c15.1-1,30.1-2.7,45.2-4c23.5-2.1,47-3.7,70.4-6.2c33-3.6,65.8-8.4,98-16.3c24.2-6,47.7-13.7,68.7-27.8
		c9.6-6.4,18.3-13.9,25.4-23.1C765.6,399.5,766.4,398.5,767.7,397z"/>
	<path class="st0" d="M169.4,224c-1-0.2-2.2-0.1-2.8-0.6c-21.2-16.8-40.9-34.9-53.1-59.6c-12.9-26.1-14.9-52.8-1.5-79.5
		c9.4-18.7,23.7-32.9,42-42.7c27-14.5,55.7-18.8,85.8-11.9c24.3,5.6,42.9,19.4,56.6,39.9c13.6,20.5,21.2,43.4,26.6,67.1
		c-3.8,2.7-4.3,2.7-6.2-1.1c-12-24.3-28.5-45.4-46.4-65.5c-11.5-13-26.1-19.6-43-21.3c-26.5-2.8-51.5,1.9-73.9,16.9
		c-21.2,14.2-31.4,35-32,60.2c-0.5,21.9,6.4,42,17.1,60.9c3.4,6,7.1,11.9,11,17.6c5.2,7.6,11.5,14.2,20,18.3
		C169.5,223.2,169.5,223.6,169.4,224z"/>
	<path class="st0" d="M507,133.7c7-29.2,17.7-56.3,39.1-78c15.2-15.4,33.8-24.2,54.9-27.8c20.7-3.6,41.1-2.3,61.2,4.2
		c21.9,7.1,40.5,19,53.3,38.7c15.3,23.6,16.4,48.7,6.4,74.6c-7.9,20.4-21.2,36.9-36.5,52c-6,5.9-12.3,11.5-18.6,17.2
		c-0.8,0.7-2.1,0.8-3.5,0.5c8.4-5.1,14.3-12.3,19.4-20.1c12-18.3,21.5-37.7,25.4-59.4c4.2-23.3,0.2-44.6-15.8-62.7
		c-8.8-9.9-20.1-16.1-32.4-20.3c-21.2-7.3-42.9-8.6-64.8-3.7c-11.7,2.6-22.1,7.9-30.6,16.4c-14.5,14.6-28.6,29.4-39.5,47
		c-4.1,6.6-7.8,13.3-11.7,20C511.2,135.7,511.3,135.7,507,133.7z"/>
	<path class="st2" d="M197.8,184.4c0,0.7,0,1.4,0,2.1c-0.3,8.7-3.7,11.7-12.2,10.3c-6.7-1.1-13.3-2.5-19.9-4.1c-4-1-7.9-2.4-9.2-7.1
		c-1.4-4.9,2.2-10,7.2-9.4c3.3,0.4,6.5,2.3,9.7,3.4c1.6,0.5,3.7,1.3,5,0.6c1-0.5,1.3-2.9,1.3-4.5c0-2.4-0.8-4.9-0.6-7.2
		c0.4-3.7,3.2-5.5,6.8-4.7c6.4,1.3,10.4,5.7,11.2,12.3c0.3,2.8,0.6,5.6,0.9,8.4C197.9,184.3,197.8,184.3,197.8,184.4z"/>
	<path class="st2" d="M642.5,189c-5.4-0.2-8.2-2.1-8.6-7.4c-0.4-5.2-0.4-10.5,0.3-15.7c0.7-5.4,5.6-9.5,11.1-10.2
		c3.5-0.5,5.9,1,6.3,4.5c0.3,2.4-0.5,4.9-0.4,7.3c0.1,1.6,0.5,3.8,1.6,4.4c1.1,0.6,3.2-0.1,4.7-0.6c2.9-1.1,5.6-2.9,8.6-3.5
		c4.2-0.9,7.5,1.4,8.7,5.2c1.1,3.4-0.6,7.8-4.5,9.2c-5.7,2.1-11.6,3.5-17.5,5C649.4,188,645.9,188.4,642.5,189z"/>
</g>
</svg>
