<svg xmlns="http://www.w3.org/2000/svg" viewBox="0 0 978.51 1000"><defs><style>.cls-1{fill:#638a4e;}.cls-1,.cls-2,.cls-3{fill-rule:evenodd;}.cls-2{fill:#fff;}.cls-3{fill:#517d46;}</style></defs><title>EMK</title><g id="Layer_2" data-name="Layer 2"><g id="Layer_1-2" data-name="Layer 1"><path class="cls-1" d="M85.7,505.07c0,222.59,181.09,403.68,403.68,403.68S893.05,727.66,893.05,505.07,712,101.39,489.38,101.39,85.7,282.48,85.7,505.07Z"/><polygon class="cls-2" points="421.14 663.73 446.57 663.73 389.86 801.99 365.96 793.09 421.14 663.73 421.14 663.73"/><polygon class="cls-2" points="412.01 664.2 393.61 664.2 341.46 782.9 357.99 789.93 412.01 664.2 412.01 664.2"/><polygon class="cls-2" points="556.36 663.73 530.93 663.73 587.64 801.99 611.54 793.09 556.36 663.73 556.36 663.73"/><polygon class="cls-2" points="565.49 664.2 583.89 664.2 636.04 782.9 619.51 789.93 565.49 664.2 565.49 664.2"/><path class="cls-2" d="M603.85,302.79,533.92,345.4l44.28,26.79H606a197.5,197.5,0,0,0-1.87-69.4Z"/><path class="cls-2" d="M489.33,312.33a32.37,32.37,0,0,1,8.8,1.24l17.94-10.78H463.51l17.57,10.64a32.57,32.57,0,0,1,8.25-1.1Z"/><path class="cls-2" d="M659.23,309.17a247,247,0,0,1,2.28,33.58c0,8.2-.41,16.24-1.16,24.13h24.53V309.17Z"/><path class="cls-2" d="M374.33,303.49a197.59,197.59,0,0,0-1.7,68.7h27.88l44.36-26.64-70.54-42.06Z"/><path class="cls-2" d="M253.88,309.17v57.71h64.58a228.49,228.49,0,0,1-1.31-24.13,246.93,246.93,0,0,1,2.28-33.58Z"/><path class="cls-2" d="M645.18,254A229,229,0,0,1,656.54,291h12.63V254Z"/><path class="cls-2" d="M586.51,254H425.69V291h110l53.45-32.1q-1.26-2.54-2.6-5Z"/><polygon class="cls-2" points="245.15 355.37 230.45 355.37 230.45 318.99 245.15 318.99 245.15 355.37 245.15 355.37"/><path class="cls-2" d="M469.93,371.06s5.09,6.11,18.68,6.11S509,370.89,509,370.89V480.13H470.78l-.85-109.07Z"/><polygon class="cls-2" points="725.9 380.31 696.84 380.31 696.84 295.95 725.9 295.95 725.9 380.31 725.9 380.31"/><polygon class="cls-2" points="522.5 535.31 455.94 535.31 455.94 488.45 522.5 488.45 522.5 535.31 522.5 535.31"/><polygon class="cls-2" points="724.96 586.87 252.07 586.87 252.07 544.22 724.96 544.22 724.96 586.87 724.96 586.87"/><polygon class="cls-2" points="509.37 615.93 468.6 615.93 468.6 595.77 509.37 595.77 509.37 615.93 509.37 615.93"/><polygon class="cls-2" points="534.68 635.14 444.23 635.14 444.23 625.07 534.68 625.07 534.68 635.14 534.68 635.14"/><polygon class="cls-2" points="412.82 644.75 566.08 644.75 569.36 653.55 518.51 653.55 519.45 657.17 536.09 698.88 443.29 698.88 459.93 656.23 460.16 653.08 409.55 653.08 412.82 644.75 412.82 644.75"/><path class="cls-3" d="M435.32,679.56a7.73,7.73,0,1,1-7.73-7.74,7.73,7.73,0,0,1,7.73,7.74Z"/><path class="cls-3" d="M559.05,679.56a7.74,7.74,0,1,1-7.73-7.74,7.73,7.73,0,0,1,7.73,7.74Z"/><path class="cls-2" d="M473.28,708.25h32.81s1.64,3,1.64,9.14v87.87a26.86,26.86,0,0,1-1.41,9.15H472.11a56.7,56.7,0,0,1-1.17-9.5c0-4,.24-82.34.24-87.26a25,25,0,0,1,2.1-9.4Z"/><path class="cls-2" d="M457.4,351.15l-82.62,49.62-6.36,3.81-2-7.14a209.33,209.33,0,0,1-1.39-104.11l1.81-7.38,6.53,3.89,83.81,50a32.53,32.53,0,0,1,12-20.45L375.35,262.6,377.5,258c2.19-4.67,4.55-9.17,7-13.45l-26.79-14.44c-19.53,33-29.33,71.82-29.33,112.62,0,43.09,12.29,85.8,35.62,121l24.14-16.78c-3-4.65-5.75-9.58-8.36-14.73l-2.34-4.64,92.67-56.47a32.61,32.61,0,0,1-12.73-20Z"/><path class="cls-2" d="M621.54,231.17l-26.66,14.68c2.34,4.13,4.56,8.44,6.63,12.89l2.13,4.59-93.78,56.32a32.5,32.5,0,0,1,11.59,20.19L605,289l6.53-4,1.86,7.41a209,209,0,0,1-1.17,105.16l-2,7.17-6.36-3.85L521.3,350.91A32.59,32.59,0,0,1,509,370.72l92.86,55.37-2.31,4.66a171.9,171.9,0,0,1-9.68,17.1l24.3,16.45c24.26-34.76,36-75.61,36-121.55,0-40.34-9.58-78.79-28.72-111.58Z"/><path class="cls-2" d="M489.33,323.58a21.3,21.3,0,1,0,21.3,21.3,21.32,21.32,0,0,0-21.3-21.3Z"/><path class="cls-3" d="M110,698.67a13.54,13.54,0,0,0-12-.12L59.5,715.21a13.28,13.28,0,0,0-8,8.81l-1.14-2.65-1.15-2.65q-1.49-3.45-4.74-10.24c-2.17-4.52-3.76-7.94-4.75-10.23q-4.06-9.42-3.19-16.31,1.09-8.22,9.21-11.72,9-3.9,16.16,4.26-3.07-13.44,9-18.64,9-3.9,16.23.24,6.63,3.79,11,13.95,1.33,3.09,3.8,9.38t3.81,9.38l2.43,5.62q.33.78,1.84,4.26Zm-51.53,6.76,11.27-4.87c-1-2.79-2-5.27-2.93-7.45-2.33-5.38-4.49-9.17-6.49-11.4q-4.91-5.46-10.87-2.88-8.91,3.85-2.37,19,2.22,5.13,4.33,7c1.91,1.64,4.27,1.86,7.06.65Zm31.65-13.68q5-2.16,5.37-6.36.28-3.07-2.34-9.15-7-16.22-17.82-11.54-6.91,3-6.84,10.32,0,5.1,3.78,13.75c.4.94,1.09,2.32,2,4.17s1.65,3.22,2.06,4.16l.21.5,13.53-5.85Z"/><path class="cls-3" d="M67.51,559.85a13.41,13.41,0,0,0-11.63-3L21.06,563a63.77,63.77,0,0,1-10.57,1q6.28.77,11.32,1.73l43.61,8.28a7.55,7.55,0,0,0,2.49-.06,8.09,8.09,0,0,0,2-.52l1.95,11.18a7.88,7.88,0,0,0-2,.13,6.37,6.37,0,0,0-2.36.84L29.22,608.15q-4.91,2.91-10.07,5.46a44.4,44.4,0,0,1,10.25-2.87l34.82-6.07a13.43,13.43,0,0,0,9.92-6.81l3.14,18a13.4,13.4,0,0,0-11.62-3L24.3,620.14a13.27,13.27,0,0,0-9.81,6.7L11.07,607.2a3.15,3.15,0,0,0,2,.4,1.49,1.49,0,0,0,.59-.23l37.2-22A76.87,76.87,0,0,1,62,580.2a79.81,79.81,0,0,1-12.21-1.07l-42.42-8s-.07,0-.14,0a1.92,1.92,0,0,0-.69,0c-.22.11-.76.4-1.62.88L1.47,552.18A13.18,13.18,0,0,0,13,555.09l41.36-7.21q6.9-1.2,10-6.65l3.25,18.62Z"/><path class="cls-3" d="M2.47,460.07a12.7,12.7,0,0,0-1.77-7l20.83,1.19a19.41,19.41,0,0,0-10.43,9.57c-1.76,3.62-2.83,8.53-3.18,14.73q-.3,5.12.65,7.44A5.71,5.71,0,0,0,14,489.65l13.58.78.71-12.49q.48-8.46-4.94-13.41l18,1q-6,4.31-6.43,12.76l-.72,12.49,16.42.94q4.47.25,6.29-3.24,1.2-2.36,1.53-8,.59-10.29-1.47-15.83-2.45-6.62-9.95-11l21.63,1.24a13.1,13.1,0,0,0-2.53,7.26l-2.55,44.68A13.43,13.43,0,0,0,53,501.27l-41.92-2.4A13.28,13.28,0,0,0,0,503.17l2.47-43.1Z"/><path class="cls-3" d="M56,265.22,51.2,246.74q-1-3.75.26-5.93a3.75,3.75,0,0,1,2.22-1.8,3.29,3.29,0,0,1,2.68.29q1.91,1.09,1.81,5.82l-.34,16.93L56,265.22Zm17.81-17.93a12.59,12.59,0,0,0,1.54-7l18.1,10.41a19.34,19.34,0,0,0-13.62,3.88q-4.8,3.66-9.44,11.74c-1.71,3-2.62,5.28-2.75,6.95a5.71,5.71,0,0,0,3.25,5.68l11.79,6.77,6.24-10.84q4.21-7.35,1.59-14.21l15.67,9q-7.26,1.19-11.47,8.53L88.48,289l14.25,8.2q3.88,2.23,7.08-.08c1.42-1,3.08-3.2,5-6.47q5.13-8.94,5.78-14.82.78-7-4-14.32l18.78,10.8a13.15,13.15,0,0,0-5.51,5.36l-22.31,38.8a13.42,13.42,0,0,0-7-9.73L64.13,285.84a13.26,13.26,0,0,0-11.83-1.13l21.52-37.42Z"/><path class="cls-3" d="M154.12,242.86a13.41,13.41,0,0,0-5-10.91l-31.56-27.69a13.42,13.42,0,0,0-11.34-3.47l2.9-3.1c.65-.69,1.21-1.3,1.66-1.82q2.28-2.6,6.52-8.06t6.52-8.06q6.9-7.86,14-9.43,7.77-1.71,14.74,4.4,7.46,6.54,5.61,16.59-.7,3.91-6.41,12.94c-.32.55-.95,1.56-1.87,3-2,3.2-3.12,5.35-3.32,6.44q-.57,3,2.53,5.75l6.2,5.44a13.43,13.43,0,0,0,11.46,3.54l-12.66,14.42Zm-29.95-45.29,15.91,14q.91-4,5.28-10.94,2-3.12,2.56-4.12,4.94-8.41-1.72-14.26-8.79-7.71-18.07,2.87-7.92,9-4,12.49Z"/><path class="cls-3" d="M166.78,129.29l1.94-19q.39-3.87,2.32-5.47a3.77,3.77,0,0,1,2.71-.91,3.28,3.28,0,0,1,2.41,1.21q1.4,1.68-.33,6.08L169.6,127l-2.82,2.34ZM185,122.64a13.27,13.27,0,0,0,3.13,11.44l26.8,32.32a13.43,13.43,0,0,0,10.76,5.3L210.9,184a13.39,13.39,0,0,0-3.2-11.56l-26.8-32.32a13.25,13.25,0,0,0-10.69-5.18L185,122.64Z"/><path class="cls-3" d="M271.84,127.24c2.38,4,5.63,6.33,9.78,6.94l-16.44,9.72q2.16-5.86-1.4-11.88L243.16,97.15q-3-5.13-7.85-2.29-9.75,5.77-6.4,20.78l-11.77-19.9a8.54,8.54,0,0,0,5.61-.8l36.33-21.48a8.34,8.34,0,0,0,3.45-4.56l11.76,19.9q-11.4-10.24-21.24-4.43-4.86,2.88-1.82,8l20.61,34.86Z"/><path class="cls-3" d="M351.7,104.3q-14.38,4.94-24.57-2.28-8.61-6.06-13.32-19.8T312.2,58.36q3.69-11.89,18.21-16.87T355,43.77q8.6,6.07,13.29,19.76t1.62,23.86q-3.69,11.94-18.2,16.91ZM319.77,39.63,322,25.9c.48-2.87,1.56-4.6,3.23-5.17a3.55,3.55,0,0,1,2.67.15,3,3,0,0,1,1.76,1.78c.36,1.05,0,2.65-1.17,4.81l-5.87,11.18-2.84,1ZM349.3,97.26q18-6.17,9.62-30.52-3.44-10-8.9-15-7.25-6.63-17.18-3.22-18.1,6.23-9.77,30.52,3.42,10,9,15,7.32,6.6,17.22,3.2ZM331.2,35.71l4-14.79q1.1-4,3.51-4.82,3.32-1.14,4.38,2,.63,1.83-1.52,5.14L334,34.75l-2.8,1Z"/><path class="cls-3" d="M468.12,80.24A13.4,13.4,0,0,0,472,68.88l-3.3-35.19a63.1,63.1,0,0,1-.14-10.62q-1.26,6.21-2.62,11.15L454.24,77a7.33,7.33,0,0,0-.13,2.49,7.59,7.59,0,0,0,.36,2l-11.3,1.06a8.36,8.36,0,0,0,0-2,6.64,6.64,0,0,0-.65-2.42L423,38.25c-1.68-3.42-3.22-6.9-4.65-10.47a44.23,44.23,0,0,1,2,10.44l3.3,35.19a13.4,13.4,0,0,0,6,10.43l-18.23,1.71a13.39,13.39,0,0,0,3.88-11.36l-3.92-41.8a13.25,13.25,0,0,0-5.91-10.3l19.85-1.86a3.21,3.21,0,0,0-.56,2,1.41,1.41,0,0,0,.18.61l19,38.82a77,77,0,0,1,4.28,11.49,81.22,81.22,0,0,1,2-12.08l11.3-41.66a.38.38,0,0,1,0-.14,1.64,1.64,0,0,0,.1-.68c-.08-.23-.34-.79-.75-1.68L481,15a13.24,13.24,0,0,0-3.81,11.22L481.09,68c.44,4.64,2.39,8.13,5.84,10.44l-18.81,1.77Z"/><path class="cls-3" d="M572.73,23.2A12.65,12.65,0,0,0,579.82,22L577,42.66a19.34,19.34,0,0,0-8.73-11.15q-5.19-3.07-14.42-4.33c-3.39-.47-5.88-.44-7.48.06-2.32.74-3.66,2.46-4,5.16l-1.84,13.47,12.4,1.69q8.4,1.15,13.76-3.87L564.19,61.6q-3.83-6.27-12.22-7.42l-12.39-1.7-2.23,16.29c-.41,3,.51,5.14,2.74,6.53q2.24,1.4,7.86,2.16,10.2,1.4,15.9-.22,6.78-1.92,11.79-9L572.7,89.66a13.14,13.14,0,0,0-7.05-3.1L521.32,80.5a13.45,13.45,0,0,0,6.36-10.18l5.69-41.6A13.28,13.28,0,0,0,530,17.35l42.77,5.85Zm-23.32-9.76L564.72,2q3.1-2.32,5.6-2a3.75,3.75,0,0,1,2.5,1.39A3.28,3.28,0,0,1,573.56,4q-.3,2.18-4.71,3.87L553,13.94l-3.62-.5Z"/><path class="cls-3" d="M624.28,90.25a13.54,13.54,0,0,0,.92,12l-18.07-6.46a13.42,13.42,0,0,0,8.32-8.65l14.12-39.54a13.23,13.23,0,0,0-1-11.83l2.86,1,2.86,1q4.92,1.76,13.35,4.43L655,44.58c.69.21,1.41.45,2.15.71q21.11,7.53,15.3,23.76-3.71,10.35-17.34,9.82,4.33,3.54,5.57,7.28c.71,2.12.83,5.06.37,8.8a111,111,0,0,0-2.48,13.55,10.56,10.56,0,0,0,2,6.39L650,111.09a3.69,3.69,0,0,1-1.91-4,29,29,0,0,1,1.67-6.21,47.16,47.16,0,0,0,1.88-6.37q1.26-7.49-2.26-12-3.12-4-11.24-6.93c-.84-.3-2.12-.71-3.85-1.23s-3-.94-3.86-1.24l-6.13,17.16Zm13-36.29-4.39,12.28c2.91,1.23,5.44,2.23,7.61,3q8.58,3.06,13.12,3.06,7.27,0,9.59-6.47,3.48-9.77-12.38-15.42c-3.58-1.28-6.32-1.79-8.19-1.5-2.51.37-4.29,2-5.36,5Z"/><path class="cls-3" d="M738.81,84.69c-.85.67-1.32,1.06-1.43,1.18a2.19,2.19,0,0,0-.23.65.24.24,0,0,1,0,.14l-3.48,43A70.83,70.83,0,0,1,731.42,143,80,80,0,0,1,737,132.55L753.2,106.3a13.28,13.28,0,0,0,1.43-11.83l15.56,9.63a13.23,13.23,0,0,0-9.86,6.6l-25.48,41.21a9.64,9.64,0,0,0-1.7,4.22L721.57,149a.46.46,0,0,1,.14-.12,4.28,4.28,0,0,0,1.32-1.11,2.67,2.67,0,0,0,.24-.67.22.22,0,0,1,0-.14l3.8-47.58q.33-4.17,1.72-12.29a63,63,0,0,1-4.91,9.57l-18.3,29.61a13.4,13.4,0,0,0-1.5,11.94l-15.57-9.63a13.38,13.38,0,0,0,9.94-6.72l22.08-35.71a13.23,13.23,0,0,0,1.5-11.78l16.75,10.35Z"/><path class="cls-3" d="M782.87,199.56q-10.95-10.53-9.19-22.9,1.46-10.41,11.52-20.89t20.49-12.33Q818,141.29,829,151.93t9.19,22.9q-1.46,10.42-11.5,20.86T806.22,208q-12.29,2.19-23.35-8.46Zm5.17-5.35q13.69,13.17,31.54-5.38,7.33-7.64,9.28-14.78,2.58-9.45-5-16.74-13.8-13.27-31.62,5.24-7.29,7.6-9.24,14.88-2.5,9.52,5,16.78Zm39.06-61.38a4.55,4.55,0,0,1,3.68-1.34,5.84,5.84,0,0,1,3.89,1.67,5.43,5.43,0,0,1,1.76,3.74,4.69,4.69,0,0,1-1.31,3.65q-3.51,3.63-7.43-.13a6,6,0,0,1-2-3.85,4.6,4.6,0,0,1,1.37-3.74Zm13,12.51a4.59,4.59,0,0,1,3.63-1.39,5.53,5.53,0,0,1,3.82,1.59,5.68,5.68,0,0,1,1.8,3.78,4.56,4.56,0,0,1-1.27,3.69,4.64,4.64,0,0,1-3.64,1.55,5.67,5.67,0,0,1-3.87-1.76,5.57,5.57,0,0,1-1.86-3.78,4.69,4.69,0,0,1,1.39-3.68Z"/><path class="cls-3" d="M889.68,224.64a13.29,13.29,0,0,0-11.7,2l-17.54,11.94L892.51,243c2.48.34,4.3.12,5.46-.68,1-.65,1.42-1.81,1.37-3.49l11.1,16.32q-1.8-.83-11.91-3.27l-.12,0-18.73-2.91L863.1,280.62a31,31,0,0,0-3.6,13l-10.41-15.29a6.73,6.73,0,0,0,4.72-.89,10.68,10.68,0,0,0,3.08-3.86l13.94-26.39L852.48,244l-9.2,6.26A13.43,13.43,0,0,0,837,260.5l-10.81-15.86A13.44,13.44,0,0,0,838,242.55l34.71-23.63a13.27,13.27,0,0,0,6.17-10.15l10.8,15.87Z"/><path class="cls-3" d="M937.22,309a13.26,13.26,0,0,0-11.87.09l-38.11,17.61a13.42,13.42,0,0,0-7.88,9l-8.05-17.42a13.41,13.41,0,0,0,12-.12l38.11-17.61a13.27,13.27,0,0,0,7.75-9L937.22,309Z"/><path class="cls-3" d="M977.91,492.82A13.29,13.29,0,0,0,967,488.1l-21.22.34,24.39,21.28c1.89,1.65,3.53,2.46,4.94,2.44,1.16,0,2.18-.74,3.06-2.17l.32,19.73a112.07,112.07,0,0,0-8.16-9.27l-.09-.1-14-12.72L925,525a31.16,31.16,0,0,0-10.13,8.85l-.29-18.5a6.72,6.72,0,0,0,4.43,1.86,10.84,10.84,0,0,0,4.69-1.54l26.14-14.4L936.17,488.6l-11.13.18a13.42,13.42,0,0,0-10.87,5.07l-.31-19.19a13.43,13.43,0,0,0,11,4.75l42-.69a13.24,13.24,0,0,0,10.72-5.09l.32,19.19Z"/><path class="cls-3" d="M923.35,574.55c-3.57-2.14-6.23-3.38-8-3.72a7.78,7.78,0,0,0-6.08,1.38l3.44-17.62q3.39,5.83,11.69,11l42,26.19a3,3,0,0,0,1,.37,5.11,5.11,0,0,0,3.06-.48l-3.29,16.85a4.09,4.09,0,0,0-2.23-1.44,4.25,4.25,0,0,0-1.51,0l-48.26,6.5q-9.85,1.35-14.95,5.22l3.51-18a7.79,7.79,0,0,0,5.22,3.93q2.52.5,8.61-.48,1.58-5.93,3.31-14.83t2.5-15Zm6.79,4.36q-1.87,7.47-2.8,12.2c-.6,3.07-1.26,7.13-2,12.21l35.94-5-31.14-19.45Z"/><path class="cls-3" d="M895.9,663.21a13.48,13.48,0,0,0-12,.24l7.48-17.68a13.43,13.43,0,0,0,8.16,8.8l38.67,16.35a13.29,13.29,0,0,0,11.88-.32l-1.19,2.79c-.51,1.23-.91,2.16-1.18,2.8q-2,4.81-5.19,13.07l-2.76,7.24c-.25.69-.53,1.39-.83,2.12q-8.73,20.63-24.59,13.92-10.14-4.29-8.82-17.87a16.56,16.56,0,0,1-7.58,5.15,20.82,20.82,0,0,1-8.81-.14,113.49,113.49,0,0,0-13.38-3.25,10.54,10.54,0,0,0-6.5,1.65l4.4-10.4a3.7,3.7,0,0,1,4.13-1.68,29.29,29.29,0,0,1,6.1,2,46.08,46.08,0,0,0,6.26,2.24q7.39,1.69,12.1-1.57,4.18-2.88,7.56-10.83c.34-.82.82-2.08,1.45-3.78s1.1-3,1.44-3.77l-16.78-7.1Zm35.5,15-12-5.08c-1.4,2.84-2.54,5.31-3.44,7.43q-3.54,8.38-3.81,12.93-.43,7.25,5.93,9.93,9.54,4,16.09-11.47c1.49-3.51,2.14-6.21,2-8.1q-.35-3.78-4.73-5.64Z"/><path class="cls-3" d="M364.69,953.78h-6.27a8.56,8.56,0,0,0-5.1,1.42V946a13.17,13.17,0,0,0,5.18,1.21q8.42,0,8.41-8.6a10,10,0,0,0-1-4.41h8.7a21.32,21.32,0,0,0-1,6.94v46.07A13.16,13.16,0,0,0,378.41,998H359.9a13,13,0,0,0,4.79-10.71V953.78Z"/><path class="cls-3" d="M425.87,998q6.72-6,11.11-17.09l12.48-31.51a10.54,10.54,0,0,0,.86-3.61q0-4.68-8.31-4.68-17,0-25.33,14.66V933.45a14.23,14.23,0,0,0,7.35,2h43.74a34.89,34.89,0,0,0-8.51,13l-14.35,36.09a18.84,18.84,0,0,0-1.6,6.63q0,3.6,3.48,6.77Z"/><path class="cls-3" d="M536.05,964.11q11.54,4.3,11.54,15.91,0,9.94-7.73,14.91-6.72,4.3-18.08,4.31t-18-4.35Q496,989.91,496,980q0-11.6,11.51-15.91-8.82-3.69-8.81-13.15,0-8.65,7.06-13,6-3.75,16-3.74T537.84,938Q545,942.3,545,951q0,9.4-8.9,13.15Zm-14.24,3.78q-7.27,0-11.62,2.77a11.72,11.72,0,0,0,0,19.15q4.34,2.81,11.62,2.81t11.62-2.81a11.64,11.64,0,0,0-.06-19.11q-4.33-2.81-11.56-2.81Zm0-27.06c-4,0-7.22.77-9.66,2.33a8.78,8.78,0,0,0-4.21,7.9,9,9,0,0,0,4.16,8q3.67,2.42,9.71,2.42t9.76-2.42a9,9,0,0,0,4.2-8,8.75,8.75,0,0,0-4.25-7.9q-3.68-2.34-9.71-2.33Z"/><path class="cls-3" d="M579.32,999.41a1,1,0,0,0,0-.31c-.1-1.46-.15-2.56-.15-3.29q0-15.76,14.25-25.48,4.26-2.76,16.14-11,6.22-4.44,6.23-9.53a7.62,7.62,0,0,0-3.19-6.59,12.9,12.9,0,0,0-7.73-2.11q-14.21,0-23.52,16V933.8a10.31,10.31,0,0,0,6.91,2.5,54.46,54.46,0,0,0,8.86-1.07,53.81,53.81,0,0,1,8.87-1.08q8.46,0,13.53,3.87,5.46,4.13,5.47,11.69a16.83,16.83,0,0,1-3,9.45,22.32,22.32,0,0,1-4.83,4.26q-2.61,1.89-9.33,6.86l-.29.22q-3.72,2.71-13.82,10.28c-2.35,2.37-3.53,4.56-3.53,6.55q0,3.3,4.5,4.17a46.47,46.47,0,0,0,7.3.35q11.68,0,16.43-3.78,4.05-3.26,8.7-13.5V1000a10.19,10.19,0,0,0-6-2H584.64a9.37,9.37,0,0,0-5.32,1.46Z"/></g></g></svg>