<?xml version="1.0" encoding="UTF-8" standalone="no"?>
<!DOCTYPE svg PUBLIC "-//W3C//DTD SVG 1.1//EN" "http://www.w3.org/Graphics/SVG/1.1/DTD/svg11.dtd">
<svg width="100%" height="100%" viewBox="0 0 1136 1136" version="1.1" xmlns="http://www.w3.org/2000/svg" xmlns:xlink="http://www.w3.org/1999/xlink" xml:space="preserve" xmlns:serif="http://www.serif.com/" style="fill-rule:evenodd;clip-rule:evenodd;stroke-linejoin:round;stroke-miterlimit:2;">
    <g id="JustDance">
        <g transform="matrix(1,0,0,1,21.8999,568.1)">
            <path d="M0,0.1C0,-110.1 28.4,-208.5 85.3,-295.1L85.3,-333.3C13.8,-237 -21.9,-125.9 -21.9,0.1C-21.9,156.9 33.6,290.9 144.5,401.8C255.4,512.7 389.4,568.2 546.3,568.2C624.3,568.2 696.6,554.499 763.1,527.2L695.1,527.2C648.1,539.999 598.5,546.4 546.3,546.4C395.4,546.4 266.7,493.1 160,386.4C53.3,279.7 0,150.9 0,0.1M681.6,527.1L684.1,527.1L681.6,527.1M948,-401.7C837.1,-512.6 703.2,-568.1 546.3,-568.1C466.8,-568.1 393.2,-553.9 325.5,-525.3L391.5,-525.3C440.2,-539.2 491.8,-546.2 546.2,-546.2C697.1,-546.2 825.8,-492.9 932.5,-386.2C1039.2,-279.5 1092.5,-150.8 1092.5,0.1C1092.5,150.999 1039.2,279.7 932.5,386.4C922.4,396.499 912.2,405.999 901.7,415.2L907.2,439.2C921.1,427.6 934.6,415.1 947.9,401.9C1058.8,290.999 1114.3,157.1 1114.3,0.1C1114.4,-156.8 1058.9,-290.7 948,-401.7" style="fill-rule:nonzero;"/>
        </g>
        <g transform="matrix(1,0,0,1,549.5,1045.3)">
            <path d="M0,-952.6C-2.1,-959.8 -5.4,-965.4 -9.9,-969.3C-14.7,-974.2 -20.8,-977.7 -27.4,-979.2C-35.6,-981.4 -44.1,-982.5 -52.6,-982.3L-92.2,-982.3C-103.3,-982.3 -112.7,-981.3 -120.5,-979.1C-128.3,-976.4 -134.3,-972.8 -138.5,-968.3C-142.7,-963.8 -146,-957.5 -148.4,-949.4C-150.5,-941.3 -151.6,-931.3 -151.6,-919.3L-151.6,-866.2C-151.5,-863.6 -150.9,-861 -149.8,-858.6C-149.4,-856.5 -148.4,-854.5 -147.1,-852.7C-145.8,-850.1 -144.1,-847.6 -142.1,-845.5L-58,-746.9L-58,-717.7C-57.8,-715.7 -58.5,-713.8 -59.8,-712.3C-60.7,-710.8 -62.4,-710.1 -64.8,-710.1L-82.4,-710.1C-84.3,-710 -86.2,-710.9 -87.4,-712.3C-88.7,-713.8 -89.4,-715.7 -89.2,-717.7L-89.2,-767.2L-151.8,-767.2L-151.8,-715.4C-151.8,-704.9 -150.8,-696.1 -148.7,-688.9C-146.3,-681.4 -143,-675.4 -138.8,-670.9C-134.6,-666.1 -128.9,-662.7 -121.7,-660.5C-113,-657.7 -103.9,-656.3 -94.7,-656.5L-55.5,-656.5C-44.1,-656.5 -34.3,-657.9 -26.3,-660.5C-18.5,-662.6 -12.5,-665.7 -8.3,-670C-4.1,-674.8 -1,-681.4 1.2,-689.8C3.3,-697.9 4.4,-707.9 4.4,-719.9L4.4,-759C4.4,-764.4 4.3,-768.9 3.9,-772.5C3.8,-775.2 3.3,-778 2.6,-780.6C1.8,-782.9 0.7,-785.2 -0.6,-787.4C-2.6,-790.1 -4.7,-792.6 -6.9,-795L-88.4,-890.4L-88.4,-921.9C-88.5,-923.8 -88,-925.7 -87,-927.3C-85.7,-928.2 -84.1,-928.7 -82.5,-928.6L-65.4,-928.6C-63.6,-928.7 -61.9,-928.2 -60.4,-927.3C-59.8,-925.6 -59.5,-923.7 -59.5,-921.9L-59.5,-873.3L3.5,-873.3L3.5,-927.3C3.7,-937.3 2.5,-945.7 0,-952.6M-2.7,-979.6L25.6,-922.4L56.6,-922.4L56.6,-481L18.8,-636.1L-55.1,-636.1L-55.1,-315.701L8.5,-315.701L8.5,-408.9C8.5,-420.3 8.3,-432.701 8,-446.201C8,-459.701 7.5,-474.4 6.7,-490.3L49.5,-315.8L120.2,-315.8L120.2,-922.5L160.2,-922.5L160.2,-979.6L-2.7,-979.6M174.7,-635.8C168,-634 161.8,-630.6 156.7,-625.9C152.5,-621.7 149.4,-616 147.2,-608.8C144.5,-601.6 143.2,-592.9 143.2,-582.7L143.2,-369.4C143.2,-349.6 147.7,-335.4 156.7,-326.6C165.7,-317.6 180.1,-313.1 199.9,-313.1L247.6,-313.1C257.5,-313.1 266,-314.4 273.3,-317.1C280.5,-319.201 286.3,-322.4 290.8,-326.6C295.2,-331.5 298.5,-337.3 300.3,-343.701C302.7,-350.9 303.9,-359.5 303.9,-369.4L303.9,-457.6L240.9,-457.6L240.9,-375.3C241,-373.4 240.6,-371.5 239.6,-369.9C238.3,-368.6 236.4,-368 234.6,-368.1L213.9,-368.1C211.8,-368.1 210.3,-368.701 209.4,-369.9C208.4,-371.5 207.9,-373.4 208.1,-375.3L208.1,-576.8C208,-578.7 208.4,-580.6 209.4,-582.2C210.3,-583.4 211.8,-584 213.9,-584L234.1,-584C235.7,-584.1 237.2,-583.4 238.1,-582.2C239.4,-580.7 240.1,-578.8 239.9,-576.8L239.9,-504.3L302.9,-504.3L302.9,-582.6C302.9,-592.8 301.7,-601.5 299.3,-608.7C297.5,-615.9 294.5,-621.6 290.3,-625.8C285.3,-630.4 279.3,-633.8 272.8,-635.7C264.4,-637.9 255.8,-639 247.1,-638.8L199.9,-638.8C190,-638.9 181.5,-637.9 174.7,-635.8M389.3,-508.5L389.3,-579.1L446,-579.1L446,-636.3L325.4,-636.3L325.4,-315.9L447.4,-315.9L447.4,-373.5L389.3,-373.5L389.3,-450.9L434.3,-450.9L444.2,-508.5L389.3,-508.5M-268.1,-979.6L-332,-979.6L-332,-712.7C-332,-692.9 -327.7,-678.6 -318.9,-669.9C-309.9,-660.9 -295.5,-656.4 -275.7,-656.4L-228.5,-656.4C-218.9,-656.4 -210.5,-657.8 -203.3,-660.4C-195.8,-662.5 -189.8,-665.6 -185.3,-669.9C-180.9,-674.8 -177.6,-680.6 -175.8,-687C-173.7,-694.2 -172.7,-702.8 -172.7,-712.6L-172.7,-979.6L-236.2,-979.6L-236.2,-720.4C-236,-718.4 -236.7,-716.5 -238,-715C-238.9,-713.6 -240.5,-712.8 -242.2,-712.8L-261.8,-712.8C-263.4,-712.7 -265,-713.6 -265.8,-715C-267.1,-716.5 -267.9,-718.4 -268,-720.4L-268.1,-979.6M-419.4,-716.8L-451.7,-716.8L-461.6,-659.2L-375.6,-659.2C-372.7,-659.2 -369.9,-659.7 -367.2,-660.6C-364.7,-661.3 -362.2,-662.4 -360,-663.7C-358.4,-665.8 -357.3,-668.3 -356.9,-670.9C-355.6,-673.9 -355,-677.1 -355.1,-680.4L-355.1,-979.6L-419.4,-979.6L-419.4,-716.8M-141.4,-392.3L-184.2,-392.3L-141.4,-527.3L-141.4,-392.3M-309.9,-574.6C-309.6,-572.5 -309.4,-570.4 -309.5,-568.3L-309.5,-384.3C-309.5,-381.9 -309.6,-379.5 -309.9,-377.1C-310.2,-375.8 -310.9,-374.6 -311.7,-373.5C-312.3,-372.6 -313.5,-372 -315.3,-371.701C-317.7,-371.3 -320.1,-371.201 -322.5,-371.201L-341.8,-371.201L-341.8,-581.3L-322.5,-581.3C-316.8,-581.3 -313.2,-580.4 -311.7,-578.6C-310.9,-577.3 -310.3,-576 -309.9,-574.6M-78,-636.2L-168.8,-636.2L-245.1,-395L-245.1,-571C-245.1,-582.4 -246.4,-592.3 -249.1,-600.7C-251.5,-609.4 -255.2,-616 -260.3,-620.5C-265.8,-626.1 -272.6,-630.3 -280.1,-632.6C-288.5,-635 -298.4,-636.2 -309.8,-636.2L-405.7,-636.2L-405.7,-315.8L-309.9,-315.8C-302.3,-315.701 -294.8,-316.4 -287.4,-317.9C-285,-318.4 -282.6,-319.1 -280.2,-319.9C-275.5,-321.201 -271.1,-323.201 -267,-325.9L-288.5,-257.8L-226.4,-257.8L-201.6,-335.6L-141.3,-335.6L-141.3,-316.3L-77.9,-316.3L-78,-636.2M-78,-292.9L-141.4,-292.9L-141.4,27L-78,27L-78,-119.3L-39.1,27L19.8,27L19.8,2L-20.9,-141.701L18.4,-267.6L18.4,-293L-39.6,-293L-78,-159.6L-78,-292.9M298.1,-232.9C298.4,-231.4 298.6,-229.8 298.6,-228.201L298.6,-150.6L270.1,-145.3L270.1,-237.201L289.8,-237.201C291.4,-237.201 292.9,-237.1 294.5,-236.701C296.2,-236.3 297.7,-234.8 298.1,-232.9M349.4,-280C345.3,-284.3 339.6,-287.5 332.4,-289.5C325.3,-291.701 316.7,-292.8 306.6,-292.8L205.7,-292.8L205.7,27.1L269.9,27.1L269.9,-95.3L279.7,-97.1L306.5,26.9L365.5,26.9L365.5,1L339.6,-109.1C343.5,-110.4 347.1,-112.5 350.3,-115.1C353.3,-117.8 355.7,-121.1 357.5,-124.701C359.5,-128.8 360.8,-133.201 361.5,-137.701C362.5,-143.4 362.9,-149.3 362.8,-155.1L362.8,-236.701C362.8,-246.701 361.7,-255.3 359.5,-262.6C357.6,-269.1 354.1,-275.1 349.4,-280M97.5,-172.8C98.7,-174.1 100.4,-174.701 102.2,-174.6L117.8,-174.6C119.6,-174.701 121.3,-174.1 122.5,-172.8C123.6,-171.3 124.2,-169.4 124,-167.5L124,-29.6C124,-27.1 123.5,-25.201 122.5,-24.1C121.3,-22.701 119.6,-22 117.8,-22.1L102.2,-22.1C100.4,-22 98.7,-22.701 97.5,-24.1C96.5,-25.3 96,-27.1 96,-29.6L96,-167.5C95.9,-169.5 96.4,-171.4 97.5,-172.8M172.7,-214.8C168.1,-219.201 162.6,-222.4 156.5,-224.201C148.7,-226.4 140.7,-227.5 132.6,-227.3L88,-227.3C80,-227.4 72,-226.4 64.3,-224.1C51.6,-220.9 41.7,-211 38.5,-198.3C36.6,-191.701 35.5,-184.9 35.4,-178L35.4,-22.9C35.2,-14.9 36.3,-6.8 38.5,0.9C40.2,7 43.4,12.6 47.8,17.2C52.5,21.6 58.1,24.799 64.3,26.5C72,28.7 80,29.8 88,29.7L132.6,29.7C140.7,29.9 148.7,28.799 156.4,26.5C169,23.2 178.8,13.4 182.1,0.8C184.3,-6.9 185.4,-15 185.3,-23L185.3,-177.8C185.2,-184.701 184.1,-191.6 182.1,-198.3C180.3,-204.5 177.1,-210.1 172.7,-214.8M114.7,-239.3L163.7,-239.3L163.7,-292.8L114.7,-292.8L114.7,-239.3ZM50.5,-239.3L100,-239.3L100,-292.8L50.5,-292.8L50.5,-239.3Z" style="fill-rule:nonzero;"/>
        </g>
    </g>
</svg>
