<?xml version="1.0" encoding="UTF-8" standalone="no"?>
<!DOCTYPE svg PUBLIC "-//W3C//DTD SVG 1.1//EN" "http://www.w3.org/Graphics/SVG/1.1/DTD/svg11.dtd">
<svg width="100%" height="100%" viewBox="0 0 4724 4724" version="1.1" xmlns="http://www.w3.org/2000/svg" xmlns:xlink="http://www.w3.org/1999/xlink" xml:space="preserve" xmlns:serif="http://www.serif.com/" style="fill-rule:evenodd;clip-rule:evenodd;stroke-linejoin:round;stroke-miterlimit:2;">
    <g transform="matrix(4.16667,0,0,4.16667,737.719,3032.76)">
        <g id="KJK">
            <path d="M0,-321.818C15.446,-359.1 36.403,-394.218 62.87,-427.17L72.491,-439.148L83.341,-428.304L241.614,-270.123L249.425,-262.317L243.559,-253.001C238.359,-244.744 233.89,-236.109 230.155,-227.104C226.423,-218.104 223.471,-208.855 221.306,-199.367L218.841,-188.564L-31.238,-188.564L-29.646,-203.796C-25.315,-245.225 -15.434,-284.567 0,-321.818M74.938,-397.716L214.573,-258.161C210.856,-251.485 207.55,-244.66 204.66,-237.691C201.775,-230.734 199.282,-223.576 197.179,-216.219L-0.333,-216.219C4.372,-249.426 12.98,-281.134 25.495,-311.339C38.023,-341.581 54.505,-370.373 74.938,-397.716M153.07,-475.963C179.866,-496.108 208.353,-512.43 238.529,-524.927C268.817,-537.47 300.859,-546.184 334.653,-551.07L334.709,-353.651C327.39,-351.562 320.233,-349.071 313.242,-346.179C306.23,-343.278 299.395,-339.983 292.739,-336.293L153.07,-475.963ZM280.734,-309.192L122.496,-467.431L111.674,-478.253L123.577,-487.902C155.94,-514.14 190.766,-534.981 228.051,-550.422C265.298,-565.847 304.937,-575.853 346.964,-580.44L362.191,-582.101L362.196,-566.72L362.259,-342.954L362.262,-331.946L351.511,-329.504C341.942,-327.33 332.676,-324.39 323.721,-320.685C314.814,-317 306.19,-312.538 297.856,-307.301L288.502,-301.423L280.734,-309.192ZM466.684,-346.152C459.71,-349.044 452.535,-351.543 445.16,-353.648L445.16,-551.15C511.612,-541.739 572.129,-516.646 626.709,-475.873L487.155,-336.239C480.479,-339.956 473.655,-343.261 466.684,-346.152M481.995,-307.254C473.738,-312.453 465.103,-316.922 456.097,-320.657C447.098,-324.389 437.849,-327.341 428.361,-329.506L417.612,-331.959L417.612,-582.044L432.791,-580.458C515.707,-571.791 590.165,-540.952 656.165,-487.942L668.142,-478.32L657.298,-467.471L499.117,-309.198L491.31,-301.387L481.995,-307.254ZM575.173,-237.57C572.272,-244.582 568.977,-251.417 565.287,-258.073L704.957,-397.742C725.101,-370.946 741.423,-342.46 753.92,-312.282C766.463,-281.995 775.177,-249.953 780.064,-216.159L582.644,-216.103C580.556,-223.422 578.065,-230.579 575.173,-237.57M558.498,-199.301C556.325,-208.87 553.383,-218.136 549.678,-227.091C545.994,-235.998 541.532,-244.622 536.295,-252.956L530.417,-262.31L538.186,-270.078L696.425,-428.316L707.247,-439.138L716.896,-427.235C743.134,-394.872 763.975,-360.047 779.416,-322.761C794.84,-285.514 804.846,-245.875 809.433,-203.848L811.095,-188.621L795.714,-188.616L571.948,-188.553L560.94,-188.549L558.498,-199.301ZM779.806,0.001C764.36,37.282 743.403,72.4 716.936,105.352L707.314,117.331L696.464,106.486L538.193,-51.694L530.381,-59.501L536.248,-68.817C541.447,-77.073 545.917,-85.709 549.651,-94.714C553.383,-103.714 556.334,-112.963 558.5,-122.451L560.953,-133.2L571.95,-133.2L795.732,-133.199L811.038,-133.199L809.452,-118.022C805.122,-76.593 795.239,-37.252 779.806,0.001M704.869,75.898L565.233,-63.656C568.951,-70.333 572.255,-77.157 575.146,-84.127C578.038,-91.101 580.537,-98.277 582.642,-105.652L780.146,-105.652C775.444,-72.426 766.833,-40.7 754.311,-10.478C741.782,19.763 725.3,48.555 704.869,75.898M466.564,24.361C473.576,21.46 480.411,18.165 487.067,14.475L626.736,154.144C599.94,174.289 571.453,190.612 541.276,203.108C510.989,215.651 478.947,224.365 445.153,229.252L445.097,31.832C452.417,29.744 459.573,27.254 466.564,24.361M428.295,7.685C437.864,5.513 447.129,2.571 456.085,-1.134C464.992,-4.818 473.616,-9.28 481.95,-14.517L491.304,-20.395L499.073,-12.626L657.31,145.613L668.131,156.434L656.23,166.084C623.866,192.323 589.04,213.163 551.754,228.603C514.507,244.028 474.869,254.034 432.842,258.621L417.614,260.283L417.61,244.902L417.546,21.136L417.543,10.129L428.295,7.685ZM228.994,228.994C191.712,213.548 156.594,192.591 123.642,166.124L111.663,156.503L122.507,145.652L280.689,-12.619L288.496,-20.431L297.812,-14.565C306.068,-9.365 314.703,-4.896 323.708,-1.161C332.708,2.571 341.957,5.522 351.445,7.687L362.194,10.141L362.194,244.92L362.193,260.226L347.016,258.64C305.587,254.309 266.246,244.428 228.994,228.994M153.095,154.057L292.651,14.421C299.327,18.139 306.152,21.443 313.122,24.334C320.095,27.225 327.271,29.725 334.646,31.83L334.646,229.334C301.42,224.632 269.695,216.02 239.472,203.499C209.231,190.971 180.439,174.489 153.095,154.057M204.633,-84.248C207.534,-77.236 210.83,-70.401 214.519,-63.745L74.849,75.924C54.705,49.128 38.382,20.641 25.885,-9.536C13.342,-39.823 4.628,-71.865 -0.258,-105.659L197.162,-105.715C199.25,-98.396 201.741,-91.239 204.633,-84.248M221.308,-122.517C223.482,-112.948 226.422,-103.683 230.127,-94.727C233.812,-85.82 238.274,-77.196 243.511,-68.862L249.389,-59.508L241.621,-51.739L83.381,106.498L72.559,117.32L62.91,105.418C36.671,73.054 15.831,38.227 0.391,0.942C-15.035,-36.305 -25.041,-75.943 -29.627,-117.97L-31.29,-133.197L-15.908,-133.202L207.858,-133.266L218.865,-133.269L221.308,-122.517ZM761.452,-532.458C666.366,-627.544 535.003,-686.356 389.903,-686.356C244.803,-686.356 113.44,-627.544 18.354,-532.458C-76.731,-437.372 -135.543,-306.009 -135.543,-160.909C-135.543,-15.809 -76.731,115.554 18.354,210.64C113.44,305.725 244.803,364.538 389.903,364.538C535.003,364.538 666.366,305.725 761.452,210.64C856.538,115.554 915.35,-15.809 915.35,-160.909C915.35,-306.009 856.538,-437.372 761.452,-532.458M389.903,-727.838C233.353,-727.838 91.62,-664.382 -10.975,-561.787C-113.569,-459.192 -177.026,-317.46 -177.026,-160.909C-177.026,-4.358 -113.569,137.374 -10.975,239.969C91.62,342.563 233.353,406.02 389.903,406.02C546.454,406.02 688.186,342.563 790.781,239.969C893.375,137.374 956.833,-4.358 956.833,-160.909C956.833,-317.46 893.375,-459.192 790.781,-561.787C688.186,-664.382 546.454,-727.838 389.903,-727.838M429.014,-200.021C419.005,-210.029 405.178,-216.219 389.903,-216.219C374.628,-216.219 360.8,-210.029 350.792,-200.021C340.784,-190.012 334.593,-176.184 334.593,-160.909C334.593,-145.634 340.784,-131.807 350.792,-121.798C360.8,-111.789 374.628,-105.599 389.903,-105.599C405.178,-105.599 419.005,-111.789 429.014,-121.798C439.022,-131.807 445.213,-145.634 445.213,-160.909C445.213,-176.184 439.022,-190.012 429.014,-200.021M389.903,-243.875C412.812,-243.875 433.553,-234.588 448.567,-219.573C463.582,-204.56 472.868,-183.818 472.868,-160.909C472.868,-138 463.582,-117.259 448.567,-102.244C433.553,-87.231 412.812,-77.943 389.903,-77.943C366.994,-77.943 346.253,-87.231 331.239,-102.244C316.225,-117.259 306.938,-138 306.938,-160.909C306.938,-183.818 316.225,-204.56 331.239,-219.573C346.253,-234.588 366.994,-243.875 389.903,-243.875" style="fill:rgb(35,31,32);"/>
        </g>
    </g>
</svg>
