<?xml version="1.0" encoding="utf-8"?>
<!-- Generator: Adobe Illustrator 21.0.0, SVG Export Plug-In . SVG Version: 6.00 Build 0)  -->
<svg version="1.1" xmlns="http://www.w3.org/2000/svg" xmlns:xlink="http://www.w3.org/1999/xlink" x="0px" y="0px"
	 viewBox="0 0 1200 900" enable-background="new 0 0 1200 900" xml:space="preserve">
<g id="Réteg_2">
</g>
<g id="Réteg_3">
	<g>
		<path d="M815.9,570.1L625.6,240.6c-18.9-32.7-66-32.7-84.9,0L351.1,569c0,0.1,0.1,0.1,0.1,0.2l12.9,29.8
			c10.4-25.9,16.1-39.6,17-41.1c1.6,0.8,2.4,1.3,2.4,1.7l4-2.6h1.1l4,2.6c0-0.7,1.6-1.3,4.9-1.9h1.1c2,0,3.5,0.6,4.2,1.7v0.2
			c0,0.1-0.3,0.3-0.7,0.5l2.5,1.6c0-0.3,0.3-0.6,0.9-0.8l0.4-0.7c-0.4-0.1-0.9-0.2-1.3-0.2V559c0.6-0.7,1.5-1.1,2.7-1.3l171.6-297.2
			c1.9-3.3,6.7-3.3,8.7,0l192,332.5c1.9,3.3-0.5,7.5-4.3,7.5H640.7c1.6,0.3,2.9,0.9,4.1,1.9v0.5c0,0.3-0.7,0.7-2,0.9
			c-0.6,0.7-0.9,1.3-0.9,1.8v0.7c0,1.2,2.7,5.9,8.2,14.2c5.7,9.7,9.2,15.3,10.7,17c0.2,0.3,2.1,0.7,5.6,1.1c0.6,0.8,0.9,1.6,0.9,2.5
			v1.4c0,0.1,0,0.1,0,0.2c0.6,0.1,1.2,0.3,1.6,0.7c0,0,0,0,0,0h8.1c0.3-0.8,0.7-1.8,1.1-3c0.5-1.4,1-2.5,1.4-3.4
			c0.4-0.9,0.7-1.6,0.9-2l0.3-0.5c0,0,0,0,0,0s0-0.1,0.1-0.2c0.3-1,0.6-1.9,1-2.7c0.4-0.8,0.7-1.5,1.1-2.2c0.3-0.4,0.6-0.8,1-1.1
			c0.5-0.3,1-0.5,1.5-0.5c1.4,0,2.6,0.6,3.3,1.8c0.6,0.9,0.8,2,0.8,3.5c0,1.5-0.4,3.3-1.3,5.7c-0.5,1.3-1.2,2.9-2,4.6h1.6
			c0.4-0.5,1.1-1.1,2.1-1.1c1,0,1.9,0.4,2.4,1.1h4.5c-0.1-0.2-0.2-0.3-0.2-0.5c-0.2-0.6-0.3-1.3-0.3-2.2c0-1,0.5-2.1,1.4-3.3
			c0.7-0.9,1.4-1.5,2.1-1.8c0.2-0.3,0.9-1.1,0.9-1.1l0.2-0.1c0.4-0.3,0.8-0.5,1.3-0.6c0.5-0.1,1-0.2,1.5-0.2c0.9,0,1.7,0.3,2.3,0.8
			c0.6,0.6,1,1.4,1,2.3v0.2l-0.3,1.5l0,0.1c-0.2,0.7-0.4,1.2-0.5,1.7c-0.2,0.5-0.3,0.8-0.4,1c-0.3,0.6-0.6,1.2-1.1,1.7
			c-0.2,0.2-0.4,0.4-0.6,0.5h37.1c0.2-0.3,0.5-0.5,0.7-0.8c0.7-1,1.5-1.8,2.4-2.3c1-0.6,2-0.9,3.2-0.9c1.2,0,2.3,0.6,2.9,1.7
			c0.4,0.6,0.6,1.4,0.6,2.3h22.2C811.1,643.6,834.7,602.7,815.9,570.1z"/>
		<path d="M546.3,476.2c-1.1,5.1-0.2,10.5-1.6,15.5c-0.6,2.2-1.7,4.3-2.7,6.3c-5.8,11.5-11.6,23-17.3,34.5c-0.8,1.6-1.6,3.2-2.1,5
			c-0.5,1.8-0.7,3.7-1.7,5.3c-1.7,2.5-5.1,3.4-6,6.8c0,0.1,0,0.3,0,0.4c0.3,2.7,1.8,2.9,3.2,3.1c2.6,0.3,5.2,0.7,7.9,1
			c0.3,0,0.6,0,0.9-0.1c3.9-1.3,2.5-3.8,2.9-5.9c0.8-4.2,7.6-4.6,8.9-8.7c0.3-0.9,0.3-1.9,0.4-2.8c0.3-2.5,1.6-4.7,2.8-6.9
			c2-3.6,4-7.2,6.1-10.9c1.2-2.2,2.5-4.5,4-6.6c1.6-2.3,3.5-4.3,5.1-6.7c3.6-5.3,5.4-11.7,8-17.5c1.8-4,4.1-7.8,6.7-11.3
			c2.1-2.8,4.9-5.7,8.2-6.5c1.1,0.3,2.1,0.8,2.9,1.7c1.1,1.2,1.6,2.8,2.2,4.2c1.7,4.1,4.5,7.7,8,10.4c2.1,1.6,4.7,3,5.6,5.5
			c0.7,1.9,0.4,4.1,1.1,6c0.9,2.4,3.2,3.9,4.5,6c1,1.7,1.4,3.7,1.8,5.6c2.1,9.7,5.9,19,11.3,27.3c1.8,2.8,3.9,5.7,4,9
			c0.1,2-0.6,4.1,1.3,6c0.1,0.1,0.2,0.1,0.3,0.1c5.1,0.3,10.3,0.4,15.5,0.3c0,0,0,0,0,0c1.5,0.1,2.3-1.7,1.4-2.8
			c-1.8-2-3.9-3.8-5.8-5.7c-3.9-4.2-6.4-9.6-7.1-15.2c-0.2-2-0.3-4-0.7-5.9c-0.6-2.4-1.8-4.6-2.4-6.9c-0.6-2.2-0.8-4.5-1-6.8
			c-1.8-15.7-9.5-31.2-20.6-42.5c-1.4-1.4-2.9-2.8-3.7-4.7c-0.5-1.2-0.6-2.5-0.5-3.7c1.2-1.1,3-0.8,4.4-0.2c1.3,0.6,2.5,1.4,3.9,1.7
			c2.4,0.6,5.1-0.5,6.9-2.2c1.9-1.7,3.1-4,4.3-6.2l30.9-0.1c0.9,1.7,2.7,2.8,4.7,2.9c0.7,0,1.5,0,2.2,0c1,0.1,1.9,0.3,2.9,0.4
			c2.8,0.3,5.7-1.2,7.1-3.6c0.9-1.6,1.2-3.7-1.3-5.7c0,0-0.1-0.1-0.2-0.1c-1.1-0.6-2.3-0.6-3.5-0.6c-1.7,0-3.3,0-5,0
			c-1.4,0-2.9,0-4.2,0.5c-1,0.4-1.8,1-2.7,1.7l-46.8-0.5c-1.9,0.3-3.8,0.5-5.5-0.3c-1.7-0.8-2.8-3.1-1.7-4.6c0.7-1,2.3-2.1,1.5-3.1
			c-0.3-0.3-0.7-0.4-1.2-0.6c-1.8-0.6-3.1-2.3-3.5-4.2c-0.5-1.8-0.3-3.8-0.1-5.7c0.3-2.9,0.5-5.9,0.8-8.8c0.1-1.2,0.2-2.4,0-3.6
			c-0.4-2.3-1.8-4.3-3.4-5.9c-0.8-0.8-1.8-1.6-2.4-2.7c-0.6-1-0.8-2.4-0.1-3.4c0.8-1.1,2.3-1.3,3.6-1.9c2.9-1.3,4.6-4.8,7.7-5.1
			c2-0.2,4.5,0.9,5.5-1.8c0.1-2.3-1.5-3.6-2.5-5.3c-2-3.3-1.2-7.7-3.2-11c-0.8-1.4-2.1-2.4-3.5-3.3c-3.5-2.2-7.9-3.3-11.8-1.9
			c-3.2,1.1-5.8,3.8-7.4,6.9c-1.6,3.1-2.3,6.5-2.9,9.9c-0.2,1.1-0.4,2.3-1.2,3.1c-1.2-1.1-2.5-2.1-3.1-3.6c-0.8-1.6-0.7-3.5-0.8-5.3
			c-0.3-10.3-4.7-20.3-4.3-30.6c0.1-2.2,0.4-4.4,1.5-6.3c1.3-2.2,3.5-3.7,5-5.8c1.5-2,2.5-4.6,4.9-5.4c1.9-0.6,4.1,0.3,5.1-3.8
			c0-0.2,0.1-0.3,0-0.5c-0.7-4.7-6.4-4.1-7.8-1c-0.5,1.1-0.5,2.4-1.3,3.3c-1.6,2-4.7,0.6-7.3,0.9c-3.3,0.3-5.5,3.6-7.2,6.5
			c-0.3,0.5-0.5,0.9-0.5,1.5c0,0.7,0.6,1.3,1,2c1.2,2.1,0,4.7-0.8,6.9c-1.5,4.3-1.5,8.9-1.4,13.4c0.1,6,0.1,12,0.2,18.1
			c0,2.1,0,4.2,0.7,6.2c0.5,1.4,1.2,2.7,1.7,4.2c1.5,4.6-0.1,9.6-0.1,14.5c0,6.3,2.7,12.3,3.8,18.5c0.2,1,0.3,2.1-0.1,3
			c-0.3,0.7-0.8,1.3-1.3,1.8c-3.6,3.6-8.3,6.6-10.3,11.3c-1,2.2-1.2,4.7-1.2,7.1c0,4.4,1.1,8.8,3,12.8c0,0,0,0,0,0
			c0,0.6,0,1.3-0.1,1.9C549.1,468.4,547.1,472.2,546.3,476.2z"/>
		<path d="M376.6,639.9c0.7-0.4,1.5-0.6,2.5-0.6c0.3,0,0.6,0,1,0c1.1,0,1.8-0.3,2.2-0.8c0.3-0.3,0.4-0.8,0.4-1.4
			c0.5,0.1,0.8,0.4,0.9,0.9c2.2-0.1,4-0.1,5.4-0.3c0.4,0,0.7-0.1,1-0.1c1.8-0.2,2.6-0.5,2.6-0.9h2.7c1.9-0.5,3.1-0.9,3.9-1.2
			c0.5-0.2,0.7-0.4,0.8-0.5c0,0,0,0,0,0v-0.4l-0.4-0.4l0.2-1.1v-2.3v-0.3l-0.8,0.1l-0.9,0.1l-0.4-0.4v-0.6v-0.2l0.2-0.2
			c1.3-0.3,2-0.6,2-0.9v-0.4v-17.9c0.3-1.6,1.2-3.2,2.7-4.6c1.8-0.4,2.7-0.7,2.7-1.1v-0.4c-1-1.2-2.2-1.8-3.6-1.8h-1.8v-31.3v-1.9
			c0.5-1.1,1.1-1.9,1.8-2.6c0.3-0.1,0.7-0.2,1-0.2c2.1-0.6,3.2-1,3.3-1.3v-0.2c-0.4-0.5-1-0.9-1.7-1.2c-0.7-0.2-1.5-0.4-2.5-0.4
			h-1.1c-3.3,0.5-4.9,1.1-4.9,1.8l-4-2.4h-1.1l-4,2.4c0-0.3-0.8-0.8-2.4-1.5c-1,1.6-8.6,18.8-22.7,51.4h-0.2l-2.2-5.5
			c0.4-2.1,0.9-3.3,1.3-3.7c1.1-0.4,1.7-0.8,1.8-1.1v-0.4c-1.2-1.2-2.6-1.8-4-1.8h-2.2l-9.8-21.6l-3.8-8.5c-0.8-2.1-1.5-3.8-2.1-5.1
			c-0.1-0.2-0.2-0.5-0.3-0.7c-0.9-2-1.6-3-2-3l-2.7,1.3h-0.2c-1.9-1.5-3.2-2.2-3.8-2.2h-0.4l-2.6,1.7l0,0l-0.4,0.3
			c-1.9-0.9-3.4-1.3-4.7-1.3H322c-0.8,0-1.5,0.1-2.2,0.2c-1,0.2-1.8,0.6-2.3,1.1v0.9c1,0,2,0.2,2.8,0.6c1.2,0.6,2.2,1.5,3,2.9v33.6
			c-2.4,0-3.9,0.6-4.7,1.7c0,0,0,0,0,0v0.2c0.2,0.4,0.5,0.7,0.9,0.8c0.1,0,0.3,0.1,0.4,0.1c2.2,0.5,3.3,2.1,3.3,4.8v23.5
			c0,2.9-0.7,4.4-2,4.4c0,0,0,0,0,0c-0.7,0-1.4,0-2,0.1c-0.1,0-0.2,0-0.3,0c-0.9,0.1-1.6,0.3-2.2,0.5c-0.8,0.3-1.2,0.8-1.2,1.4v3.3
			c0.1,0.4,0.6,0.7,1.3,0.7h21.4l0.9-0.9v-0.2h-0.2l-0.9,0.9l-1.1-0.9c-0.7,0-1.2-0.4-1.3-1.1c0.2-0.9,0.7-1.3,1.3-1.3v0.2
			c0.6,0,0.9,0.3,0.9,0.9l0.4-0.4h0.2l0.2,0.2h0.4c0-2.1-0.7-3.1-2.2-3.1h-2.4l-1.3-0.2c0,0,0,0,0,0c-0.4,0-0.8-0.4-1-1.2
			c-0.5-1.4-0.7-3.9-0.7-7.6V588h0.2l6.2,14.1c-1.7,0-3,0.5-4,1.5l0.2,0.9c2.4,0.6,4.3,1.5,5.6,2.9c1.2,1.2,4.7,8.7,10.5,22.6
			c0.1,0.2,0.1,0.3,0.2,0.5h0.2l4.5-0.8l1.5-0.3c1.6,0,2.5,0.8,3,2.5c0.1,0.2,0.1,0.4,0.1,0.6c-0.2,0.2-0.4,0.4-0.6,0.5
			c-0.2,0.1-0.5,0.2-0.8,0.2h-1.1c-0.4,0-0.7,0-1-0.1c-1.3-0.1-2.3-0.5-3-1.3l-0.7,0.2l-1.3-0.7l-0.2,0.2c0.2,0.4,0.4,0.8,0.5,1.2
			c1.1,2.4,1.9,4.4,2.6,5.9c0,0,0,0,0,0.1c0.5,1.1,0.9,1.9,1.2,2.5c0.2,0.5,0.4,0.7,0.5,0.9h1.6c1.1-2,1.8-3.1,2-3.1l1.8-4.3
			l1.1-2.7l1-2.3l6.1-14.4l12.3-29.1h0.2v12.4v3.5h-0.4c-1.8,0-3.3,0.6-4.5,1.8l0.4,0.7c3,1,4.5,2.5,4.5,4.6v19.2v0.4l0.2,0.2
			l0.5-0.6l0.2-0.2l0.2,0.1l1.5,0.4h0.9l1.8-0.7l1.6,0.4c0.4,0,0.7-0.1,0.7-0.4l-0.1-0.2l-0.5-0.9l0.2-0.2l0.9,0.2
			c0.4,0.7,1.4,1.1,2.9,1.1h2c0.3,0,0.6,0.1,0.8,0.2c0.4,0.2,0.7,0.6,0.9,1.1c0,0.3-0.1,0.5-0.2,0.8c-0.4,0.6-1.3,1.1-2.7,1.4
			l-1.3-0.9h-1.1l-0.2,0.2c0-0.1-0.1-0.2-0.1-0.3c-0.3-0.7-0.5-1-0.8-1H389v0.7h-0.2c-0.5-0.3-1-0.6-1.4-0.7c0,0,0,0-0.1,0
			c-0.3-0.1-0.5-0.1-0.8-0.1c-0.8,0-1.5,0.1-2.1,0.1c-1.6,0.1-2.4,0.4-2.4,0.8v5.1c0,1.2-0.6,2.1-1.8,2.6c-0.1,0-0.1,0-0.2,0
			c-0.1,0-0.2,0-0.4,0c-0.7,0-1.2,0-1.8,0.1c-0.9,0.1-1.6,0.3-2.1,0.5c-0.9,0.4-1.4,0.9-1.4,1.6v0.4v0.7l0.2,0.2l0.7-0.2
			C375.7,640.5,376.1,640.1,376.6,639.9z M333.3,639h0.7v0.2h-0.7V639z M330.9,571.3v0.2l-0.2,0.2l-0.7-0.7v-0.4h0.7L330.9,571.3z
			 M326.9,630.8v0.2l0.2,0.2v0.4c0,0.7-0.2,1.2-0.7,1.3H326l-0.2-0.2C325.8,631.5,326.1,630.8,326.9,630.8z M324.4,632.1h0.4
			l0.7,0.7v0.4c-0.1,0.3-0.4,0.6-1.1,0.9l-0.4-0.4L324.4,632.1z M323.1,637.6v-0.9l0.7-0.7c0.8,0,1.3,0.3,1.6,0.9v0.4
			c0,0.3-0.4,0.5-1.3,0.9C323.4,638.3,323.1,638.1,323.1,637.6z M327.8,640.3l-2.9-1.1l1.1-1.1c0.9,0,1.3,0.5,1.3,1.5h0.2l0.2-0.2
			l0.2,0.7L327.8,640.3z M332,640.3l-0.2-0.2c0-0.2,0.3-0.4,0.9-0.7h0.2l0.2,0.2C333.1,639.9,332.7,640.1,332,640.3z M332,569.3
			l-0.4-0.4l0.4-0.4h1.1C333,568.8,332.7,569,332,569.3z M334,570.2h-0.2l-0.2-0.7v-0.2h0.2l0.2,0.2V570.2z M356.7,634.8v0.2h-0.4
			l-0.4-0.4v-0.4l0.2-0.2L356.7,634.8z M359.1,637l-0.2,1.1h-0.7c0-0.7,0.2-1.2,0.7-1.3h0.2V637z M398.3,617l-0.7,0.2l-1.3-0.2v-0.7
			l0.7-0.2v0.2C397.9,616.3,398.3,616.6,398.3,617z M399.7,622.7h-0.4l-0.4-0.4v-0.4L399.7,622.7z M398.8,620.3l-0.4,0.4h-0.2v-0.2
			l0.7-0.7V620.3z M396.5,618.1h0.2l0.2-0.2h0.2c0.3,0,0.6,0.4,0.9,1.3v0.2C397.4,619.4,396.9,619,396.5,618.1z M399,633.5
			c-0.3,0.6-0.7,0.9-1.3,0.9l-1.1-0.2v-0.9l0.9-0.7C398.5,632.8,399,633.1,399,633.5z M398.6,627.8l-0.2,0.2l-0.7-0.7v-0.4h0.7
			l0.2,0.7V627.8z M386.8,623.6h0.2l0.2-0.2l0.4,0.4v0.7h-0.2C387.2,624.5,387,624.2,386.8,623.6z M385.4,579c0-0.3,0.5-0.5,1.6-0.7
			l1.1,0.4c0,0.6-0.4,1-1.3,1.3c-0.9-0.3-1.3-0.6-1.3-0.9V579z M388.1,625.8l-0.4-0.4v-0.2l1.1-0.4v0.2l0.2,0.2
			C389,625.3,388.7,625.6,388.1,625.8z M391.7,599.6h-0.2l-0.2-0.7v-0.2h0.2l0.2,0.7V599.6z M392.3,624.9V624l0.4-0.4h0.4
			C393.2,624.2,392.9,624.6,392.3,624.9z M394.8,621.8c-0.7,0-1.3-0.4-1.8-1.1v-0.2l0.4-0.4h0.2c0.9,0,1.5,0.4,1.8,1.3L394.8,621.8z
			 M391.4,634.6h0.7c0.4,0.1,0.7,0.5,0.7,1.3h-1.3l-0.2-0.2L391.4,634.6z M388.1,630.8c0.7,0.2,1.1,0.7,1.1,1.5
			c0,0.2-0.3,0.4-0.9,0.7c-0.7,0-1.2-0.2-1.3-0.7v-0.7C387.1,631.4,387.4,631.1,388.1,630.8z"/>
		<path d="M466.6,639.9c0.7-0.4,1.5-0.6,2.5-0.6c0.3,0,0.6,0,1,0c1.1,0,1.8-0.3,2.2-0.8c0.3-0.3,0.4-0.8,0.4-1.4
			c0.5,0.1,0.8,0.4,0.9,0.9c2.2-0.1,4-0.1,5.4-0.3c0.4,0,0.7-0.1,1-0.1c1.8-0.2,2.6-0.5,2.6-0.9h2.7c1.9-0.5,3.1-0.9,3.9-1.2
			c0.5-0.2,0.7-0.4,0.8-0.5c0,0,0,0,0,0v-0.4l-0.4-0.4l0.2-1.1v-2.3v-0.3l-0.8,0.1l-0.9,0.1l-0.4-0.4v-0.6v-0.2l0.2-0.2
			c1.3-0.3,2-0.6,2-0.9v-0.4v-17.9c0.3-1.6,1.2-3.2,2.7-4.6c1.8-0.4,2.7-0.7,2.7-1.1v-0.4c-1-1.2-2.2-1.8-3.6-1.8h-1.8v-33.2
			c0.5-1.1,1.1-1.9,1.8-2.6c2.7-0.7,4.2-1.2,4.2-1.5v-0.2c-0.8-1-2.2-1.5-4.2-1.5h-1.1c-3.3,0.5-4.9,1.1-4.9,1.8l-4-2.4h-1.1l-4,2.4
			c0-0.3-0.8-0.8-2.4-1.5c-1,1.6-8.6,18.8-22.7,51.4h-0.2l-2.2-5.5c0.4-2.1,0.9-3.3,1.3-3.7c1.1-0.4,1.7-0.8,1.8-1.1v-0.4
			c-1.2-1.2-2.6-1.8-4-1.8h-2.2l-13.6-30.1c-0.8-2.1-1.5-3.8-2.1-5.1c-0.1-0.2-0.2-0.5-0.3-0.7c-0.9-2-1.6-3-2-3l-2.7,1.3h-0.2
			c-1.9-1.5-3.2-2.2-3.8-2.2h-0.4l-2.6,1.7l0,0l-0.4,0.3c-1.9-0.9-3.4-1.3-4.7-1.3H412c-2.1,0-3.6,0.4-4.5,1.3v0.9
			c0.3,0,0.6,0,0.8,0c0.3,0,0.7,0.1,1,0.2c1.7,0.4,3,1.5,4,3.3v33.6c-2.4,0-3.9,0.6-4.7,1.8v0.2c0.3,0.6,0.7,0.9,1.3,0.9
			c2.2,0.5,3.3,2.1,3.3,4.8v23.5c0,2.9-0.7,4.4-2,4.4c0,0,0,0,0,0c-0.7,0-1.4,0-2,0.1c-0.1,0-0.2,0-0.3,0c-0.9,0.1-1.6,0.3-2.2,0.5
			c-0.8,0.3-1.2,0.8-1.2,1.4v1.2c-0.2-1.2-0.5-1.8-1-1.8c-0.7,0-1.4,0.4-2,1.2c-0.1,0.1-0.2,0.2-0.3,0.3c0,0,0,0,0,0
			c-1.8,0.1-2.6,0.6-2.6,1.3h-0.2c-0.3-0.3-0.6-0.5-0.9-0.8c-0.5-0.4-1-0.7-1.3-0.8h-0.2l-0.2,0.2l-5.6-0.2c-1.1,0-2,0.3-2.6,0.8
			c-0.1,0.1-0.2,0.2-0.3,0.3v0.2l0.2,0.2l-0.7,0.4l-1.3-1l-0.5-0.4h-1.5h-0.3c-0.3,0-0.7,0-1,0c-2.1,0.2-5,0.8-8.6,1.9v0v0.2
			l0.3,0.3l0.1,0.1h0.8h1.6c0.1-0.9,0.5-1.3,1.1-1.3l0.9,1.3h6.2h1.2h13.5l1.1-0.9h0.7c0,0.6,0.1,0.9,0.4,0.9h4c0,0,0,0,0,0
			c0,0,0.1,0,0.1,0h21.4l0.9-0.9v-0.2h-0.2l-0.9,0.9l-1.1-0.9c-0.7,0-1.2-0.4-1.3-1.1c0.2-0.9,0.7-1.3,1.3-1.3v0.2
			c0.6,0,0.9,0.3,0.9,0.9l0.4-0.4h0.2l0.2,0.2h0.4c0-2.1-0.7-3.1-2.2-3.1h-2.4l-1.3-0.2c0,0,0,0,0,0c-0.4,0-0.8-0.4-1-1.2
			c-0.5-1.4-0.7-3.9-0.7-7.6V588h0.2l6.2,14.1c-1.7,0-3,0.5-4,1.5l0.2,0.9c2.4,0.6,4.3,1.5,5.6,2.9c1.2,1.2,4.7,8.7,10.5,22.6
			c0.1,0.2,0.1,0.3,0.2,0.5h0.2l4.5-0.8l1.5-0.3c1.6,0,2.5,0.8,3,2.5c0.1,0.2,0.1,0.4,0.1,0.6c-0.2,0.2-0.4,0.4-0.6,0.5
			c-0.2,0.1-0.5,0.2-0.8,0.2h-1.1c-0.4,0-0.7,0-1-0.1c-1.3-0.1-2.3-0.5-3-1.3l-0.7,0.2l-1.3-0.7l-0.2,0.2c0.2,0.4,0.4,0.8,0.5,1.2
			c1.1,2.4,1.9,4.4,2.6,5.9c0,0,0,0,0,0.1c0.5,1.1,0.9,1.9,1.2,2.5c0.2,0.5,0.4,0.7,0.5,0.9h1.6c1.1-2,1.8-3.1,2-3.1l1.8-4.3
			l1.1-2.7l1-2.3l18.4-43.5h0.2v15.8h-0.4c-1.8,0-3.3,0.6-4.5,1.8l0.4,0.7c3,1,4.5,2.5,4.5,4.6v19.2v0.4l0.2,0.2l0.5-0.6l0.2-0.2
			l0.2,0.1l1.5,0.4h0.9l1.8-0.7l1.6,0.4c0.4,0,0.7-0.1,0.7-0.4l-0.1-0.2l-0.5-0.9l0.2-0.2l0.9,0.2c0.4,0.7,1.4,1.1,2.9,1.1h2
			c0.3,0,0.6,0.1,0.8,0.2c0.4,0.2,0.7,0.6,0.9,1.1c0,0.3-0.1,0.5-0.2,0.8c-0.4,0.6-1.3,1.1-2.7,1.4l-1.3-0.9h-1.1l-0.2,0.2
			c0-0.1-0.1-0.2-0.1-0.3c-0.3-0.7-0.5-1-0.8-1H479v0.7h-0.2c-0.5-0.3-1-0.6-1.4-0.7c0,0,0,0-0.1,0c-0.3-0.1-0.5-0.1-0.8-0.1
			c-0.8,0-1.5,0.1-2.1,0.1c-1.6,0.1-2.4,0.4-2.4,0.8v5.1c0,1.2-0.6,2.1-1.8,2.6c-0.1,0-0.1,0-0.2,0c-0.1,0-0.2,0-0.4,0
			c-0.7,0-1.2,0-1.8,0.1c-0.9,0.1-1.6,0.3-2.1,0.5c-0.9,0.4-1.4,0.9-1.4,1.6v0.4v0.7l0.2,0.2l0.7-0.2
			C465.7,640.5,466.1,640.1,466.6,639.9z M390.8,642.7h-1.1c0-0.3,0.6-0.7,1.8-1.1l0.7,0.4C392,642.5,391.5,642.7,390.8,642.7z
			 M395.2,642.2l-1.1,0.2h-0.4l-0.4-0.4v-0.2l1.6-0.4l0.4,0.4V642.2z M423.4,639h0.7v0.2h-0.7V639z M420.9,571.3v0.2l-0.2,0.2
			l-0.7-0.7v-0.4h0.7L420.9,571.3z M416.9,630.8v0.2l0.2,0.2v0.4c0,0.7-0.2,1.2-0.7,1.3H416l-0.2-0.2
			C415.8,631.5,416.2,630.8,416.9,630.8z M414.5,632.1h0.4l0.7,0.7v0.4c-0.1,0.3-0.4,0.6-1.1,0.9l-0.4-0.4L414.5,632.1z
			 M413.1,637.6v-0.9l0.7-0.7c0.8,0,1.3,0.3,1.6,0.9v0.4c0,0.3-0.4,0.5-1.3,0.9C413.4,638.3,413.1,638.1,413.1,637.6z M417.8,640.3
			l-2.9-1.1l1.1-1.1c0.9,0,1.3,0.5,1.3,1.5h0.2l0.2-0.2l0.2,0.7L417.8,640.3z M422,640.3l-0.2-0.2c0-0.2,0.3-0.4,0.9-0.7h0.2
			l0.2,0.2C423.2,639.9,422.8,640.1,422,640.3z M422,569.3l-0.4-0.4l0.4-0.4h1.1C423.1,568.8,422.7,569,422,569.3z M424,570.2h-0.2
			l-0.2-0.7v-0.2h0.2l0.2,0.2V570.2z M446.8,634.8v0.2h-0.4l-0.4-0.4v-0.4l0.2-0.2L446.8,634.8z M449.2,637l-0.2,1.1h-0.7
			c0-0.7,0.2-1.2,0.7-1.3h0.2V637z M475.5,579c0-0.3,0.5-0.5,1.6-0.7l1.1,0.4c0,0.6-0.4,1-1.3,1.3c-0.9-0.3-1.3-0.6-1.3-0.9V579z
			 M476.8,623.6h0.2l0.2-0.2l0.4,0.4v0.7h-0.2C477.3,624.5,477,624.2,476.8,623.6z M478.1,625.8l-0.4-0.4v-0.2l1.1-0.4v0.2l0.2,0.2
			C479,625.3,478.7,625.6,478.1,625.8z M481.7,599.6h-0.2l-0.2-0.7v-0.2h0.2l0.2,0.7V599.6z M482.4,624.9V624l0.4-0.4h0.4
			C483.3,624.2,483,624.6,482.4,624.9z M484.8,621.8c-0.7,0-1.3-0.4-1.8-1.1v-0.2l0.4-0.4h0.2c0.9,0,1.5,0.4,1.8,1.3L484.8,621.8z
			 M486.6,618.1h0.2l0.2-0.2h0.2c0.3,0,0.6,0.4,0.9,1.3v0.2C487.5,619.4,486.9,619,486.6,618.1z M489.1,633.5
			c-0.3,0.6-0.7,0.9-1.3,0.9l-1.1-0.2v-0.9l0.9-0.7C488.5,632.8,489.1,633.1,489.1,633.5z M488.6,627.8l-0.2,0.2l-0.7-0.7v-0.4h0.7
			l0.2,0.7V627.8z M489.3,622.7l-0.4-0.4v-0.4l0.9,0.9H489.3z M488.8,620.3l-0.4,0.4h-0.2v-0.2l0.7-0.7V620.3z M486.4,616.3l0.7-0.2
			v0.2c0.9,0,1.3,0.2,1.3,0.7l-0.7,0.2l-1.3-0.2V616.3z M481.5,634.6h0.7c0.4,0.1,0.7,0.5,0.7,1.3h-1.3l-0.2-0.2L481.5,634.6z
			 M478.1,630.8c0.7,0.2,1.1,0.7,1.1,1.5c0,0.2-0.3,0.4-0.9,0.7c-0.7,0-1.2-0.2-1.3-0.7v-0.7C477.1,631.4,477.5,631.1,478.1,630.8z"
			/>
		<path d="M490.1,641.3c-0.1,0.1-0.1,0.3-0.1,0.5h-0.2c-0.3-0.3-0.6-0.5-0.9-0.8c-0.5-0.4-1-0.7-1.3-0.8h-0.2l-0.2,0.2l-5.6-0.2
			c-1.1,0-2,0.3-2.6,0.8c-0.1,0.1-0.2,0.2-0.3,0.3v0.2l0.2,0.2l-0.7,0.4l-1.3-1l-0.5-0.4h-1.5h-0.3c-0.3,0-0.7,0-1,0
			c-2.1,0.2-5,0.8-8.6,1.9v0v0.2l0.3,0.3l0.1,0.1h0.8h1.6c0.1-0.9,0.5-1.3,1.1-1.3l0.9,1.3h6.2h1.2h13c0-0.2-0.1-0.5-0.1-0.8
			C490.1,642.4,490.1,641.9,490.1,641.3z M480.8,642.7h-1.1c0-0.3,0.6-0.7,1.8-1.1l0.7,0.4C482,642.5,481.6,642.7,480.8,642.7z
			 M485.3,642.2l-1.1,0.2h-0.4l-0.4-0.4v-0.2l1.6-0.4l0.4,0.4V642.2z"/>
		<path d="M515.1,643.5l0.1-0.3c0.3-0.7,0.5-1.5,0.8-2.4c0.3-0.9,0.6-1.8,0.9-2.7c0-0.1,0.1-0.2,0.1-0.3h-2.1c0,0.2-0.1,0.5-0.2,0.8
			c0,0.1,0,0.3-0.1,0.4c-0.1,0.5-0.2,1-0.3,1.5c0,0.4-0.1,0.9-0.1,1.5l-0.2,1.5L515.1,643.5L515.1,643.5z"/>
		<path d="M562.2,586.2v15.8h-0.4c-1.8,0-3.3,0.6-4.5,1.8l0.4,0.7c3,1,4.5,2.5,4.5,4.6v19.2v0.4l0.2,0.2l0.5-0.6l0.2-0.2l0.2,0.1
			l1.5,0.4h0.9l1.8-0.7l1.6,0.4c0.4,0,0.7-0.1,0.7-0.4l-0.1-0.2l-0.5-0.9l0.2-0.2l0.9,0.2c0.4,0.7,1.4,1.1,2.9,1.1h2
			c0.3,0,0.6,0.1,0.8,0.2c0.4,0.2,0.7,0.6,0.9,1.1c0,0.3-0.1,0.5-0.2,0.8c-0.4,0.6-1.3,1.1-2.7,1.4l-1.3-0.9h-1.1l-0.2,0.2
			c0-0.1-0.1-0.2-0.1-0.3c-0.3-0.7-0.5-1-0.8-1h-1.3v0.7h-0.2c-0.5-0.3-1-0.6-1.4-0.7c0,0,0,0-0.1,0c-0.3-0.1-0.5-0.1-0.8-0.1
			c-0.8,0-1.5,0.1-2.1,0.1c-1.6,0.1-2.4,0.4-2.4,0.8v5.1c0,1.2-0.6,2.1-1.8,2.6c-0.1,0-0.1,0-0.2,0c-0.1,0-0.2,0-0.4,0
			c-0.7,0-1.2,0-1.8,0.1c-0.9,0.1-1.6,0.3-2.1,0.5c-0.9,0.4-1.4,0.9-1.4,1.6v0.4v0.7l0.2,0.2l0.7-0.2c0.3-0.4,0.7-0.8,1.2-1.1
			c0.7-0.4,1.5-0.6,2.5-0.6c0.3,0,0.6,0,1,0c1.1,0,1.8-0.3,2.2-0.8c0.3-0.3,0.4-0.8,0.4-1.4c0.5,0.1,0.8,0.4,0.9,0.9
			c2.2-0.1,4-0.1,5.4-0.3c0.4,0,0.7-0.1,1-0.1c1.8-0.2,2.6-0.5,2.6-0.9h2.7c1.9-0.5,3.1-0.9,3.9-1.2c0.5-0.2,0.7-0.4,0.8-0.5
			c0,0,0,0,0,0v-0.4l-0.4-0.4l0.2-1.1v-2.3v-0.3l-0.8,0.1l-0.9,0.1l-0.4-0.4v-0.6v-0.2l0.2-0.2c1.3-0.3,2-0.6,2-0.9v-0.4v-17.9
			c0.3-1.6,1.2-3.2,2.7-4.6c1.8-0.4,2.7-0.7,2.7-1.1v-0.4c-1-1.2-2.2-1.8-3.6-1.8H580v-33.2c0.5-1.1,1.1-1.9,1.8-2.6
			c2.7-0.7,4.2-1.2,4.2-1.5v-0.2c-0.8-1-2.2-1.5-4.2-1.5h-1.1c-3.3,0.5-4.9,1.1-4.9,1.8l-4-2.4h-1.1l-4,2.4c0-0.3-0.8-0.8-2.4-1.5
			c-1,1.6-8.6,18.8-22.7,51.4h-0.2l-2.2-5.5c0.4-2.1,0.9-3.3,1.3-3.7c1.1-0.4,1.7-0.8,1.8-1.1v-0.4c-1.2-1.2-2.6-1.8-4-1.8h-2.2
			l-13.6-30.1c-0.8-2.1-1.5-3.8-2.1-5.1c-0.1-0.2-0.2-0.5-0.3-0.7c-0.9-2-1.6-3-2-3l-2.7,1.3H515c-1.9-1.5-3.2-2.2-3.8-2.2h-0.4
			l-2.6,1.7l0,0l-0.4,0.3c-1.9-0.9-3.4-1.3-4.7-1.3h-0.9c-2.1,0-3.6,0.4-4.5,1.3v0.9c0.3,0,0.6,0,0.8,0c0.3,0,0.7,0.1,1,0.2
			c1.7,0.4,3,1.5,4,3.3v33.6c-2.4,0-3.9,0.6-4.7,1.8v0.2c0.3,0.6,0.7,0.9,1.3,0.9c2.2,0.5,3.3,2.1,3.3,4.8v23.5c0,2.9-0.7,4.4-2,4.4
			c0,0,0,0,0,0c-0.4,0-0.8,0-1.1,0c0,0.4,0.1,0.7,0.1,1.1c0,0.1,0,0.2,0,0.2c0,0.4,0.1,0.9,0.1,1.5c0,0.5,0,1.1-0.1,1.8
			c0,0.5,0,0.9,0,1.3h3.7c0.4-1.3,0.7-2.8,1.1-4.3l-0.2-0.1l0.2-0.2c0.3-1.2,0.5-2.5,0.8-3.9c0.2-0.8,0.4-1.5,0.6-2.1c0,0,0,0-0.1,0
			h-0.4l-0.2-0.2c0-1.3,0.4-2,1.1-2v0.2l0.2,0.2v0.4c0,0.1,0,0.1,0,0.1c0.2-0.2,0.3-0.5,0.5-0.7c0.5-0.5,1-0.9,1.7-1.1l2.1-0.7
			l0.2-0.1c0-0.1,0-0.2,0-0.4V588h0.2l6.2,14.1c-1.7,0-3,0.5-4,1.5l0.2,0.9c2.4,0.6,4.3,1.5,5.6,2.9c1.2,1.2,4.7,8.7,10.5,22.6
			c0.1,0.2,0.1,0.3,0.2,0.5h0.2l4.5-0.8l1.5-0.3c1.6,0,2.5,0.8,3,2.5c0.1,0.2,0.1,0.4,0.1,0.6c-0.2,0.2-0.4,0.4-0.6,0.5
			c-0.2,0.1-0.5,0.2-0.8,0.2h-1.1c-0.4,0-0.7,0-1-0.1c-1.3-0.1-2.3-0.5-3-1.3l-0.7,0.2l-1.3-0.7l-0.2,0.2c0.2,0.4,0.4,0.8,0.5,1.2
			c1.1,2.4,1.9,4.4,2.6,5.9c0,0,0,0,0,0.1c0.5,1.1,0.9,1.9,1.2,2.5c0.2,0.5,0.4,0.7,0.5,0.9h1.6c1.1-2,1.8-3.1,2-3.1l1.8-4.3
			l1.1-2.7l1-2.3l18.4-43.5H562.2z M568.4,633c-0.7,0-1.2-0.2-1.3-0.7v-0.7c0.1-0.3,0.4-0.6,1.1-0.9c0.7,0.2,1.1,0.7,1.1,1.5
			C569.3,632.6,569,632.8,568.4,633z M571.5,635.9l-0.2-0.2l0.2-1.1h0.7c0.4,0.1,0.7,0.5,0.7,1.3H571.5z M576.7,618.1h0.2l0.2-0.2
			h0.2c0.3,0,0.6,0.4,0.9,1.3v0.2C577.5,619.4,577,619,576.7,618.1z M579.1,633.5c-0.3,0.6-0.7,0.9-1.3,0.9l-1.1-0.2v-0.9l0.9-0.7
			C578.6,632.8,579.1,633.1,579.1,633.5z M578.7,627.8l-0.2,0.2l-0.7-0.7v-0.4h0.7l0.2,0.7V627.8z M579.3,622.7l-0.4-0.4v-0.4
			l0.9,0.9H579.3z M578.9,620.3l-0.4,0.4h-0.2v-0.2l0.7-0.7V620.3z M576.4,616.3l0.7-0.2v0.2c0.9,0,1.3,0.2,1.3,0.7l-0.7,0.2
			l-1.3-0.2V616.3z M573.1,620.5l0.4-0.4h0.2c0.9,0,1.5,0.4,1.8,1.3l-0.7,0.4c-0.7,0-1.3-0.4-1.8-1.1V620.5z M572.4,624l0.4-0.4h0.4
			c0,0.6-0.3,1-0.9,1.3V624z M571.3,598.8h0.2l0.2,0.7v0.2h-0.2l-0.2-0.7V598.8z M505.4,637.4c0,0.3-0.4,0.5-1.3,0.9
			c-0.6,0-0.9-0.2-0.9-0.7v-0.9l0.7-0.7c0.8,0,1.3,0.3,1.6,0.9V637.4z M505.6,633.2c-0.1,0.3-0.4,0.6-1.1,0.9l-0.4-0.4l0.4-1.5h0.4
			l0.7,0.7V633.2z M511,571.3v0.2l-0.2,0.2l-0.7-0.7v-0.4h0.7L511,571.3z M512.1,569.3l-0.4-0.4l0.4-0.4h1.1
			C513.1,568.8,512.8,569,512.1,569.3z M514.1,570.2h-0.2l-0.2-0.7v-0.2h0.2l0.2,0.2V570.2z M536.8,634.8v0.2h-0.4l-0.4-0.4v-0.4
			l0.2-0.2L536.8,634.8z M539.3,637l-0.2,1.1h-0.7c0-0.7,0.2-1.2,0.7-1.3h0.2V637z M567.8,623.8v0.7h-0.2c-0.2,0-0.4-0.3-0.7-0.9
			h0.2l0.2-0.2L567.8,623.8z M568.2,625.8l-0.4-0.4v-0.2l1.1-0.4v0.2l0.2,0.2C569.1,625.3,568.8,625.6,568.2,625.8z M565.5,579
			c0-0.3,0.5-0.5,1.6-0.7l1.1,0.4c0,0.6-0.4,1-1.3,1.3c-0.9-0.3-1.3-0.6-1.3-0.9V579z"/>
		<path d="M648.6,565.3l0.1,0.3h0.4c0.1,0,0.3-0.2,0.5-0.7c0.2-0.4,0.4-0.9,0.6-1.5c0.3,0,0.6,0,0.7-0.1c0.2-0.1,0.4-0.2,0.4-0.4
			v-0.2H650c-1.4,0-2.4,0.3-3.2,0.8c-0.3,0.2-0.6,0.4-0.8,0.7c-0.6,0-1.6-0.6-2.8-1.7c-0.2-0.2-0.3-0.3-0.5-0.5h-1.1l-0.2,0.2
			c-0.2,0.2-0.3,0.4-0.4,0.5c-0.5,0.6-0.9,1-1.1,1.1c-0.1,0-0.2,0.1-0.2,0.1v0.2l0.2,0.2l-2,1.1c0,0.1,0.2,0.3,0.5,0.4
			c0.3,0.2,0.7,0.4,1.3,0.7c0.1,0,0.2,0,0.3,0c0.1,0,0.3,0,0.4,0c0.7-0.1,1.6-0.4,2.7-0.8v0.2l0.2,0.2v0.7c0,0.3-0.2,0.4-0.7,0.4
			c-3,1.1-4.5,1.9-4.5,2.6v0.7c0,0.3,0.4,0.5,1.1,0.7l-0.2,0.7l0.4,0.4h0.2l0.7-0.4h1.1l1.1,0.9h0.2l1.8-2v-1.5l-1.1-1.1v-0.4
			l0.2-1.1c0.6,0.3,1.4,0.4,2.5,0.4c0.1,0,0.3,0,0.4,0l1.1-1.3l0.1-0.1l-0.4-1.3c0.6-0.4,1.1-0.7,1.6-0.7l-0.2,0.7L648.6,565.3z
			 M640.7,570.7h-0.2l-0.4-0.4v-0.9h0.7l0.2,0.7L640.7,570.7z M644,570.2v0.7l-0.4,0.7c-0.7,0-1.2-0.3-1.3-0.9
			c0-0.4,0.1-0.7,0.4-0.7h0.2L644,570.2z"/>
		<path d="M635.1,579.3l-0.4-0.1l-0.4,0.4v0.7l0.6,0.6l0,0h0.2h0l0.6-0.6l0.9-0.9l1.5-1.6v-0.2v0c-0.6,0-1,0.1-1.4,0.3
			c-0.5,0.2-0.8,0.7-0.8,1.2c0,0.1,0,0.2,0,0.3L635.1,579.3z"/>
		<polygon points="635.3,563.2 635.5,563.4 636,563 635.3,563 		"/>
		<path d="M634.7,564.1l-1.3,0.4l-0.7-1.5c-1.5,0.4-2.2,0.7-2.2,1.1v0.4l0.7,0.7l1.1-0.9v0.2c0,0.8,0.5,1.3,1.6,1.5
			c0.1,0,0.1-0.1,0.2-0.1c1-0.3,1.6-0.7,1.6-1v-0.2l-0.6-0.5L634.7,564.1z"/>
		<path d="M630,576.4h-0.2l-1.6,1.5l0.4,0.4h0.4c0.9,0,1.6-0.3,2.2-0.9l-0.3-0.2l-0.7-0.6L630,576.4z"/>
		<path d="M617.1,564.5l-0.2-0.2l-1.8,0.7v0.4c1.3-0.1,2-0.4,2-0.7V564.5z"/>
		<path d="M630,637.6c-1.6,0.1-2.9,0.3-3.9,0.4c-0.3,0.1-0.6,0.1-0.8,0.2c-0.7,0.2-1.1,0.4-1.1,0.7v4c0.1,0.4,0.6,0.7,1.3,0.7h12.8
			h19c0.6-0.3,0.9-0.8,0.9-1.5v-1.3c0-0.8-0.3-1.6-0.9-2.4c-3.5-0.5-5.3-0.8-5.6-1.1c-1.4-1.6-5-7-10.7-16.3
			c-5.5-7.9-8.2-12.5-8.2-13.6v-0.7c0-0.5,0.3-1.1,0.9-1.8c1.3-0.3,2-0.5,2-0.9v-0.4c-1.6-1.3-3.6-2-6-2h-1.1l-0.7-1.1l-3.2-4.8
			l-0.2-0.3l-0.9-1.3l7.8-8.8c0-0.3-0.4-0.5-1.3-0.7c-0.1,0-0.3,0-0.4,0c-0.7,0.1-1.5,0.4-2.2,0.8c0,1-0.2,1.5-0.7,1.5h-0.2l0.3,0.9
			l0.2,0.6v0.2l-0.2,0.2c-0.2,0-0.3-0.2-0.5-0.4c-0.1-0.2-0.2-0.5-0.2-0.9v-0.7h-0.7l-1.6,1.5h-0.9l0,0l-0.2-0.2l0.5-3.1l0.2-1.1
			c0.1,0,0.1,0,0.2-0.1c1.2-0.4,1.8-0.8,1.8-1.2c0.5,0,1,0.2,1.7,0.7c0.2,0.1,0.4,0.3,0.6,0.4h0.4l2.7-0.7l-0.2-0.9l0.7-0.7
			c0-0.2-0.7-0.5-2-0.9v-0.2l0.2-0.2v-0.4l-0.2-0.2l-2.9,0.4l-1.4,1.6l-0.5,0.5l-1.3,1.5l-11.9,13.3v-7.5h-0.4v0.9l-0.7-0.2
			l-0.2-0.2c-0.6-0.9-1.5-1.3-2.9-1.3v-0.7h0.4v-0.4c-0.4,0-0.7-0.3-0.9-0.9c0-0.6,0.6-1,1.8-1.1c1.6,0.3,2.4,0.5,2.4,0.9l0.4-0.4
			v-3.5v-0.9l-0.2-0.2l-1.3,1.1l-0.5,0.4l0.2,1.1v1.1h-0.2c-0.3,0-0.6-0.4-0.7-1.3h-1.2H607l-0.5-1l-0.1-0.3v-0.2
			c0-1.1,0.5-1.8,1.6-2.2h0.7c0,0.3,0.1,0.4,0.2,0.5c0.1,0.1,0.2,0.1,0.3,0.1h0.4l1.8-1.1v-0.4V571v-2.3l-0.1-0.1l-0.8-1v-0.7
			l0.7-0.7V566l-0.2-0.2c-1,0-1.8-0.2-2.2-0.7c0-0.7,0.2-1.2,0.7-1.3h0.7l0.4,0.4c0.7,0,1.6-0.4,2.7-1.1l-0.4-0.4h-0.9
			c-2,0-3.6,0.6-4.7,1.8l-4-2.4h-1.1l-3.8,2.2c-1.7-1-3.3-1.5-4.9-1.5h-0.9c-1.9,0-3.5,0.4-4.7,1.3l0.2,0.9c0.2,0,0.4,0.1,0.6,0.1
			c0.4,0.1,0.7,0.2,1,0.3c2.2,0.6,3.5,1.3,3.8,2v0.2l1-0.2l0.1,0l0.2,0.6l0,0v0.2l-0.2,0.2l-0.7-0.4h-0.2v7.7h1.3l0.4,0.4v0.4
			l-0.4,0.7l-1.1-0.2h-0.2l0.2,0.9l-0.2,2.4v0.9v1.5v0.5l2.4,2c1-0.4,2-0.7,3.1-0.7h0.2l0.4,0.4v0.2l-0.4,1.3l-1.8-0.4
			c-1.3,1.4-2.2,2.1-2.7,2.2l-0.9-1.1l-0.4,0.4v14.1h-1.3c-2,0-3.5,0.7-4.7,2v0.2l0.4,0.7c3.7,0.9,5.6,2.5,5.6,4.8v24.2
			c0,1.4-0.4,2.7-1.1,4c-1.1,0.1-2.1,0.2-2.9,0.3c-1.1,0.1-1.9,0.3-2.5,0.5c-0.7,0.2-1.1,0.5-1.1,0.8v1.8c-0.2-1.2-0.5-1.8-1-1.8
			c-0.7,0-1.4,0.4-2,1.2c-0.1,0.1-0.2,0.2-0.2,0.3c0,0,0,0,0,0c-1.8,0.1-2.6,0.6-2.6,1.3h-0.2c-0.3-0.3-0.6-0.5-0.9-0.8
			c-0.5-0.4-1-0.7-1.3-0.8h-0.2l-0.2,0.2l-5.6-0.2c-1.1,0-2,0.3-2.6,0.8c-0.1,0.1-0.2,0.2-0.3,0.3v0.2l0.2,0.2l-0.7,0.4l-1.3-1
			l-0.5-0.4h-1.5h-0.3c-0.3,0-0.7,0-1,0c-2.1,0.2-5,0.8-8.6,1.9v0v0.2l0.3,0.3l0.1,0.1h0.8h1.6c0.1-0.9,0.5-1.3,1.1-1.3l0.9,1.3h2.8
			c0.7-0.4,1.4-0.6,2.1-0.7c0.3-0.1,0.7-0.1,1-0.1c0,0,0,0,0,0c0.4,0,0.8,0.1,1.1,0.1c0.1,0,0.2,0,0.2,0.1c0.4,0.1,0.7,0.3,1,0.6
			c0,0,0,0,0,0h12.7l1.1-0.9h0.7c0,0.6,0.1,0.9,0.4,0.9h4c0,0,0,0,0,0c0,0,0.1,0,0.1,0h6.6c0.1-0.2,0.3-0.3,0.4-0.5l0.1-0.2l0.2-0.1
			c0.3-0.2,0.6-0.4,0.9-0.6c0.2-0.1,0.4-0.2,0.5-0.4l0.3-0.2l0.3-0.1c0.3-0.1,0.6-0.2,1-0.3c0.4-0.1,0.8-0.1,1.3-0.1
			c0.7,0,1.2,0.1,1.7,0.2c0.7,0.2,1.2,0.6,1.6,1.1c0.2,0.3,0.5,0.7,0.7,1.2h15.4c0.6-0.3,0.9-0.8,0.9-1.5v-1.1
			c0-2.1-0.7-3.1-2.2-3.1h-2.4c-2.1,0-3.1-1.4-3.1-4.2v-25.3c0-0.8,0.7-1.8,2-2.9l14.2,22.2c2.7,3.7,4,6.3,4,7.7
			C631.2,636.4,630.7,637.2,630,637.6z M627.3,581.2c1,0.2,1.6,0.5,1.6,0.9v0.4l-0.2,0.2c-0.2,0-0.5,0-0.7-0.1
			c-0.4-0.2-0.8-0.5-0.9-1v-0.2L627.3,581.2L627.3,581.2z M570.9,642.7h-1.1c0-0.3,0.6-0.7,1.8-1.1l0.7,0.4
			C572.1,642.5,571.6,642.7,570.9,642.7z M575.3,642.2l-1.1,0.2h-0.4l-0.4-0.4v-0.2l1.6-0.4l0.4,0.4V642.2z M598.8,593.3l-0.4,0.9
			h-0.4l-0.2-0.2c0-0.1,0-0.2,0-0.4c0-0.1,0.1-0.2,0.1-0.2c0.1-0.3,0.4-0.5,0.7-0.7h0.2V593.3z M607.3,577l0.2-0.7h0.2l0.7,0.7v0.4
			h-0.4L607.3,577z M609.5,579.9L609.5,579.9l-1.6-0.4l0.4-0.4h1h0.1l0.4,0.4L609.5,579.9z M606.4,564.7h1.1
			c-0.1,0.3-0.4,0.6-1.1,0.9l-0.4-0.4L606.4,564.7z M604.4,567.4c0.2,0,0.4,0.3,0.7,0.9v0.2h-0.7l-0.2-1.1H604.4z M604.6,572.6v0.2
			l-0.7,0.7h-0.7l-1.1-1.1l0.4-1.3C603.9,571.1,604.6,571.6,604.6,572.6z M601.9,566h0.4v0.9l-0.4-0.4V566z M602.8,574.4
			c-0.2,1.2-0.7,1.8-1.6,1.8c-0.6-0.1-1.6-1.6-3.1-4.5c0,0,0-0.1-0.1-0.1c0.1-0.3,0.3-0.5,0.5-0.7c0.2-0.1,0.5-0.2,0.8-0.2
			c0.2,0,0.7,0.7,1.6,2.2C602.2,572.9,602.8,573.4,602.8,574.4z M595.2,582.7H595v-0.7h0.2V582.7z M595.7,572.2v0.9h-0.2v-0.9H595.7
			z M596.1,581.4l-0.4-0.7v-0.2l0.9-0.7l0.1,0l0.6,0.2v0.4c0,0.1-0.1,0.1-0.1,0.2C597,581,596.6,581.2,596.1,581.4z M602.2,596.6
			l-0.9-0.9v-0.2h0.2l0.7,0.9V596.6z M602.6,584.9c-1,0-1.6-0.6-2-1.8l0.9-1.3v-0.2l-0.2-1.5h0.2l0.2-0.2h0.7c0.1,1.3,0.7,2,1.8,2
			v0.7c0,0.2-0.1,0.4-0.1,0.6c-0.1,0.7-0.3,1.1-0.6,1.4C603.2,584.8,602.9,584.9,602.6,584.9z M605.3,589.1l-0.2,0.2
			c-0.2,0-0.4-0.3-0.7-0.9v-0.2h0.4l0.4,0.4V589.1z M621.5,587.8l0.7,0.4l-0.4,0.7c-0.9-0.3-1.4-0.7-1.6-1.1H621.5z M618,597.4
			l-0.7,0.2l-0.7-0.7v-0.7l0.2-0.2l1.1,0.2V597.4z"/>
		<path d="M522.6,638.1c0-0.1,0-0.1,0.1-0.2l-0.3-1.1l-0.1-0.3c0.1-0.1,0.1-0.3,0.2-0.6c0-0.1,0.1-0.2,0.1-0.2
			c0.1-0.2,0.1-0.3,0.2-0.5c0.1-0.2,0.1-0.6,0.2-1.2c0-0.6,0.1-1.5,0.1-2.6c0-0.2,0-0.3,0-0.4c0-0.2,0-0.4-0.1-0.5
			c-0.1-0.2-0.2-0.3-0.4-0.3c-0.2,0-0.5,0.2-0.9,0.6c-0.3,0.3-0.6,0.7-0.9,1.2c-0.1,0.2-0.3,0.4-0.4,0.6c-0.1,0.4-0.2,0.7-0.2,1
			c0,0.1,0,0.1-0.1,0.2c-0.1,0.3-0.2,0.6-0.2,0.8l0.1,0.2l0.3,0.9c-0.3,1.1-0.5,2.1-0.7,2.9c-0.1,0.2-0.1,0.4-0.2,0.6
			c-0.1,0.5-0.3,1-0.4,1.4c0,0,0,0,0,0c-0.3,0.8-0.5,1.6-0.8,2.4c0,0.1-0.1,0.2-0.1,0.3c0,0,0,0.1,0,0.1c-0.1,0.2-0.1,0.4-0.2,0.7
			c-0.2,0.6-0.4,1.1-0.6,1.7c0,0.6-0.1,1-0.2,1.4c-0.1,0.4-0.3,0.6-0.4,0.8c-0.3,0.9-0.6,1.9-1,3c-0.4,1.1-0.8,2.2-1.2,3.4
			c-0.6,1.6-1,2.7-1.4,3.5c-0.4,0.8-0.7,1.2-0.9,1.2c-0.1,0-0.2-0.3-0.3-0.9c-0.1-0.6-0.1-1.5-0.1-2.8c0-0.3,0-0.7,0-1.3
			s0-1.4-0.1-2.3c0-0.8,0-1.4-0.1-2s0-1.1,0-1.6c0,0,0-0.1,0-0.2c0-0.1,0.1-0.3,0.1-0.5c0.1-0.4,0.2-0.9,0.3-1.5
			c0.1-0.5,0.1-1,0.2-1.4c0-0.3,0.1-0.5,0.1-0.7c0-0.1,0-0.2,0-0.3c0.1-0.5,0.1-0.9,0.1-1.3c0.2-0.8,0.3-1.6,0.5-2.3
			c0-0.2,0.1-0.4,0.1-0.6c0.1-0.4,0.2-0.8,0.2-1.2c0-0.2,0.1-0.4,0.1-0.6c0,0,0,0,0-0.1c0-0.1,0-0.3,0.1-0.4c0.2-1,0.2-1.8,0.2-2.3
			c0-0.3,0-0.5-0.1-0.7c0-0.1-0.1-0.2-0.1-0.3c0,0,0-0.1-0.1-0.1c-0.2-0.3-0.5-0.5-0.9-0.7l-0.1,0l-0.5,0.2l-0.4,0.1l-1.4,0.5
			c-0.4,0.1-0.8,0.5-1.2,1.1c-0.2,0.4-0.4,0.8-0.6,1.4c-0.1,0.3-0.2,0.7-0.3,1c-0.1,0.8-0.3,1.5-0.4,2.2c0,0.2-0.1,0.3-0.1,0.5
			c-0.2,1.2-0.5,2.4-0.8,3.5c-0.1,0.3-0.2,0.7-0.2,1c-0.2,0.7-0.3,1.3-0.5,2c-0.7,2.6-1.5,4.6-2.3,6.2c-0.2,0.6-0.4,1.2-0.6,1.7
			c-0.2,0.5-0.3,0.9-0.4,1.2l-2.1,3.8c-0.1,0-0.2,0.1-0.3,0.2c-0.1-0.2-0.4-1.5-0.8-4c-0.4-2.5-0.6-4.1-0.7-4.8v-1.7
			c-0.1-0.4-0.2-0.7-0.2-0.9c-0.1-0.2-0.1-0.4-0.1-0.5c0-0.2,0-0.3,0-0.4c0-0.2,0-0.5,0-1c0-0.1,0-0.3,0-0.5c0-0.3,0-0.7,0-1.1
			c0-0.1,0-0.2,0-0.4c0-0.2,0-0.4,0-0.6c0-0.4,0-0.8,0-1.1c0-0.3,0-0.6,0-0.9c0-0.1,0-0.3,0-0.4c0-0.5,0-1-0.1-1.5
			c0-0.5-0.1-1-0.2-1.4c0,0,0,0,0,0c0-0.1,0-0.2,0.1-0.3c0-0.1,0.1-0.3,0.1-0.4c0,0,0-0.1,0-0.1c0.1-0.6,0.2-1.2,0.2-1.8
			c0-0.4,0.1-0.9,0.1-1.3c0.1-0.8,0.2-1.6,0.3-2.5c0-0.2,0-0.4,0.1-0.6c0-0.1,0-0.1-0.1-0.3c0-0.1-0.1-0.2-0.1-0.3c0,0,0,0,0,0
			c0-0.1-0.1-0.3-0.2-0.4c-0.1-0.2-0.3-0.5-0.4-0.8c-0.2-0.3-0.3-0.6-0.5-0.8c0-0.1-0.1-0.1-0.1-0.2c-0.2-0.3-0.3-0.5-0.5-0.6
			c-0.1-0.1-0.3-0.3-0.5-0.4c-0.1,0-0.1-0.1-0.2-0.1c-0.2-0.1-0.5-0.1-0.7-0.2c-0.1,0-0.2,0-0.3,0c-0.5,0-0.9,0.2-1.2,0.5
			c-0.1,0.1-0.1,0.2-0.2,0.2c-0.2,0.3-0.4,0.7-0.5,1.2c-0.1,0.6-0.2,1.2-0.3,1.8c-0.3,1.8-0.6,3.5-0.8,5.2c0,0.2,0,0.5-0.1,0.7
			c-0.1,1-0.2,1.9-0.2,2.9c0,0.3,0,0.5,0,0.8c0,0.4,0,0.8,0,1.2c0,0.3,0,0.6,0,0.9c0,0,0,0.1,0,0.1c0,0.7,0,1.4,0.1,1.9c0,0,0,0,0,0
			c0.1,0.5,0.1,0.9,0.3,1.2l0.7,0.5c0.2,0.1,0.3,0.4,0.4,0.8c0.1,0.4,0.1,0.9,0.2,1.5c0,0.8,0.1,1.4,0.1,1.8c0,0.4,0.1,0.7,0.1,0.8
			c0.2,0.3,0.3,0.6,0.4,0.8c0.1,0.2,0.1,0.5,0.1,0.7c0,0.3,0,0.5,0.1,0.8c0,0.3,0,0.5,0.1,0.8c0.1,0.8,0.2,1.5,0.3,2.1
			s0.2,1.1,0.2,1.5c0.2,0.6,0.3,1.1,0.4,1.6c0.1,0.4,0.3,0.8,0.4,1c0,0.2-0.1,0.4-0.2,0.6c0.2,0.6,0.3,1.2,0.5,1.7
			c0.2,0.6,0.3,1.1,0.5,1.7c0.3,0.9,0.5,1.6,0.8,2.1c0.3,0.5,0.6,0.7,0.8,0.7c0.1,0,0.3,0,0.4,0c0.4-0.1,0.8-0.2,1.2-0.5
			c0.5-0.4,0.9-0.9,1.3-1.6c0.6-1.2,1.1-2.4,1.6-3.6c0.5-1.1,0.9-2,1.1-2.6c0.3-0.6,0.4-1,0.4-1.2c0.4-0.8,0.9-1.7,1.3-2.4
			s0.8-1.5,1.2-2.2c0.2,0.9,0.4,1.7,0.5,2.4c0.1,0.7,0.2,1.2,0.2,1.6c0.1,0.8,0.1,1.6,0.2,2.4c0.1,0.8,0.1,1.6,0.2,2.3
			c0.2,1.1,0.5,2,0.9,2.5c0.3,0.4,0.7,0.7,1.1,0.8c0.2,0,0.3,0.1,0.5,0.1c0.1,0,0.3-0.1,0.6-0.2c0.2-0.1,0.5-0.3,0.9-0.5
			c0.3,0,0.6,0,0.8-0.1c0.2-0.1,0.4-0.2,0.5-0.4l0.7-0.4c0.1-0.1,0.3-0.3,0.6-0.8c0.3-0.5,0.6-1.2,1-2.1c0.4-0.9,0.7-1.6,0.9-2.1
			c0.2-0.6,0.4-1,0.5-1.3c0.1-0.6,0.3-1.1,0.5-1.5c0.2-0.4,0.3-0.7,0.5-0.9c0.3-0.8,0.5-1.5,0.7-2.1c0.2-0.6,0.4-1.1,0.5-1.5
			c0.2-0.7,0.3-1.3,0.5-1.8c0.1-0.5,0.2-0.9,0.4-1.1c0.3-0.7,0.5-1.2,0.7-1.7c0.2-0.5,0.3-0.9,0.4-1.2c0.1-0.2,0.3-0.6,0.4-1.2
			c0,0,0,0,0,0c0.1-0.6,0.3-1.4,0.5-2.4c0.2-1.1,0.3-1.9,0.5-2.6C522.4,638.7,522.5,638.3,522.6,638.1z"/>
		<path d="M536.2,660.3c-0.1-0.3-0.3-0.7-0.5-1.1c-0.2,0.2-0.4,0.3-0.6,0.4c-0.2,0.1-0.3,0.2-0.4,0.2c-0.5,0.3-1,0.5-1.5,0.7
			s-1.2,0.3-1.9,0.4c-0.4-0.1-0.8-0.2-1.1-0.3s-0.5-0.2-0.7-0.3c-0.3-0.1-0.4-0.4-0.6-0.7s-0.2-0.6-0.2-1c0-0.2,0-0.4,0.1-0.6
			c0-0.1,0.1-0.2,0.2-0.2c0.1-0.1,0.1-0.2,0.2-0.2c1.5-1.5,2.7-2.8,3.6-3.9c0.9-1.1,1.5-2.1,1.7-3l0.2-0.9c0.1-0.4,0.2-0.8,0.3-0.9
			c0-0.1,0.1-0.2,0.1-0.2c-0.1-0.4-0.1-0.8-0.2-1.1c0-0.1,0-0.1-0.1-0.2c-0.1-0.3-0.2-0.6-0.3-0.9c-0.1-0.3-0.2-0.5-0.4-0.7
			c-0.2-0.2-0.4-0.4-0.7-0.5c-0.3-0.1-0.6-0.1-1.1-0.1c-0.3,0-0.6,0-0.9,0.1c-0.3,0.1-0.5,0.1-0.7,0.2c-0.2,0.2-0.5,0.3-0.7,0.5
			s-0.5,0.3-0.7,0.5c-0.4,0.5-0.8,1-1.2,1.5c-0.4,0.5-0.8,1-1.2,1.4c-0.5,0.7-0.8,1.4-1.1,2c-0.3,0.6-0.5,1.1-0.7,1.5
			c-0.1,0.4-0.3,0.8-0.4,1.1c-0.1,0.3-0.2,0.6-0.3,0.9c0,0.4-0.1,0.7-0.1,1.1s-0.1,0.7-0.2,1.1c-0.5,0.4-1,0.8-1.3,1.2
			c-0.1,0.1-0.2,0.2-0.3,0.3c-0.2,0.3-0.4,0.5-0.6,0.8c0.3,0.6,0.5,1.1,0.7,1.5c0.2,0.4,0.3,0.7,0.4,1c0.2-0.3,0.4-0.5,0.6-0.6
			c0.2-0.1,0.3-0.2,0.5-0.2c0.2,0,0.3,0.1,0.5,0.3c0.1,0.2,0.3,0.5,0.5,0.9c0.2,0.5,0.4,0.9,0.6,1.3c0.2,0.4,0.4,0.6,0.5,0.8
			c0.3,0.4,0.8,0.7,1.3,0.9c0.3,0.1,0.5,0.2,0.8,0.2c0.3,0,0.6,0.1,1,0.1c0.3,0,0.5,0,0.7,0c0.2,0,0.4,0,0.6-0.1
			c0.4-0.1,0.7-0.2,1-0.4c0.7,0,1.5-0.3,2.3-0.8c0.8-0.5,1.8-1.3,2.8-2.3c-0.1-0.3-0.3-0.7-0.4-1.1
			C536.3,660.5,536.3,660.4,536.2,660.3z M529,652.2c0.1-0.1,0.1-0.2,0.2-0.3c0,0,0,0,0-0.1c0.1-0.1,0.2-0.2,0.2-0.3
			c0.4-0.6,0.7-0.9,1-1.1c0.1-0.1,0.2-0.1,0.3-0.1c0.1,0,0.2,0.1,0.3,0.1c0.1,0.1,0.1,0.2,0.1,0.4c0,0.3-0.1,0.5-0.2,0.8
			c-0.1,0.3-0.3,0.5-0.5,0.8c-0.2,0.2-0.4,0.4-0.6,0.6c-0.2,0.2-0.4,0.4-0.6,0.6c-0.1,0.2-0.2,0.4-0.4,0.6s-0.3,0.3-0.5,0.3
			c-0.1,0-0.2,0-0.3-0.1c0,0-0.1-0.1-0.1-0.2C528.2,653.8,528.4,653.1,529,652.2z"/>
		<path d="M602.7,660.3c-0.1-0.3-0.3-0.7-0.5-1.1c-0.2,0.2-0.4,0.3-0.6,0.4c-0.2,0.1-0.3,0.2-0.4,0.2c-0.5,0.3-1,0.5-1.5,0.7
			c-0.6,0.2-1.2,0.3-1.9,0.4c-0.4-0.1-0.8-0.2-1.1-0.3s-0.5-0.2-0.7-0.3c-0.3-0.1-0.4-0.4-0.6-0.7s-0.2-0.6-0.2-1
			c0-0.2,0-0.4,0.1-0.6c0-0.1,0.1-0.2,0.2-0.2c0.1-0.1,0.1-0.2,0.2-0.2c1.5-1.5,2.7-2.8,3.6-3.9c0.9-1.1,1.5-2.1,1.7-3l0.2-0.9
			c0.1-0.4,0.2-0.8,0.3-0.9c0-0.1,0.1-0.2,0.1-0.2c-0.1-0.4-0.1-0.8-0.2-1.1c0-0.1,0-0.1-0.1-0.2c-0.1-0.3-0.2-0.6-0.3-0.9
			c-0.1-0.3-0.2-0.5-0.4-0.7c-0.2-0.2-0.4-0.4-0.7-0.5c-0.3-0.1-0.6-0.1-1.1-0.1c-0.3,0-0.6,0-0.9,0.1c-0.3,0.1-0.5,0.1-0.7,0.2
			c-0.2,0.2-0.5,0.3-0.7,0.5c-0.2,0.1-0.5,0.3-0.7,0.5c-0.4,0.5-0.8,1-1.2,1.5c-0.4,0.5-0.8,1-1.2,1.4c-0.5,0.7-0.8,1.4-1.1,2
			c-0.3,0.6-0.5,1.1-0.7,1.5c-0.1,0.4-0.3,0.8-0.4,1.1c-0.1,0.3-0.2,0.6-0.3,0.9c0,0.4-0.1,0.7-0.1,1.1c-0.1,0.4-0.1,0.7-0.2,1.1
			c-0.5,0.4-1,0.8-1.3,1.2c-0.1,0.1-0.2,0.2-0.3,0.3c0,0,0,0,0,0c-0.2,0.3-0.4,0.5-0.6,0.8c0,0,0,0,0,0c-0.3,0.2-0.5,0.4-0.7,0.5
			c-0.2,0.1-0.8,0.6-1.7,1.6c-0.4,0.4-0.7,0.6-1.1,0.9c-0.3,0.2-0.6,0.3-0.8,0.3c-0.1,0-0.2,0-0.3-0.1c-0.1-0.1-0.1-0.1-0.1-0.2
			c0-0.4,0.1-1,0.3-1.7c0.1-0.4,0.3-0.8,0.5-1.3c0.6-1.3,0.8-2.4,0.8-3.1c0-0.5,0-0.9-0.1-1.3c-0.1-0.8-0.2-1.5-0.5-2.2
			c-0.4-1-0.9-1.7-1.6-2.3c-0.1-0.1-0.2-0.2-0.4-0.3c-0.4-0.4-0.8-0.8-1.2-1.1c-0.4-0.4-0.9-0.5-1.6-0.5c-0.6,0-1.3,0.3-2.3,0.9
			c-0.9,0.6-1.5,1.1-1.7,1.6l0.3,1.3c-0.4,0.9-1,1.8-1.8,2.8c-0.8,1-1.9,2-3.2,3.1c-0.1,0.1-0.2,0.3-0.3,0.4c0,0,0,0,0,0
			c-0.2,0.3-0.4,0.5-0.6,0.8c0,0,0,0,0,0c-0.1,0.1-0.2,0.2-0.4,0.3c-0.1,0.1-0.2,0.2-0.3,0.2c-0.1,0.1-0.2,0.3-0.4,0.4
			c-0.1,0.1-0.2,0.3-0.4,0.5c-0.2,0.1-0.3,0.3-0.5,0.4c-0.2,0.1-0.3,0.1-0.5,0.1c-0.5,0-1-0.2-1.3-0.7c-0.3-0.5-0.5-1-0.5-1.6
			c0-0.5,0-1,0-1.5c0-0.4,0-0.7,0-1.1c0-0.1,0-0.2,0-0.2c-0.1-0.5-0.1-0.8-0.3-1.1c-0.2-0.3-0.5-0.4-0.9-0.4c-0.6,0-1.3,0.2-2,0.7
			c-0.7,0.5-1.5,1.2-2.3,2.2c-0.2,0.1-0.3,0.2-0.4,0.3c-0.1,0.1-0.3,0.1-0.4,0.2c-0.2,0.1-0.4,0.3-0.8,0.7c-0.4,0.4-0.9,0.8-1.5,1.4
			c-0.5,0.5-1,0.9-1.4,1.2c-0.4,0.3-0.9,0.5-1.2,0.7l-0.2-0.2c0.5-0.7,0.9-1.3,1.3-1.8c0.3-0.5,0.6-0.7,0.7-0.9
			c1-0.9,1.8-1.6,2.4-2.3c0.1-0.1,0.2-0.2,0.3-0.3c0.4-0.5,0.7-0.9,0.9-1.2c0.4-0.3,0.8-0.6,1-0.8c0.3-0.2,0.4-0.4,0.5-0.5
			c0.1-0.2,0.3-0.4,0.5-0.6c0.6-0.4,1-0.8,1.5-1.3c0.4-0.4,0.8-0.8,1.1-1.2c0.5-0.4,1-0.8,1.5-1.1c0.3-0.2,0.5-0.4,0.6-0.7
			c0.1-0.3,0.2-0.6,0.2-1c0-0.3-0.1-0.6-0.3-0.8c0,0,0,0,0,0c-0.2-0.2-0.6-0.3-1-0.3c-0.9,0-1.9,0.4-3.1,1.2
			c-1.2,0.8-2.7,1.9-4.3,3.5c-0.4,0.3-0.7,0.6-1,0.8c-0.3,0.2-0.6,0.4-0.8,0.5c-0.4,0.4-0.8,0.7-1,0.9c-0.3,0.3-0.5,0.5-0.6,0.7
			c-0.3,0.1-0.5,0.3-0.7,0.4c-0.2,0.2-0.4,0.4-0.5,0.6c-0.2,0.3-0.3,0.5-0.4,0.7c-0.1,0.2-0.2,0.3-0.3,0.4l-2.5,1.6
			c-0.1,0.2-0.2,0.3-0.3,0.4c-0.1,0.1-0.2,0.3-0.2,0.4c-0.1,0.2-0.2,0.3-0.3,0.4c0.2,0.4,0.3,0.7,0.4,1c0.1,0.2,0.1,0.3,0.2,0.5
			c0.1,0.1,0.1,0.3,0.2,0.4c0.1,0.1,0.1,0.2,0.2,0.3c0,0.1,0.1,0.2,0.1,0.3c0,0.1,0,0.3-0.1,0.6c-0.4,0.4-0.7,0.8-0.9,1.3
			c-0.1,0.2-0.1,0.3-0.2,0.5c-0.1,0.3-0.1,0.6-0.1,0.9c0,0.9,0.2,1.5,0.6,2c0.3,0.3,0.7,0.5,1.3,0.6c0.2,0,0.4,0.1,0.7,0.1
			c0.1,0,0.3-0.1,0.6-0.2c0.3-0.1,0.6-0.3,1-0.5c0.6-0.3,1.1-0.6,1.6-0.9c0.5-0.3,0.9-0.6,1.3-0.9c0.2-0.2,0.5-0.5,0.9-0.9
			c0.4-0.4,1-0.9,1.6-1.6c0.5-0.4,0.9-0.7,1.2-1s0.6-0.5,0.9-0.7c0.1-0.2,0.3-0.3,0.4-0.4c0.1-0.1,0.2-0.2,0.3-0.3
			c0.1,0.2,0.2,0.4,0.3,0.5c0,0.2,0.1,0.3,0.1,0.5c0.1,1.4,0.5,2.4,1.1,3c0.5,0.5,1.1,0.8,1.8,0.9c0.3,0,0.6,0.1,0.9,0.1
			c0.5,0,1-0.1,1.5-0.3c0.5-0.2,1-0.5,1.6-0.9c0.5-0.4,0.9-0.7,1.3-1.2c0.4-0.4,0.8-0.8,1.2-1.2l0,0c0.2-0.2,0.3-0.3,0.4-0.5
			c0.1-0.1,0.1-0.3,0.2-0.3c0.6-0.4,1.1-0.8,1.4-1.1c0.4-0.3,0.6-0.7,0.8-0.9c0.3-0.1,0.6-0.4,1-0.8c0.4-0.4,0.9-0.9,1.4-1.6
			c0.5-0.6,1-1.1,1.4-1.5c0.5-0.4,0.9-0.7,1.3-0.9c0.6,0.1,1,0.4,1.3,0.9c0.2,0.3,0.3,0.7,0.4,1.3c0,0.3,0.1,0.6,0.1,0.9
			c0,0.8-0.1,1.7-0.3,2.6c-0.2,1-0.5,2-0.9,3.2c-0.1,0.3-0.2,0.5-0.3,0.7c-0.1,0.2-0.2,0.5-0.4,0.7c-0.1,0.1-0.1,0.3-0.2,0.4
			c-0.1,0.1-0.1,0.3-0.2,0.4c-0.1,0.3-0.1,0.5-0.1,0.7c0,0.5,0.2,0.9,0.6,1.1c0.3,0.2,0.7,0.3,1.1,0.3c0.2,0,0.4,0,0.6,0
			c0.5-0.1,0.9-0.3,1.2-0.6c1.4-0.8,2.6-1.6,3.5-2.2c1-0.6,1.8-1.2,2.4-1.6c0.3-0.3,0.5-0.5,0.7-0.7c0.2-0.2,0.4-0.4,0.6-0.5
			c0,0,0,0,0,0c0.2-0.3,0.4-0.5,0.6-0.6c0.2-0.1,0.3-0.2,0.5-0.2c0.2,0,0.3,0.1,0.5,0.3c0.1,0.2,0.3,0.5,0.5,0.9
			c0.2,0.5,0.4,0.9,0.6,1.3s0.4,0.6,0.5,0.8c0.3,0.4,0.8,0.7,1.3,0.9c0.3,0.1,0.5,0.2,0.8,0.2c0.3,0,0.6,0.1,1,0.1
			c0.3,0,0.5,0,0.7,0c0.2,0,0.4,0,0.6-0.1c0.4-0.1,0.7-0.2,1-0.4c0.7,0,1.5-0.3,2.3-0.8c0.8-0.5,1.8-1.3,2.8-2.3
			c-0.1-0.3-0.3-0.7-0.4-1.1C602.8,660.5,602.7,660.4,602.7,660.3z M595.5,652.2c0.1-0.1,0.1-0.2,0.2-0.3c0,0,0,0,0-0.1
			c0.1-0.1,0.2-0.2,0.2-0.3c0.4-0.6,0.7-0.9,1-1.1c0.1-0.1,0.2-0.1,0.3-0.1c0.1,0,0.2,0.1,0.3,0.1c0.1,0.1,0.1,0.2,0.1,0.4
			c0,0.3-0.1,0.5-0.2,0.8c-0.1,0.3-0.3,0.5-0.5,0.8c-0.2,0.2-0.4,0.4-0.6,0.6c-0.2,0.2-0.4,0.4-0.6,0.6c-0.1,0.2-0.2,0.4-0.4,0.6
			c-0.1,0.2-0.3,0.3-0.5,0.3c-0.1,0-0.2,0-0.3-0.1s-0.1-0.1-0.1-0.2C594.6,653.8,594.9,653.1,595.5,652.2z M589.1,660.4
			c0,0,0-0.1,0-0.1c-0.1-0.1-0.1-0.2-0.2-0.4c0.1,0.1,0.1,0.2,0.2,0.3c0.1,0.1,0.1,0.3,0.2,0.4c0.1,0.3,0.2,0.5,0.3,0.7
			C589.4,661.1,589.3,660.7,589.1,660.4z"/>
		<path d="M651.4,661.7c-0.1-0.3-0.3-0.6-0.4-1c-0.1-0.2-0.2-0.4-0.2-0.6c-0.1-0.3-0.3-0.6-0.4-1c-0.1,0.1-0.2,0.1-0.3,0.2
			s-0.2,0.1-0.3,0.1c-0.4,0-0.9-0.4-1.4-1.1c-0.6-0.7-1.2-1.8-1.9-3.2c-0.1-0.2-0.3-0.5-0.6-0.8c-0.3-0.3-0.6-0.6-1-1
			c-0.1-0.1-0.2-0.1-0.3-0.2c-0.1-0.1-0.2-0.1-0.3-0.1c-0.5,0-1,0.1-1.5,0.3s-1,0.5-1.5,0.9c-0.5,0.4-0.9,0.7-1.4,1.1
			s-0.8,0.7-1.2,1c-0.3,0.4-0.5,0.7-0.7,0.9c-0.2,0.2-0.4,0.4-0.5,0.5c-0.2-0.1-0.3-0.2-0.3-0.4c0-0.1,0-0.2,0-0.4
			c0-0.1,0.1-0.3,0.1-0.5c0.1-0.3,0.3-0.7,0.4-1c0.2-0.6,0.4-1.3,0.5-1.9c0.2-1,0.2-2.1,0.2-3.2c0-0.3,0-0.5,0-0.7
			c-0.1-0.4-0.2-0.8-0.3-1c-0.2-0.4-0.6-0.6-1.2-0.6c-0.5,0-1.1,0.3-2,0.9c-0.8,0.6-1.8,1.5-2.8,2.7c-1.3,1.4-2.3,2.5-3.1,3.3
			s-1.3,1.2-1.6,1.4c-0.1,0-0.2,0-0.3-0.1c-0.1-0.1-0.1-0.2-0.1-0.3c0.1-0.5,0.2-0.9,0.4-1.4c0-0.1,0-0.2,0.1-0.3
			c0.1-0.5,0.2-1,0.3-1.5c0.1-0.6,0.1-1.1,0.1-1.6c0-0.3,0-0.5-0.1-0.7c-0.1-0.2-0.1-0.5-0.3-0.6c-0.2-0.3-0.6-0.5-1.1-0.5
			c-0.8,0.3-1.5,0.6-2.1,0.9c-0.7,0.7-1.2,1.3-1.7,1.8c-0.5,0.5-0.9,0.9-1.2,1.3c-0.7,0.6-1.4,1.3-2.1,2.1c-0.8,0.8-1.5,1.7-2.3,2.7
			c-0.1,0.2-0.2,0.3-0.3,0.4c-0.1,0.1-0.1,0.2-0.2,0.3c-0.1,0.2-0.3,0.4-0.4,0.5c0.3,0.6,0.5,1.1,0.7,1.5c0.2,0.4,0.3,0.7,0.4,1
			c0.1-0.1,0.2-0.3,0.3-0.4c0.1-0.1,0.2-0.3,0.2-0.4c0.5-0.5,1-0.9,1.3-1.3c0.4-0.4,0.7-0.7,0.9-1c0.4-0.5,0.7-0.9,1-1.2
			c0.3-0.2,0.6-0.4,0.8-0.4c0.1,0,0.1,0,0.2,0c0,0,0.1,0,0.1,0.1c0.1,0.1,0.1,0.2,0.1,0.3c0,0.8-0.3,2.1-1,4
			c-0.3,0.9-0.5,1.6-0.7,2.2c-0.2,0.7-0.3,1.2-0.3,1.5c0,0.3,0.1,0.4,0.4,0.6c0.3,0.1,0.7,0.2,1.2,0.2c0.2,0,0.6-0.3,1.2-0.9
			c0.6-0.6,1.5-1.5,2.6-2.8c0.7-0.8,1.4-1.5,2-2.3c0.7-0.8,1.3-1.5,1.9-2.2c0.6-0.4,1-0.8,1.3-1c0.3-0.2,0.5-0.5,0.7-0.7
			c0.2-0.2,0.4-0.3,0.5-0.4c0.2-0.1,0.3-0.1,0.4-0.1c0.1,0,0.2,0,0.3,0.1c0,0,0,0,0.1,0c0.1,0.1,0.2,0.3,0.2,0.5
			c-0.2,1.1-0.3,2.1-0.4,2.7c-0.1,0.7-0.2,1.1-0.2,1.4c0,0.2-0.1,0.5-0.2,0.9s-0.3,1.1-0.6,1.8c-0.2,0.5-0.3,1-0.4,1.4
			c0,0.1,0,0.1,0,0.2c-0.1,0.4-0.2,0.8-0.2,1.1c0,0.2,0,0.4,0.1,0.6c0.1,0.2,0.2,0.3,0.3,0.3c0.5,0.1,0.8,0.1,1.1,0.1
			c0.5,0,1.9-1.4,4.1-4.2c2.2-2.8,3.7-4.2,4.7-4.2c0.7,0,1.7,0.8,3,2.4c1.1,1.4,2.3,2.2,3.4,2.4c0.1,0,0.2,0,0.3,0
			c0.1,0,0.2,0,0.2,0c0.4,0,0.8-0.1,1.3-0.4c0.2-0.1,0.4-0.2,0.5-0.3C650.6,662.3,650.9,662,651.4,661.7z"/>
		<path d="M699.1,645.1c0.2,0,0.4,0,0.6,0c0.1,0,0.1,0,0.2,0c0.3,0,0.6,0.1,0.9,0.1c0.1,0,0.3,0,0.6-0.1c0.3-0.1,0.6-0.3,1-0.6
			c0.4-0.2,0.7-0.5,1-0.8c0,0,0.1-0.1,0.1-0.1c0.2-0.3,0.4-0.6,0.6-0.9c0.1-0.2,0.2-0.5,0.3-0.9c0.1-0.4,0.3-0.9,0.5-1.6
			c0.1-0.3,0.2-0.8,0.3-1.3c0-0.3-0.1-0.5-0.3-0.7c0,0,0,0,0-0.1c-0.2-0.2-0.5-0.3-1-0.3c-0.4,0-0.7,0-1,0.1s-0.5,0.2-0.7,0.3
			c-0.4,0.5-0.8,0.9-1.1,1.3c-0.5,0.1-1.1,0.5-1.7,1.3c-0.4,0.5-0.7,0.9-0.8,1.3c-0.1,0.3-0.2,0.5-0.2,0.7c0,0.2,0,0.5,0,0.7
			c0,0.3,0.1,0.6,0.2,0.8C698.7,644.7,698.9,645,699.1,645.1z"/>
		<path d="M749,659.2c-1.3,1.6-2.4,2.8-3.1,3.6s-1.3,1.3-1.6,1.5c-0.2-0.2-0.4-0.4-0.6-0.5s-0.3-0.4-0.5-0.5
			c-0.5-0.7-0.9-1.3-1.2-1.7c-0.3-0.4-0.5-0.7-0.6-0.9c-0.2-0.4-0.3-0.8-0.4-1.3c-0.1-0.5-0.1-1.1-0.1-1.8c0-0.1,0.1-0.3,0.1-0.4
			c0.1-0.3,0.2-0.6,0.2-0.9c0.3-0.4,0.7-0.7,1-1c0.3-0.3,0.6-0.6,0.9-0.8c0.6-0.7,1.2-1.4,1.8-2c0.6-0.7,1.2-1.3,1.8-2
			c0.9-1.1,1.6-1.9,2-2.6c0.4-0.7,0.7-1.2,0.7-1.5c0-0.6-0.1-1-0.2-1.4c-0.1-0.2-0.1-0.4-0.2-0.6c-0.2-0.4-0.6-0.7-1.1-0.7
			c0,0,0,0-0.1,0c0,0-0.1,0-0.1,0c-0.7,0-1.4,0.2-2,0.6c-0.7,0.4-1.3,1-1.8,1.8c-1.1,1.2-2.1,2.4-3.1,3.5c-0.7,0.8-1.3,1.5-1.7,2.1
			c-0.4,0.6-0.7,1.2-0.8,1.7c-0.3,0.5-0.5,0.9-0.7,1.3c-0.2,0.4-0.4,0.7-0.5,1c-0.4,0.5-0.7,0.9-1,1.3c-0.3,0.3-0.6,0.6-0.8,0.8
			c-0.2,0.3-0.4,0.5-0.6,0.7c0,0,0,0,0,0c0,0-0.1,0.1-0.1,0.1c-0.2,0.3-0.3,0.5-0.5,0.6c0,0,0,0,0,0c-0.2,0.2-0.3,0.3-0.5,0.4
			c-0.2,0.1-0.4,0.1-0.6,0.1c-0.3,0-0.6-0.1-0.8-0.4s-0.5-0.7-0.7-1.2c-0.3-1-0.7-2-1-3.1c-0.3-0.6-0.7-1-1.1-1.3
			c-0.4-0.3-0.9-0.4-1.5-0.4c-0.3,0-0.6,0.1-1,0.2s-0.8,0.3-1.3,0.6c-0.4,0.3-0.8,0.5-1.1,0.8s-0.6,0.5-0.8,0.7
			c-0.2,0.2-0.3,0.4-0.4,0.5c-0.1,0.2-0.2,0.3-0.3,0.4c-0.3,0.3-0.6,0.5-0.9,0.8c-0.3,0.3-0.5,0.6-0.6,0.9c-0.4,0.4-0.8,0.7-1.1,1
			c-0.3,0.3-0.5,0.6-0.7,0.9c-0.1,0.1-0.2,0.2-0.3,0.3c-0.1,0.1-0.2,0.2-0.3,0.2c-0.1-0.2-0.2-0.3-0.2-0.4c0-0.1,0-0.2,0.1-0.4
			c0-0.2,0.1-0.4,0.2-0.6c0.1-0.3,0.3-0.7,0.5-1c0-0.1,0-0.1,0-0.1c0.6-1.9,1.1-3.4,1.4-4.5c0.3-1.2,0.5-2,0.5-2.4
			c0-0.4,0-0.7-0.1-1.1c-0.1-0.3-0.2-0.5-0.3-0.7c-0.3-0.4-0.8-0.6-1.4-0.6s-1.3,0.1-1.8,0.4c-0.6,0.3-1.1,0.7-1.6,1.3
			c-0.6,0.7-1.1,1.2-1.5,1.7c-0.4,0.5-0.8,0.9-1.1,1.2c-0.7,0.8-1.2,1.4-1.7,1.9c-0.5,0.5-0.9,1-1.2,1.3c-0.4,0.4-0.7,0.7-1,0.9
			c-0.3,0.3-0.5,0.5-0.7,0.6c-0.1,0.1-0.1,0.1-0.1,0.2c0,0,0,0,0,0c-0.1,0.1-0.2,0.3-0.3,0.4c-0.1,0.2-0.2,0.3-0.3,0.4c0,0,0,0,0,0
			c-0.3,0.2-0.6,0.5-0.9,0.7c-0.3,0.2-0.6,0.5-0.9,0.7c-0.4,0.3-0.7,0.5-1.1,0.6c-0.3,0.1-0.7,0.2-1,0.2c-0.3,0-0.5,0-0.7-0.1
			s-0.3-0.2-0.4-0.4c-0.1-0.1-0.2-0.5-0.4-1.3c-0.2-0.7-0.3-1.3-0.5-1.6c-0.1-0.6-0.2-1.2-0.3-1.7s-0.2-1.1-0.4-1.7
			c-0.1-0.6-0.4-1.1-0.9-1.4c-0.4-0.3-1-0.5-1.6-0.5c-0.2,0-0.5,0.1-0.7,0.2c-0.2,0.1-0.4,0.3-0.6,0.6c-0.5,0.7-1.3,1.5-2.5,2.6
			c-1,0.9-1.8,1.6-2.3,2.2c0,0,0,0,0,0c-0.1,0.1-0.2,0.3-0.3,0.4l-0.1,0.3l-0.2,0.2c0,0,0,0,0,0c-0.3,0.2-0.5,0.4-0.7,0.6
			c-0.2,0.2-0.5,0.4-0.7,0.6c-0.3,0.3-0.6,0.4-0.8,0.6c-0.2,0.1-0.4,0.2-0.6,0.2c-0.5,0-1.2-0.5-2.1-1.5c-0.8-1-1.2-1.7-1.2-2.2
			c0-0.3,0.1-0.6,0.3-1.1c0.4-0.8,1-1.8,2-3.1c1.6-2.1,2.3-3.9,2.3-5.3c0-0.4-0.1-0.7-0.1-0.9c0-0.1-0.1-0.2-0.1-0.3
			c-0.2-0.3-0.5-0.4-0.9-0.4c-0.2,0-0.5,0.2-0.8,0.7c-0.4,0.5-0.8,1.2-1.4,2.2c-1,1.8-1.8,3.2-2.3,4.1c-0.6,0.9-1,1.4-1.1,1.5
			c-1.1,0.3-1.9,0.6-2.3,1.1c-0.4,0.5-0.7,1.3-0.8,2.5l-0.1,0.8c-0.4,0.8-0.7,1.5-1.1,2.2s-0.7,1.3-1.1,1.8
			c-0.1,0.2-0.2,0.4-0.3,0.5s-0.3,0.2-0.5,0.2c-0.1,0-0.2,0-0.2-0.1c0-0.1-0.1-0.1-0.1-0.3c0-0.2,0.1-0.5,0.2-1.1
			c0-0.2,0.1-0.4,0.2-0.6c0.1-0.5,0.3-1,0.5-1.7c0.3-1,0.6-2,0.9-3c0.3-1,0.6-2,0.9-3c0.4-1.3,0.8-2.4,1.1-3.4
			c0.4-1,0.7-1.8,1.1-2.5c0.9-1.7,1.6-3.2,2.2-4.5c0.5-1.2,1-2.3,1.3-3.2c0.8-2.1,1.2-3.8,1.2-5c0-0.4,0-0.7-0.1-1
			c-0.1-0.6-0.2-1.1-0.5-1.4c-0.4-0.6-0.9-0.8-1.6-0.8c-0.1,0-0.3,0-0.4,0.1c-0.1,0.1-0.2,0.2-0.3,0.4c-0.4,0.7-0.7,1.3-1.1,2.1
			c-0.3,0.7-0.6,1.5-0.9,2.4c-0.1,0.3-0.2,0.5-0.3,0.7c-0.1,0.2-0.2,0.4-0.3,0.5c-0.2,0.3-0.5,0.9-0.8,1.8c-0.4,0.9-0.8,2-1.3,3.3
			c0,0.1-0.1,0.2-0.1,0.3c-0.5,1.3-0.9,2.4-1.2,3.2c-0.3,0.9-0.5,1.6-0.7,2c-0.4,0.4-0.8,1-1.2,1.8c-0.4,0.8-0.9,1.8-1.4,2.9
			c-0.4,0.8-0.8,1.5-1.2,2.2c-0.4,0.6-0.9,1.1-1.4,1.6c-0.3,0.3-0.5,0.5-0.7,0.7c-0.1,0.2-0.3,0.3-0.4,0.4c0,0,0,0,0,0
			c0,0-0.1,0.1-0.1,0.1c-0.1,0.2-0.2,0.4-0.2,0.5c-0.1,0.1-0.1,0.2-0.2,0.2c0,0,0,0,0,0c-0.1,0.1-0.2,0.2-0.4,0.3
			c-0.1,0.1-0.2,0.2-0.3,0.2c-0.1,0.1-0.2,0.3-0.4,0.4c-0.1,0.1-0.2,0.3-0.4,0.5c-0.2,0.1-0.3,0.3-0.5,0.4c-0.2,0.1-0.3,0.1-0.5,0.1
			c-0.5,0-1-0.2-1.3-0.7c-0.3-0.5-0.5-1-0.5-1.6c0-0.5,0-1,0-1.5c0-0.4,0-0.7,0-1.1c0-0.1,0-0.2,0-0.2c-0.1-0.5-0.1-0.8-0.3-1.1
			c-0.2-0.3-0.5-0.4-0.9-0.4c-0.6,0-1.3,0.2-2,0.7c-0.7,0.5-1.5,1.2-2.3,2.2c-0.2,0.1-0.3,0.2-0.4,0.3c-0.1,0.1-0.3,0.1-0.4,0.2
			c-0.2,0.1-0.4,0.3-0.8,0.7c-0.4,0.4-0.9,0.8-1.5,1.4c-0.5,0.5-1,0.9-1.4,1.2c-0.4,0.3-0.9,0.5-1.2,0.7l-0.2-0.2
			c0.5-0.7,0.9-1.3,1.3-1.8c0.3-0.5,0.6-0.7,0.7-0.9c1-0.9,1.8-1.6,2.4-2.3c0.1-0.1,0.2-0.2,0.3-0.3c0.4-0.5,0.7-0.9,0.9-1.2
			c0.4-0.3,0.8-0.6,1-0.8c0.3-0.2,0.4-0.4,0.5-0.5c0.1-0.2,0.3-0.4,0.5-0.6c0.6-0.4,1-0.8,1.5-1.3s0.8-0.8,1.1-1.2
			c0.5-0.4,1-0.8,1.5-1.1c0.3-0.2,0.5-0.4,0.6-0.7c0.1-0.3,0.2-0.6,0.2-1c0-0.3-0.1-0.6-0.3-0.8c0,0,0,0,0,0c-0.2-0.2-0.6-0.3-1-0.3
			c-0.8,0-1.9,0.4-3.1,1.2s-2.7,1.9-4.3,3.5c-0.4,0.3-0.7,0.6-1,0.8s-0.6,0.4-0.8,0.5c-0.4,0.4-0.8,0.7-1,0.9
			c-0.3,0.3-0.5,0.5-0.6,0.7c-0.3,0.1-0.5,0.3-0.7,0.4s-0.4,0.4-0.5,0.6c-0.2,0.3-0.3,0.5-0.4,0.7c-0.1,0.2-0.2,0.3-0.3,0.4
			l-2.5,1.6c-0.1,0.2-0.2,0.3-0.3,0.4c0,0,0,0,0,0c-0.1,0.1-0.1,0.2-0.2,0.3c-0.1,0.2-0.2,0.3-0.3,0.4c0.1,0.3,0.3,0.6,0.4,0.9
			c0,0,0,0.1,0,0.1c0.1,0.2,0.1,0.3,0.2,0.5c0.1,0.1,0.1,0.3,0.2,0.4c0.1,0.1,0.1,0.2,0.2,0.3c0,0.1,0.1,0.2,0.1,0.3
			c0,0.1,0,0.3-0.1,0.6c-0.4,0.4-0.7,0.8-0.9,1.3c-0.1,0.2-0.1,0.3-0.2,0.5c-0.1,0.3-0.1,0.6-0.1,0.9c0,0.9,0.2,1.5,0.6,2
			c0.3,0.3,0.7,0.5,1.3,0.6c0.2,0,0.4,0.1,0.7,0.1c0.1,0,0.3-0.1,0.6-0.2s0.6-0.3,1-0.5c0.6-0.3,1.1-0.6,1.6-0.9
			c0.5-0.3,0.9-0.6,1.3-0.9c0.2-0.2,0.5-0.5,0.9-0.9s1-0.9,1.6-1.6c0.5-0.4,0.9-0.7,1.2-1s0.6-0.5,0.9-0.7c0.1-0.2,0.3-0.3,0.4-0.4
			c0.1-0.1,0.2-0.2,0.3-0.3c0.1,0.2,0.2,0.4,0.3,0.5s0.1,0.3,0.1,0.5c0.1,1.4,0.5,2.4,1.1,3c0.5,0.5,1.1,0.8,1.8,0.9
			c0.3,0,0.6,0.1,0.9,0.1c0.5,0,1-0.1,1.5-0.3c0.5-0.2,1-0.5,1.6-0.9c0.5-0.4,0.9-0.7,1.3-1.2c0.4-0.4,0.8-0.8,1.2-1.2
			c0.3-0.4,0.5-0.7,0.6-0.8c0.1-0.1,0.2-0.2,0.2-0.3c0.5-0.6,0.9-1.1,1.3-1.5c0.3-0.4,0.6-0.7,0.8-0.9c0,0,0.1-0.1,0.1-0.1l0.2,0.3
			c0,0.3,0,0.6-0.1,1c-0.1,0.4-0.2,0.8-0.3,1.3c-0.3,1.1-0.6,2.1-0.7,3.1c-0.1,0.5-0.1,1-0.2,1.5c0,0.4-0.1,0.9-0.1,1.3
			c0,0.8,0.2,1.5,0.5,1.9c0.4,0.4,0.9,0.6,1.6,0.6c0.1,0,0.2,0,0.3,0c0.3-0.1,0.6-0.2,0.8-0.5c0.3-0.3,0.6-0.7,0.9-1
			c0.3-0.2,0.5-0.4,0.7-0.6s0.3-0.3,0.4-0.5c0.3-0.4,0.6-0.8,1-1.2s0.6-0.8,1-1.2c0.5-0.6,1.1-1.2,1.8-1.8c0.1,0,0.8,0.6,2.1,1.7
			c1.3,1.1,2.2,1.7,2.8,1.7c0.5,0,1-0.1,1.6-0.4s1-0.6,1.6-1.1c0.5-0.4,0.9-0.8,1.3-1.2s0.9-0.8,1.3-1.2l0,0
			c0.7-0.8,1.3-1.3,1.8-1.7c0.5-0.4,0.9-0.6,1.2-0.6c0.1,0,0.2,0.1,0.4,0.3c0.2,0.2,0.4,0.5,0.6,0.9c0.2,0.3,0.3,0.5,0.5,0.7
			s0.3,0.4,0.3,0.5c0.6,1.7,1.1,2.8,1.6,3.2c0.4,0.3,1.1,0.5,2.1,0.5c0,0,0,0,0,0c0.3,0,0.7,0,1.1,0c0.3,0,0.7-0.1,1.2-0.4
			c0.5-0.3,1.2-0.7,1.9-1.2c0.7-0.5,1.2-0.9,1.7-1.3c0.5-0.4,0.9-0.7,1.2-1l0,0c0.2-0.2,0.3-0.3,0.3-0.5c0.1-0.1,0.1-0.3,0.2-0.3
			c0.3-0.3,0.6-0.6,0.8-0.8c0.2-0.2,0.5-0.4,0.6-0.5c0.1-0.1,0.3-0.2,0.6-0.5c0.3-0.3,0.7-0.7,1.2-1.3c0.4-0.5,0.8-0.8,1.1-1
			c0.3-0.2,0.5-0.3,0.7-0.3c0,0,0.1,0,0.1,0c0.1,0,0.2,0,0.3,0.1c0.1,0.1,0.1,0.2,0.1,0.3c0,0.1,0,0.3-0.1,0.4
			c0,0.2-0.1,0.4-0.2,0.6c-0.1,0.3-0.2,0.5-0.2,0.6c-0.1,0.2-0.1,0.3-0.1,0.4c-0.4,1.5-0.8,2.8-1.2,4c-0.3,0.9-0.5,1.7-0.7,2.3
			c-0.1,0.2-0.1,0.3-0.2,0.5c0.1,0.5,0.1,1,0.2,1.5c0.1,0.5,0.5,0.7,1.2,0.7c0.2,0,0.4,0,0.5,0c0.2,0,0.3,0,0.5-0.1
			c0.3-0.1,0.6-0.2,0.8-0.4c0.2-0.2,0.5-0.4,0.7-0.7c0.2-0.2,0.5-0.5,0.7-0.7c0.9-0.9,1.7-1.8,2.3-2.4c0.6-0.7,1-1.2,1.3-1.7
			c0.1-0.2,0.4-0.4,0.7-0.6c0.4-0.2,0.9-0.6,1.8-1.4c0.4-0.3,0.7-0.6,1.1-0.8s0.7-0.4,1-0.5l0.2,0.1c0.4,0.5,0.7,1,1,1.4
			c0.3,0.4,0.6,0.7,0.8,0.9c0.3,0.6,0.5,1.1,0.8,1.5s0.4,0.7,0.5,0.8c0.3,0.4,0.6,0.6,1,0.8s0.8,0.3,1.2,0.3c0.4,0,0.7-0.1,1.1-0.2
			c0.4-0.2,0.8-0.4,1.2-0.8c0.3-0.3,0.6-0.5,0.9-0.8c0.3-0.3,0.6-0.5,0.9-0.8l0,0c0.4-0.4,0.8-0.8,1.2-1.2c0.1,0.2,0.2,0.4,0.2,0.5
			c0.1,0.8,0.4,1.7,0.8,2.5c0.4,0.8,0.9,1.6,1.6,2.4c0.4,0.5,0.8,1.1,1.3,1.7c0.2,0.3,0.4,0.5,0.6,0.8c0,0.2-0.1,0.5-0.3,0.8
			c-0.2,0.3-0.5,0.6-0.8,1c-0.5,0.5-1,1-1.5,1.7c-0.2,0.4-0.5,0.7-0.7,1.1c-0.3,0.4-0.5,0.7-0.8,1.1c-0.3,0.5-0.5,0.9-0.7,1.3
			c-0.2,0.4-0.4,0.8-0.5,1.1c-0.2,0.5-0.4,1-0.5,1.3c-0.1,0.2-0.1,0.3-0.1,0.4c0,0.1,0,0.2,0,0.2c0,1.1,0,2.1,0.1,2.7
			c0.1,0.7,0.1,1.1,0.2,1.4c0.2,0.5,0.6,0.9,1.2,1.1c0.4,0.2,0.9,0.3,1.6,0.3c0.2,0,0.5,0,0.7,0c2.1,0,4.3-1,6.6-3.1
			s3.6-4.2,3.8-6.2c0-0.3,0-0.5,0.1-0.7c0-0.2,0-0.3,0.1-0.4c0-0.3-0.1-0.6-0.1-0.9c-0.2-0.9-0.4-1.7-0.6-2.3
			c-0.3-0.9-0.7-1.6-1.2-2.1c-0.3-0.3-0.5-0.6-0.6-0.8c-0.2-0.2-0.3-0.4-0.3-0.6c0.2-0.3,0.4-0.6,0.6-0.9c0.4-0.5,0.8-1.1,1.1-1.5
			c0.5-0.7,0.9-1.3,1.3-1.7c0.4-0.4,0.6-0.7,0.7-0.9l-0.5-1.3L749,659.2z M692.7,659.4c0.1,0.1,0.1,0.2,0.1,0.3
			c0.1,0.2,0.1,0.4,0.2,0.6L692.7,659.4C692.7,659.4,692.7,659.4,692.7,659.4z M671.3,659.4c0.1,0.1,0.1,0.2,0.1,0.3
			c0,0.1,0.1,0.2,0.1,0.4C671.5,659.8,671.4,659.6,671.3,659.4C671.3,659.4,671.3,659.4,671.3,659.4z M708.5,660.3l-0.2-0.4
			C708.4,660,708.5,660.1,708.5,660.3c0.1,0.1,0.2,0.3,0.2,0.4c0.1,0.3,0.2,0.5,0.3,0.7L708.5,660.3z M734.5,660.2l-0.2-0.4
			C734.3,660,734.4,660.1,734.5,660.2c0.1,0.2,0.2,0.3,0.2,0.5c0.1,0.3,0.2,0.5,0.3,0.8L734.5,660.2z M737.5,678.8
			c0-0.1,0-0.1,0.1-0.2c0.3-0.7,0.5-1.2,0.6-1.4c0.4-0.6,0.8-1.2,1.2-1.8c0.4-0.6,0.8-1.2,1.1-1.8c0.7-1,1.2-1.7,1.6-2.3
			c0.4-0.5,0.6-0.8,0.7-0.8c0.2,0,0.5,0.1,0.7,0.4c0.2,0.3,0.4,0.6,0.7,1.2c0.2,0.5,0.3,0.9,0.4,1.3c0,0,0,0.1,0,0.1
			c0.1,0.3,0.1,0.7,0.1,0.9c0,1.4-0.7,2.8-2.2,4.4c-1.5,1.5-2.9,2.3-4.3,2.3c-0.4,0-0.7-0.1-0.9-0.2c-0.2-0.2-0.3-0.4-0.3-0.8
			C737.2,679.9,737.3,679.5,737.5,678.8z"/>
		<path d="M843.1,645.1c0.2,0,0.4,0,0.6,0c0.1,0,0.1,0,0.2,0c0.3,0,0.6,0.1,0.9,0.1c0.1,0,0.3,0,0.6-0.1c0.3-0.1,0.6-0.3,1-0.6
			c0.4-0.2,0.7-0.5,1-0.8c0.3-0.3,0.5-0.6,0.7-1c0.1-0.2,0.2-0.5,0.3-0.9c0.1-0.4,0.3-0.9,0.5-1.6c0.1-0.3,0.2-0.8,0.3-1.3
			c0-0.3-0.1-0.5-0.3-0.7c0,0,0,0,0-0.1c-0.2-0.2-0.5-0.3-1-0.3c-0.4,0-0.7,0-1,0.1s-0.5,0.2-0.7,0.3c-0.4,0.5-0.8,0.9-1.1,1.3
			c-0.5,0.1-1.1,0.5-1.7,1.3c-0.4,0.5-0.7,0.9-0.8,1.3c-0.1,0.3-0.2,0.5-0.2,0.7c0,0.6,0.1,1.1,0.2,1.5S842.9,645,843.1,645.1z"/>
		<path d="M869.2,659.2c-0.5,0.4-0.8,0.8-1.2,1.1c-0.3,0.3-0.6,0.6-0.7,0.8c-0.1,0.1-0.3,0.2-0.4,0.3s-0.2,0.1-0.3,0.2
			c-0.6,0.4-1.3,0.8-1.9,1.2s-1.3,0.8-1.9,1.1c-0.5,0.2-1,0.3-1.5,0.4c-0.4,0.1-0.8,0.2-1.1,0.3c-0.5-0.1-0.9-0.3-1.2-0.4
			c-0.3-0.1-0.6-0.3-0.7-0.4c-0.3-0.2-0.4-0.4-0.6-0.7c-0.1-0.3-0.2-0.7-0.2-1.1c0-0.4,0-0.8,0.1-1.2c0-0.1,0-0.2,0-0.2
			c0.1-0.4,0.2-0.8,0.4-1.1c0.1-0.2,0.4-0.4,0.7-0.7c0.3-0.3,0.7-0.6,1.2-1c1.1-0.8,1.9-1.5,2.5-2s1-0.8,1.2-1
			c0.4-0.2,0.8-0.4,1.2-0.6c0.4-0.2,0.8-0.4,1.2-0.6c0.6-0.3,1-0.7,1.3-1.1c0.3-0.4,0.4-0.9,0.4-1.4v-1.5c0-0.1,0-0.1-0.1-0.2
			c0-0.1-0.1-0.3-0.2-0.4c-0.2-0.1-0.4-0.2-0.6-0.2c-0.7,0-1.5,0.3-2.5,0.8c-1,0.5-1.7,1-2.1,1.5c-0.5,0.2-1.1,0.5-1.7,0.9
			c-0.6,0.4-1.2,0.9-1.8,1.4c-1.1,0.9-2.2,1.8-3.3,2.8c-0.3,0.2-0.6,0.4-0.9,0.6c-0.3,0.2-0.6,0.4-0.9,0.6c-0.4,0.4-0.8,0.7-1,0.9
			c0,0,0,0.1-0.1,0.1c0,0,0,0,0,0c-0.2,0.2-0.3,0.4-0.3,0.6l-0.2,0.2c0,0,0,0,0,0c-0.3,0.2-0.6,0.5-0.9,0.7
			c-0.3,0.2-0.6,0.5-0.9,0.7c-0.4,0.3-0.7,0.5-1.1,0.6c-0.3,0.1-0.7,0.2-1,0.2c-0.3,0-0.5,0-0.7-0.1s-0.3-0.2-0.4-0.4
			c-0.1-0.1-0.2-0.5-0.4-1.3c-0.2-0.7-0.3-1.3-0.5-1.6c-0.1-0.6-0.2-1.2-0.3-1.7s-0.2-1.1-0.4-1.7c-0.1-0.6-0.4-1.1-0.9-1.4
			c-0.4-0.3-1-0.5-1.6-0.5c-0.2,0-0.5,0.1-0.7,0.2c-0.2,0.1-0.4,0.3-0.6,0.6c-0.5,0.7-1.3,1.5-2.5,2.6c-1,0.9-1.8,1.6-2.3,2.2
			c0,0,0,0,0,0c-0.1,0.1-0.2,0.3-0.3,0.4l-0.1,0.3l-0.2,0.2c0,0,0,0,0,0c-0.1,0.1-0.3,0.2-0.7,0.5c-0.4,0.3-0.9,0.8-1.5,1.3
			c-0.5,0.5-1,0.9-1.3,1.1c-0.3,0.2-0.6,0.4-0.7,0.4c-0.1-0.1-0.2-0.1-0.3-0.2c0.2-0.7,0.4-1.3,0.6-1.8c0,0,0,0,0-0.1
			c0.1-0.5,0.3-0.9,0.4-1.2c0.7-2.1,1-3.3,1.1-3.7c0.1-0.4,0.3-1.5,0.5-3.3c0.1-0.6,0.1-1.2,0.2-1.6s0.1-0.7,0.1-0.9
			c0-0.3,0-0.6-0.1-0.9c-0.1-0.3-0.3-0.6-0.5-0.8c-0.4-0.4-1-0.6-1.8-0.6c-0.2,0-0.4,0-0.6,0.1s-0.4,0.1-0.7,0.3
			c-0.7,0.6-1.3,1.2-1.9,1.8c-0.6,0.6-1.1,1.1-1.5,1.6c-0.4,0.4-0.7,0.7-1,1c-0.3,0.3-0.6,0.5-0.8,0.6c-0.1,0.3-0.3,0.5-0.4,0.7
			s-0.3,0.3-0.4,0.4c-0.4,0.4-0.7,0.7-1,0.9c-0.3,0.3-0.5,0.5-0.7,0.6c-0.1,0.1-0.2,0.3-0.3,0.5c-0.1,0.1-0.3,0.3-0.6,0.5
			c-0.3,0.2-0.8,0.5-1.4,0.9c-0.5,0.3-0.8,0.6-1,0.9c0,0-0.1,0.1-0.1,0.1c0,0,0,0,0,0c-0.2,0.2-0.3,0.4-0.3,0.6l-0.2,0.2l0,0
			c-0.2,0.1-0.4,0.1-0.6,0.2c-0.2,0.1-0.4,0.1-0.5,0.1c-0.5,0-0.8-0.2-1.1-0.5c-0.2-0.3-0.4-0.8-0.4-1.5c0-0.2,0-0.5-0.1-0.8
			c-0.1-0.4-0.1-0.7-0.1-0.9c0-0.5,0-0.9-0.1-1.2s-0.1-0.5-0.1-0.7c-0.1-0.2-0.3-0.4-0.6-0.5c-0.3-0.1-0.7-0.2-1.1-0.2
			c-0.5,0-1,0.2-1.4,0.6s-0.8,1.1-1.2,1.9c-0.1,0.2-0.3,0.4-0.5,0.6c-0.2,0.2-0.3,0.4-0.4,0.5c-0.3,0.5-0.7,1-1,1.5
			c-0.6,0.7-1.1,1.3-1.5,1.8c-0.4,0.5-0.8,0.9-1.1,1.3c-0.4,0.2-0.7,0.4-0.9,0.5c-0.3,0.2-0.5,0.3-0.7,0.4c-0.2,0.1-0.3-0.2-0.4-0.7
			c-0.1-0.5-0.1-1.2-0.1-2.3c0-0.2,0-0.5,0-0.8c0-0.3,0.1-0.7,0.1-1c0.1-0.7,0.2-1.4,0.4-2.1c0.2-0.6,0.4-1.2,0.6-1.9
			s0.4-1.3,0.5-1.9c0.2-0.4,0.3-0.8,0.4-1.1c0.1-0.2,0.1-0.5,0.2-0.7c0.1-0.2,0.1-0.4,0.1-0.5c0-0.3-0.1-0.6-0.2-0.7
			c0,0-0.1,0-0.1-0.1c-0.1-0.1-0.3-0.2-0.5-0.2c-0.1,0-0.4,0.1-0.8,0.2c-0.4,0.1-1,0.4-1.7,0.7c-0.4,0.6-0.8,1.1-1.2,1.7
			c-0.4,0.6-0.8,1.2-1.2,1.7c-0.5,0.5-0.9,1.1-1.4,1.6c-0.4,0.5-0.8,1.1-1.2,1.6c-0.5,0.6-0.9,1.1-1.3,1.6c-0.3,0.3-0.5,0.5-0.7,0.7
			c0,0,0,0,0,0c-0.1,0.1-0.2,0.2-0.3,0.3c0,0.1,0,0.2-0.1,0.3s-0.1,0.1-0.2,0.2c0,0,0,0,0,0c-0.1,0.1-0.2,0.1-0.2,0.2
			c-0.1,0-0.2,0.1-0.3,0.1c-0.4,0-0.9-0.4-1.4-1.1c-0.6-0.7-1.2-1.8-1.9-3.2c-0.1-0.2-0.3-0.5-0.6-0.8c-0.3-0.3-0.6-0.6-1-1
			c-0.1-0.1-0.2-0.1-0.3-0.2c-0.1-0.1-0.2-0.1-0.3-0.1c-0.5,0-1,0.1-1.5,0.3s-1,0.5-1.5,0.9c-0.5,0.4-0.9,0.7-1.4,1.1
			c-0.4,0.3-0.8,0.7-1.2,1c-0.3,0.4-0.5,0.7-0.7,0.9c-0.2,0.2-0.4,0.4-0.5,0.5c-0.2-0.1-0.3-0.2-0.3-0.4c0-0.1,0-0.2,0-0.4
			c0-0.1,0.1-0.3,0.1-0.5c0.1-0.3,0.3-0.7,0.4-1c0.2-0.6,0.4-1.3,0.5-1.9c0.2-1,0.2-2.1,0.2-3.2c0-0.3,0-0.5,0-0.7
			c-0.1-0.4-0.2-0.8-0.3-1c-0.2-0.4-0.6-0.6-1.2-0.6c-0.5,0-1.1,0.3-2,0.9c-0.8,0.6-1.8,1.5-2.8,2.7c-1.3,1.4-2.3,2.5-3.1,3.3
			s-1.3,1.2-1.6,1.4c-0.1,0-0.2,0-0.3-0.1c-0.1-0.1-0.1-0.2-0.1-0.3c0.1-0.5,0.2-0.9,0.4-1.4c0-0.1,0-0.2,0.1-0.3
			c0.1-0.5,0.2-1,0.3-1.5c0.1-0.6,0.1-1.1,0.1-1.6c0-0.3,0-0.5-0.1-0.7c-0.1-0.3-0.1-0.5-0.3-0.6c-0.2-0.3-0.6-0.5-1.1-0.5
			c-0.8,0.3-1.5,0.6-2.1,0.9c-0.7,0.7-1.2,1.3-1.7,1.8c-0.5,0.5-0.9,0.9-1.2,1.3c-0.7,0.6-1.4,1.3-2.1,2.1s-1.5,1.7-2.3,2.7
			c-0.1,0.2-0.2,0.3-0.3,0.4c-0.1,0.1-0.1,0.2-0.2,0.3c-0.1,0.2-0.3,0.4-0.4,0.5c0.3,0.6,0.5,1.1,0.7,1.5c0.2,0.4,0.3,0.7,0.4,1
			c0.1-0.1,0.2-0.3,0.3-0.4c0.1-0.1,0.2-0.3,0.2-0.4c0.5-0.5,1-0.9,1.3-1.3c0.4-0.4,0.7-0.7,0.9-1c0.4-0.5,0.7-0.9,1-1.2
			c0.3-0.2,0.6-0.4,0.8-0.4c0.1,0,0.1,0,0.2,0c0,0,0.1,0,0.1,0.1c0.1,0.1,0.1,0.2,0.1,0.3c0,0.8-0.3,2.1-1,4
			c-0.3,0.9-0.5,1.6-0.7,2.2c-0.2,0.7-0.3,1.2-0.3,1.5c0,0.3,0.1,0.4,0.4,0.6c0.3,0.1,0.7,0.2,1.2,0.2c0.2,0,0.6-0.3,1.2-0.9
			c0.6-0.6,1.5-1.5,2.6-2.8c0.7-0.8,1.4-1.5,2-2.3c0.7-0.8,1.3-1.5,1.9-2.2c0.6-0.4,1-0.8,1.3-1c0.3-0.2,0.5-0.5,0.7-0.7
			c0.2-0.2,0.4-0.3,0.5-0.4c0.2-0.1,0.3-0.1,0.4-0.1c0.1,0,0.2,0,0.3,0.1c0,0,0,0,0.1,0c0.1,0.1,0.2,0.3,0.2,0.5
			c-0.2,1.1-0.3,2.1-0.4,2.7c-0.1,0.7-0.2,1.1-0.2,1.4c0,0.2-0.1,0.5-0.2,0.9c-0.1,0.5-0.3,1.1-0.6,1.8c-0.2,0.5-0.3,1-0.4,1.4
			c0,0.1,0,0.1,0,0.2c-0.1,0.4-0.2,0.8-0.2,1.1c0,0.2,0,0.4,0.1,0.6c0.1,0.2,0.2,0.3,0.3,0.3c0.5,0.1,0.8,0.1,1.1,0.1
			c0.5,0,1.9-1.4,4.1-4.2c2.2-2.8,3.7-4.2,4.7-4.2c0.7,0,1.7,0.8,3,2.4c1.3,1.6,2.6,2.4,3.9,2.4c0.4,0,0.8-0.1,1.3-0.4
			s1.1-0.6,1.7-1.2c0,0,0,0,0,0c0.2-0.3,0.4-0.5,0.5-0.7c0.1-0.2,0.2-0.3,0.3-0.5l1.5-1.6l0.2-0.1c0.1,0,0.2,0.1,0.3,0.4
			c0.1,0.3,0.1,0.7,0.1,1.2c0,0.1,0,0.4,0,0.9c0.1,0.5,0.2,1.3,0.3,2.2c0.1,1,0.5,1.7,1,2.2c0.4,0.4,0.8,0.6,1.4,0.7
			c0.2,0,0.4,0.1,0.6,0.1c0.6,0,1.2-0.2,1.8-0.5c0.6-0.3,1.3-0.9,1.9-1.6c0.5-0.6,1-1.1,1.5-1.7s1-1.2,1.5-1.7
			c0.2-0.3,0.5-0.5,0.7-0.8c0.2-0.3,0.4-0.5,0.6-0.7c0.2,0.2,0.3,0.4,0.4,0.7s0.2,0.4,0.2,0.7c0.3,0.9,0.7,1.6,1.3,2.1
			c0.4,0.3,0.9,0.6,1.6,0.7c0.2,0,0.4,0,0.7,0c0.3,0,0.9-0.2,1.6-0.5c0.7-0.3,1.6-0.8,2.7-1.5l-0.7-1.6l-0.4-0.9
			c0.2,0.3,0.3,0.6,0.4,0.9c0.1,0.2,0.2,0.4,0.3,0.6c0.2,0.4,0.3,0.7,0.4,1c0.2-0.3,0.3-0.5,0.5-0.7s0.2-0.3,0.3-0.5
			c2.3-2.2,4.1-3.8,5.4-4.9c1.3-1.1,2-1.6,2.3-1.6c0.2,0,0.4,0.1,0.5,0.2c0,0,0.1,0.1,0.1,0.2c0,0.1,0.1,0.2,0.1,0.4
			c0,0.3,0,0.8-0.1,1.4s-0.1,1.3-0.2,2.2c-0.1,1-0.3,1.7-0.4,2.2c-0.1,0.5-0.3,0.7-0.4,0.7c-0.1,0-0.2-0.1-0.4-0.4
			c-0.1-0.3-0.3-0.4-0.6-0.4c-0.5,0-1,0.2-1.4,0.5c-0.2,0.2-0.4,0.4-0.5,0.7c-0.1,0.2-0.1,0.4-0.1,0.7c0,0.1,0.1,0.3,0.2,0.7
			c0,0,0,0.1,0,0.1c0,0,0,0,0,0.1c0,0.1,0,0.2,0,0.4c0,0.2,0,0.3,0,0.5c0,0.8,0.1,1.5,0.2,2.1c0.2,0.6,0.4,1.2,0.7,1.7
			c0,0.3,0,0.5,0.1,0.7c0.1,0.2,0.2,0.3,0.4,0.4c0.3-0.1,0.6-0.2,0.9-0.3c0.3-0.1,0.6-0.2,0.9-0.3c0.2-0.1,0.4-0.2,0.6-0.4
			c0.2-0.2,0.5-0.4,0.7-0.8l0.5-0.1c0.6-0.5,1.1-0.9,1.6-1.3s0.8-0.7,1.1-1c0.6-0.4,1.1-0.7,1.6-1.1s0.9-0.6,1.3-0.9
			c0.2-0.2,0.3-0.4,0.5-0.6c0.2-0.2,0.4-0.3,0.6-0.5c0.7-0.8,1.3-1.4,1.8-1.7s0.9-0.6,1.2-0.6c0.1,0,0.2,0.1,0.4,0.3
			c0.2,0.2,0.4,0.5,0.6,0.9c0.2,0.3,0.3,0.5,0.5,0.7s0.3,0.4,0.3,0.5c0.6,1.7,1.1,2.8,1.6,3.2c0.4,0.3,1.1,0.5,2.1,0.5c0,0,0,0,0,0
			c0.3,0,0.7,0,1.1,0c0.3,0,0.7-0.1,1.2-0.4c0.5-0.3,1.2-0.7,1.9-1.2c0.7-0.5,1.2-0.9,1.7-1.3c0.4-0.3,0.6-0.5,0.9-0.8
			c0.1-0.1,0.2-0.1,0.2-0.2c0,0.1,0,0.3-0.1,0.7c0,0,0,0.1,0,0.1c-0.1,0.3-0.1,0.5-0.1,0.6c0,0.5,0,1,0.1,1.3
			c0.1,0.4,0.2,0.7,0.3,0.9c0.1,0.2,0.3,0.5,0.6,0.7c0.3,0.3,0.6,0.5,1,0.8c0.4,0.3,0.8,0.6,1.4,0.9c0.2,0.1,0.4,0.2,0.7,0.2
			c0.3,0.1,0.6,0.1,0.9,0.1c0.4,0,0.8,0,1.1,0c1.1-0.1,2.1-0.3,3-0.6c1.2-0.5,2.3-1.1,3.2-2c0.2-0.2,0.4-0.4,0.7-0.7
			c0.9-0.4,1.7-0.8,2.4-1.4c0.7-0.6,1.4-1.1,2-1.7c0-0.1-0.2-0.6-0.6-1.5C869.5,659.9,869.4,659.6,869.2,659.2z M797.5,660.2
			C797.4,660.1,797.4,660.1,797.5,660.2C797.4,660.1,797.4,660.1,797.5,660.2c0.1,0.2,0.2,0.4,0.3,0.5c0.2,0.4,0.3,0.7,0.4,1
			C797.9,661.2,797.7,660.7,797.5,660.2z M837.2,660.5c-0.1-0.1-0.1-0.2-0.2-0.4c-0.1-0.3-0.3-0.6-0.4-0.9c0,0,0.1,0.1,0.1,0.2
			c0.1,0.1,0.1,0.2,0.1,0.3c0.1,0.2,0.1,0.3,0.2,0.4C837.1,660.3,837.1,660.4,837.2,660.5C837.2,660.6,837.2,660.6,837.2,660.5z
			 M852.9,661l-0.3-0.8l-0.2-0.6c0.1,0.2,0.2,0.4,0.3,0.5c0,0.1,0.1,0.2,0.1,0.2C852.8,660.7,852.8,660.8,852.9,661
			c0,0.1,0.1,0.1,0.1,0.2L852.9,661z"/>
		<path d="M884.2,628.8c0,0,0-0.1,0-0.2c-0.1-0.2-0.3-0.3-0.5-0.3c-0.3,0-0.6,0.1-1,0.3c-0.4,0.2-0.8,0.4-1.2,0.7
			c-0.3,0.3-0.5,0.5-0.8,0.7s-0.6,0.5-1,0.8c-0.1,0-0.2,0.1-0.3,0.1c-0.1,0-0.2,0.1-0.3,0.1c-0.2,0.1-0.4,0.2-0.6,0.5
			s-0.3,0.6-0.5,1c-0.1,0.3-0.2,0.6-0.3,1c0,0,0,0.1,0,0.1c0,0.2-0.1,0.5,0,0.7c0,0,0,0,0,0l0,1.4c0,0.4-0.1,1-0.3,1.8
			c0,0.1-0.1,0.2-0.1,0.3c-0.2,0.6-0.3,1.1-0.3,1.5l0.1,0.4l0.5,0.3c0.1,0,0.2,0,0.4-0.1c0,0.6,0,1.1,0,1.4c0,0.2,0,0.4,0,0.5
			c0,0.3,0.1,0.5,0.1,0.6c0,0.3-0.1,0.7-0.2,1.1s-0.3,1-0.5,1.6c0.1,0.5,0.1,1,0,1.5c-0.1,0.5-0.2,1-0.4,1.6c0,0.2,0,0.3,0,0.5
			s0,0.3-0.1,0.5c0,0.4,0,0.8,0,0.9c0,0.2,0,0.3,0,0.2c0,0.4,0,0.9,0,1.3c0,0.1,0,0.3-0.1,0.5s-0.1,0.4-0.1,0.6
			c-0.1,0.3-0.2,0.6-0.3,1c0,0.3-0.1,0.6-0.1,0.9c0,0.1,0,0.2,0,0.3c0,0.4,0,0.8,0,1.2c0,0.2,0,0.4,0.1,0.5c0.1,0.4,0.1,0.9,0.2,1.4
			l-0.1,0.3l-0.2,0.8c0,0.1,0,0.3,0,0.6c0,0.3,0,0.4,0,0.5c0.1,0.1,0.2,0.1,0.4,0.2c0.3,0,0.9-0.4,1.8-1.2c0.9-0.8,1.4-1.4,1.4-1.7
			c0.1-1.2,0.2-2.1,0.3-2.8s0.2-1.1,0.2-1.2c0.1-0.1,0.2-0.3,0.2-0.4c0.1-0.1,0.1-0.3,0.1-0.4c0.1-0.4,0.1-0.7,0.1-1
			s0.1-0.5,0.1-0.7c0.4-2.2,0.7-4.1,1-5.8s0.5-3.1,0.7-4.1c0.3-1.6,0.5-3,0.7-4c0.1-1,0.2-1.8,0.2-2.2c0-0.3,0.1-0.6,0.2-1.1
			c0.1-0.4,0.2-0.9,0.4-1.5c0.1-0.6,0.2-1.1,0.3-1.5c0.1-0.4,0.1-0.8,0.1-1.1C884.3,629.3,884.2,629.1,884.2,628.8z"/>
		<path d="M879.1,662.4c-0.3-0.1-0.8-0.2-1.3-0.2c-0.8,0-1.5,0.4-2.3,1.1c-0.5,0.5-0.9,1-1.1,1.4c-0.1,0.2-0.1,0.5-0.1,0.7
			c0,0.8,0.1,1.4,0.3,1.7c0.2,0.3,0.4,0.4,0.6,0.5c0.1,0,0.2,0,0.3,0c0.3,0,0.7-0.1,1.2-0.2c0.5-0.1,0.9-0.2,1.1-0.2
			c0,0,0.1,0,0.1,0c0.2,0,0.4,0,0.5-0.1c0.1,0,0.3-0.1,0.4-0.1c0.2-0.1,0.4-0.3,0.5-0.5c0.1-0.3,0.1-0.5,0.1-0.8
			c0-0.3,0.1-0.5,0.1-0.8l0.3-2.1c0-0.1-0.1-0.2-0.2-0.3C879.4,662.5,879.2,662.5,879.1,662.4z"/>
	</g>
</g>
</svg>
