<?xml version="1.0" encoding="UTF-8" standalone="no"?>
<!DOCTYPE svg PUBLIC "-//W3C//DTD SVG 1.1//EN" "http://www.w3.org/Graphics/SVG/1.1/DTD/svg11.dtd">
<svg width="100%" height="100%" viewBox="0 0 729 557" version="1.1" xmlns="http://www.w3.org/2000/svg" xmlns:xlink="http://www.w3.org/1999/xlink" xml:space="preserve" xmlns:serif="http://www.serif.com/" style="fill-rule:evenodd;clip-rule:evenodd;stroke-linejoin:round;stroke-miterlimit:2;">
    <g id="SternenSchau" transform="matrix(1,0,0,1,-56,-18)">
        <g transform="matrix(1,0,0,1,642.465,401.114)">
            <path d="M0,-212.123C3.448,-212.719 6.949,-213.107 10.334,-213.958C16.217,-215.438 22.139,-216.901 27.832,-218.957C31.696,-220.353 33.426,-224.762 32.326,-228.185C31.105,-231.989 27.79,-234.289 23.577,-233.381C20.595,-232.738 17.886,-230.908 14.968,-229.844C13.468,-229.296 11.348,-228.559 10.296,-229.2C9.239,-229.845 8.818,-232.077 8.736,-233.646C8.611,-236.06 9.372,-238.541 9.108,-240.922C8.723,-244.412 6.344,-245.893 2.857,-245.406C-2.651,-244.638 -7.591,-240.593 -8.285,-235.178C-8.947,-230.01 -9.029,-224.68 -8.594,-219.485C-8.151,-214.206 -5.434,-212.369 0,-212.123M-444.692,-216.764C-444.62,-216.77 -444.546,-216.777 -444.474,-216.785C-444.765,-219.573 -445.03,-222.364 -445.353,-225.149C-446.115,-231.715 -450.158,-236.138 -456.557,-237.451C-460.093,-238.176 -462.947,-236.416 -463.329,-232.712C-463.574,-230.347 -462.695,-227.884 -462.73,-225.471C-462.754,-223.885 -463.071,-221.437 -464.047,-220.946C-465.294,-220.319 -467.401,-221.072 -469.025,-221.587C-472.307,-222.63 -475.436,-224.547 -478.767,-224.95C-483.816,-225.559 -487.353,-220.494 -485.978,-215.544C-484.675,-210.852 -480.764,-209.394 -476.763,-208.436C-470.178,-206.861 -463.528,-205.51 -456.852,-204.377C-448.363,-202.936 -444.964,-205.934 -444.695,-214.657C-444.673,-215.359 -444.692,-216.061 -444.692,-216.764M-135.47,-267.46C-131.199,-265.401 -131.233,-265.421 -129.206,-268.938C-125.346,-275.637 -121.586,-282.4 -117.529,-288.979C-106.679,-306.572 -92.496,-321.419 -78.039,-335.975C-69.59,-344.482 -59.154,-349.777 -47.456,-352.381C-25.523,-357.264 -3.893,-355.911 17.335,-348.657C29.693,-344.434 40.952,-338.304 49.744,-328.355C65.805,-310.182 69.779,-288.894 65.569,-265.629C61.642,-243.925 52.221,-224.524 40.189,-206.261C35.007,-198.394 29.115,-191.225 20.751,-186.128C22.107,-185.882 23.456,-185.962 24.242,-186.669C30.517,-192.311 36.852,-197.902 42.852,-203.829C58.141,-218.931 71.478,-235.43 79.332,-255.797C89.338,-281.747 88.227,-306.79 72.934,-330.438C60.218,-350.101 41.619,-362.049 19.678,-369.101C-0.329,-375.53 -20.783,-376.844 -41.474,-373.269C-62.578,-369.622 -81.147,-360.83 -96.349,-345.434C-117.79,-323.719 -128.46,-296.647 -135.47,-267.46M-473.07,-177.078C-473.002,-177.511 -472.935,-177.944 -472.867,-178.377C-481.399,-182.471 -487.647,-189.098 -492.866,-196.714C-496.769,-202.411 -500.5,-208.253 -503.889,-214.267C-514.527,-233.142 -521.48,-253.217 -520.946,-275.127C-520.33,-300.382 -510.113,-321.156 -488.907,-335.346C-466.596,-350.276 -441.569,-354.95 -415.047,-352.198C-398.068,-350.436 -383.487,-343.819 -372.013,-330.866C-354.164,-310.716 -337.643,-289.64 -325.624,-265.362C-323.77,-261.617 -323.29,-261.592 -319.457,-264.285C-324.865,-287.984 -332.433,-310.923 -346.078,-331.42C-359.769,-351.986 -378.395,-365.774 -402.669,-371.352C-432.749,-378.265 -461.426,-373.922 -488.474,-359.456C-506.801,-349.654 -521.128,-335.509 -530.521,-316.798C-543.927,-290.096 -541.948,-263.462 -529.028,-237.32C-516.833,-212.646 -497.102,-194.47 -475.917,-177.703C-475.232,-177.161 -474.031,-177.271 -473.07,-177.078M125.205,-4.122C123.965,-2.614 123.124,-1.644 122.339,-0.632C115.225,8.544 106.562,15.991 96.945,22.43C75.962,36.478 52.439,44.255 28.218,50.219C-4.036,58.159 -36.847,62.969 -69.819,66.537C-93.227,69.069 -116.733,70.683 -140.191,72.748C-155.25,74.075 -170.283,75.745 -185.36,76.77C-198.895,77.689 -212.537,79.012 -226.022,78.24C-248.345,76.964 -270.581,74.16 -292.851,71.977C-316.055,69.701 -339.302,67.773 -362.448,65.011C-390.591,61.652 -418.711,57.991 -446.723,53.691C-470.243,50.081 -493.459,44.83 -515.745,36.159C-531.697,29.953 -546.618,21.96 -559.446,10.452C-562.709,7.524 -565.763,4.364 -568.957,1.269C-569.77,4.248 -569.188,6.402 -566.617,9.964C-554.892,26.201 -539.013,37.239 -521.183,45.609C-500.341,55.394 -478.141,60.926 -455.578,64.779C-432.373,68.742 -409.072,72.205 -385.74,75.349C-365.423,78.086 -345.021,80.22 -324.628,82.352C-303.764,84.533 -282.871,86.444 -261.98,88.369C-246.815,89.766 -231.637,91.978 -216.459,92.023C-200.45,92.072 -184.43,90.062 -168.425,88.809C-141.555,86.704 -114.625,85.108 -87.848,82.146C-60.967,79.17 -34.158,75.295 -7.473,70.878C19.244,66.455 45.729,60.7 70.58,49.336C90.854,40.064 108.514,27.464 121.3,8.797C123.826,5.108 126.055,1.32 125.205,-4.122M-5.723,-205.296C-0.414,-201.505 3.855,-198.438 8.145,-195.397C15.221,-190.381 17.1,-190.478 23.864,-196.175C24.58,-196.778 25.253,-197.435 25.93,-198.084C33.678,-205.51 38.706,-214.777 43.653,-224.118C52.068,-240.002 58.411,-256.613 60.033,-274.619C62.657,-303.753 47.06,-329.454 20.73,-339.525C3.672,-346.049 -14.009,-349.299 -32.35,-347.541C-48.793,-345.966 -63.551,-340.509 -75.553,-328.613C-94.324,-310.009 -110.395,-289.371 -123.164,-266.204C-123.582,-265.445 -123.836,-264.596 -124.075,-264.011C-111.741,-259.252 -99.673,-254.75 -87.754,-249.88C-84.949,-248.734 -83.771,-249.113 -82.196,-251.585C-74.936,-262.983 -66.848,-273.769 -56.92,-283.016C-40.917,-297.922 -22.765,-304.403 -1.125,-296.892C16.114,-290.907 25.342,-278.301 25.335,-260.049C25.333,-254.201 24.73,-248.345 24.227,-242.509C24.034,-240.291 24.583,-239.456 26.933,-239.187C33.807,-238.403 38.047,-234.981 39.097,-229.825C40.353,-223.664 37.776,-217.451 31.926,-214.355C28.362,-212.47 24.366,-211.178 20.413,-210.302C12.089,-208.458 3.664,-207.064 -5.723,-205.296M-330.429,-259.947C-331.32,-261.636 -331.945,-262.883 -332.625,-264.1C-344.686,-285.689 -359.258,-305.419 -375.769,-323.839C-386.076,-335.339 -398.717,-341.783 -413.674,-344.151C-432.463,-347.126 -450.481,-343.741 -468.258,-337.626C-501.355,-326.241 -518.538,-293.686 -513.504,-260.704C-510.039,-238.006 -500.288,-217.815 -487.396,-199.075C-483.052,-192.759 -477.75,-187.211 -470.571,-183.988C-469.105,-183.33 -466.702,-182.739 -465.673,-183.46C-459.758,-187.605 -454.127,-192.155 -447.72,-197.09C-454.391,-198.258 -460.338,-199.29 -466.282,-200.342C-472.948,-201.521 -479.833,-201.908 -485.774,-205.723C-491.373,-209.319 -494.308,-215.506 -492.895,-221.347C-491.374,-227.636 -486.584,-230.073 -480.725,-230.765C-478.396,-231.04 -478.15,-232.124 -478.364,-234.037C-478.795,-237.881 -479.444,-241.748 -479.36,-245.591C-479.218,-252.113 -479.563,-258.877 -477.965,-265.093C-472.812,-285.13 -448.312,-297.221 -426.994,-293.683C-414.808,-291.66 -404.666,-285.409 -396.622,-276.488C-388.02,-266.946 -380.367,-256.528 -372.611,-246.257C-370.715,-243.746 -369.432,-243.369 -366.73,-244.699C-361.477,-247.285 -356.078,-249.589 -350.67,-251.842C-344.091,-254.582 -337.441,-257.148 -330.429,-259.947M132.894,-1.354C131.013,3.259 129.82,7.866 127.434,11.738C118.182,26.749 104.86,37.607 90.121,46.851C72.33,58.008 52.663,64.656 32.517,69.777C-8.37,80.169 -50.066,85.835 -92.002,89.753C-122.583,92.609 -153.197,95.125 -183.815,97.552C-196.892,98.588 -210.093,100.253 -223.1,99.437C-246.009,98 -268.815,94.893 -291.661,92.456C-326.977,88.689 -362.328,85.209 -397.595,81.028C-429.15,77.287 -460.473,72.042 -491.177,63.566C-514.469,57.137 -536.426,47.931 -555.063,32.199C-563.983,24.67 -573.037,16.955 -575.736,4.623C-575.783,4.407 -576.209,4.274 -576.686,3.946C-577.137,5.201 -577.738,6.256 -577.877,7.369C-578.561,12.828 -579.481,18.291 -579.664,23.774C-580.565,50.719 -573.49,75.097 -555.271,95.494C-542.107,110.232 -525.505,120.023 -507.278,127.186C-483.835,136.398 -459.393,142.238 -434.809,147.134C-410.347,152.004 -385.65,155.814 -360.949,159.339C-330.515,163.682 -299.84,165.568 -269.113,166.355C-249.681,166.852 -230.242,167.059 -210.81,167.532C-172.568,168.465 -134.345,168.149 -96.195,165.224C-60.253,162.468 -24.715,156.89 10.313,148.315C32.294,142.936 54.195,137.219 74.604,127.073C94.656,117.106 111.648,103.564 122.824,83.802C137.556,57.75 139.76,29.865 133.955,0.983C133.787,0.147 133.238,-0.613 132.894,-1.354M-219.675,71.49C-219.675,69.861 -219.619,68.939 -219.684,68.024C-221.671,39.612 -223.861,11.213 -225.623,-17.213C-228.015,-55.822 -230.564,-94.433 -232.156,-133.079C-233.929,-176.095 -233.266,-219.126 -230.032,-262.088C-229.79,-265.308 -229.707,-268.539 -229.532,-272.119C-231.452,-272.119 -232.961,-272.259 -234.438,-272.097C-248.289,-270.582 -262.228,-269.6 -275.962,-267.355C-320.158,-260.132 -360.57,-242.578 -399.23,-220.688C-427.655,-204.593 -454.142,-185.705 -478.847,-164.275C-496.193,-149.228 -512.129,-132.842 -525.674,-114.374C-547.599,-84.481 -562.442,-51.336 -568.996,-14.653C-569.458,-12.066 -569.086,-10.217 -567.525,-8.229C-559.773,1.642 -550.61,9.922 -540.061,16.715C-520.733,29.161 -499.24,36.363 -477.022,40.781C-450.165,46.12 -423.084,50.586 -395.928,54.096C-362.708,58.389 -329.319,61.384 -295.987,64.773C-276.175,66.786 -256.333,68.505 -236.499,70.299C-231.042,70.792 -225.567,71.079 -219.675,71.49M-226.694,-173.749C-225.629,-143.141 -225.165,-121.804 -224.078,-100.498C-222.592,-71.356 -220.718,-42.234 -218.852,-13.114C-217.15,13.435 -215.226,39.969 -213.432,66.511C-213.094,71.506 -213.1,71.594 -208.038,71.206C-190.046,69.827 -172.051,68.475 -154.064,67.02C-130.585,65.12 -107.021,63.873 -83.659,60.997C-53.804,57.32 -24.049,52.688 5.628,47.738C30.649,43.565 55.076,36.947 77.976,25.638C96.849,16.316 112.534,3.258 124.007,-14.552C124.736,-15.683 125.228,-17.413 124.95,-18.671C123.56,-24.957 122.025,-31.222 120.271,-37.418C108.316,-79.647 85.96,-115.851 55.352,-146.912C25.381,-177.327 -8.784,-202.351 -46.363,-222.641C-74.043,-237.586 -102.533,-250.673 -132.859,-259.429C-160.937,-267.536 -189.583,-271.803 -218.795,-272.422C-221.541,-272.48 -222.74,-271.918 -222.857,-268.854C-224.186,-234.071 -225.647,-199.292 -226.694,-173.749M-479.33,-172.295C-486.854,-178.861 -494.247,-185.002 -501.289,-191.521C-516.124,-205.253 -528.715,-220.744 -537.14,-239.296C-557.669,-284.505 -543.035,-326.107 -509.27,-353.527C-475.92,-380.61 -437.595,-388.259 -396.086,-377.575C-371.167,-371.162 -352.834,-355.284 -339.21,-333.793C-326.631,-313.951 -318.949,-292.133 -313.593,-269.402C-313.405,-268.604 -313.251,-267.798 -313.027,-267.01C-312.936,-266.69 -312.7,-266.41 -312.344,-265.787C-284.691,-273.595 -256.601,-278.882 -227.674,-279.03C-198.935,-279.177 -170.592,-276.347 -142.422,-268.673C-141.949,-270.242 -141.502,-271.519 -141.178,-272.827C-135.168,-297.081 -125.92,-319.862 -110.442,-339.752C-88.916,-367.416 -60.105,-380.59 -25.526,-381.962C-2.374,-382.88 19.813,-378.735 40.471,-367.97C58.336,-358.661 72.885,-345.659 82.643,-327.806C94.4,-306.296 95.433,-283.829 88.094,-260.735C80.455,-236.702 65.428,-217.526 47.877,-200.083C41.323,-193.57 34.393,-187.436 27.434,-180.942C32.801,-176.324 38.18,-171.845 43.395,-167.182C78.778,-135.54 106.288,-98.407 122.04,-53.252C125.432,-43.53 127.764,-33.442 130.699,-23.558C131.129,-22.108 132.184,-20.839 132.986,-19.509C133.521,-18.621 134.29,-17.84 134.668,-16.896C154.891,33.587 139.006,96.163 91.034,126.68C74.105,137.448 55.623,144.452 36.378,149.418C-18.284,163.523 -73.794,171.878 -130.269,174.109C-181.529,176.136 -232.75,175.335 -283.949,172.98C-338.275,170.48 -392.112,163.654 -445.249,151.986C-464.113,147.845 -482.909,143.115 -501.355,137.419C-522.556,130.872 -541.899,120.348 -556.95,103.635C-583.15,74.541 -591.583,40.55 -583.139,2.372C-582.231,-1.736 -581.715,-6.366 -579.429,-9.648C-574.112,-17.28 -573.712,-26.217 -571.437,-34.62C-560.228,-76.026 -539.595,-112.082 -510.018,-142.996C-501.037,-152.382 -491.266,-161.013 -481.854,-169.986C-481.103,-170.701 -480.324,-171.387 -479.33,-172.295" style="fill-rule:nonzero;"/>
        </g>
        <g transform="matrix(1,0,0,1,415.771,373.977)">
            <path d="M0,-146.612C1.047,-172.155 2.508,-206.934 3.837,-241.717C3.954,-244.781 5.153,-245.343 7.899,-245.285C37.111,-244.666 65.757,-240.399 93.835,-232.292C124.161,-223.536 152.651,-210.449 180.331,-195.504C217.91,-175.214 252.075,-150.19 282.046,-119.775C312.654,-88.714 335.011,-52.51 346.966,-10.281C348.72,-4.085 350.254,2.18 351.645,8.466C351.922,9.724 351.431,11.454 350.701,12.585C339.228,30.395 323.543,43.453 304.67,52.775C281.77,64.084 257.344,70.702 232.322,74.875C202.645,79.825 172.891,84.457 143.035,88.134C119.674,91.01 96.109,92.257 72.63,94.157C54.644,95.612 36.648,96.964 18.656,98.343C13.595,98.731 13.601,98.643 13.263,93.648C11.469,67.106 9.544,40.572 7.843,14.023C5.977,-15.097 4.103,-44.219 2.616,-73.361C1.53,-94.667 1.065,-116.004 0,-146.612" style="fill:rgb(90,237,101);fill-rule:nonzero;"/>
        </g>
        <g transform="matrix(1,0,0,1,422.79,128.856)">
            <path d="M0,343.749C-5.892,343.338 -11.368,343.051 -16.824,342.558C-36.658,340.764 -56.5,339.045 -76.312,337.031C-109.645,333.643 -143.034,330.647 -176.253,326.354C-203.409,322.845 -230.49,318.379 -257.347,313.04C-279.565,308.622 -301.058,301.42 -320.386,288.974C-330.935,282.181 -340.098,273.9 -347.851,264.029C-349.411,262.042 -349.783,260.192 -349.321,257.605C-342.767,220.923 -327.924,187.777 -306,157.884C-292.455,139.417 -276.518,123.031 -259.172,107.984C-234.467,86.554 -207.98,67.666 -179.555,51.571C-140.895,29.681 -100.483,12.126 -56.287,4.903C-42.554,2.659 -28.614,1.677 -14.763,0.162C-13.287,0 -11.777,0.14 -9.857,0.14C-10.032,3.72 -10.115,6.951 -10.357,10.17C-13.591,53.132 -14.254,96.164 -12.481,139.18C-10.889,177.826 -8.34,216.436 -5.948,255.046C-4.187,283.472 -1.997,311.871 -0.009,340.283C0.056,341.197 0,342.12 0,343.749" style="fill:rgb(90,237,101);fill-rule:nonzero;"/>
        </g>
        <g transform="matrix(1,0,0,1,775.359,569.579)">
            <path d="M0,-169.819C0.345,-169.078 0.894,-168.318 1.062,-167.481C6.866,-138.599 4.662,-110.715 -10.069,-84.663C-21.245,-64.9 -38.237,-51.359 -58.29,-41.391C-78.698,-31.246 -100.6,-25.529 -122.58,-20.149C-157.608,-11.575 -193.146,-5.997 -229.089,-3.241C-267.238,-0.315 -305.462,0 -343.703,-0.932C-363.135,-1.406 -382.575,-1.613 -402.006,-2.11C-432.734,-2.896 -463.408,-4.783 -493.842,-9.126C-518.543,-12.651 -543.24,-16.461 -567.703,-21.331C-592.287,-26.226 -616.729,-32.066 -640.171,-41.279C-658.398,-48.442 -675,-58.232 -688.165,-72.97C-706.384,-93.368 -713.459,-117.746 -712.558,-144.69C-712.375,-150.173 -711.455,-155.636 -710.771,-161.095C-710.632,-162.209 -710.03,-163.263 -709.58,-164.518C-709.103,-164.19 -708.677,-164.057 -708.629,-163.841C-705.931,-151.509 -696.876,-143.795 -687.957,-136.265C-669.32,-120.534 -647.363,-111.328 -624.07,-104.898C-593.367,-96.423 -562.044,-91.177 -530.488,-87.436C-495.221,-83.256 -459.871,-79.775 -424.555,-76.008C-401.708,-73.572 -378.903,-70.465 -355.993,-69.028C-342.986,-68.212 -329.785,-69.877 -316.709,-70.913C-286.091,-73.34 -255.477,-75.855 -224.896,-78.712C-182.96,-82.63 -141.264,-88.296 -100.377,-98.687C-80.23,-103.808 -60.563,-110.457 -42.772,-121.614C-28.033,-130.857 -14.712,-141.715 -5.46,-156.726C-3.073,-160.598 -1.881,-165.206 0,-169.819" style="fill:rgb(228,239,154);fill-rule:nonzero;"/>
        </g>
        <g transform="matrix(1,0,0,1,312.037,131.196)">
            <path d="M0,9.971C-7.012,12.77 -13.663,15.336 -20.241,18.076C-25.649,20.329 -31.048,22.633 -36.301,25.22C-39.003,26.55 -40.286,26.172 -42.183,23.661C-49.938,13.39 -57.591,2.972 -66.193,-6.57C-74.237,-15.49 -84.379,-21.742 -96.565,-23.764C-117.883,-27.302 -142.383,-15.212 -147.536,4.825C-149.135,11.041 -148.789,17.805 -148.932,24.327C-149.016,28.171 -148.366,32.037 -147.936,35.881C-147.721,37.794 -147.968,38.878 -150.296,39.153C-156.156,39.845 -160.945,42.282 -162.466,48.571C-163.879,54.412 -160.944,60.599 -155.345,64.196C-149.405,68.011 -142.52,68.397 -135.854,69.576C-129.91,70.628 -123.962,71.66 -117.292,72.828C-123.698,77.763 -129.33,82.313 -135.244,86.458C-136.273,87.179 -138.676,86.589 -140.142,85.93C-147.321,82.707 -152.623,77.159 -156.968,70.843C-169.859,52.103 -179.61,31.912 -183.075,9.214C-188.109,-23.768 -170.926,-56.323 -137.829,-67.708C-120.053,-73.822 -102.035,-77.208 -83.245,-74.233C-68.289,-71.864 -55.647,-65.421 -45.34,-53.921C-28.829,-35.501 -14.257,-15.771 -2.197,5.818C-1.517,7.035 -0.891,8.282 0,9.971" style="fill:rgb(228,239,154);fill-rule:nonzero;"/>
        </g>
        <g transform="matrix(1,0,0,1,636.743,66.73)">
            <path d="M0,129.088C9.387,127.32 17.812,125.926 26.136,124.083C30.089,123.207 34.085,121.914 37.648,120.029C43.499,116.933 46.075,110.721 44.819,104.559C43.77,99.403 39.529,95.982 32.655,95.197C30.306,94.928 29.757,94.093 29.949,91.876C30.453,86.039 31.056,80.184 31.058,74.336C31.064,56.083 21.837,43.477 4.598,37.493C-17.042,29.981 -35.194,36.463 -51.197,51.368C-61.125,60.615 -69.213,71.401 -76.474,82.799C-78.048,85.272 -79.227,85.65 -82.031,84.504C-93.95,79.634 -106.019,75.132 -118.353,70.373C-118.113,69.789 -117.859,68.939 -117.441,68.181C-104.672,45.013 -88.602,24.376 -69.83,5.771C-57.828,-6.124 -43.07,-11.581 -26.627,-13.157C-8.286,-14.915 9.395,-11.665 26.453,-5.141C52.782,4.93 68.38,30.631 65.756,59.766C64.134,77.771 57.791,94.382 49.376,110.266C44.429,119.607 39.4,128.875 31.652,136.3C30.976,136.949 30.303,137.606 29.587,138.21C22.822,143.906 20.943,144.003 13.867,138.987C9.578,135.946 5.309,132.879 0,129.088" style="fill:rgb(228,239,154);fill-rule:nonzero;"/>
        </g>
        <g transform="matrix(1,0,0,1,767.67,493.186)">
            <path d="M0,-96.194C0.85,-90.752 -1.379,-86.964 -3.905,-83.275C-16.691,-64.608 -34.351,-52.007 -54.625,-42.736C-79.476,-31.372 -105.961,-25.617 -132.678,-21.194C-159.363,-16.777 -186.172,-12.902 -213.053,-9.926C-239.83,-6.964 -266.76,-5.368 -293.63,-3.263C-309.635,-2.01 -325.655,0 -341.664,-0.048C-356.842,-0.094 -372.02,-2.306 -387.186,-3.703C-408.076,-5.628 -428.969,-7.539 -449.833,-9.72C-470.226,-11.852 -490.628,-13.986 -510.945,-16.723C-534.277,-19.867 -557.578,-23.33 -580.783,-27.293C-603.346,-31.146 -625.546,-36.678 -646.388,-46.463C-664.218,-54.833 -680.097,-65.871 -691.822,-82.108C-694.394,-85.67 -694.975,-87.824 -694.162,-90.803C-690.968,-87.708 -687.915,-84.548 -684.651,-81.62C-671.823,-70.112 -656.902,-62.119 -640.95,-55.913C-618.664,-47.242 -595.448,-41.991 -571.928,-38.381C-543.916,-34.081 -515.796,-30.42 -487.653,-27.061C-464.507,-24.298 -441.26,-22.371 -418.056,-20.095C-395.786,-17.912 -373.55,-15.108 -351.227,-13.832C-337.742,-13.06 -324.101,-14.382 -310.565,-15.302C-295.488,-16.327 -280.455,-17.997 -265.396,-19.324C-241.938,-21.389 -218.432,-23.003 -195.024,-25.535C-162.052,-29.103 -129.241,-33.913 -96.987,-41.853C-72.766,-47.817 -49.243,-55.594 -28.26,-69.642C-18.644,-76.081 -9.98,-83.528 -2.866,-92.704C-2.081,-93.716 -1.24,-94.686 0,-96.194" style="fill:rgb(239,140,140);fill-rule:nonzero;"/>
        </g>
        <g transform="matrix(1,0,0,1,169.395,22.8497)">
            <path d="M0,201.187C-0.961,200.993 -2.162,201.104 -2.847,200.562C-24.032,183.794 -43.763,165.619 -55.958,140.944C-68.878,114.802 -70.857,88.169 -57.451,61.466C-48.058,42.755 -33.731,28.61 -15.404,18.809C11.644,4.343 40.321,0 70.401,6.913C94.674,12.491 113.301,26.279 126.992,46.844C140.637,67.341 148.205,90.281 153.613,113.979C149.779,116.672 149.3,116.647 147.446,112.903C135.427,88.624 118.906,67.548 101.057,47.398C89.583,34.446 75.001,27.829 58.022,26.067C31.5,23.314 6.474,27.989 -15.837,42.918C-37.043,57.109 -47.26,77.882 -47.876,103.138C-48.411,125.047 -41.457,145.123 -30.819,163.998C-27.43,170.011 -23.699,175.854 -19.796,181.55C-14.578,189.166 -8.33,195.794 0.203,199.888C0.135,200.321 0.068,200.754 0,201.187" style="fill:rgb(90,237,101);fill-rule:nonzero;"/>
        </g>
        <g transform="matrix(1,0,0,1,506.996,105.85)">
            <path d="M0,27.804C7.01,-1.383 17.68,-28.454 39.121,-50.17C54.322,-65.565 72.892,-74.358 93.996,-78.005C114.686,-81.579 135.141,-80.266 155.147,-73.836C177.089,-66.785 195.687,-54.837 208.403,-35.174C223.696,-11.525 224.808,13.518 214.802,39.467C206.947,59.835 193.61,76.333 178.321,91.436C172.321,97.362 165.986,102.953 159.712,108.595C158.926,109.302 157.577,109.383 156.221,109.136C164.585,104.04 170.477,96.87 175.659,89.003C187.69,70.74 197.111,51.34 201.039,29.635C205.249,6.37 201.274,-14.918 185.214,-33.091C176.422,-43.039 165.163,-49.169 152.805,-53.392C131.577,-60.646 109.946,-62 88.014,-57.117C76.315,-54.512 65.88,-49.218 57.431,-40.711C42.974,-26.155 28.791,-11.307 17.94,6.285C13.884,12.864 10.124,19.627 6.264,26.326C4.236,29.844 4.271,29.863 0,27.804" style="fill:rgb(90,237,101);fill-rule:nonzero;"/>
        </g>
        <g transform="matrix(1,0,0,1,197.773,176.766)">
            <path d="M0,7.585C0,8.287 0.019,8.99 -0.003,9.691C-0.271,18.415 -3.67,21.412 -12.16,19.972C-18.835,18.838 -25.486,17.487 -32.071,15.912C-36.072,14.955 -39.983,13.496 -41.286,8.804C-42.66,3.855 -39.124,-1.21 -34.075,-0.601C-30.744,-0.199 -27.614,1.719 -24.333,2.762C-22.709,3.277 -20.602,4.03 -19.354,3.402C-18.378,2.911 -18.062,0.464 -18.038,-1.123C-18.002,-3.536 -18.881,-5.998 -18.637,-8.364C-18.254,-12.068 -15.401,-13.827 -11.865,-13.102C-5.465,-11.79 -1.422,-7.366 -0.661,-0.8C-0.338,1.984 -0.073,4.776 0.219,7.564C0.146,7.571 0.073,7.578 0,7.585" style="fill:rgb(239,140,140);fill-rule:nonzero;"/>
        </g>
        <g transform="matrix(1,0,0,1,642.465,155.221)">
            <path d="M0,33.77C-5.434,33.524 -8.151,31.687 -8.594,26.408C-9.029,21.213 -8.947,15.883 -8.285,10.715C-7.591,5.3 -2.651,1.255 2.857,0.487C6.344,0 8.723,1.481 9.108,4.971C9.372,7.352 8.611,9.833 8.736,12.247C8.818,13.816 9.239,16.048 10.296,16.693C11.348,17.334 13.468,16.597 14.968,16.049C17.886,14.985 20.595,13.155 23.577,12.512C27.79,11.604 31.105,13.904 32.326,17.708C33.426,21.131 31.696,25.54 27.832,26.936C22.139,28.992 16.217,30.455 10.334,31.935C6.949,32.786 3.448,33.174 0,33.77" style="fill:rgb(239,140,140);fill-rule:nonzero;"/>
        </g>
    </g>
</svg>
