<svg xmlns="http://www.w3.org/2000/svg" viewBox="0 0 823.95 256.89"><defs><style>.cls-1,.cls-2{fill:#173c65;}.cls-1{fill-rule:evenodd;}</style></defs><title>Eszköz 1</title><g id="Réteg_2" data-name="Réteg 2"><g id="Réteg_1" data-name="Réteg 1"><polygon class="cls-1" points="82.53 140.7 100.49 131.06 99.47 0 51.25 2.26 49.2 150.55 77.5 150.85 82.53 140.7"/><polygon class="cls-1" points="66.82 172.37 73.37 159.17 42.77 158.88 45.06 11.18 44.31 11.2 29.95 11.73 26.69 162.92 3.17 188.19 1.24 239.38 62.86 239.29 66.82 172.37"/><polygon class="cls-1" points="121.52 119.78 119.92 8.82 106.69 8.9 105.76 8.93 106.8 127.68 121.52 119.78"/><path class="cls-1" d="M75.73,174.6l-4,64.12,116.31.38.73-35.36,5.26.3V185.87l6.76-7.51,6.26,7.26-.23,19.16,5,.29.74,34.1,64.88.21-1.75-64.78-44.91-26.3L129.83,126.51l-39.4,20Zm190.68,11.77,4.76,6.76v17.28l-8.77.5-.25-18Zm-18.28-2.5,5,7,.5,18.53-10.52.25-.25-18.53Zm-21.54-1.75,4.76,7.76-.5,19h-9.77l-.5-20Zm-59.11.75,6.26-7.26,5.76,7,.25,22.79-13-.25Zm-31.31-4,7.51-8,6.26,8.27-.5,24-13.77-.5Zm-31.31-3.51,7.51-9,7.51,9.77-.5,25.3-15.28-.5Z"/><rect class="cls-2" y="247.91" width="277.43" height="8.99"/><path class="cls-2" d="M329.15,246.19,334,234.52q7.71,5.41,15.17,5.41,11.47,0,11.47-8a11.35,11.35,0,0,0-2.71-7.16q-2.7-3.41-11.14-7.64t-11.37-7a18.6,18.6,0,0,1-4.51-6.49,21.26,21.26,0,0,1-1.58-8.31,18.19,18.19,0,0,1,6.23-14.12q6.23-5.61,16-5.61,12.72,0,18.68,4.76l-4,11.22a24.48,24.48,0,0,0-14.47-4.91,9.68,9.68,0,0,0-7,2.38,8.19,8.19,0,0,0-2.48,6.19q0,6.31,14,13.12,7.36,3.61,10.62,6.64a20.41,20.41,0,0,1,5,7.06,22.9,22.9,0,0,1,1.7,9,18.14,18.14,0,0,1-7,14.67q-7,5.76-18.86,5.76A33.55,33.55,0,0,1,329.15,246.19Z"/><path class="cls-2" d="M426.41,200.86,421,210.23q-4.41-4.16-11.82-4.16-7.11,0-11.24,4.73t-4.13,13.1q0,16.88,16.08,16.88a18.16,18.16,0,0,0,12.27-4.61l4.61,9.87a31.78,31.78,0,0,1-9.54,4.31,45.19,45.19,0,0,1-9.64.9q-12.42,0-19.61-7.24t-7.19-20.11q0-12.67,7.86-20.48t21.44-7.81A26.12,26.12,0,0,1,426.41,200.86Z"/><path class="cls-2" d="M471.53,250.24V217.19a10.58,10.58,0,0,0-3.1-8,11.18,11.18,0,0,0-8.11-3,13.25,13.25,0,0,0-6.26,1.68,11.55,11.55,0,0,0-4.51,3.83v38.51H436.82V176.62l12.72-3V200q4.86-4.41,13.37-4.41,10.07,0,15.63,5.58t5.56,16v33.05Z"/><path class="cls-2" d="M494.12,223.3q0-12.27,7.09-20t18.71-7.71q12.22,0,19,7.41t6.76,20.28q0,12.82-6.89,20.38t-18.86,7.56q-12.22,0-19-7.64T494.12,223.3Zm11.17-48.18a6.81,6.81,0,0,1,5,2.1,6.94,6.94,0,0,1,2.08,5.06,7.1,7.1,0,0,1-7.11,7.11,6.94,6.94,0,0,1-5.06-2.08,6.81,6.81,0,0,1-2.1-5,7.18,7.18,0,0,1,7.16-7.16Zm1.85,48.18q0,17.73,12.77,17.73a11,11,0,0,0,9.29-4.61q3.43-4.61,3.43-13.12,0-17.48-12.72-17.48a11,11,0,0,0-9.32,4.61Q507.14,215,507.14,223.3Zm29.2-48.18a6.81,6.81,0,0,1,5,2.1,6.94,6.94,0,0,1,2.08,5.06,7.1,7.1,0,0,1-7.11,7.11,6.94,6.94,0,0,1-5.06-2.08,6.81,6.81,0,0,1-2.1-5,7.18,7.18,0,0,1,7.16-7.16Z"/><path class="cls-2" d="M590.17,250.24v-31q0-6.86-2.63-10T579,206.07a13.31,13.31,0,0,0-5.88,1.55,13.55,13.55,0,0,0-4.88,3.86v38.76H555.67V196.61h9l2.3,5q5.11-6,15.07-6,9.57,0,15.1,5.73t5.53,16v32.9Z"/><path class="cls-2" d="M650.92,250.24V217.19a10.58,10.58,0,0,0-3.1-8,11.18,11.18,0,0,0-8.11-3,13.25,13.25,0,0,0-6.26,1.68,11.55,11.55,0,0,0-4.51,3.83v38.51H616.22V176.62l12.72-3V200q4.86-4.41,13.37-4.41,10.07,0,15.63,5.58t5.56,16v33.05Z"/><path class="cls-2" d="M724.89,227.25H686.58q.35,6.41,4.41,10t10.92,3.56q8.56,0,13-4.46l4.86,9.57q-6.61,5.36-19.73,5.36-12.27,0-19.41-7.19T673.51,224q0-12.67,7.84-20.53a25.61,25.61,0,0,1,18.81-7.86q11.67,0,18.73,7t7.06,17.73A35,35,0,0,1,724.89,227.25ZM687,217.84h26.34q-1.3-11.77-13-11.77Q689.63,206.07,687,217.84Z"/><path class="cls-2" d="M767,208.27a13.14,13.14,0,0,0-7.36-2.2q-4.36,0-7.74,4a14.37,14.37,0,0,0-3.38,9.67v30.55H736V196.61h12.52v4.91q5.26-5.91,14-5.91,6.41,0,9.82,2Z"/><path class="cls-2" d="M776.28,250.24V246l29.1-38.46h-28.6V196.61h46.88V201l-28,38.31H824v10.92Z"/></g></g></svg>