<?xml version="1.0" encoding="utf-8"?>
<!-- Generator: Adobe Illustrator 24.0.1, SVG Export Plug-In . SVG Version: 6.00 Build 0)  -->
<svg version="1.1" id="Layer_1" xmlns="http://www.w3.org/2000/svg" xmlns:xlink="http://www.w3.org/1999/xlink" x="0px" y="0px"
	 viewBox="0 0 595.28 841.89" style="enable-background:new 0 0 595.28 841.89;" xml:space="preserve">
<style type="text/css">
	.st0{fill:#120000;}
	.st1{fill:#0D0000;}
</style>
<g>
	<g>
		<path class="st0" d="M230.31,422.95c-1.68-0.43-3.41-0.71-5.01-1.34c-2.28-0.9-3.02-2.46-2.4-4.83c0.39-1.49,0.94-2.96,1.57-4.37
			c0.58-1.3,0.57-2.43-0.6-3.81c-1.54,2.14-3.14,4.11-4.44,6.27c-0.51,0.84-0.71,2.19-0.43,3.12c0.75,2.43,2.18,4.49,4.92,5.01
			c2.15,0.41,4.33,0.63,6.49,0.94c1.12,0.06,3.04,0.16,4.16,0.22c0.02-0.23-1.73-0.9-1.93-0.89
			C231.47,423.1,231.49,423.1,230.31,422.95z"/>
		<path class="st1" d="M588.04,620.52c-4.94-7.69-9.93-15.35-14.87-23.04c-5.82-9.07-11.61-18.17-17.4-27.26
			c-0.24-0.38-0.47-0.77-0.87-1.4c11.68-18.64,23.4-37.33,35.34-56.37c-3.68-0.38-7.01-0.15-10.32-0.19
			c-3.48-0.04-6.95-0.01-10.43-0.01c-3.39,0-6.77,0-10.16,0c-3.38,0-6.75,0-10.47,0c0.49-1.51,0.87-2.8,1.33-4.06
			c6.14-17.06,10.46-34.58,13.22-52.48c1.61-10.47,2.8-21,3.02-31.62c0.12-5.76,0.41-11.52,0.34-17.27
			c-0.26-21.45-2.81-42.63-7.76-63.5c-4.64-19.6-11.26-38.51-19.89-56.73c-4.51-9.51-9.66-18.64-15.08-27.64
			c-5.95-9.89-12.87-19.08-19.96-28.16c-8.02-10.27-17.11-19.51-26.45-28.55c-11.01-10.66-23.21-19.78-35.83-28.41
			c-17.76-12.14-37.03-21.14-57.13-28.61c-18.08-6.72-36.77-10.69-55.83-13.15c-4.62-0.6-9.28-0.84-13.92-1.25
			c-1.7-0.01-3.4-0.02-5.09-0.04c-1.24-0.16-2.48-0.31-3.72-0.47c-5.67,0-11.35,0-17.02,0c-1.11,0.15-2.23,0.3-3.34,0.44
			c-1.64,0.01-3.29,0.03-4.93,0.04c-22.43,1.44-44.41,5.44-65.66,12.79c-20.31,7.03-39.85,15.88-57.87,27.73
			c-12.75,8.38-25.1,17.38-36.27,27.83c-9.41,8.81-18.58,17.88-26.7,27.93c-7.3,9.02-14.37,18.23-20.59,28.05
			C62.5,272.84,53.14,291.49,46,311.23c-6.44,17.8-11.06,36.08-13.96,54.81c-3.09,19.94-3.95,40-3.01,60.11
			c0.84,17.99,3.46,35.77,7.69,53.3c2.33,9.68,5.16,19.2,8.52,28.58c0.3,0.85,0.45,1.75,0.66,2.63c0.19,0.38,0.37,0.77,0.73,1.52
			c-13.92,0-27.55,0-41.59,0c11.97,19.09,23.69,37.77,35.53,56.65c-11.8,18.42-23.59,36.84-35.48,55.41
			c1.05,0.67,2.15,0.39,3.16,0.39c28.16,0.02,56.33,0.01,84.49,0.02c0.82,0,1.65-0.02,2.46,0.08c0.2,0.03,0.35,0.49,0.52,0.75
			c0.04,5.82,0.09,11.64,0.12,17.46c0.02,4.19,0.01,8.37,0.02,12.56c0.16-0.04,0.24,0.02,0.26,0.18
			c13.71-0.02,27.42-0.04,41.14-0.05c8.78-0.01,17.55,0.02,26.33-0.02c1.41-0.01,2.63,0.29,3.88,1
			c15.16,8.67,31.09,15.58,47.58,21.37c15.14,5.32,30.67,8.78,46.5,11.01c7.41,1.04,14.9,1.46,22.36,2.16
			c0.63,0.06,1.26,0.16,1.89,0.24c7.89,0.02,15.78,0.03,23.67,0.05c4.27-0.38,8.55-0.77,12.82-1.13c15.07-1.27,29.9-3.9,44.44-8.02
			c21.15-5.99,41.36-14.31,60.46-25.23c1.83-1.04,3.61-1.47,5.68-1.47c21.41,0.05,42.82,0.03,64.23,0.03c0.72,0,1.43,0,2.4,0
			c0-10.29,0-20.4,0-30.9c3.93-0.14,7.64-0.05,11.34-0.07c3.75-0.02,7.5,0,11.25,0s7.5,0,11.25,0c3.84,0,7.69,0,11.53,0
			c3.75,0,7.5,0,11.25,0c3.75,0,7.5,0,11.25,0s7.5,0,11.25,0c3.74,0,7.47,0,11.72,0C589.42,623,588.8,621.71,588.04,620.52z
			 M38.92,454.26c-1.68-10.84-2.64-21.76-3.09-32.74c-0.39-9.34-0.24-18.66,0.32-27.97c1.03-17.09,3.58-33.97,7.71-50.61
			c4.85-19.49,11.67-38.25,20.51-56.29c4.68-9.54,10.04-18.67,15.67-27.66c6.28-10.03,13.54-19.3,21.03-28.42
			c8.45-10.29,17.97-19.47,27.81-28.39c11.91-10.8,25.04-19.87,38.69-28.28c21.52-13.26,44.74-22.27,69.1-28.72
			c12.06-3.19,24.29-5.23,36.66-6.45c14.86-1.47,29.75-1.58,44.66-0.34c11.86,0.99,23.66,2.49,35.2,5.33
			c17.59,4.33,34.85,9.77,51.23,17.63c6.51,3.12,13.03,6.28,19.24,9.94c14.11,8.33,27.74,17.42,40.07,28.26
			c9.89,8.7,19.49,17.74,28.02,27.81c7.62,9,15.15,18.12,21.42,28.14c5.67,9.06,11.26,18.21,16.15,27.71
			c12.67,24.62,21.28,50.66,26.12,77.95c3.61,20.34,4.99,40.83,4.16,61.45c-0.78,19.32-3.54,38.38-8.21,57.16
			c-2.65,10.66-6.11,21.05-9.81,31.38c-0.12,0.34-0.32,0.65-0.56,1.14c-2.81,0-5.44,0-8.45,0c0.47-1.39,0.82-2.59,1.27-3.76
			c5.71-14.89,10.12-30.16,12.87-45.85c1.59-9.08,2.68-18.25,3.76-27.41c1.3-11.01,1.3-22.09,0.98-33.16
			c-0.58-20.17-3.38-40.05-8.37-59.61c-4.91-19.2-11.84-37.63-20.79-55.31c-4.97-9.81-10.69-19.14-16.73-28.32
			c-6.65-10.12-14.32-19.41-22.26-28.52c-8.99-10.31-19.08-19.42-29.52-28.2c-13.3-11.18-27.94-20.26-43.23-28.43
			c-22.14-11.83-45.69-19.37-70.33-23.73c-15.99-2.83-32.11-4.06-48.33-3.63c-35.39,0.94-69.21,8.72-101.07,24.26
			c-16.38,7.99-31.95,17.45-46.14,28.96c-10.58,8.59-20.84,17.58-29.94,27.77c-7.61,8.53-15.07,17.21-21.58,26.63
			c-6.44,9.34-12.56,18.88-17.85,28.93c-13.07,24.86-22.16,51.1-27.12,78.74c-2.31,12.88-3.64,25.87-4.15,38.96
			c-0.45,11.63-0.13,23.23,0.85,34.8c1.29,15.14,3.89,30.07,7.69,44.8c2.45,9.48,5.43,18.78,8.9,27.93c0.48,1.27,0.88,2.56,1.4,4.08
			c-2.91,0-5.59,0-8.55,0c-0.42-1.14-0.87-2.4-1.34-3.66C46.36,490.96,41.8,472.81,38.92,454.26z M419.84,524.56
			c-1.5-2.03-3.12-3.98-4.81-6.13c0.64-0.35,1.01-0.6,1.4-0.76c6.8-2.91,13.6-5.83,20.42-8.69c5.53-2.32,9.64-5.93,11.12-11.96
			c0.71-2.88,0.66-5.81-0.01-8.7c-1.27-5.42-4.15-9.81-8.17-13.67c-3.82-3.66-7.34-7.64-10.88-11.57c-1.34-1.48-2.49-3.17-3.51-4.9
			c-1.61-2.72-0.82-4.81,2.25-5.66c3.69-1.02,7.47-1.72,11.2-2.63c2.04-0.5,4.05-1.11,6.05-1.76c5.06-1.65,6.47-4.34,5.04-9.41
			c-0.4-1.4-0.83-2.82-0.99-4.26c-0.53-4.74,0.85-8.85,4.36-12.16c0.79-0.75,1.62-1.45,2.87-2.55c-2.75-0.44-5.09-0.83-7.43-1.19
			c-4.79-0.73-9.57-1.47-14.36-2.17c-1.06-0.15-1.94-0.47-2.46-1.47c-2.37-4.52-6.47-6.23-11.21-6.85
			c-4.35-0.57-8.71-1.04-13.06-1.6c-3.44-0.45-6.56-1.64-9.04-4.16c-0.36-0.37-0.56-0.89-0.84-1.34c-0.11-0.08-0.23-0.17-0.34-0.25
			c0.07-0.04,0.14-0.07,0.21-0.11c0.05,0.12,0.1,0.23,0.15,0.35c1.61,0.24,3.2,0.55,4.82,0.72c1.72,0.18,3.45,0.27,5.18,0.33
			c1.27,0.04,2.01-0.63,2.3-1.89c0.54-2.33,0.43-4.55-1-6.55c-1.7-2.38-3.31-4.84-5.21-7.05c-4.2-4.88-6.88-10.44-8.58-16.64
			c-2.18-7.92-4.84-15.71-7.07-23.61c-1.41-5-2.34-10.13-3.6-15.18c-0.53-2.12-1.16-4.24-2.05-6.23
			c-2.34-5.28-3.26-10.83-3.39-16.53c-0.11-4.84-0.07-9.69,0.03-14.53c0.12-5.62-0.67-11.11-1.95-16.55
			c-0.15-0.62-0.32-1.24-0.41-1.87c-0.68-4.95,1.49-7.89,6.41-8.71c1.85-0.31,3.41,0.06,4.56,1.72c3.84,5.53,9.26,6.7,15.49,5.45
			c4.98-0.99,9.61-2.88,13.9-5.6c1.93-1.22,3.75-2.65,5.78-3.68c4.28-2.16,5.75-6.18,7.04-10.28c0.55-1.76,0.34-3.63-0.67-5.3
			c-0.52-0.7-1.04-1.4-1.56-2.11c-0.18-0.19-0.35-0.38-0.53-0.56c-0.37-0.18-0.74-0.36-1.1-0.55c-0.15-0.05-0.27-0.13-0.37-0.25
			c-3-1.64-8.05-1.77-11.35-1.76c3.09-1.51,7.82-1.97,7.82-1.97c1.35,0,2.61,2.1,3.91,3.28c0.16,0.07,0.28,0.19,0.34,0.35
			c0.33,0.22,0.65,0.44,0.98,0.66c0.19,0.17,0.38,0.34,0.57,0.51c0.52,0.46,1.03,0.91,1.55,1.37
			c11.25,10.12,21.54,21.14,30.47,33.36c7.02,9.6,13.36,19.66,18.7,30.31c8.9,17.74,15.37,36.33,19.29,55.78
			c3.81,18.92,5.01,38.06,3.85,57.3c-1.13,18.78-4.68,37.12-10.52,55.03c-3.52,10.81-8.09,21.15-13.02,31.36
			c-0.2,0.41-0.47,0.77-0.82,1.32c-10.34,0-20.75,0-31.46,0c0,10.29,0,20.38,0,30.85c-2.36,0-4.43,0.06-6.49-0.04
			c-0.57-0.03-1.17-0.47-1.66-0.85C431.16,537.21,424.94,531.46,419.84,524.56z M434.22,543.01c-0.25,0.11-0.82,0.22-1.02,0.26
			c-3.51,0-7.02,0.02-10.53-0.03c-0.39,0-0.97-0.28-1.12-0.59c-1.4-2.85-2.74-5.74-4.07-8.62c-0.05-0.11,0.13-0.32,0.37-0.82
			C423.37,535.85,428.96,540.02,434.22,543.01z M149.42,512.52c-1.09-0.05-2.05-0.13-3.02-0.13c-8.69-0.01-17.38-0.06-26.08,0.04
			c-2.03,0.02-2.98-0.65-3.87-2.52c-3.95-8.25-7.74-16.57-10.76-25.21c-5.44-15.58-9.22-31.55-11.1-47.97
			c-1.27-11.11-1.84-22.24-1.41-33.41c0.77-20.01,4.01-39.6,10.06-58.73c6.58-20.82,16.06-40.18,28.44-58.17
			c6.5-9.45,13.88-18.13,21.71-26.49c10.76-11.49,23.01-21.11,36.03-29.86c17.25-11.59,36.01-19.73,55.96-25.3
			c0.77-0.22,1.57-0.36,2.66-0.6c0.46,2.36,0.8,4.58,1.36,6.75c0.31,1.19,0.79,2.43,1.51,3.41c4.05,5.54,8.16,11.03,12.31,16.48
			c1.86,2.45,2.08,4.92,0.77,7.69c-2.3,4.88-4.52,9.79-6.71,14.72c-1.08,2.45-2.73,4.23-5.16,5.41c-6.25,3.03-12.45,6.16-18.67,9.26
			c-2.02,1.01-4.04,1.33-6.35,0.91c-3.67-0.66-7.41-0.91-11.24-1.34c-0.84,2.74-1.19,5.25-0.3,7.9c1.05,3.12,1.77,6.34,2.89,9.43
			c1.05,2.91,2.2,5.84,3.72,8.52c3.75,6.59,9.66,10.08,17.11,10.95c4.46,0.52,8.94,0.32,13.4-0.25c1.54-0.2,3.1-0.23,4.65-0.32
			c1.57-0.08,2.63,0.67,3.19,2.1c0.43,1.1,0.83,2.23,1.15,3.37c1.36,4.79,3.45,9.23,6.09,13.44c2.64,4.22,6.25,6.34,11.3,5.4
			c3.59-0.66,7.16-1.41,10.98-2.17c0,0.52,0.11,1.04-0.02,1.5c-3.43,11.85-6.8,23.71-10.36,35.52c-1.66,5.52-3.89,10.84-7.14,15.67
			c-5.66,8.41-13.75,12.95-23.51,14.69c-4.13,0.73-8.33,1.2-12.51,1.47c-8.33,0.53-16.51,1.85-24.62,3.79
			c-1.33,0.32-2.68,0.56-4.03,0.82c-6.83,1.31-10.43,5.39-10.34,12.38c0.06,4.09,0.76,8.18,1.23,12.26
			c0.26,2.27,0.72,4.52,0.93,6.79c0.39,4.25-0.94,5.97-5.14,7.01c-4.88,1.21-9.77,2.38-14.6,3.73c-9.21,2.56-17.88,6.44-26.2,11.1
			c-2.78,1.56-5.39,3.44-7.95,5.36c-3.78,2.83-5.9,6.8-6.43,11.4c-0.37,3.15-0.24,6.4,0.07,9.57c0.43,4.37,2.81,7.77,6.56,9.93
			c4.22,2.43,8.05,5.37,11.89,8.33c2.93,2.27,6.42,3.35,10.29,3.95c-3.75-4.94-7.51-9.89-11.21-14.77
			c-0.55,0.12-0.84,0.13-1.07,0.25c-4.78,2.33-9.78-0.99-10.91-5.48c-1.39-5.49-1.31-10.88,0.94-16.12c1.8-4.2,4.8-7.38,8.95-9.27
			c4.23-1.93,8.51-3.78,12.9-5.31c8.79-3.08,17.68-5.87,26.5-8.88c2.59-0.88,5.09-2.04,7.6-3.15c3.3-1.47,4.14-3.34,3.22-6.83
			c-1.14-4.33-2.31-8.65-3.37-12.99c-0.39-1.59-0.64-3.24-0.68-4.87c-0.21-7.32,3.86-12.46,11.05-13.81
			c3.41-0.64,6.87-1.05,10.32-1.4c5.45-0.55,10.92-0.96,16.38-1.43c2.24-0.19,4.28,0.38,6.38,1.15c5.92,2.17,6.38,8.3,4.33,11.96
			c-0.78,1.4-1.9,2.7-3.12,3.76c-2.77,2.39-5.71,4.58-8.53,6.9c-0.95,0.79-1.77,1.74-2.65,2.62c-0.13,0.15-0.37,0.54-0.29,0.62
			c0,0,0.42-0.04,0.74-0.11c1.54-0.43,3.07-0.86,5.08-1.42c-0.92,1.78-1.58,3.05-2.22,4.32c-1.06,2.12-1.44,4.44-0.86,6.68
			c0.76,2.96-0.02,5.49-1.65,7.77c-2.29,3.19-4.74,6.27-7.25,9.29c-7.35,8.87-14.95,17.56-20.53,27.74
			c-2.73,4.97-5.35,9.99-8.02,14.99c-0.56,1.05-1.08,2.12-1.69,3.14c-1.37,2.3-3.34,3.78-5.97,4.49
			c-8.74,2.35-15.37-0.11-20.41-7.67c-0.56-0.84-1.05-1.72-1.56-2.58c-0.45-0.76-0.89-1.53-1.45-2.51c-0.94,0.68-1.65,1.2-2.65,1.92
			c1.71,3.38,3.29,6.75,5.11,9.98c1.41,2.53,3.88,3.85,6.57,4.63c2.37,0.68,4.8,1.14,7.2,1.7c1.06,0.25,2.11,0.51,3.54,0.85
			c-0.82,1.7-1.49,3.25-2.3,4.73c-4.34,7.95-8.72,15.87-13.07,23.81c-1.1,2-2.14,4.04-3.19,6.07c-0.44,0.86-0.96,1.44-2.08,1.44
			c-6.12-0.04-12.24-0.02-18.68-0.02C149.32,533.01,149.62,522.91,149.42,512.52z M307.49,222.15c5.19,1.23,10.58,0.94,16.04,1.48
			c-0.43,2.53-0.76,4.87-1.23,7.17c-0.64,3.1-0.69,3.09-4.86,7.77c6.09,3.83,12.21,7.47,18.56,11.25c0.74-2.98,0.1-5.11-2.02-6.66
			c-1.25-0.91-2.67-1.58-3.99-2.4c-5.14-3.2-5.41-5-0.96-9.47c0.39-0.39,0.88-0.67,1.26-1.05c2.07-2.04,2.71-4.49,1.94-7.28
			c-0.22-0.78-0.59-1.52-1.01-2.56c13.7-2.64,26.39-1.45,37.92,7.84c-3.72,0.87-6.96,1.68-10.48,1.09
			c-3.32-0.56-6.57,0.27-9.61,1.63c-2.08,0.93-4,2.24-6.08,3.15c-1.64,0.71-3.4,1.22-5.16,1.56c-1.78,0.34-3.62,0.36-5.52,0.8
			c5.49,3.2,11.21,5.83,16.79,8.61c2.12-2.01,2.28-3.13,0.74-5.25c-0.54-0.74-1.2-1.38-1.79-2.07c-0.57-0.68-1.13-1.38-1.98-2.43
			c2.16,0.15,3.84,0.22,5.51,0.4c6.72,0.7,13.45,1.41,20.17,2.15c3.06,0.34,5.27,2.03,6.73,4.64c2.4,4.29,3.05,8.78,1.13,13.44
			c-0.84,2.03-1.72,4.04-2.69,6c-0.92,1.87-2.32,3.35-4.39,3.88c-1.46,0.38-1.86,1.21-1.8,2.59c0.35,7.31,0.58,14.62,1.02,21.92
			c0.27,4.46,0.86,8.91,1.29,13.37c0.39,4.04,0.01,8.04-0.69,12.01c-0.05,0.27-0.12,0.54-0.18,0.8c-1.18,5.38-0.59,10.27,3.3,14.6
			c2.21,2.45,2.76,5.71,3.05,8.95c0.08,0.9,0.22,1.81,0.47,2.68c2.63,9.04,5.17,18.1,7.98,27.08c1.38,4.44,3.25,8.73,4.91,13.08
			c0.36,0.94,0.8,1.84,1.14,2.78c0.58,1.58,0.09,2.82-1.21,3.85c-1,0.78-1.89,1.7-2.86,2.52c-1.02,0.85-2.09,1.35-3.51,0.83
			c-2.12-0.79-3.92-0.11-5.49,1.44c-1.04,1.02-2.13,2.01-3.28,2.9c-2.1,1.61-3.51,1.42-5.1-0.64c-0.56-0.72-1.02-1.5-1.68-2.49
			c-5.42,3.56-10.81,7.11-16.62,10.93c-0.77-2.91-1.4-5.27-2.08-7.85c-7.41-0.1-14.78-1.45-22.11,0.03
			c-4.59,0.92-8.8,3.01-12.82,5.43c-2.89,1.73-5.82,3.41-8.93,5.23c-0.34-0.76-0.65-1.28-0.82-1.84c-0.84-2.8-1.7-5.6-2.43-8.43
			c-0.25-0.98-0.61-1.66-1.59-1.99c-2.42-0.83-4.83-1.71-7.25-2.54c-0.41-0.14-1.03-0.36-1.29-0.18c-1.7,1.22-2.94,0.04-4.24-0.72
			c-3.16-1.84-6.3-3.7-9.41-5.54c0-1.3,0-2.46,0-3.89c-1.78,0.59-3.41,1.12-5.02,1.66c-1.19-0.67-1.01-1.37-0.16-2.14
			c1.69-1.54,3.36-3.1,5.06-4.64c1.32-1.19,1.81-2.4,1.36-4.33c-1.08-4.61,1.11-8.22,4.39-11.16c1.75-1.57,3.09-3.32,4.11-5.4
			c1.36-2.74,1.4-2.72-0.62-5.03c0.11-0.52,0.18-1.16,0.38-1.75c1.98-5.89,3.97-11.78,5.97-17.66c1.52-4.46,4.47-7.05,9.25-7.87
			c9.99-1.72,14.72-11.24,10.04-20.36c-2.5-4.87-5.31-9.63-8.46-14.1c-3.73-5.29-3.99-10.86-2.47-16.73c0.63-2.42,2.6-3.67,5.04-4.1
			c2.8-0.5,5.45,0.12,8.19,1.34c2.04-3.31,2.15-6.71,1.04-10.23c-0.89-2.83-2.33-5.36-4.37-7.53c-3.01-3.2-5.91-6.47-8.15-10.3
			c-1.48-2.54-4-3.65-6.88-3.96c-4.29-0.46-8.57-0.64-12.83,0.29c-0.71,0.16-1.46,0.24-2.18,0.18c-3.45-0.25-6.23,1.15-8.68,3.4
			c-1.35,1.24-2.66,2.51-4,3.78c-0.03,0.28-0.11,0.55-0.07,0.81c0.59,4.18,0.54,4.31-3.06,6.29c-1.36,0.75-2.76,1.41-4.23,2.16
			c-1.12-0.69-1.62-1.45-0.65-2.62c0.82-0.98,1.64-1.97,2.47-2.93c3.11-3.58,5.1-7.6,4.64-12.49c-0.38-3.97-2.33-7.26-4.68-10.35
			c-3.87-5.1-7.76-10.18-11.64-15.27c-1.72-2.26-2.53-4.67-2.35-7.64c0.35-5.56-2.09-8.21-7.69-9.01c-4.96-0.7-5.58-0.96-10.16-4.28
			c0.54-0.5,1-1.02,1.55-1.41c8.93-6.13,18.6-10.52,29.37-12.24c8.82-1.4,17.52-0.58,26.09,1.66c4.95,1.29,9.83,2.85,14.69,4.46
			c4.07,1.35,6.44,4.23,7.14,8.55c1.66,10.27,0.53,20.04-4.88,29.12c-0.14,0.23-0.23,0.5-0.32,0.75
			C307.47,221.76,307.49,221.86,307.49,222.15z M408.41,222.34c4.15-3.79,8.12-7.6,10.72-12.69c2.21-4.34,5.81-6.95,10.71-7.66
			c4.1-0.59,6.11,1.75,4.82,5.7c-0.25,0.78-0.61,1.53-0.87,2.31c-0.79,2.4-0.77,4.77,0.94,6.74c2.64,3.03,2.12,6.06,0.18,9.06
			c-1.82,2.81-4.17,5.02-7.46,6.17c-7.07,2.47-14.12,5.03-21.15,7.62c-2.82,1.03-5.58,2.22-8.32,3.31
			c1.43,8.79,7.69,10.82,13.13,10.64c3.54-0.12,7.1,0.12,11,0.21c-1.4,4.28-3.7,7.46-6.89,10.01c-4.86,3.89-10.63,5.11-16.64,5.53
			c-0.56,0.04-1.29-0.23-1.69-0.62c-3.08-2.99-6.26-5.9-8.49-9.65c-1.2-2.02-1.84-3.99-1.22-6.48c0.81-3.26,0.34-6.57-1.22-9.61
			c-0.96-1.87-1.99-3.71-3.15-5.46c-1.79-2.69-3.21-5.53-3.97-8.68c-0.39-1.6-1.17-2.67-2.75-3.45c-4.41-2.17-5.92-5.39-4.83-10.14
			c0.51-2.21,1.37-4.34,2.12-6.5c0.96-2.76,1.99-5.5,2.9-8.27c0.17-0.52-0.07-1.18-0.11-1.77c-0.64,0.18-1.39,0.2-1.89,0.56
			c-1.09,0.78-2.06,1.74-3.31,2.83c-3.99-5.45-8-10.65-11.7-16.07c-2.33-3.42-0.85-6.65,3.21-7.29c5.41-0.86,10.86-1.57,16.31-2.11
			c2.06-0.2,4.14,0.22,6.07,1.3c3.46,1.93,6.71,4.11,9.38,7.06c6.56,7.24,8.27,15.7,5.99,25.02c-1.06,4.34-2.48,8.6-3.71,12.9
			c-0.25,0.86-0.38,1.75-0.61,2.78C400.63,225.91,404.77,225.67,408.41,222.34z M363.85,209.05c-0.3,1.03-0.36,1.7-0.67,2.23
			c-0.87,1.47-1.84,2.89-2.77,4.33c-1.18,1.83-2.92,0.91-4.47,0.92c-6.5,0.02-12.99,0.01-19.49,0.01c-5.67,0-11.34,0-17.02,0
			c-0.9,0-1.8,0-2.85,0c0.04-3.29,1.57-5.99,2.09-8.9c0.52-2.84,0.54-5.76,0.81-8.99C334.65,200.55,349.31,204.09,363.85,209.05z
			 M421.33,425.09c7.04-0.6,14.08-1.19,21.43-1.82c0.36,2.1,0.69,4.04,1.04,5.97c0.52,2.88,1.01,5.76,1.58,8.62
			c0.88,4.36-0.23,6.44-4.47,8.08c-6.35,2.45-12.95,2.86-19.7,2.54c-7.2-0.34-14.42-0.35-21.53-0.51c-0.71,2.51-0.47,2.91,1.43,2.87
			c1.19-0.03,2.38-0.15,3.56-0.06c2.13,0.17,3.62,1.3,4.1,3.43c0.32,1.41,0.55,2.89,0.51,4.32c-0.05,1.7,0.48,3.03,1.69,4.15
			c1.61,1.49,3.21,2.99,4.82,4.48c1.34,1.24,2.77,2.41,4,3.75c2.08,2.27,3.14,4.92,2.34,8.06c-0.38,1.47-0.04,2.67,1.11,3.66
			c4.77-4.71,4.32-11.39-0.99-15.09c-1.65-1.15-3.32-2.27-5.01-3.36c-2.78-1.8-4.47-4.26-4.8-7.6c-0.2-1.99-0.43-3.97-0.64-5.91
			c2.71-0.73,4.66-0.06,6.09,1.98c0.26,0.37,0.52,0.77,0.65,1.2c2.08,6.84,6.67,12.11,10.97,17.57c3.68,4.66,7.3,9.38,10.78,14.2
			c4.76,6.57,3.06,14.86-3.81,19.24c-1.15,0.73-2.35,1.39-3.69,2.18c-0.93-1.1-1.84-2.17-2.77-3.27c-2.81,2-5.48,3.89-8.15,5.8
			c-5.5,3.93-11.73,6.07-18.35,6.61c-10.89,0.88-21.57-0.7-31.77-4.61c-5.56-2.13-10.55-5.4-14.98-9.47
			c-4.93-4.52-7.38-10.19-7.79-16.72c-0.26-4.19-0.29-8.43,0.04-12.61c0.18-2.29,1.09-4.61,2.07-6.73c0.87-1.88,2.21-3.57,3.51-5.22
			c4.93-6.24,9.93-12.43,14.9-18.64c0.8-1,1.6-2.01,2.28-3.09c1.58-2.48,2.22-5.14,1.65-8.11c-1.87-9.66,4.38-17.96,14.09-19.13
			c3.42-0.41,6.83-1.28,10.13-2.28c3.98-1.2,7.96-1.52,11.88-0.33c3.48,1.06,6.93,2.38,10.16,4.02c3.24,1.64,5.09,4.88,7.68,7.71
			c-2.33,1.38-4.26,2.52-6.19,3.66C421.23,424.78,421.28,424.93,421.33,425.09z M281.33,310.84c1.84,3.1,1.23,6.39,0.91,9.61
			c-0.25,2.46-1,2.79-3.33,2.01c-4.23-1.41-7.1-3.9-7.42-8.77c-0.13-2.04-0.79-4.14-1.64-6.01c-1.38-3.03-1.42-5.97-0.29-9.35
			c4.72-0.61,7.52-3.64,9.92-7.26c1.26-1.9,2.57-3.79,4.07-5.49c1.33-1.5,2-1.39,3.34,0.13c0.6,0.68,1.1,1.46,1.55,2.25
			c2.77,4.73,5.52,9.48,8.28,14.22c0.39,0.67,0.85,1.3,1.6,2.46c0.3-3.48,0.55-6.34,0.82-9.47c0.67,0.4,1.22,0.66,1.68,1.02
			c2.71,2.17,5.42,4.35,8.09,6.57c0.91,0.76,1.78,1.59,2.53,2.51c2.45,2.97,2.52,5.95-0.29,8.55c-2.46,2.28-5.19,4.37-8.08,6.06
			c-3.82,2.23-6.84,1.04-8.69-3c-0.65-1.4-1.07-2.91-1.59-4.37c-1.27-3.57-3.28-6.32-7.38-6.87c-1.5-0.2-3.03-0.29-4.03,1.02
			C280.4,307.96,280.58,309.58,281.33,310.84z M275.92,282.97c1.15,2.53,0.39,4.63-1.51,6.43c-2.87,2.73-6.13,4.91-9.68,6.65
			c-6.18,3.02-12.79,4.29-19.59,4.69c-1.07,0.06-2.38-0.46-3.25-1.13c-2.19-1.69-4.57-2.95-7.05-4.15
			c-7.07-3.42-11.53-9.1-13.66-16.62c-0.47-1.67-0.84-3.37-1.18-5.07c-0.17-0.85-0.55-1.76,0.36-2.53c0.98-0.83,1.69-0.1,2.48,0.28
			c2.9,1.41,5.46,3.17,7.49,5.81c2.43,3.15,5.96,4.37,9.89,4.55c7.6,0.35,14.97-0.9,22.02-3.65c7.83-3.05,15.52-6.44,23.28-9.66
			c4.73-1.97,9.53-3.72,14.61-4.59c3.72-0.64,7.45-0.7,11.19-0.19c0.41,0.06,0.79,0.29,1.65,0.62
			c-12.77,5.82-25.13,11.46-37.57,17.13C275.6,282.14,275.73,282.57,275.92,282.97z M252.45,423.47c1.35-0.2,2.72-0.34,4.06-0.62
			c3.88-0.82,7.34-2.48,9.56-5.86c1.3-1.97,2.96-3.15,5.09-3.89c0.85-0.3,1.68-0.64,2.8-1.07c0.25,4.56-1.1,8.22-4.27,11.17
			c-5,4.63-10.89,7.63-17.53,9.09c-3.56,0.78-7.15,1.28-11.32,0.6C243.34,427.62,246.87,424.28,252.45,423.47z M246.51,419.92
			c2.09-4.67,3.82-9.58,6.95-13.6c3.36-4.31,4.44-3.81,8.01-0.23c0.94,0.94,1.31,2.12,1.31,3.49c0.01,4.89-2.59,8.58-7.27,10.16
			C252.28,420.84,249.22,420.93,246.51,419.92z M198.8,502.49c0.1-0.16,0.48-0.14,1.04-0.28c0.53,2.18-0.37,4.13-0.62,6.11
			c-0.25,1.97-0.55,3.93-0.89,6.37c0.95-0.29,1.64-0.3,1.96-0.65c0.73-0.79,1.46-1.67,1.88-2.65c1.91-4.55,3.71-9.14,5.57-13.71
			c0.68-1.67,0.98-3.38,0.38-5.08c-0.53-1.51,0-2.6,0.8-3.8c6.8-10.19,13.58-20.4,20.31-30.64c2.51-3.81,4.95-7.68,7.33-11.58
			c4.29-7.02,10.3-11.67,18.52-12.82c9.49-1.33,16.55-6.38,22.31-13.66c0.73-0.92,1.4-1.93,1.9-3c1.33-2.87,0.63-5.23-2.12-6.77
			c-1.33-0.75-2.85-1.19-4.32-1.67c-0.93-0.3-1.92-0.43-3.33-0.73c2.28-3.81,4.24-7.42,6.53-10.8c1.77-2.61,4.48-2.17,5.7,0.73
			c0.56,1.35,0.86,2.8,1.43,4.14c1.22,2.83,3.14,3.58,6,2.34c1.42-0.61,2.72-1.5,4.13-2.15c3.17-1.48,5.13-0.91,7.02,1.98
			c0.55,0.84,0.99,1.75,1.52,2.6c2.61,4.2,7,6.03,11.8,4.92c3.3-0.76,6.11-2.45,8.53-4.75c3.02-2.87,6.52-4.33,10.7-4.01
			c3.46,0.26,6.93,0.52,10.38,0.89c2.11,0.23,3.67,1.22,4.65,3.31c1.32,2.79,3.14,3.49,6.09,2.66c1.31-0.37,2.56-0.96,3.8-1.54
			c1.74-0.81,3.41-1.78,5.16-2.55c2.82-1.24,5.75-1.86,8.81-0.98c2.59,0.74,5.08,0.3,7.5-0.65c1.87-0.73,3.69-1.6,5.55-2.37
			c0.99-0.41,2-0.74,3-1.1c1.13,3.11,0.69,4.98-1.54,6.72c-0.71,0.56-1.51,1.07-2.36,1.37c-4.83,1.72-8.54,5.27-12.83,7.85
			c-0.45,0.27-0.92,0.73-1.07,1.2c-0.77,2.52-1.64,5.04-2.1,7.63c-0.37,2.1,0.28,4.17,1.42,6.02c0.53,0.85,1.1,1.67,1.8,2.72
			c-0.61,0.74-1.21,1.5-1.85,2.24c-4.36,5.05-8.81,10.04-13.08,15.18c-2.63,3.16-5.1,6.46-7.45,9.83
			c-10.4,14.94-5.6,32.95,6.12,42.7c8.55,7.12,18.44,11.42,29.4,13.22c6.04,0.99,12.1,1.85,18.15,2.78
			c1.08,0.17,2.15,0.39,3.46,0.64c0.39,1.35,0.83,2.72,1.2,4.11c1.16,4.43,2.24,8.89,4.75,12.8c1.16,1.82,3.17,3.57,4.43,5.29
			c-1.88,0.55-236.42,0.77-243.29,0.14C181.75,529.28,190.26,515.88,198.8,502.49z M95.83,543.89c0,24.29,0,48.69,0,73.04
			c-2.16,0.56-74.34,0.68-77.65,0.1c5.14-8.1,10.17-16.1,15.27-24.06c5.07-7.93,10.2-15.82,15.45-23.96
			c-10.24-16.37-20.49-32.74-30.96-49.47c41.37,0,82.17,0,122.98,0c0.05,0.11,0.09,0.23,0.14,0.34
			C126.1,527.82,111.16,535.75,95.83,543.89z M411.96,656.98c-19.05,9.53-38.99,16.49-59.75,21.3c-9.28,2.15-18.64,3.65-28.07,4.73
			c-11.19,1.29-22.44,1.5-33.7,1.23c-14.47-0.35-28.83-1.84-42.97-4.94c-21.94-4.82-43.17-11.79-63.27-21.96
			c-0.78-0.39-1.52-0.85-2.28-1.27c0.03-0.15,0.07-0.29,0.1-0.44c2.33,0,4.67,0.14,6.98-0.03c7.15-0.53,13.75,0.96,20.46,3.66
			c17.7,7.12,36.15,11.56,55.07,14.13c15.46,2.1,30.98,2.69,46.52,1.88c28.36-1.49,55.68-7.73,81.9-18.68
			c1.55-0.65,3.08-1.01,4.76-0.98c4.39,0.06,8.78,0.02,13.17,0.02c0.79,0,1.59,0,2.38,0c0.05,0.14,0.1,0.29,0.15,0.43
			C412.94,656.37,412.48,656.73,411.96,656.98z M492.53,648.29c-129.82,0-259.49,0-389.17,0c-0.59-1.83-0.79-93.99-0.18-97.86
			c129.72,0,259.46,0,389.35,0C492.53,583.11,492.53,615.62,492.53,648.29z M499.57,616.99c0-24.44,0-48.93,0-73.73
			c-15.01-7.78-29.98-15.53-44.96-23.29c0.03-0.16,0.06-0.32,0.08-0.47c40.77,0,81.54,0,122.8,0
			c-10.3,16.69-20.63,33.01-30.95,49.43c10.28,16.05,20.46,31.97,30.67,47.91C575.28,617.52,502.65,617.65,499.57,616.99z"/>
		<path class="st1" d="M239.18,594.85c-5.92,6.92-10.38,14.62-12.84,23.37c-1.03,3.66-1.81,7.52-1.85,11.31
			c-0.11,8.92,5.84,13.78,14.65,12.61c5.54-0.74,9.88-3.59,13.8-7.31c0.76-0.72,1.5-1.48,2.46-2.43c0.21,1.42,0.31,2.4,0.51,3.36
			c0.75,3.5,2.89,5.67,6.44,6.23c1.6,0.25,3.27,0.23,4.89,0.15c2.88-0.14,5.53-1.15,8.1-2.4c0.29-0.14,0.67-0.12,1.02-0.18
			c0.08,0.63,0.14,1.14,0.22,1.75c5.35,0,10.62,0,15.98,0c0.5-1.26,0.99-2.43,1.44-3.62c2.81-7.34,5.62-14.68,8.4-22.03
			c0.59-1.57,1.25-2.97,2.84-3.85c2.32-1.29,4.49-2.87,7.3-2.86c2.01,0.01,3.1,0.93,3.31,2.89c0.09,0.8,0.04,1.67-0.16,2.44
			c-0.49,1.85-1.08,3.67-1.68,5.49c-1.25,3.81-2.96,7.49-3.12,11.6c-0.23,6.16,2.92,9.83,9.03,10.57c6.06,0.73,11.42-0.77,16.04-4.8
			c0.8-0.7,1.64-1.35,2.47-2.03c4.32,6.69,9.54,8.6,17.02,6.41c4.24-1.24,7.73-3.68,10.84-6.73c0.75-0.74,1.49-1.49,2.65-2.65
			c0.1,1.22,0.14,1.82,0.2,2.42c0.43,4.37,2.66,6.79,7.01,7.5c4.52,0.74,8.72-0.35,12.67-2.48c1.68-0.9,3.23-2.04,5.12-3.25
			c0.16,0.26,0.33,0.6,0.55,0.89c2.25,2.93,5.3,4.4,8.91,4.81c8,0.9,15.25-1.05,21.63-5.95c4.15-3.19,6.69-7.5,7.72-12.6
			c0.59-2.95,0.87-5.97,1.2-8.96c0.91-8.17,1.77-16.36,2.65-24.53c0.33-3.05,0.69-6.1,1.07-9.4c-5,0.68-9.68,1.5-14.39,1.87
			c-2.29,0.18-3.3,1.19-4.22,3.09c-4.86,10.06-10.25,19.82-16.86,28.85c-0.95,1.29-2.21,2.39-3.46,3.4
			c-1.88,1.51-3.7,3.06-4.54,5.38c-0.92,2.55-1.63,5.16-2.56,8.12c-1.48,0.84-3.48,1.17-5.26-0.18c-1.86-1.4-1.33-3.44-0.76-5.31
			c0.62-2.01,1.3-3.99,2.05-5.95c4.28-11.18,8.58-22.36,12.86-33.54c0.25-0.65,0.4-1.33,0.66-2.23c-1.04-0.07-1.83-0.16-2.62-0.16
			c-3.02-0.02-6.07,0.25-9.05-0.07c-3.33-0.36-5.43,0.58-6.08,4.02c-0.02,0.13-0.17,0.23-0.33,0.45c-0.56-3.02-2.56-4.24-5.22-4.6
			c-1.53-0.2-3.1-0.38-4.63-0.28c-5.25,0.34-9.94,2.25-14.2,5.3c-3,2.15-5.53,4.75-7.82,7.64c-7.19,9.07-12.12,19.11-13.34,30.76
			c-0.11,1.01-0.42,1.8-1.29,2.25c-1.12,0.58-2.26,1.29-3.47,1.52c-4.36,0.83-6.11-1.22-4.7-5.43c0.93-2.77,2.19-5.44,3-8.24
			c0.72-2.52,1.39-5.15,1.45-7.75c0.12-5.84-3.69-9.56-9.54-9.79c-1.03-0.04-2.07-0.01-3.1-0.01c-0.03-0.15-0.07-0.29-0.1-0.44
			c7.78-4.97,15.56-9.93,23.34-14.9c-2.87-0.45-5.58-0.39-8.29-0.48c-1.55-0.05-2.81,0.41-4.05,1.31c-2.89,2.09-5.85,4.08-8.78,6.12
			c-4.42,3.08-8.83,6.17-13.24,9.26c-0.21,0.15-0.41,0.3-0.62,0.45c0.06-0.3,0.12-0.59,0.19-0.89c1-2.84,1.94-5.7,3.01-8.51
			c3.59-9.39,7.22-18.76,10.83-28.15c0.27-0.7,0.4-1.45,0.7-2.57c-5.96,0.78-11.45,1.49-16.96,2.21c-0.66,1.79-1.24,3.43-1.86,5.04
			c-7.69,19.95-15.42,39.9-23.05,59.87c-0.82,2.16-2.26,3.21-4.33,3.72c-3.42,0.85-5.41-0.8-5.09-4.25c0.08-0.81,0.26-1.63,0.51-2.4
			c0.53-1.65,1.1-3.29,1.72-4.91c4.28-11.18,8.58-22.35,12.87-33.53c0.31-0.81,0.55-1.65,0.87-2.6c-5.6,0-10.88,0-16.17,0
			c-0.6,1.28-1.16,2.46-1.95,4.14c-0.96-3.34-3.17-4.12-5.74-4.57c-2.87-0.5-5.67-0.21-8.42,0.49
			C248.97,585.82,243.65,589.62,239.18,594.85z M403.7,626.29c4.04-1.15,5.16-5.81,2.69-9.51c4-6.5,7.99-12.99,12.13-19.7
			c0,1.2,0.07,2.23-0.01,3.24c-0.48,5.72-0.94,11.45-1.51,17.16c-0.26,2.53-0.52,5.11-1.23,7.53c-1.62,5.56-6.31,8.61-12.09,8.15
			c-1.78-0.14-3.42-0.61-4.33-2.57C400.44,628.85,401.15,627.02,403.7,626.29z M357.88,613.69c2.73-7.14,6.25-13.81,11.58-19.4
			c1.75-1.83,3.77-3.17,6.27-3.68c3.69-0.74,6.07,1.78,4.76,5.28c-3.42,9.05-6.94,18.07-10.53,27.05c-1.14,2.86-3.24,5.07-5.85,6.72
			c-0.61,0.39-1.27,0.73-1.95,0.99c-4.44,1.71-7.25-0.29-7.11-4.36C355.34,621.5,356.41,617.54,357.88,613.69z M242.9,618.82
			c2.59-9.18,6.67-17.57,13.27-24.59c1.74-1.85,3.8-3.15,6.3-3.64c3.63-0.71,5.97,1.92,4.65,5.37c-3.42,8.96-6.89,17.9-10.44,26.8
			c-1.25,3.14-3.56,5.49-6.47,7.23c-0.16,0.09-0.31,0.19-0.48,0.27c-4.95,2.51-8.08,0.54-8.13-5.01
			C242.03,623.1,242.31,620.92,242.9,618.82z"/>
		<path class="st1" d="M178.24,596.11c-0.98-6.97,0.85-13.37,4.39-19.32c3.69-6.22,11.37-12.44,15.52-12.6
			c-0.48,1.43-0.89,2.82-1.41,4.16c-3.64,9.47-7.31,18.93-10.97,28.38c-5.42,13.97-10.85,27.94-16.26,41.92
			c-0.32,0.81-0.55,1.66-0.87,2.64c5.63,0,10.9,0,16.24,0c0.38-0.94,0.74-1.77,1.07-2.62c4.82-12.44,9.63-24.89,14.44-37.33
			c1.31-3.39,1.31-3.39,4.93-3.39c0.37,0,0.73,0,1.1,0.03c2.91,0.26,4.5,1.86,4.64,4.76c0.05,0.99,0,2.04-0.28,2.98
			c-0.81,2.8-1.6,5.63-2.68,8.33c-2.25,5.59-4.77,11.08-7,16.68c-0.83,2.09-1.4,4.37-1.61,6.61c-0.32,3.36,1.15,5.05,4.51,5.77
			c4.82,1.03,9.34-0.5,14.08-1.44c-2.95-3.98-3.28-5.9-1.69-10.62c0.76-2.25,1.71-4.43,2.6-6.63c2.03-4.99,4.13-9.96,6.08-14.98
			c1.06-2.74,1.61-5.62,1.46-8.59c-0.13-2.42-1.11-4.34-2.98-5.93c-2.09-1.77-4.56-2.23-7.13-2.38c-1.78-0.1-3.57-0.02-6.04-0.02
			c1.31-1.28,2.13-2.09,2.96-2.89c11.07-10.65,22.15-21.3,33.21-31.97c0.46-0.45,0.81-1.02,1.46-1.83c-3.4,0-6.33,0.11-9.23-0.04
			c-1.74-0.09-2.9,0.53-4.03,1.78c-5.01,5.57-10.1,11.08-15.17,16.61c-4.45,4.85-8.91,9.7-13.37,14.54
			c-0.35,0.38-0.7,0.76-1.05,1.13c-0.12,0.06-0.24,0.12-0.36,0.18c0.05-0.13,0.1-0.25,0.15-0.38c0.06-0.28,0.12-0.56,0.18-0.83
			c4.25-10.95,8.5-21.91,12.86-33.16c-1.28-0.16-2.16-0.37-3.04-0.35c-2.1,0.05-4.21,0.09-6.29,0.36
			c-13.88,1.81-25.56,7.88-34.81,18.42c-3.13,3.57-5.15,7.69-5.83,12.49C167.23,592.03,170.48,597.42,178.24,596.11z"/>
		<path class="st1" d="M281.16,478.88c2.72-5.57,5.45-11.13,8.15-16.71c0.51-1.06,1.02-2.15,1.34-3.28
			c0.75-2.68,0.78-5.34-0.64-8.11c-0.38,0.57-0.66,0.92-0.86,1.32c-2.91,5.98-5.72,12.02-8.73,17.95
			c-1.73,3.41-2.08,6.92-1.62,10.81C280.48,481.04,280.7,479.81,281.16,478.88z"/>
		<path class="st1" d="M312.27,277.59c-1.71,0.27-2.02,1.31-1.73,2.78c0.47,2.5,0.86,5.01,1.31,7.51c0.27,1.49,0.6,2.96,0.91,4.49
			c3.31-1.49,4.74-3.49,4.29-6.35C316.5,282.66,315.37,279.52,312.27,277.59z"/>
	</g>
</g>
</svg>
