<svg xmlns="http://www.w3.org/2000/svg" viewBox="0 0 561.21 645.23"><defs><style>.cls-1{fill:#e6e6e6;}.cls-1,.cls-2,.cls-3{stroke:#000;stroke-miterlimit:10;}.cls-1,.cls-2{stroke-width:2px;}.cls-2,.cls-7{fill:#fff;}.cls-3{fill:#511b0f;stroke-width:3px;}.cls-4{fill:#f6b4b5;}.cls-5{fill:#cdcdcd;}.cls-6{fill:#c7914b;}</style></defs><title>palacsintazo_1</title><g id="Réteg_2" data-name="Réteg 2"><g id="Réteg_1" data-name="Réteg 1"><ellipse class="cls-1" cx="289.88" cy="536.92" rx="270.33" ry="107.31"/><ellipse class="cls-2" cx="287.65" cy="551.25" rx="195.74" ry="77.13"/><path d="M305.21,430.39c1.76-23.76-4-45.33-12.56-66.45,4.75-.55,8.58-.64,12.24-1.48,32-7.34,52-29.26,66.47-56.76,15.6-29.57,19.73-61.26,14.47-94.3-3.44-21.64-11.23-41.12-28.71-55.05-35.4-28.2-75.23-32.88-116.78-17.49C202,153.07,174.54,188.43,191,238c7.72,23.27,16.52,46.19,25.27,69.1,9.32,24.43,18.73,48.84,21.34,75.08,1,10,.16,20.17.16,30.55-17.7-.95-28.23,11.75-42.22,17.24-1.33-5.05-2.62-9.54-3.69-14.08-1.61-6.84-2.68-13.25-.94-20.79,3.12-13.44.29-26.55-9.33-37.47-2.21-2.51-4.74-5.33-5.52-8.41-12.48-49.08-24.69-98.22-37-147.35-1.75-7-3.61-14-5.46-21.14-6.93,2-12.92,3.77-18.91,5.5-13.1,3.78-18.87,11.48-15.82,24.92,8,35.23,16.75,70.29,25.7,105.29,1.94,7.57,6.08,15.26,14.45,17.17,6.22,1.41,6.94,4.67,7.16,9.39-23.31,11-31.42,35.73-26.72,51.25,5.66,18.64,22.08,27.86,47.54,26.06l2.69,10.25c-14.48.28-23.6,8-32.87,19.37,62.11-15.46,125.44-20.05,186.92-17.09l2.38-1.69C320.75,430.92,310.79,430.31,305.21,430.39ZM187.68,393.15c-.94-2.83-1.5-4.26-1.89-5.73-1.6-6.06-1.53-12.53-7.9-16.84-2.56-1.74-3-6.66-4.73-11.06C184.66,362,190.24,375.64,187.68,393.15Zm-58.56,11.36c-9.36-11.5-9.3-24.1-3.07-36.95,4.4-9.06,10.75-16.37,20.42-20.16,6.2-2.43,9.13-.6,10,6.11a17.08,17.08,0,0,1,.24,5.32c-3.4,17.3,2.9,33.2,6.93,49.44.63,2.54,1.25,5.09,2,8C151,418.76,138.52,416,129.12,404.51Zm20.81,40.62c8.95-8.06,17.58-9.9,28.23-5.81Zm26-13.61c-1.28-.22-2.69-2.67-3.14-4.33q-6.56-23.87-12.68-47.83c-.59-2.28-.19-4.83-.12-7.26.19-5.56.95-11.17.5-16.68-.29-3.59-1.45-9.29-3.7-10.14-7.44-2.8-8.17-9.07-9.88-15.3-7,2.56-11.35-1-14.67-6.16a33.67,33.67,0,0,1-4.69-9.55c-8.49-33.93-17-67.88-25-101.92-3-12.69,1.51-19.41,13.88-23,4.67-1.34,9.37-2.61,14.77-4.11,3.5,13.81,7,27.35,10.36,40.9q15.16,60.65,30.32,121.28c1,4,1.67,7.5-.5,11.87-1.39,2.8-.33,8.68,1.89,11.07,8.19,8.79,9.17,20,11.84,30.63,2.48,9.89,4.41,19.91,7,31.9C186,432.47,180.9,432.37,175.9,431.52Zm123-2.47-98.15,5.67c13.5-6.29,23.84-19.3,41-14.83,4.79-17.35,3.39-34.38.22-51.34-5.72-30.69-18.63-59-29.43-88-6.29-16.9-12.21-34-17.4-51.24-9.83-32.75,4.75-57.86,28.14-74.6,39.14-28,101.93-22.47,135.36,11.33,12.85,13,18.27,29.12,21.06,46.69,5.44,34.33.46,66.94-17.29,96.78-12.66,21.27-29.33,39.1-54.48,45.78-7.58,2-15.75,1.8-24.74,2.72C293.31,380.61,301.15,403.89,298.86,429.05Z"/><path class="cls-3" d="M485.36,463.72a94.22,94.22,0,0,0-34.81-14.78c-8.49-1.79-18.07.45-25.38-6.4-.67-.62-2.71.31-4.12.36-1.64.05-3.29-.07-4.93-.11l2.31,3.09c-5.79,5.39-7,5.12-11.63-2.95,1.63,0-6-2.38-4.63-2.38-8.59-4.18-8.16-6-16.76-10.15l.08-.32-4.71-2h0l-17-3.51.12-.34-9.41.44c-5.16,1.07-11.17.48-15.32,3a26.2,26.2,0,0,1-13,3.84l-1.39,1.12h.23l-3.4,2.54h0c-2.87,2.14-5.68,4.25-8.52,6.33-11.11,8.11-21.32,18.29-33.62,23.69-11.39,5-14.39,10.91-28,9.37-1.47-.16,13.45-1.24,11.88-.51,4.73-.51-16.2,1.86-11.47,1.35l.66,2.2c-4.69,2-9.21,4.74-14.11,5.88C228,486,218.87,489.6,211.6,498.34c-3.47,4.17-10.53,5.13-15.09,8.66-9.29,7.2-23.22,4.75-30.83,15.65-2,2.88-6.74,4.28-10.5,5.44-7.68,2.37-16.79,2.29-23.09,6.53C120.82,542.19,107,542,95.84,548.85c-.91.55-1.68,2.39-3.6,3.12,1,1,0,3.89-.33.25-2,.85,1-1.28-.85-.18s-2.84.16-4.46,1.12c-5.91,3.5-12.2,6.37-18.1,9.9-1.48.89-3.28,4-2.78,5,1.71,3.49,4.2,9.05,6.69,9.21,7.15.45,11.22,5.82,17,8.07A17,17,0,0,1,100,596.13c.91,2.53,3.76,4.71,6.22,6.26a36.55,36.55,0,0,0,27,4.56c5,3.77,7.95,7.53,11.69,8.6,12.54,3.57,25.22,7.65,38.1,8.82,19.67,1.77,39.55,1.07,59.32,1.83,9.26.36,18.48,2.4,27.72,2.44,15.75.08,31.52-.63,47.26-1.39,7.26-.36,14.48-1.64,21.71-2.5l-37.42,1.86c1-7.71.93-7.76-14.29-8.21l5.73,2.78-1.2,2.58-29.77-5c-.11.67-.23,1.34-.35,2,1.49,1,3,1.91,5.27,3.4H238.61c1.81-.9,3.2-1.53,4.52-2.27,6.2-3.47,13.43-5.89,18.37-10.67,14.2-13.72,33.49-14.85,50.38-21.81,2.15-.89,5.44.88,8.18,1.54,3.63.88,7.22,2.49,10.86,2.6,2.16.06,4.39-2.16,6.59-3.36-1.43-1.64-2.78-3.35-4.31-4.9a22.76,22.76,0,0,0-3.59-2.28c2.34-1.43,3.88-2.48,5.51-3.34,2-1,4.06-1.84,6-2.9,6.65-3.63,13.33-7.22,19.87-11,7.29-4.26,14.3,3.59,21.57.32,1.29-.59,3-.31,5.14-.48-1.23-8.09-9.31-3.87-13.26-8.62l23-21.87c7.34,8.44,27.55,10.79,39.82,3.61-5.27-2.39-9.5-4.22-13.64-6.22a59.41,59.41,0,0,1-5.33-3.22c1.21-1.58,2.13-3.59,3.69-4.69,7.46-5.24,15.08-10.26,22.7-15.29a40.44,40.44,0,0,1,4.66-2.32c4.24-3.76,8.31-7.72,12.73-11.25,7.84-6.26,16.06-12.05,23.76-18.46C489.74,474,489.13,466.35,485.36,463.72Zm-77.5-12.65-35.4,21.38c-12.34-13.26-21.33-29.87-38.47-38.11C347.9,419.22,397.1,429.85,407.86,451.07ZM406,494.9l-23.78-19.44C393.22,474.17,407.11,484.51,406,494.9Zm-63.9-48c8.45,8.39,15.82,17.86,23.39,26.54a16.53,16.53,0,0,1-1.29,2.22c-11.08,10.85-12.4,10.67-24.71-.53-2.93-2.67-6.35-5.12-6-10.32.13-1.71-3.19-4-5.34-5.48-5.86-4-11.94-7.61-17.86-11.33C320.32,437.8,332,436.87,342.1,446.89Zm-6.69,103.59a86.23,86.23,0,0,0-34.91-33.36c7.68-7,16.92-7,26.14-5,6.16,1.38,11.88,3.7,15.44,10.35,2.38,4.44,7.31,7.7,11.5,11,9.15,7.12,8.53,17.57-1.59,22.69-3.19,1.62-6.37,3.22-9.52,4.9s-6.23,3.41-10.85,4.18c1.35-2,3.36-3.81,3.87-6C336.16,556.42,336.71,552.69,335.41,550.48Zm-4.59.48-1.49,1.26q-6.19-7.4-12.37-14.8l1.26-1.18ZM346,509.12l-19.42-5.05.47-1.7,19.38,5.37ZM338.87,490c-5.72,6.47-10.84,6.39-15.79-.4-9-12.34-19.41-22.54-36.38-23.84C298.22,458.69,328.16,473.09,338.87,490Zm-67.58-15.85c3-.44,7.57,2,9.79,4.56,8,9.22,15.28,19,23.28,29.2L293.58,518c-11.3-16.24-22.42-31.45-42.39-35.85-.2-.71-.39-1.42-.59-2.12C257.48,478,264.26,475.17,271.29,474.17Zm9.91,42.35c.67,1.81-.21,4.2-.45,7.19-6.46-8.05-11-15.34-17.1-20.82s-14-9.23-20-13.05C258.64,490.14,275.59,501.45,281.2,516.52Zm-53-20.93c14.46-.29,33.69,17.56,35.11,32.14.16,1.69-1.8,3.57-3.47,6.65-10-20-27-27.49-45.44-35C219,498.07,223.54,495.69,228.16,495.59ZM244,538.31l-11.74,8.53c-9.61-14.43-20.2-28.18-38.08-33.53C215.33,511.12,235.8,521.57,244,538.31ZM192.32,521c10.42,4,20.17,8.3,25.64,18.88,1.72,3.32,4.08,6.3,6.08,9.34-.43.63-.6,1.14-.93,1.3-4.72,2.26-9.71,6.58-14.13,6.07-4-.45-7-6.67-11.06-9.53-4.66-3.29-9.9-5.78-15-8.4-2.35-1.2-5.06-1.69-7.46-2.82-4.41-2.08-8.72-4.4-13.7-6.94C171.3,521.68,180.29,516.35,192.32,521Zm55.45,70.28c-13.19-7.73-28-16.43-43.41-25.48C219.06,557.4,237.81,573.26,247.77,591.23Zm-47.86-28.64c-10.21,3-46.21-14.71-56.81-27.57C156.7,532.27,192,549.2,199.91,562.59Zm-57-18.13a165,165,0,0,1,17.8,12.95c6.52,5.45,13.23,9.78,22.19,9,.73-.07,1.51.49,2.33.78-2.43,6.23-5.87,8-11.29,3.81q-8.41-6.54-17-12.89c-3.19-2.36-6.54-4.48-9.82-6.71l-1.6,1.91,6.07,7.5-30.37-17.26C130.88,538.4,133,538.22,142.88,544.46Zm42.18,47.39c1.17,2.48,3.18,4.38,8.07,3.08,3.45-.92,8.81,5.29,13.31,8.32L204.87,605c-10.12-3.88-20.34-7.52-30.29-11.78-2.44-1-4-4.09-5.3-7C175.47,586.32,181.68,584.68,185.06,591.85Zm-64.95,13.21c-8.06-3.07-17.74-4-20.21-15-.46-2-3.49-3.63-5.59-5-5.24-3.51-10.62-6.81-16-10.19l1.22-2c9.86,5.65,19.71,11.32,29.6,16.91,1.52.86,3.31,2,4.9,1.85,7.78-.57,7.24,7,10.69,10.56C123.19,603.18,121.14,605.45,120.11,605.06Zm10.44-1.14c-2.81-6.74-4.29-13.53-8.09-18.57-4.72-6.27-10.69-12.7-20.41-8.6a2.51,2.51,0,0,1-1.89-.17c-8.36-4.26-16.69-8.58-26.82-13.8,11.57-5.41,21.53-10.79,32.06-14.6,4.11-1.49,10-.54,14.21,1.24,7.53,3.15,14.63,7.48,21.55,11.9,8.78,5.59,17.19,11.77,26.06,17.9L165,583.89c-10-1.67-14.6,1.21-13.55,8.86-1.82.56-4,2-5.51,1.53-5.26-1.86-6.61,1.81-8.36,5.12C135,604.28,135.06,604.3,130.55,603.92Zm39.3,16.56c-8.44-1.74-16.61-4.82-24.84-7.51-4.09-1.33-6.15-4.12-5.44-8.69.67-4.26,2.77-5.61,7.21-6.75,9.56-2.44,18.39-1.5,27.52,1.4,6.69,2.13,13.63,3.46,20.22,6.14-12.25-2.36-24.51-4.69-36.75-7.11-5.78-1.14-7.56-.32-9.07,3.79,4.91.42,10.06.72,15.15,1.48.78.12,1.23,2.41,2.47,5l-14.26-1.63-.44,2.46,32.5,8c0,.78.06,1.56.08,2.34C179.4,619.89,174.38,621.41,169.85,620.48Zm61.57,2c-14.18,1-28.52-.09-42.79-.32-.56,0-1.12-.5-2.29-1l23.8-14.7c-.76-1.61-1.31-5.3-3.41-6.79-9.11-6.44-18.67-12.23-26.75-17.41,7.79,2,16.58,9.38,29.13,5.32l-23.48-12c3.9-4.58,9.76-5.16,15.11-1.65,3.16,2.06,5.83,4.85,8.87,7.1,7.13,5.27,14.38,10.37,21.51,15.64,2.66,2,5.61,3.81,7.6,6.36C246.78,613.32,244.09,621.6,231.42,622.53Zm36-19c-5.67,4.52-11.58,8.76-19.44,14.68.54-20.6-15-26-26.8-34.59,14.46,5.08,27.89,11.26,32.82,28.23,8.93-7.89,9.08-8.06,4-17.44-8.31-15.44-19.4-28.23-35.36-37.55,3.86.29,8-.27,11.54,1,14.9,5.38,26.65,15.18,35.86,27.92C275.32,593,274.42,598,267.45,603.51Zm23.13-10.25,19.73-10.34C309.57,587.83,305.42,589.85,290.58,593.26Zm9.9-9c-1.86,1-3.75,2-5.63,3,0,.11,0,.21-.05.33l-.15-.23,0,0-15.95,7.89c-2.91-26.74-24.61-34.45-42.81-45.56,4.65-4.61,9.78-6.07,16.53-4.53,19.26,4.38,32,15.72,37.89,34.77.82,2.67,2.85,5,4.37,7.41l.2-.1c2.75-13.17-3.59-23.4-12.36-31.59-7.31-6.83-16.56-11.57-24.46-16.9,10.09-6.84,19.57-6.65,29.63,2.46,6.56,5.93,13.1,12.15,18.32,19.22C313.83,571.08,311.83,577.82,300.48,584.21ZM284.25,529c11.13-2.14,18.56,3.2,23.29,10.87,5.53,9,9.22,19.09,13.36,28.86.61,1.45-.69,3.71-2,5.51C316.43,552.3,301.61,540.31,284.25,529Zm49.81,47.94c-4.43,1.69-10.35-.67-12.95,5.7-.09.22-3.21-.8-4.92-1.23L316,579.3c13.34-7.15,26.6-14.45,40.11-21.26,1.73-.87,4.74.8,7.15,1.29.08.84.16,1.68.25,2.52C353.76,567,344.32,573,334.06,576.94Zm40.82-24.36c-1.47-4.34-1.39-4.41,10.51-9.08Zm23.25-20.42c-11,5.88-22.1,11.43-33.07,17.06l-2.09-19,.7-.18c1,5,2.06,9.92,3.27,15.7,1.4-1.15,2.5-1.59,2.55-2.14,1.11-10.94,1.57-21.66-6.58-30.76-2.28-2.54-3.06-6.36-5-9.29A25.81,25.81,0,0,0,352,497c-1.85-1.38-4.48-1.73-7.79-2.89,9.06,0,17.16-.71,25,.3,4,.51,8,3.65,11.23,6.46,6.37,5.53,12.18,11.71,18.3,17.53C402.87,522.24,402.8,529.65,398.13,532.16Zm-.75-23.32a31,31,0,0,1-8.49-8.41c-7.32-11.49-17.83-15.44-32.44-13.93,12.17-8,19.2-7.57,30.22.89,12.79,9.81,20.12,23.39,26.76,38.27l-7.1,3.43C408.76,519.22,404.25,513.59,397.38,508.84Zm22.08,29.23-14.59-3.18-.32-1.85,7.81-3.92Zm60.47-58.75q-24.68,18.94-49.71,37.42c-3,2.19-6.4,3.71-9.65,5.55l-8.87-18.51c6.56-4,6.83-10.12,3.09-17.14l5.15-1.7c-5.59-11-14.95-16.4-25.64-20.26,15.56-15.72,34.52-17.94,54.44-13.12a120.22,120.22,0,0,1,30.73,12.09C488.45,468.73,488,473.1,479.93,479.32Z"/><path d="M355.13,424.58l-.6.12,9.41-.44,2-5.65-3.33-1.43c-.49,1.31-1,2.62-1.66,3.94C360.13,422.83,357.27,424.07,355.13,424.58Z"/><path d="M377.5,386c.58-1.6,2-2.86,3-4.35,1.54-2.44,4.11-4.85,4.29-7.41.87-12.46,6.05-23.55,10-35.06.61-1.8-.43-4.33-1.13-6.37-6.52-19-4.41-37.15,6.42-53.87a229.75,229.75,0,0,1,24.69-31.41l-14.9,44.71,8,4.76,19.3-37,1.13.42c-4,13.53-8,27.06-12.12,41.24,3,.85,5.69,1.56,8.36,2.42,4.06,1.29,6.35.3,8.07-4.06,5-12.57,10.51-24.93,15.82-37.37l1.6.44c-2.35,19.35-2.18,39.22-12.78,56.8-6.18,10.24-14.78,17.79-25.27,23.34-.79.42-1.62.77-2.36,1.26-5.78,3.86-9.16,10.7-17.22,12.17-2.09.38-4.68,8-4,11.81,3.77,21.69-8.66,38.73-15,57.8l4.16,2c21.48,3,39.28-2.59,47.09-24.33,7.37-20.54-3.34-36.1-19.59-50.25,2.58-2.31,4.7-5,7.48-6.53,17.8-9.59,31-23.36,35-43.38,4.16-20.7,6.27-41.82,9.22-62.76,0-.22-.62-.53-2-1.6-1.08,2.18-2.16,4.11-3,6.14-7.08,16.62-14.27,33.2-21.06,49.95-2.08,5.12-4.63,6.52-9.95,3.29q9.27-31.65,18.6-63.45l-2.9-1.05-29.94,57.62-2.45-1.06,20.65-62.24c-2.87,1.14-3.67,1.2-4,1.63-11,15.14-22.45,30-32.93,45.56-11.49,17-14.83,35.89-8.1,55.56,2.44,7.14-.4,12.59-2.64,18.46s-2.73,13.37-11.3,14.73c-1.47.23-3,1.95-4,3.34-7.41,10.26-10.9,22-8.07,34.16a25.35,25.35,0,0,1-1.17,15.17l3.33,1.43C369.8,407.6,373.6,396.75,377.5,386Zm55.24,11.89c-1.83,13.37-14.47,25.53-28.56,27-4.95.52-10,.08-17,.08,5.68-11.94,10.68-22.14,15.33-32.5.91-2,.62-4.67.56-7-.17-6.67-1.06-13.36-.64-20,.47-7.44,4-9.09,10.94-6.16C426.16,364.69,434.9,382.06,432.74,397.84ZM381,366.62l2,1.07c-1.79,3.8-2.8,8.34-5.57,11.2-3.22,3.34-5.34,6.29-5.6,11.1-.19,3.62-2.09,7.14-3.42,11.27C363.49,389.25,370.83,369.93,381,366.62Z"/><path class="cls-1" d="M416.12,442.79l2.31,3.09c-5.79,5.39-7,5.12-11.63-2.95-2.67-5.17,3.28-1.59,4.66-1.59C413.1,441.29,414.48,442.84,416.12,442.79Z"/><path class="cls-4" d="M283.18,358c10.13,22.61,18,45.89,15.68,71.05l-98.15,5.67c13.5-6.29,23.84-19.3,41-14.83,4.79-17.35,3.39-34.38.22-51.34-5.72-30.69-18.63-59-29.43-88-6.29-16.9-12.21-34-17.4-51.24-9.83-32.75,4.75-57.86,28.14-74.6,39.14-28,101.93-22.47,135.36,11.33,12.85,13,18.27,29.12,21.06,46.69,5.44,34.33.46,66.94-17.29,96.78-12.66,21.27-29.33,39.1-54.48,45.78C300.33,357.3,292.16,357.08,283.18,358Zm46.72-50.22c7.07-20.38,11-40.37,8.79-61.11-1.55-14.27-6.45-27.44-17.51-37.3-15.07-13.43-32.52-17-51.67-10.78-16.28,5.3-22.57,17.56-24.3,34-3.12,29.65,4.31,56,22.11,79.94,10.4-4.3,20.6-8.74,31-12.65a14.65,14.65,0,0,1,8.77-.19C314.69,302,322.08,305,329.9,307.78ZM231.12,219.6c6-27,27-37.41,52-45.64C243.81,169.36,226.55,187.45,231.12,219.6Zm70.78-43.19c18.21,4.16,32.83,10.68,38.93,28.6C342.54,180.68,325.41,170.37,301.9,176.41Z"/><path class="cls-5" d="M146.88,330c-7,2.56-11.35-1-14.67-6.16a33.67,33.67,0,0,1-4.69-9.55c-8.49-33.93-17-67.88-25-101.92-3-12.69,1.51-19.41,13.88-23,4.67-1.34,9.37-2.61,14.77-4.11,3.5,13.81,7,27.35,10.36,40.9q15.16,60.65,30.32,121.28c1,4,1.67,7.5-.5,11.87-1.39,2.8-.33,8.68,1.89,11.07,8.19,8.79,9.17,20,11.84,30.63,2.48,9.89,4.41,19.91,7,31.9-6.07-.46-11.2-.56-16.2-1.41-1.28-.22-2.69-2.67-3.14-4.33q-6.56-23.87-12.68-47.83c-.59-2.28-.19-4.83-.12-7.26.19-5.56.95-11.17.5-16.68-.29-3.59-1.46-9.29-3.7-10.14C149.32,342.48,148.59,336.21,146.88,330Z"/><path class="cls-5" d="M460,263.08c-2.35,19.35-2.18,39.22-12.78,56.8-6.18,10.24-14.78,17.79-25.27,23.34-.79.42-1.62.77-2.36,1.26-5.78,3.86-9.16,10.7-17.22,12.17-2.09.38-4.68,8-4,11.81,3.92,22.54-9.66,40.05-15.68,60l-18.87-3.9c4.61-13.09,9.07-25.9,13.68-38.65.58-1.6,2-2.86,3-4.35,1.54-2.44,4.11-4.85,4.29-7.41.87-12.46,6.05-23.55,10-35.06.61-1.8-.43-4.33-1.13-6.37-6.52-19-4.41-37.15,6.42-53.87a229.75,229.75,0,0,1,24.69-31.41l-14.9,44.71,8,4.76,19.3-37,1.13.42c-4,13.53-8,27.06-12.12,41.24,3,.85,5.69,1.56,8.36,2.42,4.06,1.29,6.35.3,8.07-4.06,5-12.57,10.51-24.93,15.82-37.37Z"/><path class="cls-6" d="M420.57,522.29l-8.87-18.51c6.56-4,6.83-10.12,3.09-17.14l5.15-1.7c-5.59-11-14.95-16.4-25.64-20.26,15.56-15.72,34.52-17.94,54.44-13.12a120.22,120.22,0,0,1,30.73,12.09c9,5.08,8.57,9.45.46,15.67q-24.68,18.94-49.71,37.42C427.27,518.93,423.82,520.45,420.57,522.29Z"/><path class="cls-6" d="M73.34,562.78c11.57-5.41,21.53-10.79,32.06-14.6,4.11-1.49,10-.54,14.21,1.24,7.53,3.15,14.63,7.48,21.55,11.9,8.78,5.59,17.19,11.77,26.06,17.9l-2.17,4.67c-10-1.67-14.61,1.21-13.56,8.86-1.82.56-4,2-5.51,1.53-5.26-1.86-6.61,1.81-8.36,5.12-2.59,4.88-2.56,4.9-7.07,4.52-2.81-6.74-4.29-13.53-8.09-18.57-4.72-6.27-10.69-12.7-20.41-8.6a2.51,2.51,0,0,1-1.89-.17C91.8,572.32,83.47,568,73.34,562.78Z"/><path class="cls-4" d="M165.6,416.27c-14.62,2.49-27.08-.23-36.48-11.76s-9.3-24.1-3.07-36.95c4.4-9.06,10.75-16.37,20.42-20.16,6.2-2.43,9.13-.6,10,6.11a17.08,17.08,0,0,1,.24,5.32c-3.4,17.3,2.9,33.2,6.93,49.44C164.27,410.81,164.89,413.36,165.6,416.27Z"/><path class="cls-4" d="M387.15,424.93c5.68-11.94,10.68-22.14,15.33-32.5.91-2,.62-4.67.56-7-.17-6.67-1.06-13.36-.64-20,.47-7.44,4-9.09,10.94-6.16,12.82,5.41,21.56,22.78,19.4,38.56-1.83,13.37-14.47,25.53-28.56,27C399.23,425.37,394.18,424.93,387.15,424.93Z"/><path class="cls-6" d="M407.86,451.07l-35.4,21.38c-12.34-13.26-21.33-29.87-38.47-38.11C347.9,419.22,397.1,429.85,407.86,451.07Z"/><path class="cls-6" d="M209.11,587.59l-23.48-12c3.9-4.58,9.76-5.16,15.11-1.65,3.16,2.06,5.83,4.85,8.87,7.1,7.13,5.27,14.38,10.37,21.51,15.64,2.66,2,5.61,3.81,7.6,6.36,8.06,10.3,5.37,18.58-7.3,19.51-14.18,1-28.52-.09-42.79-.32-.56,0-1.12-.5-2.29-1l23.8-14.7c-.76-1.61-1.31-5.3-3.41-6.79-9.11-6.44-18.67-12.23-26.75-17.41C187.77,584.24,196.56,591.65,209.11,587.59Z"/><path class="cls-6" d="M300.5,517.13c7.68-7,16.92-7.05,26.14-5,6.16,1.38,11.88,3.7,15.44,10.35,2.38,4.44,7.31,7.7,11.5,11,9.15,7.12,8.53,17.57-1.59,22.69-3.19,1.62-6.37,3.22-9.52,4.9s-6.23,3.41-10.85,4.18c1.35-2,3.36-3.81,3.87-6,.67-2.8,1.22-6.53-.08-8.74A86.14,86.14,0,0,0,300.5,517.13Z"/><path class="cls-6" d="M365.06,549.22l-2.09-19,.7-.18c1,5,2.06,9.92,3.27,15.7,1.4-1.15,2.5-1.59,2.55-2.14,1.11-10.94,1.57-21.66-6.58-30.76-2.28-2.54-3.06-6.36-5-9.29A25.81,25.81,0,0,0,352,497c-1.85-1.38-4.48-1.73-7.79-2.89,9.06,0,17.16-.71,25,.3,4,.51,8,3.65,11.23,6.46,6.37,5.53,12.18,11.71,18.3,17.53,4.09,3.89,4,11.3-.65,13.81C387.17,538,376,543.59,365.06,549.22Z"/><path class="cls-6" d="M161.75,528.85c9.55-7.17,18.54-12.5,30.57-7.9,10.42,4,20.17,8.3,25.64,18.88,1.72,3.32,4.08,6.3,6.08,9.34-.43.63-.6,1.14-.93,1.3-4.72,2.26-9.71,6.58-14.13,6.07-4-.45-7-6.67-11.06-9.53-4.66-3.29-9.9-5.78-15-8.4-2.35-1.2-5.06-1.69-7.46-2.82C171,533.71,166.73,531.39,161.75,528.85Z"/><path class="cls-6" d="M365.49,473.43a16.53,16.53,0,0,1-1.29,2.22c-11.08,10.85-12.4,10.67-24.71-.53-2.93-2.67-6.35-5.12-6-10.32.13-1.71-3.19-4-5.34-5.48-5.86-4-11.94-7.61-17.86-11.33,10-10.19,21.7-11.12,31.79-1.1C350.55,455.28,357.92,464.75,365.49,473.43Z"/><path class="cls-6" d="M294.63,587.39l-16,7.88c-2.91-26.74-24.61-34.45-42.81-45.56,4.65-4.61,9.78-6.07,16.53-4.53,19.26,4.38,32,15.72,37.89,34.77.85,2.75,3,5.1,4.52,7.64Z"/><path class="cls-6" d="M294.8,587.59c2.91-13.33-3.47-23.66-12.31-31.92-7.31-6.83-16.56-11.57-24.46-16.9,10.09-6.84,19.57-6.65,29.63,2.46,6.56,5.93,13.1,12.15,18.32,19.22,7.85,10.63,5.85,17.37-5.5,23.76-1.94,1.09-3.91,2.11-5.86,3.18C294.63,587.39,294.8,587.59,294.8,587.59Z"/><path class="cls-6" d="M254,611.83c8.93-7.89,9.08-8.06,4-17.44-8.31-15.44-19.4-28.23-35.36-37.55,3.86.29,8-.27,11.54,1,14.9,5.38,26.65,15.18,35.86,27.92,5.21,7.21,4.31,12.19-2.66,17.75-5.67,4.52-11.58,8.76-19.44,14.68.54-20.6-15-26-26.8-34.59C235.67,588.68,249.1,594.86,254,611.83Z"/><path class="cls-6" d="M250.6,480c6.88-2.07,13.66-4.86,20.69-5.86,3-.44,7.57,2,9.79,4.56,8,9.22,15.28,19,23.28,29.2L293.58,518c-11.3-16.24-22.42-31.45-42.39-35.85Z"/><path class="cls-6" d="M151.62,609.11l32.5,8,.08,2.34c-4.8.42-9.82,1.94-14.35,1-8.44-1.74-16.61-4.82-24.84-7.51-4.09-1.33-6.15-4.12-5.44-8.69.67-4.26,2.77-5.61,7.21-6.75,9.56-2.44,18.39-1.5,27.52,1.4,6.69,2.13,13.63,3.46,20.22,6.14-12.25-2.36-24.51-4.69-36.75-7.11-5.78-1.14-7.56-.32-9.07,3.79,4.91.42,10.06.72,15.15,1.48.78.12,1.23,2.41,2.47,5l-14.26-1.63C151.91,607.47,151.77,608.29,151.62,609.11Z"/><path class="cls-6" d="M199.91,562.59c-10.21,3-46.21-14.71-56.81-27.57C156.7,532.27,192,549.2,199.91,562.59Z"/><path class="cls-6" d="M259.8,534.38c-10-20-27-27.49-45.44-35,4.6-1.33,9.18-3.71,13.8-3.81,14.46-.29,33.69,17.56,35.11,32.14C263.43,529.42,261.47,531.3,259.8,534.38Z"/><path class="cls-6" d="M194.21,513.31c21.12-2.19,41.59,8.26,49.82,25l-11.74,8.53C222.68,532.41,212.09,518.66,194.21,513.31Z"/><path class="cls-6" d="M286.7,465.78c11.52-7.09,41.46,7.31,52.17,24.24-5.72,6.47-10.84,6.39-15.79-.4C314.08,477.28,303.67,467.08,286.7,465.78Z"/><path class="cls-6" d="M356.45,486.5c12.17-8,19.2-7.57,30.22.89,12.79,9.81,20.12,23.39,26.76,38.27l-7.1,3.43c2.43-9.87-2.08-15.5-8.95-20.25a31,31,0,0,1-8.49-8.41C381.57,488.94,371.06,485,356.45,486.5Z"/><path class="cls-6" d="M185.2,567.21c-2.43,6.23-5.87,8-11.29,3.81q-8.41-6.54-17-12.89c-3.19-2.36-6.54-4.48-9.82-6.71l-1.6,1.91,6.07,7.5-30.37-17.26c9.67-5.17,11.8-5.35,21.67.89a165,165,0,0,1,17.8,12.95c6.52,5.45,13.23,9.78,22.19,9C183.6,566.36,184.38,566.92,185.2,567.21Z"/><path class="cls-6" d="M79.58,572.82c9.86,5.65,19.71,11.32,29.6,16.91,1.52.86,3.31,2,4.9,1.85,7.78-.57,7.24,7,10.69,10.56-1.58,1-3.63,3.31-4.66,2.92-8.06-3.07-17.74-4-20.21-15-.46-2-3.49-3.63-5.59-5-5.24-3.51-10.62-6.81-16-10.19Z"/><path class="cls-6" d="M204.36,565.75c14.7-8.35,33.45,7.51,43.41,25.48C234.58,583.5,219.77,574.8,204.36,565.75Z"/><path class="cls-6" d="M316,579.3c13.34-7.15,26.6-14.45,40.11-21.26,1.73-.87,4.74.8,7.15,1.29.08.84.16,1.68.25,2.52-9.78,5.16-19.22,11.19-29.48,15.09-4.43,1.69-10.35-.67-12.95,5.7-.09.22-3.21-.8-4.92-1.23C316.14,580.7,316.08,580,316,579.3Z"/><path class="cls-6" d="M284.25,529c11.13-2.14,18.56,3.2,23.29,10.87,5.53,9,9.22,19.09,13.36,28.86.61,1.45-.69,3.71-2,5.51C316.43,552.3,301.61,540.31,284.25,529Z"/><path class="cls-6" d="M243.65,489.84c15,.3,31.94,11.61,37.55,26.68.67,1.81-.21,4.2-.45,7.19-6.46-8.05-11-15.34-17.1-20.82S249.68,493.66,243.65,489.84Z"/><path class="cls-6" d="M204.87,605c-10.12-3.88-20.34-7.52-30.29-11.78-2.44-1-4-4.09-5.3-7,6.19.1,12.4-1.54,15.78,5.63,1.17,2.48,3.18,4.38,8.07,3.08,3.45-.92,8.81,5.29,13.31,8.32Z"/><path class="cls-4" d="M383,367.69c-1.79,3.8-2.8,8.34-5.57,11.2-3.22,3.34-5.34,6.29-5.6,11.1-.19,3.62-2.09,7.14-3.42,11.27-4.94-12,2.4-31.33,12.6-34.64Z"/><path class="cls-4" d="M173.16,359.52c11.5,2.45,17.08,16.12,14.52,33.63-.94-2.83-1.5-4.26-1.89-5.73-1.6-6.06-1.53-12.53-7.9-16.84C175.33,368.84,174.92,363.92,173.16,359.52Z"/><path class="cls-6" d="M406,494.9l-23.78-19.44C393.22,474.17,407.11,484.51,406,494.9Z"/><path class="cls-4" d="M149.93,445.13c8.94-8.06,17.58-9.9,28.23-5.81Z"/><path class="cls-6" d="M310.31,582.92c-.74,4.91-4.89,6.93-19.73,10.34Z"/><path class="cls-7" d="M412.36,529.12l7.1,9-14.59-3.18-.32-1.85Z"/><path class="cls-6" d="M318.22,536.24,330.82,551l-1.49,1.26q-6.19-7.4-12.37-14.8Z"/><path class="cls-6" d="M346,509.12l-19.42-5.05.47-1.7,19.38,5.37Z"/><path d="M294.58,598.05c5,3.05,10.3,5.66,14.8,9.28,3.23,2.6,1.48,7.18-1.85,7-10.57-.7-21-2.73-31.55-4.3-.11,0-.1-.81-.16-1.39h26.57l-9.58-8.33Z"/><path d="M329.9,307.78c-7.82-2.82-15.21-5.78-22.81-8.08a14.65,14.65,0,0,0-8.77.19c-10.4,3.91-20.6,8.35-31,12.65-17.8-24-25.23-50.29-22.11-79.94,1.73-16.45,8-28.71,24.3-34,19.15-6.24,36.6-2.65,51.67,10.78,11.06,9.86,16,23,17.51,37.3C340.94,267.41,337,287.4,329.9,307.78Zm-2.47-4.34c8.28-18.78,10.85-48.51,6.05-66.92-7.73-29.61-38.09-45.45-65.28-34-10.12,4.26-17.64,11.28-18.4,22.65-.89,13.28-1.71,26.77-.31,39.94,1.72,16.13,9.76,30.18,18.92,43.5,10.32-4.27,19.92-8.48,29.72-12.14a15,15,0,0,1,8.79-.17C313.75,298.27,320.38,300.93,327.43,303.44Z"/><path d="M231.12,219.6c-4.57-32.15,12.69-50.24,52-45.64C258.16,182.19,237.09,192.55,231.12,219.6Z"/><path d="M301.9,176.41c23.51-6,40.64,4.27,38.93,28.6C334.73,187.09,320.11,180.57,301.9,176.41Z"/><path class="cls-7" d="M327.43,303.44c-7.05-2.51-13.68-5.17-20.51-7.13a15,15,0,0,0-8.79.17c-9.8,3.66-19.4,7.87-29.72,12.14-9.16-13.32-17.2-27.37-18.92-43.5-1.4-13.17-.58-26.66.31-39.94.76-11.37,8.28-18.39,18.4-22.65,27.19-11.46,57.55,4.38,65.28,34C338.28,254.93,335.71,284.66,327.43,303.44ZM286,268.1a36.81,36.81,0,0,0-.83-6c-1.78-5.86-5-10.81-11.69-11.09s-10.82,4.22-12.13,10.27a32.29,32.29,0,0,0,.1,13.63c1.31,5.78,5.27,9.94,11.77,9.86s9.75-4.65,11.71-10.17C285.62,272.51,285.63,270.2,286,268.1Zm35.44,4.2c0-8.67-3.92-15.07-9.13-15-5,.11-8.57,6.1-8.69,14.6v.66c.08,8.59,3.56,14.42,8.67,14.56S321.42,280.94,321.4,272.3Z"/><path d="M286,268.1c-.33,2.1-.34,4.41-1.07,6.46-2,5.52-5.17,10.1-11.71,10.17s-10.46-4.08-11.77-9.86a32.29,32.29,0,0,1-.1-13.63c1.31-6.05,5.36-10.56,12.13-10.27s9.91,5.23,11.69,11.09A36.81,36.81,0,0,1,286,268.1Z"/><path d="M321.4,272.3c0,8.64-3.9,15-9.15,14.86s-8.59-6-8.67-14.56v-.66c.12-8.5,3.68-14.49,8.69-14.6C317.48,257.23,321.38,263.63,321.4,272.3Z"/><path d="M21.67,27.82C14.18,31.23,7.56,36.6.75,41.39c-.83.58-.87,2.89-.61,4.27C2.39,57.87,5,70,7.12,82.25c5.66,32.73,11.59,65.47,11.11,98.88-.15,10.64-1.39,21.27-2.21,33.1,8.73-6.19,16.64-11.56,24.22-17.37a8.9,8.9,0,0,0,2.86-6.17c.19-11.57.3-23.17-.27-34.72-.27-5.51,0-10,3.52-14.85a43.37,43.37,0,0,0,7-16.43c6.48-31.51-1.28-61-14-89.57C36.66,29,27.85,25,21.67,27.82ZM38,113.65l-2.17.06c-2.05-11.13-4.14-22.26-6.05-33.42-.16-1,.72-2.85,1.45-3,1-.26,3,.31,3.44,1.13,1.68,3.07,3.49,6.27,4.21,9.64C40.73,96.63,41.83,105.34,38,113.65Z"/><path d="M509.65,104.15a25.9,25.9,0,0,0-22.68,12c-16.13,24.36-31.66,49.14-42.33,76.49a82.16,82.16,0,0,0-5,22c-.64,6.88,4.3,10.67,10.87,8.5A77.23,77.23,0,0,0,469.7,214c23.86-16.28,43.12-37.28,59.9-60.61a42.16,42.16,0,0,0,5.76-12C541.2,122.59,528.46,104.29,509.65,104.15Zm-5.18,47.37a104.75,104.75,0,0,1-31.74,32.84c-1.2.78-2.84.9-4.28,1.32l-1.8-1.64c7.19-16.54,15.78-32.23,30.05-44.14,1.48-1.24,5.66-1.12,7.2.11s1.76,4.63,2,7.13A7.77,7.77,0,0,1,504.47,151.52Z"/><path d="M108.89,115.63C98,81.77,82.34,49.35,78.15,12.55c-2.73.43-5.26.91-7.7,1.33l-5.1.73c-.58.07-1.15.12-1.73.16a12.87,12.87,0,0,0-2.8.5l-6,.86,2.17,39c.13,3.28.3,6.55.55,9.82v.2h0c.21,2.79.47,5.59.81,8.37,3,25.22,8,50.2,11.67,75.35,1.26,8.67,1,17.55,1.47,27.41,4.1-2.76,9.46-4.43,10.2-7.29,1.48-5.73.44-12.12.44-19,1.88,5.37,3.58,10.21,5.93,16.94l4.53-24.12c2.12,5.62,3.74,9.9,5.62,14.9,5.27-3.55,9.93-7,14.86-9.91,3.29-2,4-4.32,3-7.79C113.6,131.9,111.49,123.69,108.89,115.63Zm-27.6,9.61-2-.71Q77,107.87,74.86,91.2l1.26-.31C79.5,99,83.52,107,85.9,115.39,86.64,118,83,121.92,81.29,125.24Z"/><path d="M165.59,16.81c-.21-.76-.41-1.47-.61-2.15h0s-1.89-9.15-1.89-11.61a.48.48,0,0,0-.07-.3l0,0-5.41-.24a18.13,18.13,0,0,0-3.82-.4h-.08c-.49,0-1,0-1.55,0h-11.9V15c-.32,12.16-.89,24.33-.13,36.42.87,13.75,3.82,27.36,5.85,41l-.22-.22c0,.11,0,.22,0,.33l0,0,6.24,31.39c10-2.15,8.5-9.65,8.07-17.18,1.8,3.37,3.59,6.75,6,11.2,1.57-5.77,2.82-10.36,4.45-16.33,1.58,5.14,2.68,8.69,3.87,12.56,4.36-2.06,8.09-4.12,12-5.6,5.16-1.94,5.4-4.82,3.85-9.79C181.8,71.54,173.41,44.26,165.59,16.81ZM161.38,4.93s0,0,0,0l.25-.32ZM156.53,88.2c-1-9.46-1.84-17.76-2.71-26.07l1.26-.42c2.88,6.95,5.77,13.9,8.93,21.51Z"/><path d="M112.38,5.22c-2.78.66-6.86,1.62-10.93,2.6-10.33,2.49-11.13,2.62-9.57,13.1,2.68,18,5.69,36.08,10,53.78,5.5,22.68,12.39,45,18.9,68.24,9.11-5.29,18-10.28,26.62-15.65,1.12-.7,1.53-3.43,1.39-5.15-.84-9.88-1.93-19.73-2.94-29.59L131,101.12C124.7,68.83,118.59,37.29,112.38,5.22Z"/><path d="M439.62,141.67c18.6-15.73,36.42-30.8,54.86-46.41l-47.8-27.87c-3,8.93-5.69,16.87-8.4,24.93l12.64,7-40.6,48.51c7.16,9.63,13.88,18.7,21,28.35L451.58,151Z"/><path d="M208.24,64.59a44.57,44.57,0,0,1-3.53-13.45c-1.25-13.21,2.39-17.33,15.78-18.43C219.44,22,218.39,11.24,217.31.17c-6,0-11.11-.44-16.17.09-15.07,1.55-23.91,12.44-22.69,27.5.23,2.89.47,5.8,1,8.64,3.33,18.45,6.53,37.11,17.62,52.78a40.51,40.51,0,0,0,15.48,12.74c6.51,3,15-2.9,14.76-8.81-.26-6.87-.92-13.73-1.42-20.65C216.33,75.2,212.23,73.59,208.24,64.59Z"/><path d="M328.27,23.28c-.29,3.88-.52,7-.75,10.07L314.59,18.82l-21.38-3.51c0,23.38.05,46.76,0,70.14,0,8.92.05,9.1,10.28,9.28q2-14.78,4.06-29.65l2.06-.43L329.49,101c4.84-24.74,9.56-48.85,14.37-73.46Z"/><path d="M388.32,68.9c2.42-7.82,4.71-15.19,7.15-23l-51-18.62-.1-.17H344l-.14,16.37c-.06,1.67-.09,3,0,4.14l0,4.3,10.81,4.29c-3.29,16.72-6.6,33.52-10,50.89l16.67,5.06,15.8-48.27Z"/><path d="M260.7,34c-.34-7.52-.45-15.1-1.2-22.62-.19-1.9-2.33-5-3.76-5.14-7.84-.57-16-1.62-23.53-.1-8,1.61-12.36,9.1-10.11,17S228.66,38.52,232.47,46c2.61,5.13,6.45,9.67,8.77,14.9,3.59,8.08,1.77,10.71-7.62,11.78,1.22,5.48,2.32,10.48,3.43,15.48,1.81,8.18,7.43,10.08,13.32,3.93A29.58,29.58,0,0,0,257,80.67c3.47-11.11,1.76-22-2.91-32.55C249.58,38,250.61,36.14,260.7,34Z"/><path d="M287.6,13.81c-7.89-2-15.86-3.61-24.6-5.53,1.75,28.57,3.44,56.22,5.15,84.32h18.38c1.14-25.24,2.31-50.33,3.3-75.44C289.88,16,288.6,14.06,287.6,13.81Z"/><polygon points="431.05 51.47 425.21 43.3 410.51 46.42 414.8 51.97 431.05 51.47"/><polygon points="534.26 106.05 530.71 95.61 514.75 95.61 517.96 103.72 534.26 106.05"/><path d="M425.34,100.83h0q1.07-3.14,2.07-6.28c.88-9.09,3.24-18.1,4.57-27.22l1.23-6.2-5.83-2.47h0c-6.29-2.72-12.74-5-18.59-7.19L371,118.35l9,6.09,6-8c-.38,4.54-.65,7.69-1,11.43L395.43,123c-5.24,13.41,7.7,14.82,12.88,22.79,5.92-15.65,12-30.22,17-45Zm-25,9.13-9.18-3.53L402,91.71l1.11.71C402.23,98.08,401.34,103.75,400.36,110Z"/></g></g></svg>