<?xml version="1.0" encoding="UTF-8" standalone="no"?>
<!DOCTYPE svg PUBLIC "-//W3C//DTD SVG 1.1//EN" "http://www.w3.org/Graphics/SVG/1.1/DTD/svg11.dtd">
<svg width="100%" height="100%" viewBox="0 0 206 39" version="1.1" xmlns="http://www.w3.org/2000/svg" xmlns:xlink="http://www.w3.org/1999/xlink" xml:space="preserve" xmlns:serif="http://www.serif.com/" style="fill-rule:evenodd;clip-rule:evenodd;stroke-linejoin:round;stroke-miterlimit:2;">
    <g id="BMEME" transform="matrix(1,0,0,1,-317,-276)">
        <g transform="matrix(1,0,0,1,327.372,293.677)">
            <path d="M0,5.592L0,15.26L5.742,15.26C8.457,15.26 10.41,14.884 11.602,14.132C12.792,13.38 13.389,12.076 13.389,10.221C13.389,8.795 12.822,7.667 11.689,6.837C10.557,6.007 9.042,5.592 7.148,5.592L0,5.592ZM0,-10.668L0,-1.908L5.332,-1.908C6.973,-1.908 8.251,-2.328 9.17,-3.168C10.088,-4.008 10.547,-5.062 10.547,-6.332C10.547,-7.582 10.088,-8.617 9.17,-9.438C8.251,-10.258 6.973,-10.668 5.332,-10.668L0,-10.668ZM-10.195,-17.168L7.5,-17.168C11.719,-17.168 15.034,-17.154 17.446,-15.124C19.858,-13.094 21.064,-10.694 21.064,-7.923C21.064,-4.37 19.199,-1.648 15.469,0.245C18.281,0.988 20.435,2.298 21.929,4.174C23.423,6.05 24.17,8.239 24.17,10.74C24.17,14.297 22.949,17.19 20.508,19.417C18.066,21.646 14.473,22.76 9.727,22.76L-10.195,22.76L-10.195,-17.168Z" style="fill-rule:nonzero;"/>
        </g>
        <g transform="matrix(1,0,0,1,437.238,285.009)">
            <path d="M0,22.928L0,31.428L-31.176,31.428L-31.176,-8.5L0.59,-8.5L0.59,0L-21.981,0L-21.981,7.584L-3.318,7.584L-3.318,15.084L-21.981,15.084L-21.981,22.928L0,22.928Z" style="fill-rule:nonzero;"/>
        </g>
        <g transform="matrix(1,0,0,1,493.24,316.438)">
            <path d="M0,-39.87L30.203,-39.87L30.203,-34.655L5.859,-34.655L5.859,-24.175L26.617,-24.175L26.617,-17.93L5.859,-17.93L5.859,-6.215L30.76,-6.215L30.76,0L0,0L0,-39.87Z" style="fill-rule:nonzero;"/>
        </g>
        <g transform="matrix(1,0,0,1,464.326,296.657)">
            <path d="M0,-0.31L16.126,-20.119L21.673,-20.119L21.673,19.809L15.813,19.809L15.813,-11.037L1.084,7.784L0,7.784" style="fill-rule:nonzero;"/>
        </g>
        <g transform="matrix(1,0,0,1,464.326,288.563)">
            <path d="M0,15.878L-1.084,15.878L-15.813,-2.943L-15.813,27.903L-21.673,27.903L-21.673,-12.025L-16.126,-12.025L0,7.784" style="fill-rule:nonzero;"/>
        </g>
        <g transform="matrix(1,0,0,1,364.285,316.466)">
            <path d="M0,-39.928L13.165,-24.752L26.319,-39.928L36.181,-39.928L36.181,0L24.986,0L24.986,-23.547L13.929,-10.715L12.398,-10.715L1.343,-23.547" style="fill-rule:nonzero;"/>
        </g>
        <g transform="matrix(1,0,0,1,389.213,300.085)">
            <path d="M0,-7.166L-11.055,5.667L-12.586,5.667L-23.643,-7.166L-23.643,16.381L-34.838,16.381L-34.838,-23.547L-24.976,-23.547L-11.821,-8.371L1.343,-23.547" style="fill-rule:nonzero;"/>
        </g>
    </g>
</svg>
