<svg xmlns="http://www.w3.org/2000/svg" viewBox="0 0 1000 489.74"><defs><style>.cls-1{fill:#0f1031;}</style></defs><title>svk_dark</title><g id="Layer_2" data-name="Layer 2"><g id="Layer_4" data-name="Layer 4"><path class="cls-1" d="M927.68,292.78l70-111.07H949.1L884.37,283.9c-1.75,3.84-2.64,7.05-2.64,9.55,0,1.64,1,7,10,21.14l48.69,76.64a35.85,35.85,0,0,0,30.25,16.62H1000Z"/><path class="cls-1" d="M816.63,181.71v168L726.52,205.29A50.13,50.13,0,0,0,684,181.71H595.12c-33.6,0-60.41,26.49-60.41,59.76,0,30,19.39,54,45.23,59.77l50.39,11.31c14.39,3.42,25.14,15.92,23.8,31.72-1.36,16.06-15.49,28-31.61,28H548.81L526.3,407.85H627.94c36.94,0,68.27-29.16,68.69-66.1A65.9,65.9,0,0,0,645,276.36l-51.69-11.3c-8.72-1.94-16.15-9.37-16.15-18.74v-9.69c0-10.66,8.07-19.39,21.64-19.39h56.6a46.49,46.49,0,0,1,39.32,21.7L801.14,407.85H839a22.62,22.62,0,0,0,22.62-22.62V181.71Z"/><path class="cls-1" d="M80.69,134.29v31.36a35.86,35.86,0,0,1-.54,6.22,34,34,0,0,1-1.65,6,31,31,0,0,1-2.75,5.53,29,29,0,0,1-3.86,4.87,164.73,164.73,0,0,0-19.84,24.08,162.73,162.73,0,0,0-15,27.57,160.38,160.38,0,0,0-9.46,30.42,162.87,162.87,0,0,0-1.88,54.08A160.94,160.94,0,0,0,36.51,364.6a162.14,162.14,0,0,0,9,18.39,81.54,81.54,0,0,1,4.25,8.59,76.33,76.33,0,0,1,3.18,9,73.68,73.68,0,0,1,2,9.3,70.52,70.52,0,0,1,.75,9.54v15.31a1.34,1.34,0,0,1,0,.2,1.15,1.15,0,0,1,0,.19c0,.06,0,.12,0,.19A183,183,0,0,1,15,376.13a184.31,184.31,0,0,1-11.1-35.26,186.51,186.51,0,0,1,53.7-172.56q1.92-1.84,3.7-3.8t3.42-4q1.65-2.08,3.13-4.27t2.81-4.49Z"/><path class="cls-1" d="M292.86,134.29l10.06,17.42q1.33,2.29,2.82,4.49t3.12,4.27q1.65,2.07,3.42,4t3.7,3.8a187.47,187.47,0,0,1,42.09,60.23,185,185,0,0,1,11.49,35.84,187.42,187.42,0,0,1,.13,76.5A185.74,185.74,0,0,1,341,408.13a188.22,188.22,0,0,1-23.21,27.77c0-.21,0-.39,0-.53V435a2.44,2.44,0,0,0,0-.26V419.42a70.52,70.52,0,0,1,.76-9.54,72,72,0,0,1,2-9.3,76.33,76.33,0,0,1,3.18-9,81.63,81.63,0,0,1,4.26-8.59,163.77,163.77,0,0,0,9-18.39A160.5,160.5,0,0,0,343.71,345,162.88,162.88,0,0,0,346,270.33a160.88,160.88,0,0,0-9.45-30.4,163,163,0,0,0-34.72-51.56,29.34,29.34,0,0,1-3.93-4.93,31.18,31.18,0,0,1-2.79-5.57,33.55,33.55,0,0,1-1.66-6,34.92,34.92,0,0,1-.55-6.22Z"/><path class="cls-1" d="M114.81,29.61l7.53,13V285.71l7.69,7.67v29.84l-26.92,37.91V469.86c-1-.5-2-1-3-1.54s-2-1.05-3-1.6-2-1.09-2.95-1.64-2-1.13-2.91-1.7A31.86,31.86,0,0,1,84.49,458a32.62,32.62,0,0,1-5-6.87,34.17,34.17,0,0,1-4.26-16.57V358.07a15.5,15.5,0,0,1,.2-2.46,14.84,14.84,0,0,1,.61-2.38A14.45,14.45,0,0,1,77,351a15.3,15.3,0,0,1,1.35-2.07l21.85-28.07V70.59h-9Z"/><path class="cls-1" d="M258.75,29.61l23.6,41h-9V320.84l21.85,28.07a15.3,15.3,0,0,1,1.35,2.07,15.52,15.52,0,0,1,1,2.25,15.94,15.94,0,0,1,.6,2.38,14.42,14.42,0,0,1,.21,2.46v76.48a34.39,34.39,0,0,1-1.1,8.61,33.67,33.67,0,0,1-3.17,8,32.66,32.66,0,0,1-5.06,6.87,32.05,32.05,0,0,1-6.77,5.39c-1,.57-1.94,1.14-2.92,1.7s-1.95,1.1-2.94,1.64-2,1.08-3,1.6-2,1-3,1.54V361.13l-26.92-37.91,0-29.84,7.69-7.67V42.64Z"/><path class="cls-1" d="M231.77,0V277.65l-7.69,7.68v44.09L251,367.33v111q-7.51,2.76-15.31,4.89t-15.86,3.56q-8,1.45-16.32,2.19c-5.51.49-11.09.75-16.73.75s-11.22-.26-16.74-.75-10.95-1.22-16.32-2.19-10.65-2.15-15.85-3.56-10.3-3.05-15.31-4.89v-111l26.92-37.91V285.33l-7.68-7.68V0Z"/></g></g></svg>