<svg xmlns="http://www.w3.org/2000/svg" xmlns:xlink="http://www.w3.org/1999/xlink" viewBox="0 0 1000 1000"><defs><style>.cls-1{fill:none;}.cls-2{fill:#d1d3d4;}.cls-3{fill:url(#OffsetTile);}.cls-4{fill:#0f1031;}.cls-5{fill:url(#radial-gradient);}.cls-6{fill:url(#radial-gradient-7);}</style><pattern id="OffsetTile" data-name="OffsetTile" width="4" height="6" patternTransform="translate(-1 -21) scale(4)" patternUnits="userSpaceOnUse" viewBox="0 0 4 6"><rect class="cls-1" width="4" height="6"/><rect class="cls-2" y="5" width="1" height="1"/><rect class="cls-2" x="2" y="2" width="1" height="1"/></pattern><radialGradient id="radial-gradient" cx="212.5" cy="487.96" r="437.36" gradientUnits="userSpaceOnUse"><stop offset="0" stop-color="#2e5c8a"/><stop offset="0.18" stop-color="#2b5683"/><stop offset="0.44" stop-color="#25456f"/><stop offset="0.76" stop-color="#19294e"/><stop offset="1" stop-color="#0f1031"/></radialGradient><radialGradient id="radial-gradient-7" cx="230.58" cy="400.99" r="414.79" gradientUnits="userSpaceOnUse"><stop offset="0" stop-color="#27aae1"/><stop offset="1" stop-color="#27aae1" stop-opacity="0"/></radialGradient></defs><title>svk_color</title><g id="Layer_2" data-name="Layer 2"><g id="bg"><rect class="cls-3" width="1000" height="1000"/></g><g id="Layer_3" data-name="Layer 3"><path class="cls-4" d="M927.68,547.92l70-111.08H949.1L884.37,539c-1.75,3.83-2.64,7-2.64,9.54,0,1.65,1,7,10,21.14l48.69,76.64A35.85,35.85,0,0,0,970.68,663H1000Z"/><path class="cls-4" d="M816.63,436.84v168l-90.11-144.4A50.11,50.11,0,0,0,684,436.84H595.12c-33.6,0-60.41,26.49-60.41,59.77,0,30,19.39,53.95,45.23,59.76l50.39,11.31c14.39,3.42,25.14,15.92,23.8,31.73-1.36,16.05-15.49,28-31.61,28H548.81L526.3,663H627.94c36.94,0,68.27-29.16,68.69-66.09A65.88,65.88,0,0,0,645,531.5l-51.69-11.31c-8.72-1.94-16.15-9.37-16.15-18.74v-9.69c0-10.66,8.07-19.38,21.64-19.38h56.6a46.48,46.48,0,0,1,39.32,21.69L801.14,663H839a22.62,22.62,0,0,0,22.62-22.62V436.84Z"/><polygon class="cls-4" points="154.36 560.84 154.36 540.58 148.39 531.71 148.39 450.85 148.39 303.69 114.81 284.74 122.34 436.69 122.34 540.84 130.03 548.51 115.47 578.36 103.11 616.27 103.11 697.29 103.11 725 133.17 683.3 162.28 580.87 159.14 578.36 154.36 560.84"/><polygon class="cls-4" points="122.56 622.46 149.48 584.55 157.82 565.65 136.92 595.08 122.56 622.46"/><path class="cls-4" d="M103.32,446.17l.09-.34.09-.35a6.06,6.06,0,0,0,.16-.61c.11-.44.2-.87.29-1.32,0-.05,0-.1,0-.15s0,0,0-.07,0-.12,0-.17c0-.31.11-.63.15-.94s.08-.62.11-.93l0-.29c0-.06,0-.11,0-.17s0-.31,0-.47c0-.31,0-.62.05-.93s0-.63,0-.94V414.14L80.69,389.42v31.36c0,1,0,2-.13,3a1.64,1.64,0,0,1,0,.22c-.08.93-.21,1.86-.36,2.78l-.06.31c-.16.91-.37,1.8-.6,2.68l-.12.45c-.25.89-.54,1.76-.86,2.63l-.09.24c-.35.92-.75,1.83-1.18,2.71v0c-.44.89-.93,1.75-1.46,2.6l-.1.16c-.53.83-1.1,1.63-1.71,2.41l-.07.1a29.15,29.15,0,0,1-2,2.29c-1.25,1.26-2.49,2.54-3.7,3.83-.37.4-.72.81-1.09,1.2l-1.21,1.35c-.42.47-.86.93-1.28,1.41-1,1.1-1.9,2.22-2.84,3.35l-.46.54a2.09,2.09,0,0,0-.14.17c-1.13,1.38-2.23,2.77-3.32,4.18-.25.32-.48.66-.73,1-.47.62-.93,1.26-1.39,1.89s-1,1.39-1.55,2.1-.88,1.29-1.32,1.93c-.27.39-.55.76-.81,1.15s-.65,1-1,1.47l-.39.56c-.09.14-.17.29-.26.42q-1.47,2.26-2.87,4.58c-.05.09-.11.17-.16.25l-.33.57c-.83,1.4-1.65,2.82-2.44,4.25l-.33.57-.13.25c-.91,1.66-1.79,3.35-2.64,5-.09.17-.18.33-.26.5s-.18.37-.27.56c-.85,1.72-1.68,3.45-2.47,5.2,0,.06-.05.11-.07.16l-.18.42c-.41.92-.82,1.84-1.21,2.76-.32.77-.63,1.53-.94,2.3l-.24.57c0,.09-.07.19-.11.28q-1.06,2.65-2,5.37c-.07.17-.14.34-.2.52-.12.33-.23.67-.34,1-.23.66-.46,1.33-.68,2l-.6,1.84c-.21.67-.42,1.34-.62,2-.1.31-.2.62-.29.93s-.18.62-.27.93c-.19.67-.39,1.35-.57,2s-.35,1.26-.51,1.89-.36,1.36-.53,2l-.27,1c-.07.28-.13.57-.19.85-.17.69-.32,1.38-.48,2.07l-.42,1.91-.18.85-.24,1.24-.24,1.17c0,.25-.08.51-.13.76-.13.7-.25,1.41-.37,2.11s-.22,1.29-.32,1.94-.22,1.43-.32,2.14c-.06.43-.14.85-.19,1.28,0,.18,0,.36-.07.54-.21,1.61-.41,3.22-.57,4.85v0h0q-.24,2.46-.42,4.92c0,.19,0,.37,0,.55s0,.61-.05.92c-.07,1.22-.14,2.45-.19,3.68,0,.31,0,.61,0,.92s0,.37,0,.55c0,1.67-.09,3.34-.09,5s0,3.54.09,5.3c0,.58.06,1.16.08,1.74.05,1.17.1,2.35.18,3.52,0,.7.11,1.38.16,2.07.08,1,.16,2.11.26,3.15.07.74.16,1.46.24,2.2s.17,1.61.27,2.42c0,.18.06.36.08.55l.06.51c.08.58.18,1.16.26,1.74.14,1,.27,1.92.43,2.87.12.76.26,1.52.4,2.28.16.93.33,1.86.51,2.78.15.77.31,1.53.47,2.29s.39,1.82.59,2.72.36,1.52.55,2.28c.13.54.25,1.08.38,1.62.09.35.2.7.29,1.06s.16.65.25,1,.25.86.37,1.29q.36,1.32.75,2.64c.22.74.45,1.49.68,2.23s.55,1.74.84,2.6.49,1.47.75,2.21.61,1.71.92,2.56.53,1.45.81,2.17c.12.33.24.67.37,1,.2.52.42,1,.63,1.54s.35.9.53,1.34c.11.27.23.52.34.79.35.84.72,1.68,1.09,2.51s.6,1.39.92,2.08.78,1.67,1.17,2.5c.32.67.64,1.35,1,2l1.27,2.49,1,2c.08.14.15.3.24.45.16.3.32.6.49.9s.32.6.49.9l.5.9.51.9c.58,1,1.11,2.06,1.65,3.1.33.64.65,1.27,1,1.91s.72,1.54,1.06,2.32.58,1.29.85,1.94.62,1.59.92,2.39.5,1.31.73,2c.28.82.53,1.64.78,2.47.2.65.41,1.3.6,2,.23.86.44,1.72.64,2.58.16.64.32,1.28.46,1.93.19.91.34,1.82.5,2.74.11.64.24,1.28.33,1.93l.06.46q.29,2,.45,4.11c0,.09,0,.19,0,.29.11,1.43.18,2.88.19,4.33v15.32a1.15,1.15,0,0,1,0,.19,1.21,1.21,0,0,1,0,.19c0,.06,0,.13,0,.19L85,647.86V635.93a.66.66,0,0,1,0-.14s0-.09,0-.13v-.14c0-1.21-.07-2.42-.16-3.62,0-.4-.09-.8-.13-1.19-.08-.74-.14-1.47-.24-2.2,0-.07,0-.13,0-.2s0-.13,0-.19c-.06-.41-.15-.82-.22-1.23-.12-.71-.24-1.42-.39-2.13-.1-.5-.23-1-.35-1.49s-.24-1.08-.39-1.62c0-.13-.08-.26-.12-.39s0-.24-.09-.36c-.11-.39-.25-.77-.36-1.16-.2-.64-.4-1.29-.62-1.92s-.37-1-.56-1.52-.3-.87-.47-1.29l-.25-.57c-.07-.17-.13-.35-.2-.53s-.31-.65-.45-1c-.27-.6-.54-1.2-.83-1.8s-.49-1-.74-1.48-.33-.69-.51-1l-.19-.35-.19-.35c-.07-.11-.13-.23-.2-.35l-.19-.34c-.6-1-1.17-2.09-1.74-3.15l-.78-1.51c-.33-.64-.66-1.29-1-1.94s-.51-1-.76-1.56-.61-1.29-.91-1.94l-.72-1.62-.84-1.95c-.23-.55-.45-1.1-.67-1.65s-.53-1.31-.78-2-.42-1.12-.63-1.69-.48-1.32-.71-2-.39-1.14-.58-1.71-.44-1.34-.65-2-.36-1.15-.53-1.74-.4-1.36-.59-2L64.75,577c-.18-.69-.35-1.38-.52-2.07s-.29-1.18-.42-1.78-.32-1.4-.46-2.1-.25-1.19-.37-1.79-.27-1.43-.4-2.15-.21-1.18-.31-1.78-.22-1.48-.33-2.22c-.08-.58-.17-1.16-.25-1.75-.1-.76-.18-1.53-.27-2.3-.06-.57-.13-1.14-.18-1.72-.08-.8-.14-1.61-.21-2.43,0-.54-.09-1.07-.12-1.61-.06-.91-.1-1.82-.14-2.73,0-.45-.05-.9-.06-1.36-.05-1.37-.07-2.74-.07-4.12,0-1.93.06-3.84.14-5.75,0-.48,0-1,.08-1.43q.15-2.83.43-5.64v0c.18-1.75.41-3.49.67-5.23.16-1.11.34-2.21.53-3.31s.34-2,.54-3,.46-2.18.7-3.26.44-2,.68-2.92.57-2.15.87-3.22.52-1.91.81-2.85.68-2.11,1-3.16.63-1.92,1-2.87c.22-.62.46-1.23.7-1.84q.66-1.77,1.38-3.51c.27-.65.55-1.3.83-1.95.49-1.14,1-2.26,1.53-3.38.29-.61.57-1.22.87-1.83.61-1.25,1.24-2.47,1.89-3.7.24-.44.46-.89.7-1.33q1.33-2.43,2.76-4.8l.71-1.12c.74-1.2,1.5-2.4,2.29-3.58l1-1.54c.73-1.06,1.47-2.1,2.23-3.13.36-.49.71-1,1.08-1.47,1.06-1.4,2.14-2.79,3.25-4.14l.36-.43q1.56-1.87,3.2-3.69l.94-1c1.22-1.33,2.45-2.64,3.72-3.91l.48-.5.45-.51.45-.53.19-.24.06-.08.17-.21c.18-.23.35-.47.52-.71s.33-.47.49-.72c0-.07.09-.15.14-.23l0-.05a.3.3,0,0,0,0-.08l.24-.37c.15-.25.29-.51.43-.76s.32-.58.46-.88h0c.15-.29.28-.59.42-.88s.26-.61.38-.92l.12-.31,0-.09,0-.1c.06-.14.11-.28.16-.43C103.05,447,103.19,446.6,103.32,446.17Z"/><polygon class="cls-4" points="119.54 364.69 100.17 325.73 91.2 325.73 112.57 364.69 119.54 364.69"/><path class="cls-4" d="M346,525.46a161.52,161.52,0,0,0-24.39-57.93,163.43,163.43,0,0,0-19.78-24,29.81,29.81,0,0,1-3.93-4.94,30.85,30.85,0,0,1-2.79-5.57,33.44,33.44,0,0,1-1.66-6,35.11,35.11,0,0,1-.55-6.23V389.42l-23.72,24.72v24.35a27,27,0,0,0,.43,4.84,24.85,24.85,0,0,0,1.29,4.65A23.29,23.29,0,0,0,273,452.3a22.28,22.28,0,0,0,3.05,3.84,125.73,125.73,0,0,1,32.54,121.62,123,123,0,0,1-5.17,15.2,124.89,124.89,0,0,1-7,14.28,64.62,64.62,0,0,0-3.31,6.67,61.67,61.67,0,0,0-2.47,7,59.1,59.1,0,0,0-1.56,7.22,53.63,53.63,0,0,0-.58,7.4.66.66,0,0,1,0,.14v.13c0,.05,0,.09,0,.14v11.93h0v0c0,.11,0,.24,0,.41L317.83,691c0-.21,0-.39,0-.53v-.37a2.36,2.36,0,0,0,0-.25V674.55a70.52,70.52,0,0,1,.76-9.54,72,72,0,0,1,2-9.3,76.33,76.33,0,0,1,3.18-9,81.63,81.63,0,0,1,4.26-8.59,163.77,163.77,0,0,0,9-18.39,160.5,160.5,0,0,0,6.66-19.58A162.88,162.88,0,0,0,346,525.46Z"/><polygon class="cls-4" points="282.35 325.73 273.39 325.73 254.03 364.69 260.99 364.69 282.35 325.73"/><polygon class="cls-4" points="283.55 616.27 258.08 578.36 243.54 548.51 251.23 540.84 251.23 436.69 258.75 284.74 225.18 303.69 210.62 450.85 225.18 531.71 219.2 540.58 219.19 560.84 217.66 566.45 215.75 565.65 217.06 568.64 214.41 578.36 223.56 583.38 224.09 584.55 240.4 607.52 240.4 683.33 270.44 725 270.44 697.29 270.44 616.27 266.26 606.79 283.55 616.27"/><path class="cls-5" d="M80.69,389.42v31.36a36.06,36.06,0,0,1-.54,6.23,34.16,34.16,0,0,1-1.65,6,31,31,0,0,1-2.75,5.53,29,29,0,0,1-3.86,4.87,164.28,164.28,0,0,0-19.84,24.09,162.34,162.34,0,0,0-15,27.57,160.28,160.28,0,0,0-9.46,30.41,162.87,162.87,0,0,0-1.88,54.08,160.94,160.94,0,0,0,10.78,40.19,162.14,162.14,0,0,0,9,18.39,81.54,81.54,0,0,1,4.25,8.59,76.33,76.33,0,0,1,3.18,9,73.68,73.68,0,0,1,2,9.3,70.52,70.52,0,0,1,.75,9.54v15.32a1.15,1.15,0,0,1,0,.19,1.21,1.21,0,0,1,0,.19c0,.06,0,.13,0,.19A183,183,0,0,1,15,631.26,184.43,184.43,0,0,1,3.87,596,185.84,185.84,0,0,1,33.62,451.38a188.94,188.94,0,0,1,24-27.94c1.28-1.23,2.51-2.49,3.7-3.8s2.33-2.65,3.42-4,2.14-2.81,3.13-4.27,1.93-3,2.81-4.49Z"/><path class="cls-5" d="M292.86,389.42l10.06,17.42q1.33,2.3,2.82,4.49c1,1.46,2,2.89,3.12,4.27s2.24,2.73,3.42,4,2.42,2.57,3.7,3.8a188.41,188.41,0,0,1,24,27.94A186.45,186.45,0,0,1,317.83,691c0-.21,0-.39,0-.53v-.37a2.36,2.36,0,0,0,0-.25V674.55a70.52,70.52,0,0,1,.76-9.54,72,72,0,0,1,2-9.3,76.33,76.33,0,0,1,3.18-9,81.63,81.63,0,0,1,4.26-8.59,163.77,163.77,0,0,0,9-18.39,160.5,160.5,0,0,0,6.66-19.58A162.88,162.88,0,0,0,346,525.46a161.52,161.52,0,0,0-24.39-57.93,163.43,163.43,0,0,0-19.78-24,29.81,29.81,0,0,1-3.93-4.94,30.85,30.85,0,0,1-2.79-5.57,33.44,33.44,0,0,1-1.66-6,35.11,35.11,0,0,1-.55-6.23Z"/><path class="cls-5" d="M114.81,284.74l7.53,13V540.84l7.69,7.68v29.84l-26.92,37.91V725c-1-.51-2-1-3-1.55l-3-1.59c-1-.54-2-1.09-2.95-1.65s-2-1.13-2.91-1.7a32.14,32.14,0,0,1-6.78-5.38,33,33,0,0,1-5-6.88,34,34,0,0,1-3.17-8,34.46,34.46,0,0,1-1.09-8.62V613.2a15.5,15.5,0,0,1,.2-2.46,15.11,15.11,0,0,1,.61-2.38,14.35,14.35,0,0,1,1-2.24,14.14,14.14,0,0,1,1.35-2.07L100.17,576V325.73h-9Z"/><path class="cls-5" d="M258.75,284.74l23.6,41h-9V576l21.85,28.08a14.14,14.14,0,0,1,1.35,2.07,15.41,15.41,0,0,1,1,2.24,15.08,15.08,0,0,1,.6,2.38,14.42,14.42,0,0,1,.21,2.46v76.48a34.47,34.47,0,0,1-1.1,8.62,33.6,33.6,0,0,1-3.17,8,32.72,32.72,0,0,1-5.06,6.88,32.33,32.33,0,0,1-6.77,5.38c-1,.57-1.94,1.14-2.92,1.7s-1.95,1.11-2.94,1.65-2,1.07-3,1.59-2,1-3,1.55V616.27l-26.92-37.91,0-29.84,7.69-7.68V297.77Z"/><path class="cls-5" d="M231.77,255.13V532.78l-7.69,7.68v44.09L251,622.46v111q-7.51,2.76-15.31,4.89t-15.86,3.57q-8,1.44-16.32,2.18t-16.73.75q-8.46,0-16.74-.75t-16.32-2.18q-8-1.46-15.85-3.57t-15.31-4.89v-111l26.92-37.91V540.46l-7.68-7.68V255.13Z"/><path class="cls-5" d="M36.51,619.73a160.94,160.94,0,0,1-10.78-40.19,162.87,162.87,0,0,1,1.88-54.08A160.61,160.61,0,0,1,37.07,495a162.63,162.63,0,0,1,15-27.56,164.28,164.28,0,0,1,19.84-24.09,29,29,0,0,0,3.86-4.87A31,31,0,0,0,78.5,433a34.16,34.16,0,0,0,1.65-6,36.06,36.06,0,0,0,.54-6.23V389.42L70.63,406.84q-1.32,2.3-2.81,4.49c-1,1.46-2,2.89-3.13,4.27s-2.23,2.73-3.42,4-2.42,2.57-3.7,3.8a188.94,188.94,0,0,0-24,27.94A185.9,185.9,0,0,0,14.89,631.07a278.56,278.56,0,0,0,33.92,13.57c-1-2.21-2.09-4.4-3.3-6.52A162.14,162.14,0,0,1,36.51,619.73Z"/><path class="cls-6" d="M36.51,619.73a160.94,160.94,0,0,1-10.78-40.19,162.87,162.87,0,0,1,1.88-54.08A160.61,160.61,0,0,1,37.07,495a162.63,162.63,0,0,1,15-27.56,164.28,164.28,0,0,1,19.84-24.09,29,29,0,0,0,3.86-4.87A31,31,0,0,0,78.5,433a34.16,34.16,0,0,0,1.65-6,36.06,36.06,0,0,0,.54-6.23V389.42L70.63,406.84q-1.32,2.3-2.81,4.49c-1,1.46-2,2.89-3.13,4.27s-2.23,2.73-3.42,4-2.42,2.57-3.7,3.8a188.94,188.94,0,0,0-24,27.94A185.9,185.9,0,0,0,14.89,631.07a278.56,278.56,0,0,0,33.92,13.57c-1-2.21-2.09-4.4-3.3-6.52A162.14,162.14,0,0,1,36.51,619.73Z"/><path class="cls-5" d="M369.56,519.51a185.71,185.71,0,0,0-29.62-68.13,188.41,188.41,0,0,0-24-27.94c-1.28-1.23-2.51-2.49-3.7-3.8s-2.32-2.65-3.42-4-2.13-2.81-3.12-4.27-1.93-3-2.82-4.49l-10.06-17.42v31.36a35.11,35.11,0,0,0,.55,6.23,33.44,33.44,0,0,0,1.66,6,30.85,30.85,0,0,0,2.79,5.57,29.81,29.81,0,0,0,3.93,4.94,163.11,163.11,0,0,1,34.72,51.55,161.12,161.12,0,0,1,12.74,63c0,.54,0,1.08,0,1.62a282,282,0,0,0,22.19-29.86C370.89,526.37,370.28,522.92,369.56,519.51Z"/><path class="cls-6" d="M369.56,519.51a185.71,185.71,0,0,0-29.62-68.13,188.41,188.41,0,0,0-24-27.94c-1.28-1.23-2.51-2.49-3.7-3.8s-2.32-2.65-3.42-4-2.13-2.81-3.12-4.27-1.93-3-2.82-4.49l-10.06-17.42v31.36a35.11,35.11,0,0,0,.55,6.23,33.44,33.44,0,0,0,1.66,6,30.85,30.85,0,0,0,2.79,5.57,29.81,29.81,0,0,0,3.93,4.94,163.11,163.11,0,0,1,34.72,51.55,161.12,161.12,0,0,1,12.74,63c0,.54,0,1.08,0,1.62a282,282,0,0,0,22.19-29.86C370.89,526.37,370.28,522.92,369.56,519.51Z"/><path class="cls-5" d="M130,578.36V548.52l-7.69-7.68V297.77l-7.53-13-23.61,41h9V576L78.32,604.05A14.6,14.6,0,0,0,77,606.11a14.88,14.88,0,0,0-1,2.25,15.11,15.11,0,0,0-.61,2.38,15.5,15.5,0,0,0-.2,2.46v38.62a279.07,279.07,0,0,0,27.93,4.69V616.27Z"/><path class="cls-6" d="M130,578.36V548.52l-7.69-7.68V297.77l-7.53-13-23.61,41h9V576L78.32,604.05A14.6,14.6,0,0,0,77,606.11a14.88,14.88,0,0,0-1,2.25,15.11,15.11,0,0,0-.61,2.38,15.5,15.5,0,0,0-.2,2.46v38.62a279.07,279.07,0,0,0,27.93,4.69V616.27Z"/><path class="cls-5" d="M295.24,604.05,273.39,576V325.73h9l-23.6-41-7.52,13V540.84l-7.69,7.68,0,29.84,26.93,37.91V624a280.76,280.76,0,0,0,26.7-16.68,11.28,11.28,0,0,0-.56-1.16A14.14,14.14,0,0,0,295.24,604.05Z"/><path class="cls-6" d="M295.24,604.05,273.39,576V325.73h9l-23.6-41-7.52,13V540.84l-7.69,7.68,0,29.84,26.93,37.91V624a280.76,280.76,0,0,0,26.7-16.68,11.28,11.28,0,0,0-.56-1.16A14.14,14.14,0,0,0,295.24,604.05Z"/><path class="cls-5" d="M224.08,584.55V540.46l7.69-7.68V255.13h-90V532.78l7.68,7.68v44.09l-26.92,37.91v35.63c4.37.2,8.77.32,13.19.32A279.08,279.08,0,0,0,251,633.68V622.46Z"/><path class="cls-6" d="M224.08,584.55V540.46l7.69-7.68V255.13h-90V532.78l7.68,7.68v44.09l-26.92,37.91v35.63c4.37.2,8.77.32,13.19.32A279.08,279.08,0,0,0,251,633.68V622.46Z"/></g></g></svg>