<svg id="Réteg_1_másolat" data-name="Réteg 1 másolat" xmlns="http://www.w3.org/2000/svg" viewBox="0 0 612 599.19"><title>kakas</title><path d="M515.72,519.34h94.35l-37-57.2L610,403.86H566.75A296.64,296.64,0,0,0,585.5,299.6c0-77.11-29.07-149.6-81.86-204.12S380.66,10.93,306,10.93,161.15,41,108.36,95.48s-81.87,127-81.87,204.12A296.86,296.86,0,0,0,45.24,403.86H2l36.87,58.28L1.93,519.34H96.28v31.9h72.54a272.66,272.66,0,0,0,274.35,0h72.55ZM118.89,403.86A223.83,223.83,0,0,1,93.32,299.6c0-102.78,68.71-189.27,161.17-213.11.54,3,1.07,6,1.61,9.06,4.81,6.33,9.44,12.52,14.19,18.62,2.25,2.89,2,5.45.37,8.65-2.73,5.19-4.75,10.74-7.29,16a7.47,7.47,0,0,1-3.17,3.1c-7.54,3.9-15,7.92-22.83,11.26-2.23,1-5.37-.17-8.09-.4-2.87-.24-5.74-.56-8.6-.84-.15,2.32-1,4.85-.32,6.92,2.17,6.9,3.78,14.33,7.59,20.28,7.13,11.13,18.87,11.85,30.75,10.43,8.2-1,8.06-1.09,10.29,6.47a47.51,47.51,0,0,0,3.73,8.69c5.12,9.66,8.46,11.1,19,8.5,2.09-.51,4.2-.95,6.89-1.56-3.76,13-7.05,25.65-11.12,38.08C279.68,273.62,268,281.66,243,283c-10.52.55-21,2.68-31.4,4.76-7.06,1.41-9.88,7-9.63,13.77a139.92,139.92,0,0,0,2.16,17c.7,4.4.19,7.41-5,8.63-8.44,2-17,3.94-25,7.15-8.69,3.48-17.38,7.57-25,12.92-7.34,5.14-8.84,13.79-7.48,22.46.9,5.66,4.67,9.14,9.82,11.77,4,2.06,7.22,5.71,11.15,8,3.09,1.83,6.74,2.72,9.42,3.76l-12.45-16.41c-4.52,3.38-11.33.45-12.62-6.34-2-10.8,1.45-20.79,11.39-25.41,10.42-4.83,21.87-7.42,32.81-11.19,5.17-1.78,10.19-4,15.27-6.09,3.57-1.45,4.46-3.88,3.21-7.59-1.38-4.1-2.24-8.38-3.37-12.57-2.78-10.41,1.81-18.39,12.19-19.89a229.13,229.13,0,0,1,28.15-2.44c3.21-.06,8,1.87,9.36,4.36A10.21,10.21,0,0,1,253,302.53c-3.48,2.86-7.08,5.59-10.56,8.47a10.11,10.11,0,0,0-1.58,2.34l7.49-2.51c-4.15,4-5.75,7.69-4.43,13.48.62,2.74-1.84,6.76-3.9,9.41-6.43,8.25-13.92,15.73-19.9,24.27a221.07,221.07,0,0,0-15.91,27.42c-1.76,3.48-3.39,5.78-7.2,6.81-10.94,2.94-18.72-1-24.23-12.8l-.85-.2L169.75,381c2.46,4.45,3.93,10.24,7.65,13,4.12,3,10.3,3.3,15.78,4.83-6.89,12.51-13.62,24.76-20.34,37h-21V403.86ZM424.7,137.6c3.29-.26,6.63.24,10.81.43-5.84,13.45-16.41,15.13-25.78,16-3.16-3.31-5.79-5.55-7.74-8.26-1.63-2.27-4-5.58-3.39-7.62,2.47-8.1-2-13.54-5.74-19.55-1.5-2.41-2.15-5.35-3.53-9-7.78-2.91-9.32-8.22-4.59-18.64,1.39-3,2.28-6.32,3.4-9.48l-1.34-.67-4.63,3.73c-4.3-5.67-8.77-10.85-12.39-16.58-2-3.16-.87-6.81,3.38-7.55,1.33-.23,2.66-.44,4-.63l.06,0,.06-.06c4.42-.63,8.88-1.09,13.32-1.6l4,.4c6.08,3,11.44,6.71,15.19,12.95,5.74,9.54,4.07,18.79.7,28.35-1.07,3-1.73,6.2-2.58,9.31,3.53-.48,7.94.21,10.39-1.67,5-3.87,10.35-8.46,13.11-14,2.62-5.23,5.93-8,10.94-9.06,5.49-1.19,7.87,1.89,5.59,7-1.53,3.42-1.63,5.94,1.1,9.07,3.52,4-.73,11.9-7.69,14.56-7.73,3-15.59,5.59-23.37,8.43-2.73,1-5.38,2.18-8,3.24C411.9,134.82,416.93,138.2,424.7,137.6Zm-41.48,42.84c.28,4.49,1.39,9,1.27,13.42-.12,4.86-1.65,9.7-1.69,14.55a12.37,12.37,0,0,0,2.93,7.55A17.66,17.66,0,0,1,390,227.82c.74,2.26,1.56,4.5,2.23,6.79,2.31,7.91,4.46,15.87,6.9,23.74a88.41,88.41,0,0,0,4.55,11.92c1.15,2.4,2.49,4.54.94,6.8l-2,1.43a7,7,0,0,0-1.27,1.09,2.57,2.57,0,0,0-.47,1c-1.15.47-2.41,1.19-3.17.84-3.5-1.66-5.23.27-7.43,2.49-3.35,3.39-6.92,4.13-9.1-1.61l-17.54,11.27c-.71-2.84-1.34-5.37-2-8-8.45,0-17-1.37-24.76.4-7.17,1.63-13.57,6.63-21.21,10.62-1.21-4.17-2.51-8.63-3.52-12.12l-9.82-3.5L300.32,282l-12.89-7.57c.25-1.27.49-2.54.78-4l-6,2.08-.79-1.58c2-1.87,4.13-3.68,6.1-5.62.83-.81,2.18-2.17,2-2.81-2-5.84.73-9.62,4.09-13.17l.81-.65a9.69,9.69,0,0,0,1.49-1.37A10.05,10.05,0,0,0,297,245.5l1.48-2.85a.61.61,0,0,0,.07-.14c.81-1,1.09-2.13-1.36-3.45-.22-.12.32-1.79.62-2.7,1.65-4.85,3.4-9.68,5-14.55,1.87-5.69,3.22-10.38,11.34-11.4,10.44-1.3,14.52-13.27,9.07-22.18-2.78-4.55-5.13-9.41-8.33-13.64-3.87-5.11-3.76-10.5-2.52-16.17,1.11-5.1,8-6.64,14.11-3.27,3.18-6.37,1.7-12.55-4.2-18.88-2.65-2.86-5.45-5.77-7.28-9.15-3.11-5.78-8.54-5-13.42-5.42-3.49-.29-7.08,1-10.62.88-5.89-.13-8.73,4.37-12.5,7.5h0c.05-.24.09-.45,0,0h0c0,1.81.83,4.47-.05,5.25-2.2,2-5.16,3.07-7.82,4.52l-1.3-1.8a38.46,38.46,0,0,1,2.59-3.33c7.5-7.68,7.58-16.42.67-24.43-4.35-5-8.23-10.49-12.1-15.92-1.22-1.71-2.61-4.08-2.36-5.93,1.11-8.4-3.27-10.66-10.56-11.18-2.63-.19-5.11-2.45-8.44-4.18,15.47-11.19,31.7-16.56,49.66-14.43,8.9,1.06,17.67,4,26.22,6.81,2.63.88,5.74,4.14,6.27,6.78,2.25,11.06,1.55,22-5.44,33.17,3,.38,5.66.82,8.3,1,3,.2,5.91.17,8.87.24-.71,3.58-1.09,7.26-2.24,10.69-.56,1.66-2.54,2.85-4.36,4.77L345.9,133.9c1.22-5.91-2.78-7.45-6.59-9.5-1.81-1-4.38-3.3-4.17-4.63.34-2.18,2.33-4.51,4.25-6,3.16-2.38,3.85-6.27,1.05-10.32,14.28-2.63,27.89-1.83,40.14,8.42-3.44.3-7,1.23-10.29.77-7.06-1-12.42,1.94-18.14,5.46-2.67,1.65-7,.68-10.87,1.87L359.56,129c4.29-3.75-.93-6.39-3.56-10.31,10.1,1,19.17,1.17,27.93,2.91,7.13,1.42,10.36,12.74,6.89,19.3-2.09,3.95-2.73,8.74-8.22,9.73-.37.06-.84,1-.81,1.51C382.21,161.55,382.63,171,383.22,180.44ZM449.36,313l7.5-.67c.9,5.42,1.42,10.15,2.54,14.73,1,4.06.3,6.68-3.84,8.41-7.74,3.23-15.66,3.36-23.86,2.71-6.69-.54-13.45-.11-20.19-.11l-.15,1.92c.36.32.78,1,1.06.91,7.25-1.47,10.13,1.23,9.53,8.75-.14,1.79,2.69,4,4.45,5.73,4.46,4.36,11,7.43,8.66,15.64-.19.64.82,1.64,1.3,2.52,3.89-3.19,4.58-10,1.48-13.53a15.15,15.15,0,0,0-3.2-2.58c-9.15-5.92-9.16-5.91-10.24-17.4,4.45-.38,6.69,1.64,8.07,5.76a30.29,30.29,0,0,0,4.53,8.41c6,8,12.77,15.5,18.36,23.78,4.19,6.21.48,15.79-6.35,19.14a31.14,31.14,0,0,0-2.79,1.79l-2.53-3.71a2.2,2.2,0,0,0-.88.3c-9.77,8.73-22.05,13.43-34.27,12.62-15.09-1-30.82-4.07-42.38-15.73-7.76-7.83-7.47-18.18-7.05-28.34.34-8.24,6.34-13.3,10.76-19.18,4.15-5.52,9-10.54,12.95-16.17,1.49-2.08,2.49-5.5,1.91-7.87a16.37,16.37,0,0,1,14.83-20.33A45.76,45.76,0,0,0,410.08,298c8-2.7,15.22.18,22.05,3.45,3.32,1.59,5.61,5.33,8.81,8.54l-7.66,4.33ZM288.85,196.56c.26.92,1.32,1.72,1.32,2.58,0,3.13.41,6.58-.77,9.27-.8,1.79-8.44-1.65-9.69-4.82-.91-2.32-.82-5-1.51-7.46-.59-2.12-2.12-4.08-2.34-6.2s.4-6.27,1.06-6.35c7.72-1,9.63-7.87,13.64-12.6a3.72,3.72,0,0,1,2.62-1.41,4.07,4.07,0,0,1,2.41,1.93c3.51,5.88,6.9,11.84,11.09,19.08.3-4.46.47-7.05.71-10.65,4.82,3.95,9,6.83,12.48,10.43,2.56,2.66,3.45,6.36.06,9.38a44.46,44.46,0,0,1-7.85,5.95c-2.79,1.53-5.43,1.74-7.5.08A10.57,10.57,0,0,1,303,203.9c-.15-.28-.24-.6-.4-.88,0-.08-.11-.15-.16-.23-2.14-4.63-2.5-10.6-9.39-11.45C288.63,190.79,287.86,192.93,288.85,196.56Zm-8.1-21.14c-8.66,7.5-19,10.25-29.92,10.88-2.4.13-4.82-3.33-7.52-4.36a27.39,27.39,0,0,1-15.37-14c-1.72-3.53-2.2-7.67-3.23-11.53l1.79-1.34c2.8,1.81,6.48,3,8.23,5.54,4.65,6.72,11.16,6.59,17.9,6.13,13.3-.92,24.86-7.17,36.85-12.17,10.36-4.32,20.76-8.79,33-6.08l-39.8,18.12C285.18,170.74,283.66,172.9,280.75,175.42Zm94.19-83.6c-.17.37-.34.74-.5,1.11a5.4,5.4,0,0,0-.34,1.19c-.47,2.25-2.59,4.38-4.55,5.93-.65-.17-1.31-.3-2-.45H325.25a49.41,49.41,0,0,1,2-7.51,13.53,13.53,0,0,0,1-4.62q.14-3.14,0-6.29A205.89,205.89,0,0,1,374.94,91.82Zm-115,220.61c5.89-.66,10.95-2.5,14.24-8.13,1-1.67,3.95-2.16,7.23-3.8.4,8.6-4.37,12.24-8.95,15.15-7.57,4.8-16,7.53-25.74,6.57C249.57,315.76,254,313.09,259.93,312.43Zm-7.5-3.12c2.41-4.92,4.44-9.7,7.08-14.12,1-1.73,4.18-4.09,5.11-3.63,2.18,1.08,5,3.63,5.11,5.68C270.09,306.41,263,310.92,252.43,309.31Zm-49.11,83.94,1.46.56q-1,6-2.06,11.92l1.32.59a12.44,12.44,0,0,0,2.27-2.7c2.37-5.43,4.79-10.86,6.71-16.45.54-1.58-.26-3.63-.58-5.51l.06-.28q13.78-20.64,27.57-41.25c.22-.33.55-.59.73-.93,4.68-9.21,11.28-15,22.26-16.56,8.61-1.22,16-6.52,21.7-13.46,4.58-5.58,3.4-9.55-3.43-11.67-1.08-.34-2.22-.46-4.61-.93,2.44-4.22,4.06-8.21,6.73-11.28s5.58-1.67,6.57,2.21c1.53,6,3.94,7.28,9.25,4.06,4.73-2.86,7.49-3.21,10.47,2.6,4.41,8.58,14.33,8.38,22.19.7a14.61,14.61,0,0,1,7.94-3.69c4.69-.29,9.46.44,14.15,1.06,1.33.18,3.23,1.21,3.65,2.31,2,5.37,5.85,4.55,9.56,2.78,5.29-2.52,9.47-6,16.7-4.08,4.59,1.24,10.64-2.92,16-4.7,1.45,5.07-.72,7.38-5.66,9.34-3.71,1.46-7,4.06-10.27,6.53l-.8.41a4.78,4.78,0,0,0-2,1.56s0,0,0,.06l-.09.06h0l.05,0a5.22,5.22,0,0,0-.45,1.7l-.05.3c-2.84,6-2.24,10.13,1.86,14.73-7.67,9.07-15.88,17.67-22.8,27.21-9.18,12.64-8.3,27.13,0,38.92,5.27,7.44,15,12.95,23.93,16.25,10.46,3.89,22.15,4.46,34.79,6.73,2.34,6.95,3,17.13,11.39,23.36H176.26Zm231.6,42.5-4.86-9.54.95-.89,17.31,10.43Zm18,0c-4-3.44-8.57-6.38-12.27-10.14-4.44-4.51-8.16-9.73-13-15.61,8.5-3.58,15-6.77,21.83-9.1,16-5.49,16.18-22.06,7.08-32.58-2.45-2.83-5.55-5.08-8.05-7.86a100.18,100.18,0,0,1-9.43-11.58c-2.7-4.1-1.16-6,3.79-7a120.91,120.91,0,0,0,17.51-4.5c3.84-1.34,5.12-5.05,3.86-8.87-2.57-7.77-1.58-14.36,6.68-19.83-8-1.19-14.77-2.16-21.52-3.21-1.28-.2-3.27-.36-3.66-1.15-3.65-7.59-10.81-7.59-17.58-8.49s-14.2-.23-19.19-7.41a55.71,55.71,0,0,0,7.25,1.63c2.1.2,5.62.41,6.11-.57a8.27,8.27,0,0,0-.11-6.87c-2.74-4.55-6.37-8.54-9.47-12.88a22.56,22.56,0,0,1-3.29-6.13c-3.38-10.48-6.69-21-9.75-31.58-2.08-7.16-2.75-14.88-5.74-21.6-6.26-14.11-1.35-29-4.28-43.23-.39-1.92-.73-3.87-1.24-5.76-1.59-6,1-9.89,7.13-10.54,1.16-.12,3,.25,3.54,1.06,6,9.35,15,7.45,22.83,4.7,6.13-2.16,11.58-6.28,17.65-10.16l1.74-3.14c1.88-3.39,3.84-7.14.93-11.25a9.94,9.94,0,0,0-3.86-3.18c-3.86-1.82-8.17-1.53-12.33-1.22,3.23-.56,6.52-1.15,9.72-2,50.38,40.2,82.9,103.15,82.9,173.84a224,224,0,0,1-25.57,104.26h-33v31.89Zm111.76,26.43,32.32,50H515.72V435.75L467.28,411H597.05ZM33.62,299.6C33.62,144.49,155.81,18.29,306,18.29S578.37,144.49,578.37,299.6a287.65,287.65,0,0,1-19.43,104.26h-9.13a279.7,279.7,0,0,0,20-104.26c0-72.77-27.44-141.18-77.26-192.64S376.46,27.17,306,27.17,169.3,55.51,119.48,107,42.22,226.83,42.22,299.6a279.7,279.7,0,0,0,20,104.26H53.05A287.86,287.86,0,0,1,33.62,299.6ZM15,512.21l32.32-50L15,411H144.72L97.54,435.75H96.28v76.46ZM306,580.9a263.81,263.81,0,0,1-121.64-29.66h20.31a257.45,257.45,0,0,0,202.66,0h20.31A263.81,263.81,0,0,1,306,580.9Zm202.59-36.79H103.41V442.88H508.59Z"/><path d="M432.89,314.56h0a1.57,1.57,0,0,1,.17.21l0-.28.24-.14-.26,0Z"/><path d="M240.84,313.37v0h0Z"/><path d="M286.86,363.33c-1.05,2.46-.5,5.62-.69,8.46l1.67-.32c2.31-4.94,4.54-9.92,7-14.81,2.3-4.66,6.18-9,3.21-16.33C293.76,349,290,356,286.86,363.33Z"/><path d="M228.24,311.72c3.91,1.34,8.33,1.17,12.54,1.62a14.72,14.72,0,0,0-2.74-.92c-11-1.52-12-3.25-7.66-12.7.12-.24-.18-.67-.85-2.77-2.36,3.43-5.1,5.81-5.48,8.52C223.78,307.41,226.25,311,228.24,311.72Z"/><path d="M240.83,313.35h-.05l.05,0S240.83,313.35,240.83,313.35Z"/><path d="M321.09,162.27l-2,1.18c.8,4.47,1.59,8.94,2.56,14.37,7.11-4.27,3.94-8.27,2.71-11.86C323.86,164.53,322.21,163.49,321.09,162.27Z"/><path d="M278.34,130.61c.05-.24.09-.41.11-.54v0C278.42,130.18,278.39,130.36,278.34,130.61Z"/><path d="M278.45,130.05Z"/><path d="M176.82,463.23h11v27.93h.27c1.44-2.34,3-4.51,4.42-6.58l15.94-21.35H222l-20.9,25.86L223.39,524h-13l-17.11-27.84-5.5,6.49V524h-11Z"/><path d="M242.49,506.74,237.27,524H225.83l19.45-60.72h14.15L279.15,524h-12l-5.49-17.21Zm17.39-8.37-4.78-15c-1.17-3.69-2.16-7.84-3.06-11.35h-.18c-.9,3.51-1.89,7.75-2.88,11.35l-4.69,15Z"/><path d="M287.62,463.23h11v27.93h.27c1.44-2.34,3-4.51,4.42-6.58l15.94-21.35h13.6l-20.9,25.86L334.19,524h-13l-17.11-27.84-5.5,6.49V524h-11Z"/><path d="M353.29,506.74,348.07,524H336.63l19.45-60.72h14.15L390,524H378l-5.49-17.21Zm17.39-8.37-4.78-15c-1.17-3.69-2.16-7.84-3.06-11.35h-.18c-.9,3.51-1.89,7.75-2.88,11.35l-4.69,15Z"/><path d="M398.24,511.88a30.45,30.45,0,0,0,14.69,3.87c7,0,11-3.33,11-8.29,0-4.59-3.07-7.29-10.72-10.09-10.09-3.6-16.49-8.91-16.49-17.65,0-10,8.29-17.48,21.53-17.48a31.48,31.48,0,0,1,14.5,3.07l-2.61,8.91A26.46,26.46,0,0,0,418,471.34c-7,0-10,3.69-10,7.3,0,4.68,3.51,6.84,11.62,10,10.54,4,15.59,9.28,15.59,18,0,9.82-7.39,18.29-23,18.29-6.49,0-13.16-1.8-16.49-3.87Z"/></svg>