<?xml version="1.0" encoding="UTF-8" standalone="no"?>
<!DOCTYPE svg PUBLIC "-//W3C//DTD SVG 1.1//EN" "http://www.w3.org/Graphics/SVG/1.1/DTD/svg11.dtd">
<svg width="100%" height="100%" viewBox="0 0 4166 4164" version="1.1" xmlns="http://www.w3.org/2000/svg" xmlns:xlink="http://www.w3.org/1999/xlink" xml:space="preserve" xmlns:serif="http://www.serif.com/" style="fill-rule:evenodd;clip-rule:evenodd;stroke-miterlimit:2.613;">
    <g id="GPK" transform="matrix(4.16667,0,0,4.16667,0,-1)">
        <g transform="matrix(0,1,1,0,501.339,88.6441)">
            <path d="M411.831,-411.842C638.918,-411.842 823.663,-227.094 823.663,-0.007C823.663,227.082 638.918,411.831 411.831,411.831C184.758,411.831 0.01,227.082 0.01,-0.007C0.01,-227.094 184.758,-411.842 411.831,-411.842" style="fill:rgb(100,125,153);"/>
        </g>
        <g transform="matrix(1,0,0,1,114.962,729.005)">
            <path d="M0,1.39C3.229,-0.409 4.833,-2.735 4.814,-5.597C4.801,-7.693 3.705,-10.7 1.524,-14.614C-4.298,-25.072 -10.7,-28.357 -17.679,-24.47C-22.145,-21.985 -24.103,-18.272 -23.559,-13.331C-23.191,-9.901 -21.452,-5.396 -18.346,0.181C-17.843,1.087 -17.017,2.425 -15.869,4.2C-14.724,5.971 -13.897,7.308 -13.394,8.217L-13.125,8.698L0,1.39ZM-30.71,18.49L-19.769,12.398C-21.073,9.676 -22.312,7.264 -23.484,5.158C-26.379,-0.045 -28.956,-3.667 -31.208,-5.708C-34.885,-9.057 -38.659,-9.659 -42.517,-7.508C-48.295,-4.293 -48.466,2.2 -43.028,11.963C-41.19,15.264 -39.493,17.461 -37.944,18.552C-35.838,20.022 -33.427,19.999 -30.71,18.49M20.919,6.441C16.868,4.872 12.801,5.224 8.72,7.495L-28.719,28.343C-32.746,30.584 -35.138,33.847 -35.896,38.131C-36.222,37.546 -36.7,36.69 -37.327,35.561C-37.955,34.432 -38.433,33.576 -38.76,32.99C-39.999,30.762 -41.943,27.458 -44.591,23.081C-47.238,18.698 -49.183,15.394 -50.421,13.169C-53.816,7.073 -55.447,1.667 -55.315,-3.051C-55.134,-8.681 -52.415,-12.958 -47.164,-15.882C-41.328,-19.131 -35.72,-18.253 -30.345,-13.238C-33.319,-22.094 -30.917,-28.686 -23.133,-33.023C-17.294,-36.271 -11.793,-36.741 -6.632,-34.432C-1.89,-32.311 2.31,-27.969 5.965,-21.403C7.075,-19.409 8.679,-16.366 10.774,-12.273C12.87,-8.181 14.474,-5.138 15.583,-3.144L18.618,2.307C18.898,2.807 19.664,4.183 20.919,6.441" style="fill:rgb(100,125,153);"/>
        </g>
        <g transform="matrix(1,0,0,1,78.8027,654.788)">
            <path d="M0,-54.965C-3.559,-57.464 -7.599,-58.077 -12.12,-56.8L-46.824,-47.006C-50.435,-45.985 -53.975,-45.277 -57.441,-44.872C-53.14,-44.793 -49.251,-44.604 -45.774,-44.295L-0.659,-40.447C0.091,-40.379 0.934,-40.479 1.873,-40.744C2.842,-41.017 3.485,-41.267 3.801,-41.494L6.945,-30.355C6.38,-30.333 5.702,-30.209 4.908,-29.987C3.969,-29.721 3.2,-29.366 2.595,-28.919L-33.811,-1.938C-36.937,0.366 -40.155,2.558 -43.47,4.638C-40.91,3.14 -37.549,1.806 -33.38,0.63L1.324,-9.164C5.817,-10.432 8.939,-13.071 10.691,-17.081L15.764,0.891C12.21,-1.589 8.173,-2.196 3.653,-0.916L-37.568,10.715C-42.001,11.967 -45.083,14.579 -46.815,18.553L-52.338,-1.021C-51.553,-0.715 -50.853,-0.652 -50.237,-0.828C-50.001,-0.892 -49.803,-0.979 -49.642,-1.086L-14.196,-27.29C-11.334,-29.394 -7.759,-31.539 -3.469,-33.731C-8.558,-33.34 -12.727,-33.285 -15.976,-33.557L-59.855,-37.218C-59.883,-37.21 -59.932,-37.215 -60.001,-37.235C-60.292,-37.262 -60.528,-37.253 -60.704,-37.204C-60.918,-37.072 -61.435,-36.718 -62.25,-36.141L-67.814,-55.859C-64.343,-53.439 -60.361,-52.864 -55.87,-54.133L-14.649,-65.765C-10.071,-67.058 -6.932,-69.642 -5.237,-73.518L0,-54.965Z" style="fill:rgb(100,125,153);"/>
        </g>
        <g transform="matrix(1,0,0,1,2.5293,538.21)">
            <path d="M0,-31.801C-0.107,-34.147 -0.95,-36.445 -2.529,-38.692L18.753,-39.658C14.103,-37.167 10.906,-33.564 9.162,-28.857C7.75,-25.001 7.187,-19.909 7.473,-13.584C7.632,-10.102 8.11,-7.608 8.912,-6.103C10.085,-3.908 12.057,-2.873 14.836,-2.999L28.708,-3.628L28.129,-16.374C27.868,-22.13 25.723,-26.489 21.691,-29.46L40.114,-30.296C36.407,-26.975 34.682,-22.439 34.943,-16.685L35.52,-3.936L52.294,-4.697C55.343,-4.834 57.359,-6.15 58.345,-8.646C59.001,-10.319 59.243,-13.078 59.067,-16.932C58.751,-23.927 57.7,-29.231 55.914,-32.842C53.792,-37.137 50.029,-40.524 44.621,-42.995L66.705,-43.998C65.367,-41.751 64.766,-39.205 64.895,-36.355L66.96,9.252C64.068,6.028 60.273,4.523 55.579,4.737L12.785,6.679C8.182,6.888 4.587,8.725 1.994,12.197L0,-31.801Z" style="fill:rgb(100,125,153);"/>
        </g>
        <g transform="matrix(1,0,0,1,116.264,323.878)">
            <path d="M0,-19.736C-2.848,-18.858 -4.817,-17.173 -5.908,-14.685C-6.701,-12.87 -7.489,-10.011 -8.272,-6.106C-9.055,-2.2 -9.843,0.659 -10.637,2.472C-18.593,20.672 -32.421,25.465 -52.116,16.851C-61.503,12.749 -68.108,7.497 -71.934,1.098C-76.542,-6.556 -76.699,-15.287 -72.412,-25.095C-71.711,-26.693 -70.369,-28.915 -68.377,-31.766C-66.389,-34.611 -65.043,-36.835 -64.346,-38.434C-63.511,-40.34 -63.437,-42.597 -64.118,-45.201L-41.196,-35.179C-47.411,-34.528 -52.163,-33.457 -55.45,-31.963C-60.198,-29.794 -63.648,-26.251 -65.798,-21.332C-68.622,-14.878 -67.899,-8.868 -63.637,-3.307C-60.366,0.944 -55.472,4.493 -48.955,7.341C-42.635,10.107 -36.862,11.222 -31.633,10.691C-24.907,10.01 -20.17,6.525 -17.415,0.23C-15.726,-3.637 -15.113,-7.249 -15.578,-10.596C-16.083,-14.474 -18.011,-17.146 -21.364,-18.613L-26.86,-21.016C-31.164,-22.897 -35.368,-22.532 -39.474,-19.923L-32.094,-36.802C-30.851,-34.237 -27.827,-31.903 -23.018,-29.801L0,-19.736Z" style="fill:rgb(100,125,153);"/>
        </g>
        <g transform="matrix(1,0,0,1,84.6528,244.781)">
            <path d="M0,-30.021L-3.076,-49.243C-3.502,-51.849 -3.219,-53.849 -2.228,-55.247C-1.607,-56.12 -0.797,-56.655 0.2,-56.854C1.2,-57.051 2.095,-56.869 2.886,-56.307C4.103,-55.444 4.526,-53.415 4.158,-50.217L2.156,-33.059L0,-30.021ZM19.801,-46.519C21.161,-48.433 21.894,-50.772 21.999,-53.538L39.402,-41.185C34.217,-42.069 29.491,-41.191 25.228,-38.543C21.746,-36.371 18.173,-32.701 14.503,-27.532C12.488,-24.69 11.329,-22.429 11.032,-20.749C10.601,-18.302 11.513,-16.278 13.768,-14.674L25.042,-6.67L32.432,-17.083C35.769,-21.781 36.774,-26.533 35.442,-31.339L50.481,-20.664C45.491,-20.345 41.328,-17.835 37.991,-13.136L30.6,-2.727L44.294,6.996C46.782,8.762 49.182,8.964 51.495,7.605C53.041,6.688 54.931,4.659 57.164,1.513C61.217,-4.199 63.656,-9.027 64.474,-12.968C65.452,-17.659 64.576,-22.638 61.849,-27.903L79.852,-15.125C77.435,-14.166 75.399,-12.523 73.746,-10.197L47.32,27.03C47.035,22.694 44.975,19.162 41.144,16.443L6.226,-8.343C2.469,-11.01 -1.502,-11.763 -5.694,-10.604L19.801,-46.519Z" style="fill:rgb(100,125,153);"/>
        </g>
        <g transform="matrix(1,0,0,1,159.539,175.209)">
            <path d="M0,-21.669L14.819,-6.012C15.704,-8.64 17.849,-12.171 21.262,-16.61C22.797,-18.602 23.792,-19.917 24.25,-20.56C28.142,-25.967 28.016,-30.859 23.877,-35.232C18.415,-41.003 12.197,-40.591 5.232,-33.997C-0.711,-28.37 -2.456,-24.262 0,-21.669M26.135,27.132C26.679,22.836 25.335,18.983 22.105,15.572L-7.336,-15.528C-10.48,-18.852 -14.213,-20.381 -18.527,-20.12L-15.29,-23.001C-14.562,-23.65 -13.941,-24.215 -13.43,-24.701C-11.725,-26.315 -9.258,-28.839 -6.037,-32.276C-2.813,-35.709 -0.349,-38.235 1.359,-39.85C6.528,-44.744 11.57,-47.502 16.484,-48.125C21.853,-48.801 26.706,-46.848 31.042,-42.267C35.673,-37.377 37.043,-31.578 35.151,-24.877C34.432,-22.265 31.847,-18.076 27.401,-12.315C27.021,-11.787 26.291,-10.823 25.214,-9.425C22.861,-6.358 21.532,-4.278 21.224,-3.191C20.645,-1.173 21.32,0.857 23.251,2.895L29.038,9.008C32.268,12.419 36.041,13.974 40.355,13.672L26.135,27.132Z" style="fill:rgb(100,125,153);"/>
        </g>
        <g transform="matrix(1,0,0,1,225.642,122.871)">
            <path d="M0,-45.813L4.466,-64.786C5.064,-67.361 6.086,-69.105 7.533,-70.017C8.445,-70.589 9.398,-70.775 10.395,-70.578C11.392,-70.377 12.153,-69.864 12.672,-69.04C13.468,-67.773 13.089,-65.733 11.532,-62.917L3.15,-47.798L0,-45.813ZM24.666,-53.506C26.651,-54.758 28.225,-56.639 29.381,-59.15L40.74,-41.119C36.28,-43.918 31.573,-44.907 26.618,-44.085C22.567,-43.401 17.86,-41.369 12.493,-37.989C9.541,-36.13 7.607,-34.476 6.693,-33.037C5.358,-30.936 5.433,-28.711 6.91,-26.366L14.29,-14.652L25.105,-21.469C29.988,-24.545 32.729,-28.565 33.328,-33.528L43.16,-17.926C38.441,-19.5 33.641,-18.747 28.758,-15.671L17.942,-8.857L26.887,5.339C28.51,7.915 30.653,9.016 33.309,8.64C35.091,8.382 37.612,7.223 40.877,5.166C46.81,1.428 50.905,-2.11 53.165,-5.449C55.859,-9.418 56.947,-14.364 56.43,-20.282L68.196,-1.609C65.598,-1.642 63.09,-0.898 60.679,0.621L22.051,24.962C23.416,20.858 22.847,16.819 20.345,12.845L-2.478,-23.375C-4.933,-27.269 -8.305,-29.486 -12.598,-30.023L24.666,-53.506Z" style="fill:rgb(100,125,153);"/>
        </g>
        <g transform="matrix(1,0,0,1,323.458,26.5504)">
            <path d="M0,80.309L-8.168,59.304C1.368,66.075 10.121,67.909 18.088,64.811C22.054,63.27 24.833,61.122 26.426,58.371C28.14,55.474 28.305,52.243 26.92,48.679C25.8,45.8 24.072,43.798 21.735,42.673C19.799,41.752 17.006,41.246 13.353,41.156C12.625,41.148 9.289,41.274 3.34,41.54C-0.623,41.705 -3.936,41.552 -6.6,41.08C-11.81,40.157 -15.41,37.136 -17.401,32.011C-19.414,26.831 -18.821,21.932 -15.616,17.309C-12.749,13.116 -8.393,9.883 -2.546,7.609C-0.983,7.002 1.423,6.389 4.672,5.771C7.924,5.15 10.33,4.538 11.892,3.931C13.924,3.141 15.16,1.83 15.603,0L23.023,19.094C15.559,12.758 7.921,11.108 0.11,14.145C-3.079,15.384 -5.468,17.1 -7.061,19.289C-8.901,21.774 -9.28,24.412 -8.195,27.199C-7.432,29.163 -6.125,30.635 -4.268,31.616C-2.595,32.502 1.865,32.832 9.104,32.604C10.489,32.557 12.112,32.516 13.971,32.483C25.426,32.252 32.74,36.22 35.915,44.386C38.293,50.503 37.917,55.97 34.789,60.787C31.966,65.193 27.116,68.733 20.238,71.408C18.673,72.014 16.242,72.589 12.944,73.127C9.643,73.668 7.212,74.24 5.649,74.846C3.68,75.613 1.796,77.434 0,80.309" style="fill:rgb(100,125,153);"/>
        </g>
        <g transform="matrix(1,0,0,1,418.832,65.2046)">
            <path d="M0,-45.582C0.231,-46.156 0.286,-46.776 0.162,-47.441C-0.225,-49.526 -2.582,-50.164 -6.901,-49.358C-19.041,-47.096 -26.483,-40.872 -29.227,-30.686L-33.322,-52.66C-31.306,-51.55 -29.409,-51.16 -27.629,-51.496L15.707,-59.572L-8.415,0.011C-8.733,0.813 -8.846,1.469 -8.75,1.978C-8.382,3.949 -5.526,4.438 -0.181,3.441C13.015,0.981 21.433,-5.405 25.075,-15.718L29.172,6.256C26.964,5.227 24.838,4.899 22.792,5.281L-23.918,13.99L0,-45.582Z" style="fill:rgb(100,125,153);"/>
        </g>
        <g transform="matrix(1,0,0,1,537.384,1.5793)">
            <path d="M0,66.429C3.438,63.815 5.246,60.156 5.425,55.463L6.786,19.43C6.927,15.678 7.36,12.095 8.08,8.67C6.685,12.74 5.301,16.382 3.938,19.598L-13.608,61.334C-13.902,62.027 -14.069,62.862 -14.105,63.837C-14.146,64.843 -14.105,65.531 -13.981,65.902L-25.55,65.463C-25.404,64.919 -25.313,64.238 -25.283,63.414C-25.245,62.438 -25.344,61.596 -25.58,60.885L-40.031,17.936C-41.268,14.255 -42.366,10.518 -43.327,6.725C-42.707,9.62 -42.479,13.232 -42.641,17.56L-44.005,53.593C-44.181,58.255 -42.624,62.04 -39.334,64.944L-57.993,64.238C-54.543,61.621 -52.728,57.965 -52.552,53.271L-50.935,10.477C-50.759,5.877 -52.294,2.138 -55.538,-0.731L-35.217,0.037C-35.744,0.683 -36.021,1.324 -36.044,1.957C-36.055,2.199 -36.017,2.411 -35.931,2.597L-21.919,44.395C-20.81,47.765 -19.878,51.832 -19.126,56.594C-17.934,51.629 -16.715,47.644 -15.465,44.634L1.53,4.018C1.53,3.987 1.549,3.94 1.591,3.883C1.717,3.616 1.78,3.391 1.788,3.21C1.73,2.966 1.552,2.366 1.25,1.416L21.725,2.19C18.327,4.747 16.542,8.359 16.366,13.023L14.749,55.814C14.567,60.572 16.075,64.35 19.267,67.16L0,66.429Z" style="fill:rgb(100,125,153);"/>
        </g>
        <g transform="matrix(1,0,0,1,627.488,80.0907)">
            <path d="M0,-68.87L17.02,-78.403C19.323,-79.701 21.301,-80.124 22.951,-79.674C23.987,-79.389 24.767,-78.811 25.294,-77.938C25.821,-77.067 25.956,-76.159 25.698,-75.216C25.303,-73.775 23.539,-72.676 20.408,-71.918L3.595,-67.884L0,-68.87ZM22.276,-55.956C24.542,-55.332 26.986,-55.434 29.614,-56.258L23.987,-35.72C23.045,-40.909 20.598,-45.053 16.648,-48.156C13.411,-50.688 8.733,-52.79 2.623,-54.465C-0.742,-55.387 -3.269,-55.698 -4.949,-55.401C-7.396,-54.967 -8.986,-53.413 -9.72,-50.738L-13.378,-37.388L-1.055,-34.012C4.51,-32.485 9.321,-33.169 13.38,-36.063L8.511,-18.278C6.498,-22.859 2.711,-25.913 -2.854,-27.437L-15.177,-30.812L-19.615,-14.623C-20.423,-11.681 -19.785,-9.354 -17.717,-7.652C-16.322,-6.51 -13.768,-5.431 -10.047,-4.412C-3.285,-2.56 2.087,-1.923 6.072,-2.505C10.815,-3.194 15.195,-5.718 19.208,-10.081L13.364,11.254C11.642,9.282 9.403,7.92 6.654,7.168L-37.379,-4.894C-33.427,-6.658 -30.828,-9.805 -29.587,-14.334L-18.271,-55.632C-17.058,-60.076 -17.701,-64.06 -20.203,-67.593L22.276,-55.956Z" style="fill:rgb(100,125,153);"/>
        </g>
        <g transform="matrix(1,0,0,1,709.79,108.504)">
            <path d="M0,-45.175L-6.062,-33.297C-3.276,-31.669 -0.835,-30.321 1.258,-29.252C6.789,-26.425 11.093,-24.811 14.166,-24.41C19.073,-23.756 22.595,-25.525 24.733,-29.716C27.944,-35.999 24.437,-41.753 14.21,-46.977C10.741,-48.746 8.035,-49.613 6.094,-49.575C3.504,-49.526 1.475,-48.059 0,-45.175M-17.894,-10.134C-20.03,-5.946 -20.235,-1.867 -18.506,2.102L-35.942,-6.803C-31.708,-7.722 -28.519,-10.274 -26.383,-14.459L-6.902,-52.607C-4.807,-56.71 -4.631,-60.748 -6.369,-64.719C-5.74,-64.397 -4.823,-63.927 -3.611,-63.31C-2.4,-62.692 -1.483,-62.222 -0.854,-61.904C2.313,-60.284 6.624,-58.204 12.07,-55.664L19.238,-52.321C19.895,-51.984 20.584,-51.632 21.304,-51.267C34.874,-44.338 38.999,-35.659 33.674,-25.231C30.276,-18.576 23.998,-16.03 14.839,-17.593C17.453,-14.82 19.014,-12.119 19.521,-9.5C19.961,-7.256 19.697,-4.273 18.738,-0.552C17.508,2.378 16.077,6.835 14.454,12.821C14.133,15.223 14.531,17.465 15.657,19.544L5.394,14.304C4.01,13.323 3.54,11.885 3.982,9.986C4.268,8.69 5.1,6.672 6.481,3.933C7.859,1.192 8.771,-0.871 9.217,-2.254C10.714,-7.181 10.472,-11.318 8.489,-14.66C6.736,-17.646 3.246,-20.474 -1.983,-23.144C-2.791,-23.555 -4.035,-24.14 -5.719,-24.899C-7.404,-25.654 -8.651,-26.239 -9.459,-26.654L-17.894,-10.134Z" style="fill:rgb(100,125,153);"/>
        </g>
        <g transform="matrix(1,0,0,1,807.578,165.948)">
            <path d="M0,-58.94C-0.937,-58.366 -1.467,-58.032 -1.59,-57.932C-1.705,-57.79 -1.81,-57.58 -1.903,-57.307C-1.917,-57.238 -1.931,-57.19 -1.95,-57.166L-10.952,-14.129C-12.002,-9.094 -13.317,-4.688 -14.901,-0.909C-13.161,-3.891 -10.843,-7.17 -7.951,-10.755L11.818,-35.23C14.69,-38.79 15.674,-42.72 14.765,-47.018L29.296,-35.285C24.957,-35.26 21.343,-33.456 18.45,-29.873L-12.584,8.555C-13.924,10.217 -14.674,11.571 -14.83,12.62L-25.635,3.892C-25.618,3.87 -25.569,3.834 -25.483,3.785C-24.748,3.456 -24.253,3.14 -24.009,2.837C-23.894,2.695 -23.798,2.475 -23.718,2.181C-23.712,2.107 -23.698,2.057 -23.679,2.036L-13.693,-45.62C-13.119,-48.41 -12.016,-52.486 -10.393,-57.85C-12.064,-54.81 -14.119,-51.78 -16.553,-48.768L-38.864,-21.138C-41.795,-17.508 -42.819,-13.551 -41.927,-9.264L-56.458,-20.996C-52.102,-21.006 -48.452,-22.838 -45.502,-26.495L-18.606,-59.8C-15.712,-63.381 -14.718,-67.303 -15.624,-71.56L0,-58.94Z" style="fill:rgb(100,125,153);"/>
        </g>
        <g transform="matrix(1,0,0,1,901.648,224.603)">
            <path d="M0,-44.233C1.065,-45.101 2.351,-45.422 3.854,-45.194C5.358,-44.969 6.583,-44.269 7.536,-43.099C8.508,-41.901 8.956,-40.547 8.882,-39.04C8.808,-37.532 8.226,-36.335 7.132,-35.447C5.945,-34.486 4.644,-34.11 3.232,-34.324C1.818,-34.536 0.585,-35.294 -0.473,-36.595C-1.511,-37.87 -1.98,-39.226 -1.887,-40.663C-1.794,-42.099 -1.167,-43.291 0,-44.233M-11.601,-58.52C-10.532,-59.385 -9.23,-59.688 -7.695,-59.421C-6.16,-59.157 -4.919,-58.438 -3.969,-57.265C-2.996,-56.067 -2.565,-54.735 -2.67,-53.266C-2.776,-51.796 -3.378,-50.618 -4.466,-49.734C-7.149,-47.556 -9.651,-47.9 -11.978,-50.761C-13.034,-52.063 -13.531,-53.442 -13.472,-54.895C-13.411,-56.347 -12.787,-57.556 -11.601,-58.52M-58.779,-1.282C-50.619,8.764 -39.752,8.273 -26.173,-2.752C-20.587,-7.286 -16.844,-11.886 -14.94,-16.549C-12.411,-22.718 -13.405,-28.579 -17.918,-34.137C-26.138,-44.263 -37.027,-43.821 -50.583,-32.816C-56.143,-28.301 -59.877,-23.665 -61.786,-18.912C-64.274,-12.691 -63.27,-6.816 -58.779,-1.282M-64.692,3.521C-71.212,-4.501 -73.356,-12.613 -71.138,-20.814C-69.281,-27.725 -64.519,-34.294 -56.846,-40.525C-49.125,-46.793 -41.693,-50.105 -34.553,-50.456C-26.097,-50.882 -18.58,-47.046 -11.999,-38.941C-5.482,-30.919 -3.337,-22.805 -5.557,-14.605C-7.413,-7.695 -12.164,-1.133 -19.815,5.079C-27.533,11.346 -34.965,14.655 -42.105,15.01C-50.586,15.455 -58.114,11.626 -64.692,3.521" style="fill:rgb(100,125,153);"/>
        </g>
        <g transform="matrix(1,0,0,1,941.345,314.48)">
            <path d="M0,-48.703C-3.963,-50.397 -7.995,-50.189 -12.09,-48.075L-31.334,-38.145L0.599,-29.755C3.068,-29.102 4.941,-29.105 6.215,-29.764C7.275,-30.31 7.88,-31.433 8.033,-33.137L17.264,-15.244C16.119,-15.932 12.222,-17.498 5.581,-19.946L5.454,-19.995L-13.152,-25.301L-33.824,4.72C-36.535,8.648 -38.285,12.874 -39.073,17.401L-47.732,0.625C-45.805,1.103 -44.176,0.999 -42.853,0.315C-41.685,-0.286 -40.498,-1.473 -39.282,-3.245L-21.908,-28.237L-40.084,-33.631L-50.166,-28.426C-54.338,-26.273 -56.881,-23.09 -57.795,-18.88L-66.776,-36.278C-62.794,-34.551 -58.713,-34.763 -54.538,-36.918L-16.468,-56.563C-12.372,-58.675 -9.876,-61.856 -8.978,-66.104L0,-48.703Z" style="fill:rgb(100,125,153);"/>
        </g>
        <g transform="matrix(1,0,0,1,978.727,357.482)">
            <path d="M0,-1.399C-3.642,-3.732 -7.652,-4.184 -12.032,-2.764L-52.781,10.429C-57.252,11.877 -60.278,14.609 -61.86,18.63L-67.895,0.001C-64.247,2.344 -60.19,2.791 -55.725,1.344L-14.977,-11.849C-10.596,-13.269 -7.613,-15.994 -6.034,-20.029L0,-1.399Z" style="fill:rgb(100,125,153);"/>
        </g>
        <g transform="matrix(1,0,0,1,998.036,555.331)">
            <path d="M0,-11.463C-2.395,-15.045 -5.886,-17.067 -10.464,-17.525L-31.982,-19.694L-9.794,4.751C-8.088,6.643 -6.525,7.66 -5.105,7.803C-3.925,7.921 -2.81,7.308 -1.758,5.966L-3.773,25.998C-4.355,24.792 -6.745,21.346 -10.939,15.666L-11.019,15.553L-23.757,0.988L-57.446,14.872C-61.863,16.687 -65.634,19.277 -68.762,22.639L-66.869,3.856C-65.51,5.308 -64.085,6.108 -62.594,6.259C-61.286,6.393 -59.641,6.064 -57.655,5.279L-29.455,-6.215L-41.756,-20.678L-53.053,-21.817C-57.732,-22.287 -61.604,-21.01 -64.67,-17.981L-62.706,-37.461C-60.313,-33.839 -56.782,-31.792 -52.107,-31.32L-9.511,-27.03C-4.93,-26.569 -1.106,-27.873 1.964,-30.946L0,-11.463Z" style="fill:rgb(100,125,153);"/>
        </g>
        <g transform="matrix(1,0,0,1,940.175,634.935)">
            <path d="M0,-10.579C-1.848,-5.671 -3.26,-1.647 -4.243,1.491C-5.193,4.534 -6.319,8.596 -7.621,13.677L29.444,12.664L0,-10.579ZM-6.402,-15.725C-9.794,-18.296 -12.348,-19.853 -14.067,-20.392C-16.168,-21.046 -18.274,-20.809 -20.39,-19.678L-14.919,-37.164C-13.07,-32.965 -9.53,-28.802 -4.304,-24.668L35.305,6.6C35.61,6.842 35.92,7.015 36.242,7.113C37.137,7.394 38.188,7.333 39.395,6.929L34.168,23.647C33.522,22.751 32.819,22.186 32.064,21.949C31.658,21.82 31.147,21.763 30.537,21.774L-19.104,22.972C-25.868,23.139 -31.119,24.345 -34.857,26.585L-29.282,8.764C-28.176,11.148 -26.563,12.672 -24.437,13.337C-22.778,13.856 -19.859,14.013 -15.68,13.809C-14.174,9.918 -12.502,5.029 -10.656,-0.865C-8.824,-6.725 -7.407,-11.68 -6.402,-15.725" style="fill:rgb(100,125,153);"/>
        </g>
        <g transform="matrix(1,0,0,1,930.829,725.514)">
            <path d="M0,-1.21L-11.656,-7.691C-13.381,-4.97 -14.812,-2.583 -15.951,-0.534C-18.964,4.882 -20.725,9.116 -21.232,12.168C-22.054,17.04 -20.406,20.621 -16.295,22.906C-10.126,26.337 -4.26,23.046 1.31,13.03C3.199,9.636 4.158,6.969 4.187,5.03C4.227,2.443 2.831,0.364 0,-1.21M-34.396,-20.336C-38.511,-22.624 -42.569,-22.994 -46.574,-21.451L-37.061,-38.564C-36.3,-34.279 -33.866,-30.998 -29.758,-28.715L7.682,-7.895C11.708,-5.653 15.742,-5.344 19.779,-6.956C19.436,-6.343 18.934,-5.437 18.274,-4.25C17.615,-3.061 17.112,-2.163 16.772,-1.545C15.042,1.564 12.812,5.799 10.084,11.154L6.495,18.201C6.138,18.847 5.759,19.52 5.369,20.226C-2.035,33.543 -10.856,37.354 -21.09,31.664C-27.624,28.034 -29.947,21.668 -28.065,12.571C-30.931,15.09 -33.68,16.554 -36.321,16.969C-38.576,17.322 -41.548,16.958 -45.236,15.867C-48.123,14.532 -52.525,12.945 -58.449,11.11C-60.842,10.704 -63.097,11.025 -65.217,12.071L-59.625,2.018C-58.598,0.674 -57.142,0.257 -55.258,0.768C-53.973,1.1 -51.984,2.004 -49.296,3.481C-46.602,4.959 -44.572,5.944 -43.201,6.439C-38.329,8.111 -34.188,8.02 -30.776,6.162C-27.733,4.521 -24.787,1.141 -21.938,-3.981C-21.499,-4.772 -20.87,-5.994 -20.058,-7.65C-19.239,-9.304 -18.612,-10.526 -18.173,-11.316L-34.396,-20.336Z" style="fill:rgb(100,125,153);"/>
        </g>
        <g transform="matrix(1,0,0,1,373.231,978.477)">
            <path d="M0,-25.101L-6.394,-25.101C-8.506,-25.101 -10.242,-24.618 -11.598,-23.651L-11.598,-33.022C-9.687,-32.203 -7.929,-31.794 -6.317,-31.794C-0.591,-31.794 2.268,-34.719 2.268,-40.566C2.268,-42.186 1.936,-43.686 1.271,-45.065L10.148,-45.065C9.478,-43.121 9.143,-40.758 9.143,-37.979L9.143,9.021C9.143,13.654 10.76,17.303 13.996,19.964L-4.892,19.964C-1.631,17.337 0,13.692 0,9.034L0,-25.101Z" style="fill:rgb(88,106,132);"/>
        </g>
        <g transform="matrix(1,0,0,1,454.434,993.004)">
            <path d="M0,-52.838C-4.076,-52.838 -7.36,-52.044 -9.856,-50.462C-12.718,-48.642 -14.146,-45.953 -14.146,-42.4C-14.146,-38.785 -12.732,-36.052 -9.906,-34.201C-7.41,-32.562 -4.105,-31.737 0,-31.737C4.139,-31.737 7.459,-32.562 9.956,-34.201C12.815,-36.052 14.243,-38.785 14.243,-42.4C14.243,-45.953 12.798,-48.642 9.906,-50.462C7.41,-52.044 4.109,-52.838 0,-52.838M0.02,-25.223C-4.93,-25.223 -8.882,-24.283 -11.829,-22.402C-15.207,-20.222 -16.896,-16.968 -16.896,-12.637C-16.896,-8.305 -15.207,-5.048 -11.829,-2.87C-8.882,-0.958 -4.93,-0.003 0.02,-0.003C4.969,-0.003 8.917,-0.958 11.87,-2.87C15.246,-5.048 16.932,-8.305 16.932,-12.637C16.932,-16.938 15.229,-20.178 11.821,-22.356C8.871,-24.268 4.938,-25.223 0.02,-25.223M14.551,-29.087C22.395,-26.157 26.316,-20.746 26.316,-12.851C26.316,-6.091 23.688,-1.025 18.431,2.356C13.861,5.287 7.718,6.754 -0.005,6.754C-7.695,6.754 -13.825,5.27 -18.393,2.309C-23.649,-1.068 -26.277,-6.122 -26.277,-12.851C-26.277,-20.746 -22.367,-26.157 -14.542,-29.087C-20.535,-31.6 -23.528,-36.071 -23.528,-42.5C-23.528,-48.392 -21.131,-52.818 -16.327,-55.779C-12.216,-58.319 -6.772,-59.592 0,-59.592C6.775,-59.592 12.232,-58.319 16.377,-55.779C21.211,-52.818 23.627,-48.392 23.627,-42.5C23.627,-36.102 20.601,-31.63 14.551,-29.087" style="fill:rgb(88,106,132);"/>
        </g>
        <g transform="matrix(1,0,0,1,524.81,932.635)">
            <path d="M0,65.806C4.57,61.742 8.353,55.93 11.343,48.369L24.067,16.229C24.655,14.729 24.952,13.498 24.952,12.539C24.952,9.36 22.125,7.77 16.471,7.77C4.931,7.77 -3.68,12.757 -9.367,22.729L-9.367,0C-7,1.395 -4.504,2.093 -1.873,2.093L42.751,2.093C39.137,5.443 36.242,9.848 34.072,15.32L19.429,52.135C18.344,54.854 17.8,57.109 17.8,58.902C17.8,61.355 18.983,63.654 21.351,65.806L0,65.806Z" style="fill:rgb(88,106,132);"/>
        </g>
        <g transform="matrix(1,0,0,1,620.543,978.477)">
            <path d="M0,-25.101L-6.394,-25.101C-8.506,-25.101 -10.242,-24.618 -11.596,-23.651L-11.596,-33.022C-9.688,-32.203 -7.927,-31.794 -6.314,-31.794C-0.591,-31.794 2.271,-34.719 2.271,-40.566C2.271,-42.186 1.938,-43.686 1.273,-45.065L10.15,-45.065C9.48,-43.121 9.145,-40.758 9.145,-37.979L9.145,9.021C9.145,13.654 10.76,17.303 13.995,19.964L-4.889,19.964C-1.629,17.337 0,13.692 0,9.034L0,-25.101Z" style="fill:rgb(88,106,132);"/>
        </g>
        <g transform="matrix(1,0,0,1,402.041,765.493)">
            <path d="M0,-55.806C-3.65,-48.388 -12.606,-36.674 -12.606,-36.674C-10.876,-36.236 -9.747,-36.161 -8.687,-36.068C-7.168,-35.401 -5.18,-34.134 -3.661,-33.494C-2.851,-32.794 -1.966,-32.022 -0.624,-31.132C4.669,-27.04 2.516,-22.042 1.599,-17.128C0.893,-13.322 -0.838,-4.16 1.703,-1.554C4.422,1.272 10.247,2.863 10.247,2.863C10.247,2.863 15.929,4.994 19.777,4.324C23.342,3.656 27.296,-4.827 28.956,-8.29C31.108,-12.841 32.273,-18.128 38.944,-18.411C40.781,-18.318 41.946,-18.486 43.003,-18.642C44.486,-18.287 45.969,-17.971 47.453,-17.692C48.477,-17.128 49.537,-16.499 51.193,-15.865C57.194,-12.967 56.137,-7.62 56.279,-2.612C56.351,1.217 56.563,10.56 59.594,12.613C62.844,14.796 68.88,15.112 68.88,15.112C68.88,15.112 69.443,15.186 70.292,15.268L70.292,-52.505C47.285,-55.436 26.613,-61.798 6.597,-71.074C6.597,-71.074 3.653,-63.224 0,-55.806" style="fill:white;"/>
        </g>
        <g transform="matrix(1,0,0,1,353.41,372.684)">
            <path d="M0,54.98C-3.345,28.206 21.582,15.36 21.582,15.36C21.582,15.36 2.393,1.428 -2.867,-5.743C-8.126,-12.916 -6.693,-31.499 4.782,-42.495C20.362,-57.428 40.85,-69.21 62.421,-78.248L80.212,-130.35C78.481,-132.328 77.564,-135.027 76.364,-137.554C74.705,-141.012 73.428,-149.501 69.863,-150.102C65.98,-150.772 57.62,-148.622 57.62,-148.622C57.62,-148.622 51.795,-147.032 49.076,-144.222C46.536,-141.575 48.337,-132.38 49.076,-128.603C49.993,-123.682 52.146,-118.686 46.925,-114.591C45.404,-113.581 44.558,-112.77 43.781,-112.034C42.369,-111.43 40.96,-110.793 39.546,-110.161C38.417,-109.983 37.178,-109.84 35.522,-109.417C28.953,-108.219 26.698,-113.18 23.625,-117.148C21.296,-120.202 15.649,-127.653 11.978,-127.526C8.058,-127.371 3.011,-124.086 3.011,-124.086C3.011,-124.086 -2.389,-121.312 -4.438,-117.98C-6.38,-114.888 -2.708,-106.275 -1.225,-102.713C0.714,-98.104 3.859,-93.675 -0.415,-88.558C-1.719,-87.228 -2.389,-86.246 -2.991,-85.342C-4.224,-84.479 -5.426,-83.595 -6.627,-82.716C-7.72,-82.324 -8.92,-81.898 -10.475,-81.14C-16.651,-78.6 -19.897,-82.961 -23.712,-86.246C-26.643,-88.715 -33.736,-94.82 -37.266,-93.941C-41.042,-93.004 -45.351,-88.715 -45.351,-88.715C-45.351,-88.715 -50.012,-84.864 -51.349,-81.214C-52.588,-77.773 -47.222,-70.11 -45.033,-66.936C-42.173,-62.824 -38.183,-59.166 -41.292,-53.259C-42.245,-51.756 -42.704,-50.677 -43.091,-49.691C-44.115,-48.582 -45.068,-47.431 -46.09,-46.285C-47.079,-45.684 -48.177,-45.049 -49.589,-43.898C-55.128,-40.142 -59.188,-43.742 -63.601,-46.126C-66.99,-47.979 -75.177,-52.498 -78.462,-50.872C-81.955,-49.147 -85.276,-44.061 -85.276,-44.061C-85.276,-44.061 -89.052,-39.345 -89.582,-35.464C-90.074,-31.847 -83.263,-25.495 -80.437,-22.851C-76.803,-19.409 -72.106,-16.668 -73.944,-10.241C-74.579,-8.569 -74.79,-7.418 -74.966,-6.363C-75.778,-5.001 -76.591,-3.642 -77.333,-2.26C-78.182,-1.508 -79.028,-0.681 -80.121,0.626C-84.746,5.427 -89.475,2.801 -94.276,1.39C-97.983,0.28 -106.915,-2.428 -109.807,-0.168C-112.88,2.257 -115.033,7.885 -115.033,7.885C-115.033,7.885 -117.749,13.314 -117.466,17.206C-117.222,20.856 -109.21,25.66 -105.89,27.637C-101.619,30.241 -96.464,31.987 -96.926,38.612C-97.17,40.408 -97.135,41.561 -97.099,42.66C-97.593,44.134 -98.159,45.64 -98.618,47.169C-99.255,48.057 -99.925,49.04 -100.702,50.556C-104.231,56.227 -109.419,54.607 -114.396,54.228C-118.244,53.937 -127.565,53.143 -129.891,55.944C-132.401,58.924 -133.354,64.908 -133.354,64.908C-133.354,64.908 -134.906,70.767 -133.813,74.546C-132.789,78.04 -123.964,81.083 -120.328,82.348C-115.599,83.972 -110.197,84.609 -109.244,91.189C-109.137,93.062 -108.82,94.212 -108.573,95.248C-108.642,95.916 -108.749,96.555 -108.82,97.223C-108.928,98.061 -108.958,98.856 -109.029,99.642C-109.491,100.76 -109.985,101.9 -110.479,103.647C-112.74,109.955 -118.139,109.444 -123.116,110.115C-126.93,110.595 -136.213,111.776 -137.905,114.986C-139.742,118.438 -139.427,124.48 -139.427,124.48C-139.427,124.48 -139.709,130.54 -137.872,133.992C-136.139,137.202 -126.859,138.356 -123.047,138.834C-118.068,139.462 -112.668,138.941 -110.372,145.208C-109.917,146.88 -109.419,147.902 -108.996,148.811C-108.82,150.402 -108.606,151.961 -108.431,153.532C-108.606,154.68 -108.856,155.875 -108.996,157.619C-109.878,164.244 -115.28,164.883 -119.977,166.578C-123.61,167.841 -132.473,170.917 -133.461,174.433C-134.519,178.209 -132.967,184.026 -132.967,184.026C-132.967,184.026 -131.976,190.01 -129.468,192.999C-127.106,195.805 -117.788,194.967 -113.973,194.652C-108.958,194.246 -102.004,195.237 -96.053,205.027C-95.61,205.752 -96.354,205.508 -96.053,205.027C-93.078,200.336 -70.679,188.626 -62.648,187.624C-70.802,160.651 -73.873,131.135 -70.802,101.356C-70.132,94.809 -68.375,72.673 -64.548,63.587C-60.723,54.502 -47.716,30.199 -32.061,36.269C-20.798,40.636 0,54.98 0,54.98" style="fill:white;"/>
        </g>
        <g transform="matrix(1,0,0,1,404.972,740.33)">
            <path d="M0,-277.583C-10.909,-274.322 -26.36,-277.02 -33.24,-283.13L-76.814,-166.8C-80.561,-167.336 -84.93,-167.641 -88.833,-167.671C-136.546,-168.061 -175.581,-129.669 -175.968,-81.981C-176.355,-34.249 -137.95,4.776 -90.236,5.163C-42.523,5.547 -3.488,-32.842 -3.101,-80.578C-2.848,-111.71 -19.195,-139.068 -43.789,-154.489C-44.341,-154.837 0,-277.583 0,-277.583" style="fill:white;"/>
        </g>
        <g transform="matrix(1,0,0,1,399.009,229.442)">
            <path d="M0,155.302C8.33,154.662 21.867,160.163 30.125,168.578C30.125,168.578 67.594,70.4 68.55,67.53C69.506,64.662 72.854,66.096 72.854,66.096L72.854,-12.32L65.202,-13.276L0,155.302Z" style="fill:white;"/>
        </g>
        <g transform="matrix(1,0,0,1,526.25,155.973)">
            <path d="M0,-18.686L-51.682,-18.686L-51.616,0L-0.071,0L0,-18.686Z" style="fill:white;"/>
        </g>
        <g transform="matrix(-1,0,0,1,1001.65,-250.675)">
            <rect x="480.453" y="487.977" width="40.743" height="274.721" style="fill:white;"/>
        </g>
        <g transform="matrix(1,0,0,1,541.616,221.217)">
            <path d="M0,-52.374L-80.302,-52.374C-96.069,-52.374 -108.859,-40.638 -108.859,-26.162C-108.859,-11.708 -96.069,0 -80.302,0L0,0C15.765,0 28.555,-11.708 28.555,-26.162C28.555,-40.638 15.765,-52.374 0,-52.374" style="fill:white;"/>
        </g>
        <g transform="matrix(0.788466,-0.615078,-0.615078,-0.788466,380.939,598.716)">
            <path d="M10.256,13.752L39.692,13.752C39.692,13.752 32.803,-8.976 41.888,-27.384L10.048,-29.428C10.048,-29.428 15.703,-8.289 10.256,13.752" style="fill:white;"/>
        </g>
        <g transform="matrix(1,0,0,1,474.782,433.245)">
            <path d="M0,43.327C0,43.327 -6.77,10.639 -17.162,0.727M-17.646,0L0,7.926L0,43.327" style="fill:none;fill-rule:nonzero;stroke:white;stroke-width:1px;"/>
        </g>
        <g transform="matrix(1,0,0,1,607.483,586.999)">
            <path d="M0,-193.687C-10.588,-193.687 -19.332,-188.637 -27.45,-182.435C-36.517,-175.511 -56.598,-157.58 -70.648,-117.491C-78.133,-96.138 -78.481,-75.668 -78.077,-65.762L-135.53,-65.762C-135.123,-75.668 -135.472,-96.138 -142.956,-117.491C-157.009,-157.58 -177.091,-175.511 -186.154,-182.435C-194.275,-188.637 -203.02,-193.687 -213.607,-193.687C-230.476,-193.687 -244.145,-180.488 -244.145,-164.193C-244.145,-147.888 -230.476,-134.7 -213.607,-134.7C-208.222,-134.7 -202.899,-135.683 -198.897,-138.487C-194.569,-141.52 -192.392,-144.669 -192.392,-144.669C-192.392,-144.669 -160.044,-116.735 -166.257,-64.483C-181.274,-60.558 -192.29,-47.897 -192.29,-32.852C-192.29,-14.702 -176.231,0 -156.436,0L-55.604,0C-35.808,0 -19.752,-14.702 -19.752,-32.852C-19.752,-48.432 -31.562,-61.454 -47.4,-64.862C-53.409,-116.873 -21.216,-144.669 -21.216,-144.669C-21.216,-144.669 -19.038,-141.52 -14.71,-138.487C-10.708,-135.683 -5.386,-134.7 0,-134.7C16.868,-134.7 30.537,-147.888 30.537,-164.193C30.537,-180.488 16.868,-193.687 0,-193.687" style="fill:white;"/>
        </g>
        <g transform="matrix(1,0,0,1,599.315,765.493)">
            <path d="M0,-55.806C3.655,-48.388 12.608,-36.674 12.608,-36.674C10.879,-36.236 9.75,-36.161 8.689,-36.068C7.174,-35.401 5.183,-34.134 3.664,-33.494C2.854,-32.794 1.969,-32.022 0.629,-31.132C-4.666,-27.04 -2.513,-22.042 -1.596,-17.128C-0.89,-13.322 0.841,-4.16 -1.7,-1.554C-4.422,1.272 -10.244,2.863 -10.244,2.863C-10.244,2.863 -15.927,4.994 -19.773,4.324C-23.339,3.656 -27.294,-4.827 -28.952,-8.29C-31.105,-12.841 -32.271,-18.128 -38.941,-18.411C-40.778,-18.318 -41.943,-18.486 -43,-18.642C-44.483,-18.287 -45.967,-17.971 -47.449,-17.692C-48.474,-17.128 -49.531,-16.499 -51.19,-15.865C-57.191,-12.967 -56.134,-7.62 -56.276,-2.612C-56.345,1.217 -56.56,10.56 -59.592,12.613C-62.844,14.796 -68.877,15.112 -68.877,15.112C-68.877,15.112 -69.44,15.186 -70.289,15.268L-70.289,-52.505C-47.285,-55.436 -26.61,-61.798 -6.594,-71.074C-6.594,-71.074 -3.65,-63.224 0,-55.806" style="fill:white;"/>
        </g>
        <g transform="matrix(1,0,0,1,647.949,372.684)">
            <path d="M0,54.98C3.348,28.206 -21.582,15.36 -21.582,15.36C-21.582,15.36 -2.39,1.428 2.87,-5.743C8.129,-12.916 6.692,-31.499 -4.782,-42.495C-20.362,-57.428 -40.854,-69.21 -62.418,-78.248L-80.212,-130.35C-78.479,-132.328 -77.564,-135.027 -76.364,-137.554C-74.703,-141.012 -73.429,-149.501 -69.863,-150.102C-65.98,-150.772 -57.617,-148.622 -57.617,-148.622C-57.617,-148.622 -51.792,-147.032 -49.076,-144.222C-46.532,-141.575 -48.337,-132.38 -49.076,-128.603C-49.993,-123.682 -52.146,-118.686 -46.926,-114.591C-45.407,-113.581 -44.558,-112.77 -43.781,-112.034C-42.369,-111.43 -40.958,-110.793 -39.546,-110.161C-38.417,-109.983 -37.181,-109.84 -35.522,-109.417C-28.953,-108.219 -26.698,-113.18 -23.625,-117.148C-21.293,-120.202 -15.649,-127.653 -11.978,-127.526C-8.059,-127.371 -3.011,-124.086 -3.011,-124.086C-3.011,-124.086 2.389,-121.312 4.438,-117.98C6.38,-114.888 2.708,-106.275 1.225,-102.713C-0.715,-98.104 -3.859,-93.675 0.414,-88.558C1.722,-87.228 2.389,-86.246 2.993,-85.342C4.224,-84.479 5.427,-83.595 6.627,-82.716C7.72,-82.324 8.92,-81.898 10.475,-81.14C16.651,-78.6 19.9,-82.961 23.712,-86.246C26.643,-88.715 33.736,-94.82 37.269,-93.941C41.045,-93.004 45.351,-88.715 45.351,-88.715C45.351,-88.715 50.012,-84.864 51.353,-81.214C52.588,-77.773 47.222,-70.11 45.032,-66.936C42.174,-62.824 38.183,-59.166 41.292,-53.259C42.245,-51.756 42.703,-50.677 43.094,-49.691C44.115,-48.582 45.068,-47.431 46.093,-46.285C47.078,-45.684 48.177,-45.049 49.589,-43.898C55.131,-40.142 59.19,-43.742 63.601,-46.126C66.987,-47.979 75.18,-52.498 78.465,-50.872C81.958,-49.147 85.275,-44.061 85.275,-44.061C85.275,-44.061 89.052,-39.345 89.582,-35.464C90.073,-31.847 83.263,-25.495 80.437,-22.851C76.803,-19.409 72.109,-16.668 73.944,-10.241C74.578,-8.569 74.793,-7.418 74.969,-6.363C75.781,-5.001 76.592,-3.642 77.336,-2.26C78.179,-1.508 79.027,-0.681 80.12,0.626C84.746,5.427 89.478,2.801 94.275,1.39C97.983,0.28 106.915,-2.428 109.81,-0.168C112.88,2.257 115.033,7.885 115.033,7.885C115.033,7.885 117.752,13.314 117.466,17.206C117.222,20.856 109.211,25.66 105.89,27.637C101.619,30.241 96.467,31.987 96.926,38.612C97.173,40.408 97.138,41.561 97.102,42.66C97.593,44.134 98.159,45.64 98.62,47.169C99.258,48.057 99.925,49.04 100.702,50.556C104.231,56.227 109.419,54.607 114.396,54.228C118.243,53.937 127.564,53.143 129.894,55.944C132.401,58.924 133.354,64.908 133.354,64.908C133.354,64.908 134.906,70.767 133.812,74.546C132.788,78.04 123.964,81.083 120.328,82.348C115.599,83.972 110.196,84.609 109.243,91.189C109.137,93.062 108.82,94.212 108.573,95.248C108.645,95.916 108.749,96.555 108.82,97.223C108.928,98.061 108.961,98.856 109.032,99.642C109.491,100.76 109.985,101.9 110.479,103.647C112.739,109.955 118.139,109.444 123.115,110.115C126.928,110.595 136.213,111.776 137.907,114.986C139.742,118.438 139.427,124.48 139.427,124.48C139.427,124.48 139.71,130.54 137.872,133.992C136.142,137.202 126.858,138.356 123.047,138.834C118.067,139.462 112.668,138.941 110.372,145.208C109.916,146.88 109.419,147.902 108.999,148.811C108.82,150.402 108.609,151.961 108.431,153.532C108.609,154.68 108.856,155.875 108.999,157.619C109.878,164.244 115.28,164.883 119.977,166.578C123.612,167.841 132.473,170.917 133.461,174.433C134.519,178.209 132.967,184.026 132.967,184.026C132.967,184.026 131.979,190.01 129.468,192.999C127.104,195.805 117.787,194.967 113.973,194.652C108.961,194.246 102.007,195.237 96.053,205.027C95.613,205.752 96.354,205.508 96.053,205.027C93.078,200.336 70.679,188.626 62.648,187.624C70.802,160.651 73.872,131.135 70.802,101.356C70.129,94.809 68.374,72.673 64.549,63.587C60.723,54.502 47.719,30.199 32.062,36.269C20.799,40.636 0,54.98 0,54.98" style="fill:white;"/>
        </g>
        <g transform="matrix(1,0,0,1,595.651,739.558)">
            <path d="M0,-276.874C10.937,-273.718 26.363,-276.555 33.186,-282.727L77.831,-166.806C81.574,-167.377 85.938,-167.721 89.841,-167.789C137.549,-168.613 176.937,-130.589 177.767,-82.903C178.594,-35.174 140.545,4.199 92.84,5.025C45.132,5.853 5.746,-32.177 4.917,-79.904C4.375,-111.035 20.47,-138.545 44.921,-154.186C45.47,-154.538 0,-276.874 0,-276.874" style="fill:white;"/>
        </g>
        <g transform="matrix(1,0,0,1,602.351,229.442)">
            <path d="M0,155.302C-8.33,154.662 -21.87,160.163 -30.128,168.578C-30.128,168.578 -67.595,70.4 -68.551,67.53C-69.509,64.662 -72.854,66.096 -72.854,66.096L-72.854,-12.32L-65.205,-13.276L0,155.302Z" style="fill:white;"/>
        </g>
        <g transform="matrix(-0.788466,-0.615078,-0.615078,0.788466,570.922,580.482)">
            <path d="M-39.987,-29.82L-10.55,-29.82C-10.55,-29.82 -17.442,-7.094 -8.355,11.316L-40.194,13.361C-40.194,13.361 -34.539,-7.779 -39.987,-29.82" style="fill:white;"/>
        </g>
        <g transform="matrix(1,0,0,1,592.098,472.68)">
            <path d="M0,-10.573C0,-10.573 -5.207,-12.488 -8.459,-18.307C-8.459,-18.307 -19.397,-7.494 -23.992,7.734C-23.992,7.734 -12.699,-6.204 0,-10.573" style="fill:white;"/>
        </g>
        <g transform="matrix(1,0,0,1,526.577,433.245)">
            <path d="M0,43.327C0,43.327 6.77,10.639 17.162,0.727M17.646,0L0,7.926L0,43.327" style="fill:none;fill-rule:nonzero;stroke:white;stroke-width:1px;"/>
        </g>
        <g transform="matrix(-1,0,0,1,1002.35,424.55)">
            <rect x="484.374" y="169.83" width="33.604" height="235.79" style="fill:white;"/>
        </g>
        <g transform="matrix(1,0,0,1,409.261,472.68)">
            <path d="M0,-10.573C0,-10.573 5.205,-12.488 8.462,-18.307C8.462,-18.307 19.398,-7.494 23.993,7.734C23.993,7.734 12.7,-6.204 0,-10.573" style="fill:white;"/>
        </g>
        <g transform="matrix(1,0,0,1,461.613,182.27)">
            <path d="M0,24.811C-6.835,24.811 -12.395,19.255 -12.395,12.406C-12.395,5.556 -6.835,0 0,0C6.861,0 12.417,5.556 12.417,12.406C12.417,19.255 6.861,24.811 0,24.811" style="fill:rgb(100,125,153);"/>
        </g>
        <g transform="matrix(1,0,0,1,540.987,182.27)">
            <path d="M0,24.811C-6.836,24.811 -12.395,19.255 -12.395,12.406C-12.395,5.556 -6.836,0 0,0C6.86,0 12.416,5.556 12.416,12.406C12.416,19.255 6.86,24.811 0,24.811" style="fill:rgb(100,125,153);"/>
        </g>
        <g transform="matrix(1,0,0,1,392.511,406.964)">
            <path d="M0,30.568C-8.437,30.568 -15.251,23.756 -15.251,15.304C-15.251,6.85 -8.437,0 0,0C8.47,0 15.319,6.85 15.319,15.304C15.319,23.756 8.47,30.568 0,30.568" style="fill:rgb(100,125,153);"/>
        </g>
        <g transform="matrix(1,0,0,1,451.427,538.098)">
            <path d="M0,31.152C-8.583,31.152 -15.561,24.176 -15.561,15.574C-15.561,6.975 -8.583,0 0,0C8.616,0 15.591,6.975 15.591,15.574C15.591,24.176 8.616,31.152 0,31.152" style="fill:rgb(100,125,153);"/>
        </g>
        <g transform="matrix(1,0,0,1,551.089,538.098)">
            <path d="M0,31.152C-8.583,31.152 -15.562,24.176 -15.562,15.574C-15.562,6.975 -8.583,0 0,0C8.615,0 15.591,6.975 15.591,15.574C15.591,24.176 8.615,31.152 0,31.152" style="fill:rgb(100,125,153);"/>
        </g>
        <g transform="matrix(1,0,0,1,608.849,406.964)">
            <path d="M0,30.568C8.437,30.568 15.25,23.756 15.25,15.304C15.25,6.85 8.437,0 0,0C-8.471,0 -15.32,6.85 -15.32,15.304C-15.32,23.756 -8.471,30.568 0,30.568" style="fill:rgb(100,125,153);"/>
        </g>
    </g>
</svg>
