<?xml version="1.0" encoding="UTF-8" standalone="no"?>
<!DOCTYPE svg PUBLIC "-//W3C//DTD SVG 1.1//EN" "http://www.w3.org/Graphics/SVG/1.1/DTD/svg11.dtd">
<svg width="100%" height="100%" viewBox="0 0 4166 4132" version="1.1" xmlns="http://www.w3.org/2000/svg" xmlns:xlink="http://www.w3.org/1999/xlink" xml:space="preserve" xmlns:serif="http://www.serif.com/" style="fill-rule:evenodd;clip-rule:evenodd;stroke-linejoin:round;stroke-miterlimit:2;">
    <g id="GTK" transform="matrix(4.16667,0,0,4.16667,1,-16)">
        <g transform="matrix(0,1,1,0,492.695,94.725)">
            <path d="M406.628,-406.626C630.843,-406.626 813.256,-224.21 813.256,0.005C813.256,224.214 630.843,406.628 406.628,406.628C182.413,406.628 -0.001,224.214 -0.001,0.005C-0.001,-224.21 182.413,-406.626 406.628,-406.626" style="fill:rgb(80,152,130);"/>
        </g>
        <g transform="matrix(1,0,0,1,259.583,898.908)">
            <path d="M0,-19.779C2.011,-22.823 2.352,-25.6 1.026,-28.101C0.054,-29.936 -2.287,-32.077 -5.992,-34.524C-15.896,-41.06 -23.024,-41.027 -27.382,-34.428C-30.169,-30.21 -30.191,-26.047 -27.455,-21.955C-25.56,-19.107 -21.971,-15.938 -16.691,-12.452C-15.833,-11.886 -14.488,-11.093 -12.661,-10.073C-10.831,-9.052 -9.489,-8.259 -8.631,-7.694L-8.174,-7.393L0,-19.779ZM-19.132,9.205L-12.323,-1.112C-14.712,-2.906 -16.905,-4.463 -18.899,-5.778C-23.826,-9.028 -27.744,-11.04 -30.654,-11.808C-35.42,-13.08 -39.003,-11.894 -41.407,-8.255C-45.001,-2.809 -42.178,2.967 -32.933,9.07C-29.804,11.135 -27.312,12.293 -25.452,12.548C-22.929,12.881 -20.821,11.766 -19.132,9.205M20.578,-24.905C16.336,-24.421 12.948,-22.253 10.407,-18.407L-12.891,16.889C-15.397,20.686 -16.017,24.627 -14.753,28.708C-15.305,28.343 -16.115,27.81 -17.178,27.106C-18.245,26.406 -19.054,25.869 -19.606,25.504C-21.709,24.118 -24.921,22.113 -29.249,19.492C-33.574,16.873 -36.79,14.87 -38.893,13.479C-44.646,9.682 -48.539,5.687 -50.574,1.49C-52.982,-3.529 -52.55,-8.514 -49.277,-13.469C-45.643,-18.975 -40.316,-20.751 -33.304,-18.791C-39.964,-25.211 -40.874,-32.096 -36.026,-39.436C-32.392,-44.946 -27.785,-47.861 -22.207,-48.186C-17.081,-48.487 -11.421,-46.592 -5.226,-42.503C-3.343,-41.26 -0.552,-39.322 3.153,-36.689C6.858,-34.055 9.651,-32.118 11.53,-30.876L16.677,-27.478C17.148,-27.168 18.448,-26.309 20.578,-24.905" style="fill:rgb(60,133,115);"/>
        </g>
        <g transform="matrix(1,0,0,1,185.132,872.627)">
            <path d="M0,-72.964C-4.263,-73.256 -7.987,-71.716 -11.17,-68.344L-35.599,-42.443C-38.14,-39.746 -40.787,-37.36 -43.54,-35.276C-39.858,-37.392 -36.465,-39.202 -33.36,-40.704L6.807,-60.332C7.462,-60.668 8.12,-61.185 8.78,-61.886C9.462,-62.609 9.887,-63.142 10.049,-63.485L18.367,-55.642C17.885,-55.347 17.368,-54.905 16.808,-54.316C16.147,-53.612 15.682,-52.914 15.411,-52.218L-1.754,-10.901C-3.229,-7.36 -4.839,-3.869 -6.587,-0.424C-5.164,-2.974 -2.985,-5.805 -0.051,-8.917L24.377,-34.818C27.539,-38.171 28.838,-41.995 28.272,-46.296L41.688,-33.647C37.423,-33.942 33.699,-32.401 30.516,-29.026L1.5,1.739C-1.621,5.049 -2.91,8.824 -2.368,13.062L-16.975,-0.713C-16.158,-0.854 -15.535,-1.151 -15.102,-1.612C-14.937,-1.785 -14.824,-1.967 -14.764,-2.156L1.981,-42.334C3.346,-45.56 5.294,-49.19 7.825,-53.225C3.713,-50.308 0.217,-48.137 -2.668,-46.716L-41.696,-27.562C-41.715,-27.543 -41.761,-27.522 -41.829,-27.502C-42.094,-27.381 -42.289,-27.256 -42.414,-27.126C-42.53,-26.904 -42.787,-26.341 -43.188,-25.435L-57.903,-39.317C-53.719,-39.013 -50.046,-40.539 -46.885,-43.893L-17.868,-74.658C-14.642,-78.079 -13.302,-81.868 -13.849,-86.026L0,-72.964Z" style="fill:rgb(60,133,115);"/>
        </g>
        <g transform="matrix(1,0,0,1,88.8188,771.021)">
            <path d="M0,12.309C-1.394,10.455 -3.359,9.05 -5.895,8.097L10.915,-4.534C8.512,0.089 7.908,4.806 9.11,9.616C10.106,13.548 12.479,18.014 16.239,23.016C18.307,25.768 20.087,27.536 21.579,28.318C23.755,29.457 25.939,29.203 28.131,27.557L39.082,19.33L31.509,9.25C28.091,4.701 23.917,2.332 18.986,2.146L33.544,-8.792C32.356,-4.006 33.471,0.66 36.89,5.209L44.459,15.286L57.703,5.339C60.108,3.532 61.018,1.336 60.431,-1.246C60.036,-2.975 58.69,-5.362 56.403,-8.407C52.249,-13.939 48.441,-17.679 44.979,-19.633C40.863,-21.963 35.918,-22.637 30.15,-21.658L47.596,-34.768C47.759,-32.194 48.685,-29.783 50.376,-27.531L77.455,8.506C73.303,7.494 69.373,8.381 65.662,11.166L31.853,36.573C28.215,39.303 26.305,42.805 26.123,47.077L0,12.309Z" style="fill:rgb(60,133,115);"/>
        </g>
        <g transform="matrix(1,0,0,1,94.6323,723.357)">
            <path d="M0,-68.05C-1.229,-65.376 -1.283,-62.819 -0.168,-60.383C0.646,-58.605 2.235,-56.145 4.598,-53.002C6.958,-49.857 8.547,-47.397 9.362,-45.621C17.522,-27.793 11.955,-14.461 -7.348,-5.624C-16.548,-1.413 -24.762,0 -31.988,-1.392C-40.655,-3.037 -47.191,-8.664 -51.592,-18.272C-52.309,-19.839 -53.061,-22.291 -53.846,-25.631C-54.634,-28.971 -55.386,-31.423 -56.104,-32.987C-56.958,-34.855 -58.574,-36.392 -60.959,-37.599L-38.479,-47.892C-42.083,-42.891 -44.417,-38.688 -45.475,-35.29C-46.996,-30.364 -46.655,-25.495 -44.449,-20.678C-41.553,-14.353 -36.654,-10.932 -29.758,-10.409C-24.475,-10.023 -18.646,-11.289 -12.263,-14.212C-6.074,-17.046 -1.454,-20.565 1.594,-24.762C5.519,-30.161 6.065,-35.946 3.242,-42.116C1.505,-45.905 -0.75,-48.734 -3.524,-50.593C-6.709,-52.775 -9.947,-53.112 -13.235,-51.606L-18.621,-49.14C-22.84,-47.21 -25.335,-43.87 -26.112,-39.123L-33.685,-55.662C-30.976,-54.88 -27.266,-55.568 -22.556,-57.725L0,-68.05Z" style="fill:rgb(60,133,115);"/>
        </g>
        <g transform="matrix(1,0,0,1,64.0107,603.161)">
            <path d="M0,35.787C-1.175,30.753 -2.214,26.68 -3.118,23.564C-3.992,20.55 -5.27,16.596 -6.948,11.707L-36.86,32.716L0,35.787ZM8.084,36.563C12.277,36.835 15.227,36.721 16.935,36.223C19.021,35.622 20.626,34.277 21.747,32.19L26.784,49.566C22.967,47.119 17.782,45.623 11.227,45.07L-38.424,40.934C-38.806,40.924 -39.155,40.965 -39.472,41.057C-40.37,41.316 -41.212,41.931 -41.997,42.902L-46.812,26.287C-45.786,26.685 -44.898,26.777 -44.146,26.558C-43.74,26.441 -43.291,26.203 -42.798,25.851L-2.568,-2.209C2.907,-6.042 6.571,-9.896 8.425,-13.779L13.557,3.932C11.343,2.573 9.178,2.199 7.061,2.813C5.41,3.29 2.915,4.757 -0.428,7.209C0.455,11.231 1.746,16.168 3.44,22.024C5.129,27.849 6.677,32.693 8.084,36.563" style="fill:rgb(60,133,115);"/>
        </g>
        <g transform="matrix(1,0,0,1,15.0229,568.983)">
            <path d="M0,-5.925C-0.555,-6.179 -1.158,-6.26 -1.811,-6.165C-3.865,-5.87 -4.582,-3.575 -3.965,0.72C-2.23,12.791 3.592,20.387 13.498,23.516L-8.344,26.656C-7.153,24.713 -6.685,22.853 -6.939,21.084L-13.132,-22.004L44.644,4.221C45.429,4.582 46.073,4.725 46.582,4.649C48.555,4.368 49.161,1.569 48.395,-3.743C46.511,-16.862 40.543,-25.425 30.489,-29.439L52.36,-32.581C51.234,-30.446 50.82,-28.359 51.112,-26.329L57.787,20.112L0,-5.925Z" style="fill:rgb(60,133,115);"/>
        </g>
        <g transform="matrix(1,0,0,1,12.1841,487.994)">
            <path d="M0,28.685L41.112,28.02C43.398,27.982 44.854,26.818 45.477,24.529C45.792,23.4 45.921,21.18 45.867,17.875C45.726,9.152 43.279,3.06 38.53,-0.401C34.6,-3.281 28.439,-4.651 20.044,-4.516C12.103,-4.385 6.122,-2.883 2.105,-0.009C-2.891,3.578 -5.324,9.483 -5.188,17.71C-5.069,25.083 -3.34,28.74 0,28.685M52.931,42.229C50.167,38.967 46.465,37.376 41.826,37.452L-0.458,38.136C-5.007,38.209 -8.61,39.92 -11.268,43.271L-11.327,39.693C-11.43,33.268 -11.638,26.498 -11.95,19.38C-12.093,17.791 -12.169,16.766 -12.177,16.303C-12.501,-3.831 -1.813,-14.075 19.89,-14.426C29.674,-14.586 37.372,-12.523 42.982,-8.242C49.386,-3.311 52.671,4.354 52.839,14.752C52.872,16.706 52.831,19.654 52.717,23.597C52.601,27.543 52.56,30.491 52.593,32.448C52.617,34.034 52.658,35.444 52.706,36.666L52.931,42.229Z" style="fill:rgb(60,133,115);"/>
        </g>
        <g transform="matrix(1,0,0,1,45.7363,429.914)">
            <path d="M0,17.941C1.021,12.877 1.765,8.738 2.238,5.531C2.693,2.422 3.172,-1.703 3.676,-6.848L-32.259,-0.152L0,17.941ZM7.032,22.006C10.734,23.99 13.465,25.11 15.224,25.37C17.373,25.687 19.392,25.129 21.279,23.697L18.646,41.596C16.19,37.788 12.096,34.272 6.36,31.048L-37.095,6.674C-37.437,6.509 -37.769,6.398 -38.1,6.352C-39.022,6.213 -40.042,6.425 -41.163,6.98L-38.646,-10.131C-37.877,-9.343 -37.106,-8.894 -36.332,-8.781C-35.916,-8.718 -35.409,-8.746 -34.811,-8.864L13.435,-17.693C20.007,-18.903 24.943,-20.89 28.24,-23.655L25.558,-5.411C24.107,-7.568 22.291,-8.805 20.112,-9.126C18.413,-9.376 15.53,-9.078 11.473,-8.236C10.607,-4.209 9.73,0.817 8.842,6.85C7.96,12.848 7.356,17.9 7.032,22.006" style="fill:rgb(60,133,115);"/>
        </g>
        <g transform="matrix(1,0,0,1,77.04,345.714)">
            <path d="M0,60.247L-21.411,54.111C-10.377,50.661 -3.697,44.874 -1.372,36.754C-0.214,32.711 -0.241,29.241 -1.454,26.342C-2.707,23.263 -5.148,21.203 -8.78,20.161C-11.714,19.322 -14.32,19.487 -16.604,20.656C-18.486,21.631 -20.556,23.533 -22.813,26.362C-23.254,26.925 -25.149,29.623 -28.5,34.457C-30.738,37.674 -32.838,40.195 -34.8,42.01C-38.638,45.561 -43.164,46.59 -48.376,45.096C-53.648,43.586 -57.14,40.192 -58.853,34.906C-60.436,30.145 -60.374,24.786 -58.667,18.83C-58.212,17.238 -57.259,14.975 -55.811,12.047C-54.363,9.118 -53.413,6.859 -52.958,5.265C-52.363,3.196 -52.653,1.44 -53.824,0L-34.386,5.57C-43.81,7.659 -49.662,12.683 -51.943,20.64C-52.872,23.888 -52.953,26.792 -52.184,29.355C-51.332,32.286 -49.488,34.159 -46.655,34.971C-44.658,35.542 -42.719,35.393 -40.841,34.519C-39.145,33.731 -36.224,30.421 -32.078,24.586C-31.288,23.468 -30.351,22.169 -29.269,20.686C-22.607,11.538 -15.122,8.155 -6.815,10.534C-0.59,12.317 3.48,15.879 5.394,21.216C7.169,26.069 7.05,31.997 5.045,39C4.587,40.595 3.591,42.85 2.054,45.767C0.517,48.69 -0.479,50.942 -0.937,52.537C-1.51,54.541 -1.199,57.113 0,60.247" style="fill:rgb(60,133,115);"/>
        </g>
        <g transform="matrix(1,0,0,1,75.229,309.418)">
            <path d="M0,23.343C2.32,18.723 4.128,14.926 5.427,11.956C6.685,9.077 8.233,5.223 10.071,0.394L-26.355,-2.604L0,23.343ZM5.716,29.113C8.764,32.001 11.102,33.804 12.731,34.515C14.724,35.387 16.816,35.382 19.013,34.496L11.763,51.072C10.396,46.749 7.373,42.28 2.685,37.66L-32.819,2.709C-33.103,2.454 -33.398,2.262 -33.704,2.129C-34.559,1.756 -35.599,1.691 -36.824,1.932L-29.89,-13.915C-29.357,-12.951 -28.732,-12.315 -28.015,-12.001C-27.628,-11.831 -27.132,-11.725 -26.526,-11.682L22.342,-7.501C29,-6.937 34.286,-7.555 38.194,-9.355L30.806,7.54C29.972,5.077 28.545,3.407 26.529,2.522C24.954,1.834 22.096,1.361 17.96,1.106C16.066,4.763 13.896,9.383 11.451,14.969C9.021,20.523 7.11,25.24 5.716,29.113M-42.538,-1.348L-49.388,-19.32C-50.325,-21.753 -50.455,-23.745 -49.778,-25.293C-49.35,-26.264 -48.676,-26.944 -47.75,-27.336C-46.825,-27.726 -45.921,-27.729 -45.042,-27.345C-43.691,-26.755 -42.874,-24.876 -42.584,-21.713L-41.063,-4.718L-42.538,-1.348Z" style="fill:rgb(60,133,115);"/>
        </g>
        <g transform="matrix(1,0,0,1,144.903,259.402)">
            <path d="M0,-5.284C-2.909,-4.84 -5.075,-3.479 -6.496,-1.205C-7.535,0.451 -8.715,3.131 -10.041,6.83C-11.37,10.533 -12.55,13.212 -13.586,14.869C-23.988,31.489 -38.186,34.169 -56.182,22.907C-64.756,17.54 -70.453,11.456 -73.265,4.652C-76.657,-3.49 -75.552,-12.042 -69.944,-21.003C-69.029,-22.462 -67.395,-24.438 -65.038,-26.933C-62.683,-29.426 -61.048,-31.402 -60.136,-32.864C-59.045,-34.604 -58.65,-36.802 -58.953,-39.453L-37.994,-26.335C-44.154,-26.595 -48.947,-26.235 -52.368,-25.25C-57.318,-23.816 -61.197,-20.851 -64.009,-16.359C-67.698,-10.462 -67.863,-4.491 -64.504,1.558C-61.925,6.181 -57.66,10.354 -51.71,14.079C-45.938,17.692 -40.459,19.616 -35.279,19.851C-28.61,20.16 -23.479,17.437 -19.879,11.686C-17.666,8.151 -16.545,4.714 -16.518,1.371C-16.447,-2.488 -17.944,-5.379 -21.01,-7.295L-26.031,-10.437C-29.966,-12.9 -34.129,-13.149 -38.522,-11.187L-28.87,-26.606C-28.031,-23.913 -25.419,-21.193 -21.027,-18.446L0,-5.284Z" style="fill:rgb(60,133,115);"/>
        </g>
        <g transform="matrix(1,0,0,1,136.973,212.134)">
            <path d="M0,15.038C-1.302,16.673 -2.223,18.713 -2.767,21.16L-8.239,13.052C-7.029,12.615 -5.835,11.66 -4.658,10.182L3.207,0.312C4.92,-1.84 5.924,-3.983 6.219,-6.122L11.862,2.252C10.458,2.615 9.226,3.457 8.176,4.777L0,15.038Z" style="fill:rgb(60,133,115);"/>
        </g>
        <g transform="matrix(1,0,0,1,149.72,178.093)">
            <path d="M0,-38.998L0.991,-58.204C1.118,-60.81 1.803,-62.684 3.048,-63.825C3.83,-64.542 4.723,-64.894 5.727,-64.878C6.731,-64.862 7.56,-64.499 8.209,-63.79C9.205,-62.705 9.197,-60.659 8.182,-57.646L2.709,-41.486L0,-38.998ZM22.556,-50.812C24.264,-52.382 25.468,-54.474 26.167,-57.094L40.387,-41.605C35.55,-43.542 30.8,-43.678 26.129,-42.011C22.315,-40.636 18.104,-37.832 13.495,-33.602C10.959,-31.274 9.375,-29.328 8.742,-27.767C7.822,-25.487 8.29,-23.339 10.144,-21.32L19.406,-11.229L28.692,-19.755C32.884,-23.604 34.83,-27.991 34.533,-32.917L46.847,-19.503C41.97,-20.215 37.434,-18.648 33.244,-14.802L23.958,-6.274L35.158,5.924C37.193,8.144 39.466,8.831 41.978,7.995C43.662,7.432 45.905,5.859 48.709,3.285C53.806,-1.394 57.156,-5.551 58.761,-9.186C60.675,-13.514 60.859,-18.499 59.319,-24.145L74.077,-8.068C71.533,-7.654 69.225,-6.496 67.149,-4.591L33.945,25.896C34.546,21.662 33.277,17.838 30.14,14.42L1.538,-16.732C-1.54,-20.082 -5.21,-21.639 -9.478,-21.401L22.556,-50.812Z" style="fill:rgb(60,133,115);"/>
        </g>
        <g transform="matrix(1,0,0,1,230.014,84.805)">
            <path d="M0,80.694L-12.772,62.446C-2.027,66.712 6.804,66.423 13.725,61.578C17.173,59.166 19.335,56.454 20.218,53.439C21.182,50.256 20.583,47.117 18.418,44.024C16.667,41.526 14.537,40.009 12.028,39.479C9.952,39.054 7.146,39.228 3.611,40.004C2.915,40.164 -0.257,41.068 -5.903,42.714C-9.667,43.804 -12.885,44.437 -15.554,44.613C-20.772,44.957 -24.935,42.906 -28.044,38.464C-31.189,33.971 -31.763,29.135 -29.769,23.949C-27.999,19.256 -24.578,15.131 -19.5,11.578C-18.144,10.628 -15.982,9.472 -13.013,8.108C-10.043,6.744 -7.881,5.586 -6.525,4.636C-4.76,3.399 -3.878,1.856 -3.884,0L7.711,16.566C-0.925,12.255 -8.633,12.471 -15.416,17.218C-18.185,19.156 -20.077,21.362 -21.092,23.836C-22.277,26.651 -22.022,29.265 -20.331,31.682C-19.14,33.384 -17.541,34.486 -15.53,34.989C-13.716,35.446 -9.361,34.716 -2.468,32.792C-1.15,32.421 0.396,32.001 2.168,31.53C13.105,28.618 21.049,30.702 26.004,37.782C29.718,43.085 30.638,48.416 28.765,53.77C27.09,58.655 23.266,63.185 17.295,67.364C15.939,68.314 13.744,69.438 10.71,70.739C7.679,72.039 5.483,73.165 4.127,74.114C2.417,75.311 1.042,77.503 0,80.694" style="fill:rgb(60,133,115);"/>
        </g>
        <g transform="matrix(1,0,0,1,319.689,54.0667)">
            <path d="M0,43.591C1.9,47.889 4.883,50.59 8.953,51.689L-8.642,59.465C-6.739,55.727 -6.736,51.708 -8.636,47.41L-25.127,10.09C-26.746,6.427 -29.273,5.354 -32.708,6.872C-39.669,9.946 -42.625,16.621 -41.575,26.892L-50.988,5.594C-48.728,6.187 -46.828,6.141 -45.277,5.456L-6.395,-11.724C-4.758,-12.45 -3.429,-13.833 -2.406,-15.874L7.005,5.424C0.208,-2.309 -6.701,-4.623 -13.722,-1.521C-17.186,0.011 -18.109,2.609 -16.491,6.274L0,43.591Z" style="fill:rgb(60,133,115);"/>
        </g>
        <g transform="matrix(1,0,0,1,352.01,30.8369)">
            <path d="M0,42.833C5.023,41.623 9.091,40.554 12.198,39.628C15.21,38.732 19.154,37.425 24.028,35.709L2.801,5.954L0,42.833ZM-8.604,-5.595L0.698,-22.427C1.954,-24.713 3.391,-26.096 5.013,-26.578C6.027,-26.881 6.985,-26.806 7.881,-26.351C8.774,-25.896 9.362,-25.209 9.635,-24.286C10.055,-22.876 9.151,-21.038 6.92,-18.775L-5.077,-6.642L-8.604,-5.595ZM-0.717,50.922C-0.958,55.118 -0.823,58.065 -0.314,59.77C0.306,61.852 1.662,63.448 3.754,64.553L-13.584,69.714C-11.165,65.884 -9.703,60.688 -9.202,54.127L-5.427,4.446C-5.418,4.067 -5.462,3.718 -5.557,3.399C-5.822,2.506 -6.444,1.667 -7.418,0.89L9.159,-4.046C8.767,-3.018 8.685,-2.128 8.907,-1.378C9.029,-0.975 9.267,-0.525 9.625,-0.036L37.978,39.989C41.848,45.437 45.729,49.074 49.626,50.898L31.953,56.16C33.295,53.932 33.653,51.765 33.025,49.656C32.535,48.008 31.052,45.521 28.575,42.197C24.559,43.109 19.63,44.435 13.787,46.172C7.976,47.902 3.14,49.488 -0.717,50.922" style="fill:rgb(60,133,115);"/>
        </g>
        <g transform="matrix(1,0,0,1,411.334,62.3346)">
            <path d="M0,-32.172L1.881,-19.164C5.047,-19.44 7.778,-19.744 10.071,-20.076C16.125,-20.95 20.501,-22.101 23.203,-23.525C27.52,-25.79 29.346,-29.219 28.683,-33.809C27.687,-40.692 21.595,-43.325 10.401,-41.71C6.604,-41.158 3.938,-40.318 2.397,-39.182C0.344,-37.669 -0.455,-35.33 0,-32.172M5.556,6.252C6.222,10.859 8.376,14.272 12.022,16.492L-7.113,19.257C-4.23,16.101 -3.121,12.228 -3.784,7.636L-9.836,-34.22C-10.485,-38.722 -12.64,-42.078 -16.299,-44.289C-15.611,-44.386 -14.602,-44.533 -13.273,-44.725C-11.947,-44.917 -10.938,-45.063 -10.247,-45.163C-6.772,-45.664 -2.114,-46.443 3.727,-47.501L11.41,-48.89C12.127,-49.033 12.877,-49.16 13.665,-49.275C28.553,-51.429 36.827,-46.779 38.481,-35.327C39.539,-28.02 35.931,-22.385 27.663,-18.42C31.354,-17.673 34.15,-16.39 36.056,-14.564C37.688,-13.004 39.176,-10.45 40.53,-6.901C41.206,-3.832 42.598,0.579 44.701,6.333C45.81,8.458 47.412,10.036 49.504,11.073L38.248,12.702C36.576,12.699 35.374,11.804 34.648,10.015C34.14,8.807 33.661,6.702 33.211,3.698C32.759,0.696 32.318,-1.491 31.885,-2.863C30.283,-7.7 27.728,-10.901 24.223,-12.471C21.11,-13.881 16.686,-14.173 10.95,-13.345C10.068,-13.218 8.729,-12.977 6.939,-12.628C5.15,-12.279 3.816,-12.038 2.931,-11.911L5.556,6.252Z" style="fill:rgb(60,133,115);"/>
        </g>
        <g transform="matrix(1,0,0,1,464.766,6.9837)">
            <path d="M0,69.027L-0.363,46.758C6.152,56.31 13.63,61.016 22.077,60.878C26.28,60.813 29.593,59.776 32.012,57.771C34.595,55.676 35.856,52.739 35.793,48.964C35.745,45.913 34.827,43.465 33.044,41.621C31.566,40.105 29.144,38.679 25.779,37.342C25.111,37.085 21.979,36.056 16.38,34.256C12.65,33.052 9.63,31.775 7.321,30.427C2.807,27.788 0.503,23.758 0.417,18.337C0.328,12.854 2.561,8.523 7.118,5.346C11.213,2.447 16.358,0.947 22.553,0.848C24.209,0.82 26.648,1.072 29.872,1.606C33.095,2.138 35.534,2.39 37.193,2.363C39.347,2.328 40.939,1.541 41.975,0L42.305,20.221C37.564,11.812 31.054,7.673 22.778,7.809C19.4,7.863 16.596,8.631 14.369,10.112C11.811,11.779 10.558,14.088 10.607,17.038C10.639,19.114 11.348,20.922 12.729,22.464C13.977,23.861 17.993,25.693 24.783,27.962C26.083,28.392 27.598,28.908 29.333,29.512C40.021,33.226 45.437,39.402 45.578,48.041C45.683,54.515 43.458,59.446 38.909,62.832C34.787,65.939 29.079,67.552 21.792,67.671C20.137,67.698 17.69,67.401 14.45,66.778C11.208,66.158 8.761,65.86 7.104,65.887C5.018,65.923 2.65,66.968 0,69.027" style="fill:rgb(60,133,115);"/>
        </g>
        <g transform="matrix(1,0,0,1,534.343,38.8395)">
            <path d="M0,14.307C5.091,15.192 9.245,15.828 12.466,16.212C15.586,16.589 19.722,16.959 24.878,17.322L17.231,-18.42L0,14.307ZM-3.876,21.444C-5.763,25.196 -6.81,27.955 -7.023,29.721C-7.281,31.877 -6.672,33.881 -5.191,35.729L-23.151,33.572C-19.412,31.016 -16.004,26.83 -12.935,21.008L10.281,-23.072C10.438,-23.419 10.539,-23.755 10.579,-24.085C10.69,-25.013 10.452,-26.028 9.867,-27.13L27.04,-25.068C26.274,-24.279 25.844,-23.498 25.749,-22.721C25.7,-22.301 25.741,-21.795 25.874,-21.202L35.977,26.792C37.363,33.331 39.477,38.211 42.329,41.437L24.022,39.237C26.139,37.729 27.327,35.881 27.59,33.696C27.795,31.989 27.422,29.117 26.472,25.081C22.423,24.324 17.375,23.579 11.323,22.851C5.302,22.129 0.235,21.661 -3.876,21.444" style="fill:rgb(60,133,115);"/>
        </g>
        <g transform="matrix(1,0,0,1,606.985,76.5513)">
            <path d="M0,-42.48L-10.91,-2.835C-11.517,-0.63 -10.808,1.095 -8.786,2.337C-7.79,2.954 -5.697,3.701 -2.512,4.578C5.902,6.894 12.436,6.258 17.091,2.669C20.959,-0.291 24.004,-5.818 26.231,-13.913C28.34,-21.572 28.577,-27.732 26.948,-32.393C24.91,-38.199 19.925,-42.191 11.989,-44.375C4.882,-46.332 0.888,-45.698 0,-42.48M-27.866,4.516C-23.961,2.781 -21.396,-0.326 -20.161,-4.798L-8.94,-45.574C-7.733,-49.959 -8.363,-53.899 -10.829,-57.388L-7.381,-56.44C-1.188,-54.736 5.369,-53.033 12.287,-51.333C13.852,-51.024 14.858,-50.809 15.305,-50.687C34.722,-45.341 41.55,-32.207 35.788,-11.277C33.192,-1.842 29.051,4.965 23.365,9.146C16.834,13.907 8.555,14.908 -1.47,12.148C-3.356,11.628 -6.174,10.759 -9.928,9.544C-13.682,8.326 -16.499,7.458 -18.383,6.94C-19.918,6.518 -21.278,6.158 -22.465,5.863L-27.866,4.516Z" style="fill:rgb(60,133,115);"/>
        </g>
        <g transform="matrix(1,0,0,1,661.131,85.1698)">
            <path d="M0,-1.348C4.618,0.969 8.415,2.775 11.387,4.073C14.267,5.332 18.12,6.877 22.951,8.715L25.937,-27.715L0,-1.348ZM-5.77,4.368C-8.657,7.419 -10.457,9.759 -11.169,11.389C-12.038,13.378 -12.032,15.473 -11.147,17.668L-27.723,10.423C-23.405,9.056 -18.935,6.03 -14.319,1.342L20.621,-34.178C20.87,-34.462 21.065,-34.754 21.198,-35.06C21.571,-35.915 21.637,-36.955 21.396,-38.181L37.245,-31.255C36.281,-30.721 35.646,-30.097 35.331,-29.379C35.163,-28.992 35.055,-28.494 35.015,-27.89L30.85,20.984C30.289,27.641 30.909,32.924 32.709,36.833L15.812,29.449C18.274,28.616 19.947,27.19 20.827,25.173C21.518,23.595 21.988,20.74 22.24,16.604C18.584,14.71 13.963,12.542 8.377,10.101C2.82,7.673 -1.895,5.762 -5.77,4.368" style="fill:rgb(60,133,115);"/>
        </g>
        <g transform="matrix(1,0,0,1,745.582,139.033)">
            <path d="M0,-60.088C-4.216,-59.476 -7.508,-57.227 -9.867,-53.338L-29.13,-21.582C-32.456,-16.093 -31.347,-11.671 -25.801,-8.307C-16.322,-2.555 -7.348,-3.825 1.124,-12.11L-12.304,10.027C-12.845,8.043 -14.119,6.441 -16.131,5.22L-49.829,-15.219C-45.596,-15.823 -42.28,-18.108 -39.872,-22.075L-17.938,-58.234C-15.578,-62.123 -15.11,-66.083 -16.528,-70.115L0,-60.088Z" style="fill:rgb(60,133,115);"/>
        </g>
        <g transform="matrix(1,0,0,1,762.024,120.211)">
            <path d="M0,40.492C10.001,48.414 20.369,45.602 31.104,32.053C35.518,26.48 38.146,21.243 38.987,16.339C40.108,9.851 37.904,4.417 32.37,0.032C22.288,-7.954 11.893,-5.183 1.178,8.344C-3.218,13.89 -5.83,19.159 -6.655,24.153C-7.727,30.681 -5.508,36.126 0,40.492M-4.669,46.354C-12.666,40.016 -16.477,32.659 -16.096,24.28C-15.79,17.221 -12.606,9.87 -6.55,2.221C-0.454,-5.472 5.998,-10.252 12.808,-12.12C20.864,-14.342 28.933,-12.252 37.012,-5.852C45.012,0.487 48.82,7.843 48.438,16.222C48.133,23.282 44.961,30.621 38.922,38.245C32.824,45.94 26.375,50.72 19.568,52.587C11.489,54.834 3.413,52.755 -4.669,46.354" style="fill:rgb(60,133,115);"/>
        </g>
        <g transform="matrix(1,0,0,1,822.215,155.948)">
            <path d="M0,71.519C4.23,72.139 8.057,70.885 11.486,67.762L37.817,43.796C40.557,41.301 43.38,39.122 46.281,37.254C42.448,39.084 38.928,40.632 35.72,41.896L-5.825,58.406C-6.507,58.69 -7.199,59.158 -7.914,59.805C-8.647,60.474 -9.11,60.972 -9.3,61.302L-16.997,52.849C-16.494,52.592 -15.941,52.191 -15.341,51.645C-14.629,50.996 -14.112,50.335 -13.79,49.661L6.474,9.768C8.211,6.352 10.084,2.993 12.09,-0.309C10.477,2.124 8.09,4.782 4.926,7.661L-21.403,31.628C-24.811,34.729 -26.399,38.448 -26.164,42.778L-38.573,29.14C-34.346,29.76 -30.517,28.51 -27.084,25.387L4.192,-3.083C7.557,-6.145 9.126,-9.809 8.907,-14.077L22.423,0.77C21.598,0.847 20.956,1.098 20.488,1.523C20.312,1.686 20.185,1.856 20.109,2.043L0.357,40.827C-1.254,43.942 -3.47,47.412 -6.301,51.242C-1.979,48.646 1.672,46.749 4.657,45.55L45.03,29.425C45.052,29.406 45.099,29.387 45.169,29.373C45.442,29.273 45.647,29.165 45.78,29.043C45.913,28.832 46.211,28.29 46.679,27.416L60.295,42.375C56.146,41.758 52.368,43 48.96,46.102L17.684,74.569C14.209,77.733 12.585,81.409 12.813,85.596L0,71.519Z" style="fill:rgb(60,133,115);"/>
        </g>
        <g transform="matrix(1,0,0,1,861.329,216.202)">
            <path d="M0,46.488C-3.916,49.089 -6.07,52.485 -6.466,56.683L-17.108,40.658C-13.1,41.9 -9.14,41.221 -5.227,38.623L28.765,16.053C32.1,13.839 32.729,11.165 30.654,8.036C26.445,1.695 19.365,-0.086 9.421,2.685L28.818,-10.195C28.616,-7.869 28.983,-6.002 29.918,-4.593L53.435,30.822C54.425,32.314 56.014,33.391 58.201,34.051L38.801,46.931C45.271,38.926 46.384,31.723 42.135,25.328C40.04,22.173 37.323,21.704 33.985,23.918L0,46.488Z" style="fill:rgb(60,133,115);"/>
        </g>
        <g transform="matrix(1,0,0,1,914.504,320.16)">
            <path d="M0,-52.122C4.081,-54.127 6.609,-57.21 7.586,-61.37L16.106,-44.016C12.223,-45.775 8.241,-45.651 4.16,-43.648L-23.741,-29.948C-28.798,-27.463 -31.956,-24.878 -33.22,-22.19C-34.717,-19.018 -34.173,-14.802 -31.588,-9.538C-28.987,-4.241 -25.982,-1.231 -22.575,-0.506C-19.73,0.089 -15.769,-0.858 -10.686,-3.353L17.219,-17.054C21.271,-19.046 23.787,-22.158 24.759,-26.394L32.976,-9.665C29.173,-11.397 25.203,-11.245 21.067,-9.216L-6.263,4.206C-13.644,7.83 -19.17,9.248 -22.843,8.466C-28.987,7.162 -34.213,2.12 -38.524,-6.664C-42.853,-15.473 -43.626,-22.648 -40.842,-28.191C-39.136,-31.615 -34.633,-35.117 -27.333,-38.7L0,-52.122Z" style="fill:rgb(60,133,115);"/>
        </g>
        <g transform="matrix(1,0,0,1,944.473,369.281)">
            <path d="M0,-33.245L-39.012,-20.253C-41.182,-19.531 -42.222,-17.983 -42.127,-15.609C-42.086,-14.437 -41.545,-12.286 -40.497,-9.149C-37.742,-0.87 -33.579,4.205 -28.009,6.078C-23.395,7.643 -17.107,7.098 -9.143,4.446C-1.604,1.937 3.646,-1.294 6.612,-5.243C10.301,-10.163 10.845,-16.529 8.244,-24.337C5.917,-31.331 3.167,-34.3 0,-33.245M-54.558,-30.251C-50.938,-27.975 -46.931,-27.566 -42.529,-29.034L-2.403,-42.395C1.911,-43.832 4.831,-46.547 6.363,-50.539L7.492,-47.145C9.521,-41.05 11.755,-34.655 14.193,-27.959C14.808,-26.489 15.187,-25.534 15.333,-25.093C21.695,-5.987 14.58,6.996 -6.017,13.854C-15.3,16.945 -23.263,17.294 -29.898,14.896C-37.487,12.117 -42.925,5.794 -46.211,-4.074C-46.828,-5.928 -47.675,-8.753 -48.752,-12.548C-49.829,-16.345 -50.674,-19.171 -51.293,-21.025C-51.794,-22.532 -52.254,-23.864 -52.668,-25.016L-54.558,-30.251Z" style="fill:rgb(60,133,115);"/>
        </g>
        <g transform="matrix(1,0,0,1,919.887,413.951)">
            <path d="M0,9.061C2.284,21.617 11.928,26.348 28.936,23.254C35.929,21.982 41.361,19.782 45.229,16.653C50.355,12.52 52.284,6.982 51.021,0.035C48.723,-12.618 39.079,-17.397 22.104,-14.31C15.141,-13.045 9.7,-10.81 5.784,-7.603C0.672,-3.408 -1.256,2.149 0,9.061M-7.375,10.388C-9.204,0.347 -7.207,-7.697 -1.391,-13.741C3.5,-18.84 10.742,-22.261 20.34,-24.007C29.997,-25.763 38,-25.098 44.347,-22.007C51.865,-18.356 56.548,-11.462 58.394,-1.321C60.217,8.72 58.223,16.764 52.406,22.807C47.519,27.906 40.289,31.325 30.719,33.068C21.062,34.824 13.062,34.156 6.715,31.065C-0.836,27.419 -5.531,20.529 -7.375,10.388" style="fill:rgb(60,133,115);"/>
        </g>
        <g transform="matrix(1,0,0,1,921.005,473.511)">
            <path d="M0,39.382C2.769,42.638 6.471,44.224 11.11,44.143L46.706,43.524C50.411,43.458 53.971,43.683 57.386,44.197C53.297,43.041 49.632,41.88 46.39,40.711L4.281,25.687C3.583,25.452 2.752,25.344 1.792,25.36C0.799,25.376 0.119,25.446 -0.241,25.569L-0.438,14.139C0.105,14.277 0.785,14.341 1.6,14.325C2.563,14.309 3.389,14.155 4.076,13.86L45.629,-2.728C49.19,-4.146 52.814,-5.432 56.501,-6.588C53.681,-5.825 50.133,-5.405 45.856,-5.332L10.261,-4.712C5.651,-4.631 2.006,-2.888 -0.677,0.522L-0.999,-17.914C1.77,-14.656 5.473,-13.067 10.114,-13.151L52.397,-13.887C56.944,-13.966 60.547,-15.681 63.199,-19.032L63.552,1.045C62.88,0.557 62.23,0.321 61.601,0.333C61.359,0.335 61.15,0.382 60.972,0.471L20.529,16.564C17.268,17.841 13.308,18.983 8.655,19.99C13.616,20.894 17.611,21.879 20.643,22.951L61.613,37.49C61.644,37.49 61.689,37.507 61.752,37.544C62.022,37.65 62.25,37.701 62.429,37.698C62.669,37.628 63.251,37.417 64.177,37.07L64.528,57.296C61.822,54.092 58.163,52.533 53.557,52.611L11.272,53.348C6.574,53.432 2.926,55.12 0.333,58.414L0,39.382Z" style="fill:rgb(60,133,115);"/>
        </g>
        <g transform="matrix(1,0,0,1,986.787,562.313)">
            <path d="M0,8.166L11.245,23.769C12.777,25.88 13.413,27.771 13.158,29.441C12.996,30.489 12.52,31.322 11.724,31.937C10.931,32.554 10.06,32.789 9.109,32.644C7.653,32.419 6.379,30.816 5.288,27.831L-0.559,11.803L0,8.166ZM-47.459,-4.744C-48.512,0.316 -49.283,4.449 -49.773,7.654C-50.25,10.759 -50.753,14.881 -51.286,20.022L-15.314,13.546L-47.459,-4.744ZM-54.467,-8.851C-58.155,-10.858 -60.881,-11.995 -62.638,-12.266C-64.786,-12.596 -66.808,-12.049 -68.7,-10.631L-65.961,-28.513C-63.53,-24.686 -59.457,-21.146 -53.738,-17.89L-10.435,6.747C-10.096,6.918 -9.761,7.029 -9.433,7.077C-8.51,7.221 -7.489,7.016 -6.366,6.469L-8.986,23.563C-9.749,22.772 -10.519,22.315 -11.292,22.196C-11.709,22.134 -12.218,22.158 -12.811,22.271L-61.113,30.809C-67.69,31.978 -72.638,33.935 -75.953,36.679L-73.16,18.453C-71.724,20.615 -69.912,21.866 -67.736,22.201C-66.036,22.462 -63.157,22.18 -59.092,21.362C-58.201,17.344 -57.292,12.32 -56.372,6.293C-55.451,0.298 -54.818,-4.747 -54.467,-8.851" style="fill:rgb(60,133,115);"/>
        </g>
        <g transform="matrix(1,0,0,1,965.389,636.911)">
            <path d="M0,2.486C-0.871,1.834 -1.372,1.471 -1.508,1.392C-1.678,1.339 -1.908,1.322 -2.197,1.336C-2.268,1.349 -2.314,1.349 -2.341,1.344L-45.147,8.755C-50.151,9.629 -54.674,10.029 -58.721,9.951C-55.346,10.46 -51.488,11.39 -47.142,12.739L-17.457,21.965C-13.14,23.304 -9.175,22.777 -5.559,20.379L-11.031,37.988C-12.64,34.028 -15.616,31.373 -19.96,30.022L-66.562,15.543C-68.574,14.917 -70.091,14.719 -71.107,14.95L-67.037,1.85C-67.01,1.861 -66.959,1.893 -66.881,1.95C-66.307,2.51 -65.836,2.849 -65.468,2.963C-65.292,3.019 -65.054,3.039 -64.759,3.028C-64.688,3.014 -64.64,3.011 -64.609,3.019L-17.251,-5.241C-14.479,-5.728 -10.336,-6.202 -4.825,-6.661C-8.22,-7.109 -11.743,-7.899 -15.395,-9.035L-48.88,-19.439C-53.28,-20.806 -57.288,-20.291 -60.901,-17.894L-55.432,-35.502C-53.824,-31.542 -50.807,-28.874 -46.373,-27.496L-5.986,-14.95C-1.643,-13.599 2.314,-14.099 5.885,-16.451L0,2.486Z" style="fill:rgb(60,133,115);"/>
        </g>
        <g transform="matrix(1,0,0,1,924.022,694.289)">
            <path d="M0,23.399C1.632,25.665 3.074,27.093 4.33,27.681C5.532,28.244 7.15,28.122 9.188,27.324L1.494,43.75C0.344,40.025 -1.308,36.593 -3.464,33.46L-24.881,2.378L-35.518,-2.605C-39.774,-4.599 -43.794,-4.678 -47.58,-2.843L-39.38,-20.351C-38.332,-16.189 -35.712,-13.122 -31.512,-11.155L-21.284,-6.362L16.754,-9.696C20.638,-10.032 24.315,-10.924 27.788,-12.37L19.587,5.136C18.935,3.184 17.969,1.91 16.683,1.306C15.373,0.694 13.367,0.462 10.666,0.613L-15.308,2.177L0,23.399Z" style="fill:rgb(60,133,115);"/>
        </g>
        <g transform="matrix(1,0,0,1,911.059,711.588)">
            <path d="M0,49.442C-0.647,45.228 -2.926,41.96 -6.834,39.634L-43.18,18.012C-47.169,15.641 -51.167,15.172 -55.178,16.616L-45.294,0C-44.655,4.228 -42.341,7.524 -38.354,9.898L-2.009,31.52C1.902,33.845 5.867,34.281 9.887,32.827L0,49.442Z" style="fill:rgb(60,133,115);"/>
        </g>
        <g transform="matrix(1,0,0,1,871.232,787.895)">
            <path d="M0,28.224C0.084,23.961 -1.605,20.351 -5.059,17.39L-21.29,3.49L-17.1,35.824C-16.78,38.322 -16.085,40.033 -15.008,40.953C-14.117,41.718 -12.864,41.851 -11.251,41.359L-24.186,56.455C-23.975,55.148 -23.964,51.001 -24.147,44.016L-24.15,43.884L-26.253,24.909L-61.436,17.149C-66.036,16.131 -70.554,16.101 -74.984,17.062L-62.859,2.91C-62.577,4.853 -61.874,6.304 -60.751,7.268C-59.769,8.109 -58.244,8.767 -56.19,9.244L-26.854,15.83L-28.662,-2.828L-37.177,-10.119C-40.7,-13.139 -44.561,-14.282 -48.761,-13.546L-36.181,-28.231C-36.272,-23.958 -34.557,-20.312 -31.036,-17.292L1.082,10.22C4.536,13.181 8.368,14.288 12.579,13.541L0,28.224Z" style="fill:rgb(60,133,115);"/>
        </g>
        <g transform="matrix(1,0,0,1,798.689,847.777)">
            <path d="M0,-16.323C-4.06,-13.127 -7.308,-10.458 -9.746,-8.32C-12.109,-6.25 -15.148,-3.416 -18.861,0.176L12.845,18.361L0,-16.323ZM-2.72,-23.974C-4.255,-27.886 -5.607,-30.511 -6.779,-31.847C-8.211,-33.479 -10.111,-34.365 -12.475,-34.497L1.129,-46.422C0.528,-41.929 1.37,-36.6 3.651,-30.427L20.954,16.296C21.103,16.645 21.287,16.943 21.506,17.195C22.123,17.896 23.038,18.396 24.248,18.697L11.24,30.099C11.167,29.003 10.872,28.158 10.355,27.572C10.076,27.254 9.673,26.948 9.146,26.651L-33.322,2.111C-39.114,-1.226 -44.159,-2.912 -48.463,-2.942L-34.598,-15.099C-34.89,-12.515 -34.311,-10.396 -32.859,-8.742C-31.726,-7.448 -29.339,-5.808 -25.7,-3.822C-22.434,-6.328 -18.507,-9.587 -13.922,-13.605C-9.361,-17.603 -5.63,-21.059 -2.72,-23.974" style="fill:rgb(60,133,115);"/>
        </g>
        <g transform="matrix(1,0,0,1,763.037,875.475)">
            <path d="M0,20.248L-7.153,9.222C-9.914,10.797 -12.267,12.216 -14.21,13.477C-19.341,16.806 -22.835,19.683 -24.694,22.107C-27.663,25.973 -27.888,29.851 -25.365,33.74C-21.579,39.575 -14.943,39.413 -5.454,33.261C-2.236,31.172 -0.165,29.291 0.758,27.615C1.989,25.38 1.734,22.925 0,20.248M-21.133,-12.327C-23.663,-16.231 -27.049,-18.425 -31.287,-18.918L-15.067,-29.438C-16.366,-25.367 -15.752,-21.384 -13.227,-17.491L9.789,17.988C12.263,21.805 15.624,23.951 19.873,24.427C19.289,24.804 18.437,25.36 17.311,26.089C16.182,26.819 15.329,27.375 14.744,27.753C11.797,29.667 7.892,32.322 3.031,35.727L-3.364,40.206C-3.954,40.637 -4.585,41.066 -5.251,41.497C-17.871,49.686 -27.331,48.927 -33.629,39.218C-37.646,33.025 -36.728,26.4 -30.882,19.336C-34.544,20.205 -37.623,20.208 -40.116,19.347C-42.249,18.613 -44.674,16.916 -47.386,14.259C-49.286,11.758 -52.393,8.331 -56.715,3.987C-58.612,2.526 -60.727,1.76 -63.062,1.692L-53.521,-4.494C-52,-5.193 -50.536,-4.885 -49.129,-3.564C-48.16,-2.679 -46.842,-0.968 -45.178,1.57C-43.51,4.106 -42.192,5.909 -41.226,6.976C-37.745,10.697 -34.086,12.535 -30.245,12.494C-26.827,12.473 -22.687,10.884 -17.828,7.733C-17.078,7.246 -15.964,6.467 -14.485,5.403C-13.008,4.334 -11.893,3.558 -11.144,3.073L-21.133,-12.327Z" style="fill:rgb(60,133,115);"/>
        </g>
        <g transform="matrix(1,0,0,1,403.918,974.913)">
            <path d="M0,-24.784L-6.312,-24.784C-8.398,-24.784 -10.111,-24.305 -11.449,-23.352L-11.449,-32.603C-9.565,-31.797 -7.825,-31.393 -6.233,-31.393C-0.582,-31.393 2.244,-34.281 2.244,-40.054C2.244,-41.653 1.917,-43.132 1.258,-44.495L10.022,-44.495C9.359,-42.574 9.029,-40.243 9.029,-37.499L9.029,8.906C9.029,13.484 10.625,17.083 13.819,19.711L-4.826,19.711C-1.61,17.118 0,13.522 0,8.92L0,-24.784Z" style="fill:rgb(60,133,115);"/>
        </g>
        <g transform="matrix(1,0,0,1,451.477,988.725)">
            <path d="M0,-51.284C-4.866,-51.284 -8.647,-50.031 -11.34,-47.525C-14.033,-45.016 -15.378,-41.538 -15.378,-37.084C-15.378,-32.601 -14.033,-29.135 -11.34,-26.687C-8.647,-24.241 -4.834,-23.017 0.098,-23.017C4.997,-23.017 8.774,-24.246 11.435,-26.712C14.096,-29.173 15.424,-32.631 15.424,-37.084C15.424,-41.538 14.071,-45.016 11.362,-47.525C8.653,-50.031 4.867,-51.284 0,-51.284M15.619,-23.017C10.945,-18.179 5.102,-15.759 -1.908,-15.759C-8.723,-15.759 -14.217,-17.653 -18.388,-21.445C-22.559,-25.234 -24.646,-30.225 -24.646,-36.42C-24.646,-43.235 -22.339,-48.616 -17.73,-52.57C-13.218,-56.432 -7.183,-58.365 0.379,-58.365C9.467,-58.365 16.204,-55.166 20.586,-48.762C24.188,-43.512 25.988,-36.507 25.988,-27.743C25.988,-17.685 24.042,-9.718 20.147,-3.85C15.311,3.439 7.716,7.081 -2.636,7.081C-4.228,7.081 -6.566,6.808 -9.648,6.27C-12.731,5.728 -15.07,5.457 -16.658,5.457C-18.932,5.457 -20.93,5.996 -22.648,7.081L-22.648,-14.503C-17.389,-4.798 -11.013,0.058 -3.516,0.058C3.172,0.058 8.171,-2.394 11.481,-7.296C14.142,-11.29 15.522,-16.53 15.619,-23.017" style="fill:rgb(60,133,115);"/>
        </g>
        <g transform="matrix(1,0,0,1,510.606,988.725)">
            <path d="M0,-51.284C-4.866,-51.284 -8.647,-50.031 -11.34,-47.525C-14.034,-45.016 -15.378,-41.538 -15.378,-37.084C-15.378,-32.601 -14.034,-29.135 -11.34,-26.687C-8.647,-24.241 -4.834,-23.017 0.098,-23.017C4.996,-23.017 8.774,-24.246 11.435,-26.712C14.096,-29.173 15.427,-32.631 15.427,-37.084C15.427,-41.538 14.073,-45.016 11.361,-47.525C8.655,-50.031 4.866,-51.284 0,-51.284M15.619,-23.017C10.945,-18.179 5.102,-15.759 -1.908,-15.759C-8.724,-15.759 -14.218,-17.653 -18.388,-21.445C-22.559,-25.234 -24.646,-30.225 -24.646,-36.42C-24.646,-43.235 -22.339,-48.616 -17.73,-52.57C-13.219,-56.432 -7.184,-58.365 0.382,-58.365C9.47,-58.365 16.204,-55.166 20.585,-48.762C24.187,-43.512 25.99,-36.507 25.99,-27.743C25.99,-17.685 24.042,-9.718 20.146,-3.85C15.311,3.439 7.716,7.081 -2.637,7.081C-4.23,7.081 -6.563,6.808 -9.646,6.27C-12.731,5.728 -15.07,5.457 -16.659,5.457C-18.932,5.457 -20.93,5.996 -22.648,7.081L-22.648,-14.503C-17.39,-4.798 -11.013,0.058 -3.513,0.058C3.172,0.058 8.171,-2.394 11.48,-7.296C14.142,-11.29 15.521,-16.53 15.619,-23.017" style="fill:rgb(60,133,115);"/>
        </g>
        <g transform="matrix(1,0,0,1,569.451,989.254)">
            <path d="M0,-52.167C-4.024,-52.167 -7.267,-51.386 -9.732,-49.823C-12.556,-48.023 -13.969,-45.371 -13.969,-41.861C-13.969,-38.294 -12.574,-35.596 -9.781,-33.769C-7.318,-32.145 -4.057,-31.336 0,-31.336C4.087,-31.336 7.364,-32.145 9.83,-33.769C12.65,-35.596 14.063,-38.294 14.063,-41.861C14.063,-45.371 12.637,-48.023 9.781,-49.823C7.312,-51.386 4.054,-52.167 0,-52.167M0.019,-24.902C-4.869,-24.902 -8.77,-23.974 -11.682,-22.117C-15.016,-19.963 -16.684,-16.75 -16.684,-12.474C-16.684,-8.197 -15.016,-4.982 -11.682,-2.83C-8.77,-0.941 -4.869,0 0.019,0C4.906,0 8.805,-0.941 11.719,-2.83C15.051,-4.982 16.718,-8.197 16.718,-12.474C16.718,-16.721 15.034,-19.917 11.671,-22.071C8.756,-23.957 4.872,-24.902 0.019,-24.902M14.366,-28.719C22.112,-25.825 25.985,-20.48 25.985,-12.685C25.985,-6.014 23.387,-1.009 18.198,2.331C13.687,5.222 7.621,6.669 -0.006,6.669C-7.598,6.669 -13.651,5.208 -18.161,2.285C-23.352,-1.053 -25.947,-6.043 -25.947,-12.685C-25.947,-20.48 -22.085,-25.825 -14.358,-28.719C-20.274,-31.2 -23.232,-35.611 -23.232,-41.961C-23.232,-47.777 -20.862,-52.146 -16.123,-55.071C-12.065,-57.58 -6.69,-58.836 0,-58.836C6.687,-58.836 12.079,-57.58 16.169,-55.071C20.942,-52.146 23.33,-47.777 23.33,-41.961C23.33,-35.642 20.342,-31.228 14.366,-28.719" style="fill:rgb(60,133,115);"/>
        </g>
        <g transform="matrix(0,-1,-1,0,492.286,183.356)">
            <path d="M-20.776,-20.773C-32.249,-20.773 -41.548,-11.473 -41.548,0C-41.548,11.474 -32.249,20.776 -20.776,20.776C-9.303,20.776 -0.001,11.474 -0.001,0C-0.001,-11.473 -9.303,-20.773 -20.776,-20.773" style="fill:white;"/>
        </g>
        <g transform="matrix(-1,0,0,1,985.831,-516.642)">
            <rect x="472.772" y="749.195" width="40.287" height="18.252" style="fill:white;"/>
        </g>
        <g transform="matrix(-0.751859,-0.659323,-0.659323,0.751859,635.381,309.055)">
            <path d="M-168.311,393.692L-141.521,393.692L148.169,63.345L133.025,50.065L-168.311,393.692Z" style="fill:white;"/>
        </g>
        <g transform="matrix(-1,0,0,1,480.953,741.798)">
            <path d="M-21.403,107.011L0,107.011L0,0L-21.403,17.671L-21.403,107.011Z" style="fill:white;"/>
        </g>
        <g transform="matrix(-0.53025,-0.847841,-0.847841,0.53025,239.319,257.525)">
            <path d="M-16.255,-29.332C-30.486,-29.334 -42.032,-20.751 -42.032,-10.165C-42.032,0.42 -30.491,9.002 -16.255,9.007C-2.019,9.007 9.523,0.426 9.523,-10.161C9.526,-20.746 -2.012,-29.33 -16.255,-29.332" style="fill:white;"/>
        </g>
        <g transform="matrix(1,0,0,1,408.216,293.85)">
            <path d="M0,-10.659L-10.98,-15.79L-10.98,-27.306L62.036,3.537L62.036,-15.977C62.036,-15.977 54.485,-15.977 47.559,-22.272C38.005,-30.961 35.599,-63.187 9.162,-63.817C-17.906,-64.461 -26.719,-25.417 -29.236,-9.682C-31.752,6.053 -37.325,38.695 -48.658,53.802L-19.165,48.952L0,-10.659Z" style="fill:white;"/>
        </g>
        <g transform="matrix(0.919113,0.393995,0.393995,-0.919113,429.215,291.459)">
            <path d="M-10.654,-0.814L2.09,-0.814L8.357,-47.28L-6.803,-56.508L-10.654,-0.814Z" style="fill:white;"/>
        </g>
        <g transform="matrix(0.903689,0.428189,0.428189,-0.903689,448.875,298.602)">
            <path d="M-8.679,-1.387L0.113,-1.387L11.321,-33.831L-1.013,-41.99L-8.679,-1.387Z" style="fill:white;"/>
        </g>
        <g transform="matrix(0.931247,0.364388,0.364388,-0.931247,463.685,304.47)">
            <path d="M-4.8,-2.169L5.532,-2.169L12.442,-23.274L2.534,-28.946L-4.8,-2.169Z" style="fill:white;"/>
        </g>
        <g transform="matrix(-0.989498,-0.144548,-0.144548,0.989498,462.23,382.635)">
            <path d="M1.235,-40.004C0.201,-36.991 -2.347,-27.064 -0.778,-17.536C0.488,-9.823 8.684,1.604 1.235,0.515C-4.575,-0.333 -8.901,-8.486 -10.299,-18.927C-11.919,-30.998 1.235,-40.004 1.235,-40.004" style="fill:white;"/>
        </g>
        <g transform="matrix(1,0,0,1,450.895,457.844)">
            <path d="M0,-108.76C9.11,-105.561 6.649,-93.084 5.554,-87.612C4.3,-81.338 -3.703,-72.953 3.881,-66.812C12.666,-59.702 17.568,-76.134 22.169,-71.532C25.958,-67.743 19.66,-58.146 15.895,-54.382C12.13,-50.616 4.601,-48.944 2.928,-47.688C1.253,-46.432 -2.512,-35.138 5.018,-21.752C12.55,-8.368 21.333,-8.368 21.333,-8.368L21.333,5.018L5.018,5.438C5.018,5.438 -24.681,-6.276 -30.538,-41.414C-36.392,-76.553 -15.479,-114.198 0,-108.76" style="fill:white;"/>
        </g>
        <g transform="matrix(1,0,0,1,263.908,354.942)">
            <path d="M0,270.647L0,-50.618L22.591,-65.257L178.621,117.545L175.693,133.022L30.537,-11.715L30.537,4.181L48.108,21.936C48.108,21.936 48.525,273.67 48.525,282.876C48.525,292.078 61.492,291.376 61.492,280.918C61.492,264.181 63.584,37.647 63.584,37.647L84.919,58.982L84.919,274.529C84.919,283.733 100.398,284.034 100.398,273.576C100.398,263.118 101.231,75.713 101.231,75.713L120.058,94.118L120.058,261.093C120.058,278.245 138.045,281.944 144.319,266.046C150.595,250.148 189.916,122.983 189.916,122.983L208.32,122.983L208.32,227.559C208.32,258.516 199.64,293.016 159.797,312.479C141.81,321.264 94.958,330.046 62.748,332.975C30.537,335.904 0,307.459 0,270.647" style="fill:white;"/>
        </g>
        <g transform="matrix(1,0,0,1,401.534,607.185)">
            <path d="M0,-141.391L0,0L34.719,-106.252L0,-141.391Z" style="fill:white;"/>
        </g>
        <g transform="matrix(0.98057,-0.19617,-0.19617,-0.98057,336.396,691.907)">
            <path d="M8.645,-5.301L40.505,-5.301L-70.339,-90.291L-82.813,-74.472L8.645,-5.301Z" style="fill:white;"/>
        </g>
        <g transform="matrix(1,0,0,1,437.365,809.477)">
            <path d="M0,-132.746L13.633,-143.607C13.633,-143.607 33.512,-104.98 65.321,-81.125C88.395,-63.819 112.079,-43.082 113.601,-23.186C115.362,-0.209 103.378,10.861 103.378,10.861C103.378,10.861 111.839,-10.152 100.539,-27.163C83.612,-52.64 59.073,-62.948 35.783,-84.532C12.496,-106.117 0,-132.746 0,-132.746" style="fill:white;"/>
        </g>
        <g transform="matrix(-0.530238,0.847849,0.847849,0.530238,744.621,257.525)">
            <path d="M16.254,-29.332C30.486,-29.334 42.032,-20.751 42.032,-10.166C42.031,0.421 30.492,9.001 16.254,9.007C2.019,9.008 -9.522,0.426 -9.524,-10.159C-9.525,-20.747 2.011,-29.328 16.254,-29.332" style="fill:white;"/>
        </g>
        <g transform="matrix(1,0,0,1,575.725,293.85)">
            <path d="M0,-10.659L10.98,-15.79L10.98,-27.306L-62.038,3.537L-62.038,-15.977C-62.038,-15.977 -54.484,-15.977 -47.562,-22.272C-38.005,-30.961 -35.599,-63.187 -9.161,-63.817C17.906,-64.461 26.719,-25.417 29.235,-9.682C31.753,6.053 37.325,38.695 48.658,53.802L19.165,48.952L0,-10.659Z" style="fill:white;"/>
        </g>
        <g transform="matrix(-0.919064,0.394109,0.394109,0.919064,581.649,337.263)">
            <path d="M-3.96,-51.894L8.78,-51.894L15.052,-5.428L-0.104,3.801L-3.96,-51.894Z" style="fill:white;"/>
        </g>
        <g transform="matrix(-0.903752,0.428057,0.428057,0.903752,554.448,333.653)">
            <path d="M-6.168,-38.588L2.628,-38.588L13.828,-6.142L1.493,2.016L-6.168,-38.588Z" style="fill:white;"/>
        </g>
        <g transform="matrix(-0.931208,0.364487,0.364487,0.931208,524.087,332.619)">
            <path d="M-11.492,-25.44L-1.163,-25.44L5.752,-4.337L-4.156,1.337L-11.492,-25.44Z" style="fill:white;"/>
        </g>
        <g transform="matrix(-0.989498,0.144548,0.144548,0.989498,521.709,382.635)">
            <path d="M-1.237,-40.004C-0.203,-36.991 2.344,-27.064 0.779,-17.537C-0.49,-9.823 -8.684,1.603 -1.237,0.515C4.573,-0.333 8.899,-8.486 10.296,-18.927C11.917,-30.998 -1.237,-40.004 -1.237,-40.004" style="fill:white;"/>
        </g>
        <g transform="matrix(1,0,0,1,533.049,457.844)">
            <path d="M0,-108.76C-9.116,-105.561 -6.65,-93.084 -5.56,-87.612C-4.304,-81.338 3.699,-72.953 -3.884,-66.812C-12.67,-59.702 -17.573,-76.134 -22.172,-71.532C-25.961,-67.743 -19.663,-58.146 -15.898,-54.382C-12.134,-50.616 -4.604,-48.944 -2.929,-47.688C-1.259,-46.432 2.506,-35.138 -5.021,-21.752C-12.553,-8.368 -21.336,-8.368 -21.336,-8.368L-21.336,5.018L-5.021,5.438C-5.021,5.438 24.678,-6.276 30.535,-41.414C36.392,-76.553 15.476,-114.198 0,-108.76" style="fill:white;"/>
        </g>
        <g transform="matrix(1,0,0,1,720.03,354.942)">
            <path d="M0,270.647L0,-50.618L-22.586,-65.257L-178.618,117.545L-175.69,133.022L-30.535,-11.715L-30.535,4.181L-48.105,21.936C-48.105,21.936 -48.522,273.67 -48.522,282.876C-48.522,292.078 -61.492,291.376 -61.492,280.918C-61.492,264.181 -63.581,37.647 -63.581,37.647L-84.917,58.982L-84.917,274.529C-84.917,283.733 -100.393,284.034 -100.393,273.576C-100.393,263.118 -101.229,75.713 -101.229,75.713L-120.055,94.118L-120.055,261.093C-120.055,278.245 -138.043,281.944 -144.316,266.046C-150.59,250.148 -189.91,122.983 -189.91,122.983L-208.317,122.983L-208.317,227.559C-208.317,258.516 -199.638,293.016 -159.792,312.479C-141.808,321.264 -94.955,330.046 -62.745,332.975C-30.535,335.904 0,307.459 0,270.647" style="fill:white;"/>
        </g>
        <g transform="matrix(1,0,0,1,582.407,607.185)">
            <path d="M0,-141.391L0,0L-34.722,-106.252L0,-141.391Z" style="fill:white;"/>
        </g>
        <g transform="matrix(-0.98057,-0.19617,-0.19617,0.98057,673.382,791.494)">
            <path d="M53.516,-87.282L85.376,-87.282L-25.468,-2.292L-37.942,-18.111L53.516,-87.282Z" style="fill:white;"/>
        </g>
        <g transform="matrix(0.950926,0.309419,0.309419,-0.950926,508.24,712.768)">
            <path d="M8.981,-3.561C23.361,22.444 25.814,46.296 25.814,46.296L8.981,52.24C8.981,52.24 9.98,38.13 1.133,20.556L8.981,-3.561Z" style="fill:white;"/>
        </g>
        <g transform="matrix(1,0,0,1,470.482,818.201)">
            <path d="M0,-81.474C-19.11,-66.061 -36.115,-48.679 -37.509,-31.91C-39.35,-9.76 -26.748,0 -26.748,0C-26.748,0 -34.583,-16.182 -24.442,-35.886C-18.523,-47.394 -9.28,-55.048 0,-62.356L0,-81.474Z" style="fill:white;"/>
        </g>
        <g transform="matrix(0,-1,-1,0,437.925,380.038)">
            <path d="M-7.11,-7.113C-11.037,-7.113 -14.223,-3.93 -14.223,-0.003C-14.223,3.924 -11.037,7.11 -7.11,7.11C-3.183,7.11 0,3.924 0,-0.003C0,-3.93 -3.183,-7.113 -7.11,-7.113" style="fill:rgb(80,152,130);"/>
        </g>
        <g transform="matrix(0,1,1,0,546.016,380.038)">
            <path d="M7.11,-7.113C11.038,-7.113 14.223,-3.927 14.223,-0.003C14.223,3.923 11.038,7.11 7.11,7.11C3.183,7.11 0,3.923 0,-0.003C0,-3.927 3.183,-7.113 7.11,-7.113" style="fill:rgb(80,152,130);"/>
        </g>
    </g>
</svg>
