<svg xmlns="http://www.w3.org/2000/svg" viewBox="0 0 994.89 1000"><defs><style>.cls-1{fill:#0060a8;}.cls-1,.cls-2{fill-rule:evenodd;}.cls-2{fill:#fff;}</style></defs><title>TTK</title><g id="Layer_2" data-name="Layer 2"><g id="Layer_1-2" data-name="Layer 1"><path class="cls-1" d="M89.09,498.65c0,225.8,183.7,409.51,409.51,409.51S908.11,724.45,908.11,498.65,724.41,89.19,498.6,89.19,89.09,272.88,89.09,498.65Z"/><path class="cls-1" d="M212.17,822a13.68,13.68,0,0,0-11.38,4.29l-30.22,30a13.41,13.41,0,0,0-4.25,11.28l-2.06-2.07-2.06-2.08q-2.69-2.7-8.27-7.92t-8.27-7.91q-7.33-7.4-9-14.22-2-8.16,4.34-14.47,7.06-7,16.84-1.95-7.87-11.55,1.54-20.9,7.06-7,15.42-5.77,7.67,1.14,15.56,9.11,2.4,2.42,7.09,7.43t7.08,7.43l4.37,4.41,3.32,3.34ZM166,847.39l8.83-8.77c-2-2.26-3.81-4.23-5.5-5.93q-6.25-6.32-10.31-8.34-6.64-3.32-11.32,1.32-7,6.95,4.75,18.78,4,4,6.64,4.94c2.41.84,4.72.17,6.91-2Zm24.77-24.59q3.9-3.88,2.72-8-.87-3-5.58-7.76-12.6-12.69-21-4.31-5.4,5.36-2.61,12.23,1.92,4.78,8.64,11.55c.73.74,1.88,1.8,3.45,3.2s2.72,2.46,3.45,3.19l.38.39,10.59-10.51Z"/><path class="cls-1" d="M123,711.24a13.61,13.61,0,0,0-12.08,1.65L80.57,732A66.75,66.75,0,0,1,71,737q6.18-1.69,11.29-2.72l44.12-9a6.87,6.87,0,0,0,2.35-1A6.3,6.3,0,0,0,130.4,723l6.12,9.75a8.85,8.85,0,0,0-1.84.91,7.21,7.21,0,0,0-1.9,1.67l-27.2,35.93q-3.49,4.62-7.36,9a46.07,46.07,0,0,1,8.53-6.6l30.37-19.07a13.58,13.58,0,0,0,6.7-10.22l9.87,15.73a13.63,13.63,0,0,0-12.05,1.68l-36,22.64a13.46,13.46,0,0,0-6.64,10L88.2,777.36a3.2,3.2,0,0,0,2-.4,2.37,2.37,0,0,0,.5-.4l26.44-35a79,79,0,0,1,8.45-9.14,80.16,80.16,0,0,1-11.87,3.67l-42.89,8.81-.14,0a2.19,2.19,0,0,0-.66.22c-.17.19-.55.67-1.16,1.44L58.08,729.37A13.43,13.43,0,0,0,70,727.68L106,705q6-3.76,6.8-10L123,711.24Z"/><path class="cls-1" d="M25.43,647.9a12.83,12.83,0,0,0-4.4-5.83L41,635a19.65,19.65,0,0,0-6,13q-.34,6.11,2.8,15,1.72,4.9,3.53,6.71A5.79,5.79,0,0,0,47.86,671l13-4.59-4.23-12q-2.87-8.12-9.89-10.61L64,637.76q-3.84,6.35-1,14.45l4.23,12L83,658.63q4.27-1.51,4.61-5.51.21-2.67-1.71-8.09-3.48-9.85-7.59-14.24-4.87-5.22-13.66-6.42l20.73-7.32a13.24,13.24,0,0,0,.48,7.79L101,667.64a13.64,13.64,0,0,0-12.13-1L48.7,680.84A13.46,13.46,0,0,0,40,689.19L25.43,647.9Z"/><path class="cls-1" d="M56.54,509.76c4.73-.16,8.37-1.94,10.92-5.31l.68,19.35Q64,519,56.88,519.27l-41.05,1.45q-6,.21-5.84,5.87.39,11.46,15.37,15.75l-23.48.83A8.5,8.5,0,0,0,4,537.78l-1.5-42.71A8.23,8.23,0,0,0,0,489.8L23.48,489Q8.84,494.15,9.25,505.71q.2,5.71,6.25,5.5l41-1.45Z"/><path class="cls-1" d="M11,407.45a12.75,12.75,0,0,0-1.16-7.21l21,3.16a19.62,19.62,0,0,0-11.43,8.7q-3.18,5.23-4.6,14.59-.77,5.15,0,7.58c.71,2.37,2.44,3.76,5.17,4.17L33.5,440.5l1.89-12.57q1.29-8.51-3.73-14l18.13,2.73q-6.39,3.8-7.68,12.3l-1.89,12.56L56.73,444c3,.45,5.22-.44,6.66-2.69q1.45-2.26,2.31-7.95,1.56-10.33,0-16.14-1.86-6.9-9-12.09l21.75,3.28a13.3,13.3,0,0,0-3.25,7.1L68.37,460.4a13.63,13.63,0,0,0-10.24-6.59L16,447.46a13.48,13.48,0,0,0-11.59,3.3L11,407.45Z"/><path class="cls-1" d="M78,361.17a13.58,13.58,0,0,0,12.14-1l-6.58,18.32a13.59,13.59,0,0,0-8.76-8.45L34.74,355.69a13.46,13.46,0,0,0-12,1c.23-.65.58-1.62,1-2.89s.8-2.24,1-2.9q1.79-5,4.53-13.52l2.41-7.49c.21-.7.45-1.43.72-2.18q7.68-21.39,24.12-15.48,10.5,3.77,9.93,17.6,3.6-4.41,7.39-5.65c2.16-.71,5.13-.83,8.93-.35a115.45,115.45,0,0,0,13.73,2.54,10.79,10.79,0,0,0,6.49-2L99.19,335.1A3.75,3.75,0,0,1,95.11,337a29.42,29.42,0,0,1-6.28-1.69,46.46,46.46,0,0,0-6.44-1.92q-7.58-1.28-12.14,2.29-4.08,3.16-7,11.4c-.3.85-.72,2.16-1.25,3.91s-1,3.06-1.26,3.91L78,361.17ZM41.23,348l12.47,4.48q1.88-4.43,3.06-7.72Q59.9,336,59.9,331.38q0-7.36-6.56-9.74-9.9-3.56-15.68,12.54c-1.31,3.64-1.82,6.42-1.54,8.32q.57,3.83,5.11,5.45Z"/><path class="cls-1" d="M144.91,251.44a13.57,13.57,0,0,0-6.67-10.22L108,222a69,69,0,0,1-8.63-6.45q4.19,4.86,7.31,9l27,36a7.06,7.06,0,0,0,1.9,1.68,7,7,0,0,0,1.83.93l-6.17,9.71a10.21,10.21,0,0,0-1.63-1.25,7.42,7.42,0,0,0-2.32-1l-44.13-9.13q-5.67-1.17-11.27-2.79a43.86,43.86,0,0,1,9.65,4.83l30.26,19.24a13.66,13.66,0,0,0,12.08,1.7l-10,15.67A13.57,13.57,0,0,0,107.26,290L71.32,267.11a13.42,13.42,0,0,0-11.93-1.66l10.85-17.07a3.25,3.25,0,0,0,1.25,1.69,5.63,5.63,0,0,0,.57.31L115,259.25a77,77,0,0,1,11.88,3.67,80.14,80.14,0,0,1-8.38-9.17l-26.37-35a.39.39,0,0,1-.09-.11,2.1,2.1,0,0,0-.5-.47c-.24-.08-.85-.23-1.82-.45l10.92-17.19a13.4,13.4,0,0,0,6.63,10l35.94,22.85q6,3.81,12,1.82l-10.28,16.18Z"/><path class="cls-1" d="M160.05,136.19a12.53,12.53,0,0,0,3.32-6.53l15,15a19.56,19.56,0,0,0-14.31.23q-5.66,2.32-12.33,9c-2.45,2.45-4,4.48-4.53,6.07a5.75,5.75,0,0,0,1.67,6.4l9.69,9.7,9-9q6.06-6.08,5.32-13.45l13,13q-7.41-.78-13.48,5.29l-9,9,11.79,11.79c2.15,2.14,4.46,2.74,7,1.79q2.5-1,6.57-5,7.38-7.38,9.56-13,2.61-6.64-.08-15.06l15.52,15.51a13.57,13.57,0,0,0-6.8,3.83l-32.1,32.1a13.55,13.55,0,0,0-4.28-11.42l-30.11-30.1a13.39,13.39,0,0,0-11.31-4.18l31-31Zm-22.17,12.9L138,129.7c0-2.64.62-4.55,1.82-5.76a3.81,3.81,0,0,1,2.65-1.17,3.36,3.36,0,0,1,2.55,1q1.57,1.58.25,6.19l-4.8,16.51-2.62,2.62Z"/><path class="cls-1" d="M236,158.94,223.23,140.5q16.19,6.5,26.69-.77,5.24-3.63,6.6-8.16a10.5,10.5,0,0,0-1.74-9.47,10.32,10.32,0,0,0-6.41-4.58,21.45,21.45,0,0,0-8.5.52q-1.06.22-9.61,2.63a47,47,0,0,1-9.74,1.86A13.43,13.43,0,0,1,208,116.27a14.79,14.79,0,0,1-1.66-14.63q2.72-7.08,10.42-12.41a45.93,45.93,0,0,1,6.56-3.46,43.73,43.73,0,0,0,6.55-3.46,5.45,5.45,0,0,0,2.66-4.69l11.61,16.79q-13-6.59-23.31.53a15.53,15.53,0,0,0-5.77,6.64,7.74,7.74,0,0,0,.72,7.91,8.16,8.16,0,0,0,4.82,3.36q2.75.7,13.2-2.16c1.33-.37,2.89-.78,4.68-1.24q16.55-4.32,24,6.42,5.56,8,2.69,16.11-2.58,7.36-11.63,13.63a40.36,40.36,0,0,1-6.65,3.37,39.3,39.3,0,0,0-6.65,3.36q-2.6,1.8-4.2,6.6Z"/><path class="cls-1" d="M303.85,54.37a3.15,3.15,0,0,0-.27-1.82q-1.31-2.84-7.26-.1-16.76,7.66-17.07,23.33L270,55.57a8.33,8.33,0,0,0,5.79-.2l39.87-18.24-8.92,63.25a3.53,3.53,0,0,0,.14,2c.83,1.83,3.71,1.61,8.62-.63q18.21-8.34,19.73-24.61l9.27,20.25a10.18,10.18,0,0,0-6.41.56l-43,19.66,8.71-63.23Z"/><path class="cls-1" d="M396.77,13.11A12.84,12.84,0,0,0,403,9.32l5,20.58a19.64,19.64,0,0,0-12.38-7.28q-6.06-.95-15.23,1.3-5.06,1.23-7,2.84a5.83,5.83,0,0,0-1.89,6.37l3.28,13.4,12.34-3q8.34-2.05,11.53-8.78L403,52.54q-5.92-4.49-14.28-2.44l-12.33,3,4,16.23c.72,2.94,2.39,4.66,5,5.14q2.64.48,8.22-.89,10.15-2.47,14.92-6.14,5.68-4.34,7.74-13l5.23,21.34a13.39,13.39,0,0,0-7.8-.29l-44.1,10.8a13.58,13.58,0,0,0,2.24-12L361.71,33a13.39,13.39,0,0,0-7.48-9.46l42.54-10.42Z"/><path class="cls-1" d="M479.34,56.89q.38,7.09,5.55,10.82l-19.35,1q4.66-4.26,4.29-11.34l-2.19-41q-.33-6-6-5.74-11.46.62-15.48,15.65L444.92,2.85a8.49,8.49,0,0,0,5.42,2l42.72-2.28A8.3,8.3,0,0,0,498.29,0l1.25,23.45q-5.44-14.52-17-13.91-5.7.32-5.39,6.35l2.2,41Z"/><path class="cls-1" d="M558.93,60.56q-.88,7,3.52,11.63l-19.22-2.42q5.37-3.36,6.25-10.4l5.12-40.75q.75-6-4.88-6.71-11.4-1.42-18,12.67l2.93-23.32a8.43,8.43,0,0,0,5,2.92l42.48,5.34a8.28,8.28,0,0,0,5.6-1.59l-2.92,23.31Q582,16,570.47,14.52q-5.67-.72-6.43,5.29l-5.11,40.75Z"/><path class="cls-1" d="M626.55,30.37a13.45,13.45,0,0,0-1.35-12l18.51,6.05a13.47,13.47,0,0,0-8.13,8.87l-9.72,29.75q-2.64,8.07-1.07,12.28,1.86,5,10.28,7.71t12.84-.15q3.65-2.44,6.3-10.58l9.72-29.74a13.4,13.4,0,0,0-1.43-12l17.84,5.83a13.37,13.37,0,0,0-8.09,8.89l-9.53,29.15q-3.86,11.81-8.57,15-7.87,5.28-21.91.69T615.11,76.65q-1.9-5.46,1.91-17.13l9.53-29.15Z"/><path class="cls-1" d="M686.72,109.65a13.6,13.6,0,0,0,9.83-7.18l21.07-37a13.43,13.43,0,0,0,1.09-12l3.13,1.78q8.43,4.8,18,9.71l2.73,1.47Q769,81.51,752.79,110q-7.32,12.84-17.21,16.85-11.33,4.55-25-3.23Q708,122.17,703,119t-7.61-4.63c-1.39-.8-2.63-1.48-3.72-2.07l-4.94-2.65Zm38.9-39L705.1,106.69a4.28,4.28,0,0,0,.78,5.58,28.15,28.15,0,0,0,5.57,3.74q11.44,6.52,19.61,3,6.77-2.91,13.05-14,6-10.44,5.31-17.88-.81-9.27-11.62-15.42-9.67-5.52-12.18-1.12Z"/><path class="cls-1" d="M781.23,175q-11.61-10.14-10.41-22.77,1-10.63,10.69-21.74t20.19-13.5q12.33-2.76,24,7.48t10.42,22.78q-1,10.62-10.67,21.7t-20.18,13.5Q793,185.21,781.23,175Zm5-5.68q14.52,12.69,31.7-7,7.06-8.09,8.7-15.42,2.18-9.7-5.86-16.73Q806.16,117.37,789,137q-7,8.06-8.65,15.52-2.1,9.78,5.89,16.76Z"/><path class="cls-1" d="M858.59,260.68a13.58,13.58,0,0,0,11.92-2.49l29-21.11a65.32,65.32,0,0,1,9.17-5.64q-6,2.12-11.08,3.49l-43.4,12a9.29,9.29,0,0,0-3.79,2.52l-6.78-9.3a8.57,8.57,0,0,0,1.78-1,7,7,0,0,0,1.78-1.81l24.64-37.73q3.18-4.83,6.73-9.47a43,43,0,0,1-8,7.23l-29,21.11a13.65,13.65,0,0,0-6,10.61l-10.93-15a13.56,13.56,0,0,0,11.91-2.49l34.41-25.07A13.42,13.42,0,0,0,876.85,176l11.91,16.34a3.21,3.21,0,0,0-2,.54,1.92,1.92,0,0,0-.45.45l-24,36.67a77.89,77.89,0,0,1-7.78,9.71,79.62,79.62,0,0,1,11.6-4.47l42.18-11.75a.22.22,0,0,1,.14,0,2,2,0,0,0,.64-.27c.15-.19.51-.7,1.06-1.52l12,16.47a13.38,13.38,0,0,0-11.74,2.5L876,265.68q-5.75,4.19-6.09,10.49l-11.29-15.49Z"/><path class="cls-1" d="M901.19,307c-4.22.27-7.16.76-8.8,1.47a7.87,7.87,0,0,0-4.29,4.65l-7.26-16.71q6.2,2.94,16.12,2.5l50.12-2.23a2.79,2.79,0,0,0,1-.24,5.13,5.13,0,0,0,2.28-2.18l6.94,16a4.18,4.18,0,0,0-2.71,0,4.35,4.35,0,0,0-1.25.9l-36.59,33.18q-7.47,6.79-9.5,13l-7.39-17a7.88,7.88,0,0,0,6.62.29q2.38-1,6.91-5.34-2.1-5.87-5.76-14.31T901.19,307Zm8.15-.28q2.74,7.33,4.71,11.83t5.36,11.38l27.22-24.86-37.29,1.65Zm47.34-14.41,18,7.25q3.68,1.45,4.68,3.8a3.75,3.75,0,0,1,.12,2.9,3.36,3.36,0,0,1-1.86,2c-1.37.59-3.31-.09-5.85-2.05l-13.6-10.52-1.48-3.39Z"/><path class="cls-1" d="M981.53,385.94q-1.63-.21-1.86-.21a1.83,1.83,0,0,0-.64.29.26.26,0,0,1-.12.07L945,413.73a71.93,71.93,0,0,1-11.33,7.75,77.38,77.38,0,0,1,11.54-3.3l30.62-6.56a13.52,13.52,0,0,0,9.67-7.23l3.88,18.16a13.42,13.42,0,0,0-11.77-2.61l-48.06,10.3a9.18,9.18,0,0,0-4.28,1.75l-2.9-13.51a.68.68,0,0,1,.19,0,4.39,4.39,0,0,0,1.78.18,2.38,2.38,0,0,0,.64-.26l.13-.07,37.49-30.64q3.28-2.7,10.18-7.41a62.74,62.74,0,0,1-10.45,3.14l-34.52,7.4a13.59,13.59,0,0,0-9.8,7.29L914.11,380A13.62,13.62,0,0,0,926,382.51l41.65-8.92a13.47,13.47,0,0,0,9.68-7.18l4.18,19.53Z"/><path class="cls-1" d="M984.46,501.63c2.48,1.31,4.42,2,5.82,1.93s2.74-.86,4.23-2.49l.38,18.26a37.57,37.57,0,0,0-9.07-7.07l-33.21-18.5-11.83.25c-4.74.09-8.4,1.82-11,5.16l-.41-19.47a13.57,13.57,0,0,0,11.21,4.8l11.37-.24,32.85-20a37.52,37.52,0,0,0,8.79-7.35l.4,19.47a6.08,6.08,0,0,0-4.33-2.17,13.18,13.18,0,0,0-5.75,2.07l-22.75,13,23.3,12.33Z"/><path class="cls-1" d="M989.3,570.36A13.56,13.56,0,0,0,979,564.12l-42.27-5.28a13.7,13.7,0,0,0-11.64,3.5L927.53,543a13.58,13.58,0,0,0,10.4,6.37l42.27,5.28A13.41,13.41,0,0,0,991.71,551l-2.41,19.32Z"/><path class="cls-1" d="M958.94,683.08a13.44,13.44,0,0,0-8.2-8.82L930.88,666l14,29.7q1.61,3.44,3.59,4.26c1.09.46,2.33.2,3.73-.77l-7.72,18.47c-.2-1.31-1.49-5.29-3.85-11.91l0-.13L932.75,688l-36.11,3.47a31.51,31.51,0,0,0-13,4.11l7.23-17.32a6.81,6.81,0,0,0,3.36,3.52,10.71,10.71,0,0,0,5,.45l30.14-2.77-7.51-17.3-10.41-4.35a13.58,13.58,0,0,0-12.16.32l7.51-18a13.53,13.53,0,0,0,8.3,8.91l39.31,16.42a13.42,13.42,0,0,0,12.05-.41l-7.5,18Z"/><path class="cls-1" d="M878.21,732.49q-3.76-5.1-6-6.59a7.84,7.84,0,0,0-6.23-1.09l10.12-15.15q.89,6.78,6.63,14.89l29,40.92a2.73,2.73,0,0,0,.74.77,5,5,0,0,0,3.09.7l-9.66,14.49a4.27,4.27,0,0,0-1.54-2.22,5,5,0,0,0-1.4-.59l-47.72-12.76q-9.75-2.6-16-1l10.3-15.45a7.9,7.9,0,0,0,3.36,5.73q2.16,1.44,8.24,2.92,3.79-4.93,8.9-12.6t8.17-13Zm4.65,6.69q-4.64,6.3-7.37,10.38c-1.76,2.65-4,6.2-6.66,10.68l35.65,9.39-21.62-30.45Z"/><path class="cls-1" d="M821.5,801.05a13.78,13.78,0,0,0-11.36-4.35l13.71-13.82a13.55,13.55,0,0,0,4.35,11.38l30.26,30a13.48,13.48,0,0,0,11.33,4.16c-.5.49-1.22,1.22-2.17,2.19l-2.16,2.18q-3.75,3.76-9.83,10.35l-5.34,5.77-1.62,1.64q-16,16.14-28.4,3.84-7.92-7.85-1.55-20.15-5.13,2.46-9.08,2-3.39-.4-8.24-3.45A115.6,115.6,0,0,0,790,824.68a10.7,10.7,0,0,0-6.73-.89l8.05-8.12a3.76,3.76,0,0,1,4.52,0,29.54,29.54,0,0,1,5,4.2,49.53,49.53,0,0,0,5,4.47q6.33,4.38,12,3.08,5-1.12,11.19-7.33c.63-.64,1.56-1.64,2.78-3s2.16-2.37,2.79-3l-13.12-13Zm27.78,27.55-9.4-9.32q-3.57,3.21-6,5.69-6.5,6.56-8.45,10.72-3.14,6.66,1.83,11.59,7.46,7.4,19.48-4.72c2.71-2.74,4.34-5,4.89-6.88q1.1-3.69-2.32-7.08Z"/><path class="cls-1" d="M373.55,953.88H367.2a8.71,8.71,0,0,0-5.18,1.44V946a13.51,13.51,0,0,0,5.25,1.22q8.53,0,8.54-8.73a10.19,10.19,0,0,0-1-4.47h8.82a22,22,0,0,0-1,7.05v46.73q0,6.91,4.82,10.88H368.69q4.86-3.91,4.86-10.87V953.88Z"/><path class="cls-1" d="M466.8,969.57a23.54,23.54,0,0,1-17.65,7.31q-10.31,0-16.6-5.73t-6.3-15.08q0-10.29,7-16.26Q440,934,451.45,934q13.74,0,20.35,9.67,5.44,7.93,5.44,21.17,0,15.2-5.88,24.07-7.31,11-22.95,11a45,45,0,0,1-7.06-.81,43.85,43.85,0,0,0-7.06-.82,11.09,11.09,0,0,0-6,1.63V978.15q8,14.65,19.27,14.66,10.11,0,15.1-7.41,4-6,4.17-15.83ZM451.07,941.1q-7.35,0-11.42,3.79t-4.07,10.51q0,6.78,4.07,10.47t11.52,3.7q7.4,0,11.42-3.72t4-10.45q0-6.72-4.1-10.51t-11.44-3.79Z"/><path class="cls-1" d="M550.45,969.57a23.55,23.55,0,0,1-17.66,7.31q-10.29,0-16.59-5.73t-6.3-15.08q0-10.29,7-16.26Q523.67,934,535.1,934q13.73,0,20.35,9.67,5.43,7.93,5.44,21.17,0,15.2-5.88,24.07-7.32,11-23,11a45,45,0,0,1-7.06-.81,44,44,0,0,0-7.06-.82,11.07,11.07,0,0,0-6,1.63V978.15q7.94,14.65,19.27,14.66,10.1,0,15.1-7.41,4-6,4.17-15.83ZM534.71,941.1q-7.35,0-11.42,3.79t-4.06,10.51q0,6.78,4.06,10.47c2.71,2.47,6.56,3.7,11.52,3.7s8.74-1.24,11.42-3.72,4-6,4-10.45-1.36-8-4.09-10.51-6.55-3.79-11.45-3.79Z"/><path class="cls-1" d="M633.55,964.36q11.7,4.38,11.7,16.15,0,10.08-7.84,15.12-6.82,4.36-18.34,4.37t-18.28-4.42q-7.85-5-7.84-15.07,0-11.78,11.67-16.15-8.94-3.75-8.94-13.33,0-8.79,7.16-13.21Q609,934,619.08,934t16.28,3.79q7.21,4.42,7.21,13.21,0,9.54-9,13.33Zm-14.45,3.85q-7.38,0-11.78,2.8a10.8,10.8,0,0,0-5,9.71q0,6.46,5,9.71,4.39,2.85,11.78,2.85t11.78-2.85q5-3.24,5-9.71a10.76,10.76,0,0,0-5.09-9.67q-4.4-2.85-11.73-2.84Zm0-27.46q-6.08,0-9.8,2.36a8.89,8.89,0,0,0-4.27,8,9.12,9.12,0,0,0,4.22,8.15q3.72,2.44,9.85,2.45t9.9-2.45a9.09,9.09,0,0,0,4.26-8.15,8.86,8.86,0,0,0-4.31-8q-3.72-2.37-9.85-2.36Z"/><path class="cls-2" d="M638.46,581.87c-12.24,0-23,3.41-32.21,10.1l-61.7-61.43c-3.2-3.2-9-2.68-12.19.52s-3.76,9-.56,12.18L594,604a49.59,49.59,0,0,0-3.36,4.43l-160.75-70.3L403,547.61l181.28,76.8a55.79,55.79,0,1,0,54.19-42.54Z"/><path class="cls-1" d="M530.35,529a12.2,12.2,0,0,0-3.53,8.64,10.63,10.63,0,0,0,3,7.58l60.35,59c-.13.18-.25.35-.48.65L430,535.09,395.1,547.36l186,78.79A58.58,58.58,0,1,0,638.46,579a56.56,56.56,0,0,0-31.78,9.36l-60.12-59.85a10.55,10.55,0,0,0-7.53-3,12.31,12.31,0,0,0-8.68,3.51ZM593,609.93l1.9-2.57,2.89-3.62L596,602,533.79,541.2c-1.92-1.93-1.65-5.89.58-8.12a6.65,6.65,0,0,1,4.65-1.84,4.86,4.86,0,0,1,3.5,1.32L606,595.7l2-1.43a50.85,50.85,0,0,1,30.53-9.55A52.92,52.92,0,1,1,587,625.09l.58-2.36L410.89,547.85l18.84-6.63L591.53,612l1.51-2.06Z"/><path class="cls-2" d="M741.34,413a11.21,11.21,0,0,1-6.81,14.27l-184,66.14a11.17,11.17,0,0,1-7.46-21.06l184-66.15a11.21,11.21,0,0,1,14.26,6.8Z"/><path class="cls-1" d="M726.12,403.5l-184,66.15a14,14,0,0,0,9.38,26.44l184-66.15A14,14,0,0,0,744,412h0a14,14,0,0,0-17.9-8.54ZM538.94,485.65A8.35,8.35,0,0,1,544,475l184-66.14A8.33,8.33,0,0,1,738.65,414a8.47,8.47,0,0,1,.47,2.76,8.36,8.36,0,0,1-5.54,7.86l-184,66.15a8.34,8.34,0,0,1-10.61-5.07Z"/><path class="cls-2" d="M654.78,511.45l-256,2a8.24,8.24,0,1,1-.15-16.47l256-2c4.53-.05,4.68,16.43.15,16.46Z"/><path class="cls-1" d="M654.62,493.09l-256,2a10.14,10.14,0,0,0,.19,20.27l256-2a4.25,4.25,0,0,0,3.67-2.46c2.13-3.76,2.06-11.69-.14-15.42a4.22,4.22,0,0,0-3.71-2.39ZM392.36,505.24a6.35,6.35,0,0,1,6.28-6.39l256-2c.42.19,1.52,2.29,1.55,6.33v.19c0,3.88-1,5.93-1.47,6.14l-256,2a6.34,6.34,0,0,1-6.39-6.27Z"/><path class="cls-2" d="M405.18,513.4A48.18,48.18,0,1,1,357,465.22a48.18,48.18,0,0,1,48.18,48.18Z"/><path class="cls-1" d="M305,513.4a52,52,0,1,0,52-52,52,52,0,0,0-52,52Zm7.61,0A44.38,44.38,0,1,1,357,557.78a44.42,44.42,0,0,1-44.38-44.38Z"/><path class="cls-2" d="M485.37,305.45,387.49,484.09A9.94,9.94,0,1,1,370,474.58l97.9-178.71,17.44,9.58Z"/><path class="cls-1" d="M367.53,473.21A12.8,12.8,0,1,0,390,485.46l97.87-178.64-5-2.75L385,482.73A7.09,7.09,0,0,1,372.53,476l97.91-178.7-5-2.74-97.91,178.7Z"/><path class="cls-2" d="M195.31,614.1a8.27,8.27,0,0,1,2.36-11.41L322.57,523a8.24,8.24,0,1,1,9,13.77l-124.9,79.72a8.27,8.27,0,0,1-11.4-2.36Z"/><path class="cls-1" d="M321,520.59l-124.88,79.7a11.12,11.12,0,0,0-3.21,15.37h0a11.09,11.09,0,0,0,15.35,3.18l124.87-79.7A11.08,11.08,0,1,0,321,520.59Zm-124.2,89a5.38,5.38,0,0,1,2.43-4.5l124.87-79.7a5.38,5.38,0,1,1,5.94,9l-124.88,79.7a5.37,5.37,0,0,1-8.36-4.47Z"/><path class="cls-2" d="M556.05,264.9a55.79,55.79,0,1,0-63.65,55.22l8.2,188a10.35,10.35,0,1,0,20.68-1l-8.19-187.91a55.79,55.79,0,0,0,43-54.28Z"/><path class="cls-1" d="M440.68,264.9a59.8,59.8,0,0,0,48.05,58.39c.25,5.83,8.07,185,8.07,185a14.16,14.16,0,0,0,28.3-.66c0-.23,0-.47,0-.7,0,0-7.05-161.74-8.07-185a59.5,59.5,0,1,0-76.33-57Zm65.86,247.53a6.46,6.46,0,0,1-2.14-4.52l-8.34-191.12-3.13-.44a52,52,0,1,1,19.28-.87l-3.06.72,8.33,191.05a6.53,6.53,0,0,1-10.94,5.18Z"/><path class="cls-2" d="M509.14,436.06a64.66,64.66,0,0,0-64.66,64.66c0,2,.11,4,.29,6l-181.11,60,10.84,23.21,177.42-59a64.66,64.66,0,1,0,57.22-94.77Z"/><path class="cls-1" d="M440.68,500.72s.08,1.63.15,3.26L258.4,564.41l14.09,30.14,177.79-59.17a68.22,68.22,0,1,0-9.6-34.66Zm8,8.67-.41-8.67a60.85,60.85,0,1,1,7,28.33l-1.5-2.85-177.26,59c-1.75-3.73-5.49-11.74-7.6-16.26L448.7,509.39Z"/><path class="cls-2" d="M832,407.36a11.2,11.2,0,0,1-14.72,5.75L536.9,289.3a11.17,11.17,0,0,1,9-20.47L826.24,392.65A11.19,11.19,0,0,1,832,407.36Z"/><path class="cls-1" d="M535.94,265.12a15,15,0,0,0-.57,27.66L815.73,416.59a15,15,0,0,0,19.74-7.7,15,15,0,0,0-7.7-19.73L547.41,265.35a14.91,14.91,0,0,0-11.47-.23ZM818.79,409.63,538.44,285.82a7.39,7.39,0,0,1-3.8-9.72,7.4,7.4,0,0,1,9.7-3.79L824.71,396.13a7.31,7.31,0,0,1,3.9,4.07,7.49,7.49,0,0,1,.51,2.71,7.1,7.1,0,0,1-.62,2.92,7.4,7.4,0,0,1-9.71,3.8Z"/><path class="cls-2" d="M525.75,740.23c-6.13.37-17.93-4.34-18.3-10.47L502,556.2c-.38-6.14,5.95-11.46,12.08-11.84a11.2,11.2,0,0,1,11.84,10.47L536.22,728.4a11.21,11.21,0,0,1-10.47,11.83Z"/><path class="cls-1" d="M513.86,540.56c-7.81.49-16.16,7.37-15.65,15.87,0,.05,5.44,173.45,5.44,173.45a11.22,11.22,0,0,0,4.15,7.69C512.8,742,521,744.33,526,744a15,15,0,0,0,14-15.85L529.73,554.6a15,15,0,0,0-15.87-14Zm-8.05,15.52c-.24-4,4.48-7.68,8.52-7.92a7.39,7.39,0,0,1,7.8,6.9l10.29,173.56a7.39,7.39,0,0,1-6.91,7.81c-3.32.2-9.44-1.7-12.67-4.56a4,4,0,0,1-1.59-2.34s-5.44-173.45-5.44-173.45Z"/><path class="cls-2" d="M243.86,505.75l64.55-146.57A11.17,11.17,0,1,1,328.93,368l-64,145.41-21-7.68Z"/><path class="cls-1" d="M305.79,358.05,241.25,504.6l5.22,2.3L311,360.33a8.32,8.32,0,0,1,15.29,6.56l-64,145.39,5.22,2.3,64-145.42a14.05,14.05,0,0,0-7.33-18.45,14,14,0,0,0-18.42,7.34Z"/><path class="cls-2" d="M475.54,271.33c1.4,4.77-.44,9.41-4.75,10.95L306.28,339.52c-4.3,1.55-9-1.09-10.37-5.86s1-9.94,5.29-11.49l164.51-57.24c4.31-1.54,8.43,1.63,9.83,6.4Z"/><path class="cls-1" d="M464.75,262.24,300.27,319.48c-5.74,2.06-8.91,8.77-7.1,15a11.82,11.82,0,0,0,5.85,7.21,10.28,10.28,0,0,0,8.23.53L471.73,285c5.66-2,8.41-8.11,6.55-14.45a12.58,12.58,0,0,0-6.11-7.81,9.32,9.32,0,0,0-7.42-.48ZM301.61,336.58a6,6,0,0,1-3-3.72c-1-3.31.65-7,3.52-8l164.48-57.23a3.49,3.49,0,0,1,2.93.18,7,7,0,0,1,3.23,4.32c1,3.41-.24,6.48-3,7.47L305.35,336.83a4.69,4.69,0,0,1-3.74-.25Z"/><path class="cls-2" d="M852.73,399.29a65.93,65.93,0,1,1-65.93-65.92,65.93,65.93,0,0,1,65.93,65.92Z"/><path class="cls-1" d="M717.07,399.29a69.73,69.73,0,1,0,69.73-69.73,69.81,69.81,0,0,0-69.73,69.73Zm7.61,0a62.13,62.13,0,1,1,62.12,62.12,62.19,62.19,0,0,1-62.12-62.12Z"/><path class="cls-2" d="M521.2,734.33,274.36,614.84a66,66,0,1,0-11,24.63L509.45,758.6a13.48,13.48,0,0,0,11.75-24.27Z"/><path class="cls-1" d="M140.19,600.88a69.62,69.62,0,0,0,124.22,43.31L507.79,762A17.27,17.27,0,0,0,532.6,746.5a17.39,17.39,0,0,0-1-5.71,17.16,17.16,0,0,0-8.77-9.88L278.56,612.64a69.69,69.69,0,1,0-138.37-11.76Zm7.61,0A62.13,62.13,0,1,1,270.64,614L270,617l249.53,120.8A9.72,9.72,0,0,1,524,750.68a9.71,9.71,0,0,1-12.93,4.49L262.16,634.65l-1.87,2.58A62.12,62.12,0,0,1,147.8,600.88Zm375.06,130Z"/><path class="cls-2" d="M483.58,456l-88-86.58a69.79,69.79,0,1,0-15.9,15.71l88.19,86.76A11.18,11.18,0,0,0,483.58,456Z"/><path class="cls-1" d="M265.71,328.29A73.27,73.27,0,0,0,379.1,389.87l86.09,84.69a15,15,0,0,0,21.06-21.3s-81.76-80.43-85.85-84.47a72.86,72.86,0,0,0,12.39-40.5,73.54,73.54,0,0,0-147.08,0Zm7.61,0A65.93,65.93,0,1,1,392.5,367.14l-1.94,2.65s90.33,88.86,90.34,88.88a7.37,7.37,0,0,1-10.37,10.47l-90.46-89-2.6,1.85a65.91,65.91,0,0,1-104.15-53.7Z"/><path class="cls-2" d="M675,474.07a13.52,13.52,0,0,1-17.72,7L393.52,366.85c-6.8-2.94-8.34-10.92-5.39-17.72s9.3-10,16.1-7L668,456.35a13.52,13.52,0,0,1,7,17.72Z"/><path class="cls-1" d="M384.64,347.62c-4.06,9.37-.89,19.14,7.37,22.72L655.8,484.58a17.28,17.28,0,1,0,13.74-31.72L405.75,338.63c-8.54-3.7-17.22,0-21.11,9Zm274.19,130L395,363.36c-4.93-2.13-5.45-8-3.41-12.72,1.73-4,5.56-7.43,11.1-5l263.8,114.23a9.68,9.68,0,0,1-7.69,17.76l19.7-2-19.7,2Z"/><path class="cls-2" d="M792.73,396.93a13.52,13.52,0,0,1,5.54,18.24L736.09,528.62c-3.5,6.53-27.27-6.17-23.78-12.7l62.18-113.45a13.52,13.52,0,0,1,18.24-5.54Z"/><path class="cls-1" d="M771.14,400.67,709,514.09c-2.74,5.13,1.41,11.41,10.81,16.43s16.94,5,19.66-.11L801.6,417a17.32,17.32,0,0,0-7.08-23.42,17.31,17.31,0,0,0-23.38,7.1Zm6.69,3.62a9.68,9.68,0,0,1,18.22,4.57,9.55,9.55,0,0,1-1.13,4.51l-62,113.16c-1,.33-4.63-.1-9.53-2.72s-7.29-5.41-7.54-6.4l62-113.12,16.69-10.72-16.69,10.72Z"/><path class="cls-2" d="M264.89,513.43l-18.16,41.24a11.17,11.17,0,0,1-20.53-8.83l17.66-40.09,21,7.68Z"/><path class="cls-1" d="M223.59,544.69a14,14,0,1,0,25.76,11.11l18.15-41.22-5.22-2.3-18.16,41.24a8.31,8.31,0,0,1-15.37-.19,8.25,8.25,0,0,1,.07-6.36l17.65-40.07-5.22-2.3-17.66,40.09Z"/><path class="cls-2" d="M590.29,754.29a65.93,65.93,0,1,1-65.94-65.93,65.93,65.93,0,0,1,65.94,65.93Z"/><path class="cls-1" d="M454.62,754.29a69.74,69.74,0,1,0,69.73-69.73,69.81,69.81,0,0,0-69.73,69.73Zm7.61,0a62.13,62.13,0,1,1,62.12,62.12,62.19,62.19,0,0,1-62.12-62.12Z"/><path class="cls-2" d="M730.82,421.74A83.66,83.66,0,0,0,667.4,560L542.73,708A14.28,14.28,0,1,0,565,725.88L690.24,578.59a83.68,83.68,0,1,0,40.58-156.85Z"/><path class="cls-1" d="M643.34,505.41a87.41,87.41,0,0,0,19.16,54.47L539.82,705.56a18,18,0,0,0-4,11.34,19.49,19.49,0,0,0,.11,2A18.07,18.07,0,0,0,568,728.26l123.27-145a87.38,87.38,0,1,0-47.91-77.86Zm27,57,2.09-2.48-2.11-2.46a79.76,79.76,0,1,1,21.8,17.78l-2.73-1.51L562.11,723.42a10.52,10.52,0,0,1-14.8,1.69,10.5,10.5,0,0,1-1.61-14.72c-.06.06,124.61-148,124.61-148Z"/><polygon class="cls-2" points="460.02 317.08 470.23 297.42 483.35 303.74 471.58 324.15 460.02 317.08 460.02 317.08"/><polygon class="cls-2" points="501.22 429.01 501.56 445.39 515.31 448.42 513.82 429.41 501.22 429.01 501.22 429.01"/><polygon class="cls-2" points="278.44 565.87 251.45 574.6 259.15 591.63 286.91 581.47 278.44 565.87 278.44 565.87"/></g></g></svg>