<?xml version="1.0" encoding="utf-8"?>
<!-- Generator: Adobe Illustrator 21.0.0, SVG Export Plug-In . SVG Version: 6.00 Build 0)  -->
<svg version="1.1" id="Réteg_1" xmlns="http://www.w3.org/2000/svg" xmlns:xlink="http://www.w3.org/1999/xlink" x="0px" y="0px"
	 viewBox="-141 0 753 792" enable-background="new -141 0 753 792" xml:space="preserve">
<g>
	<path fill="none" d="M51,353.2L51,353.2c0,5.8-0.1,11.6,0,17.4C50.9,364.8,51,359,51,353.2z"/>
	<path fill="none" d="M49.5,349.7c0.1,0.1,0.3,0.2,0.4,0.2C49.8,349.9,49.7,349.8,49.5,349.7z"/>
	<path fill="none" d="M48.9,349.5c0.1,0,0.2,0.1,0.3,0.1C49,349.6,49,349.5,48.9,349.5z"/>
	<path fill="none" d="M175.4,377.9c-0.6,6.2-4.2,10.5-10.2,12.3c-4.9,1.5-10.1,2.4-15.2,4.3c0,0,0,0,0,0c5.1-1.9,10.2-2.9,15.2-4.3
		C171.1,388.4,174.8,384.1,175.4,377.9c0.5-5.1-0.5-9.6-3.7-13.1C174.9,368.3,175.9,372.8,175.4,377.9z"/>
	<path fill="none" d="M71.3,246c1.6-4.7,4.4-8.4,9.2-10.3c0.8-0.3,1.7-1.3,2-2.1c0.7-1.6,1.1-3.4,1.8-5.5c3.6,3.1,7,6,11.2,9.6
		c0,0,0,0,0,0c-4.2-3.6-7.6-6.5-11.2-9.6c-0.7,2.1-1.1,3.9-1.8,5.5c-0.4,0.9-1.2,1.8-2,2.1C75.6,237.6,72.9,241.3,71.3,246
		c-1,2.9-0.7,5.5,0.6,7.9C70.6,251.5,70.3,248.9,71.3,246z"/>
	<path fill="none" d="M80.3,247.3c5.7-1.6,11.3-3.7,17-5.7c4.3-1.5,7.9,0.4,10.8,3c0.4,0.4,0.8,0.8,1.2,1.3
		c-0.3-0.5-0.7-0.9-1.2-1.3c-2.9-2.7-6.4-4.5-10.8-3C91.6,243.5,86,245.6,80.3,247.3c-1.4,0.4-3.9-0.2-4.8-1.3
		c-0.1-0.1-0.2-0.2-0.2-0.4c0.1,0.2,0.1,0.3,0.2,0.4C76.4,247.1,78.8,247.7,80.3,247.3z"/>
	<path fill="none" d="M26.5,391L26.5,391c-9.5,0-19,0-28.5,0v0C7.5,391,17,391,26.5,391z"/>
	<path fill="none" d="M-12.5,400.2C-12.5,400.2-12.5,400.2-12.5,400.2c-3.9,5.7-7.5,10.8-11.6,16.8c0,0,0,0,0,0
		C-20,411-16.4,405.9-12.5,400.2z"/>
	<path fill="none" d="M510.5,351.5c0,30.4,0,60.8,0,91.2h0C510.5,412.4,510.5,381.9,510.5,351.5
		C510.4,351.5,510.4,351.5,510.5,351.5C510.4,351.5,510.4,351.5,510.5,351.5z"/>
	<path fill="none" d="M2.9,365.4c2.1-2.3,4.1-4,7.7-3.9c3.6,0.1,7.3,0.2,11,0.2c-3.7-0.1-7.3-0.1-11-0.2
		C7.1,361.3,5.1,363.1,2.9,365.4c-4.8,5.2-9.8,10.1-14.6,15.3c-5.9,6.3-11.6,12.6-18.1,19.6c0,0,0,0,0,0c6.4-7,12.2-13.3,18.1-19.6
		C-6.8,375.5-1.8,370.6,2.9,365.4z"/>
	<path fill="none" d="M-40.5,353.2c0.2,0.6,0,1.2,0,1.9C-40.5,354.4-40.3,353.8-40.5,353.2z"/>
	<path fill="none" d="M50,350.1c0.7,0.6,1,1.7,0.9,3.1C51,351.8,50.8,350.7,50,350.1z"/>
	<path fill="none" d="M26.3,361.8c0.2,0,0.4,0,0.6,0C26.6,361.8,26.4,361.8,26.3,361.8z"/>
	<path fill="none" d="M95.3,276.4c-2.6-2.4-5-4.7-7.3-6.9C90.3,271.7,92.7,274,95.3,276.4z"/>
	<path fill="none" d="M89.2,266.1c6.4,1.2,13.1,0.4,16.4-5.1c0.7-1.1,1-3,0.5-4c0,0,0,0,0,0c0.5,1,0.2,2.9-0.5,4
		C102.3,266.5,95.6,267.3,89.2,266.1c-1.4-0.3-2.8-0.3-4.3-0.5c-0.1,0.3-0.2,0.6-0.2,0.8c0,0,0,0,0,0c0.1-0.3,0.2-0.6,0.2-0.8
		C86.4,265.8,87.8,265.9,89.2,266.1z"/>
	<path fill="none" d="M147.8,227.7c-4-9.1-8-18-11.9-27c-1-2.2-1.6-4.8-4.3-5c2.8,0.2,3.3,2.8,4.3,5
		C139.8,209.7,143.8,218.7,147.8,227.7c-0.9,0.6-1.8,1.2-2.7,1.7c0.2,0.4,0.4,0.8,0.5,1.1c0,0,0,0,0,0c-0.2-0.4-0.4-0.8-0.5-1.1
		C146,228.9,146.9,228.3,147.8,227.7z"/>
	<path fill="none" d="M157.3,217.5c-2.9-5.6-4.5-12.8-2.3-15.5C152.8,204.7,154.4,212,157.3,217.5z"/>
	<path fill="none" d="M125.1,214.3c2-0.4,4.9,1.5,6.6,3.2c1.6,1.6,2.9,4.4,1.3,6.6c1.7-2.2,0.4-4.9-1.3-6.6
		C130,215.8,127.1,214,125.1,214.3c-4.9,1-9.3,2.9-12.7,6.4C115.8,217.2,120.2,215.3,125.1,214.3z"/>
	<path fill="none" d="M163.3,222.8L163.3,222.8c-1.1-6.8-4.3-12.2-7.1-18.2C159,210.6,162.2,216,163.3,222.8z"/>
	<path fill="none" d="M179.3,199.5c0,0.9,0.1,1.7,0.3,2.6C179.5,201.2,179.4,200.3,179.3,199.5z"/>
	<path fill="none" d="M157.8,196.1c1.8-1,3.3-1.5,4.7-1.4C161.1,194.6,159.5,195.1,157.8,196.1c-2.6,1.5-4.4,4.3-6.7,6.6
		c0,0,0,0,0,0C153.4,200.4,155.2,197.6,157.8,196.1z"/>
	<path fill="none" d="M130.9,195.7c0.1,0,0.2,0,0.2,0C131.1,195.7,131,195.7,130.9,195.7z"/>
	<path fill="none" d="M179,214.8L179,214.8c-1,0.2-2.1,0.4-3.3,0.6c0,0,0,0,0,0C176.9,215.2,177.9,215,179,214.8z"/>
	<path fill="none" d="M144.6,188.5C144.6,188.5,144.6,188.5,144.6,188.5c-5,2.5-9.7,4.9-14.4,7.3c0,0,0,0,0,0
		C134.9,193.4,139.6,191.1,144.6,188.5z"/>
	<path fill="none" d="M134.7,237.9c3.1-2.9,4.4-7.4,3-11c0,0,0,0,0,0C139,230.5,137.7,235,134.7,237.9z"/>
	<path fill="none" d="M117.2,223.3c2.3,4.6,5.3,9.1,8.5,13.1c1,1.3,4.7,2,5.9,1.2c1.2-0.8,2.1-1.9,3-3.1c-0.9,1.2-1.8,2.3-3,3.1
		c-1.2,0.8-4.9,0.1-5.9-1.2C122.5,232.4,119.6,227.9,117.2,223.3c-0.8-1.5-0.3-3.1,0.8-4.2C116.9,220.2,116.5,221.8,117.2,223.3z"/>
	<path fill="none" d="M132.9,239.3c-1,0.7-1.9,1.4-2.9,2.1C131,240.7,132,240,132.9,239.3z"/>
	<path fill="none" d="M132.6,224.5c0.1-0.1,0.2-0.2,0.2-0.3C132.7,224.3,132.6,224.4,132.6,224.5
		C132.6,224.5,132.6,224.5,132.6,224.5z"/>
	<path fill="none" d="M118.8,218.4c-0.2,0.2-0.5,0.3-0.6,0.5C118.4,218.8,118.6,218.6,118.8,218.4z"/>
	<path fill="none" d="M122.3,220.5c0.3-1,0.5-2,0.9-3.2C122.8,218.5,122.6,219.5,122.3,220.5z"/>
	<path fill="none" d="M131.2,432.3c-0.6,0-1.3,0-2,0C129.9,432.3,130.6,432.3,131.2,432.3z"/>
	<path fill="none" d="M354,411.9c0.5,0.4,1.3,0.9,2.1,1.6c0-12.5,0-23.7,0-34.9c0,0,0,0,0,0c0,11.2,0,22.4,0,34.9
		C355.2,412.8,354.5,412.3,354,411.9z"/>
	<path fill="none" d="M296.4,359.3C296.4,359.3,296.4,359.3,296.4,359.3c2.9,0.5,5.8,0.9,8.6,1.3c0,0,0,0,0,0
		C302.2,360.3,299.3,359.8,296.4,359.3z"/>
	<path fill="none" d="M371.6,384.6C371.6,384.6,371.6,384.6,371.6,384.6c0.3-0.2,0.6-0.5,0.9-0.7c0-8.8,0-17.6,0-26.5c0,0,0,0,0,0
		c0,8.9,0,17.7,0,26.5C372.2,384.2,371.9,384.4,371.6,384.6z"/>
	<path fill="none" d="M337.7,360.5c0,11,0,22.1,0,33.1c0,0,0,0,0,0C337.7,382.5,337.7,371.5,337.7,360.5c5.1-0.5,9.6-0.2,13.5,0.8
		C347.3,360.2,342.8,359.9,337.7,360.5z"/>
	<path fill="none" d="M280.7,432.1c0-24.1,0-47.9,0-72c0,0,0,0,0,0C280.7,384.2,280.7,408,280.7,432.1c2.7,0,5.4,0,8.2,0
		c0.9,2,0.6,2.9-1,3.1c1.6-0.2,1.9-1.1,1-3.1C286.1,432.1,283.4,432.1,280.7,432.1z"/>
	<path fill="none" d="M337.7,397.3c0,11.5,0,23.1,0,34.7c0,0,0,0,0,0C337.7,420.3,337.7,408.8,337.7,397.3c4.4-0.5,8.6,1,11.3,4
		C346.3,398.3,342.1,396.8,337.7,397.3z"/>
	<path fill="none" d="M374.1,405.6c-1.6-0.4-2.6-0.3-3.2,0.4C371.5,405.3,372.4,405.1,374.1,405.6z"/>
	<path fill="none" d="M428.8,351.2c24.7,0.1,49.5,0.1,74.2,0.1C478.2,351.3,453.5,351.3,428.8,351.2z"/>
	<path fill="none" d="M487.2,393.9C487.2,393.9,487.2,393.9,487.2,393.9c0-0.2-0.1-0.4-0.1-0.6c-9.5,0-19,0-28.5,0
		c9.5,0,19,0,28.5,0C487.1,393.5,487.1,393.7,487.2,393.9z"/>
	<path fill="none" d="M458.6,393.3c-0.1-0.3-0.2-0.6-0.2-0.9c0,0,0,0,0,0C458.4,392.7,458.5,393,458.6,393.3z"/>
	<path fill="none" d="M374.1,435c-25.8,0-51.5,0-77.2,0c0,0,0,0,0,0C322.5,435,348.2,435,374.1,435c0-9.9,0-19.6,0-29.4
		C374.1,415.4,374.1,425.1,374.1,435z"/>
	<path fill="none" d="M497.2,364.7C497.2,364.7,497.2,364.7,497.2,364.7c-9-0.9-17.7-0.8-26.4-0.9c-1.9,0-3.5,0-4.9,1.4
		c1.4-1.4,3.1-1.4,4.9-1.4C479.5,363.8,488.2,363.8,497.2,364.7z"/>
	<path fill="none" d="M446.8,429C446.8,429,446.8,429,446.8,429c-1.9-2.1-3.7-4-5.8-6.4c0,0,0,0,0,0
		C443.2,425,444.9,426.8,446.8,429z"/>
	<path fill="none" d="M238.5,393.3c-4.6,13.2-9,26.4-13.7,39.5c-0.4,1-1.9,2.2-3,2.2c0,0,0,0,0,0c1,0,2.6-1.2,3-2.2
		C229.5,419.6,234,406.4,238.5,393.3c3.1-8.8,6.2-17.6,9.6-27.3c0,0,0,0,0,0C244.7,375.6,241.6,384.4,238.5,393.3z"/>
	<path fill="none" d="M87.9,359.3L87.9,359.3c2.9,0.6,5.8,1,8.6,1.5v0C93.7,360.3,90.8,359.8,87.9,359.3z"/>
	<path fill="none" d="M436.3,419.3c-2.1-2.4-3.9-4.5-5.7-6.4c0,0,0,0,0,0C432.4,414.9,434.2,416.9,436.3,419.3
		C436.3,419.3,436.3,419.3,436.3,419.3z"/>
	<path fill="none" d="M141.1,387.6c-0.1,0.2-0.2,0.3-0.2,0.5C140.9,387.9,141,387.8,141.1,387.6z"/>
	<path fill="none" d="M141.8,370.3c-0.1,3.6-0.3,7.2,0,10.8c0.2,1.9,0,3.6-0.3,5.1c0.4-1.5,0.5-3.1,0.3-5.1
		C141.5,377.6,141.7,373.9,141.8,370.3c0.2-7.8-5.5-11.5-12.7-9.5v0C136.3,358.8,142,362.5,141.8,370.3z"/>
	<path fill="none" d="M132.6,395.6c-1.1,0-2.2,0.1-3.4,0.3c0,9,0,18,0,27.2c0-9.2,0-18.2,0-27.2
		C130.4,395.7,131.5,395.6,132.6,395.6z"/>
	<path fill="none" d="M140.3,430.3c-1.3,0.9-3.1,1.4-5.9,1.8C137.2,431.7,139,431.3,140.3,430.3z"/>
	<path fill="none" d="M140.6,388.6c-1.8,3.1-5.6,4.4-11.5,3.7C135,393,138.7,391.7,140.6,388.6z"/>
	<path fill="none" d="M134.4,432.1c0,0-0.1,0-0.2,0C134.3,432.1,134.3,432.1,134.4,432.1z"/>
	<path fill="none" d="M190.8,189c0.5,2.4,1,4.6,1.5,6.8C191.8,193.6,191.3,191.4,190.8,189z"/>
	<path fill="none" d="M183.9,432.5C183.9,432.4,184,432.4,183.9,432.5C184,432.4,183.9,432.4,183.9,432.5z"/>
	<path fill="none" d="M227.3,366.2c2.5,7.5,5.2,15,8.2,23.6l0,0C232.4,381.2,229.8,373.8,227.3,366.2c-3-8.9-3-9-12.1-9
		c-10.6,0-21.2,0-32,0v0c10.8,0,21.4,0,32,0C224.3,357.3,224.3,357.3,227.3,366.2z"/>
	<path fill="none" d="M207.3,433.8c-0.2,0.4-0.3,0.8-0.5,1.1c0,0,0,0,0,0C207,434.6,207.1,434.2,207.3,433.8
		c-0.9-0.5-1.9-1.4-2.9-1.5c-0.6-0.1-1.2-0.1-1.7-0.2c0.5,0.1,1.1,0.2,1.7,0.2C205.4,432.4,206.3,433.3,207.3,433.8z"/>
	<path fill="none" d="M172.4,402.1c6,6.2,6.1,15.9,1.3,23.7c-3,4.9-8.4,6.9-13.8,7.8c-6.1,1-12.3,1.5-18.4,1.6
		c-17.7,0.2-35.5,0.1-53.2,0.1c0,0,0,0,0,0c17.7,0,35.5,0.1,53.2-0.1c6.2-0.1,12.4-0.5,18.4-1.6c5.4-0.9,10.8-2.9,13.8-7.8
		C178.5,418,178.4,408.3,172.4,402.1z"/>
	<path fill="none" d="M286.5,357.3c1.7,0,3.8-0.3,2.6,2.9c0,0,0,0,0,0C290.3,356.9,288.2,357.3,286.5,357.3c-12.2,0-24.5,0-36.7,0
		c-0.8,0-1.4,0.1-1.9,0.3c0.5-0.2,1.1-0.3,1.9-0.3C262,357.3,274.2,357.3,286.5,357.3z"/>
	<path fill="none" d="M201.5,431.9c0.3,0.1,0.6,0.1,0.9,0.2C202,432,201.8,432,201.5,431.9z"/>
	<path fill="none" d="M196.5,395.3c0,9.5,0,19,0,28.5c0,5,1.3,7.2,5,8.1c-3.7-0.9-5-3.2-5-8.1C196.5,414.3,196.5,404.8,196.5,395.3
		c0-9.2,0-18.4,0-27.6c0,0,0,0,0,0C196.5,376.9,196.5,386.1,196.5,395.3z"/>
	<path fill="none" d="M-29.9,426.7c0-5.6,0-10.9,0-16.3c0,0,0,0,0,0C-29.9,415.8-29.9,421.1-29.9,426.7z"/>
	<path fill="none" d="M328.7,221.5c-1.8-0.9-3.6-1.7-5.4-2.6C325.1,219.7,326.9,220.6,328.7,221.5z"/>
	<path fill="none" d="M313.2,199c1.4,0.1,2.7,0.3,3.9,0.7C315.9,199.3,314.6,199.1,313.2,199z"/>
	<path fill="none" d="M325,226.7L325,226.7c-0.7,0.4-1.4,0.7-2.1,0.9C323.6,227.4,324.3,227.1,325,226.7z"/>
	<path fill="none" d="M329.8,234.6c-1.4-0.5-2.5-1-3.7-1.5c0,0,0,0,0,0C327.3,233.6,328.5,234,329.8,234.6
		C329.8,234.6,329.8,234.6,329.8,234.6z"/>
	<path fill="none" d="M343.1,245.3c-0.2,0.3-0.4,0.6-0.5,0.8l0,0C342.7,245.8,342.9,245.6,343.1,245.3c-0.9-0.9-1.8-1.8-2.7-2.6
		c1.9-2.7,3.4-4.8,4.6-6.5c-1.2,1.7-2.7,3.8-4.6,6.5C341.2,243.5,342.2,244.4,343.1,245.3z"/>
	<path fill="none" d="M277.2,190.1c1.1-5.4,2.1-10.4,3.1-15.8c0,0,0,0,0,0C279.3,179.7,278.3,184.7,277.2,190.1L277.2,190.1z"/>
	<path fill="none" d="M311.1,198.9L311.1,198.9c0.2,0,0.5,0,0.7,0C311.6,199,311.3,198.9,311.1,198.9z"/>
	<path fill="none" d="M310.1,223.4c2.1,3.4,5.3,4.3,8.6,4.2C315.4,227.7,312.2,226.8,310.1,223.4c-1.8-2.8-0.3-6.7,2.6-9.6l0,0
		C309.8,216.7,308.3,220.5,310.1,223.4z"/>
	<path fill="none" d="M280.2,191.6c-1,0.4-2.5,0.5-2.8,1.2c-1.1,2.4-1.9,5-2.5,7.6c-0.3,1.5-0.6,3.1-0.9,4.6
		c0.3-1.6,0.6-3.1,0.9-4.6c0.6-2.6,1.4-5.2,2.5-7.6C277.7,192.2,279.2,192,280.2,191.6c0.2,0.8,0.7,1.7,0.7,2.5
		C280.9,193.4,280.4,192.5,280.2,191.6z"/>
	<path fill="none" d="M277.2,210.8c0-0.1,0.1-0.2,0.1-0.3C277.3,210.6,277.3,210.7,277.2,210.8z"/>
	<path fill="none" d="M193.1,186.5c-0.9,0.5-1.7,1.8-2.3,2.4C191.4,188.3,192.1,187.1,193.1,186.5z"/>
	<path fill="none" d="M290.4,212.6c0,0.2,0,0.3,0,0.5C290.3,213,290.3,212.8,290.4,212.6c0.6-4.2,1.7-8.4,2.7-12.5
		c0.1-0.5,0.2-0.9,0.3-1.4c-0.1,0.5-0.1,0.9-0.3,1.4C292.1,204.3,291,208.4,290.4,212.6z"/>
	<path fill="none" d="M275.8,213.9c5.2,1.1,10.8,2.3,16.2,3.4l0,0C286.6,216.2,281,215,275.8,213.9L275.8,213.9z"/>
	<path fill="none" d="M319.3,212.3c1.1-2,2.1-3.8,2.7-5.8c0-0.1,0.1-0.3,0.1-0.4c0,0.1,0,0.3-0.1,0.4
		C321.3,208.5,320.3,210.4,319.3,212.3z"/>
	<path fill="none" d="M318.2,214.4c-1.7-0.8-3.2-1.5-5.1-2.4l0,0C315,212.9,316.5,213.6,318.2,214.4z"/>
	<path fill="none" d="M351.7,227.2c2.8-0.2,5.2-0.5,7.5-0.4c3.1,0.2,7.1,4.4,6.5,7c-0.4,1.6-1.1,3.1-2.3,4.2
		c1.2-1.1,1.9-2.6,2.3-4.2c0.6-2.6-3.4-6.8-6.5-7C356.9,226.7,354.5,227.1,351.7,227.2c1.1-1.6,2-3,3-4.4c-4.6-3.2-9.1-6.4-13.7-9.6
		c0,0,0,0,0,0c4.5,3.2,9.1,6.3,13.7,9.6C353.8,224.3,352.8,225.7,351.7,227.2z"/>
	<path fill="none" d="M28.1,548.8c-1.9-2.5-3.8-4.9-5.6-7.5c-1-1.3-1.9-2.7-2.9-4c0.9,1.3,1.9,2.7,2.9,4
		C24.4,543.9,26.2,546.3,28.1,548.8z"/>
	<path fill="none" d="M54.4,579.3c-4.3-4.2-8.3-8.6-12.2-13.2c-0.6-0.7-1.3-1.5-1.9-2.2c0.6,0.7,1.3,1.5,1.9,2.2
		C46.1,570.7,50.2,575.1,54.4,579.3z"/>
	<path fill="none" d="M75.7,324c-0.7,1.3-1.3,2.3-2.2,3.1C74.4,326.3,75,325.2,75.7,324c4.6-8.8,8.9-17.8,14.3-26
		c3.4-5.2,7.1-10.1,11.1-14.9c-4,4.7-7.7,9.7-11.1,14.9C84.6,306.2,80.3,315.2,75.7,324z"/>
	<path fill="none" d="M-2.1,497.5c1.4,3.4,3,6.8,4.6,10.1C0.9,504.3-0.7,500.9-2.1,497.5c-4-9.6-7.2-19.5-10.5-29.3
		c-0.3-0.9-0.6-1.6-1-2c0.4,0.5,0.7,1.1,1,2C-9.3,478-6.1,487.9-2.1,497.5z"/>
	<path fill="none" d="M416.7,580.8c-7.2,6.9-14.7,13.5-22.6,19.6C402,594.3,409.5,587.7,416.7,580.8z"/>
	<path fill="none" d="M342.9,217c-0.7-0.7-1.3-1.3-1.9-1.9C341.6,215.7,342.2,216.3,342.9,217z"/>
	<path fill="none" d="M177.1,146.7c-20.7,4.8-40.6,12-59.5,21.7c-15.8,8.2-31,17.5-44.5,29.2c-9.6,8.3-19.2,16.6-27.9,25.8
		c-13.1,13.9-24.4,29.2-34,45.8C1.4,286.3-6.6,304.3-12,323.3c-1.1,3.9-2.8,4.8-6.2,4.8c3.4,0,5.1-1,6.2-4.8
		c5.5-19,13.5-37,23.4-54.2c9.6-16.6,20.9-31.9,34-45.8c8.7-9.2,18.3-17.5,27.9-25.8c13.5-11.7,28.7-21.1,44.5-29.2
		C136.5,158.6,156.4,151.4,177.1,146.7c14.3-3.3,28.7-5.8,43.4-6.1c0.6,0,1.1-0.3,1.7-0.5c-0.6,0.2-1.1,0.5-1.7,0.5
		C205.8,140.8,191.4,143.4,177.1,146.7z"/>
	<path fill="none" d="M483.8,474c-7.5,23.9-18.6,46.1-32.7,66.7c-9.7,14.1-21,27-33.4,39c12.4-12,23.7-24.9,33.4-39
		C465.2,520.1,476.3,497.9,483.8,474c0.9-2.8,1.7-5.6,2.7-8.8c0,0,0,0,0,0C485.5,468.4,484.6,471.2,483.8,474z"/>
	<path fill="none" d="M350.2,254.4c6.4,7.2,12.1,13.6,17.9,20.1C362.3,268,356.6,261.6,350.2,254.4L350.2,254.4z"/>
	<path fill="none" d="M364.7,246.8c0-0.4-0.1-0.7-0.1-1.1c0,0,0,0,0,0C364.6,246.1,364.7,246.5,364.7,246.8c5.8-2,10.8-1.6,14.4,3.5
		l0,0C375.6,245.2,370.5,244.8,364.7,246.8z"/>
	<path fill="none" d="M235.8,249L235.8,249c-0.4,0-0.7-0.1-1.1-0.1c0,0,0,0.1,0,0.1c0,0,0-0.1,0-0.1C235,249,235.4,249,235.8,249z"
		/>
	<path fill="none" d="M362.4,265c9.8-1.4,18.9-2.8,28.7-4.2c0,0,0,0,0,0C381.3,262.2,372.2,263.6,362.4,265
		C362.4,265,362.4,265,362.4,265z"/>
	<path fill="none" d="M378.3,271.2C378.3,271.2,378.3,271.2,378.3,271.2c-2.7,2.1-5.3,4.3-7.7,6.2
		C373,275.4,375.7,273.3,378.3,271.2z"/>
	<path fill="none" d="M386.4,203.4c31.6,23.8,55.6,53.2,72.3,88C442,256.7,418,227.2,386.4,203.4c-55.2-41.6-117.8-57.5-186.1-47.8
		c-42,5.9-79,21.7-111.5,46c32.5-24.3,69.5-40.1,111.5-46C268.6,146,331.1,161.9,386.4,203.4z"/>
	<path fill="none" d="M328.1,206.7c-0.6-0.8-1.3-1.5-2.1-2.2c-2.1-1.8-4.3-3.2-6.8-4.2c2.5,1,4.7,2.4,6.8,4.2
		C326.8,205.2,327.5,206,328.1,206.7z"/>
	<path fill="none" d="M197.9,212.6c-0.9,0.2-1.9,0.3-2.8,0.3C196,212.9,196.9,212.8,197.9,212.6z"/>
	<path fill="none" d="M203,184.8c0.8,0.2,1.5,0.5,2.2,0.9C204.5,185.3,203.7,185,203,184.8z"/>
	<path fill="none" d="M209.4,206.7c-0.5,0.6-1.2,1.1-1.8,1.7C208.3,207.8,208.9,207.3,209.4,206.7z"/>
	<path fill="none" d="M205.2,185.7c0.7,0.4,1.4,0.8,2,1.2C206.6,186.5,205.9,186.1,205.2,185.7z"/>
	<path fill="none" d="M184.5,181.7c-0.3-0.5-1.4-1.6-1.8-2.5C183.2,180.1,184.2,181.1,184.5,181.7z"/>
	<path fill="none" d="M189.8,178.1c-0.1,1.4-0.5,2.3-1.3,2.9C189.3,180.4,189.7,179.5,189.8,178.1c0.1-2.2-1.1-3.5-2.5-3.6
		C188.7,174.6,189.9,176,189.8,178.1z"/>
	<path fill="none" d="M199.3,184.1c1.3,0.1,2.5,0.3,3.7,0.7C201.8,184.4,200.6,184.2,199.3,184.1z"/>
	<path fill="none" d="M186.8,211.3c-0.8-0.4-1.6-0.9-2.4-1.5C185.1,210.3,185.9,210.8,186.8,211.3z"/>
	<path fill="none" d="M199.9,212.1c1.4-0.4,2.8-0.9,4.2-1.6c1.3-0.6,2.5-1.4,3.5-2.2c-1,0.8-2.2,1.5-3.5,2.2
		C202.7,211.2,201.3,211.7,199.9,212.1z"/>
	<path fill="none" d="M193.1,186.5c0,0,0.1,0,0.1,0C193.2,186.5,193.2,186.5,193.1,186.5z"/>
	<path fill="none" d="M197.4,189.7c0.9,5.4,2.1,10.8,3.4,16.1c0.5,2.3,0.5,4.4-2.1,5.1c-0.3,0.1-0.6,0.1-0.9,0.1
		c0.3,0,0.6,0,0.9-0.1c2.6-0.6,2.7-2.7,2.1-5.1C199.5,200.5,198.3,195.1,197.4,189.7c-0.4-2.1-1.2-3.5-3-3.5
		C196.2,186.2,197,187.6,197.4,189.7z"/>
	<path fill="none" d="M180.9,205.6c-0.4-0.7-0.7-1.5-0.9-2.3C180.2,204.1,180.5,204.9,180.9,205.6z"/>
	<path fill="none" d="M189.4,212.3c1.8,0.5,3.7,0.7,5.7,0.6C193.1,213,191.2,212.8,189.4,212.3z"/>
	<path fill="none" d="M194.8,179.2c-1.4-0.6-2-1.9-1.7-3c0.4-1.6,2.3-3.3,4-3.9c0.1,0,0.2,0,0.3,0c-0.1,0-0.2,0-0.3,0
		c-1.6,0.6-3.5,2.3-4,3.9C192.7,177.4,193.3,178.7,194.8,179.2z"/>
	<path fill="none" d="M272.7,213.2c-5-1.1-10.6-2.3-16.2-3.5c0,0,0,0,0,0C262.1,210.9,267.7,212.1,272.7,213.2z"/>
	<path fill="none" d="M238.5,189c-0.1,5.6,0.6,11.2-0.2,16.6C239,200.2,238.4,194.6,238.5,189z"/>
	<path fill="none" d="M232.5,186.9c0-0.2,0.1-0.4,0.1-0.7C232.5,186.4,232.5,186.6,232.5,186.9L232.5,186.9z"/>
	<path fill="none" d="M251.2,206.8c0-3.8,0.1-7.6,0.1-11.3C251.3,199.3,251.2,203,251.2,206.8L251.2,206.8z"/>
	<path fill="none" d="M237.8,208.4C237.8,208.4,237.8,208.4,237.8,208.4c5.2,0,10.7,0,16.2,0c0-0.2,0.1-0.4,0.1-0.6l0,0
		c0,0.2-0.1,0.4-0.1,0.6C248.5,208.4,243,208.4,237.8,208.4z"/>
	<path fill="none" d="M198.3,179.2c1.2-0.5,1.9-1.7,1.9-4C200.2,177.5,199.5,178.6,198.3,179.2z"/>
	<path fill="none" d="M233.1,181.8C233.1,181.8,233.1,181.8,233.1,181.8c0,0.1,0,0.2,0,0.4C233.1,182,233.1,181.9,233.1,181.8z"/>
	<path fill="none" d="M237.5,185.6c-1.2,1.1-3.2,2-3.4,3.2c-0.6,5.5-0.7,11.1-0.8,16.7l0,0c0.1-5.6,0.2-11.1,0.8-16.7
		C234.3,187.7,236.3,186.7,237.5,185.6c0.4,0.3,0.7,0.5,1.1,0.8c0,0,0,0,0,0C238.2,186.2,237.8,185.9,237.5,185.6z"/>
	<path fill="none" d="M264.3,172.9C264.3,172.9,264.3,172.9,264.3,172.9c1.4,0.2,2.2,0.6,2.5,1.4
		C266.6,173.5,265.7,173.1,264.3,172.9z"/>
	<path fill="none" d="M196.4,179.5L196.4,179.5c-0.1,0-0.1,0-0.2,0C196.3,179.5,196.3,179.5,196.4,179.5z"/>
	<path fill="none" d="M195.5,179.5C195.5,179.4,195.5,179.4,195.5,179.5C195.5,179.4,195.5,179.4,195.5,179.5z"/>
	<path fill="none" d="M198.1,179.2C198.1,179.2,198.1,179.2,198.1,179.2C198.1,179.2,198.1,179.2,198.1,179.2z"/>
	<path fill="none" d="M217.8,207.7c5.6,0,11.1,0,17,0c0,0,0,0,0,0C228.9,207.7,223.3,207.7,217.8,207.7c0-0.2-0.1-0.4-0.1-0.6
		c0,0,0,0,0,0C217.7,207.2,217.7,207.4,217.8,207.7z"/>
	<path fill="none" d="M219.8,183.1c0.5,1.2,1,2.2,1.1,3.2c0,0.1,0,0.2,0,0.3c0-0.1,0-0.2,0-0.3C220.7,185.2,220.3,184.3,219.8,183.1
		z"/>
	<path fill="none" d="M220.5,198.3c0,2.6,0,5.2,0,7.8l0,0C220.5,203.5,220.5,200.9,220.5,198.3z"/>
	<path fill="none" d="M317.3,199.7c0.6,0.2,1.1,0.4,1.7,0.6C318.4,200,317.8,199.9,317.3,199.7z"/>
	<path fill="none" d="M243.7,592.9C243.7,592.9,243.7,592.9,243.7,592.9c0.3-4.3,0.5-7.6,0.7-9.8l0,0
		C244.3,585.3,244,588.6,243.7,592.9z"/>
	<path fill="none" d="M172,570.4C172,570.4,172,570.4,172,570.4c1.5,0.3,2.8,0.6,4,0.8c0,0,0,0,0,0C174.8,571,173.6,570.8,172,570.4
		z"/>
	<path fill="none" d="M209.2,605.8c-4,6.7-12,9.3-19.6,7.4c-8.9-2.2-17.7-4.4-26.6-6.6l0,0c8.9,2.2,17.8,4.3,26.6,6.6
		C197.1,615.1,205.2,612.5,209.2,605.8c5.2-8.7,5.6-18.6-0.5-25.1C214.8,587.2,214.4,597.1,209.2,605.8z"/>
	<path fill="none" d="M224.5,582.2c-0.2,1.4,0.6,3.6,1.7,4.4c4.8,3.4,9.9,6.4,14.7,9.7c4.5,3.1,6.1,8.1,4.5,13.2
		c-0.7,2.1-1.7,3.9-3.1,5.4c1.3-1.5,2.4-3.3,3.1-5.4c1.6-5,0-10.1-4.5-13.2c-4.8-3.3-9.9-6.3-14.7-9.7
		C225.1,585.8,224.2,583.6,224.5,582.2c0-0.2,0.2-0.5,0.5-0.8C224.7,581.7,224.5,582,224.5,582.2z"/>
	<path fill="none" d="M254,618.1L254,618.1c0.1,0,0.1-0.1,0.2-0.1C254.1,618,254,618.1,254,618.1z"/>
	<path fill="none" d="M472.3,465.5C472.3,465.5,472.3,465.5,472.3,465.5c-23.6,87-107.6,164.7-212.8,173.7
		c-63.1,5.4-120.7-10.3-171.5-48.2c-10-7.5-19.3-15.5-27.9-24.1c8.6,8.6,17.9,16.6,27.9,24.1c50.8,37.9,108.4,53.6,171.5,48.2
		C364.7,630.3,448.8,552.5,472.3,465.5z"/>
	<path fill="none" d="M225.9,577.8c3.1,0.4,6.2,1.3,9.3,1.6c2,0.2,4-0.2,6-0.4c0.7-0.1,1.8-0.7,2.1-0.4c4.4,4.6,8.6-0.2,12.8-0.4
		c3.5-0.2,6.8-1.8,10.3-2.6c1.3-0.3,2.8,0,4.2,0c0,0.3,0,0.6,0,1c0,0,0,0,0,0c0-0.3,0-0.6,0-1c-1.4,0-2.8-0.3-4.2,0
		c-3.4,0.8-6.8,2.4-10.3,2.6c-4.2,0.2-8.4,5.1-12.8,0.4c-0.3-0.3-1.4,0.3-2.1,0.4c-2,0.2-4.1,0.6-6,0.4
		C232.1,579.1,229.1,578.2,225.9,577.8c-2.5-0.3-5.3,0.9-7.6,3.1C220.6,578.8,223.4,577.5,225.9,577.8z"/>
	<path fill="none" d="M192,605.4c-0.4,1.7-0.8,2.8-1.4,3.5C191.2,608.2,191.6,607.1,192,605.4c1.8-7.3,3.6-14.7,5.3-22
		c0.3-1.3,0.6-2.4,0.6-3.2c-0.1,0.8-0.3,1.8-0.6,3.2C195.6,590.7,193.8,598.1,192,605.4z"/>
	<path fill="none" d="M274.5,611.8c-1.1-4.4-2.2-8.8-3.3-13.4c0,0,0,0,0,0C272.4,602.9,273.4,607.4,274.5,611.8c1.5,0,2.8,0,5.3,0
		c0,0,0,0,0,0C277.4,611.8,276,611.8,274.5,611.8z"/>
	<path fill="none" d="M279.7,611.3c1.1-0.6,2.3-1.1,2.9-1.5c0,0,0,0,0,0C282,610.2,280.8,610.8,279.7,611.3L279.7,611.3z"/>
	<path fill="none" d="M257.3,616.3c-0.4,0.3-0.9,0.4-1.6,0.5c-0.2,0-0.5,0.2-0.7,0.3c0.2-0.2,0.4-0.3,0.7-0.3
		C256.4,616.8,256.9,616.6,257.3,616.3z"/>
	<path fill="none" d="M291.9,571.3C291.9,571.3,291.9,571.3,291.9,571.3c-2.6-1.7-15.4,1-18.4,3.9
		C276.5,572.3,289.3,569.7,291.9,571.3z"/>
	<path fill="none" d="M270.2,594.5C270.2,594.4,270.2,594.4,270.2,594.5c-1.5-5.8-2.8-11-4.1-16.3c0,0,0,0,0,0
		C267.4,583.4,268.8,588.6,270.2,594.5z"/>
	<path fill="none" d="M279.8,583.6c5.2,5.1,10.4,10.3,15.6,15.5c1.2,1.2,2.2,2.7,3.3,4c1.2,1.3,2.2,3.1,4.5,1.8
		c0.6-0.3,1.7,0.4,2.5,1c0,0,0,0,0,0c-0.9-0.7-2-1.4-2.5-1c-2.4,1.3-3.4-0.5-4.5-1.8c-1.1-1.3-2.1-2.7-3.3-4
		C290.2,593.9,285,588.8,279.8,583.6c1.5-3.2,3-6.2,5.2-8.5C282.8,577.4,281.3,580.5,279.8,583.6z"/>
	<path fill="none" d="M216.7,607.1c2.4,4.3,5.6,7.6,10.4,9.2c1.4,0.4,3,0.7,4.3,0.4c0.9-0.2,2.1-0.8,2.7-1.4
		c-0.6,0.7-1.8,1.3-2.7,1.4c-1.4,0.3-3,0-4.3-0.4C222.3,614.7,219.1,611.4,216.7,607.1c-0.8-1.4-1.8-2.7-2.6-4
		c-0.4,0.1-0.8,0.3-1.1,0.4c0,0,0,0,0,0c0.4-0.1,0.8-0.3,1.1-0.4C214.9,604.4,215.9,605.7,216.7,607.1z"/>
	<path fill="none" d="M285.8,574.4c-0.1,0.1-0.1,0.1-0.2,0.2C285.7,574.5,285.7,574.4,285.8,574.4z"/>
	<path fill="none" d="M-18.2,328.1c3.4,0,5.1-1,6.2-4.8c5.5-19,13.5-37,23.4-54.2c9.6-16.6,20.9-31.9,34-45.8
		c8.7-9.2,18.3-17.5,27.9-25.8c13.5-11.7,28.7-21.1,44.5-29.2c18.9-9.8,38.8-17,59.5-21.7c14.3-3.3,28.7-5.8,43.4-6.1
		c0.6,0,1.1-0.3,1.7-0.5c0.2-0.1,0.4-0.2,0.6-0.2c-95.3,0-190.5,0-285.8,0c0,63,0,126,0,189c1.4-0.2,2.9-0.7,4.3-0.7
		c13.1-0.1,26.3-0.2,39.4,0.1c0.1,0,0.2,0,0.3,0C-18.7,328.1-18.5,328.1-18.2,328.1z"/>
	<path fill="none" d="M193.4,649.6c-11.5-2.1-23.1-4.4-34.3-7.9c-18.3-5.8-36-13.3-52.7-23.1c-17.2-10.1-33-21.8-47.6-35.2
		c-1.5-1.3-2.9-2.7-4.3-4.1c-4.3-4.2-8.3-8.6-12.2-13.2c-0.6-0.7-1.3-1.5-1.9-2.2c-4.2-5-8.2-10-12.2-15.1c-1.9-2.5-3.8-4.9-5.6-7.5
		c-1-1.3-1.9-2.7-2.9-4c-6.6-9.4-12.3-19.4-17.2-29.7c-1.6-3.3-3.1-6.7-4.6-10.1c-4-9.6-7.2-19.5-10.5-29.3c-0.3-0.9-0.6-1.6-1-2
		c-0.6-0.7-1.4-1-2.7-1c-15.5,0.1-31.1,0.1-46.6,0.1v0c0,0,0,0,0,0c0,62.8,0,125.5,0,188.3c95.4,0,190.6,0,285.7,0
		c-0.4-0.3-0.7-0.7-1.1-0.7C212.2,651.7,202.7,651.2,193.4,649.6z"/>
	<path fill="none" d="M249.8,139.7c0.5,0.3,1,0.7,1.5,0.8c7.7,0.8,15.5,1,23.1,2.4c11.8,2.1,23.6,4.5,35.1,7.5
		c21.9,5.8,42.4,15.3,61.7,27c13,7.8,25.1,16.7,36.4,26.9c13.7,12.3,26.6,25.3,37.5,40.1c10.8,14.6,20.5,29.9,27.5,46.8
		c5,12,9.6,24.2,14.7,36.9c0.4,0,1.8,0,3.1,0c13.1,0,26.2,0,39.3,0.1c1.4,0,2.8,0.9,4.2,1.4c0-63.3,0-126.5,0-189.8
		C439.3,139.7,344.5,139.7,249.8,139.7z"/>
	<path fill="none" d="M534,466c-1.2-0.3-2.4-0.7-3.5-0.8c-8.9-0.1-17.8,0-26.8,0c-5.8,0-11.7,0-17.3,0c-1,3.2-1.8,6-2.7,8.8
		c-7.5,23.9-18.6,46.1-32.7,66.7c-9.7,14.2-21,27-33.4,39c-0.1,0.1-0.1,0.1-0.2,0.2c-0.3,0.3-0.6,0.5-0.8,0.8
		c-7.2,6.9-14.7,13.5-22.6,19.6c-5.7,4.3-11.5,8.4-17.7,12.1c-12.6,7.5-25.6,14.5-39,20.6c-14.1,6.5-29,10.8-44.3,14.1
		c-13.4,2.9-26.8,5.2-40.5,5.6c-1,0-2,0.5-3,0.8c94.7,0,189.5,0,284.2,0C534,590.9,534,528.5,534,466C534,466,534,466,534,466
		L534,466z"/>
	<path fill="none" d="M279.9,611.8c0-0.2-0.1-0.3-0.1-0.5c0,0,0,0,0,0l0,0c1.1-0.6,2.3-1.1,2.9-1.5c-3.6-3.6-7.4-7.4-11.4-11.5
		c1.1,4.6,2.2,9,3.3,13.4C276,611.8,277.4,611.8,279.9,611.8z"/>
	<path fill="none" d="M88.1,591c50.8,37.9,108.4,53.6,171.5,48.2c105.2-8.9,189.2-86.7,212.8-173.7c-0.3-0.1-0.7-0.3-1-0.3
		c-27.4,0-54.7-0.1-82.1,0c-1,0-2.4,1.1-2.9,2.1c-2.7,4.8-5,9.8-7.7,14.6c-10.3,18.4-24.2,33.7-40.3,47.1
		c-13,10.8-27.5,19.1-43.2,25.6c-17.9,7.3-36.5,11.4-55.7,12.5c-13.1,0.8-26.2-0.4-39.1-2.9c-21-4-40.6-11.6-58.8-23
		c-11-6.9-21-15.1-30.4-24c-5.2-4.9-9.6-10.7-14.1-16.2c-8.9-10.9-15.8-23-21.9-35.8c-18.6,0-37.3,0-56.2,0c-6.3,0-12.6,0-19,0
		c12.1,39.6,32.2,73.5,60.2,101.6C68.8,575.5,78.1,583.6,88.1,591z M218.4,580.9c2.3-2.1,5.1-3.4,7.6-3.1c3.1,0.4,6.2,1.3,9.3,1.6
		c2,0.2,4-0.2,6-0.4c0.7-0.1,1.8-0.7,2.1-0.4c4.4,4.6,8.6-0.2,12.8-0.4c3.5-0.2,6.8-1.8,10.3-2.6c1.3-0.3,2.8,0,4.2,0
		c0,0.3,0,0.6,0,1c0,0,0,0,0,0l0,0c-1.4,0.5-2.9,1-4.5,1.6c1.3,5.3,2.6,10.5,4.1,16.3c3.3-5.5,6.4-10.6,9.5-15.7
		c1.4-2.3,0.6-3.4-2.1-3.3c-1.3,0-2.7,0-4.4,0c0.1-0.1,0.2-0.2,0.3-0.3c3-2.9,15.8-5.5,18.4-3.9c0,0,0,0,0,0c0,0,0,0,0,0
		c-2.5,0.6-4.5,1.6-6.1,3.1c-0.1,0.1-0.1,0.1-0.2,0.2c-0.2,0.2-0.4,0.3-0.5,0.5c-2.2,2.3-3.7,5.3-5.2,8.5
		c5.2,5.1,10.4,10.3,15.6,15.5c1.2,1.2,2.2,2.7,3.3,4c1.2,1.3,2.2,3.1,4.5,1.8c0.6-0.3,1.7,0.4,2.5,1c0,0,0,0,0,0c0,0,0,0,0,0
		c-8.5,2.8-17,5.3-25.7,6.8c-0.1-0.3-0.2-0.5-0.2-0.8c-1.3,1-1.7,1.6-2.3,1.8c-6.7,1.8-13.5,3.5-20.2,5.2c-0.4,0.1-0.8,0.2-1.1,0.1
		c-0.8-0.2-1.5-0.5-2.3-0.8c0,0,0,0,0,0l0,0c0.1,0,0.1-0.1,0.2-0.1c0.3-0.3,0.6-0.6,0.9-0.8c0.2-0.2,0.4-0.3,0.7-0.3
		c0.7-0.1,1.3-0.3,1.6-0.5c0.6-0.4,0.8-1.2,0.5-2.4c-2.5-9.8-4.9-19.7-7.3-29.5c-0.2-0.8-0.8-1.5-1.2-2.1c-1.5,0.3-2.8,0.5-4.9,0.8
		c-0.2,2.2-0.4,5.5-0.7,9.8c0,0,0,0,0,0c0,0,0,0,0,0c-3-3.8-5-7.2-7.7-9.6c-2.1-1.8-5.1-2.6-7.9-3.2c-0.8-0.2-2.4,0.6-3.1,1.3
		c-0.3,0.3-0.4,0.5-0.5,0.8c-0.2,1.4,0.6,3.6,1.7,4.4c4.8,3.4,9.9,6.4,14.7,9.7c4.5,3.1,6.1,8.1,4.5,13.2c-0.7,2.1-1.7,3.9-3.1,5.4
		c-2.2,2.5-5.3,4-8.6,4.1c-4.1,0.2-7.9-0.6-11.9-2c-2.4-0.9-5.7,0.6-9,1.1c0-4.5,0-9.5,0-14.6c0,0,0,0,0,0c0,0,0,0,0,0
		c0.4-0.1,0.8-0.3,1.1-0.4c0.9,1.3,1.9,2.6,2.6,4c2.4,4.3,5.6,7.6,10.4,9.2c1.4,0.4,3,0.7,4.3,0.4c0.9-0.2,2.1-0.8,2.7-1.4
		c0.2-0.2,0.3-0.4,0.4-0.7c0.3-1.2-0.2-3.2-1.1-3.9c-3.2-2.4-6.7-4.4-10.1-6.5c-4.2-2.5-7.6-5.6-9.1-10.6
		C212.8,589,215,584,218.4,580.9z M167.6,604.8c2.7-10.9,5.5-22.1,8.4-33.6c-1.2-0.3-2.5-0.5-4-0.8c0,0,0,0,0,0c0,0,0,0,0,0
		c0.1-0.6,0.2-1.4,0.3-2.4c8,2.2,15.9,4.7,24,6.3c5.5,1.1,9.6,3.4,12.4,6.3c6.1,6.5,5.7,16.4,0.5,25.1c-4,6.7-12,9.3-19.6,7.4
		c-8.9-2.2-17.7-4.4-26.6-6.6l0,0l0,0c0-0.4-0.1-0.8-0.1-1.3C164.3,605.2,165.8,605.1,167.6,604.8z"/>
	<path fill="none" d="M520.3,341.7c-190,0-379.8,0-569.6,0c0,37,0,73.8,0,110.7c189.9,0,379.6,0,569.6,0
		C520.3,415.3,520.3,378.5,520.3,341.7z M51,353.2c0,5.8-0.1,11.6,0,17.4s0,11.6,0,17.4c0,17.5,0,35,0,52.9c-30.7,0-61,0-91.8,0
		c0.1-1.8,0.3-3.8,0.3-5.7c0-26.7,0-53.5,0-80.2c0,0,0,0,0,0c0-0.6,0.1-1.3,0-1.9c-1-3.1,0.7-3.4,3.2-3.4c5.7,0,11.5,0.1,17.2,0.1
		c5.7,0,11.5,0,17.2,0c17-0.1,33.9-0.2,50.9-0.3c0.3,0,0.6,0,0.8,0.1c0.1,0,0.2,0.1,0.3,0.1c0.1,0,0.3,0.1,0.4,0.1
		c0.1,0.1,0.3,0.2,0.4,0.2c0,0,0.1,0.1,0.1,0.1C50.8,350.7,51,351.8,51,353.2C51,353.2,51,353.2,51,353.2L51,353.2L51,353.2z
		 M173.7,425.8c-3,4.9-8.4,6.9-13.8,7.8c-6.1,1-12.3,1.5-18.4,1.6c-17.7,0.2-35.5,0.1-53.2,0.1c0,0,0,0,0,0s0,0,0,0
		c-0.2-0.4-0.4-0.9-0.6-1.3c0.2-0.4,0.5-0.8,0.8-1c0.1-0.1,0.3-0.2,0.5-0.3c2.1-1.2,5.2,0.6,7.5-0.8c0-23.4,0-47.2,0-71.1
		c-2.8-0.5-5.7-0.9-8.6-1.5l0,0l0,0c-0.1,0,0-1.1,0-2c2.3,0,4.3,0,6.2,0c18.1,0,36.2-0.2,54.4,0.1c6.6,0.1,13.2,0.8,19.2,4.3
		c1.6,0.9,2.9,2,4,3.1c3.2,3.5,4.2,8,3.7,13.1c-0.6,6.2-4.2,10.5-10.2,12.3c-4.9,1.5-10.1,2.4-15.2,4.3c3.5,0.6,7,1.2,10.5,1.8
		c5.2,0.9,9.2,3,11.9,5.8C178.4,408.3,178.5,418,173.7,425.8z M287.9,435.2c-0.2,0-0.5,0-0.8,0c-15.7,0-31.5,0-47.5,0
		c0-2.1,0-2.1,8.5-3.3c0-21.6,0-43.3,0-65.9c-3.4,9.7-6.5,18.5-9.6,27.3c-4.6,13.2-9,26.4-13.7,39.5c-0.4,1-1.9,2.2-3,2.2
		c0,0,0,0,0,0s0,0,0,0c-1,0-2.5-1.3-2.8-2.3c-7.1-20.7-14-41.5-21-62.2c-0.3-1-0.7-2-1.6-2.8c0,9.2,0,18.4,0,27.6c0,9.5,0,19,0,28.5
		c0,5,1.3,7.2,5,8.1c0,0,0,0,0,0c0.3,0.1,0.6,0.1,0.9,0.2c0.1,0,0.2,0,0.4,0.1c0.5,0.1,1.1,0.2,1.7,0.2c1,0.1,1.9,1,2.9,1.5
		c-0.2,0.4-0.3,0.8-0.5,1.1c0,0,0,0,0,0v0c-8.1,0-16.1,0-24.2,0c-0.2-0.3-0.4-0.5-0.6-0.8c0.6-0.5,1.2-1.4,1.9-1.7c0,0,0,0,0.1,0
		c0.1,0,0.1-0.1,0.2-0.1c7.2-1,8.6-2.5,8.6-9.7c0-20.6,0-41.2,0-62c-3.3-0.4-6.5-0.8-9.6-1.4c-0.1,0,0-1.1,0-2c0,0,0,0,0,0v0
		c10.8,0,21.4,0,32,0c9.2,0,9.1,0,12.1,9c2.5,7.5,5.2,15,8.2,23.6c1.5-4.1,2.8-7.2,3.8-10.3c2.3-6.6,4.6-13.2,6.7-19.8
		c0.4-1.3,1-2,1.8-2.3c0.5-0.2,1.1-0.3,1.9-0.3c12.2,0.1,24.5,0,36.7,0c1.7,0,3.8-0.3,2.6,2.9c0,0,0,0,0,0l0,0c-2.6,0-5.4,0-8.3,0
		c0,24.1,0,47.9,0,72c2.7,0,5.4,0,8.2,0C289.8,434.1,289.5,435,287.9,435.2z M296.9,435C296.9,435,296.9,435,296.9,435
		C296.9,435,296.9,435,296.9,435c-0.4-2.4-0.4-2.4,8.1-2.9c0-23.8,0-47.5,0-71.5c-2.8-0.4-5.7-0.8-8.6-1.3c0,0,0,0,0,0s0,0,0,0
		c-0.1,0,0-1.1,0-1.9c25.4,0,50.6,0,76.1,0v0c0,0,0,0,0,0c0,8.9,0,17.7,0,26.5c-0.3,0.2-0.6,0.5-0.9,0.7c0,0,0,0,0,0c0,0,0,0,0,0
		c-0.9-1.1-2.1-2-2.5-3.2c-2.2-6.5-4.8-12.6-10.6-16.8c-2.1-1.5-4.5-2.6-7.2-3.3c-3.9-1.1-8.4-1.4-13.5-0.8c0,11,0,22.1,0,33.1
		c7.6,1.7,13.9-4.9,14.8-11.3c0.5-3.4,0.7-3.7,3.5-3.7c0,0,0,0,0,0c0,0,0,0,0,0c0,11.2,0,22.4,0,34.9c-0.8-0.7-1.6-1.2-2.1-1.6
		c-0.3-0.3-0.5-0.5-0.7-0.8c-1-2.2-1.4-4.7-2.4-6.9c-0.5-1.1-1.1-2-1.9-2.9c-2.7-3-6.9-4.5-11.3-4c0,11.5,0,23.1,0,34.7
		c8.6,1.2,16.5,0.1,22.8-6c4.9-4.8,7.7-11,9.3-17.7c0.3-1.1,0.6-1.9,1.1-2.4c0.7-0.7,1.6-0.8,3.2-0.4c0,9.8,0,19.5,0,29.4
		C348.2,435,322.5,435,296.9,435z M510.5,442.8L510.5,442.8c-30.2,0-60.5,0-91.2,0c0-9.4,0-18.4,0-27.3c0-3,0-5.9,0-8.9
		c0-17.1,0-34.2,0-51.3c0-0.1,0-0.3,0-0.4c0-0.4,0-0.8,0.1-1.2c0-0.4,0.1-0.7,0.2-1c0.4-0.9,1.2-1.4,3-1.4c2.1,0,4.1,0,6.2,0
		c24.7,0.1,49.5,0.1,74.2,0.1c2.1,0,4.1,0,6.2,0c0.3,0,0.7,0.1,1.3,0.2c0,0,0,0,0.1,0C510.5,381.9,510.5,412.4,510.5,442.8z"/>
	<path fill="none" d="M52.7,234.1c-20.4,21.7-51.2,75.5-52,93.9c23,0,46-0.1,69,0.1c1.7,0,2.9-0.4,3.8-1.1c0.9-0.7,1.5-1.8,2.2-3.1
		c4.6-8.8,8.9-17.8,14.3-26c3.4-5.2,7.1-10.2,11.1-14.9c4.6-5.5,9.7-10.6,15.2-15.3c6.7-5.8,13.4-11.8,20.7-16.7
		c0.4-0.3,0.9-0.6,1.3-0.9v-0.3h0.5c14.3-9.4,29.7-16.5,46.3-21.1c13.7-3.8,27.6-6,41.8-6.4c5.7-0.1,11.4,0.1,17.1,0.8
		c8.8,1,17.6,2,26.2,3.8c13.2,2.8,25.9,7.6,37.8,13.8c5.5,2.8,10.9,5.9,16.1,9.2h1.4v0.9c5.7,3.7,11,7.9,16,12.6
		c7.8,7.5,15.8,14.8,22.7,23.1c9.8,11.7,17.6,24.8,23.6,38.8c1,2.4,2.6,2.8,4.9,2.8c25.5-0.1,51,0,76.5,0c0.9,0,1.7,0,3.1,0
		c0.2,0,0.4,0,0.6,0c-4-12.8-8.7-25-14.3-36.6c-16.7-34.8-40.6-64.2-72.3-88c-55.2-41.6-117.8-57.5-186.1-47.8
		c-42,5.9-79,21.7-111.5,46C76.1,211.2,64.1,222.1,52.7,234.1z M391.1,260.8L391.1,260.8C391.1,260.8,391.1,260.8,391.1,260.8
		c-9.8,1.4-19,2.8-28.7,4.2c4.5,5.9,10,6.5,16,6.2c0,0,0,0,0,0c0,0,0,0,0,0c-2.7,2.1-5.3,4.3-7.7,6.2c-0.8-0.9-1.7-1.9-2.5-2.8
		c-5.8-6.5-11.5-12.9-17.9-20.1l0,0l0,0c10-1.4,19.4-2.7,28.9-4.1c-3.5-5.2-8.6-5.5-14.4-3.5c0-0.4-0.1-0.7-0.1-1.1c0,0,0,0,0,0v0
		c2.4-2.1,4.9-4.2,7.4-6.3C378.2,246.4,384.3,253.1,391.1,260.8z M341.1,213.3L341.1,213.3C341.1,213.3,341.1,213.3,341.1,213.3
		c4.5,3.2,9.1,6.3,13.7,9.6c-1,1.4-1.9,2.8-3,4.4c2.8-0.2,5.2-0.5,7.5-0.4c3.1,0.2,7.1,4.4,6.5,7c-0.4,1.6-1.1,3.1-2.3,4.2
		c-1.2,1.1-2.7,1.7-4.7,1.5c-4.2-0.6-6.6-4.4-5-8.4c0.2-0.5,0.2-1.2,0.3-1.8c-3.7,0.6-5.3,1.8-9.1,6.9c-1.2,1.7-2.7,3.8-4.6,6.5
		c0.9,0.8,1.8,1.7,2.7,2.6c-0.2,0.3-0.4,0.6-0.5,0.8l0,0c0,0,0,0,0,0c-6.5-2.6-11-8.4-17-11.9c0.2-0.4,0.4-0.8,0.5-1.1c0,0,0,0,0,0
		s0,0,0,0c1.2,0.5,2.3,0.9,3.7,1.5c4.3-5.7,8.7-11.6,13.1-17.5c-0.7-0.7-1.3-1.3-1.9-1.9c-0.3-0.3-0.6-0.6-0.9-0.9
		C340.5,213.9,340.8,213.6,341.1,213.3z M300.3,205.5c2.2-3.9,5.7-6.4,10.8-6.5h0h0c0.2,0,0.5,0,0.7,0c0.5,0,1,0,1.5,0
		c1.4,0.1,2.7,0.3,3.9,0.7c0,0,0.1,0,0.1,0c0.6,0.2,1.1,0.4,1.7,0.6c0.1,0,0.1,0,0.2,0.1c2.5,1,4.7,2.4,6.8,4.2
		c0.8,0.7,1.5,1.5,2.1,2.2c2.8,3.6,3.1,7.8,1.6,12.3c-0.3,0.8-0.6,1.6-0.9,2.4c-1.8-0.9-3.6-1.7-5.4-2.6c-3.6-1.7-7.1-3.4-10.6-5.1
		c-2.9,2.9-4.4,6.8-2.6,9.6c2.1,3.4,5.3,4.3,8.6,4.2c2-0.1,4.2-0.4,6.2-0.8c0,0,0,0,0,0l0,0c-0.7,0.4-1.4,0.7-2.1,0.9
		c-4.9,1.7-9.6,0.5-14-1.9c-3.2-1.7-6.1-4.5-8.4-7.4C297.3,214.4,298,209.5,300.3,205.5z M256.5,209.7c0-0.3,0.1-0.7,0.1-1
		c1.1,0,2.2,0,3.3,0c2.3-10.8,4.5-21.6,6.9-32.3c0.2-0.9,0.2-1.6,0-2.1c-0.3-0.8-1.2-1.2-2.5-1.4c0,0,0,0,0,0c0,0,0,0,0,0
		c5.5-1.1,10.6,1.5,16,1.5c0,0,0,0,0,0s0,0,0,0c-1,5.3-2,10.4-3.1,15.8c2.5-0.9,4.2-1.9,6.1-2.2c6.7-1.1,11,3.8,10,10.8
		c-0.1,0.5-0.1,0.9-0.3,1.4c-1,4.2-2,8.3-2.7,12.5c0,0.2,0,0.3,0,0.5c0.1,1.2,1.1,2.6,1.6,4.2l0,0l0,0c-5.4-1.2-11-2.3-16.2-3.4l0,0
		l0,0c0.5-1.2,1.1-2.1,1.4-3.1c0-0.1,0.1-0.2,0.1-0.3c0.1-0.2,0.2-0.5,0.2-0.7c1.2-5.1,2.3-10.2,3.3-15.4c0-0.1,0-0.2,0-0.3
		c0-0.8-0.5-1.7-0.7-2.5c-1,0.4-2.5,0.5-2.8,1.2c-1.1,2.4-1.9,5-2.5,7.6c-0.3,1.5-0.6,3.1-0.9,4.6c-0.5,2.6-0.9,5.3-1.4,8.2
		C267.7,212.1,262.1,210.9,256.5,209.7C256.5,209.7,256.5,209.7,256.5,209.7C256.5,209.7,256.5,209.7,256.5,209.7z M217.6,207
		c0.9-0.3,1.9-0.6,2.9-0.9c0-2.6,0-5.2,0-7.8c0-2.6,0-5.1,0-7.7c0-1.4,0.4-2.8,0.3-4.2c0-0.1,0-0.2,0-0.3c-0.1-1-0.6-1.9-1.1-3.2
		c-0.2-0.4-0.4-0.8-0.5-1.3c0.5,0,1,0,1.5,0c3.7,0,7.8,0,12.3,0c0,0,0,0,0,0c0,0,0,0,0,0c0,0.1,0,0.2,0,0.4c-0.1,1-0.3,2.3-0.5,4.1
		c0,0.2-0.1,0.4-0.1,0.7c1.2-1,1.8-1.4,2.3-2c2.8-3,9.5-4.6,12.8-2.3c1.8,1.2,3.3,4,3.4,6.3c0.2,2.2,0.2,4.5,0.3,6.7
		c0,3.7-0.1,7.5-0.1,11.3c1.1,0.3,2,0.6,2.9,0.9c0,0,0,0,0,0l0,0c0,0.2-0.1,0.4-0.1,0.6c-5.5,0-11,0-16.2,0c0,0,0,0,0,0c0,0,0,0,0,0
		c0.2-0.9,0.4-1.8,0.5-2.8c0.8-5.5,0.1-11.1,0.2-16.6c0-0.9,0-1.7,0.1-2.6c-0.4-0.3-0.7-0.5-1.1-0.8c-1.2,1.1-3.2,2-3.4,3.2
		c-0.6,5.5-0.7,11.1-0.8,16.7c0,0.6,0.8,1.3,1.4,2.1h0c0,0,0,0,0,0c-5.8,0-11.4,0-17,0C217.7,207.4,217.7,207.2,217.6,207
		C217.6,207,217.6,207,217.6,207C217.6,207,217.6,207,217.6,207z M193,176.2c0.4-1.6,2.3-3.3,4-3.9c0.1,0,0.2,0,0.3,0
		c0.6,0.1,1.5,1,2.2,1.6c0.3,0.3,0.5,0.5,0.7,0.6c0,0.2,0,0.5,0,0.7c0,2.3-0.7,3.5-1.9,4c0,0-0.1,0-0.1,0.1c0,0,0,0,0,0
		c-0.5,0.2-1,0.3-1.7,0.3c0,0,0,0,0,0h0c-0.1,0-0.1,0-0.2,0c-0.2,0-0.5,0-0.7,0c0,0-0.1,0-0.1,0c-0.2,0-0.5-0.1-0.7-0.2
		C193.3,178.7,192.7,177.4,193,176.2z M182.5,178.3c0.7-1.6,2.5-3.4,4.1-3.8c0.2,0,0.4-0.1,0.6,0c1.4,0.1,2.6,1.5,2.5,3.6
		c-0.1,1.4-0.5,2.3-1.3,2.9c-0.8,0.6-2.1,0.8-3.9,0.7c-0.3-0.5-1.4-1.6-1.8-2.5C182.5,178.8,182.4,178.5,182.5,178.3z M179.7,195.7
		c0.1-0.4,0.2-0.8,0.3-1.2c0.5-1.6,1.3-3.1,2.5-4.3c0.3-0.3,0.6-0.6,0.9-0.9c3.6-3,9.7-5.2,14.6-5.2c0.4,0,0.9,0,1.3,0
		c1.3,0.1,2.5,0.3,3.7,0.7c0.8,0.2,1.5,0.5,2.2,0.9c0.7,0.4,1.4,0.8,2,1.2c2.5,1.8,4.3,4.4,5,7.5c1.1,5,0.2,9.1-2.8,12.3
		c-0.5,0.6-1.2,1.1-1.8,1.7c-1,0.8-2.2,1.5-3.5,2.2c-1.4,0.7-2.8,1.2-4.2,1.6c-0.7,0.2-1.4,0.4-2.1,0.5c-0.9,0.2-1.9,0.3-2.8,0.3
		c-2,0.1-3.9-0.1-5.7-0.6c-0.9-0.3-1.8-0.6-2.6-1c-0.8-0.4-1.6-0.9-2.4-1.5c-0.8-0.6-1.5-1.3-2.1-2.1c-0.5-0.6-1-1.3-1.4-2
		c-0.4-0.7-0.7-1.5-0.9-2.3c-0.1-0.4-0.2-0.8-0.3-1.2c-0.2-0.8-0.3-1.7-0.3-2.6C179.3,198.2,179.4,196.9,179.7,195.7z M144.6,188.5
		C144.6,188.5,144.6,188.5,144.6,188.5C144.6,188.5,144.6,188.5,144.6,188.5c2.2,4.9,4.5,9.9,6.5,14.2c2.3-2.3,4.1-5.1,6.7-6.6
		c1.8-1,3.3-1.5,4.7-1.4c2.3,0.1,4.1,1.8,5.7,4.9c2.6,5.2,5,10.6,7.4,15.8c1.3-0.2,2.3-0.4,3.3-0.6l0,0c0,0,0,0,0,0
		c0,0.3,0.1,0.6,0.1,0.9c-5.4,2.4-10.8,4.9-15.8,7.1c0,0,0,0,0,0l0,0c-1.1-6.8-4.3-12.2-7.1-18.2c-0.4-0.9-0.8-1.7-1.2-2.6
		c-2.2,2.7-0.6,10,2.3,15.5c1.3,2.5,3,4.7,4.6,6c-5.6,2.4-10.9,4.8-16.3,7.1c0,0,0,0,0,0c0,0,0,0,0,0c-0.2-0.4-0.4-0.8-0.5-1.1
		c0.9-0.6,1.8-1.2,2.7-1.7c-4-9.1-8-18-11.9-27c-1-2.2-1.6-4.8-4.3-5c-0.1,0-0.3,0-0.4,0c-0.1,0-0.2,0-0.2,0c-0.2,0-0.5,0-0.7,0.1
		l0,0c0,0,0,0,0,0C134.9,193.4,139.6,191.1,144.6,188.5z M108.9,225.7c1-1.9,2.1-3.6,3.5-4.9c3.4-3.5,7.8-5.4,12.7-6.4
		c2-0.4,4.9,1.5,6.6,3.2c1.6,1.6,2.9,4.4,1.3,6.6c0,0.1-0.1,0.1-0.1,0.1c-0.1,0.1-0.2,0.2-0.2,0.3c0,0,0,0,0,0c0,0,0,0,0,0
		c-1.5,1.5-4.1,2.6-6.3,2.8c-3,0.3-5-3.2-4.1-6.2c0.1-0.2,0.1-0.4,0.2-0.6c0.3-1,0.5-2,0.9-3.2c-1.1-0.1-2.1,0.1-2.9,0.4
		c-0.5,0.2-1,0.4-1.4,0.7c-0.2,0.2-0.5,0.3-0.6,0.5c0,0-0.1,0.1-0.1,0.1c-1.1,1.1-1.6,2.7-0.8,4.2c2.3,4.6,5.3,9.1,8.5,13.1
		c1,1.3,4.7,2,5.9,1.2c1.2-0.8,2.1-1.9,3-3.1c0.9-1.2,1.7-2.5,2.5-3.8c0.5-0.8,0.2-2,0.4-3.8c0,0,0,0,0,0c0,0,0,0,0,0
		c1.4,3.6,0.1,8.1-3,11c-0.2,0.2-0.4,0.4-0.6,0.6c-0.4,0.3-0.7,0.6-1.1,0.8c-1,0.7-1.9,1.4-2.9,2.1c-1.4,0.9-2.8,1.7-4.3,2.4
		c-4.8,2.2-11.1,0.7-14.6-3.1C107.2,236.5,106.4,230.7,108.9,225.7z M71.3,246c1.6-4.7,4.4-8.4,9.2-10.3c0.8-0.3,1.7-1.3,2-2.1
		c0.7-1.6,1.1-3.4,1.8-5.5c3.6,3.1,7,6,11.2,9.6c0,0,0,0,0,0c0,0,0,0,0,0c-2.1,0-3.4,0-4.7,0c-3.5,0.1-7.1-0.1-10.5,0.4
		c-1.6,0.3-3.4,1.8-4.3,3.2c-0.7,1.1-1.2,3.2-0.8,4.3c0.1,0.2,0.1,0.3,0.2,0.4c0.9,1.1,3.4,1.7,4.8,1.3c5.7-1.6,11.3-3.7,17-5.7
		c4.3-1.5,7.9,0.4,10.8,3c0.4,0.4,0.8,0.9,1.2,1.3c2.4,3.2,2.6,7.1,1.2,11c-1.9,5.2-5.6,8.9-10.8,11.1c-0.9,0.4-1.7,1.5-2.1,2.4
		c-0.8,1.8-1.4,3.8-2.2,6c-2.6-2.4-5-4.7-7.3-6.9c-1.1-1-2.2-2-3.3-3.1l0,0c0,0,0,0,0,0c0.1-0.3,0.2-0.6,0.2-0.8
		c1.4,0.2,2.9,0.2,4.3,0.5c6.4,1.2,13.1,0.4,16.4-5.1c0.7-1.1,1-3,0.5-4c-0.5-1-2.6-1.9-3.7-1.7c-4.1,1-8.2,2.3-12.1,3.8
		c-7.5,2.8-12.3,2.6-16.9-2.9c-0.6-0.8-1.2-1.5-1.6-2.3C70.6,251.5,70.3,248.9,71.3,246z"/>
	<path fill="none" d="M235.7,249.9c0-0.3,0-0.6,0-0.9c-0.4,0-0.7-0.1-1.1-0.1c0,0,0,0.1,0,0.1c0,0.3,0,0.6-0.1,0.9H235.7z"/>
	<path fill="none" d="M190.6,608.9c0.6-0.7,1-1.8,1.4-3.5c1.8-7.3,3.6-14.7,5.3-22c0.3-1.3,0.6-2.4,0.6-3.2c0.2-2.2-0.7-2.9-4.1-4.5
		c-0.3-0.2-0.7-0.3-1-0.5c-2.9,11.6-5.8,23-8.6,34.4C187.8,610.1,189.5,610.1,190.6,608.9z"/>
	<path fill="none" d="M143.2,422c0.4-4.7,0.1-9.5,0.1-14.2c0-8.3-3.4-12.3-10.7-12.2c-1.1,0-2.2,0.1-3.4,0.3c0,9,0,18,0,27.2
		c0,3.1,0,6.1,0,9.3c0.8,0,1.4,0,2,0c0.6,0,1.2,0,1.7-0.1c0.5-0.1,0.9-0.1,1.3-0.2c0,0,0.1,0,0.2,0c0,0,0,0,0.1,0
		c2.8-0.4,4.6-0.8,5.9-1.8C142.2,429,142.8,426.5,143.2,422z"/>
	<path fill="none" d="M140.6,388.6c0.1-0.2,0.2-0.3,0.2-0.5c0.1-0.2,0.2-0.3,0.2-0.5c0.2-0.4,0.3-0.9,0.4-1.4
		c0.4-1.5,0.5-3.1,0.3-5.1c-0.3-3.6-0.1-7.2,0-10.8c0.2-7.8-5.5-11.5-12.7-9.5c0,7.8,0,15.6,0,23.5c0,2.6,0,5.3,0,8
		C135,393,138.7,391.7,140.6,388.6z"/>
	<path fill="none" d="M-36.7,437.3c28.1,0,55.9,0,83.7,0c0-28,0-55.8,0-83.6c-28,0-55.8,0-83.7,0C-36.7,381.6-36.7,409.3-36.7,437.3
		z M-29.9,410.4c1.9,2.1,3.7,4.2,5.8,6.6c4.1-6,7.7-11.1,11.6-16.8c-5.8,0-11.1,0-17.2,0l0,0c0,0,0,0,0,0c6.4-7,12.2-13.3,18.1-19.6
		c4.8-5.1,9.8-10.1,14.6-15.3c2.1-2.3,4.1-4,7.7-3.9c3.6,0.1,7.3,0.2,11,0.2c1.5,0,3.1,0.1,4.7,0.1c0.2,0,0.4,0,0.6,0
		c3.3,0.1,6.6,0.3,10,0.6c-13,9.3-26,18.5-39,27.8c0.1,0.3,0.2,0.5,0.3,0.8c9.5,0,19,0,28.5,0v0c0,0,0,0,0,0
		c0.1,0.2,0.1,0.5,0.2,0.7c-15.3,9.5-30.6,19-46.2,28.6c2.1,2.3,3.8,4.2,5.8,6.4c-1.3,0-2.7,0-4,0c-4,0-8,0-12.2,0
		C-29.9,421.1-29.9,415.8-29.9,410.4C-29.9,410.4-29.9,410.4-29.9,410.4C-29.9,410.4-29.9,410.4-29.9,410.4z"/>
	<path fill="none" d="M423.2,438.8c28,0,55.8,0,83.6,0c0-28,0-55.8,0-83.7c-27.9,0-55.6,0-83.6,0C423.2,383.3,423.2,411,423.2,438.8
		z M440.1,392.3c5.8-6,11.7-11.9,17.5-18c2.6-2.7,5.4-5.4,7.7-8.4c0.2-0.3,0.4-0.5,0.6-0.7c1.4-1.4,3.1-1.4,4.9-1.4
		c8.7,0,17.4,0,26.4,0.9c0,0,0,0,0,0l0,0c-13,9.2-25.9,18.5-38.9,27.7c0.1,0.3,0.2,0.6,0.2,0.9c9.5,0,19,0,28.5,0
		c0,0.2,0.1,0.4,0.1,0.6c0,0,0,0,0,0c0,0,0,0,0,0c-15.3,9.5-30.6,19-46.2,28.6c2.2,2.4,3.9,4.3,5.8,6.4c0,0,0,0,0,0c0,0,0,0,0,0
		c-5.5,0-10.7,0-16.2,0c0-5.5,0-10.9,0-16.1c0,0,0,0,0,0c0,0,0,0,0,0c1.7,2,3.5,4,5.7,6.4c4.2-6,7.7-11.1,11.5-16.6
		c-5.6,0-10.8,0-17.2,0C434.3,398.7,437.1,395.4,440.1,392.3z"/>
	<path fill="none" d="M194.8,207.5c0.4,1.9,1.2,3.6,3,3.5c0.3,0,0.6,0,0.9-0.1c2.6-0.6,2.7-2.7,2.1-5.1c-1.3-5.3-2.5-10.7-3.4-16.1
		c-0.4-2.1-1.2-3.5-3-3.5c-0.3,0-0.5,0-0.8,0.1c-0.1,0-0.2,0.1-0.3,0.1c0,0-0.1,0-0.1,0c0,0,0,0-0.1,0c-0.9,0.5-1.7,1.8-2.3,2.4
		c0.5,2.4,1,4.6,1.5,6.8C193.1,199.9,194,203.7,194.8,207.5z"/>
	<path fill="none" d="M319.3,212.3c1.1-2,2.1-3.8,2.7-5.8c0-0.1,0.1-0.3,0.1-0.4c0-1-0.7-2.5-1.4-3.1c-0.7-0.5-2.9,0-3.4,0.7
		c-1.6,2.5-2.8,5.4-4.2,8.2c1.9,0.9,3.4,1.6,5.1,2.4C318.6,213.7,318.9,213,319.3,212.3z"/>
	<g>
		<path d="M529.8,328.1c-13.1-0.1-26.2-0.1-39.3-0.1c-1.4,0-2.7,0-3.1,0c-5-12.7-9.7-24.8-14.7-36.9c-7-16.9-16.8-32.2-27.5-46.8
			c-10.9-14.8-23.8-27.9-37.5-40.1c-11.3-10.1-23.5-19.1-36.4-26.9c-19.4-11.6-39.8-21.2-61.7-27c-11.6-3.1-23.3-5.4-35.1-7.5
			c-7.6-1.3-15.4-1.6-23.1-2.4c-0.5-0.1-1-0.5-1.5-0.8c-9,0-18,0-27,0c-0.2,0.1-0.4,0.1-0.6,0.2c-0.6,0.2-1.1,0.5-1.7,0.5
			c-14.7,0.3-29.1,2.9-43.4,6.1c-20.7,4.8-40.6,12-59.5,21.7c-15.8,8.2-31,17.5-44.5,29.2c-9.6,8.3-19.2,16.6-27.9,25.8
			c-13.1,13.9-24.4,29.2-34,45.8C1.4,286.3-6.6,304.3-12,323.3c-1.1,3.9-2.8,4.8-6.2,4.8c-0.2,0-0.5,0-0.7,0c-0.1,0-0.2,0-0.3,0
			c-13.1-0.3-26.3-0.1-39.4-0.1c-1.4,0-2.9,0.4-4.3,0.7c0,45.5,0,91,0,136.5v0c15.5,0,31.1,0,46.6-0.1c1.3,0,2.1,0.3,2.7,1
			c0.4,0.5,0.7,1.1,1,2c3.3,9.8,6.5,19.8,10.5,29.3c1.4,3.4,3,6.8,4.6,10.1c4.9,10.4,10.6,20.3,17.2,29.7c0.9,1.3,1.9,2.7,2.9,4
			c1.8,2.5,3.7,5,5.6,7.5c4,5.1,8,10.2,12.2,15.1c0.6,0.7,1.3,1.5,1.9,2.2c3.9,4.5,7.9,9,12.2,13.2c1.4,1.4,2.9,2.8,4.3,4.1
			c14.6,13.4,30.5,25.1,47.6,35.2c16.7,9.8,34.4,17.3,52.7,23.1c11.2,3.5,22.7,5.8,34.3,7.9c9.3,1.7,18.8,2.1,28.3,3.2
			c0.4,0,0.7,0.5,1.1,0.7c0,0,0,0,0,0c9,0,18,0,27,0c0,0,0,0,0,0c1-0.3,2-0.7,3-0.8c13.7-0.5,27.1-2.8,40.5-5.6
			c15.2-3.3,30.2-7.6,44.3-14.1c13.3-6.1,26.4-13.1,39-20.6c6.2-3.7,12-7.7,17.7-12.1c7.9-6,15.3-12.7,22.6-19.6
			c0.3-0.3,0.6-0.5,0.8-0.8c0.1-0.1,0.1-0.1,0.2-0.2c12.4-12,23.7-24.9,33.4-39c14.1-20.6,25.2-42.8,32.7-66.7
			c0.9-2.8,1.7-5.6,2.7-8.8c0,0,0,0,0,0c5.6,0,11.4,0,17.3,0c8.9,0,17.8,0,26.8,0c1.2,0,2.4,0.5,3.5,0.8v0c0-45.5,0-91,0-136.5
			C532.6,329,531.2,328.1,529.8,328.1z M200.3,155.7c68.3-9.7,130.9,6.2,186.1,47.8c31.6,23.8,55.6,53.2,72.3,88
			c5.6,11.6,10.3,23.8,14.3,36.6c-0.2,0-0.4,0-0.6,0c-1.4,0-2.3,0-3.1,0c-25.5,0-51,0-76.5,0c-2.4,0-3.9-0.4-4.9-2.8
			c-6-14.1-13.8-27.2-23.6-38.8c-6.9-8.2-14.9-15.6-22.7-23.1c-4.9-4.7-10.3-8.9-16-12.6v-0.9h-1.4c-5.2-3.3-10.6-6.4-16.1-9.2
			c-12-6.2-24.6-11-37.8-13.8c-8.6-1.8-17.4-2.8-26.2-3.8c-5.7-0.6-11.4-0.9-17.1-0.8c-14.2,0.4-28.1,2.6-41.8,6.4
			c-16.6,4.6-32,11.7-46.3,21.1h-0.5v0.3c-0.4,0.3-0.9,0.6-1.3,0.9c-7.3,4.9-14,10.9-20.7,16.7c-5.5,4.7-10.5,9.8-15.2,15.3
			c-4,4.7-7.7,9.7-11.1,14.9c-5.4,8.3-9.7,17.3-14.3,26c-0.7,1.3-1.3,2.3-2.2,3.1c-0.9,0.7-2,1.1-3.8,1.1c-23-0.2-46-0.1-69-0.1
			c0.8-18.4,31.6-72.2,52-93.9c11.4-12.1,23.4-22.9,36.1-32.5C121.3,177.3,158.3,161.6,200.3,155.7z M291,289.3
			c-1.4-0.8-2.4-1.3-3.4-1.9l0,0c-0.7-0.3-1.4-0.7-2.2-1.1c0,0,0,0,0,0c-0.1,0-0.1-0.1-0.2-0.1c0.4-1.7,0.5-2.5,0.9-4.2
			c-2.5-1.2-3.7-1.8-6.3-2.9c-1,1.3-1.6,2-2.5,3.3c0,0,0,0,0,0c0,0.1-0.1,0.1-0.1,0.2c-0.2-0.1-0.4-0.1-0.5-0.2c0,0,0,0,0,0
			c-2-0.8-3.2-1.3-5.5-2c6-8.5,9.3-12.6,16.4-20.4c0,0,0,0,0,0c0-0.1,0.1-0.1,0.1-0.1c3.2,1.3,4.7,2,7.8,3.6
			c-0.7,6-1.3,10.3-2.1,14.7c0,0,0,0,0,0C292.8,281.4,292,284.9,291,289.3z M274.7,260.6c-2-0.6-3.3-1-4.9-1.5c0,0,0,0,0,0
			c-0.7-0.2-1.4-0.4-2.2-0.6c-0.1,0.3-0.2,0.7-0.2,0.9l0,0c-0.3,1.2-0.5,2.1-0.9,3.5c2.4,0.6,3.6,1,6,1.7c-0.6,2-0.9,3-1.6,5
			c-1.3-0.4-2.3-0.7-3.3-1c0,0,0,0,0,0c-0.7-0.2-1.5-0.4-2.4-0.7c-0.2,0.9-0.4,1.5-0.6,2.2c0,0,0,0,0,0c-0.2,0.7-0.4,1.4-0.6,2.3
			c2.6,0.7,3.9,1.1,6.5,1.9c-0.5,1.5-0.8,2.4-1.2,3.6c0,0,0,0,0,0c-0.1,0.5-0.3,0.9-0.5,1.5c-0.1,0-0.2-0.1-0.3-0.1c0,0,0,0,0,0
			c-0.9-0.3-1.7-0.5-2.5-0.8c0,0,0,0,0,0c-3.2-1-5.6-1.5-9.5-2.3c2-9.7,3-14.7,5-24.3c0-0.1,0-0.2,0.1-0.3c6,1.2,9,2,14.8,3.9
			C275.7,257.6,275.4,258.6,274.7,260.6z M252.6,252.2c1.8,1.7,2.5,3.7,2.1,6c-0.2,1.2-0.8,2.3-1.6,3.3c-0.9,1-2,1.7-3.4,2.1
			c1.6,4.8,2.2,7.2,3.4,12c-1.2-0.2-2.1-0.4-2.9-0.5l0,0c-1.1-0.2-2.1-0.3-3.5-0.5c-1.5-4.8-2.3-7.2-4.1-11.9c0,0-0.1,0-0.1,0
			c-0.1,1.2-0.2,2.2-0.2,3.1c-0.2,2.8-0.4,4.9-0.6,8.3c-0.3,0-0.6,0-0.9-0.1c-1.9-0.1-3.1-0.2-5.3-0.2c0.2-9.7,0.3-14.7,0.5-24h-1.1
			c0-0.3,0-0.6,0.1-0.9c0,0,0-0.1,0-0.1c0.4,0,0.7,0.1,1.1,0.1c0-0.1,0-0.2,0-0.3c3.5,0.1,5.3,0.2,8.8,0.5c1.4,0.1,2.6,0.3,3.7,0.7
			C250,250.4,251.5,251.2,252.6,252.2z M224.9,250.7C224.9,250.7,224.9,250.7,224.9,250.7c0.6,0.3,1.1,0.6,1.6,0.9c0,0,0,0,0,0
			c0.2,0.1,0.3,0.2,0.5,0.3c2.6,2,3.8,5.1,3.8,9.1c0,3.1-0.5,5.5-1.5,7.4c-0.2,0.4-0.5,0.8-0.7,1.2l0,0c-0.9,1.3-2.1,2.4-3.5,3.1
			c-1.8,1-3.8,1.6-6,1.8c-2.4,0.3-3.6,0.5-6,0.9c-1.3-7.7-2.1-12.5-3.2-18.9c0,0,0,0,0,0c-0.3-1.8-0.6-3.7-1-5.9
			c0.2,0,0.4-0.1,0.6-0.1c1.6-0.3,2.7-0.4,4.1-0.6c0,0,0,0,0,0c0.3,0,0.7-0.1,1.1-0.1c0.4,0,0.8-0.1,1.2-0.2
			c2.4-0.3,4.5-0.2,6.4,0.2C223.2,250.1,224.1,250.4,224.9,250.7z M177.5,287.7L177.5,287.7c-0.6,0.3-1.3,0.7-2.1,1.2
			c-2.1-3.6-3.1-5.5-5.1-9.1c-1.5,0.9-2.5,1.4-3.7,2.2c-0.5,0.3-1,0.6-1.6,1c2.2,3.5,3.3,5.3,5.6,8.8c-2.2,1.4-3.2,2.1-5.3,3.6
			c-4.9-6.8-7.7-10.8-11.9-16.7c0,0,0,0,0,0c-0.8-1.2-1.7-2.4-2.7-3.8c1.3-0.9,2.3-1.6,3.3-2.3c1-0.6,1.9-1.3,3.2-2.1
			c2,3.2,3,4.7,5,7.9c0.9-0.5,1.6-1,2.2-1.4c1-0.6,2-1.2,3.3-1.9c-1.8-3.2-2.7-4.9-4.6-8.1c1.7-1,2.9-1.6,4.2-2.3l0,0
			c0.7-0.3,1.4-0.7,2.2-1.1c0,0,0,0,0,0c0.2-0.1,0.3-0.1,0.5-0.2c4.5,9,6.7,13.5,11.1,22.5c-0.5,0.2-0.9,0.4-1.3,0.7
			C178.9,287,178.2,287.3,177.5,287.7z M186.6,283.3c-0.1,0-0.2,0.1-0.3,0.1c-3.9-9-5.9-13.6-9.7-22.3c0,0,0,0,0,0
			c-0.1-0.2-0.2-0.5-0.3-0.7c2.6-1.1,4.7-2,6.7-2.7c2.2-0.8,4.4-1.5,7.2-2.4c0,0,0,0,0,0c0.2-0.1,0.4-0.1,0.6-0.2c0,0,0,0,0,0
			c0,0,0,0,0,0c0.6,2,0.9,3,1.6,5.1c-2.9,0.9-4.3,1.4-7.1,2.4c0.6,1.7,1,2.6,1.6,4.3c2.4-0.9,3.5-1.3,5.9-2l0,0c0,0,0,0,0,0
			c0.1,0.3,0.2,0.6,0.3,0.9l0,0c0.4,1.4,0.8,2.4,1.3,4c-2.3,0.7-3.4,1.1-5.7,2c0.6,1.7,1,2.6,1.6,4.3c2-0.7,3.2-1.2,4.9-1.7
			c0,0,0,0,0,0c0.5-0.1,0.9-0.3,1.5-0.5c0.4,1.3,0.7,2.1,1,3.1l0,0c0.2,0.6,0.4,1.2,0.6,2c-3.7,1.1-5.9,1.9-8.8,3.1c0,0,0,0,0,0
			C188.6,282.5,187.7,282.8,186.6,283.3z M138.3,284.6c0.7-0.6,1.4-1.2,2.1-1.8l0,0c1.8-1.6,3.8-3.1,6.3-5c1.4,1.8,2.1,2.7,3.5,4.6
			c-1.2,0.9-2,1.5-2.9,2.3l0,0c-0.4,0.3-0.8,0.6-1.2,1c4.9,6,7.4,9,12.3,15c-2,1.7-3.1,2.6-5,4.4c-5.3-5.7-7.9-8.5-13.2-14.2
			c-0.8,0.7-1.3,1.2-1.9,1.8c-0.6,0.6-1.2,1.1-1.9,1.9c-1.6-1.6-2.4-2.4-4.1-4.1C134.6,288,136.4,286.2,138.3,284.6z M315.4,308.1
			c-1.9-1.9-2.8-2.8-4.8-4.5c4.1-5.6,6.1-8.5,10-14.2c-5,3.3-7.8,5.4-11.9,8.5c0,0,0,0,0,0c-0.8,0.6-1.6,1.3-2.5,2
			c-1.4-1.1-2.1-1.7-3.5-2.7c2.8-6.6,4.1-9.9,6.5-16.7c-4.6,5.3-6.8,7.9-11.2,13.3c-1.2-0.8-2-1.3-2.9-1.9c0,0,0,0,0,0
			c-0.5-0.3-1.1-0.7-1.7-1.1c0,0,0,0,0,0c-0.2-0.1-0.3-0.2-0.5-0.3c1-1.3,2-2.5,2.9-3.7c0,0,0,0,0,0c1.3-1.6,2.4-3.1,3.6-4.5l0,0
			c2.7-3.4,5.3-6.4,8.9-10.6c0,0,0,0,0,0c0.2-0.3,0.4-0.5,0.7-0.8c1.7,1.1,2.9,1.9,4.1,2.7c0,0,0,0,0,0c1.2,0.8,2.4,1.7,4,2.9
			c-2.1,5.2-4.1,9.5-5.9,13.1c1.2-1,1.8-1.6,3-2.6c0.8-0.7,1.7-1.4,2.5-2c0,0,0,0,0,0c0.4-0.3,0.7-0.5,1.1-0.8
			c1.9-1.4,2.8-2.1,4.7-3.4c1.1,0.9,2,1.7,2.9,2.4c1.6,1.3,2.9,2.6,4.9,4.4c-1.8,2.7-3.4,5-4.9,7.1
			C322.3,299,319.6,302.6,315.4,308.1z M259.6,639.2c-63.1,5.4-120.7-10.3-171.5-48.2c-10-7.5-19.3-15.5-27.9-24.1
			c-28-28.1-48.1-62-60.2-101.6c6.4,0,12.7,0,19,0c18.9,0,37.6,0,56.2,0c6.1,12.8,13,24.9,21.9,35.8c4.5,5.5,8.9,11.3,14.1,16.2
			c9.3,8.9,19.3,17.1,30.4,24c18.2,11.4,37.7,19,58.8,23c13,2.5,26,3.6,39.1,2.9c19.2-1.1,37.8-5.2,55.7-12.5
			c15.7-6.4,30.2-14.8,43.2-25.6c16.1-13.3,30-28.7,40.3-47.1c2.7-4.8,5-9.8,7.7-14.6c0.5-1,1.9-2.1,2.9-2.1
			c27.4-0.1,54.7-0.1,82.1,0c0.3,0,0.7,0.2,1,0.3c0,0,0,0,0,0C448.8,552.5,364.7,630.3,259.6,639.2z M193.1,519.2
			c0.2-0.2,0.3-0.3,0.4-0.4l0,0c1.2-1.2,1.9-1.9,3.2-3.2c3.4,3.4,5.5,5,9.2,7.1l0,0c0.3,0.2,0.6,0.3,0.9,0.5c-1,1.8-1.5,2.7-2.5,4.6
			c-0.2-0.1-0.3-0.2-0.4-0.2l0,0c-1.1-0.6-1.8-1-3-1.8c-2.8,4.3-4.6,7-6.9,10.5c0,0,0,0,0,0c-0.8,1.2-1.7,2.6-2.7,4.1
			c-2.7-1.8-4-2.7-6.5-4.9c4.5-5.4,6.8-8,11.4-13.4C194.8,520.9,194.2,520.4,193.1,519.2z M252.4,528.2c1.7,2.1,3.3,3.9,4.7,5.5
			c-0.5-1.4-0.7-2-1.2-3.4c-0.5-1.3-0.9-2.6-1.3-3.9c-0.7-2-1-3-1.8-4.9c2.3-1.5,3.4-2.3,5.4-4.1c2,1.8,3.7,3.3,5.3,4.6c0,0,0,0,0,0
			c3.9,3.3,7.3,5.9,12.7,9.6c-2.3,2.3-3.5,3.4-6,5.3c-1.9-1.8-3.3-3.3-4.7-4.7c0,0,0,0,0,0c-2-2-3.8-3.9-6.3-6.6
			c2.5,5.9,3.6,9,5.3,15.4c-1.5,0.9-2.3,1.4-3.6,2.1c0,0,0,0,0,0c-0.3,0.2-0.6,0.3-1,0.5c-0.6-0.6-1.1-1.1-1.6-1.6c0,0,0,0,0,0
			c-3.6-3.6-5.7-6.1-9.2-10.6c1.5,4.5,2.3,7.4,3.4,11.2c0,0,0,0,0,0c0.3,1.2,0.7,2.5,1.1,4c-2.7,1.1-4.1,1.6-6.9,2.3
			c0-0.4-0.1-0.7-0.1-1.1c0,0,0,0,0,0c-1-8.4-1.8-13-3.7-21.5c2.4-0.8,3.6-1.3,6-2.5C250.1,525.3,251.3,526.8,252.4,528.2
			C252.4,528.2,252.4,528.2,252.4,528.2C252.4,528.2,252.4,528.2,252.4,528.2C252.4,528.2,252.4,528.2,252.4,528.2z M244.2,549.6
			c-3.1,0.7-4.7,1-7.8,1.4c-0.7-1.5-1-2.2-1.6-3.6c-2,0.2-3.4,0.3-5,0.3h0c-0.8,0-1.6,0-2.6,0c-0.1,0.4-0.3,0.7-0.4,1l0,0
			c-0.3,0.9-0.6,1.6-1,2.7c-3.1-0.1-4.6-0.3-7.7-0.8c0.5-0.9,1-1.7,1.4-2.5l0,0c1.2-2,2.1-3.9,3-5.7c0.6-1.2,1.1-2.4,1.6-3.6
			c0,0,0,0,0,0c1.2-3,2.2-6.1,3.4-10.2c1.9,0,3,0,4.6-0.1c0.1,0,0.3,0,0.4,0h0c0.2,0,0.4,0,0.7-0.1c3,8,5.1,12.3,9.6,19
			C243.2,548.1,243.6,548.8,244.2,549.6z M211.9,525.5c2.5,1,4.4,1.6,7.5,2.2c-0.4,1.9-0.6,2.8-1,4.7c-2.3-0.5-3.4-0.8-5.6-1.5
			c-0.5,1.6-0.8,2.4-1.3,4c2.1,0.7,3.1,1,5.2,1.4c-0.4,1.8-0.6,2.8-1,4.6c-2.1-0.5-3.2-0.8-5.1-1.4h0c-0.2-0.1-0.4-0.1-0.6-0.2
			c-0.5,1.6-0.8,2.4-1.3,3.9c0.6,0.2,1,0.3,1.5,0.5l0,0c1.9,0.6,3.3,0.9,5.5,1.4c-0.2,0.9-0.3,1.6-0.5,2.3l0,0
			c-0.2,0.7-0.3,1.5-0.5,2.4c-6.1-1.2-9.1-2.2-14.8-4.8c3.8-8.3,5.7-12.4,9.5-20.7C210.5,524.9,211.2,525.2,211.9,525.5L211.9,525.5
			z M-49.3,452.4c0-36.9,0-73.7,0-110.7c189.8,0,379.5,0,569.6,0c0,36.8,0,73.6,0,110.7C330.3,452.4,140.7,452.4-49.3,452.4z"/>
		<path d="M230.4,533.8C230.4,533.8,230.4,533.8,230.4,533.8c-0.4,3.2-1,6.4-2,9.7c1.4,0,2.2,0,3.3-0.1c0.4,0,0.8-0.1,1.3-0.1
			c-0.1-0.3-0.2-0.6-0.3-0.9C231.6,539.5,230.9,536.6,230.4,533.8z"/>
		<path d="M303.3,604.9c-2.4,1.3-3.4-0.5-4.5-1.8c-1.1-1.3-2.1-2.7-3.3-4c-5.2-5.2-10.4-10.4-15.6-15.5c1.5-3.2,3-6.2,5.2-8.5
			c0.2-0.2,0.4-0.4,0.5-0.5c0.1-0.1,0.1-0.1,0.2-0.2c1.6-1.4,3.6-2.5,6.1-3.1c0,0,0,0,0,0c-2.6-1.7-15.4,1-18.4,3.9
			c-0.1,0.1-0.2,0.2-0.3,0.3c1.7,0,3.1,0,4.4,0c2.7-0.1,3.5,1,2.1,3.3c-3,5.1-6.1,10.1-9.5,15.7c0,0,0,0,0,0
			c-1.5-5.8-2.8-11-4.1-16.3c0,0,0,0,0,0c1.7-0.6,3.1-1.1,4.5-1.6l0,0c0-0.3,0-0.6,0-1c-1.4,0-2.8-0.3-4.2,0
			c-3.4,0.8-6.8,2.4-10.3,2.6c-4.2,0.2-8.4,5.1-12.8,0.4c-0.3-0.3-1.4,0.3-2.1,0.4c-2,0.2-4.1,0.6-6,0.4c-3.1-0.3-6.2-1.2-9.3-1.6
			c-2.5-0.3-5.3,1-7.6,3.1c-3.3,3.1-5.6,8.1-4.1,12.7c1.5,5,4.9,8,9.1,10.6c3.4,2.1,6.9,4.1,10.1,6.5c0.9,0.7,1.4,2.7,1.1,3.9
			c-0.1,0.2-0.2,0.4-0.4,0.7c-0.6,0.7-1.8,1.3-2.7,1.4c-1.4,0.3-3,0-4.3-0.4c-4.8-1.5-8-4.8-10.4-9.2c-0.8-1.4-1.8-2.7-2.6-4
			c-0.4,0.1-0.8,0.3-1.1,0.4c0,0,0,0,0,0c0,5,0,10,0,14.6c3.3-0.5,6.6-2,9-1.1c4,1.4,7.8,2.2,11.9,2c3.3-0.1,6.3-1.6,8.6-4.1
			c1.3-1.5,2.4-3.3,3.1-5.4c1.6-5,0-10.1-4.5-13.2c-4.8-3.3-9.9-6.3-14.7-9.7c-1.1-0.8-1.9-3-1.7-4.4c0-0.2,0.2-0.5,0.5-0.8
			c0.8-0.8,2.3-1.5,3.1-1.3c2.8,0.6,5.8,1.4,7.9,3.2c2.8,2.4,4.7,5.7,7.7,9.6c0,0,0,0,0,0c0.3-4.3,0.5-7.6,0.7-9.8l0,0
			c2.1-0.4,3.3-0.6,4.9-0.8c0.4,0.7,1,1.3,1.2,2.1c2.5,9.8,4.9,19.7,7.3,29.5c0.3,1.3,0.2,2-0.5,2.4c-0.4,0.3-0.9,0.4-1.6,0.5
			c-0.2,0-0.5,0.2-0.7,0.3c-0.3,0.2-0.6,0.6-0.9,0.8c-0.1,0-0.1,0.1-0.2,0.1c0,0,0,0,0,0c0.8,0.3,1.5,0.6,2.3,0.8
			c0.3,0.1,0.8,0,1.1-0.1c6.7-1.7,13.5-3.4,20.2-5.2c0.6-0.2,1-0.7,2.3-1.8c0.1,0.3,0.2,0.5,0.2,0.8c8.7-1.4,17.2-3.9,25.7-6.8
			c0,0,0,0,0,0C305,605.2,303.9,604.6,303.3,604.9z M279.7,611.3C279.7,611.3,279.7,611.3,279.7,611.3c0,0.2,0.1,0.3,0.1,0.5
			c0,0,0,0,0,0c-2.5,0-3.8,0-5.3,0c-1.1-4.4-2.2-8.9-3.3-13.4c0,0,0,0,0,0c4.1,4.1,7.9,7.9,11.4,11.5c0,0,0,0,0,0
			C282,610.2,280.8,610.8,279.7,611.3z"/>
		<path d="M208.7,580.7c-2.8-3-6.8-5.2-12.4-6.3c-8.1-1.7-16-4.2-24-6.3c-0.1,1-0.2,1.8-0.3,2.4c0,0,0,0,0,0c1.5,0.3,2.8,0.6,4,0.8
			c0,0,0,0,0,0c-2.9,11.4-5.7,22.7-8.4,33.6c-1.9,0.2-3.3,0.4-4.8,0.6c0,0.4,0.1,0.8,0.1,1.3l0,0c8.9,2.2,17.8,4.3,26.6,6.6
			c7.6,1.9,15.6-0.8,19.6-7.4C214.4,597.1,214.8,587.2,208.7,580.7z M197.3,583.4c-1.8,7.3-3.5,14.7-5.3,22
			c-0.4,1.7-0.8,2.8-1.4,3.5c-1,1.2-2.8,1.2-6.4,0.7c2.9-11.4,5.7-22.8,8.6-34.4c0.4,0.2,0.7,0.3,1,0.5c3.5,1.7,4.4,2.3,4.1,4.5
			C197.9,581,197.6,582,197.3,583.4z"/>
		<path d="M280.7,432.1c0-24.1,0-47.9,0-72c0,0,0,0,0,0c3,0,5.7,0,8.3,0v0c1.3-3.2-0.8-2.9-2.6-2.9c-12.2,0-24.5,0-36.7,0
			c-0.8,0-1.4,0.1-1.9,0.3c-0.9,0.3-1.4,1-1.8,2.3c-2.1,6.6-4.4,13.2-6.7,19.8c-1.1,3.1-2.3,6.2-3.8,10.3l0,0
			c-3-8.6-5.6-16.1-8.2-23.6c-3-8.9-3-9-12.1-9c-10.6,0-21.2,0-32,0c0,0,0,0,0,0c0,0.9-0.1,2,0,2c3.2,0.5,6.3,0.9,9.6,1.4
			c0,20.8,0,41.4,0,62c0,7.2-1.4,8.7-8.6,9.7c-0.1,0-0.2,0-0.2,0.1c0,0,0,0-0.1,0c-0.7,0.3-1.3,1.2-1.9,1.7c0.2,0.3,0.4,0.5,0.6,0.8
			c8.1,0,16.1,0,24.2,0v0c0.2-0.4,0.3-0.8,0.5-1.1c-1-0.5-1.9-1.4-2.9-1.5c-0.6-0.1-1.2-0.1-1.7-0.2c-0.1,0-0.2,0-0.4-0.1
			c-0.3-0.1-0.6-0.1-0.9-0.2c0,0,0,0,0,0c-3.7-0.9-5-3.2-5-8.1c0-9.5,0-19,0-28.5c0-9.2,0-18.4,0-27.6c0,0,0,0,0,0
			c0.9,0.9,1.3,1.8,1.6,2.8c7,20.8,13.9,41.5,21,62.2c0.4,1,1.9,2.3,2.8,2.3c0,0,0,0,0,0c1,0,2.6-1.2,3-2.2
			c4.7-13.1,9.1-26.3,13.7-39.5c3.1-8.8,6.2-17.6,9.6-27.3c0,0,0,0,0,0c0,22.6,0,44.3,0,65.9c-8.5,1.2-8.5,1.2-8.5,3.3
			c16.1,0,31.8,0,47.5,0c0.3,0,0.6,0,0.8,0c1.6-0.2,1.9-1.1,1-3.1C286.1,432.1,283.4,432.1,280.7,432.1z"/>
		<path d="M160.5,396.3c-3.5-0.6-7-1.2-10.5-1.8c0,0,0,0,0,0c5.1-1.9,10.2-2.9,15.2-4.3c6-1.8,9.6-6.1,10.2-12.3
			c0.5-5.1-0.5-9.6-3.7-13.1c-1.1-1.2-2.4-2.2-4-3.1c-6-3.4-12.6-4.2-19.2-4.3c-18.1-0.3-36.2-0.1-54.4-0.1c-2,0-4,0-6.2,0
			c0,0.9-0.1,1.9,0,2l0,0c2.9,0.6,5.8,1,8.6,1.5v0c0,23.8,0,47.6,0,71.1c-2.3,1.4-5.4-0.4-7.5,0.8c-0.2,0.1-0.3,0.2-0.5,0.3
			c-0.3,0.3-0.6,0.6-0.8,1c0.2,0.4,0.4,0.9,0.6,1.3c0,0,0,0,0,0c17.7,0,35.5,0.1,53.2-0.1c6.2-0.1,12.4-0.5,18.4-1.6
			c5.4-0.9,10.8-2.9,13.8-7.8c4.8-7.8,4.7-17.5-1.3-23.7C169.7,399.3,165.7,397.2,160.5,396.3z M129.1,384.3c0-7.9,0-15.7,0-23.5v0
			c7.2-1.9,12.9,1.8,12.7,9.5c-0.1,3.6-0.3,7.2,0,10.8c0.2,1.9,0,3.6-0.3,5.1c-0.1,0.5-0.3,1-0.4,1.4c-0.1,0.2-0.2,0.3-0.2,0.5
			c-0.1,0.2-0.2,0.3-0.2,0.5c-1.8,3.1-5.6,4.4-11.5,3.7C129.1,389.6,129.1,386.9,129.1,384.3z M134.4,432.1
			C134.4,432.1,134.4,432.1,134.4,432.1c-0.1,0-0.2,0-0.2,0c-0.4,0.1-0.9,0.1-1.3,0.2c-0.6,0.1-1.1,0.1-1.7,0.1c-0.6,0-1.3,0-2,0
			c0-3.1,0-6.2,0-9.3c0-9.2,0-18.2,0-27.2c1.2-0.2,2.4-0.3,3.4-0.3c7.4-0.1,10.7,3.9,10.7,12.2c0,4.7,0.3,9.5-0.1,14.2
			c-0.4,4.6-1,7-2.9,8.4C139,431.3,137.2,431.7,134.4,432.1z"/>
		<path d="M370.8,406c-0.5,0.5-0.8,1.3-1.1,2.4c-1.6,6.6-4.4,12.9-9.3,17.7c-6.3,6.1-14.2,7.2-22.8,6c0,0,0,0,0,0
			c0-11.6,0-23.2,0-34.7c4.4-0.5,8.6,1,11.3,4c0.8,0.9,1.4,1.8,1.9,2.9c1,2.2,1.5,4.7,2.4,6.9c0.1,0.3,0.4,0.6,0.7,0.8
			c0.5,0.4,1.3,0.9,2.1,1.6c0-12.5,0-23.7,0-34.9c0,0,0,0,0,0c-2.8,0-3,0.3-3.5,3.7c-1,6.4-7.2,13-14.8,11.3c0,0,0,0,0,0
			c0-11,0-22.1,0-33.1c5.1-0.5,9.6-0.2,13.5,0.8c2.7,0.7,5.1,1.9,7.2,3.3c5.9,4.2,8.5,10.3,10.6,16.8c0.4,1.2,1.6,2.1,2.5,3.2
			c0,0,0,0,0,0c0.3-0.2,0.6-0.5,0.9-0.7c0-8.8,0-17.6,0-26.5v0c-25.4,0-50.6,0-76.1,0c0,0.8-0.1,1.8,0,1.9c0,0,0,0,0,0
			c2.9,0.5,5.8,0.9,8.6,1.3c0,0,0,0,0,0c0,23.9,0,47.7,0,71.5c-8.6,0.5-8.6,0.5-8.1,2.9c0,0,0,0,0,0c25.7,0,51.4,0,77.2,0
			c0-9.9,0-19.6,0-29.4C372.4,405.1,371.5,405.3,370.8,406z"/>
		<path d="M50,350.1c0,0-0.1-0.1-0.1-0.1c-0.1-0.1-0.2-0.2-0.4-0.2c-0.1-0.1-0.3-0.1-0.4-0.1c-0.1,0-0.2-0.1-0.3-0.1
			c-0.2,0-0.5-0.1-0.8-0.1c-17,0.1-33.9,0.2-50.9,0.3c-5.7,0-11.5,0-17.2,0c-5.7,0-11.5,0-17.2-0.1c-2.5,0-4.2,0.3-3.2,3.4
			c0.2,0.6,0,1.2,0,1.9c0,0,0,0,0,0c0,26.7,0,53.5,0,80.2c0,2-0.2,3.9-0.3,5.7c30.8,0,61.1,0,91.8,0c0-17.9,0-35.4,0-52.9
			c0-5.8,0-11.6,0-17.4s0-11.6,0-17.4v0c0,0,0,0,0,0C51,351.8,50.8,350.7,50,350.1z M47,437.3c-27.8,0-55.6,0-83.7,0
			c0-28,0-55.7,0-83.6c27.9,0,55.7,0,83.7,0C47,381.5,47,409.3,47,437.3z"/>
		<path d="M509.1,351.3c-2.1,0-4.1,0-6.2,0c-24.7,0-49.5,0-74.2-0.1c-2.1,0-4.1,0-6.2,0c-0.9,0-1.5,0.1-2,0.4c-0.5,0.2-0.8,0.6-1,1
			c-0.1,0.3-0.2,0.6-0.2,1c0,0.4-0.1,0.8-0.1,1.2c0,0.1,0,0.3,0,0.4c0.1,17.1,0,34.2,0,51.3c0,3,0,5.9,0,8.9c0,8.9,0,17.9,0,27.3
			c30.7,0,61,0,91.2,0c0-30.4,0-60.8,0-91.2c0,0,0,0-0.1,0C509.8,351.4,509.5,351.3,509.1,351.3z M506.8,438.8
			c-27.8,0-55.5,0-83.6,0c0-27.8,0-55.5,0-83.7c27.9,0,55.6,0,83.6,0C506.8,383,506.8,410.7,506.8,438.8z"/>
		<path d="M272.7,213.2c0.5-2.9,0.9-5.6,1.4-8.2c0.3-1.6,0.6-3.1,0.9-4.6c0.6-2.6,1.4-5.2,2.5-7.6c0.3-0.7,1.8-0.8,2.8-1.2
			c0.2,0.8,0.7,1.7,0.7,2.5c0,0.1,0,0.2,0,0.3c-1,5.2-2.1,10.3-3.3,15.4c-0.1,0.2-0.1,0.5-0.2,0.7c0,0.1,0,0.2-0.1,0.3
			c-0.4,0.9-0.9,1.9-1.4,3.1l0,0c5.2,1.1,10.8,2.3,16.2,3.4l0,0c-0.6-1.6-1.5-3-1.6-4.2c0-0.2,0-0.3,0-0.5c0.6-4.2,1.7-8.4,2.7-12.5
			c0.1-0.5,0.2-0.9,0.3-1.4c1-7-3.3-11.9-10-10.8c-1.9,0.3-3.6,1.3-6.1,2.2l0,0c1.1-5.4,2.1-10.4,3.1-15.8c0,0,0,0,0,0
			c-5.4,0.1-10.5-2.5-16-1.5c0,0,0,0,0,0c1.4,0.2,2.2,0.6,2.5,1.4c0.2,0.5,0.2,1.2,0,2.1c-2.4,10.7-4.6,21.5-6.9,32.3
			c-1.1,0-2.2,0-3.3,0c0,0.3-0.1,0.7-0.1,1c0,0,0,0,0,0C262.1,210.9,267.7,212.1,272.7,213.2z"/>
		<path d="M131.2,195.7c0.1,0,0.3,0,0.4,0c2.8,0.2,3.3,2.8,4.3,5c3.9,9,7.9,17.9,11.9,27c-0.9,0.6-1.8,1.2-2.7,1.7
			c0.2,0.4,0.4,0.8,0.5,1.1c0,0,0,0,0,0c5.4-2.3,10.7-4.7,16.3-7.1c-1.7-1.2-3.3-3.4-4.6-6c-2.9-5.6-4.5-12.8-2.3-15.5
			c0.4,0.9,0.8,1.7,1.2,2.6c2.8,6,6.1,11.4,7.1,18.2c0,0,0,0,0,0c5-2.2,10.4-4.7,15.8-7.1c0-0.3-0.1-0.6-0.1-0.9c0,0,0,0,0,0
			c-1,0.2-2.1,0.4-3.3,0.6c0,0,0,0,0,0c-2.4-5.2-4.8-10.5-7.4-15.8c-1.6-3.1-3.4-4.8-5.7-4.9c-1.4-0.1-2.9,0.4-4.7,1.4
			c-2.6,1.5-4.4,4.3-6.7,6.6c0,0,0,0,0,0c-2-4.3-4.2-9.3-6.5-14.2c0,0,0,0,0,0c-5,2.5-9.7,4.9-14.4,7.3l0,0c0.2,0,0.5-0.1,0.7-0.1
			C131,195.7,131.1,195.7,131.2,195.7z"/>
		<path d="M73.4,256.2c4.6,5.6,9.3,5.8,16.9,2.9c4-1.5,8-2.8,12.1-3.8c1.1-0.3,3.1,0.7,3.7,1.7c0,0,0,0,0,0c0.5,1,0.2,2.9-0.5,4
			c-3.3,5.5-10,6.3-16.4,5.1c-1.4-0.3-2.8-0.3-4.3-0.5c-0.1,0.3-0.2,0.6-0.2,0.8l0,0c1.1,1,2.2,2,3.3,3.1c2.3,2.2,4.7,4.4,7.3,6.9
			c0.8-2.2,1.3-4.1,2.2-6c0.4-1,1.2-2.1,2.1-2.4c5.2-2.2,8.9-5.8,10.8-11.1c1.4-3.9,1.2-7.9-1.2-11c-0.3-0.5-0.7-0.9-1.2-1.3
			c-2.9-2.7-6.4-4.5-10.8-3c-5.6,2-11.2,4.1-17,5.7c-1.4,0.4-3.9-0.2-4.8-1.3c-0.1-0.1-0.2-0.2-0.2-0.4c-0.4-1.1,0.1-3.2,0.8-4.3
			c0.9-1.4,2.7-2.9,4.3-3.2c3.4-0.6,7-0.3,10.5-0.4c1.3,0,2.6,0,4.7,0c0,0,0,0,0,0c-4.2-3.6-7.6-6.5-11.2-9.6
			c-0.7,2.1-1.1,3.9-1.8,5.5c-0.4,0.9-1.2,1.8-2,2.1c-4.9,1.9-7.6,5.5-9.2,10.3c-1,2.9-0.7,5.5,0.6,7.9
			C72.3,254.7,72.8,255.5,73.4,256.2z"/>
		<path d="M217.6,207c0,0.2,0.1,0.4,0.1,0.6c5.6,0,11.1,0,17,0h0c-0.6-0.9-1.4-1.5-1.4-2.1l0,0c0.1-5.6,0.2-11.1,0.8-16.7
			c0.1-1.2,2.2-2.1,3.4-3.2c0.4,0.3,0.7,0.5,1.1,0.8c0,0,0,0,0,0c-0.1,0.9-0.1,1.7-0.1,2.6c-0.1,5.6,0.6,11.2-0.2,16.6
			c-0.1,0.9-0.3,1.8-0.5,2.8c0,0,0,0,0,0c5.2,0,10.7,0,16.2,0c0-0.2,0.1-0.4,0.1-0.6c0,0,0,0,0,0c-0.9-0.3-1.8-0.6-2.9-0.9
			c0-3.8,0.1-7.6,0.1-11.3c0-2.2-0.1-4.5-0.3-6.7c-0.2-2.2-1.7-5-3.4-6.3c-3.3-2.3-10-0.7-12.8,2.3c-0.5,0.6-1.1,1-2.3,2l0,0
			c0-0.2,0.1-0.4,0.1-0.7c0.2-1.8,0.4-3.1,0.5-4.1c0-0.1,0-0.3,0-0.4c0,0,0,0,0,0c-4.5,0-8.7,0-12.3,0c-0.5,0-1,0-1.5,0
			c0.2,0.5,0.4,0.9,0.5,1.3c0.5,1.2,1,2.2,1.1,3.1c0,0.1,0,0.2,0,0.3c0.1,1.4-0.3,2.8-0.3,4.2c0,2.6,0,5.1,0,7.7c0,2.6,0,5.2,0,7.8
			C219.5,206.4,218.6,206.7,217.6,207C217.6,207,217.6,207,217.6,207z"/>
		<path d="M179.9,203.3c0.2,0.8,0.6,1.6,0.9,2.3c0.4,0.7,0.8,1.4,1.4,2c0.7,0.8,1.4,1.5,2.1,2.1c0.8,0.6,1.6,1.1,2.4,1.5
			c0.8,0.4,1.7,0.8,2.6,1c1.8,0.5,3.7,0.7,5.7,0.6c0.9,0,1.8-0.2,2.8-0.3c0.7-0.1,1.4-0.3,2.1-0.5c1.4-0.4,2.8-0.9,4.2-1.6
			c1.3-0.6,2.5-1.4,3.5-2.2c0.7-0.5,1.3-1.1,1.8-1.7c3-3.2,3.9-7.3,2.8-12.3c-0.7-3.1-2.5-5.6-5-7.5c-0.6-0.5-1.3-0.9-2-1.2
			c-0.7-0.4-1.4-0.7-2.2-0.9c-1.2-0.4-2.4-0.6-3.7-0.7c-0.4,0-0.9,0-1.3,0c-4.9,0-11,2.2-14.6,5.2c-0.3,0.3-0.6,0.6-0.9,0.9
			c-1.1,1.2-1.9,2.7-2.5,4.3c-0.1,0.4-0.2,0.8-0.3,1.2c-0.3,1.2-0.4,2.5-0.4,3.8c0,0.9,0.1,1.7,0.3,2.6
			C179.7,202.5,179.8,202.9,179.9,203.3z M193.1,186.5C193.1,186.5,193.1,186.5,193.1,186.5c0.1-0.1,0.1-0.1,0.2-0.1
			c0.1,0,0.2-0.1,0.3-0.1c0.3-0.1,0.6-0.1,0.8-0.1c1.8,0,2.6,1.4,3,3.5c0.9,5.4,2.1,10.8,3.4,16.1c0.5,2.3,0.5,4.4-2.1,5.1
			c-0.3,0.1-0.6,0.1-0.9,0.1c-1.9,0-2.6-1.6-3-3.5c-0.8-3.8-1.6-7.6-2.5-11.7c-0.5-2.2-1-4.4-1.5-6.8
			C191.4,188.3,192.1,187.1,193.1,186.5z"/>
		<path d="M364.6,245.7c0,0.4,0.1,0.7,0.1,1.1c5.8-2,10.8-1.6,14.4,3.5l0,0c-9.5,1.3-18.8,2.7-28.9,4.1l0,0
			c6.4,7.2,12.1,13.6,17.9,20.1c0.8,0.9,1.7,1.9,2.5,2.8c2.4-1.9,5-4,7.7-6.2c0,0,0,0,0,0c-5.9,0.3-11.5-0.2-16-6.2c0,0,0,0,0,0
			c9.8-1.4,18.9-2.8,28.7-4.2l0,0c-6.8-7.6-12.9-14.4-19.1-21.4C369.5,241.6,367,243.7,364.6,245.7L364.6,245.7z"/>
		<path d="M342.9,217c-4.4,5.9-8.9,11.8-13.1,17.5c0,0,0,0,0,0c-1.4-0.5-2.5-1-3.7-1.5c0,0,0,0,0,0c-0.2,0.4-0.4,0.8-0.5,1.1
			c6,3.5,10.4,9.2,17,11.9c0,0,0,0,0,0c0.2-0.3,0.4-0.6,0.5-0.8c-0.9-0.9-1.8-1.8-2.7-2.6c1.9-2.7,3.4-4.8,4.6-6.5
			c3.7-5.1,5.4-6.3,9.1-6.9c-0.1,0.6-0.1,1.3-0.3,1.8c-1.6,3.9,0.9,7.8,5,8.4c2,0.3,3.5-0.4,4.7-1.5c1.2-1.1,1.9-2.6,2.3-4.2
			c0.6-2.6-3.4-6.8-6.5-7c-2.4-0.1-4.8,0.2-7.5,0.4c1.1-1.6,2-3,3-4.4c-4.6-3.2-9.1-6.4-13.7-9.6l0,0c-0.3,0.3-0.6,0.6-0.9,0.9
			c0.3,0.3,0.6,0.6,0.9,0.9C341.6,215.7,342.2,216.3,342.9,217z"/>
		<path d="M308.9,225.8c4.3,2.3,9.1,3.6,14,1.9c0.7-0.2,1.4-0.5,2.1-0.9c0,0,0,0,0,0c-2.1,0.4-4.2,0.8-6.2,0.8
			c-3.4,0.1-6.5-0.8-8.6-4.2c-1.8-2.8-0.3-6.7,2.6-9.6l0,0c3.5,1.7,7.1,3.4,10.6,5.1c1.8,0.9,3.6,1.7,5.4,2.6
			c0.4-0.8,0.7-1.6,0.9-2.4c0.2-0.6,0.3-1.1,0.5-1.7c0.1-0.3,0.1-0.6,0.2-1c0.6-3.5,0-6.8-2.3-9.7c-0.6-0.8-1.3-1.5-2.1-2.2
			c-2.1-1.8-4.3-3.2-6.8-4.2c-0.1,0-0.1,0-0.2-0.1c-0.5-0.2-1.1-0.4-1.7-0.6c0,0-0.1,0-0.1,0c-1.3-0.4-2.6-0.6-3.9-0.7
			c-0.5,0-1,0-1.5,0c-0.2,0-0.5,0-0.7,0h0c-5,0.2-8.6,2.6-10.8,6.5c-2.3,4-3,8.9,0.1,12.9C302.8,221.2,305.7,224,308.9,225.8z
			 M322,206.5c-0.7,2-1.7,3.8-2.7,5.8c-0.4,0.7-0.7,1.3-1.1,2c-1.7-0.8-3.2-1.5-5.1-2.4l0,0c1.4-2.9,2.6-5.7,4.2-8.2
			c0.5-0.7,2.7-1.1,3.4-0.7c0.8,0.6,1.5,2.1,1.4,3.1C322.1,206.3,322,206.4,322,206.5z"/>
		<path d="M125.6,243.7c1.5-0.7,2.9-1.5,4.3-2.4c1-0.6,2-1.3,2.9-2.1c0.4-0.3,0.7-0.5,1.1-0.8c0.2-0.2,0.4-0.4,0.6-0.6
			c3.1-2.9,4.4-7.4,3-11c0,0,0,0,0,0c-0.2,1.8,0.1,3-0.4,3.8c-0.8,1.2-1.6,2.6-2.5,3.8c-0.9,1.2-1.8,2.3-3,3.1
			c-1.2,0.8-4.9,0.1-5.9-1.2c-3.3-4-6.2-8.5-8.5-13.1c-0.8-1.5-0.3-3.1,0.8-4.2c0,0,0.1-0.1,0.1-0.1c0.2-0.2,0.4-0.4,0.6-0.5
			c0.4-0.3,0.9-0.5,1.4-0.7c0.9-0.3,1.9-0.5,2.9-0.4c-0.3,1.2-0.6,2.2-0.9,3.2c-0.1,0.2-0.1,0.4-0.2,0.6c-0.9,3,1.2,6.5,4.1,6.2
			c2.2-0.2,4.8-1.3,6.3-2.8c0,0,0,0,0,0c0.1-0.1,0.2-0.2,0.2-0.3c0,0,0.1-0.1,0.1-0.1c1.7-2.2,0.4-4.9-1.3-6.6
			c-1.7-1.7-4.6-3.6-6.6-3.2c-4.9,1-9.3,2.9-12.7,6.4c-1.3,1.4-2.5,3-3.5,4.9c-2.5,5.1-1.7,10.9,2.1,15
			C114.6,244.4,120.8,245.9,125.6,243.7z"/>
		<path d="M194.8,179.2c0.2,0.1,0.4,0.1,0.7,0.2c0,0,0.1,0,0.1,0c0.2,0,0.4,0,0.7,0c0.1,0,0.1,0,0.2,0c0,0,0,0,0,0
			c0.6,0,1.2-0.1,1.7-0.3c0,0,0,0,0,0c0,0,0.1,0,0.1-0.1c1.2-0.5,1.9-1.7,1.9-4c0-0.2,0-0.5,0-0.7c-0.2-0.1-0.4-0.3-0.7-0.6
			c-0.7-0.6-1.5-1.5-2.2-1.6c-0.1,0-0.2,0-0.3,0c-1.6,0.6-3.5,2.3-4,3.9C192.7,177.4,193.3,178.7,194.8,179.2z"/>
		<path d="M184.5,181.7c1.9,0.1,3.1-0.1,3.9-0.7c0.8-0.6,1.2-1.5,1.3-2.9c0.1-2.2-1.1-3.5-2.5-3.6c-0.2,0-0.4,0-0.6,0
			c-1.6,0.3-3.4,2.1-4.1,3.8c-0.1,0.2,0,0.6,0.2,0.9C183.2,180.1,184.2,181.1,184.5,181.7z"/>
		<path d="M-13.7,426.7c-1.9-2.1-3.7-4-5.8-6.4c15.6-9.6,30.9-19.1,46.2-28.6c-0.1-0.2-0.1-0.5-0.2-0.7c0,0,0,0,0,0
			c-9.5,0-19,0-28.5,0v0c-0.1-0.3-0.2-0.5-0.3-0.8c13-9.3,26-18.5,39-27.8c-3.4-0.3-6.7-0.5-10-0.6c-0.2,0-0.4,0-0.6,0
			c-1.6,0-3.1-0.1-4.7-0.1c-3.7-0.1-7.3-0.1-11-0.2c-3.6-0.1-5.6,1.6-7.7,3.9c-4.8,5.2-9.8,10.1-14.6,15.3
			c-5.9,6.3-11.6,12.6-18.1,19.6l0,0c6.1,0,11.4,0,17.2,0c0,0,0,0,0,0c-3.9,5.7-7.5,10.8-11.6,16.8c0,0,0,0,0,0
			c-2.1-2.4-3.9-4.5-5.8-6.6c0,0,0,0,0,0c0,5.4,0,10.7,0,16.3c4.2,0,8.2,0,12.2,0C-16.4,426.7-15,426.7-13.7,426.7z"/>
		<path d="M436.3,419.3C436.3,419.3,436.3,419.3,436.3,419.3c-2.1-2.4-3.9-4.5-5.7-6.4c0,0,0,0,0,0c0,5.2,0,10.6,0,16.1
			c5.5,0,10.7,0,16.2,0c0,0,0,0,0,0c-1.9-2.1-3.7-4-5.8-6.4c0,0,0,0,0,0c15.6-9.6,30.9-19.1,46.2-28.6c0,0,0,0,0,0
			c0-0.2-0.1-0.4-0.1-0.6c-9.5,0-19,0-28.5,0c-0.1-0.3-0.2-0.6-0.2-0.9c0,0,0,0,0,0c13-9.2,25.9-18.5,38.9-27.7l0,0
			c-9-0.9-17.7-0.8-26.4-0.9c-1.9,0-3.5,0-4.9,1.4c-0.2,0.2-0.4,0.4-0.6,0.7c-2.3,3-5,5.7-7.7,8.4c-5.8,6-11.7,11.9-17.5,18
			c-3,3.1-5.8,6.4-9.5,10.5c6.4,0,11.6,0,17.2,0C444,408.2,440.5,413.3,436.3,419.3z"/>
		<path d="M242.9,254.8c-0.1,1.8-0.2,3-0.4,5.1c0.3,0,0.5,0,0.8,0c2.5,0,3.9-0.7,4.1-2.2c0.1-1.2-0.1-2-0.8-2.6
			c-0.7-0.6-1.9-1-3.6-1.1C242.9,254.3,242.9,254.5,242.9,254.8z"/>
		<path d="M282.6,275.4c1.7,0.7,2.5,1.1,4.2,1.9c0.7-3.8,1.5-7.4,2.3-10.7c0,0-0.1,0-0.1,0C287.1,269.5,285,272.5,282.6,275.4z"/>
		<path d="M218.1,254.9c-0.2,0-0.4,0-0.7,0c-0.2,0-0.3,0-0.5,0c0.7,5.7,1,8.6,1.7,14.3c0,0,0,0,0.1,0h0c0.8-0.2,1.5-0.4,2.1-0.7
			c0.8-0.4,1.4-0.9,1.8-1.5c0.7-1.1,1-2.9,0.9-5.4c-0.1-1.5-0.3-2.7-0.7-3.7s-0.9-1.7-1.6-2.2c-0.7-0.5-1.3-0.8-1.9-0.8
			C218.9,254.9,218.5,254.9,218.1,254.9L218.1,254.9z"/>
	</g>
</g>
</svg>
