<?xml version="1.0" encoding="UTF-8" standalone="no"?>
<!-- Created with Inkscape (http://www.inkscape.org/) -->

<svg
   xmlns:dc="http://purl.org/dc/elements/1.1/"
   xmlns:cc="http://creativecommons.org/ns#"
   xmlns:rdf="http://www.w3.org/1999/02/22-rdf-syntax-ns#"
   xmlns:svg="http://www.w3.org/2000/svg"
   xmlns="http://www.w3.org/2000/svg"
   xmlns:xlink="http://www.w3.org/1999/xlink"
   xmlns:sodipodi="http://sodipodi.sourceforge.net/DTD/sodipodi-0.dtd"
   xmlns:inkscape="http://www.inkscape.org/namespaces/inkscape"
   width="1024"
   height="1024"
   viewBox="0 0 270.93333 270.93334"
   version="1.1"
   id="svg8"
   inkscape:export-filename="/home/ferenc/data/Képek/KSZK_logok/devteam_v3.png"
   inkscape:export-xdpi="96.000008"
   inkscape:export-ydpi="96.000008"
   sodipodi:docname="devteam_v3.svg"
   inkscape:version="0.92.3 (2405546, 2018-03-11)">
  <defs
     id="defs2">
    <linearGradient
       inkscape:collect="always"
       id="linearGradient846">
      <stop
         style="stop-color:#a806c9;stop-opacity:1;"
         offset="0"
         id="stop842" />
      <stop
         style="stop-color:#8805a2;stop-opacity:1"
         offset="1"
         id="stop844" />
    </linearGradient>
    <inkscape:path-effect
       effect="spiro"
       id="path-effect829"
       is_visible="true" />
    <inkscape:path-effect
       effect="spiro"
       id="path-effect3713"
       is_visible="true" />
    <inkscape:path-effect
       effect="spiro"
       id="path-effect3709"
       is_visible="true" />
    <inkscape:path-effect
       effect="spiro"
       id="path-effect3707"
       is_visible="true" />
    <linearGradient
       inkscape:collect="always"
       xlink:href="#linearGradient846"
       id="linearGradient848"
       x1="98.659876"
       y1="140.36719"
       x2="172.27373"
       y2="140.36719"
       gradientUnits="userSpaceOnUse"
       gradientTransform="translate(-448.73334,-25.400275)" />
  </defs>
  <sodipodi:namedview
     id="base"
     pagecolor="#ffffff"
     bordercolor="#666666"
     borderopacity="1.0"
     inkscape:pageopacity="0.0"
     inkscape:pageshadow="2"
     inkscape:zoom="0.45254834"
     inkscape:cx="54.641981"
     inkscape:cy="352.3847"
     inkscape:document-units="mm"
     inkscape:current-layer="layer1"
     showgrid="true"
     units="px"
     inkscape:window-width="1920"
     inkscape:window-height="1019"
     inkscape:window-x="0"
     inkscape:window-y="0"
     inkscape:window-maximized="1"
     inkscape:snap-page="true"
     inkscape:snap-grids="true"
     showguides="true"
     inkscape:guide-bbox="true"
     inkscape:snap-to-guides="true">
    <inkscape:grid
       type="xygrid"
       id="grid4565"
       empspacing="8"
       spacingx="2.1166667"
       spacingy="2.1166667" />
    <sodipodi:guide
       position="135.46667,114.3"
       orientation="1,0"
       id="guide825"
       inkscape:locked="false" />
  </sodipodi:namedview>
  <metadata
     id="metadata5">
    <rdf:RDF>
      <cc:Work
         rdf:about="">
        <dc:format>image/svg+xml</dc:format>
        <dc:type
           rdf:resource="http://purl.org/dc/dcmitype/StillImage" />
        <dc:title></dc:title>
      </cc:Work>
    </rdf:RDF>
  </metadata>
  <g
     inkscape:label="1. réteg"
     inkscape:groupmode="layer"
     id="layer1"
     transform="translate(0,-26.06665)">
    <path
       style="fill:#3051bf;fill-opacity:1;stroke:none;stroke-width:11.85333157;stroke-linecap:butt;stroke-linejoin:round;stroke-miterlimit:4;stroke-dasharray:none;stroke-opacity:1"
       d="m -46.981864,102.26665 c -5.410782,-0.15333 -3.563133,1.00152 -0.326909,4.23309 l 15.886165,15.86336 -5.303551,19.79259 -19.79259,5.30355 -15.861877,-15.85109 c -3.391029,-3.71283 -4.179429,-4.55478 -4.234571,0.29183 -3e-6,16.36604 13.267295,29.63334 29.633333,29.63333 16.366037,1e-5 29.633335,-13.26729 29.633333,-29.63333 2e-6,-16.36604 -13.267296,-29.63333 -29.633333,-29.63333 z"
       id="path4654"
       inkscape:connector-curvature="0"
       sodipodi:nodetypes="cccccccssc" />
    <path
       style="color:#000000;font-style:normal;font-variant:normal;font-weight:normal;font-stretch:normal;font-size:medium;line-height:normal;font-family:sans-serif;font-variant-ligatures:normal;font-variant-position:normal;font-variant-caps:normal;font-variant-numeric:normal;font-variant-alternates:normal;font-feature-settings:normal;text-indent:0;text-align:start;text-decoration:none;text-decoration-line:none;text-decoration-style:solid;text-decoration-color:#000000;letter-spacing:normal;word-spacing:normal;text-transform:none;writing-mode:lr-tb;direction:ltr;text-orientation:mixed;dominant-baseline:auto;baseline-shift:baseline;text-anchor:start;white-space:normal;shape-padding:0;clip-rule:nonzero;display:inline;overflow:visible;visibility:visible;opacity:1;isolation:auto;mix-blend-mode:normal;color-interpolation:sRGB;color-interpolation-filters:linearRGB;solid-color:#000000;solid-opacity:1;vector-effect:none;fill:#a806c9;fill-opacity:1;fill-rule:nonzero;stroke:none;stroke-width:63.99999619;stroke-linecap:butt;stroke-linejoin:miter;stroke-miterlimit:4;stroke-dasharray:none;stroke-dashoffset:0;stroke-opacity:1;color-rendering:auto;image-rendering:auto;shape-rendering:auto;text-rendering:auto;enable-background:accumulate"
       d="M 545.64062 309.88281 L 443.31445 616.87109 C 461.91847 626.75809 481.64306 635.6062 501.97461 643.26953 L 606.35547 330.11719 L 545.64062 309.88281 z "
       transform="matrix(0.26458333,0,0,0.26458333,0,26.06665)"
       id="path4536" />
    <path
       style="fill:none;stroke:#3051bf;stroke-width:16.93300026;stroke-linecap:butt;stroke-linejoin:round;stroke-miterlimit:4;stroke-dasharray:none;stroke-opacity:1"
       d="M 213.34615,239.0769 C 176.33588,276.38499 118.3747,282.29833 74.592226,253.23377 30.809753,224.16921 13.680891,168.20785 33.694137,119.61645 53.707381,71.02505 105.27952,43.359444 156.83144,53.560079 208.38336,63.760716 247.72105,109.02742 245.53332,161.53331 237.48365,232.73058 151.87889,227.94424 101.6,195.39998 L 50.800001,161.53331 101.6,127.66665"
       id="path4568"
       inkscape:connector-curvature="0"
       sodipodi:nodetypes="cssscccc" />
    <path
       sodipodi:type="star"
       style="fill:#a806c9;fill-opacity:1;stroke:none;stroke-width:16.93333244;stroke-linecap:butt;stroke-linejoin:round;stroke-miterlimit:4;stroke-dasharray:none;stroke-opacity:1"
       id="path4641"
       sodipodi:sides="6"
       sodipodi:cx="-51.215182"
       sodipodi:cy="127.66665"
       sodipodi:r1="17.960503"
       sodipodi:r2="19.514702"
       sodipodi:arg1="0.78539857"
       sodipodi:arg2="1.3089974"
       inkscape:flatsided="true"
       inkscape:rounded="0"
       inkscape:randomized="0"
       d="m -38.515195,140.36665 -17.348515,4.64851 -12.699988,-12.7 4.648527,-17.34851 17.348515,-4.64851 12.699988,12.7 z"
       inkscape:transform-center-x="1.3866667e-06"
       inkscape:transform-center-y="-1.3866666e-06" />
    <path
       style="fill:#000000;fill-opacity:1;stroke:#000000;stroke-width:31.99999809;stroke-linejoin:round;stroke-miterlimit:4;stroke-dasharray:none;stroke-opacity:1"
       d="M -432 720 L -432 757.78906 A 63.999994 63.999994 0 0 1 -416 800 A 63.999994 63.999994 0 0 1 -432 842.25 L -432 872 L -336 872 L -336 842.21094 A 63.999995 63.999995 0 0 1 -352 800 A 63.999995 63.999995 0 0 1 -336 757.75 L -336 720 L -432 720 z "
       id="rect958"
       transform="matrix(0.26458333,0,0,0.26458333,0,26.06665)" />
    <path
       id="path963"
       d="m -117.00165,309.69998 h 9.99835 c 3.08503,-2.72075 7.054942,-4.22554 11.168312,-4.23333 4.11694,0.005 8.09095,1.51022 11.17865,4.23333 l 16.923004,0 v -25.4 l -16.933334,0 c -3.08503,2.72076 -7.05494,4.22555 -11.16832,4.23333 -4.11693,-0.005 -8.090942,-1.51023 -11.178642,-4.23333 h -9.98802 z"
       style="fill:#000000;fill-opacity:1;stroke:#000000;stroke-width:8.46666622;stroke-linejoin:round;stroke-miterlimit:4;stroke-dasharray:none;stroke-opacity:1"
       inkscape:connector-curvature="0"
       sodipodi:nodetypes="ccccccccccc" />
    <path
       style="fill:#000000;fill-opacity:1;stroke:#000000;stroke-width:8.46666622;stroke-linejoin:round;stroke-miterlimit:4;stroke-dasharray:none;stroke-opacity:1"
       d="m -67.733334,309.69998 v -25.4 c 16.933333,0 33.866667,4.23334 46.566667,25.4 -19.05,-14.81666 -31.750001,-19.05 -46.566667,0 z"
       id="path965"
       inkscape:connector-curvature="0"
       sodipodi:nodetypes="cccc" />
    <path
       style="color:#000000;font-style:normal;font-variant:normal;font-weight:normal;font-stretch:normal;font-size:medium;line-height:normal;font-family:sans-serif;font-variant-ligatures:normal;font-variant-position:normal;font-variant-caps:normal;font-variant-numeric:normal;font-variant-alternates:normal;font-feature-settings:normal;text-indent:0;text-align:start;text-decoration:none;text-decoration-line:none;text-decoration-style:solid;text-decoration-color:#000000;letter-spacing:normal;word-spacing:normal;text-transform:none;writing-mode:lr-tb;direction:ltr;text-orientation:mixed;dominant-baseline:auto;baseline-shift:baseline;text-anchor:start;white-space:normal;shape-padding:0;clip-rule:nonzero;display:inline;overflow:visible;visibility:visible;opacity:1;isolation:auto;mix-blend-mode:normal;color-interpolation:sRGB;color-interpolation-filters:linearRGB;solid-color:#000000;solid-opacity:1;vector-effect:none;fill:#a806c9;fill-opacity:1;fill-rule:nonzero;stroke:none;stroke-width:8.46666622;stroke-linecap:butt;stroke-linejoin:round;stroke-miterlimit:4;stroke-dasharray:none;stroke-dashoffset:0;stroke-opacity:1;color-rendering:auto;image-rendering:auto;shape-rendering:auto;text-rendering:auto;enable-background:accumulate"
       d="m -237.06667,127.66665 c -1.65266,1.65371 -1.65195,4.33391 10e-4,5.98686 l 17.95941,17.9594 c 1.65295,1.65344 4.33313,1.65413 5.98684,0.001 l 7.0699,-7.06991 c 0.72932,-0.72925 1.16762,-1.69951 1.23215,-2.72886 0.19314,-3.07796 1.49947,-5.97777 3.67492,-8.16357 2.18601,-2.17752 5.08601,-3.4842 8.16612,-3.67747 1.02935,-0.0645 1.99962,-0.50282 2.72887,-1.23214 l 11.84651,-11.84652 c 0.82259,-0.74523 1.3615,-1.81672 1.35821,-3.08441 2.1e-4,-0.0217 2.1e-4,-0.0434 0,-0.065 -0.001,-0.0883 -0.007,-0.17767 -0.0135,-0.26786 -0.004,-0.0545 -0.007,-0.1089 -0.0135,-0.16332 -0.002,-0.0193 -0.002,-0.038 -0.005,-0.0574 -1.40515,-11.24125 0.52203,-16.774453 4.93301,-20.597303 4.41097,-3.82285 12.60416,-6.14119 24.31934,-7.60558 4.64749,-0.58509 5.04475,-7.16746 0.50132,-8.3072 -25.31633,-6.329088 -42.43466,3.60718 -54.90724,16.07976 l -11.97405,11.974043 c -0.72932,0.72925 -1.16724,1.69989 -1.23178,2.72924 -0.1931,3.07798 -1.49946,5.97776 -3.6749,8.16357 -2.18599,2.17751 -5.086,3.48419 -8.16613,3.67746 -1.02934,0.0645 -1.99998,0.50246 -2.72924,1.23178 z"
       id="path20"
       inkscape:connector-curvature="0" />
    <path
       style="fill:none;stroke:#3051bf;stroke-width:12.69999981;stroke-linecap:butt;stroke-linejoin:miter;stroke-miterlimit:4;stroke-dasharray:none;stroke-opacity:1"
       d="m -304.8,212.33332 h 33.86666"
       id="path823"
       inkscape:connector-curvature="0"
       sodipodi:nodetypes="cc" />
    <path
       style="color:#000000;font-style:normal;font-variant:normal;font-weight:normal;font-stretch:normal;font-size:medium;line-height:normal;font-family:sans-serif;font-variant-ligatures:normal;font-variant-position:normal;font-variant-caps:normal;font-variant-numeric:normal;font-variant-alternates:normal;font-feature-settings:normal;text-indent:0;text-align:start;text-decoration:none;text-decoration-line:none;text-decoration-style:solid;text-decoration-color:#000000;letter-spacing:normal;word-spacing:normal;text-transform:none;writing-mode:lr-tb;direction:ltr;text-orientation:mixed;dominant-baseline:auto;baseline-shift:baseline;text-anchor:start;white-space:normal;shape-padding:0;clip-rule:nonzero;display:inline;overflow:visible;visibility:visible;opacity:1;isolation:auto;mix-blend-mode:normal;color-interpolation:sRGB;color-interpolation-filters:linearRGB;solid-color:#000000;solid-opacity:1;vector-effect:none;fill:url(#linearGradient848);fill-opacity:1;fill-rule:nonzero;stroke:none;stroke-width:8.46666622;stroke-linecap:butt;stroke-linejoin:miter;stroke-miterlimit:4;stroke-dasharray:none;stroke-dashoffset:0;stroke-opacity:1;color-rendering:auto;image-rendering:auto;shape-rendering:auto;text-rendering:auto;enable-background:accumulate"
       d="m -313.26654,68.400506 c -11.17012,0 -21.99052,5.290907 -28.88868,14.058599 -6.89527,8.76401 -9.48442,20.486395 -6.98632,31.339835 1.60126,6.95697 5.02497,12.95847 8.37695,18.45703 3.34684,5.49012 6.68237,10.62691 8.72656,15.97266 1.30689,3.41761 1.83789,7.23966 1.83789,11.1875 v 2.11718 h 8.4668 v -2.11718 c 0,-4.69613 -0.61597,-9.55475 -2.39648,-14.21094 -2.48017,-6.48585 -6.15962,-12.02973 -9.40625,-17.35547 -3.24148,-5.3173 -6.11547,-10.56181 -7.35547,-15.94922 -1.90145,-8.26118 0.15762,-17.555795 5.39062,-24.207025 5.2301,-6.64755 13.7901,-10.82617 22.23438,-10.82617 8.44428,0 17.00427,4.17862 22.23437,10.82617 5.233,6.65123 7.29207,15.945845 5.39063,24.207025 -1.24,5.38741 -4.11399,10.63192 -7.35547,15.94922 -3.24664,5.32574 -6.92609,10.86962 -9.40625,17.35547 -1.78052,4.65619 -2.39649,9.51481 -2.39649,14.21094 v 2.11718 h 8.4668 v -2.11718 c 0,-3.94784 0.531,-7.76989 1.83789,-11.1875 2.0442,-5.34575 5.37972,-10.48254 8.72656,-15.97266 3.35199,-5.49856 6.7757,-11.50006 8.37696,-18.45703 2.49809,-10.85344 -0.091,-22.575825 -6.98633,-31.339835 -6.89816,-8.767692 -17.71855,-14.058599 -28.88867,-14.058599 z"
       id="path827"
       inkscape:connector-curvature="0" />
    <path
       style="fill:none;stroke:#3051bf;stroke-width:16.93333333;stroke-linecap:butt;stroke-linejoin:round;stroke-opacity:1;stroke-miterlimit:4;stroke-dasharray:none"
       d="m 169.33333,127.66665 50.80001,33.86666 -50.80001,33.86667"
       id="path4534"
       inkscape:connector-curvature="0"
       sodipodi:nodetypes="ccc" />
  </g>
</svg>
