<?xml version="1.0" encoding="utf-8"?>
<!-- Generator: Adobe Illustrator 21.0.0, SVG Export Plug-In . SVG Version: 6.00 Build 0)  -->
<svg version="1.1" id="Layer_1" xmlns="http://www.w3.org/2000/svg" xmlns:xlink="http://www.w3.org/1999/xlink" x="0px" y="0px"
	 viewBox="0 0 279 255" enable-background="new 0 0 279 255" xml:space="preserve">
<g>
	<path fill="#0B0B0E" d="M91.3,0.5h8.2c0.3,0.3,1,0.8,1.3,1.1l0.9-0.3c0.6,0.2,1.7,0.5,2.2,0.7l0.3,0.2l0.4,0.1l0.8,0.4l0.3,0.2
		L106,3c2.7,1.4,5.1,3.3,7,5.6c0.5,1.1,1.3,1.9,2.4,2.4c2.6,2.2,4.9,4.8,6.5,7.8l0.2,0.2l0.2,0.2c0.4,0.6,1.3,1.9,1.7,2.5l0.1,0.2
		l0.1,0.2c2.5,4.4,4.7,9,6.8,13.6c0,0.1,0.1,0.3,0.2,0.4c0.2,0.4,0.5,1.3,0.6,1.7c0.3,0.7,0.9,2.2,1.2,3l0.1,0.2l0.1,0.2
		c0.1,0.5,0.4,1.4,0.6,1.9c0.2,0.6,0.5,1.8,0.7,2.4c0.3,0.6,0.8,1.8,1,2.5c0.1,1.1,0.1,2.2,0.1,3.3c0.1,0.4,0.2,1.3,0.3,1.8l0.8,0.3
		c0,1.2,0,2.3,0.2,3.5c0.1,1,0.3,3.1,0.4,4.2c-1.6,0-3.1,0.1-4.7,0.1c-1-12.1-5.4-23.8-11.2-34.4c-4-7-9-13.7-15.6-18.4
		c-4-2.4-9.1-4.3-13.8-2.5c-7.4,2.5-12.8,8.7-17.2,14.8c-7.9,12.1-13.9,25.9-15.1,40.5c-1.6,0-3.1-0.1-4.7-0.1
		c0.1-1.7,0.3-3.5,0.4-5.2c0.1-1.2,0.2-2.3,0.3-3.5c0.3-0.5,0.8-1.6,1.1-2.2c-0.1-0.5-0.2-1.5-0.3-1.9c0.3-0.5,1-1.3,1.3-1.8
		c0-0.6,0.1-1.9,0.1-2.5c0,0,0.1-0.1,0.1-0.2c0.2-0.7,0.7-2,1-2.6c0-0.1,0.1-0.3,0.2-0.5c0.2-0.7,0.7-2,0.9-2.7l0.1-0.3l0.2-0.4
		l0.5-1l0.2-0.3l0.1-0.3c0.2-0.7,0.7-2,1-2.7l0.3-0.3l0.1-0.5l0.5-1c0.1-0.2,0.3-0.6,0.4-0.9l0.4-0.9c0.1-0.2,0.3-0.6,0.4-0.8
		l0.4-0.9l0.2-0.3l0.1-0.2c1-1.8,2-3.5,3-5.3l0.1-0.2l0.1-0.2c0.4-0.7,1.3-2,1.7-2.6c0.1-0.1,0.2-0.3,0.2-0.3
		c3.2-5.5,8.2-9.5,12.8-13.8L83,4.9l0.2-0.1c0.7-0.4,2.1-1.3,2.7-1.7l0.3-0.1l0.3-0.2l0.9-0.5C87.6,2.1,87.9,2,88,1.9
		C88.8,1.5,90.5,0.9,91.3,0.5z"/>
	<path fill="#0B0B0E" d="M101.8,16.7c1.2-1.1,2.3-2.2,3.4-3.3c4.9,5.2,9.1,11,12.3,17.4c-1.4,0.6-2.8,1.2-4.1,1.8
		C110.2,26.9,106.6,21.3,101.8,16.7z"/>
	<path fill="#0B0B0E" d="M59.7,70.9c7.2,0.1,14.4,0.1,21.6,0c0,1.6,0,3.2,0,4.8c-7.2-0.1-14.4,0-21.6-0.1
		C59.7,74.1,59.7,72.5,59.7,70.9z"/>
	<path fill="#0B0B0E" d="M86.7,71c1.5,0,3,0,4.4,0c0,1.6,0,3.2,0,4.8c-1.5,0-2.9,0-4.4-0.1C86.7,74.1,86.7,72.5,86.7,71z"/>
	<path fill="#0B0B0E" d="M96,71c1.6,0,3.2,0,4.8,0c0,1.5,0,3.1,0,4.6c-1.6,0.2-3.1,0.1-4.6-0.1C96.2,74,96.1,72.5,96,71z"/>
	<g>
		<path fill="#0B0B0E" d="M198.6,115.8c8.6-2.1,18.3-2.3,26.1,2.4c8.6,5.3,12.7,16.1,11.2,25.8c-0.3,2.8-5.3,3.3-5.7,0.3
			c-0.4-3.6,0.1-7.2-1-10.7c-1.8-6.7-7.9-11.9-14.7-12.8c-9.2-1.7-18.4,1.9-26.4,6c-8.6,5.4-16.8,12.3-21.4,21.5
			c-3.5,6.8-3.2,15.4,0.9,21.9c4.3,6.9,11.1,12.7,19.1,14.5c7.1,1.5,14.2-1.3,19.9-5.4c8.8-6.4,16.3-15,20.5-25.2
			c0.7-2,2.6-5.4,5.1-3.3c2.7,1.6,1.1,4.9,0.1,7c-5.7,12.7-15.8,23.6-28.1,30.1c-9.6,5-21.7,4.1-30.4-2.3
			c-9.8,9.2-19.6,18.5-29.4,27.8c-0.3,0.2-0.8,0.7-1,0.9c0.1,2.7,0,5.5-1.1,8c-3.2,4.9-8.2,8.3-11.5,13.3
			c-7.2,6.4-11.8,15.8-20.9,19.7h-8.6c-0.7-0.3-2.2-1-3-1.3c-0.1-0.1-0.3-0.1-0.4-0.2c-0.5-0.2-1.4-0.6-1.9-0.8
			c-1.9-1.5-3.6-3.2-5.1-5.1c-0.2-0.5-0.6-1.4-0.8-1.9c0-0.1-0.1-0.3-0.2-0.4c-0.3-0.7-0.9-2.2-1.2-2.9c-0.2-2.7-0.2-5.5,0.5-8.1
			c0.1-0.5,0.4-1.4,0.5-1.9c2-2.9,4.2-5.8,7.1-7.9c0.1-0.1,0.3-0.2,0.4-0.3c2.1-1.5,3.9-3.3,5.8-4.8c1.4-0.9,2.8-2,4.4-2.3
			c2.1,0,3.8,2.4,2.6,4.3c-4.2,4.9-10.9,7.2-14.2,13c-3.3,5.8,0.9,14,7.5,14.6c3.5,0.7,7.1-1,9.4-3.6c7.3-8,14.5-16.1,21.9-24.1
			c1.4-1.6,3.5-3.6,2.1-5.8c-2-2.8-4.4-5.6-7.4-7.4c-5.7,0.1-8.4,7.5-13.9,8.2c-2.4,0-2.8-2.7-2.5-4.5c3.6-2.8,6.9-6,10.8-8.5
			c2.5-1.8,5.6-1,8.4-1.1c10.3-9.3,20.2-18.9,30.3-28.3c-2.6-4.8-4.8-10.1-4.6-15.8c-0.1-7.1,3.1-13.8,7.2-19.4
			C173.5,128.1,185.4,119.7,198.6,115.8z M137,206.7c0.9,0.9,1.7,1.8,2.6,2.7c9.7-9.2,19.5-18.3,29.3-27.4c-0.8-1-1.7-2-2.5-3
			C156.5,188.2,146.8,197.5,137,206.7z"/>
	</g>
</g>
<g>
	<path fill="#FFB300" d="M99.5,0.5h1.8l0.4,0.8l-0.9,0.3C100.5,1.3,99.8,0.8,99.5,0.5z"/>
	<polygon fill="#FFB300" points="83,4.9 83.2,4.8 83,4.9 82.8,5 	"/>
	<path fill="#FFB300" d="M69.9,19l0.1-0.1c-0.1,0.1-0.2,0.3-0.2,0.3L69.9,19z"/>
	<polygon fill="#FFB300" points="67.9,22 68.1,21.8 67.9,22 67.8,22.2 	"/>
	<polygon fill="#FFB300" points="60.8,36.1 61,35.8 60.9,36.1 60.7,36.5 	"/>
	<path fill="#FFB300" d="M131,35.8l0.1,0.2l0.1,0.2C131.1,36.1,131,35.9,131,35.8z"/>
	<path fill="#FFB300" d="M58.9,41l0.1-0.2c0,0.1-0.1,0.4-0.2,0.5L58.9,41z"/>
	<path fill="#FFB300" d="M57.7,44l0.1-0.2C57.8,43.9,57.8,44,57.7,44L57.7,44z"/>
	<path fill="#FFB300" d="M133.7,43.2c0.2,0.6,0.5,1.8,0.7,2.4C134.2,45,133.9,43.8,133.7,43.2z"/>
	<path fill="#FFB300" d="M56.8,46.6l0.8-0.1c-0.3,0.4-1,1.3-1.3,1.8C56.5,47.9,56.7,47,56.8,46.6z"/>
	<path fill="#FFB300" d="M135.5,51.3c0.3,0.5,0.8,1.5,1.1,2l-0.8-0.3C135.7,52.7,135.6,51.8,135.5,51.3z"/>
	<g>
		<path fill="#FFB300" d="M54.8,57.2l0.5-1.3c-0.1,1.7-0.3,3.5-0.4,5.2c1.6,0,3.1,0.1,4.7,0.1c24.3,0.1,48.6,0.1,72.9,0
			c1.6,0,3.1-0.1,4.7-0.1c-0.1-1.1-0.3-3.1-0.4-4.2l0.4,1.3c0.2,1.1,0.4,2.2,0.5,3.3c2.3,0,4.5,0,6.8,0c0,3.1,0.1,6.2-0.2,9.3
			c-0.7,2-1,4.1-1.4,6.2c-0.3,1-0.7,2-1,3c-0.4,1.2-0.9,2.4-1.4,3.5c6.2,0.4,12.8-1.1,18.7,0.8c2.9,0.2,5.8,0.1,8.6,0.3
			c2.8,1.4,6,0.7,9,1c2.2,1.1,4.7,0.8,7,1.1c1.6,0.6,3.3,0.8,5,1.1c1.7,0.4,3.3,0.7,5,1c1.7,0.4,3.3,0.7,5,1c1.3,0.4,2.7,0.7,4.1,1
			c1.7,0.5,3.4,0.9,5.1,1.4c0.5,0.1,1.4,0.4,1.9,0.6c1.7,0.5,3.4,0.9,5.1,1.5c0.5,0.1,1.4,0.4,1.9,0.5c1,0.4,2,0.7,3.1,1.1
			c0.7,0.3,2.1,0.8,2.8,1c0.1,0,0.3,0.1,0.4,0.2c0.7,0.3,2.1,0.9,2.8,1.2c1,0.3,1.9,0.6,2.9,1c2.9,1.6,6,2.6,9.1,4
			c0.5,0.3,1.5,0.8,2,1c2,1.3,4,2.6,6.2,3.6c2.3,1.3,4.5,2.7,6.7,4.1c0.1,0.1,0.3,0.2,0.3,0.2c1.3,1,2.6,1.9,4,2.8
			c1.9,1.8,3.7,3.7,6,5c1.4,1.3,2.7,2.6,4,4c1,1.9,2.6,3.5,4,5c1,1.7,2.1,3.3,3,5c0.8,1.8,1.7,3.5,2.6,5.2c0.3,1,0.7,1.9,1,2.9
			c0.6,1.8,1,3.6,1.7,5.4v12.4c-0.6,1.3-1,2.6-1.3,4c-0.1,0.1-0.2,0.4-0.2,0.5c-0.6,1.3-1.1,2.5-1.7,3.8c-0.7,1.3-1.3,2.7-2,4
			c-1,1.7-2,3.4-3,5.1c-4.3,4.4-8.6,8.8-13.1,13c-1.4,0.9-2.8,2-4.1,3c-1.7,1-3.3,2.1-5,3.1c-1.7,1-3.3,2-4.9,3
			c-1.4,0.6-2.7,1.3-4.1,2c-1.1,0.5-2.1,1-3.2,1.5c-0.9,0.5-1.9,1-2.8,1.5c-1.3,0.6-2.6,1.2-3.9,1.7c-0.1,0-0.3,0.1-0.4,0.2
			c-0.7,0.3-2.2,0.9-2.9,1.1c-0.5,0.1-1.5,0.2-2,0.3c-0.9,0.5-1.9,1.1-2.8,1.6c-1.1,0.3-2.1,0.5-3.1,0.8c-1,0.4-2,0.8-3,1.2
			c-0.5,0.1-1.5,0.4-1.9,0.5c-1.7,0.5-3.4,0.9-5.1,1.4c-0.5,0.1-1.4,0.4-1.9,0.5c-1.7,0.5-3.4,0.9-5.1,1.5c-1,0.1-1.9,0.3-2.9,0.5
			c-1.7,0.6-3.5,1-5.2,1.6c-1.6,0.1-3.2,0.3-4.7,0.4c-2.4,0.8-4.9,0.7-7.3,1.5c-2,0.3-4.1,0.2-6,1.1c-2.7,0.3-5.5-0.2-8,1
			c-4.6,0.7-9.6-0.8-14,1c-3.9,0.3-7.8,0.1-11.6,0.1c1.1-2.5,1.2-5.3,1.1-8c0.3-0.2,0.8-0.7,1-0.9c21.2-0.3,42.4-3.2,62.6-9.8
			c9-3.3,18.1-6.4,26.3-11.6c11.2-6.3,21.7-15.3,26.8-27.3c5.1-12,1-26-7.3-35.5c-7.6-8.7-17.4-15.4-27.9-20.2
			c-14.9-7.3-31.1-11.4-47.5-14c-13.8-2.1-27.9-3.2-41.9-2.9c-7.2,9.8-17.9,16.8-29.7,19.6c0,7.5,0,14.9,0,22.4
			c5.7,0.2,11.8-0.8,17.1,1.8c5.5,3,9.8,8.7,9.9,15.2c-24.5,0-48.9,0-73.4,0c0-7,5-13,11.2-15.7c5-1.8,10.5-1.1,15.8-1.2
			c0-7.5,0-14.9,0-22.4c-6.5-1.5-12.6-4.3-18.1-7.9c-14.6,5.1-28.7,12.6-39.5,23.9c-6.8,7.4-11.8,17.3-10.5,27.6
			c0.9,12.3,9.3,22.4,18.4,29.8c8.7,6.5,18.3,11.9,28.5,15.5c15.3,6.1,31.5,9.5,47.9,11.4c-0.4,1.9,0,4.5,2.5,4.5
			c5.5-0.7,8.2-8.1,13.9-8.2c3,1.8,5.3,4.6,7.4,7.4c1.4,2.2-0.7,4.2-2.1,5.8c-7.3,8-14.5,16.1-21.9,24.1c-2.3,2.7-5.9,4.3-9.4,3.6
			c-6.6-0.6-10.8-8.9-7.5-14.6c3.2-5.8,10-8.1,14.2-13c1.2-1.9-0.6-4.3-2.6-4.3c-1.7,0.3-3,1.4-4.4,2.3c-1.6-0.3-3.3-0.5-4.9-0.7
			c-1.9-0.6-4-0.7-6-1c-1.9-0.7-4-0.8-6-1c-1.3-0.4-2.7-0.8-4.1-1.1c-1.7-0.5-3.4-0.8-5.1-1.3c-1.3-0.3-2.7-0.6-4-1
			c-0.5-0.2-1.4-0.5-1.9-0.6c-1.7-0.5-3.4-0.9-5.1-1.3c-1-0.4-2-0.8-3-1.1c-0.5-0.1-1.5-0.3-2-0.4c-1.3-0.5-2.7-1-4-1.4
			c-0.5-0.3-1.5-0.9-2-1.2c-0.5-0.1-1.5-0.3-2-0.4c-1.7-0.8-3.4-1.6-5.1-2.1c-1.6-0.8-3.2-1.6-4.8-2.4c-1.7-0.8-3.5-1.7-5.2-2.5
			c-1.7-1-3.3-2-5-3c-1.7-1-3.3-2-5-3.1c-1-0.7-2-1.4-3-2.1c-1.3-1.1-2.6-2.1-4.1-3c-3.5-3.2-6.8-6.5-10-10
			c-1.3-2.1-2.9-3.9-4.1-6.1c-0.6-1.1-1.2-2.1-1.8-3.1c-0.2-0.4-0.7-1.3-0.9-1.7c0-0.1-0.1-0.3-0.2-0.4c-0.3-0.7-0.8-2.2-1.1-2.9
			c-0.1-0.5-0.4-1.4-0.5-1.9c-0.6-2.2-0.9-4.4-1.7-6.5v-8.3c1-1.9,1.1-4.2,1.6-6.3c0.4-1,0.7-1.9,1.1-2.9c1-2,2-4,3-6.1
			c1.2-1.7,2.5-3.4,3.7-5.2c3.9-4.1,7.9-8.2,12-12c1.5-0.9,2.8-1.9,4.1-3c1.4-0.9,2.8-1.8,4.1-2.6c2-1.1,3.8-2.4,5.8-3.5
			c1.7-0.8,3.3-1.7,4.9-2.7c0.1-0.1,0.3-0.2,0.4-0.2c2.3-0.9,4.5-1.9,6.7-3.1c2.1-0.9,4.1-1.6,6.2-2.5c1.9-0.7,3.7-1.3,5.6-2
			c-0.6-0.7-1.3-1.4-1.9-2.1c-0.6-1.1-1.3-2.1-2-3.1c-1.1-1.6-2.1-3.2-3.2-4.9c-0.8-2.1-1.6-4.2-2.5-6.3c-0.5-1.6-0.9-3.3-1.4-5
			c-0.3-1.7-0.4-3.5-1.1-5.1c-0.2-2.8-0.2-5.6-0.2-8.3c2.3,0,4.6,0,6.9,0C54.5,60.1,54.6,58.6,54.8,57.2z M59.7,70.9
			c0,1.6,0,3.1,0,4.7c7.2,0.1,14.4,0,21.6,0.1c0-1.6,0-3.2,0-4.8C74.1,71,66.9,71,59.7,70.9z M86.7,71c0,1.6,0,3.1,0,4.7
			c1.5,0,2.9,0,4.4,0.1c0-1.6,0-3.2,0-4.8C89.6,71,88.1,71,86.7,71z M96,71c0,1.5,0.1,3,0.3,4.5c1.5,0.2,3,0.3,4.6,0.1
			c0-1.5,0-3.1,0-4.6C99.3,71,97.6,71,96,71z"/>
	</g>
	<path fill="#FFB300" d="M97,224.9l0.2-0.2c-0.1,0.1-0.3,0.2-0.4,0.3L97,224.9z"/>
</g>
<g>
	<path fill="#FDFDFD" d="M87.8,2L88,1.9c-0.2,0.1-0.5,0.2-0.6,0.3L87.8,2z"/>
	<path fill="#FDFDFD" d="M103.9,1.9c0.2,0.1,0.5,0.2,0.7,0.3l-0.4-0.1L103.9,1.9z"/>
	<path fill="#FDFDFD" d="M85.9,3c0.2-0.1,0.4-0.3,0.6-0.3l-0.3,0.2L85.9,3z"/>
	<path fill="#FDFDFD" d="M105.4,2.6c0.2,0.1,0.5,0.3,0.7,0.3l-0.3-0.1L105.4,2.6z"/>
	<g>
		<path fill="#FDFDFD" d="M91.8,5.9c4.7-1.7,9.8,0.1,13.8,2.5c6.7,4.7,11.6,11.4,15.6,18.4c5.8,10.6,10.2,22.3,11.2,34.4
			c-24.3,0.1-48.6,0.1-72.9,0c1.2-14.6,7.2-28.4,15.1-40.5C79.1,14.5,84.4,8.3,91.8,5.9z M101.8,16.7c4.8,4.6,8.4,10.2,11.7,16
			c1.4-0.6,2.7-1.2,4.1-1.8c-3.2-6.4-7.5-12.2-12.3-17.4C104,14.6,102.9,15.6,101.8,16.7z"/>
	</g>
	<path fill="#FDFDFD" d="M113,8.6c1.7-0.1,2.5,0.7,2.4,2.4C114.3,10.5,113.5,9.7,113,8.6z"/>
	<polygon fill="#FDFDFD" points="121.9,18.8 122.1,19 122.3,19.3 122.1,19 	"/>
	<polygon fill="#FDFDFD" points="123.9,21.8 124.1,22 124.2,22.2 124.1,22 	"/>
	<path fill="#FDFDFD" d="M64.5,27.9c0.1-0.1,0.2-0.4,0.3-0.5l-0.1,0.2L64.5,27.9z"/>
	<path fill="#FDFDFD" d="M63.7,29.6c0.1-0.2,0.3-0.6,0.4-0.8C64,29,63.8,29.4,63.7,29.6z"/>
	<path fill="#FDFDFD" d="M62.8,31.3c0.1-0.2,0.3-0.6,0.4-0.9C63.1,30.6,62.9,31.1,62.8,31.3z"/>
	<path fill="#FDFDFD" d="M62,33.1c0.1-0.2,0.3-0.6,0.4-0.9l-0.1,0.5L62,33.1z"/>
	<polygon fill="#FDFDFD" points="60,37.8 60.2,37.5 60,37.8 59.9,38.1 	"/>
	<polygon fill="#FDFDFD" points="133,40.9 133.1,41 133.1,41.3 133.1,41.1 	"/>
	<path fill="#FDFDFD" d="M55.6,52.4c0.3-0.5,0.8-1.6,1.1-2.2C56.4,50.8,55.8,51.8,55.6,52.4z"/>
	<path fill="#FDFDFD" d="M105.8,111.8c11.8-2.8,22.5-9.8,29.7-19.6c14-0.3,28,0.8,41.9,2.9c16.3,2.6,32.5,6.8,47.5,14
		c10.5,4.8,20.3,11.5,27.9,20.2c8.3,9.5,12.4,23.5,7.3,35.5c-5.2,12.1-15.6,21-26.8,27.3c-8.1,5.2-17.3,8.3-26.3,11.6
		c-20.2,6.6-41.4,9.4-62.6,9.8c9.8-9.3,19.6-18.6,29.4-27.8c8.7,6.4,20.8,7.3,30.4,2.3c12.4-6.5,22.4-17.4,28.1-30.1
		c0.9-2.2,2.6-5.4-0.1-7c-2.5-2-4.4,1.3-5.1,3.3c-4.1,10.2-11.6,18.8-20.5,25.2c-5.7,4.1-12.9,6.9-19.9,5.4
		c-8.1-1.8-14.8-7.6-19.1-14.5c-4.1-6.5-4.4-15.1-0.9-21.9c4.7-9.2,12.8-16.1,21.4-21.5c8.1-4.1,17.2-7.7,26.4-6
		c6.8,0.9,12.9,6.1,14.7,12.8c1.1,3.4,0.7,7.1,1,10.7c0.4,3,5.5,2.5,5.7-0.3c1.5-9.8-2.6-20.6-11.2-25.8c-7.8-4.7-17.5-4.5-26.1-2.4
		c-13.3,3.9-25.1,12.2-33.4,23.2c-4.1,5.7-7.2,12.3-7.2,19.4c-0.2,5.6,1.9,10.9,4.6,15.8c-10.1,9.4-20.1,19.1-30.3,28.3
		c-2.8,0.1-5.9-0.6-8.4,1.1c-3.9,2.5-7.2,5.7-10.8,8.5c-16.3-1.9-32.6-5.3-47.9-11.4c-10.3-3.6-19.8-9.1-28.5-15.5
		c-9.2-7.4-17.5-17.6-18.4-29.8c-1.3-10.3,3.7-20.2,10.5-27.6c10.8-11.3,24.9-18.8,39.5-23.9c5.5,3.6,11.6,6.5,18.1,7.9
		c0,7.5,0,15,0,22.4c-5.3,0.1-10.8-0.6-15.8,1.2c-6.2,2.7-11.2,8.8-11.2,15.7c24.5,0,48.9,0,73.4,0c-0.1-6.5-4.3-12.1-9.9-15.2
		c-5.3-2.6-11.4-1.7-17.1-1.8C105.8,126.8,105.8,119.3,105.8,111.8z"/>
	<path fill="#FDFDFD" d="M222.9,96.8l0.2,0.1l0.2,0.1C223.1,97,222.9,96.9,222.9,96.8z"/>
	<path fill="#FDFDFD" d="M41,104l0.2-0.1c-0.1,0.1-0.3,0.2-0.4,0.2L41,104z"/>
	<path fill="#FDFDFD" d="M252.9,111.8l0.2,0.1l0.2,0.1C253.1,112,252.9,111.9,252.9,111.8z"/>
	<path fill="#FDFDFD" d="M278,164.3c0.1-0.1,0.2-0.4,0.2-0.5l-0.1,0.3L278,164.3z"/>
	<path fill="#FDFDFD" d="M3.8,167.9c0.1,0.1,0.1,0.3,0.2,0.4l-0.1-0.2L3.8,167.9z"/>
	<path fill="#FDFDFD" d="M137,206.7c9.8-9.2,19.5-18.5,29.4-27.6c0.8,1,1.7,2,2.5,3c-9.8,9.1-19.6,18.2-29.3,27.4
		C138.8,208.5,137.9,207.6,137,206.7z"/>
	<path fill="#FDFDFD" d="M229.8,206.2c0.1,0,0.3-0.1,0.4-0.2l-0.2,0.1L229.8,206.2z"/>
	<path fill="#FDFDFD" d="M89.8,245.8c0.1,0.1,0.1,0.3,0.2,0.4l-0.1-0.2L89.8,245.8z"/>
	<path fill="#FDFDFD" d="M97.8,254c0.1,0,0.3,0.1,0.4,0.2l-0.2-0.1L97.8,254z"/>
</g>
</svg>
