<?xml version="1.0" encoding="UTF-8" standalone="no"?>
<!DOCTYPE svg PUBLIC "-//W3C//DTD SVG 1.1//EN" "http://www.w3.org/Graphics/SVG/1.1/DTD/svg11.dtd">
<svg width="100%" height="100%" viewBox="0 0 387 388" version="1.1" xmlns="http://www.w3.org/2000/svg" xmlns:xlink="http://www.w3.org/1999/xlink" xml:space="preserve" xmlns:serif="http://www.serif.com/" style="fill-rule:evenodd;clip-rule:evenodd;stroke-linejoin:round;stroke-miterlimit:2;">
    <g id="Lanosch">
        <g id="Logo">
            <path id="Layer" d="M190.131,3C280.323,3 353.548,76.225 353.548,166.418C353.548,256.61 280.323,329.835 190.131,329.835C99.939,329.835 26.715,256.61 26.715,166.418C26.715,76.225 99.939,3 190.131,3ZM189.547,9.507C102.9,9.507 32.553,79.854 32.553,166.502C32.553,253.149 102.9,323.496 189.547,323.496C276.194,323.496 346.541,253.149 346.541,166.502C346.541,79.854 276.194,9.507 189.547,9.507Z"/>
            <path id="Layer1" serif:id="Layer" d="M144.215,62.168C147.048,63.084 158.548,56.501 158.881,55.001C159.941,50.238 156.923,48.126 155.715,46.834C150.624,41.395 144.965,44.834 144.965,44.834C145.298,40.251 145.923,33.876 154.173,28.626C161.709,23.83 171.048,26.501 171.048,26.501C162.048,40.834 173.715,45.334 177.548,43.938L180.798,48.251C178.798,52.251 181.548,55.501 184.548,57.668C190.381,62.001 197.298,58.501 197.298,58.501C197.298,58.501 199.037,68.846 192.881,75.001C183.048,84.834 171.048,77.626 171.048,77.626C173.235,75.064 174.588,71.755 171.923,67.314C168.548,61.688 166.215,61.501 163.048,61.668C160.042,61.826 152.923,67.876 152.923,67.876C153.923,72.251 152.881,78.668 152.881,78.668C157.465,79.668 160.758,80.709 172.215,85.834C181.715,90.084 182.673,136.751 182.673,136.751C182.673,136.751 182.298,144.876 181.923,145.376C181.548,145.876 181.173,155.376 181.173,155.376L179.423,154.751L179.173,156.376L180.423,158.251L180.298,163.751L179.548,164.001L179.173,167.751L178.298,169.251C178.548,172.001 186.673,199.376 187.423,201.626C188.173,203.876 189.798,195.376 190.048,194.501C190.298,193.626 201.798,154.876 201.798,153.626C201.798,152.376 199.923,151.501 199.548,148.501C199.173,145.501 200.548,143.876 200.548,143.876L200.423,141.501C200.423,141.501 198.86,141.564 198.673,141.189C198.222,140.287 199.548,135.001 200.173,132.626C200.798,130.251 206.618,97.493 207.381,96.251C207.86,95.47 207.381,96.251 208.548,93.751C209.715,91.251 218.923,81.376 218.923,81.376L222.714,80.251C222.38,70.918 223.548,68.168 223.548,68.168C224.798,64.73 226.653,62.592 228.798,61.168C232.37,58.793 237.611,58.688 240.215,58.584C244.381,58.418 250.715,63.834 253.048,70.418C254.111,73.419 253.742,75.24 252.965,76.751C252.036,78.554 250.548,79.501 250.548,79.501L250.548,83.668C250.548,83.668 255.131,83.501 255.548,83.251C255.965,83.001 257.548,80.834 257.548,80.834L265.548,80.834L265.548,78.584L270.798,78.501L270.881,81.668C270.881,81.668 274.215,81.584 274.631,81.834C275.047,82.084 288.465,82.834 288.465,82.834L288.465,80.418L293.381,80.418L293.423,83.313L300.611,83.751L300.548,81.668L303.298,81.668L303.423,84.043C303.423,84.043 312.173,84.751 312.298,85.126C312.675,86.258 312.704,88.407 312.704,88.407L313.482,88.589L313.611,89.564L317.381,89.501L317.464,92.418L312.798,92.501C312.798,92.501 305.215,92.751 303.548,92.918C301.881,93.084 300.465,93.668 299.548,95.168C298.631,96.668 299.298,97.668 297.048,100.001C294.798,102.334 293.548,103.334 292.631,102.168C291.714,101.001 289.964,99.501 289.714,101.001C289.594,101.719 290.307,106.045 291.735,110.439C293.292,115.227 295.581,120.088 295.548,120.251C295.461,120.685 293.734,121.751 293.131,121.751C292.131,121.751 287.381,111.418 285.881,106.501C284.381,101.584 283.548,102.584 283.548,102.584C283.548,102.584 283.673,108.959 283.235,109.314C282.798,109.668 281.3,109.436 278.423,109.501C274.756,109.584 275.881,107.584 273.673,107.626C271.923,107.659 270.923,109.876 270.923,110.251C270.923,110.626 270.548,112.751 269.548,113.126C268.548,113.501 266.235,117.126 266.235,117.126C265.923,117.626 258.986,117.438 258.048,117.626C257.111,117.813 255.423,119.626 254.298,120.126C253.173,120.626 244.861,120.313 244.548,120.626C244.236,120.938 244.673,124.626 244.298,125.376C243.923,126.126 243.507,127.043 243.132,128.626C242.757,130.209 242.966,133.108 242.215,133.751C240.964,134.821 238.881,134.22 238.673,134.543C238.465,134.865 238.309,144.241 238.715,144.459C239.121,144.678 242.454,144.626 242.454,144.626C243.204,144.751 249.923,155.251 254.923,161.001C259.795,166.604 259.548,167.751 258.423,168.751C257.298,169.751 256.798,172.251 257.298,173.001C257.798,173.751 267.423,187.376 269.673,191.376C271.923,195.376 273.548,222.001 274.048,226.501C274.548,231.001 272.798,231.001 278.423,237.376C284.048,243.751 282.673,245.501 282.423,247.751C282.173,250.001 276.798,250.126 273.048,248.626C269.298,247.126 265.673,242.751 261.548,240.376C259.15,238.995 259.007,234.156 258.673,229.626C258.433,226.367 257.841,223.447 257.423,221.251C256.423,216.001 251.673,198.751 250.673,196.001C249.673,193.251 227.923,172.251 226.673,170.751C225.423,169.251 224.673,167.501 223.548,169.251C222.423,171.001 219.923,178.126 214.923,190.376C213.013,195.056 211.417,202.457 209.673,206.501C207.379,211.82 204.577,215.693 203.465,219.126C201.507,225.167 199.319,223.413 197.798,223.376C197.136,223.36 197.252,223.36 197.173,223.876C197.051,224.659 197.798,225.751 201.423,226.751C207.882,228.532 206.173,229.751 205.673,231.501C205.173,233.251 211.673,241.626 213.673,244.126C215.673,246.626 211.798,256.376 207.048,263.001C202.298,269.626 193.673,263.501 193.673,263.501C190.929,262.43 191.559,258.521 192.298,255.126C192.94,252.182 193.548,249.626 193.548,249.626C193.548,249.626 182.923,250.126 180.423,249.626C178.548,249.251 175.298,242.876 172.673,237.876C170.801,234.31 167.298,227.23 166.048,222.918C165.57,221.271 165.722,219.733 166.11,219.189C166.423,218.751 154.673,188.501 153.423,186.251C152.173,184.001 151.423,185.251 151.423,185.251C151.423,185.251 134.173,203.876 127.298,211.001C125.197,213.178 122.596,215.812 121.673,218.376C119.423,224.626 118.548,229.251 118.548,229.251C117.798,234.751 120.923,236.626 121.548,239.751C121.976,241.892 121.048,247.251 119.423,245.751C117.798,244.251 117.381,245.126 114.881,247.001C112.381,248.876 112.548,262.251 112.298,264.626C112.048,267.001 100.611,274.938 95.673,278.438C90.736,281.938 85.048,277.168 85.048,277.168C81.798,273.793 92.423,260.376 93.548,258.376C94.673,256.376 95.981,244.631 95.215,243.668C93.756,241.835 91.697,244.648 91.465,244.168C89.173,239.438 93.923,232.751 96.173,231.501C98.423,230.251 99.298,217.418 99.798,214.251C100.298,211.084 115.715,189.001 115.631,188.334C115.548,187.668 111.548,185.189 111.548,184.064C111.548,183.287 121.258,171.091 127.236,163.876C129.92,160.637 131.798,158.751 131.798,158.751C134.715,158.668 135.548,158.418 135.548,158.418C135.881,149.751 135.465,146.501 135.465,146.501C134.131,146.334 131.215,147.084 130.673,146.376C130.131,145.668 129.298,130.501 129.298,130.501C129.298,130.501 119.048,131.001 118.048,130.501C117.048,130.001 113.215,128.668 111.881,127.668C110.548,126.668 105.881,127.168 104.965,126.834C104.048,126.501 103.007,124.798 101.381,122.501C99.876,120.375 97.853,118.907 97.215,118.501C96.298,117.918 89.736,115.751 88.465,114.751C87.194,113.751 86.131,111.001 85.048,110.501C83.965,110.001 73.798,117.563 73.215,117.501C72.632,117.438 69.173,112.313 69.381,111.501C69.59,110.689 80.381,103.168 80.381,103.168C83.381,101.084 82.131,96.501 83.381,96.834C86.465,97.418 87.298,93.251 87.298,93.251C91.298,89.126 101.798,91.084 101.798,91.084C101.798,91.084 110.756,85.001 113.423,83.501C116.09,82.001 119.548,81.334 119.548,77.501C119.548,73.668 119.215,71.501 126.715,63.834C134.215,56.168 144.215,62.168 144.215,62.168ZM122.298,109.376C125.048,108.626 126.048,107.126 125.298,106.626C125.298,106.626 119.892,100.019 115.923,99.251C112.048,98.501 103.048,100.751 106.548,103.501C110.048,106.251 111.548,104.001 113.673,104.126C115.798,104.251 116.798,104.876 119.048,108.376C119.048,108.376 119.548,110.126 122.298,109.376ZM264.673,95.876C268.048,92.251 256.048,93.418 256.048,93.418C256.048,93.418 252.127,93.35 250.715,94.501C248.465,96.334 247.256,98.918 248.381,100.168C248.98,100.832 250.191,100.937 251.381,100.918C252.429,100.901 253.462,100.871 254.048,99.876C255.298,97.751 256.923,96.251 259.048,96.751C261.173,97.251 261.298,99.501 264.673,95.876Z"/>
        </g>
        <g id="Text">
            <path id="Layer2" serif:id="Layer" d="M0,329.484L11.119,329.484L11.119,374.554L43,374.554L43,384.304L0,384.304L0,329.484Z" style="fill-rule:nonzero;"/>
            <path id="Layer3" serif:id="Layer" d="M50.506,371.258C50.506,369.27 50.939,367.458 51.804,365.821C52.669,364.184 53.967,362.775 55.697,361.594C57.427,360.414 59.584,359.502 62.168,358.858C64.752,358.216 67.762,357.894 71.199,357.894C73.748,357.894 76.431,358.082 79.249,358.455C82.066,358.83 84.971,359.402 87.965,360.174C87.847,358.865 87.45,357.655 86.772,356.544C86.094,355.433 85.153,354.474 83.949,353.668C82.744,352.861 81.295,352.236 79.6,351.792C77.904,351.347 75.981,351.125 73.83,351.125C72.66,351.125 71.375,351.195 69.972,351.336C68.569,351.475 67.119,351.686 65.623,351.967C64.126,352.247 62.647,352.598 61.186,353.019C59.724,353.44 58.363,353.943 57.1,354.527L53.944,346.005C55.51,345.443 57.188,344.928 58.976,344.461C60.765,343.994 62.595,343.591 64.466,343.251C66.336,342.912 68.206,342.649 70.077,342.462C71.948,342.275 73.76,342.181 75.513,342.181C83.253,342.181 89.005,344.157 92.77,348.108C96.534,352.06 98.417,358.117 98.417,366.277L98.417,384.304L88.035,384.304L88.035,380.411C86.959,381.043 85.784,381.638 84.51,382.2C83.235,382.761 81.85,383.253 80.354,383.674C78.857,384.094 77.25,384.427 75.531,384.673C73.813,384.919 71.994,385.041 70.077,385.041C66.85,385.041 64.015,384.69 61.572,383.989C59.128,383.287 57.088,382.317 55.451,381.078C53.815,379.839 52.581,378.383 51.751,376.711C50.921,375.04 50.506,373.221 50.506,371.258ZM61.449,370.906C61.449,371.585 61.624,372.234 61.975,372.853C62.326,373.472 62.887,374.022 63.659,374.502C64.43,374.981 65.418,375.367 66.622,375.659C67.826,375.952 69.282,376.097 70.989,376.097C72.813,376.097 74.578,375.934 76.285,375.606C77.992,375.279 79.582,374.846 81.055,374.308C82.528,373.771 83.861,373.151 85.053,372.45C86.246,371.748 87.24,371.023 88.035,370.275L88.035,368.451C86.445,368.008 84.872,367.633 83.318,367.329C81.762,367.025 80.278,366.785 78.863,366.61C77.448,366.434 76.116,366.311 74.865,366.242C73.614,366.172 72.52,366.136 71.585,366.136C69.644,366.136 68.031,366.265 66.745,366.522C65.459,366.78 64.418,367.125 63.624,367.556C62.828,367.99 62.267,368.499 61.94,369.083C61.613,369.668 61.449,370.275 61.449,370.906Z"/>
            <path id="Layer4" serif:id="Layer" d="M112.131,342.918L122.513,342.918L122.513,346.425C125.271,344.859 127.908,343.76 130.422,343.128C132.935,342.497 135.396,342.182 137.805,342.182C140.961,342.182 143.884,342.644 146.573,343.566C149.262,344.491 151.589,345.864 153.553,347.688C155.517,349.512 157.054,351.786 158.165,354.51C159.275,357.234 159.831,360.385 159.831,363.962L159.831,384.305L149.484,384.305L149.484,365.646C149.484,363.378 149.162,361.349 148.52,359.561C147.876,357.772 146.953,356.264 145.749,355.036C144.544,353.809 143.083,352.873 141.364,352.23C139.646,351.587 137.722,351.266 135.595,351.266C134.473,351.266 133.321,351.383 132.14,351.616C130.959,351.851 129.802,352.184 128.668,352.616C127.534,353.049 126.441,353.586 125.389,354.23C124.337,354.872 123.378,355.604 122.513,356.421L122.513,384.305L112.131,384.305L112.131,342.918Z" style="fill-rule:nonzero;"/>
            <path id="Layer5" serif:id="Layer" d="M170.072,363.611C170.072,360.642 170.674,357.859 171.878,355.263C173.083,352.668 174.801,350.4 177.034,348.46C179.267,346.518 181.967,344.987 185.136,343.865C188.304,342.742 191.864,342.181 195.816,342.181C199.767,342.181 203.328,342.742 206.496,343.865C209.665,344.987 212.365,346.518 214.598,348.46C216.831,350.4 218.549,352.668 219.753,355.263C220.958,357.859 221.56,360.642 221.56,363.611C221.56,366.581 220.958,369.363 219.753,371.959C218.549,374.554 216.831,376.822 214.598,378.762C212.365,380.704 209.665,382.235 206.496,383.357C203.328,384.48 199.767,385.041 195.816,385.041C191.864,385.041 188.304,384.48 185.136,383.357C181.967,382.235 179.267,380.704 177.034,378.762C174.801,376.822 173.083,374.554 171.878,371.959C170.674,369.363 170.072,366.581 170.072,363.611ZM180.98,363.611C180.98,365.271 181.313,366.843 181.98,368.329C182.646,369.813 183.616,371.123 184.891,372.257C186.165,373.391 187.72,374.291 189.556,374.958C191.391,375.624 193.478,375.957 195.816,375.957C198.154,375.957 200.241,375.624 202.077,374.958C203.912,374.291 205.466,373.391 206.742,372.257C208.016,371.123 208.986,369.813 209.653,368.329C210.319,366.843 210.652,365.271 210.652,363.611C210.652,361.951 210.319,360.373 209.653,358.876C208.986,357.38 208.016,356.065 206.742,354.93C205.466,353.797 203.912,352.896 202.077,352.229C200.241,351.563 198.154,351.23 195.816,351.23C193.478,351.23 191.391,351.563 189.556,352.229C187.72,352.896 186.165,353.797 184.891,354.93C183.616,356.065 182.646,357.38 181.98,358.876C181.313,360.373 180.98,361.951 180.98,363.611Z"/>
            <path id="Layer6" serif:id="Layer" d="M233.695,371.608C236.502,373.292 239.588,374.531 242.955,375.326C246.322,376.121 249.77,376.518 253.301,376.518C255.686,376.518 257.674,376.355 259.264,376.027C260.854,375.7 262.128,375.279 263.087,374.764C264.046,374.251 264.723,373.666 265.121,373.01C265.518,372.356 265.717,371.69 265.717,371.011C265.717,370.029 265.291,369.188 264.437,368.486C263.584,367.785 262.175,367.434 260.211,367.434C259.299,367.434 258.317,367.493 257.264,367.609C256.213,367.726 255.108,367.849 253.95,367.977C252.793,368.106 251.589,368.229 250.338,368.346C249.087,368.463 247.818,368.521 246.532,368.521C243.726,368.521 241.336,368.217 239.36,367.609C237.383,367.002 235.776,366.171 234.537,365.119C233.298,364.067 232.397,362.822 231.837,361.383C231.275,359.946 230.995,358.397 230.995,356.737C230.995,354.632 231.486,352.692 232.467,350.915C233.45,349.137 234.853,347.6 236.676,346.302C238.501,345.004 240.704,343.994 243.288,343.268C245.872,342.544 248.754,342.181 251.933,342.181C253.593,342.181 255.33,342.281 257.142,342.479C258.954,342.678 260.737,342.941 262.491,343.268C264.245,343.596 265.927,343.976 267.542,344.408C269.155,344.841 270.581,345.302 271.82,345.794L268.558,353.861C265.916,352.879 263.28,352.101 260.649,351.528C258.019,350.956 255.312,350.669 252.53,350.669C250.589,350.669 248.946,350.815 247.602,351.107C246.258,351.4 245.165,351.786 244.323,352.264C243.481,352.744 242.867,353.294 242.481,353.913C242.095,354.533 241.903,355.182 241.903,355.86C241.903,356.351 242.002,356.795 242.201,357.192C242.399,357.59 242.727,357.935 243.182,358.227C243.638,358.52 244.235,358.742 244.971,358.893C245.708,359.045 246.614,359.122 247.69,359.122C248.672,359.122 249.712,359.063 250.811,358.946C251.91,358.83 253.056,358.707 254.249,358.578C255.441,358.45 256.674,358.327 257.949,358.21C259.223,358.092 260.527,358.034 261.859,358.034C264.338,358.034 266.507,358.327 268.366,358.911C270.224,359.496 271.761,360.314 272.977,361.366C274.193,362.419 275.105,363.658 275.714,365.084C276.321,366.51 276.626,368.065 276.626,369.749C276.626,371.923 276.122,373.946 275.117,375.817C274.112,377.687 272.615,379.306 270.628,380.674C268.64,382.042 266.168,383.112 263.21,383.883C260.252,384.655 256.832,385.041 252.951,385.041C250.566,385.041 248.262,384.894 246.042,384.602C243.82,384.31 241.704,383.913 239.693,383.41C237.681,382.908 235.794,382.317 234.029,381.638C232.262,380.961 230.656,380.236 229.206,379.464L233.695,371.608Z" style="fill-rule:nonzero;"/>
            <path id="Layer7" serif:id="Layer" d="M283.464,363.717C283.464,360.677 284.02,357.842 285.13,355.211C286.24,352.581 287.866,350.301 290.006,348.372C292.145,346.443 294.764,344.929 297.862,343.83C300.96,342.732 304.496,342.182 308.472,342.182C310.202,342.182 311.944,342.286 313.697,342.497C315.451,342.707 317.141,343.006 318.766,343.392C320.391,343.778 321.916,344.234 323.343,344.76C324.769,345.285 326.009,345.864 327.061,346.495L322.256,354.317C319.987,353.265 317.842,352.493 315.819,352.002C313.797,351.511 311.745,351.266 309.664,351.266C307.279,351.266 305.14,351.575 303.246,352.196C301.352,352.815 299.744,353.68 298.423,354.79C297.102,355.902 296.096,357.21 295.406,358.719C294.717,360.227 294.372,361.87 294.372,363.647C294.372,365.424 294.74,367.067 295.477,368.574C296.214,370.082 297.254,371.38 298.599,372.468C299.943,373.555 301.568,374.408 303.474,375.028C305.379,375.648 307.501,375.957 309.84,375.957C312.411,375.957 314.838,375.595 317.117,374.87C319.398,374.146 321.519,373.175 323.484,371.959L328.288,379.78C327.049,380.529 325.704,381.225 324.255,381.867C322.805,382.511 321.256,383.066 319.608,383.533C317.959,384.001 316.229,384.369 314.417,384.638C312.605,384.906 310.728,385.041 308.787,385.041C304.836,385.041 301.293,384.503 298.16,383.428C295.027,382.353 292.373,380.863 290.198,378.956C288.024,377.051 286.358,374.8 285.2,372.204C284.043,369.609 283.464,366.78 283.464,363.717Z" style="fill-rule:nonzero;"/>
            <path id="Layer8" serif:id="Layer" d="M339.477,326.152L349.859,326.152L349.859,346.074C352.034,344.881 354.459,343.935 357.137,343.233C359.814,342.532 362.625,342.181 365.572,342.181C368.986,342.181 372.054,342.684 374.779,343.689C377.502,344.695 379.812,346.139 381.706,348.021C383.6,349.903 385.055,352.189 386.073,354.878C387.089,357.567 387.598,360.594 387.598,363.962L387.598,384.304L377.251,384.304L377.251,364.382C377.251,362.419 376.936,360.625 376.304,358.999C375.673,357.374 374.749,355.977 373.534,354.807C372.318,353.638 370.838,352.733 369.097,352.089C367.355,351.447 365.384,351.125 363.187,351.125C360.544,351.125 358.089,351.546 355.822,352.387C353.553,353.229 351.566,354.294 349.859,355.579L349.859,384.304L339.477,384.304L339.477,326.152Z" style="fill-rule:nonzero;"/>
        </g>
    </g>
</svg>
