<?xml version="1.0" encoding="UTF-8" standalone="no"?>
<svg width="100%" height="100%" viewBox="0 0 479 315" version="1.1"
    xmlns="http://www.w3.org/2000/svg" xmlns:xlink="http://www.w3.org/1999/xlink"
    xml:space="preserve" xmlns:serif="http://www.serif.com/"
    style="fill-rule:evenodd;clip-rule:evenodd;stroke-linejoin:round;stroke-miterlimit:2;">
    <g id="Általánosszertár" transform="matrix(1,0,0,1,-47,-114)">
        <g transform="matrix(1,0,0,1,354.142,195.663)">
            <path d="M0,181.32C0,181.32 -0.475,181.338 -1.142,181.171C-1.809,181.004 -1.142,178.171 -1.142,178.171C-1.142,178.171 2.233,179.619 2.525,180.504C2.629,180.82 0,181.32 0,181.32M-22.725,145.504C-23.309,147.171 -25.642,146.254 -25.642,146.254L-32.142,142.671C-32.142,142.671 -31.142,142.171 -30.225,141.838C-29.309,141.504 -27.059,141.671 -25.559,141.838C-24.059,142.004 -22.142,143.838 -22.725,145.504M136.733,21.213C140.483,21.088 143.983,20.838 144.483,20.213C144.983,19.588 146.233,17.338 141.483,17.963C136.733,18.588 131.858,18.838 129.983,19.213C128.108,19.588 127.733,20.338 122.733,20.963C117.733,21.588 109.108,22.213 107.233,22.213C105.358,22.213 97.358,21.963 94.858,22.588C92.358,23.213 87.983,24.713 86.233,24.963C84.483,25.213 77.233,25.588 74.108,26.213C70.983,26.838 59.233,26.338 55.483,26.838C51.733,27.338 51.483,26.838 52.358,25.463C53.233,24.088 56.858,19.963 54.608,13.213C52.358,6.463 46.983,1.088 45.733,0.588C44.483,0.088 44.858,-0.287 42.233,-0.412C39.608,-0.537 35.233,-1.912 32.483,-0.412C29.733,1.088 27.108,4.088 25.858,10.213C24.608,16.338 22.983,15.213 22.733,18.213C22.483,21.213 20.733,24.588 22.108,25.963C23.483,27.338 16.483,25.838 15.108,25.713C13.733,25.588 10.483,25.088 8.358,24.463C6.233,23.838 2.608,21.588 -0.767,21.213C-4.142,20.838 -9.142,20.588 -10.392,19.713C-11.642,18.838 -17.017,18.338 -17.642,16.338C-18.267,14.338 -24.892,15.338 -24.892,16.088L-24.892,20.213C-24.892,20.213 -28.517,20.463 -27.892,21.838C-27.267,23.213 -22.142,22.963 -22.142,22.963L-17.517,22.213C-17.517,22.213 -15.517,23.963 -11.642,25.338C-7.767,26.713 -0.392,28.088 -0.392,28.088C-0.392,28.088 5.108,31.713 7.608,34.088C10.108,36.463 20.733,42.713 20.733,42.713L29.733,49.088L23.608,67.088C23.608,67.088 19.733,73.088 17.358,75.213C14.983,77.338 12.608,78.517 12.608,79.927C12.608,81.338 15.108,81.588 16.108,81.588C17.108,81.588 10.858,88.463 9.358,88.838C7.858,89.213 -9.517,114.213 -9.517,114.213C-9.517,114.213 -18.517,127.338 -20.142,128.463C-21.767,129.588 -25.036,131.213 -27.964,131.588C-30.892,131.963 -37.892,131.963 -39.142,132.213C-40.392,132.463 -43.142,132.463 -44.392,133.838C-45.642,135.213 -47.267,135.588 -47.767,135.588C-48.267,135.588 -49.017,136.088 -48.642,136.963C-48.267,137.838 -18.767,151.213 -18.767,151.213L-18.017,148.963L-20.848,147.324C-20.848,147.324 -15.825,142.717 -14.392,140.963C-12.565,138.727 -11.403,133.444 -9.829,131.025C-5.81,124.85 0.438,122.123 3.261,119.791C7.848,116 8.196,113.729 8.196,113.729L12.233,107.9L19.046,102.275C19.046,102.275 27.733,98.713 27.233,100.463C26.733,102.213 25.921,107.025 24.671,108.963C24.671,110.088 22.983,112.713 22.608,113.963C22.233,115.213 19.483,121.463 17.983,123.088C16.483,124.713 15.858,129.213 15.733,134.588C15.608,139.963 14.983,147.463 14.483,149.588C13.983,151.713 7.358,162.213 6.108,163.463C4.858,164.713 3.608,168.838 2.608,170.088C1.608,171.338 -0.517,173.463 -1.892,174.338C-3.267,175.213 -3.392,176.213 -3.392,176.963C-3.392,177.713 -3.486,182.425 -3.142,182.588C-1.777,183.232 9.483,179.963 11.358,179.463C13.233,178.963 12.483,176.963 12.483,176.963C12.483,176.963 15.233,177.088 15.483,175.838C15.733,174.588 14.108,167.588 14.108,167.588L17.483,160.963C17.483,160.963 26.108,147.838 27.108,145.463C28.108,143.088 27.108,134.713 27.108,133.213C27.108,131.713 30.608,125.088 32.608,123.463C34.608,121.838 40.108,110.463 40.108,110.463C40.108,110.463 48.358,103.713 50.108,100.338C51.858,96.963 52.608,98.963 52.608,98.963C52.608,98.963 59.733,99.338 62.483,96.713C65.233,94.088 64.483,86.963 64.483,86.963L61.233,85.713C61.233,85.713 58.858,87.463 57.608,85.713C56.358,83.963 49.733,72.213 49.733,72.213L49.733,64.088C49.733,64.088 52.983,57.963 54.233,53.088C55.483,48.213 58.608,40.713 58.608,40.713L62.608,38.088C62.608,38.088 81.108,34.838 83.733,33.088C86.358,31.338 91.483,31.963 91.483,31.963C91.483,31.963 99.483,31.713 104.108,30.338C108.733,28.963 118.358,25.338 118.358,25.338L124.233,25.338C124.233,25.338 126.483,26.088 130.858,26.088C135.233,26.088 137.358,26.838 137.358,26.838C137.358,26.838 139.358,25.963 138.233,25.338C137.108,24.713 136.608,24.463 134.858,24.463C133.108,24.463 131.108,24.213 132.483,22.963C133.858,21.713 132.983,21.338 136.733,21.213" style="fill:rgb(127,127,127);fill-rule:nonzero;"/>
        </g>
        <g transform="matrix(1,0,0,1,130.625,259.125)">
            <path d="M0,54.625L58.875,103.125L72.125,103.125L72.125,99.875L66.375,99.25L43.625,82.375C43.625,82.375 38.125,73.375 36.875,62.875C35.625,52.375 37,42.875 37.5,40.375C38,37.875 38.75,36.75 38.75,36.75L52.125,54.75C52.125,54.75 54.75,60.875 56.875,63.75C59,66.625 65.25,74.5 67.375,76.125C69.5,77.75 69,90.375 69,90.375L128.375,125C128.375,125 133.625,127.75 136,126.75C138.375,125.75 142,122.625 142,122.625C142,122.625 142.875,121 140.375,120C137.875,119 99,100 99,100C99,100 95.375,89.5 91.75,87.25C88.125,85 85.75,83.625 85.75,83.625C85.75,83.625 83.375,76.875 81.875,71.25C80.375,65.625 79.125,59.125 77.5,56.75C75.875,54.375 56.125,27.375 56.125,27.375L45.875,9.875C45.875,9.875 43,3.75 43.625,3.125C44.25,2.5 52.25,-5.875 52.25,-5.875C52.25,-5.875 53.625,-9.125 57,-7.125C60.375,-5.125 66.75,-1 66.75,-1L83.875,-4.125L94.292,-9.625L94.708,-8.125L94.708,36.625L97.708,72.792L99.208,72.708L97.708,35.542L97.208,-11.792L103.792,-17.292L104.292,-21.458C104.292,-21.458 102.625,-23.708 101.208,-24.208C99.792,-24.708 99.292,-27.375 93.958,-22.708C88.625,-18.042 88.375,-17.625 86.292,-17.708C84.208,-17.792 81.042,-20.208 78.458,-20.375C75.875,-20.542 71.708,-20.375 69.042,-21.375C66.375,-22.375 64.458,-23.296 63.542,-25.419C62.625,-27.542 61.042,-35.208 58.625,-37.458C56.208,-39.708 54.042,-41.958 55.042,-42.708C56.042,-43.458 57.125,-45.458 61.042,-44.542C64.958,-43.625 68.542,-53.542 68.542,-53.542C68.542,-53.542 67.042,-54.958 67.458,-55.875C67.875,-56.792 68.125,-56.542 68.875,-57.042C69.625,-57.542 67.458,-66.125 65.958,-67.042C64.458,-67.958 62.875,-72.625 52.625,-72.875C42.375,-73.125 39.208,-58.542 39.208,-58.542C39.208,-58.542 32.875,-53.292 27.792,-52.708C22.708,-52.125 20.042,-52.958 18.625,-52.042C17.208,-51.125 12.375,-43.208 10.125,-41.458C7.875,-39.708 3.792,-39.125 3.875,-31.375C3.958,-23.625 1.625,-11.042 1.625,-11.042L-74.125,16.208L-75.208,13.958C-75.208,13.958 -76.625,13.042 -77.375,14.125C-78.125,15.208 -77.375,18.125 -77.375,18.125L-82.875,19.375L-82.208,22.208L-76.875,20.708C-76.875,20.708 -75.625,22.708 -74.458,22.542C-73.292,22.375 -73.125,18.792 -73.125,18.792L2.542,-8.625L4.125,-3.792L3.875,1.875L0.292,10.875C0.292,10.875 -2.625,17.375 7.458,23.875C17.542,30.375 4.958,44.042 4.958,44.042L0,54.625Z" style="fill:rgb(127,127,127);fill-rule:nonzero;"/>
        </g>
        <g transform="matrix(1,0,0,1,262.166,177.07)">
            <path d="M0,58.764L19.167,32.676L38.333,58.764L0,58.764ZM60.549,59.347L20.146,4.78L25.256,-2.121L23.175,-3.662L18.535,2.604L18.532,2.6L18.531,2.602L13.889,-3.667L11.808,-2.126L16.92,4.778L-23.485,59.347L-30.28,59.347L-30.28,62.431L67.345,62.431L67.345,59.347L60.549,59.347Z" style="fill:rgb(127,127,127);fill-rule:nonzero;"/>
        </g>
        <g transform="matrix(1,0,0,1,144.547,199.414)">
            <path d="M0,-65.831C-2.074,-61.579 -3.218,-59.405 -5.633,-54.991C-8.58,-54.192 -10.069,-53.786 -13.076,-52.963C-12.101,-57.013 -11.691,-59.006 -11.158,-62.886C-6.62,-64.092 -4.385,-64.683 0,-65.831M-8.777,-17.835C-12.195,-16.792 -13.915,-16.262 -17.38,-15.19C-17.122,-16.678 -16.977,-17.427 -16.668,-18.93C-13.737,-19.825 -12.281,-20.268 -9.386,-21.143C-11.716,-31.1 -12.104,-36.389 -15.219,-46.292C-14.936,-47.687 -14.802,-48.382 -14.556,-49.763C-8.714,-51.377 -5.843,-52.167 -0.225,-53.69C2.996,-41.928 4.19,-29.786 6.948,-17.922C7.298,-16.369 7.401,-15.279 8.983,-15.04C9.775,-14.921 10.394,-14.69 10.451,-13.649C10.536,-12.087 8.575,-11.563 7.532,-11.249C2.067,-9.607 -0.672,-8.754 -6.193,-7.012C-7.302,-6.662 -8.953,-6.258 -9.174,-7.746C-9.311,-8.662 -9.005,-9.059 -8.318,-9.693C-6.95,-11.021 -6.778,-11.489 -7.437,-13.623C-8.009,-15.292 -8.274,-16.136 -8.777,-17.835M-14.932,-34.238C-17.496,-25.153 -18.999,-20.519 -20.459,-11.742C-21.064,-7.842 -19.997,-7.146 -17.907,-6.903C-16.924,-6.791 -16.081,-6.698 -15.866,-5.559C-15.565,-3.964 -17.349,-3.451 -18.474,-3.088C-21.062,-2.254 -22.361,-1.833 -24.973,-0.987C-26.109,-0.619 -28.207,0 -28.64,-1.637C-28.998,-2.992 -27.967,-3.256 -26.838,-4.296C-25.751,-5.299 -24.534,-7.108 -23.811,-11.669C-22.117,-21.428 -19.325,-31.084 -16.71,-40.624C-16.633,-40.646 -16.594,-40.657 -16.517,-40.679C-15.823,-38.116 -15.52,-36.823 -14.932,-34.238" style="fill-rule:nonzero;"/>
        </g>
        <g transform="matrix(1,0,0,1,176.693,144.9)">
            <path d="M0,33.005C4.479,31.225 7.157,26.524 8.76,20.697C9.141,19.318 9.832,18.804 10.979,18.542C12.234,18.255 12.249,19.369 12.165,20.502C11.768,25.796 11.609,28.428 11.567,33.595C6.909,34.648 4.592,35.209 -0.034,36.388C-0.04,35.042 -0.033,34.365 0,33.005M-2.499,37.024C-8.282,38.531 -11.163,39.332 -16.941,41.001C-17.16,41.064 -18.991,41.48 -19.059,39.798C-19.092,38.986 -18.605,38.316 -17.889,37.874C-15.961,36.673 -16.035,36.347 -15.994,34.161C-15.686,23.564 -14.348,12.987 -13.407,2.436C-13.24,0.195 -13.16,-0.183 -15.207,-0.3C-15.967,-0.338 -16.479,-0.739 -16.446,-1.579C-16.379,-3.321 -14.408,-3.952 -14.169,-4.014C-7.408,-5.765 -4.134,-6.591 2.152,-8.103C2.374,-8.156 4.197,-8.475 4.08,-6.74C4.023,-5.903 3.489,-5.245 2.753,-4.833C0.771,-3.707 0.8,-3.358 0.603,-1.127C-0.659,11.569 -2.462,24.241 -2.499,37.024" style="fill-rule:nonzero;"/>
        </g>
        <g transform="matrix(1,0,0,1,221.332,163.198)">
            <path d="M0,-20.771C0.018,-20.538 -0.008,-19.073 -1.407,-18.903C-2.712,-18.744 -3.021,-20.229 -3.217,-21.496C-3.768,-24.541 -4.545,-28.329 -6.867,-30.171C-6.899,-31.531 -6.916,-32.209 -6.953,-33.567C-4.498,-33.918 -3.312,-34.069 -1.027,-34.318C-0.604,-28.903 -0.403,-26.192 0,-20.771M-20.137,-31.317C-15.412,-32.233 -13.157,-32.63 -8.892,-33.28C-8.75,-20.822 -8.899,-8.363 -8.721,4.095C-8.683,6.259 -8.734,6.611 -6.745,6.961C-6.006,7.086 -5.478,7.538 -5.444,8.353C-5.374,10.04 -7.25,10.43 -7.479,10.464C-13.93,11.428 -17.109,11.991 -23.418,13.246C-23.642,13.29 -25.485,13.547 -25.458,11.853C-25.446,11.035 -24.934,10.404 -24.208,10.024C-22.255,8.988 -22.312,8.655 -22.244,6.479C-21.775,-6.134 -20.675,-18.708 -20.137,-31.317M-29.57,-29.37C-26.6,-30.017 -25.149,-30.321 -22.325,-30.886C-22.383,-29.513 -22.417,-28.824 -22.492,-27.446C-25.184,-24.732 -26.217,-20.624 -26.95,-17.348C-27.216,-15.997 -27.61,-14.384 -29.085,-14.064C-30.665,-13.721 -30.687,-15.185 -30.664,-15.426C-30.139,-21.029 -29.875,-23.833 -29.57,-29.37" style="fill-rule:nonzero;"/>
        </g>
        <g transform="matrix(1,0,0,1,244.484,139.562)">
            <path d="M0,19.556C-3.604,19.818 -5.415,19.962 -9.063,20.279C-8.786,18.902 -8.645,18.213 -8.357,16.836C-5.264,16.573 -3.729,16.451 -0.676,16.227C-3.381,6.128 -4.852,1.091 -8.153,-8.952C-7.841,-10.236 -7.683,-10.879 -7.363,-12.163C-1.07,-12.655 1.97,-12.866 7.902,-13.216C11.107,-1.185 13.947,10.942 16.519,23.123C16.822,24.74 16.844,25.843 18.48,26.474C19.299,26.789 19.935,27.173 19.891,28.223C19.824,29.798 17.702,29.825 16.58,29.874C10.701,30.136 7.761,30.305 1.88,30.719C0.7,30.803 -1.015,30.814 -1.045,29.302C-1.063,28.371 -0.712,28.054 0.06,27.589C1.602,26.602 1.848,26.18 1.278,23.949C0.775,22.191 0.52,21.312 0,19.556M-7.377,2.586C-9.565,10.737 -10.574,14.814 -12.335,22.966C-13.074,26.596 -12.122,27.497 -10.024,28.183C-9.037,28.502 -8.181,28.777 -8.121,29.938C-8.036,31.564 -9.928,31.675 -11.109,31.785C-13.825,32.04 -15.208,32.174 -17.891,32.462C-19.058,32.587 -21.152,32.772 -21.287,31.089C-21.398,29.697 -20.402,29.642 -19.229,28.861C-18.098,28.108 -16.651,26.595 -15.835,22.364C-13.755,11.894 -12.485,6.656 -9.667,-3.816C-9.584,-3.823 -9.542,-3.826 -9.459,-3.833C-8.604,-1.268 -8.188,0.016 -7.377,2.586" style="fill-rule:nonzero;"/>
        </g>
        <g transform="matrix(1,0,0,1,287.797,128.863)">
            <path d="M0,36.637C4.831,36.009 7.84,31.983 9.478,26.583C9.867,25.306 10.604,24.969 11.847,24.998C13.208,25.031 13.246,26.143 13.165,27.251C12.783,32.428 12.591,35.016 12.209,40.193C7.233,40.069 4.745,40.035 -0.233,40.021C-0.14,38.668 -0.093,37.991 0,36.637M-2.888,40.021C-9.118,40.033 -12.233,40.082 -18.466,40.268C-18.702,40.275 -20.644,40.22 -20.564,38.528C-20.526,37.712 -19.967,37.168 -19.184,36.91C-17.076,36.204 -17.115,35.859 -17.001,33.7C-16.467,23.508 -15.932,13.316 -15.397,3.124C-15.284,0.965 -15.195,0.608 -17.364,0.035C-18.17,-0.172 -18.714,-0.678 -18.675,-1.495C-18.595,-3.187 -16.502,-3.37 -16.25,-3.378C-9.116,-3.59 -5.652,-3.638 1.205,-3.628C1.447,-3.628 3.433,-3.504 3.316,-1.811C3.259,-0.994 2.681,-0.472 1.88,-0.242C-0.277,0.393 -0.243,0.748 -0.388,2.907C-1.221,15.278 -2.055,27.649 -2.888,40.021" style="fill-rule:nonzero;"/>
        </g>
        <g transform="matrix(1,0,0,1,334.054,170.829)">
            <path d="M0,-55.442C-2.841,-52.028 -4.241,-50.313 -7.021,-46.865C-9.75,-47.061 -11.106,-47.15 -13.813,-47.313C-12.308,-50.87 -11.553,-52.646 -10.034,-56.193C-6.056,-55.929 -4.056,-55.778 0,-55.442M-12.282,-12.148C-15.739,-12.367 -17.465,-12.463 -20.917,-12.629C-20.481,-13.964 -20.265,-14.631 -19.829,-15.965C-16.941,-15.821 -15.498,-15.739 -12.604,-15.558C-14.181,-25.989 -14.982,-31.204 -16.595,-41.628C-16.187,-42.867 -15.983,-43.487 -15.575,-44.727C-10.296,-44.426 -7.648,-44.243 -2.277,-43.816C-0.27,-31.344 1.678,-18.863 3.513,-6.365C3.718,-4.709 3.675,-3.604 5.263,-2.752C6.058,-2.325 6.666,-1.857 6.564,-0.814C6.411,0.751 4.3,0.491 3.182,0.389C-2.679,-0.147 -5.61,-0.376 -11.476,-0.758C-12.653,-0.835 -14.352,-1.055 -14.231,-2.567C-14.158,-3.497 -13.781,-3.767 -12.981,-4.127C-11.379,-4.903 -11.109,-5.292 -11.458,-7.594C-11.786,-9.416 -11.951,-10.326 -12.282,-12.148M-17.254,-30.032C-20.105,-22.192 -21.522,-18.262 -24.348,-10.387C-25.562,-6.875 -24.812,-5.853 -22.872,-4.89C-21.96,-4.44 -21.162,-4.051 -21.251,-2.887C-21.377,-1.257 -23.258,-1.402 -24.436,-1.452C-27.146,-1.566 -28.503,-1.614 -31.214,-1.696C-32.394,-1.731 -34.512,-1.843 -34.387,-3.533C-34.284,-4.933 -33.268,-4.844 -31.939,-5.455C-30.658,-6.045 -28.96,-7.351 -27.526,-11.446C-23.922,-21.575 -22.113,-26.627 -18.471,-36.701C-18.399,-36.698 -18.363,-36.696 -18.292,-36.692C-17.876,-34.028 -17.668,-32.696 -17.254,-30.032" style="fill-rule:nonzero;"/>
        </g>
        <g transform="matrix(1,0,0,1,379.039,161.926)">
            <path d="M0,-18.249C0.665,-26.527 -4.259,-25.208 -3.966,-27.866C-3.787,-29.484 -1.85,-29.25 -1.271,-29.142C1.881,-28.555 3.443,-28.246 6.549,-27.6C7.119,-27.481 8.979,-26.967 8.828,-25.349C8.58,-22.692 4,-25.87 3.396,-17.591C2.985,-11.963 2.844,-9.144 2.402,-3.519C2.354,-3.528 2.329,-3.532 2.28,-3.542C1.114,-6.14 0.527,-7.437 -0.631,-10.026C-0.38,-13.315 -0.264,-14.961 0,-18.249M1.994,1.224C1.466,6.818 1.15,9.611 0.132,15.163C-3.516,14.475 -5.336,14.148 -8.961,13.535C-14.673,0.169 -20.797,-12.977 -26.98,-26.13C-27.791,-27.864 -28.002,-28.771 -29.987,-29.624C-31.01,-30.084 -31.812,-30.399 -31.682,-31.674C-31.505,-33.412 -29.608,-33.217 -28.294,-33.132C-21.891,-32.433 -18.776,-32.019 -12.657,-31.078C-7.966,-20.223 -2.977,-9.505 1.994,1.224M-27.789,-22.062C-27.74,-22.056 -27.715,-22.054 -27.666,-22.048C-26.536,-19.575 -25.976,-18.336 -24.853,-15.852C-25.595,-8.859 -25.956,-5.362 -26.764,1.626C-26.629,8.975 -22.52,7.222 -22.86,9.704C-23.107,11.493 -25.549,11.052 -26.204,10.969C-28.926,10.622 -30.28,10.462 -32.974,10.169C-33.622,10.099 -36.047,9.964 -35.864,8.168C-35.611,5.678 -32.052,8.336 -30.282,1.211C-29.254,-8.096 -28.779,-12.752 -27.789,-22.062" style="fill-rule:nonzero;"/>
        </g>
        <g transform="matrix(1,0,0,1,410.008,142.298)">
            <path d="M0,38.957C3.039,38.693 3.519,37.044 3.666,35.609C4.578,25.694 4.062,15.57 3.889,5.635C3.894,4.187 3.699,2.385 1.102,0.692C1.155,-0.647 1.189,-1.316 1.283,-2.653C12.505,1.714 18.51,13.542 19.521,24.858C20.565,36.566 10.768,44.571 -0.621,42.265C-0.338,40.944 -0.215,40.283 0,38.957M-1.422,0.019C-4.103,0.304 -4.406,1.987 -4.443,3.435C-4.521,13.389 -4.304,23.494 -5.326,33.412C-5.488,34.849 -5.487,36.62 -2.761,38.286C-2.977,39.613 -3.1,40.275 -3.381,41.596C-15.007,37.945 -20.472,26.252 -20.031,14.908C-19.639,4.765 -12.757,-5.614 -1.224,-3.327C-1.322,-1.991 -1.361,-1.321 -1.422,0.019" style="fill-rule:nonzero;"/>
        </g>
        <g transform="matrix(1,0,0,1,463.071,177.836)">
            <path d="M0,-10.033C0.134,-8.711 0.054,-7.352 -1.669,-7.909C-3.095,-8.371 -3.749,-9.636 -4.048,-10.845C-5.144,-15.317 -9.019,-20.874 -13.58,-23.313C-13.604,-24.643 -13.602,-25.307 -13.56,-26.632C-9.889,-25.387 -5.953,-21.923 -5.3,-21.709C-3.756,-21.205 -3.837,-23.295 -2.277,-22.783C-0.418,-22.175 -0.582,-20.28 -0.583,-19.824C-0.584,-15.928 -0.398,-13.964 0,-10.033M-29.502,-0.94C-29.5,-2.149 -29.3,-3.699 -27.627,-3.215C-26.433,-2.87 -25.565,-1.702 -25.372,-0.671C-24.471,4.18 -21.725,10.782 -16.677,13.363C-16.908,14.674 -17.048,15.326 -17.387,16.628C-22.495,14.977 -23.214,12.683 -25.373,12.062C-27.292,11.51 -27.51,13.427 -29.013,13.002C-30.875,12.475 -30.443,10.383 -30.394,10.1C-29.615,5.72 -29.51,3.506 -29.502,-0.94M-16.195,-24.153C-18.386,-24.112 -20.254,-23.103 -20.107,-20.737C-19.931,-17.909 -18.23,-15.697 -10.944,-10.828C-0.118,-3.593 3.043,2.627 3.153,7.874C3.338,16.714 -5.991,19.896 -14.734,17.427C-14.388,16.128 -14.245,15.475 -14.008,14.166C-11.015,14.18 -8.31,13.688 -7.972,10.607C-7.584,7.074 -12.101,4.206 -14.991,2.132C-22.577,-3.194 -29.734,-8.506 -30.402,-17.606C-31.049,-26.417 -24.7,-29.929 -16.174,-27.475C-16.216,-26.149 -16.218,-25.484 -16.195,-24.153" style="fill-rule:nonzero;"/>
        </g>
        <g transform="matrix(1,0,0,1,122.312,292.133)">
            <path d="M0,-33.32C0,-31.105 -0.385,-28.697 -3.178,-28.697C-5.489,-28.697 -6.355,-30.527 -6.645,-32.453C-7.704,-39.579 -13.674,-46.898 -21.186,-48.535L-21.186,-54.12C-15.119,-54.024 -8.667,-50.364 -7.607,-50.364C-5.104,-50.364 -5.296,-53.831 -2.792,-53.831C0.193,-53.831 0,-50.557 0,-49.787L0,-33.32ZM-50.268,-2.216C-50.268,-4.238 -49.882,-6.934 -47.186,-6.934C-45.26,-6.934 -43.912,-5.393 -43.623,-3.756C-42.275,3.948 -36.882,13.481 -28.408,15.215L-28.408,20.8C-36.786,20.607 -38.616,17.237 -42.082,17.237C-45.164,17.237 -44.875,20.414 -47.282,20.414C-50.268,20.414 -50.268,16.851 -50.268,16.37L-50.268,-2.216ZM-25.519,-48.535C-29.178,-47.283 -32.356,-44.587 -32.356,-40.638C-32.356,-35.92 -29.756,-33.031 -18.296,-28.601C-1.252,-22.053 2.6,-13.001 2.6,-4.141C2.6,10.785 -9.822,20.511 -24.075,20.8L-24.075,15.215C-19.452,13.77 -15.504,11.651 -15.312,6.355C-15.119,0.288 -22.245,-2.216 -26.867,-4.238C-39,-9.341 -50.268,-14.831 -50.268,-29.949C-50.268,-44.587 -39.675,-53.639 -25.519,-54.12L-25.519,-48.535Z" style="fill-rule:nonzero;"/>
        </g>
        <g transform="matrix(1,0,0,1,183.272,239.458)">
            <path d="M0,72.031L-24.845,72.031L-22.341,66.446C-12.326,64.327 -9.052,61.342 -5.585,52.483C-5.104,50.845 -4.623,49.594 -2.793,49.594C-0.097,49.594 -0.097,51.808 -0.097,52.386L0,72.031ZM-50.46,0L-27.252,0L-29.66,5.585C-37.557,7.126 -42.949,11.844 -44.875,18.97C-45.356,20.608 -45.838,21.86 -47.764,21.86C-50.46,21.86 -50.46,19.645 -50.46,19.067L-50.46,0ZM0,6.067L-29.179,72.031L-52.29,72.031L-52.29,66.831L-22.919,0L0,0L0,6.067Z" style="fill-rule:nonzero;"/>
        </g>
        <g transform="matrix(1,0,0,1,222.274,245.042)">
            <path d="M0,60.861C7.8,59.898 13.771,54.602 16.371,46.898C17.044,45.453 17.623,43.913 19.356,43.913C22.437,43.913 22.148,46.801 22.148,47.187L22.148,66.446L0,66.446L0,60.861ZM0,26.579C4.044,25.52 5.874,21.764 6.741,18.105C7.222,16.467 7.8,14.927 9.822,14.927C12.808,14.927 12.326,18.394 12.326,19.164L12.326,39.965C12.326,40.735 12.808,44.201 9.822,44.201C7.8,44.201 7.222,42.661 6.741,41.024C5.874,37.364 4.044,33.609 0,32.549L0,26.579ZM0,-5.585L21.475,-5.585L21.475,13.964C21.475,14.445 21.378,16.275 18.489,16.275C16.852,16.275 16.371,15.312 15.889,13.868C13.385,6.068 8.474,1.349 0,0.001L0,-5.585ZM-29.756,-5.585L-4.333,-5.585L-4.333,66.446L-29.756,66.446C-30.142,66.446 -33.319,66.254 -33.319,63.461C-33.319,62.113 -32.453,61.246 -31.201,60.861C-27.83,59.802 -27.927,59.224 -27.927,55.661L-27.927,5.201C-27.927,1.638 -27.83,1.06 -31.201,0.001C-32.453,-0.385 -33.319,-1.251 -33.319,-2.599C-33.319,-5.392 -30.142,-5.585 -29.756,-5.585" style="fill-rule:nonzero;"/>
        </g>
        <g transform="matrix(1,0,0,1,286.893,312.741)">
            <path d="M0,-73.284L0.481,-73.284C6.741,-73.284 13.29,-73.476 19.067,-70.684C25.519,-67.506 28.793,-62.209 28.89,-54.891C29.083,-43.817 21.764,-39.002 11.941,-36.69L11.941,-36.498C20.512,-35.246 28.697,-32.742 28.89,-22.534L28.89,-14.06C28.89,-13.194 28.601,-11.268 29.853,-11.268C31.393,-11.268 31.682,-14.06 33.994,-14.06C35.246,-14.06 36.787,-12.616 36.787,-11.268C36.787,-8.475 33.608,-4.912 31.49,-3.275C28.215,-0.578 24.749,0.192 20.608,0.192C16.467,0.192 12.711,-0.867 9.726,-3.853C6.355,-7.32 5.874,-11.556 5.874,-16.083L5.874,-22.631C5.874,-27.061 5.778,-32.453 0,-33.031L0,-38.713C5.2,-39.194 5.874,-42.372 5.874,-47.091L5.874,-58.743C5.874,-63.558 4.815,-65.869 0,-67.602L0,-73.284ZM-27.927,-62.498C-27.927,-66.061 -27.831,-66.639 -31.201,-67.699C-32.453,-68.084 -33.319,-68.951 -33.319,-70.299C-33.319,-73.091 -30.142,-73.284 -29.756,-73.284L-4.333,-73.284L-4.333,-12.038C-4.333,-8.475 -4.43,-7.897 -1.06,-6.838C0.192,-6.453 1.059,-5.586 1.059,-4.238C1.059,-1.445 -2.119,-1.253 -2.504,-1.253L-29.756,-1.253C-30.142,-1.253 -33.319,-1.445 -33.319,-4.238C-33.319,-5.586 -32.453,-6.453 -31.201,-6.838C-27.831,-7.897 -27.927,-8.475 -27.927,-12.038L-27.927,-62.498Z" style="fill-rule:nonzero;"/>
        </g>
        <g transform="matrix(1,0,0,1,384.641,289.052)">
            <path d="M0,-27.157C0,-26.772 -0.289,-24.364 -3.178,-24.364C-5.874,-24.364 -6.355,-26.868 -6.645,-28.987C-7.511,-34.09 -8.859,-40.446 -13.867,-44.009L-13.867,-49.594L0,-49.594L0,-27.157ZM-41.793,-49.594L-18.2,-49.594L-18.2,11.652C-18.2,15.215 -18.297,15.792 -14.926,16.851C-13.674,17.237 -12.808,18.103 -12.808,19.451C-12.808,22.244 -15.985,22.437 -16.371,22.437L-43.623,22.437C-44.008,22.437 -47.187,22.244 -47.187,19.451C-47.187,18.103 -46.319,17.237 -45.067,16.851C-41.697,15.792 -41.793,15.215 -41.793,11.652L-41.793,-49.594ZM-59.994,-49.594L-46.127,-49.594L-46.127,-44.009C-51.135,-40.446 -52.482,-34.09 -53.35,-28.987C-53.638,-26.868 -54.119,-24.364 -56.815,-24.364C-59.705,-24.364 -59.994,-26.772 -59.994,-27.157L-59.994,-49.594Z" style="fill-rule:nonzero;"/>
        </g>
        <g transform="matrix(1,0,0,1,432.888,311.585)">
            <path d="M0,-91.58L-9.918,-76.558L-20.8,-76.558L-15.889,-91.58L0,-91.58ZM-13.866,-18.778L-27.926,-18.778L-26.578,-24.364L-14.829,-24.364L-24.556,-66.928L-23.304,-72.128L-2.021,-72.128L12.423,-11.267C13.001,-8.571 13.097,-6.741 15.793,-5.585C17.142,-5.008 18.201,-4.334 18.201,-2.601C18.201,0 14.734,-0.097 12.904,-0.097L-11.074,-0.097C-13,-0.097 -15.792,-0.289 -15.792,-2.793C-15.792,-4.334 -15.215,-4.815 -13.963,-5.489C-11.459,-6.934 -11.074,-7.608 -11.94,-11.364L-13.866,-18.778ZM-24.17,-47.764L-33.223,-14.83C-34.764,-8.956 -33.415,-7.319 -30.141,-5.874C-28.601,-5.201 -27.252,-4.622 -27.252,-2.697C-27.252,0 -30.333,-0.097 -32.26,-0.097L-43.334,-0.097C-45.26,-0.097 -48.727,-0.193 -48.727,-2.986C-48.727,-5.297 -47.09,-5.201 -44.971,-6.26C-42.948,-7.319 -40.349,-9.534 -38.519,-16.371L-26.963,-58.646L-26.674,-58.646L-24.17,-47.764Z" style="fill-rule:nonzero;"/>
        </g>
        <g transform="matrix(1,0,0,1,489.995,312.741)">
            <path d="M0,-73.284L0.481,-73.284C6.741,-73.284 13.289,-73.476 19.067,-70.684C25.52,-67.506 28.794,-62.209 28.89,-54.891C29.082,-43.817 21.764,-39.002 11.941,-36.69L11.941,-36.498C20.512,-35.246 28.697,-32.742 28.89,-22.534L28.89,-14.06C28.89,-13.194 28.601,-11.268 29.853,-11.268C31.394,-11.268 31.683,-14.06 33.993,-14.06C35.245,-14.06 36.786,-12.616 36.786,-11.268C36.786,-8.475 33.608,-4.912 31.49,-3.275C28.216,-0.578 24.749,0.192 20.608,0.192C16.468,0.192 12.712,-0.867 9.727,-3.853C6.356,-7.32 5.874,-11.556 5.874,-16.083L5.874,-22.631C5.874,-27.061 5.778,-32.453 0,-33.031L0,-38.713C5.2,-39.194 5.874,-42.372 5.874,-47.091L5.874,-58.743C5.874,-63.558 4.815,-65.869 0,-67.602L0,-73.284ZM-27.926,-62.498C-27.926,-66.061 -27.83,-66.639 -31.2,-67.699C-32.452,-68.084 -33.319,-68.951 -33.319,-70.299C-33.319,-73.091 -30.141,-73.284 -29.756,-73.284L-4.333,-73.284L-4.333,-12.038C-4.333,-8.475 -4.43,-7.897 -1.059,-6.838C0.193,-6.453 1.06,-5.586 1.06,-4.238C1.06,-1.445 -2.118,-1.253 -2.504,-1.253L-29.756,-1.253C-30.141,-1.253 -33.319,-1.445 -33.319,-4.238C-33.319,-5.586 -32.452,-6.453 -31.2,-6.838C-27.83,-7.897 -27.926,-8.475 -27.926,-12.038L-27.926,-62.498Z" style="fill-rule:nonzero;"/>
        </g>
        <g transform="matrix(1,0,0,1,127.811,375.956)">
            <path d="M0,-7.87C-0.45,-6.578 -1.183,-5.256 -2.941,-5.901C-4.396,-6.435 -4.56,-7.705 -4.339,-8.893C-3.518,-13.286 -5.663,-18.907 -9.888,-21.663C-9.398,-22.953 -9.153,-23.599 -8.663,-24.889C-5.007,-23.382 -1.846,-19.776 -1.198,-19.534C0.335,-18.961 0.936,-21.023 2.464,-20.463C4.286,-19.796 3.504,-17.931 3.348,-17.482C2.009,-13.637 1.339,-11.715 0,-7.87M-38.707,-2.706C-38.219,-3.855 -37.325,-5.277 -35.613,-4.53C-34.39,-3.997 -33.897,-2.749 -34.1,-1.736C-35.06,3.03 -33.797,9.997 -28.622,13.256C-29.124,14.541 -29.375,15.184 -29.877,16.469C-35.371,14.109 -35.783,11.647 -38.052,10.675C-40.068,9.812 -40.633,11.704 -42.211,11.016C-44.167,10.162 -43.306,8.132 -43.19,7.859C-41.397,3.633 -40.5,1.52 -38.707,-2.706M-12.53,-22.716C-15.039,-22.89 -17.589,-22.142 -18.489,-19.875C-19.564,-17.165 -18.665,-14.791 -12.453,-9.439C-3.221,-1.485 -2.459,4.591 -4.242,9.77C-7.247,18.492 -17.512,21.227 -27.011,17.624C-26.517,16.336 -26.269,15.692 -25.774,14.403C-22.413,14.785 -19.349,14.552 -18.096,11.537C-16.661,8.084 -20.742,4.827 -23.259,2.463C-29.912,-3.623 -35.663,-9.877 -32.016,-18.472C-28.484,-26.792 -19.958,-29.097 -11.287,-25.934C-11.784,-24.647 -12.033,-24.003 -12.53,-22.716" style="fill-rule:nonzero;"/>
        </g>
        <g transform="matrix(1,0,0,1,162.906,372.815)">
            <path d="M0,26.893C1.214,27.219 1.694,28.345 1.42,29.367C0.17,34.021 -9.622,38.877 -16.344,36.64C-15.966,35.31 -15.776,34.646 -15.398,33.317C-10.129,33.821 -5.123,32.045 -2.593,28.166C-1.952,27.291 -1.343,26.533 0,26.893M-3.661,-7.927C-1.469,-7.216 2.532,-3.662 4.097,-3.23C5,-2.981 5.453,-3.228 6.01,-3.879C6.567,-4.529 7.106,-4.877 7.946,-4.651C9.866,-4.135 9.412,-2.349 9.338,-2.061C7.977,3.298 7.296,5.976 5.934,11.335C5.861,11.623 5.405,13.418 3.415,12.883C2.109,12.532 1.621,11.348 1.662,10.185C1.839,5.231 0.574,-1.519 -4.606,-4.605C-4.229,-5.934 -4.04,-6.598 -3.661,-7.927M-19.279,35.762C-32.162,32.678 -36.85,19.248 -33.173,7.704C-29.528,-3.739 -18.562,-11.984 -6.345,-8.73C-6.73,-7.403 -6.923,-6.739 -7.309,-5.413C-10.356,-5.711 -12.018,-3.681 -12.735,-1.285C-15.435,7.728 -18.133,16.742 -20.833,25.755C-21.55,28.151 -21.223,30.819 -18.314,32.445C-18.7,33.772 -18.893,34.435 -19.279,35.762" style="fill-rule:nonzero;"/>
        </g>
        <g transform="matrix(1,0,0,1,200.266,395.028)">
            <path d="M0,5.08C-2.244,4.649 -3.365,4.427 -5.604,3.97C-5.338,2.613 -5.205,1.934 -4.939,0.578C-2.714,1.032 -1.601,1.252 0.628,1.68L3.087,-11.626C3.488,-13.795 3.61,-14.13 1.589,-15.195C0.838,-15.586 0.389,-16.223 0.546,-17.043C0.872,-18.741 2.901,-18.462 3.144,-18.414C10.028,-17.074 13.48,-16.468 20.396,-15.383C20.641,-15.344 22.641,-14.916 22.391,-13.205C22.27,-12.378 21.639,-11.931 20.804,-11.819C18.553,-11.504 18.558,-11.147 18.224,-8.966C16.646,1.327 15.067,11.621 13.488,21.914C13.154,24.094 13.03,24.442 15.25,25.45C16.075,25.819 16.594,26.439 16.473,27.266C16.223,28.976 14.007,28.756 13.741,28.714C6.203,27.531 2.441,26.871 -5.062,25.41C-5.327,25.359 -7.491,24.81 -7.165,23.112C-7.007,22.293 -6.313,21.885 -5.413,21.819C-2.986,21.628 -2.989,21.258 -2.589,19.089C-1.553,13.485 -1.036,10.684 0,5.08M-11.287,17.341C-11.724,19.502 -11.864,19.844 -9.689,20.959C-8.881,21.369 -8.391,22.015 -8.55,22.834C-8.88,24.53 -11.087,24.201 -11.352,24.145C-18.841,22.592 -22.576,21.746 -30.019,19.915C-30.282,19.851 -32.423,19.195 -32.018,17.515C-31.821,16.704 -31.107,16.331 -30.203,16.31C-27.766,16.24 -27.751,15.87 -27.249,13.723C-24.876,3.589 -22.504,-6.544 -20.132,-16.678C-19.629,-18.825 -19.49,-19.154 -21.463,-20.318C-22.198,-20.746 -22.618,-21.405 -22.422,-22.216C-22.017,-23.896 -19.998,-23.516 -19.757,-23.457C-12.927,-21.776 -9.5,-21 -2.628,-19.575C-2.385,-19.524 -0.404,-18.997 -0.734,-17.3C-0.894,-16.481 -1.547,-16.066 -2.388,-15.995C-4.655,-15.792 -4.667,-15.434 -5.103,-13.272C-7.164,-3.068 -9.226,7.136 -11.287,17.341" style="fill-rule:nonzero;"/>
        </g>
        <g transform="matrix(1,0,0,1,257.772,414.018)">
            <path d="M0,-32.481C-3.795,-32.777 -6.345,-36.013 -6.04,-39.459C-5.735,-42.904 -2.732,-45.616 0.964,-45.327C4.661,-45.039 7.222,-41.893 7.01,-38.44C6.797,-34.988 3.795,-32.185 0,-32.481M-12.066,11.129C-8.841,10.417 -8.429,8.649 -8.302,7.164C-7.43,-3.097 -6.557,-13.357 -5.684,-23.618C-5.557,-25.104 -5.66,-26.9 -8.471,-28.186L-8.156,-31.63C3.857,-29.64 10.287,-18.415 9.724,-7.032C9.13,4.98 0.303,15.08 -12.382,14.574C-12.256,13.196 -12.192,12.507 -12.066,11.129M-18.828,-34.327C-22.612,-34.774 -25.039,-38.11 -24.603,-41.541C-24.166,-44.971 -21.059,-47.561 -17.373,-47.126C-13.687,-46.69 -11.246,-43.444 -11.591,-40.003C-11.936,-36.562 -15.043,-33.88 -18.828,-34.327M-11.25,-28.458C-14.25,-27.742 -14.686,-25.998 -14.84,-24.515C-15.9,-14.273 -16.96,-4.031 -18.02,6.211C-18.173,7.694 -18.099,9.511 -15.065,10.835C-15.199,12.212 -15.266,12.901 -15.399,14.279C-27.946,12.301 -34.743,0.712 -33.084,-11.227C-31.517,-22.504 -23.076,-32.287 -10.915,-31.9L-11.25,-28.458Z" style="fill-rule:nonzero;"/>
        </g>
        <g transform="matrix(1,0,0,1,305.892,418.925)">
            <path d="M0,-22.831C-0.187,-31.359 -5.238,-29.003 -5.271,-31.747C-5.29,-33.417 -3.257,-33.565 -2.641,-33.576C0.713,-33.636 2.39,-33.68 5.742,-33.798C6.358,-33.82 8.396,-33.78 8.462,-32.111C8.569,-29.37 3.404,-31.454 3.652,-22.928C3.821,-17.133 3.905,-14.235 4.074,-8.44C4.022,-8.439 3.996,-8.438 3.944,-8.436C2.425,-10.802 1.673,-11.987 0.186,-14.364C0.111,-17.751 0.074,-19.444 0,-22.831M4.217,-3.551C4.385,2.22 4.469,5.106 4.637,10.877C0.634,10.998 -1.368,11.039 -5.373,11.083C-13.509,-1.362 -21.241,-13.949 -28.651,-26.839C-29.592,-28.544 -29.87,-29.447 -31.891,-30.191C-32.932,-30.594 -33.727,-30.871 -33.667,-32.182C-33.586,-33.97 -31.738,-33.885 -30.441,-33.892C-24.107,-33.636 -20.938,-33.56 -14.601,-33.514C-8.645,-23.332 -2.367,-13.339 4.217,-3.551M-29.177,-22.621C-29.126,-22.619 -29.101,-22.618 -29.051,-22.616C-27.723,-20.18 -27.051,-18.964 -25.69,-16.538C-25.895,-9.335 -25.997,-5.734 -26.201,1.468C-25.357,8.952 -21.016,6.726 -21.063,9.29C-21.097,11.139 -23.849,10.96 -24.588,10.94C-27.651,10.861 -29.182,10.811 -32.244,10.687C-32.982,10.656 -35.741,10.652 -35.657,8.805C-35.54,6.243 -31.35,8.753 -30.029,1.341C-29.688,-8.244 -29.518,-13.036 -29.177,-22.621" style="fill-rule:nonzero;"/>
        </g>
        <g transform="matrix(1,0,0,1,349.054,403.398)">
            <path d="M0,2.756C-2.264,3.003 -3.396,3.12 -5.661,3.34C-5.79,1.963 -5.854,1.274 -5.984,-0.103C-3.733,-0.323 -2.609,-0.439 -0.36,-0.684C-0.926,-6.069 -1.208,-8.762 -1.772,-14.147C-2.003,-16.342 -1.98,-16.699 -4.21,-17.125C-5.037,-17.279 -5.646,-17.756 -5.728,-18.588C-5.896,-20.309 -3.881,-20.638 -3.636,-20.664C3.314,-21.405 6.785,-21.838 13.712,-22.833C13.957,-22.869 15.992,-23.046 16.237,-21.334C16.355,-20.508 15.878,-19.894 15.109,-19.541C13.045,-18.578 13.151,-18.237 13.448,-16.05L17.652,14.909C17.949,17.095 17.93,17.465 20.338,17.777C21.233,17.887 21.905,18.329 22.023,19.156C22.269,20.868 20.085,21.307 19.818,21.346C12.27,22.43 8.487,22.903 0.913,23.711C0.646,23.739 -1.575,23.849 -1.743,22.128C-1.825,21.297 -1.277,20.703 -0.437,20.375C1.825,19.479 1.717,19.126 1.487,16.931C0.893,11.261 0.595,8.426 0,2.756M-7.306,17.813C-7.112,20.011 -7.15,20.38 -4.761,20.808C-3.873,20.963 -3.224,21.437 -3.145,22.268C-2.98,23.99 -5.179,24.323 -5.446,24.348C-13.027,25.062 -16.823,25.349 -24.42,25.786C-24.688,25.8 -26.909,25.802 -26.997,24.076C-27.039,23.241 -26.466,22.674 -25.611,22.388C-23.312,21.603 -23.402,21.245 -23.529,19.042C-24.129,8.642 -24.728,-1.759 -25.327,-12.159C-25.454,-14.363 -25.414,-14.719 -27.62,-15.253C-28.439,-15.447 -29.023,-15.954 -29.066,-16.788C-29.153,-18.515 -27.127,-18.745 -26.881,-18.76C-19.91,-19.16 -16.427,-19.424 -9.471,-20.078C-9.225,-20.102 -7.187,-20.18 -7.022,-18.458C-6.943,-17.626 -7.448,-17.036 -8.23,-16.722C-10.336,-15.861 -10.245,-15.515 -10.052,-13.316C-9.137,-2.94 -8.221,7.437 -7.306,17.813" style="fill-rule:nonzero;"/>
        </g>
        <g transform="matrix(1,0,0,1,399.827,379.973)">
            <path d="M0,35.838C5.208,34.151 8.577,30.018 9.287,24.962C9.544,23.986 9.722,22.967 10.878,22.696C12.931,22.214 13.138,23.998 13.191,24.231C14.257,28.877 14.79,31.2 15.855,35.847C9.799,37.291 6.762,37.967 0.676,39.228C0.405,37.872 0.27,37.194 0,35.838M-4.147,15.029C-1.624,13.837 -0.9,11.297 -0.801,8.959C-0.695,7.899 -0.518,6.887 0.787,6.598C2.713,6.173 2.855,8.336 2.956,8.801C4.043,13.835 4.586,16.351 5.673,21.384C5.773,21.85 6.549,23.879 4.554,24.319C3.203,24.618 2.62,23.767 2.093,22.845C1.054,20.753 -0.626,18.743 -3.425,18.653C-3.714,17.203 -3.858,16.479 -4.147,15.029M-8.037,-4.495C-2.622,-5.616 0.079,-6.217 5.469,-7.496C6.547,-2.779 7.085,-0.421 8.163,4.296C8.229,4.587 8.419,5.709 6.557,6.144C5.5,6.39 5.061,5.879 4.557,5.077C1.905,0.734 -1.82,-1.4 -7.361,-1.104C-7.632,-2.46 -7.768,-3.138 -8.037,-4.495M-26.85,-0.988C-20.403,-2.057 -17.187,-2.646 -10.771,-3.936L-2.304,39.836C-9.296,41.242 -12.802,41.885 -19.826,43.05C-20.093,43.094 -22.307,43.334 -22.571,41.625C-22.699,40.8 -22.186,40.175 -21.362,39.798C-19.15,38.772 -19.277,38.425 -19.63,36.248C-21.295,25.968 -22.959,15.689 -24.623,5.41C-24.976,3.233 -24.973,2.874 -27.227,2.579C-28.063,2.474 -28.698,2.032 -28.826,1.208C-29.091,-0.501 -27.094,-0.947 -26.85,-0.988" style="fill-rule:nonzero;"/>
        </g>
        <g transform="matrix(1,0,0,1,432.221,411.516)">
            <path d="M0,-46.267C0.12,-46.303 0.18,-46.321 0.299,-46.356C4.182,-47.523 8.2,-48.923 12.277,-48.436C16.846,-47.891 19.918,-45.462 21.401,-41.2C23.646,-34.749 19.933,-30.29 14.003,-26.908C14.017,-26.862 14.023,-26.84 14.037,-26.794C19.804,-27.813 25.564,-28.153 27.666,-22.204C28.322,-20.214 28.65,-19.219 29.307,-17.228C29.475,-16.72 29.657,-15.523 30.485,-15.808C31.506,-16.16 31.149,-17.862 32.673,-18.396C33.498,-18.685 34.801,-18.2 35.069,-17.411C35.627,-15.777 34.227,-12.946 33.132,-11.495C31.474,-9.157 29.288,-7.909 26.501,-6.988C23.717,-6.068 20.959,-5.871 18.444,-7.018C15.57,-8.329 14.499,-10.779 13.702,-13.462C13.242,-15.015 13.012,-15.791 12.551,-17.344C11.771,-19.971 10.762,-23.133 6.898,-22.348C6.509,-23.698 6.314,-24.373 5.925,-25.724C9.207,-27.018 9.078,-29.048 8.248,-31.845C7.429,-34.608 7.019,-35.99 6.198,-38.753C5.352,-41.608 4.279,-42.763 0.975,-42.891C0.585,-44.241 0.39,-44.916 0,-46.267M-15.777,-34.932C-16.311,-37.071 -16.338,-37.428 -18.617,-37.524C-19.462,-37.555 -20.135,-37.939 -20.331,-38.75C-20.737,-40.43 -18.776,-41.05 -18.535,-41.112C-12.176,-42.744 -9.006,-43.615 -2.689,-45.469C0.74,-33.317 4.171,-21.165 7.601,-9.013C8.199,-6.892 8.23,-6.523 10.675,-6.569C11.582,-6.591 12.313,-6.253 12.546,-5.452C13.026,-3.793 10.911,-3.036 10.65,-2.958C3.275,-0.774 -0.427,0.249 -7.856,2.155C-8.119,2.222 -10.314,2.656 -10.721,0.977C-10.917,0.166 -10.454,-0.502 -9.663,-0.95C-7.535,-2.167 -7.691,-2.502 -8.225,-4.641L-15.777,-34.932Z" style="fill-rule:nonzero;"/>
        </g>
        <g transform="matrix(1,0,0,1,505.649,358.373)">
            <path d="M0,27.139C-6.497,30.006 -9.764,31.382 -16.329,34.018C-16.165,32.465 -16.085,31.688 -15.93,30.137C-9.838,26.254 -8.412,23.6 -8.29,17.587C-8.37,16.521 -8.36,15.676 -7.193,15.166C-5.474,14.415 -4.94,15.671 -4.802,15.999C-2.882,20.455 -1.921,22.683 0,27.139M-47.964,-1.542C-42.282,-3.597 -39.453,-4.672 -33.82,-6.912C-33.912,-5.39 -33.96,-4.629 -34.06,-3.106C-38.551,-0.314 -40.888,3.658 -40.614,8.252C-40.576,9.317 -40.62,10.16 -41.829,10.602C-43.522,11.222 -43.974,9.926 -44.091,9.588C-45.64,5.136 -46.414,2.91 -47.964,-1.542M-15.914,-10.359C-16.633,4.864 -17.726,19.99 -19.193,35.159C-25.311,37.573 -28.384,38.731 -34.554,40.946C-34.973,39.731 -35.183,39.123 -35.603,37.908C-33.751,22.63 -32.283,7.386 -31.194,-7.965C-25.642,-10.212 -22.878,-11.381 -17.378,-13.807C-16.792,-12.428 -16.499,-11.738 -15.914,-10.359" style="fill-rule:nonzero;"/>
        </g>
    </g>
</svg>