<?xml version="1.0" encoding="utf-8"?>
<!-- Generator: Adobe Illustrator 21.0.0, SVG Export Plug-In . SVG Version: 6.00 Build 0)  -->
<svg version="1.1" id="Réteg_3" xmlns="http://www.w3.org/2000/svg" xmlns:xlink="http://www.w3.org/1999/xlink" x="0px" y="0px"
	 viewBox="0 0 1018 1019" enable-background="new 0 0 1018 1019" xml:space="preserve">
<g>
	<g>
		<path d="M597.6,785.5c-0.1,4,0,8.1,0,12.2c4.3,0,8.6,0.1,12.9-0.2c1.7-0.1,3.6-0.3,4.9-1.6c3.1-2.8,2.1-9.1-2.2-10
			C608,785.2,602.7,785.7,597.6,785.5 M587.9,777.4c7.5,0,15-0.1,22.6,0c3.8,0.2,7.8,0.3,11.1,2.4c6.9,4.6,7.4,16.1,0.9,21.2
			c-2.2,1.8-4.9,2.5-7.6,3c2,2,4.5,3.4,6.1,5.8c3.5,5,6.7,10.2,9.9,15.4c-3.8,0-7.7,0-11.6,0c-3.9-5.7-7.5-11.7-11.8-17.1
			c-2.3-3.1-6.5-2.7-9.9-2.9c-0.2,6.7,0.1,13.4-0.2,20.1c-3.2-0.1-6.4-0.1-9.6-0.1C587.9,809.4,587.8,793.4,587.9,777.4
			 M497.1,785.5c0,10.6,0,21.1,0,31.7c4.9-0.2,10,0.6,14.7-1c4.6-1.9,5.4-7.5,5.7-11.9c0.1-5.6,0.5-12.3-4-16.4
			C508.8,784.4,502.5,785.9,497.1,785.5 M487.4,777.5c5.3-0.3,10.6,0,15.9-0.1c5,0,10.3-0.1,14.7,2.6c5.6,3.4,8.6,9.9,9.2,16.2
			c0.9,7.8,0.2,16.4-4.9,22.7c-3.6,4.7-9.8,6.4-15.5,6.4c-6.5-0.1-13,0.2-19.5-0.1C487.5,809.3,487.4,793.4,487.4,777.5
			 M385.9,777.4c3.5,0,7,0,10.5,0c3.9,11.7,8.1,23.3,11.9,35c1.5-2.5,2-5.4,3-8.1c3-8.9,5.8-18,9-26.8c3.4-0.5,6.8-0.1,10.2-0.2
			c-5.7,16-11.4,31.9-17.1,47.9c-3.4,0-6.9,0-10.3,0C397.2,809.4,391.5,793.4,385.9,777.4 M553.7,785.2c-5.2,1.1-8.9,6-9.5,11.1
			c-0.8,5.8-0.7,12.5,3.3,17.3c4.5,5.3,13.6,5.7,18.4,0.7c3.6-3.5,4.4-8.8,4.3-13.5c-0.1-4.5-0.9-9.5-4.4-12.7
			C562.7,785,557.9,784.3,553.7,785.2 M550.2,777.4c7.9-1.7,17.1-0.6,23.1,5.2c5.6,5.3,7.3,13.4,6.9,20.8
			c-0.2,6.3-2.4,12.8-7.2,17.1c-5.9,5.5-14.8,6.6-22.5,4.9c-6.4-1.3-11.9-5.9-14.5-11.9c-2.6-6-2.7-12.8-1.6-19.1
			C535.9,786.4,542.1,779.1,550.2,777.4 M452.9,785.4c-4.9,1.2-8.4,5.9-9,10.8c-0.9,5.8-0.7,12.4,3.1,17.2
			c4.3,5.5,13.4,6.1,18.5,1.2c3.5-3.3,4.5-8.3,4.5-12.9c0.1-4.7-0.7-9.9-4.2-13.3C462.4,785,457.3,784.2,452.9,785.4 M450.2,777.3
			c7.7-1.6,16.5-0.5,22.5,5c5.4,4.8,7.4,12.4,7.3,19.4c0.1,6.9-2.1,14.3-7.5,19c-6.1,5.5-15,6.4-22.7,4.6
			c-6.5-1.5-12.1-6.4-14.4-12.7c-2.2-6-2.3-12.7-1-18.9C435.9,785.8,442.1,778.8,450.2,777.3 M559.6,766.8c2.6,0,5.2-0.1,7.8,0
			c0,2.6,0.1,5.2,0,7.9c-2.6,0-5.3,0-7.9-0.1C559.6,772,559.6,769.4,559.6,766.8 M545.6,766.8c2.6,0,5.2,0,7.8,0c0,2.6,0,5.2,0,7.8
			c-2.6,0.1-5.3,0.1-7.9,0C545.5,772,545.5,769.4,545.6,766.8 M459.1,767c2.7-0.3,5.4-0.4,8.1,0c-0.1,2.5-0.1,5-0.1,7.6
			c-2.7,0.1-5.3,0.1-8,0C459.2,772.1,459.2,769.5,459.1,767 M445,767c2.7-0.4,5.3-0.3,8-0.1c-0.1,2.6-0.1,5.1,0,7.7
			c-2.7,0-5.3,0-8,0C445.1,772.1,445.1,769.6,445,767 M535.8,702.9c11.9,0.1,23.7-0.2,35.6,0.2c-0.1,2.6-0.1,5.3-0.1,7.9
			c-8.6,0-17.2,0-25.8,0c-0.1,3.5,0,7.1-0.1,10.6c8,0.1,15.9,0.1,23.9,0c0.3,2.7,0.2,5.4,0.2,8.1c-8,0-16,0-24,0c0,4.3,0,8.7,0,13
			c8.9,0.1,17.8,0,26.8,0c0,2.7,0,5.3,0,8c-12.2,0-24.3,0.1-36.5-0.1C535.8,734.8,535.7,718.8,535.8,702.9 M487.5,702.9
			c3.2,0,6.3,0,9.5,0c0.3,6.3,0.1,12.6,0.1,18.8c6.3,0.2,12.7,0,19,0.1c0-6.3,0-12.6,0-18.8c3.2,0,6.4,0,9.6,0
			c0.2,16,0,31.9,0.1,47.9c-3.2,0-6.5,0.1-9.7-0.1c0.1-6.9,0-13.9,0.1-20.8c-6.3,0-12.7-0.1-19,0c0.1,7,0,13.9,0,20.9
			c-3.2,0.1-6.5,0.1-9.7,0C487.5,734.8,487.4,718.8,487.5,702.9 M443,703.1c12.7-0.4,25.3,0,38-0.2c0.3,2.7,0.2,5.4,0.2,8.2
			c-4.7,0-9.4,0-14.2,0c0,13.3,0,26.5,0,39.8c-3.3,0-6.5,0.1-9.8-0.2c0.2-13.2,0-26.4,0.2-39.6c-4.7-0.2-9.5,0-14.3-0.1
			C443.1,708.3,443.1,705.7,443,703.1 M498.9,627.8c3.1,0.1,6.2,0.1,9.3,0.1c6.5,10.6,12.8,21.3,19.6,31.7c-0.1-10.6,0-21.2,0-31.8
			c3,0,6-0.1,9,0.1c-0.2,15.9,0,31.9-0.1,47.8c-3.3,0-6.6,0.1-9.9-0.2c-4.7-8.1-9.8-16-14.7-24c-1.4-2.1-2.5-4.6-4.3-6.4
			c-0.2,10.2-0.1,20.3-0.1,30.5c-3,0.1-6,0.1-9,0C498.8,659.8,498.4,643.8,498.9,627.8 M479.6,628c3.3-0.3,6.6-0.3,9.8,0
			c-0.2,15.9,0,31.8-0.1,47.8c-3.2,0-6.4,0-9.7,0C479.6,659.9,479.8,644,479.6,628"/>
	</g>
	<path d="M819.7,427.1c0-137.3-139.4-248.7-311.3-248.7S197,289.7,197,427.1c0,4.6,0.2,9.1,0.5,13.6h26.8c0,0.8-0.1,1.6-0.1,2.4v0
		c0,14.8,4.1,29,11.7,42.5c24,87.5,76.4,280.9,76.4,295.8c0,57,87.8,103.1,196.1,103.1s196.1-46.2,196.1-103.1
		c0-12.7,52.7-208.3,76.6-296.2c7.5-13.4,11.5-27.5,11.5-42.2v0c0-0.8,0-1.6-0.1-2.4h26.8C819.5,436.1,819.7,431.6,819.7,427.1z
		 M731.2,601.4c-44.6,167.3-44.6,175.5-44.6,180c0,9.8-3.9,19.5-11.5,29c-8.2,10.2-20.8,20-36.4,28.2c-16.6,8.7-36.1,15.6-57.9,20.5
		c-22.9,5.1-47.3,7.7-72.4,7.7c-25.2,0-49.5-2.6-72.4-7.7c-21.8-4.9-41.3-11.7-57.9-20.5c-15.6-8.2-28.2-18-36.4-28.2
		c-7.6-9.5-11.5-19.2-11.5-29c0-4.7,0-14.5-44.7-181.1c-7.6-28.4-15.3-56.6-22-81.4c49.4,44.1,140.6,73.6,244.9,73.6
		c104.5,0,195.7-29.6,245.1-73.8C746.7,543.8,738.9,572.5,731.2,601.4z M756.3,490c-12.8,15.9-31.4,30.3-55.3,42.9
		c-24.7,13-53.6,23.2-85.9,30.4c-33.8,7.5-69.7,11.3-106.7,11.3s-73-3.8-106.7-11.3c-32.3-7.2-61.2-17.4-85.9-30.4
		c-23.9-12.6-42.5-27-55.3-42.9c-12.2-15.2-18.4-31-18.4-47s6.2-31.8,18.4-47c12.8-15.9,31.4-30.3,55.3-42.9
		c24.7-13,53.6-23.2,85.9-30.4c33.8-7.5,69.7-11.3,106.7-11.3s73,3.8,106.7,11.3c32.3,7.2,61.2,17.4,85.9,30.4
		c23.9,12.6,42.5,27,55.3,42.9c12.2,15.2,18.4,31,18.4,47S768.5,474.8,756.3,490z M790.4,424.6c-17.3-73.9-136.9-131-282-131
		s-264.7,57.2-282,131h-13.2c1.7-127.1,133.5-230.1,295.2-230.1s293.5,103,295.2,230.1H790.4z"/>
	<path d="M509,77.2c58.4,0,115,11.4,168.3,34c51.5,21.8,97.7,53,137.4,92.7c39.7,39.7,70.9,86,92.7,137.4
		c22.5,53.3,34,109.9,34,168.3s-11.4,115-34,168.3c-21.8,51.5-53,97.7-92.7,137.4s-86,70.9-137.4,92.7c-53.3,22.5-109.9,34-168.3,34
		s-115-11.4-168.3-34c-51.5-21.8-97.7-53-137.4-92.7s-70.9-86-92.7-137.4c-22.5-53.3-34-109.9-34-168.3s11.4-115,34-168.3
		c21.8-51.5,53-97.7,92.7-137.4c39.7-39.7,86-70.9,137.4-92.7C394,88.6,450.6,77.2,509,77.2 M509,54.8
		c-251.1,0-454.7,203.6-454.7,454.7S257.9,964.2,509,964.2s454.7-203.6,454.7-454.7S760.1,54.8,509,54.8L509,54.8z"/>
</g>
</svg>
