<svg xmlns="http://www.w3.org/2000/svg" viewBox="0 0 498.42 509.59"><defs><style>.cls-1{fill:#0b0b0b;}</style></defs><title>body</title><g id="Layer_2" data-name="Layer 2"><g id="Layer_1-2" data-name="Layer 1"><path class="cls-1" d="M199.57,2.3C200.31,1,201.84.65,203.06,0c1.19.84,2.84,1.38,3.28,3,.83,2.18-1.09,4.56-3.29,4.66C200.42,8,198.29,4.58,199.57,2.3Z"/><path class="cls-1" d="M324.35,1.09c2.95.1,6.51-.55,8.78,1.85.75,1.41.72,3.49-1,4.07-3.65,2-8.16-4.41-11-.13a162.56,162.56,0,0,0-7.75,14.58c3.75-1.61,7.61-3.77,11.83-3.38a3.51,3.51,0,0,1,2.07,5c-2.7,6.16-7.31,11.29-9.8,17.57,2.3-.9,4.56-1.92,6.84-2.88,2.11,3.25-1.84,4.34-4.06,5.41-2.33.89-4.94,2.12-7.43,1.18-2.21-1.44-1.63-4.35-.73-6.39,2.5-5.38,6.13-10.13,8.75-15.45-4.78.42-9.63,2.91-11.89,7.29-2,3.67-4,7.29-5.8,11-2-.5-4-1-5.95-1.55,3-5.81,6.3-11.42,9.22-17.25,2.83-5,5.11-10.46,8.65-15.09,2.29-2.72,5.64-5.55,9.45-4.69Z"/><path class="cls-1" d="M192.22,2.92c2.1-1.58,5.91.21,5.49,3,.58,3.88-5.76,5.23-6.88,1.47l-1.27.23C190.78,6.22,190.46,3.87,192.22,2.92Z"/><path class="cls-1" d="M241,13.49c2.78-3.12,6.15-6.08,10.3-7.09,1.42-.58,2.62.34,3.69,1.16-.39,1.58-.77,3.17-1.13,4.76,3.34-2.13,6.38-5.38,10.51-5.8,2.34-.31,4,2.2,3.43,4.35-1.17,6.55-4.33,12.59-5.28,19.21,2.41-.88,5.56-6.4,7.52-2.06-2.92,2.74-5.88,6-9.93,6.87-2.86.44-3.87-2.66-3.5-4.93.67-6.25,3.74-11.93,4.7-18.13a15.5,15.5,0,0,0-5.37,3c-5.41,4.72-5.29,12.55-7.28,18.95-2.1,0-4.19,0-6.28-.07,2-7.49,4.15-15,5.67-22.57C245.9,12.62,243.54,16.66,241,13.49Z"/><path class="cls-1" d="M196.56,11.51a7.64,7.64,0,0,1,9.83,3c4.72,7.93,1.64,18.88-5.54,24.27-2.49,1.57-5.7,2.71-8.56,1.46-4.21-1.39-5.56-6.25-5.77-10.22-.36-7.25,2.83-15.68,10-18.49m-2.24,5.76c-2.88,4.36-2.14,10.06-.6,14.77.72,2.2,2.78,5.05,5.44,3.85,2.91-2.31,3.45-6.39,3.33-9.87-.42-4-1.2-8.51-4.65-11.06C196.55,15.53,195,15.88,194.32,17.27Z"/><path class="cls-1" d="M135.34,13.09c1.58-1.25,4.08-2.65,5.87-.94,1.34.87.48,2.8.51,4.11-2.57,1.83-6.58,1.71-8.24,4.6.69,5.93,2.45,11.71,4.14,17.43,1.55-3.54,3.14-7.26,6-9.94,1.81-1.6,4.78-.38,5.34,1.86,2.23,6.38,1.93,13.43,4.65,19.66,1.18-2,1.44-4.86,3.22-6.4l2.26.83a27.54,27.54,0,0,1-5.28,11.05c-1.3.14-2.61.23-3.92.27-4.25-6.23-3.79-14.15-5.92-21.15-3.21,2.33-4.42,6.61-4.53,10.4.67,5,2.23,9.79,3.44,14.65-1.84,1-3.72,2-5.63,3-2.11-11.11-5.45-21.94-7.81-33A16.31,16.31,0,0,1,135.34,13.09Z"/><path class="cls-1" d="M351,54.76c3-6.73,9.29-11.73,16.25-13.85,3.94-1.31,8.21.09,11.19,2.82a6.43,6.43,0,0,1-3,7.62c-4.81,2.47-10.47,1.48-15.63,1.1-.91,1.57-1.78,3.16-2.63,4.77,3.12,3.24,8,1.3,11.87,1.3-.06.85-.16,2.56-.22,3.41-5.31.73-11.19,2.41-16.15-.51-2.41-1.2-2.69-4.45-1.66-6.66m18.28-10.65c-2.81,1-5,3.22-6.88,5.42,3.5-.08,8.56.31,10.21-3.59C372.77,44.12,370.59,43.51,369.24,44.11Z"/><path class="cls-1" d="M238.14,44.25a24.17,24.17,0,0,1,13.72,1.67A12.92,12.92,0,0,0,254.1,49c1.55.17,3.11.06,4.67.14.87,1.52,1.83,3,2.74,4.48l1.2-1.6,1.16,2.85c8.67,2.81,13.53,11.27,17.25,19,3.22,5.87,1.72,12.9,3.56,19.13,2.52,5.46,5.81,10.81,6.34,16.93.26,2.56-.89,4.91-2.09,7.08l1.13.53-1.48-.33c-1.88,1.6-4,2.84-5.85,4.53.72,1.78-.53,2.9-1.49,4.18-1.57,4.42-3.35,8.84-3.76,13.55-2.17.38-3.29,1.52-2.19,3.69-3.12,5.05-6.86,10.52-6.2,16.75.54,10.73.59,21.46.67,32.2.62,1.48-.69,2.31-1.45,3.25a6.08,6.08,0,0,1-3.35-5.79c-2.8.14-1.51,3.3-1.83,5.15q2.07,1.38,4.12,2.81a5.79,5.79,0,0,1,6.25-1.28,23.43,23.43,0,0,1,15.64-4.54c13.18.59,25.78,5.29,37.65,10.77,5.86,2.55,10.82,6.77,15.06,11.48,2.71,4.39,7.3,7,10.48,11a34.55,34.55,0,0,1,7.45,12.92c2.85,9.43,1.5,19.41,2.1,29.07,1.72,3.22,4,6.09,6,9.17,1.42,2.76,4.72,3.36,7,5.14,12.93,8.8,21.21,23.11,25.64,37.85,1.62,5.82,3,11.88,2.66,18-1.39,5.18-4.8,10.43-3,15.95,3.95,7.3,6.08,16.25,3.63,24.39-1.47,5-5.8,8.23-9,12.1-2.82,5.43-4,11.7-7.57,16.75-3.54,4.49-9.63,5.15-14.92,5.65-23.06-.84-46.12-3-69.2-2.65-28.17,6.35-57.24,5.07-85.9,5.25-20.65-1.65-41.36-2.37-62.05-3.24-8.14-1-17.38-2.66-22.79-9.49s-6.23-15.41-8.44-23.34c-4.32-11-8.34-22.18-11.54-33.58-1-4.93-3-9.77-2.66-14.9.18-7.36-.43-14.76.68-22.08,2.22-16.82,6.88-33.21,9.22-50,.8-4.82.47-9.84,2.08-14.52,2.89-9.2,8.3-17.34,14.14-24.91,2.63-3.46,7.47-3.66,10.82-6.06,5.81-6.15,11.92-12,17.3-18.58,8.44-7.69,19-12.65,27.79-19.84,1.26-4.88,3.27-10,1.69-15a19.84,19.84,0,0,1-10.07-10.16c-1.65-2.77-2-6.5-4.87-8.35,0-1.37,0-2.74,0-4.11,1.34-.56,1.46-1.85,1.49-3.12-1.4-.49-2.82-1-4.23-1.44.77-1.58,1.72-3.07,2.39-4.69.45-7-1.52-14.18.38-21.08,2.15-8.89,3.1-18.49,8.52-26.16,2.49-2.94,1.74-7.12,3.61-10.35,2.28-4,6.51-6.28,10.11-8.92,2.22-1.29,2.48-4.08,3.49-6.21,2.95,0,4.75-2.19,6.37-4.33,1,.5,2.09,1,3.15,1.47l1.2-2.82c1.35,2.66,4.3,2.51,6.73,1.68,1.93-.76,2-4.34,4.42-3.92,4.22.84,7.93-1.59,12-2.17M220.3,71c-6.12,7-8.32,16.22-12.94,24.07-5.78,7.8-3,18.08-3.08,27.05,2.72,1.84,5.64,3.73,7.19,6.74,1.79,3.25,1.92,7,2,10.64-3.12.95-2.82,4.2-4.11,6.56-.15,2.7,1,5.21,2.25,7.54l1.3-1.88c2.67.6,5.35,1.15,8,1.72,2,1.5,1.31,4.38,1.54,6.54,2.38.47,4.73,1.1,7.1,1.67.33,1.36-.72,2.28-1.37,3.32a29.33,29.33,0,0,0,.68,3.33c8.3-.36,16.61-.48,24.91-.75.29-1.17.58-2.34.88-3.51-4.7-.59-8.09-4.18-12.62-5.26-6.53-1.38-9.27-8.87-15.7-10.53.28-1,.25-2.3,1.28-2.92,4.26-3.2,9.84-3.77,15-3.61,6.29.37,13.27,2.72,16.38,8.64l1.62.13c.7-5.53.41-12.26,4.85-16.34a29.73,29.73,0,0,1,3.29-4.12,52.52,52.52,0,0,0,1.82-7.92c-6.35-1.29-12.76-2.79-18.37-6.15-1.81,4.93.87,9.6,3.19,13.79.71,3.17.34,6.53.24,9.77-6,3.23-13.21,0-18.62-3.09-2.81-1.14-1.8-4.65-2.34-7,2.8-.09,5.56-.6,8.33-.84,3.17.68,6.92,2.42,9.82,0-3.35-6.92-2-14.94-4.48-22.1-1.77.3-4.06-.31-5.29,1.32a28.37,28.37,0,0,0-1.29,4.11c-9.47,4.65-20.78,3-30.17-1-.57-3.5-1.4-7-1.93-10.48,10.08-1.52,20.3-1.42,30.45-2,3.71-.66,6.22,2.57,8.67,4.75.25-.7.73-2.11,1-2.81q5.2.12,10.41.15c2.55,3.44,6.79,4.36,10.48,6,2.42,4,1.63,8.88,1,13.28.85-1,2-1.72,2.52-2.93-.06-4.75-2.13-9.26-1.95-14,.69-4-2.07-7.3-3.33-10.84-4.94-2.7-10.25-4.58-15.46-6.66-2.2-2.68-4.61-5.29-6-8.54-1.37-2.94-2.55-6.23-5.29-8.21-3.74-2.79-8.69-2.16-13.07-2.43-3.72-.64-6.57,2.3-8.85,4.78m-33.06,60c0,.71,0,2.12.06,2.82l2.29-.44c.07-.56.2-1.68.27-2.24l-2.62-.14m44.39,17.09,1.12,1.1a77.53,77.53,0,0,1,11.43,2.72,30.91,30.91,0,0,0,9.88-1.48c-6.9-3.51-14.95-3.37-22.43-2.34m25.27,5.35c-.92,1.35-1.94,2.63-3,3.9l2,2.2,1.3-.2a9.28,9.28,0,0,0,2.51-5.62l-2.89-.28m-91.42,42.93a82.34,82.34,0,0,1,24.8-6.69c6.53-.44,13.47-.21,19.32,3.05,3.75,2.4,8.54,1.25,12.39-.35-2.29-5.49-8.78-5.68-13.62-7.34-4.36-4-8.67-8.4-14.3-10.59-7.84,9.45-20.66,12.66-28.59,21.92m99.27-11.62-1.11,2.07,3.27.71-.15-2.81-2,0m-85.56,8.17c-9.32,2.62-17.68,7.91-25.33,13.72-5.27,10.48-4.73,23-2.42,34.23l3.58.76c-.24,6.15,6.29,7.85,10.89,9.47.13.42.41,1.27.55,1.69,1.93.73,3.78,1.76,5.87,2-.25-3.19,2.22,1.06,3.9,0,4,.79,7.37-1.36,10.52-3.49,1,.57,2.06,1.18,3.12,1.73a43,43,0,0,1-1.59-5.06c-.67-1.05-2.69-1.88-1.3-3.22a81,81,0,0,1,9.6.45l2-1.65c1.76-.23,3.52-.44,5.3-.63l-1.76-1.5a4,4,0,0,1,2.77.83c3.4-1.45,4.39-5.13,5.62-8.25,1.84.1,4.92-1.59,5.09,1.35a50.92,50.92,0,0,1,9.44,1.2c-.11,1.85-.21,3.71-.29,5.58a25.83,25.83,0,0,0,3.39-2.29c.5,1.58,1,3.17,1.49,4.77,2.24.71,4.7,1,6.73,2.28.56,1.25,1,2.56,1.44,3.86,2.2.44,4.52.77,6.28,2.3,2.55,2.13,6,2.23,9.12,2.54,1.22,1.31,1.93,3.63,4,3.68,12.63,1.57,25.27,3.45,38,3.53l1.52,1.89c4.91-.93,6.58-6.11,8.35-10.11A29.51,29.51,0,0,1,316.42,256a2.46,2.46,0,0,0,1.49,2.47c.16-.84.47-2.5.62-3.34l2.46-.21c1.72-4.55.89-9.43.28-14.11a3.55,3.55,0,0,0-2-3.23c-3.12-1.81-4.63-5.22-7.18-7.62a40.18,40.18,0,0,0-15-8.91c-1.87-.74-4-1.11-5.43-2.65l-1.15.51c-4.6-7.38-13.58-10.34-21.88-10.63a4.92,4.92,0,0,0-3.59-4.24c-.5-.84-1-1.68-1.46-2.52-3.48-1.31-7.71-1.61-10.14-4.75-.88-.71-1.43-2.09-2.65-2.19a156.24,156.24,0,0,0-20.64-.53c-3.24-.2-5.73,2.34-8.84,2.82-7.76,1.41-14.66-3.47-22-4.85-6.69.26-13.43.18-20.08.89m93.08,5.35c-.68,3,3,1.14,4,0a187.24,187.24,0,0,1,15.48,14.19c8.37,7,18.17,12.42,25.52,20.58,3.95,5.35,9.2,12.75,16.94,10.25-.91,2.69-2.71,5.06-2.48,8.07a15,15,0,0,0,3.36,1.27c2.14-.78,4-2.35,6.24-2.79,1.76,1.15-.57,2.8-1.27,3.86-1.66,1.49-1.32,3.86-1.56,5.86a20.4,20.4,0,0,0,14.81-5.45c-.8-3.41,2.25-5.86,2-9.18,0-4,.95-8,.39-11.88-3.12-7.13-8.69-13-14.94-17.5a13.94,13.94,0,0,1-2.67-2.86c-3.44-1-6.89-2-10.31-3.15l-.48-3.52c-14.09-5.67-28.56-12.18-44.07-11.91-4.07-.17-7.41,2.49-10.89,4.2M134.9,222.87c0,2-1.79,5.18,1,6a44.77,44.77,0,0,0,7.05,8.07q1.42-10.21,2.91-20.43c-4.73-.05-7.84,3.39-10.94,6.38m53.16,38.43c-5.63.72-12.33,1-16,6.07-6.36,0-12.71-.81-19.06-.19-6.2-2.35-13.77-3.47-19.72.13a40.66,40.66,0,0,0,2.71,5.5c0,3.13.17,7-2.46,9.19-.11.7-.32,2.1-.42,2.81a2.57,2.57,0,0,0-1.63,1.92A139.36,139.36,0,0,0,128.28,306c-.85,6.6,2.5,12.71,2.7,19.27a27.35,27.35,0,0,1,4,3.64c-1.93,1.61-3.9,3.49-4.18,6.15-.79,6,.94,12,1.48,18,.32.41,1,1.21,1.29,1.61a26.84,26.84,0,0,0-.72,5.51c2.33,3.84,2,8.67,3.16,12.93,1.34.63,3,.86,4.07,1.91.1,1.32.17,2.64.21,4,2.52,2.54,1.83,6.73,4.53,9.17a15.78,15.78,0,0,0,8.8,6.29c2.88.74,5.59,2.47,8.6,2.47,3.8-1.75,7.76-3.08,11.69-4.51l-1.28,0c-4.49-3.94-10.7-5-16.23-6.87-4-.69-6.88-3.68-10.3-5.58-1-2.81-1.5-5.79-3.58-8.07-3.77-4.82-.71-11.3-2.85-16.39,2.58-5.82,7.52-10.16,10.77-15.54,2.66-9.62.57-20.11,4.24-29.52a8.17,8.17,0,0,1,7.05-5.24c.65,2,1.15,4,1.92,5.94.95,1,2.29,1.52,3,2.73-3.7.63-7.44.94-11.17,1.34.11,2.48,0,5-.05,7.44.91-.29,1.82-.56,2.74-.81,1.4,2.59-.28,5.31,0,8.05l2.24.25c-.08,2.1-2.4,2.41-3.7,3.57-.39,1.93-.09,4-1,5.82-1.9,3.9-1.83,8.33-1.81,12.56a3.61,3.61,0,0,0,3.4,2.89c.19,1.18.38,2.37.56,3.56,2.05,0,4.17-.46,6.18.16a15.93,15.93,0,0,1,2.38,3.14c4.11-1.12,9.19-1.72,11.83,2.43,4.23,0,6.85,4,11,4A107.84,107.84,0,0,1,204.79,371c.11.5.34,1.51.45,2,2-.09,4-.08,5.76-1.05.52,1.15,2.19,2.08,1.77,3.51-1.21,1.12-3.31,1.51-3.79,3.24.62,1.8,3.06,1.89,4.45,2.92l.32-1.6c0,.4-.11,1.22-.15,1.63a24,24,0,0,1,7.62,4.44c12.36.42,24.57,4.24,37,2.82,4.59-1.42,9.26-2.68,13.79-4.32.39-1.91.77-3.81,1.11-5.72,2.91,0,5.83,0,8.74,0q.74-2.5,1.46-5a26.24,26.24,0,0,0,8.77,2.27c.37-4.58.59-9.28-.9-13.69-15.25.37-31.56,3.43-45.86-3.5-6-2.64-9.4-8.55-15.11-11.51a56.49,56.49,0,0,0-21.87-7.91c-2.54-.42-5.17-.39-7.59-1.31-4.52-2-9.82-.77-14.22-3.19-.07-.58-.19-1.75-.26-2.33l2-1.17c-2.57-.59-5.16-1.07-7.76-1.47.61-1.94-.28-3.29-2.31-3.42a14.6,14.6,0,0,0,1.7-4.22l2.46-.66a25.26,25.26,0,0,0-.4-11.14c3.56.51,3.5,4.52,4.18,7.23,1.25,0,2.51-.08,3.76-.16,7.45-11,14.94-22.58,17.41-35.88a34.32,34.32,0,0,0-8-21.7c-3.79-.64-7.45.94-11.21,1.18m120.84-.05c.66,1.87,2.67,1,4.13,1-1-1.39-2.61-1.44-4.13-1m51.43,8.89c-.71,1.67-.25,2.2,1.39,1.56q1-2.51-1.39-1.56m-148.6,2.64c-2,4.89-.09,10.1-.41,15.17.12,2.77-2,4.79-3,7.2-1.77,4.83-5.13,9-6.29,14,3-2.43,5.62-5.41,8.92-7.52a22.48,22.48,0,0,1,3-6.84c0-7.26,2.8-15.84-2.25-22m146.87,3.5c-1.18,4.34-1.66,8.84-2.84,13.19-1.66,3.61-4.19,6.92-4.57,11,3,1,1.94,4.78,2.91,7.16,3.07.12,2.89,3.39,3.86,5.49,1.24.84,2.69,1.45,3.58,2.74,1.27.37,2.64.68,3.18,2.09,4.6-1.25,9.29-2.57,13.38-5.11,2.47-1.47,4.06-4,6.42-5.59l1.67,2.08c1.51-.88,3.85-1.31,4.14-3.37.78-3.7-1.84-6.82-3.38-9.93-3.22-5.85-7.13-12.44-14.23-13.88-.9,3.07-4.91.47-7.19,1,2.4,5.82,9.79,7.58,11.6,13.71-3.22-2-4.65-5.89-8-7.73-4.42-2.55-6.46-7.41-8.28-11.91l-2.23-.92m4.07-.14A16.47,16.47,0,0,0,365,281.5c.06-.92.17-2.76.23-3.68l-2.58-1.68m-30.63.7-1.16,1.62c-2.16.88-4.28,1.86-6.42,2.76-3.72,1.58-6.16,5.43-10.16,6.41-4.23,1-7.86-2.72-12.07-1.75a274.51,274.51,0,0,1-71.87-1.12c-2.46-.57-6.05-4.69-8-1.69-.28,10.23,1.75,20.52.34,30.73-.78,3.65-1.76,7.4-.75,11.13.47,3.64,3.91,5.79,4.84,9.25a10.68,10.68,0,0,0-3.48,4.77c11.06,9.32,22.72,19,37,22.82,5.47.32,11-.41,16.47-.3.63-2.39.93-5.18,2.69-7,2.12-.7,4.34-1.1,6.51-1.63-.44,1.17-.86,2.34-1.27,3.53.79.78,1.57,1.59,2.33,2.41,4.94-2.07,6.35-7.76,8.37-12.2a3.87,3.87,0,0,1-.67-2.7l1.32,1.83c1.43-3,3.56-5.92,6.77-7.22a17.09,17.09,0,0,1,5.66-10.27c2,1.75,3.65.47,3.78-1.88l2.63-.24c2.28-4.29,2.66-9.3,4.87-13.6,1.93-3.43,6.08-4.14,9.48-5.32,3.69-3.87,3.48-10,7.22-13.73-.6-5.4-.73-10.84-1.53-16.21l-2.9-.36m6.31.67c-1.6,6,.14,12.24,1.12,18.23,2.06,1.77,2.3,4.76,4,6.85l3.41.23c.6-1,1.21-1.91,1.85-2.84-1.57-8.11-3.76-16.93-10.37-22.47m9.41,26.94a129.31,129.31,0,0,0-7.51,13.15c5.59-2.58,8-8.75,9.11-14.39l-1.6,1.24m21.81,17.91-2.32,0c-.26,2-.07,4.14-.75,6.08-1.77,3.07-4,5.87-5.19,9.27a110.8,110.8,0,0,1,20-1.85c1.61.3,2.18-1.51,3.1-2.4l2.52-.64c2.63-2.41,5.73-4.19,8.57-6.3l-3-.89,2.43-1.5c1.31-3.62-1.94-6.22-1.3-9.77-1.05-1-2.08-2.09-3-3.2-7.8,1.19-18,2.53-21,11.18M332.69,336c1.29,1,2.92-.7,2.76-2.06,0-3.44-3.22.69-2.76,2.06m33.54,2.94c-4.11.85-7.94,2.88-12.17,3.19-4.38,0-5.43,5.07-8.52,7.23-5.21,4.44-4.18,11.89-2.61,17.77,2.26,1.9,3.45,4.67,5.33,6.91,3.79,4.63,8.74,8.11,13.73,11.34.27-1.39.53-2.79.79-4.17,1.91,0,4-.42,5.74.68,2.79,1.67,6.07,2,9.26,2.09,1.05-3.88,2.59-8.09,6.35-10.1,3.64-1.75,3.85-6.56,7.28-8.58a6.62,6.62,0,0,0,3.39-8.14c-2.3-5.4-7.8-8.21-12.44-11.28L381,350.68c-2.13.8-4.41,1.35-6.32,2.63-.91,2.38-.23,5.17-.7,7.7-2.23-3.19-3-7.09-4.38-10.66,1.7-2.06,4.3-.2,6.17-1.72,3.85-2.09,8-4.79,8.65-9.54a34.47,34.47,0,0,0-18.17-.19M302,340.38c-4.12,4.63-7.65,10.26-7.54,16.71a29.68,29.68,0,0,0,2.64-2.5,3.16,3.16,0,0,1,3.19.58l-2.15,1.55a2.9,2.9,0,0,1,1.86,3.36,6.58,6.58,0,0,1-3.93-2.68c-.54.58-1.07,1.18-1.59,1.78a35.43,35.43,0,0,0,7.06,16.09c2,.18,5.34,1.65,6.67-.32.23-7.9-2.93-15.89-.51-23.71.6-.47,1.21-.92,1.84-1.33-1.05,4-1.94,8.33,0,12.21.79,4.94-.18,10.4,2.45,14.94,1.07,2.34,3.7,3.14,5.59,4.65,1.17,1.11,2.81,1.13,4.33,1.3,1.14-11.1-2.49-21.92-2.63-33l1.53-2c-.84,9.1,2.46,17.75,3.84,26.61q1-.6,2.1-1.17c.83,2.68,3.25,4.08,5.32,5.73.94,1.86.52,4.09.79,6.11l1.3-.08c-.24-4.25.56-8.77-1.29-12.75a32.18,32.18,0,0,1,0-22.81,2.59,2.59,0,0,1,2.13-2c0,.71.1,2.13.13,2.85l-1.35.75a61.8,61.8,0,0,0-.13,8.5c2,.08,4.13,0,5.95,1.11-1.94,1.28-5,1.18-6.11,3.5-1.37,2.11-.56,4.86.54,6.9,3.14,1.26,7.23-.56,7.11-4.31-.89-5.87-2.15-12.87,1.44-18,1.6-1.21,3.31-2.27,5-3.35-7.26-7.05-18.15-6-27.41-5.47-6.05.68-12.13-.92-18.14.25m93.45,22.73c-.75,6.05-5.58,10.09-8.88,14.82,1.18,1.7,1.81,3.86,0,5.43-4,3.71-10,7.06-9.26,13.43a8.24,8.24,0,0,0,7.84-3.76c2.58-3.8,3.79-8.61,7.78-11.34-1.2-5.9,6.74-6.74,8.26-11.62,1.18-3-1.22-5.72-2.76-8.06l-3,1.1m-101,5.34a2.17,2.17,0,0,0,.95,3.27c2-.27.79-4.16-.95-3.27m41.76,7.7a11.91,11.91,0,0,0,1.13,6.25l1.9-.59c-.05-2.17-.18-4.34-.38-6.49l-2.65.83m-7.87,6.8c.06,2.8,1.22,5.37,2.18,8l2.77-.16C332.5,387.76,331.55,384.14,328.34,383Z"/><path class="cls-1" d="M88.39,67.8c.49-4.31,3.23-8.92,7.74-9.84,2.43-.5,3.63,1.79,4.11,3.72-1.92,3.58-8.13,1.78-8.5,6.42.21,3.74,1.93,7.26,3.86,10.42,1.36,1.83,2.93,4,5.33,4.38,3.85-1.52,4.21-6.39,5-9.89,1,.6,2.51.8,3.11,2-1.1,5-2.61,10.75-7.16,13.76-2.64,1.69-5.9.14-7.76-2A25.2,25.2,0,0,1,88.39,67.8Z"/><path class="cls-1" d="M402.8,69.69c4.72-.27,10.27-.76,14.08,2.6.7,2.13-1.65,3.15-2.8,4.47,3.31-.55,6.94-1.69,10.17-.22,2.32,1.07,1.79,5.24-.94,5.15-3.12-.14-6-2.17-9.21-1.66-7.44.46-12.78,6.2-18.43,10.37q-2.49-2-4.78-4.13c6.06-4.65,12.84-8.42,18.29-13.8-2,0-4,.13-6,.25C403,71.71,402.9,70.7,402.8,69.69Z"/><path class="cls-1" d="M40.68,97.58c1.47-4.17,5.07-7,8.06-10,2.34,3.56,5.55,6.36,8.57,9.31l-2,2.28c-2.24-1.64-4.21-4.32-7.12-4.58-6.18,1.06-5.75,11.59.08,13,5.75.69,11.74-2.43,17.34-.06,5.8,2.4,7.94,9.62,6.72,15.38-1,6.54-5.94,13.45-13.13,13.56-3.41.46-6.71-3.88-4-6.63,2.85-1.92,5.9,1.74,8.88.39,6.1-3,6-14.34-.93-16.33-5.82-1.16-11.94,2.51-17.55-.33C40.26,110.49,38.64,103.15,40.68,97.58Z"/><path class="cls-1" d="M440.86,113.15c.05-3.37,4.22-3.61,5.92-5.81-.32,1.69,1.85,1.69,2.83,2.5,4.73,3,4.61,10.41,10.39,12.24.19.49.55,1.47.74,2-2.39,1.24-5.05.26-7.53-.05-7.08-1.34-14.21-2.41-21.24-4,2.7,3.74,2.3,9.59,6.27,12.29,1.84-1.66,3.58-4.43,6.37-2.68,0,1.38.61,3-.57,4.08-3.26,3.11-8.87,2.24-11.88-.83-3.6-3.55-4.24-8.87-6.66-13.15-2.06-.82-4.78-1.63-4.16-4.43,6.22-.28,12.2,1.91,18.33,2.68l1.16-.54c2.72,2.34,6.75,1.81,10.08,2.53-2-2.41-3.53-5.21-5.48-7.68-.47.52-1.39,1.57-1.85,2.1.38.28,1.14.86,1.53,1.14C443.23,117.88,440.46,115.41,440.86,113.15Z"/><path class="cls-1" d="M22.6,149.64c2.27,8.68,3,17.7,4.77,26.48C35,169.19,42.93,162.63,50.84,156c-8.09,19.66-15.91,39.65-19.26,60.76C22.51,266,31.27,318.11,55.07,362.07l-.35,1.4,1.31-.11c4.55,9.5,10.89,18,16.85,26.64-.1.44-.29,1.33-.38,1.77l.9-1.27a223.05,223.05,0,0,0,45.48,44.76c3.93,2.8,7.39,6.43,12,8.14-.78.39-1.56.8-2.35,1.17l-1-1.67c-11.14-2.55-22.11-5.85-33.18-8.72,4.25,6.35,7.78,13.14,11.72,19.68a5.21,5.21,0,0,0,2.74,2.57l-.67,1c1.8,3.26,4,6.33,5.42,9.78-12.86-9.93-26.15-19.42-37.61-31C32.63,394.6,5.15,336.9.39,277-.2,266.36.31,255.7,0,245,.56,212.08,9.44,179.73,22.6,149.64Z"/><path class="cls-1" d="M475.8,149.86c1.95,2.33,2.61,5.37,3.77,8.11,11.21,27.61,18.41,57.13,18.85,87-.27,10.65.24,21.3-.43,31.94a251.64,251.64,0,0,1-37.08,111l1.13,1.54-.13,0L460.53,388c-8,13.93-18.24,26.44-29.1,38.2a248.83,248.83,0,0,1-46.49,39.23c0,.57-.11,1.71-.14,2.28l-1.05-1.24a54.3,54.3,0,0,1-6.88,4.56c8.7-12.6,18.12-24.71,26.84-37.3-14.18,4.67-28.29,9.57-42.57,13.93,9.24-7.37,19.55-13.39,28.5-21.17a219.66,219.66,0,0,0,49.76-58.39c4.09-7.07,8.14-14.24,11.12-21.86l1.23.3-.64-1.41A222.46,222.46,0,0,0,454,171.37a51.76,51.76,0,0,1-2.9-8.19l-1.78.52,1.37-1.47a23.58,23.58,0,0,1-2.47-6.15q11.73,10.74,23.79,21.11C472.85,168,474.7,159,475.8,149.86Z"/><path class="cls-1" d="M158.2,463c8.45-7.48,21.87-7.25,31-1,3.2,2.24,5,6.93,2.82,10.46-1.47,3.26-5,4.81-8.36,5.18,2.91,2.55,4.25,6.85,2.17,10.36-3.55,7.16-13.13,9-20.13,6.29-4.77-2.08-9.5-4.41-14.65-5.39.55-.82,1.14-1.61,1.76-2.38,2.25-.27,5.06,1.12,6.67-1.23,5.26-6.23,9.52-13.26,14.4-19.78-2.85-.22-1.47-2-.57-3.55l5.11,1.18c.23.89.51,1.77.82,2.65.9-1.08,1.23-3.68,3.4-2.08-2.4,3.58-5.23,6.88-7.33,10.66,3.2.49,7,.79,9.49-1.71,2.5-2.17,3.46-6.49.45-8.68-9-6-23.49-3.51-28.5,6.58-1.58,2.58.13,5.26,1.34,7.57,1.16,1.46-.1,3.62-1.81,3.8a4.46,4.46,0,0,1-3.62-3.43c-1.88-5.67,1.26-11.82,5.59-15.46m15.06,13.83a111.55,111.55,0,0,1-9.81,12.67,39.59,39.59,0,0,0,4.85,1.89c5.22,1.53,11.18-3,11.46-8.34C180,479.34,175.84,478.28,173.26,476.83Z"/><path class="cls-1" d="M341.67,459.93c.64-3.27,5.2-4,6.32-.64,3.76,8.31,3.63,17.82,2.8,26.73-.78,7.46-2.6,15.73-9,20.44-1.93,1.56-4.45,1.46-6.77,1.36-.47-1.47-1.53-3.09-.31-4.5,2.09-2.4,5.86-1.81,8.29-3.68,2.81-3.64,4.17-8.71,2.62-13.16-1.73-4.51-4.68-8.42-7.78-12.08-1.77-2-3.74-4-6.34-4.78-1.89.35-2.58,2.66-3.67,4-.93-.4-1.85-.78-2.77-1.16a31.9,31.9,0,0,1,5.57-9.06c1.7-.69,3.47.56,5.23.18-.16.25-.47.74-.62,1,5.45,3.16,8.94,8.57,12.51,13.58-.21-3.95-.21-8.06-1.83-11.74C344.7,464.16,343,462.19,341.67,459.93Z"/><path class="cls-1" d="M294,462.79c3-2.94,7.26-5.49,11.59-4.2.17,1.53,1.1,3.28-.09,4.63-2.77,1.79-6.32.47-9.2,1.76-1.54,4.14-1.15,8.66-1.58,13-.18,7.69-1.33,15.36-.92,23.05a32.58,32.58,0,0,0,4.78-4.83c.77.71,1.55,1.44,2.31,2.19-3.23,3.18-5.91,7.88-10.74,8.65-2.39.06-2.44-2.4-2.34-4.15-2.47,2.81-5.37,6.55-9.58,6-4.66-1.8-4.59-7.9-3.8-12,1.39-7.82,5.66-17.07,14.36-18.54.47-5.46,1.19-11.41,5.21-15.54M281.61,488c-1.42,4.51-3.26,10.24-.4,14.47,3.13.46,5.08-2.93,6.19-5.37,1.12-4.49.94-9.18,1.32-13.77A6.7,6.7,0,0,0,281.61,488Z"/><path class="cls-1" d="M232.62,480.33c1.27,2.35,4.4,1.41,6.14,3.17,2.91,2.2,3.27,6.19,3,9.55-.7,6.57-5.19,12.26-10.94,15.27a10.92,10.92,0,0,1-9.56.3c-2-.74-2.76-3.19-5-3.43l1.59.23c-2.13-7,.93-14.82,6.28-19.56,1-1.07,2.57-2,2.57-3.58l.88,1c1.48-1.08,5.12-.58,5.05-3m-7.11,11.12c-1.68,4.45-2.59,9.85.07,14.12,1.07-.8,2.51-1.79,3.32-.09,4.4-2.89,5.81-8.53,6-13.49,0-2.32-.15-5.5-2.67-6.47C228.89,485.56,226.78,488.75,225.51,491.45Z"/></g></g></svg>