<?xml version="1.0" encoding="UTF-8" standalone="no"?>
<!DOCTYPE svg PUBLIC "-//W3C//DTD SVG 1.1//EN" "http://www.w3.org/Graphics/SVG/1.1/DTD/svg11.dtd">
<svg width="100%" height="100%" viewBox="0 0 4077 4166" version="1.1" xmlns="http://www.w3.org/2000/svg" xmlns:xlink="http://www.w3.org/1999/xlink" xml:space="preserve" xmlns:serif="http://www.serif.com/" style="fill-rule:evenodd;clip-rule:evenodd;stroke-linejoin:round;stroke-miterlimit:2;">
    <g id="EMK" transform="matrix(4.16667,0,0,4.16667,-44,0)">
        <g transform="matrix(0,1,1,0,500.123,101.396)">
            <path d="M403.675,-403.675C626.263,-403.675 807.351,-222.589 807.351,0.001C807.351,222.586 626.263,403.675 403.675,403.675C181.088,403.675 -0.001,222.586 -0.001,0.001C-0.001,-222.589 181.088,-403.675 403.675,-403.675" style="fill:rgb(99,139,78);"/>
        </g>
        <g transform="matrix(1,0,0,1,431.883,801.99)">
            <path d="M0,-138.26L25.435,-138.26L-31.275,0L-55.178,-8.903L0,-138.26Z" style="fill:white;"/>
        </g>
        <g transform="matrix(-1,0,0,1,352.208,789.932)">
            <path d="M-70.551,-125.732L-52.148,-125.732L0,-7.031L-16.53,0L-70.551,-125.732Z" style="fill:white;"/>
        </g>
        <g transform="matrix(-1,0,0,1,596.857,801.99)">
            <path d="M29.746,-138.26L55.179,-138.26L-1.531,0L-25.433,-8.903L29.746,-138.26Z" style="fill:white;"/>
        </g>
        <g transform="matrix(1,0,0,1,576.234,789.932)">
            <path d="M0,-125.732L18.404,-125.732L70.552,-7.031L54.025,0L0,-125.732Z" style="fill:white;"/>
        </g>
        <g transform="matrix(1,0,0,1,614.601,372.193)">
            <path d="M0,-69.4L-69.929,-26.79L-25.653,0L2.187,0C3.64,-9.667 4.397,-19.505 4.397,-29.441C4.397,-42.978 3.012,-56.382 0.315,-69.4L0,-69.4Z" style="fill:white;"/>
        </g>
        <g transform="matrix(1,0,0,1,500.081,304.034)">
            <path d="M0,8.296C3.049,8.296 5.993,8.749 8.794,9.537L26.739,-1.241L-25.829,-1.241L-8.253,9.396C-5.611,8.704 -2.858,8.296 0,8.296" style="fill:white;"/>
        </g>
        <g transform="matrix(1,0,0,1,669.976,366.88)">
            <path d="M0,-57.71C1.507,-46.705 2.283,-35.486 2.283,-24.127C2.283,-15.926 1.871,-7.895 1.124,0L25.648,0L25.648,-57.71L0,-57.71Z" style="fill:white;"/>
        </g>
        <g transform="matrix(1,0,0,1,385.081,372.194)">
            <path d="M0,-68.704C-2.591,-55.933 -3.92,-42.763 -3.92,-29.441C-3.92,-19.509 -3.163,-9.671 -1.709,0L26.179,0L70.538,-26.64L0,-68.704Z" style="fill:white;"/>
        </g>
        <g transform="matrix(1,0,0,1,264.625,366.88)">
            <path d="M0,-57.71L0,0L64.577,0C63.736,-8.004 63.275,-16.058 63.275,-24.127C63.275,-35.491 64.046,-46.707 65.553,-57.71L0,-57.71Z" style="fill:white;"/>
        </g>
        <g transform="matrix(-0.839559,0.543269,0.543269,0.839559,688.07,281.538)">
            <path d="M11.998,-40.626C14.439,-28.019 17.993,-15.545 22.606,-3.321L11.998,3.543L-8.148,-27.59L11.998,-40.626Z" style="fill:white;"/>
        </g>
        <g transform="matrix(1,0,0,1,597.257,291.031)">
            <path d="M0,-37.083L-160.82,-37.083L-160.82,0L-50.849,0L2.604,-32.1C1.76,-33.793 0.887,-35.449 0,-37.083" style="fill:white;"/>
        </g>
        <g transform="matrix(-1,0,0,1,497.095,-325.635)">
            <rect x="241.202" y="644.627" width="14.691" height="36.381" style="fill:white;"/>
        </g>
        <g transform="matrix(1,0,0,1,480.674,479.957)">
            <path d="M0,-108.898C0,-108.898 5.096,-102.783 18.687,-102.783C32.278,-102.783 39.075,-109.068 39.075,-109.068L39.075,0.17L0.849,0.17L0,-108.898Z" style="fill:white;"/>
        </g>
        <g transform="matrix(-1,0,0,1,1444.23,-323.742)">
            <rect x="707.588" y="619.691" width="29.059" height="84.36" style="fill:white;"/>
        </g>
        <g transform="matrix(-1,0,0,1,999.932,23.76)">
            <rect x="466.689" y="464.687" width="66.554" height="46.866" style="fill:white;"/>
        </g>
        <g transform="matrix(-1,0,0,1,998.525,131.086)">
            <rect x="262.816" y="413.132" width="472.893" height="42.65" style="fill:white;"/>
        </g>
        <g transform="matrix(-1,0,0,1,999.463,211.701)">
            <rect x="479.345" y="384.073" width="40.773" height="20.153" style="fill:white;"/>
        </g>
        <g transform="matrix(-1,0,0,1,1000.4,260.209)">
            <rect x="454.975" y="364.858" width="90.452" height="10.075" style="fill:white;"/>
        </g>
        <g transform="matrix(1,0,0,1,423.571,698.883)">
            <path d="M0,-54.132L153.257,-54.132L156.539,-45.334L105.687,-45.334L106.625,-41.714L123.263,0L30.466,0L47.104,-42.65L47.338,-45.804L-3.278,-45.804L0,-54.132Z" style="fill:white;"/>
        </g>
        <g transform="matrix(0,-1,-1,0,438.335,671.826)">
            <path d="M-7.732,-7.735C-12.003,-7.735 -15.467,-4.273 -15.467,0C-15.467,4.271 -12.003,7.732 -7.732,7.732C-3.461,7.732 0,4.271 0,0C0,-4.273 -3.461,-7.735 -7.732,-7.735" style="fill:rgb(80,125,70);"/>
        </g>
        <g transform="matrix(0,-1,-1,0,562.064,671.826)">
            <path d="M-7.732,-7.735C-12.003,-7.735 -15.467,-4.274 -15.467,-0.003C-15.467,4.27 -12.003,7.732 -7.732,7.732C-3.461,7.732 0,4.27 0,-0.003C0,-4.274 -3.461,-7.735 -7.732,-7.735" style="fill:rgb(80,125,70);"/>
        </g>
        <g transform="matrix(1,0,0,1,484.031,814.41)">
            <path d="M0,-106.155L32.806,-106.155C32.806,-106.155 34.448,-103.108 34.448,-97.015L34.448,-9.155C34.448,-3.531 33.042,0 33.042,0L-1.173,0C-1.173,0 -2.343,-5.512 -2.343,-9.497C-2.343,-13.479 -2.108,-91.843 -2.108,-96.764C-2.108,-101.685 0,-106.155 0,-106.155" style="fill:white;"/>
        </g>
        <g transform="matrix(1,0,0,1,468.151,342.7)">
            <path d="M0,8.448L-82.627,58.067L-88.979,61.885L-90.945,54.737C-95.784,37.135 -98.238,18.733 -98.238,0.052C-98.238,-16.788 -96.253,-33.415 -92.339,-49.37L-90.527,-56.752L-83.997,-52.859L-0.186,-2.881C1.111,-11.135 5.495,-18.357 11.771,-23.329L-82.056,-80.101L-79.907,-84.684C-77.715,-89.354 -75.359,-93.85 -72.884,-98.133L-99.669,-112.57C-119.208,-79.558 -129.003,-40.75 -129.003,0.052C-129.003,43.136 -116.711,85.849 -93.382,121.018L-69.241,104.243C-72.193,99.592 -74.998,94.658 -77.599,89.509L-79.945,84.872L12.728,28.402C6.263,23.654 1.599,16.604 0,8.448" style="fill:white;"/>
        </g>
        <g transform="matrix(1,0,0,1,632.287,464.299)">
            <path d="M0,-233.124L-26.659,-218.447C-24.322,-214.322 -22.098,-210.011 -20.029,-205.554L-17.905,-200.968L-111.684,-144.652C-105.593,-139.689 -101.36,-132.566 -100.093,-124.463L-16.576,-175.353L-10.054,-179.329L-8.193,-171.917C-4.112,-155.63 -2.041,-138.683 -2.041,-121.546C-2.041,-102.819 -4.506,-84.387 -9.358,-66.759L-11.335,-59.593L-17.692,-63.44L-100.241,-113.388C-101.76,-105.351 -106.237,-98.365 -112.501,-93.579L-19.645,-38.207L-21.949,-33.549C-24.915,-27.549 -28.161,-21.825 -31.631,-16.447L-7.328,0C16.929,-34.756 28.724,-75.604 28.724,-121.546C28.724,-161.891 19.14,-200.334 0,-233.124" style="fill:white;"/>
        </g>
        <g transform="matrix(-1,0,0,1,500.075,366.179)">
            <path d="M-0.006,-42.601C11.741,-42.601 21.296,-33.046 21.296,-21.302C21.296,-9.555 11.741,0 -0.006,0C-11.75,0 -21.302,-9.555 -21.302,-21.302C-21.302,-33.046 -11.75,-42.601 -0.006,-42.601" style="fill:white;"/>
        </g>
        <g transform="matrix(1,0,0,1,100.885,685.51)">
            <path d="M0,6.239C3.324,4.8 5.115,2.683 5.374,-0.118C5.562,-2.17 4.78,-5.222 3.031,-9.266C-1.645,-20.08 -7.586,-23.925 -14.791,-20.811C-19.401,-18.818 -21.682,-15.375 -21.63,-10.487C-21.604,-7.09 -20.345,-2.51 -17.851,3.257C-17.446,4.196 -16.759,5.581 -15.793,7.426C-14.828,9.264 -14.144,10.653 -13.739,11.589L-13.523,12.087L0,6.239ZM-31.646,19.925L-20.382,15.053C-21.394,12.262 -22.369,9.78 -23.311,7.6C-25.637,2.222 -27.802,-1.574 -29.803,-3.795C-33.07,-7.441 -36.691,-8.404 -40.665,-6.683C-46.613,-4.114 -47.403,2.222 -43.038,12.313C-41.563,15.73 -40.121,18.049 -38.713,19.269C-36.796,20.914 -34.442,21.133 -31.646,19.925M19.878,13.163C16.093,11.262 12.1,11.219 7.9,13.036L-30.636,29.701C-34.779,31.494 -37.435,34.427 -38.605,38.509C-38.864,37.905 -39.247,37.02 -39.751,35.859C-40.252,34.697 -40.636,33.812 -40.897,33.208C-41.889,30.914 -43.469,27.504 -45.642,22.974C-47.813,18.447 -49.395,15.034 -50.387,12.74C-53.103,6.46 -54.167,1.022 -53.577,-3.57C-52.852,-9.048 -49.783,-12.954 -44.373,-15.294C-38.36,-17.894 -32.97,-16.476 -28.207,-11.034C-30.255,-19.989 -27.268,-26.199 -19.252,-29.67C-13.24,-32.27 -7.827,-32.189 -3.017,-29.43C1.405,-26.897 5.077,-22.244 8.005,-15.478C8.892,-13.424 10.159,-10.299 11.806,-6.095C13.451,-1.895 14.718,1.23 15.608,3.285L18.037,8.903C18.261,9.418 18.873,10.836 19.878,13.163" style="fill:rgb(80,125,70);"/>
        </g>
        <g transform="matrix(1,0,0,1,78.2598,608.225)">
            <path d="M0,-48.377C-3.216,-51.143 -7.091,-52.132 -11.628,-51.343L-46.448,-45.271C-50.069,-44.641 -53.596,-44.314 -57.022,-44.293C-52.835,-43.788 -49.063,-43.211 -45.702,-42.562L-2.098,-34.287C-1.378,-34.163 -0.547,-34.185 0.396,-34.349C1.367,-34.519 2.022,-34.691 2.354,-34.864L4.303,-23.684C3.748,-23.737 3.074,-23.696 2.278,-23.556C1.334,-23.392 0.55,-23.111 -0.081,-22.718L-38.29,-0.073C-41.566,1.865 -44.92,3.686 -48.36,5.384C-45.712,4.203 -42.296,3.245 -38.115,2.518L-3.294,-3.554C1.21,-4.342 4.519,-6.611 6.627,-10.367L9.771,7.667C6.557,4.895 2.68,3.906 -1.857,4.699L-43.216,11.911C-47.665,12.685 -50.935,14.923 -53.021,18.616L-56.445,-1.02C-55.715,-0.648 -55.041,-0.513 -54.423,-0.621C-54.189,-0.661 -53.992,-0.742 -53.831,-0.856L-16.632,-22.845C-13.629,-24.6 -9.922,-26.328 -5.514,-28.029C-10.515,-28.156 -14.586,-28.51 -17.727,-29.092L-60.142,-37.064C-60.169,-37.059 -60.217,-37.068 -60.285,-37.096C-60.565,-37.159 -60.794,-37.175 -60.972,-37.146C-61.196,-37.037 -61.735,-36.744 -62.59,-36.26L-66.038,-56.041C-62.892,-53.315 -59.066,-52.348 -54.558,-53.133L-13.2,-60.346C-8.603,-61.148 -5.284,-63.361 -3.249,-66.993L0,-48.377Z" style="fill:rgb(80,125,70);"/>
        </g>
        <g transform="matrix(1,0,0,1,13.2139,499.844)">
            <path d="M0,-39.776C0.132,-42.076 -0.458,-44.397 -1.771,-46.746L19.066,-45.554C14.284,-43.588 10.803,-40.399 8.633,-35.982C6.87,-32.361 5.807,-27.452 5.454,-21.254C5.257,-17.84 5.476,-15.359 6.106,-13.81C7.026,-11.551 8.846,-10.345 11.563,-10.19L25.138,-9.412L25.853,-21.907C26.176,-27.547 24.529,-32.017 20.908,-35.316L38.956,-34.284C34.987,-31.419 32.844,-27.166 32.52,-21.526L31.806,-9.03L48.219,-8.091C51.201,-7.922 53.299,-9.003 54.51,-11.335C55.315,-12.901 55.828,-15.573 56.043,-19.345C56.437,-26.201 55.946,-31.48 54.574,-35.179C52.943,-39.582 49.627,-43.262 44.625,-46.217L66.254,-44.977C64.728,-42.922 63.887,-40.501 63.725,-37.71L61.169,6.97C58.669,3.54 55.122,1.693 50.522,1.429L8.606,-0.971C4.098,-1.228 0.407,0.204 -2.467,3.324L0,-39.776Z" style="fill:rgb(80,125,70);"/>
        </g>
        <g transform="matrix(1,0,0,1,84.5684,307.927)">
            <path d="M0,-60.641C1.149,-62.636 1.664,-64.976 1.54,-67.667L19.636,-57.26C14.478,-57.648 9.938,-56.354 6.018,-53.377C2.82,-50.935 -0.329,-47.02 -3.424,-41.636C-5.127,-38.673 -6.044,-36.36 -6.176,-34.691C-6.365,-32.26 -5.281,-30.366 -2.919,-29.01L8.868,-22.232L15.106,-33.081C17.921,-37.977 18.452,-42.712 16.694,-47.284L32.364,-38.274C27.533,-37.49 23.712,-34.647 20.895,-29.752L14.656,-18.902L28.911,-10.706C31.499,-9.218 33.858,-9.245 35.985,-10.789C37.409,-11.825 39.064,-13.985 40.946,-17.261C44.37,-23.213 46.298,-28.153 46.729,-32.076C47.244,-36.743 45.928,-41.517 42.779,-46.4L61.561,-35.599C59.277,-34.446 57.438,-32.658 56.044,-30.234L33.737,8.56C33.038,4.373 30.695,1.132 26.703,-1.162L-9.695,-22.092C-13.61,-24.343 -17.551,-24.718 -21.52,-23.213L0,-60.641ZM-17.81,-42.709L-22.623,-61.183C-23.283,-63.687 -23.194,-65.666 -22.358,-67.12C-21.833,-68.034 -21.094,-68.632 -20.137,-68.918C-19.182,-69.201 -18.29,-69.106 -17.462,-68.632C-16.195,-67.901 -15.591,-65.96 -15.648,-62.808L-15.99,-45.874L-17.81,-42.709Z" style="fill:rgb(80,125,70);"/>
        </g>
        <g transform="matrix(1,0,0,1,134.915,214.475)">
            <path d="M0,-16.907L15.913,-2.944C16.522,-5.594 18.28,-9.24 21.194,-13.882C22.51,-15.964 23.364,-17.338 23.753,-18.007C27.04,-23.615 26.465,-28.368 22.027,-32.262C16.171,-37.401 10.148,-36.446 3.963,-29.396C-1.315,-23.38 -2.637,-19.218 0,-16.907M29.954,28.39C30.094,24.149 28.433,20.511 24.972,17.473L-6.589,-10.215C-9.959,-13.176 -13.739,-14.329 -17.929,-13.683L-15.028,-16.783C-14.375,-17.479 -13.823,-18.085 -13.367,-18.606C-11.849,-20.337 -9.676,-23.022 -6.848,-26.665C-4.02,-30.306 -1.847,-32.992 -0.326,-34.721C4.268,-39.962 8.938,-43.106 13.675,-44.154C18.852,-45.297 23.766,-43.83 28.414,-39.751C33.378,-35.394 35.244,-29.865 34.017,-23.162C33.553,-20.551 31.418,-16.239 27.611,-10.224C27.29,-9.674 26.665,-8.668 25.74,-7.206C23.726,-4.001 22.618,-1.855 22.418,-0.768C22.038,1.254 22.882,3.171 24.95,4.985L31.153,10.428C34.615,13.464 38.433,14.642 42.609,13.963L29.954,28.39Z" style="fill:rgb(80,125,70);"/>
        </g>
        <g transform="matrix(1,0,0,1,195.734,165.16)">
            <path d="M0,-42.522C-0.795,-38.367 0.248,-34.55 3.13,-31.075L29.932,1.241C32.874,4.786 36.457,6.552 40.689,6.539L25.917,18.792C26.724,14.627 25.656,10.771 22.717,7.227L-4.084,-25.092C-6.967,-28.567 -10.531,-30.293 -14.774,-30.271L0,-42.522ZM-18.204,-35.873L-16.263,-54.867C-16.007,-57.445 -15.233,-59.268 -13.944,-60.338C-13.133,-61.009 -12.229,-61.314 -11.235,-61.247C-10.24,-61.179 -9.437,-60.78 -8.827,-60.043C-7.895,-58.92 -8.005,-56.89 -9.162,-53.957L-15.392,-38.206L-18.204,-35.873Z" style="fill:rgb(80,125,70);"/>
        </g>
        <g transform="matrix(1,0,0,1,282.592,85.5586)">
            <path d="M0,41.686C2.373,45.701 5.629,48.015 9.771,48.623L-6.667,58.343C-5.228,54.436 -5.694,50.474 -8.069,46.458L-28.687,11.592C-30.708,8.172 -33.327,7.408 -36.535,9.306C-43.038,13.151 -45.173,20.075 -42.938,30.079L-54.704,10.18C-52.41,10.503 -50.538,10.234 -49.093,9.378L-12.766,-12.101C-11.234,-13.006 -10.086,-14.524 -9.318,-16.657L2.448,3.24C-5.155,-3.589 -12.237,-5.064 -18.797,-1.184C-22.035,0.73 -22.642,3.398 -20.617,6.824L0,41.686Z" style="fill:rgb(80,125,70);"/>
        </g>
        <g transform="matrix(1,0,0,1,341.947,87.2185)">
            <path d="M0,-51.509L4.003,-66.3C4.726,-68.958 5.896,-70.565 7.514,-71.12C9.722,-71.878 11.183,-71.22 11.892,-69.15C12.313,-67.928 11.803,-66.216 10.369,-64.011L2.801,-52.468L0,-51.509ZM18.099,10.038C30.08,5.929 33.289,-4.24 27.721,-20.474C25.429,-27.149 22.463,-32.15 18.816,-35.483C13.995,-39.899 8.271,-40.969 1.642,-38.695C-10.435,-34.553 -13.691,-24.378 -8.134,-8.174C-5.854,-1.528 -2.85,3.476 0.878,6.843C5.761,11.238 11.501,12.303 18.099,10.038M-11.435,-47.586L-9.205,-61.318C-8.73,-64.191 -7.654,-65.916 -5.975,-66.493C-5.104,-66.794 -4.217,-66.742 -3.314,-66.34C-2.414,-65.941 -1.825,-65.345 -1.553,-64.555C-1.195,-63.512 -1.586,-61.91 -2.724,-59.753L-8.587,-48.565L-11.435,-47.586ZM20.498,17.083C10.914,20.369 2.723,19.61 -4.074,14.799C-9.806,10.761 -14.244,4.16 -17.388,-5.001C-20.55,-14.218 -21.086,-22.172 -19,-28.861C-16.536,-36.786 -10.464,-42.406 -0.788,-45.728C8.797,-49.015 16.988,-48.255 23.787,-43.445C29.52,-39.403 33.952,-32.819 37.085,-23.685C40.247,-14.469 40.784,-6.516 38.697,0.173C36.241,8.127 30.174,13.762 20.498,17.083" style="fill:rgb(80,125,70);"/>
        </g>
        <g transform="matrix(1,0,0,1,478.868,20.3243)">
            <path d="M0,59.914C3.014,56.93 4.305,53.144 3.874,48.558L0.574,13.369C0.231,9.708 0.186,6.168 0.437,2.748C-0.399,6.882 -1.27,10.598 -2.184,13.897L-13.88,56.711C-14.058,57.417 -14.104,58.248 -14.015,59.203C-13.923,60.184 -13.802,60.847 -13.656,61.195L-24.953,62.254C-24.858,61.705 -24.848,61.027 -24.92,60.225C-25.012,59.272 -25.228,58.467 -25.57,57.809L-45.125,17.928C-46.799,14.509 -48.344,11.021 -49.768,7.456C-48.8,10.19 -48.118,13.67 -47.721,17.898L-44.421,53.087C-43.993,57.644 -41.989,61.12 -38.414,63.516L-56.64,65.226C-53.623,62.241 -52.332,58.456 -52.76,53.87L-56.683,12.069C-57.104,7.573 -59.072,4.137 -62.59,1.765L-42.744,-0.096C-43.176,0.602 -43.361,1.264 -43.302,1.887C-43.281,2.124 -43.219,2.328 -43.116,2.497L-24.136,41.316C-22.623,44.449 -21.194,48.281 -19.849,52.81C-19.326,47.833 -18.652,43.805 -17.821,40.721L-6.522,-0.931C-6.525,-0.961 -6.511,-1.006 -6.479,-1.071C-6.396,-1.346 -6.363,-1.575 -6.379,-1.754C-6.465,-1.985 -6.716,-2.546 -7.131,-3.436L12.863,-5.312C9.897,-2.39 8.627,1.347 9.053,5.904L12.973,47.704C13.41,52.349 15.356,55.832 18.813,58.149L0,59.914Z" style="fill:rgb(80,125,70);"/>
        </g>
        <g transform="matrix(1,0,0,1,560.158,76.0268)">
            <path d="M0,-62.582L15.309,-73.995C17.376,-75.547 19.244,-76.211 20.908,-75.983C21.951,-75.838 22.784,-75.379 23.407,-74.601C24.03,-73.821 24.278,-72.962 24.148,-72.015C23.952,-70.565 22.38,-69.275 19.437,-68.144L3.618,-62.085L0,-62.582ZM23.318,-52.827C25.6,-52.514 27.961,-52.921 30.406,-54.045L27.575,-33.364C25.996,-38.29 23.087,-42.008 18.854,-44.52C15.387,-46.563 10.576,-48.009 4.424,-48.85C1.035,-49.313 -1.453,-49.29 -3.05,-48.785C-5.371,-48.046 -6.716,-46.327 -7.088,-43.63L-8.93,-30.158L3.47,-28.462C9.066,-27.697 13.652,-28.985 17.228,-32.336L14.777,-14.426C12.232,-18.605 8.161,-21.08 2.563,-21.846L-9.836,-23.542L-12.065,-7.252C-12.47,-4.291 -11.556,-2.119 -9.326,-0.728C-7.827,0.203 -5.206,0.919 -1.464,1.435C5.341,2.365 10.642,2.293 14.44,1.213C18.956,-0.064 22.887,-3.081 26.225,-7.834L23.286,13.629C21.358,11.947 19.01,10.917 16.241,10.536L-28.097,4.471C-24.48,2.25 -22.361,-1.143 -21.736,-5.707L-16.045,-47.303C-15.433,-51.775 -16.57,-55.569 -19.455,-58.68L23.318,-52.827Z" style="fill:rgb(80,125,70);"/>
        </g>
        <g transform="matrix(1,0,0,1,647.997,96.6875)">
            <path d="M0,-42.731L-4.39,-30.444C-1.483,-29.218 1.054,-28.214 3.219,-27.441C8.938,-25.399 13.313,-24.375 16.344,-24.373C21.186,-24.356 24.381,-26.516 25.929,-30.851C28.253,-37.355 24.125,-42.493 13.553,-46.271C9.967,-47.552 7.233,-48.053 5.357,-47.77C2.853,-47.395 1.067,-45.715 0,-42.731M-12.966,-6.436C-14.519,-2.085 -14.214,1.911 -12.046,5.551L-30.121,-0.906C-26.125,-2.337 -23.354,-5.22 -21.804,-9.557L-7.682,-49.094C-6.161,-53.348 -6.492,-57.292 -8.679,-60.929C-8.029,-60.697 -7.075,-60.357 -5.821,-59.91C-4.567,-59.463 -3.613,-59.12 -2.963,-58.889C0.32,-57.715 4.77,-56.235 10.385,-54.453L17.775,-52.106C18.468,-51.898 19.187,-51.661 19.93,-51.396C33.995,-46.373 39.096,-38.452 35.23,-27.635C32.763,-20.733 26.985,-17.463 17.889,-17.821C20.781,-15.454 22.639,-13.027 23.461,-10.543C24.171,-8.414 24.292,-5.481 23.828,-1.739C23,1.267 22.17,5.783 21.345,11.81C21.334,14.189 22.005,16.317 23.359,18.198L12.729,14.403C11.259,13.623 10.622,12.281 10.816,10.375C10.93,9.078 11.488,7.007 12.485,4.163C13.485,1.319 14.114,-0.806 14.37,-2.211C15.209,-7.199 14.454,-11.194 12.108,-14.197C10.029,-16.883 6.284,-19.194 0.868,-21.127C0.032,-21.426 -1.254,-21.836 -2.984,-22.359C-4.716,-22.881 -5.999,-23.294 -6.838,-23.594L-12.966,-6.436Z" style="fill:rgb(80,125,70);"/>
        </g>
        <g transform="matrix(1,0,0,1,749.554,145.781)">
            <path d="M0,-61.093C-0.844,-60.417 -1.318,-60.026 -1.426,-59.915C-1.518,-59.764 -1.596,-59.545 -1.652,-59.265C-1.655,-59.196 -1.666,-59.15 -1.683,-59.125L-5.171,-16.139C-5.57,-11.113 -6.309,-6.665 -7.388,-2.796C-6.059,-5.913 -4.209,-9.392 -1.833,-13.235L14.395,-39.484C16.754,-43.299 17.228,-47.24 15.82,-51.312L31.388,-41.684C27.185,-41.12 23.893,-38.918 21.521,-35.076L-3.955,6.129C-5.056,7.908 -5.621,9.315 -5.654,10.351L-17.236,3.19C-17.223,3.166 -17.177,3.122 -17.102,3.066C-16.422,2.653 -15.979,2.284 -15.777,1.958C-15.684,1.799 -15.603,1.577 -15.54,1.289C-15.535,1.221 -15.527,1.173 -15.511,1.146L-11.706,-46.427C-11.488,-49.212 -10.917,-53.31 -9.992,-58.723C-11.262,-55.572 -12.898,-52.38 -14.894,-49.15L-33.197,-19.544C-35.602,-15.653 -36.101,-11.671 -34.693,-7.603L-50.264,-17.228C-46.058,-17.794 -42.744,-20.031 -40.323,-23.952L-18.244,-59.661C-15.869,-63.5 -15.37,-67.429 -16.745,-71.444L0,-61.093Z" style="fill:rgb(80,125,70);"/>
        </g>
        <g transform="matrix(1,0,0,1,850.852,195.557)">
            <path d="M0,-50.221C0.93,-51.191 2.141,-51.655 3.626,-51.612C5.111,-51.572 6.385,-51.04 7.449,-50.016C8.538,-48.97 9.135,-47.711 9.245,-46.239C9.355,-44.767 8.933,-43.537 7.98,-42.545C6.948,-41.47 5.729,-40.951 4.335,-40.993C2.937,-41.031 1.65,-41.617 0.467,-42.755C-0.693,-43.869 -1.315,-45.128 -1.396,-46.533C-1.48,-47.937 -1.014,-49.167 0,-50.221M-13.006,-62.728C-12.076,-63.696 -10.847,-64.14 -9.32,-64.063C-7.797,-63.984 -6.498,-63.429 -5.43,-62.402C-4.335,-61.35 -3.75,-60.102 -3.672,-58.66C-3.594,-57.221 -4.03,-56.004 -4.982,-55.012C-7.322,-52.582 -9.798,-52.623 -12.413,-55.138C-13.602,-56.282 -14.257,-57.562 -14.379,-58.983C-14.499,-60.404 -14.041,-61.652 -13.006,-62.728M-52.067,-1.346C-42.936,7.435 -32.423,5.639 -20.528,-6.731C-15.638,-11.815 -12.542,-16.741 -11.248,-21.507C-9.52,-27.811 -11.184,-33.394 -16.236,-38.25C-25.437,-47.099 -35.977,-45.349 -47.851,-33.004C-52.72,-27.938 -55.802,-22.977 -57.093,-18.124C-58.77,-11.775 -57.096,-6.18 -52.067,-1.346M-57.235,4.006C-64.539,-3.017 -67.604,-10.653 -66.429,-18.895C-65.459,-25.84 -61.614,-32.804 -54.9,-39.784C-48.147,-46.807 -41.317,-50.919 -34.413,-52.119C-26.238,-53.548 -18.466,-50.718 -11.089,-43.624C-3.788,-36.603 -0.72,-28.968 -1.896,-20.723C-2.869,-13.778 -6.7,-6.827 -13.395,0.134C-20.146,7.158 -26.978,11.269 -33.882,12.466C-42.075,13.919 -49.859,11.099 -57.235,4.006" style="fill:rgb(80,125,70);"/>
        </g>
        <g transform="matrix(1,0,0,1,900.425,277.715)">
            <path d="M0,-53.079C-4.063,-54.266 -7.962,-53.586 -11.693,-51.046L-29.233,-39.104L2.836,-34.719C5.313,-34.373 7.131,-34.597 8.293,-35.391C9.258,-36.045 9.714,-37.209 9.66,-38.885L20.766,-22.57C19.565,-23.112 15.597,-24.202 8.856,-25.837L8.728,-25.871L-10,-28.787L-26.575,2.906C-28.746,7.049 -29.945,11.368 -30.178,15.866L-40.59,0.57C-38.656,0.806 -37.082,0.512 -35.866,-0.316C-34.804,-1.038 -33.776,-2.328 -32.787,-4.174L-18.852,-30.567L-37.201,-33.683L-46.4,-27.423C-50.207,-24.829 -52.307,-21.427 -52.692,-17.213L-63.493,-33.079C-59.422,-31.882 -55.483,-32.578 -51.677,-35.169L-16.97,-58.795C-13.235,-61.334 -11.178,-64.718 -10.801,-68.945L0,-53.079Z" style="fill:rgb(80,125,70);"/>
        </g>
        <g transform="matrix(1,0,0,1,947.971,318.339)">
            <path d="M0,-9.309C-3.815,-11.145 -7.771,-11.116 -11.871,-9.221L-49.983,8.388C-54.165,10.321 -56.791,13.332 -57.864,17.425L-65.915,0.003C-62.097,1.853 -58.096,1.81 -53.914,-0.122L-15.802,-17.732C-11.701,-19.624 -9.118,-22.625 -8.051,-26.734L0,-9.309Z" style="fill:rgb(80,125,70);"/>
        </g>
        <g transform="matrix(1,0,0,1,988.654,514.671)">
            <path d="M0,-21.851C-2.744,-25.072 -6.376,-26.646 -10.89,-26.575L-32.104,-26.228L-7.713,-4.948C-5.831,-3.302 -4.189,-2.49 -2.782,-2.512C-1.617,-2.53 -0.598,-3.256 0.278,-4.682L0.599,15.048C-0.107,13.94 -2.825,10.85 -7.56,5.778L-7.651,5.682L-21.698,-7.041L-52.954,10.341C-57.047,12.614 -60.422,15.564 -63.083,19.19L-63.382,0.691C-61.896,1.951 -60.419,2.568 -58.95,2.546C-57.664,2.523 -56.101,2.013 -54.259,1.012L-28.117,-13.393L-41.74,-26.073L-52.865,-25.892C-57.473,-25.819 -61.093,-24.126 -63.732,-20.818L-64.043,-40.009C-61.301,-36.771 -57.626,-35.191 -53.019,-35.263L-11.04,-35.946C-6.527,-36.019 -2.949,-37.717 -0.312,-41.041L0,-21.851Z" style="fill:rgb(80,125,70);"/>
        </g>
        <g transform="matrix(1,0,0,1,940.888,594.516)">
            <path d="M0,-15.604C-1.248,-10.629 -2.181,-6.561 -2.799,-3.402C-3.397,-0.339 -4.065,3.727 -4.802,8.806L31.143,3.843L0,-15.604ZM-6.786,-19.963C-10.361,-22.104 -13.02,-23.341 -14.75,-23.681C-16.867,-24.094 -18.895,-23.635 -20.833,-22.307L-17.387,-39.93C-15.13,-36.041 -11.234,-32.363 -5.697,-28.899L36.257,-2.703C36.589,-2.52 36.912,-2.396 37.238,-2.332C38.147,-2.156 39.169,-2.315 40.304,-2.817L37.01,14.037C36.287,13.219 35.543,12.738 34.78,12.589C34.37,12.507 33.866,12.511 33.27,12.603L-14.987,19.106C-21.558,20.001 -26.546,21.74 -29.945,24.326L-26.436,6.361C-25.095,8.566 -23.354,9.879 -21.207,10.297C-19.533,10.625 -16.665,10.465 -12.599,9.818C-11.556,5.865 -10.447,0.923 -9.288,-5.019C-8.132,-10.926 -7.298,-15.906 -6.786,-19.963" style="fill:rgb(80,125,70);"/>
        </g>
        <g transform="matrix(1,0,0,1,942.149,684.562)">
            <path d="M0,-6.339L-12.017,-11.418C-13.407,-8.585 -14.553,-6.11 -15.448,-3.993C-17.812,1.598 -19.086,5.91 -19.261,8.937C-19.552,13.768 -17.578,17.079 -13.337,18.873C-6.978,21.56 -1.609,17.734 2.761,7.394C4.244,3.888 4.901,1.189 4.727,-0.703C4.494,-3.225 2.917,-5.104 0,-6.339M-35.502,-21.348C-39.754,-23.149 -43.76,-23.068 -47.519,-21.113L-40.042,-38.789C-38.843,-34.721 -36.122,-31.79 -31.879,-29.994L6.789,-13.643C10.949,-11.885 14.907,-11.992 18.665,-13.966C18.396,-13.329 18.002,-12.397 17.481,-11.17C16.964,-9.943 16.57,-9.013 16.301,-8.374C14.941,-5.163 13.211,-0.807 11.11,4.699L8.348,11.94C8.1,12.623 7.821,13.327 7.515,14.055C1.699,27.807 -6.5,32.45 -17.077,27.977C-23.828,25.122 -26.764,19.167 -25.888,10.105C-28.417,12.855 -30.943,14.571 -33.472,15.254C-35.637,15.839 -38.573,15.794 -42.282,15.12C-45.237,14.119 -49.7,13.035 -55.666,11.868C-58.042,11.72 -60.203,12.272 -62.161,13.515L-57.764,3.118C-56.901,1.698 -55.528,1.138 -53.634,1.436C-52.348,1.626 -50.312,2.3 -47.529,3.459C-44.747,4.619 -42.66,5.365 -41.274,5.702C-36.341,6.823 -32.308,6.298 -29.175,4.128C-26.378,2.205 -23.857,-1.405 -21.617,-6.7C-21.272,-7.52 -20.79,-8.779 -20.167,-10.478C-19.547,-12.176 -19.063,-13.436 -18.719,-14.252L-35.502,-21.348Z" style="fill:rgb(80,125,70);"/>
        </g>
        <g transform="matrix(1,0,0,1,375.437,978.383)">
            <path d="M0,-24.608L-6.266,-24.608C-8.339,-24.608 -10.038,-24.134 -11.367,-23.188L-11.367,-32.371C-9.496,-31.567 -7.771,-31.169 -6.19,-31.169C-0.58,-31.169 2.224,-34.034 2.224,-39.765C2.224,-41.353 1.901,-42.823 1.248,-44.173L9.949,-44.173C9.291,-42.27 8.961,-39.955 8.961,-37.229L8.961,8.839C8.961,13.38 10.547,16.958 13.718,19.565L-4.793,19.565C-1.599,16.99 0,13.418 0,8.853L0,-24.608Z" style="fill:rgb(80,125,70);"/>
        </g>
        <g transform="matrix(1,0,0,1,436.612,933.447)">
            <path d="M0,64.501C4.481,60.519 8.186,54.819 11.119,47.41L23.591,15.906C24.168,14.437 24.457,13.232 24.457,12.29C24.457,9.177 21.685,7.616 16.145,7.616C4.834,7.616 -3.607,12.504 -9.183,22.276L-9.183,0C-6.862,1.368 -4.413,2.051 -1.836,2.051L41.903,2.051C38.36,5.332 35.524,9.657 33.397,15.017L19.045,51.101C17.98,53.765 17.449,55.979 17.449,57.735C17.449,60.135 18.608,62.393 20.93,64.501L0,64.501Z" style="fill:rgb(80,125,70);"/>
        </g>
        <g transform="matrix(1,0,0,1,532.536,992.617)">
            <path d="M0,-51.788C-3.993,-51.788 -7.215,-51.013 -9.662,-49.462C-12.464,-47.677 -13.865,-45.04 -13.865,-41.558C-13.865,-38.015 -12.479,-35.337 -9.708,-33.522C-7.263,-31.913 -4.025,-31.107 0,-31.107C4.058,-31.107 7.312,-31.913 9.758,-33.522C12.562,-35.337 13.964,-38.015 13.964,-41.558C13.964,-45.04 12.545,-47.677 9.712,-49.462C7.264,-51.013 4.028,-51.788 0,-51.788M0.02,-24.723C-4.831,-24.723 -8.705,-23.801 -11.596,-21.957C-14.906,-19.818 -16.559,-16.626 -16.559,-12.383C-16.559,-8.137 -14.906,-4.946 -11.596,-2.809C-8.705,-0.937 -4.831,0.001 0.02,0.001C4.872,0.001 8.744,-0.937 11.637,-2.809C14.944,-4.946 16.598,-8.137 16.598,-12.383C16.598,-16.596 14.929,-19.775 11.586,-21.914C8.695,-23.784 4.84,-24.723 0.02,-24.723M14.263,-28.511C21.952,-25.637 25.797,-20.331 25.797,-12.593C25.797,-5.969 23.222,-1 18.066,2.312C13.589,5.185 7.565,6.619 -0.005,6.619C-7.541,6.619 -13.551,5.171 -18.026,2.269C-23.181,-1.043 -25.758,-5.998 -25.758,-12.593C-25.758,-20.331 -21.922,-25.637 -14.254,-28.511C-20.126,-30.972 -23.062,-35.356 -23.062,-41.657C-23.062,-47.432 -20.711,-51.769 -16.004,-54.671C-11.973,-57.165 -6.641,-58.407 0,-58.407C6.641,-58.407 11.99,-57.165 16.053,-54.671C20.793,-51.769 23.16,-47.432 23.16,-41.657C23.16,-35.387 20.194,-31.002 14.263,-28.511" style="fill:rgb(80,125,70);"/>
        </g>
        <g transform="matrix(1,0,0,1,590.071,934.385)">
            <path d="M0,65.03C0,64.912 -0.017,64.808 -0.049,64.719C-0.146,63.256 -0.191,62.159 -0.191,61.425C-0.191,50.913 4.557,42.42 14.058,35.95C16.891,34.102 22.27,30.444 30.19,24.968C34.346,22.008 36.422,18.83 36.422,15.435C36.422,12.566 35.359,10.369 33.232,8.845C31.302,7.441 28.727,6.737 25.505,6.737C16.036,6.737 8.196,12.059 1.981,22.701L1.981,-0.585C3.947,1.083 6.249,1.919 8.892,1.919C10.89,1.919 13.845,1.558 17.76,0.842C21.674,0.124 24.632,-0.235 26.629,-0.235C32.265,-0.235 36.774,1.054 40.158,3.632C43.798,6.386 45.621,10.286 45.621,15.324C45.621,18.665 44.637,21.813 42.674,24.774C42.029,25.74 40.417,27.16 37.843,29.034C36.101,30.297 32.992,32.582 28.517,35.893L28.226,36.111C25.745,37.928 21.138,41.358 14.405,46.394C12.055,48.769 10.879,50.954 10.879,52.946C10.879,55.142 12.378,56.535 15.373,57.12C16.564,57.354 18.997,57.469 22.672,57.469C30.466,57.469 35.941,56.211 39.102,53.69C41.806,51.52 44.707,47.019 47.802,40.188L47.802,65.615C45.898,64.248 43.885,63.563 41.76,63.563L5.316,63.563C3.222,63.563 1.45,64.051 0,65.03" style="fill:rgb(80,125,70);"/>
        </g>
    </g>
</svg>
