<svg xmlns="http://www.w3.org/2000/svg" viewBox="0 0 1200 900"><defs><style>.cls-1{fill:#771214;}</style></defs><title>kfb</title><g id="Réteg_3" data-name="Réteg 3"><path class="cls-1" d="M470.53,31.32h-52.2a9.4,9.4,0,0,0-9.4,9.4v77c3.09,4.36,6,8.88,8.92,13.37,4.13,6.4,8.41,13,13.09,19.08,6.51,8.4,12.66,17.23,18.62,25.76,9.45,13.54,19.19,27.43,30.37,39.7V40.72A9.4,9.4,0,0,0,470.53,31.32Z"/><path class="cls-1" d="M462.84,543.68c-9.88,0-22.8-1.88-28.2-10.87-2.34-3.91-4-10.65,1.26-20.59,4.13-7.76,11.31-12.67,17.65-17,5.91-4,10.93-7.75,13.27-12.74s1.9-11.53,1.13-17.2c-1.89-13.73-9.93-58.53-34.34-58.53a24.74,24.74,0,0,0-5.09.55c-11.94,2.53-18.77,16.19-19.12,27.77-.4,12.87,4,25.33,8.43,35.82a6.26,6.26,0,0,1-3.32,8.18,5.74,5.74,0,0,1-1.6.42,5.6,5.6,0,0,1-4-.76V667.19a9.43,9.43,0,0,1-1.85,5.61l-56.85,76.44a9.43,9.43,0,0,0-1.85,5.61V890.6a9.39,9.39,0,0,0,9.39,9.4H470.53a9.4,9.4,0,0,0,9.4-9.4V542.22c-4,.53-8.1,1-12.17,1.3C466.14,543.63,464.49,543.68,462.84,543.68Z"/><path class="cls-1" d="M679,542.59c-7.17,2.65-13.68,7.54-19.91,14.93a109.09,109.09,0,0,0-12.15,18.32c-23.12,42.51-31.66,91.27-39.93,138.42-.31,1.79-.56,3.6-.8,5.4a6.27,6.27,0,0,1-12.42,0c-.24-1.8-.49-3.61-.8-5.4-8.26-47.15-16.81-95.91-39.93-138.42a109.09,109.09,0,0,0-12.15-18.32c-6.23-7.39-12.74-12.28-19.91-14.93a48.3,48.3,0,0,0-16.95-2.73,106.46,106.46,0,0,0-11.59.75v350a9.4,9.4,0,0,0,9.4,9.4H698.14a9.4,9.4,0,0,0,9.4-9.4v-350a106.46,106.46,0,0,0-11.59-.75A48.3,48.3,0,0,0,679,542.59Z"/><path class="cls-1" d="M698.14,0H501.86a9.4,9.4,0,0,0-9.4,9.4V228.29c7.92,7.64,14.81,13.77,24.82,18l1.77.59c9.46,3.12,16.93,5.58,24.42,5.58A39.21,39.21,0,0,0,558,249.53c2.92-2.08,5.23-6.17,5.23-9.37,0-1.78-.73-2.24-1.08-2.47-3.86-2.46-7.78-3.59-12.32-4.91a83.38,83.38,0,0,1-10.57-3.61c-7.15-3.11-13.19-9.48-15.37-16.23a16.94,16.94,0,0,1,1.37-14.24c3.5-5.91,9.66-8.38,14.61-10.36l1.71-.69c33-12.15,35.17-29.34,36.58-40.71.73-5.93,1.57-12.65,8.3-14.58a9.7,9.7,0,0,1,2.68-.38c5.42,0,9.38,4.19,14,9.05,6.23,6.6,14,14.81,26.39,14.81a39.08,39.08,0,0,0,14.08-3l2.37-.94c5-2,10.08-4,15.93-4.46.51,0,1-.06,1.54-.06,7.59,0,16.65,4.11,18.61,13.12,1.49,6.88-2.09,12.89-4.92,16.81A152.12,152.12,0,0,1,662.55,194c-6.21,6.45-12.07,12.53-16.26,19.69-4.31,7.37-5.77,16.9-3.72,24.28,1.27,4.57,3.73,7.89,7.33,9.85a19.88,19.88,0,0,0,9.86,2.16,83,83,0,0,0,13.56-1.59A107.73,107.73,0,0,0,707.54,228V9.4A9.4,9.4,0,0,0,698.14,0Z"/><path class="cls-1" d="M849.77,749.24,792.92,672.8a9.43,9.43,0,0,1-1.85-5.61V478.72a5.6,5.6,0,0,1-4,.76,5.74,5.74,0,0,1-1.6-.42,6.26,6.26,0,0,1-3.32-8.18c4.39-10.49,8.83-22.95,8.43-35.82-.35-11.58-7.18-25.24-19.12-27.77a24.74,24.74,0,0,0-5.09-.55c-24.41,0-32.45,44.8-34.34,58.53-.77,5.67-1.25,12.14,1.13,17.2s7.36,8.69,13.19,12.69c6.42,4.39,13.6,9.3,17.73,17.06,5.29,9.94,3.6,16.68,1.26,20.59-5.4,9-18.32,10.87-28.2,10.87-1.65,0-3.3,0-4.92-.16-4.07-.28-8.15-.77-12.17-1.3V890.6a9.4,9.4,0,0,0,9.4,9.4H842.23a9.39,9.39,0,0,0,9.39-9.4V754.85A9.43,9.43,0,0,0,849.77,749.24Z"/><path class="cls-1" d="M769.06,150.16c4.68-6.06,9-12.68,13.09-19.08,2.9-4.49,5.83-9,8.92-13.37v-77a9.4,9.4,0,0,0-9.4-9.4h-52.2a9.4,9.4,0,0,0-9.4,9.4v174.9c11.18-12.27,20.92-26.16,30.37-39.7C756.4,167.38,762.55,158.56,769.06,150.16Z"/><path d="M966.21,381.64C962.82,280,905.52,169.73,834.38,97.06c-20.55,3.73-32.15,18.94-43.31,36-5.46,8.32-10.81,17.07-17.06,25.14-18.17,23.48-33.17,49.63-53.94,70.77-1,1-1.94,2-2.94,2.95-3,2.93-6.24,5.74-9.59,8.4A112.28,112.28,0,0,1,674.9,258.6c-9.55,1.66-19.63,3.43-28-1.15-14.11-7.72-14.13-28.91-6-42.8s21.71-23.72,31.1-36.78c2.5-3.47,4.78-7.64,3.87-11.82-1.22-5.62-7.83-8.55-13.57-8.14s-11.11,2.9-16.47,5c-37.46,14.59-48.42-23-57.67-20.34s7.68,36-44.44,55.15c-4.88,2-10.4,3.81-13.08,8.35-4.66,7.88,2.7,17.9,11.1,21.54s16,4.06,23.76,9,3.14,17.81-4.6,22.7c-17.35,6.95-28.45,2.77-45.8-2.93-9.15-3.84-15.93-9.12-22.62-15.27-3.14-2.89-6.26-6-9.59-9.2-1-1-2-2-2.94-2.95-20.77-21.14-35.77-47.29-53.94-70.77-6.25-8.07-11.6-16.82-17.06-25.14-11.17-17-22.76-32.24-43.31-36C294.48,169.73,237.18,280,233.79,381.64c-3.24,97,29.34,194.65,89.78,270.5a9.22,9.22,0,0,1,1.69-1.32C302.18,610,288.17,563.47,274.69,518.6c-1.91-6.35-3.84-12.88-3.32-19.49s4-13.42,10.18-15.9c9.72-3.92,19.9,4.18,26.85,12a264.18,264.18,0,0,1,17.94,22.65,8.77,8.77,0,0,1,1.57-1c-14.08-33.44-17.35-72.39-11.7-107.87,1.22-7.66,4.34-16.72,12-18.23,4.79-.95,9.52,1.63,13.63,4.26a187.78,187.78,0,0,1,65.12,71.7c.28-.18.58-.35.88-.51-3-8.83-4.94-17.9-4.65-27.18a41.39,41.39,0,0,1,5.79-19.74c4.17-6.93,10.42-12.31,18.29-14,32.89-6.94,43.74,40,46.93,63.25,1,7,1.33,14.36-1.66,20.72-3.1,6.59-9.31,11.08-15.32,15.19s-12.31,8.41-15.74,14.84c-10.77,20.24,12.32,23,25.91,22.11,4.16-.29,8.37-.81,12.59-1.38s8.35-1.14,12.53-1.59c10.37-1.11,20.72-1.29,30.72,2.41,9,3.32,16.33,9.42,22.52,16.77A116.1,116.1,0,0,1,558.56,577c23.38,43,32.15,92.14,40.6,140.32.33,1.88.59,3.77.84,5.66.25-1.89.51-3.78.84-5.66,8.45-48.18,17.22-97.35,40.6-140.32a115.48,115.48,0,0,1,12.86-19.37c6.19-7.35,13.56-13.45,22.52-16.77,10-3.7,20.35-3.52,30.72-2.41,4.18.45,8.36,1,12.53,1.59s8.43,1.09,12.59,1.38c13.59.91,36.68-1.87,25.91-22.11-3.43-6.43-9.72-10.72-15.74-14.84s-12.22-8.6-15.32-15.19c-3-6.36-2.62-13.75-1.66-20.72,3.19-23.29,14-70.19,46.93-63.25,7.87,1.66,14.12,7,18.29,14a41.39,41.39,0,0,1,5.79,19.74c.3,9.69-1.86,19.15-5,28.35.27.1.52.21.77.33A187.76,187.76,0,0,1,858.21,395c4.11-2.63,8.84-5.21,13.63-4.26,7.61,1.51,10.73,10.57,11.95,18.23,5.74,36.09,2.27,75.79-12.44,109.62a9,9,0,0,1,1.32.65,264.57,264.57,0,0,1,18.93-24c6.95-7.85,17.13-15.95,26.85-12,6.15,2.48,9.67,9.29,10.18,15.9s-1.41,13.14-3.32,19.49c-13.75,45.8-28.06,93.31-52,134.75a9.77,9.77,0,0,1,1.27,1.13C936.2,578.3,969.48,479.59,966.21,381.64Zm-347.59-197a12.59,12.59,0,0,1,14.79-6.27,30.29,30.29,0,0,1-5.58,20.48,4,4,0,0,1-2.73,2,3.65,3.65,0,0,1-2.14-.74A12.58,12.58,0,0,1,618.62,184.67ZM574.8,198.31a12.85,12.85,0,0,1,6.88-5.3,18.91,18.91,0,0,1,18.61,3.62c3,2.65,5,7.33,2.6,10.5s-7.08,2.54-11,2.63c-3,.06-6.07.72-9.11.62s-6.3-1.14-8-3.66A8.05,8.05,0,0,1,574.8,198.31Zm323.27,274a440.46,440.46,0,0,0-4.24-169.14c-4.14-18.43-9.48-36.57-14.81-54.7q-6.33-21.54-12.67-43.08c-6.27,19.22-1,40.13-1.9,60.33-.43,9.06-2.25,18-4.16,26.87s-3.93,17.82-6,26.69c-7.59,32-16.77,64.6-36.35,91.06,23.75-74.36,36.1-155,19.44-231.25-1.52-6.94-3.43-14.12-9.13-18.87a13.24,13.24,0,0,0-9.77-3.26c-7.65.8-10.86,8.15-13.2,14.69q-7.63,21.28-14.17,42.94a913.92,913.92,0,0,0-23.13,93.39c-3.58,18.62-8.09,39.66-24.35,49.4a35.37,35.37,0,0,1-23.52,4.25,38.31,38.31,0,0,1-10.73-3.32c-.62-.3-1.2-.67-1.8-1-9.81-5.38-17.23-14.74-21-25.3a135.12,135.12,0,0,1-28,105c13.32,3.18,24.92-16.14,39.22-6.56A22.85,22.85,0,0,1,706.86,444c.22.89.45,1.79.68,2.7,4.1,16,9.21,33.3,4.7,49.47a13.82,13.82,0,0,0-.86,5.1c.43,4.18,4.49,6.2,8.69,7.82,1.39.54,2.79,1,4.08,1.54a27.56,27.56,0,0,1,13.14,10.95c.89,1.42,1.66,3.19,1,4.71-.93,2-3.67,2.21-5.88,2.06-4.11-.29-8.22-.74-12.3-1.33-2.57-.37-5.13-.78-7.68-1.27a40.32,40.32,0,0,1-4.85-1.18,17.1,17.1,0,0,1-4.15-1.89c-3.21-2.1-5.35-5.46-7.49-8.64-9.36-13.91-23.71-28.06-42.54-18.19a38.45,38.45,0,0,0-12.07,10.31A175.42,175.42,0,0,0,607.88,576c-.44,1.95-5.2,43.67-7.88,61.86-2.68-18.19-7.44-59.91-7.88-61.86a175.55,175.55,0,0,0-33.41-69.87,38.45,38.45,0,0,0-12.07-10.31c-18.83-9.87-33.18,4.28-42.54,18.19-2.14,3.18-4.28,6.54-7.49,8.64a17.1,17.1,0,0,1-4.15,1.89,40.32,40.32,0,0,1-4.85,1.18c-2.55.49-5.11.9-7.68,1.27-4.08.59-8.19,1-12.3,1.33-2.21.15-4.95,0-5.88-2.06-.7-1.52.07-3.29,1-4.71a27.56,27.56,0,0,1,13.14-10.95c1.29-.51,2.69-1,4.08-1.54,4.2-1.62,8.26-3.64,8.69-7.82a13.82,13.82,0,0,0-.86-5.1c-4.51-16.17.6-33.44,4.7-49.47.23-.91.46-1.81.68-2.7a22.85,22.85,0,0,1,9.15-13.57c14.3-9.58,25.9,9.74,39.22,6.56a135.12,135.12,0,0,1-28-105c-3.78,10.56-11.2,19.92-21,25.3-.6.33-1.18.7-1.8,1a38.31,38.31,0,0,1-10.73,3.32,35.37,35.37,0,0,1-23.52-4.25c-16.26-9.74-20.77-30.78-24.35-49.4a913.92,913.92,0,0,0-23.13-93.39q-6.57-21.63-14.17-42.94c-2.34-6.54-5.55-13.89-13.2-14.69a13.24,13.24,0,0,0-9.77,3.26c-5.7,4.75-7.61,11.93-9.13,18.87C346,255.3,358.35,335.93,382.1,410.29c-19.58-26.46-28.76-59-36.35-91.06q-3.17-13.31-6-26.69c-1.91-8.87-3.73-17.81-4.16-26.87-.94-20.2,4.37-41.11-1.9-60.33q-6.33,21.54-12.67,43.08c-5.33,18.13-10.67,36.27-14.81,54.7a440.46,440.46,0,0,0-4.24,169.14C277.31,414.4,271.75,348.82,285,287.36s45.12-118.6,89.53-163.12c16.42,7.58,26.33,23.32,34.21,39.6l.18.4c7.77,16.17,12.62,33.59,19.79,50,4,9.11,8.65,17.89,13.32,26.66,8.39,15.75,17,31.85,30.37,43.72a63.32,63.32,0,0,0,7.52,5.75,50.51,50.51,0,0,0,12.53,6,36.12,36.12,0,0,0,15,1.51c13.2-1.59,24.28-11,37.32-13.63,10.74-2.15,24.34-.7,30.08-10,3.53-5.75,3.06-14.6,9.19-17.44,7.41,9.83,3.44,26.07-7.67,31.37-5.37,2.57-11.7,2.77-16.9,5.68-4.79,2.68-8.1,7.36-10.88,12.09-12.64,21.47-17.27,47.29-13.88,71.9,3.66,26.59,17.51,51,27.35,75.67a10.31,10.31,0,0,1,1.07,5.08c-.24,1.74-1.72,3.44-3.46,3.26s-2.84-2.05-3.91-3.51c-2.76-3.74-7.39-5.64-12-6.47a35.39,35.39,0,0,0-41.27,29.38,3.38,3.38,0,0,0,3.7,4.12c3.85-.22,7.42-.5,10.84-2.36,6.83-3.71,13.65-7.63,21.17-9.61s16-1.77,22.51,2.43c4.34,2.78,7.49,7.06,10.36,11.35A200.61,200.61,0,0,1,600,554.67a201.25,201.25,0,0,1,24-59.79,87,87,0,0,1,5.82-10.9c2.36-3.74,5.1-7.54,5.44-12a53.47,53.47,0,0,0-.22-5.65,29.75,29.75,0,0,1,3.09-13.29c9.83-24.52,23.55-48.83,27.19-75.27,3.39-24.61-1.24-50.43-13.88-71.9-2.78-4.73-6.09-9.41-10.88-12.09-5.2-2.91-11.53-3.11-16.9-5.68-11.11-5.3-15.08-21.54-7.67-31.37,6.13,2.84,5.66,11.69,9.19,17.44,5.74,9.33,19.34,7.88,30.08,10,13,2.62,24.12,12,37.32,13.63a36.12,36.12,0,0,0,15-1.51,50.51,50.51,0,0,0,12.53-6,63.32,63.32,0,0,0,7.52-5.75c13.32-11.87,22-28,30.37-43.72,4.67-8.77,9.35-17.55,13.32-26.66,7.17-16.44,12-33.86,19.79-50l.18-.4c7.88-16.28,17.79-32,34.21-39.6C869.87,168.76,901.73,225.9,915,287.36S922.69,414.4,898.07,472.26Z"/><path d="M419.16,648.78h2.61v9.75h.09c.54-.78,1.08-1.5,1.59-2.16l6.18-7.59h3.24l-7.32,8.58L433.44,669h-3.09l-6.63-9.93-2,2.22V669h-2.61Z"/><path d="M448.47,661.62c0,5.37-3.75,7.71-7.23,7.71-3.9,0-7-2.88-7-7.47,0-4.83,3.21-7.68,7.2-7.68C445.65,654.18,448.47,657.21,448.47,661.62Zm-11.49.15c0,3.18,1.8,5.58,4.38,5.58s4.41-2.37,4.41-5.64c0-2.46-1.23-5.55-4.35-5.55S437,659,437,661.77Z"/><path d="M451.8,647.7h2.64V669H451.8Z"/><path d="M458.88,647.7h2.64V669h-2.64Z"/><path d="M467.43,662.22c.06,3.57,2.31,5,5,5a9.44,9.44,0,0,0,4-.75l.48,1.89a11.83,11.83,0,0,1-4.86.93c-4.47,0-7.14-3-7.14-7.35s2.58-7.8,6.81-7.8c4.77,0,6,4.14,6,6.81a6.44,6.44,0,0,1-.09,1.23Zm7.74-1.89c0-1.65-.69-4.26-3.66-4.26-2.7,0-3.84,2.43-4.05,4.26Zm.6-12.12-3.66,4.29h-1.86l2.64-4.29Z"/><path d="M493.41,666.87c0,3.36-.69,5.37-2.07,6.66a8,8,0,0,1-5.31,1.74,9.37,9.37,0,0,1-4.83-1.2l.66-2a7.9,7.9,0,0,0,4.26,1.17c2.7,0,4.68-1.41,4.68-5.1v-1.59h-.06a5.15,5.15,0,0,1-4.62,2.43c-3.6,0-6.18-3.06-6.18-7.08,0-4.92,3.21-7.68,6.57-7.68a4.85,4.85,0,0,1,4.53,2.49h.06l.09-2.19h2.34c-.09,1-.12,2.22-.12,4Zm-2.64-6.66a3.46,3.46,0,0,0-.15-1.17,3.77,3.77,0,0,0-3.69-2.82c-2.52,0-4.32,2.13-4.32,5.49,0,2.85,1.47,5.22,4.29,5.22a3.81,3.81,0,0,0,3.66-2.7,4.59,4.59,0,0,0,.21-1.41Z"/><path d="M500.52,650.4a1.58,1.58,0,0,1-1.68,1.62,1.55,1.55,0,0,1-1.59-1.62,1.61,1.61,0,0,1,1.65-1.65A1.58,1.58,0,0,1,500.52,650.4ZM497.58,669V654.48h2.64V669Z"/><path d="M516.75,665c0,1.53,0,2.85.12,4h-2.34l-.15-2.37h-.06a5.42,5.42,0,0,1-4.8,2.7c-2.28,0-5-1.29-5-6.36v-8.49h2.64v8c0,2.76.87,4.65,3.24,4.65a3.8,3.8,0,0,0,3.48-2.43,3.62,3.62,0,0,0,.24-1.35v-8.88h2.64Z"/><path d="M521.13,658.41c0-1.53-.06-2.73-.12-3.93h2.31l.12,2.37h.09a5,5,0,0,1,4.59-2.67,4.28,4.28,0,0,1,4.08,2.91h.06a5.73,5.73,0,0,1,1.65-1.89,4.87,4.87,0,0,1,3.18-1c1.95,0,4.8,1.26,4.8,6.3V669h-2.58v-8.19c0-2.82-1-4.47-3.15-4.47a3.47,3.47,0,0,0-3.15,2.37,4.51,4.51,0,0,0-.21,1.32v9h-2.58v-8.7c0-2.31-1-4-3-4a3.64,3.64,0,0,0-3.27,2.64,3.53,3.53,0,0,0-.21,1.29V669h-2.58Z"/><path d="M549.09,650.4a1.58,1.58,0,0,1-1.68,1.62,1.55,1.55,0,0,1-1.59-1.62,1.61,1.61,0,0,1,1.65-1.65A1.58,1.58,0,0,1,549.09,650.4ZM546.15,669V654.48h2.64V669Z"/><path d="M559.59,648.78h10.89V651h-8.25v6.72h7.62v2.16h-7.62V669h-2.64Z"/><path d="M574.68,662.22c.06,3.57,2.31,5,5,5a9.44,9.44,0,0,0,4-.75l.48,1.89a11.83,11.83,0,0,1-4.86.93c-4.47,0-7.14-3-7.14-7.35s2.58-7.8,6.81-7.8c4.77,0,6,4.14,6,6.81a6.44,6.44,0,0,1-.09,1.23Zm7.74-1.89c0-1.65-.69-4.26-3.66-4.26-2.7,0-3.84,2.43-4,4.26Z"/><path d="M588.24,647.7h2.64V669h-2.64Z"/><path d="M596.34,654.48l2.85,8.13c.48,1.35.87,2.55,1.17,3.75h.09c.33-1.2.75-2.4,1.23-3.75l2.82-8.13h2.76L601.56,669H599l-5.52-14.52Z"/><path d="M610.92,662.22c.06,3.57,2.31,5,5,5a9.44,9.44,0,0,0,4-.75l.48,1.89a11.83,11.83,0,0,1-4.86.93c-4.47,0-7.14-3-7.14-7.35s2.58-7.8,6.81-7.8c4.77,0,6,4.14,6,6.81a6.44,6.44,0,0,1-.09,1.23Zm7.74-1.89c0-1.65-.69-4.26-3.66-4.26-2.7,0-3.84,2.43-4,4.26Zm.6-12.12-3.66,4.29h-1.86l2.64-4.29Z"/><path d="M627.66,651v3.48h3.78v2h-3.78v7.83c0,1.8.51,2.82,2,2.82a4.93,4.93,0,0,0,1.53-.18l.12,2a7.2,7.2,0,0,1-2.34.36,3.77,3.77,0,0,1-2.85-1.11,5.67,5.67,0,0,1-1-3.81v-7.92h-2.25v-2h2.25v-2.7Z"/><path d="M635.7,662.22c.06,3.57,2.31,5,5,5a9.44,9.44,0,0,0,4-.75l.48,1.89a11.83,11.83,0,0,1-4.86.93c-4.47,0-7.14-3-7.14-7.35s2.58-7.8,6.81-7.8c4.77,0,6,4.14,6,6.81a6.44,6.44,0,0,1-.09,1.23Zm7.74-1.89c0-1.65-.69-4.26-3.66-4.26-2.7,0-3.84,2.43-4,4.26Z"/><path d="M649.26,647.7h2.64V669h-2.64Z"/><path d="M659.28,650.4A1.58,1.58,0,0,1,657.6,652,1.55,1.55,0,0,1,656,650.4a1.61,1.61,0,0,1,1.65-1.65A1.58,1.58,0,0,1,659.28,650.4ZM656.34,669V654.48H659V669Z"/><path d="M669.81,649.08a23,23,0,0,1,4.77-.45c2.61,0,4.29.45,5.52,1.47a4.26,4.26,0,0,1,1.71,3.57,4.78,4.78,0,0,1-3.42,4.44v.09a5.15,5.15,0,0,1,4.17,5,5.32,5.32,0,0,1-1.74,4c-1.38,1.29-3.66,1.89-7,1.89a30.51,30.51,0,0,1-4.05-.24Zm2.61,8.28h2.37c2.73,0,4.35-1.47,4.35-3.42,0-2.34-1.77-3.3-4.41-3.3a11.2,11.2,0,0,0-2.31.18Zm0,9.66a14.19,14.19,0,0,0,2.19.12c2.7,0,5.19-1,5.19-3.93,0-2.73-2.37-3.9-5.22-3.9h-2.16Z"/><path d="M688.92,650.4a1.58,1.58,0,0,1-1.68,1.62,1.55,1.55,0,0,1-1.59-1.62,1.61,1.61,0,0,1,1.65-1.65A1.58,1.58,0,0,1,688.92,650.4ZM686,669V654.48h2.64V669Z"/><path d="M691.35,667.47l6.54-8.55c.66-.81,1.26-1.5,1.92-2.28v-.06H692v-2.1h11v1.65l-6.48,8.43c-.63.81-1.2,1.56-1.86,2.28v.06h8.46V669H691.35Z"/><path d="M718.77,661.62c0,5.37-3.75,7.71-7.23,7.71-3.9,0-7-2.88-7-7.47,0-4.83,3.21-7.68,7.2-7.68C716,654.18,718.77,657.21,718.77,661.62Zm-11.49.15c0,3.18,1.8,5.58,4.38,5.58s4.41-2.37,4.41-5.64c0-2.46-1.23-5.55-4.35-5.55S707.28,659,707.28,661.77Z"/><path d="M725.28,651v3.48h3.78v2h-3.78v7.83c0,1.8.51,2.82,2,2.82a4.93,4.93,0,0,0,1.53-.18l.12,2a7.2,7.2,0,0,1-2.34.36,3.77,3.77,0,0,1-2.85-1.11,5.67,5.67,0,0,1-1-3.81v-7.92h-2.25v-2h2.25v-2.7Z"/><path d="M735.21,651v3.48H739v2h-3.78v7.83c0,1.8.51,2.82,2,2.82a4.93,4.93,0,0,0,1.53-.18l.12,2a7.2,7.2,0,0,1-2.34.36,3.77,3.77,0,0,1-2.85-1.11,5.67,5.67,0,0,1-1-3.81v-7.92h-2.25v-2h2.25v-2.7Z"/><path d="M741.6,666.33a7.46,7.46,0,0,0,3.51,1c1.89,0,2.79-.93,2.79-2.16s-.75-1.92-2.67-2.64c-2.64-1-3.87-2.37-3.87-4.11,0-2.34,1.92-4.26,5-4.26a6.74,6.74,0,0,1,3.54.9l-.63,1.92a5.63,5.63,0,0,0-3-.87c-1.56,0-2.4.9-2.4,2s.84,1.74,2.73,2.49c2.49.93,3.81,2.19,3.81,4.35,0,2.58-2,4.38-5.4,4.38a8.28,8.28,0,0,1-4.08-1Z"/><path d="M764,665.52a24.36,24.36,0,0,0,.21,3.48h-2.37l-.21-1.83h-.09a5.41,5.41,0,0,1-4.44,2.16,4.14,4.14,0,0,1-4.44-4.17c0-3.51,3.12-5.43,8.73-5.4v-.3c0-1.17-.33-3.36-3.3-3.33a7,7,0,0,0-3.81,1.08l-.6-1.77a9.4,9.4,0,0,1,4.8-1.26c4.44,0,5.52,3,5.52,5.91Zm-2.55-3.93c-2.88-.06-6.15.45-6.15,3.27a2.31,2.31,0,0,0,2.46,2.52,3.67,3.67,0,0,0,3.57-2.43,3,3,0,0,0,.12-.84Zm1.32-13.38-3.66,4.29h-1.86l2.61-4.29Z"/><path d="M780.72,666.87c0,3.36-.69,5.37-2.07,6.66a8,8,0,0,1-5.31,1.74,9.37,9.37,0,0,1-4.83-1.2l.66-2a7.9,7.9,0,0,0,4.26,1.17c2.7,0,4.68-1.41,4.68-5.1v-1.59h-.06a5.15,5.15,0,0,1-4.62,2.43c-3.6,0-6.18-3.06-6.18-7.08,0-4.92,3.21-7.68,6.57-7.68a4.85,4.85,0,0,1,4.53,2.49h.06l.09-2.19h2.34c-.09,1-.12,2.22-.12,4Zm-2.64-6.66a3.46,3.46,0,0,0-.15-1.17,3.77,3.77,0,0,0-3.69-2.82c-2.52,0-4.32,2.13-4.32,5.49,0,2.85,1.47,5.22,4.29,5.22a3.81,3.81,0,0,0,3.66-2.7,4.59,4.59,0,0,0,.21-1.41Z"/></g></svg>