<svg id="Layer_1" data-name="Layer 1" xmlns="http://www.w3.org/2000/svg" viewBox="0 0 1222.86 949.05"><defs><style>.cls-1{fill:#020101;}.cls-2{fill:#fe9b00;}.cls-3{fill:#a80000;}.cls-4{fill:#ff9c00;}.cls-5{fill:#010000;}</style></defs><title>kofer</title><path class="cls-1" d="M679.48,911c-8.08-.53-15.69-1.92-22.85-5.56-5.49-2.79-8.6-7.14-8.85-13-.18-4.14,1-8.28,4.59-11.12a38.1,38.1,0,0,1,4.27-2.95,50.91,50.91,0,0,0,20.09-21.82,2.14,2.14,0,0,0-.35-2.76,84.07,84.07,0,0,0-14.54-12.82,2.27,2.27,0,0,0-3.05,0c-4.29,3-8.81,5.5-14.07,6.35-6.68,1.09-14.13-3.17-15.38-9.73-.81-4.2-1-4.36-.13-8.35-1.34.07-1.86,1.17-2.63,1.87-5.32,4.81-10.72,9.53-17.28,12.64-5.33,2.53-10.56,2.56-15.79-.59-4.23-2.55-7.22-10.14-5.69-14.91.32-1,.48-2,.76-3.2-2.73-.73-5.54-.49-8.14-1.41-.89-.31-1.51.43-2.14.9A42.85,42.85,0,0,1,561,832c-6.42,1.35-13.33-3.06-14.84-9a17,17,0,0,1,.43-10.53,3.78,3.78,0,0,0-1.39-4.79c-1.88-1.52-3.47-3.72-5.6-4.55s-4.38.86-6.57,1.46a30.8,30.8,0,0,1-18.43-.68c-6.18-2.15-9.32-7.64-8.69-14.56a14.19,14.19,0,0,1,2.95-7.65,71.29,71.29,0,0,0,4.4-7,2.12,2.12,0,0,0,.46-1.61c-.35-1.53-4.74-5-6.46-5a58.3,58.3,0,0,1-21-4,56.7,56.7,0,0,1-25.75-20.27c-3.52-5-3.1-10.2-.2-15.31.86-1.54,2.26-2.67,1-4.82-.6-1.05-.17-2.72-.12-4.11a3.51,3.51,0,0,0-1.87-3.37,78.31,78.31,0,0,1-14.12-11.13c-2.49-2.56-4.88-5.24-7.14-8-5-6.19-3.51-17,3.4-21,1.09-.63,2.15-1.31,3.24-2-.11-1-.9-1.31-1.54-1.69-12.34-7.42-21.87-17.64-29.55-29.69a5.22,5.22,0,0,0-.55-.88c-5.35-5.6-6.87-12.94-8.82-20a12.72,12.72,0,0,1,9.13-15.28c1.34-.32,2.69-.65,4.05-.94,2.2-.46,2.65-1.7,1.1-3.44-1.92-2.15-4-4.15-5.92-6.32a139.3,139.3,0,0,1-17.19-24.23,135.24,135.24,0,0,1-14-39.28,14.38,14.38,0,0,1,7.39-15.8,14.07,14.07,0,0,1,14.47.74c.53.35.94,1.05,2,.65-.74-2.41-2.25-4.43-3.48-6.54-7.4-12.77-13.11-26.14-16.25-40.65-1.37-6.33-2.63-12.66-3.47-19.06s-.54-12.68-.38-19a44.23,44.23,0,0,1,.83-8.55c1.45-6.55,9.63-11.63,16.4-9.87,4.07,1.05,4.77,1.4,8.81,5.39,1.63-2.11,3.22-4.23,4.88-6.29a2.94,2.94,0,0,0,.4-3.18c-3-8.64-4.58-17.65-6.17-26.61-.84-4.72-1.21-9.6-1.83-14.38-.77-5.87-.39-11.74-.86-17.6a66.21,66.21,0,0,1,.59-11.72,162.21,162.21,0,0,1,6.79-33.15c1.27-4,2.18-8.27,4.93-11.7a13.31,13.31,0,0,1,12.27-5c5.59.59,10.2,3.1,11.83,9.05.49,1.8,1.35,2.19,3,1.58.64-.24,1.34-.35,2-.53.94-.24,1.22-.81,1.12-1.8a135.53,135.53,0,0,1-.19-21.79,161.59,161.59,0,0,1,8.09-42.74,97.09,97.09,0,0,1,13.63-25.92,5.17,5.17,0,0,0,1-1.41c1.26-4.83,5.06-7.28,9-9.52,6.36-3.61,14.75-1.93,18.4,3.93a10.4,10.4,0,0,1,1.24,2.82,53.26,53.26,0,0,1,1.87,12.64c.19,7.38.72,14.74,1.05,22.12.12,2.53.28,5.08.3,7.61.18,20.12,4.83,39.31,12,58,4.66,12.05,10.11,23.75,15.82,35.35,4,8.07,8.14,16,12.28,24,3.34,6.44,7,12.72,10.48,19.09,4,7.29,7.93,14.59,11.6,22.06A178,178,0,0,1,574,431.13c1,3.29,2.61,4.79,5.87,5.62,35.09,9,70.75-6.15,88.36-36.92a6.56,6.56,0,0,0,.46-6.08,198,198,0,0,1-8.9-37.33Q658,344.26,656.88,332c-.64-6.78-.82-13.59-1.27-20.38-.51-7.7-.86-15.41-1.35-23.12-.34-5.4-.8-10.81-1-16.23-.28-6.44-1-12.87-1.68-19.28-.8-7.46-1.75-14.89-2.68-22.33C647,215.87,644,201.26,639,187.21a128.57,128.57,0,0,0-10.36-21.84c-3-5.05-6-10.11-8.81-15.24-1.78-3.22-3.66-6.39-5.6-9.52a30.68,30.68,0,0,1-4.42-10.43c-.93-4.91.19-9.38,3.7-12.71,4.27-4,9.3-6.77,15.64-5.43a25,25,0,0,0,4.83.29,57.18,57.18,0,0,1,31.48,10c10.64,7.06,19.14,16.27,26.26,26.79,3,4.48,5.88,9.09,8.8,13.65,1.11,1.74,1.36,3.94,2.9,5.61,2.53-.81,4.7-2.36,7-3.6,1-.54,1.13-1.27.67-2.3-2.27-5.15-3.57-10.64-6.21-15.72-2.3-4.44-3.59-9.43-1.87-14.71a13.64,13.64,0,0,1,8.78-9c4.3-1.61,8.36-.93,12.37.89,15.69,7.13,27.91,18.2,37.27,32.6a109.73,109.73,0,0,1,10.26,18.75,2.77,2.77,0,0,0,2.29,1.82,81.6,81.6,0,0,0,15.53,1.27c1.86,0,1.56-1.26,1.58-2.38.23-10.18.32-20.36.73-30.52.2-5,1-9.88,4.38-13.93a16.6,16.6,0,0,1,8.71-5.85A56.2,56.2,0,0,1,817.26,124q24.45-.77,48.89-1.74c2.11-.09,4.06.55,6.48.77.07-3,.16-5.8.19-8.64A56.68,56.68,0,0,1,874.07,102a16.46,16.46,0,0,1,9.18-11.48,29,29,0,0,1,11.43-2.5q9-.44,18-.83,33.62-1.53,67.24-3.06,40.89-1.92,81.77-3.9c2.66-.13,5.33-.07,8-.33a30.47,30.47,0,0,1,10.62.89c6.91,1.75,11.11,5.92,13,12.85,1.19,4.45,1.17,8.9,1.19,13.4,0,2.42,0,4.84,0,7.44,9.64-1.82,19.13-.85,28.57-1s19-.29,28.45-.1c4.85.09,9.66.92,13.59,4.27a16.65,16.65,0,0,1,5.81,8.74,49.48,49.48,0,0,1,1.44,12c0,7.17.3,14.33.35,21.5,0,1.53.48,2.07,1.94,2.63,7.26,2.77,12.58,8,16.9,14.28a118.38,118.38,0,0,1,11.26,19.39c1.93,4.41,4.14,8.69,6.06,13.11,3.35,7.75,5.7,15.8,8.32,23.76,2.29,7,3.71,14.28,5.31,21.49,3.5,15.77,7,31.55,10.26,47.38s6.71,31.83,10.22,47.72c1.74,7.87,3.62,15.73,5.82,23.49,2.9,10.19,6.17,20.27,9.54,30.32.87,2.58,3.12,2.77,5.21,3.84.53-2.16,1-4.13,1.49-6.11,1.88-8,5.87-14.43,13.26-18.45a18,18,0,0,0,2.86-1.94c4.89-4.06,10.75-6.16,16.62-8.2a131.82,131.82,0,0,1,21.38-5.67,3,3,0,0,0,2.7-2.54,88.84,88.84,0,0,1,10.27-22.51,24.77,24.77,0,0,1,17.21-11.66c3.53-.65,6.88.5,10,2.09a21.19,21.19,0,0,1,7.52,6.51,49,49,0,0,1,7.45,14.72c1.91,6.3,3.79,12.6,5.48,19,.56,2.08,1.49,3,3.64,3.27,5.4.66,10.63,2.18,15.95,3.26,8.05,1.65,14.88,6,22.15,9.46,9.94,4.69,14.34,18.84,11.31,28.13A85.17,85.17,0,0,1,1421,439.51c-4.34,6.13-8.78,12.19-13.53,18-.59.72-1.14,1.46-1.78,2.13-3.11,3.27-3.11,3.26-1.15,7.11a76.31,76.31,0,0,0,14.2,19.56c1.83,1.82,2.21,2,4,.24,3.41-3.53,7.79-5.69,11.62-8.58,7.24-5.48,14.49-10.94,21.47-16.72,8.87-7.34,17.84-14.56,26.47-22.21,6.29-5.57,12.94-10.74,19.24-16.3,4.06-3.59,8.36-6.87,12.67-10.11,6.35-4.76,13.08-9,19.78-13.26a77.86,77.86,0,0,1,30-11.64c5.42-.85,10.79-.44,15.7,2.47,1.69,1,3.37,2,5.13,2.89,4.53,2.25,7.11,6.08,8.77,10.67a27.24,27.24,0,0,1,.77,17c-.81,2.88-1.28,5.84-2.3,8.68a11.19,11.19,0,0,0-.39,5.44,111.27,111.27,0,0,1,1.47,20.21,32.88,32.88,0,0,0,.53,6.83c.57,3.28.9,6.62,1.29,9.89.53,4.42,1.28,8.82,1.77,13.26.83,7.41,2,14.79,3.16,22.14,1,6.58,1.71,13.2,2.41,19.79,1,9.57,1.31,19.22,1.56,28.84.24,8.88.14,17.77-.07,26.65-.25,10.49-1.24,20.93-2.18,31.37-1.07,11.95-2.72,23.83-4.73,35.64-2.21,13-4.76,25.87-7.81,38.68-2.19,9.2-4.21,18.46-6.91,27.52s-5.16,17.93-8.07,26.81c-2.26,6.89-4.81,13.69-6.82,20.67a37.46,37.46,0,0,1-1.61,4.2c-3.26,7.76-5.29,16-9.13,23.51-4.41,8.6-8.19,17.49-12.66,26.08a374.91,374.91,0,0,1-29.3,46.88c-6.38,8.79-13.13,17.32-20.33,25.44a356.06,356.06,0,0,1-25.49,25.91,369.46,369.46,0,0,1-32.12,26.32c-3.27,2.39-6.62,4.67-10.78,5.25a14.51,14.51,0,0,1-2,.31c-7.17,0-14.35.19-21.51-.07-4.24-.16-8.16-1.53-10.65-5.46-3.42-5.37-2.26-13.12,2.66-16.8,10.47-7.81,20.22-16.48,30-25.15,5.44-4.83,11-9.48,15.84-15a159.07,159.07,0,0,0,14.39-19,2.77,2.77,0,0,0-.11-3.69,72.67,72.67,0,0,0-5-6.49c-2.17,1.68-4.35,3.31-6.47,5-3.76,3-8.24,4.18-12.85,4.6-6.91.62-13.09-4-15.32-10.59-2.33-6.82-.15-12.75,3.12-18.43,2.56-4.44,6.7-7.6,10.41-11,5.08-4.71,9.93-9.66,14.65-14.73a11,11,0,0,0,2.38-3.15,78.16,78.16,0,0,0-25.71-18.92,3.36,3.36,0,0,0-3.23.26,22.72,22.72,0,0,1-5.12,2c-8.29,1.9-15.23-.83-19.79-8.09-.41-.65-.73-1.11-1.52-1.12a67.34,67.34,0,0,0-10.09.35c.85,3.15,2.7,5.57,3.31,8.53,1.36,6.54,1.74,12.85-.65,19.37s-4.88,12.61-8.94,18.22c-3.46,4.8-8.18,7.39-13.53,9-8.7,2.65-16-.69-22.64-6a22.32,22.32,0,0,1-4.18-4.6c-4-5.68-9.52-9.69-15.39-13.23a42.69,42.69,0,0,0-6-3.5,4.75,4.75,0,0,0-5.13.7,116.37,116.37,0,0,0-20,19.53c-3,3.64-6.14,7.2-9,11a6.91,6.91,0,0,0-1.45,4.74q.86,21,1.62,42,1,25.3,1.89,50.62c.84,22.18,1.65,44.37,2.62,66.55a33.13,33.13,0,0,1-1.63,12.29,15.71,15.71,0,0,1-10.15,10.13,38,38,0,0,1-12.26,1.84q-79.29-.27-158.58-.37c-22.2,0-44.42-.52-66.61,0-31.1.78-62.2.23-93.29.32-6.79,0-13.61-.44-20.42-.42q-107.34.18-214.68.42a28.61,28.61,0,0,1-11.17-2.1A16.43,16.43,0,0,1,684,1016c-2-6.51-1.15-13.08-1-19.63.21-9.13.72-18.25,1.09-27.38.13-3.25.1-3.11-3-3.12-4.74,0-9.52-.23-13.43-3.47-4.28-3.55-5.65-8.13-4.87-13.6.7-4.93,3.89-8.55,6.18-12.64a133.31,133.31,0,0,0,10.32-23.74A7.39,7.39,0,0,0,679.48,911ZM573.74,688.32a10.78,10.78,0,0,1-1.78-1,144.49,144.49,0,0,1-14.74-14.11,86.32,86.32,0,0,1-10.28-14.31,69,69,0,0,1-8.86-27.13,97.34,97.34,0,0,1,1.41-28.94c1.45-7.36,3.12-14.66,5.28-21.85s4.25-14.47,6.43-21.7c2.89-9.6,6.1-19.11,8.93-28.73,4.51-15.33,7.63-30.9,8.16-46.9.3-9,.31-18-1.41-26.9-1.75-9.06-3.48-18.13-6.91-26.78-2.6-6.54-5.22-13.07-8.26-19.43-3.53-7.4-7.55-14.55-11.4-21.77-3.36-6.31-7.26-12.35-10.44-18.75-4-8.06-8.35-15.94-12.26-24.06-5.56-11.55-11-23.14-15.77-35.05a191.14,191.14,0,0,1-13.94-67.31c-.21-9.34-1-18.66-1-28a15,15,0,0,0-1.38-7.35,10.11,10.11,0,0,0-3.18,1.54c-1,.56-.55,1.68-.93,2.46a7.25,7.25,0,0,1-1,1.39c-5.78,6.75-9.71,14.6-12.94,22.77-5.19,13.1-7.15,26.92-7.94,40.85a236.57,236.57,0,0,0,2.08,44.5c1.12,8.44,2.62,16.84,4.42,25.17,2.28,10.48,4.8,20.9,7.73,31.22a428.31,428.31,0,0,0,13.61,41.07c4,10.08,7.29,20.46,12.5,30a3.13,3.13,0,0,1,.46,2.32l0,0c-.95.11-1.49-.59-2-1.15-3.25-3.44-6.62-6.79-9.65-10.42a255.52,255.52,0,0,1-18-23.64c-3.54-5.41-7.13-10.81-10.21-16.46a264,264,0,0,1-14.23-30A301.85,301.85,0,0,1,430,313.33c-.51-2.84,0-5.79-1.1-8.54-.28-.73-.18-1.71-1.29-1.76s-1.34.71-1.63,1.51c-.88,2.5-1.84,5-2.64,7.51a144.37,144.37,0,0,0-5.59,27.77,67.85,67.85,0,0,0-.49,11.71c.39,6-.09,12,.86,18,.64,4.07.8,8.26,1.5,12.34a227.8,227.8,0,0,0,6.21,26.59,383.77,383.77,0,0,0,13.06,36.11c2.59,6.29,6.39,12,9.05,18.24,3.56,8.42,8.4,16.19,13.11,24,4.21,7,8.35,14.08,13.7,20.33.28.33.44.83-.25,1.31-2.26-.46-4.35-1.71-6.5-2.71a128.63,128.63,0,0,1-31.28-20.3A141.14,141.14,0,0,1,422,470.3a135.72,135.72,0,0,1-13.34-18.89,132.59,132.59,0,0,1-10.24-20.77c-.32-.87-.65-1.73-1-2.56a1.31,1.31,0,0,0-1.35-.87,1.34,1.34,0,0,0-1.21,1.45c-.05,1.5,0,3,0,4.5,0,5.78-.35,11.61.27,17.32a170.37,170.37,0,0,0,3.35,19c2.55,11.29,7.17,21.72,12.52,31.81a162.26,162.26,0,0,0,23,32.37,207.54,207.54,0,0,0,31.73,28.88,102.35,102.35,0,0,0,11.77,7.94c.6.32,1.49.64,1.25,1.43s-1.15,1-2,.82a13.55,13.55,0,0,0-2.74-.36c-7.17.15-13.91-1.88-20.55-4.21-12.43-4.35-23.59-11.05-34-19-8.05-6.19-16-12.57-22.58-20.36-.37-.44-.8-.9-1.46-.71a1.63,1.63,0,0,0-1.19,1.52,8.4,8.4,0,0,0,.27,2.39c1.2,6.62,3.55,12.88,5.83,19.17A110.64,110.64,0,0,0,417.79,582a114,114,0,0,0,14.06,14.77c13.32,11.77,28,21,45.09,26.37.87.28,2.12.28,2.28,1.85a32.35,32.35,0,0,1-6.89,2c-4.9,1-9.81.59-14.78.26-7.4-.51-14.56-2.06-21.75-3.61a157.12,157.12,0,0,1-15.92-4.57c-.88-.29-1.85-.75-2.59.06s-.17,1.78.23,2.58c1.79,3.63,2.17,7.8,5.24,11,1.82,1.9,3,4.62,4.5,6.93a73.73,73.73,0,0,0,16.54,17.54,71.77,71.77,0,0,0,24.58,12.38,76.84,76.84,0,0,0,19.35,3.25c2,0,4-.5,6,.17a2,2,0,0,1-1.06,1.55c-5.36,4.06-11.61,6.2-17.95,7.94a114.37,114.37,0,0,1-23.5,3.69c-1.17.07-2.4.17-2.92,1.43s.48,1.87,1.1,2.7a61.21,61.21,0,0,0,10,10.06,57.21,57.21,0,0,0,34.86,13.41,59.23,59.23,0,0,0,20.16-2.31c.75-.22,1.64-.91,2.19,0s-.31,1.52-.95,2c-2.8,2-5.31,4.49-8.38,6.14a142.57,142.57,0,0,1-22.69,10.29c-3.94,1.3-7.81,2.87-11.62,4.51-2.24,1-2.38,1.83-.73,3.64a72.27,72.27,0,0,0,6.35,6.39c5.7,4.89,12.1,8.46,19.6,9.82a52.87,52.87,0,0,0,12.32.54,45.44,45.44,0,0,0,18.87-5c2.56-1.33,4.79-3.24,7.5-4.32.62-.25,1.25-.8,1.89-.21s.37,1.32.2,2c-.87,3.23-1.56,6.54-2.72,9.66a150,150,0,0,1-17,32.77c-.93,1.36-.66,2.52.78,2.47,1.78-.06,3.32.78,5.1.73,5.57-.15,10.62-2,15.38-4.57,9-4.78,16-12,22.72-19.51,1.78-2,3.09-4.49,5.74-6.36a71.71,71.71,0,0,1-.89,18.67,164.45,164.45,0,0,1-8.19,31.79,26.17,26.17,0,0,0-1.26,5c-.22,1.28.7,1.82,1.7,1.18,1.89-1.2,4.06-1.63,6.09-2.42a18.81,18.81,0,0,0,4.51-2.53,75.68,75.68,0,0,0,16-16.62c5.63-7.81,9.57-16.54,13.47-25.28.81-1.82,1.12-3.9,2.33-5.46.86.22.86.72,1,1.15,1.93,6.7,2.11,13.64,2.71,20.51.52,6-.32,12-.84,17.95a33.24,33.24,0,0,1-.85,6.83C603,819,602.43,825,600.44,830.67a1.71,1.71,0,0,0,.43,1.9c.76.75,1.49.32,2.2-.08,1.42-.79,2.89-1.49,4.23-2.39a75.2,75.2,0,0,0,22.26-22.91,83.63,83.63,0,0,0,10.9-29.35c.4-2.13.94-4.2.24-6.46a3.88,3.88,0,0,1,1.43-4.32,2.54,2.54,0,0,1,1,2.46c-.23,5.36,1,10.58,1.89,15.77,1.39,8.53,1.22,17,1.09,25.56a63.86,63.86,0,0,1-1.37,12,40.47,40.47,0,0,1-2.94,9.55c-.72,1.48.17,2.52,1.77,2.22a6.37,6.37,0,0,0,1.28-.52,40.38,40.38,0,0,0,18-15.67c5-7.77,7-16.44,7.61-25.57.15-2.45-.52-5,.49-8a153.45,153.45,0,0,1,18.68,32.89c.11-.87.15-1.32.21-1.76.86-5.64,2.24-11,6.39-15.35,11.59-12.27,23-24.71,34.51-37q21.53-23.08,43.08-46.15c1.57-1.68,3.64-3.26,4.35-5.28.61-1.71-.43-4-.72-6,0-.09.1-.2.15-.29.84-.44,1.12,1.3,2.17.4,0-.45.11-1,.12-1.58.26-10.86.09-21.72.65-32.59.54-10.27.15-20.57.67-30.85.58-11.55.12-23.12.73-34.67.53-9.93.26-19.88.63-29.82.61-16.06.66-32.13,1-48.2a14.27,14.27,0,0,0-1-5.71,42.82,42.82,0,0,0-6.84-11.17C769.82,504.47,762,501,752.85,500.2c-1.67-.14-2.48,1.37-1.63,2.81a7.87,7.87,0,0,0,1.08,1.36c5,5,7.36,11.38,9,18,2.39,10,1.9,20.23.46,30.27a177.19,177.19,0,0,1-9,34.39c-4.25,11.84-8.34,23.7-9.68,36.36a47,47,0,0,0,4.49,25.51c1,2.19,2.37,4.23,3.86,6.85a11.92,11.92,0,0,1-1.88-.75c-7.85-5.58-15.14-11.81-20.87-19.59-3.65-5-7.61-9.69-10.25-15.41-1.58-3.42-3-7-5.1-10.19a2.08,2.08,0,0,1-.41-2.27c.49-.85,1.44-.5,2.21-.5a3.6,3.6,0,0,1,1,.23c1.46.41,3,1,4.26-.27s.16-2.86-.33-4.17c-3.49-9.28-9.23-17.26-14.84-25.3-1.71-2.45-3.57-4.81-5.34-7.23-.34-.46-.65-1-.25-1.58a1.51,1.51,0,0,1,1.57-.48,9.9,9.9,0,0,1,3.49,1.48c1,.6,2,1.4,3.06.25s.22-2.1-.21-3.15a32.74,32.74,0,0,0-5.16-8.16,9,9,0,0,1-2.08-5,34.58,34.58,0,0,0-1.78-8.07,132.31,132.31,0,0,0-10.37-24.1c-3.92-7.07-7.84-14.12-13.07-20.3-1.87-2.21-2.64-3.95-.42-6.2a3.43,3.43,0,0,0,.58-1.25c3.21-8.42,4.06-17.23,4.25-26.15a4.9,4.9,0,0,0-.24-1.7c-.51-1.4-1.73-1.63-2.6-.46a10.37,10.37,0,0,0-1.12,2.14,12.05,12.05,0,0,1-3.26,4c-.53.48-1.19.83-1.87.3-.5-.39-.43-1-.33-1.58a36.7,36.7,0,0,0,1-6.81,51.2,51.2,0,0,0-6.25-23.53c-.44-.83-.81-1.85-1.88-1.74s-1.3,1.24-1.5,2.11c-.58,2.47-1,5-1.6,7.43-1.4,5.45-4.12,10-9.29,12.74-1.73.92-3.45,1.87-5.2,2.77-6.87,3.54-13.65,7.1-19.75,12.07a69.55,69.55,0,0,0-15,17c-7.26,11.52-9.39,24.46-9.37,37.74a56.41,56.41,0,0,0,2.45,17.4c1,3,.38,5.58-.67,8.37a112.64,112.64,0,0,0-6.86,32.38,117.63,117.63,0,0,0,.63,20c.26,2.49,1.44,4.66,2.35,7,.5-2.27,1.78-4.14,2.21-6.25,1.4-6.86,4.34-13.13,7.34-19.36A159.14,159.14,0,0,1,618,573.5c4.54-7.16,11.15-11.22,19-13.57,4.92-1.48,8.76.61,11.15,5.24a61.2,61.2,0,0,1,4.9,13.3q3.74,14.78,7.61,29.5c1.54,5.93,2.19,12,3.08,18a127.89,127.89,0,0,1,.75,26.94,149.1,149.1,0,0,1-3.16,23.58c-2.66,11.49-5.46,22.91-12.3,32.85-2,2.88-7.26,5-10.32,4-1-.33-1.77-.65-1.52-1.87a31.63,31.63,0,0,0-.14-11.68c-1.51-9.47-5.09-17.92-12.09-24.71a96.92,96.92,0,0,0-11.34-9.07c-6.48-4.65-13.59-8.35-19.85-13.35-6.44-5.14-12.44-10.72-17.08-17.56a56.38,56.38,0,0,1-9.79-25.25c-.37-3.24-.76-6.41,0-9.63a27.49,27.49,0,0,0,.52-3.41,1.42,1.42,0,0,0-.76-1.45,1.31,1.31,0,0,0-1.54.44,9,9,0,0,0-.94,1c-8.54,11.38-11.45,24.33-10.25,38.25a89.24,89.24,0,0,0,5.66,23.83,183.13,183.13,0,0,0,9.5,20.39c1.55,3,3.79,5.48,5.08,8.57Q573.93,688.11,573.74,688.32ZM1505.23,770l0,0a10.09,10.09,0,0,1,1.55-4.18c1.65-3.14,3.2-6.35,5-9.39,1.72-2.88,2.74-6.11,4.39-9,3.18-5.51,5.07-11.57,7.86-17.25,4.34-8.79,7.14-18.23,10.4-27.47,1-2.81,2-5.6,2.85-8.47,2.17-7.25,4.39-14.48,6.38-21.79q2-7.29,3.77-14.61c.66-2.67,1-5.42,1.66-8.07,2.24-8.79,3.52-17.77,5.08-26.68,1.69-9.72,2.73-19.59,3.6-29.43.86-9.65,1.27-19.34,1.63-29,.22-6-.15-12,0-18,.22-9.48-1-18.86-1.63-28.28a7,7,0,0,0-1.24-3.74c-.77,2.09-1.64,3.66-1.9,5.31-1,6.23-3.23,12.1-4.78,18.17-1.78,7-4.13,13.85-6.32,20.72-2.55,8-5.88,15.75-8.16,23.85-1.51,5.36-4.47,10.1-6.51,15.23-1.9,4.8-3.63,9.65-5.9,14.34-2.74,5.66-5.23,11.47-7.93,17.17-1.32,2.78-2.63,5.64-4.08,8.3q-4.65,8.55-9.6,17c-3.7,6.34-7.62,12.53-11.67,18.62a239.27,239.27,0,0,1-25.17,31.11c-.75.81-1.36,2-2.74,1.91l-.4-.31a12,12,0,0,1,.73-1.93c2.89-4.93,5.86-9.83,8.73-14.77,2.69-4.64,5.51-9.22,7.88-14s5.28-9.63,7.73-14.56c1-2.13,2-4.35,3.26-6.44a97.08,97.08,0,0,0,6-11.91c1.34-3.19,3-6.19,4.43-9.34,2.17-4.93,5-9.58,6.69-14.71a6.63,6.63,0,0,1,.68-1.59c3.19-5,5.06-10.6,7.12-16,6.91-18.1,14.16-36.09,19.77-54.66,1.17-3.85,2.17-7.76,3.25-11.62.8-2.85,2.07-5.64,2.37-8.62s1.83-5.58,2.1-8.61c.24-2.69,1.28-5.33,1.84-8,1.28-6,2.23-12.14,3.21-18.24,1.35-8.51,2.57-17,2.56-25.7a46.46,46.46,0,0,1,.33-5.52,57,57,0,0,0-.17-11c-.18-2.46-.87-2.63-3.11-1.63s-3.63,2.82-5.47,4.19a73.77,73.77,0,0,0-11.3,10.54,267.22,267.22,0,0,0-26.28,34.89c-2.91,4.66-6,9.19-8.82,13.91-3,5-5.58,10.19-8.53,15.19-3.2,5.4-6.22,10.9-9.15,16.45-1.86,3.53-3.84,7-5.74,10.51-1.58,2.92-3.16,5.84-4.69,8.78-2.41,4.66-4.68,9.39-7.18,14-2.82,5.22-5.77,10.37-8.76,15.49a189.09,189.09,0,0,1-17,24.72c-5.75,7-11.79,13.84-19,19.52a37.79,37.79,0,0,1-13.52,7.31c-4,1-7.58.32-10.13-3.28a44,44,0,0,1-3.87-5.73c-3.56-7.3-5.56-15.13-7.14-23a107.61,107.61,0,0,1-2.16-14c-.09-1.3-.68-1.53-1.82-1.25a1.93,1.93,0,0,0-1.62,1.88c-.47,2.82-1,5.64-1.78,8.4-.85,3.2-1.31,6.48-2.09,9.69-1.46,6-2.38,12.16-4.35,18-.33,1-.59,2-.87,3a73.83,73.83,0,0,1-5.74,15.13,137.86,137.86,0,0,1-14.51,21.29c-5.87,7.27-12.12,14.2-18.48,21-1.11,1.19-3,2.27-1.78,4.37,1.33,2.31,3.22.55,4.63.22a41.94,41.94,0,0,1,15.08-1.09,8.44,8.44,0,0,1,7.38,5.88,20.82,20.82,0,0,1,1.11,7.48,85,85,0,0,1-.87,12c-1.23,7.58-2,15.23-3.12,22.83-1.53,10.08-3.12,20.13-5.06,30.14-.54,2.77-.33,5.11,2.06,7.36a47.5,47.5,0,0,1,9.34,13.21c1.11,2.15,1.11,4.46,1.44,6.71a2.83,2.83,0,0,1-1.34,3c-1.24.61-1.84-.61-2.62-1.2a7,7,0,0,1-1.22-1.22c-3.18-4.15-7.19-7.45-11-10.95a62.3,62.3,0,0,0-9-6.94c-3.89-2.41-4.09-2.58-3.5-6.78,1.28-9.1.29-17.93-3.82-26.21-3.94-7.95-12.53-12.75-21.55-9.33a42.64,42.64,0,0,0-15.71,10.4,162.56,162.56,0,0,0-11.83,13.42c-5.23,6.76-10,13.79-14.64,20.94-1,1.59-1.11,2.86.29,4.29,2.36,2.39,4.58,4.9,6.85,7.36,3.08,3.35,5.51,6.94,6.31,11.65.57,3.36,1,6.73,1.29,10.94,2.32-3.38,4.82-5.54,7-8a93.34,93.34,0,0,1,16.07-14.56c5.87-4.07,12-5.32,18.81-1.95a82.48,82.48,0,0,1,12.07,7.25c5,3.65,9.93,7.46,13.52,12.69a21.79,21.79,0,0,0,3.77,4c2.74,2.35,6,3.76,9.56,2.68a13,13,0,0,0,7.15-5.21,54.67,54.67,0,0,0,6.75-13.92,19.84,19.84,0,0,0-.74-14.44c-1.07-2.5-2.84-4.48-4.4-6.61-2.93-4-5.76-8-6.2-13.27a29.13,29.13,0,0,1,2.69-14.32,11.33,11.33,0,0,0,1-2.57c.62-3.59,2.67-6.61,4-9.89a156,156,0,0,1,7.34-14.33c4.28-7.92,9.21-15.41,16.66-20.73,5.56-4,11.52-7.05,18.79-6.8a10.63,10.63,0,0,1,9.45,6.83c2.08,5.87,2.36,11.83,1.84,18a91.78,91.78,0,0,1-2.5,14.22,41.64,41.64,0,0,1-3.6,9.68c-3.32,6.18-7.56,11.77-11,17.85a11.28,11.28,0,0,0-1.18,6.33,2.55,2.55,0,0,0,1.78,2.31c2.56,1.2,4.79.71,7.27-1.44,4.65-4,8.26-9,11.76-13.94,7.26-10.3,15.2-20,25.25-27.69a54.88,54.88,0,0,1,7.81-5.06,64.47,64.47,0,0,1,8.55-3.62c5.58-2,11.25-3.17,17.26-1.89,4.23.9,7.19,3.68,7.76,8.08a26.89,26.89,0,0,1-.17,7.6c-1.07,6.71-3.31,13.13-5.49,19.5a188.34,188.34,0,0,1-8.11,20.2c-3.06,6.42-6,12.88-9.51,19.07-3.84,6.8-7.92,13.48-13.11,19.35a260.93,260.93,0,0,1-20.77,20.77c-2.75,2.48-5.34,5.12-6.23,8.94-.49,2.1.93,5,2.64,4.76s3.44-.29,4.91-1.45c6.49-5.13,12.91-10.34,19.56-15.27s13.59-9.91,21.19-13.61a20.46,20.46,0,0,1,7.33-1.95,5.06,5.06,0,0,1,5.69,5.1,20.94,20.94,0,0,1-1.79,9.41c-1.85,4.34-3.45,8.76-5.66,13-3.08,5.91-6.5,11.59-10,17.27-3.7,6.09-7.82,11.92-12,17.71a122.58,122.58,0,0,1-11.91,14.37c-5.08,5.17-10.54,10-16,14.72-8,6.9-15.94,14-24.31,20.49-.93.73-2.12,1.32-2.56,2.93,5.52,0,10.82-.13,16.1,0a10.41,10.41,0,0,0,6.73-2.19,348.58,348.58,0,0,0,31.18-25.2,353.09,353.09,0,0,0,27.73-28.07c8.34-9.52,16-19.57,23.37-29.88,5.42-7.58,10.25-15.5,15.17-23.38,5.3-8.47,9.73-17.44,14.26-26.33,2.6-5.11,4.71-10.49,7.21-15.69a130.33,130.33,0,0,0,6.4-16.76c1.29-4,3.16-7.86,4.44-12,1.77-5.68,3.87-11.27,5.59-17,1.55-5.16,3.63-10.19,4.82-15.42.61-2.71,1.8-5.17,2.37-7.89,1.06-5.06,2.47-10.06,3.91-15s2.46-10,3.63-15c1.73-7.47,3.62-14.92,4.8-22.52.86-5.55,2.2-11,3-16.58,1.33-9.1,2.66-18.2,3.71-27.34.91-8,1.71-16,2.23-24,.71-10.89.64-21.83.82-32.75,0-2.17,0-4.35-.1-6.51-.21-6.19-.89-12.37-1.09-18.56-.21-6.45-.87-12.87-1.62-19.25-.67-5.68-1.36-11.37-2.35-17-.56-3.15-1.06-6.35-1.52-9.53-1-6.58-1.59-13.21-2.65-19.77a109.3,109.3,0,0,1-1.65-19.19,42.45,42.45,0,0,0-.66-10.27c-1.83-7.82-.43-15.31,2-22.68a20.62,20.62,0,0,0,.69-8.19,8.53,8.53,0,0,0-3-6.05c-4.2-3.24-8.9-5.09-14.46-4.19a61.27,61.27,0,0,0-20.51,7.63A205.18,205.18,0,0,0,1520,425.07c-4,3.1-7.93,6.27-11.9,9.38-5,3.95-9.53,8.6-14.5,12.65-7.72,6.29-15.24,12.83-23,19.12-7.12,5.79-14.18,11.62-21.48,17.18-2.19,1.68-4.51,3.17-6.66,4.88a173.35,173.35,0,0,1-14.85,10.6,180.8,180.8,0,0,1-17.26,10.22c-6.86,3.36-13.75,6.34-21.34,7.51a21.75,21.75,0,0,1-24.73-15.34,41,41,0,0,1-1.65-15.3,58.36,58.36,0,0,1,1.75-11.88,3.27,3.27,0,0,1,1.68-2.47,137.52,137.52,0,0,0,13.88-7.49c1.8-1.09,3-2.81,4.76-3.95a58.87,58.87,0,0,0,13.7-12.41q4.44-5.49,8.58-11.22c3.3-4.57,6.55-9.16,9.46-14a34.84,34.84,0,0,0,4.36-10.82c.84-3.93-1.13-9-4.32-10.93a73.19,73.19,0,0,0-22.3-9.56,140.49,140.49,0,0,0-22.25-3.66c-1.71-.11-2.4-.49-2.6-2.32a92.33,92.33,0,0,0-2-9.43,146.24,146.24,0,0,0-4.55-16c-1.6-4.78-3.45-9.47-6.92-13.35-3.63-4.07-5.77-4.31-9.77-.69-.26.23-.46.52-.72.74-2.62,2.21-3.73,5.43-5.37,8.26a108,108,0,0,0-4.67,10.27c-1.58,3.56-2.2,7.45-4.2,10.87-.88,1.5-1.31,2.55-3.26,2.83a136.93,136.93,0,0,0-23.13,5.38c-7,2.3-13.76,5.13-19.74,9.63s-8.47,10.34-8.36,17.73c.11,8.28,3.22,15.51,7.29,22.38,4.93,8.32,10.89,15.84,18.61,21.83a2.76,2.76,0,0,1,.86,3.88c-2,4-3.78,8-5.68,12.06-.37.78-1,1.44-1.92,1-2.44-1.32-5.26-1.37-7.76-2.7a78.18,78.18,0,0,1-13.57-9.19,53.12,53.12,0,0,1-12.39-14.52c-1.77-3.12-2.95-6.47-4.45-9.69-3.09-6.68-5.56-13.62-8.39-20.41-1.86-4.47-3.23-9.14-4.79-13.74-1.89-5.58-4.08-11.09-5.54-16.78-1.83-7.11-3.84-14.18-5.71-21.28-1.79-6.78-3.21-13.65-4.83-20.46-1.72-7.25-3.2-14.58-4.73-21.88s-3.21-14.81-4.86-22.2c-1.71-7.72-3.25-15.48-4.83-23.23-1.47-7.2-3.16-14.34-4.74-21.5-1.7-7.76-3.59-15.45-5.92-23a144.35,144.35,0,0,0-7.62-20.4c-2.83-5.88-5.4-11.91-8.85-17.49-2.83-4.58-5.38-9.38-9.06-13.33-1.27-1.37-2.28-3.43-4.74-4-.08.78-.17,1.32-.19,1.86-.21,9.25.56,18.49.55,27.74a4.72,4.72,0,0,0,.65,2.66,83.52,83.52,0,0,1,5.43,10.35,116.34,116.34,0,0,1,6.71,18.88c1.37,4.84,3.1,9.61,4,14.62,1,5.28,2.88,10.38,4.15,15.62.62,2.56,1.31,5.11,1.89,7.69.7,3.13,1.67,6.22,2.19,9.37.86,5.33,1.82,10.63,2.44,16,.76,6.64,1.27,13.29,1.78,19.94.53,6.94.47,13.94,1,20.88.68,9.16.57,18.34.91,27.51.58,15.2.22,30.44.46,45.65.12,7.8.7,15.58,1.06,23.37a53.47,53.47,0,0,0,.23,5.53c1.21,8,2.73,15.9,6.06,23.3a41.46,41.46,0,0,0,6.26,10.64c2.21,2.52,4.9,4.46,7.14,6.78,3.13,3.24,7.17,3.64,10.82,4.74a19.49,19.49,0,0,0,11.61-.47c5.13-1.72,10.49-1.58,15.71-1.54a168.36,168.36,0,0,1,28,2.56c4.37.77,8.8,1.33,13,2.88a2.17,2.17,0,0,0,2.5-.45,8.44,8.44,0,0,0,2.74-4.3c.81-3.25,1.71-6.48,2.63-9.7.15-.54,0-1.46,1-1.39a1.6,1.6,0,0,1,.45,1.61c-.32,3.28-.64,6.56-1.06,9.83-.85,6.56-4.92,9.76-10.45,11.88a34.28,34.28,0,0,1-13.25,2c-6.43-.17-11.26,2.89-15.51,7.12a68.35,68.35,0,0,0-12.64,18.4c-2.34,4.71-4.24,9.61-6.14,14.52-1.73,4.5-3.23,9.07-4.63,13.64a126.7,126.7,0,0,0-4.95,21.88c-.37,3.08-1.15,6.11-1.4,9.19-.42,5-.77,10-1.12,15-.52,7.51-.68,15-.86,22.53-.23,9.43-.18,18.87.32,28.29.27,5.15.2,10.31.78,15.46.39,3.46.08,7,.08,10.76a13.87,13.87,0,0,1-3-2.71c-6.75-7.81-13.12-16-22.18-21.46a8.1,8.1,0,0,0-9.74.57,50.28,50.28,0,0,0-9.45,12.25,104.45,104.45,0,0,0-6.63,13.47c-1,2.32-3,4.48-2.16,7.56,2.29-1.08,4.44-2.18,6.56-3.26a35,35,0,0,1,14.26-3.63,18.58,18.58,0,0,1,11.8,3.24,39.53,39.53,0,0,1,11.56,13.51c2.23,4.07,3.52,8.52,5.42,12.71,2.25,5,2.83,10.18,2.94,15.51a241.44,241.44,0,0,1-.64,24.51c-.41,5-.46,10.06-1.31,15a6.52,6.52,0,0,0,2.09,6.22c3.16,3,6,6.39,9,9.6.37.4.73.93,1.44.75.75-.54.5-1.48.87-2.18,5.86-11,11.87-22,18.45-32.66,5.79-9.38,11.87-18.57,18.13-27.63,4.52-6.52,9.15-13,13.74-19.43,4.46-6.29,8.86-12.61,13.49-18.77,4.49-6,8.33-12.39,12.84-18.33,6-8,11.43-16.4,17-24.7,4.89-7.31,8.4-15.44,11.68-23.61,2.32-5.79,3.51-11.93,4.7-18,1.24-6.31,1.52-12.75,1.91-19.16.31-5.1-.68-10.11-1-15.16-.46-8.24-2.59-16.12-4.55-24-1.16-4.71-2.83-9.28-4.28-13.91-.2-.63-.66-1.24,0-2.05a113.14,113.14,0,0,1,13.6,12.93c7.89,8.64,15.44,17.58,22.87,26.62,3.28,4,6.56,8,10,11.82,1.4,1.57,2.89,3.28,5,3.88,4.94,1.39,9.36.26,13.7-2.48a76.37,76.37,0,0,0,15.69-13.87,267.24,267.24,0,0,0,20.54-25.91c4.93-7,10.1-13.91,15-21,5.45-7.91,10.6-16,16.07-23.95,3.31-4.8,6.88-9.43,10.34-14.14A207.41,207.41,0,0,1,1514.53,460a163.52,163.52,0,0,1,16.18-15.4c4.07-3.34,8-6.88,12.58-9.59,2.89-1.71,5.77-3.43,8.55-5.3,3.37-2.28,7.2-3.51,10.9-5,2.2-.89,4,.64,3.24,2.72-1.08,2.91-1.64,6.09-3.55,8.62a4.63,4.63,0,0,0-.82,4.22c2.36,9.76,3.54,19.7,4.88,29.63.88,6.49,1.76,13,2.39,19.5,1.06,11.08,2,22.2,2.16,33.36.12,9.92.26,19.85.1,29.77q-.2,11.73-1.34,23.44c-.57,5.83-.82,11.7-1.55,17.52-1,7.74-2.16,15.46-3.46,23.15-1.27,7.45-2.47,14.93-4.29,22.25s-3.44,14.5-5.56,21.67c-1.75,5.92-3.33,12-5.33,17.76-2.2,6.42-4,13-6.74,19.23-2.16,5-3.6,10.33-6.24,15s-4.34,9.85-6.85,14.64c-2.64,5.06-5.26,10.19-7.82,15.31-3.13,6.22-6.78,12.2-10.44,18.14C1509.56,763.86,1507.9,767.29,1505.23,770ZM1158.32,471.91c0-.8-.12-1.6-.14-2.4q-.56-35.2-1.12-70.42-.72-48.58-1.41-97.15-.7-48.92-1.4-97.84-.48-34.17-.91-68.34c0-3.76.28-3.49-3.65-3.47l-44.76.21c-.92,0-1.85,0-2.77.08-2.8.2-2.85.21-2.82,3,.1,9.36.25,18.73.34,28.1q.39,42.15.74,84.31.67,77,1.33,154.06c.22,32.14.78,64.27.49,96.42,0,3.81.2,7.63.26,11.44.37,25.56.69,51.11,1.09,76.67q.89,56.71,1.84,113.44c0,.7,0,1.39,0,2.08a1.15,1.15,0,0,1-1.27,1.29l-2.08,0c-13.3.14-26.6.44-39.9.39-20.77-.09-41.53.8-62.33-.18-13.9-.65-27.91-.89-41.83.56q-47.19-.39-94.38-.78c-4.37,0-4,.62-3.92-4.18q.63-41.28,1.29-82.57.71-44.76,1.38-89.51.71-45.1,1.4-90.21t1.4-90.2q.66-42.84,1.32-85.69.87-58.11,1.71-116.23c0-.69,0-1.39,0-2.08,0-1-.4-1.5-1.43-1.46-.69,0-1.39,0-2.08,0q-21.15.78-42.3,1.55c-3.23.12-6.47.35-9.7.41-1.49,0-2.12.6-2,2.06,0,.46,0,.93,0,1.39l-2.07,96.09-2,94.7q-1.07,49.08-2.12,98.17l-2,94.7q-1.08,50.12-2.15,100.25-.88,42.32-1.68,84.64a8.09,8.09,0,0,1-2.32,5.84q-42.51,45.51-84.95,91.1a9.12,9.12,0,0,0-2.71,6.41c-.47,16.53-1.08,33.06-1.7,49.59q-1.56,41.07-3.18,82.16-1,25.47-1.94,51c-.08,2.08,0,4.17-.22,6.24-.16,1.76.62,2.28,2.2,2.13a12.89,12.89,0,0,1,1.39,0c78.75.22,157.49-.71,236.23.17,30.62.34,61.26-.07,91.89-.27,72.86-.45,145.73,0,218.6.09,3,0,6,0,9,0,2.68,0,2.68-.06,2.57-2.74q-.83-20.44-1.64-40.9-1.42-37.27-2.8-74.54-1.23-33.1-2.41-66.22c-.12-3.47.39-7.25-.85-10.29s-4.24-5.08-6.52-7.52q-40.2-43.17-80.43-86.31a7.59,7.59,0,0,1-2.31-5.47c-.28-17.23-.73-34.46-1.11-51.69q-1.05-48.56-2.09-97.13-.88-42.14-1.72-84.29c0-2.78-.11-5.55-.24-8.32C1161.23,471.68,1161.18,471.68,1158.32,471.91Zm-80.68-86.71h-.3c0-12.6.07-25.21,0-37.81q-.32-46.49-.72-93-.55-75.63-1.08-151.26c0-.81-.07-1.62,0-2.43.12-1.58-.68-2-2.1-1.88-.69.07-1.39,0-2.08.07l-41.23,2q-29.44,1.39-58.9,2.76-38.1,1.77-76.22,3.54c-3.14.15-3.14.14-3.19,3.31q-.27,18.91-.55,37.81-.69,50-1.37,99.91L888.5,348.81l-1.41,101.65-1.41,103.37q-.3,22-.58,44-.48,35.57-1,71.12c0,2.58,0,2.64,2.68,2.66,38.15.28,76.3,1.36,114.46.85,25.44-.34,50.88-.56,76.32-.84,3.41,0,3.4,0,3.35-3.4q-.42-27.75-.84-55.5c-.49-34.46-1-68.91-1.42-103.37C1078.25,468,1078,426.6,1077.64,385.2Zm-290.3-52.37c-1.87,4.08-3,7.69-5,10.84a.9.9,0,0,1-.68-1.23,40.1,40.1,0,0,0,1-10.3c0-2.19,0-4.39,0-6.58,0-9.13,0-18.26,0-27.38,0-1.6-.89-3.11-.28-4.78a5.91,5.91,0,0,0-.62-5,10.39,10.39,0,0,1-1-5c-.08-3.25,1-6.43.48-9.66-.67-4.21-1-8.45-1.34-12.7-.57-7.24-1.94-14.37-3.15-21.52-2.61-15.5-6-30.76-11.39-45.59a146.2,146.2,0,0,0-15.08-30.62c-7.63-11.65-17.48-20.77-30.08-26.8-1.32-.64-2.76-2.42-4.32-.84s0,3.25.31,4.88a1.79,1.79,0,0,0,.13.32c4.21,7.76,6.58,16.22,9.19,24.57,2.82,9,4.75,18.29,6.66,27.54a258.27,258.27,0,0,1,4.11,25.92q1,10.14,1.61,20.33c.5,8.89.69,17.77.49,26.64-.24,10.36-.83,20.72-2,31-.9,8.13-2.21,16.19-3.16,24.3-.18,1.53.07,3.5-1.52,4.85a19.48,19.48,0,0,1-.87-6.26,24.4,24.4,0,0,0-.25-4.84c-1.92-11.12-3.28-22.32-5.39-33.4q-3-16-6.85-31.76c-2.15-9-4.92-17.79-7.5-26.65-3-10.33-6.83-20.34-10.71-30.34a187.6,187.6,0,0,0-10.58-22.5,126.34,126.34,0,0,0-13.31-20.15c-4.51-5.43-9.26-10.66-15-14.84-9.69-7.07-20.28-11.27-32.56-9.63a1.78,1.78,0,0,1-1.59-.31c-1.91-1.61-2.88.52-4.09,1.2s-.4,1.78-.1,2.79c.93,3,3.26,5.31,4.53,8.15a83.91,83.91,0,0,0,5.37,9.24c3.12,5.11,6.17,10.28,9,15.53,4.75,8.85,9,18,11.59,27.75.83,3.12,1.82,6.21,2.59,9.34a254.21,254.21,0,0,1,5.09,25.43c1,6.82,1.69,13.7,2.54,20.54,1,8,1.74,16,2.4,24,.59,7.1,1,14.23,1.41,21.36.5,8.16.94,16.32,1.37,24.48.38,7.14,1,14.25,1.46,21.38.56,8.29,1.82,16.5,3.15,24.66a145.65,145.65,0,0,0,9.31,33.24,112.68,112.68,0,0,0,20.45,32.64,117.3,117.3,0,0,0,29.51,23.31c5.64,3.16,10.71,7.18,16.42,10.3,2.92,1.59,5.64,3.92,8.51,5.81,8.5,5.6,16.71,11.53,23.77,18.93.75.79,1.15,2,2.74,2.36.19-2.9.47-5.72.57-8.55.34-10.27.15-20.56.62-30.85.54-11.88.38-23.8.74-35.7.56-18.71.69-37.44,1-56.17,0-1,.23-2.07.23-3.1C787.35,346.84,787.34,340.19,787.34,332.83Zm444.53,322.84c2.37-2.35,2.43-2.43,1.72-5.4-1.16-4.81-2-9.66-2.92-14.53-1.85-10.36-2.43-20.83-2.87-31.3-.27-6.27.21-12.55.54-18.83a144.28,144.28,0,0,1,3.54-25.2c2.2-9.4,4-19,8.41-27.64,1.37-2.69.77-4.18-1-5.91-3,2.32-5.87,4.78-9,6.86a79.32,79.32,0,0,1-10.06,6,88.33,88.33,0,0,1-10.74,4.5,18.85,18.85,0,0,1-10.89.54c-4.47-1.25-7.57-4.52-9.41-8.61a71.51,71.51,0,0,1-6.12-20.44c-.49-3.86-1.52-7.64-1.48-11.58a5.53,5.53,0,0,0-.43,3.06c.09,7.51.12,15,.47,22.53.53,11.07.16,22.18.72,33.27.53,10.27.16,20.57.67,30.85.54,10.85.26,21.72.68,32.59.51,12.93.21,25.89.86,38.82,0,.71.09,1.42.14,2.14,1.78-2.43,2.59-5,3.79-7.47,4.15-8.41,8.28-16.87,14.71-23.91,2.75-3,3.76-3.25,7.4-1.48,4.45,2.17,7.62,5.81,11,9.2A138.9,138.9,0,0,1,1231.87,655.67Zm-57.77-417a14,14,0,0,0-.34,5.71,57.93,57.93,0,0,1,.33,5.88c.27,15,.13,30,.57,45.07.54,18.25.24,36.52.8,54.78.44,14.09.21,28.19.59,42.29.52,19.87.28,39.76.86,59.63.13,4.23-.44,8.54,1.78,12.48.64,1.13.23,2.72,1.6,3.91.49-4.81.46-9.4.52-13.91.06-5.56.4-11.13.81-16.64.48-6.36.57-12.77,1.46-19.13.36-2.56.65-5.22.79-7.86a78.36,78.36,0,0,1,1-10.62c.65-3.41.61-6.86,1.13-10.28.83-5.42.82-11,1.43-16.43.21-1.84-.2-3.69.22-5.44,1-4.19.35-8.46.9-12.7.67-5.18.27-10.51.26-15.78,0-7.66.23-15.34-.27-23s-.8-15.33-1.84-22.95c-.68-5-.81-10.15-1.8-15.07-1-4.71-1.6-9.48-2.7-14.17-1.66-7.06-2.92-14.2-5.67-20.95C1175.92,242.11,1175.82,240.42,1174.1,238.7ZM1233.85,763c.93-6.73.15-13.11-.21-19.49-.29-5.18-1.48-10.26-2.5-15.33-1.52-7.48-3.67-14.74-7.76-21.29-3.05-4.89-6.72-9.13-12.38-11-3.66-1.22-7.33-1.41-11,.44a30.44,30.44,0,0,0-12.78,12.15c-1.64,2.8-1.78,2.78.3,5,4.5,4.81,9,9.58,13.52,14.4,7.79,8.38,15.53,16.79,23.33,25.16C1227.48,756.4,1230.68,759.69,1233.85,763ZM687.54,864.75c-.75,1-1,1.37-1.28,1.75-3.82,5.85-7.63,11.66-13.31,16-3.39,2.6-6.62,5.39-10.39,7.43-.82.43-1.77.78-1.86,1.86-.11,1.35,1.08,1.59,1.95,2.11,3.53,2.07,7.4,2.9,11.4,3.61a28.61,28.61,0,0,0,9.9-.1c2.84-.48,2.9-.77,3-3.66.18-4.27.18-8.53.49-12.81C687.82,875.86,687.54,870.69,687.54,864.75Zm-1.91,68.67a11.78,11.78,0,0,0-1.07,1.2c-2.69,4.84-5.11,9.83-8.23,14.43a8.6,8.6,0,0,0-.79,1.54c-.43,1.07-.12,1.89,1.06,2a19.4,19.4,0,0,0,6.84.08,1.52,1.52,0,0,0,1.39-1.63C685,945.38,684.85,939.66,685.63,933.42Z" transform="translate(-381.14 -79.81)"/><path class="cls-2" d="M1158.32,471.91c2.86-.23,2.91-.23,3,2.38.13,2.77.19,5.54.24,8.32q.87,42.15,1.72,84.29,1,48.57,2.09,97.13c.38,17.23.83,34.46,1.11,51.69a7.59,7.59,0,0,0,2.31,5.47q40.25,43.13,80.43,86.31c2.28,2.44,5.34,4.61,6.52,7.52s.73,6.82.85,10.29q1.23,33.11,2.41,66.22,1.37,37.28,2.8,74.54.78,20.45,1.64,40.9c.11,2.68.11,2.72-2.57,2.74-3,0-6,0-9,0-72.87-.09-145.74-.54-218.6-.09-30.63.2-61.27.61-91.89.27-78.74-.88-157.48.05-236.23-.17a12.89,12.89,0,0,0-1.39,0c-1.58.15-2.36-.37-2.2-2.13.18-2.07.14-4.16.22-6.24q1-25.49,1.94-51,1.57-41.08,3.18-82.16c.62-16.53,1.23-33.06,1.7-49.59a9.12,9.12,0,0,1,2.71-6.41q42.51-45.53,84.95-91.1a8.09,8.09,0,0,0,2.32-5.84q.76-42.31,1.68-84.64,1.05-50.13,2.15-100.25l2-94.7q1.06-49.09,2.12-98.17l2-94.7,2.07-96.09c0-.46.06-.93,0-1.39-.11-1.46.52-2,2-2.06,3.23-.06,6.47-.29,9.7-.41q21.15-.79,42.3-1.55c.69,0,1.39,0,2.08,0,1,0,1.46.47,1.43,1.46,0,.69,0,1.39,0,2.08q-.86,58.11-1.71,116.23-.63,42.84-1.32,85.69-.69,45.11-1.4,90.2t-1.4,90.21q-.69,44.75-1.38,89.51-.63,41.28-1.29,82.57c-.07,4.8-.45,4.14,3.92,4.18q47.19.41,94.38.78c13.92-1.45,27.93-1.21,41.83-.56,20.8,1,41.56.09,62.33.18,13.3,0,26.6-.25,39.9-.39l2.08,0a1.15,1.15,0,0,0,1.27-1.29c0-.69,0-1.38,0-2.08q-.92-56.71-1.84-113.44c-.4-25.56-.72-51.11-1.09-76.67-.06-3.81-.3-7.63-.26-11.44.29-32.15-.27-64.28-.49-96.42q-.54-77-1.33-154.06-.36-42.15-.74-84.31c-.09-9.37-.24-18.74-.34-28.1,0-2.81,0-2.82,2.82-3,.92-.06,1.85-.07,2.77-.08l44.76-.21c3.93,0,3.6-.29,3.65,3.47q.45,34.17.91,68.34.68,48.93,1.4,97.84.7,48.57,1.41,97.15.54,35.21,1.12,70.42C1158.2,470.31,1158.27,471.11,1158.32,471.91ZM1020.81,987.26q79.8,0,159.61,0a33.58,33.58,0,0,0,19.22-5.73c4-2.7,7.76-5.85,8.82-10.7a54,54,0,0,0,1.71-11.94c-.18-29.25.25-58.51-.37-87.76-.18-8.2.32-16.38.11-24.59-.17-6.67.13-13.38.11-20,0-15.46,1-31-1-46.41a18.24,18.24,0,0,0-3.45-8.8c-4.6-6.32-11.4-9-18.64-10.22a105.57,105.57,0,0,0-20-1.38c-12.24.35-24.49,0-36.75.41-14.09.44-28.2.1-42.31-.2-9.71-.21-19.42-.11-29.14-.16-2.57,0-2.63-.05-2.65-2.33-.07-10,.26-20.08-.76-30.1-.29-2.84-.87-3.78-3.77-4.5-4.25-1.07-8.61-1.49-12.89-2.27-6.47-1.19-13-1.91-19.49-2.46-7-.59-14-1.61-21-1.33a44.48,44.48,0,0,1-6.93-.19c-6.7-.79-13.38-.22-20.08-.06-11.31.26-22.54,1.45-33.81,2.27a8.2,8.2,0,0,0-2,.33c-3.09,1.06-6.36,1-9.53,1.52-4.07.65-8.17,1.13-12.18,2.15-2.57.66-3.61,1.68-3.59,4.31,0,3.94-.55,7.82-.75,11.72-.31,5.89-.19,11.79-.24,17.69,0,3.22,0,3.25-3.16,3.25-13.41,0-26.83.47-40.24-.07-4.67-.19-9.13,1.1-13.74,1.12-8.65,0-17.27-.42-25.91-.91-10.26-.58-20.58-.18-30.87-.12a102.68,102.68,0,0,0-14.85.74c-7.82,1.18-14.58,4.08-20.15,9.73A13.06,13.06,0,0,0,756,778c-.35,4-.74,8-.86,12-.24,8.67-.2,17.34-.2,26q0,64.53,0,129.07a60,60,0,0,0,.62,10.37,14.09,14.09,0,0,1,.15,5.17,21.14,21.14,0,0,0,0,6.5c.45,5.2,3.14,9.16,6.89,12.32A33,33,0,0,0,785,987.24c16.51-.29,33,.51,49.56-.5,9.31-.56,18.69.36,28,.41C915.32,987.39,968.06,987.26,1020.81,987.26Z" transform="translate(-381.14 -79.81)"/><path class="cls-3" d="M1461.82,706.44c1.38,0,2-1.11,2.74-1.92a239.27,239.27,0,0,0,25.17-31.11c4-6.09,8-12.28,11.67-18.62q4.93-8.41,9.6-17c1.45-2.66,2.76-5.52,4.08-8.3,2.7-5.7,5.19-11.51,7.93-17.17,2.27-4.69,4-9.54,5.9-14.34,2-5.13,5-9.87,6.51-15.23,2.28-8.1,5.61-15.85,8.16-23.85,2.19-6.87,4.54-13.73,6.32-20.72,1.55-6.07,3.82-11.94,4.78-18.17.26-1.65,1.13-3.22,1.9-5.31a7,7,0,0,1,1.24,3.74c.6,9.42,1.85,18.8,1.63,28.28-.14,6,.23,12,0,18-.36,9.68-.77,19.37-1.63,29-.87,9.84-1.91,19.71-3.6,29.43-1.56,8.91-2.84,17.89-5.08,26.68-.67,2.65-1,5.4-1.66,8.07q-1.8,7.34-3.77,14.61c-2,7.31-4.21,14.54-6.38,21.79-.86,2.87-1.86,5.66-2.85,8.47-3.26,9.24-6.06,18.68-10.4,27.47-2.79,5.68-4.68,11.74-7.86,17.25-1.65,2.86-2.67,6.09-4.39,9-1.82,3-3.37,6.25-5,9.39a10.09,10.09,0,0,0-1.55,4.18,2.81,2.81,0,0,0-.89.35c-.35.29-.54.71-.13,1.1a1.82,1.82,0,0,0,.66-.57,3.85,3.85,0,0,0,.32-.92c2.67-2.74,4.33-6.17,6.29-9.37,3.66-5.94,7.31-11.92,10.44-18.14,2.56-5.12,5.18-10.25,7.82-15.31,2.51-4.79,4.2-9.91,6.85-14.64s4.08-10.05,6.24-15c2.71-6.25,4.54-12.81,6.74-19.23,2-5.81,3.58-11.84,5.33-17.76,2.12-7.17,3.76-14.44,5.56-21.67s3-14.8,4.29-22.25c1.3-7.69,2.49-15.41,3.46-23.15.73-5.82,1-11.69,1.55-17.52q1.14-11.7,1.34-23.44c.16-9.92,0-19.85-.1-29.77-.13-11.16-1.1-22.28-2.16-33.36-.63-6.5-1.51-13-2.39-19.5-1.34-9.93-2.52-19.87-4.88-29.63a4.63,4.63,0,0,1,.82-4.22c1.91-2.53,2.47-5.71,3.55-8.62.77-2.08-1-3.61-3.24-2.72-3.7,1.49-7.53,2.72-10.9,5-2.78,1.87-5.66,3.59-8.55,5.3-4.57,2.71-8.51,6.25-12.58,9.59a163.52,163.52,0,0,0-16.18,15.4,207.41,207.41,0,0,0-15.22,17.83c-3.46,4.71-7,9.34-10.34,14.14-5.47,7.91-10.62,16-16.07,23.95-4.88,7.08-10.05,14-15,21a267.24,267.24,0,0,1-20.54,25.91,76.37,76.37,0,0,1-15.69,13.87c-4.34,2.74-8.76,3.87-13.7,2.48-2.15-.6-3.64-2.31-5-3.88-3.45-3.83-6.73-7.83-10-11.82-7.43-9-15-18-22.87-26.62a113.14,113.14,0,0,0-13.6-12.93c-.65.81-.19,1.42,0,2.05,1.45,4.63,3.12,9.2,4.28,13.91,2,7.91,4.09,15.79,4.55,24,.29,5.05,1.28,10.06,1,15.16-.39,6.41-.67,12.85-1.91,19.16-1.19,6.09-2.38,12.23-4.7,18-3.28,8.17-6.79,16.3-11.68,23.61-5.55,8.3-10.94,16.72-17,24.7-4.51,5.94-8.35,12.38-12.84,18.33-4.63,6.16-9,12.48-13.49,18.77-4.59,6.47-9.22,12.91-13.74,19.43-6.26,9.06-12.34,18.25-18.13,27.63-6.58,10.64-12.59,21.61-18.45,32.66-.37.7-.12,1.64-.87,2.18-.71.18-1.07-.35-1.44-.75-3-3.21-5.87-6.56-9-9.6a6.52,6.52,0,0,1-2.09-6.22c.85-5,.9-10,1.31-15a241.44,241.44,0,0,0,.64-24.51c-.11-5.33-.69-10.55-2.94-15.51-1.9-4.19-3.19-8.64-5.42-12.71A39.53,39.53,0,0,0,1223,685.7a18.58,18.58,0,0,0-11.8-3.24,35,35,0,0,0-14.26,3.63c-2.12,1.08-4.27,2.18-6.56,3.26-.83-3.08,1.21-5.24,2.16-7.56a104.45,104.45,0,0,1,6.63-13.47,50.28,50.28,0,0,1,9.45-12.25,8.1,8.1,0,0,1,9.74-.57c9.06,5.46,15.43,13.65,22.18,21.46a13.87,13.87,0,0,0,3,2.71c0-3.77.31-7.3-.08-10.76-.58-5.15-.51-10.31-.78-15.46-.5-9.42-.55-18.86-.32-28.29.18-7.51.34-15,.86-22.53.35-5,.7-10,1.12-15,.25-3.08,1-6.11,1.4-9.19a126.7,126.7,0,0,1,4.95-21.88c1.4-4.57,2.9-9.14,4.63-13.64,1.9-4.91,3.8-9.81,6.14-14.52A68.35,68.35,0,0,1,1274,510c4.25-4.23,9.08-7.29,15.51-7.12a34.28,34.28,0,0,0,13.25-2c5.53-2.12,9.6-5.32,10.45-11.88.42-3.27.74-6.55,1.06-9.83a1.6,1.6,0,0,0-.45-1.61c-1-.07-.87.85-1,1.39-.92,3.22-1.82,6.45-2.63,9.7a8.44,8.44,0,0,1-2.74,4.3,2.17,2.17,0,0,1-2.5.45c-4.18-1.55-8.61-2.11-13-2.88a168.36,168.36,0,0,0-28-2.56c-5.22,0-10.58-.18-15.71,1.54a19.49,19.49,0,0,1-11.61.47c-3.65-1.1-7.69-1.5-10.82-4.74-2.24-2.32-4.93-4.26-7.14-6.78a41.46,41.46,0,0,1-6.26-10.64c-3.33-7.4-4.85-15.33-6.06-23.3a53.47,53.47,0,0,1-.23-5.53c-.36-7.79-.94-15.57-1.06-23.37-.24-15.21.12-30.45-.46-45.65-.34-9.17-.23-18.35-.91-27.51-.52-6.94-.46-13.94-1-20.88-.51-6.65-1-13.3-1.78-19.94-.62-5.37-1.58-10.67-2.44-16-.52-3.15-1.49-6.24-2.19-9.37-.58-2.58-1.27-5.13-1.89-7.69-1.27-5.24-3.18-10.34-4.15-15.62-.92-5-2.65-9.78-4-14.62a116.34,116.34,0,0,0-6.71-18.88,83.52,83.52,0,0,0-5.43-10.35,4.72,4.72,0,0,1-.65-2.66c0-9.25-.76-18.49-.55-27.74,0-.54.11-1.08.19-1.86,2.46.56,3.47,2.62,4.74,4,3.68,3.95,6.23,8.75,9.06,13.33,3.45,5.58,6,11.61,8.85,17.49a144.35,144.35,0,0,1,7.62,20.4c2.33,7.59,4.22,15.28,5.92,23,1.58,7.16,3.27,14.3,4.74,21.5,1.58,7.75,3.12,15.51,4.83,23.23,1.65,7.39,3.3,14.79,4.86,22.2s3,14.63,4.73,21.88c1.62,6.81,3,13.68,4.83,20.46,1.87,7.1,3.88,14.17,5.71,21.28,1.46,5.69,3.65,11.2,5.54,16.78,1.56,4.6,2.93,9.27,4.79,13.74,2.83,6.79,5.3,13.73,8.39,20.41,1.5,3.22,2.68,6.57,4.45,9.69a53.12,53.12,0,0,0,12.39,14.52,78.18,78.18,0,0,0,13.57,9.19c2.5,1.33,5.32,1.38,7.76,2.7.88.48,1.55-.18,1.92-1,1.9-4,3.67-8.1,5.68-12.06a2.76,2.76,0,0,0-.86-3.88c-7.72-6-13.68-13.51-18.61-21.83-4.07-6.87-7.18-14.1-7.29-22.38-.11-7.39,2.39-13.23,8.36-17.73s12.72-7.33,19.74-9.63a136.93,136.93,0,0,1,23.13-5.38c1.95-.28,2.38-1.33,3.26-2.83,2-3.42,2.62-7.31,4.2-10.87a108,108,0,0,1,4.67-10.27c1.64-2.83,2.75-6.05,5.37-8.26.26-.22.46-.51.72-.74,4-3.62,6.14-3.38,9.77.69,3.47,3.88,5.32,8.57,6.92,13.35a146.24,146.24,0,0,1,4.55,16,92.33,92.33,0,0,1,2,9.43c.2,1.83.89,2.21,2.6,2.32a140.49,140.49,0,0,1,22.25,3.66,73.19,73.19,0,0,1,22.3,9.56c3.19,2,5.16,7,4.32,10.93a34.84,34.84,0,0,1-4.36,10.82c-2.91,4.82-6.16,9.41-9.46,14q-4.14,5.73-8.58,11.22a58.87,58.87,0,0,1-13.7,12.41c-1.76,1.14-3,2.86-4.76,3.95a137.52,137.52,0,0,1-13.88,7.49,3.27,3.27,0,0,0-1.68,2.47,58.36,58.36,0,0,0-1.75,11.88,41,41,0,0,0,1.65,15.3A21.75,21.75,0,0,0,1389,516.61c7.59-1.17,14.48-4.15,21.34-7.51a180.8,180.8,0,0,0,17.26-10.22,173.35,173.35,0,0,0,14.85-10.6c2.15-1.71,4.47-3.2,6.66-4.88,7.3-5.56,14.36-11.39,21.48-17.18,7.72-6.29,15.24-12.83,23-19.12,5-4.05,9.45-8.7,14.5-12.65,4-3.11,7.91-6.28,11.9-9.38a205.18,205.18,0,0,1,24.23-16.54,61.27,61.27,0,0,1,20.51-7.63c5.56-.9,10.26,1,14.46,4.19a8.53,8.53,0,0,1,3,6.05,20.62,20.62,0,0,1-.69,8.19c-2.41,7.37-3.81,14.86-2,22.68a42.45,42.45,0,0,1,.66,10.27,109.3,109.3,0,0,0,1.65,19.19c1.06,6.56,1.7,13.19,2.65,19.77.46,3.18,1,6.38,1.52,9.53,1,5.66,1.68,11.35,2.35,17,.75,6.38,1.41,12.8,1.62,19.25.2,6.19.88,12.37,1.09,18.56.08,2.16.13,4.34.1,6.51-.18,10.92-.11,21.86-.82,32.75-.52,8-1.32,16-2.23,24-1,9.14-2.38,18.24-3.71,27.34-.81,5.55-2.15,11-3,16.58-1.18,7.6-3.07,15-4.8,22.52-1.17,5-2.19,10-3.63,15s-2.85,10-3.91,15c-.57,2.72-1.76,5.18-2.37,7.89-1.19,5.23-3.27,10.26-4.82,15.42-1.72,5.72-3.82,11.31-5.59,17-1.28,4.09-3.15,7.91-4.44,12a130.33,130.33,0,0,1-6.4,16.76c-2.5,5.2-4.61,10.58-7.21,15.69-4.53,8.89-9,17.86-14.26,26.33-4.92,7.88-9.75,15.8-15.17,23.38-7.37,10.31-15,20.36-23.37,29.88a353.09,353.09,0,0,1-27.73,28.07,348.58,348.58,0,0,1-31.18,25.2,10.41,10.41,0,0,1-6.73,2.19c-5.28-.18-10.58,0-16.1,0,.44-1.61,1.63-2.2,2.56-2.93,8.37-6.52,16.27-13.59,24.31-20.49,5.5-4.73,11-9.55,16-14.72a122.58,122.58,0,0,0,11.91-14.37c4.16-5.79,8.28-11.62,12-17.71,3.45-5.68,6.87-11.36,10-17.27,2.21-4.23,3.81-8.65,5.66-13a20.94,20.94,0,0,0,1.79-9.41,5.06,5.06,0,0,0-5.69-5.1,20.46,20.46,0,0,0-7.33,1.95c-7.6,3.7-14.42,8.59-21.19,13.61s-13.07,10.14-19.56,15.27c-1.47,1.16-3.23,1.25-4.91,1.45s-3.13-2.66-2.64-4.76c.89-3.82,3.48-6.46,6.23-8.94a260.93,260.93,0,0,0,20.77-20.77c5.19-5.87,9.27-12.55,13.11-19.35,3.49-6.19,6.45-12.65,9.51-19.07a188.34,188.34,0,0,0,8.11-20.2c2.18-6.37,4.42-12.79,5.49-19.5a26.89,26.89,0,0,0,.17-7.6c-.57-4.4-3.53-7.18-7.76-8.08-6-1.28-11.68-.11-17.26,1.89a64.47,64.47,0,0,0-8.55,3.62,54.88,54.88,0,0,0-7.81,5.06c-10,7.73-18,17.39-25.25,27.69-3.5,5-7.11,9.9-11.76,13.94-2.48,2.15-4.71,2.64-7.27,1.44a2.55,2.55,0,0,1-1.78-2.31,11.28,11.28,0,0,1,1.18-6.33c3.47-6.08,7.71-11.67,11-17.85a41.64,41.64,0,0,0,3.6-9.68,91.78,91.78,0,0,0,2.5-14.22c.52-6.15.24-12.11-1.84-18a10.63,10.63,0,0,0-9.45-6.83c-7.27-.25-13.23,2.82-18.79,6.8-7.45,5.32-12.38,12.81-16.66,20.73a156,156,0,0,0-7.34,14.33c-1.35,3.28-3.4,6.3-4,9.89a11.33,11.33,0,0,1-1,2.57,29.13,29.13,0,0,0-2.69,14.32c.44,5.25,3.27,9.24,6.2,13.27,1.56,2.13,3.33,4.11,4.4,6.61a19.84,19.84,0,0,1,.74,14.44,54.67,54.67,0,0,1-6.75,13.92,13,13,0,0,1-7.15,5.21c-3.56,1.08-6.82-.33-9.56-2.68a21.79,21.79,0,0,1-3.77-4c-3.59-5.23-8.51-9-13.52-12.69a82.48,82.48,0,0,0-12.07-7.25c-6.8-3.37-12.94-2.12-18.81,1.95a93.34,93.34,0,0,0-16.07,14.56c-2.2,2.44-4.7,4.6-7,8-.31-4.21-.72-7.58-1.29-10.94-.8-4.71-3.23-8.3-6.31-11.65-2.27-2.46-4.49-5-6.85-7.36-1.4-1.43-1.33-2.7-.29-4.29,4.64-7.15,9.41-14.18,14.64-20.94a162.56,162.56,0,0,1,11.83-13.42,42.64,42.64,0,0,1,15.71-10.4c9-3.42,17.61,1.38,21.55,9.33,4.11,8.28,5.1,17.11,3.82,26.21-.59,4.2-.39,4.37,3.5,6.78a62.3,62.3,0,0,1,9,6.94c3.82,3.5,7.83,6.8,11,10.95a7,7,0,0,0,1.22,1.22c.78.59,1.38,1.81,2.62,1.2a2.83,2.83,0,0,0,1.34-3c-.33-2.25-.33-4.56-1.44-6.71a47.5,47.5,0,0,0-9.34-13.21c-2.39-2.25-2.6-4.59-2.06-7.36,1.94-10,3.53-20.06,5.06-30.14,1.15-7.6,1.89-15.25,3.12-22.83a85,85,0,0,0,.87-12,20.82,20.82,0,0,0-1.11-7.48,8.44,8.44,0,0,0-7.38-5.88,41.94,41.94,0,0,0-15.08,1.09c-1.41.33-3.3,2.09-4.63-.22-1.2-2.1.67-3.18,1.78-4.37,6.36-6.84,12.61-13.77,18.48-21a137.86,137.86,0,0,0,14.51-21.29,73.83,73.83,0,0,0,5.74-15.13c.28-1,.54-2,.87-3,2-5.89,2.89-12,4.35-18,.78-3.21,1.24-6.49,2.09-9.69.74-2.76,1.31-5.58,1.78-8.4a1.93,1.93,0,0,1,1.62-1.88c1.14-.28,1.73-.05,1.82,1.25a107.61,107.61,0,0,0,2.16,14c1.58,7.9,3.58,15.73,7.14,23a44,44,0,0,0,3.87,5.73c2.55,3.6,6.17,4.33,10.13,3.28a37.79,37.79,0,0,0,13.52-7.31c7.18-5.68,13.22-12.48,19-19.52a189.09,189.09,0,0,0,17-24.72c3-5.12,5.94-10.27,8.76-15.49,2.5-4.61,4.77-9.34,7.18-14,1.53-2.94,3.11-5.86,4.69-8.78,1.9-3.51,3.88-7,5.74-10.51,2.93-5.55,6-11,9.15-16.45,3-5,5.56-10.2,8.53-15.19,2.8-4.72,5.91-9.25,8.82-13.91A267.22,267.22,0,0,1,1530.08,462a73.77,73.77,0,0,1,11.3-10.54c1.84-1.37,3.3-3.21,5.47-4.19s2.93-.83,3.11,1.63a57,57,0,0,1,.17,11,46.46,46.46,0,0,0-.33,5.52c0,8.66-1.21,17.19-2.56,25.7-1,6.1-1.93,12.21-3.21,18.24-.56,2.68-1.6,5.32-1.84,8-.27,3-1.81,5.64-2.1,8.61s-1.57,5.77-2.37,8.62c-1.08,3.86-2.08,7.77-3.25,11.62-5.61,18.57-12.86,36.56-19.77,54.66-2.06,5.4-3.93,11-7.12,16a6.63,6.63,0,0,0-.68,1.59c-1.73,5.13-4.52,9.78-6.69,14.71-1.39,3.15-3.09,6.15-4.43,9.34a97.08,97.08,0,0,1-6,11.91c-1.24,2.09-2.21,4.31-3.26,6.44-2.45,4.93-5.3,9.63-7.73,14.56s-5.19,9.39-7.88,14c-2.87,4.94-5.84,9.84-8.73,14.77a12,12,0,0,0-.73,1.93,1.2,1.2,0,0,0-.82,1.25c-.25.22-.47.46-.08.73a3.52,3.52,0,0,0,.4-.4A1.82,1.82,0,0,0,1461.82,706.44Zm-118-289.1a18.33,18.33,0,0,0-9.86,2.44c-3.19,1.88-3.36,3.5-.84,6.18.08.09.18.15.25.24,3.88,4.13,9.16,6,14,8.4a4.91,4.91,0,0,0,5.74-1.1,4.43,4.43,0,0,0,1-5.06c-.63-1.72-1-3.55-1.59-5.28A9,9,0,0,0,1343.79,417.34Zm30.5,17.85a22.57,22.57,0,0,0,7.55-6,1.8,1.8,0,0,0-.69-2.88c-1.47-.48-2.89-1.44-4.62-1.08-1.43.3-2.36.94-2.46,2.45A34.62,34.62,0,0,0,1374.29,435.19Z" transform="translate(-381.14 -79.81)"/><path class="cls-4" d="M1077.64,385.2c.34,41.4.61,82.8,1,124.2.37,34.46.93,68.91,1.42,103.37q.39,27.75.84,55.5c0,3.35.06,3.36-3.35,3.4-25.44.28-50.88.5-76.32.84-38.16.51-76.31-.57-114.46-.85-2.66,0-2.72-.08-2.68-2.66q.45-35.57,1-71.12.3-22,.58-44l1.41-103.37,1.41-101.65,1.38-100.59q.69-50,1.37-99.91.27-18.9.55-37.81c.05-3.17.05-3.16,3.19-3.31q38.12-1.75,76.22-3.54,29.46-1.38,58.9-2.76l41.23-2c.69,0,1.39,0,2.08-.07,1.42-.14,2.22.3,2.1,1.88-.06.81,0,1.62,0,2.43q.54,75.63,1.08,151.26.35,46.49.72,93c.08,12.6,0,25.21,0,37.81Z" transform="translate(-381.14 -79.81)"/><path class="cls-3" d="M500.31,451.51a3.13,3.13,0,0,0-.46-2.32c-5.21-9.57-8.51-19.95-12.5-30a428.31,428.31,0,0,1-13.61-41.07c-2.93-10.32-5.45-20.74-7.73-31.22-1.8-8.33-3.3-16.73-4.42-25.17a236.57,236.57,0,0,1-2.08-44.5c.79-13.93,2.75-27.75,7.94-40.85,3.23-8.17,7.16-16,12.94-22.77a7.25,7.25,0,0,0,1-1.39c.38-.78-.1-1.9.93-2.46a10.11,10.11,0,0,1,3.18-1.54,15,15,0,0,1,1.38,7.35c-.05,9.36.78,18.68,1,28a191.14,191.14,0,0,0,13.94,67.31c4.77,11.91,10.21,23.5,15.77,35.05,3.91,8.12,8.25,16,12.26,24.06,3.18,6.4,7.08,12.44,10.44,18.75,3.85,7.22,7.87,14.37,11.4,21.77,3,6.36,5.66,12.89,8.26,19.43,3.43,8.65,5.16,17.72,6.91,26.78,1.72,8.88,1.71,17.91,1.41,26.9-.53,16-3.65,31.57-8.16,46.9-2.83,9.62-6,19.13-8.93,28.73-2.18,7.23-4.27,14.48-6.43,21.7s-3.83,14.49-5.28,21.85a97.34,97.34,0,0,0-1.41,28.94,69,69,0,0,0,8.86,27.13,86.32,86.32,0,0,0,10.28,14.31A144.49,144.49,0,0,0,572,687.28a10.78,10.78,0,0,0,1.78,1c.15.21.32.55.6.29s0-.51-.18-.71c-1.29-3.09-3.53-5.61-5.08-8.57a183.13,183.13,0,0,1-9.5-20.39,89.24,89.24,0,0,1-5.66-23.83c-1.2-13.92,1.71-26.87,10.25-38.25a9,9,0,0,1,.94-1,1.31,1.31,0,0,1,1.54-.44,1.42,1.42,0,0,1,.76,1.45,27.49,27.49,0,0,1-.52,3.41c-.76,3.22-.37,6.39,0,9.63a56.38,56.38,0,0,0,9.79,25.25c4.64,6.84,10.64,12.42,17.08,17.56,6.26,5,13.37,8.7,19.85,13.35A96.92,96.92,0,0,1,625,675.12c7,6.79,10.58,15.24,12.09,24.71a31.63,31.63,0,0,1,.14,11.68c-.25,1.22.55,1.54,1.52,1.87,3.06,1,8.35-1.14,10.32-4,6.84-9.94,9.64-21.36,12.3-32.85a149.1,149.1,0,0,0,3.16-23.58,127.89,127.89,0,0,0-.75-26.94c-.89-6-1.54-12.09-3.08-18q-3.85-14.73-7.61-29.5a61.2,61.2,0,0,0-4.9-13.3c-2.39-4.63-6.23-6.72-11.15-5.24-7.8,2.35-14.41,6.41-19,13.57a159.14,159.14,0,0,0-9.38,16.12c-3,6.23-5.94,12.5-7.34,19.36-.43,2.11-1.71,4-2.21,6.25-.91-2.32-2.09-4.49-2.35-7a117.63,117.63,0,0,1-.63-20A112.64,112.64,0,0,1,603,555.84c1-2.79,1.63-5.41.67-8.37a56.41,56.41,0,0,1-2.45-17.4c0-13.28,2.11-26.22,9.37-37.74a69.55,69.55,0,0,1,15-17c6.1-5,12.88-8.53,19.75-12.07,1.75-.9,3.47-1.85,5.2-2.77,5.17-2.74,7.89-7.29,9.29-12.74.63-2.45,1-5,1.6-7.43.2-.87.41-2,1.5-2.11s1.44.91,1.88,1.74A51.2,51.2,0,0,1,671,463.47a36.7,36.7,0,0,1-1,6.81c-.1.61-.17,1.19.33,1.58.68.53,1.34.18,1.87-.3a12.05,12.05,0,0,0,3.26-4,10.37,10.37,0,0,1,1.12-2.14c.87-1.17,2.09-.94,2.6.46a4.9,4.9,0,0,1,.24,1.7c-.19,8.92-1,17.73-4.25,26.15a3.43,3.43,0,0,1-.58,1.25c-2.22,2.25-1.45,4,.42,6.2,5.23,6.18,9.15,13.23,13.07,20.3a132.31,132.31,0,0,1,10.37,24.1,34.58,34.58,0,0,1,1.78,8.07,9,9,0,0,0,2.08,5,32.74,32.74,0,0,1,5.16,8.16c.43,1,1.29,2,.21,3.15s-2.05.35-3.06-.25a9.9,9.9,0,0,0-3.49-1.48,1.51,1.51,0,0,0-1.57.48c-.4.58-.09,1.12.25,1.58,1.77,2.42,3.63,4.78,5.34,7.23,5.61,8,11.35,16,14.84,25.3.49,1.31,1.71,2.79.33,4.17s-2.8.68-4.26.27a3.6,3.6,0,0,0-1-.23c-.77,0-1.72-.35-2.21.5a2.08,2.08,0,0,0,.41,2.27c2.14,3.17,3.52,6.77,5.1,10.19,2.64,5.72,6.6,10.46,10.25,15.41,5.73,7.78,13,14,20.87,19.59a11.92,11.92,0,0,0,1.88.75c-1.49-2.62-2.83-4.66-3.86-6.85A47,47,0,0,1,743,623.42c1.34-12.66,5.43-24.52,9.68-36.36a177.19,177.19,0,0,0,9-34.39c1.44-10,1.93-20.25-.46-30.27-1.59-6.65-4-13-9-18a7.87,7.87,0,0,1-1.08-1.36c-.85-1.44,0-2.95,1.63-2.81,9.13.75,17,4.27,22.79,11.49a42.82,42.82,0,0,1,6.84,11.17,14.27,14.27,0,0,1,1,5.71c-.31,16.07-.36,32.14-1,48.2-.37,9.94-.1,19.89-.63,29.82-.61,11.55-.15,23.12-.73,34.67-.52,10.28-.13,20.58-.67,30.85-.56,10.87-.39,21.73-.65,32.59,0,.57-.08,1.13-.12,1.58-1,.9-1.33-.84-2.17-.4-.05.09-.16.2-.15.29.29,2,1.33,4.32.72,6-.71,2-2.78,3.6-4.35,5.28q-21.52,23.09-43.08,46.15c-11.51,12.34-22.92,24.78-34.51,37-4.15,4.38-5.53,9.71-6.39,15.35-.06.44-.1.89-.21,1.76a153.45,153.45,0,0,0-18.68-32.89c-1,3-.34,5.5-.49,8-.56,9.13-2.63,17.8-7.61,25.57a40.38,40.38,0,0,1-18,15.67,6.37,6.37,0,0,1-1.28.52c-1.6.3-2.49-.74-1.77-2.22a40.47,40.47,0,0,0,2.94-9.55,63.86,63.86,0,0,0,1.37-12c.13-8.53.3-17-1.09-25.56-.84-5.19-2.12-10.41-1.89-15.77a2.54,2.54,0,0,0-1-2.46,3.88,3.88,0,0,0-1.43,4.32c.7,2.26.16,4.33-.24,6.46a83.63,83.63,0,0,1-10.9,29.35A75.2,75.2,0,0,1,607.3,830.1c-1.34.9-2.81,1.6-4.23,2.39-.71.4-1.44.83-2.2.08a1.71,1.71,0,0,1-.43-1.9c2-5.68,2.54-11.71,4.26-17.44a33.24,33.24,0,0,0,.85-6.83c.52-6,1.36-11.95.84-17.95-.6-6.87-.78-13.81-2.71-20.51-.13-.43-.13-.93-1-1.15-1.21,1.56-1.52,3.64-2.33,5.46-3.9,8.74-7.84,17.47-13.47,25.28a75.68,75.68,0,0,1-16,16.62,18.81,18.81,0,0,1-4.51,2.53c-2,.79-4.2,1.22-6.09,2.42-1,.64-1.92.1-1.7-1.18a26.17,26.17,0,0,1,1.26-5A164.45,164.45,0,0,0,568,781.11a71.71,71.71,0,0,0,.89-18.67c-2.65,1.87-4,4.37-5.74,6.36-6.7,7.55-13.72,14.73-22.72,19.51-4.76,2.53-9.81,4.42-15.38,4.57-1.78,0-3.32-.79-5.1-.73-1.44.05-1.71-1.11-.78-2.47a150,150,0,0,0,17-32.77c1.16-3.12,1.85-6.43,2.72-9.66.17-.65.39-1.43-.2-2s-1.27,0-1.89.21c-2.71,1.08-4.94,3-7.5,4.32a45.44,45.44,0,0,1-18.87,5,52.87,52.87,0,0,1-12.32-.54c-7.5-1.36-13.9-4.93-19.6-9.82a72.27,72.27,0,0,1-6.35-6.39c-1.65-1.81-1.51-2.67.73-3.64,3.81-1.64,7.68-3.21,11.62-4.51a142.57,142.57,0,0,0,22.69-10.29c3.07-1.65,5.58-4.1,8.38-6.14.64-.46,1.47-1.14.95-2s-1.44-.2-2.19,0a59.23,59.23,0,0,1-20.16,2.31,57.21,57.21,0,0,1-34.86-13.41,61.21,61.21,0,0,1-10-10.06c-.62-.83-1.6-1.52-1.1-2.7s1.75-1.36,2.92-1.43a114.37,114.37,0,0,0,23.5-3.69c6.34-1.74,12.59-3.88,17.95-7.94a2,2,0,0,0,1.06-1.55c-1.95-.67-4-.14-6-.17a76.84,76.84,0,0,1-19.35-3.25,71.77,71.77,0,0,1-24.58-12.38,73.73,73.73,0,0,1-16.54-17.54c-1.53-2.31-2.68-5-4.5-6.93-3.07-3.21-3.45-7.38-5.24-11-.4-.8-1-1.75-.23-2.58s1.71-.35,2.59-.06a157.12,157.12,0,0,0,15.92,4.57c7.19,1.55,14.35,3.1,21.75,3.61,5,.33,9.88.73,14.78-.26a32.35,32.35,0,0,0,6.89-2c-.16-1.57-1.41-1.57-2.28-1.85-17.05-5.35-31.77-14.6-45.09-26.37A114,114,0,0,1,417.79,582a110.64,110.64,0,0,1-17.57-30.88c-2.28-6.29-4.63-12.55-5.83-19.17a8.4,8.4,0,0,1-.27-2.39,1.63,1.63,0,0,1,1.19-1.52c.66-.19,1.09.27,1.46.71,6.63,7.79,14.53,14.17,22.58,20.36,10.39,8,21.55,14.69,34,19,6.64,2.33,13.38,4.36,20.55,4.21a13.55,13.55,0,0,1,2.74.36c.89.17,1.77,0,2-.82s-.65-1.11-1.25-1.43a102.35,102.35,0,0,1-11.77-7.94,207.54,207.54,0,0,1-31.73-28.88,162.26,162.26,0,0,1-23-32.37c-5.35-10.09-10-20.52-12.52-31.81a170.37,170.37,0,0,1-3.35-19c-.62-5.71-.23-11.54-.27-17.32,0-1.5,0-3,0-4.5a1.34,1.34,0,0,1,1.21-1.45,1.31,1.31,0,0,1,1.35.87c.4.83.73,1.69,1,2.56a132.59,132.59,0,0,0,10.24,20.77A135.72,135.72,0,0,0,422,470.3a141.14,141.14,0,0,0,14.78,15.07A128.63,128.63,0,0,0,468,505.67c2.15,1,4.24,2.25,6.5,2.71.69-.48.53-1,.25-1.31-5.35-6.25-9.49-13.35-13.7-20.33-4.71-7.79-9.55-15.56-13.11-24-2.66-6.27-6.46-11.95-9.05-18.24a383.77,383.77,0,0,1-13.06-36.11,227.8,227.8,0,0,1-6.21-26.59c-.7-4.08-.86-8.27-1.5-12.34-1-6-.47-12-.86-18a67.85,67.85,0,0,1,.49-11.71,144.37,144.37,0,0,1,5.59-27.77c.8-2.53,1.76-5,2.64-7.51.29-.8.63-1.56,1.63-1.51s1,1,1.29,1.76c1.09,2.75.59,5.7,1.1,8.54a301.85,301.85,0,0,0,16.19,56.47,264,264,0,0,0,14.23,30c3.08,5.65,6.67,11.05,10.21,16.46a255.52,255.52,0,0,0,18,23.64c3,3.63,6.4,7,9.65,10.42.53.56,1.07,1.26,2,1.15a.94.94,0,0,0,.07.3s.21.07.21,0C500.7,451.65,500.59,451.53,500.31,451.51Zm135.42,59.06c0-1,0-2.08,0-3.12,0-1.54-.57-2.13-2.11-1.58a18.35,18.35,0,0,1-5.36,1.17c-6.4.32-10.3,5.33-9,11.6a42.18,42.18,0,0,0,2.12,6.92c2,5.29,4.43,5.8,8.69,2a9.69,9.69,0,0,0,1.5-1.87C634.62,521.08,635.5,515.92,635.73,510.57Z" transform="translate(-381.14 -79.81)"/><path class="cls-3" d="M787.34,332.83c0,7.36,0,14,0,20.67,0,1-.21,2.06-.23,3.1-.33,18.73-.46,37.46-1,56.17-.36,11.9-.2,23.82-.74,35.7-.47,10.29-.28,20.58-.62,30.85-.1,2.83-.38,5.65-.57,8.55-1.59-.33-2-1.57-2.74-2.36-7.06-7.4-15.27-13.33-23.77-18.93-2.87-1.89-5.59-4.22-8.51-5.81-5.71-3.12-10.78-7.14-16.42-10.3a117.3,117.3,0,0,1-29.51-23.31,112.68,112.68,0,0,1-20.45-32.64,145.65,145.65,0,0,1-9.31-33.24c-1.33-8.16-2.59-16.37-3.15-24.66-.47-7.13-1.08-14.24-1.46-21.38-.43-8.16-.87-16.32-1.37-24.48-.44-7.13-.82-14.26-1.41-21.36-.66-8-1.41-16-2.4-24-.85-6.84-1.58-13.72-2.54-20.54A254.21,254.21,0,0,0,656,199.38c-.77-3.13-1.76-6.22-2.59-9.34-2.58-9.78-6.84-18.9-11.59-27.75-2.82-5.25-5.87-10.42-9-15.53a83.91,83.91,0,0,1-5.37-9.24c-1.27-2.84-3.6-5.1-4.53-8.15-.3-1-1-2.15.1-2.79s2.18-2.81,4.09-1.2a1.78,1.78,0,0,0,1.59.31c12.28-1.64,22.87,2.56,32.56,9.63,5.72,4.18,10.47,9.41,15,14.84a126.34,126.34,0,0,1,13.31,20.15,187.6,187.6,0,0,1,10.58,22.5c3.88,10,7.71,20,10.71,30.34,2.58,8.86,5.35,17.67,7.5,26.65q3.79,15.81,6.85,31.76c2.11,11.08,3.47,22.28,5.39,33.4a24.4,24.4,0,0,1,.25,4.84,19.48,19.48,0,0,0,.87,6.26c1.59-1.35,1.34-3.32,1.52-4.85,1-8.11,2.26-16.17,3.16-24.3,1.15-10.32,1.74-20.68,2-31,.2-8.87,0-17.75-.49-26.64q-.57-10.2-1.61-20.33A258.27,258.27,0,0,0,732.18,193c-1.91-9.25-3.84-18.51-6.66-27.54-2.61-8.35-5-16.81-9.19-24.57a1.79,1.79,0,0,1-.13-.32c-.33-1.63-1.81-3.37-.31-4.88s3,.2,4.32.84c12.6,6,22.45,15.15,30.08,26.8a146.2,146.2,0,0,1,15.08,30.62c5.34,14.83,8.78,30.09,11.39,45.59,1.21,7.15,2.58,14.28,3.15,21.52.33,4.25.67,8.49,1.34,12.7.51,3.23-.56,6.41-.48,9.66a10.39,10.39,0,0,0,1,5,5.91,5.91,0,0,1,.62,5c-.61,1.67.29,3.18.28,4.78,0,9.12,0,18.25,0,27.38,0,2.19,0,4.39,0,6.58a40.1,40.1,0,0,1-1,10.3.9.9,0,0,0,.68,1.23C784.36,340.52,785.47,336.91,787.34,332.83Z" transform="translate(-381.14 -79.81)"/><path class="cls-3" d="M1231.87,655.67a138.9,138.9,0,0,0-10.27-11.93c-3.39-3.39-6.56-7-11-9.2-3.64-1.77-4.65-1.52-7.4,1.48-6.43,7-10.56,15.5-14.71,23.91-1.2,2.42-2,5-3.79,7.47,0-.72-.1-1.43-.14-2.14-.65-12.93-.35-25.89-.86-38.82-.42-10.87-.14-21.74-.68-32.59-.51-10.28-.14-20.58-.67-30.85-.56-11.09-.19-22.2-.72-33.27-.35-7.52-.38-15-.47-22.53a5.53,5.53,0,0,1,.43-3.06c0,3.94,1,7.72,1.48,11.58a71.51,71.51,0,0,0,6.12,20.44c1.84,4.09,4.94,7.36,9.41,8.61a18.85,18.85,0,0,0,10.89-.54,88.33,88.33,0,0,0,10.74-4.5,79.32,79.32,0,0,0,10.06-6c3.12-2.08,6-4.54,9-6.86,1.79,1.73,2.39,3.22,1,5.91-4.42,8.67-6.21,18.24-8.41,27.64a144.28,144.28,0,0,0-3.54,25.2c-.33,6.28-.81,12.56-.54,18.83.44,10.47,1,20.94,2.87,31.3.87,4.87,1.76,9.72,2.92,14.53C1234.3,653.24,1234.24,653.32,1231.87,655.67Z" transform="translate(-381.14 -79.81)"/><path class="cls-3" d="M1174.1,238.7c1.72,1.72,1.82,3.41,2.41,4.85,2.75,6.75,4,13.89,5.67,20.95,1.1,4.69,1.75,9.46,2.7,14.17,1,4.92,1.12,10.06,1.8,15.07,1,7.62,1.34,15.3,1.84,22.95s.25,15.31.27,23c0,5.27.41,10.6-.26,15.78-.55,4.24.1,8.51-.9,12.7-.42,1.75,0,3.6-.22,5.44-.61,5.47-.6,11-1.43,16.43-.52,3.42-.48,6.87-1.13,10.28a78.36,78.36,0,0,0-1,10.62c-.14,2.64-.43,5.3-.79,7.86-.89,6.36-1,12.77-1.46,19.13-.41,5.51-.75,11.08-.81,16.64-.06,4.51,0,9.1-.52,13.91-1.37-1.19-1-2.78-1.6-3.91-2.22-3.94-1.65-8.25-1.78-12.48-.58-19.87-.34-39.76-.86-59.63-.38-14.1-.15-28.2-.59-42.29-.56-18.26-.26-36.53-.8-54.78-.44-15-.3-30.05-.57-45.07a57.93,57.93,0,0,0-.33-5.88A14,14,0,0,1,1174.1,238.7Z" transform="translate(-381.14 -79.81)"/><path class="cls-3" d="M1233.85,763c-3.17-3.32-6.37-6.61-9.49-10-7.8-8.37-15.54-16.78-23.33-25.16-4.49-4.82-9-9.59-13.52-14.4-2.08-2.22-1.94-2.2-.3-5A30.44,30.44,0,0,1,1200,696.33c3.68-1.85,7.35-1.66,11-.44,5.66,1.88,9.33,6.12,12.38,11,4.09,6.55,6.24,13.81,7.76,21.29,1,5.07,2.21,10.15,2.5,15.33C1234,749.9,1234.78,756.28,1233.85,763Z" transform="translate(-381.14 -79.81)"/><path class="cls-3" d="M687.54,864.75c0,5.94.28,11.11-.08,16.23-.31,4.28-.31,8.54-.49,12.81-.12,2.89-.18,3.18-3,3.66a28.61,28.61,0,0,1-9.9.1c-4-.71-7.87-1.54-11.4-3.61-.87-.52-2.06-.76-1.95-2.11.09-1.08,1-1.43,1.86-1.86,3.77-2,7-4.83,10.39-7.43,5.68-4.38,9.49-10.19,13.31-16C686.51,866.12,686.79,865.76,687.54,864.75Z" transform="translate(-381.14 -79.81)"/><path class="cls-3" d="M685.63,933.42c-.78,6.24-.6,12-.8,17.66a1.52,1.52,0,0,1-1.39,1.63,19.4,19.4,0,0,1-6.84-.08c-1.18-.15-1.49-1-1.06-2a8.6,8.6,0,0,1,.79-1.54c3.12-4.6,5.54-9.59,8.23-14.43A11.78,11.78,0,0,1,685.63,933.42Z" transform="translate(-381.14 -79.81)"/><path class="cls-5" d="M1020.81,987.26c-52.75,0-105.49.13-158.23-.11-9.33,0-18.71-1-28-.41-16.53,1-33,.21-49.56.5a33,33,0,0,1-22.41-7.75c-3.75-3.16-6.44-7.12-6.89-12.32a21.14,21.14,0,0,1,0-6.5,14.09,14.09,0,0,0-.15-5.17,60,60,0,0,1-.62-10.37q0-64.53,0-129.07c0-8.67,0-17.34.2-26,.12-4,.51-8,.86-12a13.06,13.06,0,0,1,4.08-7.81c5.57-5.65,12.33-8.55,20.15-9.73a102.68,102.68,0,0,1,14.85-.74c10.29-.06,20.61-.46,30.87.12,8.64.49,17.26.93,25.91.91,4.61,0,9.07-1.31,13.74-1.12,13.41.54,26.83.09,40.24.07,3.13,0,3.13,0,3.16-3.25,0-5.9-.07-11.8.24-17.69.2-3.9.79-7.78.75-11.72,0-2.63,1-3.65,3.59-4.31,4-1,8.11-1.5,12.18-2.15,3.17-.51,6.44-.46,9.53-1.52a8.2,8.2,0,0,1,2-.33c11.27-.82,22.5-2,33.81-2.27,6.7-.16,13.38-.73,20.08.06a44.48,44.48,0,0,0,6.93.19c7.06-.28,14.06.74,21,1.33,6.5.55,13,1.27,19.49,2.46,4.28.78,8.64,1.2,12.89,2.27,2.9.72,3.48,1.66,3.77,4.5,1,10,.69,20.06.76,30.1,0,2.28.08,2.31,2.65,2.33,9.72,0,19.43-.05,29.14.16,14.11.3,28.22.64,42.31.2,12.26-.39,24.51-.06,36.75-.41a105.57,105.57,0,0,1,20,1.38c7.24,1.18,14,3.9,18.64,10.22a18.24,18.24,0,0,1,3.45,8.8c2,15.46,1,31,1,46.41,0,6.67-.28,13.38-.11,20,.21,8.21-.29,16.39-.11,24.59.62,29.25.19,58.51.37,87.76a54,54,0,0,1-1.71,11.94c-1.06,4.85-4.85,8-8.82,10.7a33.58,33.58,0,0,1-19.22,5.73Q1100.61,987.32,1020.81,987.26Zm143.91-105.79c.15-.14.22-.25.32-.29,1-.39,1.93-.76,2.89-1.13,7.12-2.76,11.64-7.72,13-15.35a30.81,30.81,0,0,0,.28-6.22c-.23-10.67-6.71-18.37-17.17-20.45a64.62,64.62,0,0,0-12.72-1.25h-40.91c-.69,0-1.39,0-2.08,0-1.58.09-3.07.45-3.42,2.29-.31,1.67-.18,3.29,1.72,4.06,1.28.52,1.56,1.47,1.56,2.75q0,27.92,0,55.82a2.88,2.88,0,0,1-1.68,3,3.32,3.32,0,0,0-1.57,4.13c.52,1.55,1.71,2,3.25,2q9.7,0,19.41,0c1.64,0,3.09-.37,3.45-2.18.32-1.62.39-3.35-1.62-4.07-1.35-.48-1.62-1.44-1.62-2.7,0-5.66.05-11.33,0-17,0-1.75.65-2.51,2.45-2.46,3.35.07,6.71.12,10,0a4.07,4.07,0,0,1,3.94,2.15c3.72,5.58,7.56,11.07,11.37,16.57,1,1.48,1.64,2.65.4,4.61-1.72,2.72-.19,5,3.06,5.07,7.51.07,15,0,22.54,0h.34c1.72,0,2.91-.67,3.24-2.45a3,3,0,0,0-2.42-3.85,7.38,7.38,0,0,1-4.11-3q-6.74-9.46-13.41-19A8.25,8.25,0,0,1,1164.72,881.47Zm-105.43-44.69h-27.76c-.92,0-1.85,0-2.77.05a2.93,2.93,0,0,0-2.76,2.25c-.37,1.35-.22,2.84,1,3.42,2.41,1.18,2.23,3.14,2.23,5.24q0,26,0,52c0,2.17.41,4.47-2.31,5.51-.26.09-.4.54-.57.84a3.32,3.32,0,0,0,3.26,4.88c9.36-.22,18.73-.08,28.1-.08,10.52,0,21,0,31.57,0,1.57,0,2.84.07,3.66,1.82.72,1.55,2.26,1.76,3.89,1.25s1.94-1.77,1.94-3.27c0-5.32,0-10.63,0-16,0-1.32-.11-2.57-1.63-3.11s-3.5-.2-4.26,1.3c-.94,1.85-2.33,1.93-4,1.92-5.09,0-10.18,0-15.27,0-7,0-14.1,0-21.16,0-3.12,0-3.14,0-3.17-3s0-5.78,0-8.67c0-2.65.07-2.7,2.72-2.72,7.06,0,14.11,0,21.16,0a3.22,3.22,0,0,1,3.31,1.85,3.43,3.43,0,0,0,4.24,1.35c1.52-.6,1.91-1.85,1.9-3.36,0-5.09,0-10.18,0-15.26,0-1.51-.38-2.88-2-3.25s-3.3-.53-4.23,1.34a2.47,2.47,0,0,1-2.47,1.5q-11.28,0-22.55,0c-1.44,0-2.13-.51-2.1-2,.06-2.08,0-4.16,0-6.24,0-3.07,0-3.12,3-3.12,11.91,0,23.82,0,35.73,0,1.56,0,2.9,0,3.74,1.75s2.54,1.38,4,1.12,2-1.49,2-2.85c0-5.44,0-10.87,0-16.31,0-1.37-.47-2.61-1.91-2.95s-3.3-.67-4.07.93c-1,2.1-2.65,1.89-4.38,1.89ZM902,835.86a46.82,46.82,0,0,0-13.7,1.57,35.17,35.17,0,0,0-18.76,11.13c-7.84,9.12-11,19.75-8.88,31.55,2.59,14.78,11.08,24.83,25.48,29.56a52.85,52.85,0,0,0,24.28,1.89c8.4-1.21,16.21-4,22.31-10.13,9-9,12.93-19.91,11.25-32.76a35.76,35.76,0,0,0-16.52-26.38C919.94,837.38,911.5,835.7,902,835.86Zm-94.86,27.25c0-6.13,0-11.79,0-17.44a2.31,2.31,0,0,1,1.41-2.49c1.77-.79,2.2-2.29,1.78-4-.46-1.94-2-2.36-3.74-2.36H787.8c-1.59,0-3.15.21-3.56,2-.36,1.58-.53,3.32,1.37,4.21,1.28.59,1.47,1.6,1.47,2.84q0,27.92,0,55.83c0,1.36-.21,2.42-1.62,3.11-1.84.92-1.53,2.73-1.22,4.29s1.64,1.82,3,1.82c6.7,0,13.41,0,20.11,0a2.74,2.74,0,0,0,2.87-2c.46-1.45.4-3.08-1-3.7-2.22-1-2.18-2.67-2.14-4.56,0-2.54,0-5.09,0-7.63,0-7.66,0-7.61,6.07-12.17,1.36-1,2-.92,3,.38,5.63,7,11.37,14,17.07,21,.89,1.09,1.5,1.82.27,3.46-1.94,2.56-.48,5.26,2.62,5.29,8.43.08,16.87.06,25.31,0,2.06,0,2.92-.82,3.18-2.48.28-1.86-.33-3.27-2.14-3.77-2.64-.74-4.37-2.54-6-4.49q-12.53-15-25-30.16c-1.92-2.32-1.88-2.36.36-4.28.35-.3.71-.59,1.07-.88,7-5.66,14-11.36,21-17,2.07-1.64,3.9-3.6,6.47-4.6,2.09-.82,2.59-1.93,2.22-4-.31-1.73-1.19-2.43-3.58-2.44-8.55,0-17.11-.07-25.66,0-3.18,0-4.78,2.49-3.06,5.16,1.15,1.78.56,2.27-.64,3.25-6.19,5-12.31,10.14-18.5,15.16A12.25,12.25,0,0,1,807.09,863.11Zm176.25-26.33H954.56c-1.66,0-3.29,0-4,1.92-.64,1.58-.24,3.18,1.66,4.41,1.37.88,1.37,2,1.37,3.24q0,27.57,0,55.14c0,1.46-.17,2.6-1.73,3.38s-1.83,2.29-1.39,3.91c.48,1.79,1.82,2.16,3.48,2.15,6.35,0,12.71,0,19.07,0,1.41,0,2.83,0,3.41-1.68a3.78,3.78,0,0,0-1.41-4.52,2.92,2.92,0,0,1-1.43-2.87c0-6.36.06-12.72,0-19.07,0-1.86.73-2.37,2.46-2.35,7.17.06,14.34,0,21.5,0,1.36,0,2.45.13,3.09,1.6.78,1.81,2.45,2,4.12,1.65s2.19-1.82,2.19-3.46q0-7.46,0-14.91c0-1.61-.23-3.15-2-3.57-1.59-.36-3.31-.5-4.22,1.38a2.45,2.45,0,0,1-2.49,1.47q-11.26,0-22.54,0c-1.46,0-2.1-.56-2.06-2.05.05-2.07,0-4.16,0-6.24,0-3,.05-3.09,3.06-3.09q17.68,0,35.37,0c1.5,0,2.9-.19,3.66,1.78.49,1.27,2.85,1.59,4.33,1,1.33-.48,1.58-1.56,1.58-2.78,0-5.44,0-10.87,0-16.3,0-1.33-.14-2.67-1.71-3s-3.35-.72-4.1.85c-1.09,2.26-2.87,2-4.68,2Zm-1.27-77.08v.13h3.81q17.49-.06,35-.13c2.71,0,2.75-.06,2.77-2.65,0-3.81,0-7.62,0-11.43,0-1.51-.5-2.35-2-2.63a24.61,24.61,0,0,0-3.42-.44c-2.07-.06-4.15-.13-6.22-.35-6.29-.69-12.6-1.41-18.93-1.47-11.64-.1-23.28-.31-34.92.75-4.34.4-8.67,1.26-13.07,1.11a16.43,16.43,0,0,0-2,.38c-1.61.17-2.06,1.07-2,2.6.09,3.7,0,7.39,0,11.09,0,3.13-.25,3.05,3,3.05Z" transform="translate(-381.14 -79.81)"/><path class="cls-1" d="M1343.79,417.34a9,9,0,0,1,8.7,5.82c.62,1.73,1,3.56,1.59,5.28a4.43,4.43,0,0,1-1,5.06,4.91,4.91,0,0,1-5.74,1.1c-4.88-2.43-10.16-4.27-14-8.4-.07-.09-.17-.15-.25-.24-2.52-2.68-2.35-4.3.84-6.18A18.33,18.33,0,0,1,1343.79,417.34Z" transform="translate(-381.14 -79.81)"/><path class="cls-1" d="M1374.29,435.19a34.62,34.62,0,0,1-.22-7.53c.1-1.51,1-2.15,2.46-2.45,1.73-.36,3.15.6,4.62,1.08a1.8,1.8,0,0,1,.69,2.88A22.57,22.57,0,0,1,1374.29,435.19Z" transform="translate(-381.14 -79.81)"/><path class="cls-1" d="M1505.23,770a3.85,3.85,0,0,1-.32.92,1.82,1.82,0,0,1-.66.57c-.41-.39-.22-.81.13-1.1a2.81,2.81,0,0,1,.89-.35Z" transform="translate(-381.14 -79.81)"/><path class="cls-1" d="M1460.6,707.37a1.2,1.2,0,0,1,.82-1.25l.4.32a1.82,1.82,0,0,1-.9,1.26Z" transform="translate(-381.14 -79.81)"/><path class="cls-1" d="M1460.92,707.7a3.52,3.52,0,0,1-.4.4c-.39-.27-.17-.51.08-.73Z" transform="translate(-381.14 -79.81)"/><path class="cls-1" d="M635.73,510.57c-.23,5.35-1.11,10.51-4.16,15.08a9.69,9.69,0,0,1-1.5,1.87c-4.26,3.84-6.64,3.33-8.69-2a42.18,42.18,0,0,1-2.12-6.92c-1.3-6.27,2.6-11.28,9-11.6a18.35,18.35,0,0,0,5.36-1.17c1.54-.55,2.15,0,2.11,1.58C635.71,508.49,635.73,509.53,635.73,510.57Z" transform="translate(-381.14 -79.81)"/><path class="cls-1" d="M500.31,451.51c.28,0,.39.14.3.33,0,0-.18,0-.21,0a.94.94,0,0,1-.07-.3Z" transform="translate(-381.14 -79.81)"/><path class="cls-1" d="M574.16,687.9c.21.2.43.48.18.71s-.45-.08-.6-.29Q573.93,688.11,574.16,687.9Z" transform="translate(-381.14 -79.81)"/><path class="cls-3" d="M1164.72,881.47a8.25,8.25,0,0,0,.56,1.21q6.69,9.48,13.41,19a7.38,7.38,0,0,0,4.11,3,3,3,0,0,1,2.42,3.85c-.33,1.78-1.52,2.47-3.24,2.45h-.34c-7.51,0-15,.05-22.54,0-3.25,0-4.78-2.35-3.06-5.07,1.24-2,.62-3.13-.4-4.61-3.81-5.5-7.65-11-11.37-16.57a4.07,4.07,0,0,0-3.94-2.15c-3.34.15-6.7.1-10,0-1.8,0-2.47.71-2.45,2.46.05,5.66,0,11.33,0,17,0,1.26.27,2.22,1.62,2.7,2,.72,1.94,2.45,1.62,4.07-.36,1.81-1.81,2.18-3.45,2.18q-9.7,0-19.41,0c-1.54,0-2.73-.49-3.25-2a3.32,3.32,0,0,1,1.57-4.13,2.88,2.88,0,0,0,1.68-3q0-27.9,0-55.82c0-1.28-.28-2.23-1.56-2.75-1.9-.77-2-2.39-1.72-4.06.35-1.84,1.84-2.2,3.42-2.29.69,0,1.39,0,2.08,0h40.91a64.62,64.62,0,0,1,12.72,1.25c10.46,2.08,16.94,9.78,17.17,20.45a30.81,30.81,0,0,1-.28,6.22c-1.38,7.63-5.9,12.59-13,15.35-1,.37-1.93.74-2.89,1.13C1164.94,881.22,1164.87,881.33,1164.72,881.47Zm-21.78-28.17v-.09c-4,0-8.08,0-12.12,0-2.91,0-2.93.06-3,2.85,0,2.42,0,4.85,0,7.27,0,3.08,0,3.12,3,3.12,7.16,0,14.31,0,21.47,0a22,22,0,0,0,4.79-.63,5.45,5.45,0,0,0,4.47-5.07c.59-4.18-1.81-7.21-6.18-7.41C1151.26,853.16,1147.1,853.3,1142.94,853.3Z" transform="translate(-381.14 -79.81)"/><path class="cls-3" d="M1059.29,836.78h28.09c1.73,0,3.37.21,4.38-1.89.77-1.6,2.62-1.28,4.07-.93s1.91,1.58,1.91,2.95c0,5.44,0,10.87,0,16.31,0,1.36-.53,2.58-2,2.85s-3.2.56-4-1.12-2.18-1.76-3.74-1.75c-11.91,0-23.82,0-35.73,0-3,0-3,0-3,3.12,0,2.08,0,4.16,0,6.24,0,1.51.66,2,2.1,2q11.27,0,22.55,0a2.47,2.47,0,0,0,2.47-1.5c.93-1.87,2.65-1.7,4.23-1.34s2,1.74,2,3.25c0,5.08,0,10.17,0,15.26,0,1.51-.38,2.76-1.9,3.36a3.43,3.43,0,0,1-4.24-1.35,3.22,3.22,0,0,0-3.31-1.85c-7,.06-14.1,0-21.16,0-2.65,0-2.68.07-2.72,2.72,0,2.89,0,5.78,0,8.67s0,3,3.17,3c7.06,0,14.11,0,21.16,0,5.09,0,10.18,0,15.27,0,1.68,0,3.07-.07,4-1.92.76-1.5,2.72-1.84,4.26-1.3s1.63,1.79,1.63,3.11c0,5.32,0,10.63,0,16,0,1.5-.28,2.74-1.94,3.27s-3.17.3-3.89-1.25c-.82-1.75-2.09-1.82-3.66-1.82-10.53,0-21,0-31.57,0-9.37,0-18.74-.14-28.1.08a3.32,3.32,0,0,1-3.26-4.88c.17-.3.31-.75.57-.84,2.72-1,2.31-3.34,2.31-5.51q0-26,0-52c0-2.1.18-4.06-2.23-5.24-1.18-.58-1.33-2.07-1-3.42a2.93,2.93,0,0,1,2.76-2.25c.92-.09,1.85-.05,2.77-.05Z" transform="translate(-381.14 -79.81)"/><path class="cls-3" d="M902,835.86c9.55-.16,18,1.52,25.46,6.43a35.76,35.76,0,0,1,16.52,26.38c1.68,12.85-2.25,23.71-11.25,32.76-6.1,6.13-13.91,8.92-22.31,10.13a52.85,52.85,0,0,1-24.28-1.89c-14.4-4.73-22.89-14.78-25.48-29.56-2.08-11.8,1-22.43,8.88-31.55a35.17,35.17,0,0,1,18.76-11.13A46.82,46.82,0,0,1,902,835.86Zm.16,59.7c.92,0,1.85.06,2.76,0a21.68,21.68,0,0,0,2.38-.45c8.07-1.67,13.45-6.49,15.84-14.29s1.41-15.43-4.33-21.65c-6.54-7.11-15-8.54-23.83-5.92C883,856.76,877.67,868.67,881.27,881,883.9,890.08,892.09,895.6,902.11,895.56Z" transform="translate(-381.14 -79.81)"/><path class="cls-3" d="M807.09,863.11a12.25,12.25,0,0,0,4.16-2.73c6.19-5,12.31-10.13,18.5-15.16,1.2-1,1.79-1.47.64-3.25-1.72-2.67-.12-5.13,3.06-5.16,8.55-.08,17.11-.06,25.66,0,2.39,0,3.27.71,3.58,2.44.37,2.1-.13,3.21-2.22,4-2.57,1-4.4,3-6.47,4.6-7.06,5.6-14,11.3-21,17-.36.29-.72.58-1.07.88-2.24,1.92-2.28,2-.36,4.28q12.47,15.1,25,30.16c1.63,2,3.36,3.75,6,4.49,1.81.5,2.42,1.91,2.14,3.77-.26,1.66-1.12,2.47-3.18,2.48-8.44.06-16.88.08-25.31,0-3.1,0-4.56-2.73-2.62-5.29,1.23-1.64.62-2.37-.27-3.46-5.7-7-11.44-13.92-17.07-21-1.05-1.3-1.67-1.41-3-.38-6,4.56-6.07,4.51-6.07,12.17,0,2.54,0,5.09,0,7.63,0,1.89-.08,3.56,2.14,4.56,1.38.62,1.44,2.25,1,3.7a2.74,2.74,0,0,1-2.87,2c-6.7,0-13.41,0-20.11,0-1.34,0-2.68-.31-3-1.82s-.62-3.37,1.22-4.29c1.41-.69,1.62-1.75,1.62-3.11q0-27.91,0-55.83c0-1.24-.19-2.25-1.47-2.84-1.9-.89-1.73-2.63-1.37-4.21.41-1.82,2-2,3.56-2h18.73c1.75,0,3.28.42,3.74,2.36.42,1.75,0,3.25-1.78,4a2.31,2.31,0,0,0-1.41,2.49C807.11,851.32,807.09,857,807.09,863.11Z" transform="translate(-381.14 -79.81)"/><path class="cls-3" d="M983.34,836.78h27.74c1.81,0,3.59.3,4.68-2,.75-1.57,2.64-1.16,4.1-.85s1.71,1.67,1.71,3c0,5.43,0,10.86,0,16.3,0,1.22-.25,2.3-1.58,2.78-1.48.54-3.84.22-4.33-1-.76-2-2.16-1.78-3.66-1.78q-17.68,0-35.37,0c-3,0-3,0-3.06,3.09,0,2.08,0,4.17,0,6.24,0,1.49.6,2.05,2.06,2.05q11.26,0,22.54,0a2.45,2.45,0,0,0,2.49-1.47c.91-1.88,2.63-1.74,4.22-1.38,1.8.42,2,2,2,3.57q0,7.45,0,14.91c0,1.64-.4,3.07-2.19,3.46s-3.34.16-4.12-1.65c-.64-1.47-1.73-1.61-3.09-1.6-7.16,0-14.33,0-21.5,0-1.73,0-2.48.49-2.46,2.35.08,6.35,0,12.71,0,19.07a2.92,2.92,0,0,0,1.43,2.87,3.78,3.78,0,0,1,1.41,4.52c-.58,1.7-2,1.68-3.41,1.68-6.36,0-12.72,0-19.07,0-1.66,0-3-.36-3.48-2.15-.44-1.62-.1-3.16,1.39-3.91s1.73-1.92,1.73-3.38q0-27.57,0-55.14c0-1.27,0-2.36-1.37-3.24-1.9-1.23-2.3-2.83-1.66-4.41.76-1.89,2.39-1.92,4-1.92Z" transform="translate(-381.14 -79.81)"/><path class="cls-2" d="M982.07,759.7H944c-3.23,0-3,.08-3-3.05,0-3.7.06-7.39,0-11.09,0-1.53.42-2.43,2-2.6a16.43,16.43,0,0,1,2-.38c4.4.15,8.73-.71,13.07-1.11,11.64-1.06,23.28-.85,34.92-.75,6.33.06,12.64.78,18.93,1.47,2.07.22,4.15.29,6.22.35a24.61,24.61,0,0,1,3.42.44c1.55.28,2.07,1.12,2,2.63,0,3.81,0,7.62,0,11.43,0,2.59-.06,2.63-2.77,2.65q-17.49.09-35,.13h-3.81Z" transform="translate(-381.14 -79.81)"/><path class="cls-1" d="M1142.94,853.3c4.16,0,8.32-.14,12.46,0,4.37.2,6.77,3.23,6.18,7.41a5.45,5.45,0,0,1-4.47,5.07,22,22,0,0,1-4.79.63c-7.16,0-14.31,0-21.47,0-3,0-3,0-3-3.12,0-2.42,0-4.85,0-7.27,0-2.79.06-2.82,3-2.85,4,0,8.08,0,12.12,0Z" transform="translate(-381.14 -79.81)"/><path class="cls-5" d="M902.11,895.56c-10,0-18.21-5.48-20.84-14.53-3.6-12.36,1.71-24.27,13.66-27.79,8.88-2.62,17.29-1.19,23.83,5.92,5.74,6.22,6.74,13.76,4.33,21.65s-7.77,12.62-15.84,14.29a21.68,21.68,0,0,1-2.38.45C904,895.62,903,895.56,902.11,895.56Z" transform="translate(-381.14 -79.81)"/></svg>