<?xml version="1.0" encoding="utf-8"?>
<!-- Generator: Adobe Illustrator 21.0.0, SVG Export Plug-In . SVG Version: 6.00 Build 0)  -->
<svg version="1.1" xmlns="http://www.w3.org/2000/svg" xmlns:xlink="http://www.w3.org/1999/xlink" x="0px" y="0px"
	 viewBox="0 0 798.3 900" enable-background="new 0 0 798.3 900" xml:space="preserve">
<g id="Réteg_3" display="none">
	<path display="inline" fill="#FFFFFF" d="M79.1,221.5c3.8-2,7.7-3.8,11.6-5.5c0.4,0.2,0.9,0.5,1.3,0.7c0.5,0.2,1.1,0.5,1.6,0.8
		c1.1,0.5,2.3,1,3.5,1.4c1.3,0.4,2.5,0.8,3.9,1.1c1.3,0.3,2.7,0.5,4,0.7c1.4,0.1,2.7,0.3,4,0.3c1.3,0.1,2.6,0,3.8-0.1
		c1.2-0.1,2.4-0.2,3.5-0.5c1.1-0.2,2.1-0.4,3-0.7c0.5-0.1,0.9-0.2,1.3-0.4c0.4-0.1,0.8-0.3,1.2-0.4c0.7-0.2,1.3-0.5,1.8-0.7
		c1-0.4,1.6-0.7,1.6-0.7s-0.6,0-1.7,0.1c-0.5,0.1-1.2,0.1-1.9,0c-0.4,0-0.8,0-1.2,0c-0.4,0-0.8-0.1-1.3-0.1c-0.4,0-0.9-0.1-1.4-0.1
		c-0.5-0.1-1-0.2-1.5-0.2c-1-0.1-2-0.4-3.1-0.7c-1-0.3-2.1-0.6-3.2-1.1c-1.1-0.4-2.1-0.9-3.1-1.4c-1-0.6-2-1.1-2.8-1.7
		c-0.9-0.6-1.7-1.2-2.5-1.9c-0.6-0.5-1.1-1-1.6-1.4c3.1-5.1,6.9-10,11.2-14.4c4-4.1,8.4-7.8,13.3-11.1
		c18.2-12.2,42.3-18.4,67.9-17.3c11.7,0.5,23.9,2.4,36.9,5.7c5.4,1.4,10.9,3,16.5,4.9c6.1-3.8,13.1-6.4,20.3-7.4
		c4.8-0.7,9.6-0.7,14.3,0c5.2,0.8,9.4,2.3,12.4,4.5c5.4,4,8.5,11.4,8.3,19.3c0,0.8-0.1,1.6-0.2,2.5c-0.3,2.5-0.9,5-1.7,7.5
		c-0.3,0.2-0.7,0.3-1,0.5c-0.7,0.4-1.6,0.6-2.4,0.9c-0.9,0.3-1.8,0.7-2.7,0.9c-0.9,0.3-1.9,0.5-2.9,0.8c-1,0.2-2,0.4-2.9,0.6
		c-1,0.2-2,0.3-2.9,0.4c-1,0.1-1.9,0.3-2.8,0.3c-0.9,0-1.7,0.1-2.5,0.1c-0.4,0-0.8,0-1.1,0c-0.4,0-0.7,0-1-0.1
		c-0.6,0-1.2-0.1-1.7-0.1c-0.9-0.1-1.5-0.1-1.5-0.1s0.5,0.2,1.3,0.7c0.4,0.2,0.9,0.5,1.5,0.8c0.3,0.1,0.6,0.3,0.9,0.5
		c0.3,0.2,0.7,0.3,1.1,0.4c0.8,0.3,1.6,0.6,2.5,1c0.9,0.4,1.8,0.6,2.8,0.9c1,0.3,2,0.7,3.1,0.9c1.1,0.2,2.2,0.5,3.3,0.7
		c1.1,0.2,2.3,0.3,3.4,0.5c1.1,0.2,2.2,0.2,3.3,0.3c0.6,0,1.2,0.1,1.8,0.1c1.8,3.9,3.1,8,3.6,12.2c0.1,0.6,0.1,1.2,0.2,1.8
		c0.3,3.9,0,7.8-0.8,11.6c-0.3,1.6-0.8,3.2-1.3,4.8c-0.4,0.5-0.9,1-1.6,1.5c-0.8,0.6-1.9,1.3-3.1,1.9c-0.6,0.3-1.3,0.6-2,0.9
		l-0.5,0.2l-0.3,0.1l0,0c-0.1,0,0.2,0,0.1,0l0,0l-0.1,0l-0.2,0.1c-0.4,0.1-0.8,0.3-1.3,0.4c-1.7,0.5-3.5,1.2-5.2,1.6
		c-1.7,0.5-3.4,1-5.2,1.3c-0.9,0.2-1.8,0.4-2.7,0.6c-0.9,0.2-1.8,0.3-2.7,0.4c-0.9,0.1-1.8,0.3-2.7,0.4c-0.9,0.1-1.8,0.2-2.7,0.2
		c-0.9,0.1-1.7,0.1-2.6,0.2c-0.8,0.1-1.7,0.1-2.5,0.1c-1.6,0-3.2,0.1-4.6,0c-1.4-0.1-2.7-0.1-3.9-0.1c-1.2-0.1-2.2-0.2-3-0.3
		c-1.7-0.2-2.6-0.3-2.6-0.3s0.9,0.3,2.5,0.8c0.8,0.3,1.8,0.6,2.9,1c1.1,0.3,2.4,0.7,3.8,1c1.4,0.4,3,0.7,4.6,1
		c0.8,0.2,1.7,0.4,2.5,0.5c0.9,0.1,1.8,0.3,2.7,0.4c0.9,0.1,1.8,0.3,2.8,0.4c0.9,0.1,1.9,0.2,2.9,0.2c1,0.1,2,0.2,2.9,0.2
		c1,0,2,0,3,0.1c2,0.1,4,0,6.1-0.1c2.1-0.1,3.8-0.3,5.7-0.4c0.4,0,0.9-0.1,1.3-0.1c0.5-0.1,1-0.2,1.6-0.2c1-0.2,1.9-0.3,2.8-0.6
		c1.5-0.4,3-0.8,4.4-1.4c1.7,1.1,3.4,2.2,5,3.4c6.9,5.1,12.8,11.5,17.2,18.7c10,16.5,12.3,37.9,6.3,56.4
		C309,324,283,316.8,254.8,309.8c-46.8-11.8-92.8-22.6-140-25.6c-38.6-2.5-73.5,0.3-104.3,8.3C24.7,262.2,49.4,237,79.1,221.5z"/>
	<path display="inline" fill="#6E3A17" d="M-20.5,443.2c2.3-18.7,13.1-35.3,28.2-43.2l8.8-4.6l-7.3-6.7
		c-19.7-18-30.2-45.7-27.3-71.5c36.2-15.8,80.6-22.2,132.1-18.9c46,2.9,91.3,13.6,137.5,25.2c36,9,68.2,18.1,94.7,36
		c-33,21.4-55.7,46.5-69.3,76.4l-2,4.4l3.4,3.4c5.7,5.7,10.6,9.1,15,11.9c-29,35.1-43.5,77-41.1,119.3c-30.2,7.9-61.5,11.2-92.7,9.6
		c0.2-1.2,0.3-2.4,0.3-3.7c0-16.7-18.6-30.3-41.5-30.3c-20.1,0-36.8,10.5-40.7,24.3c-3.4-1-6.7-2-10-3.3c1.1-2.4,1.6-5,1.6-7.7
		c0-13.9-15.4-25.3-34.3-25.3c-0.2,0-0.4,0-0.6,0c-2.9-6.9-10.7-13.6-20.2-21.6c-7.9-6.6-16.8-14.1-21.2-21
		C-17.8,479.2-22.6,460.4-20.5,443.2z"/>
	<path display="inline" fill="#6E3A17" d="M118.3,603.1c-18.5,0-33.5-10-33.5-22.3s15-22.3,33.5-22.3s33.5,10,33.5,22.3
		S136.8,603.1,118.3,603.1z"/>
	<path display="inline" fill="#6E3A17" d="M35.1,546.5c14.2,0,26.3,7.9,26.3,17.3S49.3,581,35.1,581s-26.2-7.9-26.2-17.3
		S20.8,546.5,35.1,546.5z"/>
	<path display="inline" fill="#FFE400" d="M299.2,555c1.8,0.5,3.1,0.9,4.1,1.3c-1.5,0.8-3.4,1.7-4.3,2.1c-10.7,4.8-21.8,8.9-33,12.4
		c-0.2-6.6,0-13.2,0.7-19.8C277.7,550.8,288.6,552.1,299.2,555z"/>
	<path display="inline" fill="#FFE400" d="M15.6,536.7c1.7,1.6,3.2,3.1,4.2,4.4c-4.9,1.8-9.1,4.4-12.3,7.7c-2.4-1.6-4.9-2.9-7.4-4.2
		c-0.8-0.4-1.7-0.9-2.5-1.3c-2.8-1.5-6.2-3.5-7.8-6.3c-0.5-0.9-0.7-1.8-0.8-2.7C-2.1,534.1,6.8,534.8,15.6,536.7z"/>
	<path display="inline" fill="#FFE400" d="M388.3,578.6c-8.1-8.4-22.8-11.5-37.2-7.7c-13,3.3-29.5,14.7-41.5,23l-0.6,0.4
		c-1.2,0.9-2.6,1.5-4.1,1.8l-3.3,0.7l0.9-11.8c0-0.6,0.2-1.2,0.3-1.9c1-4.3,1.7-8.6,2.1-13.1c-0.2,0.1-0.4,0.2-0.5,0.2
		c-40.7,18.1-85.2,27.5-129.8,27.5c-6.9,0-13.8-0.2-20.7-0.7l0-0.7c-3.4,4.1-8.1,7.6-13.8,10.2c11.9,21.9-2.2,43.7-7.3,45.7
		c-5.2,2-19.2,3-19.2,3l-3,36.1H97.8L95.3,606c-8.4-4.1-14.6-10.4-17.2-17.7c-6.6-1.7-13.1-3.8-19.4-6.4c-6.2,4.4-14.5,7-23.7,7
		c-18.9,0-34.3-11.3-34.3-25.3c0-1.2,0.1-2.4,0.3-3.5c-2-1.5-4.4-2.7-7-4c-0.9-0.5-1.8-0.9-2.7-1.4c-1.8-1-3.8-2.1-5.7-3.5
		c-1.5,17.9-1.4,36,0,54l19-2.3v66l15.2-4.7l2.7,22.7l-17.8,3.9c9.9,24.7,22.9,43,39.3,55.6c6.2,4.7,13.1,8.7,20.7,12.1
		c-5.3-7.3-9.6-17.2-11.6-28.5c-2.9-15.8-0.8-30.6,4.8-40.2L55,670h-7.2v25.7H26.6l3.3-87.6l34-5.1l9.5,75.9
		c14.2-0.9,28.7,17.1,33.2,41.5c0.3,1.7,0.5,3.3,0.7,5l-18.7,0.9l-1-11.8l-17,1l7,38.3H92v-8.3l14.8,1.3
		c-1.8,9.2-5.5,16.6-10.8,20.9c4.7,0.8,9.6,1.4,14.6,1.9l8.4-84.8l26.1-3.8l7.2-76.1L169,603l-10,62.3l15-3.3l-2,21.3l-12,2.5
		L149.6,763l-14,1l-0.1-13h-6.9l-2.1,19.2c0.4,0,0.7,0,1.1,0c7.5,0,15.1-0.4,22.6-1.2l25.4-80.6l15-79.2l32-6.1l-4.7,76.7l-15,3.7
		V667h-6.3l-4,21.7h23.7l-16,30h-22.7L174,730h18.3l-9.7,17.3l-12.3,1l-5.6,18.6c6.9-1.2,13.8-2.7,20.6-4.5l40.4-81.2
		c-2.7-8.7-3.2-20.5-0.9-33.1c4.4-24.1,17.6-41.9,29.4-39.7c9.4,1.7,15.1,15.5,14.8,33.2l-14.7,1.7l2-10.9l-13.3,1.2l-8,37.7
		l13.7-1.3l2.3-7.7l15.4-0.8c-2.2,9-5.6,16.8-9.7,22.7l6.2,1.1l-19.7,30.3L225,715l-7,12.3h11.3L220,743l-10.7-0.3l-6,9.7l10.1,0.8
		c32.7-13.1,62.6-33.2,86.3-58.6c24.3-10.1,47.1-24.4,68.7-44.1c14.9-13.7,23.2-25.3,26.6-37.6C398.7,600,396,586.5,388.3,578.6z
		 M374.6,610.7c-0.1,0.7-0.2,1.3-0.3,2c-0.1,0.3-0.2,0.6-0.4,1c1,6.9-2.9,14.5-11.5,15c-0.8,1.6-1.9,3.1-3.3,4.2
		c-1,4-3.7,7.4-8.1,8.7c0,1.1-0.1,2.2-0.4,3.3c-0.6,2.2-1.7,4.1-3.3,5.7c-0.9,0.7-1.8,1.4-2.6,2c-1.4,1-3.3,1.6-4.8,2.2
		c-0.7,0.3-1.4,0.5-2.1,0.6c-2.3,0.6-4.6,0.6-6.9,0c-0.6-0.3-1.2-0.5-1.8-0.8c-0.1,0.2-0.3,0.3-0.4,0.5c-0.6,2.2-1.7,4.3-3.4,5.9
		l-0.5,0.5c-0.4,0.4-0.8,0.7-1.2,1.1c-1.2,5.2-5.2,9.7-12.2,9.7c-13.2,0-16-16.2-8.4-23c0.6-2.3,1.7-4.5,3.4-6.2l0.2-0.2
		c-0.9-4.5,0.2-9.5,3.4-12.7c-0.4-1.3-0.7-2.7-0.7-4.2V626c0-2.4,0.7-4.8,1.9-6.8c-4.3-7.7-0.7-20,10.8-20c1.8,0,3.4,0.3,4.9,0.9
		c2.1-2.7,5.4-4.6,9.9-4.6c0.9,0,1.7,0.1,2.4,0.2c1.4-1.3,3.3-2.2,5.5-2.7c2-1.8,4.6-2.9,7.2-3.2c2.3-2,5.3-3.1,8.4-3.1
		c3.4,0,6.8,1.4,9.2,3.8c0.9,0.9,1.7,2,2.3,3.1c0.8,1.2,1.4,2.5,1.8,3.9c0.2,0.8,0.4,1.6,0.4,2.5c0.1,0.3,0.2,0.5,0.3,0.8
		c0.6,1.8,0.9,3.8,1,5.7C375.3,607.9,375.1,609.3,374.6,610.7z"/>
	<polygon display="inline" fill="#FFE400" points="112.6,617.3 130,616 129,641 112.6,641 	"/>
	<polygon display="inline" fill="#FFE400" points="194.6,652.2 197.3,629.5 207.6,629.5 207.3,651.3 	"/>
	<polygon display="inline" fill="#FFE400" points="126.3,735.7 128.3,713 140.9,713 140,735.7 	"/>
	<polygon display="inline" fill="#FFE400" points="55,652.3 42.6,653.9 40.6,631 53,629.3 	"/>
	<path display="inline" fill="#FFFFFF" d="M79.1,221.5c3.8-2,7.7-3.8,11.6-5.5c0.4,0.2,0.9,0.5,1.3,0.7c0.5,0.2,1.1,0.5,1.6,0.8
		c1.1,0.5,2.3,1,3.5,1.4c1.3,0.4,2.5,0.8,3.9,1.1c1.3,0.3,2.7,0.5,4,0.7c1.4,0.1,2.7,0.3,4,0.3c1.3,0.1,2.6,0,3.8-0.1
		c1.2-0.1,2.4-0.2,3.5-0.5c1.1-0.2,2.1-0.4,3-0.7c0.5-0.1,0.9-0.2,1.3-0.4c0.4-0.1,0.8-0.3,1.2-0.4c0.7-0.2,1.3-0.5,1.8-0.7
		c1-0.4,1.6-0.7,1.6-0.7s-0.6,0-1.7,0.1c-0.5,0.1-1.2,0.1-1.9,0c-0.4,0-0.8,0-1.2,0c-0.4,0-0.8-0.1-1.3-0.1c-0.4,0-0.9-0.1-1.4-0.1
		c-0.5-0.1-1-0.2-1.5-0.2c-1-0.1-2-0.4-3.1-0.7c-1-0.3-2.1-0.6-3.2-1.1c-1.1-0.4-2.1-0.9-3.1-1.4c-1-0.6-2-1.1-2.8-1.7
		c-0.9-0.6-1.7-1.2-2.5-1.9c-0.6-0.5-1.1-1-1.6-1.4c3.1-5.1,6.9-10,11.2-14.4c4-4.1,8.4-7.8,13.3-11.1
		c18.2-12.2,42.3-18.4,67.9-17.3c11.7,0.5,23.9,2.4,36.9,5.7c5.4,1.4,10.9,3,16.5,4.9c6.1-3.8,13.1-6.4,20.3-7.4
		c4.8-0.7,9.6-0.7,14.3,0c5.2,0.8,9.4,2.3,12.4,4.5c5.4,4,8.5,11.4,8.3,19.3c0,0.8-0.1,1.6-0.2,2.5c-0.3,2.5-0.9,5-1.7,7.5
		c-0.3,0.2-0.7,0.3-1,0.5c-0.7,0.4-1.6,0.6-2.4,0.9c-0.9,0.3-1.8,0.7-2.7,0.9c-0.9,0.3-1.9,0.5-2.9,0.8c-1,0.2-2,0.4-2.9,0.6
		c-1,0.2-2,0.3-2.9,0.4c-1,0.1-1.9,0.3-2.8,0.3c-0.9,0-1.7,0.1-2.5,0.1c-0.4,0-0.8,0-1.1,0c-0.4,0-0.7,0-1-0.1
		c-0.6,0-1.2-0.1-1.7-0.1c-0.9-0.1-1.5-0.1-1.5-0.1s0.5,0.2,1.3,0.7c0.4,0.2,0.9,0.5,1.5,0.8c0.3,0.1,0.6,0.3,0.9,0.5
		c0.3,0.2,0.7,0.3,1.1,0.4c0.8,0.3,1.6,0.6,2.5,1c0.9,0.4,1.8,0.6,2.8,0.9c1,0.3,2,0.7,3.1,0.9c1.1,0.2,2.2,0.5,3.3,0.7
		c1.1,0.2,2.3,0.3,3.4,0.5c1.1,0.2,2.2,0.2,3.3,0.3c0.6,0,1.2,0.1,1.8,0.1c1.8,3.9,3.1,8,3.6,12.2c0.1,0.6,0.1,1.2,0.2,1.8
		c0.3,3.9,0,7.8-0.8,11.6c-0.3,1.6-0.8,3.2-1.3,4.8c-0.4,0.5-0.9,1-1.6,1.5c-0.8,0.6-1.9,1.3-3.1,1.9c-0.6,0.3-1.3,0.6-2,0.9
		l-0.5,0.2l-0.3,0.1l0,0c-0.1,0,0.2,0,0.1,0l0,0l-0.1,0l-0.2,0.1c-0.4,0.1-0.8,0.3-1.3,0.4c-1.7,0.5-3.5,1.2-5.2,1.6
		c-1.7,0.5-3.4,1-5.2,1.3c-0.9,0.2-1.8,0.4-2.7,0.6c-0.9,0.2-1.8,0.3-2.7,0.4c-0.9,0.1-1.8,0.3-2.7,0.4c-0.9,0.1-1.8,0.2-2.7,0.2
		c-0.9,0.1-1.7,0.1-2.6,0.2c-0.8,0.1-1.7,0.1-2.5,0.1c-1.6,0-3.2,0.1-4.6,0c-1.4-0.1-2.7-0.1-3.9-0.1c-1.2-0.1-2.2-0.2-3-0.3
		c-1.7-0.2-2.6-0.3-2.6-0.3s0.9,0.3,2.5,0.8c0.8,0.3,1.8,0.6,2.9,1c1.1,0.3,2.4,0.7,3.8,1c1.4,0.4,3,0.7,4.6,1
		c0.8,0.2,1.7,0.4,2.5,0.5c0.9,0.1,1.8,0.3,2.7,0.4c0.9,0.1,1.8,0.3,2.8,0.4c0.9,0.1,1.9,0.2,2.9,0.2c1,0.1,2,0.2,2.9,0.2
		c1,0,2,0,3,0.1c2,0.1,4,0,6.1-0.1c2.1-0.1,3.8-0.3,5.7-0.4c0.4,0,0.9-0.1,1.3-0.1c0.5-0.1,1-0.2,1.6-0.2c1-0.2,1.9-0.3,2.8-0.6
		c1.5-0.4,3-0.8,4.4-1.4c1.7,1.1,3.4,2.2,5,3.4c6.9,5.1,12.8,11.5,17.2,18.7c10,16.5,12.3,37.9,6.3,56.4
		C309,324,283,316.8,254.8,309.8c-46.8-11.8-92.8-22.6-140-25.6c-38.6-2.5-73.5,0.3-104.3,8.3C24.7,262.2,49.4,237,79.1,221.5z"/>
	<path display="inline" fill="#6E3A17" d="M-20.5,443.2c2.3-18.7,13.1-35.3,28.2-43.2l8.8-4.6l-7.3-6.7
		c-19.7-18-30.2-45.7-27.3-71.5c36.2-15.8,80.6-22.2,132.1-18.9c46,2.9,91.3,13.6,137.5,25.2c36,9,68.2,18.1,94.7,36
		c-33,21.4-55.7,46.5-69.3,76.4l-2,4.4l3.4,3.4c5.7,5.7,10.6,9.1,15,11.9c-29,35.1-43.5,77-41.1,119.3c-30.2,7.9-61.5,11.2-92.7,9.6
		c0.2-1.2,0.3-2.4,0.3-3.7c0-16.7-18.6-30.3-41.5-30.3c-20.1,0-36.8,10.5-40.7,24.3c-3.4-1-6.7-2-10-3.3c1.1-2.4,1.6-5,1.6-7.7
		c0-13.9-15.4-25.3-34.3-25.3c-0.2,0-0.4,0-0.6,0c-2.9-6.9-10.7-13.6-20.2-21.6c-7.9-6.6-16.8-14.1-21.2-21
		C-17.8,479.2-22.6,460.4-20.5,443.2z"/>
	<path display="inline" fill="#6E3A17" d="M118.3,603.1c-18.5,0-33.5-10-33.5-22.3s15-22.3,33.5-22.3s33.5,10,33.5,22.3
		S136.8,603.1,118.3,603.1z"/>
	<path display="inline" fill="#6E3A17" d="M35.1,546.5c14.2,0,26.3,7.9,26.3,17.3S49.3,581,35.1,581s-26.2-7.9-26.2-17.3
		S20.8,546.5,35.1,546.5z"/>
	<path display="inline" fill="#FFE400" d="M299.2,555c1.8,0.5,3.1,0.9,4.1,1.3c-1.5,0.8-3.4,1.7-4.3,2.1c-10.7,4.8-21.8,8.9-33,12.4
		c-0.2-6.6,0-13.2,0.7-19.8C277.7,550.8,288.6,552.1,299.2,555z"/>
	<path display="inline" fill="#FFE400" d="M15.6,536.7c1.7,1.6,3.2,3.1,4.2,4.4c-4.9,1.8-9.1,4.4-12.3,7.7c-2.4-1.6-4.9-2.9-7.4-4.2
		c-0.8-0.4-1.7-0.9-2.5-1.3c-2.8-1.5-6.2-3.5-7.8-6.3c-0.5-0.9-0.7-1.8-0.8-2.7C-2.1,534.1,6.8,534.8,15.6,536.7z"/>
	<path display="inline" fill="#FFE400" d="M388.3,578.6c-8.1-8.4-22.8-11.5-37.2-7.7c-13,3.3-29.5,14.7-41.5,23l-0.6,0.4
		c-1.2,0.9-2.6,1.5-4.1,1.8l-3.3,0.7l0.9-11.8c0-0.6,0.2-1.2,0.3-1.9c1-4.3,1.7-8.6,2.1-13.1c-0.2,0.1-0.4,0.2-0.5,0.2
		c-40.7,18.1-85.2,27.5-129.8,27.5c-6.9,0-13.8-0.2-20.7-0.7l0-0.7c-3.4,4.1-8.1,7.6-13.8,10.2c11.9,21.9-2.2,43.7-7.3,45.7
		c-5.2,2-19.2,3-19.2,3l-3,36.1H97.8L95.3,606c-8.4-4.1-14.6-10.4-17.2-17.7c-6.6-1.7-13.1-3.8-19.4-6.4c-6.2,4.4-14.5,7-23.7,7
		c-18.9,0-34.3-11.3-34.3-25.3c0-1.2,0.1-2.4,0.3-3.5c-2-1.5-4.4-2.7-7-4c-0.9-0.5-1.8-0.9-2.7-1.4c-1.8-1-3.8-2.1-5.7-3.5
		c-1.5,17.9-1.4,36,0,54l19-2.3v66l15.2-4.7l2.7,22.7l-17.8,3.9c9.9,24.7,22.9,43,39.3,55.6c6.2,4.7,13.1,8.7,20.7,12.1
		c-5.3-7.3-9.6-17.2-11.6-28.5c-2.9-15.8-0.8-30.6,4.8-40.2L55,670h-7.2v25.7H26.6l3.3-87.6l34-5.1l9.5,75.9
		c14.2-0.9,28.7,17.1,33.2,41.5c0.3,1.7,0.5,3.3,0.7,5l-18.7,0.9l-1-11.8l-17,1l7,38.3H92v-8.3l14.8,1.3
		c-1.8,9.2-5.5,16.6-10.8,20.9c4.7,0.8,9.6,1.4,14.6,1.9l8.4-84.8l26.1-3.8l7.2-76.1L169,603l-10,62.3l15-3.3l-2,21.3l-12,2.5
		L149.6,763l-14,1l-0.1-13h-6.9l-2.1,19.2c0.4,0,0.7,0,1.1,0c7.5,0,15.1-0.4,22.6-1.2l25.4-80.6l15-79.2l32-6.1l-4.7,76.7l-15,3.7
		V667h-6.3l-4,21.7h23.7l-16,30h-22.7L174,730h18.3l-9.7,17.3l-12.3,1l-5.6,18.6c6.9-1.2,13.8-2.7,20.6-4.5l40.4-81.2
		c-2.7-8.7-3.2-20.5-0.9-33.1c4.4-24.1,17.6-41.9,29.4-39.7c9.4,1.7,15.1,15.5,14.8,33.2l-14.7,1.7l2-10.9l-13.3,1.2l-8,37.7
		l13.7-1.3l2.3-7.7l15.4-0.8c-2.2,9-5.6,16.8-9.7,22.7l6.2,1.1l-19.7,30.3L225,715l-7,12.3h11.3L220,743l-10.7-0.3l-6,9.7l10.1,0.8
		c32.7-13.1,62.6-33.2,86.3-58.6c24.3-10.1,47.1-24.4,68.7-44.1c14.9-13.7,23.2-25.3,26.6-37.6C398.7,600,396,586.5,388.3,578.6z
		 M374.6,610.7c-0.1,0.7-0.2,1.3-0.3,2c-0.1,0.3-0.2,0.6-0.4,1c1,6.9-2.9,14.5-11.5,15c-0.8,1.6-1.9,3.1-3.3,4.2
		c-1,4-3.7,7.4-8.1,8.7c0,1.1-0.1,2.2-0.4,3.3c-0.6,2.2-1.7,4.1-3.3,5.7c-0.9,0.7-1.8,1.4-2.6,2c-1.4,1-3.3,1.6-4.8,2.2
		c-0.7,0.3-1.4,0.5-2.1,0.6c-2.3,0.6-4.6,0.6-6.9,0c-0.6-0.3-1.2-0.5-1.8-0.8c-0.1,0.2-0.3,0.3-0.4,0.5c-0.6,2.2-1.7,4.3-3.4,5.9
		l-0.5,0.5c-0.4,0.4-0.8,0.7-1.2,1.1c-1.2,5.2-5.2,9.7-12.2,9.7c-13.2,0-16-16.2-8.4-23c0.6-2.3,1.7-4.5,3.4-6.2l0.2-0.2
		c-0.9-4.5,0.2-9.5,3.4-12.7c-0.4-1.3-0.7-2.7-0.7-4.2V626c0-2.4,0.7-4.8,1.9-6.8c-4.3-7.7-0.7-20,10.8-20c1.8,0,3.4,0.3,4.9,0.9
		c2.1-2.7,5.4-4.6,9.9-4.6c0.9,0,1.7,0.1,2.4,0.2c1.4-1.3,3.3-2.2,5.5-2.7c2-1.8,4.6-2.9,7.2-3.2c2.3-2,5.3-3.1,8.4-3.1
		c3.4,0,6.8,1.4,9.2,3.8c0.9,0.9,1.7,2,2.3,3.1c0.8,1.2,1.4,2.5,1.8,3.9c0.2,0.8,0.4,1.6,0.4,2.5c0.1,0.3,0.2,0.5,0.3,0.8
		c0.6,1.8,0.9,3.8,1,5.7C375.3,607.9,375.1,609.3,374.6,610.7z"/>
	<polygon display="inline" fill="#FFE400" points="112.6,617.3 130,616 129,641 112.6,641 	"/>
	<polygon display="inline" fill="#FFE400" points="194.6,652.2 197.3,629.5 207.6,629.5 207.3,651.3 	"/>
	<polygon display="inline" fill="#FFE400" points="126.3,735.7 128.3,713 140.9,713 140,735.7 	"/>
	<polygon display="inline" fill="#FFE400" points="55,652.3 42.6,653.9 40.6,631 53,629.3 	"/>
	<path display="inline" fill="#A7A9AC" d="M102.7,192.4c-4.3,3.4-9,8.2-7.8,13.5c0.9,4.1,4.9,6.6,8.8,8.3c4.4,1.9,9,3.3,13.7,4.1
		c-2.8-10.5,1.2-21.9,8-30.5c6.7-8.6,15.9-14.8,24.9-20.9c-6,0.1-11.7,2.7-17.1,5.6C122.5,178.2,112.3,184.9,102.7,192.4z"/>
	<path display="inline" fill="#A7A9AC" d="M308.3,191.4c0.7,4.4,0.2,9.3-2.5,12.9c-2.6,3.3-6.8,4.9-11,5.3s-8.3-0.5-12.4-1.2
		c7-5.1,10.9-14.2,9.8-22.8s-7.1-16.4-15.2-19.7c7.4-0.4,14.9,2.1,20.6,6.8S307.2,184.1,308.3,191.4z"/>
	<path display="inline" fill="#A7A9AC" d="M307.6,227.3c0.2,8,0.1,17-5.5,22.7c-3.9,3.9-9.6,5.4-15.1,5.8
		c-5.5,0.4-11.1-0.2-16.5,0.5c8.9-2.6,16.7-8.9,21-17.1c4.3-8.2,5.2-18.2,2.4-27c3.3-2.7,8.7-0.8,11,2.8S307.4,223,307.6,227.3z"/>
	<path display="inline" fill="#A7A9AC" d="M340,321.2c0.1,3.5,0.3,7-0.6,10.3c-0.8,3.4-2.8,6.6-5.9,8.2c-4.5,2.3-10,0.5-14.7-1.5
		c-11.4-4.8-22.5-10.5-33.1-16.9c4.7-1.7,9.8-1.4,14.8-1.6c5-0.2,10.3-1.1,13.8-4.7c4.5-4.5,4.6-11.6,3.6-17.9
		c-2.5-15.7-10.9-30.5-23-40.8c9.9-4.3,22-0.4,29.5,7.3s11.3,18.4,13.2,29C339.3,302.1,339.6,311.6,340,321.2z"/>
	<path display="inline" fill="#A7A9AC" d="M41.4,270.6c1.3,2.3,4.2,3.3,6.8,3.9c8,1.8,16.4,1.6,24.3,3.6c8,1.9,16,6.6,18.8,14.3
		c-27.2,4.2-54.7,7.1-82.2,8.7c-1.4,0.1-2.9,0.1-3.9-0.8c-1.5-1.4-0.8-3.9,0-5.8C21.1,258,52,228.3,89.1,213.9
		c1.3-0.5,2.7-1,4.1-0.9s2.9,1,3.2,2.4c-20.1,10.9-38,26-52,44.1C41.9,262.7,39.4,267.1,41.4,270.6z"/>
	<g display="inline">
		<g>
			
				<ellipse transform="matrix(0.9973 -7.332525e-02 7.332525e-02 0.9973 -28.6987 5.7753)" fill="#FFFFFF" cx="64.3" cy="393.8" rx="31.5" ry="16.3"/>
		</g>
	</g>
	<g display="inline">
		<g>
			
				<ellipse transform="matrix(8.674189e-02 -0.9962 0.9962 8.674189e-02 -249.9591 525.4979)" fill="#FFFFFF" cx="161.6" cy="399.1" rx="16.3" ry="38.3"/>
		</g>
	</g>
	<g display="inline">
		
			<ellipse transform="matrix(2.991056e-02 -0.9996 0.9996 2.991056e-02 -349.0148 534.8849)" cx="101.1" cy="447.2" rx="25" ry="49.3"/>
		<path d="M65.7,412.4c4.1-0.3,7.9-1,11.4-1.9c13-3.5,21.7-11,21.1-19.3c-0.7-8.9-12-15.4-27.2-16.3c-2.6-0.1-5.3-0.1-8.1,0.1
			c-19,1.4-33.3,10.7-32.5,21.2C31.2,406.7,46.7,413.8,65.7,412.4z M93.2,391.6c0.3,4.1-3.9,8.7-11.2,11.9c1.5-3.2,2.2-6.7,2-10.3
			c-0.3-4.6-2.2-8.8-5.3-12.3C87.4,383,92.9,387.2,93.2,391.6z"/>
		<path d="M160,417.8c4.9,0.4,9.6,0.5,14,0.2c16.2-1.1,28-7,28.8-15.2c0.8-8.9-11.8-17.4-29.8-20.9c-3.1-0.6-6.4-1.1-9.8-1.4
			c-23.1-2-41.9,4.6-42.8,15.1C119.6,406,136.9,415.8,160,417.8z M196.8,402.1c-0.4,4.1-6.2,7.9-15.5,9.8c2.4-2.9,3.8-6.2,4.2-9.8
			c0.4-4.6-1.2-9.1-4.2-13C191.3,392.6,197.1,397.7,196.8,402.1z"/>
		<path d="M146.5,489.3c-0.3,0.4-0.7,0.8-1.1,1.2c-0.4,0.4-0.9,0.8-1.4,1.3c-0.5,0.4-1.1,0.9-1.7,1.4c-0.6,0.5-1.3,0.9-1.9,1.4
			c-1.4,0.9-2.9,1.8-4.7,2.6c-1.7,0.8-3.6,1.4-5.5,2c-2,0.5-4,0.8-6.1,1c-2.1,0.1-4.2,0-6.2-0.2c0.2,0,0,0,0.1,0l0,0l-0.1,0l-0.1,0
			l-0.2,0l-0.4-0.1l-0.8-0.1c-0.6-0.1-1-0.2-1.5-0.4c-0.9-0.2-1.9-0.6-2.8-0.9c-1.9-0.7-3.6-1.6-5.3-2.5c-1.6-1-3.1-2-4.3-3.2
			c-0.2-0.2-0.4-0.3-0.6-0.5c-1-1-2-1.9-2.8-2.9c-0.4-0.6-0.9-1.1-1.3-1.6c-0.4-0.5-0.7-1.1-1-1.5c-0.3-0.5-0.6-1-0.8-1.4
			c-0.2-0.4-0.4-0.8-0.6-1.2c-0.7,0.9-1.5,1.8-2.4,2.8c-0.5,0.6-1.1,1.1-1.7,1.6c-0.6,0.5-1.3,1.1-2,1.6c-0.8,0.6-1.6,1.1-2.4,1.7
			c-0.7,0.5-1.5,0.9-2.3,1.3c-0.8,0.5-1.8,0.9-2.7,1.3c-0.9,0.4-1.9,0.8-2.9,1.1c-0.5,0.2-1,0.3-1.5,0.5l-1.5,0.4
			c-0.5,0.1-1,0.2-1.5,0.3c-0.5,0.1-0.9,0.2-1.6,0.3l-1.7,0.2l-0.2,0l-0.1,0c0,0,0.2,0,0.1,0l0,0l-0.1,0l-0.4,0l-0.8,0
			c-0.5,0-1.1,0-1.6,0c-0.5,0-1.1,0-1.6-0.1c-2.1-0.1-4.1-0.5-6.1-1.1c-0.5-0.2-0.9-0.3-1.4-0.5c-0.4-0.2-0.9-0.4-1.3-0.6
			c-0.4-0.2-0.9-0.4-1.3-0.7l-0.7-0.4l-0.3-0.2l0,0c0,0,0,0,0,0l0,0l-0.1-0.1l-0.1-0.1c-0.7-0.5-1.5-1-2.1-1.7
			c-0.3-0.3-0.7-0.6-0.9-0.9c-0.3-0.3-0.6-0.6-0.8-1L51,489c-0.1-0.2-0.2-0.3-0.3-0.5c-0.2-0.3-0.4-0.7-0.7-1
			c-0.4-0.6-0.7-1.3-1-1.9c-0.5-1.3-0.9-2.4-1.1-3.4c-0.3-1-0.2-1.8-0.3-2.3c0-0.5,0-0.8,0-0.8s0,0.3-0.1,0.8c0,0.5-0.2,1.3-0.1,2.4
			c0,1,0.2,2.3,0.6,3.7c0.2,0.7,0.4,1.5,0.8,2.2c0.2,0.4,0.4,0.8,0.5,1.1c0.1,0.2,0.2,0.4,0.3,0.6c0.1,0.2,0.2,0.4,0.4,0.6
			c0.2,0.4,0.5,0.8,0.7,1.2c0.3,0.4,0.6,0.8,0.9,1.2c0.6,0.8,1.3,1.5,2.1,2.3l0.1,0.1l0.1,0.1l0,0c0,0,0.1,0.1,0.1,0.1l0,0l0.3,0.2
			l0.6,0.5c0.4,0.3,0.8,0.7,1.3,1c0.5,0.3,1,0.6,1.5,1c0.5,0.3,1,0.5,1.5,0.8c2.1,1,4.4,1.9,6.8,2.4c0.6,0.2,1.2,0.2,1.8,0.4
			c0.6,0.1,1.2,0.2,1.8,0.3l0.9,0.1l0.5,0.1l0.1,0l0,0c-0.1,0,0.1,0,0.1,0l0.1,0l0.2,0l1.7,0.1c0.5,0.1,1.3,0,1.9,0
			c0.7,0,1.3,0,1.9-0.1l1.9-0.2c0.6-0.1,1.2-0.2,1.9-0.3c1.2-0.2,2.4-0.5,3.6-0.7c1.2-0.3,2.4-0.6,3.5-1c2-0.7,3.9-1.5,5.7-2.4
			c1.1,0.8,2.3,1.7,3.6,2.5c1.9,1.2,4,2.2,6.1,3.1c2.2,0.9,4.6,1.6,7,2c1.2,0.2,2.4,0.4,3.8,0.5c0.6,0.1,1.3,0.1,1.9,0.1l1.8,0
			c2.5-0.1,4.9-0.4,7.3-0.9c2.3-0.6,4.6-1.3,6.6-2.2c2-0.9,3.9-2,5.6-3.1c1.7-1.1,3.2-2.4,4.5-3.5c0.6-0.6,1.2-1.2,1.8-1.8
			c0.5-0.6,1-1.2,1.5-1.7c0.4-0.6,0.8-1.1,1.2-1.6c0.4-0.5,0.7-1,0.9-1.4c0.6-0.8,0.9-1.5,1.2-2c0.3-0.5,0.4-0.7,0.4-0.7
			s-0.2,0.2-0.5,0.6C147.6,487.9,147.2,488.6,146.5,489.3z"/>
		<polygon points="78.6,649.3 87.5,649.3 89.6,611.7 77.6,611.7 		"/>
		<path d="M397.7,569.5c-13.8-14.2-34.7-15.2-49.8-11.3c-9.8,2.5-20.5,8.8-30.3,15.4c0.6-5.4,0.7-10.8,0.3-16.2
			c0.1-0.8,0.1-1.7,0-2.6c-0.1-0.7-0.2-1.4-0.4-2c0-0.2,0-0.3,0-0.5l-0.1,0c-2.4-6.6-10.9-8.9-14.7-10c-11.1-3-22.5-4.5-34-4.5
			c5.5-28.5,19.3-55.8,40.6-79.5l5.5-6.1l-6.9-4.5c-1.4-0.9-2.8-1.8-4.2-2.6c-3.7-2.2-7.5-4.5-11.9-8.3c13.9-27.9,37-51.2,70.5-71.3
			l8.8-5.2l-8-6.3c-5.8-4.6-11.9-8.7-18.2-12.3c8.3-23,5.9-49.3-6.9-70.3c-5.9-9.8-14-18.1-23.3-24.6c1.9-6.4,2.7-13.2,2.1-19.9
			c-0.5-6.2-2.1-12.2-4.6-17.8c1.5-4,2.5-8,2.9-12c1.5-13.7-3.9-27.3-13.8-34.6c-4.9-3.6-11.2-6-18.7-7.1
			c-13.1-1.9-26.5,0.3-38.2,6.1c-18.3-5.7-35.2-8.8-51.3-9.5c-28.5-1.2-55.6,5.8-76.3,19.7c-12,8.1-21.9,18.5-28.9,30.1
			c-42.7,17.2-78.4,52.5-94.6,95.6c-7.1,2.4-14.1,5.2-20.7,8.2l-3.4,1.6l-0.6,3.7c-4.6,28.4,5,59.4,24.8,81.3
			c-14.9,11.1-25.3,29.1-27.7,49c-2.5,20.5,3,42.6,15.6,62c4.1,6.3,10.3,12.3,16.7,17.9c-4.2-0.2-8.4-0.2-12.6,0.1
			c-1.2,0.1-3.3,0.2-5.5,1.4c-3.1,1.7-4.5,4.9-4.9,7.3c-6.6,45.8-3.6,93.6,8.7,138.3c11.3,41,28.5,69.9,52.6,88.3
			C59,774,89.1,782.9,126,783.2c0.6,0,1.1,0,1.6,0c66.9,0,133.9-28.9,179.8-77.5c25.2-10.7,47.4-25.2,69.7-45.6
			c10.5-9.6,25-24.5,30.4-43.7C412.4,599.1,408.5,580.8,397.7,569.5z M299.2,555c1.8,0.5,3.1,0.9,4.1,1.3c-1.5,0.8-3.4,1.7-4.3,2.1
			c-10.7,4.8-21.8,8.9-33,12.4c-0.2-6.6,0-13.2,0.7-19.8C277.7,550.8,288.6,552.1,299.2,555z M79.1,221.5c3.8-2,7.7-3.8,11.6-5.5
			c0.4,0.2,0.9,0.5,1.3,0.7c0.5,0.2,1.1,0.5,1.6,0.8c1.1,0.5,2.3,1,3.5,1.4c1.3,0.4,2.5,0.8,3.9,1.1c1.3,0.3,2.7,0.5,4,0.7
			c1.4,0.1,2.7,0.3,4,0.3c1.3,0.1,2.6,0,3.8-0.1c1.2-0.1,2.4-0.2,3.5-0.5c1.1-0.2,2.1-0.4,3-0.7c0.5-0.1,0.9-0.2,1.3-0.4
			c0.4-0.1,0.8-0.3,1.2-0.4c0.7-0.2,1.3-0.5,1.8-0.7c1-0.4,1.6-0.7,1.6-0.7s-0.6,0-1.7,0.1c-0.5,0.1-1.2,0.1-1.9,0
			c-0.4,0-0.8,0-1.2,0c-0.4,0-0.8-0.1-1.3-0.1c-0.4,0-0.9-0.1-1.4-0.1c-0.5-0.1-1-0.2-1.5-0.2c-1-0.1-2-0.4-3.1-0.7
			c-1-0.3-2.1-0.6-3.2-1.1c-1.1-0.4-2.1-0.9-3.1-1.4c-1-0.6-2-1.1-2.8-1.7c-0.9-0.6-1.7-1.2-2.5-1.9c-0.6-0.5-1.1-1-1.6-1.4
			c3.1-5.1,6.9-10,11.2-14.4c4-4.1,8.4-7.8,13.3-11.1c18.2-12.2,42.3-18.4,67.9-17.3c11.7,0.5,23.9,2.4,36.9,5.7
			c5.4,1.4,10.9,3,16.5,4.9c6.1-3.8,13.1-6.4,20.3-7.4c4.8-0.7,9.6-0.7,14.3,0c5.2,0.8,9.4,2.3,12.4,4.5c5.4,4,8.5,11.4,8.3,19.3
			c0,0.8-0.1,1.6-0.2,2.5c-0.3,2.5-0.9,5-1.7,7.5c-0.3,0.2-0.7,0.3-1,0.5c-0.7,0.4-1.6,0.6-2.4,0.9c-0.9,0.3-1.8,0.7-2.7,0.9
			c-0.9,0.3-1.9,0.5-2.9,0.8c-1,0.2-2,0.4-2.9,0.6c-1,0.2-2,0.3-2.9,0.4c-1,0.1-1.9,0.3-2.8,0.3c-0.9,0-1.7,0.1-2.5,0.1
			c-0.4,0-0.8,0-1.1,0c-0.4,0-0.7,0-1-0.1c-0.6,0-1.2-0.1-1.7-0.1c-0.9-0.1-1.5-0.1-1.5-0.1s0.5,0.2,1.3,0.7
			c0.4,0.2,0.9,0.5,1.5,0.8c0.3,0.1,0.6,0.3,0.9,0.5c0.3,0.2,0.7,0.3,1.1,0.4c0.8,0.3,1.6,0.6,2.5,1c0.9,0.4,1.8,0.6,2.8,0.9
			c1,0.3,2,0.7,3.1,0.9c1.1,0.2,2.2,0.5,3.3,0.7c1.1,0.2,2.3,0.3,3.4,0.5c1.1,0.2,2.2,0.2,3.3,0.3c0.6,0,1.2,0.1,1.8,0.1
			c1.8,3.9,3.1,8,3.6,12.2c0.1,0.6,0.1,1.2,0.2,1.8c0.3,3.9,0,7.8-0.8,11.6c-0.3,1.6-0.8,3.2-1.3,4.8c-0.4,0.5-0.9,1-1.6,1.5
			c-0.8,0.6-1.9,1.3-3.1,1.9c-0.6,0.3-1.3,0.6-2,0.9l-0.5,0.2l-0.3,0.1l0,0c-0.1,0,0.2,0,0.1,0l0,0l-0.1,0l-0.2,0.1
			c-0.4,0.1-0.8,0.3-1.3,0.4c-1.7,0.5-3.5,1.2-5.2,1.6c-1.7,0.5-3.4,1-5.2,1.3c-0.9,0.2-1.8,0.4-2.7,0.6c-0.9,0.2-1.8,0.3-2.7,0.4
			c-0.9,0.1-1.8,0.3-2.7,0.4c-0.9,0.1-1.8,0.2-2.7,0.2c-0.9,0.1-1.7,0.1-2.6,0.2c-0.8,0.1-1.7,0.1-2.5,0.1c-1.6,0-3.2,0.1-4.6,0
			c-1.4-0.1-2.7-0.1-3.9-0.1c-1.2-0.1-2.2-0.2-3-0.3c-1.7-0.2-2.6-0.3-2.6-0.3s0.9,0.3,2.5,0.8c0.8,0.3,1.8,0.6,2.9,1
			c1.1,0.3,2.4,0.7,3.8,1c1.4,0.4,3,0.7,4.6,1c0.8,0.2,1.7,0.4,2.5,0.5c0.9,0.1,1.8,0.3,2.7,0.4c0.9,0.1,1.8,0.3,2.8,0.4
			c0.9,0.1,1.9,0.2,2.9,0.2c1,0.1,2,0.2,2.9,0.2c1,0,2,0,3,0.1c2,0.1,4,0,6.1-0.1c2.1-0.1,3.8-0.3,5.7-0.4c0.4,0,0.9-0.1,1.3-0.1
			c0.5-0.1,1-0.2,1.6-0.2c1-0.2,1.9-0.3,2.8-0.6c1.5-0.4,3-0.8,4.4-1.4c1.7,1.1,3.4,2.2,5,3.4c6.9,5.1,12.8,11.5,17.2,18.7
			c10,16.5,12.3,37.9,6.3,56.4C309,324,283,316.8,254.8,309.8c-46.8-11.8-92.8-22.6-140-25.6c-38.6-2.5-73.5,0.3-104.3,8.3
			C24.7,262.2,49.4,237,79.1,221.5z M-20.5,443.2c2.3-18.7,13.1-35.3,28.2-43.2l8.8-4.6l-7.3-6.7c-19.7-18-30.2-45.7-27.3-71.5
			c36.2-15.8,80.6-22.2,132.1-18.9c46,2.9,91.3,13.6,137.5,25.2c36,9,68.2,18.1,94.7,36c-33,21.4-55.7,46.5-69.3,76.4l-2,4.4
			l3.4,3.4c5.7,5.7,10.6,9.1,15,11.9c-29,35.1-43.5,77-41.1,119.3c-30.2,7.9-61.5,11.2-92.7,9.6c0.2-1.2,0.3-2.4,0.3-3.7
			c0-16.7-18.6-30.3-41.5-30.3c-20.1,0-36.8,10.5-40.7,24.3c-3.4-1-6.7-2-10-3.3c1.1-2.4,1.6-5,1.6-7.7c0-13.9-15.4-25.3-34.3-25.3
			c-0.2,0-0.4,0-0.6,0c-2.9-6.9-10.7-13.6-20.2-21.6c-7.9-6.6-16.8-14.1-21.2-21C-17.8,479.2-22.6,460.4-20.5,443.2z M112.6,617.3
			L130,616l-1,25h-16.3V617.3z M118.3,602c-17.5,0-31.8-9.5-31.8-21.2s14.3-21.2,31.8-21.2s31.8,9.5,31.8,21.2S135.9,602,118.3,602z
			 M35.1,547.4c13.5,0,24.9,7.5,24.9,16.4s-11.4,16.4-24.9,16.4s-24.9-7.5-24.9-16.4S21.5,547.4,35.1,547.4z M15.6,536.7
			c1.7,1.6,3.2,3.1,4.2,4.4c-4.9,1.8-9.1,4.4-12.3,7.7c-2.4-1.6-4.9-2.9-7.4-4.2c-0.8-0.4-1.7-0.9-2.5-1.3c-2.8-1.5-6.2-3.5-7.8-6.3
			c-0.5-0.9-0.7-1.8-0.8-2.7C-2.1,534.1,6.8,534.8,15.6,536.7z M395.1,612.8c-3.5,12.4-11.7,24-26.6,37.6
			c-21.6,19.7-44.3,34-68.7,44.1c-23.7,25.4-53.6,45.5-86.3,58.6l-10.1-0.8l6-9.7L220,743l9.3-15.7H218l7-12.3l18.3,0.7l19.7-30.3
			l-6.2-1.1c4-5.9,7.5-13.8,9.7-22.7l-15.4,0.8l-2.3,7.7l-13.7,1.3l8-37.7l13.3-1.2l-2,10.9l14.7-1.7c0.3-17.7-5.4-31.4-14.8-33.2
			c-11.8-2.2-25,15.6-29.4,39.7c-2.3,12.6-1.8,24.4,0.9,33.1l-40.4,81.2c-6.8,1.8-13.7,3.3-20.6,4.5l5.6-18.6l12.3-1l9.7-17.3H174
			l3.7-11.3h22.7l16-30h-23.7l4-21.7h6.3v16.3l15-3.7l4.7-76.7l-32,6.1l-15,79.2L150.2,769c-7.5,0.8-15.1,1.2-22.6,1.2
			c-0.4,0-0.7,0-1.1,0l2.1-19.2h6.9l0.1,13l14-1l10.3-77.2l12-2.5l2-21.3l-15,3.3l10-62.3l-16.7,1.8l-7.2,76.1l-26.1,3.8l-8.4,84.8
			c-5-0.4-9.9-1-14.6-1.9c5.2-4.3,9-11.7,10.8-20.9L92,745.3v8.3H77.6l-7-38.3l17-1l1,11.8l18.7-0.9c-0.2-1.6-0.4-3.3-0.7-5
			c-4.4-24.4-19-42.4-33.2-41.5L64,603l-34,5.1l-3.3,87.6h21.2V670H55l3.1,19.8c-5.5,9.6-7.6,24.4-4.8,40.2
			c2,11.3,6.3,21.2,11.6,28.5c-7.6-3.3-14.6-7.4-20.7-12.1c-16.5-12.6-29.5-30.9-39.3-55.6l17.8-3.9L20,664.3L4.8,669v-66l-19,2.3
			c-1.5-18-1.5-36.1,0-54c1.9,1.4,3.9,2.6,5.7,3.5c0.9,0.5,1.8,0.9,2.7,1.4c2.6,1.3,5,2.5,7,4c-0.2,1.1-0.3,2.3-0.3,3.5
			c0,13.9,15.4,25.3,34.3,25.3c9.2,0,17.5-2.7,23.7-7c6.3,2.5,12.8,4.7,19.4,6.4c2.6,7.3,8.8,13.6,17.2,17.7l2.5,85.3h12.8l3-36.1
			c0,0,14-1,19.2-3c5.1-1.9,19.2-23.8,7.3-45.7c5.6-2.5,10.3-6,13.8-10.2l0,0.7c6.9,0.5,13.8,0.7,20.7,0.7c44.5,0,89-9.4,129.8-27.5
			c0.2-0.1,0.3-0.2,0.5-0.2c-0.4,4.4-1,8.8-2.1,13.1c-0.2,0.6-0.3,1.2-0.3,1.9l-0.9,11.8l3.3-0.7c1.5-0.3,2.9-0.9,4.1-1.8l0.6-0.4
			c12-8.3,28.5-19.7,41.5-23c14.5-3.7,29.1-0.7,37.2,7.7C396,586.5,398.7,600,395.1,612.8z M194.6,652.2l2.7-22.7h10.3l-0.3,21.8
			L194.6,652.2z M126.3,735.7l2-22.7h12.6l-0.9,22.7H126.3z M55,652.3l-12.3,1.6l-2-22.9l12.3-1.7L55,652.3z"/>
		<path d="M373.6,585.1c-6.3-4.7-14.8-5.1-25.9-1.3c-12.1,4.1-23.5,10.2-33.6,18l-32.1-1.2l-19,90.7c23.4,0,33.3-5.2,37.5-9.9
			c13.3-5.9,28.2-13,41.7-22.5c16.1-11.4,27.9-24.6,35.1-39.3c1.9-4,4.5-10,4.6-16.7C381.9,595.6,378.8,589,373.6,585.1z M279,658.3
			l9.7-1l4.2-20.5l-5.2,0.2l3.2-11.7h8.2l-5.7,42h-17L279,658.3z M367.3,614.7c-6.3,13-17,24.9-31.5,35.2
			c-9.8,7-20.6,12.6-30.9,17.4l11.1-52.8c10.3-8.9,22.4-15.9,35.3-20.3c7.4-2.5,12.7-2.6,15.8-0.2c2.3,1.7,3.7,5,3.7,8.7
			C370.8,606.1,369.7,609.9,367.3,614.7z"/>
	</g>
</g>
<g id="Réteg_1" display="none">
	<path display="inline" fill="#A7A9AC" d="M102.7,192.4c-4.3,3.4-9,8.2-7.8,13.5c0.9,4.1,4.9,6.6,8.8,8.3c4.4,1.9,9,3.3,13.7,4.1
		c-2.8-10.5,1.2-21.9,8-30.5c6.7-8.6,15.9-14.8,24.9-20.9c-6,0.1-11.7,2.7-17.1,5.6C122.5,178.2,112.3,184.9,102.7,192.4z"/>
	<path display="inline" fill="#A7A9AC" d="M308.3,191.4c0.7,4.4,0.2,9.3-2.5,12.9c-2.6,3.3-6.8,4.9-11,5.3s-8.3-0.5-12.4-1.2
		c7-5.1,10.9-14.2,9.8-22.8s-7.1-16.4-15.2-19.7c7.4-0.4,14.9,2.1,20.6,6.8S307.2,184.1,308.3,191.4z"/>
	<path display="inline" fill="#A7A9AC" d="M307.6,227.3c0.2,8,0.1,17-5.5,22.7c-3.9,3.9-9.6,5.4-15.1,5.8
		c-5.5,0.4-11.1-0.2-16.5,0.5c8.9-2.6,16.7-8.9,21-17.1c4.3-8.2,5.2-18.2,2.4-27c3.3-2.7,8.7-0.8,11,2.8S307.4,223,307.6,227.3z"/>
	<path display="inline" fill="#A7A9AC" d="M340,321.2c0.1,3.5,0.3,7-0.6,10.3c-0.8,3.4-2.8,6.6-5.9,8.2c-4.5,2.3-10,0.5-14.7-1.5
		c-11.4-4.8-22.5-10.5-33.1-16.9c4.7-1.7,9.8-1.4,14.8-1.6c5-0.2,10.3-1.1,13.8-4.7c4.5-4.5,4.6-11.6,3.6-17.9
		c-2.5-15.7-10.9-30.5-23-40.8c9.9-4.3,22-0.4,29.5,7.3s11.3,18.4,13.2,29C339.3,302.1,339.6,311.6,340,321.2z"/>
	<path display="inline" fill="#A7A9AC" d="M41.4,270.6c1.3,2.3,4.2,3.3,6.8,3.9c8,1.8,16.4,1.6,24.3,3.6c8,1.9,16,6.6,18.8,14.3
		c-27.2,4.2-54.7,7.1-82.2,8.7c-1.4,0.1-2.9,0.1-3.9-0.8c-1.5-1.4-0.8-3.9,0-5.8C21.1,258,52,228.3,89.1,213.9
		c1.3-0.5,2.7-1,4.1-0.9s2.9,1,3.2,2.4c-20.1,10.9-38,26-52,44.1C41.9,262.7,39.4,267.1,41.4,270.6z"/>
</g>
<g id="Réteg_2" display="none">
	<g display="inline">
		<g>
			
				<ellipse transform="matrix(0.9973 -7.332525e-02 7.332525e-02 0.9973 -28.6987 5.7753)" fill="#FFFFFF" cx="64.3" cy="393.8" rx="31.5" ry="16.3"/>
		</g>
	</g>
	<g display="inline">
		<g>
			
				<ellipse transform="matrix(8.674189e-02 -0.9962 0.9962 8.674189e-02 -249.9591 525.4979)" fill="#FFFFFF" cx="161.6" cy="399.1" rx="16.3" ry="38.3"/>
		</g>
	</g>
	<g display="inline">
		
			<ellipse transform="matrix(2.991056e-02 -0.9996 0.9996 2.991056e-02 -349.0148 534.8849)" cx="101.1" cy="447.2" rx="25" ry="49.3"/>
		<path d="M65.7,412.4c4.1-0.3,7.9-1,11.4-1.9c13-3.5,21.7-11,21.1-19.3c-0.7-8.9-12-15.4-27.2-16.3c-2.6-0.1-5.3-0.1-8.1,0.1
			c-19,1.4-33.3,10.7-32.5,21.2C31.2,406.7,46.7,413.8,65.7,412.4z M93.2,391.6c0.3,4.1-3.9,8.7-11.2,11.9c1.5-3.2,2.2-6.7,2-10.3
			c-0.3-4.6-2.2-8.8-5.3-12.3C87.4,383,92.9,387.2,93.2,391.6z"/>
		<path d="M160,417.8c4.9,0.4,9.6,0.5,14,0.2c16.2-1.1,28-7,28.8-15.2c0.8-8.9-11.8-17.4-29.8-20.9c-3.1-0.6-6.4-1.1-9.8-1.4
			c-23.1-2-41.9,4.6-42.8,15.1C119.6,406,136.9,415.8,160,417.8z M196.8,402.1c-0.4,4.1-6.2,7.9-15.5,9.8c2.4-2.9,3.8-6.2,4.2-9.8
			c0.4-4.6-1.2-9.1-4.2-13C191.3,392.6,197.1,397.7,196.8,402.1z"/>
		<path d="M146.5,489.3c-0.3,0.4-0.7,0.8-1.1,1.2c-0.4,0.4-0.9,0.8-1.4,1.3c-0.5,0.4-1.1,0.9-1.7,1.4c-0.6,0.5-1.3,0.9-1.9,1.4
			c-1.4,0.9-2.9,1.8-4.7,2.6c-1.7,0.8-3.6,1.4-5.5,2c-2,0.5-4,0.8-6.1,1c-2.1,0.1-4.2,0-6.2-0.2c0.2,0,0,0,0.1,0l0,0l-0.1,0l-0.1,0
			l-0.2,0l-0.4-0.1l-0.8-0.1c-0.6-0.1-1-0.2-1.5-0.4c-0.9-0.2-1.9-0.6-2.8-0.9c-1.9-0.7-3.6-1.6-5.3-2.5c-1.6-1-3.1-2-4.3-3.2
			c-0.2-0.2-0.4-0.3-0.6-0.5c-1-1-2-1.9-2.8-2.9c-0.4-0.6-0.9-1.1-1.3-1.6c-0.4-0.5-0.7-1.1-1-1.5c-0.3-0.5-0.6-1-0.8-1.4
			c-0.2-0.4-0.4-0.8-0.6-1.2c-0.7,0.9-1.5,1.8-2.4,2.8c-0.5,0.6-1.1,1.1-1.7,1.6c-0.6,0.5-1.3,1.1-2,1.6c-0.8,0.6-1.6,1.1-2.4,1.7
			c-0.7,0.5-1.5,0.9-2.3,1.3c-0.8,0.5-1.8,0.9-2.7,1.3c-0.9,0.4-1.9,0.8-2.9,1.1c-0.5,0.2-1,0.3-1.5,0.5l-1.5,0.4
			c-0.5,0.1-1,0.2-1.5,0.3c-0.5,0.1-0.9,0.2-1.6,0.3l-1.7,0.2l-0.2,0l-0.1,0c0,0,0.2,0,0.1,0l0,0l-0.1,0l-0.4,0l-0.8,0
			c-0.5,0-1.1,0-1.6,0c-0.5,0-1.1,0-1.6-0.1c-2.1-0.1-4.1-0.5-6.1-1.1c-0.5-0.2-0.9-0.3-1.4-0.5c-0.4-0.2-0.9-0.4-1.3-0.6
			c-0.4-0.2-0.9-0.4-1.3-0.7l-0.7-0.4l-0.3-0.2l0,0c0,0,0,0,0,0l0,0l-0.1-0.1l-0.1-0.1c-0.7-0.5-1.5-1-2.1-1.7
			c-0.3-0.3-0.7-0.6-0.9-0.9c-0.3-0.3-0.6-0.6-0.8-1L51,489c-0.1-0.2-0.2-0.3-0.3-0.5c-0.2-0.3-0.4-0.7-0.7-1
			c-0.4-0.6-0.7-1.3-1-1.9c-0.5-1.3-0.9-2.4-1.1-3.4c-0.3-1-0.2-1.8-0.3-2.3c0-0.5,0-0.8,0-0.8s0,0.3-0.1,0.8c0,0.5-0.2,1.3-0.1,2.4
			c0,1,0.2,2.3,0.6,3.7c0.2,0.7,0.4,1.5,0.8,2.2c0.2,0.4,0.4,0.8,0.5,1.1c0.1,0.2,0.2,0.4,0.3,0.6c0.1,0.2,0.2,0.4,0.4,0.6
			c0.2,0.4,0.5,0.8,0.7,1.2c0.3,0.4,0.6,0.8,0.9,1.2c0.6,0.8,1.3,1.5,2.1,2.3l0.1,0.1l0.1,0.1l0,0c0,0,0.1,0.1,0.1,0.1l0,0l0.3,0.2
			l0.6,0.5c0.4,0.3,0.8,0.7,1.3,1c0.5,0.3,1,0.6,1.5,1c0.5,0.3,1,0.5,1.5,0.8c2.1,1,4.4,1.9,6.8,2.4c0.6,0.2,1.2,0.2,1.8,0.4
			c0.6,0.1,1.2,0.2,1.8,0.3l0.9,0.1l0.5,0.1l0.1,0l0,0c-0.1,0,0.1,0,0.1,0l0.1,0l0.2,0l1.7,0.1c0.5,0.1,1.3,0,1.9,0
			c0.7,0,1.3,0,1.9-0.1l1.9-0.2c0.6-0.1,1.2-0.2,1.9-0.3c1.2-0.2,2.4-0.5,3.6-0.7c1.2-0.3,2.4-0.6,3.5-1c2-0.7,3.9-1.5,5.7-2.4
			c1.1,0.8,2.3,1.7,3.6,2.5c1.9,1.2,4,2.2,6.1,3.1c2.2,0.9,4.6,1.6,7,2c1.2,0.2,2.4,0.4,3.8,0.5c0.6,0.1,1.3,0.1,1.9,0.1l1.8,0
			c2.5-0.1,4.9-0.4,7.3-0.9c2.3-0.6,4.6-1.3,6.6-2.2c2-0.9,3.9-2,5.6-3.1c1.7-1.1,3.2-2.4,4.5-3.5c0.6-0.6,1.2-1.2,1.8-1.8
			c0.5-0.6,1-1.2,1.5-1.7c0.4-0.6,0.8-1.1,1.2-1.6c0.4-0.5,0.7-1,0.9-1.4c0.6-0.8,0.9-1.5,1.2-2c0.3-0.5,0.4-0.7,0.4-0.7
			s-0.2,0.2-0.5,0.6C147.6,487.9,147.2,488.6,146.5,489.3z"/>
		<polygon points="78.6,649.3 87.5,649.3 89.6,611.7 77.6,611.7 		"/>
		<path d="M397.7,569.5c-13.8-14.2-34.7-15.2-49.8-11.3c-9.8,2.5-20.5,8.8-30.3,15.4c0.6-5.4,0.7-10.8,0.3-16.2
			c0.1-0.8,0.1-1.7,0-2.6c-0.1-0.7-0.2-1.4-0.4-2c0-0.2,0-0.3,0-0.5l-0.1,0c-2.4-6.6-10.9-8.9-14.7-10c-11.1-3-22.5-4.5-34-4.5
			c5.5-28.5,19.3-55.8,40.6-79.5l5.5-6.1l-6.9-4.5c-1.4-0.9-2.8-1.8-4.2-2.6c-3.7-2.2-7.5-4.5-11.9-8.3c13.9-27.9,37-51.2,70.5-71.3
			l8.8-5.2l-8-6.3c-5.8-4.6-11.9-8.7-18.2-12.3c8.3-23,5.9-49.3-6.9-70.3c-5.9-9.8-14-18.1-23.3-24.6c1.9-6.4,2.7-13.2,2.1-19.9
			c-0.5-6.2-2.1-12.2-4.6-17.8c1.5-4,2.5-8,2.9-12c1.5-13.7-3.9-27.3-13.8-34.6c-4.9-3.6-11.2-6-18.7-7.1
			c-13.1-1.9-26.5,0.3-38.2,6.1c-18.3-5.7-35.2-8.8-51.3-9.5c-28.5-1.2-55.6,5.8-76.3,19.7c-12,8.1-21.9,18.5-28.9,30.1
			c-42.7,17.2-78.4,52.5-94.6,95.6c-7.1,2.4-14.1,5.2-20.7,8.2l-3.4,1.6l-0.6,3.7c-4.6,28.4,5,59.4,24.8,81.3
			c-14.9,11.1-25.3,29.1-27.7,49c-2.5,20.5,3,42.6,15.6,62c4.1,6.3,10.3,12.3,16.7,17.9c-4.2-0.2-8.4-0.2-12.6,0.1
			c-1.2,0.1-3.3,0.2-5.5,1.4c-3.1,1.7-4.5,4.9-4.9,7.3c-6.6,45.8-3.6,93.6,8.7,138.3c11.3,41,28.5,69.9,52.6,88.3
			C59,774,89.1,782.9,126,783.2c0.6,0,1.1,0,1.6,0c66.9,0,133.9-28.9,179.8-77.5c25.2-10.7,47.4-25.2,69.7-45.6
			c10.5-9.6,25-24.5,30.4-43.7C412.4,599.1,408.5,580.8,397.7,569.5z M299.2,555c1.8,0.5,3.1,0.9,4.1,1.3c-1.5,0.8-3.4,1.7-4.3,2.1
			c-10.7,4.8-21.8,8.9-33,12.4c-0.2-6.6,0-13.2,0.7-19.8C277.7,550.8,288.6,552.1,299.2,555z M79.1,221.5c3.8-2,7.7-3.8,11.6-5.5
			c0.4,0.2,0.9,0.5,1.3,0.7c0.5,0.2,1.1,0.5,1.6,0.8c1.1,0.5,2.3,1,3.5,1.4c1.3,0.4,2.5,0.8,3.9,1.1c1.3,0.3,2.7,0.5,4,0.7
			c1.4,0.1,2.7,0.3,4,0.3c1.3,0.1,2.6,0,3.8-0.1c1.2-0.1,2.4-0.2,3.5-0.5c1.1-0.2,2.1-0.4,3-0.7c0.5-0.1,0.9-0.2,1.3-0.4
			c0.4-0.1,0.8-0.3,1.2-0.4c0.7-0.2,1.3-0.5,1.8-0.7c1-0.4,1.6-0.7,1.6-0.7s-0.6,0-1.7,0.1c-0.5,0.1-1.2,0.1-1.9,0
			c-0.4,0-0.8,0-1.2,0c-0.4,0-0.8-0.1-1.3-0.1c-0.4,0-0.9-0.1-1.4-0.1c-0.5-0.1-1-0.2-1.5-0.2c-1-0.1-2-0.4-3.1-0.7
			c-1-0.3-2.1-0.6-3.2-1.1c-1.1-0.4-2.1-0.9-3.1-1.4c-1-0.6-2-1.1-2.8-1.7c-0.9-0.6-1.7-1.2-2.5-1.9c-0.6-0.5-1.1-1-1.6-1.4
			c3.1-5.1,6.9-10,11.2-14.4c4-4.1,8.4-7.8,13.3-11.1c18.2-12.2,42.3-18.4,67.9-17.3c11.7,0.5,23.9,2.4,36.9,5.7
			c5.4,1.4,10.9,3,16.5,4.9c6.1-3.8,13.1-6.4,20.3-7.4c4.8-0.7,9.6-0.7,14.3,0c5.2,0.8,9.4,2.3,12.4,4.5c5.4,4,8.5,11.4,8.3,19.3
			c0,0.8-0.1,1.6-0.2,2.5c-0.3,2.5-0.9,5-1.7,7.5c-0.3,0.2-0.7,0.3-1,0.5c-0.7,0.4-1.6,0.6-2.4,0.9c-0.9,0.3-1.8,0.7-2.7,0.9
			c-0.9,0.3-1.9,0.5-2.9,0.8c-1,0.2-2,0.4-2.9,0.6c-1,0.2-2,0.3-2.9,0.4c-1,0.1-1.9,0.3-2.8,0.3c-0.9,0-1.7,0.1-2.5,0.1
			c-0.4,0-0.8,0-1.1,0c-0.4,0-0.7,0-1-0.1c-0.6,0-1.2-0.1-1.7-0.1c-0.9-0.1-1.5-0.1-1.5-0.1s0.5,0.2,1.3,0.7
			c0.4,0.2,0.9,0.5,1.5,0.8c0.3,0.1,0.6,0.3,0.9,0.5c0.3,0.2,0.7,0.3,1.1,0.4c0.8,0.3,1.6,0.6,2.5,1c0.9,0.4,1.8,0.6,2.8,0.9
			c1,0.3,2,0.7,3.1,0.9c1.1,0.2,2.2,0.5,3.3,0.7c1.1,0.2,2.3,0.3,3.4,0.5c1.1,0.2,2.2,0.2,3.3,0.3c0.6,0,1.2,0.1,1.8,0.1
			c1.8,3.9,3.1,8,3.6,12.2c0.1,0.6,0.1,1.2,0.2,1.8c0.3,3.9,0,7.8-0.8,11.6c-0.3,1.6-0.8,3.2-1.3,4.8c-0.4,0.5-0.9,1-1.6,1.5
			c-0.8,0.6-1.9,1.3-3.1,1.9c-0.6,0.3-1.3,0.6-2,0.9l-0.5,0.2l-0.3,0.1l0,0c-0.1,0,0.2,0,0.1,0l0,0l-0.1,0l-0.2,0.1
			c-0.4,0.1-0.8,0.3-1.3,0.4c-1.7,0.5-3.5,1.2-5.2,1.6c-1.7,0.5-3.4,1-5.2,1.3c-0.9,0.2-1.8,0.4-2.7,0.6c-0.9,0.2-1.8,0.3-2.7,0.4
			c-0.9,0.1-1.8,0.3-2.7,0.4c-0.9,0.1-1.8,0.2-2.7,0.2c-0.9,0.1-1.7,0.1-2.6,0.2c-0.8,0.1-1.7,0.1-2.5,0.1c-1.6,0-3.2,0.1-4.6,0
			c-1.4-0.1-2.7-0.1-3.9-0.1c-1.2-0.1-2.2-0.2-3-0.3c-1.7-0.2-2.6-0.3-2.6-0.3s0.9,0.3,2.5,0.8c0.8,0.3,1.8,0.6,2.9,1
			c1.1,0.3,2.4,0.7,3.8,1c1.4,0.4,3,0.7,4.6,1c0.8,0.2,1.7,0.4,2.5,0.5c0.9,0.1,1.8,0.3,2.7,0.4c0.9,0.1,1.8,0.3,2.8,0.4
			c0.9,0.1,1.9,0.2,2.9,0.2c1,0.1,2,0.2,2.9,0.2c1,0,2,0,3,0.1c2,0.1,4,0,6.1-0.1c2.1-0.1,3.8-0.3,5.7-0.4c0.4,0,0.9-0.1,1.3-0.1
			c0.5-0.1,1-0.2,1.6-0.2c1-0.2,1.9-0.3,2.8-0.6c1.5-0.4,3-0.8,4.4-1.4c1.7,1.1,3.4,2.2,5,3.4c6.9,5.1,12.8,11.5,17.2,18.7
			c10,16.5,12.3,37.9,6.3,56.4C309,324,283,316.8,254.8,309.8c-46.8-11.8-92.8-22.6-140-25.6c-38.6-2.5-73.5,0.3-104.3,8.3
			C24.7,262.2,49.4,237,79.1,221.5z M-20.5,443.2c2.3-18.7,13.1-35.3,28.2-43.2l8.8-4.6l-7.3-6.7c-19.7-18-30.2-45.7-27.3-71.5
			c36.2-15.8,80.6-22.2,132.1-18.9c46,2.9,91.3,13.6,137.5,25.2c36,9,68.2,18.1,94.7,36c-33,21.4-55.7,46.5-69.3,76.4l-2,4.4
			l3.4,3.4c5.7,5.7,10.6,9.1,15,11.9c-29,35.1-43.5,77-41.1,119.3c-30.2,7.9-61.5,11.2-92.7,9.6c0.2-1.2,0.3-2.4,0.3-3.7
			c0-16.7-18.6-30.3-41.5-30.3c-20.1,0-36.8,10.5-40.7,24.3c-3.4-1-6.7-2-10-3.3c1.1-2.4,1.6-5,1.6-7.7c0-13.9-15.4-25.3-34.3-25.3
			c-0.2,0-0.4,0-0.6,0c-2.9-6.9-10.7-13.6-20.2-21.6c-7.9-6.6-16.8-14.1-21.2-21C-17.8,479.2-22.6,460.4-20.5,443.2z M112.6,617.3
			L130,616l-1,25h-16.3V617.3z M118.3,602c-17.5,0-31.8-9.5-31.8-21.2s14.3-21.2,31.8-21.2s31.8,9.5,31.8,21.2S135.9,602,118.3,602z
			 M35.1,547.4c13.5,0,24.9,7.5,24.9,16.4s-11.4,16.4-24.9,16.4s-24.9-7.5-24.9-16.4S21.5,547.4,35.1,547.4z M15.6,536.7
			c1.7,1.6,3.2,3.1,4.2,4.4c-4.9,1.8-9.1,4.4-12.3,7.7c-2.4-1.6-4.9-2.9-7.4-4.2c-0.8-0.4-1.7-0.9-2.5-1.3c-2.8-1.5-6.2-3.5-7.8-6.3
			c-0.5-0.9-0.7-1.8-0.8-2.7C-2.1,534.1,6.8,534.8,15.6,536.7z M395.1,612.8c-3.5,12.4-11.7,24-26.6,37.6
			c-21.6,19.7-44.3,34-68.7,44.1c-23.7,25.4-53.6,45.5-86.3,58.6l-10.1-0.8l6-9.7L220,743l9.3-15.7H218l7-12.3l18.3,0.7l19.7-30.3
			l-6.2-1.1c4-5.9,7.5-13.8,9.7-22.7l-15.4,0.8l-2.3,7.7l-13.7,1.3l8-37.7l13.3-1.2l-2,10.9l14.7-1.7c0.3-17.7-5.4-31.4-14.8-33.2
			c-11.8-2.2-25,15.6-29.4,39.7c-2.3,12.6-1.8,24.4,0.9,33.1l-40.4,81.2c-6.8,1.8-13.7,3.3-20.6,4.5l5.6-18.6l12.3-1l9.7-17.3H174
			l3.7-11.3h22.7l16-30h-23.7l4-21.7h6.3v16.3l15-3.7l4.7-76.7l-32,6.1l-15,79.2L150.2,769c-7.5,0.8-15.1,1.2-22.6,1.2
			c-0.4,0-0.7,0-1.1,0l2.1-19.2h6.9l0.1,13l14-1l10.3-77.2l12-2.5l2-21.3l-15,3.3l10-62.3l-16.7,1.8l-7.2,76.1l-26.1,3.8l-8.4,84.8
			c-5-0.4-9.9-1-14.6-1.9c5.2-4.3,9-11.7,10.8-20.9L92,745.3v8.3H77.6l-7-38.3l17-1l1,11.8l18.7-0.9c-0.2-1.6-0.4-3.3-0.7-5
			c-4.4-24.4-19-42.4-33.2-41.5L64,603l-34,5.1l-3.3,87.6h21.2V670H55l3.1,19.8c-5.5,9.6-7.6,24.4-4.8,40.2
			c2,11.3,6.3,21.2,11.6,28.5c-7.6-3.3-14.6-7.4-20.7-12.1c-16.5-12.6-29.5-30.9-39.3-55.6l17.8-3.9L20,664.3L4.8,669v-66l-19,2.3
			c-1.5-18-1.5-36.1,0-54c1.9,1.4,3.9,2.6,5.7,3.5c0.9,0.5,1.8,0.9,2.7,1.4c2.6,1.3,5,2.5,7,4c-0.2,1.1-0.3,2.3-0.3,3.5
			c0,13.9,15.4,25.3,34.3,25.3c9.2,0,17.5-2.7,23.7-7c6.3,2.5,12.8,4.7,19.4,6.4c2.6,7.3,8.8,13.6,17.2,17.7l2.5,85.3h12.8l3-36.1
			c0,0,14-1,19.2-3c5.1-1.9,19.2-23.8,7.3-45.7c5.6-2.5,10.3-6,13.8-10.2l0,0.7c6.9,0.5,13.8,0.7,20.7,0.7c44.5,0,89-9.4,129.8-27.5
			c0.2-0.1,0.3-0.2,0.5-0.2c-0.4,4.4-1,8.8-2.1,13.1c-0.2,0.6-0.3,1.2-0.3,1.9l-0.9,11.8l3.3-0.7c1.5-0.3,2.9-0.9,4.1-1.8l0.6-0.4
			c12-8.3,28.5-19.7,41.5-23c14.5-3.7,29.1-0.7,37.2,7.7C396,586.5,398.7,600,395.1,612.8z M194.6,652.2l2.7-22.7h10.3l-0.3,21.8
			L194.6,652.2z M126.3,735.7l2-22.7h12.6l-0.9,22.7H126.3z M55,652.3l-12.3,1.6l-2-22.9l12.3-1.7L55,652.3z"/>
		<path d="M373.6,585.1c-6.3-4.7-14.8-5.1-25.9-1.3c-12.1,4.1-23.5,10.2-33.6,18l-32.1-1.2l-19,90.7c23.4,0,33.3-5.2,37.5-9.9
			c13.3-5.9,28.2-13,41.7-22.5c16.1-11.4,27.9-24.6,35.1-39.3c1.9-4,4.5-10,4.6-16.7C381.9,595.6,378.8,589,373.6,585.1z M279,658.3
			l9.7-1l4.2-20.5l-5.2,0.2l3.2-11.7h8.2l-5.7,42h-17L279,658.3z M367.3,614.7c-6.3,13-17,24.9-31.5,35.2
			c-9.8,7-20.6,12.6-30.9,17.4l11.1-52.8c10.3-8.9,22.4-15.9,35.3-20.3c7.4-2.5,12.7-2.6,15.8-0.2c2.3,1.7,3.7,5,3.7,8.7
			C370.8,606.1,369.7,609.9,367.3,614.7z"/>
	</g>
</g>
<g id="Réteg_3_másolat">
</g>
<g id="Réteg_1_másolat">
</g>
<g id="Réteg_2_másolat">
	<g>
		<path fill="#FFFFFF" d="M290.9,203.8c3.8-2,7.7-3.8,11.6-5.5c0.4,0.2,0.9,0.5,1.3,0.7c0.5,0.2,1.1,0.5,1.6,0.8
			c1.1,0.5,2.3,1,3.5,1.4c1.3,0.4,2.5,0.8,3.9,1.1c1.3,0.3,2.7,0.5,4,0.7c1.4,0.1,2.7,0.3,4,0.3c1.3,0.1,2.6,0,3.8-0.1
			c1.2-0.1,2.4-0.2,3.5-0.5c1.1-0.2,2.1-0.4,3-0.7c0.5-0.1,0.9-0.2,1.3-0.4c0.4-0.1,0.8-0.3,1.2-0.4c0.7-0.2,1.3-0.5,1.8-0.7
			c1-0.4,1.6-0.7,1.6-0.7s-0.6,0-1.7,0.1c-0.5,0.1-1.2,0.1-1.9,0c-0.4,0-0.8,0-1.2,0c-0.4,0-0.8-0.1-1.3-0.1c-0.4,0-0.9-0.1-1.4-0.1
			c-0.5-0.1-1-0.2-1.5-0.2c-1-0.1-2-0.4-3.1-0.7c-1-0.3-2.1-0.6-3.2-1.1c-1.1-0.4-2.1-0.9-3.1-1.4c-1-0.6-2-1.1-2.8-1.7
			c-0.9-0.6-1.7-1.2-2.5-1.9c-0.6-0.5-1.1-1-1.6-1.4c3.1-5.1,6.9-10,11.2-14.4c4-4.1,8.4-7.8,13.3-11.1
			c18.2-12.2,42.3-18.4,67.9-17.3c11.7,0.5,23.9,2.4,36.9,5.7c5.4,1.4,10.9,3,16.5,4.9c6.1-3.8,13.1-6.4,20.3-7.4
			c4.8-0.7,9.6-0.7,14.3,0c5.2,0.8,9.4,2.3,12.4,4.5c5.4,4,8.5,11.4,8.3,19.3c0,0.8-0.1,1.6-0.2,2.5c-0.3,2.5-0.9,5-1.7,7.5
			c-0.3,0.2-0.7,0.3-1,0.5c-0.7,0.4-1.6,0.6-2.4,0.9c-0.9,0.3-1.8,0.7-2.7,0.9c-0.9,0.3-1.9,0.5-2.9,0.8c-1,0.2-2,0.4-2.9,0.6
			c-1,0.2-2,0.3-2.9,0.4c-1,0.1-1.9,0.3-2.8,0.3c-0.9,0-1.7,0.1-2.5,0.1c-0.4,0-0.8,0-1.1,0c-0.4,0-0.7,0-1-0.1
			c-0.6,0-1.2-0.1-1.7-0.1c-0.9-0.1-1.5-0.1-1.5-0.1s0.5,0.2,1.3,0.7c0.4,0.2,0.9,0.5,1.5,0.8c0.3,0.1,0.6,0.3,0.9,0.5
			c0.3,0.2,0.7,0.3,1.1,0.4c0.8,0.3,1.6,0.6,2.5,1c0.9,0.4,1.8,0.6,2.8,0.9c1,0.3,2,0.7,3.1,0.9c1.1,0.2,2.2,0.5,3.3,0.7
			c1.1,0.2,2.3,0.3,3.4,0.5c1.1,0.2,2.2,0.2,3.3,0.3c0.6,0,1.2,0.1,1.8,0.1c1.8,3.9,3.1,8,3.6,12.2c0.1,0.6,0.1,1.2,0.2,1.8
			c0.3,3.9,0,7.8-0.8,11.6c-0.3,1.6-0.8,3.2-1.3,4.8c-0.4,0.5-0.9,1-1.6,1.5c-0.8,0.6-1.9,1.3-3.1,1.9c-0.6,0.3-1.3,0.6-2,0.9
			l-0.5,0.2l-0.3,0.1l0,0c-0.1,0,0.2,0,0.1,0l0,0l-0.1,0l-0.2,0.1c-0.4,0.1-0.8,0.3-1.3,0.4c-1.7,0.5-3.5,1.2-5.2,1.6
			c-1.7,0.5-3.4,1-5.2,1.3c-0.9,0.2-1.8,0.4-2.7,0.6c-0.9,0.2-1.8,0.3-2.7,0.4c-0.9,0.1-1.8,0.3-2.7,0.4c-0.9,0.1-1.8,0.2-2.7,0.2
			c-0.9,0.1-1.7,0.1-2.6,0.2c-0.8,0.1-1.7,0.1-2.5,0.1c-1.6,0-3.2,0.1-4.6,0c-1.4-0.1-2.7-0.1-3.9-0.1c-1.2-0.1-2.2-0.2-3-0.3
			c-1.7-0.2-2.6-0.3-2.6-0.3s0.9,0.3,2.5,0.8c0.8,0.3,1.8,0.6,2.9,1c1.1,0.3,2.4,0.7,3.8,1c1.4,0.4,3,0.7,4.6,1
			c0.8,0.2,1.7,0.4,2.5,0.5c0.9,0.1,1.8,0.3,2.7,0.4c0.9,0.1,1.8,0.3,2.8,0.4c0.9,0.1,1.9,0.2,2.9,0.2c1,0.1,2,0.2,2.9,0.2
			c1,0,2,0,3,0.1c2,0.1,4,0,6.1-0.1c2.1-0.1,3.8-0.3,5.7-0.4c0.4,0,0.9-0.1,1.3-0.1c0.5-0.1,1-0.2,1.6-0.2c1-0.2,1.9-0.3,2.8-0.6
			c1.5-0.4,3-0.8,4.4-1.4c1.7,1.1,3.4,2.2,5,3.4c6.9,5.1,12.8,11.5,17.2,18.7c10,16.5,12.3,37.9,6.3,56.4
			c-23.2-11.3-49.2-18.4-77.4-25.5c-46.8-11.8-92.8-22.6-140-25.6c-38.6-2.5-73.5,0.3-104.3,8.3
			C236.5,244.6,261.3,219.4,290.9,203.8z"/>
		<path fill="#6E3A17" d="M191.3,425.5c2.3-18.7,13.1-35.3,28.2-43.2l8.8-4.6l-7.3-6.7c-19.7-18-30.2-45.7-27.3-71.5
			c36.2-15.8,80.6-22.2,132.1-18.9c46,2.9,91.3,13.6,137.5,25.2c36,9,68.2,18.1,94.7,36c-33,21.4-55.7,46.5-69.3,76.4l-2,4.4
			l3.4,3.4c5.7,5.7,10.6,9.1,15,11.9c-29,35.1-43.5,77-41.1,119.3c-30.2,7.9-61.5,11.2-92.7,9.6c0.2-1.2,0.3-2.4,0.3-3.7
			c0-16.7-18.6-30.3-41.5-30.3c-20.1,0-36.8,10.5-40.7,24.3c-3.4-1-6.7-2-10-3.3c1.1-2.4,1.6-5,1.6-7.7c0-13.9-15.4-25.3-34.2-25.3
			c-0.2,0-0.4,0-0.6,0c-2.9-6.9-10.7-13.6-20.2-21.6c-7.9-6.6-16.8-14.1-21.2-21C194,461.5,189.2,442.8,191.3,425.5z"/>
		<path fill="#6E3A17" d="M330.1,585.5c-18.5,0-33.5-10-33.5-22.3s15-22.3,33.5-22.3s33.5,10,33.5,22.3S348.6,585.5,330.1,585.5z"/>
		<path fill="#6E3A17" d="M246.9,528.9c14.2,0,26.2,7.9,26.2,17.3s-12,17.3-26.2,17.3c-14.2,0-26.3-7.9-26.3-17.3
			S232.7,528.9,246.9,528.9z"/>
		<path fill="#FFE400" d="M511.1,537.3c1.8,0.5,3.1,0.9,4.1,1.3c-1.5,0.8-3.4,1.7-4.3,2.1c-10.7,4.8-21.8,8.9-33,12.4
			c-0.2-6.6,0-13.2,0.7-19.8C489.5,533.1,500.4,534.5,511.1,537.3z"/>
		<path fill="#FFE400" d="M227.4,519.1c1.7,1.6,3.2,3.1,4.2,4.4c-4.9,1.8-9.1,4.4-12.3,7.7c-2.4-1.6-4.9-2.9-7.4-4.2
			c-0.8-0.4-1.7-0.9-2.5-1.3c-2.8-1.5-6.2-3.5-7.8-6.3c-0.5-0.9-0.7-1.8-0.8-2.7C209.8,516.4,218.7,517.2,227.4,519.1z"/>
		<path fill="#FFE400" d="M600.2,560.9c-8.1-8.4-22.8-11.5-37.2-7.7c-13,3.3-29.5,14.7-41.5,23l-0.6,0.4c-1.2,0.9-2.6,1.5-4.1,1.8
			l-3.3,0.7l0.9-11.8c0-0.6,0.2-1.2,0.3-1.9c1-4.3,1.7-8.6,2.1-13.1c-0.2,0.1-0.4,0.2-0.5,0.2c-40.7,18.1-85.2,27.5-129.8,27.5
			c-6.9,0-13.8-0.2-20.7-0.7l0-0.7c-3.4,4.1-8.1,7.6-13.8,10.2c11.9,21.9-2.2,43.7-7.3,45.7c-5.3,2-19.3,3-19.3,3l-3,36.1h-12.8
			l-2.5-85.3c-8.4-4.1-14.6-10.4-17.2-17.7c-6.6-1.7-13.1-3.8-19.4-6.4c-6.2,4.4-14.5,7-23.7,7c-18.9,0-34.3-11.3-34.3-25.3
			c0-1.2,0.1-2.4,0.3-3.5c-2-1.5-4.4-2.7-7-4c-0.9-0.5-1.8-0.9-2.7-1.4c-1.8-1-3.8-2.1-5.7-3.5c-1.5,17.9-1.4,36,0,54l19-2.3v66
			l15.2-4.7l2.7,22.7l-17.8,3.9c9.9,24.7,22.9,43,39.3,55.6c6.2,4.7,13.1,8.7,20.7,12.1c-5.3-7.3-9.6-17.2-11.6-28.5
			c-2.9-15.8-0.8-30.6,4.8-40.2l-3.1-19.8h-7.2V678h-21.2l3.3-87.6l34-5.1l9.5,75.9c14.2-0.9,28.7,17.1,33.2,41.5
			c0.3,1.7,0.5,3.3,0.7,5l-18.7,0.9l-1-11.8l-17,1l7,38.3h14.3v-8.3l14.8,1.3c-1.8,9.2-5.5,16.6-10.8,20.9c4.7,0.8,9.6,1.4,14.6,1.9
			l8.4-84.8l26.1-3.8l7.2-76.1l16.7-1.8l-10,62.3l15-3.3l-2,21.3l-12,2.5l-10.3,77.2l-14,1l-0.1-13h-6.9l-2.1,19.2
			c0.4,0,0.7,0,1.1,0c7.5,0,15.1-0.4,22.6-1.2l25.4-80.6l15-79.2l32-6.1l-4.7,76.7l-15,3.7v-16.3h-6.3l-4,21.7h23.7l-16,30h-22.7
			l-3.7,11.3h18.3l-9.7,17.3l-12.3,1l-5.6,18.6c6.9-1.2,13.8-2.7,20.6-4.5l40.4-81.2c-2.7-8.7-3.2-20.5-0.9-33.1
			c4.4-24.1,17.6-41.9,29.4-39.7c9.4,1.7,15.1,15.5,14.8,33.2l-14.7,1.7l2-10.9l-13.3,1.2l-8,37.7l13.7-1.3l2.3-7.7l15.4-0.8
			c-2.2,9-5.6,16.8-9.7,22.7l6.2,1.1L455.1,698l-18.3-0.7l-7,12.3h11.3l-9.3,15.7l-10.7-0.3l-6,9.7l10.1,0.8
			c32.7-13.1,62.6-33.2,86.3-58.6c24.3-10.1,47.1-24.4,68.7-44.1c14.9-13.7,23.2-25.3,26.6-37.6
			C610.5,582.3,607.9,568.9,600.2,560.9z M586.5,593.1c-0.1,0.7-0.2,1.3-0.3,2c-0.1,0.3-0.2,0.6-0.4,1c1,6.9-2.9,14.5-11.5,15
			c-0.8,1.6-1.9,3.1-3.3,4.2c-1,4-3.7,7.4-8.1,8.7c0,1.1-0.1,2.2-0.4,3.3c-0.6,2.2-1.7,4.1-3.3,5.7c-0.9,0.7-1.8,1.4-2.6,2
			c-1.4,1-3.3,1.6-4.8,2.2c-0.7,0.3-1.4,0.5-2.1,0.6c-2.3,0.6-4.6,0.6-6.9,0c-0.6-0.3-1.2-0.5-1.8-0.8c-0.1,0.2-0.3,0.3-0.4,0.5
			c-0.6,2.2-1.7,4.3-3.4,5.9l-0.5,0.5c-0.4,0.4-0.8,0.7-1.2,1.1c-1.2,5.2-5.2,9.7-12.2,9.7c-13.2,0-16-16.2-8.4-23
			c0.6-2.3,1.7-4.5,3.4-6.2l0.2-0.2c-0.9-4.5,0.2-9.5,3.4-12.7c-0.4-1.3-0.7-2.7-0.7-4.2v-0.3c0-2.4,0.7-4.8,1.9-6.8
			c-4.3-7.7-0.7-20,10.8-20c1.8,0,3.4,0.3,4.9,0.9c2.1-2.7,5.4-4.6,9.9-4.6c0.9,0,1.7,0.1,2.4,0.2c1.4-1.3,3.3-2.2,5.5-2.7
			c2-1.8,4.6-2.9,7.2-3.2c2.3-2,5.3-3.1,8.4-3.1c3.4,0,6.8,1.4,9.2,3.8c0.9,0.9,1.7,2,2.3,3.1c0.8,1.2,1.4,2.5,1.8,3.9
			c0.2,0.8,0.4,1.6,0.4,2.5c0.1,0.3,0.2,0.5,0.3,0.8c0.6,1.8,0.9,3.8,1,5.7C587.2,590.3,586.9,591.7,586.5,593.1z"/>
		<polygon fill="#FFE400" points="324.5,599.7 341.8,598.4 340.8,623.4 324.5,623.4 		"/>
		<polygon fill="#FFE400" points="406.5,634.6 409.1,611.9 419.5,611.9 419.1,633.7 		"/>
		<polygon fill="#FFE400" points="338.1,718 340.1,695.4 352.7,695.4 351.8,718 		"/>
		<polygon fill="#FFE400" points="266.8,634.7 254.5,636.3 252.5,613.4 264.8,611.7 		"/>
		<path fill="#FFFFFF" d="M290.9,203.8c3.8-2,7.7-3.8,11.6-5.5c0.4,0.2,0.9,0.5,1.3,0.7c0.5,0.2,1.1,0.5,1.6,0.8
			c1.1,0.5,2.3,1,3.5,1.4c1.3,0.4,2.5,0.8,3.9,1.1c1.3,0.3,2.7,0.5,4,0.7c1.4,0.1,2.7,0.3,4,0.3c1.3,0.1,2.6,0,3.8-0.1
			c1.2-0.1,2.4-0.2,3.5-0.5c1.1-0.2,2.1-0.4,3-0.7c0.5-0.1,0.9-0.2,1.3-0.4c0.4-0.1,0.8-0.3,1.2-0.4c0.7-0.2,1.3-0.5,1.8-0.7
			c1-0.4,1.6-0.7,1.6-0.7s-0.6,0-1.7,0.1c-0.5,0.1-1.2,0.1-1.9,0c-0.4,0-0.8,0-1.2,0c-0.4,0-0.8-0.1-1.3-0.1c-0.4,0-0.9-0.1-1.4-0.1
			c-0.5-0.1-1-0.2-1.5-0.2c-1-0.1-2-0.4-3.1-0.7c-1-0.3-2.1-0.6-3.2-1.1c-1.1-0.4-2.1-0.9-3.1-1.4c-1-0.6-2-1.1-2.8-1.7
			c-0.9-0.6-1.7-1.2-2.5-1.9c-0.6-0.5-1.1-1-1.6-1.4c3.1-5.1,6.9-10,11.2-14.4c4-4.1,8.4-7.8,13.3-11.1
			c18.2-12.2,42.3-18.4,67.9-17.3c11.7,0.5,23.9,2.4,36.9,5.7c5.4,1.4,10.9,3,16.5,4.9c6.1-3.8,13.1-6.4,20.3-7.4
			c4.8-0.7,9.6-0.7,14.3,0c5.2,0.8,9.4,2.3,12.4,4.5c5.4,4,8.5,11.4,8.3,19.3c0,0.8-0.1,1.6-0.2,2.5c-0.3,2.5-0.9,5-1.7,7.5
			c-0.3,0.2-0.7,0.3-1,0.5c-0.7,0.4-1.6,0.6-2.4,0.9c-0.9,0.3-1.8,0.7-2.7,0.9c-0.9,0.3-1.9,0.5-2.9,0.8c-1,0.2-2,0.4-2.9,0.6
			c-1,0.2-2,0.3-2.9,0.4c-1,0.1-1.9,0.3-2.8,0.3c-0.9,0-1.7,0.1-2.5,0.1c-0.4,0-0.8,0-1.1,0c-0.4,0-0.7,0-1-0.1
			c-0.6,0-1.2-0.1-1.7-0.1c-0.9-0.1-1.5-0.1-1.5-0.1s0.5,0.2,1.3,0.7c0.4,0.2,0.9,0.5,1.5,0.8c0.3,0.1,0.6,0.3,0.9,0.5
			c0.3,0.2,0.7,0.3,1.1,0.4c0.8,0.3,1.6,0.6,2.5,1c0.9,0.4,1.8,0.6,2.8,0.9c1,0.3,2,0.7,3.1,0.9c1.1,0.2,2.2,0.5,3.3,0.7
			c1.1,0.2,2.3,0.3,3.4,0.5c1.1,0.2,2.2,0.2,3.3,0.3c0.6,0,1.2,0.1,1.8,0.1c1.8,3.9,3.1,8,3.6,12.2c0.1,0.6,0.1,1.2,0.2,1.8
			c0.3,3.9,0,7.8-0.8,11.6c-0.3,1.6-0.8,3.2-1.3,4.8c-0.4,0.5-0.9,1-1.6,1.5c-0.8,0.6-1.9,1.3-3.1,1.9c-0.6,0.3-1.3,0.6-2,0.9
			l-0.5,0.2l-0.3,0.1l0,0c-0.1,0,0.2,0,0.1,0l0,0l-0.1,0l-0.2,0.1c-0.4,0.1-0.8,0.3-1.3,0.4c-1.7,0.5-3.5,1.2-5.2,1.6
			c-1.7,0.5-3.4,1-5.2,1.3c-0.9,0.2-1.8,0.4-2.7,0.6c-0.9,0.2-1.8,0.3-2.7,0.4c-0.9,0.1-1.8,0.3-2.7,0.4c-0.9,0.1-1.8,0.2-2.7,0.2
			c-0.9,0.1-1.7,0.1-2.6,0.2c-0.8,0.1-1.7,0.1-2.5,0.1c-1.6,0-3.2,0.1-4.6,0c-1.4-0.1-2.7-0.1-3.9-0.1c-1.2-0.1-2.2-0.2-3-0.3
			c-1.7-0.2-2.6-0.3-2.6-0.3s0.9,0.3,2.5,0.8c0.8,0.3,1.8,0.6,2.9,1c1.1,0.3,2.4,0.7,3.8,1c1.4,0.4,3,0.7,4.6,1
			c0.8,0.2,1.7,0.4,2.5,0.5c0.9,0.1,1.8,0.3,2.7,0.4c0.9,0.1,1.8,0.3,2.8,0.4c0.9,0.1,1.9,0.2,2.9,0.2c1,0.1,2,0.2,2.9,0.2
			c1,0,2,0,3,0.1c2,0.1,4,0,6.1-0.1c2.1-0.1,3.8-0.3,5.7-0.4c0.4,0,0.9-0.1,1.3-0.1c0.5-0.1,1-0.2,1.6-0.2c1-0.2,1.9-0.3,2.8-0.6
			c1.5-0.4,3-0.8,4.4-1.4c1.7,1.1,3.4,2.2,5,3.4c6.9,5.1,12.8,11.5,17.2,18.7c10,16.5,12.3,37.9,6.3,56.4
			c-23.2-11.3-49.2-18.4-77.4-25.5c-46.8-11.8-92.8-22.6-140-25.6c-38.6-2.5-73.5,0.3-104.3,8.3
			C236.5,244.6,261.3,219.4,290.9,203.8z"/>
		<path fill="#6E3A17" d="M191.3,425.5c2.3-18.7,13.1-35.3,28.2-43.2l8.8-4.6l-7.3-6.7c-19.7-18-30.2-45.7-27.3-71.5
			c36.2-15.8,80.6-22.2,132.1-18.9c46,2.9,91.3,13.6,137.5,25.2c36,9,68.2,18.1,94.7,36c-33,21.4-55.7,46.5-69.3,76.4l-2,4.4
			l3.4,3.4c5.7,5.7,10.6,9.1,15,11.9c-29,35.1-43.5,77-41.1,119.3c-30.2,7.9-61.5,11.2-92.7,9.6c0.2-1.2,0.3-2.4,0.3-3.7
			c0-16.7-18.6-30.3-41.5-30.3c-20.1,0-36.8,10.5-40.7,24.3c-3.4-1-6.7-2-10-3.3c1.1-2.4,1.6-5,1.6-7.7c0-13.9-15.4-25.3-34.2-25.3
			c-0.2,0-0.4,0-0.6,0c-2.9-6.9-10.7-13.6-20.2-21.6c-7.9-6.6-16.8-14.1-21.2-21C194,461.5,189.2,442.8,191.3,425.5z"/>
		<path fill="#6E3A17" d="M330.1,585.5c-18.5,0-33.5-10-33.5-22.3s15-22.3,33.5-22.3s33.5,10,33.5,22.3S348.6,585.5,330.1,585.5z"/>
		<path fill="#6E3A17" d="M246.9,528.9c14.2,0,26.2,7.9,26.2,17.3s-12,17.3-26.2,17.3c-14.2,0-26.3-7.9-26.3-17.3
			S232.7,528.9,246.9,528.9z"/>
		<path fill="#FFE400" d="M511.1,537.3c1.8,0.5,3.1,0.9,4.1,1.3c-1.5,0.8-3.4,1.7-4.3,2.1c-10.7,4.8-21.8,8.9-33,12.4
			c-0.2-6.6,0-13.2,0.7-19.8C489.5,533.1,500.4,534.5,511.1,537.3z"/>
		<path fill="#FFE400" d="M227.4,519.1c1.7,1.6,3.2,3.1,4.2,4.4c-4.9,1.8-9.1,4.4-12.3,7.7c-2.4-1.6-4.9-2.9-7.4-4.2
			c-0.8-0.4-1.7-0.9-2.5-1.3c-2.8-1.5-6.2-3.5-7.8-6.3c-0.5-0.9-0.7-1.8-0.8-2.7C209.8,516.4,218.7,517.2,227.4,519.1z"/>
		<path fill="#FFE400" d="M600.2,560.9c-8.1-8.4-22.8-11.5-37.2-7.7c-13,3.3-29.5,14.7-41.5,23l-0.6,0.4c-1.2,0.9-2.6,1.5-4.1,1.8
			l-3.3,0.7l0.9-11.8c0-0.6,0.2-1.2,0.3-1.9c1-4.3,1.7-8.6,2.1-13.1c-0.2,0.1-0.4,0.2-0.5,0.2c-40.7,18.1-85.2,27.5-129.8,27.5
			c-6.9,0-13.8-0.2-20.7-0.7l0-0.7c-3.4,4.1-8.1,7.6-13.8,10.2c11.9,21.9-2.2,43.7-7.3,45.7c-5.3,2-19.3,3-19.3,3l-3,36.1h-12.8
			l-2.5-85.3c-8.4-4.1-14.6-10.4-17.2-17.7c-6.6-1.7-13.1-3.8-19.4-6.4c-6.2,4.4-14.5,7-23.7,7c-18.9,0-34.3-11.3-34.3-25.3
			c0-1.2,0.1-2.4,0.3-3.5c-2-1.5-4.4-2.7-7-4c-0.9-0.5-1.8-0.9-2.7-1.4c-1.8-1-3.8-2.1-5.7-3.5c-1.5,17.9-1.4,36,0,54l19-2.3v66
			l15.2-4.7l2.7,22.7l-17.8,3.9c9.9,24.7,22.9,43,39.3,55.6c6.2,4.7,13.1,8.7,20.7,12.1c-5.3-7.3-9.6-17.2-11.6-28.5
			c-2.9-15.8-0.8-30.6,4.8-40.2l-3.1-19.8h-7.2V678h-21.2l3.3-87.6l34-5.1l9.5,75.9c14.2-0.9,28.7,17.1,33.2,41.5
			c0.3,1.7,0.5,3.3,0.7,5l-18.7,0.9l-1-11.8l-17,1l7,38.3h14.3v-8.3l14.8,1.3c-1.8,9.2-5.5,16.6-10.8,20.9c4.7,0.8,9.6,1.4,14.6,1.9
			l8.4-84.8l26.1-3.8l7.2-76.1l16.7-1.8l-10,62.3l15-3.3l-2,21.3l-12,2.5l-10.3,77.2l-14,1l-0.1-13h-6.9l-2.1,19.2
			c0.4,0,0.7,0,1.1,0c7.5,0,15.1-0.4,22.6-1.2l25.4-80.6l15-79.2l32-6.1l-4.7,76.7l-15,3.7v-16.3h-6.3l-4,21.7h23.7l-16,30h-22.7
			l-3.7,11.3h18.3l-9.7,17.3l-12.3,1l-5.6,18.6c6.9-1.2,13.8-2.7,20.6-4.5l40.4-81.2c-2.7-8.7-3.2-20.5-0.9-33.1
			c4.4-24.1,17.6-41.9,29.4-39.7c9.4,1.7,15.1,15.5,14.8,33.2l-14.7,1.7l2-10.9l-13.3,1.2l-8,37.7l13.7-1.3l2.3-7.7l15.4-0.8
			c-2.2,9-5.6,16.8-9.7,22.7l6.2,1.1L455.1,698l-18.3-0.7l-7,12.3h11.3l-9.3,15.7l-10.7-0.3l-6,9.7l10.1,0.8
			c32.7-13.1,62.6-33.2,86.3-58.6c24.3-10.1,47.1-24.4,68.7-44.1c14.9-13.7,23.2-25.3,26.6-37.6
			C610.5,582.3,607.9,568.9,600.2,560.9z M586.5,593.1c-0.1,0.7-0.2,1.3-0.3,2c-0.1,0.3-0.2,0.6-0.4,1c1,6.9-2.9,14.5-11.5,15
			c-0.8,1.6-1.9,3.1-3.3,4.2c-1,4-3.7,7.4-8.1,8.7c0,1.1-0.1,2.2-0.4,3.3c-0.6,2.2-1.7,4.1-3.3,5.7c-0.9,0.7-1.8,1.4-2.6,2
			c-1.4,1-3.3,1.6-4.8,2.2c-0.7,0.3-1.4,0.5-2.1,0.6c-2.3,0.6-4.6,0.6-6.9,0c-0.6-0.3-1.2-0.5-1.8-0.8c-0.1,0.2-0.3,0.3-0.4,0.5
			c-0.6,2.2-1.7,4.3-3.4,5.9l-0.5,0.5c-0.4,0.4-0.8,0.7-1.2,1.1c-1.2,5.2-5.2,9.7-12.2,9.7c-13.2,0-16-16.2-8.4-23
			c0.6-2.3,1.7-4.5,3.4-6.2l0.2-0.2c-0.9-4.5,0.2-9.5,3.4-12.7c-0.4-1.3-0.7-2.7-0.7-4.2v-0.3c0-2.4,0.7-4.8,1.9-6.8
			c-4.3-7.7-0.7-20,10.8-20c1.8,0,3.4,0.3,4.9,0.9c2.1-2.7,5.4-4.6,9.9-4.6c0.9,0,1.7,0.1,2.4,0.2c1.4-1.3,3.3-2.2,5.5-2.7
			c2-1.8,4.6-2.9,7.2-3.2c2.3-2,5.3-3.1,8.4-3.1c3.4,0,6.8,1.4,9.2,3.8c0.9,0.9,1.7,2,2.3,3.1c0.8,1.2,1.4,2.5,1.8,3.9
			c0.2,0.8,0.4,1.6,0.4,2.5c0.1,0.3,0.2,0.5,0.3,0.8c0.6,1.8,0.9,3.8,1,5.7C587.2,590.3,586.9,591.7,586.5,593.1z"/>
		<polygon fill="#FFE400" points="324.5,599.7 341.8,598.4 340.8,623.4 324.5,623.4 		"/>
		<polygon fill="#FFE400" points="406.5,634.6 409.1,611.9 419.5,611.9 419.1,633.7 		"/>
		<polygon fill="#FFE400" points="338.1,718 340.1,695.4 352.7,695.4 351.8,718 		"/>
		<polygon fill="#FFE400" points="266.8,634.7 254.5,636.3 252.5,613.4 264.8,611.7 		"/>
		<path fill="#A7A9AC" d="M520.2,173.7c0.7,4.4,0.2,9.3-2.5,12.9c-2.6,3.3-6.8,4.9-11,5.3c-4.2,0.3-8.3-0.5-12.4-1.2
			c7-5.1,10.9-14.2,9.8-22.8s-7.1-16.4-15.2-19.7c7.4-0.4,14.9,2.1,20.6,6.8C515.2,159.6,519.1,166.4,520.2,173.7z"/>
		<path fill="#A7A9AC" d="M519.4,209.6c0.2,8,0.1,17-5.5,22.7c-3.9,3.9-9.6,5.4-15.1,5.8c-5.5,0.4-11.1-0.2-16.5,0.5
			c8.9-2.6,16.7-8.9,21-17.1c4.3-8.2,5.2-18.2,2.4-27c3.3-2.7,8.7-0.8,11,2.8C519.1,200.8,519.3,205.4,519.4,209.6z"/>
		<path fill="#A7A9AC" d="M551.9,303.6c0.1,3.5,0.3,7-0.6,10.3c-0.8,3.4-2.8,6.6-5.9,8.2c-4.5,2.3-10,0.5-14.7-1.5
			c-11.4-4.8-22.5-10.5-33.1-16.9c4.7-1.7,9.8-1.4,14.8-1.6s10.3-1.1,13.8-4.7c4.5-4.5,4.6-11.6,3.6-17.9
			c-2.5-15.7-10.9-30.5-23-40.8c9.9-4.3,22-0.4,29.5,7.3c7.6,7.7,11.3,18.4,13.2,29C551.1,284.4,551.5,294,551.9,303.6z"/>
		<g>
			<g>
				
					<ellipse transform="matrix(0.9973 -7.332525e-02 7.332525e-02 0.9973 -26.8353 21.2612)" fill="#FFFFFF" cx="276.1" cy="376.1" rx="31.5" ry="16.3"/>
			</g>
		</g>
		<g>
			<g>
				
					<ellipse transform="matrix(8.674189e-02 -0.9962 0.9962 8.674189e-02 -38.9233 720.4344)" fill="#FFFFFF" cx="373.5" cy="381.4" rx="16.3" ry="38.3"/>
			</g>
		</g>
		<g>
			
				<ellipse transform="matrix(2.991056e-02 -0.9996 0.9996 2.991056e-02 -125.8812 729.5229)" cx="312.9" cy="429.6" rx="25" ry="49.3"/>
			<path d="M277.5,394.8c4.1-0.3,7.9-1,11.4-1.9c13-3.5,21.7-11,21.1-19.3c-0.7-8.9-12-15.4-27.2-16.3c-2.6-0.1-5.3-0.1-8.1,0.1
				c-19,1.4-33.3,10.7-32.5,21.2C243,389.1,258.5,396.2,277.5,394.8z M305.1,374c0.3,4.1-3.9,8.7-11.2,11.9c1.5-3.2,2.2-6.7,2-10.3
				c-0.3-4.6-2.2-8.8-5.3-12.3C299.3,365.4,304.7,369.6,305.1,374z"/>
			<path d="M371.9,400.1c4.9,0.4,9.6,0.5,14,0.2c16.2-1.1,28-7,28.8-15.2c0.8-8.9-11.8-17.4-29.8-20.9c-3.1-0.6-6.4-1.1-9.8-1.4
				c-23.1-2-41.9,4.6-42.8,15.1C331.4,388.3,348.8,398.1,371.9,400.1z M408.6,384.5c-0.4,4.1-6.2,7.9-15.5,9.8
				c2.4-2.9,3.8-6.2,4.2-9.8c0.4-4.6-1.2-9.1-4.2-13C403.2,375,409,380.1,408.6,384.5z"/>
			<path d="M358.3,471.7c-0.3,0.4-0.7,0.8-1.1,1.2c-0.4,0.4-0.9,0.8-1.4,1.3c-0.5,0.4-1.1,0.9-1.7,1.4c-0.6,0.5-1.3,0.9-1.9,1.4
				c-1.4,0.9-2.9,1.8-4.7,2.6c-1.7,0.8-3.6,1.4-5.5,2c-2,0.5-4,0.8-6.1,1c-2.1,0.1-4.2,0-6.2-0.2c0.2,0,0,0,0.1,0l0,0l-0.1,0l-0.1,0
				l-0.2,0l-0.4-0.1l-0.8-0.1c-0.6-0.1-1-0.2-1.5-0.4c-0.9-0.2-1.9-0.6-2.8-0.9c-1.9-0.7-3.6-1.6-5.3-2.5c-1.6-1-3.1-2-4.3-3.2
				c-0.2-0.2-0.4-0.3-0.6-0.5c-1-1-2-1.9-2.8-2.9c-0.4-0.6-0.9-1.1-1.3-1.6c-0.4-0.5-0.7-1.1-1-1.5c-0.3-0.5-0.6-1-0.8-1.4
				c-0.2-0.4-0.4-0.8-0.6-1.2c-0.7,0.9-1.5,1.8-2.4,2.8c-0.5,0.6-1.1,1.1-1.7,1.6c-0.6,0.5-1.3,1.1-2,1.6c-0.8,0.6-1.6,1.1-2.4,1.7
				c-0.7,0.5-1.5,0.9-2.3,1.3c-0.8,0.5-1.8,0.9-2.7,1.3c-0.9,0.4-1.9,0.8-2.9,1.1c-0.5,0.2-1,0.3-1.5,0.5l-1.5,0.4
				c-0.5,0.1-1,0.2-1.5,0.3c-0.5,0.1-0.9,0.2-1.6,0.3l-1.7,0.2l-0.2,0l-0.1,0c0,0,0.2,0,0.1,0l0,0l-0.1,0l-0.4,0l-0.8,0
				c-0.5,0-1.1,0-1.6,0c-0.5,0-1.1,0-1.6-0.1c-2.1-0.1-4.1-0.5-6.1-1.1c-0.5-0.2-0.9-0.3-1.4-0.5c-0.4-0.2-0.9-0.4-1.3-0.6
				c-0.4-0.2-0.9-0.4-1.3-0.7l-0.7-0.4l-0.3-0.2l0,0c0,0,0,0,0,0l0,0l-0.1-0.1l-0.1-0.1c-0.7-0.5-1.5-1-2.1-1.7
				c-0.3-0.3-0.7-0.6-0.9-0.9c-0.3-0.3-0.6-0.6-0.8-1l-0.4-0.5c-0.1-0.2-0.2-0.3-0.3-0.5c-0.2-0.3-0.4-0.7-0.7-1
				c-0.4-0.6-0.7-1.3-1-1.9c-0.5-1.3-0.9-2.4-1.1-3.4c-0.3-1-0.2-1.8-0.3-2.3c0-0.5,0-0.8,0-0.8s0,0.3-0.1,0.8
				c0,0.5-0.2,1.3-0.1,2.4c0,1,0.2,2.3,0.6,3.7c0.2,0.7,0.4,1.5,0.8,2.2c0.2,0.4,0.4,0.8,0.5,1.1c0.1,0.2,0.2,0.4,0.3,0.6
				c0.1,0.2,0.2,0.4,0.4,0.6c0.2,0.4,0.5,0.8,0.7,1.2c0.3,0.4,0.6,0.8,0.9,1.2c0.6,0.8,1.3,1.5,2.1,2.3l0.1,0.1l0.1,0.1l0,0
				c0,0,0.1,0.1,0.1,0.1l0,0l0.3,0.2l0.6,0.5c0.4,0.3,0.8,0.7,1.3,1c0.5,0.3,1,0.6,1.5,1c0.5,0.3,1,0.5,1.5,0.8
				c2.1,1,4.4,1.9,6.8,2.4c0.6,0.2,1.2,0.2,1.8,0.4c0.6,0.1,1.2,0.2,1.8,0.3l0.9,0.1l0.5,0.1l0.1,0l0,0c-0.1,0,0.1,0,0.1,0l0.1,0
				l0.2,0l1.7,0.1c0.5,0.1,1.3,0,1.9,0c0.7,0,1.3,0,1.9-0.1l1.9-0.2c0.6-0.1,1.2-0.2,1.9-0.3c1.2-0.2,2.4-0.5,3.6-0.7
				c1.2-0.3,2.4-0.6,3.5-1c2-0.7,3.9-1.5,5.7-2.4c1.1,0.8,2.3,1.7,3.6,2.5c1.9,1.2,4,2.2,6.1,3.1c2.2,0.9,4.6,1.6,7,2
				c1.2,0.2,2.4,0.4,3.8,0.5c0.6,0.1,1.3,0.1,1.9,0.1l1.8,0c2.5-0.1,4.9-0.4,7.3-0.9c2.3-0.6,4.6-1.3,6.6-2.2c2-0.9,3.9-2,5.6-3.1
				c1.7-1.1,3.2-2.4,4.5-3.5c0.6-0.6,1.2-1.2,1.8-1.8c0.5-0.6,1-1.2,1.5-1.7c0.4-0.6,0.8-1.1,1.2-1.6c0.4-0.5,0.7-1,0.9-1.4
				c0.6-0.8,0.9-1.5,1.2-2c0.3-0.5,0.4-0.7,0.4-0.7s-0.2,0.2-0.5,0.6C359.5,470.3,359,471,358.3,471.7z"/>
			<polygon points="290.5,631.7 299.3,631.7 301.5,594 289.5,594 			"/>
			<path d="M609.5,551.9c-13.8-14.2-34.7-15.2-49.8-11.3c-9.8,2.5-20.5,8.8-30.3,15.4c0.6-5.4,0.7-10.8,0.3-16.2
				c0.1-0.8,0.1-1.7,0-2.6c-0.1-0.7-0.2-1.4-0.4-2c0-0.2,0-0.3,0-0.5l-0.1,0c-2.4-6.6-10.9-8.9-14.7-10c-11.1-3-22.5-4.5-34-4.5
				c5.5-28.5,19.3-55.8,40.6-79.5l5.5-6.1l-6.9-4.5c-1.4-0.9-2.8-1.8-4.2-2.6c-3.7-2.2-7.5-4.5-11.9-8.3
				c13.9-27.9,37-51.2,70.5-71.3l8.8-5.2l-8-6.3c-5.8-4.6-11.9-8.7-18.2-12.3c8.3-23,5.9-49.3-6.9-70.3c-5.9-9.8-14-18.1-23.3-24.6
				c1.9-6.4,2.7-13.2,2.1-19.9c-0.5-6.2-2.1-12.2-4.6-17.8c1.5-4,2.5-8,2.9-12c1.5-13.7-3.9-27.3-13.8-34.6
				c-4.9-3.6-11.2-6-18.7-7.1c-13.1-1.9-26.5,0.3-38.2,6.1c-18.3-5.7-35.2-8.8-51.3-9.5c-28.5-1.2-55.6,5.8-76.3,19.7
				c-12,8.1-21.9,18.5-28.9,30.1c-42.7,17.2-78.4,52.5-94.6,95.6c-7.1,2.4-14.1,5.2-20.7,8.2l-3.4,1.6l-0.6,3.7
				c-4.6,28.4,5,59.4,24.8,81.3c-14.9,11.1-25.3,29.1-27.7,49c-2.5,20.5,3,42.6,15.6,62c4.1,6.3,10.3,12.3,16.7,17.9
				c-4.2-0.2-8.4-0.2-12.6,0.1c-1.2,0.1-3.3,0.2-5.5,1.4c-3.1,1.7-4.5,4.9-4.9,7.3c-6.6,45.8-3.6,93.6,8.7,138.3
				c11.3,41,28.5,69.9,52.6,88.3c22.7,17.3,52.9,26.2,89.7,26.4c0.6,0,1.1,0,1.6,0c66.9,0,133.9-28.9,179.8-77.5
				c25.2-10.7,47.4-25.2,69.7-45.6c10.5-9.6,25-24.5,30.4-43.7C624.3,581.5,620.4,563.1,609.5,551.9z M511.1,537.3
				c1.8,0.5,3.1,0.9,4.1,1.3c-1.5,0.8-3.4,1.7-4.3,2.1c-10.7,4.8-21.8,8.9-33,12.4c-0.2-6.6,0-13.2,0.7-19.8
				C489.5,533.1,500.4,534.5,511.1,537.3z M290.9,203.8c3.8-2,7.7-3.8,11.6-5.5c0.4,0.2,0.9,0.5,1.3,0.7c0.5,0.2,1.1,0.5,1.6,0.8
				c1.1,0.5,2.3,1,3.5,1.4c1.3,0.4,2.5,0.8,3.9,1.1c1.3,0.3,2.7,0.5,4,0.7c1.4,0.1,2.7,0.3,4,0.3c1.3,0.1,2.6,0,3.8-0.1
				c1.2-0.1,2.4-0.2,3.5-0.5c1.1-0.2,2.1-0.4,3-0.7c0.5-0.1,0.9-0.2,1.3-0.4c0.4-0.1,0.8-0.3,1.2-0.4c0.7-0.2,1.3-0.5,1.8-0.7
				c1-0.4,1.6-0.7,1.6-0.7s-0.6,0-1.7,0.1c-0.5,0.1-1.2,0.1-1.9,0c-0.4,0-0.8,0-1.2,0c-0.4,0-0.8-0.1-1.3-0.1
				c-0.4,0-0.9-0.1-1.4-0.1c-0.5-0.1-1-0.2-1.5-0.2c-1-0.1-2-0.4-3.1-0.7c-1-0.3-2.1-0.6-3.2-1.1c-1.1-0.4-2.1-0.9-3.1-1.4
				c-1-0.6-2-1.1-2.8-1.7c-0.9-0.6-1.7-1.2-2.5-1.9c-0.6-0.5-1.1-1-1.6-1.4c3.1-5.1,6.9-10,11.2-14.4c4-4.1,8.4-7.8,13.3-11.1
				c18.2-12.2,42.3-18.4,67.9-17.3c11.7,0.5,23.9,2.4,36.9,5.7c5.4,1.4,10.9,3,16.5,4.9c6.1-3.8,13.1-6.4,20.3-7.4
				c4.8-0.7,9.6-0.7,14.3,0c5.2,0.8,9.4,2.3,12.4,4.5c5.4,4,8.5,11.4,8.3,19.3c0,0.8-0.1,1.6-0.2,2.5c-0.3,2.5-0.9,5-1.7,7.5
				c-0.3,0.2-0.7,0.3-1,0.5c-0.7,0.4-1.6,0.6-2.4,0.9c-0.9,0.3-1.8,0.7-2.7,0.9c-0.9,0.3-1.9,0.5-2.9,0.8c-1,0.2-2,0.4-2.9,0.6
				c-1,0.2-2,0.3-2.9,0.4c-1,0.1-1.9,0.3-2.8,0.3c-0.9,0-1.7,0.1-2.5,0.1c-0.4,0-0.8,0-1.1,0c-0.4,0-0.7,0-1-0.1
				c-0.6,0-1.2-0.1-1.7-0.1c-0.9-0.1-1.5-0.1-1.5-0.1s0.5,0.2,1.3,0.7c0.4,0.2,0.9,0.5,1.5,0.8c0.3,0.1,0.6,0.3,0.9,0.5
				c0.3,0.2,0.7,0.3,1.1,0.4c0.8,0.3,1.6,0.6,2.5,1c0.9,0.4,1.8,0.6,2.8,0.9c1,0.3,2,0.7,3.1,0.9c1.1,0.2,2.2,0.5,3.3,0.7
				c1.1,0.2,2.3,0.3,3.4,0.5c1.1,0.2,2.2,0.2,3.3,0.3c0.6,0,1.2,0.1,1.8,0.1c1.8,3.9,3.1,8,3.6,12.2c0.1,0.6,0.1,1.2,0.2,1.8
				c0.3,3.9,0,7.8-0.8,11.6c-0.3,1.6-0.8,3.2-1.3,4.8c-0.4,0.5-0.9,1-1.6,1.5c-0.8,0.6-1.9,1.3-3.1,1.9c-0.6,0.3-1.3,0.6-2,0.9
				l-0.5,0.2l-0.3,0.1l0,0c-0.1,0,0.2,0,0.1,0l0,0l-0.1,0l-0.2,0.1c-0.4,0.1-0.8,0.3-1.3,0.4c-1.7,0.5-3.5,1.2-5.2,1.6
				c-1.7,0.5-3.4,1-5.2,1.3c-0.9,0.2-1.8,0.4-2.7,0.6c-0.9,0.2-1.8,0.3-2.7,0.4c-0.9,0.1-1.8,0.3-2.7,0.4c-0.9,0.1-1.8,0.2-2.7,0.2
				c-0.9,0.1-1.7,0.1-2.6,0.2c-0.8,0.1-1.7,0.1-2.5,0.1c-1.6,0-3.2,0.1-4.6,0c-1.4-0.1-2.7-0.1-3.9-0.1c-1.2-0.1-2.2-0.2-3-0.3
				c-1.7-0.2-2.6-0.3-2.6-0.3s0.9,0.3,2.5,0.8c0.8,0.3,1.8,0.6,2.9,1c1.1,0.3,2.4,0.7,3.8,1c1.4,0.4,3,0.7,4.6,1
				c0.8,0.2,1.7,0.4,2.5,0.5c0.9,0.1,1.8,0.3,2.7,0.4c0.9,0.1,1.8,0.3,2.8,0.4c0.9,0.1,1.9,0.2,2.9,0.2c1,0.1,2,0.2,2.9,0.2
				c1,0,2,0,3,0.1c2,0.1,4,0,6.1-0.1c2.1-0.1,3.8-0.3,5.7-0.4c0.4,0,0.9-0.1,1.3-0.1c0.5-0.1,1-0.2,1.6-0.2c1-0.2,1.9-0.3,2.8-0.6
				c1.5-0.4,3-0.8,4.4-1.4c1.7,1.1,3.4,2.2,5,3.4c6.9,5.1,12.8,11.5,17.2,18.7c10,16.5,12.3,37.9,6.3,56.4
				c-23.2-11.3-49.2-18.4-77.4-25.5c-46.8-11.8-92.8-22.6-140-25.6c-38.6-2.5-73.5,0.3-104.3,8.3
				C236.5,244.6,261.3,219.4,290.9,203.8z M191.3,425.5c2.3-18.7,13.1-35.3,28.2-43.2l8.8-4.6l-7.3-6.7
				c-19.7-18-30.2-45.7-27.3-71.5c36.2-15.8,80.6-22.2,132.1-18.9c46,2.9,91.3,13.6,137.5,25.2c36,9,68.2,18.1,94.7,36
				c-33,21.4-55.7,46.5-69.3,76.4l-2,4.4l3.4,3.4c5.7,5.7,10.6,9.1,15,11.9c-29,35.1-43.5,77-41.1,119.3
				c-30.2,7.9-61.5,11.2-92.7,9.6c0.2-1.2,0.3-2.4,0.3-3.7c0-16.7-18.6-30.3-41.5-30.3c-20.1,0-36.8,10.5-40.7,24.3
				c-3.4-1-6.7-2-10-3.3c1.1-2.4,1.6-5,1.6-7.7c0-13.9-15.4-25.3-34.2-25.3c-0.2,0-0.4,0-0.6,0c-2.9-6.9-10.7-13.6-20.2-21.6
				c-7.9-6.6-16.8-14.1-21.2-21C194,461.5,189.2,442.8,191.3,425.5z M324.5,599.7l17.3-1.3l-1,25h-16.3V599.7z M330.1,584.3
				c-17.5,0-31.8-9.5-31.8-21.2s14.3-21.2,31.8-21.2c17.5,0,31.8,9.5,31.8,21.2S347.7,584.3,330.1,584.3z M246.9,529.7
				c13.5,0,24.9,7.5,24.9,16.4s-11.4,16.4-24.9,16.4S222,555,222,546.1S233.4,529.7,246.9,529.7z M227.4,519.1
				c1.7,1.6,3.2,3.1,4.2,4.4c-4.9,1.8-9.1,4.4-12.3,7.7c-2.4-1.6-4.9-2.9-7.4-4.2c-0.8-0.4-1.7-0.9-2.5-1.3
				c-2.8-1.5-6.2-3.5-7.8-6.3c-0.5-0.9-0.7-1.8-0.8-2.7C209.8,516.4,218.7,517.2,227.4,519.1z M606.9,595.2
				c-3.5,12.4-11.7,24-26.6,37.6c-21.6,19.7-44.3,34-68.7,44.1c-23.7,25.4-53.6,45.5-86.3,58.6l-10.1-0.8l6-9.7l10.7,0.3l9.3-15.7
				h-11.3l7-12.3l18.3,0.7l19.7-30.3l-6.2-1.1c4-5.9,7.5-13.8,9.7-22.7l-15.4,0.8l-2.3,7.7l-13.7,1.3l8-37.7l13.3-1.2l-2,10.9
				l14.7-1.7c0.3-17.7-5.4-31.4-14.8-33.2c-11.8-2.2-25,15.6-29.4,39.7c-2.3,12.6-1.8,24.4,0.9,33.1l-40.4,81.2
				c-6.8,1.8-13.7,3.3-20.6,4.5l5.6-18.6l12.3-1l9.7-17.3h-18.3l3.7-11.3h22.7l16-30h-23.7l4-21.7h6.3v16.3l15-3.7l4.7-76.7l-32,6.1
				l-15,79.2l-25.4,80.6c-7.5,0.8-15.1,1.2-22.6,1.2c-0.4,0-0.7,0-1.1,0l2.1-19.2h6.9l0.1,13l14-1l10.3-77.2l12-2.5l2-21.3l-15,3.3
				l10-62.3l-16.7,1.8l-7.2,76.1l-26.1,3.8l-8.4,84.8c-5-0.4-9.9-1-14.6-1.9c5.2-4.3,9-11.7,10.8-20.9l-14.8-1.3v8.3h-14.3l-7-38.3
				l17-1l1,11.8l18.7-0.9c-0.2-1.6-0.4-3.3-0.7-5c-4.4-24.4-19-42.4-33.2-41.5l-9.5-75.9l-34,5.1l-3.3,87.6h21.2v-25.7h7.2l3.1,19.8
				c-5.5,9.6-7.6,24.4-4.8,40.2c2,11.3,6.3,21.2,11.6,28.5c-7.6-3.3-14.6-7.4-20.7-12.1c-16.5-12.6-29.5-30.9-39.3-55.6l17.8-3.9
				l-2.7-22.7l-15.2,4.7v-66l-19,2.3c-1.5-18-1.5-36.1,0-54c1.9,1.4,3.9,2.6,5.7,3.5c0.9,0.5,1.8,0.9,2.7,1.4c2.6,1.3,5,2.5,7,4
				c-0.2,1.1-0.3,2.3-0.3,3.5c0,13.9,15.4,25.3,34.3,25.3c9.2,0,17.5-2.7,23.7-7c6.3,2.5,12.8,4.7,19.4,6.4
				c2.6,7.3,8.8,13.6,17.2,17.7l2.5,85.3h12.8l3-36.1c0,0,14-1,19.3-3c5.1-1.9,19.2-23.8,7.3-45.7c5.6-2.5,10.3-6,13.8-10.2l0,0.7
				c6.9,0.5,13.8,0.7,20.7,0.7c44.5,0,89-9.4,129.8-27.5c0.2-0.1,0.3-0.2,0.5-0.2c-0.4,4.4-1,8.8-2.1,13.1c-0.2,0.6-0.3,1.2-0.3,1.9
				l-0.9,11.8l3.3-0.7c1.5-0.3,2.9-0.9,4.1-1.8l0.6-0.4c12-8.3,28.5-19.7,41.5-23c14.5-3.7,29.1-0.7,37.2,7.7
				C607.9,568.9,610.5,582.3,606.9,595.2z M406.5,634.6l2.7-22.7h10.3l-0.3,21.8L406.5,634.6z M338.1,718l2-22.7h12.6l-0.9,22.7
				H338.1z M266.8,634.7l-12.3,1.6l-2-22.9l12.3-1.7L266.8,634.7z"/>
			<path d="M585.5,567.5c-6.3-4.7-14.8-5.1-25.9-1.3c-12.1,4.1-23.5,10.2-33.6,18l-32.1-1.2l-19,90.7c23.4,0,33.3-5.2,37.5-9.9
				c13.3-5.9,28.2-13,41.7-22.5c16.1-11.4,27.9-24.6,35.1-39.3c1.9-4,4.5-10,4.6-16.7C593.7,577.9,590.7,571.3,585.5,567.5z
				 M490.8,640.7l9.7-1l4.2-20.5l-5.2,0.2l3.2-11.7h8.2l-5.7,42h-17L490.8,640.7z M579.2,597.1c-6.3,13-17,24.9-31.5,35.2
				c-9.8,7-20.6,12.6-30.9,17.4l11.1-52.8c10.3-8.9,22.4-15.9,35.3-20.3c7.4-2.5,12.7-2.6,15.8-0.2c2.3,1.7,3.7,5,3.7,8.7
				C582.6,588.5,581.5,592.3,579.2,597.1z"/>
		</g>
		<path fill="#A7A9AC" d="M520.2,173.7c0.7,4.4,0.2,9.3-2.5,12.9c-2.6,3.3-6.8,4.9-11,5.3c-4.2,0.3-8.3-0.5-12.4-1.2
			c7-5.1,10.9-14.2,9.8-22.8s-7.1-16.4-15.2-19.7c7.4-0.4,14.9,2.1,20.6,6.8C515.2,159.6,519.1,166.4,520.2,173.7z"/>
		<path fill="#A7A9AC" d="M519.4,209.6c0.2,8,0.1,17-5.5,22.7c-3.9,3.9-9.6,5.4-15.1,5.8c-5.5,0.4-11.1-0.2-16.5,0.5
			c8.9-2.6,16.7-8.9,21-17.1c4.3-8.2,5.2-18.2,2.4-27c3.3-2.7,8.7-0.8,11,2.8C519.1,200.8,519.3,205.4,519.4,209.6z"/>
		<path fill="#A7A9AC" d="M551.9,303.6c0.1,3.5,0.3,7-0.6,10.3c-0.8,3.4-2.8,6.6-5.9,8.2c-4.5,2.3-10,0.5-14.7-1.5
			c-11.4-4.8-22.5-10.5-33.1-16.9c4.7-1.7,9.8-1.4,14.8-1.6s10.3-1.1,13.8-4.7c4.5-4.5,4.6-11.6,3.6-17.9
			c-2.5-15.7-10.9-30.5-23-40.8c9.9-4.3,22-0.4,29.5,7.3c7.6,7.7,11.3,18.4,13.2,29C551.1,284.4,551.5,294,551.9,303.6z"/>
		<g>
			<g>
				
					<ellipse transform="matrix(0.9973 -7.332525e-02 7.332525e-02 0.9973 -26.8353 21.2612)" fill="#FFFFFF" cx="276.1" cy="376.1" rx="31.5" ry="16.3"/>
			</g>
		</g>
		<g>
			<g>
				
					<ellipse transform="matrix(8.674189e-02 -0.9962 0.9962 8.674189e-02 -38.9233 720.4344)" fill="#FFFFFF" cx="373.5" cy="381.4" rx="16.3" ry="38.3"/>
			</g>
		</g>
		<g>
			
				<ellipse transform="matrix(2.991056e-02 -0.9996 0.9996 2.991056e-02 -125.8812 729.5229)" cx="312.9" cy="429.6" rx="25" ry="49.3"/>
			<path d="M277.5,394.8c4.1-0.3,7.9-1,11.4-1.9c13-3.5,21.7-11,21.1-19.3c-0.7-8.9-12-15.4-27.2-16.3c-2.6-0.1-5.3-0.1-8.1,0.1
				c-19,1.4-33.3,10.7-32.5,21.2C243,389.1,258.5,396.2,277.5,394.8z M305.1,374c0.3,4.1-3.9,8.7-11.2,11.9c1.5-3.2,2.2-6.7,2-10.3
				c-0.3-4.6-2.2-8.8-5.3-12.3C299.3,365.4,304.7,369.6,305.1,374z"/>
			<path d="M371.9,400.1c4.9,0.4,9.6,0.5,14,0.2c16.2-1.1,28-7,28.8-15.2c0.8-8.9-11.8-17.4-29.8-20.9c-3.1-0.6-6.4-1.1-9.8-1.4
				c-23.1-2-41.9,4.6-42.8,15.1C331.4,388.3,348.8,398.1,371.9,400.1z M408.6,384.5c-0.4,4.1-6.2,7.9-15.5,9.8
				c2.4-2.9,3.8-6.2,4.2-9.8c0.4-4.6-1.2-9.1-4.2-13C403.2,375,409,380.1,408.6,384.5z"/>
			<path d="M358.3,471.7c-0.3,0.4-0.7,0.8-1.1,1.2c-0.4,0.4-0.9,0.8-1.4,1.3c-0.5,0.4-1.1,0.9-1.7,1.4c-0.6,0.5-1.3,0.9-1.9,1.4
				c-1.4,0.9-2.9,1.8-4.7,2.6c-1.7,0.8-3.6,1.4-5.5,2c-2,0.5-4,0.8-6.1,1c-2.1,0.1-4.2,0-6.2-0.2c0.2,0,0,0,0.1,0l0,0l-0.1,0l-0.1,0
				l-0.2,0l-0.4-0.1l-0.8-0.1c-0.6-0.1-1-0.2-1.5-0.4c-0.9-0.2-1.9-0.6-2.8-0.9c-1.9-0.7-3.6-1.6-5.3-2.5c-1.6-1-3.1-2-4.3-3.2
				c-0.2-0.2-0.4-0.3-0.6-0.5c-1-1-2-1.9-2.8-2.9c-0.4-0.6-0.9-1.1-1.3-1.6c-0.4-0.5-0.7-1.1-1-1.5c-0.3-0.5-0.6-1-0.8-1.4
				c-0.2-0.4-0.4-0.8-0.6-1.2c-0.7,0.9-1.5,1.8-2.4,2.8c-0.5,0.6-1.1,1.1-1.7,1.6c-0.6,0.5-1.3,1.1-2,1.6c-0.8,0.6-1.6,1.1-2.4,1.7
				c-0.7,0.5-1.5,0.9-2.3,1.3c-0.8,0.5-1.8,0.9-2.7,1.3c-0.9,0.4-1.9,0.8-2.9,1.1c-0.5,0.2-1,0.3-1.5,0.5l-1.5,0.4
				c-0.5,0.1-1,0.2-1.5,0.3c-0.5,0.1-0.9,0.2-1.6,0.3l-1.7,0.2l-0.2,0l-0.1,0c0,0,0.2,0,0.1,0l0,0l-0.1,0l-0.4,0l-0.8,0
				c-0.5,0-1.1,0-1.6,0c-0.5,0-1.1,0-1.6-0.1c-2.1-0.1-4.1-0.5-6.1-1.1c-0.5-0.2-0.9-0.3-1.4-0.5c-0.4-0.2-0.9-0.4-1.3-0.6
				c-0.4-0.2-0.9-0.4-1.3-0.7l-0.7-0.4l-0.3-0.2l0,0c0,0,0,0,0,0l0,0l-0.1-0.1l-0.1-0.1c-0.7-0.5-1.5-1-2.1-1.7
				c-0.3-0.3-0.7-0.6-0.9-0.9c-0.3-0.3-0.6-0.6-0.8-1l-0.4-0.5c-0.1-0.2-0.2-0.3-0.3-0.5c-0.2-0.3-0.4-0.7-0.7-1
				c-0.4-0.6-0.7-1.3-1-1.9c-0.5-1.3-0.9-2.4-1.1-3.4c-0.3-1-0.2-1.8-0.3-2.3c0-0.5,0-0.8,0-0.8s0,0.3-0.1,0.8
				c0,0.5-0.2,1.3-0.1,2.4c0,1,0.2,2.3,0.6,3.7c0.2,0.7,0.4,1.5,0.8,2.2c0.2,0.4,0.4,0.8,0.5,1.1c0.1,0.2,0.2,0.4,0.3,0.6
				c0.1,0.2,0.2,0.4,0.4,0.6c0.2,0.4,0.5,0.8,0.7,1.2c0.3,0.4,0.6,0.8,0.9,1.2c0.6,0.8,1.3,1.5,2.1,2.3l0.1,0.1l0.1,0.1l0,0
				c0,0,0.1,0.1,0.1,0.1l0,0l0.3,0.2l0.6,0.5c0.4,0.3,0.8,0.7,1.3,1c0.5,0.3,1,0.6,1.5,1c0.5,0.3,1,0.5,1.5,0.8
				c2.1,1,4.4,1.9,6.8,2.4c0.6,0.2,1.2,0.2,1.8,0.4c0.6,0.1,1.2,0.2,1.8,0.3l0.9,0.1l0.5,0.1l0.1,0l0,0c-0.1,0,0.1,0,0.1,0l0.1,0
				l0.2,0l1.7,0.1c0.5,0.1,1.3,0,1.9,0c0.7,0,1.3,0,1.9-0.1l1.9-0.2c0.6-0.1,1.2-0.2,1.9-0.3c1.2-0.2,2.4-0.5,3.6-0.7
				c1.2-0.3,2.4-0.6,3.5-1c2-0.7,3.9-1.5,5.7-2.4c1.1,0.8,2.3,1.7,3.6,2.5c1.9,1.2,4,2.2,6.1,3.1c2.2,0.9,4.6,1.6,7,2
				c1.2,0.2,2.4,0.4,3.8,0.5c0.6,0.1,1.3,0.1,1.9,0.1l1.8,0c2.5-0.1,4.9-0.4,7.3-0.9c2.3-0.6,4.6-1.3,6.6-2.2c2-0.9,3.9-2,5.6-3.1
				c1.7-1.1,3.2-2.4,4.5-3.5c0.6-0.6,1.2-1.2,1.8-1.8c0.5-0.6,1-1.2,1.5-1.7c0.4-0.6,0.8-1.1,1.2-1.6c0.4-0.5,0.7-1,0.9-1.4
				c0.6-0.8,0.9-1.5,1.2-2c0.3-0.5,0.4-0.7,0.4-0.7s-0.2,0.2-0.5,0.6C359.5,470.3,359,471,358.3,471.7z"/>
			<polygon points="290.5,631.7 299.3,631.7 301.5,594 289.5,594 			"/>
			<path d="M609.5,551.9c-13.8-14.2-34.7-15.2-49.8-11.3c-9.8,2.5-20.5,8.8-30.3,15.4c0.6-5.4,0.7-10.8,0.3-16.2
				c0.1-0.8,0.1-1.7,0-2.6c-0.1-0.7-0.2-1.4-0.4-2c0-0.2,0-0.3,0-0.5l-0.1,0c-2.4-6.6-10.9-8.9-14.7-10c-11.1-3-22.5-4.5-34-4.5
				c5.5-28.5,19.3-55.8,40.6-79.5l5.5-6.1l-6.9-4.5c-1.4-0.9-2.8-1.8-4.2-2.6c-3.7-2.2-7.5-4.5-11.9-8.3
				c13.9-27.9,37-51.2,70.5-71.3l8.8-5.2l-8-6.3c-5.8-4.6-11.9-8.7-18.2-12.3c8.3-23,5.9-49.3-6.9-70.3c-5.9-9.8-14-18.1-23.3-24.6
				c1.9-6.4,2.7-13.2,2.1-19.9c-0.5-6.2-2.1-12.2-4.6-17.8c1.5-4,2.5-8,2.9-12c1.5-13.7-3.9-27.3-13.8-34.6
				c-4.9-3.6-11.2-6-18.7-7.1c-13.1-1.9-26.5,0.3-38.2,6.1c-18.3-5.7-35.2-8.8-51.3-9.5c-28.5-1.2-55.6,5.8-76.3,19.7
				c-12,8.1-21.9,18.5-28.9,30.1c-42.7,17.2-78.4,52.5-94.6,95.6c-7.1,2.4-14.1,5.2-20.7,8.2l-3.4,1.6l-0.6,3.7
				c-4.6,28.4,5,59.4,24.8,81.3c-14.9,11.1-25.3,29.1-27.7,49c-2.5,20.5,3,42.6,15.6,62c4.1,6.3,10.3,12.3,16.7,17.9
				c-4.2-0.2-8.4-0.2-12.6,0.1c-1.2,0.1-3.3,0.2-5.5,1.4c-3.1,1.7-4.5,4.9-4.9,7.3c-6.6,45.8-3.6,93.6,8.7,138.3
				c11.3,41,28.5,69.9,52.6,88.3c22.7,17.3,52.9,26.2,89.7,26.4c0.6,0,1.1,0,1.6,0c66.9,0,133.9-28.9,179.8-77.5
				c25.2-10.7,47.4-25.2,69.7-45.6c10.5-9.6,25-24.5,30.4-43.7C624.3,581.5,620.4,563.1,609.5,551.9z M511.1,537.3
				c1.8,0.5,3.1,0.9,4.1,1.3c-1.5,0.8-3.4,1.7-4.3,2.1c-10.7,4.8-21.8,8.9-33,12.4c-0.2-6.6,0-13.2,0.7-19.8
				C489.5,533.1,500.4,534.5,511.1,537.3z M290.9,203.8c3.8-2,7.7-3.8,11.6-5.5c0.4,0.2,0.9,0.5,1.3,0.7c0.5,0.2,1.1,0.5,1.6,0.8
				c1.1,0.5,2.3,1,3.5,1.4c1.3,0.4,2.5,0.8,3.9,1.1c1.3,0.3,2.7,0.5,4,0.7c1.4,0.1,2.7,0.3,4,0.3c1.3,0.1,2.6,0,3.8-0.1
				c1.2-0.1,2.4-0.2,3.5-0.5c1.1-0.2,2.1-0.4,3-0.7c0.5-0.1,0.9-0.2,1.3-0.4c0.4-0.1,0.8-0.3,1.2-0.4c0.7-0.2,1.3-0.5,1.8-0.7
				c1-0.4,1.6-0.7,1.6-0.7s-0.6,0-1.7,0.1c-0.5,0.1-1.2,0.1-1.9,0c-0.4,0-0.8,0-1.2,0c-0.4,0-0.8-0.1-1.3-0.1
				c-0.4,0-0.9-0.1-1.4-0.1c-0.5-0.1-1-0.2-1.5-0.2c-1-0.1-2-0.4-3.1-0.7c-1-0.3-2.1-0.6-3.2-1.1c-1.1-0.4-2.1-0.9-3.1-1.4
				c-1-0.6-2-1.1-2.8-1.7c-0.9-0.6-1.7-1.2-2.5-1.9c-0.6-0.5-1.1-1-1.6-1.4c3.1-5.1,6.9-10,11.2-14.4c4-4.1,8.4-7.8,13.3-11.1
				c18.2-12.2,42.3-18.4,67.9-17.3c11.7,0.5,23.9,2.4,36.9,5.7c5.4,1.4,10.9,3,16.5,4.9c6.1-3.8,13.1-6.4,20.3-7.4
				c4.8-0.7,9.6-0.7,14.3,0c5.2,0.8,9.4,2.3,12.4,4.5c5.4,4,8.5,11.4,8.3,19.3c0,0.8-0.1,1.6-0.2,2.5c-0.3,2.5-0.9,5-1.7,7.5
				c-0.3,0.2-0.7,0.3-1,0.5c-0.7,0.4-1.6,0.6-2.4,0.9c-0.9,0.3-1.8,0.7-2.7,0.9c-0.9,0.3-1.9,0.5-2.9,0.8c-1,0.2-2,0.4-2.9,0.6
				c-1,0.2-2,0.3-2.9,0.4c-1,0.1-1.9,0.3-2.8,0.3c-0.9,0-1.7,0.1-2.5,0.1c-0.4,0-0.8,0-1.1,0c-0.4,0-0.7,0-1-0.1
				c-0.6,0-1.2-0.1-1.7-0.1c-0.9-0.1-1.5-0.1-1.5-0.1s0.5,0.2,1.3,0.7c0.4,0.2,0.9,0.5,1.5,0.8c0.3,0.1,0.6,0.3,0.9,0.5
				c0.3,0.2,0.7,0.3,1.1,0.4c0.8,0.3,1.6,0.6,2.5,1c0.9,0.4,1.8,0.6,2.8,0.9c1,0.3,2,0.7,3.1,0.9c1.1,0.2,2.2,0.5,3.3,0.7
				c1.1,0.2,2.3,0.3,3.4,0.5c1.1,0.2,2.2,0.2,3.3,0.3c0.6,0,1.2,0.1,1.8,0.1c1.8,3.9,3.1,8,3.6,12.2c0.1,0.6,0.1,1.2,0.2,1.8
				c0.3,3.9,0,7.8-0.8,11.6c-0.3,1.6-0.8,3.2-1.3,4.8c-0.4,0.5-0.9,1-1.6,1.5c-0.8,0.6-1.9,1.3-3.1,1.9c-0.6,0.3-1.3,0.6-2,0.9
				l-0.5,0.2l-0.3,0.1l0,0c-0.1,0,0.2,0,0.1,0l0,0l-0.1,0l-0.2,0.1c-0.4,0.1-0.8,0.3-1.3,0.4c-1.7,0.5-3.5,1.2-5.2,1.6
				c-1.7,0.5-3.4,1-5.2,1.3c-0.9,0.2-1.8,0.4-2.7,0.6c-0.9,0.2-1.8,0.3-2.7,0.4c-0.9,0.1-1.8,0.3-2.7,0.4c-0.9,0.1-1.8,0.2-2.7,0.2
				c-0.9,0.1-1.7,0.1-2.6,0.2c-0.8,0.1-1.7,0.1-2.5,0.1c-1.6,0-3.2,0.1-4.6,0c-1.4-0.1-2.7-0.1-3.9-0.1c-1.2-0.1-2.2-0.2-3-0.3
				c-1.7-0.2-2.6-0.3-2.6-0.3s0.9,0.3,2.5,0.8c0.8,0.3,1.8,0.6,2.9,1c1.1,0.3,2.4,0.7,3.8,1c1.4,0.4,3,0.7,4.6,1
				c0.8,0.2,1.7,0.4,2.5,0.5c0.9,0.1,1.8,0.3,2.7,0.4c0.9,0.1,1.8,0.3,2.8,0.4c0.9,0.1,1.9,0.2,2.9,0.2c1,0.1,2,0.2,2.9,0.2
				c1,0,2,0,3,0.1c2,0.1,4,0,6.1-0.1c2.1-0.1,3.8-0.3,5.7-0.4c0.4,0,0.9-0.1,1.3-0.1c0.5-0.1,1-0.2,1.6-0.2c1-0.2,1.9-0.3,2.8-0.6
				c1.5-0.4,3-0.8,4.4-1.4c1.7,1.1,3.4,2.2,5,3.4c6.9,5.1,12.8,11.5,17.2,18.7c10,16.5,12.3,37.9,6.3,56.4
				c-23.2-11.3-49.2-18.4-77.4-25.5c-46.8-11.8-92.8-22.6-140-25.6c-38.6-2.5-73.5,0.3-104.3,8.3
				C236.5,244.6,261.3,219.4,290.9,203.8z M191.3,425.5c2.3-18.7,13.1-35.3,28.2-43.2l8.8-4.6l-7.3-6.7
				c-19.7-18-30.2-45.7-27.3-71.5c36.2-15.8,80.6-22.2,132.1-18.9c46,2.9,91.3,13.6,137.5,25.2c36,9,68.2,18.1,94.7,36
				c-33,21.4-55.7,46.5-69.3,76.4l-2,4.4l3.4,3.4c5.7,5.7,10.6,9.1,15,11.9c-29,35.1-43.5,77-41.1,119.3
				c-30.2,7.9-61.5,11.2-92.7,9.6c0.2-1.2,0.3-2.4,0.3-3.7c0-16.7-18.6-30.3-41.5-30.3c-20.1,0-36.8,10.5-40.7,24.3
				c-3.4-1-6.7-2-10-3.3c1.1-2.4,1.6-5,1.6-7.7c0-13.9-15.4-25.3-34.2-25.3c-0.2,0-0.4,0-0.6,0c-2.9-6.9-10.7-13.6-20.2-21.6
				c-7.9-6.6-16.8-14.1-21.2-21C194,461.5,189.2,442.8,191.3,425.5z M324.5,599.7l17.3-1.3l-1,25h-16.3V599.7z M330.1,584.3
				c-17.5,0-31.8-9.5-31.8-21.2s14.3-21.2,31.8-21.2c17.5,0,31.8,9.5,31.8,21.2S347.7,584.3,330.1,584.3z M246.9,529.7
				c13.5,0,24.9,7.5,24.9,16.4s-11.4,16.4-24.9,16.4S222,555,222,546.1S233.4,529.7,246.9,529.7z M227.4,519.1
				c1.7,1.6,3.2,3.1,4.2,4.4c-4.9,1.8-9.1,4.4-12.3,7.7c-2.4-1.6-4.9-2.9-7.4-4.2c-0.8-0.4-1.7-0.9-2.5-1.3
				c-2.8-1.5-6.2-3.5-7.8-6.3c-0.5-0.9-0.7-1.8-0.8-2.7C209.8,516.4,218.7,517.2,227.4,519.1z M606.9,595.2
				c-3.5,12.4-11.7,24-26.6,37.6c-21.6,19.7-44.3,34-68.7,44.1c-23.7,25.4-53.6,45.5-86.3,58.6l-10.1-0.8l6-9.7l10.7,0.3l9.3-15.7
				h-11.3l7-12.3l18.3,0.7l19.7-30.3l-6.2-1.1c4-5.9,7.5-13.8,9.7-22.7l-15.4,0.8l-2.3,7.7l-13.7,1.3l8-37.7l13.3-1.2l-2,10.9
				l14.7-1.7c0.3-17.7-5.4-31.4-14.8-33.2c-11.8-2.2-25,15.6-29.4,39.7c-2.3,12.6-1.8,24.4,0.9,33.1l-40.4,81.2
				c-6.8,1.8-13.7,3.3-20.6,4.5l5.6-18.6l12.3-1l9.7-17.3h-18.3l3.7-11.3h22.7l16-30h-23.7l4-21.7h6.3v16.3l15-3.7l4.7-76.7l-32,6.1
				l-15,79.2l-25.4,80.6c-7.5,0.8-15.1,1.2-22.6,1.2c-0.4,0-0.7,0-1.1,0l2.1-19.2h6.9l0.1,13l14-1l10.3-77.2l12-2.5l2-21.3l-15,3.3
				l10-62.3l-16.7,1.8l-7.2,76.1l-26.1,3.8l-8.4,84.8c-5-0.4-9.9-1-14.6-1.9c5.2-4.3,9-11.7,10.8-20.9l-14.8-1.3v8.3h-14.3l-7-38.3
				l17-1l1,11.8l18.7-0.9c-0.2-1.6-0.4-3.3-0.7-5c-4.4-24.4-19-42.4-33.2-41.5l-9.5-75.9l-34,5.1l-3.3,87.6h21.2v-25.7h7.2l3.1,19.8
				c-5.5,9.6-7.6,24.4-4.8,40.2c2,11.3,6.3,21.2,11.6,28.5c-7.6-3.3-14.6-7.4-20.7-12.1c-16.5-12.6-29.5-30.9-39.3-55.6l17.8-3.9
				l-2.7-22.7l-15.2,4.7v-66l-19,2.3c-1.5-18-1.5-36.1,0-54c1.9,1.4,3.9,2.6,5.7,3.5c0.9,0.5,1.8,0.9,2.7,1.4c2.6,1.3,5,2.5,7,4
				c-0.2,1.1-0.3,2.3-0.3,3.5c0,13.9,15.4,25.3,34.3,25.3c9.2,0,17.5-2.7,23.7-7c6.3,2.5,12.8,4.7,19.4,6.4
				c2.6,7.3,8.8,13.6,17.2,17.7l2.5,85.3h12.8l3-36.1c0,0,14-1,19.3-3c5.1-1.9,19.2-23.8,7.3-45.7c5.6-2.5,10.3-6,13.8-10.2l0,0.7
				c6.9,0.5,13.8,0.7,20.7,0.7c44.5,0,89-9.4,129.8-27.5c0.2-0.1,0.3-0.2,0.5-0.2c-0.4,4.4-1,8.8-2.1,13.1c-0.2,0.6-0.3,1.2-0.3,1.9
				l-0.9,11.8l3.3-0.7c1.5-0.3,2.9-0.9,4.1-1.8l0.6-0.4c12-8.3,28.5-19.7,41.5-23c14.5-3.7,29.1-0.7,37.2,7.7
				C607.9,568.9,610.5,582.3,606.9,595.2z M406.5,634.6l2.7-22.7h10.3l-0.3,21.8L406.5,634.6z M338.1,718l2-22.7h12.6l-0.9,22.7
				H338.1z M266.8,634.7l-12.3,1.6l-2-22.9l12.3-1.7L266.8,634.7z"/>
			<path d="M585.5,567.5c-6.3-4.7-14.8-5.1-25.9-1.3c-12.1,4.1-23.5,10.2-33.6,18l-32.1-1.2l-19,90.7c23.4,0,33.3-5.2,37.5-9.9
				c13.3-5.9,28.2-13,41.7-22.5c16.1-11.4,27.9-24.6,35.1-39.3c1.9-4,4.5-10,4.6-16.7C593.7,577.9,590.7,571.3,585.5,567.5z
				 M490.8,640.7l9.7-1l4.2-20.5l-5.2,0.2l3.2-11.7h8.2l-5.7,42h-17L490.8,640.7z M579.2,597.1c-6.3,13-17,24.9-31.5,35.2
				c-9.8,7-20.6,12.6-30.9,17.4l11.1-52.8c10.3-8.9,22.4-15.9,35.3-20.3c7.4-2.5,12.7-2.6,15.8-0.2c2.3,1.7,3.7,5,3.7,8.7
				C582.6,588.5,581.5,592.3,579.2,597.1z"/>
		</g>
	</g>
</g>
</svg>
