<?xml version="1.0" encoding="utf-8"?>
<!-- Generator: Adobe Illustrator 21.0.0, SVG Export Plug-In . SVG Version: 6.00 Build 0)  -->
<svg version="1.1" xmlns="http://www.w3.org/2000/svg" xmlns:xlink="http://www.w3.org/1999/xlink" x="0px" y="0px"
	 viewBox="0 0 595.3 841.9" enable-background="new 0 0 595.3 841.9" xml:space="preserve">
<g id="Réteg_3">
</g>
<g id="Layer_1" display="none">
	
		<circle display="inline" fill="#FFFFFF" stroke="#000000" stroke-width="4" stroke-miterlimit="10" cx="829.3" cy="608.6" r="143.8"/>
	<g display="inline">
		<g>
			<path fill-rule="evenodd" clip-rule="evenodd" d="M836.4,546c-7.2,0.1-12.4,1.9-16.9,4.6c-2.8-0.3-4.2-1.6-5.2-3.7
				c-21.9,11-31.9,60.8-1.3,68.7c-1,7.5,0.1,9.6,4.8,11.5c3.9,1.6,4.3-0.6,9,0.9c3.9,1.2,3.4,4.3,7.6,6c7.1,1.6,7-5.1,11.9-5.9
				c25.7,8.2,41.6-10.3,45.7-29.9c3.2,29.4-11.8,57.9-26.5,77.7c-8.3,11.2-13.6,21.1-33.2,18.9c-1.8-0.1-3.3-0.8-4-2.3
				c-1.6-3.5-1-9.6-1.2-13.9c-2.7,4-6.8,7.2-12.4,8c1.3,3,0.7,5.2-0.3,7.3c-5.3,6-28.2,9.8-28.7-3.3c-8.2-2.4-11.3-4.6-15.1-9
				c-1.5-1.7-1.6-4.6-1.8-7.8c-19.8-5.1-20.3-22.5-14-46.3c2.9-11,12-20,16-24.9c0,0-5.7-3.1-7.8-7c-0.2-0.3-5.2-2-7.4-4.4
				c-0.5-0.7-0.5-1.8,0.5-2.9c0.8-0.8,1.5-1.3,2.3-1.1c3.2,1.5,7,5.3,7,5.3c2.5,1,6.7,3.4,9.2,5.7c0.4-27.8,7.7-26.1,4.8-37
				c-8.9,0.3-15.3,0.8-16.9-5.8c5.2-0.8,9.7-2.3,15.2-2.8c-0.2-4.4-7.2-1.4-3.4-9.1c0.9-1.8-5.7-1.8-4.3-6.6
				c1.4-4.9,19.5-7.3,20.7-2.6c0.3,1.3-3.7,6.1-2.2,8.4c3.2,5-4,7.2-2,8.3c10.8,0.3,16.5-5.3,24.3-8c-5.8-14.6,2.3-24.3,19.5-21.7
				C837.8,523.9,841.9,538.8,836.4,546z M770.6,537.6c3.6,0.1,13.6-1.4,18.3-3.1C785.9,531.8,773.5,532.7,770.6,537.6z M770.9,538.5
				c0.5,2.2,4.3,2.8,4.6,4.4c0.3,1.7-1.7,2-1.5,3.8c0.3,2.1,3.2,2.2,4,3.2c0.9,1.1,0.4,2.7,0.4,2.7c1.9,0.3,4.1,0.2,6.1-0.5
				c0,0-0.2-1.2,0.2-2.5c0.5-1.6,3.5-2.3,3-4.6c-0.5-2.1-1.7-1.4-1.7-2.7c0-1,1.3-4.8,2.4-6.8C781,538.4,770.9,538.5,770.9,538.5z
				 M763.9,556.3c0.5,2.4,2.3,3.3,7,3.4c6.9,0.1,17.8-1.2,24.3-3.1c3.6-1,4.4-3.5,3.9-4.7C781.9,553.2,777.8,554,763.9,556.3z
				 M781.6,582.7c0.4,3.5,3.2,7.7,3.9,11.7c0.5,3.1-0.4,8.2,0,10.6c0.4,2.5,6.1,1.8,5.6-0.5c-0.9-5.5-3-7.2-2.9-11
				c0-3.8,0.8-8.2,0.4-11.3c-0.8-7.1-4.1-6.8-4.3-22.4c-0.9,0-3,0.4-4,0.4C783.8,570.4,780.8,575.3,781.6,582.7z M762,594.1l1.2-1.8
				c-1.6-1.2-4.9-4-4.9-4c-0.7-0.1-2.7,1-2.3,2.7C757.5,592.1,760.5,593.1,762,594.1z M773.3,599c0,0-6.2-4-7.7-4.7
				c0,0-1.5-0.4-1,1.1c1.4,1.5,4.7,3.7,7.4,5.2C772,600.6,774.1,600.6,773.3,599z M783.1,606.9c1.6-2.5-7.3-8-9.1-6.1
				C771.8,602.4,782.3,609.9,783.1,606.9z M784.6,607.9c-2.7,1.9-0.1,4.2-3.1,7.7c-0.9,1,0,2.7,0.3,4c4.4-1.8,12-2,15.8-1.8
				c1.1,0.1,0.1-2.9,0.1-2.9c-5.1-4-1.8-4.2-3.8-7.3C790.6,607,787.4,607.4,784.6,607.9z M782.8,620.5c2.7,3.8,2.2,12.8,2.2,12.8
				c4.2,2.6,5.2,9.7,1,14.2c-3.3,3.5,0.3,10.3,5.5,13.6c5.4,3.5,2.3,6.6,2.3,6.6c-5.1,4.9-14.8,7-22.1,6.2c1,9.8,8,11.1,16.2,13.7
				c-0.5,2.2-0.1,5.4,1.8,7.2c6,4.1,19.4,1.7,22.7-2.8c0,0,1.9-2.9-1.5-6.9c8.6-2.3,15.1-6.3,15.7-15.8c1-15.6-33.6-20.6-28.9-31.9
				c2.6-6.2-2.3-10.5-0.5-18.3C790.5,618.5,788.8,618.6,782.8,620.5z M833.2,635.1c-5.6-3.1-9.8-4.4-15.5-5
				C816.2,636.9,830.2,641.3,833.2,635.1z M828.7,670.3c2-7.2,4.7-9.8,5.9-17.7c0-3.3-1.7-6-4.8-7.5c-6.5-3.2-15.5-4.9-23.6-4.6
				c-2.1,0.1-7.9-0.7-4.3,3.6C813.3,653.8,826.9,652.7,828.7,670.3z"/>
			<path fill-rule="evenodd" clip-rule="evenodd" d="M884.3,573.5c-0.6-8.1-5.9-12.2-11.6-15.6c1.6-10.6,9.8-15.8,19.4-13.6
				C909,548,908.8,577.9,884.3,573.5z"/>
			<path fill-rule="evenodd" clip-rule="evenodd" d="M826.8,577.3c5.9,3,5.9,13.8,2.4,15.5c-8,3.9-8.8,8.2-12.6,9.1
				c-4.7,1.1-9.8-2.7-10.2-7.2C805.8,587.4,814.6,571.1,826.8,577.3z"/>
			<path fill-rule="evenodd" clip-rule="evenodd" d="M858.9,589.8c16.5-3.1,15.3,30,0,28.4c-3-0.3-4.7-1.9-6.8-6
				c-1.1-2.2-0.2-7.2-2-9.4C848.5,600.8,847.8,591.9,858.9,589.8z"/>
			<path fill-rule="evenodd" clip-rule="evenodd" d="M840.2,622.2c0.7,0.9-0.6,2.7-1.4,2.7c-7.9-0.1-10.6,1.9-11.7,1.5
				c-1.8-0.7,0-3.4-6.1-8.2c-1.3-1-0.8-3.3,0.5-3.3C827.4,614.7,836.4,617,840.2,622.2z"/>
		</g>
		<circle fill-rule="evenodd" clip-rule="evenodd" fill="none" cx="830.6" cy="607.6" r="119"/>
		<text transform="matrix(0.2963 -0.9551 0.9551 0.2963 713.3325 583.7676)"><tspan x="0" y="0" font-family="'TimesNewRomanPS-BoldMT'" font-size="24px">W</tspan><tspan x="23.4" y="0.2" font-family="'TimesNewRomanPS-BoldMT'" font-size="24px" rotate="9.7">A</tspan><tspan x="39.9" y="3.1" font-family="'TimesNewRomanPS-BoldMT'" font-size="24px" rotate="17.5">T</tspan><tspan x="54.7" y="7.7" font-family="'TimesNewRomanPS-BoldMT'" font-size="24px" rotate="24.9">E</tspan><tspan x="68.8" y="14.1" font-family="'TimesNewRomanPS-BoldMT'" font-size="24px" rotate="32.6">R</tspan><tspan x="83" y="23.2" font-family="'TimesNewRomanPS-BoldMT'" font-size="24px" rotate="40">P</tspan><tspan x="93.9" y="32.5" font-family="'TimesNewRomanPS-BoldMT'" font-size="24px" rotate="45.6">I</tspan><tspan x="100.2" y="38.8" font-family="'TimesNewRomanPS-BoldMT'" font-size="24px" rotate="51.2">P</tspan><tspan x="109.2" y="49.8" font-family="'TimesNewRomanPS-BoldMT'" font-size="24px" rotate="58.4">E</tspan><tspan x="117.2" y="63.3" font-family="'TimesNewRomanPS-BoldMT'" font-size="24px" rotate="63.6"> </tspan><tspan x="119.9" y="68.2" font-family="'TimesNewRomanPS-BoldMT'" font-size="24px" rotate="68.7">T</tspan><tspan x="125.6" y="82.6" font-family="'TimesNewRomanPS-BoldMT'" font-size="24px" rotate="76.7">O</tspan><tspan x="129.8" y="100.3" font-family="'TimesNewRomanPS-BoldMT'" font-size="24px" rotate="84.7">B</tspan><tspan x="131.3" y="115.7" font-family="'TimesNewRomanPS-BoldMT'" font-size="24px" rotate="92.5">A</tspan><tspan x="130.6" y="132.5" font-family="'TimesNewRomanPS-BoldMT'" font-size="24px" rotate="100.7">C</tspan><tspan x="127.5" y="149" font-family="'TimesNewRomanPS-BoldMT'" font-size="24px" rotate="108.7">C</tspan><tspan x="122.2" y="164.9" font-family="'TimesNewRomanPS-BoldMT'" font-size="24px" rotate="117.1">O</tspan><tspan x="113.6" y="181" font-family="'TimesNewRomanPS-BoldMT'" font-size="24px" rotate="122.8"> </tspan></text>
		<circle fill-rule="evenodd" clip-rule="evenodd" fill="none" cx="830.6" cy="608.5" r="133.5"/>
		<text transform="matrix(0.9708 0.2399 -0.2399 0.9708 779.5012 733.4474)"><tspan x="0" y="0" font-family="'TimesNewRomanPS-BoldMT'" font-size="39px">W</tspan><tspan x="43.5" y="-1.6" font-family="'TimesNewRomanPS-BoldMT'" font-size="39px" rotate="-15.8">T</tspan><tspan x="71.8" y="-10.1" font-family="'TimesNewRomanPS-BoldMT'" font-size="39px" rotate="-28">F</tspan></text>
	</g>
</g>
<g id="Layer_2">
	<g>
		<g>
			<g>
				<path d="M305.8,641.7c-59,0-114.4-23-156.1-64.7C108,535.3,85,479.9,85,420.9c0-59,23-114.4,64.7-156.1
					c41.7-41.7,97.1-64.7,156.1-64.7c59,0,114.4,23,156.1,64.7c41.7,41.7,64.7,97.1,64.7,156.1c0,59-23,114.4-64.7,156.1
					C420.2,618.7,364.7,641.7,305.8,641.7z M305.8,204.2C186.3,204.2,89,301.4,89,420.9c0,119.5,97.2,216.8,216.8,216.8
					c119.5,0,216.8-97.2,216.8-216.8C522.5,301.4,425.3,204.2,305.8,204.2z"/>
			</g>
		</g>
		<g>
			<g>
				<path fill-rule="evenodd" clip-rule="evenodd" d="M316.5,325.7c-10.9,0.1-18.9,2.9-25.7,7.1c-4.3-0.5-6.3-2.4-7.9-5.7
					c-33.4,16.7-48.6,92.5-1.9,104.5c-1.6,11.4,0.1,14.6,7.3,17.5c5.9,2.4,6.5-0.9,13.7,1.4c5.9,1.9,5.1,6.5,11.5,9.1
					c10.8,2.4,10.6-7.8,18-9c39.2,12.5,63.4-15.6,69.5-45.5c4.9,44.7-18,88.2-40.4,118.2c-12.7,17-20.7,32-50.5,28.8
					c-2.8-0.2-5-1.2-6.1-3.6c-2.4-5.3-1.5-14.5-1.8-21.2c-4.1,6-10.4,11-18.9,12.1c2,4.6,1,7.9-0.5,11.2c-8,9.2-42.9,14.9-43.7-5
					c-12.5-3.7-17.1-7-23-13.6c-2.2-2.5-2.5-7.1-2.7-11.8c-30.1-7.7-30.8-34.2-21.3-70.4c4.4-16.7,18.3-30.5,24.3-37.8
					c0,0-8.7-4.7-11.9-10.6c-0.2-0.4-7.9-3-11.3-6.7c-0.7-1.1-0.8-2.8,0.7-4.4c1.2-1.2,2.4-2,3.6-1.6c4.9,2.3,10.6,8,10.6,8
					c3.8,1.6,10.2,5.2,14,8.7c0.6-42.4,11.7-39.7,7.2-56.3c-13.6,0.4-23.3,1.1-25.7-8.8c7.9-1.3,14.7-3.5,23.1-4.3
					c-0.3-6.6-11-2.2-5.1-13.9c1.4-2.8-8.6-2.8-6.5-10c2.2-7.4,29.6-11.2,31.4-4c0.5,2-5.6,9.4-3.3,12.8c4.9,7.6-6.2,10.9-3,12.7
					c16.4,0.5,25.1-8.1,36.9-12.1c-8.9-22.3,3.4-37.1,29.7-33.1C318.6,292.1,324.9,314.7,316.5,325.7z M216.3,312.9
					c5.5,0.1,20.7-2.1,27.8-4.7C239.7,304.1,220.8,305.5,216.3,312.9z M216.8,314.3c0.8,3.4,6.6,4.3,7,6.7c0.4,2.5-2.6,3.1-2.3,5.8
					c0.4,3.2,4.8,3.3,6.1,4.8c1.4,1.7,0.6,4.1,0.6,4.1c2.9,0.4,6.2,0.3,9.3-0.8c0,0-0.3-1.9,0.2-3.7c0.7-2.5,5.4-3.4,4.5-7
					c-0.8-3.2-2.6-2.2-2.6-4.1c0-1.5,2-7.3,3.7-10.3C232.2,314.1,216.8,314.3,216.8,314.3z M206.2,341.4c0.8,3.6,3.5,5,10.7,5.1
					c10.5,0.2,27.1-1.8,36.9-4.7c5.4-1.6,6.7-5.3,6-7.1C233.6,336.6,227.3,337.9,206.2,341.4z M233.2,381.5
					c0.6,5.3,4.9,11.7,5.9,17.8c0.8,4.7-0.6,12.4,0,16.2c0.6,3.9,9.3,2.7,8.5-0.8c-1.3-8.4-4.5-11-4.5-16.8
					c0.1-5.7,1.2-12.4,0.6-17.1c-1.3-10.8-6.2-10.4-6.5-34.1c-1.4,0-4.6,0.6-6.1,0.6C236.5,362.8,232,370.3,233.2,381.5z
					 M203.2,398.8l1.9-2.7c-2.5-1.8-7.5-6.1-7.5-6.1c-1-0.1-4.2,1.6-3.5,4.2C196.5,395.8,201,397.4,203.2,398.8z M220.5,406.3
					c0,0-9.5-6-11.7-7.2c0,0-2.4-0.6-1.6,1.6c2.2,2.3,7.1,5.6,11.3,7.9C218.5,408.7,221.7,408.8,220.5,406.3z M235.4,418.4
					c2.5-3.8-11-12.2-13.9-9.3C218.3,411.5,234.1,423,235.4,418.4z M237.7,419.9c-4.1,2.9-0.2,6.4-4.7,11.7
					c-1.3,1.6,0.1,4.1,0.4,6.1c6.7-2.7,18.3-3,24.1-2.7c1.7,0.1,0.1-4.5,0.1-4.5c-7.7-6.1-2.8-6.4-5.8-11.1
					C246.9,418.6,241.9,419.2,237.7,419.9z M234.9,439c4.2,5.8,3.4,19.5,3.4,19.5c6.3,3.9,7.9,14.8,1.5,21.6
					c-5,5.4,0.5,15.6,8.3,20.7c8.2,5.4,3.5,10.1,3.5,10.1c-7.8,7.4-22.5,10.7-33.7,9.4c1.5,14.9,12.1,16.9,24.6,20.8
					c-0.7,3.3-0.1,8.2,2.8,10.9c9.1,6.2,29.5,2.6,34.6-4.3c0,0,2.9-4.4-2.3-10.5c13.2-3.5,22.9-9.6,23.9-24.1
					c1.6-23.7-51.1-31.3-43.9-48.6c3.9-9.4-3.4-15.9-0.8-27.8C246.6,436,244.1,436.1,234.9,439z M311.7,461.2
					c-8.5-4.7-14.9-6.7-23.6-7.7C285.8,464,307.1,470.7,311.7,461.2z M304.8,514.8c3-10.9,7.1-14.9,8.9-27c0-5.1-2.6-9.1-7.3-11.4
					c-9.9-4.8-23.6-7.4-36-7c-3.3,0.1-12-1.1-6.6,5.4C281.4,489.8,302,488.1,304.8,514.8z"/>
				<path fill-rule="evenodd" clip-rule="evenodd" d="M389.3,367.5c-1-12.4-8.9-18.5-17.7-23.8c2.5-16.1,14.9-24,29.5-20.8
					C427,328.7,426.6,374.2,389.3,367.5z"/>
				<path fill-rule="evenodd" clip-rule="evenodd" d="M301.9,373.4c9,4.6,8.9,21,3.7,23.6c-12.2,5.9-13.4,12.5-19.2,13.9
					c-7.2,1.7-14.9-4.1-15.4-11C270,388.6,283.3,363.8,301.9,373.4z"/>
				<path fill-rule="evenodd" clip-rule="evenodd" d="M350.7,392.3c25.1-4.7,23.2,45.7,0,43.2c-4.5-0.5-7.1-2.9-10.3-9.1
					c-1.7-3.3-0.3-11-3-14.3C335,409.1,333.8,395.5,350.7,392.3z"/>
				<path fill-rule="evenodd" clip-rule="evenodd" d="M322.3,441.6c1,1.4-1,4.2-2.1,4.1c-12-0.1-16.2,3-17.8,2.3
					c-2.7-1.1,0.1-5.1-9.3-12.4c-2-1.6-1.3-5,0.7-5.1C302.8,430.3,316.5,433.7,322.3,441.6z"/>
			</g>
			<g>
				<path d="M116.9,341.4l0.6,0.2c-0.1,0.4-0.1,0.8,0,1.2c0.1,0.4,0.3,0.7,0.7,1.1c0.1,0.1,0.9,0.7,2.3,1.9l16.8,13.2l-0.2,0.7
					l-16.7,1.1l12.9,10.9l-0.2,0.6l-21.2,1.7c-2.1,0.2-3.4,0.4-3.9,0.5c-0.5,0.2-0.9,0.6-1.2,1.3l-0.6-0.2l3.1-10l0.6,0.2
					c-0.2,0.8-0.3,1.4-0.1,1.7c0.1,0.3,0.4,0.6,0.7,0.7c0.4,0.1,1.4,0.1,3,0l12.6-1.1l-7.6-6.3l-2.7,0.2c-1.5,0.1-2.5,0.2-3.1,0.4
					c-0.5,0.1-1,0.4-1.3,0.7c-0.3,0.3-0.6,0.8-0.8,1.5l-0.6-0.2l3.5-11.2l0.6,0.2c-0.2,0.8-0.3,1.4-0.3,1.7c0,0.3,0.1,0.5,0.2,0.7
					c0.1,0.2,0.3,0.3,0.6,0.4c0.3,0.1,1.1,0.1,2.6,0l12.2-0.8l-8.7-6.8c-0.9-0.7-1.5-1.2-1.9-1.4c-0.3-0.2-0.7-0.4-1-0.5
					c-0.5-0.1-0.9-0.1-1.2,0.1c-0.4,0.2-0.7,0.8-1,1.7l-0.6-0.2L116.9,341.4z"/>
				<path d="M139,336.2l-3.7,7.7l1.7,1.9c0.6,0.6,1.1,1.1,1.5,1.3c0.6,0.3,1.2,0.3,1.7-0.1c0.3-0.2,0.8-0.9,1.4-2l0.6,0.3l-3.5,7.2
					l-0.6-0.3c0.3-0.8,0.2-1.6,0-2.4c-0.3-0.8-1.1-1.9-2.4-3.4l-13.6-16.2l0.1-0.3l21.6,0.7c2.1,0.1,3.4,0,4.1-0.3
					c0.5-0.2,0.9-0.6,1.3-1.3l0.6,0.3l-5.1,10.5l-0.6-0.3l0.2-0.4c0.4-0.8,0.6-1.5,0.5-2c-0.1-0.3-0.2-0.6-0.6-0.7
					c-0.2-0.1-0.4-0.2-0.6-0.2c-0.1,0-0.6-0.1-1.4-0.1L139,336.2z M137.6,336.2l-9.1-0.4l5.9,7L137.6,336.2z"/>
				<path d="M140.5,299.7l5.5,3.5l-0.3,0.5c-1.5-0.5-2.6-0.7-3.4-0.7c-0.8,0-1.6,0.3-2.4,0.8c-0.4,0.3-0.9,0.9-1.5,1.8l-1,1.5
					l15.7,10.1c1,0.7,1.7,1,2.1,1.1c0.3,0.1,0.7,0,1.1-0.2c0.4-0.2,0.8-0.6,1.2-1.2l0.4-0.7l0.6,0.4l-6.8,10.7l-0.6-0.4l0.4-0.7
					c0.4-0.6,0.6-1.1,0.6-1.6c0-0.3-0.1-0.7-0.3-1.1c-0.2-0.3-0.8-0.7-1.8-1.4l-15.7-10.1l-0.9,1.5c-0.9,1.4-1.2,2.6-1,3.5
					c0.3,1.4,1.1,2.7,2.4,3.9l-0.4,0.6l-5.5-3.5L140.5,299.7z"/>
				<path d="M150.1,290l7.5,6.3l0.3-0.4c1-1.2,1.3-2.3,1-3.5c-0.3-1.1-1.1-2.4-2.4-3.8l0.4-0.5l9.7,8.1l-0.4,0.5
					c-1.1-0.8-2.2-1.3-3.2-1.5c-1-0.2-1.8-0.2-2.4,0.1c-0.6,0.3-1.3,0.8-2,1.7l5.2,4.4c1,0.9,1.7,1.3,2,1.4c0.3,0.1,0.6,0.1,1,0
					c0.3-0.1,0.7-0.4,1.2-1l0.9-1.1c1.5-1.7,2.2-3.5,2.3-5.2c0.1-1.7-0.5-3.5-1.8-5.3l0.4-0.5l5.2,5.8l-13.5,16l-0.5-0.4l0.5-0.6
					c0.5-0.5,0.7-1,0.8-1.5c0.1-0.3,0-0.7-0.2-1.1c-0.1-0.3-0.7-0.8-1.6-1.6l-12.2-10.2c-0.8-0.7-1.4-1.1-1.6-1.2
					c-0.4-0.2-0.8-0.2-1.2-0.1c-0.5,0.1-1.1,0.5-1.6,1.1l-0.5,0.6l-0.5-0.4l13-15.5l5.5,4.6l-0.4,0.5c-1.6-0.9-2.8-1.3-3.8-1.3
					s-2,0.3-3,0.9c-0.6,0.4-1.5,1.3-2.7,2.7L150.1,290z"/>
				<path d="M176,279.4l4.6,5c0.9,1,1.5,1.5,1.8,1.7c0.3,0.1,0.7,0.2,1.2,0c0.4-0.1,1.1-0.6,1.9-1.3l0.4,0.5l-9.2,8.3l-0.4-0.5
					c0.8-0.8,1.3-1.3,1.5-1.8c0.2-0.4,0.2-0.8,0.1-1.2c-0.1-0.4-0.6-1-1.5-2l-10.5-11.6c-0.9-1-1.5-1.5-1.8-1.7
					c-0.3-0.1-0.7-0.2-1.2,0c-0.4,0.1-1.1,0.6-1.9,1.3l-0.4-0.5l8.3-7.5c2.2-2,3.9-3.3,5.2-3.9c1.3-0.6,2.6-0.8,4-0.6
					c1.4,0.2,2.5,0.9,3.5,2c1.2,1.3,1.7,2.8,1.5,4.6c-0.1,1.1-0.6,2.3-1.4,3.5l9.8,2.2c1.3,0.3,2.1,0.4,2.5,0.4
					c0.6-0.1,1.2-0.3,1.7-0.7l0.4,0.5l-5.6,5.1l-13.2-2.9L176,279.4z M168.1,270.6l7.1,7.8l0.8-0.7c1.2-1.1,2-2.1,2.4-2.8
					c0.4-0.8,0.5-1.6,0.3-2.5c-0.2-0.9-0.7-1.8-1.6-2.8c-1.2-1.4-2.5-2.1-3.7-2.2c-1.2-0.1-2.6,0.5-4,1.8L168.1,270.6z"/>
				<path d="M197.1,262.3l3.8,5.5c0.7,1.1,1.3,1.7,1.6,1.9c0.3,0.2,0.7,0.2,1.2,0.2c0.5-0.1,1.1-0.4,2-1l0.4,0.5l-10.1,7l-0.4-0.5
					c0.9-0.6,1.5-1.2,1.7-1.6c0.2-0.4,0.3-0.8,0.2-1.1c-0.1-0.4-0.5-1.1-1.2-2.2l-9-12.9c-0.7-1.1-1.3-1.7-1.6-1.9
					c-0.3-0.2-0.7-0.2-1.2-0.2c-0.4,0.1-1.1,0.4-2,1l-0.4-0.5l8.7-6c2.9-2,5.2-2.9,7.2-2.7c1.9,0.2,3.4,1,4.5,2.5
					c0.9,1.3,1.3,2.7,1.1,4.1c-0.2,1.5-0.8,2.9-2,4.2C200.9,259.5,199.4,260.8,197.1,262.3z M190.4,252.6l6,8.6
					c0.3-0.2,0.6-0.4,0.8-0.5c1.2-0.8,1.9-1.8,2-3c0.2-1.2-0.3-2.5-1.3-4c-1-1.5-2.1-2.3-3.2-2.6c-1.1-0.2-2.3,0.1-3.6,1
					L190.4,252.6z"/>
				<path d="M224.6,257.6l0.3,0.6l-11,6.2l-0.3-0.6l0.7-0.4c0.6-0.3,1-0.7,1.3-1.2c0.2-0.3,0.3-0.7,0.2-1.1c0-0.3-0.3-1-0.9-2.1
					l-7.8-13.9c-0.6-1.1-1-1.7-1.3-1.9c-0.3-0.2-0.6-0.3-1.1-0.3c-0.5,0-1,0.2-1.6,0.5l-0.7,0.4l-0.3-0.6l11-6.2l0.3,0.6l-0.7,0.4
					c-0.6,0.3-1,0.7-1.3,1.2c-0.2,0.3-0.3,0.7-0.2,1.1c0,0.3,0.3,1,0.9,2.1l7.8,13.9c0.6,1.1,1,1.7,1.3,1.9c0.3,0.2,0.6,0.3,1.1,0.3
					c0.5,0,1-0.2,1.6-0.5L224.6,257.6z"/>
				<path d="M229.7,243.9l2.7,6.1c0.5,1.2,0.9,1.9,1.2,2.2c0.3,0.2,0.7,0.4,1.1,0.4c0.5,0,1.2-0.2,2.2-0.6l0.3,0.6l-11.3,4.9
					l-0.3-0.6c1-0.4,1.7-0.8,2-1.2c0.3-0.3,0.4-0.7,0.4-1.1c0-0.4-0.2-1.2-0.8-2.4l-6.3-14.4c-0.5-1.2-0.9-1.9-1.2-2.2
					c-0.3-0.2-0.6-0.4-1.1-0.4c-0.5,0-1.2,0.2-2.2,0.6l-0.3-0.6l9.7-4.2c3.2-1.4,5.7-1.8,7.6-1.3c1.9,0.5,3.2,1.6,3.9,3.3
					c0.6,1.4,0.7,2.9,0.3,4.3c-0.4,1.4-1.4,2.6-2.8,3.7C233.9,241.8,232.2,242.8,229.7,243.9z M225,233l4.2,9.6
					c0.4-0.1,0.6-0.2,0.8-0.3c1.3-0.6,2.2-1.4,2.6-2.5c0.4-1.1,0.2-2.5-0.5-4.1c-0.7-1.6-1.6-2.7-2.7-3.1c-1.1-0.4-2.3-0.4-3.7,0.3
					L225,233z"/>
				<path d="M247.9,224.4l2.8,9.4l0.5-0.1c1.5-0.4,2.4-1.2,2.8-2.3c0.4-1.1,0.4-2.6,0.1-4.5l0.7-0.2l3.6,12.1l-0.7,0.2
					c-0.5-1.3-1.1-2.3-1.8-3c-0.7-0.7-1.4-1.1-2-1.3c-0.7-0.1-1.6,0-2.7,0.3l1.9,6.5c0.4,1.3,0.7,2,0.9,2.3c0.2,0.3,0.5,0.4,0.8,0.5
					c0.4,0.1,0.9,0,1.5-0.1l1.4-0.4c2.2-0.6,3.8-1.6,4.8-3c1-1.4,1.5-3.2,1.5-5.4l0.6-0.2l1.1,7.7l-20.1,5.9l-0.2-0.6l0.8-0.2
					c0.7-0.2,1.2-0.5,1.5-0.8c0.2-0.2,0.4-0.6,0.4-1c0-0.3-0.1-1-0.4-2.2l-4.5-15.3c-0.3-1-0.5-1.7-0.7-1.9
					c-0.2-0.4-0.5-0.6-0.9-0.7c-0.5-0.2-1.2-0.2-1.9,0l-0.8,0.2l-0.2-0.6l19.4-5.7l2,6.9l-0.6,0.2c-0.8-1.6-1.6-2.6-2.5-3.2
					c-0.8-0.6-1.8-0.8-3-0.9c-0.7,0-1.9,0.2-3.7,0.7L247.9,224.4z"/>
				<path d="M295.7,214.2l0.7,6.5l-0.6,0.1c-0.5-1.5-1.1-2.5-1.6-3.1c-0.5-0.6-1.2-1.1-2.1-1.4c-0.5-0.2-1.3-0.2-2.4-0.1l-1.8,0.2
					l2,18.5c0.1,1.2,0.3,2,0.5,2.3c0.2,0.3,0.5,0.5,0.9,0.7c0.4,0.2,1,0.2,1.7,0.2l0.8-0.1l0.1,0.7l-12.6,1.4l-0.1-0.7l0.8-0.1
					c0.7-0.1,1.2-0.3,1.6-0.6c0.3-0.2,0.5-0.5,0.6-0.9c0.1-0.3,0.1-1-0.1-2.3l-2-18.5l-1.7,0.2c-1.6,0.2-2.8,0.7-3.4,1.4
					c-0.9,1.1-1.4,2.5-1.5,4.3l-0.7,0.1l-0.7-6.5L295.7,214.2z"/>
				<path d="M313,213.9c3.9,0,7,1.2,9.3,3.6c2.3,2.5,3.5,5.5,3.4,9.1c-0.1,3.1-1,5.7-2.9,8c-2.5,3-5.9,4.5-10.2,4.4
					c-4.3-0.1-7.7-1.7-10-4.7c-1.8-2.4-2.7-5.2-2.6-8.4c0.1-3.6,1.4-6.5,3.9-8.9C306.4,214.7,309.4,213.6,313,213.9z M313.2,215
					c-2.2-0.1-3.9,1-5.1,3.3c-1,1.8-1.5,4.5-1.6,7.9c-0.1,4.1,0.5,7.2,1.9,9.2c1,1.4,2.4,2.1,4.2,2.2c1.2,0,2.3-0.2,3.1-0.8
					c1.1-0.7,1.9-1.9,2.5-3.6c0.6-1.7,1-3.8,1-6.5c0.1-3.2-0.2-5.6-0.7-7.2c-0.6-1.6-1.3-2.7-2.2-3.4
					C315.4,215.4,314.4,215,313.2,215z"/>
				<path d="M344,228.9c2.2,0.9,3.7,1.8,4.4,2.7c1.1,1.3,1.6,2.8,1.3,4.5c-0.3,1.8-1.3,3.2-2.9,4.1c-2,1.1-4.7,1.4-8.1,0.8l-12.1-2
					l0.1-0.7c1.1,0.2,1.9,0.2,2.3,0.1c0.4-0.1,0.7-0.4,1-0.7c0.2-0.3,0.4-1.1,0.6-2.4l2.6-15.5c0.2-1.3,0.3-2.1,0.2-2.5
					c-0.1-0.4-0.3-0.7-0.7-0.9c-0.4-0.3-1.1-0.5-2.2-0.7l0.1-0.7L342,217c2.7,0.5,4.6,1,5.7,1.7c1.1,0.7,1.8,1.6,2.3,2.6
					c0.5,1.1,0.6,2.2,0.5,3.3c-0.2,1.1-0.8,2.1-1.8,2.9C347.8,228.2,346.2,228.7,344,228.9z M337.4,228.7l-1.3,7.6l-0.2,0.9
					c-0.1,0.6,0,1.1,0.2,1.5c0.3,0.4,0.7,0.6,1.4,0.7c0.9,0.2,1.8,0.1,2.7-0.2c0.9-0.3,1.6-0.8,2.1-1.5c0.6-0.7,0.9-1.6,1.1-2.5
					c0.2-1.1,0.1-2.2-0.3-3.1c-0.4-1-1-1.7-1.8-2.2C340.6,229.4,339.2,229,337.4,228.7z M337.7,227.3c1.7,0.3,2.9,0.3,3.8,0.1
					c0.9-0.2,1.5-0.7,2.1-1.3c0.5-0.6,0.9-1.4,1.1-2.5c0.2-1.1,0.1-2-0.2-2.7c-0.3-0.7-0.8-1.4-1.5-1.8c-0.7-0.5-1.9-0.9-3.6-1.1
					L337.7,227.3z"/>
				<path d="M365.7,240.6l-8.2-2.5l-1.7,1.9c-0.6,0.6-0.9,1.2-1.1,1.7c-0.2,0.6-0.1,1.2,0.3,1.7c0.2,0.3,1,0.6,2.1,1.1l-0.2,0.6
					l-7.7-2.4l0.2-0.6c0.9,0.1,1.7,0,2.4-0.4c0.7-0.4,1.7-1.3,3.1-2.9l14-15.8l0.3,0.1l2.4,21.5c0.2,2,0.5,3.4,0.9,4
					c0.3,0.5,0.8,0.8,1.4,1.1l-0.2,0.6l-11.2-3.5l0.2-0.6l0.5,0.1c0.9,0.3,1.6,0.4,2,0.2c0.3-0.1,0.5-0.3,0.6-0.7
					c0.1-0.2,0.1-0.4,0.1-0.7c0-0.1,0-0.6-0.1-1.4L365.7,240.6z M365.5,239.1l-1-9l-6,6.8L365.5,239.1z"/>
				<path d="M406.2,238.3l-3.6,7.6l-0.6-0.3c0.5-2.2,0.3-4.1-0.5-5.8c-0.8-1.7-2-2.9-3.6-3.7c-1.4-0.6-2.8-0.9-4.3-0.6
					c-1.5,0.2-2.8,0.9-4,1.9c-1.4,1.3-2.6,2.9-3.6,4.9c-0.9,2-1.5,3.8-1.8,5.7c-0.3,1.8-0.1,3.4,0.6,4.7c0.7,1.3,1.8,2.4,3.5,3.2
					c1.4,0.7,2.8,1,4.2,0.9c1.4-0.1,3.1-0.5,5.1-1.4l-0.9,1.9c-1.8,0.7-3.5,1-5.1,1c-1.6-0.1-3.3-0.5-5.1-1.4
					c-2.3-1.1-4.2-2.6-5.5-4.4c-1.4-1.8-2.1-3.8-2.3-6c-0.1-2.2,0.2-4.3,1.2-6.3c1-2.1,2.5-3.8,4.5-5.1c2-1.3,4.1-2.1,6.5-2.2
					c2.3-0.1,4.6,0.3,6.6,1.3c1.5,0.7,3,1.8,4.4,3.3c0.8,0.9,1.3,1.3,1.6,1.5c0.3,0.2,0.7,0.2,1.1,0c0.4-0.1,0.7-0.5,1.1-1
					L406.2,238.3z"/>
				<path d="M430.6,254l-4.6,7l-0.6-0.4c0.8-2.1,0.9-4,0.3-5.8c-0.5-1.8-1.6-3.1-3.1-4.1c-1.3-0.8-2.7-1.2-4.2-1.2
					c-1.5,0-2.9,0.5-4.2,1.3c-1.6,1.1-3,2.5-4.2,4.4c-1.2,1.8-2.1,3.6-2.6,5.4c-0.5,1.8-0.6,3.4-0.1,4.8c0.5,1.4,1.5,2.6,3,3.6
					c1.3,0.8,2.6,1.3,4,1.5c1.4,0.1,3.2-0.1,5.2-0.7l-1.2,1.7c-1.9,0.4-3.7,0.5-5.2,0.2c-1.6-0.3-3.2-1-4.8-2
					c-2.1-1.4-3.8-3.1-4.9-5.1c-1.1-2-1.6-4.1-1.4-6.3c0.2-2.2,0.9-4.2,2.1-6.1c1.3-1.9,3-3.4,5.1-4.5c2.1-1.1,4.4-1.5,6.7-1.3
					c2.3,0.2,4.5,0.9,6.4,2.2c1.4,0.9,2.7,2.2,3.9,3.9c0.7,1,1.1,1.5,1.4,1.7c0.3,0.2,0.7,0.3,1.1,0.2c0.4-0.1,0.8-0.3,1.2-0.8
					L430.6,254z"/>
				<path d="M444.9,266.3c3,2.5,4.5,5.4,4.7,8.8c0.2,3.4-0.9,6.4-3.3,9.1c-2,2.3-4.5,3.7-7.4,4.2c-3.8,0.7-7.4-0.4-10.6-3.3
					c-3.2-2.9-4.8-6.3-4.6-10c0.2-3,1.3-5.7,3.4-8.1c2.4-2.7,5.3-4.1,8.7-4.2C439.4,262.6,442.3,263.8,444.9,266.3z M444.3,267.3
					c-1.6-1.5-3.7-1.8-6-0.8c-1.9,0.8-4.1,2.4-6.4,5c-2.8,3.1-4.3,5.8-4.5,8.3c-0.2,1.7,0.4,3.2,1.8,4.4c0.9,0.8,1.9,1.3,2.9,1.4
					c1.3,0.1,2.7-0.2,4.3-1.1c1.5-0.9,3.2-2.3,5-4.3c2.1-2.4,3.5-4.4,4.1-5.9c0.6-1.6,0.8-2.9,0.6-4
					C445.8,269.1,445.2,268.1,444.3,267.3z"/>
				<path d="M468.6,294.3l-7.9,6.1l0.4,0.6c0.7,0.8,1.3,1.4,2,1.8c0.7,0.3,1.4,0.5,2.3,0.4c0.9-0.1,1.9-0.5,3-1.2l0.4,0.5l-9.6,7.4
					l-0.4-0.5c1.7-1.6,2.5-3,2.5-4.2c0-1.2-0.4-2.4-1.2-3.4l-0.4-0.6l-5.9,4.5c-1,0.8-1.5,1.3-1.7,1.6c-0.2,0.3-0.2,0.7-0.2,1.1
					c0.1,0.5,0.3,1,0.7,1.5l0.5,0.6l-0.5,0.4l-7.7-10l0.5-0.4l0.5,0.6c0.4,0.6,0.9,0.9,1.3,1.1c0.3,0.1,0.7,0.2,1.1,0
					c0.3-0.1,0.9-0.5,1.9-1.2l12.6-9.7c1-0.8,1.6-1.3,1.7-1.6c0.2-0.3,0.2-0.7,0.2-1.1c-0.1-0.5-0.3-1-0.7-1.5l-0.5-0.6l0.5-0.4
					l12.4,16.2l-5.5,4.2l-0.4-0.6c1.2-1.1,1.9-2.2,2.1-3.2c0.2-1,0-2.1-0.5-3.4c-0.3-0.7-1-1.8-2.2-3.3L468.6,294.3z"/>
				<path d="M470,324.5l-4.4-7.3l-2.5,0.3c-0.8,0.1-1.5,0.3-1.9,0.6c-0.6,0.3-0.9,0.8-0.9,1.5c0,0.4,0.3,1.1,0.9,2.3l-0.6,0.3
					l-4.1-6.9l0.6-0.3c0.6,0.7,1.2,1.1,2,1.3c0.8,0.2,2.2,0.1,4.2-0.1l21-2.5l0.2,0.3l-12.5,17.7c-1.2,1.7-1.8,2.9-2,3.6
					c-0.1,0.5,0,1.1,0.3,1.8l-0.6,0.3l-6-10l0.6-0.3l0.2,0.4c0.5,0.8,0.9,1.3,1.4,1.5c0.3,0.1,0.6,0.1,0.9-0.1
					c0.2-0.1,0.4-0.3,0.5-0.4c0.1-0.1,0.4-0.5,0.9-1.1L470,324.5z M470.8,323.3l5.3-7.4l-9,1.1L470.8,323.3z"/>
				<path d="M495.3,335.9l-9.2,16.8l9.6-4c1.3-0.6,2.2-1.1,2.5-1.7c0.4-0.8,0.3-1.8-0.2-3l0.6-0.3l3.1,7.4l-0.6,0.3
					c-0.5-0.9-0.9-1.5-1.3-1.7c-0.3-0.2-0.7-0.4-1.3-0.4c-0.5,0-1.3,0.2-2.3,0.7l-18.5,7.8l-0.2-0.6l12.2-22.9l-14.2,6
					c-1.3,0.5-2,1.2-2.2,2c-0.2,0.8-0.1,1.5,0.2,2.3l0.2,0.5l-0.6,0.3l-3.3-7.9l0.6-0.3c0.5,1.2,1.1,2,1.8,2.2
					c0.7,0.3,1.6,0.2,2.8-0.3l15.7-6.6l0.4-0.7c0.4-0.7,0.6-1.3,0.6-1.7c0-0.4-0.1-1-0.3-1.7l0.6-0.3L495.3,335.9z"/>
				<path d="M507.7,370.5l-7.7,2.4l-0.2-0.7c1.9-0.9,3.2-2.1,4-3.8c0.8-1.6,1-3.2,0.6-4.7c-0.3-1.2-0.9-2-1.7-2.5
					c-0.8-0.5-1.6-0.6-2.4-0.4c-0.5,0.1-0.9,0.4-1.3,0.7c-0.4,0.5-0.8,1.2-1.1,2c-0.2,0.6-0.5,2.1-1,4.3c-0.6,3.1-1.3,5.3-2.2,6.6
					c-0.9,1.3-2.2,2.1-3.7,2.6c-1.9,0.5-3.8,0.3-5.7-0.9c-1.8-1.1-3.1-2.9-3.7-5.2c-0.2-0.7-0.3-1.4-0.4-2.1c0-0.7,0-1.6,0.2-2.7
					c0.1-0.6,0.1-1.1,0-1.5c-0.1-0.3-0.3-0.6-0.6-0.8c-0.3-0.3-0.7-0.4-1.3-0.5l-0.2-0.6l8.8-2.5l0.2,0.6c-2.3,1.2-3.9,2.7-4.8,4.5
					c-0.9,1.8-1.1,3.5-0.6,5.2c0.4,1.3,1,2.2,1.9,2.8c0.9,0.6,1.8,0.7,2.8,0.5c0.5-0.2,1-0.4,1.5-0.9c0.4-0.4,0.8-1,1.1-1.7
					c0.3-0.7,0.6-1.9,0.9-3.7c0.4-2.4,0.9-4.2,1.4-5.3c0.5-1.1,1.1-2.1,1.9-2.8c0.8-0.8,1.7-1.3,2.8-1.6c1.9-0.5,3.6-0.3,5.3,0.7
					c1.7,1,2.8,2.5,3.4,4.6c0.2,0.8,0.3,1.5,0.3,2.3c0,0.6-0.1,1.3-0.2,2.2c-0.2,0.9-0.2,1.5-0.1,1.8c0.1,0.3,0.2,0.5,0.5,0.6
					c0.2,0.1,0.7,0.2,1.5,0.1L507.7,370.5z"/>
			</g>
			<g>
				<path d="M294.1,585.6l-0.2,1c-0.7-0.1-1.4,0-1.9,0.2c-0.6,0.2-1.1,0.7-1.6,1.3c-0.2,0.2-1.1,1.5-2.7,4l-18.7,29.2l-1.1-0.2
					l-4.3-26.8l-15.7,22.6l-1-0.2l-6-34.1c-0.6-3.4-1.1-5.5-1.5-6.3c-0.4-0.8-1.2-1.3-2.3-1.7l0.2-1l16.7,3.5l-0.2,1
					c-1.4-0.2-2.3-0.2-2.8,0c-0.5,0.3-0.8,0.7-1,1.2c-0.2,0.7,0,2.3,0.4,4.9l3.6,20.2l9.1-13.3l-0.7-4.4c-0.4-2.4-0.8-4-1.1-4.9
					c-0.3-0.8-0.7-1.5-1.3-1.9c-0.5-0.4-1.4-0.8-2.6-1.1l0.2-1l18.6,3.9l-0.2,1c-1.3-0.3-2.3-0.3-2.9-0.3c-0.4,0-0.8,0.2-1.1,0.5
					c-0.3,0.3-0.5,0.6-0.6,1c-0.1,0.4,0.1,1.9,0.4,4.3l3.2,19.7l9.7-15.2c1-1.6,1.7-2.6,2-3.2c0.3-0.6,0.5-1.2,0.6-1.7
					c0.2-0.8,0-1.4-0.4-2c-0.4-0.6-1.4-1-2.9-1.4l0.2-1L294.1,585.6z"/>
				<path d="M332.7,583.5l0.5,10.6l-1,0.1c-0.7-2.4-1.5-4.1-2.3-5.2c-0.8-1-1.9-1.8-3.2-2.4c-0.8-0.3-2-0.4-3.9-0.3l-2.9,0.1
					l1.6,30.3c0.1,2,0.3,3.3,0.5,3.7c0.2,0.5,0.7,0.9,1.4,1.3c0.7,0.3,1.6,0.5,2.7,0.4l1.3-0.1l0.1,1.1l-20.5,1.1l-0.1-1.1l1.3-0.1
					c1.1-0.1,2-0.3,2.7-0.7c0.5-0.3,0.9-0.8,1.1-1.4c0.2-0.5,0.2-1.7,0.1-3.7l-1.6-30.3l-2.8,0.1c-2.6,0.1-4.5,0.8-5.7,2
					c-1.6,1.6-2.5,3.9-2.8,6.8l-1.1,0.1l-0.5-10.6L332.7,583.5z"/>
				<path d="M350.3,581.5l4.2,15.6l1.1-0.3c1.7-0.5,3-1.1,3.9-1.9c0.9-0.8,1.6-1.9,2-3.3c0.4-1.4,0.5-3.1,0.1-5.2l1-0.3l5.1,19
					l-1,0.3c-1.3-3.5-2.9-5.6-4.8-6.3c-1.9-0.7-3.8-0.8-5.8-0.3l-1.1,0.3l3.1,11.6c0.5,1.9,1,3.1,1.3,3.6s0.9,0.7,1.6,0.9
					c0.7,0.2,1.6,0.1,2.7-0.1l1.3-0.3l0.3,1l-19.8,5.4l-0.3-1l1.3-0.3c1.1-0.3,1.9-0.7,2.5-1.3c0.4-0.4,0.7-0.9,0.8-1.6
					c0.1-0.5-0.1-1.7-0.6-3.6l-6.7-25c-0.5-1.9-1-3.1-1.3-3.6c-0.3-0.4-0.9-0.7-1.6-0.9c-0.7-0.2-1.6-0.1-2.7,0.1l-1.3,0.3l-0.3-1
					l32-8.6l2.9,10.9l-1.1,0.3c-1-2.5-2.1-4.2-3.5-5.1c-1.4-0.9-3.2-1.4-5.4-1.3c-1.2,0-3.3,0.4-6.3,1.3L350.3,581.5z"/>
			</g>
		</g>
	</g>
</g>
</svg>
