<svg xmlns="http://www.w3.org/2000/svg" viewBox="0 0 206.82 39.96"><title>BMEME</title><g id="Layer_2" data-name="Layer 2"><g id="Réteg_2" data-name="Réteg 2"><path d="M0,0H17.7c4.21,0,7.53,0,9.94,2a9.17,9.17,0,0,1,3.62,7.21q0,5.33-5.6,8.16a11.84,11.84,0,0,1,6.46,3.93,10.23,10.23,0,0,1,2.25,6.57,11.23,11.23,0,0,1-3.67,8.68Q27,39.92,19.92,39.93H0ZM10.2,6.5v8.76h5.33A5.49,5.49,0,0,0,19.37,14a4.12,4.12,0,0,0,1.37-3.16,4,4,0,0,0-1.37-3.11A5.57,5.57,0,0,0,15.53,6.5Zm0,16.26v9.67h5.74c2.71,0,4.67-.38,5.86-1.13a4.26,4.26,0,0,0,1.78-3.91A4,4,0,0,0,21.88,24a7.5,7.5,0,0,0-4.54-1.24Z"/><path d="M120.06,31.43v8.5H88.89V0h31.76V8.5H98.08v7.58h18.66v7.5H98.08v7.85Z"/><path d="M176.06.06h30.21V5.27H181.92V15.75h20.76V22H181.92V33.71h24.9v6.22H176.06Z"/><path d="M147.15,19.84,163.28,0h5.54V40H163V9.11L148.23,27.93h-1.08"/><path d="M147.15,27.93h-1.08L131.34,9.11V40h-5.86V0H131l16.13,19.81"/><polyline points="47.11 0.03 60.27 15.21 73.43 0.03 83.29 0.03 83.29 39.96 72.09 39.96 72.09 16.41 61.04 29.24 59.51 29.24 48.45 16.41"/><polyline points="72.04 16.41 60.98 29.24 59.45 29.24 48.39 16.41 48.39 39.96 37.2 39.96 37.2 0.03 47.06 0.03 60.22 15.21 73.38 0.03"/></g></g></svg>