<?xml version="1.0" encoding="utf-8"?>
<!-- Generator: Adobe Illustrator 23.0.3, SVG Export Plug-In . SVG Version: 6.00 Build 0)  -->
<svg version="1.1" id="Réteg_1" xmlns="http://www.w3.org/2000/svg" xmlns:xlink="http://www.w3.org/1999/xlink" x="0px" y="0px"
	 viewBox="0 0 405.89 290" style="enable-background:new 0 0 405.89 290;" xml:space="preserve">
<style type="text/css">
	.st0{display:none;}
	.st1{display:inline;}
	.st2{stroke:#000000;stroke-miterlimit:10;}
	.st3{display:inline;stroke:#000000;stroke-miterlimit:10;}
	.st4{fill:#FFF200;}
	.st5{fill:#EC008C;}
	.st6{fill:#00AEEF;}
	.st7{font-family:'TrebuchetMS-Bold';}
	.st8{font-size:48.6069px;}
	.st9{fill:#FFFFFF;}
	.st10{fill:#ED2024;stroke:#ED2024;stroke-miterlimit:10;}
	.st11{display:inline;fill:#ED2024;stroke:#ED2024;stroke-miterlimit:10;}
	.st12{fill:#3CB54A;stroke:#3CB54A;stroke-miterlimit:10;}
	.st13{display:inline;fill:#BDDBBD;stroke:#BDDBBD;stroke-miterlimit:10;}
	.st14{fill:none;stroke:#FFFFFF;stroke-width:2;stroke-miterlimit:10;}
	.st15{display:inline;fill:none;stroke:#FFFFFF;stroke-width:2;stroke-miterlimit:10;}
	.st16{fill:#FFFFFF;stroke:#FFFFFF;stroke-miterlimit:10;}
	.st17{display:inline;fill:#FFFFFF;stroke:#FFFFFF;stroke-miterlimit:10;}
</style>
<g class="st0">
	<g class="st1">
		<path class="st2" d="M-238.83,182.75l-33.96,33.96l-68.03-68.03l68.03-68.03l34.01,34.01c0,0,0,0,0,0
			c4.02-4.01,8.04-8.03,12.05-12.04l0,0l-46.06-46.06l-92.13,92.13l92.13,92.13l45.83-45.83
			C-230.92,190.89-234.88,186.82-238.83,182.75z"/>
	</g>
	
		<rect x="-226.09" y="111.65" transform="matrix(0.7071 -0.7071 0.7071 0.7071 -160.1823 -90.9247)" class="st3" width="72.49" height="72.49"/>
	<text transform="matrix(1 0 0 1 -306.6063 165.7438)" class="st1"><tspan x="0" y="0" class="st7 st8">KB  </tspan><tspan x="88.22" y="0" class="st9 st7 st8">PR</tspan></text>
</g>
<g>
	<g>
		<path d="M202.95,182.81l-33.96,33.96l-68.03-68.03l68.03-68.03L203,114.71c0,0,0,0,0,0c4.02-4.01,8.04-8.03,12.05-12.04l0,0
			l-46.06-46.06l-92.13,92.13l92.13,92.13l45.83-45.83C210.86,190.96,206.91,186.88,202.95,182.81z"/>
		<path class="st4" d="M135.18,114.59c-11.26,11.35-22.52,22.7-33.78,34.05c11.23,11.41,22.46,22.81,33.69,34.22
			c-3.95,4.08-7.9,8.16-11.85,12.24c-15.45-15.45-30.91-30.91-46.36-46.36c15.41-15.41,30.82-30.82,46.23-46.23
			C127.13,106.53,131.15,110.56,135.18,114.59z"/>
		<path class="st5" d="M203.2,114.92c-11.35-11.26-22.7-22.52-34.05-33.78c-11.33,11.15-22.65,22.31-33.98,33.46
			c-4.03-4.03-8.05-8.06-12.08-12.09c15.32-15.3,30.64-30.6,45.96-45.89c15.41,15.41,30.82,30.82,46.23,46.23
			C211.26,106.87,207.23,110.89,203.2,114.92z"/>
		<path class="st6" d="M203.2,182.55c-11.35,11.26-22.7,22.52-34.05,33.78c-11.33-11.15-22.65-22.31-33.98-33.46
			c-4.03,4.03-8.05,8.06-12.08,12.09c15.32,15.3,30.64,30.6,45.96,45.89c15.41-15.41,30.82-30.82,46.23-46.23
			C211.26,190.6,207.23,186.58,203.2,182.55z"/>
	</g>
	
		<rect x="215.69" y="111.71" transform="matrix(0.7071 -0.7071 0.7071 0.7071 -30.8331 221.4815)" class="st2" width="72.49" height="72.49"/>
	<text transform="matrix(1 0 0 1 135.1754 165.8084)"><tspan x="0" y="0" class="st7 st8">KB  </tspan><tspan x="88.22" y="0" class="st9 st7 st8">PR</tspan></text>
</g>
<g class="st0">
	<g class="st1">
		<path class="st10" d="M-238.83,436.33l-33.96,33.96l-68.03-68.03l68.03-68.03l34.01,34.01c0,0,0,0,0,0
			c4.02-4.01,8.04-8.03,12.05-12.04l0,0l-46.06-46.06l-92.13,92.13l92.13,92.13l45.83-45.83
			C-230.92,444.48-234.88,440.41-238.83,436.33z"/>
	</g>
	
		<rect x="-226.09" y="365.24" transform="matrix(0.7071 -0.7071 0.7071 0.7071 -339.4945 -16.6512)" class="st11" width="72.49" height="72.49"/>
	<text transform="matrix(1 0 0 1 -306.6063 419.3295)" class="st1"><tspan x="0" y="0" class="st7 st8" style="fill:#ED2024;">KB</tspan><tspan x="58.93" y="0" class="st7 st8">  </tspan><tspan x="88.22" y="0" class="st9 st7 st8">PR</tspan></text>
</g>
<g class="st0">
	<g class="st1">
		<path class="st12" d="M202.11,426.48l-33.96,33.96l-68.03-68.03l68.03-68.03l34.01,34.01c0,0,0,0,0,0
			c4.02-4.01,8.04-8.03,12.05-12.04l0,0l-46.06-46.06L76.03,392.4l92.13,92.13l45.83-45.83
			C210.03,434.62,206.07,430.55,202.11,426.48z"/>
	</g>
	
		<rect x="214.85" y="355.38" transform="matrix(0.7071 -0.7071 0.7071 0.7071 -203.3748 292.2563)" class="st13" width="72.49" height="72.49"/>
	<text transform="matrix(1 0 0 1 134.3379 409.4723)" class="st1"><tspan x="0" y="0" class="st7 st8" style="fill:#BDDBBD;">KB</tspan><tspan x="58.93" y="0" class="st7 st8">  </tspan><tspan x="88.22" y="0" class="st7 st8" style="fill:#3CB54A;">PR</tspan></text>
</g>
<rect x="-436" y="524.97" class="st0" width="841.89" height="242.99"/>
<g class="st0">
	<g class="st1">
		<path class="st14" d="M-235.83,679.77l-33.96,33.96l-68.03-68.03l68.03-68.03l34.01,34.01c0,0,0,0,0,0
			c4.02-4.01,8.04-8.03,12.05-12.04l0,0l-46.06-46.06l-92.13,92.13l92.13,92.13l45.83-45.83
			C-227.92,687.91-231.88,683.84-235.83,679.77z"/>
	</g>
	
		<rect x="-223.09" y="608.67" transform="matrix(0.7071 -0.7071 0.7071 0.7071 -510.7491 56.7701)" class="st15" width="72.49" height="72.49"/>
	<text transform="matrix(1 0 0 1 -303.6063 662.7628)" class="st1"><tspan x="0" y="0" class="st9 st7 st8">KB</tspan><tspan x="58.93" y="0" class="st7 st8">  </tspan><tspan x="88.22" y="0" class="st9 st7 st8">PR</tspan></text>
</g>
<g class="st0">
	<g class="st1">
		<path class="st16" d="M202.11,679.97l-33.96,33.96l-68.03-68.03l68.03-68.03l34.01,34.01c0,0,0,0,0,0
			c4.02-4.01,8.04-8.03,12.05-12.04l0,0l-46.06-46.06l-92.13,92.13l92.13,92.13l45.83-45.83
			C210.03,688.11,206.07,684.04,202.11,679.97z"/>
	</g>
	
		<rect x="214.85" y="608.87" transform="matrix(0.7071 -0.7071 0.7071 0.7071 -382.6208 366.5024)" class="st17" width="72.49" height="72.49"/>
	<text transform="matrix(1 0 0 1 134.3379 662.9644)" class="st1"><tspan x="0" y="0" class="st9 st7 st8">KB</tspan><tspan x="58.93" y="0" class="st7 st8">  </tspan><tspan x="88.22" y="0" class="st7 st8">PR</tspan></text>
</g>
</svg>
