<svg id="Layer_1" data-name="Layer 1" xmlns="http://www.w3.org/2000/svg" viewBox="0 0 842.65 995.52"><title>localheroes</title><path d="M840.48,940.19c-3.46,8.49-5.7,16.2-9.59,22.95-3.76,6.52-8.91,12.34-14,17.92-2.69,2.92-6.74,3.56-10.05.16s-4.9-7.38-2.74-12a13.52,13.52,0,0,1,3.78-4.9c8.54-6.56,15.12-15,17.19-25.25,1.63-8.11,1.05-17.13-.58-25.35-4.5-22.61-17.48-40.66-34.24-56.86.21,2.26.51,4.5.62,6.76.42,8.71,1.67,17.5.91,26.11a41.73,41.73,0,0,0,4.33,22.89c8.36,17.14,8.73,35.09,3.28,53-3.57,11.74-11.43,19.9-24.08,21.91-2.39.38-6.25-.76-7.44-2.53-1.41-2.12-1.81-6.28-.63-8.46a22.62,22.62,0,0,1,8.18-8.22c11.32-6.64,17.16-25.34,11-38.18-2.8,2.33-5.25,5-8.26,6.69a40.61,40.61,0,0,1-11.93,4.61,8.24,8.24,0,0,1-9.84-6.76c-.52-3,1.29-7.28,3.5-9.64,3.66-3.9,8.56-6.61,12.78-10,3.91-3.16,6-6.57,2.17-11.61-6.85-8.93-13.14-18.31-20-27.28-8.25-10.89-16.07-22.08-18.31-35.84-1.15-7.13-.25-14.57-1-21.81-.45-4.64-1.28-9.6-3.39-13.67-9.3-18-8.26-35.92-.44-53.94,2-4.57,4.29-9,6.45-13.47-.39-.61-.79-1.22-1.18-1.84-6.1,3.1-12.29,6-18.26,9.34-9.28,5.16-18.26,10.87-27.62,15.86-8.09,4.31-16.28,3.93-23.24-2.48-7.36-6.77-8.83-15.42-5.93-24.7,2-6.4,6.37-10.76,13.21-12,1.39-.24,3.82,0,4.23.82a7,7,0,0,1,.09,5.11c-.64,1.66-2.26,2.94-3.42,4.42-3.15,4-3,8.09.29,11.9,3.5,4,10.85,4.87,15.52,1.57,3.69-2.61,6.36-5.58,4-11-11.62-26.44-20.89-53.67-24.76-82.38-4-29.65-6.38-59.06,3.68-88.52,7.28-21.35,4.24-43.69,0-65.59-.93-4.84-1.1-9.83-1.83-14.72a50.4,50.4,0,0,0-2.12-9.61c-1.19-3.31-3.11-6.36-4.62-9.56-4-8.56-4.21-9.23,3.18-15.2,5-4.06,5.93-7.92,1.37-12.28-3.28-3.13-1.55-6.25-1.45-9.65.49-17,.86-34,.84-51,0-12.73-.76-25.45-1-38.19-.11-6.13,6.69-11.18,12.53-9.56,14.39,4,28,4.21,39.6-7.37,3.34-3.35,7.4-3.51,11.53-1.25,1.83,1,3.62,2.06,5.41,3.13,8.87,5.31,9.21,5.28,16.47-1.69,4.35-4.17,8.44-4.3,12.24.37,2.83,3.48,6,4.51,10.27,4.37,36.93-1.24,73.86-2.59,110.81-3.26,15-.28,30,1.13,45,1.59,4.78.15,9.59-.25,14.37-.49,32.67-1.67,64.43,4.11,96,11.52.41.09.8.25,1.21.33,11.84,2.36,11.3,2.25,13.71-9.85,1.23-6.18,4.38-12.13,7.45-17.75,5-9.13,8.88-18.19,7.7-29.07-.35-3.29,2.41-6.92,3.74-10.39,3.61,1.77,7.61,3,10.68,5.49,2.41,1.92,3.67,5.31,5,7.38,2.71-12.32,4.66-25.24,8.46-37.59,6.44-20.92,18.44-38.69,34.14-53.94a48.52,48.52,0,0,0,14.48-26.51,112.88,112.88,0,0,1,22.46-49.68c14.36-18.46,29.4-36.38,43.85-54.76,2.63-3.33,3.84-7.76,5.74-11.67,2.19-4.48,3.89-9.33,6.84-13.24,1.44-1.91,5.22-2.05,8-3,.71,2.34,2.19,4.74,2,7-1.87,24.13-4,48.24-6,72.37-.05.56.23,1.15.85,4,2.54-3.17,4.78-5.11,5.93-7.56,6.24-13.23,17.89-21.84,27.36-32.27,6.86-7.57,14.6-14.34,21.71-21.7,2.26-2.33,3.66-5.48,5.62-8.14s4.2-5.24,6.32-7.85l2.36.69c.28,3,1.31,6.25.72,9.11-3.5,16.91-7.29,33.75-11.17,50.57-1.1,4.77-2.81,9.41-3.28,14.75l13.11-15c5.9,3.19,6,8.06,4.76,13.06-7.68,31.1-13.68,62.79-30.29,91.4l80.45-54.74c3.33,7.74,2.65,15.91-.47,23.28-7.22,17.05-15.34,33.72-23.18,50.51-1.81,3.89-4,7.6-6.62,12.61,4.26-1.14,7.31-1.64,10.11-2.76,15.49-6.18,31.16-12,43.64-23.84,1.71-1.61,5-1.58,7.52-2.32.25,2.85,1.64,6.24.57,8.44-8.3,17-17.05,33.86-25.74,50.71-1.61,3.12-3.55,6.07-6,10.15l24.49-3.29c13.63-1.86,27.24-3.89,40.9-5.43,2.54-.29,5.29,1.38,8,2.15-1.3,2.69-2.49,5.45-4,8-.46.81-1.64,1.26-2.55,1.77q-42.79,24.28-85.6,48.59c-.27.16-.32.73-.74,1.78,19.44,0,38.61.18,57.76-.08,8.31-.12,16.61-1.47,24.92-1.61,3.42-.06,6.86,1.58,10.3,2.46-1.88,3.24-3,7.59-5.79,9.52a254.56,254.56,0,0,1-25.23,15.07A184,184,0,0,1,1334.55,373c3,2.13,5.72,4.6,8.89,6.33,17.2,9.35,34.6,18.16,54.39,21,2,.29,3.56,3.4,5.33,5.2-1.73,1.43-3.41,2.92-5.2,4.26-.62.47-1.76.35-2.23.89-9,10.17-21.54,13-33.74,16.49-.6.18-1.17.44-2.59,1,3.09,2.41,5.84,4.48,8.5,6.66,11.32,9.23,22.84,18.24,33.78,27.9,3.79,3.34,6.61,8,9,12.6,2.69,5.11.23,7.77-5.45,7.35-24.08-1.76-48.18-3.36-72.28-4.93-2.36-.16-4.76.24-8.54.47a47,47,0,0,0,4.29,3.7c11.92,7.59,23.82,15.19,35.86,22.58,2,1.26,5.12,1,7,2.42,2.56,2,6,4.8,6.19,7.48.35,4.44-4.1,4.57-7.79,5-11.77,1.45-23.48,3.47-35.26,4.82-7,.81-14.06.78-21.23,1.14,0-.38-.16.2,0,.32,8.15,6.32,16.56,12.32,24.44,18.95a183.33,183.33,0,0,1,19.62,18.88c1.69,1.94.39,6.5.47,9.86-2.84-.31-5.71-.48-8.52-1-3-.51-6-1.7-9-1.89-15.62-1-31.28-1.47-46.88-2.65-6.36-.48-12.61-2.25-19.4-3.52.59.88.86,1.73,1.42,2,13.24,7.15,22.11,18.94,31.7,29.92,7.76,8.87,15.23,18,22.83,27,.4.48,1.13,1,1.13,1.45,0,3.45-.12,6.91-.2,10.36-2.61-1.16-6.26-1.59-7.67-3.59-8.39-11.89-21.8-16-34.88-24.15,7,12.62,16,21,25.76,28.36,7.65,5.78,15.67,11.09,23.68,16.38,3,2,5,3.66,2.59,7.44-1.91,3-3.61,3.85-7.54,2.67-16.75-5-33.68-9.32-50.55-13.88-6.39-1.72-12.78-3.41-20.29-5.4,1.78,4.71,3.15,8.72,4.8,12.62,7.12,16.82,9.43,34.5,9.4,52.58a28.44,28.44,0,0,1-1.6,9.81c-.66,1.77-3.16,4-4.81,4-2,0-5.28-1.8-5.78-3.48-3.34-11.09-12.75-16.06-21.22-22-3.23-2.24-6.92-3.83-10.44-5.63-7.51-3.84-16.14-5.81-21.36-13.42-.93-1.36-3-1.91-5.06-2.38,8,13.38,16.65,26.15,28.17,36.76a5.52,5.52,0,0,0,1.63.91c7.11,2.94,8.3,5.62,6.1,14.23-15.43,2.28-30.54-.13-47.33-4.79-.33,7.53-.74,14.2-.89,20.89s0,13.24,0,19.93c10.31,1.92,10.36,1.92,11.64,13.5,1,9.49-.4,18.14-7.52,25.4-2.87,2.93-4.59,7-7.36,11.35,13,2.85,15.38,13.17,19.23,21.77,3.39,7.57.33,14.7-7.05,20.16-4.52,3.34-9.24,6.4-12,8.3-.38,7.54.56,13.7-1.22,18.93-3.26,9.6-8.43,12.35-18.6,11.92-16.89-.71-33.76-1.92-50.66-2.33-6.18-.15-12.4,1.38-18.61,2.13-3.75.46-5.72,2.11-6.25,6.31-1.1,8.63-4,10.6-12.74,8.52-7.81-1.86-15.4-4.61-23.12-6.85-3-.86-6.06-1.44-9.11-2-1.43-.28-3.53.27-4.25-.53-5.72-6.36-12.8-3.06-19.36-3-24,.37-48,.88-72.05,1.29-9,.16-17.28,1.83-23.39,9.56-8.41,10.65-5,21.94,8.14,25.59,3.46,1,8.32.73,7.73,6.14-.56,5.15-4.59,7-9.34,7.62-10.4,1.41-17.46-1.75-22.52-10.89-2.39-4.34-4-9.14-6.35-14.79-3.07,3-6.31,5.76-9,9-9.45,11.27-16.62,23.67-16.11,39,.15,4.42,1.81,8.89,3.29,13.16s4.42,5.38,8.89,3.54c6.12-2.52,7-5,1.73-9.11-3.37-2.62-5-5.52-2.71-8.75,1.42-2,4.87-3.35,7.51-3.52,8.52-.56,10.58,1.17,11.86,9.76,1.56,10.48-1.87,19.49-9.83,26.36-5.06,4.36-11.08,5.32-17.56,2.68-14.55-5.94-21.75-21.47-17.91-39.06a4,4,0,0,0-.08-2.82c-2.65,3.06-5.43,6-7.91,9.21-3.21,4.12-6.81,8.11-9.14,12.7-10.84,21.37-30.14,32.07-50.91,40.75-9.88,4.13-20.74,3.7-25-4.93-3.19-6.4,1.92-16,9.07-15.84,5,.1,10.2.16,14.83,1.7,4.88,1.61,8.83.77,13.12-1.14C835.49,993.72,847.64,966.69,840.48,940.19Zm175.17-426.38c-4.68,2.2-9.36,3.93-13.4,6.61-1.19.78-1.51,5-.51,6.33s4.23,1.44,6.36,1.16c1.37-.18,2.37-2.31,3.8-3.08,2.73-1.48,5.64-2.61,8.48-3.89,1.32,3.1,3,6.12,3.83,9.35.44,1.62-.34,3.66-.81,5.45-3.26,12.42-12,20.13-22.6,26.31-8.3,4.85-16.29,9.63-17.85,20.79-.8,5.73-7.33,9.7-10.75,8.44-3.9-1.45-4.52-6.49-1.91-13.38,1.32-3.5,2.25-7.14,3.35-10.72-2.54,1.17-3.42,3.4-5,4.26-2.33,1.25-5.19,1.51-7.82,2.19-.27-2.42-1.65-5.59-.61-7.14a107,107,0,0,1,13.06-16.37c1.79-1.8,6.11-2.55,8.55-1.71,1.56.54,1.83,4.89,2.58,7.56a16.79,16.79,0,0,1,.3,2.9c15.14.77,30.3-12.79,27.29-25.1-2.61,2.86-4.65,5.25-6.84,7.5-4.11,4.23-8.51,3.9-11.19-1.15a19.46,19.46,0,0,1-2.35-8.27c-.13-4.87.56-9.76.93-14.89-6.8,2.7-9.74,8.76-13,14.53-1.65,2.87-2.09,6.8-7.07,6.63-5.15-.16-8-2.82-10.15-7-1.14-2.21-2.62-4.23-3.72-6-1.67,5.56-3.09,10.66-4.73,15.68-1.09,3.36-3.68,6.66-3.54,9.9.48,11.84-5,21.92-9,32.26-6.22,15.87-12.63,31.94-26.43,43.26-9,7.41-17.82,15.23-27.48,21.74-20.06,13.53-41.42,24.56-63.65,34.4-28.8,12.76-49.37,33.56-54.06,66.91-2,14.45-5.86,28.6-2.61,43.35a48.7,48.7,0,0,0,10.95,22c7.55,8.79,12.53,19.93,20.6,28.11,14.9,15.1,25.55,32.91,36.33,50.77a98.52,98.52,0,0,1,14,43.67c.41,5.14,2,10.18,3.28,16.7,15.43-21.46,26.09-42.89,29.19-67.55.82-6.47,2.78-8.44,8.94-6.27,3.72,1.32,7.11,4.68,9.63,7.91,2.2,2.82,3,6.76,4.44,10.42,22.67-8.66,40.83-23.31,56.77-40.57,19.63-21.25,40.58-40.86,64.35-57.41a24.84,24.84,0,0,0,3.86-4c10.86-11.88,20.22-24.85,34-34.38,15.71-10.89,29.77-24.25,44-37.14,10.75-9.74,17.57-22.17,20.83-36.42.64-2.8,1.23-5.62,1.84-8.4,6.39,1,8.3,3.41,7.08,9.41-1.41,6.94-3.16,13.81-5,20.64-.87,3.16-1.76,6.67-3.76,9.11-9.85,12-18.59,25-33,32.75-5.29,2.84-9.21,8.23-13.76,12.45,12.28-6.86,23.76-14.36,35.21-21.91a12.65,12.65,0,0,0,3.29-2.83c8.89-12.08,17.84-24.12,26.49-36.37,3.4-4.81,5.25-10.16,4.39-16.46-.69-5,2.71-7.43,6.84-4.52a41.08,41.08,0,0,1,10.54,11.78c2.61,4.17,3.84,9.22,5.8,14.19,5.35-6.19,8.11-6.66,14.43-2.84,3.59,2.18,7.15,4.42,10.73,6.63.14-1.36-.19-1.9-.66-2.27-28.5-22.6-39.42-53.09-38.31-88.28.65-20.61,3.12-41.17,4.88-61.74a100.88,100.88,0,0,0-8.09-49.5c-11.41-26.11-31.52-41.46-59.81-45.46-7.44-1.06-12-6.26-9.72-13.64,1.29-4.08,3.88-7.78,6.17-11.48,1.92-3.08,4.25-5.91,7.5-10.34-18.13,1.76-33.63,6.85-47.28,14.91-14.91,8.82-37.06,9.48-49.53-2.09-3.41,2.6-6.78,5.38-10.36,7.86-9.32,6.45-13.7,6.44-22.26,0-1.14,1.71-2.24,3.43-3.41,5.09-4.92,6.95-10.72,12.87-19.08,15.51-12.3,3.89-21.4-2.64-21.63-15.42-.05-2.87,0-5.73,0-9.12-1.3.46-2,.76-2.75,1-5.13,1.46-10.2,3.51-15.42,4.05-2.11.22-5-2.54-6.63-4.67-.61-.82,1.32-3.69,2.3-5.53,1.25-2.34,2.69-4.59,4.06-6.87l-1.47-1.28c-5.3,2.79-11,5-15.81,8.48-8.43,6.09-8.5,15.27-1.11,22.47,3.25,3.16,6.05,6.77,9.12,10.12.77.84,1.74,2,2.69,2.06,4.11.36,7.19,2,6.67,6.46-.59,5-5.07,5.3-8.67,4.85-5.56-.7-11-2.34-18.32-4,2.62,3.72,4.86,6.74,6.93,9.88,1.39,2.13,2.55,4.42,3.81,6.64-2.59,1.4-5.31,4.18-7.76,4-9.92-.89-16.92,4.07-24.25,9.61-20.61,15.55-41.1,31.36-67.12,37.4-7.32,1.7-14.28,5-21.55,7.57,4.22,7.52,8.77,8.94,13,4.47,3.68-3.88,7.18-3.71,10.85-.41,4.19,3.77,1.25,7.22-1.48,9.44-4.14,3.37-9.12,5.71-13.6,8.69s-10,5.39-12.76,9.57c-2.57,3.85-2.79,9.75-2.51,14.65.07,1.26,6.11,3.38,9.17,3,13.15-1.47,25.54,1.18,37.63,5.78a100.58,100.58,0,0,1,15,7.35c1.25.73,1.33,3.46,1.94,5.26-2,.27-4.16,1.19-5.93.68-9.2-2.61-18.3-5.61-27.45-8.39a6.64,6.64,0,0,0-3.1.05c-6.47,1.24-12.92,2.56-19.56,3.89,1.11,11.7,2.05,23.32,3.51,34.86.2,1.56,2.86,3.64,4.68,4,6.3,1.31,12.74,2.78,19.11,2.69,10.13-.13,20,.35,27.54-10.16a89.77,89.77,0,0,1,39.21-31.29c1.6-.65,2.58-3.66,3.2-5.76,1.45-4.86,1.69-10.22,3.86-14.68,6.59-13.62,17.42-22.21,32-27,20-6.59,34.35-20.06,43.26-39.25,1.31-2.84,1.57-4.72-.81-7.65-2.82-3.47-4-8.26-6-12.63,2-.93,2.69-1.35,3.45-1.61,6.55-2.23,11.78,1.27,17,4.16,3.48,1.91,5.77,2.18,9-1.07a50.29,50.29,0,0,1,28.17-13.9C1009.47,501.68,1014.65,505.77,1015.65,513.81ZM735,429.71c1.34,2.74,2.54,5.59,4.09,8.23,5.81,9.93,5.17,19.45,0,29.68-5.53,11-9.19,22.91-20.34,30.17-2.21,1.44-3,4.94-4.71,7.3-8.92,12.24-12.44,26.67-16.75,40.8-6.07,19.87-10.65,40.11-8.66,60.94,2.12,22.17,4.87,44.36,8.92,66.24,2.78,15,8.26,29.46,12.54,44.17l3.22,1.22c2.21-3,4.64-5.78,6.59-8.89a42.47,42.47,0,0,1,24.56-18.33c10.75-3.22,21.86-5.2,32.74-8,9.5-2.47,18.88-5.38,28.31-8.09l-.42-2.52c-3.67-.19-7.34-.31-11-.6q-5.94-.46-11.84-1.2c-11.56-1.44-18.79-8.29-14.33-21.87,1.4-4.3.85-9.89-.57-14.32-2.47-7.7-6.15-15-9.63-22.36-3.82-8.09-5.89-16.3-4.61-25.39a197.79,197.79,0,0,0,1.43-20.81c.31-8.87,2.77-12.21,11.37-14.43,2-.52,4.07-.88,6.07-1.45,21.51-6.11,42.87-12.63,61-26.43,13.69-10.41,25.93-22.95,41-27.74.86-9.27,1.69-17.22,2.3-25.18.18-2.34.4-5-.48-7.06-4.36-10.07-2.68-19.21,5.3-26.18,6.85-6,14.76-10.8,22.55-15.57,4-2.42,7.22-4.51,7.18-9.75,0-5.09,3.46-5.52,7.39-4.72C925,408.89,929.93,414,930.1,421c.11,4.35,1.95,5.67,5.58,5.43,6.63-.45,13.24-1.23,19.87-1.76,7.33-.59,9.19,1.17,8,8.31-.3,1.72-2.33,3.55-4,4.56-5.16,3.06-10.84,5.33-15.7,8.78-1.89,1.35-2.12,5-3.1,7.65,2.66.66,5.39,2.08,8,1.83,7.12-.71,11.69-5.48,14.53-11.57,8.41-18.06,23.69-28.65,40.59-38.19l4.76,7.07c-4.62,3.37-8.78,6.48-13,9.48-7.06,5-9,10.57-6.7,19.25,7.18-5.5,14.15-11.49,21.81-16.42,3.43-2.2,8.22-3.08,12.41-3.14,6.81-.09,8.27,3.23,5,9.31a71,71,0,0,0-2.68,7.09c4.21-1.24,6.93-1.51,9.08-2.76,7.4-4.31,9.67-13.21,5.83-21.29-2.17-4.56-4.27-9.15-6.53-14,17.18-3.33,29,5.2,36.89,25.54,1.34-.33,2.7-.8,4.1-1,9.66-1.38,19.31-3.65,29-3.81,10.1-.17,19.84,2.85,27.35,10.38,1.25,1.25,2.47,4,1.92,5.19-.67,1.47-3.16,2.45-5,2.91-1.47.37-3.24-.29-4.85-.65-6.56-1.49-17.36,4.5-19.63,11.46,25.87,8.11,49,20.38,63.2,45.22a84.19,84.19,0,0,0-.85-11.53c-3.06-23.48-11.53-44.46-26.7-63-26.61-32.53-61.64-51.9-100.47-65.05-23.35-7.91-47.73-11.63-72.4-13.25-32.21-2.1-63.32,2-92.6,16.13-16.25,7.82-14.87,4.78-8.47,21,.16.38.41.73.54,1.13,2.14,6.17,1.25,7.11-5,9.22-3.23,1.08-6.92,3.28-8.6,6.06-5.65,9.4-14.81,14.93-22.66,21.85-3.88,3.42-8,3.38-9.87-2.76-1.27-4.13-4.53-5.5-8.36-4.54a26.83,26.83,0,0,0-8.28,3.8c-7.87,5.32-10.78,5-17-2.22-3.16-3.72-6.39-7.36-10.33-11.88C768,419.89,753.46,427.31,735,429.71Zm491.1-174.34c-12,1.68-20.7,8-29.66,14.11-7.05,4.8-14.27,9.38-21.73,13.49-1.63.9-4.59-.61-6.94-1,.52-2.16.41-4.85,1.69-6.37,3.67-4.37,7.91-8.26,11.93-12.34-15.48,6.53-23,21.77-35.43,31.41-6-4.13-6.24-5.27-1.86-10.24,12.62-14.31,24.27-29.37,31.37-47.23,4-10,6.5-20.53,9.67-30.82l-2.46-1.26c-7.1,6.37-14.92,12.12-21.14,19.25-10.37,11.89-23.41,22.23-25.58,39.62-.52,4.19-4.59,4.18-6.49,1.66a15.69,15.69,0,0,1-3-10c.3-3.26,2.45-6.7,4.61-9.4,8.81-11,12.32-24,14.56-37.43.79-4.71,1.35-9.47,2.22-15.67-27.91,26.19-45.4,69-37.83,92.65l16.75-13c14.12,14.94,4.16,31.28,3.4,48,2.74-.45,5.34-.56,7.73-1.33,3.35-1.09,6.45-3.25,9.85-3.81a10.06,10.06,0,0,1,7.56,1.95c1,.93.16,4.74-.8,6.81-1.73,3.69-4.17,7-7.39,12.31,14.2-2,26.48-3.67,38.74-5.49,4.08-.6,6.6.39,6.54,5,0,1.4,0,2.8,0,4.12,16.6,3.69,42.54-4.92,46.44-15.64-6.73,0-13.29-.07-19.86,0-5.56.08-9.19-2.05-10-8.11,10.59-7.06,24.28-10.41,30.09-24.72-28.5,5.08-52.11,19.17-76.66,32.75-.36-3.07-.47-6.32,1.07-7.61,8-6.69,15.73-14,24.75-19C1205.8,288.31,1216.86,273.49,1226.07,255.37ZM1183.75,416l.45-1.56a71.77,71.77,0,0,0-6.44-3.37c-4.24-1.73-8.8-2.78-12.8-4.9-6.74-3.56-6.89-8.13-.46-12.13a38.37,38.37,0,0,1,10.31-4.26c5.31-1.41,10.77-2.22,17.06-3.47-1.9-1.69-2.93-3.07-4.3-3.77-13.32-6.8-27.68-.36-41.31-3.11-3.41-9.21-1.54-12.22,8.16-13.24s18-7.8,19.84-16.24c-13.62-2.33-25.91,1.83-38,7.41-4.44,2.06-9.47,0-12.08-4.42-2.87-4.86.93-6.76,3.85-9,2.32-1.75,5.15-2.93,7.23-4.91,3-2.89,5.57-6.26,8.85-10-10.63-1.84-21.94,5.93-24.41,14.93-.76,2.79-3,7.48-4.32,7.38-4.08-.31-8.82-1.59-11.74-4.24-1.72-1.56-1.88-7.39-.32-9.55,3.44-4.77,8.4-8.44,12.74-12.55,1.62-1.53,4.08-2.77,4.69-4.63,2.39-7.31,4.42-14.76,6.11-22.26.67-3,.11-6.29.11-10.25a34,34,0,0,0-3.83,1.45,48.84,48.84,0,0,0-4.76,3,58.37,58.37,0,0,0-22.11,33.21c-1.18,4.66-3.72,4.95-7.28,4.13-5-1.15-6.91-5.48-4.76-10.62,2.94-7,2.09-13.82-1.35-20.71a40.87,40.87,0,0,0-4.68,10c-1.37,3.91-2,8.23-4.07,11.7-7.2,12.07-3.77,29.68,7.82,37.85,34.71,24.46,66.08,52.3,90.64,87.4,4.1,5.85,11.12,9.67,16.79,14.43l1.34-1.41a26.92,26.92,0,0,0-10.92-17.93c-6.41-4.62-9.08-10.68-10.8-17.8-1.07-4.43.73-6.35,4.9-6.52C1177.21,415.93,1180.48,416,1183.75,416ZM1292.11,62.26l-2.22-1.08c-2.32,2.54-4.79,5-6.94,7.64-2.86,3.55-4.8,8.22-8.32,10.76C1266,85.86,1259.81,94,1254,102.76c-4.11,6.22-9.64,11.47-14.44,17.24a63.91,63.91,0,0,0-5.89,8c-16.28,27.26-25.53,57.33-34.79,87.38-1.59,5.16-2.34,10.58-3.48,15.87l2,1.22c7.69-7.51,16.8-14,22.81-22.73,14.9-21.55,28.78-43.85,42.32-66.3,13.3-22,23.17-45.64,28.2-71.06C1291.37,69,1291.65,65.63,1292.11,62.26ZM1130,804a15.84,15.84,0,0,0-2.26-1.74c-5.93-3.1-8.21-7.85-7.06-14.49s1.7-13.23,2.94-19.76c3.23-16.93,6.29-19.83,23.22-22.79,2.05-.35,4.28-.16,6.17-.89,5-1.92,9.3-.55,13.7,1.78,4,2.11,8.16,3.84,13.4,6.26-.54-7.31-1-13.24-1.39-18.72-5.35,2.6-10.37,5.31-15.65,7.39-1.27.5-4.38-.69-4.86-1.85a11.21,11.21,0,0,1-.38-7.1c1.83-6.07,5-11.82,6.2-18,1.41-7.1-1.34-13.2-6.07-16.69-4.42,25.38-21.4,41.35-40.8,55.53-6.57,4.81-13.26,9.5-19.43,14.79-12.66,10.87-25.72,21.55-27.4,40.14-.19,2.06-3.15,5.33-4.94,5.42-2.3.1-5.19-2-6.94-4-1.35-1.52-1.77-4.25-1.84-6.46-.22-6.9-.08-13.81-.08-22-12.45,15.44-17.45,33.13-24.92,49.44l15,6.48c4.14-16.57,17.11-20.11,30.72-21.63s26.39,1.22,34.09,14.07c6.86-8.47,6.81-20.59,18.28-24.35C1129.86,804.9,1129.87,804.57,1130,804Zm102.63-531.17c31-3.65,58-15.49,79.69-37.93,18.25-18.84,29.79-41.49,37.17-67.45C1304.86,186.83,1242.22,243.46,1232.65,272.87Zm20.13,108.5c7.11,9.12,12.7,16.38,18.43,23.53a9.14,9.14,0,0,0,3.63,2.26c8.26,3.47,16.51,7,24.84,10.23,11.51,4.53,23.24,8.07,35.86,7.5,16.34-.74,31.25-6.81,46.23-12.5,2.38-.9,4.15-3.44,7.45-6.3-18.61-2.29-32.68-11-47.1-18.95a229.08,229.08,0,0,0-22.61-10.58c-2-.82-4.69-.09-7,.23s-4.58,1.36-6.9,1.5C1288.56,379.37,1271.52,380.3,1252.78,381.37Zm13.29,320.42c3.07-8.47-.64-34.32-7.3-46.34-15.93-28.78-41.3-42.54-73.68-46.12-3.32,10-1.35,19.31,3.05,28.26,8.84,18,22.64,31.16,39.87,41.15C1240.91,686.21,1253.53,694.17,1266.07,701.79Zm130-227.18c.37-.83.75-1.65,1.12-2.47-2.07-2.75-3.8-5.86-6.28-8.17-7.32-6.83-14.91-13.38-22.46-20-8-7-17.31-10.28-28-10.75-11.22-.5-22.41-1.79-33.58-3.05-10.19-1.15-20.3-2.53-30.37.77a20.73,20.73,0,0,1-5.6.52,12.51,12.51,0,0,0-11.66,9.42c2.89,2.47,5.35,5,8.21,6.93,4.23,2.86,8.47,6,13.18,7.79a175.47,175.47,0,0,0,25.7,7.65c12.9,2.64,25.33,8.91,39.11,5.75a10,10,0,0,1,3.07.32ZM1230.44,55.39l-1.65-.5a19.09,19.09,0,0,0-1.81,2c-9.32,13.82-18.36,27.83-28,41.44-13.38,19-26.28,38.09-32.16,61a127.29,127.29,0,0,0-3.87,43.42,38.42,38.42,0,0,0,4.09-1.22,35.2,35.2,0,0,0,5-2.55c16.65-10.69,27.94-26.8,34.4-44.22,9.14-24.63,14.08-50.85,20.43-76.49C1228.76,70.81,1229.3,63,1230.44,55.39Zm14.07,277.52c.26,1.07.52,2.14.77,3.21,8.81.19,17.91,1.93,26.38.31,30.92-5.89,61.15-13.86,88-31.74,14.32-9.55,29.76-17.42,44.73-26a32,32,0,0,1,4.68-1.76l-2.09-2.75c-11.25,1.75-22.53,3.36-33.75,5.29a422.77,422.77,0,0,0-108.64,34.16c-1.78.84-3.07,2.86-4.37,4.5-2.31,2.9-4.12,6.28-6.77,8.8S1247.52,331,1244.51,332.91Zm5.43,31.43c.23.53.45,1.07.68,1.6,3.08,0,6.16.06,9.24,0,15.85-.31,31.82-2.1,47.52-.7,36.84,3.28,69.52-7.19,100-26.66a53.4,53.4,0,0,0,4.29-3.53,56,56,0,0,0-5.92-.7c-19.38.22-38.77.3-58.15.83-17.08.47-34.13,1.29-50.53,7.14a207.84,207.84,0,0,1-26.89,8C1261.08,352.21,1255.92,358.62,1249.94,364.34ZM1342.32,562l1.31-2.29c-3.06-2.49-6.25-4.84-9.16-7.49-18.8-17.13-41.4-27.84-64.43-37.61-10.63-4.51-19.65-10.3-26.43-19.83-1.82-2.56-5.94-3.48-9.62-5.5,0,1.94-.16,2.46,0,2.73a152.43,152.43,0,0,1,21.19,45.68,6.34,6.34,0,0,0,3.08,3.56c12.81,6,25.44,12.44,38.65,17.38C1311.56,564.09,1327,564.48,1342.32,562Zm33.21-340.27c-10.54,5.29-20.12,10.16-29.78,14.9-3.92,1.93-8.44,2.92-11.9,5.42-20.93,15.09-41.76,30.33-62.31,45.92-5.12,3.88-9.11,9.24-13.62,13.91l1.61,2.43c5.21-1.62,10.54-2.93,15.61-4.91,15.1-5.89,29.86-12.71,45.18-17.94,26.71-9.12,41.6-29.9,54.45-53C1375.71,226.8,1375.27,224.35,1375.53,221.71Zm-77.92-107.79c-17.4,11.59-70.4,104-73,126.36,29.43-18.61,49.06-44.18,61.12-75.76C1291.78,148.62,1296.81,132.37,1297.61,113.92Zm62.33,397.39c-12.33-7.94-24.21-15.6-36.12-23.23a15.94,15.94,0,0,0-3.36-1.6c-8.18-2.81-16.28-5.9-24.59-8.22-5.26-1.47-10.86-1.72-16.29-2.61-2.82-.46-5.91-.54-8.36-1.79-4.85-2.49-9.32-5.75-14.88-2C1261.69,503.77,1326.16,530.68,1359.94,511.31ZM1254.34,400l1.76-3.13q-4.21-3.19-8.42-6.37c-11.81-8.82-25.14-13.63-39.71-15.49-7.34-.94-8.89-3.48-7.82-11.63,3.07-.38,6.33-1.17,9.58-1.1,7.29.17,14.57,1,21.87,1.11,7.5.1,13.18-3.3,16.56-10.08-2.14-5.07-5.88-6.74-11.13-6.57-16,.53-32.06.77-48.09,1.16a3.09,3.09,0,0,0-2.2.8c-3.91,5.55-7.71,11.18-11.8,17.16,3.32,1,6.32,1.77,9.28,2.69,10.76,3.34,19.47,9.49,25.38,19.18,1.08,1.76,1.11,4.15,1.63,6.25-2.1,0-4.31.45-6.26-.07-8.83-2.37-21-.46-24.94,3.71l23.45,7c-.16-.5-.32-1-.47-1.49,3.41-.74,6.8-2,10.23-2.12C1226.93,400.5,1240.64,400.32,1254.34,400Zm49.22,244.25c-17.08-22-34.82-40.87-56.09-55.74-7.5-5.25-17.51-8.7-27.8-6.7A55,55,0,0,0,1240,620.76C1258.16,635.12,1280,639.64,1303.56,644.26ZM1245,541.59l1.46-1.35c-.2-2.44.26-5.19-.72-7.25-6.29-13.12-12.37-26.38-19.62-39a29.06,29.06,0,0,0-19.29-14c-3.68-.8-13-4.38-15.15-6.34-.21-.2-.79,0-1.2,0-3.74,14.51,4.64,37.68,16.64,45.89a4.5,4.5,0,0,0,2.27.86c8.84.29,14.81,5.85,21.13,11C1235,535.28,1240.1,538.27,1245,541.59Zm13.7-115.84c-12.33-9.71-36.39-17-50.26-15.25,2.32,6.76-1.4,9.87-7.14,12.09-4.81,1.86-9.41,4.28-14.39,6.59,4.24,4.61,7.22,8.11,10.52,11.29a12.26,12.26,0,0,0,5.12,2.75c2.5.69,5.31.37,7.73,1.22C1226.89,450.27,1249.68,441.69,1258.65,425.75ZM1023.17,842.53l-2.09-1.29c-1.94,2.42-3.48,5.39-5.89,7.16-8.5,6.24-16.56,14.54-26.17,17.41-11.79,3.52-17.54,13.81-27.84,18.48a6.76,6.76,0,0,0,3.7.86c24.36-1.24,48.73-2.45,73.08-3.86,2.09-.12,4.1-1.6,6.15-2.45l-.57-2.14c-4.16.45-8.34.81-12.49,1.38-8.7,1.18-10.91-.37-10.46-8.89C1021.05,860.28,1022.28,851.41,1023.17,842.53Zm157.61-328.27c-1.72,3.39-2.88,6.56-4.78,9.2-2.8,3.89-2.28,14.94,1.47,17.91,8.81,7,17.46,14.19,26.71,20.53,6.13,4.2,13.19,7,19.83,10.49l1.06-1.71C1214.76,548.57,1203.58,527.14,1180.78,514.26ZM724,357.61q20.93,19.9,42,40c7.17-13.77,4.83-27.84-5.85-37.51C750.11,351,736,350.06,724,357.61Zm154.43-23.07c-.12-.62-.25-1.24-.37-1.86L779,339.18l11.21,17.22c2.32-3.48,4.5-7.27,7.21-10.63,1.57-1.95,4-4.6,6-4.54a208.87,208.87,0,0,1,25.45,2.4c3.08.48,5.79,3,8.82,4.27,1.92.8,4.44,1.85,6.12,1.24,10.5-3.84,20.85-8.1,31.21-12.3A19.55,19.55,0,0,0,878.46,334.54ZM783.11,893.06c4.76-23-10.47-54.35-30.64-63.73C751.35,842.22,772.49,886.55,783.11,893.06ZM715.7,344.23l-.87-2.12c-4.82.44-9.64.87-14.46,1.35-4.23.41-8.67-.13-10.44,5.62-1.25,4.06-5.37,7.66-5.54,11.58-.66,15.38-.27,30.8-.27,45.64l14.47,6.36c-.8-1.81-1.1-2.72-1.57-3.52-13.92-23.85-6.84-37.68,11.9-57.28C711.27,349.4,713.44,346.78,715.7,344.23ZM1305,607.8l1-1.44c-15.75-21.78-64-50.74-75.85-50.24,2.94,4,5.07,7.84,8.06,10.79,12.68,12.51,29,19.23,44.45,27.26,3.78,2,7.3,4.43,10.94,6.67Zm-100.06-11c-5.88-16.44-11.84-32.6-27.81-43.52-.83,10.66-1.62,20.36-2.31,30.07-.09,1.37-.13,3.1.58,4.13C1179.2,593.1,1197.1,598.8,1204.92,596.84ZM1085,822.59c-3.47,0-5.72-.27-7.89,0-10.46,1.5-18.78,6.61-22.46,16.64-3.42,9.32-8.4,19.38,2.06,28.07,1.06.88.93,3.09,1.61,4.56a40.44,40.44,0,0,0,3,4.49C1064.49,855.89,1069.64,837.75,1085,822.59ZM775.26,698.91c-23.07-2.09-50.57,14.25-52.73,30.79l7.93-1.75c4.24-.92,8.53-1.67,12.72-2.82a15.68,15.68,0,0,0,5.92-2.9c7.06-6,13.93-12.29,20.86-18.47C771.37,702.51,772.75,701.21,775.26,698.91Zm356,79.65c8.77-3.34,15.58-6.48,22.71-8.48s14.4-2.81,21.62-4.14c-2.4-9.49-12.33-14.24-27.63-12.59a44.24,44.24,0,0,1-7.5,5.56c-1.24.82-3,1.59-3.44,2.79C1135.13,766.65,1133.58,771.76,1131.31,778.56Zm72.08-324.16v12.73c2.42.73,4.52,1,6.26,2,7.45,4.05,14.69,8.49,22.22,12.39,2.62,1.35,5.85,1.53,8.79,2.25C1233.41,467.09,1222.93,455.73,1203.39,454.4Zm-34.62,415.82c-1.34-3.69-2.45-7.7-4.31-11.33a5.94,5.94,0,0,0-4.72-2.55c-7.63.59-15.25,1.57-22.83,2.65-1.56.23-4,1.25-4.24,2.3-.42,2-.26,4.9,1,6.23C1140.35,874.82,1159.37,876.32,1168.77,870.22ZM902.87,618.43c11.36-2.77,26.3-29.36,25.3-45C916.64,587,900.33,597,902.87,618.43ZM759.32,328.19c-2.17,3.67-4.1,6.05-5,8.76s-3.15,6.48,1.37,8.56c11.55,5.29,18.46,14.43,22,26.6,5.21-8.29,4.8-15.25-.79-22.13-2.61-3.21-4.66-6.89-7.25-10.13C766.66,336.19,763.4,332.79,759.32,328.19Zm-12.58,65.35L716.9,415c8.87,5.76,24.32,2.32,31.24-5.83C752.93,403.53,752.24,397.82,746.74,393.54Zm359.35,472.3,5.05-1.92c-1.52-4.26-3.59-8-4.1-12s.66-8.35.7-12.54a10.25,10.25,0,0,0-1.65-5.25c-.62-1-2.59-2.12-3.42-1.79-5.34,2.07-10.52,4.52-15.74,6.84Zm23.6-47c-3.52,7.67-6.41,13.85-9.19,20.08-4.07,9.13-4,9.3,3,16.2,2.7-11.05,11.13-18.2,20.21-27Zm16.69-8.77,31.49,37.15c2.69-10.24.6-19.6-6.37-25.33s-16.42-8.32-24.79-12.27C1146.67,809.56,1146.49,809.87,1146.38,810Zm38.88,45.86c9.32-2.54,16.31-12.51,13.79-19.9-3.85-11.32-7.37-13.47-15.78-10.06C1183.94,835.92,1184.59,845.77,1185.26,855.89ZM723.15,431.79c-.68-.83-1.17-1.89-2-2.37-8.31-4.91-26.23.36-30.61,8.94a14.66,14.66,0,0,0-.75,1.72c-1.39,3.9-3,7.75-4,11.76-.37,1.51.7,3.39,1.46,6.54C698.06,443,698.06,443,723.15,431.79Zm-6.35-29.42L715.28,376l-13,3.63C699.73,395.43,706.55,405.53,716.8,402.37Zm83.86-44.7c-9,9.28-4.9,22.13.75,28.9,5.22,6.25,12.52,7.78,18.6,3.89C807.65,383.22,804,370.84,800.66,357.67ZM724.12,440c-1.54,8.35-3,16.08-4.38,23.79,2.49,1.13,4.66,2.49,7,3,1.47.34,4.47-.19,4.66-.9,1.57-5.94,3.64-12,3.61-18C735,442.18,730.52,439.43,724.12,440Zm328.35,442.12c1.42,3.09,1.94,6.44,3.9,8.11,6.37,5.42,14,7.73,22.49,7.64,5.79-.06,8.36-2.26,7.51-7.27Zm-8.39-15.36c-.48-5.35-.69-10.33-1.46-15.21-.31-1.92-1.56-4.83-2.9-5.17a8.19,8.19,0,0,0-6.49,1.71c-5,4.58-5.35,16.08-.89,22ZM686.94,481.52c.64,11,1.25,21.53,1.87,32.06l1.21,0c4.23-10.56,8.46-21.11,12.86-32.11ZM1074.39,879.7c6.33,2.41,15.06,2.11,19.53-1.39,1.57-1.23,3.08-4.23,2.64-5.91-.48-1.84-3-4-5-4.42C1084.05,866.47,1076.36,872,1074.39,879.7Zm74.27-100.81c-8.52,6.17-12.58,12-11.15,14.86,1.69,3.32,9.84,5.46,15.26,4.26-.65-3.06-1.3-6.08-2-9.11S1149.53,782.94,1148.66,778.89ZM808.13,400.79l-17.78-10.41c-3.45,7.69-2.78,11.89,1.77,14.14C798.55,407.71,804.76,406.28,808.13,400.79Zm-69-60.51c-.25-6.09-6.33-12.6-12.1-11.42-2.41.5-6.08,4.27-5.83,6.1.35,2.63,3.44,6.41,5.93,6.9C730.87,342.61,735.08,340.94,739.14,340.28ZM1162.91,886c6.29,3.4,15.77,1.51,20.31-4.25,3.42-4.36,3.18-7.63.08-11.14Zm18.62-85.79,2.48,1.64c2.64-3.16,6-6,7.72-9.58,2-4.25,2.66-9.16,3.49-13.85.25-1.43-.9-3.11-1.41-4.67-1.62,1.22-4,2.12-4.71,3.74-1.84,4.36-2.89,9-4.35,13.58C1183.76,794.12,1182.61,797.15,1181.53,800.19ZM720.16,475.89,701.62,461.5l-2,.83c.57,4-.14,8.9,2,11.66C705.31,478.81,714,479,720.16,475.89Zm24.4,302.47c2.69-11.26,5.29-22.17,7.9-33.08C740.3,761.2,734.71,773,744.56,778.36Zm371,92.65-9.59,9.65h24Zm45.45-77.9c10.47-4,15.89-10.59,15.66-19.58-2,.4-4.88.14-5.58,1.27C1167.48,780.66,1164.4,786.87,1161,793.11ZM823.77,401.64l-1.13,2c2.54,1.25,5.36,3.91,7.56,3.47,5.9-1.17,9.74-8.46,8.21-12.74Zm-8-41.56c4.18.47,7.34,1.4,10.26.91,1.46-.24,2.91-2.93,3.56-4.79.36-1.05-.66-3.58-1.52-3.83-1.68-.49-4.13-.46-5.46.48C820.26,354.48,818.57,357,815.72,360.08ZM683.15,434.73l12.79-10.45c-4-3.73-7.54-2.84-10.73.06C682.21,427.07,680,430.27,683.15,434.73ZM683,471.26l1.51-1.53c-.41-2-.81-4-1.22-5.93-.54-2.57.51-6.9-4.1-5.77-4.31,1.06-4.08,5.06-2.25,8.05C678.23,468.23,680.9,469.56,683,471.26ZM851.49,369.57l-2.83.76v14.39l1.91.95c1.53-1.76,4.45-3.64,4.3-5.25C854.54,376.73,852.71,373.18,851.49,369.57Zm325.87,446c-.53-7.4-2.77-8.62-8.29-5.29Z" transform="translate(-588.04 -30.94)"/><path d="M787.1,250.85l-16.27,5.25c2,12.42-4.47,26,7,38h-28.3c9.34-10,5.1-21.84,5.54-32.89.6-14.81.37-29.67,0-44.49-.12-5.35-1.59-10.67-2.46-16l17.88-10.58c.28,2.68.6,5.85,1,9.94,2-1.48,3.78-2.76,5.54-4,7.86-5.51,16.37-8,26-6.17,16.09,3.08,24.29,18.64,16.67,33.22-2.81,5.38-7.37,10.06-11.87,14.28-2.93,2.75-3.38,4.75-2.34,8.52,4.77,17.28,9.12,34.67,13.51,52.05a15.64,15.64,0,0,1-.09,7.83c-7.4-7.71-11.68-17.35-16.68-26.49C797.18,269.94,792.26,260.53,787.1,250.85Zm-16.12-2c11.89-3.87,22-8.92,29.91-17.6a29.59,29.59,0,0,0,5.94-10.11c2.92-8.65.14-16.65-6.13-19.67-8.32-4-25.3,1.84-29.19,10.12a7.4,7.4,0,0,0-.51,3C771,225.61,771,236.64,771,248.82Z" transform="translate(-588.04 -30.94)"/><path d="M1025.22,159.91c10.76-10.23,2-19.45.27-28.83-.2-1-2.3-2.43-3.53-2.45-10-.21-20.06-.26-30.08,0-1.47,0-3.43,1.83-4.22,3.31a45.73,45.73,0,0,0-2.84,8.26c-2,6.55-6.3,13.29,3.56,19.65H967c3-6.48,6.55-12.67,8.73-19.32,8.14-24.76,15.83-49.66,23.68-74.51.42-1.36.75-2.74,1.62-5.91l-22.3,8.19c-2.61-9.91,2.81-17.39,12.63-17.39,13.57,0,27.16.29,40.73-.14,5.66-.18,8.5,1.75,9.55,7.15.65,3.35,1.73,6.61,2.86,10.85l-22.3-8.34-1.59,1.29c11.73,32.37,17.48,66.68,33.11,98.16Zm-32.93-42.68h29.28l-14.18-44.75-1.45.08C1001.46,87.2,997,101.84,992.29,117.23Z" transform="translate(-588.04 -30.94)"/><path d="M616.77,294.11H588c8.94-7.72,6.46-17.25,6.55-26.15.2-18.39.17-36.78,0-55.16-.07-7,2.35-14.7-5.72-19.86l1-1.31h8.37c13.37,0,26.76.38,40.11-.17,6.12-.25,8.84,2,9.74,7.58a59.44,59.44,0,0,1,1.18,10.17c-12.1-7.31-24.79-9.06-38.46-7.82v32.08c.52,0,1.06.17,1.25,0,14.9-14.75,40.69-10,48.11,18.08,5.43,20.54-8.63,50.75-27.67,60.45-2,1-4.45,1.22-6.69,1.8l-.94-1.52c1.63-2,3.23-4,4.88-6,13.34-16.05,18.56-34.28,14.6-54.9-1.29-6.7-4-12.75-11.49-14A21.41,21.41,0,0,0,612,244.76c-1.08,1.25-1.43,3.4-1.52,5.17a102.71,102.71,0,0,0,0,12.53C611.22,273,607.23,284.23,616.77,294.11Z" transform="translate(-588.04 -30.94)"/><path d="M813.24,101.52c0-14.07,2.9-27.41,10.72-39.28,13.83-21,41.91-21.21,56.18-.55,22.47,32.51,9.38,83.77-26,101a9.58,9.58,0,0,1-7.9-.47C826.37,149.88,813,124.92,813.24,101.52Zm15.17-4.06c1.22,19.18,9.16,34.4,21.92,47.75,4.42,4.62,7.54,4,11.91.16,19.11-16.85,24.48-53.91,10.77-76.21C868.6,62,862.78,57.05,853.78,57.43c-9.21.4-15.5,5.64-18.48,13.68C832.16,79.58,830.64,88.65,828.41,97.46Z" transform="translate(-588.04 -30.94)"/><path d="M966,51.92c-6.68,16.76-13.41,32.17-19,48s-10,32.24-15.21,49.15c15.93,4.72,26.11-2.45,33.5-16.62,4,14.38-11.94,28.15-34.06,30.76.91,4.34,1.81,8.64,2.79,13.3-5.84,0-6.61-4.33-7.37-7.54-1.42-6-4.69-9.78-9.81-13.38-12.33-8.66-18-21.8-20.06-36.24-2.39-17.06-.36-33.83,7.34-49.45,6.17-12.52,15.27-21.42,30.43-21.4a14.34,14.34,0,0,1,5,.51C948.05,52.28,956.48,56.09,966,51.92Zm-40.63,92.67c5.53-16.94,11-33.08,16-49.36a200.49,200.49,0,0,0,5.86-23.64c1.63-9-4.1-14.41-13.16-13.26-8.84,1.13-13.47,7.22-16.28,14.72a92.83,92.83,0,0,0-4.52,47.45A43.33,43.33,0,0,0,925.32,144.59Z" transform="translate(-588.04 -30.94)"/><path d="M1017.52,295.71l2.29,13c-6.22-1.71-6.71-6.54-7.59-10.3a9.65,9.65,0,0,0-6.5-7.51c-3.79-1.51-7.44-3.36-9.33,3.32l-1.5-.86-7.5-29.55,1.44-.88,20.48,22c4.41-14,8.26-26.17,12.19-38.64-4.47-2.23-9.22-4.32-13.67-6.91-7.28-4.23-12.82-10.1-14.84-18.53-4.49-18.64,8.54-32.83,29.4-31.66,5.33.3,10.51,2.68,15.85,3.28s10.53.13,16.69.13c-4.44,7.44-8.72,13.78-12.14,20.56s-6.08,14.13-9.3,21.78c17.4,9.59,26.18,23.66,19.29,43.05C1047.24,293.48,1033.34,296.54,1017.52,295.71Zm10.08-63.41c2.22-8,5-15.2,6-22.69.48-3.46-1.34-8.39-3.86-10.88-3.86-3.8-16-1.17-20.14,3.28-4.32,4.6-4.73,12.88-.62,18.47C1013.31,226.35,1019.18,230,1027.6,232.3Zm.66,15.64c-3.82,12.44-7.18,22.87-10.08,33.42-.4,1.46,1,4.57,2.35,5.14,5.2,2.23,14.66-1.35,19-6.59,4.2-5,5.37-12.62,1.61-18C1038,257.26,1033.5,253.49,1028.26,247.94Z" transform="translate(-588.04 -30.94)"/><path d="M738.85,191.55V224l-1.54.52a41.25,41.25,0,0,0-2.8-5.31c-3.94-5.5-7.19-11.94-12.27-16.11-8.67-7.1-19.13-4.5-25.36,4.87-4.71,7.09-8,18.52-8.1,28.77,9.45,1.87,18.25,1.75,25-7.27v25.69c-6.94-7.34-14.55-11.57-25.36-7.94C689,259.15,691,271,698.83,280.81c6.39,8,18.08,8.57,26.11.8,3.91-3.79,6.29-9.17,9.26-13.89a52.82,52.82,0,0,0,2.52-5.12l1.73.38v31.14c-12.06,0-24.17.68-36.16-.22-8.74-.65-15.12-6.56-20.17-13.63C666.91,259,666.85,227.37,682,206c6.73-9.53,15.61-14.75,27.56-14.47C719.1,191.73,728.69,191.55,738.85,191.55Z" transform="translate(-588.04 -30.94)"/><path d="M949.24,256.9c-5.18-10.52-13.38-12.52-23.78-9.81.58,11.51,2.48,22.7,9.34,32.37,6.66,9.4,19.19,10.32,27.79,1.67,3.7-3.73,5.92-8.95,8.73-13.54,1-1.61,1.73-3.36,2.59-5l1.66.44v32.24c-13.4-.76-27.21-.37-40.5-2.83-5.87-1.09-11.83-7.11-15.75-12.38-15.69-21-15.39-52.78-.22-74.14,6.76-9.52,15.67-14.66,27.62-14.37,9.56.24,19.14.05,29.13.05v32.5l-1.62.49a33.71,33.71,0,0,0-2.7-5.45c-4.12-5.63-7.57-12.2-12.87-16.4-8.31-6.58-18.58-4-24.42,4.89-5.73,8.73-8,18.58-8.67,29.3,9.46.86,18.88,3.19,23.72-9.67l1.32,2.06v25.95Z" transform="translate(-588.04 -30.94)"/><path d="M829.31,237.42c.36-12.11,2.93-23.6,9.41-34C852,182.22,879.47,182,893,203c19.93,30.83,7.76,76.92-24.94,93.6-2.06,1.06-6,.95-7.79-.37C840.76,281.57,828.62,262.81,829.31,237.42Zm40.63,47.24c2.8-2.36,5.74-4.38,8.12-6.93,15.52-16.61,19.33-46.7,8.59-66.8-4.19-7.83-9.81-13.59-19.55-13s-14.87,6.85-18.2,15C838.68,237.88,847.25,267.85,869.94,284.66Z" transform="translate(-588.04 -30.94)"/><path d="M1065,160.25c.81-6.61,2-12.24,2.08-17.88q.32-37.61,0-75.2c0-5-1.53-10.06-2.47-15.88a11.29,11.29,0,0,1,2.93-.48c11.28-.06,22.56.13,33.84-.12,4.48-.1,5.86,1.5,5.59,5.82-.32,5.23-.08,10.5-.08,16.41l-22.26-14.74V151.3c17.62,1.79,29.51-8.44,41.27-19l1.64,1.1c-2.67,8.56-5.3,17.14-8.1,25.66-.21.62-1.7,1.14-2.59,1.15C1099.12,160.27,1081.4,160.25,1065,160.25Z" transform="translate(-588.04 -30.94)"/><path d="M744.82,160.26c1-6.16,2.37-11.16,2.41-16.18q.35-37.61,0-75.21c0-5.63-1.35-11.25-2.18-17.7a19.44,19.44,0,0,1,3.42-.37c11.08,0,22.15.1,33.22-.09,4-.08,5.66,1.13,5.42,5.35-.32,5.3-.08,10.64-.08,16.87L764.9,58.17v93.19c17.36,1.8,29.4-8.48,41.26-19.17l1.54,1.21c-2.6,8.43-5.15,16.89-7.91,25.26-.26.78-1.94,1.53-3,1.53C779.14,160.28,761.45,160.26,744.82,160.26Z" transform="translate(-588.04 -30.94)"/><path d="M826.63,715.48c-2.78,2.23-5.65,4.49-8.48,6.8a6.73,6.73,0,0,0-2.06,2.13c-5.32,12.48-8.47,25.49-5.3,38.91,1.15,4.89,5.43,9,8,13.61,1.08,1.93,2.17,4.3,1.94,6.32-.12,1-3.14,2.42-4.87,2.46-15,.33-26.86-5.89-34.51-18.66-7.28-12.14-5.68-23.91,1.19-36.52,6.07-11.17,13.24-19.21,25.69-22.37C819.13,705.39,819.09,705.19,826.63,715.48Z" transform="translate(-588.04 -30.94)"/><path d="M855,532.1c3.27.88,5.27,1.79,7.29,1.87,4.68.18,9.38.08,14-.15,1.83-.09,3.65-1.29,5.42-1.18,2.13.14,5.07.55,6,2,.81,1.19,0,4.61-1.28,5.93-5.09,5.28-9.17,11.54-16.85,14.23-4.49,1.57-8.12,5.66-12,8.72-2.63,2-5,4.53-7.74,6.32-1.48.94-4.76,1.66-5.29,1a8.16,8.16,0,0,1-1.55-6.1c2.47-9.61,5.26-19.13,8.27-28.59C851.81,534.4,853.9,533.2,855,532.1Z" transform="translate(-588.04 -30.94)"/></svg>