<svg xmlns="http://www.w3.org/2000/svg" xmlns:xlink="http://www.w3.org/1999/xlink" viewBox="0 0 1096.87 1096.93"><defs><style>.cls-1,.cls-3{fill:none;stroke:#3854a2;stroke-width:16.93px;}.cls-1,.cls-6{stroke-linejoin:round;}.cls-2{fill:url(#Névtelen_színátmenet_2);}.cls-4{fill:#931913;}.cls-5{fill:#fce1e1;}.cls-6{fill:#050506;stroke:#fce1e1;stroke-width:1.06px;}</style><radialGradient id="Névtelen_színátmenet_2" cx="-170.23" cy="927.3" r="43.96" gradientTransform="matrix(3.78, 0, 0, -3.78, 1191.13, 4052.51)" gradientUnits="userSpaceOnUse"><stop offset="0" stop-color="#be1818"/><stop offset="0.72" stop-color="#b91817"/><stop offset="1" stop-color="#ab1916"/></radialGradient></defs><title>securiteam</title><g id="Layer_2" data-name="Layer 2"><g id="Réteg_1" data-name="Réteg 1"><path id="path4568" class="cls-1" d="M930.51,928.86a538.15,538.15,0,0,1-680.67,69.45C35.06,855.73-49,581.21,49.21,342.84s351.17-374.09,604.06-324,435.14,280.47,435.14,490.13c0,123.87-97.6,171.83-171.63,212.77-120.59,66.71-241.07,72.56-368.31,76-130.91,3.51-373.81-103.84-373.81-103.84"/><path id="path837" class="cls-2" d="M714.6,548.46a166.14,166.14,0,1,1-332.27,0h0a166.14,166.14,0,0,1,332.27,0Z"/><path id="path839" class="cls-3" d="M174.66,403.09a724.79,724.79,0,0,1,747.61,0"/><path id="path835" class="cls-4" d="M573.49,589.59c-12.71,7.5,57.73,97.12,44.34,103.36s-39-104.25-53-99.34,37.38,106.35,23,109.89S570.25,593.75,555.6,595.89s15.59,111.49.8,112.2,4.46-111-10.33-111.74-6.8,112.34-21.45,110.2,26.37-108,12-111.58-28.92,108.87-42.87,104S541,598,527.64,591.8,477.71,693,465,685.53s66.35-89.87,54.46-98.56-69,89.69-80,79.89,82.88-75.4,72.93-86.21-85.46,74.71-94.29,63,96.22-58,88.61-70.54-98.63,56.85-105,43.67,105.87-38.43,100.88-52.16-108,36.81-111.59,22.66,111.44-17.35,109.27-31.78-113.21,15.35-113.93.78,112.74,4.4,113.47-10.17S385.76,539.41,387.94,525s109.7,26,113.3,11.82-110.56-28.47-105.57-42.21S498.12,541.14,504.46,528s-102.8-49.18-95.18-61.69,91.26,65.34,100.09,53.62-91.08-68-81.13-78.78,76.56,81.61,87.54,71.82-75.86-84.17-64-92.85,58.93,94.75,71.63,87.25S465.71,410.21,479.11,404s39,104.25,53,99.34-37.38-106.35-23-109.89S526.68,503.17,541.33,501s-15.59-111.49-.8-112.2-4.46,111,10.33,111.74,6.8-112.34,21.45-110.2-26.37,108-12,111.58,28.92-108.88,42.87-104S555.9,498.89,569.29,505.12s49.93-101.22,62.64-93.72S565.58,501.27,577.48,510s69-89.69,80-79.89-82.88,75.39-72.93,86.2,85.47-74.7,94.29-63-96.22,58-88.61,70.54,98.63-56.85,105-43.66-105.87,38.42-100.88,52.16,108-36.81,111.59-22.66S594.46,527,596.63,541.44s113.21-15.36,113.93-.79-112.74-4.39-113.47,10.17S711.17,557.51,709,571.94s-109.71-26-113.31-11.82,110.56,28.48,105.57,42.21S598.81,555.79,592.47,569s102.8,49.17,95.18,61.68S596.39,565.32,587.57,577s91.07,68,81.12,78.78S592.13,574.2,581.16,584s75.86,84.17,64,92.86-58.93-94.75-71.63-87.26Z"/><g id="g826"><path id="path869" class="cls-5" d="M583.24,454.58l-9.32,25.61a74.65,74.65,0,0,1,44.61,44.61l25.61-9.32A101.9,101.9,0,0,0,583.24,454.58Z"/><path id="path861" class="cls-5" d="M601.66,404l-14.21,39a114.2,114.2,0,0,1,68.27,68.27l39-14.21A155.79,155.79,0,0,0,601.66,404Z"/></g><circle id="path859" class="cls-6" cx="548.47" cy="548.46" r="62.3"/></g></g></svg>