<svg xmlns="http://www.w3.org/2000/svg" viewBox="0 0 995.05 1000"><defs><style>.cls-1{fill:#c96754;}.cls-1,.cls-2,.cls-3{fill-rule:evenodd;}.cls-2{fill:#af5c4e;}.cls-3{fill:#fff;}</style></defs><title>EPK</title><g id="Layer_2" data-name="Layer 2"><g id="Layer_1-2" data-name="Layer 1"><path class="cls-1" d="M88.12,497.73c0,226,183.91,409.95,410,409.95s410-183.91,410-409.95-183.91-410-410-410-410,183.91-410,410Z"/><path class="cls-2" d="M124.15,715.08a13.78,13.78,0,0,0-12.16.53l-38.14,19A13.43,13.43,0,0,0,66.26,744c-.3-.6-.74-1.47-1.31-2.63l-1.31-2.62q-1.71-3.4-5.38-10.11t-5.39-10.12q-4.65-9.33-4.14-16.36.65-8.38,8.68-12.4,8.93-4.45,16.63,3.42-3.87-13.46,8-19.4,8.92-4.46,16.48-.66,6.93,3.5,12,13.53c1,2,2.47,5.14,4.38,9.31s3.36,7.26,4.38,9.3l2.77,5.56,2.11,4.22ZM72.28,724.8l11.15-5.56q-1.77-4.17-3.39-7.39-4-8-7.21-11.2-5.28-5.28-11.18-2.33-8.84,4.41-1.35,19.4,2.54,5.07,4.77,6.81,3.06,2.36,7.21.27Zm31.32-15.64c3.3-1.64,5-3.89,5.1-6.74q.12-3.13-2.89-9.15-8-16-18.71-10.71-6.84,3.41-6.36,10.85.32,5.16,4.6,13.72.69,1.39,2.31,4.12t2.32,4.1l.25.5,13.38-6.69Z"/><path class="cls-2" d="M73.3,576.7a13.62,13.62,0,0,0-11.95-2.35l-35,8.1A64.91,64.91,0,0,1,15.71,584q6.41.42,11.58,1.12l44.67,6a7.62,7.62,0,0,0,2.53-.2,8.35,8.35,0,0,0,2-.63l2.6,11.22a7.84,7.84,0,0,0-2,.25,6.36,6.36,0,0,0-2.34,1L37.18,627.82q-4.83,3.23-9.91,6.1a44.57,44.57,0,0,1,10.23-3.48l35-8.1a13.64,13.64,0,0,0,9.68-7.46L86.34,633a13.59,13.59,0,0,0-12-2.36l-41.54,9.62a13.47,13.47,0,0,0-9.57,7.35l-4.57-19.72a3.33,3.33,0,0,0,2.07.29,1.54,1.54,0,0,0,.59-.27l36.5-24.38a78.37,78.37,0,0,1,11-5.87,81.09,81.09,0,0,1-12.44-.4L13,591.53a.27.27,0,0,1-.14,0,1.89,1.89,0,0,0-.71,0c-.21.12-.75.45-1.59,1l-4.6-19.87a13.41,13.41,0,0,0,11.81,2.31l41.53-9.62q6.93-1.6,9.72-7.3L73.3,576.7Z"/><path class="cls-2" d="M2.09,478.21a12.85,12.85,0,0,0-2.09-7l21.2.34A19.69,19.69,0,0,0,11,481.7q-2.47,5.63-2.62,15.08-.08,5.21,1,7.52a5.8,5.8,0,0,0,5.69,3.45l13.81.23.21-12.71q.13-8.61-5.58-13.4l18.36.29q-5.87,4.62-6,13.22l-.21,12.71,16.7.27q4.54.08,6.24-3.56,1.14-2.43,1.23-8.19.16-10.46-2.15-16Q54.9,474,47.1,469.82l22,.36a13.34,13.34,0,0,0-2.26,7.48L66.1,523.1a13.61,13.61,0,0,0-11-5.18l-42.63-.69a13.48,13.48,0,0,0-11.06,4.82l.71-43.84Z"/><path class="cls-2" d="M20.85,338.59,12.61,321q-1.69-3.57-.84-6a3.79,3.79,0,0,1,1.88-2.21,3.33,3.33,0,0,1,2.72-.21q2.1.74,2.9,5.48l2.81,17-1.23,3.5ZM35.3,317.36a12.82,12.82,0,0,0,.22-7.3l20,7a19.7,19.7,0,0,0-12.87,6.41Q38.55,328,35.42,337q-1.72,4.9-1.46,7.44c.27,2.47,1.7,4.15,4.31,5.07l13,4.57,4.21-12q2.85-8.13-1.06-14.48l17.32,6.08q-7,2.52-9.86,10.64l-4.21,12,15.76,5.53q4.29,1.51,7-1.4,1.84-1.95,3.75-7.38,3.47-9.87,3-15.87-.54-7.14-6.61-13.56l20.76,7.28a13.35,13.35,0,0,0-4.51,6.38l-15,42.89a13.61,13.61,0,0,0-8.83-8.4L32.8,357.66a13.47,13.47,0,0,0-12,1.08L35.3,317.36Z"/><path class="cls-2" d="M114.67,298a13.68,13.68,0,0,0-7-10L71,266.19a13.57,13.57,0,0,0-12-1.36l2.32-3.64c.53-.81,1-1.52,1.33-2.12q1.79-3,5-9.25t5-9.25q5.43-9.13,12.24-12,7.44-3.15,15.53,1.67,8.64,5.16,8.66,15.53,0,4.05-4,14.11c-.22.6-.66,1.73-1.31,3.36-1.43,3.57-2.13,5.92-2.13,7q0,3.14,3.59,5.28l7.2,4.28a13.62,13.62,0,0,0,12.09,1.42l-10,16.75ZM76.39,258.3l18.47,11q.18-4.14,3.25-11.9,1.4-3.48,1.79-4.59,3.38-9.31-4.35-13.92-10.2-6.07-17.51,6.2-6.24,10.47-1.65,13.21Z"/><path class="cls-2" d="M106.35,182.23l-1.56-19.32c-.22-2.62.22-4.59,1.31-5.89a3.77,3.77,0,0,1,2.54-1.41,3.3,3.3,0,0,1,2.62.75c1.14,1,1.41,3,.79,6.15l-3.32,16.88-2.38,2.84Zm17-10a13.52,13.52,0,0,0,5.23,10.86l32.73,27.33A13.65,13.65,0,0,0,173,213.74l-12.5,15a13.64,13.64,0,0,0-5.32-11L122.44,190.4a13.45,13.45,0,0,0-11.63-3.2l12.5-15Z"/><path class="cls-2" d="M210.9,160.82q4.66,5.35,11,5.12l-14.62,12.75q1.06-6.25-3.6-11.61l-27-31q-4-4.56-8.26-.83-8.67,7.56-2.55,21.92l-15.43-17.69a8.72,8.72,0,0,0,5.46-1.84l32.3-28.16a8.43,8.43,0,0,0,2.6-5.19L206.24,122q-13.29-8.11-22-.49c-2.87,2.51-3,5.29-.33,8.33l27,31Z"/><path class="cls-2" d="M267,58.09a12.85,12.85,0,0,0,5-5.37l10.51,18.41a19.72,19.72,0,0,0-13.92-3.59q-6.09.75-14.3,5.44-4.53,2.58-6,4.68-2.13,3-.07,6.65l6.85,12,11-6.3q7.47-4.27,8.68-11.63l9.11,15.93q-7-2.68-14.43,1.58l-11,6.31,8.28,14.49q2.25,4,6.24,3.57,2.67-.27,7.67-3.13,9.09-5.19,12.67-10,4.27-5.73,3.9-14.58l10.91,19.11a13.38,13.38,0,0,0-7.59,1.87L261,136.05a13.61,13.61,0,0,0-1.17-12.13l-21.14-37a13.49,13.49,0,0,0-9.79-7L267,58.09ZM242.2,64.66,247.47,46q1.07-3.8,3.28-5.07a3.79,3.79,0,0,1,2.87-.43,3.34,3.34,0,0,1,2.2,1.62q1.1,1.93-1.41,6l-9,14.67-3.22,1.84Z"/><path class="cls-2" d="M339.06,98.24,331.9,77q13.77,10.77,25.88,6.69,6-2,8.59-6a10.57,10.57,0,0,0,.94-9.62,10.52,10.52,0,0,0-4.9-6.21,21.25,21.25,0,0,0-8.28-1.88q-1.08-.07-10-.09a45.92,45.92,0,0,1-9.87-.91q-7.72-1.72-10.33-9.49a14.82,14.82,0,0,1,2.45-14.53q4.58-6.06,13.46-9a43.5,43.5,0,0,1,7.26-1.51,45.44,45.44,0,0,0,7.26-1.52,5.5,5.5,0,0,0,3.87-3.73l6.51,19.32q-10.69-9.94-22.56-5.94a15.45,15.45,0,0,0-7.37,4.78,7.76,7.76,0,0,0-1.49,7.81,8.12,8.12,0,0,0,3.7,4.56q2.43,1.44,13.26,1.59c1.38,0,3,0,4.84.1q17.12.44,21.28,12.82,3.12,9.28-1.87,16.25-4.53,6.38-15,9.89a39.33,39.33,0,0,1-7.32,1.39A40.15,40.15,0,0,0,344.93,93q-3,1-5.87,5.2Z"/><path class="cls-2" d="M439.09,15.74a3.22,3.22,0,0,0,.26-1.83q-.44-3.11-6.93-2.21-18.27,2.49-23.1,17.45l-3-22a8.37,8.37,0,0,0,5.61,1.45l43.48-6L428.56,60.68a3.52,3.52,0,0,0-.44,2q.4,3,8.45,1.88,19.85-2.72,26-17.87l3,22.06a10.18,10.18,0,0,0-6.29-1.29l-46.87,6.41,26.64-58.08Z"/><path class="cls-2" d="M555.64,69.55a13.59,13.59,0,0,0,6-10.64l3.15-35.75a64.71,64.71,0,0,1,1.81-10.64q-2.38,6-4.66,10.66L542.37,63.8a7.65,7.65,0,0,0-.6,2.47,7.84,7.84,0,0,0,0,2l-11.48-1a8.27,8.27,0,0,0,.4-2,6.58,6.58,0,0,0-.2-2.53L518.25,19.34Q516.69,13.76,515.54,8a45.22,45.22,0,0,1,.13,10.81l-3.15,35.75a13.61,13.61,0,0,0,4.09,11.52l-18.52-1.63a13.64,13.64,0,0,0,6-10.63l3.74-42.48a13.47,13.47,0,0,0-4-11.37l20.16,1.77A3.35,3.35,0,0,0,523,3.65a1.36,1.36,0,0,0,.08.65l11.85,42.25a80.12,80.12,0,0,1,2.18,12.27,81.79,81.79,0,0,1,4.23-11.71L560.27,7.57s0-.07.07-.13a2.08,2.08,0,0,0,.23-.66c-.05-.25-.2-.86-.45-1.82l20.32,1.79a13.39,13.39,0,0,0-5.86,10.5l-3.74,42.48q-.63,7.08,3.92,11.5l-19.12-1.68Z"/><path class="cls-2" d="M670.7,32a12.88,12.88,0,0,0,7.3.1l-6.68,20.12a19.63,19.63,0,0,0-6.63-12.76q-4.62-4-13.6-7-4.94-1.63-7.47-1.33c-2.46.31-4.12,1.77-5,4.4l-4.35,13.1,12.06,4q8.16,2.72,14.46-1.3L655,68.74q-2.64-7-10.81-9.68l-12.06-4L626.88,70.9c-1,2.87-.45,5.22,1.52,7q2,1.81,7.44,3.62,9.93,3.3,15.92,2.75,7.13-.66,13.45-6.84l-6.93,20.88a13.42,13.42,0,0,0-6.46-4.4L608.69,79.61a13.63,13.63,0,0,0,8.25-9l13.43-40.47a13.45,13.45,0,0,0-1.28-12L670.7,32ZM649.24,17.91l17.4-8.54c2.36-1.16,4.35-1.48,6-.94a3.74,3.74,0,0,1,2.23,1.84,3.35,3.35,0,0,1,.27,2.72q-.71,2.12-5.43,3l-16.92,3.1-3.52-1.17Z"/><path class="cls-2" d="M709.66,108.56a13.7,13.7,0,0,0-1.31,12.14l-16.85-9.82a13.61,13.61,0,0,0,9.92-7.08L722.88,67a13.5,13.5,0,0,0,1.21-12l2.66,1.55,2.67,1.55Q734,60.74,741.92,65l6.93,3.72c.66.34,1.33.71,2,1.11q19.67,11.45,10.85,26.57-5.61,9.64-19.14,6.57,3.67,4.35,4.21,8.3.47,3.39-1.27,8.86a112.24,112.24,0,0,0-5,13.06,10.72,10.72,0,0,0,.82,6.76l-9.91-5.77a3.78,3.78,0,0,1-1.16-4.38,30,30,0,0,1,2.83-5.89,47.36,47.36,0,0,0,3.06-6q2.65-7.25,0-12.39-2.35-4.61-9.93-9c-.78-.46-2-1.11-3.62-2s-2.84-1.5-3.61-2l-9.32,16Zm19.7-33.82L722.7,86.18q4,2.66,7,4.42,8,4.65,12.53,5.51,7.25,1.38,10.78-4.68,5.3-9.09-9.49-17.7-5-2.92-7.9-3-3.85-.14-6.29,4Z"/><path class="cls-2" d="M825,124.21c-1,.52-1.51.82-1.64.91a2.23,2.23,0,0,0-.35.61.18.18,0,0,1-.06.13l-11.42,42.29a72.31,72.31,0,0,1-4.67,12.91,80.58,80.58,0,0,1,7.47-9.4l21.05-23.21A13.49,13.49,0,0,0,839,136.9l13.77,12.49a13.49,13.49,0,0,0-11.08,4.77l-33,36.45a9.57,9.57,0,0,0-2.48,3.9l-10.25-9.29.16-.1a4.1,4.1,0,0,0,1.53-.86,2.6,2.6,0,0,0,.36-.62c0-.07,0-.12.06-.14l12.58-46.81q1.09-4.11,4-12a63.84,63.84,0,0,1-6.66,8.65l-23.75,26.19a13.62,13.62,0,0,0-3.7,11.65l-13.77-12.49a13.61,13.61,0,0,0,11.17-4.88l28.64-31.58a13.46,13.46,0,0,0,3.68-11.49L825,124.21Z"/><path class="cls-2" d="M847.82,247.09q-9-12.54-5-24.57,3.38-10.14,15.37-18.74T881,195.25q12.64.12,21.73,12.78t5,24.57q-3.37,10.14-15.33,18.71t-22.74,8.53q-12.68-.09-21.76-12.75Zm6.15-4.4q11.25,15.69,32.49.45,8.73-6.27,12-13,4.34-9-1.89-17.64-11.34-15.8-32.54-.59-8.7,6.24-12,13.15-4.27,9,1.92,17.68ZM904.3,188.6a4.63,4.63,0,0,1,3.93-.65,5.94,5.94,0,0,1,3.58,2.38,5.49,5.49,0,0,1,1.06,4,4.78,4.78,0,0,1-2,3.41q-4.17,3-7.4-1.5a6.08,6.08,0,0,1-1.25-4.2,4.72,4.72,0,0,1,2.06-3.49ZM915,203.49a4.69,4.69,0,0,1,3.88-.72,5.63,5.63,0,0,1,3.53,2.3,5.76,5.76,0,0,1,1.09,4.1,4.67,4.67,0,0,1-1.94,3.46,4.81,4.81,0,0,1-3.93.88,5.81,5.81,0,0,1-3.54-2.48,5.67,5.67,0,0,1-1.16-4.11,4.79,4.79,0,0,1,2.07-3.43Z"/><path class="cls-2" d="M949.84,291.89a13.5,13.5,0,0,0-12.05-.14l-19.73,8.66,31.2,10.34c2.41.8,4.27.92,5.57.34,1.09-.47,1.76-1.55,2-3.23l8.06,18.35q-1.65-1.15-11.29-5.48l-.12-.05-18.16-6.39-22.43,28.56a31.68,31.68,0,0,0-6,12.27l-7.55-17.2a6.85,6.85,0,0,0,4.88,0,10.86,10.86,0,0,0,3.79-3.28l18.82-23.77-17.75-6.51-10.34,4.54a13.64,13.64,0,0,0-8.18,9l-7.84-17.84a13.6,13.6,0,0,0,12.19.1L934,283a13.45,13.45,0,0,0,8-9l7.84,17.85Z"/><path class="cls-2" d="M981.61,385.06a13.51,13.51,0,0,0-11.87-2.12L928.41,393.4a13.65,13.65,0,0,0-9.56,7.55l-4.78-18.89a13.64,13.64,0,0,0,12,2.11l41.33-10.46a13.48,13.48,0,0,0,9.42-7.54l4.79,18.89Z"/><path class="cls-2" d="M994.19,512.77a13.5,13.5,0,0,0-10.75-5.45l-21.53-.95,23.43,23.06c1.81,1.79,3.42,2.71,4.85,2.78,1.18,0,2.26-.63,3.24-2l-.89,20q-1-1.76-7.7-9.89l-.09-.11-13.46-13.75-32.75,15.71a31.54,31.54,0,0,0-10.8,8.36l.82-18.78a6.79,6.79,0,0,0,4.38,2.15,10.67,10.67,0,0,0,4.85-1.27l27.38-13-13-13.69-11.29-.49a13.61,13.61,0,0,0-11.32,4.48l.86-19.47a13.64,13.64,0,0,0,10.88,5.48l42.6,1.87a13.48,13.48,0,0,0,11.19-4.51l-.86,19.47Z"/><path class="cls-2" d="M934.33,592.26q-5.26-3.56-7.87-4.21a7.84,7.84,0,0,0-6.24,1.06l4.48-17.69q3.1,6.12,11.24,11.84L977,612.17a3.32,3.32,0,0,0,1,.43,5.28,5.28,0,0,0,3.14-.32l-4.29,16.9a4.16,4.16,0,0,0-2.18-1.59,4.62,4.62,0,0,0-1.53-.07l-49.29,3.9q-10.08.81-15.47,4.46l4.57-18a7.88,7.88,0,0,0,5.08,4.28q2.52.65,8.75,0,1.93-5.92,4.19-14.86t3.37-15Zm6.64,4.8q-2.31,7.47-3.52,12.22t-2.71,12.27l36.72-3L941,597.06Z"/><path class="cls-2" d="M901.54,680.64a13.72,13.72,0,0,0-12.2-.43l8.56-17.5a13.63,13.63,0,0,0,7.79,9.37L944,690.82a13.47,13.47,0,0,0,12.06.34c-.31.62-.76,1.55-1.35,2.76l-1.36,2.77q-2.34,4.77-6,13l-3.21,7.19c-.29.67-.61,1.37-1,2.09q-10,20.44-25.71,12.75-10-4.91-7.94-18.61-4.08,4-8,4.79c-2.22.48-5.2.27-8.92-.62a114.33,114.33,0,0,0-13.4-4,10.76,10.76,0,0,0-6.67,1.31l5-10.3a3.76,3.76,0,0,1,4.28-1.47,29.88,29.88,0,0,1,6.08,2.39,47.38,47.38,0,0,0,6.22,2.62q7.4,2.13,12.35-.92,4.41-2.69,8.27-10.56.59-1.21,1.68-3.75c.72-1.68,1.28-2.93,1.68-3.74l-16.62-8.14Zm35.16,17.21L924.8,692q-2.35,4.2-3.9,7.34-4.06,8.31-4.59,12.9-.84,7.32,5.46,10.41,9.45,4.62,17-10.74c1.7-3.47,2.52-6.18,2.45-8.11-.1-2.56-1.59-4.56-4.48-6Z"/><path class="cls-2" d="M366.06,953.41H359.7a8.75,8.75,0,0,0-5.19,1.45v-9.33a13.37,13.37,0,0,0,5.26,1.22q8.55,0,8.55-8.73a10.21,10.21,0,0,0-1-4.48h8.83a21.75,21.75,0,0,0-1,7.06v46.78A13.33,13.33,0,0,0,380,998.27h-18.8q4.86-3.91,4.87-10.88v-34Z"/><path class="cls-2" d="M456.35,963.91q11.72,4.37,11.71,16.16,0,10.09-7.85,15.14-6.82,4.38-18.35,4.37t-18.3-4.42q-7.85-5-7.85-15.09,0-11.79,11.68-16.16-9-3.75-8.95-13.36,0-8.79,7.17-13.21,6.13-3.8,16.26-3.8t16.3,3.8q7.21,4.41,7.22,13.21,0,9.56-9,13.36Zm-14.46,3.84q-7.39,0-11.8,2.81a10.81,10.81,0,0,0-5,9.72q0,6.48,5,9.72,4.41,2.87,11.8,2.86T453.68,990q5-3.24,5-9.72a10.72,10.72,0,0,0-5.09-9.67q-4.39-2.85-11.74-2.86Zm0-27.48q-6.09,0-9.82,2.36a8.92,8.92,0,0,0-4.26,8,9.1,9.1,0,0,0,4.22,8.15q3.72,2.46,9.86,2.46t9.91-2.46a9.1,9.1,0,0,0,4.27-8.15,8.89,8.89,0,0,0-4.32-8q-3.74-2.37-9.86-2.36Z"/><path class="cls-2" d="M511.92,998.27q6.82-6.06,11.29-17.35l12.67-32a10.46,10.46,0,0,0,.88-3.67q0-4.74-8.44-4.75-17.24,0-25.72,14.89V932.77a14.43,14.43,0,0,0,7.46,2.08h44.42A35.31,35.31,0,0,0,545.84,948l-14.58,36.64a19.09,19.09,0,0,0-1.62,6.74q0,3.66,3.54,6.87Z"/><path class="cls-2" d="M584.67,975.78q9.42,17,24.74,17c4.64,0,8.37-1.2,11.16-3.61a12.38,12.38,0,0,0,4.2-9.9,10.47,10.47,0,0,0-4.42-9.06q-4-2.9-10.65-2.89a19.46,19.46,0,0,0-10.85,3V958.6a16.2,16.2,0,0,0,8.46,2,22.13,22.13,0,0,0,10.81-2.32,9.1,9.1,0,0,0,5.11-8.45,8.11,8.11,0,0,0-4-7.37,16.92,16.92,0,0,0-9-2.14q-14.44,0-23.92,14.62V933.13a10.55,10.55,0,0,0,7.21,2.54,60.94,60.94,0,0,0,9.38-1.06,61.39,61.39,0,0,1,9.42-1.07q8.64,0,14.09,3.53a12.94,12.94,0,0,1,6.24,11.56q0,10-10.85,14.56,12.15,4.29,12.16,16.79,0,9.19-6.63,14.51-6.37,5.1-16.59,5.09a58.62,58.62,0,0,1-9.15-1.05,57.68,57.68,0,0,0-9.15-1.06,12.05,12.05,0,0,0-7.75,2.53V975.78Z"/><polygon class="cls-3" points="336.95 632.27 336.95 777.6 658.7 777.6 658.7 631 498.31 764.47 336.95 632.27 336.95 632.27"/><path class="cls-3" d="M545.22,205.39a46.91,46.91,0,1,1-46.91-46.9,46.91,46.91,0,0,1,46.91,46.9Z"/><path class="cls-1" d="M518,205.39a19.64,19.64,0,1,1-19.64-19.63A19.63,19.63,0,0,1,518,205.39Z"/><polygon class="cls-3" points="257.49 298.23 428.32 298.23 412.53 327.66 273.28 327.66 257.49 298.23 257.49 298.23"/><polygon class="cls-3" points="565.41 298.23 737.32 298.23 720.45 327.66 581.2 327.66 565.41 298.23 565.41 298.23"/><polygon class="cls-3" points="485.02 329.81 498.31 308.75 510.14 329.46 485.02 329.81 485.02 329.81"/><path class="cls-3" d="M284.05,349.2H402.48l-7.18,12.92H330.7s-75.6-7.27-84,56c-5.24,39.55,35.17,63.16,35.17,63.16H330.7l-43.78,83.27L189.3,481.26h74.3s-28-35.59-27.05-65.56c.81-25.72,13.74-38.72,21.66-44.26,14.35-10,23.06-12.2,25.84-22.24Z"/><path class="cls-3" d="M388.12,374.32H312.76c-20.1,0-51.57,19.42-51.68,47.37-.14,33.74,22.7,54.41,46.65,54.19C327.06,475.7,352,462.11,353,438.2,354,411.94,336.21,401.37,318.5,402c-6.67.22-15.42,3.39-20.87,9.57-9.09,10.3-10.94,27,7.23,38.17,8.88,5.46,15.92-9.43,14.36-12.93s-16.62-11.65-2.52-17.58c11.77-4.95,25.32,14.71,15.8,29.78-11.08,17.55-36.25,29.43-55.63-.71-20.64-32.11,1.89-51.37,15.07-59.58,18.77-11.69,42.35-7.89,51-6.46s36.61,7.9,36.61,7.9l8.61-15.79Z"/><path class="cls-3" d="M711.5,349.2H593.07l7.18,12.92h64.6s75.6-7.27,84,56c5.24,39.55-35.17,63.16-35.17,63.16H664.85l43.78,83.27,97.62-83.27H732s28-35.59,27-65.56c-.8-25.72-13.74-38.72-21.65-44.26-14.35-10-23.06-12.2-25.84-22.24Z"/><path class="cls-3" d="M607.43,374.32h75.36c20.1,0,51.56,19.42,51.68,47.37.14,33.74-22.7,54.41-46.65,54.19-19.33-.18-44.25-13.77-45.23-37.68-1.08-26.26,16.75-36.83,34.46-36.25,6.67.22,15.42,3.39,20.87,9.57,9.09,10.3,10.93,27-7.23,38.17-8.89,5.46-15.92-9.43-14.36-12.93s16.62-11.65,2.51-17.58c-11.77-4.95-25.31,14.71-15.79,29.78,11.08,17.55,36.25,29.43,55.63-.71,20.64-32.11-1.89-51.37-15.08-59.58-18.76-11.69-42.34-7.89-51-6.46s-36.6,7.9-36.6,7.9l-8.61-15.79Z"/><polygon class="cls-3" points="473.54 349.2 520.91 349.2 527.37 361.4 466.36 361.4 473.54 349.2 473.54 349.2"/><path class="cls-3" d="M460.7,374.61H535l16.5,30.46s-69.17,7.61-107.88,0l17.13-30.46Z"/><path class="cls-3" d="M436,418.4l-18.4,31.73L401,452.67s10.79,21.57,36.18,9.52,17.13-41.89,17.13-41.89-17.76-.63-18.4-1.9Z"/><path class="cls-3" d="M560.68,418.4l18.4,31.73,16.5,2.54s-10.78,21.57-36.17,9.52-17.14-41.89-17.14-41.89,17.77-.63,18.41-1.9Z"/><path class="cls-3" d="M470.22,422.2s47.6,1.91,55.21-.63v26.65c0,14.6-12.35,17.53-27.12,17.53s-29.36-4.83-29.36-15,1.27-28.56,1.27-28.56Z"/><path class="cls-3" d="M465.14,253.39s20.31,16.5,46.33,10.16L412.47,440l-22.21,7.62s-139,239.25-144.7,248.14-15.87,19-15.87,19l5.08-20.31L465.14,253.39Z"/><path class="cls-3" d="M528.6,254.66l-3.17,1.27-22.21,40.62,82.12,145.58,20.24,5.9L754.53,703.35l15.24,15.86s-1.28-12.06-3.18-15.86-238-448.69-238-448.69Z"/><polygon class="cls-3" points="387.72 481.22 607.93 481.22 633.95 523.75 362.33 523.75 387.72 481.22 387.72 481.22"/><polygon class="cls-3" points="354.72 538.98 641.57 538.98 646.65 545.32 350.91 545.32 354.72 538.98 354.72 538.98"/><polygon class="cls-3" points="498.31 677.59 352.18 554.84 643.47 554.84 498.31 677.59 498.31 677.59"/><path class="cls-1" d="M481.56,782V591.14c0-.28,0-.57,0-.85a16.75,16.75,0,0,1,33.48.85V787.75L481.56,782Z"/><path class="cls-1" d="M434.05,788.39V591.14c0-9.25,5.39-16.75,12.05-16.75s12.06,7.5,12.06,16.75V784.58l-24.11,3.81Z"/><path class="cls-1" d="M411.2,784.58l-.64-193.44c0-9.25-4.56-16.75-10.19-16.75s-10.2,7.5-10.2,16.75V783.31l21,1.27Z"/><path class="cls-1" d="M372.23,784.58l-.63-137.3c0-9.25-18.24-22.22-18.24-13v149l18.87,1.27Z"/><path class="cls-1" d="M624.39,784.58l.64-137.3c0-9.25,18.23-22.22,18.23-13v149l-18.87,1.27Z"/><path class="cls-1" d="M562.58,788.39V591.14c0-9.25-5.39-16.75-12.05-16.75s-12.06,7.5-12.06,16.75V784.58l24.11,3.81Z"/><path class="cls-1" d="M585.43,784.58l.63-193.44c0-9.25,4.57-16.75,10.2-16.75s10.2,7.5,10.2,16.75V783.31l-21,1.27Z"/><path class="cls-3" d="M341.39,560.55s-15.87,28.56-20.31,31.1l177.23,150L674.57,592.29l-7-8.89-14-24.12L498.4,690.34l-157-129.79Z"/></g></g></svg>