<?xml version="1.0" encoding="UTF-8" standalone="no"?>
<!DOCTYPE svg PUBLIC "-//W3C//DTD SVG 1.1//EN" "http://www.w3.org/Graphics/SVG/1.1/DTD/svg11.dtd">
<svg width="100%" height="100%" viewBox="0 0 233 184" version="1.1" xmlns="http://www.w3.org/2000/svg" xmlns:xlink="http://www.w3.org/1999/xlink" xml:space="preserve" xmlns:serif="http://www.serif.com/" style="fill-rule:evenodd;clip-rule:evenodd;stroke-miterlimit:10;">
    <g id="KB-PR" transform="matrix(1,0,0,1,-76,-56)">
        <g transform="matrix(1,0,0,1,202.95,114.671)">
            <path d="M0,68.139L-33.96,102.099L-101.99,34.07L-33.96,-33.961L0.05,0.039C4.069,-3.971 8.09,-7.991 12.1,-12.001L-33.96,-58.061L-126.09,34.07L-33.96,126.2L11.87,80.369C7.91,76.289 3.96,72.209 0,68.139" style="fill-rule:nonzero;"/>
        </g>
        <g transform="matrix(1,0,0,1,135.18,183.02)">
            <path d="M0,-68.43C-11.26,-57.08 -22.52,-45.73 -33.78,-34.38C-22.55,-22.97 -11.32,-11.57 -0.09,-0.16C-4.04,3.92 -7.99,8 -11.94,12.08C-27.39,-3.37 -42.85,-18.83 -58.3,-34.28C-42.89,-49.69 -27.48,-65.1 -12.07,-80.51C-8.05,-76.49 -4.03,-72.46 0,-68.43" style="fill:rgb(255,242,0);fill-rule:nonzero;"/>
        </g>
        <g transform="matrix(1,0,0,1,203.2,56.62)">
            <path d="M0,58.3C-11.35,47.04 -22.7,35.78 -34.05,24.52C-45.38,35.67 -56.7,46.83 -68.03,57.98C-72.06,53.95 -76.08,49.92 -80.11,45.89C-64.79,30.59 -49.47,15.29 -34.15,0L12.08,46.23C8.06,50.25 4.03,54.27 0,58.3" style="fill:rgb(236,0,140);fill-rule:nonzero;"/>
        </g>
        <g transform="matrix(1,0,0,1,203.2,240.85)">
            <path d="M0,-58.3C-11.35,-47.04 -22.7,-35.779 -34.05,-24.52C-45.38,-35.67 -56.7,-46.83 -68.03,-57.98C-72.06,-53.95 -76.08,-49.92 -80.11,-45.89C-64.79,-30.59 -49.47,-15.29 -34.15,0C-18.74,-15.41 -3.33,-30.82 12.08,-46.23C8.06,-50.25 4.03,-54.27 0,-58.3" style="fill:rgb(0,174,239);fill-rule:nonzero;"/>
        </g>
        <g transform="matrix(0.7071,-0.707114,-0.707114,-0.7071,215.685,184.202)">
            <rect x="15.013" y="-36.245" width="72.488" height="72.49" style="stroke:black;stroke-width:1px;"/>
        </g>
        <g>
            <g>
                <g>
                    <g>
                        <g transform="matrix(48.6069,0,0,48.6069,135.175,165.809)">
                            <path d="M0.479,-0L0.28,-0.305L0.2,-0.196L0.2,-0L0.073,-0L0.073,-0.715L0.2,-0.715L0.2,-0.373L0.443,-0.715L0.588,-0.715L0.364,-0.403L0.631,-0L0.479,-0Z" style="fill-rule:nonzero;"/>
                        </g>
                        <g transform="matrix(48.6069,0,0,48.6069,165.166,165.809)">
                            <path d="M0.292,-0L0.073,-0L0.073,-0.715C0.17,-0.719 0.237,-0.722 0.276,-0.722C0.35,-0.722 0.408,-0.706 0.45,-0.674C0.492,-0.642 0.513,-0.597 0.513,-0.538C0.513,-0.481 0.483,-0.437 0.423,-0.404C0.512,-0.373 0.556,-0.309 0.556,-0.212C0.556,-0.147 0.532,-0.096 0.482,-0.057C0.433,-0.019 0.37,-0 0.292,-0ZM0.2,-0.613L0.2,-0.442C0.22,-0.441 0.24,-0.44 0.262,-0.44C0.344,-0.44 0.386,-0.471 0.386,-0.533C0.386,-0.588 0.348,-0.616 0.273,-0.616C0.253,-0.616 0.229,-0.615 0.2,-0.613ZM0.2,-0.343L0.2,-0.106C0.226,-0.104 0.247,-0.103 0.263,-0.103C0.319,-0.103 0.36,-0.113 0.386,-0.132C0.412,-0.151 0.424,-0.183 0.424,-0.228C0.424,-0.268 0.412,-0.298 0.389,-0.316C0.365,-0.335 0.323,-0.344 0.264,-0.344C0.252,-0.344 0.23,-0.344 0.2,-0.343Z" style="fill-rule:nonzero;"/>
                        </g>
                    </g>
                </g>
                <g>
                    <g>
                        <g transform="matrix(48.6069,0,0,48.6069,223.395,165.809)">
                            <path d="M0.2,-0.263L0.2,-0L0.073,-0L0.073,-0.715C0.158,-0.718 0.207,-0.72 0.222,-0.72C0.335,-0.72 0.417,-0.703 0.469,-0.668C0.522,-0.634 0.548,-0.579 0.548,-0.506C0.548,-0.342 0.451,-0.26 0.258,-0.26C0.243,-0.26 0.224,-0.261 0.2,-0.263ZM0.2,-0.605L0.2,-0.376C0.222,-0.374 0.239,-0.373 0.251,-0.373C0.309,-0.373 0.351,-0.382 0.378,-0.402C0.405,-0.421 0.418,-0.452 0.418,-0.496C0.418,-0.57 0.358,-0.607 0.239,-0.607C0.225,-0.607 0.213,-0.607 0.2,-0.605Z" style="fill:white;fill-rule:nonzero;"/>
                        </g>
                        <g transform="matrix(48.6069,0,0,48.6069,251.928,165.809)">
                            <path d="M0.477,-0L0.286,-0.295C0.266,-0.296 0.24,-0.297 0.205,-0.299L0.205,-0L0.073,-0L0.073,-0.715C0.08,-0.715 0.108,-0.717 0.156,-0.719C0.204,-0.721 0.242,-0.723 0.271,-0.723C0.453,-0.723 0.544,-0.652 0.544,-0.512C0.544,-0.469 0.531,-0.431 0.506,-0.396C0.481,-0.361 0.45,-0.337 0.412,-0.322L0.623,-0L0.477,-0ZM0.205,-0.605L0.205,-0.406C0.229,-0.404 0.246,-0.403 0.259,-0.403C0.312,-0.403 0.351,-0.411 0.375,-0.426C0.4,-0.441 0.412,-0.47 0.412,-0.513C0.412,-0.548 0.399,-0.573 0.373,-0.587C0.346,-0.601 0.305,-0.608 0.248,-0.608C0.234,-0.608 0.22,-0.607 0.205,-0.605Z" style="fill:white;fill-rule:nonzero;"/>
                        </g>
                    </g>
                </g>
            </g>
        </g>
    </g>
</svg>
