<?xml version="1.0" encoding="utf-8"?>
<!-- Generator: Adobe Illustrator 21.0.0, SVG Export Plug-In . SVG Version: 6.00 Build 0)  -->
<svg version="1.1" xmlns="http://www.w3.org/2000/svg" xmlns:xlink="http://www.w3.org/1999/xlink" x="0px" y="0px"
	 viewBox="0 0 721.5 900" enable-background="new 0 0 721.5 900" xml:space="preserve">
<g id="Réteg_4">
</g>
<g id="Réteg_2">
	<g>
		<g>
			<g>
				<g>
					<path fill="#CFC8A5" d="M349.1,587c-2.1-32.4-1.8-64.8-1.8-97.3V211.1c-16.5-2.7-32.7-7.2-48.1-14.7L142,247.2
						c-6,11.8-9.4,18.5-15.4,30.2l11.3,34.8c33.5-36.1,79.9-60.1,128.9-66l0,0c-0.1,0,0,0,0,0c0,0,0,0,0,0c0.1,0,0,0,0,0
						c0,0,0,0,0,0c0,0,0,0,0,0c0,0,0,0,0,0c-2.2,39.7-4.1,79.4-8.3,119c-5.5,52.9-12,107-36.2,154.3c-3.3,6.4-6.9,12.7-11.2,18.6
						l21.4,66c11.8,6,18.5,9.4,30.2,15.4l86.7-28.1C349.3,590,349.1,588.5,349.1,587z"/>
					<path fill="#EBEBCD" d="M258.5,365.3c4.1-39.6,6.1-79.3,8.3-119c-48.9,5.8-95.4,29.9-128.9,66l73.2,225.9
						c4.2-5.8,7.9-12.1,11.2-18.6C246.5,472.3,253,418.2,258.5,365.3z"/>
					<path opacity="0" fill="#EBEBCD" d="M266.7,246.3C266.7,246.3,266.7,246.3,266.7,246.3C266.7,246.3,266.7,246.3,266.7,246.3z"
						/>
					<path opacity="0" fill="#EBEBCD" d="M266.7,246.3C266.7,246.3,266.7,246.3,266.7,246.3C266.8,246.3,266.8,246.3,266.7,246.3z"
						/>
					<path opacity="0" fill="#EBEBCD" d="M266.7,246.3L266.7,246.3C266.7,246.3,266.7,246.3,266.7,246.3
						C266.7,246.3,266.7,246.3,266.7,246.3z"/>
				</g>
				<g>
					<path fill="#BE1E2D" d="M349.1,587C349.1,587,349,587,349.1,587l-86,27.8L236.2,601L131.5,277.9l13.7-26.9l160-51.8
						c-3.9-1.7-7.8-3.6-11.7-5.7l-154.6,50.1l-17.1,33.5l107,330.3l33.5,17.1l87.4-28.3C349.5,593.1,349.2,590.1,349.1,587z"/>
					<path d="M349.1,587c0-0.4,0-0.8-0.1-1.1l-85.8,27.8L237,600.3L132.5,277.9l13.4-26.2l160.7-52.1c-0.9-0.4-1.8-0.8-2.8-1.2
						L144.9,250l-0.4,0.1l-14.1,27.6l104.9,323.6l0.1,0.4l27.6,14.1l86.1-27.9C349.1,587.6,349.1,587.3,349.1,587z"/>
					<path d="M349.6,595.1l-87.2,28.3l-32.8-16.8L122.8,277.2l16.8-32.8l155.1-50.3c-0.7-0.4-1.4-0.7-2-1.1
						c-0.1-0.1-0.2-0.2-0.4-0.2l-153.7,49.8l-0.4,0.1L120.7,277l107.2,330.7l0.1,0.4l34.3,17.5l87.6-28.4
						C349.7,596.5,349.7,595.8,349.6,595.1z"/>
				</g>
				<g>
					<path fill="#CFC8A5" d="M372.4,587c2.1-32.4,1.8-64.8,1.8-97.3V211.1c16.5-2.7,32.7-7.2,48.1-14.7l157.1,50.9
						c6,11.8,9.4,18.5,15.4,30.2l-11.3,34.8c-33.5-36.1-79.9-60.1-128.9-66l0,0c0.1,0,0,0,0,0c0,0,0,0,0,0c-0.1,0,0,0,0,0
						c0,0,0,0,0,0c0,0,0,0,0,0c0,0,0,0,0,0c2.2,39.7,4.1,79.4,8.3,119c5.5,52.9,12,107,36.2,154.3c3.3,6.4,6.9,12.7,11.2,18.6
						l-21.4,66c-11.8,6-18.5,9.4-30.2,15.4l-86.7-28.1C372.2,590,372.3,588.5,372.4,587z"/>
					<path fill="#EBEBCD" d="M463,365.3c-4.1-39.6-6.1-79.3-8.3-119c48.9,5.8,95.4,29.9,128.9,66l-73.2,225.9
						c-4.2-5.8-7.9-12.1-11.2-18.6C475,472.3,468.5,418.2,463,365.3z"/>
					<path opacity="0" fill="#EBEBCD" d="M454.7,246.3C454.7,246.3,454.7,246.3,454.7,246.3C454.8,246.3,454.8,246.3,454.7,246.3z"
						/>
					<path opacity="0" fill="#EBEBCD" d="M454.7,246.3C454.7,246.3,454.7,246.3,454.7,246.3C454.7,246.3,454.7,246.3,454.7,246.3z"
						/>
					<path opacity="0" fill="#EBEBCD" d="M454.7,246.3L454.7,246.3C454.7,246.3,454.7,246.3,454.7,246.3
						C454.7,246.3,454.7,246.3,454.7,246.3z"/>
				</g>
				<g>
					<path fill="#BE1E2D" d="M372.4,587C372.4,587,372.4,587,372.4,587l86,27.8l26.9-13.7L590,277.9l-13.7-26.9l-160-51.8
						c3.9-1.7,7.8-3.6,11.7-5.7l154.6,50.1l17.1,33.5l-107,330.3l-33.5,17.1l-87.4-28.3C372,593.1,372.2,590.1,372.4,587z"/>
					<path d="M372.4,587c0-0.4,0-0.8,0.1-1.1l85.8,27.8l26.2-13.4l104.5-322.4l-13.4-26.2l-160.7-52.1c0.9-0.4,1.8-0.8,2.8-1.2
						L576.6,250l0.4,0.1l14.1,27.6L486.2,601.4l-0.1,0.4l-27.6,14.1L372.3,588C372.4,587.6,372.4,587.3,372.4,587z"/>
					<path d="M371.8,595.1l87.2,28.3l32.8-16.8l106.8-329.5l-16.8-32.8l-155.1-50.3c0.7-0.4,1.4-0.7,2-1.1c0.1-0.1,0.2-0.2,0.4-0.2
						l153.7,49.8l0.4,0.1l17.5,34.3L493.7,607.7l-0.1,0.4l-34.3,17.5l-87.6-28.4C371.7,596.5,371.8,595.8,371.8,595.1z"/>
				</g>
				<path d="M291.4,246.3c-2.8-2.3-6.7-2.9-10.4-2.5c-8.2,0.9-15.7,7.1-17.7,15.1c-0.8,3.3-0.7,6.9,0.3,10.2
					c-0.6,0.1-1.3,0.2-1.9,0.4c-0.3,0.1-0.6,0.1-0.9,0.2c-1.2-4.9-0.9-10.7,0.8-14.9c1.1-2.8,2.9-5.5,2.5-8.5
					c-0.4-3.1-3-5.4-5.4-7.4c-4.5-3.7-9-7.4-13.5-11.1c-1.5,5.6-3,11.3-4.5,16.9c-0.8,3-1.6,6.4,0,9.1c1.4,2.6,4.5,3.8,7.1,5.4
					c3.8,2.4,7.5,6.9,9.4,11.6c-0.3,0.1-0.5,0.2-0.8,0.3c-0.6,0.2-1.2,0.5-1.8,0.8c-1.1-3.3-3.1-6.2-5.7-8.4
					c-6.4-5.3-16-5.9-23.2-1.8c-3.2,1.8-6,4.6-6.9,8.1c-1,3.6,0.1,7.6,2.5,10.5c2.4,2.9,6,4.6,9.7,5.1l0.6-1.1
					c-0.2,0.3-0.4,0.6-0.6,0.8c0.3-3.4,1.3-6.7,3.4-9.4c2.1-2.7,5.3-4.5,8.6-4.7c2.8-0.1,5.7,1.1,7.5,3.2c-0.2,0.2-0.4,0.3-0.6,0.5
					c-0.6,0.4-1.1,0.8-1.5,1.2c-0.4,0.4-0.8,0.7-1.1,1c-0.6,0.6-0.9,1-0.9,1c-0.3,0.3-0.3,0.8-0.1,1.1c0.3,0.4,0.8,0.5,1.3,0.3
					l0.1,0c0,0,0.4-0.2,1-0.7c0.3-0.2,0.7-0.4,1.1-0.7c0.4-0.3,1-0.6,1.5-0.9c0.2-0.1,0.4-0.2,0.6-0.3c1.1,2.9,0.9,6.6-1.5,8.5
					c-1.1-1.8-3.9-2.3-5.6-1c-1.7,1.3-1.8,4.1-0.4,5.6c1.4,1.4,3.8,1.5,5.6,0.6c1.8-0.9,3-2.6,3.9-4.4c1.6-3.4,2-7.3,1.4-11
					c0.3-0.1,0.7-0.3,1-0.4c0.4-0.1,0.8-0.3,1.1-0.4c0.2-0.1,0.4-0.2,0.7-0.3c0.2,0.7,0.3,1.5,0.4,2.2c0.2,2.2-0.6,5.6-0.1,7.8
					c1,4.3,3.7,5.2,7.2,7.2c1.7-3.7,3.3-6,1.6-10.1c-0.9-2.1-3.5-4.3-4.6-6.2c-0.4-0.6-0.7-1.3-1-2c0.2-0.1,0.5-0.1,0.7-0.2
					c0.4-0.1,0.8-0.2,1.2-0.3c0.4-0.1,0.7-0.2,1.1-0.2c1.6,3.4,4.2,6.3,7.6,8.1c1.8,0.9,3.8,1.6,5.7,1.3c2-0.3,3.9-1.8,4.2-3.7
					c0.3-2.1-1.5-4.3-3.6-4.3c-2.1-0.1-4.1,1.9-3.9,4.1c-3-0.1-5.4-3-6.2-6c0.2,0,0.5-0.1,0.7-0.1c0.6-0.1,1.2-0.2,1.7-0.2
					c0.5,0,0.9-0.1,1.3-0.1c0.8,0,1.2,0,1.2,0c0.4,0,0.8-0.3,0.9-0.7c0.1-0.5-0.2-1-0.7-1.1c0,0-0.4-0.1-1.2-0.3
					c-0.4-0.1-0.9-0.1-1.5-0.2c-0.6-0.1-1.2-0.1-1.9-0.1c-0.3,0-0.5,0-0.8,0c0.2-2.8,1.8-5.4,4.2-7c2.8-1.9,6.5-2.2,9.8-1.3
					c3.3,0.9,6.1,3,8.3,5.6c-0.3-0.1-0.7-0.2-1-0.3l1.1,0.5c2.7-2.6,4.6-6.1,4.8-9.9C295.8,252.6,294.3,248.7,291.4,246.3z"/>
				<path d="M199.7,264.2c-2.7-3.7-7.2-5.9-11.5-5.9c-4.3,0-8.5,2.1-11.4,5.5c-1.9,2.2-3.3,5-4.1,7.9c-2.4-1.9-5.1-3.3-7.9-4
					c-4.3-1-8.9-0.3-12.4,2.3c-3.5,2.5-5.9,6.9-5.9,11.5c0,5.2,2.8,10.2,6.6,13.7c3.8,3.5,8.4,5.7,13.1,7.7s9.4,3.7,13.7,6.4
					c1.1,0.7,2.2,1.5,3.3,2.4c1.3,1.1,2.6,2.3,3.7,3.5c0.2-1.7,0.5-3.4,1-5c0.3-1.3,0.8-2.6,1.3-3.9c1.9-4.7,4.7-8.9,7.3-13.2
					c2.6-4.3,5.1-8.8,6.1-13.9C203.4,274.1,202.8,268.4,199.7,264.2z"/>
				<path d="M248.6,594c2.7,3.7,7.2,5.9,11.5,5.9c4.3,0,8.5-2.1,11.4-5.5c1.9-2.2,3.3-5,4.1-7.9c2.4,1.9,5.1,3.3,7.9,4
					c4.3,1,8.9,0.3,12.4-2.3c3.5-2.5,5.9-6.9,5.9-11.5c0-5.2-2.8-10.2-6.6-13.7c-3.8-3.5-8.4-5.7-13.1-7.7
					c-4.6-1.9-9.4-3.7-13.7-6.4c-1.1-0.7-2.2-1.5-3.3-2.4c-1.3-1.1-2.6-2.3-3.7-3.5c-0.2,1.7-0.5,3.4-1,5c-0.3,1.3-0.8,2.6-1.3,3.9
					c-1.9,4.7-4.7,8.9-7.3,13.2c-2.6,4.3-5.1,8.8-6.1,13.9C244.9,584,245.5,589.8,248.6,594z"/>
				<path d="M430.1,246.3c2.8-2.3,6.7-2.9,10.4-2.5c8.2,0.9,15.7,7.1,17.7,15.1c0.8,3.3,0.7,6.9-0.3,10.2c0.6,0.1,1.3,0.2,1.9,0.4
					c0.3,0.1,0.6,0.1,0.9,0.2c1.2-4.9,0.9-10.7-0.8-14.9c-1.1-2.8-2.9-5.5-2.5-8.5c0.4-3.1,3-5.4,5.4-7.4c4.5-3.7,9-7.4,13.5-11.1
					c1.5,5.6,3,11.3,4.5,16.9c0.8,3,1.6,6.4,0,9.1c-1.4,2.6-4.5,3.8-7.1,5.4c-3.8,2.4-7.5,6.9-9.4,11.6c0.3,0.1,0.5,0.2,0.8,0.3
					c0.6,0.2,1.2,0.5,1.8,0.8c1.1-3.3,3.1-6.2,5.7-8.4c6.4-5.3,16-5.9,23.2-1.8c3.2,1.8,6,4.6,6.9,8.1c1,3.6-0.1,7.6-2.5,10.5
					c-2.4,2.9-6,4.6-9.7,5.1l-0.6-1.1c0.2,0.3,0.4,0.6,0.6,0.8c-0.3-3.4-1.3-6.7-3.4-9.4c-2.1-2.7-5.3-4.5-8.6-4.7
					c-2.8-0.1-5.7,1.1-7.5,3.2c0.2,0.2,0.4,0.3,0.6,0.5c0.6,0.4,1.1,0.8,1.5,1.2c0.4,0.4,0.8,0.7,1.1,1c0.6,0.6,0.9,1,0.9,1
					c0.3,0.3,0.3,0.8,0.1,1.1c-0.3,0.4-0.8,0.5-1.3,0.3l-0.1,0c0,0-0.4-0.2-1-0.7c-0.3-0.2-0.7-0.4-1.1-0.7c-0.4-0.3-1-0.6-1.5-0.9
					c-0.2-0.1-0.4-0.2-0.6-0.3c-1.1,2.9-0.9,6.6,1.5,8.5c1.1-1.8,3.9-2.3,5.6-1c1.7,1.3,1.8,4.1,0.4,5.6c-1.4,1.4-3.8,1.5-5.6,0.6
					c-1.8-0.9-3-2.6-3.9-4.4c-1.6-3.4-2-7.3-1.4-11c-0.3-0.1-0.7-0.3-1-0.4c-0.4-0.1-0.8-0.3-1.1-0.4c-0.2-0.1-0.4-0.2-0.7-0.3
					c-0.2,0.7-0.3,1.5-0.4,2.2c-0.2,2.2,0.6,5.6,0.1,7.8c-1,4.3-3.7,5.2-7.2,7.2c-1.7-3.7-3.3-6-1.6-10.1c0.9-2.1,3.5-4.3,4.6-6.2
					c0.4-0.6,0.7-1.3,1-2c-0.2-0.1-0.5-0.1-0.7-0.2c-0.4-0.1-0.8-0.2-1.2-0.3c-0.4-0.1-0.7-0.2-1.1-0.2c-1.6,3.4-4.2,6.3-7.6,8.1
					c-1.8,0.9-3.8,1.6-5.7,1.3c-2-0.3-3.9-1.8-4.2-3.7c-0.3-2.1,1.5-4.3,3.6-4.3c2.1-0.1,4.1,1.9,3.9,4.1c3-0.1,5.4-3,6.2-6
					c-0.2,0-0.5-0.1-0.7-0.1c-0.6-0.1-1.2-0.2-1.7-0.2c-0.5,0-0.9-0.1-1.3-0.1c-0.8,0-1.2,0-1.2,0c-0.4,0-0.8-0.3-0.9-0.7
					c-0.1-0.5,0.2-1,0.7-1.1c0,0,0.4-0.1,1.2-0.3c0.4-0.1,0.9-0.1,1.5-0.2c0.6-0.1,1.2-0.1,1.9-0.1c0.3,0,0.5,0,0.8,0
					c-0.2-2.8-1.8-5.4-4.2-7c-2.8-1.9-6.5-2.2-9.8-1.3c-3.3,0.9-6.1,3-8.3,5.6c0.3-0.1,0.7-0.2,1-0.3l-1.1,0.5
					c-2.7-2.6-4.6-6.1-4.8-9.9C425.7,252.6,427.2,248.7,430.1,246.3z"/>
				<path d="M521.8,264.2c2.7-3.7,7.2-5.9,11.5-5.9c4.3,0,8.5,2.1,11.4,5.5c1.9,2.2,3.3,5,4.1,7.9c2.4-1.9,5.1-3.3,7.9-4
					c4.3-1,8.9-0.3,12.4,2.3c3.5,2.5,5.9,6.9,5.9,11.5c0,5.2-2.8,10.2-6.6,13.7c-3.8,3.5-8.4,5.7-13.1,7.7s-9.4,3.7-13.7,6.4
					c-1.1,0.7-2.2,1.5-3.3,2.4c-1.3,1.1-2.6,2.3-3.7,3.5c-0.2-1.7-0.5-3.4-1-5c-0.3-1.3-0.8-2.6-1.3-3.9c-1.9-4.7-4.7-8.9-7.3-13.2
					c-2.6-4.3-5.1-8.8-6.1-13.9C518.1,274.1,518.7,268.4,521.8,264.2z"/>
				<path d="M472.9,594c-2.7,3.7-7.2,5.9-11.5,5.9c-4.3,0-8.5-2.1-11.4-5.5c-1.9-2.2-3.3-5-4.1-7.9c-2.4,1.9-5.1,3.3-7.9,4
					c-4.3,1-8.9,0.3-12.4-2.3c-3.5-2.5-5.9-6.9-5.9-11.5c0-5.2,2.8-10.2,6.6-13.7c3.8-3.5,8.4-5.7,13.1-7.7
					c4.6-1.9,9.4-3.7,13.7-6.4c1.1-0.7,2.2-1.5,3.3-2.4c1.3-1.1,2.6-2.3,3.7-3.5c0.2,1.7,0.5,3.4,1,5c0.3,1.3,0.8,2.6,1.3,3.9
					c1.9,4.7,4.7,8.9,7.3,13.2c2.6,4.3,5.1,8.8,6.1,13.9C476.6,584,475.9,589.8,472.9,594z"/>
			</g>
			<g>
				<polygon fill="#8F532F" points="428.3,428.8 387.4,272.8 440.2,197.1 281.2,197.1 332.9,269.7 293.1,428.8 332.1,609.2 
					281.2,680.7 440.2,680.7 388.1,606.1 				"/>
			</g>
			<g>
				<g>
					<path fill="#724124" d="M440.2,197.1h-17.9c-11.6,17.2-28.4,30.7-47,40.2c-16.6,8.5-34.6,14-52.9,17.9l10.3,14.5l-11.6,46.4
						l9.5,43.5c9.6-19.7,23.2-37.3,39.6-51.8c6.8-6.1,14.2-11.5,21.9-16.4l-4.9-18.6L440.2,197.1z"/>
				</g>
			</g>
			<g>
				<g>
					<path fill="#724124" d="M281.2,681.1h17.9c11.6-17.2,28.4-30.7,47-40.2c16.6-8.5,34.6-15,52.9-18.9l-11.3-15.5l10.6-44.4
						l-7.5-43.5c-9.6,19.7-23.2,37.3-39.6,51.8c-6.8,6.1-16.2,11.5-23.9,16.4l4.9,22.6L281.2,681.1z"/>
				</g>
			</g>
			<g>
				<rect x="281.2" y="680.7" fill="#8F532F" width="159" height="17.7"/>
			</g>
			<g>
				<rect x="281.2" y="179.4" fill="#8F532F" width="159" height="17.7"/>
			</g>
		</g>
		<path d="M440.2,681.7h-159c-0.4,0-0.7-0.2-0.9-0.5c-0.2-0.3-0.1-0.7,0.1-1L331,609l-38.9-180c0-0.1,0-0.3,0-0.5l39.6-158.6
			l-51.4-72.2c-0.2-0.3-0.2-0.7-0.1-1c0.2-0.3,0.5-0.5,0.9-0.5h159c0.4,0,0.7,0.2,0.9,0.5c0.2,0.3,0.1,0.7-0.1,1L388.5,273
			l40.8,155.5c0,0.2,0,0.3,0,0.5l-40.1,176.9l51.9,74.3c0.2,0.3,0.2,0.7,0.1,1C440.9,681.5,440.6,681.7,440.2,681.7z M283.2,679.7
			h155.1l-51-73.1c-0.2-0.2-0.2-0.5-0.2-0.8l40.2-177.1L386.4,273c-0.1-0.3,0-0.6,0.1-0.8l51.7-74.1H283.2l50.5,71
			c0.2,0.2,0.2,0.5,0.2,0.8l-39.7,158.8L333.1,609c0.1,0.3,0,0.6-0.2,0.8L283.2,679.7z"/>
		<rect x="281.2" y="680.7" fill="#724124" width="18.7" height="17.7"/>
		<path d="M440.2,699.4h-159c-0.6,0-1-0.4-1-1v-17.7c0-0.6,0.4-1,1-1h159c0.6,0,1,0.4,1,1v17.7C441.2,699,440.8,699.4,440.2,699.4z
			 M282.2,697.4h157v-15.7h-157V697.4z"/>
		<rect x="422.4" y="179.4" fill="#724124" width="17.9" height="17.7"/>
		<path d="M440.2,198.1h-159c-0.6,0-1-0.4-1-1v-17.7c0-0.6,0.4-1,1-1h159c0.6,0,1,0.4,1,1v17.7C441.2,197.7,440.8,198.1,440.2,198.1
			z M282.2,196.1h157v-15.7h-157V196.1z"/>
		<g>
			<path fill="#E2F4FD" d="M358.7,594.8c-8.5,0-17.1-0.7-25.5-2.1c-9.2-1.5-18.3-3.8-27.1-6.9c-25.1-8.9-47.7-24.1-65.5-44
				c-17.9-20.1-30.5-44.5-36.4-70.5c-0.8-3.5-1.5-7-2-10.4c-1.3-8.1-1.9-16.3-1.9-24.5c0-9.6,0.9-19.2,2.6-28.7
				c1.1-6.2,2.6-12.3,4.5-18.3c4.7-15,11.5-29.2,20.4-42.2c4.4-6.4,9.3-12.5,14.5-18.2c17.5-19,39.6-33.5,63.8-42.1
				c8.8-3.1,17.9-5.4,27.1-6.9c8.4-1.4,17-2.1,25.5-2.1c8.9,0,17.8,0.8,26.6,2.2c15.4,2.6,30.3,7.5,44.3,14.5
				c25.9,13,47.8,32.9,63.2,57.4c15.9,25.2,24.3,54.4,24.3,84.3c0,29.9-8.4,59.1-24.3,84.3c-15.5,24.5-37.3,44.4-63.2,57.4
				c-14,7-28.9,11.9-44.3,14.5C376.6,594,367.6,594.8,358.7,594.8z M340.7,575.6c6,0.8,12,1.2,18,1.2c6.3,0,12.7-0.4,19-1.3V445.8
				h-37V575.6z M228.4,488.7c13.6,33.7,39.8,61,73.3,75.9V494c-9.7,7-21.2,10.8-33.5,10.8C253.1,504.8,238.9,498.9,228.4,488.7z
				 M433.2,555.3c40.9-25.6,66-70.5,66-119.1c0-48.6-25.1-93.4-66-119.1V555.3z M234.9,453.3l1.5,4.5c1,2.9,2.4,5.8,4.1,8.4
				c6.3,9.2,16.6,14.7,27.7,14.7c18.5,0,33.5-15,33.5-33.5c0-0.5,0-1.1,0-1.6l0-8.9l0,0v-21.4h-81.9c-1,6.9-1.6,14-1.6,21
				c0,5.7,0.3,11.4,1,17H234.9z M377.7,403.3V297.1c-6.3-0.9-12.7-1.3-19-1.3c-6,0-12,0.4-18,1.2v106.3H377.7z M301.7,384.8v-27.5
				h-59.1c-5.9,8.6-10.8,17.8-14.6,27.5H301.7z M301.7,326.8v-18.9c-11,4.9-21.4,11.3-30.9,18.9H301.7z"/>
			<path fill="#EEE810" d="M356.6,593.3c-8.2,0-16.6-0.7-24.7-2c-8.9-1.5-17.7-3.7-26.3-6.7c-24.3-8.6-46.2-23.3-63.5-42.6
				c-17.4-19.4-29.6-43.1-35.3-68.3c-0.8-3.4-1.4-6.8-1.9-10.1c-1.2-7.8-1.8-15.8-1.8-23.7c0-9.3,0.8-18.6,2.5-27.8
				c1.1-6,2.6-11.9,4.3-17.7c4.5-14.5,11.2-28.3,19.8-40.9c4.2-6.2,9-12.1,14.1-17.7c17-18.4,38.3-32.5,61.8-40.8
				c8.5-3,17.3-5.3,26.3-6.7c8.2-1.3,16.5-2,24.7-2c8.6,0,17.3,0.7,25.8,2.2c14.9,2.5,29.4,7.3,42.9,14.1
				c25.1,12.6,46.3,31.8,61.3,55.6c15.4,24.4,23.6,52.7,23.6,81.6s-8.1,57.2-23.6,81.6c-15,23.8-36.2,43-61.3,55.6
				c-13.5,6.8-28,11.5-42.9,14.1C373.9,592.5,365.2,593.3,356.6,593.3z M333.6,583.4c7.6,1.2,15.3,1.8,23,1.8c8,0,16.1-0.7,24-2
				v-139h-47V583.4z M215.4,474.8c11.5,46.3,44.6,83.8,89.2,100.9v-89.2c-9.9,10.8-23.8,16.9-38.5,16.9c-19.8,0-37.6-10.9-46.7-28.5
				H215.4z M426.1,567.5c46.9-25.6,76-74.3,76-127.8S473,337.6,426.1,312V567.5z M229.2,461.8l0.3,1c1.1,3.4,2.7,6.6,4.8,9.6
				c7.2,10.5,19.1,16.8,31.8,16.8c21.2,0,38.5-17.3,38.5-38.5c0-0.6,0-1.3,0-1.9l-0.1-2.1l0.2,0v-33.1h-91.2
				c-1.6,8.6-2.3,17.3-2.3,26c0,7.3,0.6,14.7,1.7,22H229.2z M380.6,411.8V296.3c-7.9-1.3-16-2-24-2c-7.7,0-15.4,0.6-23,1.8v115.7
				H380.6z M304.6,393.3v-37.5h-66.7c-8.2,11.5-14.6,24.1-19.1,37.5H304.6z M304.6,335.3v-31.4c-18.2,7-35,17.8-49.1,31.4H304.6z"/>
			<path d="M358.7,284.3c8.7,0,17.2,0.7,25.5,2.2c15,2.5,29.3,7.3,42.5,13.9c49.8,25,84,76.5,84,135.9s-34.2,110.9-84,135.9
				c-13.2,6.6-27.5,11.4-42.5,13.9c-8.3,1.4-16.8,2.2-25.5,2.2c-8.3,0-16.5-0.7-24.5-2c-9-1.5-17.6-3.7-26-6.7
				c-48.8-17.2-86.2-58.7-97.8-109.9c-0.7-3.3-1.4-6.6-1.9-10c-1.2-7.7-1.8-15.5-1.8-23.5c0-9.4,0.9-18.6,2.5-27.5
				c1.1-6,2.5-11.8,4.3-17.5c4.5-14.6,11.2-28.2,19.6-40.5c4.2-6.2,8.9-12,13.9-17.5c16.6-18,37.6-32,61.2-40.4c8.4-3,17-5.2,26-6.7
				C342.2,285,350.4,284.3,358.7,284.3 M334.2,409.8h50V291.5c-8.3-1.5-16.8-2.2-25.5-2.2c-8.3,0-16.5,0.7-24.5,2.1V409.8
				 M254,333.3h54.3v-35.1C287.6,305.8,269.1,317.9,254,333.3 M426.7,566.6c46.9-24.6,79-73.8,79-130.3s-32.1-105.7-79-130.3V566.6
				 M218.8,391.3h89.4v-40.5h-69C230.5,363,223.5,376.6,218.8,391.3 M213.6,459.8h5.2h11.4c1.2,3.6,2.9,6.9,5,10
				c7.2,10.6,19.3,17.5,33,17.5c22.1,0,40-17.9,40-40c0-0.7,0-1.3,0-1.9c0,0,0,0,0,0v-36.6h-93.9c-1.7,8.9-2.6,18.1-2.6,27.5
				C211.7,444.3,212.4,452.1,213.6,459.8 M358.7,583.3c8.7,0,17.2-0.8,25.5-2.2V439.3h-50v141.9
				C342.2,582.5,350.4,583.3,358.7,583.3 M308.2,574.3v-95.5c-9.3,11.8-23.8,19.4-40,19.4c-20,0-37.4-11.6-45.7-28.5h-6.9
				C226.9,518.2,262.2,557.4,308.2,574.3 M358.7,281.3c-8.3,0-16.7,0.7-25,2c-9,1.5-17.9,3.7-26.5,6.8
				c-23.7,8.4-45.2,22.6-62.4,41.1c-5.2,5.6-9.9,11.6-14.2,17.8c-8.7,12.7-15.4,26.6-20,41.3c-1.8,5.8-3.3,11.8-4.4,17.8
				c-1.7,9.2-2.5,18.6-2.5,28c0,8,0.6,16.1,1.9,24c0.5,3.4,1.2,6.8,1.9,10.2c5.8,25.5,18.1,49.4,35.6,69
				c17.4,19.5,39.6,34.4,64.1,43c8.6,3,17.5,5.3,26.5,6.8c8.2,1.3,16.7,2,25,2c8.7,0,17.4-0.7,26-2.2c15.1-2.6,29.7-7.3,43.3-14.2
				c25.3-12.7,46.7-32.1,61.8-56.1c15.6-24.7,23.8-53.2,23.8-82.4s-8.2-57.8-23.8-82.4c-15.1-24-36.5-43.4-61.8-56.1
				c-13.7-6.9-28.3-11.7-43.3-14.2C376.2,282,367.4,281.3,358.7,281.3L358.7,281.3z M337.2,293.9c7.1-1.1,14.3-1.6,21.5-1.6
				c7.5,0,15.1,0.6,22.5,1.8v112.7h-44V293.9L337.2,293.9z M261.4,330.3c12.8-11.8,27.8-21.2,43.8-27.7v27.7H261.4L261.4,330.3z
				 M429.7,561.5V311c45.1,25.7,73,73.2,73,125.2S474.9,535.8,429.7,561.5L429.7,561.5z M240.8,353.8h64.4v34.5H223
				C227.3,376,233.3,364.4,240.8,353.8L240.8,353.8z M216.8,411.8h88.4v29.7l0,0l0,0c0,1,0,5.3,0,5.8c0,20.4-16.6,37-37,37
				c-12.2,0-23.6-6.1-30.6-16.2c-2-2.9-3.5-6-4.6-9.2l-0.7-2.1h-2.2h-11.4h-2.6c-1-6.8-1.5-13.7-1.5-20.5
				C214.7,428.1,215.4,419.9,216.8,411.8L216.8,411.8z M337.2,442.3h44v136.2c-7.4,1.2-15,1.8-22.5,1.8c-7.2,0-14.4-0.5-21.5-1.6
				V442.3L337.2,442.3z M219.4,472.8h1.2c4.4,8.2,10.8,15.1,18.7,20.1c8.6,5.5,18.6,8.4,28.9,8.4c13.9,0,27-5.3,37-14.7V570
				C262.7,552.9,231,517,219.4,472.8L219.4,472.8z"/>
		</g>
		<g>
			<polygon fill="#C8C7C6" points="244.3,720.6 264,700.8 264,635 244.3,654.8 			"/>
			<g>
				<g>
					<path d="M252.1,679.8c0,3.7,0.9,5.8,2,4.7s2-5,2-8.7s-0.9-5.8-2-4.7C253,672.2,252.1,676.1,252.1,679.8z"/>
				</g>
			</g>
			<g>
				<g>
					<g>
						<path d="M256.3,661.7c0,3.7,0.9,5.8,2,4.7s2-5,2-8.7c0-3.7-0.9-5.8-2-4.7C257.2,654.1,256.3,658,256.3,661.7z"/>
					</g>
				</g>
				<g>
					<g>
						<path d="M247.9,697.9c0,3.7,0.9,5.8,2,4.7c1.1-1.1,2-5,2-8.7s-0.9-5.8-2-4.7S247.9,694.2,247.9,697.9z"/>
					</g>
				</g>
			</g>
			<polygon fill="#E5E5E5" points="244.3,654.8 178.4,654.8 198.2,635 264,635 			"/>
			<g>
				<g>
					<g>
						<path d="M218.2,640.7c-1.1,1.1-5,2-8.7,2s-5.8-0.9-4.7-2s5-2,8.7-2S219.3,639.6,218.2,640.7z"/>
					</g>
				</g>
				<g>
					<g>
						<path d="M237.7,649.1c-1.1,1.1-5,2-8.7,2s-5.8-0.9-4.7-2c1.1-1.1,5-2,8.7-2S238.8,647.9,237.7,649.1z"/>
					</g>
				</g>
			</g>
			<g>
				<g>
					<rect x="178.4" y="654.8" fill="#FFFFFF" width="65.8" height="65.8"/>
					<path d="M265,635c0,0,0-0.1,0-0.1c0,0,0-0.1,0-0.1c0,0,0,0,0,0c0,0,0-0.1,0-0.1c0,0,0-0.1-0.1-0.1c0,0-0.1-0.1-0.1-0.1
						c0,0-0.1-0.1-0.1-0.1c0,0-0.1-0.1-0.1-0.1c0,0-0.1,0-0.1,0c0,0,0,0,0,0c0,0-0.1,0-0.1,0c-0.1,0-0.1,0-0.2,0c0,0,0,0,0,0h-65.8
						c-0.3,0-0.5,0.1-0.7,0.3l-19.7,19.7c0,0,0,0,0,0c-0.1,0.1-0.1,0.2-0.2,0.3c0,0,0,0.1,0,0.1c0,0.1,0,0.2-0.1,0.3c0,0,0,0,0,0.1
						v65.8c0,0.5,0.4,1,1,1h65.8c0.1,0,0.3,0,0.4-0.1c0.1,0,0.2-0.1,0.3-0.2l19.7-19.7c0.2-0.2,0.3-0.4,0.3-0.7L265,635
						C265,635,265,635,265,635z M198.6,636h63.1l-15.2,15.2l-2.6,2.6h-63.1L198.6,636z M179.4,655.7h63.9v63.9h-63.9V655.7z
						 M263,700.4l-17.8,17.8v-63.1l2.6-2.6l15.2-15.2V700.4z"/>
				</g>
			</g>
			<g>
				<g>
					<circle cx="211.4" cy="687.7" r="6.7"/>
				</g>
			</g>
			<polygon fill="#C8C7C6" points="477.2,720.6 457.4,700.8 457.4,635 477.2,654.8 			"/>
			<g>
				<g>
					<path d="M469.3,679.8c0,3.7-0.9,5.8-2,4.7c-1.1-1.1-2-5-2-8.7s0.9-5.8,2-4.7C468.4,672.2,469.3,676.1,469.3,679.8z"/>
				</g>
			</g>
			<g>
				<g>
					<g>
						<path d="M465.2,661.7c0,3.7-0.9,5.8-2,4.7c-1.1-1.1-2-5-2-8.7c0-3.7,0.9-5.8,2-4.7C464.3,654.1,465.2,658,465.2,661.7z"/>
					</g>
				</g>
				<g>
					<g>
						<path d="M473.5,697.9c0,3.7-0.9,5.8-2,4.7c-1.1-1.1-2-5-2-8.7s0.9-5.8,2-4.7C472.6,690.3,473.5,694.2,473.5,697.9z"/>
					</g>
				</g>
			</g>
			<polygon fill="#E5E5E5" points="477.2,654.8 543,654.8 523.3,635 457.4,635 			"/>
			<g>
				<g>
					<g>
						<path d="M503.3,640.7c1.1,1.1,5,2,8.7,2c3.7,0,5.8-0.9,4.7-2c-1.1-1.1-5-2-8.7-2C504.2,638.7,502.1,639.6,503.3,640.7z"/>
					</g>
				</g>
				<g>
					<g>
						<path d="M483.8,649.1c1.1,1.1,5,2,8.7,2c3.7,0,5.8-0.9,4.7-2c-1.1-1.1-5-2-8.7-2C484.7,647,482.6,647.9,483.8,649.1z"/>
					</g>
				</g>
			</g>
			<g>
				<g>
					<rect x="477.2" y="654.8" fill="#FFFFFF" width="65.8" height="65.8"/>
					<path d="M456.5,635v65.8c0,0.3,0.1,0.5,0.3,0.7l19.7,19.7c0.1,0.1,0.2,0.2,0.3,0.2c0.1,0,0.2,0.1,0.4,0.1H543c0.5,0,1-0.4,1-1
						v-65.8c0,0,0,0,0-0.1c0-0.1,0-0.2-0.1-0.3c0,0,0-0.1,0-0.1c0-0.1-0.1-0.2-0.2-0.3c0,0,0,0,0,0L524,634.3
						c-0.2-0.2-0.4-0.3-0.7-0.3h-65.8c0,0,0,0,0,0c-0.1,0-0.1,0-0.2,0c0,0-0.1,0-0.1,0c0,0,0,0,0,0c0,0-0.1,0-0.1,0
						c0,0-0.1,0-0.1,0.1c0,0-0.1,0.1-0.1,0.1c0,0-0.1,0.1-0.1,0.1c0,0-0.1,0.1-0.1,0.1c0,0,0,0.1,0,0.1c0,0,0,0,0,0c0,0,0,0.1,0,0.1
						C456.5,634.9,456.5,634.9,456.5,635C456.5,635,456.5,635,456.5,635z M540.7,653.8h-63.1l-2.6-2.6L459.8,636h63.1L540.7,653.8z
						 M542,719.6h-63.9v-63.9H542V719.6z M458.4,637.4l15.2,15.2l2.6,2.6v63.1l-17.8-17.8V637.4z"/>
				</g>
			</g>
			<g>
				<g>
					<circle cx="510.1" cy="687.7" r="6.7"/>
				</g>
			</g>
		</g>
	</g>
</g>
</svg>
